<svg
	color="rgb(var(--foreground, 0, 0, 0))"
	viewBox="0 0 19 24"
	fill="none"
	xmlns="http://www.w3.org/2000/svg"
>
	<path
		d="M14.5093 18.6211V11.1055C14.5093 10.4805 14.3426 10.0065 14.0093 9.68359C13.6812 9.35547 13.1994 9.19141 12.564 9.19141H1.13428V10.3086H12.4858C12.7723 10.3086 12.9937 10.3919 13.1499 10.5586C13.3114 10.7201 13.3921 10.944 13.3921 11.2305V18.6211H14.5093ZM10.2671 9.55859H9.1499V18.6211H10.2671V9.55859ZM2.91553 19.1914H16.4312C17.2541 19.1914 17.8687 18.9883 18.2749 18.582C18.6812 18.181 18.8843 17.5794 18.8843 16.7773V7.23047C18.8843 6.42839 18.6812 5.82422 18.2749 5.41797C17.8687 5.01172 17.2541 4.80859 16.4312 4.80859H2.91553C2.09782 4.80859 1.48324 5.01172 1.07178 5.41797C0.665527 5.81901 0.462402 6.42318 0.462402 7.23047V16.7773C0.462402 17.5794 0.665527 18.181 1.07178 18.582C1.48324 18.9883 2.09782 19.1914 2.91553 19.1914ZM2.93115 17.9336C2.54053 17.9336 2.24105 17.832 2.03271 17.6289C1.82438 17.4206 1.72021 17.1133 1.72021 16.707V7.30078C1.72021 6.89453 1.82438 6.58724 2.03271 6.37891C2.24105 6.17057 2.54053 6.06641 2.93115 6.06641H16.4155C16.8009 6.06641 17.0978 6.17057 17.3062 6.37891C17.5197 6.58724 17.6265 6.89453 17.6265 7.30078V16.707C17.6265 17.1133 17.5197 17.4206 17.3062 17.6289C17.0978 17.832 16.8009 17.9336 16.4155 17.9336H2.93115Z"
		fill="currentColor"
	/>
</svg>
