<svg
	color="rgb(var(--foreground, 0, 0, 0))"
	viewBox="0 0 24 24"
	fill="none"
	xmlns="http://www.w3.org/2000/svg"
>
	<path
		d="M5.10745 14.7266H5.74026C5.71943 14.5234 5.7012 14.3151 5.68558 14.1016C5.67516 13.8828 5.68297 13.6719 5.70901 13.4688H5.19339C4.55276 13.4688 3.98506 13.3307 3.49026 13.0547C2.99547 12.7734 2.60745 12.3854 2.3262 11.8906C2.04495 11.3958 1.90433 10.8255 1.90433 10.1797C1.90433 9.53906 2.04495 8.97135 2.3262 8.47656C2.60745 7.98177 2.99547 7.59635 3.49026 7.32031C3.98506 7.03906 4.55276 6.89844 5.19339 6.89844H12.1231C12.7585 6.89844 13.3236 7.03906 13.8184 7.32031C14.3132 7.59635 14.7012 7.98177 14.9825 8.47656C15.2689 8.97135 15.4121 9.53906 15.4121 10.1797C15.4121 10.8255 15.2715 11.3958 14.9903 11.8906C14.709 12.3854 14.3184 12.7734 13.8184 13.0547C13.3236 13.3307 12.7585 13.4688 12.1231 13.4688H9.38089C9.34964 13.5469 9.32881 13.6406 9.31839 13.75C9.31318 13.8542 9.31839 13.9661 9.33401 14.0859C9.34964 14.2005 9.37568 14.3151 9.41214 14.4297C9.4486 14.5391 9.49547 14.638 9.55276 14.7266H12.209C13.0944 14.7266 13.8783 14.5339 14.5606 14.1484C15.2429 13.763 15.7767 13.2292 16.1621 12.5469C16.5528 11.8646 16.7481 11.0755 16.7481 10.1797C16.7481 9.28906 16.5528 8.5026 16.1621 7.82031C15.7767 7.13281 15.2429 6.59896 14.5606 6.21875C13.8783 5.83333 13.0944 5.64062 12.209 5.64062H5.10745C4.22204 5.64062 3.43818 5.83333 2.75589 6.21875C2.0736 6.59896 1.53714 7.13281 1.14651 7.82031C0.761098 8.5026 0.56839 9.28906 0.56839 10.1797C0.56839 11.0755 0.761098 11.8646 1.14651 12.5469C1.53714 13.2292 2.0736 13.763 2.75589 14.1484C3.43818 14.5339 4.22204 14.7266 5.10745 14.7266ZM11.3731 18.3594H18.4746C19.3601 18.3594 20.1439 18.1667 20.8262 17.7812C21.5085 17.3958 22.0423 16.862 22.4278 16.1797C22.8184 15.4974 23.0137 14.7083 23.0137 13.8125C23.0137 12.9219 22.8184 12.1354 22.4278 11.4531C22.0423 10.7656 21.5085 10.2318 20.8262 9.85156C20.1439 9.46615 19.3601 9.27344 18.4746 9.27344H17.834C17.8601 9.47135 17.8783 9.67969 17.8887 9.89844C17.9043 10.1172 17.8991 10.3281 17.8731 10.5312H18.3809C19.0215 10.5312 19.5892 10.6719 20.084 10.9531C20.5788 11.2292 20.9668 11.6146 21.2481 12.1094C21.5345 12.6042 21.6778 13.1719 21.6778 13.8125C21.6778 14.4583 21.5345 15.0286 21.2481 15.5234C20.9668 16.0182 20.5788 16.4062 20.084 16.6875C19.5892 16.9635 19.0215 17.1016 18.3809 17.1016H11.459C10.8184 17.1016 10.2507 16.9635 9.75589 16.6875C9.2611 16.4062 8.87308 16.0182 8.59183 15.5234C8.31058 15.0286 8.16995 14.4583 8.16995 13.8125C8.16995 13.1719 8.31058 12.6042 8.59183 12.1094C8.87308 11.6146 9.2611 11.2292 9.75589 10.9531C10.2507 10.6719 10.8184 10.5312 11.459 10.5312H14.2012C14.2377 10.4271 14.2559 10.2995 14.2559 10.1484C14.2611 9.9974 14.2429 9.84375 14.2012 9.6875C14.1647 9.53125 14.1048 9.39323 14.0215 9.27344H11.3731C10.4877 9.27344 9.70381 9.46615 9.02151 9.85156C8.33922 10.2318 7.80276 10.7656 7.41214 11.4531C7.02672 12.1354 6.83401 12.9219 6.83401 13.8125C6.83401 14.7083 7.02672 15.4974 7.41214 16.1797C7.80276 16.862 8.33922 17.3958 9.02151 17.7812C9.70381 18.1667 10.4877 18.3594 11.3731 18.3594Z"
		fill="currentColor"
	/>
</svg>
