<svg
	color="rgb(var(--foreground, 0, 0, 0))"
	viewBox="0 0 17 24"
	fill="none"
	xmlns="http://www.w3.org/2000/svg"
>
	<path
		d="M8.38281 8.78127L7.34375 9.83596C7.85938 9.87763 8.29167 9.97398 8.64062 10.125C8.99479 10.2761 9.29948 10.4792 9.55469 10.7344C10.0078 11.1927 10.3099 11.6979 10.4609 12.25C10.612 12.7969 10.612 13.3438 10.4609 13.8906C10.3151 14.4375 10.0156 14.9375 9.5625 15.3906L7.00781 17.9375C6.55469 18.3906 6.05469 18.6927 5.50781 18.8438C4.96094 18.9948 4.41146 18.9948 3.85938 18.8438C3.3125 18.6979 2.8125 18.3985 2.35938 17.9453C1.90625 17.487 1.60417 16.9844 1.45312 16.4375C1.30208 15.8854 1.30208 15.336 1.45312 14.7891C1.60417 14.2422 1.90625 13.7422 2.35938 13.2891L3.89062 11.7578C3.78125 11.513 3.71094 11.2526 3.67969 10.9766C3.65365 10.6953 3.66146 10.4271 3.70312 10.1719L1.40625 12.461C0.786458 13.086 0.369792 13.7761 0.15625 14.5313C-0.0520833 15.2865 -0.0520833 16.0443 0.15625 16.8047C0.364583 17.5599 0.783854 18.2526 1.41406 18.8828C2.04948 19.5183 2.74479 19.9401 3.5 20.1485C4.26042 20.3568 5.01823 20.3542 5.77344 20.1406C6.52865 19.9323 7.21615 19.5183 7.83594 18.8985L10.5078 16.2188C11.1328 15.5938 11.5495 14.9037 11.7578 14.1485C11.9714 13.3933 11.974 12.638 11.7656 11.8828C11.5573 11.1224 11.1354 10.4271 10.5 9.7969C10.2552 9.5469 9.96615 9.33857 9.63281 9.1719C9.29948 9.00002 8.88281 8.86982 8.38281 8.78127ZM8.1875 15.2188L9.22656 14.1641C8.71094 14.1224 8.27604 14.0261 7.92188 13.875C7.57292 13.724 7.27083 13.5209 7.01562 13.2656C6.55729 12.8073 6.2526 12.3047 6.10156 11.7578C5.95052 11.2058 5.95052 10.6563 6.10156 10.1094C6.2526 9.56252 6.55469 9.06252 7.00781 8.6094L9.55469 6.06252C10.013 5.6094 10.5156 5.30732 11.0625 5.15627C11.6094 5.00523 12.1562 5.00523 12.7031 5.15627C13.25 5.30211 13.7526 5.60419 14.2109 6.06252C14.6641 6.51565 14.9661 7.01825 15.1172 7.57034C15.2682 8.11721 15.2682 8.66409 15.1172 9.21096C14.9661 9.75784 14.6641 10.2578 14.2109 10.711L12.6797 12.2422C12.7891 12.4922 12.8568 12.7552 12.8828 13.0313C12.9141 13.3073 12.9089 13.5729 12.8672 13.8281L15.1641 11.5391C15.7839 10.9141 16.1979 10.224 16.4062 9.46877C16.6198 8.71357 16.6224 7.95836 16.4141 7.20315C16.2057 6.44273 15.7865 5.74742 15.1562 5.11721C14.5208 4.48179 13.8229 4.05992 13.0625 3.85159C12.3073 3.64325 11.5521 3.64586 10.7969 3.8594C10.0417 4.06773 9.35156 4.4844 8.72656 5.1094L6.0625 7.78127C5.4375 8.40627 5.01823 9.09638 4.80469 9.85159C4.59635 10.6068 4.59635 11.3646 4.80469 12.125C5.01302 12.8802 5.4349 13.5729 6.07031 14.2031C6.3151 14.4531 6.60417 14.6641 6.9375 14.836C7.27083 15.0026 7.6875 15.1302 8.1875 15.2188Z"
		fill="currentColor"
	/>
</svg>
