<svg
	color="rgb(var(--foreground, 0, 0, 0))"
	viewBox="0 0 17 24"
	fill="none"
	xmlns="http://www.w3.org/2000/svg"
>
	<path
		d="M1.27029 18.8984C1.68696 19.3099 2.13748 19.6172 2.62186 19.8203C3.10623 20.0234 3.60363 20.1198 4.11404 20.1094C4.62967 20.099 5.14008 19.9792 5.64529 19.75C6.1505 19.5208 6.62967 19.1797 7.08279 18.7266L9.46561 16.3281L8.58279 15.4375L6.19998 17.8281C5.77811 18.2448 5.32498 18.5391 4.84061 18.7109C4.36144 18.8828 3.88227 18.9167 3.40311 18.8125C2.92915 18.7135 2.49425 18.4661 2.09842 18.0703C1.69738 17.6745 1.44738 17.2396 1.34842 16.7656C1.24946 16.2865 1.28592 15.8073 1.45779 15.3281C1.62967 14.8437 1.92394 14.3906 2.34061 13.9687L4.73123 11.5781L3.84061 10.7031L1.44217 13.0859C0.989043 13.5391 0.647898 14.0182 0.418731 14.5234C0.189564 15.0286 0.0697726 15.5391 0.0593559 16.0547C0.0489393 16.5651 0.145293 17.0651 0.348418 17.5547C0.551543 18.0391 0.858835 18.487 1.27029 18.8984ZM15.0672 5.10156C14.6505 4.6901 14.2 4.38281 13.7156 4.17969C13.2312 3.97656 12.7312 3.88021 12.2156 3.89062C11.7052 3.90104 11.1974 4.02083 10.6922 4.25C10.1922 4.47917 9.71561 4.81771 9.26248 5.26562L6.87186 7.66406L7.75467 8.5625L10.1453 6.17187C10.562 5.75521 11.0099 5.46094 11.489 5.28906C11.9734 5.11719 12.4526 5.08333 12.9265 5.1875C13.4057 5.28646 13.8432 5.53125 14.239 5.92187C14.6401 6.31771 14.8901 6.75521 14.989 7.23437C15.0932 7.70833 15.0568 8.1875 14.8797 8.67187C14.7078 9.15625 14.4135 9.60677 13.9969 10.0234L11.6062 12.4141L12.5047 13.2969L14.8953 10.9063C15.3484 10.4531 15.6896 9.97656 15.9187 9.47656C16.1479 8.97135 16.2677 8.46354 16.2781 7.95312C16.2885 7.4375 16.1922 6.9375 15.989 6.45312C15.7859 5.96354 15.4786 5.51302 15.0672 5.10156ZM12.5125 10.5625L9.59842 7.65625C9.14009 7.20312 8.68696 6.97396 8.23904 6.96875C7.79633 6.95833 7.34061 7.1901 6.87186 7.66406L3.84061 10.7031C3.36665 11.1719 3.13227 11.6302 3.13748 12.0781C3.14269 12.5208 3.37186 12.9714 3.82498 13.4297L6.73904 16.3437C7.19738 16.7969 7.6479 17.026 8.09061 17.0312C8.53852 17.0365 8.99686 16.8021 9.46561 16.3281L12.5047 13.2969C12.9786 12.8281 13.2104 12.3724 13.2 11.9297C13.1948 11.4818 12.9656 11.026 12.5125 10.5625ZM8.87967 8.60156L11.5672 11.2891C11.7911 11.513 11.8927 11.7188 11.8719 11.9063C11.8562 12.0885 11.7312 12.2943 11.4969 12.5234L8.69217 15.3281C8.463 15.5625 8.25467 15.6901 8.06717 15.7109C7.88488 15.7266 7.68175 15.6224 7.45779 15.3984L4.77029 12.7109C4.54633 12.487 4.44217 12.2839 4.45779 12.1016C4.47863 11.9141 4.60623 11.7031 4.84061 11.4688L7.64529 8.67187C7.87446 8.4375 8.08279 8.3125 8.27029 8.29687C8.45779 8.27604 8.66092 8.3776 8.87967 8.60156ZM8.16092 11.125C8.35363 11.125 8.51248 11.0625 8.63748 10.9375C8.76248 10.8073 8.82498 10.651 8.82498 10.4688C8.83019 10.2865 8.76769 10.1302 8.63748 10C8.50727 9.86979 8.35102 9.80469 8.16873 9.80469C7.98644 9.80469 7.83019 9.8724 7.69998 10.0078C7.57498 10.138 7.51248 10.2969 7.51248 10.4844C7.51248 10.651 7.57758 10.7995 7.70779 10.9297C7.838 11.0599 7.98904 11.125 8.16092 11.125ZM6.66092 12.6562C6.838 12.6562 6.98904 12.5911 7.11404 12.4609C7.24425 12.3307 7.30936 12.1797 7.30936 12.0078C7.30936 11.8203 7.24425 11.6615 7.11404 11.5313C6.98904 11.401 6.8354 11.3359 6.65311 11.3359C6.46561 11.3359 6.30675 11.401 6.17654 11.5313C6.05154 11.6615 5.98904 11.8177 5.98904 12C5.98904 12.1771 6.05154 12.3307 6.17654 12.4609C6.30675 12.5911 6.46821 12.6562 6.66092 12.6562ZM9.68436 12.6562C9.87186 12.6562 10.0281 12.5911 10.1531 12.4609C10.2833 12.3307 10.3484 12.1745 10.3484 11.9922C10.3484 11.8099 10.2833 11.6563 10.1531 11.5313C10.0281 11.401 9.86925 11.3359 9.67654 11.3359C9.50467 11.3359 9.35363 11.401 9.22342 11.5313C9.09321 11.6615 9.02811 11.8099 9.02811 11.9766C9.02811 12.1641 9.09061 12.3255 9.21561 12.4609C9.34581 12.5911 9.50206 12.6562 9.68436 12.6562ZM8.16873 14.1797C8.35102 14.1797 8.50467 14.1146 8.62967 13.9844C8.75988 13.8542 8.82498 13.6953 8.82498 13.5078C8.82498 13.3359 8.75988 13.1849 8.62967 13.0547C8.50467 12.9245 8.35363 12.8594 8.17654 12.8594C7.98383 12.8594 7.82238 12.9245 7.69217 13.0547C7.56717 13.1849 7.50467 13.3385 7.50467 13.5156C7.50467 13.6979 7.56717 13.8542 7.69217 13.9844C7.82238 14.1146 7.98123 14.1797 8.16873 14.1797Z"
		fill="currentColor"
	/>
</svg>
