<svg
	color="rgb(var(--foreground, 0, 0, 0))"
	viewBox="0 0 17 24"
	fill="none"
	xmlns="http://www.w3.org/2000/svg"
>
	<path
		d="M1.46114 18.841C1.9976 19.3879 2.58614 19.7447 3.22676 19.9113C3.8726 20.0832 4.53145 20.0676 5.20332 19.8644C5.8752 19.6613 6.51582 19.2759 7.1252 18.7082L8.47676 17.4426C8.13822 17.5415 7.79187 17.5467 7.4377 17.4582C7.08874 17.3644 6.72416 17.1275 6.34395 16.7473L3.5002 13.8957C3.11999 13.5155 2.89343 13.1613 2.82051 12.8332C2.7476 12.4999 2.76062 12.1639 2.85957 11.8254L1.59395 13.1769C1.02624 13.7915 0.640824 14.4322 0.437699 15.0988C0.239783 15.7655 0.226762 16.4217 0.398637 17.0676C0.570512 17.7082 0.924679 18.2993 1.46114 18.841ZM7.07832 15.9504C7.46895 16.341 7.85437 16.5389 8.23457 16.5441C8.61999 16.5493 9.01322 16.3514 9.41426 15.9504L12.258 13.0988C12.6643 12.6978 12.8648 12.3072 12.8596 11.9269C12.8596 11.5467 12.6643 11.1613 12.2736 10.7707L9.53145 8.02851C9.14082 7.63788 8.75541 7.44257 8.3752 7.44257C7.99499 7.43736 7.60437 7.63788 7.20332 8.04413L4.35176 10.8879C3.95072 11.2889 3.7528 11.6822 3.75801 12.0676C3.76322 12.4478 3.96114 12.8332 4.35176 13.2238L7.07832 15.9504ZM6.14082 12.5207C5.98978 12.3697 5.91426 12.1952 5.91426 11.9973C5.91426 11.7941 5.98978 11.6197 6.14082 11.4738C6.28666 11.328 6.45853 11.2577 6.65645 11.2629C6.85957 11.2629 7.03666 11.3358 7.1877 11.4816C7.32312 11.6223 7.39082 11.7941 7.39082 11.9973C7.39603 12.1952 7.32832 12.3644 7.1877 12.5051C7.03145 12.6613 6.85176 12.7394 6.64864 12.7394C6.45072 12.7342 6.28145 12.6613 6.14082 12.5207ZM7.79707 10.8723C7.64603 10.7264 7.57051 10.5519 7.57051 10.3488C7.57051 10.1457 7.64082 9.97122 7.78145 9.82538C7.93249 9.67955 8.10697 9.60663 8.30489 9.60663C8.50801 9.60663 8.68249 9.67955 8.82832 9.82538C8.97416 9.97122 9.04707 10.1457 9.04707 10.3488C9.04707 10.5467 8.97155 10.7212 8.82051 10.8723C8.67989 11.0129 8.50801 11.0832 8.30489 11.0832C8.10176 11.0832 7.93249 11.0129 7.79707 10.8723ZM10.4768 12.5207C10.3309 12.6613 10.1564 12.7316 9.95332 12.7316C9.7502 12.7316 9.57572 12.6561 9.42989 12.5051C9.28926 12.3697 9.21895 12.2004 9.21895 11.9973C9.21895 11.7941 9.28926 11.6223 9.42989 11.4816C9.58093 11.3306 9.75541 11.2577 9.95332 11.2629C10.1564 11.2629 10.3309 11.3332 10.4768 11.4738C10.6226 11.6197 10.6955 11.7941 10.6955 11.9973C10.6955 12.1952 10.6226 12.3697 10.4768 12.5207ZM7.78145 14.1613C7.64082 14.0207 7.56791 13.8514 7.5627 13.6535C7.5627 13.4504 7.64082 13.2733 7.79707 13.1223C7.9377 12.9764 8.10697 12.9061 8.30489 12.9113C8.50801 12.9113 8.67989 12.9816 8.82051 13.1223C8.96634 13.2681 9.04187 13.4426 9.04707 13.6457C9.05228 13.8488 8.97937 14.0207 8.82832 14.1613C8.67728 14.3124 8.5028 14.3879 8.30489 14.3879C8.10697 14.3879 7.93249 14.3124 7.78145 14.1613ZM13.758 12.1848L15.0158 10.8176C15.5835 10.1978 15.9663 9.55455 16.1643 8.88788C16.3674 8.22122 16.383 7.56757 16.2111 6.92695C16.0445 6.28632 15.6929 5.69518 15.1564 5.15351C14.6148 4.60663 14.021 4.24986 13.3752 4.0832C12.7346 3.91653 12.0783 3.93476 11.4064 4.13788C10.7398 4.34101 10.0992 4.72382 9.48457 5.28632L8.1252 6.54413C8.45853 6.44518 8.80749 6.44518 9.17207 6.54413C9.53666 6.64309 9.90905 6.88528 10.2893 7.2707L13.133 10.1144C13.5132 10.4947 13.7372 10.8514 13.8049 11.1848C13.8726 11.5129 13.857 11.8462 13.758 12.1848Z"
		fill="currentColor"
	/>
</svg>
