<svg
	color="rgb(var(--foreground, 0, 0, 0))"
	viewBox="0 0 17 24"
	fill="none"
	xmlns="http://www.w3.org/2000/svg"
>
	<path
		d="M0.973915 20.3419C1.38017 20.7534 1.81506 21.0268 2.2786 21.1622C2.74735 21.3028 3.2135 21.308 3.67704 21.1778C4.14058 21.0476 4.57287 20.782 4.97392 20.381C5.2135 20.1414 5.45048 19.8393 5.68485 19.4747C5.91923 19.1101 6.14579 18.7247 6.36454 18.3185C6.5885 17.9122 6.80204 17.519 7.00517 17.1388C7.20829 16.7586 7.39839 16.433 7.57548 16.1622L9.4661 18.0606C9.75777 18.3523 10.0651 18.4981 10.388 18.4981C10.7161 18.5034 11.0182 18.3653 11.2942 18.0841L11.9661 17.4122C12.2526 17.1205 12.3932 16.8185 12.388 16.506C12.3828 16.1882 12.2343 15.8836 11.9427 15.5919L5.73173 9.37314C5.43485 9.08148 5.12496 8.93564 4.80204 8.93564C4.48433 8.93043 4.18485 9.06846 3.9036 9.34971L3.23173 10.0216C2.95048 10.3028 2.80985 10.6049 2.80985 10.9278C2.81506 11.2507 2.9635 11.558 3.25517 11.8497L5.14579 13.7403C4.88017 13.9174 4.55725 14.1075 4.17704 14.3106C3.79683 14.5138 3.4036 14.7273 2.99735 14.9513C2.5911 15.17 2.20569 15.3966 1.8411 15.631C1.48173 15.8653 1.17964 16.1023 0.934853 16.3419C0.533811 16.7429 0.268186 17.1778 0.137978 17.6466C0.00776942 18.1101 0.0103736 18.5737 0.14579 19.0372C0.286415 19.506 0.562457 19.9409 0.973915 20.3419ZM3.05985 19.3263C2.78902 19.3263 2.55985 19.2299 2.37235 19.0372C2.18485 18.8497 2.0911 18.6231 2.0911 18.3575C2.0911 18.0919 2.18485 17.8653 2.37235 17.6778C2.55985 17.4903 2.78902 17.3966 3.05985 17.3966C3.32548 17.3966 3.55204 17.4903 3.73954 17.6778C3.92704 17.8653 4.02079 18.0919 4.02079 18.3575C4.02079 18.6231 3.92704 18.8497 3.73954 19.0372C3.55204 19.2299 3.32548 19.3263 3.05985 19.3263ZM12.8724 15.2325L15.9036 12.2013C16.3411 11.769 16.5546 11.308 16.5442 10.8185C16.5338 10.3289 16.3072 9.85752 15.8645 9.40439L15.4661 8.99814C15.263 9.26377 14.9869 9.52939 14.638 9.79502C14.289 10.0554 13.9218 10.2846 13.5364 10.4825C13.1562 10.6804 12.8125 10.8185 12.5052 10.8966C12.2031 10.9747 11.9974 10.9565 11.888 10.8419C11.8515 10.8054 11.8333 10.756 11.8333 10.6935C11.8333 10.631 11.8593 10.5737 11.9114 10.5216C12.2291 10.2039 12.5052 9.88356 12.7395 9.56064C12.9791 9.23252 13.1718 8.87575 13.3177 8.49033C13.4687 8.0997 13.5677 7.65439 13.6145 7.15439L9.59892 3.13095C9.35412 2.88616 9.06767 2.75335 8.73954 2.73252C8.41142 2.70648 8.10412 2.80023 7.81767 3.01377C7.53121 3.22731 7.33069 3.56845 7.2161 4.0372C7.04944 4.70387 6.88798 5.2872 6.73173 5.7872C6.58069 6.282 6.42704 6.7221 6.27079 7.10752C6.11454 7.48773 5.95569 7.83929 5.79423 8.1622L12.8724 15.2325Z"
		fill="currentColor"
	/>
</svg>
