<svg
	color="rgb(var(--foreground, 0, 0, 0))"
	viewBox="0 0 18 24"
	fill="none"
	xmlns="http://www.w3.org/2000/svg"
>
	<path
		d="M1.41693 20.2949C2.06797 20.9511 2.75547 21.2819 3.47943 21.2871C4.20339 21.2923 4.88568 20.9746 5.52631 20.334C5.76589 20.0996 6.00287 19.8001 6.23725 19.4355C6.47683 19.0709 6.7112 18.6855 6.94037 18.2793C7.16954 17.8782 7.38829 17.5006 7.59662 17.1465C7.81016 16.7923 8.01068 16.5058 8.19818 16.2871L9.86225 17.959C10.1643 18.2662 10.4872 18.4199 10.831 18.4199C11.18 18.4251 11.5029 18.2793 11.7997 17.9824L12.8076 16.9668C13.1044 16.6647 13.2529 16.3444 13.2529 16.0058C13.2529 15.6673 13.0966 15.3444 12.7841 15.0371L6.68256 8.9277C6.37527 8.62041 6.04975 8.46677 5.706 8.46677C5.36745 8.46156 5.04714 8.60739 4.74506 8.90427L3.73725 9.91989C3.44037 10.2168 3.29193 10.5371 3.29193 10.8808C3.29193 11.2246 3.44558 11.5501 3.75287 11.8574L5.42475 13.5215C5.206 13.7037 4.91954 13.9017 4.56537 14.1152C4.2112 14.3235 3.8336 14.5449 3.43256 14.7793C3.03152 15.0084 2.6487 15.2428 2.28412 15.4824C1.91954 15.7168 1.62006 15.9511 1.38568 16.1855C0.745058 16.8261 0.42735 17.5084 0.432558 18.2324C0.437766 18.9564 0.765891 19.6439 1.41693 20.2949ZM4.82318 10.6152L5.456 9.99802C5.56016 9.89385 5.66433 9.84177 5.7685 9.84177C5.87787 9.83656 5.98204 9.88604 6.081 9.99021L11.7294 15.6308C11.9326 15.8392 11.9274 16.0501 11.7138 16.2636L11.1044 16.8808C10.8909 17.11 10.6774 17.1126 10.4638 16.8886L8.59662 15.0136C8.45079 14.8678 8.28933 14.8027 8.11225 14.8183C7.94037 14.8287 7.7711 14.9147 7.60443 15.0761C7.45339 15.2272 7.2737 15.4798 7.06537 15.834C6.85704 16.1881 6.62787 16.5892 6.37787 17.0371C6.12787 17.485 5.85964 17.9277 5.57318 18.3652C5.29193 18.8027 4.99506 19.1751 4.68256 19.4824C4.30756 19.8626 3.90391 20.0501 3.47162 20.0449C3.04454 20.0449 2.63568 19.8522 2.24506 19.4668C1.85964 19.0814 1.66433 18.6725 1.65912 18.2402C1.65912 17.8079 1.84922 17.4043 2.22943 17.0293C2.53672 16.722 2.90912 16.4251 3.34662 16.1386C3.78412 15.8522 4.22683 15.584 4.67475 15.334C5.12266 15.084 5.5237 14.8574 5.87787 14.6543C6.23725 14.4459 6.49245 14.2662 6.6435 14.1152C6.79975 13.9485 6.88568 13.7767 6.90131 13.5996C6.91693 13.4225 6.85183 13.2636 6.706 13.123L4.82318 11.248C4.60964 11.0345 4.60964 10.8235 4.82318 10.6152ZM3.44037 19.2558C3.706 19.2558 3.93256 19.1595 4.12006 18.9668C4.30756 18.7793 4.40131 18.5527 4.40131 18.2871C4.40131 18.0215 4.30756 17.7949 4.12006 17.6074C3.93256 17.4199 3.706 17.3261 3.44037 17.3261C3.17475 17.3261 2.94558 17.4199 2.75287 17.6074C2.56537 17.7949 2.47162 18.0215 2.47162 18.2871C2.47162 18.5527 2.56537 18.7793 2.75287 18.9668C2.94558 19.1595 3.17475 19.2558 3.44037 19.2558ZM12.6982 15.8105L16.4091 12.0996C16.8414 11.6673 17.0523 11.2064 17.0419 10.7168C17.0367 10.222 16.8128 9.75062 16.3701 9.30271L10.2372 3.16208C10.0289 2.95895 9.79454 2.82614 9.53412 2.76364C9.27891 2.69593 9.0237 2.69593 8.7685 2.76364C8.5185 2.83135 8.29714 2.96416 8.10443 3.16208C7.91172 3.36 7.77891 3.61781 7.706 3.93552C7.56016 4.56572 7.43516 5.09958 7.331 5.53708C7.23204 5.96937 7.13568 6.34177 7.04193 6.65427C6.95339 6.96156 6.85443 7.24281 6.74506 7.49802C6.63568 7.74802 6.50287 8.00062 6.34662 8.25583C6.19037 8.51104 5.99245 8.80531 5.75287 9.13864L6.65131 10.0371C6.99506 9.58916 7.2685 9.18291 7.47162 8.81833C7.67995 8.44854 7.85183 8.07093 7.98725 7.68552C8.12787 7.3001 8.26329 6.8626 8.3935 6.37302C8.5237 5.87822 8.68256 5.28187 8.87006 4.58395C8.90652 4.44854 8.9612 4.34958 9.03412 4.28708C9.11225 4.21937 9.19818 4.19072 9.29193 4.20114C9.38568 4.20635 9.47683 4.25322 9.56537 4.34177L15.4169 10.1855C15.5992 10.3678 15.6904 10.5605 15.6904 10.7636C15.6904 10.9668 15.607 11.1517 15.4404 11.3183L11.8232 14.9355L12.6982 15.8105ZM11.4638 11.3574C11.568 11.4616 11.7659 11.472 12.0576 11.3886C12.3544 11.3053 12.6878 11.1647 13.0576 10.9668C13.4326 10.7636 13.7919 10.5345 14.1357 10.2793C14.4794 10.0189 14.7503 9.76364 14.9482 9.51364L13.2294 7.8027C13.1565 8.49541 12.956 9.10218 12.6279 9.62302C12.305 10.1439 11.9247 10.623 11.4872 11.0605C11.3779 11.1647 11.3701 11.2636 11.4638 11.3574Z"
		fill="currentColor"
	/>
</svg>
