<svg
	color="rgb(var(--foreground, 0, 0, 0))"
	viewBox="0 0 17 24"
	fill="none"
	xmlns="http://www.w3.org/2000/svg"
>
	<path
		d="M8.60388 19.9687C9.69242 19.9687 10.7159 19.7604 11.6742 19.3437C12.6377 18.9271 13.4867 18.3516 14.2211 17.6172C14.9554 16.8828 15.531 16.0365 15.9476 15.0781C16.3643 14.1146 16.5726 13.0885 16.5726 12C16.5726 10.9115 16.3643 9.88802 15.9476 8.92969C15.531 7.96615 14.9554 7.11719 14.2211 6.38281C13.4919 5.64844 12.6455 5.07292 11.682 4.65625C10.7185 4.23958 9.69242 4.03125 8.60388 4.03125C7.51534 4.03125 6.4893 4.23958 5.52576 4.65625C4.56742 5.07292 3.72107 5.64844 2.98669 6.38281C2.25232 7.11719 1.6768 7.96615 1.26013 8.92969C0.843465 9.88802 0.635132 10.9115 0.635132 12C0.635132 13.0885 0.843465 14.1146 1.26013 15.0781C1.6768 16.0365 2.25232 16.8828 2.98669 17.6172C3.72107 18.3516 4.56742 18.9271 5.52576 19.3437C6.4893 19.7604 7.51534 19.9687 8.60388 19.9687ZM8.60388 18.6406C7.68201 18.6406 6.81742 18.4687 6.01013 18.125C5.20805 17.7812 4.50232 17.3073 3.89294 16.7031C3.28878 16.0937 2.81482 15.388 2.47107 14.5859C2.13253 13.7839 1.96326 12.9219 1.96326 12C1.96326 11.0781 2.13513 10.2161 2.47888 9.41406C2.82263 8.61198 3.29659 7.90625 3.90076 7.29688C4.51013 6.6875 5.21586 6.21354 6.01794 5.875C6.82524 5.53125 7.68722 5.35938 8.60388 5.35938V18.6406Z"
		fill="currentColor"
	/>
</svg>
