<svg
	color="rgb(var(--foreground, 0, 0, 0))"
	viewBox="0 0 23 24"
	fill="none"
	xmlns="http://www.w3.org/2000/svg"
>
	<path
		d="M0.266846 12C0.266846 12.1719 0.326742 12.3203 0.446533 12.4453C0.566325 12.5651 0.70695 12.625 0.868408 12.625H21.5559C21.7174 12.625 21.858 12.5651 21.9778 12.4453C22.0976 12.3203 22.1575 12.1719 22.1575 12C22.1575 11.8333 22.0976 11.6901 21.9778 11.5703C21.858 11.4453 21.7174 11.3828 21.5559 11.3828H0.868408C0.70695 11.3828 0.566325 11.4453 0.446533 11.5703C0.326742 11.6901 0.266846 11.8333 0.266846 12ZM11.22 19.9687C12.3085 19.9687 13.332 19.7604 14.2903 19.3437C15.2538 18.9271 16.1028 18.3516 16.8372 17.6172C17.5715 16.8828 18.1471 16.0365 18.5637 15.0781C18.9804 14.1146 19.1887 13.0885 19.1887 12C19.1887 10.9115 18.9778 9.88802 18.5559 8.92969C18.1392 7.96615 17.5637 7.11719 16.8293 6.38281C16.095 5.64844 15.246 5.07292 14.2825 4.65625C13.3241 4.23958 12.3007 4.03125 11.2122 4.03125C10.1184 4.03125 9.09237 4.23958 8.13403 4.65625C7.1757 5.07292 6.32935 5.64844 5.59497 6.38281C4.8606 7.11719 4.28507 7.96615 3.86841 8.92969C3.45695 9.88802 3.25122 10.9115 3.25122 12C3.25122 13.0885 3.45955 14.1146 3.87622 15.0781C4.29289 16.0365 4.8658 16.8828 5.59497 17.6172C6.32935 18.3516 7.1757 18.9271 8.13403 19.3437C9.09758 19.7604 10.1262 19.9687 11.22 19.9687ZM11.22 18.6406C10.2981 18.6406 9.43612 18.4688 8.63403 18.125C7.83195 17.7813 7.12622 17.3073 6.51685 16.7031C5.91268 16.0938 5.43872 15.388 5.09497 14.5859C4.75122 13.7839 4.57935 12.9219 4.57935 12C4.57935 11.0781 4.74862 10.2161 5.08716 9.41406C5.43091 8.61198 5.90487 7.90625 6.50903 7.29688C7.11841 6.6875 7.82414 6.21354 8.62622 5.875C9.4283 5.53125 10.2903 5.35938 11.2122 5.35938C12.1288 5.35938 12.9882 5.53125 13.7903 5.875C14.5976 6.21354 15.3059 6.6875 15.9153 7.29688C16.5247 7.90625 17.0012 8.61198 17.345 9.41406C17.6887 10.2161 17.8606 11.0781 17.8606 12C17.8606 12.9219 17.6887 13.7839 17.345 14.5859C17.0012 15.388 16.5247 16.0938 15.9153 16.7031C15.3111 17.3073 14.6054 17.7813 13.7981 18.125C12.996 18.4688 12.1366 18.6406 11.22 18.6406Z"
		fill="currentColor"
	/>
</svg>
