<svg
	color="rgb(var(--foreground, 0, 0, 0))"
	viewBox="0 0 17 24"
	fill="none"
	xmlns="http://www.w3.org/2000/svg"
>
	<path
		d="M8.66638 19.9687C9.75492 19.9687 10.7784 19.7604 11.7367 19.3437C12.7002 18.9271 13.5492 18.3516 14.2836 17.6172C15.0179 16.8828 15.5935 16.0365 16.0101 15.0781C16.4268 14.1146 16.6351 13.0885 16.6351 12C16.6351 10.9115 16.4268 9.88802 16.0101 8.92969C15.5935 7.96615 15.0179 7.11719 14.2836 6.38281C13.5492 5.64844 12.7002 5.07292 11.7367 4.65625C10.7784 4.23958 9.75492 4.03125 8.66638 4.03125C7.57784 4.03125 6.5518 4.23958 5.58826 4.65625C4.62472 5.07292 3.77576 5.64844 3.04138 6.38281C2.31222 7.11719 1.7393 7.96615 1.32263 8.92969C0.905965 9.88802 0.697632 10.9115 0.697632 12C0.697632 13.0885 0.905965 14.1146 1.32263 15.0781C1.7393 16.0365 2.31482 16.8828 3.04919 17.6172C3.78357 18.3516 4.62992 18.9271 5.58826 19.3437C6.5518 19.7604 7.57784 19.9687 8.66638 19.9687ZM8.66638 18.6406V5.35938C9.58826 5.35938 10.4502 5.53125 11.2523 5.875C12.0544 6.21354 12.7575 6.6875 13.3617 7.29688C13.9711 7.90625 14.4476 8.61198 14.7914 9.41406C15.1351 10.2161 15.307 11.0781 15.307 12C15.307 12.9219 15.1351 13.7839 14.7914 14.5859C14.4528 15.388 13.9789 16.0937 13.3695 16.7031C12.7653 17.3073 12.0596 17.7812 11.2523 18.125C10.4502 18.4687 9.58826 18.6406 8.66638 18.6406Z"
		fill="currentColor"
	/>
</svg>
