<svg
	color="rgb(var(--foreground, 0, 0, 0))"
	viewBox="0 0 17 24"
	fill="none"
	xmlns="http://www.w3.org/2000/svg"
>
	<path
		d="M1.90857 12C1.90857 11.6458 1.93461 11.2995 1.98669 10.9609C2.04399 10.6172 2.12211 10.2865 2.22107 9.96875L0.994507 9.45312C0.85909 9.85417 0.754923 10.2682 0.682007 10.6953C0.60909 11.1224 0.572632 11.5573 0.572632 12C0.572632 12.4427 0.60909 12.8776 0.682007 13.3047C0.760132 13.7318 0.866903 14.1458 1.00232 14.5469L2.22107 14.0312C2.12211 13.7135 2.04399 13.3854 1.98669 13.0469C1.93461 12.7031 1.90857 12.3542 1.90857 12ZM5.50232 6.07812L5.00232 4.875C4.22628 5.26562 3.53097 5.76823 2.91638 6.38281C2.3018 6.9974 1.79919 7.69271 1.40857 8.46875L2.62732 8.97656C2.93982 8.35677 3.34086 7.79948 3.83044 7.30469C4.32524 6.8099 4.88253 6.40104 5.50232 6.07812ZM8.53357 5.35938C8.88774 5.35938 9.23669 5.38802 9.58044 5.44531C9.92419 5.4974 10.2575 5.57552 10.5804 5.67969L11.0804 4.46094C10.6794 4.32031 10.2653 4.21354 9.83826 4.14062C9.41117 4.06771 8.97628 4.03125 8.53357 4.03125C8.09086 4.03125 7.65336 4.06771 7.22107 4.14062C6.79399 4.21354 6.37992 4.32031 5.97888 4.46094L6.49451 5.67969C6.81222 5.57552 7.14294 5.4974 7.48669 5.44531C7.83044 5.38802 8.1794 5.35938 8.53357 5.35938ZM14.4554 8.96875L15.6664 8.46875C15.2758 7.69271 14.7705 6.9974 14.1508 6.38281C13.531 5.76302 12.8357 5.25781 12.0648 4.86719L11.5648 6.07812C12.1846 6.39583 12.7419 6.80208 13.2367 7.29688C13.7315 7.78646 14.1377 8.34375 14.4554 8.96875ZM15.182 12C15.182 12.3542 15.1534 12.7031 15.0961 13.0469C15.044 13.3906 14.9685 13.7214 14.8695 14.0391L16.0804 14.5547C16.2211 14.1536 16.3278 13.7396 16.4008 13.3125C16.4737 12.8802 16.5101 12.4427 16.5101 12C16.5101 11.5573 16.4737 11.1224 16.4008 10.6953C16.3278 10.263 16.2211 9.84635 16.0804 9.44531L14.8617 9.96094C14.9659 10.2786 15.044 10.6094 15.0961 10.9531C15.1534 11.2969 15.182 11.6458 15.182 12ZM11.5648 17.9141L12.0648 19.1328C12.8409 18.7422 13.5362 18.2396 14.1508 17.625C14.7705 17.0052 15.2732 16.3073 15.6586 15.5312L14.4633 15.0312C14.1455 15.651 13.7367 16.2083 13.2367 16.7031C12.7419 17.1979 12.1846 17.6016 11.5648 17.9141ZM8.54138 18.6406C8.18201 18.6406 7.83044 18.612 7.48669 18.5547C7.14294 18.5026 6.81222 18.4245 6.49451 18.3203L5.98669 19.5391C6.38774 19.6745 6.8018 19.7786 7.22888 19.8516C7.66117 19.9297 8.09867 19.9687 8.54138 19.9687C8.98409 19.9687 9.41638 19.9323 9.83826 19.8594C10.2653 19.7865 10.6794 19.6823 11.0804 19.5469L10.5726 18.3281C10.2497 18.4271 9.91899 18.5026 9.58044 18.5547C9.2419 18.612 8.89555 18.6406 8.54138 18.6406ZM2.62732 15.0312L1.41638 15.5312C1.80701 16.3073 2.30961 17.0026 2.92419 17.6172C3.53878 18.2318 4.23149 18.7344 5.00232 19.125L5.50232 17.9062C4.88253 17.5937 4.32524 17.1927 3.83044 16.7031C3.34086 16.2083 2.93982 15.651 2.62732 15.0312Z"
		fill="currentColor"
	/>
</svg>
