<svg
	color="rgb(var(--foreground, 0, 0, 0))"
	viewBox="0 0 17 24"
	fill="none"
	xmlns="http://www.w3.org/2000/svg"
>
	<path
		d="M1.84607 12C1.84607 11.6458 1.87211 11.2995 1.92419 10.9609C1.98149 10.6172 2.05961 10.2865 2.15857 9.96875L0.932007 9.45312C0.79659 9.85417 0.692423 10.2682 0.619507 10.6953C0.54659 11.1224 0.510132 11.5573 0.510132 12C0.510132 12.4427 0.54659 12.8776 0.619507 13.3047C0.697632 13.7318 0.804403 14.1458 0.939819 14.5469L2.15857 14.0312C2.05961 13.7135 1.98149 13.3854 1.92419 13.0469C1.87211 12.7031 1.84607 12.3542 1.84607 12ZM5.43982 6.07812L4.93982 4.875C4.16378 5.26562 3.46847 5.76823 2.85388 6.38281C2.2393 6.9974 1.73669 7.69271 1.34607 8.46875L2.56482 8.97656C2.87732 8.35677 3.27836 7.79948 3.76794 7.30469C4.26274 6.8099 4.82003 6.40104 5.43982 6.07812ZM8.47107 5.35938C8.82524 5.35938 9.17419 5.38802 9.51794 5.44531C9.86169 5.4974 10.195 5.57552 10.5179 5.67969L11.0179 4.46094C10.6169 4.32031 10.2028 4.21354 9.77576 4.14062C9.34867 4.06771 8.91378 4.03125 8.47107 4.03125C8.02836 4.03125 7.59086 4.06771 7.15857 4.14062C6.73149 4.21354 6.31742 4.32031 5.91638 4.46094L6.43201 5.67969C6.74972 5.57552 7.08044 5.4974 7.42419 5.44531C7.76794 5.38802 8.1169 5.35938 8.47107 5.35938ZM14.3929 8.96875L15.6039 8.46875C15.2133 7.69271 14.708 6.9974 14.0883 6.38281C13.4685 5.76302 12.7732 5.25781 12.0023 4.86719L11.5023 6.07812C12.1221 6.39583 12.6794 6.80208 13.1742 7.29688C13.669 7.78646 14.0752 8.34375 14.3929 8.96875ZM15.1195 12C15.1195 12.3542 15.0909 12.7031 15.0336 13.0469C14.9815 13.3906 14.906 13.7214 14.807 14.0391L16.0179 14.5547C16.1586 14.1536 16.2653 13.7396 16.3383 13.3125C16.4112 12.8802 16.4476 12.4427 16.4476 12C16.4476 11.5573 16.4112 11.1224 16.3383 10.6953C16.2653 10.263 16.1586 9.84635 16.0179 9.44531L14.7992 9.96094C14.9034 10.2786 14.9815 10.6094 15.0336 10.9531C15.0909 11.2969 15.1195 11.6458 15.1195 12ZM11.5023 17.9141L12.0023 19.1328C12.7784 18.7422 13.4737 18.2396 14.0883 17.625C14.708 17.0052 15.2107 16.3073 15.5961 15.5312L14.4008 15.0312C14.083 15.651 13.6742 16.2083 13.1742 16.7031C12.6794 17.1979 12.1221 17.6016 11.5023 17.9141ZM8.47888 18.6406C8.11951 18.6406 7.76794 18.612 7.42419 18.5547C7.08044 18.5026 6.74972 18.4245 6.43201 18.3203L5.92419 19.5391C6.32524 19.6745 6.7393 19.7786 7.16638 19.8516C7.59867 19.9297 8.03617 19.9687 8.47888 19.9687C8.92159 19.9687 9.35388 19.9323 9.77576 19.8594C10.2028 19.7865 10.6169 19.6823 11.0179 19.5469L10.5101 18.3281C10.1872 18.4271 9.85649 18.5026 9.51794 18.5547C9.1794 18.612 8.83305 18.6406 8.47888 18.6406ZM2.56482 15.0312L1.35388 15.5312C1.74451 16.3073 2.24711 17.0026 2.86169 17.6172C3.47628 18.2318 4.16899 18.7344 4.93982 19.125L5.43982 17.9062C4.82003 17.5937 4.26274 17.1927 3.76794 16.7031C3.27836 16.2083 2.87732 15.651 2.56482 15.0312ZM8.46326 17.4531C9.22367 17.4531 9.93461 17.3125 10.5961 17.0312C11.2575 16.75 11.8357 16.362 12.3304 15.8672C12.8304 15.3672 13.2211 14.7865 13.5023 14.125C13.7836 13.4635 13.9216 12.7552 13.9164 12C13.9164 11.2396 13.7758 10.5312 13.4945 9.875C13.2133 9.21354 12.8226 8.63542 12.3226 8.14062C11.8226 7.64062 11.2419 7.25 10.5804 6.96875C9.92419 6.6875 9.21586 6.54688 8.45544 6.54688C7.70024 6.54688 6.9919 6.6875 6.33044 6.96875C5.67419 7.24479 5.09607 7.63281 4.59607 8.13281C4.10128 8.63281 3.71326 9.21354 3.43201 9.875C3.15597 10.5312 3.01794 11.2396 3.01794 12C3.01794 12.7604 3.15857 13.4714 3.43982 14.1328C3.72107 14.7891 4.10909 15.3672 4.60388 15.8672C5.10388 16.362 5.68201 16.75 6.33826 17.0312C6.99972 17.3125 7.70805 17.4531 8.46326 17.4531Z"
		fill="currentColor"
	/>
</svg>
