<svg
	color="rgb(var(--foreground, 0, 0, 0))"
	viewBox="0 0 16 24"
	fill="none"
	xmlns="http://www.w3.org/2000/svg"
>
	<path
		d="M15.4325 15.0042C15.4325 14.8324 15.3752 14.6917 15.2606 14.5824C15.146 14.473 14.9976 14.4183 14.8153 14.4183H5.61218C5.46114 14.4183 5.38562 14.3428 5.38562 14.1917V5.06674C5.38562 4.86882 5.32833 4.70996 5.21375 4.59017C5.09916 4.47038 4.94812 4.41049 4.76062 4.41049C4.56791 4.41049 4.41427 4.47038 4.29968 4.59017C4.1851 4.70996 4.12781 4.86882 4.12781 5.06674V14.9808C4.12781 15.1683 4.1825 15.3193 4.29187 15.4339C4.40645 15.5433 4.5601 15.598 4.75281 15.598H14.8153C14.9976 15.598 15.146 15.5433 15.2606 15.4339C15.3752 15.3245 15.4325 15.1813 15.4325 15.0042ZM0.143433 8.9808C0.143433 9.15788 0.19812 9.30111 0.307495 9.41049C0.422078 9.51465 0.570516 9.56674 0.752808 9.56674H10.0106C10.1617 9.56674 10.2372 9.64226 10.2372 9.7933V18.973C10.2372 19.1657 10.2945 19.3219 10.4091 19.4417C10.5236 19.5667 10.6747 19.6292 10.8622 19.6292C11.0497 19.6292 11.2007 19.5667 11.3153 19.4417C11.4351 19.3219 11.495 19.1657 11.495 18.973V9.01205C11.495 8.82455 11.4377 8.67351 11.3231 8.55892C11.2085 8.44434 11.0575 8.38705 10.87 8.38705H0.752808C0.570516 8.38705 0.422078 8.44173 0.307495 8.55111C0.19812 8.66048 0.143433 8.80372 0.143433 8.9808ZM0.315308 16.3636C0.315308 17.1136 0.471558 17.7673 0.784058 18.3245C1.09656 18.887 1.53145 19.3245 2.08875 19.637C2.65125 19.9548 3.3075 20.1136 4.0575 20.1136H4.21375V21.137C4.21375 21.4287 4.30489 21.6058 4.48718 21.6683C4.66947 21.736 4.87 21.6865 5.08875 21.5199L7.0575 20.0745C7.21895 19.9548 7.29968 19.8272 7.29968 19.6917C7.30489 19.5615 7.22416 19.4339 7.0575 19.3089L5.08875 17.8714C4.87 17.7152 4.66947 17.6683 4.48718 17.7308C4.30489 17.7933 4.21375 17.9652 4.21375 18.2464V19.2074H4.06531C3.4976 19.2074 3.00541 19.085 2.58875 18.8402C2.17729 18.5954 1.85697 18.2594 1.62781 17.8324C1.40385 17.4053 1.29187 16.9157 1.29187 16.3636V15.1995C1.29187 15.0641 1.245 14.9495 1.15125 14.8558C1.0575 14.7568 0.942912 14.7074 0.807495 14.7074C0.672078 14.7074 0.554891 14.7568 0.455933 14.8558C0.362183 14.9495 0.315308 15.0641 0.315308 15.1995V16.3636ZM8.57312 4.68392L10.5497 6.12142C10.7632 6.28288 10.9611 6.33236 11.1434 6.26986C11.3309 6.20215 11.4247 6.02767 11.4247 5.74642V4.7933H11.5731C12.1356 4.7933 12.6226 4.91569 13.0341 5.16049C13.4507 5.40007 13.771 5.7334 13.995 6.16049C14.2242 6.58757 14.3387 7.07976 14.3387 7.63705V8.80111C14.3387 8.93132 14.3856 9.0459 14.4794 9.14486C14.5783 9.23861 14.6955 9.28549 14.8309 9.28549C14.9611 9.28549 15.0731 9.23861 15.1669 9.14486C15.2658 9.0459 15.3153 8.93132 15.3153 8.80111V7.62923C15.3153 6.88444 15.1591 6.2308 14.8466 5.6683C14.5393 5.1058 14.1044 4.6683 13.5419 4.3558C12.9846 4.0433 12.3309 3.88705 11.5809 3.88705H11.4247V2.8558C11.4247 2.56934 11.3309 2.39486 11.1434 2.33236C10.9611 2.26465 10.7632 2.31153 10.5497 2.47299L8.57312 3.9183C8.41166 4.0433 8.32833 4.1709 8.32312 4.30111C8.32312 4.43132 8.40645 4.55892 8.57312 4.68392Z"
		fill="currentColor"
	/>
</svg>
