<svg
	color="rgb(var(--foreground, 0, 0, 0))"
	viewBox="0 0 18 24"
	fill="none"
	xmlns="http://www.w3.org/2000/svg"
>
	<path
		d="M17.1434 16.1992C17.1434 16.0117 17.0861 15.8659 16.9716 15.7617C16.8622 15.6576 16.7111 15.6055 16.5184 15.6055H5.25281C5.10177 15.6055 5.02625 15.5299 5.02625 15.3789V4.11328C5.02625 3.92057 4.96895 3.76432 4.85437 3.64453C4.73979 3.51953 4.58614 3.45703 4.39343 3.45703C4.20593 3.45703 4.05489 3.51953 3.94031 3.64453C3.82572 3.76432 3.76843 3.92057 3.76843 4.11328V16.168C3.76843 16.3555 3.82312 16.5065 3.9325 16.6211C4.04708 16.7305 4.19812 16.7852 4.38562 16.7852H16.5184C16.7111 16.7852 16.8622 16.7331 16.9716 16.6289C17.0861 16.5247 17.1434 16.3815 17.1434 16.1992ZM0.0106201 7.80078C0.0106201 7.98828 0.0653076 8.13411 0.174683 8.23828C0.289266 8.34245 0.440308 8.39453 0.627808 8.39453H11.9012C12.0523 8.39453 12.1278 8.47005 12.1278 8.62109V19.8867C12.1278 20.0846 12.1851 20.2435 12.2997 20.3633C12.4143 20.4831 12.5653 20.543 12.7528 20.543C12.9455 20.543 13.0992 20.4831 13.2137 20.3633C13.3283 20.2435 13.3856 20.0846 13.3856 19.8867V7.83984C13.3856 7.65234 13.3283 7.5013 13.2137 7.38672C13.1044 7.27214 12.9559 7.21484 12.7684 7.21484H0.627808C0.440308 7.21484 0.289266 7.26953 0.174683 7.37891C0.0653076 7.48307 0.0106201 7.6237 0.0106201 7.80078Z"
		fill="currentColor"
	/>
</svg>
