<svg
	color="rgb(var(--foreground, 0, 0, 0))"
	viewBox="0 0 15 24"
	fill="none"
	xmlns="http://www.w3.org/2000/svg"
>
	<path
		d="M1.5695 15.7304L4.132 18.2069C4.64763 18.7069 5.19971 18.9595 5.78825 18.9647C6.382 18.9752 6.92627 18.733 7.42106 18.2382L8.18669 17.4647L2.22575 11.6288L1.47575 12.3788C1.14242 12.7069 0.921063 13.0637 0.811688 13.4491C0.707521 13.8345 0.715334 14.2252 0.835126 14.621C0.960126 15.0116 1.20492 15.3814 1.5695 15.7304ZM2.96013 10.8944L8.92106 16.7382L14.2961 11.3554C14.6242 11.0272 14.7856 10.6601 14.7804 10.2538C14.7804 9.84235 14.6112 9.47256 14.2726 9.14443L10.5695 5.52725C10.2362 5.19912 9.86638 5.03506 9.46013 5.03506C9.05388 5.02985 8.68669 5.1887 8.35856 5.51162L2.96013 10.8944Z"
		fill="currentColor"
	/>
</svg>
