<svg
	color="rgb(var(--foreground, 0, 0, 0))"
	viewBox="0 0 20 24"
	fill="none"
	xmlns="http://www.w3.org/2000/svg"
>
	<path
		d="M8.33989 18.6444H12.6914C12.8633 18.6444 13.0092 18.5819 13.1289 18.4569C13.2539 18.3371 13.3164 18.1913 13.3164 18.0194C13.3164 17.8476 13.2539 17.6991 13.1289 17.5741C13.0092 17.4491 12.8633 17.3866 12.6914 17.3866H9.60551L8.33989 18.6444ZM15.0196 18.6444H18.7618C18.9336 18.6444 19.0795 18.5819 19.1993 18.4569C19.3243 18.3371 19.3868 18.1913 19.3868 18.0194C19.3868 17.8476 19.3243 17.6991 19.1993 17.5741C19.0795 17.4491 18.9336 17.3866 18.7618 17.3866H15.0196C14.8477 17.3866 14.6993 17.4491 14.5743 17.5741C14.4545 17.6991 14.3946 17.8476 14.3946 18.0194C14.3946 18.1913 14.4545 18.3371 14.5743 18.4569C14.6993 18.5819 14.8477 18.6444 15.0196 18.6444ZM1.4102 15.7304L3.9727 18.2069C4.48832 18.7069 5.04041 18.9595 5.62895 18.9647C6.2227 18.9752 6.76697 18.733 7.26176 18.2382L8.02739 17.4647L2.06645 11.6288L1.31645 12.3788C0.983115 12.7069 0.761761 13.0637 0.652386 13.4491C0.54822 13.8345 0.556032 14.2252 0.675824 14.621C0.800824 15.0116 1.04562 15.3814 1.4102 15.7304ZM2.80082 10.8944L8.76176 16.7382L14.1368 11.3554C14.4649 11.0272 14.6263 10.6601 14.6211 10.2538C14.6211 9.84235 14.4519 9.47256 14.1133 9.14443L10.4102 5.52725C10.0769 5.19912 9.70707 5.03506 9.30082 5.03506C8.89457 5.02985 8.52739 5.1887 8.19926 5.51162L2.80082 10.8944Z"
		fill="currentColor"
	/>
</svg>
