<svg
	color="rgb(var(--foreground, 0, 0, 0))"
	viewBox="0 0 20 24"
	fill="none"
	xmlns="http://www.w3.org/2000/svg"
>
	<path
		d="M8.54069 18.6797H12.8844C13.0563 18.6797 13.2048 18.6172 13.3298 18.4922C13.4548 18.3724 13.5173 18.2266 13.5173 18.0547C13.5173 17.8828 13.4548 17.7344 13.3298 17.6094C13.2048 17.4844 13.0563 17.4219 12.8844 17.4219H9.80632L8.54069 18.6797ZM15.2204 18.6797H18.9548C19.1266 18.6797 19.2725 18.6172 19.3923 18.4922C19.5173 18.3724 19.5798 18.2266 19.5798 18.0547C19.5798 17.8828 19.5173 17.7344 19.3923 17.6094C19.2725 17.4844 19.1266 17.4219 18.9548 17.4219H15.2204C15.0485 17.4219 14.9001 17.4844 14.7751 17.6094C14.6501 17.7344 14.5876 17.8828 14.5876 18.0547C14.5876 18.2266 14.6501 18.3724 14.7751 18.4922C14.9001 18.6172 15.0485 18.6797 15.2204 18.6797ZM1.60319 15.6875L4.16569 18.2422C4.6709 18.7474 5.22038 19.0026 5.81413 19.0078C6.41309 19.013 6.95996 18.7682 7.45475 18.2735L14.3298 11.3906C14.6579 11.0625 14.8167 10.6953 14.8063 10.2891C14.8011 9.87762 14.637 9.50783 14.3141 9.1797L10.611 5.48439C10.2829 5.15627 9.91309 4.9922 9.50163 4.9922C9.09017 4.987 8.72038 5.14585 8.39225 5.46877L1.50944 12.336C1.18132 12.6641 0.962567 13.0209 0.853192 13.4063C0.749025 13.7865 0.756838 14.1719 0.876629 14.5625C1.00163 14.9531 1.24382 15.3281 1.60319 15.6875ZM2.43913 14.8516C2.15788 14.5755 2.01205 14.2839 2.00163 13.9766C1.99642 13.6693 2.12663 13.3854 2.39225 13.125L9.18913 6.34377C9.28288 6.25523 9.38184 6.20835 9.486 6.20314C9.59538 6.19793 9.69434 6.2396 9.78288 6.32814L13.4704 10.0078C13.5589 10.0964 13.598 10.1953 13.5876 10.3047C13.5824 10.4141 13.5355 10.513 13.4469 10.6016L6.66569 17.3906C6.40007 17.6563 6.11882 17.7891 5.82194 17.7891C5.53028 17.7891 5.25163 17.6563 4.986 17.3906L2.43913 14.8516ZM2.66569 11.9688L7.82194 17.1094L8.5485 16.3828L3.40007 11.2422L2.66569 11.9688Z"
		fill="currentColor"
	/>
</svg>
