<svg
	color="rgb(var(--foreground, 0, 0, 0))"
	viewBox="0 0 15 24"
	fill="none"
	xmlns="http://www.w3.org/2000/svg"
>
	<path
		d="M1.53532 15.6875L4.09782 18.2422C4.60303 18.7474 5.15251 19.0026 5.74626 19.0078C6.34522 19.013 6.89209 18.7682 7.38688 18.2735L14.2619 11.3906C14.59 11.0625 14.7489 10.6953 14.7384 10.2891C14.7332 9.87762 14.5692 9.50783 14.2463 9.1797L10.5431 5.48439C10.215 5.15627 9.84522 4.9922 9.43376 4.9922C9.0223 4.987 8.65251 5.14585 8.32438 5.46877L1.44157 12.336C1.11345 12.6641 0.894696 13.0209 0.785321 13.4063C0.681154 13.7865 0.688967 14.1719 0.808758 14.5625C0.933758 14.9531 1.17595 15.3281 1.53532 15.6875ZM2.37126 14.8516C2.09001 14.5755 1.94418 14.2839 1.93376 13.9766C1.92855 13.6693 2.05876 13.3854 2.32438 13.125L9.12126 6.34377C9.21501 6.25523 9.31397 6.20835 9.41813 6.20314C9.52751 6.19793 9.62647 6.2396 9.71501 6.32814L13.4025 10.0078C13.4911 10.0964 13.5301 10.1953 13.5197 10.3047C13.5145 10.4141 13.4676 10.513 13.3791 10.6016L6.59782 17.3906C6.3322 17.6563 6.05095 17.7891 5.75407 17.7891C5.4624 17.7891 5.18376 17.6563 4.91813 17.3906L2.37126 14.8516ZM2.59782 11.9688L7.75407 17.1094L8.48063 16.3828L3.3322 11.2422L2.59782 11.9688Z"
		fill="currentColor"
	/>
</svg>
