<svg
	color="rgb(var(--foreground, 0, 0, 0))"
	viewBox="0 0 18 24"
	fill="none"
	xmlns="http://www.w3.org/2000/svg"
>
	<path
		d="M11.1102 10.6772L4.02429 17.7553C3.88888 17.8959 3.73783 17.9793 3.57117 18.0053C3.40971 18.0366 3.26127 17.9793 3.12585 17.8334C2.98002 17.6772 2.91752 17.5235 2.93835 17.3725C2.95919 17.2214 3.04773 17.0678 3.20398 16.9116L10.2665 9.8178L9.5946 9.15374L3.2821 15.4662C2.79773 15.9506 2.43835 16.3386 2.20398 16.6303C1.9696 16.922 1.80554 17.1616 1.71179 17.3491C1.61804 17.5366 1.54513 17.7136 1.49304 17.8803C1.44617 18.047 1.37065 18.2423 1.26648 18.4662C1.16231 18.6902 0.980021 18.9871 0.719604 19.3569L1.42273 20.0991C1.7769 19.8386 2.06596 19.6616 2.28992 19.5678C2.51908 19.4741 2.72221 19.4063 2.89929 19.3647C3.07638 19.3282 3.26388 19.2683 3.46179 19.185C3.66492 19.1017 3.91752 18.9428 4.2196 18.7084C4.5269 18.4793 4.92794 18.1199 5.42273 17.6303L11.7587 11.3334L11.1102 10.6772ZM12.9696 12.0912L13.1884 11.8491C13.3811 11.6511 13.4774 11.4402 13.4774 11.2162C13.4826 10.9923 13.3837 10.7787 13.1805 10.5756L12.9462 10.3491C13.2483 10.0782 13.5529 9.85686 13.8602 9.68499C14.1675 9.51311 14.467 9.36207 14.7587 9.23186C15.0555 9.10166 15.3342 8.96624 15.5946 8.82561C15.855 8.67978 16.0868 8.5027 16.2899 8.29436C16.6805 7.90374 16.9123 7.47926 16.9852 7.02093C17.0634 6.56259 17.0295 6.12249 16.8837 5.70061C16.743 5.27874 16.5347 4.93238 16.2587 4.66155C15.9878 4.38551 15.6441 4.17718 15.2274 4.03655C14.8108 3.89593 14.3706 3.86468 13.9071 3.9428C13.4488 4.02093 13.0217 4.25009 12.6259 4.6303C12.4123 4.83343 12.2352 5.0652 12.0946 5.32561C11.954 5.58603 11.816 5.86468 11.6805 6.16155C11.5503 6.45322 11.3993 6.7553 11.2274 7.0678C11.0608 7.37509 10.842 7.67718 10.5712 7.97405L10.3446 7.73968C10.1415 7.53655 9.92794 7.43759 9.70398 7.4428C9.48523 7.4428 9.27429 7.53915 9.07117 7.73186L8.83679 7.95061C8.592 8.17978 8.48263 8.39853 8.50867 8.60686C8.53471 8.8152 8.64929 9.02353 8.85242 9.23186L11.6884 12.0678C11.8967 12.2709 12.105 12.3855 12.3134 12.4116C12.5217 12.4376 12.7404 12.3308 12.9696 12.0912Z"
		fill="currentColor"
	/>
</svg>
