<svg
	color="rgb(var(--foreground, 0, 0, 0))"
	viewBox="0 0 17 24"
	fill="none"
	xmlns="http://www.w3.org/2000/svg"
>
	<path
		d="M10.4167 10.6772L9.29175 11.8022C9.15112 11.9376 8.99748 12.0209 8.83081 12.0522C8.66935 12.0782 8.52092 12.0183 8.3855 11.8725C8.24487 11.7162 8.18498 11.5652 8.20581 11.4194C8.22664 11.2683 8.31519 11.1147 8.47144 10.9584L9.573 9.8178L8.90112 9.15374L2.58862 15.4662C2.10425 15.9506 1.74487 16.3386 1.5105 16.6303C1.27612 16.922 1.11206 17.1616 1.01831 17.3491C0.924561 17.5366 0.851644 17.7136 0.799561 17.8803C0.752686 18.047 0.677165 18.2423 0.572998 18.4662C0.468831 18.6902 0.28654 18.9871 0.026123 19.3569L0.729248 20.0991C1.08341 19.8386 1.37248 19.6616 1.59644 19.5678C1.8256 19.4741 2.02873 19.4063 2.20581 19.3647C2.38289 19.3282 2.57039 19.2683 2.76831 19.185C2.97144 19.1017 3.22404 18.9428 3.52612 18.7084C3.83341 18.4793 4.23446 18.1199 4.72925 17.6303L11.0652 11.3334L10.4167 10.6772ZM12.2761 12.0912L12.4949 11.8491C12.6876 11.6511 12.7839 11.4402 12.7839 11.2162C12.7891 10.9923 12.6902 10.7787 12.4871 10.5756L12.2527 10.3491C12.5548 10.0782 12.8595 9.85686 13.1667 9.68499C13.474 9.51311 13.7735 9.36207 14.0652 9.23186C14.3621 9.10166 14.6407 8.96624 14.9011 8.82561C15.1615 8.67978 15.3933 8.5027 15.5964 8.29436C15.9871 7.90374 16.2188 7.47926 16.2917 7.02093C16.3699 6.56259 16.336 6.12249 16.1902 5.70061C16.0496 5.27874 15.8412 4.93238 15.5652 4.66155C15.2944 4.38551 14.9506 4.17718 14.5339 4.03655C14.1173 3.89593 13.6772 3.86468 13.2136 3.9428C12.7553 4.02093 12.3282 4.25009 11.9324 4.6303C11.7188 4.83343 11.5417 5.0652 11.4011 5.32561C11.2605 5.58603 11.1225 5.86468 10.9871 6.16155C10.8569 6.45322 10.7058 6.7553 10.5339 7.0678C10.3673 7.37509 10.1485 7.67718 9.87769 7.97405L9.65112 7.73968C9.448 7.53655 9.23446 7.43759 9.0105 7.4428C8.79175 7.4428 8.58081 7.53915 8.37769 7.73186L8.14331 7.95061C7.89852 8.17978 7.78914 8.39853 7.81519 8.60686C7.84123 8.8152 7.95581 9.02353 8.15894 9.23186L10.9949 12.0678C11.2032 12.2709 11.4115 12.3855 11.6199 12.4116C11.8282 12.4376 12.047 12.3308 12.2761 12.0912Z"
		fill="currentColor"
	/>
</svg>
