<svg
	color="rgb(var(--foreground, 0, 0, 0))"
	viewBox="0 0 17 24"
	fill="none"
	xmlns="http://www.w3.org/2000/svg"
>
	<path
		d="M16.564 20.0078V13.8047C16.564 13.3411 16.4546 13 16.2359 12.7812C16.0171 12.5625 15.676 12.4531 15.2124 12.4531H5.87648C5.64731 12.4531 5.4546 12.5052 5.29835 12.6094C5.1421 12.7083 5.02231 12.8385 4.93898 13C4.86085 13.1615 4.82179 13.3359 4.82179 13.5234C4.82179 13.7109 4.86606 13.8906 4.9546 14.0625C5.04314 14.2344 5.17856 14.3828 5.36085 14.5078L14.6968 20.9453C14.8218 21.0338 14.9546 21.0963 15.0952 21.1328C15.2359 21.1745 15.3739 21.1953 15.5093 21.1953C15.7905 21.1953 16.0353 21.099 16.2437 20.9062C16.4572 20.7135 16.564 20.4141 16.564 20.0078ZM15.2124 11.5469C15.676 11.5469 16.0171 11.4375 16.2359 11.2187C16.4546 11 16.564 10.6589 16.564 10.1953V3.99219C16.564 3.58594 16.4572 3.28646 16.2437 3.09375C16.0353 2.90104 15.7905 2.80469 15.5093 2.80469C15.3739 2.80469 15.2359 2.82552 15.0952 2.86719C14.9546 2.90365 14.8218 2.96354 14.6968 3.04688L5.36085 9.49219C5.17856 9.61719 5.04314 9.76562 4.9546 9.9375C4.86606 10.1094 4.82179 10.2891 4.82179 10.4766C4.82179 10.6641 4.86085 10.8385 4.93898 11C5.02231 11.1615 5.1421 11.2943 5.29835 11.3984C5.4546 11.4974 5.64731 11.5469 5.87648 11.5469H15.2124ZM2.90773 19.9844L4.46241 17.8906C4.62908 17.6771 4.67075 17.4661 4.58741 17.2578C4.50408 17.0443 4.3296 16.9375 4.06398 16.9375H2.93898V7.0625H4.06398C4.3296 7.0625 4.50408 6.95833 4.58741 6.75C4.67075 6.53646 4.62908 6.32292 4.46241 6.10938L2.90773 4.01562C2.80356 3.86979 2.66554 3.79948 2.49366 3.80469C2.327 3.80469 2.19158 3.875 2.08741 4.01562L0.517101 6.10938C0.360851 6.31771 0.319184 6.52865 0.392101 6.74219C0.470226 6.95573 0.649913 7.0625 0.931163 7.0625H2.03273V16.9375H0.931163C0.66033 16.9375 0.483247 17.0443 0.399913 17.2578C0.31658 17.4661 0.355643 17.6771 0.517101 17.8906L2.08741 19.9844C2.19158 20.125 2.327 20.1953 2.49366 20.1953C2.66554 20.1953 2.80356 20.125 2.90773 19.9844Z"
		fill="currentColor"
	/>
</svg>
