<svg
	color="rgb(var(--foreground, 0, 0, 0))"
	viewBox="0 0 17 24"
	fill="none"
	xmlns="http://www.w3.org/2000/svg"
>
	<path
		d="M16.3573 20.0078V13.8047C16.3573 13.3411 16.2479 13 16.0292 12.7812C15.8104 12.5625 15.4693 12.4531 15.0057 12.4531H5.66981C5.44064 12.4531 5.24794 12.5052 5.09169 12.6094C4.93544 12.7083 4.81564 12.8385 4.73231 13C4.65419 13.1615 4.61512 13.3359 4.61512 13.5234C4.61512 13.7109 4.65939 13.8906 4.74794 14.0625C4.83648 14.2344 4.97189 14.3828 5.15419 14.5078L14.4901 20.9453C14.6151 21.0338 14.7479 21.0963 14.8886 21.1328C15.0292 21.1745 15.1672 21.1953 15.3026 21.1953C15.5839 21.1953 15.8287 21.099 16.037 20.9062C16.2505 20.7135 16.3573 20.4141 16.3573 20.0078ZM15.0839 19.5156C15.0839 19.5833 15.0578 19.6172 15.0057 19.6172C14.9745 19.6172 14.9459 19.6068 14.9198 19.5859L6.32606 13.8672C6.30002 13.8464 6.287 13.8229 6.287 13.7969C6.287 13.7552 6.31044 13.7344 6.35731 13.7344H14.8495C14.9432 13.7344 15.0057 13.75 15.037 13.7812C15.0682 13.8125 15.0839 13.875 15.0839 13.9688V19.5156ZM16.3573 10.1953V3.99219C16.3573 3.58594 16.2505 3.28646 16.037 3.09375C15.8287 2.90104 15.5839 2.80469 15.3026 2.80469C15.1672 2.80469 15.0292 2.82552 14.8886 2.86719C14.7479 2.90365 14.6151 2.96354 14.4901 3.04688L5.15419 9.49219C4.97189 9.61719 4.83648 9.76562 4.74794 9.9375C4.65939 10.1094 4.61512 10.2891 4.61512 10.4766C4.61512 10.6641 4.65419 10.8385 4.73231 11C4.81564 11.1615 4.93544 11.2943 5.09169 11.3984C5.24794 11.4974 5.44064 11.5469 5.66981 11.5469H15.0057C15.4693 11.5469 15.8104 11.4375 16.0292 11.2187C16.2479 11 16.3573 10.6589 16.3573 10.1953ZM15.0839 10.0312C15.0839 10.125 15.0682 10.1875 15.037 10.2188C15.0057 10.25 14.9432 10.2656 14.8495 10.2656H6.36512C6.31304 10.2656 6.287 10.2448 6.287 10.2031C6.287 10.1771 6.30523 10.1536 6.34169 10.1328L14.9198 4.41406C14.9459 4.39323 14.9745 4.38281 15.0057 4.38281C15.0578 4.38281 15.0839 4.41667 15.0839 4.48438V10.0312ZM2.662 19.9844L4.21669 17.8906C4.38335 17.6771 4.42502 17.4661 4.34169 17.2578C4.25835 17.0443 4.08387 16.9375 3.81825 16.9375H2.69325V7.0625H3.81825C4.08387 7.0625 4.25835 6.95833 4.34169 6.75C4.42502 6.53646 4.38335 6.32292 4.21669 6.10938L2.662 4.01562C2.55783 3.86979 2.41981 3.79948 2.24794 3.80469C2.08127 3.80469 1.94585 3.875 1.84169 4.01562L0.271373 6.10938C0.115123 6.31771 0.0734567 6.52865 0.146373 6.74219C0.224498 6.95573 0.404186 7.0625 0.685436 7.0625H1.787V16.9375H0.685436C0.414603 16.9375 0.237519 17.0443 0.154186 17.2578C0.0708526 17.4661 0.109915 17.6771 0.271373 17.8906L1.84169 19.9844C1.94585 20.125 2.08127 20.1953 2.24794 20.1953C2.41981 20.1953 2.55783 20.125 2.662 19.9844Z"
		fill="currentColor"
	/>
</svg>
