<svg
	color="rgb(var(--foreground, 0, 0, 0))"
	viewBox="0 0 20 24"
	fill="none"
	xmlns="http://www.w3.org/2000/svg"
>
	<path
		d="M1.97803 20.1189H8.18896C8.65251 20.1189 8.99365 20.0096 9.2124 19.7908C9.43115 19.5773 9.54053 19.2387 9.54053 18.7752V9.43924C9.54053 9.21008 9.48844 9.01737 9.38428 8.86112C9.28532 8.70487 9.15511 8.58768 8.99365 8.50956C8.83219 8.42622 8.65771 8.38456 8.47021 8.38456C8.28271 8.38456 8.10303 8.42883 7.93115 8.51737C7.75928 8.6007 7.60824 8.73351 7.47803 8.91581L1.04053 18.2596C0.957194 18.3846 0.894694 18.5148 0.853027 18.6502C0.816569 18.7908 0.79834 18.9288 0.79834 19.0642C0.79834 19.3507 0.894694 19.5981 1.0874 19.8064C1.28011 20.0148 1.57699 20.1189 1.97803 20.1189ZM2.47021 18.8455C2.40771 18.8455 2.37646 18.8195 2.37646 18.7674C2.37646 18.7413 2.38428 18.7127 2.3999 18.6814L8.12646 10.0955C8.1473 10.0642 8.17074 10.0486 8.19678 10.0486C8.23844 10.0486 8.25928 10.0747 8.25928 10.1267V18.6189C8.25928 18.7075 8.24105 18.7674 8.20459 18.7986C8.17334 18.8299 8.11344 18.8455 8.0249 18.8455H2.47021ZM11.7983 20.1189H18.0015C18.4077 20.1189 18.7072 20.0148 18.8999 19.8064C19.0926 19.5981 19.189 19.3507 19.189 19.0642C19.189 18.9288 19.1681 18.7908 19.1265 18.6502C19.09 18.5148 19.0275 18.3846 18.939 18.2596L12.5015 8.91581C12.3765 8.73351 12.2254 8.6007 12.0483 8.51737C11.8765 8.42883 11.6968 8.38456 11.5093 8.38456C11.327 8.38456 11.1551 8.42622 10.9937 8.50956C10.8322 8.58768 10.6994 8.70487 10.5952 8.86112C10.4963 9.01737 10.4468 9.21008 10.4468 9.43924V18.7752C10.4468 19.2387 10.5535 19.5773 10.7671 19.7908C10.9858 20.0096 11.3296 20.1189 11.7983 20.1189ZM11.9624 18.8455C11.8687 18.8455 11.8062 18.8299 11.7749 18.7986C11.7437 18.7674 11.728 18.7075 11.728 18.6189V10.1346C11.728 10.0773 11.7463 10.0486 11.7827 10.0486C11.814 10.0486 11.84 10.0668 11.8608 10.1033L17.5796 18.6814C17.6004 18.7127 17.6108 18.7413 17.6108 18.7674C17.6108 18.8195 17.577 18.8455 17.5093 18.8455H11.9624ZM2.00928 6.43143L4.10303 7.98612C4.31657 8.14758 4.52751 8.18924 4.73584 8.11112C4.94417 8.02779 5.04834 7.8507 5.04834 7.57987V6.46268H14.9312V7.57987C14.9312 7.8507 15.0353 8.02779 15.2437 8.11112C15.452 8.18924 15.6655 8.14758 15.8843 7.98612L17.978 6.43143C18.1187 6.32206 18.189 6.18404 18.189 6.01737C18.189 5.8507 18.1187 5.71268 17.978 5.60331L15.8843 4.04081C15.6759 3.88456 15.465 3.84549 15.2515 3.92362C15.0379 3.99654 14.9312 4.17362 14.9312 4.45487V5.55643H5.04834V4.45487C5.04834 4.18404 4.94417 4.00695 4.73584 3.92362C4.52751 3.84029 4.31657 3.87935 4.10303 4.04081L2.00928 5.60331C1.86344 5.71268 1.79053 5.85331 1.79053 6.02518C1.79574 6.19185 1.86865 6.32726 2.00928 6.43143Z"
		fill="currentColor"
	/>
</svg>
