<svg
	color="rgb(var(--foreground, 0, 0, 0))"
	viewBox="0 0 19 24"
	fill="none"
	xmlns="http://www.w3.org/2000/svg"
>
	<path
		d="M0.407715 19.0447C0.407715 19.3312 0.504069 19.5786 0.696777 19.7869C0.889486 19.9952 1.18636 20.0994 1.5874 20.0994H7.79836C8.2619 20.0994 8.60304 19.99 8.82179 19.7713C9.04054 19.5577 9.14992 19.2192 9.14992 18.7557V9.41972C9.14992 9.19055 9.09783 8.99785 8.99367 8.8416C8.89471 8.68535 8.7645 8.56816 8.60304 8.49003C8.44158 8.4067 8.26711 8.36503 8.07961 8.36503C7.89211 8.36503 7.71242 8.4093 7.54054 8.49785C7.36867 8.58118 7.21763 8.71399 7.08742 8.89628L0.649902 18.24C0.566569 18.365 0.504069 18.4952 0.462402 18.6307C0.425944 18.7713 0.407715 18.9093 0.407715 19.0447ZM10.0562 18.7557C10.0562 19.2192 10.1629 19.5577 10.3765 19.7713C10.5952 19.99 10.939 20.0994 11.4077 20.0994H17.6109C18.0171 20.0994 18.3166 19.9952 18.5093 19.7869C18.702 19.5786 18.7984 19.3312 18.7984 19.0447C18.7984 18.9093 18.7775 18.7713 18.7359 18.6307C18.6994 18.4952 18.6369 18.365 18.5484 18.24L12.1109 8.89628C11.9859 8.71399 11.8348 8.58118 11.6577 8.49785C11.4859 8.4093 11.3062 8.36503 11.1187 8.36503C10.9364 8.36503 10.7645 8.4067 10.603 8.49003C10.4416 8.56816 10.3088 8.68535 10.2046 8.8416C10.1056 8.99785 10.0562 9.19055 10.0562 9.41972V18.7557ZM1.61865 6.45097L3.7124 8.00566C3.92594 8.16712 4.13688 8.20878 4.34521 8.13066C4.55355 8.04732 4.65771 7.87024 4.65771 7.59941V6.48222H14.5405V7.59941C14.5405 7.87024 14.6447 8.04732 14.853 8.13066C15.0614 8.20878 15.2749 8.16712 15.4937 8.00566L17.5874 6.45097C17.728 6.34159 17.7984 6.20357 17.7984 6.03691C17.7984 5.87024 17.728 5.73222 17.5874 5.62284L15.4937 4.06034C15.2853 3.90409 15.0744 3.86503 14.8609 3.94316C14.6473 4.01607 14.5405 4.19316 14.5405 4.47441V5.57597H4.65771V4.47441C4.65771 4.20357 4.55355 4.02649 4.34521 3.94316C4.13688 3.85982 3.92594 3.89889 3.7124 4.06034L1.61865 5.62284C1.47282 5.73222 1.3999 5.87284 1.3999 6.04472C1.40511 6.21139 1.47803 6.3468 1.61865 6.45097Z"
		fill="currentColor"
	/>
</svg>
