<svg
	color="rgb(var(--foreground, 0, 0, 0))"
	viewBox="0 0 17 24"
	fill="none"
	xmlns="http://www.w3.org/2000/svg"
>
	<path
		d="M4.51086 17.0627L7.10461 15.9924C7.20357 15.9559 7.27909 15.9169 7.33118 15.8752C7.38847 15.8336 7.44836 15.7841 7.51086 15.7268L14.9874 8.30491C15.352 7.94032 15.5317 7.55491 15.5265 7.14866C15.5265 6.74241 15.3416 6.35178 14.9718 5.97678L13.3312 4.32053C12.9562 3.95074 12.5629 3.76324 12.1515 3.75803C11.7452 3.74762 11.3598 3.9247 10.9952 4.28928L3.51086 11.7112C3.45357 11.7684 3.40409 11.8257 3.36243 11.883C3.32597 11.9351 3.28691 12.008 3.24524 12.1018L2.15149 14.6955C2.06816 14.8882 2.03691 15.0783 2.05774 15.2658C2.08378 15.4533 2.17232 15.6226 2.32336 15.7737L3.43274 16.8908C3.57857 17.0367 3.74524 17.1226 3.93274 17.1487C4.12024 17.1747 4.31295 17.1461 4.51086 17.0627ZM4.39368 15.8518C4.31555 15.8778 4.24524 15.8882 4.18274 15.883C4.12024 15.8778 4.05253 15.8388 3.97961 15.7658L3.44836 15.2346C3.37545 15.1669 3.33639 15.1018 3.33118 15.0393C3.32597 14.9716 3.33899 14.9013 3.37024 14.8283L4.33899 12.5549L11.7843 5.16428C11.8989 5.06012 12.0187 5.00543 12.1437 5.00022C12.2687 4.99501 12.3833 5.04449 12.4874 5.14866L14.1359 6.81272C14.3598 7.04189 14.352 7.27626 14.1124 7.51585L6.66711 14.9065L4.39368 15.8518ZM1.46399 17.4533H2.4093C2.51868 17.4533 2.60461 17.4403 2.66711 17.4143C2.73482 17.3882 2.81034 17.3414 2.89368 17.2737L3.62805 16.7112L2.50305 15.5627L1.23743 16.8987C1.12284 17.0237 1.08899 17.1487 1.13586 17.2737C1.18274 17.3934 1.29211 17.4533 1.46399 17.4533ZM3.62805 12.5549L6.82336 15.7658L7.55774 15.0393L4.36243 11.8205L3.62805 12.5549ZM10.1124 6.12522L13.3077 9.33616L14.0421 8.61741L10.8468 5.39866L10.1124 6.12522ZM1.30774 20.2424H16.2374C16.4093 20.2424 16.5577 20.1799 16.6827 20.0549C16.8077 19.9299 16.8702 19.7815 16.8702 19.6096C16.8702 19.4377 16.8077 19.2893 16.6827 19.1643C16.5577 19.0445 16.4093 18.9846 16.2374 18.9846H1.30774C1.13586 18.9846 0.987427 19.0445 0.862427 19.1643C0.742635 19.2893 0.682739 19.4377 0.682739 19.6096C0.682739 19.7815 0.742635 19.9299 0.862427 20.0549C0.987427 20.1799 1.13586 20.2424 1.30774 20.2424Z"
		fill="currentColor"
	/>
</svg>
