<svg
	color="rgb(var(--foreground, 0, 0, 0))"
	viewBox="0 0 17 24"
	fill="none"
	xmlns="http://www.w3.org/2000/svg"
>
	<path
		d="M11.0012 18.6523C11.345 18.6523 11.6575 18.5664 11.9387 18.3945C12.2252 18.2279 12.4517 18.0013 12.6184 17.7148C12.7903 17.4336 12.8762 17.1211 12.8762 16.7773C12.8762 16.4336 12.7903 16.1211 12.6184 15.8398C12.4517 15.5534 12.2252 15.3268 11.9387 15.1602C11.6575 14.9883 11.345 14.9023 11.0012 14.9023C10.6575 14.9023 10.3424 14.9883 10.0559 15.1602C9.77466 15.3268 9.5481 15.5534 9.37622 15.8398C9.20435 16.1211 9.11841 16.4336 9.11841 16.7773C9.11841 17.1211 9.20435 17.4336 9.37622 17.7148C9.5481 18.0013 9.77466 18.2279 10.0559 18.3945C10.3424 18.5664 10.6575 18.6523 11.0012 18.6523ZM11.0012 17.6914C10.746 17.6914 10.5299 17.6029 10.3528 17.4258C10.1757 17.2487 10.0872 17.0326 10.0872 16.7773C10.0872 16.5169 10.1757 16.3008 10.3528 16.1289C10.5299 15.9518 10.746 15.8633 11.0012 15.8633C11.2564 15.8633 11.4726 15.9518 11.6497 16.1289C11.8267 16.3008 11.9153 16.5169 11.9153 16.7773C11.9153 17.0326 11.8267 17.2487 11.6497 17.4258C11.4726 17.6029 11.2564 17.6914 11.0012 17.6914ZM9.75903 16.1445H0.954346C0.782471 16.1445 0.634033 16.207 0.509033 16.332C0.389242 16.4518 0.329346 16.6003 0.329346 16.7773C0.329346 16.9492 0.389242 17.0977 0.509033 17.2227C0.634033 17.3424 0.782471 17.4023 0.954346 17.4023H9.75903V16.1445ZM15.47 16.1445H12.3606V17.4023H15.47C15.6314 17.4023 15.7721 17.3424 15.8918 17.2227C16.0116 17.0977 16.0715 16.9492 16.0715 16.7773C16.0715 16.6003 16.0116 16.4518 15.8918 16.332C15.7721 16.207 15.6314 16.1445 15.47 16.1445ZM5.4856 13.8867C5.82935 13.8867 6.14185 13.8008 6.4231 13.6289C6.70955 13.457 6.93612 13.2305 7.10278 12.9492C7.27466 12.6628 7.3606 12.3477 7.3606 12.0039C7.3606 11.6602 7.27466 11.3477 7.10278 11.0664C6.93612 10.7799 6.70955 10.5534 6.4231 10.3867C6.14185 10.2148 5.82935 10.1289 5.4856 10.1289C5.14185 10.1289 4.82674 10.2148 4.54028 10.3867C4.25903 10.5534 4.03247 10.7799 3.8606 11.0664C3.69393 11.3477 3.6106 11.6602 3.6106 12.0039C3.6106 12.3477 3.69393 12.6628 3.8606 12.9492C4.03247 13.2305 4.25903 13.457 4.54028 13.6289C4.82674 13.8008 5.14185 13.8867 5.4856 13.8867ZM5.4856 12.918C5.23039 12.918 5.01424 12.8294 4.83716 12.6523C4.66007 12.4753 4.57153 12.2591 4.57153 12.0039C4.57153 11.7435 4.66007 11.5273 4.83716 11.3555C5.01424 11.1784 5.23039 11.0898 5.4856 11.0898C5.74601 11.0898 5.96216 11.1784 6.13403 11.3555C6.31112 11.5273 6.39966 11.7435 6.39966 12.0039C6.39966 12.2591 6.31112 12.4753 6.13403 12.6523C5.96216 12.8294 5.74601 12.918 5.4856 12.918ZM0.923096 11.3711C0.766846 11.3711 0.628825 11.4336 0.509033 11.5586C0.389242 11.6784 0.329346 11.8268 0.329346 12.0039C0.329346 12.181 0.389242 12.3294 0.509033 12.4492C0.628825 12.569 0.766846 12.6289 0.923096 12.6289H4.14185V11.3711H0.923096ZM15.4387 11.3711H6.72778V12.6289H15.4387C15.6158 12.6289 15.7642 12.569 15.884 12.4492C16.009 12.3294 16.0715 12.181 16.0715 12.0039C16.0715 11.8268 16.009 11.6784 15.884 11.5586C15.7642 11.4336 15.6158 11.3711 15.4387 11.3711ZM11.0012 9.10547C11.345 9.10547 11.6575 9.02214 11.9387 8.85547C12.2252 8.68359 12.4517 8.45703 12.6184 8.17578C12.7903 7.88932 12.8762 7.57422 12.8762 7.23047C12.8762 6.88672 12.7903 6.57422 12.6184 6.29297C12.4517 6.00651 12.2252 5.77734 11.9387 5.60547C11.6575 5.43359 11.345 5.34766 11.0012 5.34766C10.6575 5.34766 10.3424 5.43359 10.0559 5.60547C9.77466 5.77734 9.5481 6.00651 9.37622 6.29297C9.20435 6.57422 9.11841 6.88672 9.11841 7.23047C9.11841 7.57422 9.20435 7.88932 9.37622 8.17578C9.5481 8.45703 9.77466 8.68359 10.0559 8.85547C10.3424 9.02214 10.6575 9.10547 11.0012 9.10547ZM11.0012 8.14453C10.746 8.14453 10.5299 8.05599 10.3528 7.87891C10.1757 7.69661 10.0872 7.47786 10.0872 7.22266C10.0872 6.96745 10.1757 6.7513 10.3528 6.57422C10.5299 6.39714 10.746 6.30859 11.0012 6.30859C11.2564 6.30859 11.4726 6.39714 11.6497 6.57422C11.8267 6.7513 11.9153 6.96745 11.9153 7.22266C11.9153 7.47786 11.8267 7.69661 11.6497 7.87891C11.4726 8.05599 11.2564 8.14453 11.0012 8.14453ZM9.7981 6.60547H0.954346C0.782471 6.60547 0.634033 6.66797 0.509033 6.79297C0.389242 6.91276 0.329346 7.05859 0.329346 7.23047C0.329346 7.40755 0.389242 7.55859 0.509033 7.68359C0.634033 7.80339 0.782471 7.86328 0.954346 7.86328H9.7981V6.60547ZM15.47 6.60547H12.2512V7.86328H15.47C15.6314 7.86328 15.7721 7.80339 15.8918 7.68359C16.0116 7.55859 16.0715 7.40755 16.0715 7.23047C16.0715 7.05859 16.0116 6.91276 15.8918 6.79297C15.7721 6.66797 15.6314 6.60547 15.47 6.60547Z"
		fill="currentColor"
	/>
</svg>
