<svg
	color="rgb(var(--foreground, 0, 0, 0))"
	viewBox="0 0 17 24"
	fill="none"
	xmlns="http://www.w3.org/2000/svg"
>
	<path
		d="M0.820557 11.0781C0.820557 11.974 0.99764 12.7708 1.35181 13.4687C1.71118 14.1615 2.20597 14.7474 2.83618 15.2266C3.4716 15.7005 4.20858 16.0625 5.04712 16.3125C5.88566 16.5573 6.7841 16.6797 7.74243 16.6797C7.91952 16.6797 8.0992 16.6771 8.28149 16.6719C8.46379 16.6615 8.64608 16.6484 8.82837 16.6328L8.55493 15.4844C8.42993 15.4896 8.30493 15.4948 8.17993 15.5C8.06014 15.5052 7.94035 15.5078 7.82056 15.5078C7.02368 15.5078 6.27368 15.4167 5.57056 15.2344C4.87264 15.0521 4.25545 14.776 3.71899 14.4062C3.18254 14.0365 2.76066 13.5755 2.45337 13.0234C2.15129 12.4714 2.00024 11.8255 2.00024 11.0859C2.00024 10.4036 2.14347 9.76823 2.42993 9.17969C2.71639 8.58594 3.10962 8.05208 3.60962 7.57812C4.11483 7.09896 4.69295 6.6901 5.34399 6.35156C5.99504 6.00781 6.68774 5.74479 7.42212 5.5625C8.1617 5.38021 8.90389 5.28906 9.64868 5.28906C10.4664 5.28906 11.2424 5.41146 11.9768 5.65625C12.7112 5.89583 13.3596 6.24219 13.9221 6.69531C14.4898 7.14323 14.9351 7.68229 15.2581 8.3125C15.581 8.9375 15.7424 9.63542 15.7424 10.4062C15.7424 11.1198 15.5706 11.7943 15.2268 12.4297C14.8831 13.0599 14.4221 13.6198 13.844 14.1094C13.2711 14.599 12.6305 14.9844 11.9221 15.2656C11.219 15.5469 10.5055 15.6875 9.78149 15.6875C9.50024 15.6875 9.26847 15.6354 9.08618 15.5312C8.9091 15.4271 8.82056 15.2812 8.82056 15.0937C8.82056 14.875 8.9117 14.6849 9.09399 14.5234C9.27629 14.3568 9.52108 14.2292 9.82837 14.1406C10.1409 14.0469 10.4846 14 10.8596 14C11.3075 14 11.7086 14.1016 12.0627 14.3047C12.4221 14.5078 12.706 14.7839 12.9143 15.1328C13.1226 15.4818 13.2268 15.8828 13.2268 16.3359C13.2268 16.8047 13.1018 17.2526 12.8518 17.6797C12.6018 18.112 12.2607 18.4661 11.8284 18.7422C11.7138 18.8255 11.6174 18.9115 11.5393 19C11.4664 19.0937 11.4299 19.2109 11.4299 19.3516C11.4299 19.4974 11.4846 19.6224 11.594 19.7266C11.7034 19.8359 11.8518 19.8906 12.0393 19.8906C12.1747 19.8906 12.3153 19.8437 12.4612 19.75C13.0601 19.3594 13.5341 18.8568 13.8831 18.2422C14.232 17.6328 14.4065 16.9896 14.4065 16.3125C14.4065 15.6458 14.245 15.0495 13.9221 14.5234C13.5992 13.9922 13.1617 13.5755 12.6096 13.2734C12.0627 12.9661 11.4508 12.8125 10.7737 12.8125C10.1747 12.8125 9.63826 12.9115 9.16431 13.1094C8.69035 13.3021 8.31535 13.5729 8.03931 13.9219C7.76847 14.2708 7.63306 14.6745 7.63306 15.1328C7.63306 15.4818 7.7216 15.7865 7.89868 16.0469C8.08097 16.3021 8.33358 16.5026 8.65649 16.6484C8.97941 16.7891 9.35441 16.8594 9.78149 16.8594C10.4898 16.8594 11.1877 16.75 11.8752 16.5312C12.5627 16.3125 13.2086 16.0052 13.8127 15.6094C14.4221 15.2083 14.9586 14.7396 15.4221 14.2031C15.8909 13.6615 16.2581 13.0703 16.5237 12.4297C16.7893 11.7891 16.9221 11.1172 16.9221 10.4141C16.9221 9.48177 16.7294 8.63021 16.344 7.85938C15.9638 7.08854 15.4377 6.42448 14.7659 5.86719C14.094 5.30469 13.318 4.8724 12.4377 4.57031C11.5627 4.26302 10.6305 4.10938 9.64087 4.10938C8.77629 4.10938 7.91952 4.21875 7.07056 4.4375C6.2216 4.65625 5.41952 4.96875 4.66431 5.375C3.91431 5.78125 3.25024 6.27083 2.67212 6.84375C2.0992 7.41667 1.64608 8.0599 1.31274 8.77344C0.984619 9.48177 0.820557 10.25 0.820557 11.0781Z"
		fill="currentColor"
	/>
</svg>
