<svg
	color="rgb(var(--foreground, 0, 0, 0))"
	viewBox="0 0 20 24"
	fill="none"
	xmlns="http://www.w3.org/2000/svg"
>
	<path
		d="M10.8518 17.5195C10.732 17.5247 10.6096 17.5299 10.4846 17.5352C10.3596 17.5404 10.2372 17.543 10.1174 17.543C9.32576 17.543 8.57837 17.4518 7.87524 17.2695C7.17212 17.0872 6.55233 16.8112 6.01587 16.4414C5.48462 16.0716 5.06535 15.6107 4.75806 15.0586C4.45597 14.5065 4.30493 13.8607 4.30493 13.1211C4.30493 12.9232 4.32316 12.7357 4.35962 12.5586C4.39608 12.3763 4.44556 12.1992 4.50806 12.0273C4.44035 11.9388 4.35701 11.8659 4.25806 11.8086C4.1591 11.7513 4.03931 11.7044 3.89868 11.668C3.75806 11.6315 3.58879 11.5977 3.39087 11.5664C3.30754 11.806 3.24243 12.056 3.19556 12.3164C3.14868 12.5768 3.12524 12.8424 3.12524 13.1133C3.12524 14.0091 3.30233 14.806 3.65649 15.5039C4.01587 16.1966 4.51066 16.7825 5.14087 17.2617C5.77629 17.7357 6.51066 18.0977 7.34399 18.3477C8.18254 18.5924 9.08358 18.7148 10.0471 18.7148C10.2242 18.7148 10.4039 18.7122 10.5862 18.707C10.7685 18.6966 10.9508 18.6836 11.1331 18.668L10.8518 17.5195ZM8.07056 6.89453C8.10181 7.08203 8.13306 7.24609 8.16431 7.38672C8.20077 7.52734 8.23983 7.64974 8.28149 7.75391C8.32837 7.85286 8.38306 7.9388 8.44556 8.01172C8.99764 7.79297 9.57056 7.6237 10.1643 7.50391C10.7633 7.38411 11.3596 7.32422 11.9534 7.32422C12.7711 7.32422 13.5445 7.44661 14.2737 7.69141C15.0081 7.93099 15.6565 8.27734 16.219 8.73047C16.7867 9.17839 17.232 9.71745 17.5549 10.3477C17.8831 10.9727 18.0471 11.6706 18.0471 12.4414C18.0471 13.1549 17.8752 13.8294 17.5315 14.4648C17.1877 15.095 16.7268 15.6549 16.1487 16.1445C15.5758 16.6341 14.9351 17.0195 14.2268 17.3008C13.5237 17.582 12.8101 17.7227 12.0862 17.7227C11.8049 17.7227 11.5732 17.6706 11.3909 17.5664C11.2086 17.4622 11.1174 17.3164 11.1174 17.1289C11.1174 16.9102 11.2086 16.72 11.3909 16.5586C11.5784 16.3919 11.8258 16.2643 12.1331 16.1758C12.4403 16.082 12.7841 16.0352 13.1643 16.0352C13.6122 16.0352 14.0133 16.1367 14.3674 16.3398C14.7268 16.543 15.0107 16.819 15.219 17.168C15.4273 17.5169 15.5315 17.918 15.5315 18.3711C15.5315 18.8398 15.4065 19.2878 15.1565 19.7148C14.9065 20.1471 14.5627 20.5013 14.1252 20.7773C14.0159 20.8607 13.9221 20.9466 13.844 21.0352C13.7711 21.1289 13.7346 21.2461 13.7346 21.3867C13.7346 21.5326 13.7893 21.6576 13.8987 21.7617C14.0081 21.8711 14.1539 21.9258 14.3362 21.9258C14.4768 21.9258 14.6174 21.8789 14.7581 21.7852C15.3622 21.3945 15.8362 20.8919 16.1799 20.2773C16.5289 19.668 16.7034 19.0247 16.7034 18.3477C16.7034 17.681 16.5419 17.0846 16.219 16.5586C15.8961 16.0273 15.4612 15.6107 14.9143 15.3086C14.3674 15.0013 13.7528 14.8477 13.0706 14.8477C12.4768 14.8477 11.943 14.9466 11.469 15.1445C10.995 15.3372 10.62 15.6081 10.344 15.957C10.068 16.306 9.92993 16.7096 9.92993 17.168C9.92993 17.5169 10.0211 17.8216 10.2034 18.082C10.3857 18.3372 10.6383 18.5378 10.9612 18.6836C11.2841 18.8242 11.6591 18.8945 12.0862 18.8945C12.7893 18.8945 13.4846 18.7852 14.1721 18.5664C14.8648 18.3477 15.5133 18.0404 16.1174 17.6445C16.7268 17.2435 17.2633 16.7747 17.7268 16.2383C18.1903 15.6966 18.5549 15.1055 18.8206 14.4648C19.0862 13.8242 19.219 13.1523 19.219 12.4492C19.219 11.5169 19.0289 10.6654 18.6487 9.89453C18.2685 9.1237 17.7424 8.45964 17.0706 7.90234C16.3987 7.33984 15.6226 6.90755 14.7424 6.60547C13.8674 6.29818 12.9351 6.14453 11.9456 6.14453C11.2893 6.14453 10.6305 6.20964 9.96899 6.33984C9.31274 6.47005 8.67993 6.65495 8.07056 6.89453ZM6.54712 14.2539C6.73462 14.2539 6.8466 14.1549 6.88306 13.957C6.98722 13.3945 7.08879 12.9232 7.18774 12.543C7.2867 12.1628 7.40649 11.8503 7.54712 11.6055C7.69295 11.3607 7.88306 11.1654 8.11743 11.0195C8.35181 10.8737 8.65389 10.7565 9.02368 10.668C9.39347 10.5794 9.85441 10.4961 10.4065 10.418C10.5002 10.4076 10.5758 10.3711 10.6331 10.3086C10.6956 10.2461 10.7268 10.1706 10.7268 10.082C10.7268 9.88411 10.62 9.77214 10.4065 9.74609C9.85441 9.66797 9.39087 9.58724 9.01587 9.50391C8.64087 9.41536 8.33097 9.29818 8.08618 9.15234C7.8466 9.00651 7.65129 8.8112 7.50024 8.56641C7.35441 8.32161 7.23462 8.00911 7.14087 7.62891C7.05233 7.2487 6.96639 6.77734 6.88306 6.21484C6.85702 6.00651 6.74504 5.90234 6.54712 5.90234C6.35962 5.90234 6.24764 6.00391 6.21118 6.20703C6.10702 6.76953 6.00545 7.24089 5.90649 7.62109C5.81274 8.0013 5.69295 8.3138 5.54712 8.55859C5.40129 8.80339 5.21118 8.9987 4.97681 9.14453C4.74243 9.29036 4.44035 9.40755 4.07056 9.49609C3.70076 9.58464 3.23983 9.66797 2.68774 9.74609C2.59399 9.75651 2.51587 9.79297 2.45337 9.85547C2.39608 9.91797 2.36743 9.99349 2.36743 10.082C2.36743 10.1706 2.39608 10.2461 2.45337 10.3086C2.51587 10.3711 2.59399 10.4076 2.68774 10.418C3.23983 10.4961 3.70337 10.5794 4.07837 10.668C4.45337 10.7513 4.76066 10.8659 5.00024 11.0117C5.24504 11.1576 5.44035 11.3529 5.58618 11.5977C5.73722 11.8372 5.85702 12.1497 5.94556 12.5352C6.03931 12.9154 6.12785 13.3867 6.21118 13.9492C6.23722 14.1523 6.3492 14.2539 6.54712 14.2539ZM3.01587 8.50391C3.16691 8.50391 3.25545 8.42839 3.28149 8.27734C3.3492 7.94401 3.40389 7.68359 3.44556 7.49609C3.48722 7.30339 3.54972 7.16016 3.63306 7.06641C3.7216 6.96745 3.85962 6.89453 4.04712 6.84766C4.23983 6.79557 4.51587 6.74089 4.87524 6.68359C5.03149 6.65755 5.10962 6.56901 5.10962 6.41797C5.10962 6.26693 5.03149 6.17839 4.87524 6.15234C4.51587 6.08984 4.23983 6.03255 4.04712 5.98047C3.85962 5.92839 3.7216 5.85547 3.63306 5.76172C3.54972 5.66276 3.48722 5.52214 3.44556 5.33984C3.40389 5.15234 3.3492 4.89714 3.28149 4.57422C3.25545 4.41276 3.16691 4.33203 3.01587 4.33203C2.87524 4.33203 2.7867 4.41276 2.75024 4.57422C2.68254 4.89714 2.62524 5.15234 2.57837 5.33984C2.5367 5.52214 2.4716 5.66276 2.38306 5.76172C2.29972 5.85547 2.16431 5.92839 1.97681 5.98047C1.78931 6.03255 1.51587 6.08984 1.15649 6.15234C1.00024 6.17839 0.922119 6.26693 0.922119 6.41797C0.922119 6.56901 1.00545 6.65755 1.17212 6.68359C1.52629 6.74089 1.79712 6.79557 1.98462 6.84766C2.17212 6.89453 2.30754 6.96745 2.39087 7.06641C2.47941 7.16016 2.54452 7.30078 2.58618 7.48828C2.62785 7.67057 2.68254 7.92578 2.75024 8.25391C2.7867 8.42057 2.87524 8.50391 3.01587 8.50391ZM5.54712 4.93359C5.64087 4.93359 5.69816 4.88151 5.71899 4.77734C5.77629 4.48047 5.82577 4.26693 5.86743 4.13672C5.9091 4.0013 5.99504 3.90755 6.12524 3.85547C6.26066 3.79818 6.49243 3.74089 6.82056 3.68359C6.91952 3.66276 6.96899 3.60286 6.96899 3.50391C6.96899 3.40495 6.91952 3.34505 6.82056 3.32422C6.48722 3.26172 6.25285 3.20443 6.11743 3.15234C5.98722 3.09505 5.90129 3.0013 5.85962 2.87109C5.81795 2.73568 5.77108 2.52474 5.71899 2.23828C5.69816 2.12891 5.64087 2.07422 5.54712 2.07422C5.45337 2.07422 5.39347 2.12891 5.36743 2.23828C5.30493 2.52474 5.25285 2.73568 5.21118 2.87109C5.16952 3.0013 5.08358 3.09505 4.95337 3.15234C4.82316 3.20443 4.59399 3.26172 4.26587 3.32422C4.16691 3.34505 4.11743 3.40495 4.11743 3.50391C4.11743 3.60286 4.16951 3.66276 4.27368 3.68359C4.60181 3.73568 4.82837 3.79036 4.95337 3.84766C5.08358 3.89974 5.16952 3.99349 5.21118 4.12891C5.25285 4.25911 5.30493 4.47005 5.36743 4.76172C5.39347 4.8763 5.45337 4.93359 5.54712 4.93359Z"
		fill="currentColor"
	/>
</svg>
