<svg
	color="rgb(var(--foreground, 0, 0, 0))"
	viewBox="0 0 15 24"
	fill="none"
	xmlns="http://www.w3.org/2000/svg"
>
	<path
		d="M0.428296 14.5234C0.178296 15.2318 0.152255 15.8802 0.350171 16.4687C0.553296 17.0521 0.959546 17.5547 1.56892 17.9766C2.1835 18.4036 2.98559 18.7318 3.97517 18.9609C4.96476 19.1953 6.12621 19.3125 7.45955 19.3125C8.79288 19.3125 9.95434 19.1953 10.9439 18.9609C11.9335 18.7318 12.733 18.4036 13.3424 17.9766C13.9569 17.5547 14.3632 17.0521 14.5611 16.4687C14.7642 15.8802 14.7408 15.2318 14.4908 14.5234L12.7408 9.5V6.85938C12.7408 6.45312 12.5194 6.08594 12.0767 5.75781C11.6392 5.42969 11.0247 5.16927 10.233 4.97656C9.44132 4.78385 8.51684 4.6875 7.45955 4.6875C6.40746 4.6875 5.48559 4.78385 4.69392 4.97656C3.90225 5.16927 3.28767 5.42969 2.85017 5.75781C2.41267 6.08594 2.19392 6.45312 2.19392 6.85938V9.46875L0.428296 14.5234ZM1.62361 14.9141L2.9908 11.0469C3.40746 11.3906 3.99861 11.6641 4.76423 11.8672C5.52986 12.0651 6.4283 12.1641 7.45955 12.1641C8.13663 12.1641 8.76163 12.1198 9.33455 12.0312C9.90746 11.9375 10.4127 11.8073 10.8502 11.6406C11.2929 11.474 11.6549 11.2786 11.9361 11.0547L13.2955 14.9141C13.5142 15.5286 13.4231 16.0729 13.022 16.5469C12.6262 17.0156 11.9569 17.3828 11.0142 17.6484C10.0715 17.9141 8.88663 18.0469 7.45955 18.0469C6.03246 18.0469 4.84757 17.9141 3.90486 17.6484C2.96215 17.3828 2.29288 17.0156 1.89705 16.5469C1.50121 16.0729 1.41007 15.5286 1.62361 14.9141ZM3.45173 6.85938C3.45173 6.69271 3.6184 6.53385 3.95173 6.38281C4.28507 6.22656 4.75121 6.10156 5.35017 6.00781C5.95434 5.91406 6.65746 5.86719 7.45955 5.86719C8.26163 5.86719 8.96475 5.91406 9.56892 6.00781C10.1731 6.10156 10.6418 6.22656 10.9752 6.38281C11.3137 6.53385 11.483 6.69271 11.483 6.85938C11.483 7.02604 11.3137 7.1849 10.9752 7.33594C10.6418 7.48698 10.1731 7.61198 9.56892 7.71094C8.96475 7.80469 8.26163 7.85156 7.45955 7.85156C6.65746 7.85156 5.95434 7.80469 5.35017 7.71094C4.75121 7.61198 4.28507 7.48698 3.95173 7.33594C3.6184 7.1849 3.45173 7.02604 3.45173 6.85938Z"
		fill="currentColor"
	/>
</svg>
