<svg
	color="rgb(var(--foreground, 0, 0, 0))"
	viewBox="0 0 17 24"
	fill="none"
	xmlns="http://www.w3.org/2000/svg"
>
	<path
		d="M2.32956 16.8236L2.95456 17.9017L8.52487 15.1048L14.0952 17.9017L14.728 16.8236L9.15768 14.0267V7.43294H7.89987V14.0267L2.32956 16.8236ZM0.423308 17.9251C0.313933 18.1751 0.303516 18.3756 0.392058 18.5267C0.485808 18.6829 0.665495 18.7767 0.93112 18.8079L4.1655 19.1595C4.40508 19.1855 4.603 19.1569 4.75925 19.0736C4.9207 18.9954 5.01966 18.8756 5.05612 18.7142C5.09779 18.5527 5.05352 18.3626 4.92331 18.1439L2.99362 14.8001C2.86862 14.5866 2.72539 14.4564 2.56393 14.4095C2.40768 14.3626 2.25404 14.3861 2.103 14.4798C1.95716 14.5736 1.83737 14.7298 1.74362 14.9486L0.423308 17.9251ZM16.6264 17.9251L15.3139 14.9486C15.215 14.7298 15.09 14.5736 14.9389 14.4798C14.7931 14.3861 14.6395 14.3626 14.478 14.4095C14.3217 14.4564 14.1837 14.5866 14.0639 14.8001L12.1264 18.1439C11.9962 18.3626 11.9493 18.5527 11.9858 18.7142C12.0275 18.8756 12.129 18.9954 12.2905 19.0736C12.452 19.1569 12.6499 19.1855 12.8842 19.1595L16.1186 18.8079C16.3842 18.7767 16.5613 18.6829 16.6499 18.5267C16.7436 18.3756 16.7358 18.1751 16.6264 17.9251ZM8.00925 5.1595L6.09518 7.77669C5.94935 7.9694 5.87122 8.1569 5.86081 8.33919C5.8556 8.51627 5.91289 8.66211 6.03268 8.77669C6.15768 8.89127 6.34518 8.94856 6.59518 8.94856H10.4467C10.702 8.94856 10.8895 8.89127 11.0092 8.77669C11.1342 8.66211 11.1915 8.51627 11.1811 8.33919C11.1707 8.16211 11.0926 7.97461 10.9467 7.77669L9.02487 5.1595C8.86341 4.94075 8.69414 4.83138 8.51706 4.83138C8.34518 4.82617 8.17591 4.93554 8.00925 5.1595Z"
		fill="currentColor"
	/>
</svg>
