<svg
	color="rgb(var(--foreground, 0, 0, 0))"
	viewBox="0 0 18 24"
	fill="none"
	xmlns="http://www.w3.org/2000/svg"
>
	<path
		d="M0.930542 17.9602C1.25346 18.429 1.65971 18.817 2.14929 19.1243C2.64408 19.4316 3.17533 19.6425 3.74304 19.7571C4.31075 19.8769 4.87325 19.8925 5.43054 19.804C5.99304 19.7154 6.50346 19.5123 6.96179 19.1946C7.49304 18.8248 7.88367 18.3977 8.13367 17.9133C8.38367 17.4342 8.48783 16.9316 8.44617 16.4055C8.4045 15.8795 8.20658 15.3665 7.85242 14.8665C7.53992 14.4133 7.15971 14.0722 6.71179 13.843C6.26388 13.6139 5.80554 13.5045 5.33679 13.5149C4.86804 13.5253 4.44617 13.6633 4.07117 13.929C3.74825 14.1581 3.51908 14.4029 3.38367 14.6633C3.24825 14.9238 3.1519 15.1816 3.0946 15.4368C3.04252 15.692 2.98002 15.929 2.9071 16.1477C2.83419 16.3613 2.69877 16.5383 2.50085 16.679C2.2769 16.8404 2.07377 16.9316 1.89148 16.9524C1.7144 16.9732 1.55294 16.9836 1.4071 16.9836C1.26127 16.9836 1.12325 17.0279 0.993042 17.1165C0.868042 17.1946 0.789917 17.3066 0.758667 17.4524C0.732625 17.5982 0.789917 17.7675 0.930542 17.9602ZM8.14929 13.7102C8.43575 13.9967 8.67794 14.317 8.87585 14.6711C9.07377 15.0201 9.19877 15.3482 9.25085 15.6555C9.56856 15.6034 9.86023 15.5019 10.1259 15.3508C10.3915 15.1998 10.6571 14.9915 10.9227 14.7258C10.9644 14.6842 11.0061 14.6425 11.0477 14.6008C11.0894 14.5592 11.1285 14.5149 11.1649 14.468C11.0816 13.9993 10.9253 13.5566 10.6962 13.1399C10.467 12.718 10.1831 12.3404 9.8446 12.0071C9.51127 11.6685 9.13627 11.3873 8.7196 11.1633C8.30294 10.9394 7.86283 10.7831 7.39929 10.6946C7.35242 10.7363 7.30554 10.7779 7.25867 10.8196C7.217 10.8613 7.17533 10.9029 7.13367 10.9446C6.86804 11.2102 6.65971 11.4784 6.50867 11.7493C6.36283 12.0201 6.26388 12.3092 6.21179 12.6165C6.51908 12.6685 6.84721 12.7935 7.19617 12.9915C7.55033 13.1842 7.86804 13.4238 8.14929 13.7102ZM15.5165 4.42115C15.4488 4.46802 15.2821 4.58521 15.0165 4.77271C14.7509 4.96021 14.4149 5.19719 14.0087 5.48365C13.6076 5.7701 13.1597 6.09562 12.6649 6.46021C12.1701 6.81958 11.6571 7.2024 11.1259 7.60865C10.5946 8.00969 10.0712 8.41854 9.55554 8.83521C9.03992 9.24667 8.55815 9.64771 8.11023 10.0383C8.99565 10.3196 9.76388 10.7857 10.4149 11.4368C11.0712 12.0878 11.5399 12.8613 11.8212 13.7571C12.217 13.3092 12.6206 12.8274 13.0321 12.3118C13.4488 11.7961 13.8576 11.2753 14.2587 10.7493C14.6649 10.218 15.0477 9.705 15.4071 9.21021C15.7717 8.71542 16.0972 8.2649 16.3837 7.85865C16.6701 7.4524 16.9045 7.11646 17.0868 6.85083C17.2743 6.58521 17.3941 6.41854 17.4462 6.35083C17.6285 6.09562 17.7196 5.83781 17.7196 5.5774C17.7196 5.31177 17.6545 5.06958 17.5243 4.85083C17.3941 4.63208 17.217 4.4576 16.993 4.3274C16.7743 4.19719 16.5347 4.13469 16.2743 4.1399C16.0191 4.1451 15.7665 4.23885 15.5165 4.42115Z"
		fill="currentColor"
	/>
</svg>
