<svg
	color="rgb(var(--foreground, 0, 0, 0))"
	viewBox="0 0 18 24"
	fill="none"
	xmlns="http://www.w3.org/2000/svg"
>
	<path
		d="M0.791629 18.116C1.15621 18.6056 1.60152 19.0014 2.12757 19.3035C2.65882 19.6108 3.22392 19.8165 3.82288 19.9207C4.42184 20.0249 5.01298 20.017 5.59632 19.8973C6.17965 19.7827 6.7083 19.5509 7.18225 19.2019C7.72392 18.8009 8.11715 18.3374 8.36194 17.8113C8.61194 17.2905 8.70309 16.7488 8.63538 16.1863C8.57288 15.6186 8.34371 15.0717 7.94788 14.5457C7.57809 14.0457 7.15882 13.6759 6.69007 13.4363C6.22132 13.1915 5.74215 13.0848 5.25257 13.116C4.76819 13.1473 4.30986 13.3269 3.87757 13.6551C3.57548 13.8842 3.35673 14.1316 3.22132 14.3973C3.09111 14.6577 2.99736 14.9181 2.94007 15.1785C2.88277 15.4337 2.82288 15.6681 2.76038 15.8816C2.69788 16.0952 2.58069 16.2644 2.40882 16.3894C2.2109 16.5353 2.01819 16.6238 1.83069 16.6551C1.64319 16.6863 1.46611 16.7098 1.29944 16.7254C1.13277 16.741 0.976525 16.8035 0.830691 16.9129C0.674441 17.0379 0.580691 17.2072 0.549441 17.4207C0.5234 17.6342 0.604129 17.866 0.791629 18.116ZM2.38538 17.991C2.3333 17.9389 2.30725 17.8868 2.30725 17.8348C2.30725 17.7827 2.32548 17.7384 2.36194 17.7019C2.3984 17.6707 2.4635 17.6394 2.55725 17.6082C2.65621 17.5822 2.76819 17.5431 2.89319 17.491C3.01819 17.4337 3.13538 17.3478 3.24475 17.2332C3.43746 17.0457 3.57548 16.8426 3.65882 16.6238C3.74736 16.3999 3.82288 16.1733 3.88538 15.9441C3.94788 15.715 4.03121 15.4936 4.13538 15.2801C4.23955 15.0613 4.401 14.8686 4.61975 14.7019C4.86455 14.5092 5.13017 14.4025 5.41663 14.3816C5.70309 14.3608 5.98694 14.4207 6.26819 14.5613C6.54944 14.7019 6.80465 14.9181 7.03382 15.2098C7.28902 15.5431 7.43225 15.892 7.4635 16.2566C7.49996 16.616 7.43225 16.9676 7.26038 17.3113C7.0885 17.6499 6.82809 17.9545 6.47913 18.2254C6.18225 18.4598 5.85413 18.6316 5.49475 18.741C5.14059 18.8556 4.776 18.9051 4.401 18.8894C4.026 18.8738 3.66402 18.7931 3.31507 18.6473C2.96611 18.5014 2.65621 18.2827 2.38538 17.991ZM8.43225 16.2566C8.85413 16.2098 9.25257 16.0795 9.62757 15.866C10.0026 15.6525 10.388 15.3452 10.7838 14.9441C11.2005 14.5275 11.6458 14.0405 12.1198 13.4832C12.5937 12.9259 13.0703 12.34 13.5494 11.7254C14.0338 11.1056 14.4948 10.4962 14.9323 9.89726C15.375 9.2983 15.776 8.74882 16.1354 8.24882C16.4948 7.74361 16.789 7.32434 17.0182 6.991C17.2526 6.65767 17.3984 6.45194 17.4557 6.37382C17.6536 6.10298 17.7526 5.82694 17.7526 5.54569C17.7526 5.26444 17.6823 5.00923 17.5416 4.78007C17.401 4.54569 17.2135 4.35819 16.9791 4.21757C16.75 4.07694 16.4948 4.00663 16.2135 4.00663C15.9323 4.00663 15.6536 4.10298 15.3776 4.29569C15.2994 4.35298 15.0937 4.49621 14.7604 4.72538C14.427 4.95455 14.0078 5.24882 13.5026 5.60819C13.0026 5.96757 12.4531 6.36861 11.8541 6.81132C11.2552 7.24882 10.6458 7.70975 10.026 8.19413C9.41142 8.6733 8.82548 9.14986 8.26819 9.62382C7.7109 10.0978 7.22392 10.5457 6.80725 10.9676C6.41663 11.3634 6.11194 11.7462 5.89319 12.116C5.67965 12.4858 5.54684 12.8764 5.49475 13.2879L6.72132 13.6238C6.73173 13.3374 6.81507 13.0509 6.97132 12.7644C7.12757 12.478 7.36715 12.1759 7.69007 11.8582C8.10673 11.4467 8.5885 11.0118 9.13538 10.5535C9.68225 10.09 10.2578 9.62382 10.8619 9.15507C11.4661 8.68632 12.0573 8.2384 12.6354 7.81132C13.2187 7.37903 13.7526 6.991 14.2369 6.64725C14.7213 6.2983 15.1171 6.01444 15.4244 5.79569C15.7369 5.57694 15.9218 5.44673 15.9791 5.40507C16.0677 5.33736 16.151 5.31913 16.2291 5.35038C16.3125 5.37642 16.3671 5.43111 16.3932 5.51444C16.4244 5.59778 16.4062 5.68632 16.3385 5.78007C16.3073 5.83215 16.1823 6.01444 15.9635 6.32694C15.75 6.63423 15.4687 7.03007 15.1198 7.51444C14.776 7.99882 14.388 8.53267 13.9557 9.11601C13.5234 9.69934 13.0703 10.2931 12.5963 10.8973C12.1276 11.5014 11.6614 12.0795 11.1979 12.6316C10.7343 13.1785 10.2994 13.6551 9.89319 14.0613C9.57548 14.379 9.28382 14.6108 9.01819 14.7566C8.75777 14.9025 8.49215 14.991 8.22132 15.0223L8.43225 16.2566ZM9.81507 14.2957L10.8151 14.0379C10.789 13.6681 10.6849 13.3061 10.5026 12.9519C10.3255 12.5926 10.0937 12.267 9.80725 11.9754C9.5208 11.6837 9.20309 11.4467 8.85413 11.2644C8.50517 11.0769 8.1458 10.9676 7.776 10.9363L7.44007 11.9363C7.69007 11.9311 7.95309 12.0014 8.22913 12.1473C8.50517 12.2931 8.76298 12.4858 9.00257 12.7254C9.24215 12.965 9.43746 13.2254 9.5885 13.5066C9.73955 13.7827 9.81507 14.0457 9.81507 14.2957Z"
		fill="currentColor"
	/>
</svg>
