<svg
	color="rgb(var(--foreground, 0, 0, 0))"
	viewBox="0 0 20 24"
	fill="none"
	xmlns="http://www.w3.org/2000/svg"
>
	<path
		d="M10.9297 19.8242C12.0286 19.8242 12.987 19.7018 13.8047 19.457C14.6276 19.2174 15.2682 18.8815 15.7266 18.4492C16.1849 18.0169 16.4141 17.5143 16.4141 16.9414C16.4141 16.556 16.3464 16.2357 16.2109 15.9805C16.0807 15.7253 15.9297 15.5039 15.7578 15.3164C15.5859 15.1237 15.4323 14.9388 15.2969 14.7617C15.1667 14.5794 15.1016 14.3763 15.1016 14.1523C15.1016 13.944 15.2109 13.7565 15.4297 13.5898C15.6484 13.418 15.9297 13.2487 16.2734 13.082C16.6172 12.9154 16.9818 12.7331 17.3672 12.5352C17.7526 12.332 18.1172 12.0924 18.4609 11.8164C18.8099 11.5404 19.0938 11.2096 19.3125 10.8242C19.5312 10.4388 19.6406 9.97786 19.6406 9.44141C19.6406 8.64974 19.4453 7.93099 19.0547 7.28516C18.6641 6.63932 18.1094 6.08464 17.3906 5.62109C16.6771 5.15755 15.8203 4.80078 14.8203 4.55078C13.8255 4.30078 12.7214 4.17578 11.5078 4.17578C9.91406 4.17578 8.46094 4.36589 7.14844 4.74609C5.84115 5.1263 4.71354 5.66797 3.76562 6.37109C2.82292 7.06901 2.09635 7.90755 1.58594 8.88672C1.07552 9.86068 0.820312 10.944 0.820312 12.1367C0.820312 13.2826 1.0625 14.3268 1.54688 15.2695C2.03125 16.2122 2.72135 17.0247 3.61719 17.707C4.51302 18.3841 5.57812 18.9049 6.8125 19.2695C8.05208 19.6393 9.42448 19.8242 10.9297 19.8242ZM10.7578 16.8398C10.3776 16.8398 10.0312 16.7461 9.71875 16.5586C9.40625 16.3711 9.15365 16.1211 8.96094 15.8086C8.77344 15.4909 8.67969 15.1419 8.67969 14.7617C8.67969 14.3815 8.77344 14.0352 8.96094 13.7227C9.15365 13.4049 9.40625 13.1523 9.71875 12.9648C10.0312 12.7773 10.3776 12.6836 10.7578 12.6836C11.1432 12.6836 11.4922 12.7773 11.8047 12.9648C12.1224 13.1523 12.375 13.4049 12.5625 13.7227C12.75 14.0352 12.8438 14.3815 12.8438 14.7617C12.8438 15.1419 12.75 15.4909 12.5625 15.8086C12.375 16.1211 12.1224 16.3711 11.8047 16.5586C11.4922 16.7461 11.1432 16.8398 10.7578 16.8398ZM4.51562 13.0898C4.16146 13.0898 3.85417 12.9622 3.59375 12.707C3.33854 12.4466 3.21094 12.1367 3.21094 11.7773C3.21094 11.4336 3.34115 11.1341 3.60156 10.8789C3.86719 10.6185 4.17188 10.4883 4.51562 10.4883C4.875 10.4883 5.17969 10.6133 5.42969 10.8633C5.6849 11.1133 5.8125 11.418 5.8125 11.7773C5.8125 12.1367 5.6849 12.4466 5.42969 12.707C5.17969 12.9622 4.875 13.0898 4.51562 13.0898ZM7.51562 10.3242C7.05729 10.3242 6.66667 10.168 6.34375 9.85547C6.02083 9.53776 5.85938 9.14714 5.85938 8.68359C5.85938 8.23568 6.02083 7.85547 6.34375 7.54297C6.66667 7.22526 7.05729 7.06641 7.51562 7.06641C7.96354 7.06641 8.34635 7.22526 8.66406 7.54297C8.98698 7.85547 9.14844 8.23568 9.14844 8.68359C9.14844 9.14714 8.98698 9.53776 8.66406 9.85547C8.34635 10.168 7.96354 10.3242 7.51562 10.3242ZM11.6797 9.08984C11.3203 9.08984 11.0078 8.96224 10.7422 8.70703C10.4818 8.45182 10.3516 8.14193 10.3516 7.77734C10.3516 7.41276 10.4818 7.10286 10.7422 6.84766C11.0078 6.59245 11.3203 6.46484 11.6797 6.46484C12.0443 6.46484 12.3542 6.59245 12.6094 6.84766C12.8646 7.10286 12.9922 7.41276 12.9922 7.77734C12.9922 8.14193 12.8646 8.45182 12.6094 8.70703C12.3542 8.96224 12.0443 9.08984 11.6797 9.08984ZM15.3594 9.77734C15.0625 9.77734 14.8073 9.67578 14.5938 9.47266C14.3854 9.26432 14.2812 9.01172 14.2812 8.71484C14.2812 8.41797 14.3854 8.16536 14.5938 7.95703C14.8073 7.7487 15.0625 7.64453 15.3594 7.64453C15.651 7.64453 15.8984 7.7487 16.1016 7.95703C16.3099 8.16536 16.4141 8.41797 16.4141 8.71484C16.4141 9.01172 16.3099 9.26432 16.1016 9.47266C15.8984 9.67578 15.651 9.77734 15.3594 9.77734Z"
		fill="currentColor"
	/>
</svg>
