<svg
	color="rgb(var(--foreground, 0, 0, 0))"
	viewBox="0 0 19 24"
	fill="none"
	xmlns="http://www.w3.org/2000/svg"
>
	<path
		d="M10.1094 19.8242C11.2083 19.8242 12.1667 19.7018 12.9844 19.457C13.8073 19.2174 14.4479 18.8815 14.9062 18.4492C15.3646 18.0169 15.5938 17.5143 15.5938 16.9414C15.5938 16.556 15.526 16.2357 15.3906 15.9805C15.2604 15.7253 15.1094 15.5039 14.9375 15.3164C14.7656 15.1237 14.612 14.9388 14.4766 14.7617C14.3464 14.5794 14.2812 14.3763 14.2812 14.1523C14.2812 13.944 14.3906 13.7565 14.6094 13.5898C14.8281 13.418 15.1094 13.2487 15.4531 13.082C15.7969 12.9154 16.1615 12.7331 16.5469 12.5352C16.9323 12.332 17.2969 12.0924 17.6406 11.8164C17.9896 11.5404 18.2734 11.2096 18.4922 10.8242C18.7109 10.4388 18.8203 9.97786 18.8203 9.44141C18.8203 8.64974 18.625 7.93099 18.2344 7.28516C17.8438 6.63932 17.2891 6.08464 16.5703 5.62109C15.8568 5.15755 15 4.80078 14 4.55078C13.0052 4.30078 11.901 4.17578 10.6875 4.17578C9.09375 4.17578 7.64062 4.36589 6.32812 4.74609C5.02083 5.1263 3.89323 5.66797 2.94531 6.37109C2.0026 7.06901 1.27604 7.90755 0.765625 8.88672C0.255208 9.86068 0 10.944 0 12.1367C0 13.2826 0.242188 14.3268 0.726562 15.2695C1.21094 16.2122 1.90104 17.0247 2.79688 17.707C3.69271 18.3841 4.75781 18.9049 5.99219 19.2695C7.23177 19.6393 8.60417 19.8242 10.1094 19.8242ZM10.1094 18.4883C8.78646 18.4883 7.58594 18.3346 6.50781 18.0273C5.4349 17.7253 4.51042 17.2956 3.73438 16.7383C2.96354 16.1758 2.36979 15.5065 1.95312 14.7305C1.54167 13.9492 1.33594 13.0846 1.33594 12.1367C1.33594 11.1419 1.55469 10.2383 1.99219 9.42578C2.4349 8.61328 3.06771 7.91536 3.89062 7.33203C4.71354 6.7487 5.69792 6.30078 6.84375 5.98828C7.99479 5.67057 9.27604 5.51172 10.6875 5.51172C12.0573 5.51172 13.25 5.67839 14.2656 6.01172C15.2865 6.33984 16.0781 6.79818 16.6406 7.38672C17.2031 7.97526 17.4844 8.66016 17.4844 9.44141C17.4844 9.89453 17.3724 10.2747 17.1484 10.582C16.9297 10.8841 16.6458 11.1419 16.2969 11.3555C15.9531 11.569 15.5859 11.7643 15.1953 11.9414C14.8099 12.1133 14.4427 12.2956 14.0938 12.4883C13.7448 12.681 13.4609 12.9102 13.2422 13.1758C13.0234 13.4362 12.9141 13.7643 12.9141 14.1602C12.9141 14.4935 12.9818 14.7799 13.1172 15.0195C13.2526 15.2539 13.4089 15.4674 13.5859 15.6602C13.763 15.8477 13.9193 16.0352 14.0547 16.2227C14.1901 16.4049 14.2578 16.6107 14.2578 16.8398C14.2578 17.3398 13.8802 17.7383 13.125 18.0352C12.3698 18.3372 11.3646 18.4883 10.1094 18.4883ZM9.46875 16.6445C9.86458 16.6445 10.2266 16.5482 10.5547 16.3555C10.8828 16.1576 11.1432 15.8945 11.3359 15.5664C11.5339 15.2383 11.6328 14.8737 11.6328 14.4727C11.6328 14.082 11.5339 13.7227 11.3359 13.3945C11.1432 13.0664 10.8828 12.806 10.5547 12.6133C10.2266 12.4154 9.86458 12.3164 9.46875 12.3164C9.07292 12.3164 8.71094 12.4154 8.38281 12.6133C8.05469 12.806 7.79167 13.0664 7.59375 13.3945C7.40104 13.7227 7.30469 14.082 7.30469 14.4727C7.30469 14.8737 7.40104 15.2383 7.59375 15.5664C7.79167 15.8945 8.05469 16.1576 8.38281 16.3555C8.71094 16.5482 9.07292 16.6445 9.46875 16.6445ZM9.46875 15.7383C9.23438 15.7383 9.02083 15.6836 8.82812 15.5742C8.64062 15.4596 8.48958 15.306 8.375 15.1133C8.26562 14.9206 8.21094 14.707 8.21094 14.4727C8.21094 14.2174 8.26823 13.9987 8.38281 13.8164C8.5026 13.6289 8.65625 13.4857 8.84375 13.3867C9.03125 13.2826 9.23438 13.2305 9.45312 13.2305C9.67188 13.2253 9.8776 13.2721 10.0703 13.3711C10.2682 13.4701 10.4271 13.6133 10.5469 13.8008C10.6667 13.9831 10.7266 14.207 10.7266 14.4727C10.7266 14.707 10.6693 14.9206 10.5547 15.1133C10.4453 15.306 10.2943 15.4596 10.1016 15.5742C9.91406 15.6836 9.70312 15.7383 9.46875 15.7383ZM3.94531 13.207C4.30469 13.207 4.60938 13.0794 4.85938 12.8242C5.11458 12.5638 5.24219 12.2539 5.24219 11.8945C5.24219 11.5352 5.11458 11.2305 4.85938 10.9805C4.60938 10.7253 4.30469 10.5977 3.94531 10.5977C3.59115 10.5977 3.28646 10.7253 3.03125 10.9805C2.77604 11.2305 2.64844 11.5352 2.64844 11.8945C2.64844 12.2539 2.77604 12.5638 3.03125 12.8242C3.28646 13.0794 3.59115 13.207 3.94531 13.207ZM6.79688 10.707C7.25 10.707 7.63542 10.5482 7.95312 10.2305C8.27604 9.91276 8.4375 9.52214 8.4375 9.05859C8.4375 8.61068 8.27604 8.23047 7.95312 7.91797C7.63542 7.60026 7.25 7.44141 6.79688 7.44141C6.33854 7.44141 5.94792 7.60026 5.625 7.91797C5.30729 8.23047 5.14844 8.61068 5.14844 9.05859C5.14844 9.52214 5.30729 9.91276 5.625 10.2305C5.94792 10.5482 6.33854 10.707 6.79688 10.707ZM10.7578 9.44141C11.1224 9.44141 11.4323 9.3138 11.6875 9.05859C11.9427 8.79818 12.0703 8.48568 12.0703 8.12109C12.0703 7.75651 11.9427 7.44661 11.6875 7.19141C11.4323 6.9362 11.1224 6.80859 10.7578 6.80859C10.3984 6.80859 10.0885 6.9388 9.82812 7.19922C9.56771 7.45443 9.4375 7.76172 9.4375 8.12109C9.4375 8.48568 9.56771 8.79818 9.82812 9.05859C10.0885 9.3138 10.3984 9.44141 10.7578 9.44141ZM14.3281 9.94141C14.6198 9.94141 14.8672 9.83724 15.0703 9.62891C15.2786 9.42057 15.3828 9.16797 15.3828 8.87109C15.3828 8.57943 15.2786 8.32943 15.0703 8.12109C14.8672 7.91276 14.6198 7.80859 14.3281 7.80859C14.0312 7.80859 13.776 7.91276 13.5625 8.12109C13.3542 8.32943 13.25 8.57943 13.25 8.87109C13.25 9.16797 13.3542 9.42057 13.5625 9.62891C13.776 9.83724 14.0312 9.94141 14.3281 9.94141Z"
		fill="currentColor"
	/>
</svg>
