<svg
	color="rgb(var(--foreground, 0, 0, 0))"
	viewBox="0 0 15 24"
	fill="none"
	xmlns="http://www.w3.org/2000/svg"
>
	<path
		d="M0.685547 5.26562H2.64648V4.14844C2.64648 3.86719 2.57617 3.65104 2.43555 3.5C2.30013 3.34375 2.10482 3.26562 1.84961 3.26562H1.4668C1.2168 3.26562 1.02409 3.34375 0.888672 3.5C0.753255 3.65625 0.685547 3.8724 0.685547 4.14844V5.26562ZM0.685547 18.8047L1.39648 20.5547C1.43815 20.6484 1.51367 20.6953 1.62305 20.6953C1.73242 20.7005 1.80794 20.6562 1.84961 20.5625L2.64648 18.8047V6.17969H0.685547V18.8047ZM8.41211 20.7344H12.2871C12.8548 20.7344 13.3158 20.5573 13.6699 20.2031C14.0241 19.849 14.2012 19.3854 14.2012 18.8125V5.30469C14.2012 4.73698 14.0241 4.27344 13.6699 3.91406C13.3158 3.55469 12.8548 3.375 12.2871 3.375H8.41211C7.8444 3.375 7.38346 3.55469 7.0293 3.91406C6.68034 4.27344 6.50586 4.73958 6.50586 5.3125V18.8125C6.50586 19.3854 6.68034 19.849 7.0293 20.2031C7.38346 20.5573 7.8444 20.7344 8.41211 20.7344ZM13.0215 5.5H9.73242C9.64909 5.5 9.57878 5.47396 9.52148 5.42188C9.46419 5.36458 9.43555 5.29167 9.43555 5.20312C9.43555 5.125 9.46159 5.0599 9.51367 5.00781C9.57096 4.95052 9.64128 4.92188 9.72461 4.92188H13.0215V5.5ZM13.0215 6.86719H10.9668C10.8835 6.86719 10.8158 6.84115 10.7637 6.78906C10.7116 6.73698 10.6855 6.66667 10.6855 6.57812C10.6855 6.49479 10.709 6.42708 10.7559 6.375C10.8079 6.31771 10.8757 6.28906 10.959 6.28906H13.0215V6.86719ZM13.0215 8.24219H10.9668C10.8835 8.24219 10.8158 8.21615 10.7637 8.16406C10.7116 8.10677 10.6855 8.03646 10.6855 7.95312C10.6855 7.86979 10.709 7.80208 10.7559 7.75C10.8079 7.69271 10.8757 7.66406 10.959 7.66406H13.0215V8.24219ZM13.0215 9.60938H10.9668C10.8835 9.60938 10.8158 9.58333 10.7637 9.53125C10.7116 9.47917 10.6855 9.40885 10.6855 9.32031C10.6855 9.23698 10.709 9.16667 10.7559 9.10938C10.8079 9.05208 10.8757 9.02344 10.959 9.02344H13.0215V9.60938ZM13.0215 10.9766H10.9668C10.8835 10.9766 10.8158 10.9531 10.7637 10.9062C10.7116 10.8542 10.6855 10.7839 10.6855 10.6953C10.6855 10.6172 10.709 10.5495 10.7559 10.4922C10.8079 10.4297 10.8757 10.3984 10.959 10.3984H13.0215V10.9766ZM13.0215 12.3516H9.73242C9.64909 12.3516 9.57878 12.3255 9.52148 12.2734C9.46419 12.2214 9.43555 12.151 9.43555 12.0625C9.43555 11.9844 9.46159 11.9167 9.51367 11.8594C9.57096 11.7969 9.64128 11.7656 9.72461 11.7656H13.0215V12.3516ZM13.0215 13.7266H10.9668C10.8835 13.7266 10.8158 13.7005 10.7637 13.6484C10.7116 13.5911 10.6855 13.5208 10.6855 13.4375C10.6855 13.3542 10.709 13.2839 10.7559 13.2266C10.8079 13.1693 10.8757 13.1406 10.959 13.1406H13.0215V13.7266ZM13.0215 15.1016H10.9668C10.8835 15.1016 10.8158 15.0755 10.7637 15.0234C10.7116 14.9661 10.6855 14.8932 10.6855 14.8047C10.6855 14.7266 10.709 14.6615 10.7559 14.6094C10.8079 14.5521 10.8757 14.5234 10.959 14.5234H13.0215V15.1016ZM13.0215 16.4609H10.9668C10.8835 16.4609 10.8158 16.4349 10.7637 16.3828C10.7116 16.3307 10.6855 16.2604 10.6855 16.1719C10.6855 16.0938 10.709 16.026 10.7559 15.9688C10.8079 15.9115 10.8757 15.8828 10.959 15.8828H13.0215V16.4609ZM13.0215 17.8359H10.9668C10.8835 17.8359 10.8158 17.8073 10.7637 17.75C10.7116 17.6979 10.6855 17.6276 10.6855 17.5391C10.6855 17.4609 10.709 17.3958 10.7559 17.3438C10.8079 17.2865 10.8757 17.2578 10.959 17.2578H13.0215V17.8359ZM13.0215 19.1953H9.73242C9.64909 19.1953 9.57878 19.1693 9.52148 19.1172C9.46419 19.0703 9.43555 19.0026 9.43555 18.9141C9.43555 18.8307 9.46159 18.7604 9.51367 18.7031C9.57096 18.6458 9.64128 18.6172 9.72461 18.6172H13.0215V19.1953Z"
		fill="currentColor"
	/>
</svg>
