<svg
	color="rgb(var(--foreground, 0, 0, 0))"
	viewBox="0 0 14 24"
	fill="none"
	xmlns="http://www.w3.org/2000/svg"
>
	<path
		d="M0.0137024 5.26953H1.97464V4.15234C1.97464 3.87109 1.90433 3.65495 1.7637 3.50391C1.62829 3.34766 1.43297 3.26953 1.17776 3.26953H0.794952C0.544952 3.26953 0.352244 3.34766 0.216827 3.50391C0.0814107 3.66016 0.0137024 3.8763 0.0137024 4.15234V5.26953ZM0.0137024 18.8086L0.72464 20.5586C0.766307 20.6523 0.841827 20.6992 0.951202 20.6992C1.06058 20.7044 1.1361 20.6602 1.17776 20.5664L1.97464 18.8086V6.18359H0.0137024V18.8086ZM7.89651 20.7305H11.7715C12.3392 20.7305 12.8002 20.5534 13.1543 20.1992C13.5085 19.8451 13.6856 19.3841 13.6856 18.8164V5.30859C13.6856 4.74089 13.5085 4.27734 13.1543 3.91797C12.8002 3.55859 12.3392 3.37891 11.7715 3.37891H7.89651C7.32881 3.37891 6.86787 3.55859 6.5137 3.91797C6.16474 4.27214 5.99026 4.73307 5.99026 5.30078V18.8086C5.99026 19.3815 6.16474 19.8451 6.5137 20.1992C6.86787 20.5534 7.32881 20.7305 7.89651 20.7305ZM8.10745 19.5898C7.81058 19.5898 7.5736 19.5013 7.39651 19.3242C7.21943 19.1523 7.13089 18.9232 7.13089 18.6367V5.48047C7.13089 5.19401 7.21943 4.96484 7.39651 4.79297C7.5736 4.61589 7.81058 4.52734 8.10745 4.52734H11.5684C11.8601 4.52734 12.0944 4.61589 12.2715 4.79297C12.4486 4.96484 12.5371 5.19401 12.5371 5.48047V18.6289C12.5371 18.9154 12.4486 19.1471 12.2715 19.3242C12.0944 19.5013 11.8601 19.5898 11.5684 19.5898H8.10745ZM12.9434 6.09766V5.50391H9.20901C9.13089 5.50391 9.06318 5.53255 9.00589 5.58984C8.9486 5.64193 8.91995 5.71224 8.91995 5.80078C8.91995 5.87891 8.94599 5.94922 8.99808 6.01172C9.05537 6.06901 9.12308 6.09766 9.2012 6.09766H12.9434ZM12.9434 7.33984V6.76172H10.4512C10.3679 6.76172 10.3002 6.79036 10.2481 6.84766C10.196 6.89974 10.17 6.97005 10.17 7.05859C10.17 7.13672 10.1934 7.20443 10.2403 7.26172C10.2923 7.3138 10.3601 7.33984 10.4434 7.33984H12.9434ZM12.9434 8.59766V8.01953H10.4512C10.3679 8.01953 10.3002 8.04818 10.2481 8.10547C10.196 8.15755 10.17 8.22786 10.17 8.31641C10.17 8.39453 10.1934 8.46224 10.2403 8.51953C10.2923 8.57161 10.3601 8.59766 10.4434 8.59766H12.9434ZM12.9434 9.84766V9.26172H10.4512C10.3679 9.26172 10.3002 9.29036 10.2481 9.34766C10.196 9.39974 10.17 9.46745 10.17 9.55078C10.17 9.63411 10.1934 9.70443 10.2403 9.76172C10.2923 9.81901 10.3601 9.84766 10.4434 9.84766H12.9434ZM12.9434 11.0977V10.5117H10.4512C10.3679 10.5117 10.3002 10.5404 10.2481 10.5977C10.196 10.6497 10.17 10.7227 10.17 10.8164C10.17 10.8893 10.1934 10.9544 10.2403 11.0117C10.2923 11.069 10.3601 11.0977 10.4434 11.0977H12.9434ZM12.9434 12.3398V11.7695H9.20901C9.13089 11.7695 9.06318 11.7956 9.00589 11.8477C8.9486 11.8997 8.91995 11.9701 8.91995 12.0586C8.91995 12.1419 8.94599 12.2096 8.99808 12.2617C9.05537 12.3138 9.12308 12.3398 9.2012 12.3398H12.9434ZM12.9434 13.6055V13.0195H10.4512C10.3679 13.0195 10.3002 13.0482 10.2481 13.1055C10.196 13.1576 10.17 13.2253 10.17 13.3086C10.17 13.3919 10.1934 13.4622 10.2403 13.5195C10.2923 13.5768 10.3601 13.6055 10.4434 13.6055H12.9434ZM12.9434 14.8555V14.2773H10.4512C10.3679 14.2773 10.3002 14.3034 10.2481 14.3555C10.196 14.4076 10.17 14.4779 10.17 14.5664C10.17 14.6445 10.1934 14.7122 10.2403 14.7695C10.2923 14.8268 10.3601 14.8555 10.4434 14.8555H12.9434ZM12.9434 16.0977V15.5195H10.4512C10.3679 15.5195 10.3002 15.5482 10.2481 15.6055C10.196 15.6576 10.17 15.7253 10.17 15.8086C10.17 15.8867 10.1934 15.9544 10.2403 16.0117C10.2923 16.069 10.3601 16.0977 10.4434 16.0977H12.9434ZM12.9434 17.3477V16.7695H10.4512C10.3679 16.7695 10.3002 16.7956 10.2481 16.8477C10.196 16.8997 10.17 16.9674 10.17 17.0508C10.17 17.1393 10.1934 17.2122 10.2403 17.2695C10.2923 17.3216 10.3601 17.3477 10.4434 17.3477H12.9434ZM12.9434 18.5977V18.0117H9.20901C9.13089 18.0117 9.06318 18.0378 9.00589 18.0898C8.9486 18.1471 8.91995 18.2201 8.91995 18.3086C8.91995 18.3867 8.94599 18.4544 8.99808 18.5117C9.05537 18.569 9.12308 18.5977 9.2012 18.5977H12.9434Z"
		fill="currentColor"
	/>
</svg>
