<svg
	color="rgb(var(--foreground, 0, 0, 0))"
	viewBox="0 0 11 24"
	fill="none"
	xmlns="http://www.w3.org/2000/svg"
>
	<path
		d="M1.60671 19.3789C1.789 19.3789 1.92702 19.332 2.02077 19.2383C2.11973 19.1497 2.18483 19.0247 2.21608 18.8633L3.76296 10.9883L2.98171 11.6211H8.80983L8.02858 10.9883L9.57546 18.8633C9.60671 19.0247 9.66921 19.1497 9.76296 19.2383C9.86191 19.332 10.0025 19.3789 10.1848 19.3789C10.4452 19.3789 10.6223 19.3008 10.7161 19.1445C10.815 18.9883 10.8437 18.806 10.802 18.5977L9.34108 11.1602C9.29421 10.9154 9.17702 10.7122 8.98952 10.5508C8.80202 10.3893 8.59108 10.3086 8.35671 10.3086H3.44264C3.20306 10.3086 2.98952 10.3893 2.80202 10.5508C2.61973 10.7122 2.50514 10.9154 2.45827 11.1602L0.997332 18.5977C0.950457 18.8112 0.976499 18.9935 1.07546 19.1445C1.17442 19.3008 1.3515 19.3789 1.60671 19.3789ZM3.27077 10.9414H8.52858L6.58327 5.13672C6.46348 4.79297 6.23952 4.62109 5.91139 4.62109C5.55723 4.62109 5.32285 4.79297 5.20827 5.13672L3.27077 10.9414Z"
		fill="currentColor"
	/>
</svg>
