<svg
	color="rgb(var(--foreground, 0, 0, 0))"
	viewBox="0 0 17 24"
	fill="none"
	xmlns="http://www.w3.org/2000/svg"
>
	<path
		d="M3.894 17.3066C4.43566 17.8483 5.00337 18.3014 5.59712 18.666C6.19608 19.0306 6.78462 19.3222 7.36275 19.541C7.94608 19.7597 8.48775 19.9238 8.98775 20.0332C9.48775 20.1477 9.90962 20.2207 10.2534 20.2519C10.4565 20.2727 10.6127 20.2337 10.7221 20.1347C10.8367 20.0358 10.9018 19.9212 10.9174 19.791C10.9331 19.6556 10.8966 19.5227 10.8081 19.3925C10.7195 19.2675 10.5789 19.192 10.3862 19.166C10.0737 19.1243 9.69087 19.0514 9.23775 18.9472C8.78462 18.8431 8.29504 18.692 7.769 18.4941C7.24295 18.3014 6.7117 18.0462 6.17525 17.7285C5.644 17.4056 5.144 17.0071 4.67525 16.5332C3.90962 15.7675 3.30285 14.9264 2.85493 14.0097C2.40702 13.0878 2.12837 12.1556 2.019 11.2128C1.90962 10.2701 1.97733 9.37691 2.22212 8.53316C2.47212 7.6842 2.90962 6.94722 3.53462 6.32222C4.03983 5.81701 4.61795 5.44722 5.269 5.21285C5.92004 4.97326 6.60233 4.85087 7.31587 4.84566C8.02941 4.84045 8.74035 4.9316 9.44868 5.1191C10.157 5.3066 10.8211 5.56701 11.4409 5.90035L12.2534 5.11128C11.493 4.65816 10.6857 4.31441 9.8315 4.08003C8.97733 3.84045 8.12056 3.72847 7.26118 3.7441C6.40702 3.75972 5.59191 3.91337 4.81587 4.20503C4.03983 4.4967 3.35233 4.94201 2.75337 5.54097C2.18566 6.10868 1.74556 6.76493 1.43306 7.50972C1.12056 8.2493 0.938266 9.03837 0.886183 9.87691C0.8341 10.7102 0.909621 11.5618 1.11275 12.4316C1.32108 13.2962 1.65702 14.1451 2.12056 14.9785C2.5841 15.8118 3.17525 16.5878 3.894 17.3066ZM6.73775 14.9707C7.24816 15.4811 7.81066 15.9238 8.42525 16.2988C9.03983 16.6738 9.67525 16.9681 10.3315 17.1816C10.9877 17.3899 11.6388 17.5045 12.2846 17.5253C12.9357 17.541 13.5528 17.4472 14.1362 17.2441C14.7195 17.0358 15.2403 16.7024 15.6987 16.2441C16.1674 15.7701 16.506 15.2207 16.7143 14.5957C16.9226 13.9655 17.006 13.291 16.9643 12.5722C16.9278 11.8483 16.7716 11.1087 16.4956 10.3535C16.2195 9.59826 15.8289 8.86128 15.3237 8.14253L14.5268 8.93941C15.0581 9.72587 15.4383 10.5253 15.6674 11.3378C15.9018 12.1503 15.9617 12.916 15.8471 13.6347C15.7325 14.3483 15.4226 14.9576 14.9174 15.4628C14.4591 15.9212 13.9357 16.2207 13.3471 16.3613C12.7638 16.5019 12.1544 16.5123 11.519 16.3925C10.8836 16.2675 10.256 16.0384 9.63618 15.705C9.0216 15.3665 8.45389 14.9498 7.93306 14.455L6.73775 14.9707ZM7.76118 13.8066L14.7768 6.79878L13.6127 5.64253L6.60493 12.6425L5.96431 14.1347C5.92785 14.2128 5.94087 14.2858 6.00337 14.3535C6.07108 14.4212 6.1466 14.4394 6.22993 14.4082L7.76118 13.8066ZM15.3471 6.23628L15.9721 5.61128C16.1232 5.46024 16.1987 5.28837 16.1987 5.09566C16.2039 4.90295 16.131 4.73628 15.9799 4.59566L15.7768 4.40816C15.6414 4.28316 15.4799 4.22326 15.2924 4.22847C15.1101 4.22847 14.9487 4.29878 14.8081 4.43941L14.1909 5.07222L15.3471 6.23628Z"
		fill="currentColor"
	/>
</svg>
