<svg
	color="rgb(var(--foreground, 0, 0, 0))"
	viewBox="0 0 16 24"
	fill="none"
	xmlns="http://www.w3.org/2000/svg"
>
	<path
		d="M2.83997 19.7155H12.0118C12.715 19.7155 13.2592 19.5123 13.6447 19.1061C14.0353 18.7051 14.2306 18.1009 14.2306 17.2936V8.94203L12.9728 10.1998V17.2311C12.9728 17.6373 12.8764 17.9446 12.6837 18.153C12.491 18.3561 12.2618 18.4577 11.9962 18.4577H2.8634C2.47278 18.4577 2.17069 18.3561 1.95715 18.153C1.74882 17.9446 1.64465 17.6373 1.64465 17.2311V8.36391C1.64465 7.95766 1.74882 7.65036 1.95715 7.44203C2.17069 7.2337 2.47278 7.12953 2.8634 7.12953H9.98059L11.2384 5.87172H2.83997C2.02747 5.87172 1.41549 6.07484 1.00403 6.48109C0.59257 6.88213 0.386841 7.4863 0.386841 8.29359V17.2936C0.386841 18.1009 0.59257 18.7051 1.00403 19.1061C1.41549 19.5123 2.02747 19.7155 2.83997 19.7155ZM5.68372 14.653L7.20715 13.9889L14.504 6.69984L13.4337 5.64516L6.14465 12.9342L5.44153 14.403C5.41028 14.4707 5.4233 14.5384 5.48059 14.6061C5.54309 14.6686 5.6108 14.6842 5.68372 14.653ZM15.0822 6.12953L15.6447 5.55141C15.7749 5.41078 15.84 5.25713 15.84 5.09047C15.8452 4.91859 15.7801 4.76755 15.6447 4.63734L15.465 4.44984C15.3452 4.33005 15.1993 4.27536 15.0275 4.28578C14.8608 4.2962 14.7124 4.36391 14.5822 4.48891L14.0118 5.05141L15.0822 6.12953Z"
		fill="currentColor"
	/>
</svg>
