<svg
	color="rgb(var(--foreground, 0, 0, 0))"
	viewBox="0 0 13 24"
	fill="none"
	xmlns="http://www.w3.org/2000/svg"
>
	<path
		d="M2.58415 17.4731L6.79508 13.2621L5.42008 11.8949L1.20915 16.1059L0.46696 17.8403C0.430501 17.934 0.44873 18.0199 0.521647 18.0981C0.599772 18.1814 0.68571 18.2048 0.77946 18.1684L2.58415 17.4731ZM8.9279 11.1371L11.1076 8.95745L9.7404 7.58245L7.56071 9.76995L8.9279 11.1371ZM11.7951 8.28557L12.5841 7.51213C12.7821 7.31422 12.8862 7.1137 12.8966 6.91057C12.9071 6.70224 12.8237 6.50693 12.6466 6.32463L12.381 6.06682C12.2039 5.88453 12.0112 5.8012 11.8029 5.81682C11.5998 5.83245 11.3993 5.93661 11.2013 6.12932L10.4045 6.91057L11.7951 8.28557ZM11.7482 16.9496C11.8628 17.0694 12.0034 17.1293 12.1701 17.1293C12.342 17.1293 12.4852 17.0694 12.5998 16.9496C12.7144 16.8298 12.7716 16.6892 12.7716 16.5278C12.7716 16.3611 12.7144 16.2179 12.5998 16.0981L2.77946 6.27776C2.65967 6.15797 2.51383 6.09807 2.34196 6.09807C2.17529 6.09807 2.03467 6.15797 1.92008 6.27776C1.8055 6.39234 1.74821 6.53557 1.74821 6.70745C1.74821 6.87411 1.8055 7.01474 1.92008 7.12932L11.7482 16.9496Z"
		fill="currentColor"
	/>
</svg>
