<svg
	color="rgb(var(--foreground, 0, 0, 0))"
	viewBox="0 0 25 24"
	fill="none"
	xmlns="http://www.w3.org/2000/svg"
>
	<path
		d="M3.12146 19.5631H18.5043C19.2386 19.5631 19.8011 19.3704 20.1918 18.985C20.5876 18.6048 20.7855 18.0475 20.7855 17.3131V10.9303L19.5277 12.1881V17.3756C19.5277 17.6985 19.4392 17.9485 19.2621 18.1256C19.085 18.3027 18.835 18.3912 18.5121 18.3912H3.11365C2.79073 18.3912 2.54073 18.3027 2.36365 18.1256C2.18656 17.9485 2.09802 17.6985 2.09802 17.3756V10.8053C2.09802 10.1282 2.43656 9.78966 3.11365 9.78966H15.848L17.0277 8.61779H3.12146C2.38708 8.61779 1.82198 8.80789 1.42615 9.1881C1.03552 9.56831 0.84021 10.1282 0.84021 10.8678V17.3131C0.84021 18.0475 1.03552 18.6048 1.42615 18.985C1.82198 19.3704 2.38708 19.5631 3.12146 19.5631ZM4.98865 15.2037C5.29594 15.2037 5.55896 15.0943 5.77771 14.8756C5.99646 14.6568 6.10583 14.3938 6.10583 14.0865C6.10583 13.7792 5.99646 13.5162 5.77771 13.2975C5.55896 13.0787 5.29594 12.9693 4.98865 12.9693C4.68136 12.9693 4.41833 13.0787 4.19958 13.2975C3.98083 13.5162 3.87146 13.7792 3.87146 14.0865C3.87146 14.3938 3.98083 14.6568 4.19958 14.8756C4.41833 15.0943 4.68136 15.2037 4.98865 15.2037ZM8.35583 15.2037C8.66313 15.2037 8.92615 15.0943 9.1449 14.8756C9.36365 14.6568 9.47302 14.3938 9.47302 14.0865C9.47302 13.7792 9.36365 13.5162 9.1449 13.2975C8.92615 13.0787 8.66313 12.9693 8.35583 12.9693C8.04854 12.9693 7.78552 13.0787 7.56677 13.2975C7.34802 13.5162 7.23865 13.7792 7.23865 14.0865C7.23865 14.3938 7.34802 14.6568 7.56677 14.8756C7.78552 15.0943 8.04854 15.2037 8.35583 15.2037ZM11.723 15.2037C12.0303 15.2037 12.2933 15.0943 12.5121 14.8756C12.7308 14.6568 12.8402 14.3938 12.8402 14.0865C12.8402 13.7792 12.7308 13.5162 12.5121 13.2975C12.2933 13.0787 12.0303 12.9693 11.723 12.9693C11.4157 12.9693 11.1527 13.0787 10.934 13.2975C10.7152 13.5162 10.6058 13.7792 10.6058 14.0865C10.6058 14.3938 10.7152 14.6568 10.934 14.8756C11.1527 15.0943 11.4157 15.2037 11.723 15.2037ZM14.3793 14.4928L15.973 13.7897L22.8558 6.91466L21.7543 5.82872L14.8871 12.7037L14.1371 14.2428C14.1006 14.3105 14.1136 14.3782 14.1761 14.4459C14.2386 14.5136 14.3064 14.5292 14.3793 14.4928ZM23.434 6.32872L24.0199 5.73497C24.1553 5.59435 24.223 5.4381 24.223 5.26622C24.2282 5.08914 24.1631 4.93289 24.0277 4.79747L23.8402 4.60997C23.7152 4.48497 23.5642 4.42768 23.3871 4.4381C23.2152 4.44852 23.0642 4.51883 22.934 4.64904L22.348 5.22716L23.434 6.32872Z"
		fill="currentColor"
	/>
</svg>
