<svg
	color="rgb(var(--foreground, 0, 0, 0))"
	viewBox="0 0 16 24"
	fill="none"
	xmlns="http://www.w3.org/2000/svg"
>
	<path
		d="M3.81413 18.1884H15.0876C15.2594 18.1884 15.4053 18.1259 15.5251 18.0009C15.6501 17.8812 15.7126 17.7353 15.7126 17.5634C15.7126 17.3916 15.6501 17.2431 15.5251 17.1181C15.4053 16.9931 15.2594 16.9306 15.0876 16.9306H5.07975L3.81413 18.1884ZM3.03288 17.4697L11.5563 8.95407L10.1891 7.57907L1.65788 16.1025L0.91569 17.8369C0.879232 17.9306 0.897461 18.0166 0.970378 18.0947C1.0485 18.178 1.13444 18.2015 1.22819 18.165L3.03288 17.4697ZM12.2438 8.2822L13.0329 7.50876C13.2308 7.30563 13.335 7.10251 13.3454 6.89938C13.3558 6.69626 13.2725 6.50355 13.0954 6.32126L12.8298 6.05563C12.6527 5.87855 12.46 5.79782 12.2516 5.81345C12.0485 5.82907 11.848 5.93324 11.6501 6.12595L10.861 6.9072L12.2438 8.2822Z"
		fill="currentColor"
	/>
</svg>
