<svg
	color="rgb(var(--foreground, 0, 0, 0))"
	viewBox="0 0 20 24"
	fill="none"
	xmlns="http://www.w3.org/2000/svg"
>
	<path
		d="M5.55591 17.3398L14.0793 18.832C14.5793 18.9206 15.0064 18.8815 15.3606 18.7148C15.7148 18.5482 15.9856 18.2747 16.1731 17.8945C16.3658 17.5143 16.4622 17.0456 16.4622 16.4883V7.51953C16.4622 6.93099 16.371 6.44661 16.1887 6.06641C16.0064 5.6862 15.7382 5.42057 15.384 5.26953C15.0351 5.11328 14.6002 5.07943 14.0793 5.16797L5.55591 6.66797C4.77987 6.80339 4.18872 7.0638 3.78247 7.44922C3.37622 7.83464 3.1731 8.35547 3.1731 9.01172V14.9883C3.1731 15.6393 3.37622 16.1602 3.78247 16.5508C4.18872 16.9362 4.77987 17.1992 5.55591 17.3398ZM5.49341 16.1602C5.12362 16.0977 4.83976 15.9727 4.64185 15.7852C4.44914 15.5925 4.35278 15.332 4.35278 15.0039V8.99609C4.35278 8.66797 4.44914 8.41016 4.64185 8.22266C4.83976 8.02995 5.12362 7.90234 5.49341 7.83984L14.1418 6.34766C14.5116 6.28516 14.7929 6.35547 14.9856 6.55859C15.1835 6.75651 15.2825 7.07161 15.2825 7.50391V16.5039C15.2825 16.9154 15.1809 17.2253 14.9778 17.4336C14.7799 17.6419 14.5012 17.7175 14.1418 17.6602L5.49341 16.1602ZM9.82153 21.3398C9.99862 21.3398 10.1392 21.2852 10.2434 21.1758C10.3528 21.0664 10.4075 20.9154 10.4075 20.7227V3.28516C10.4075 3.08724 10.3528 2.93359 10.2434 2.82422C10.1392 2.71484 9.99862 2.66016 9.82153 2.66016C9.63403 2.66016 9.4882 2.71484 9.38403 2.82422C9.27987 2.93359 9.22778 3.08724 9.22778 3.28516V20.7227C9.22778 20.9154 9.27987 21.0664 9.38403 21.1758C9.4882 21.2852 9.63403 21.3398 9.82153 21.3398ZM0.993408 12.5898H18.6418C18.8398 12.5898 18.9934 12.5378 19.1028 12.4336C19.2122 12.3242 19.2668 12.181 19.2668 12.0039C19.2668 11.8164 19.2122 11.6706 19.1028 11.5664C18.9934 11.4622 18.8398 11.4102 18.6418 11.4102H0.993408C0.8007 11.4102 0.647054 11.4622 0.532471 11.5664C0.423096 11.6706 0.368408 11.8164 0.368408 12.0039C0.368408 12.181 0.423096 12.3242 0.532471 12.4336C0.647054 12.5378 0.8007 12.5898 0.993408 12.5898Z"
		fill="currentColor"
	/>
</svg>
