<svg
	color="rgb(var(--foreground, 0, 0, 0))"
	viewBox="0 0 17 24"
	fill="none"
	xmlns="http://www.w3.org/2000/svg"
>
	<path
		d="M3.00391 20.6166H10.7461C11.418 20.6166 11.9206 20.4525 12.2539 20.1244C12.5872 19.7963 12.7539 19.291 12.7539 18.6088V10.8822C12.7539 10.1999 12.5872 9.69469 12.2539 9.36657C11.9206 9.03844 11.418 8.87438 10.7461 8.87438H3.00391C2.33724 8.87438 1.83464 9.03844 1.49609 9.36657C1.16276 9.69469 0.996094 10.1999 0.996094 10.8822V18.6088C0.996094 19.291 1.16276 19.7963 1.49609 20.1244C1.83464 20.4525 2.33724 20.6166 3.00391 20.6166ZM3.02734 19.3588C2.76172 19.3588 2.56641 19.2989 2.44141 19.1791C2.31641 19.0593 2.25391 18.864 2.25391 18.5931V10.9056C2.25391 10.6296 2.31641 10.4317 2.44141 10.3119C2.56641 10.1921 2.76172 10.1322 3.02734 10.1322H10.7227C10.9935 10.1322 11.1888 10.1921 11.3086 10.3119C11.4336 10.4317 11.4961 10.6296 11.4961 10.9056V18.5931C11.4961 18.864 11.4336 19.0593 11.3086 19.1791C11.1888 19.2989 10.9935 19.3588 10.7227 19.3588H3.02734ZM16.1602 10.3666C16.2956 10.3666 16.4102 10.3197 16.5039 10.2259C16.6029 10.127 16.6523 10.0124 16.6523 9.88219V8.71032C16.6523 7.96553 16.4961 7.31188 16.1836 6.74938C15.8763 6.18688 15.4414 5.74938 14.8789 5.43688C14.3164 5.12438 13.6628 4.96813 12.918 4.96813H12.7539V3.93688C12.7539 3.65042 12.6628 3.47595 12.4805 3.41345C12.2982 3.34574 12.0977 3.39261 11.8789 3.55407L9.91016 4.99938C9.7487 5.12438 9.66536 5.25459 9.66016 5.39001C9.66016 5.52022 9.74349 5.64522 9.91016 5.76501L11.8789 7.20251C12.0977 7.36397 12.2982 7.41345 12.4805 7.35095C12.6628 7.28324 12.7539 7.10876 12.7539 6.82751V5.87438H12.9102C13.4727 5.87438 13.9596 5.99678 14.3711 6.24157C14.7878 6.48115 15.1081 6.81449 15.332 7.24157C15.5612 7.66865 15.6758 8.16084 15.6758 8.71813V9.88219C15.6758 10.0124 15.7227 10.127 15.8164 10.2259C15.9154 10.3197 16.0299 10.3666 16.1602 10.3666Z"
		fill="currentColor"
	/>
</svg>
