<svg
	color="rgb(var(--foreground, 0, 0, 0))"
	viewBox="0 0 17 24"
	fill="none"
	xmlns="http://www.w3.org/2000/svg"
>
	<path
		d="M6.85547 20.6166H14.5977C15.2695 20.6166 15.7721 20.4525 16.1055 20.1244C16.4388 19.7963 16.6055 19.291 16.6055 18.6088V10.8822C16.6055 10.1999 16.4388 9.69469 16.1055 9.36657C15.7721 9.03844 15.2695 8.87438 14.5977 8.87438H6.85547C6.1888 8.87438 5.6862 9.03844 5.34766 9.36657C5.01432 9.69469 4.84766 10.1999 4.84766 10.8822V18.6088C4.84766 19.291 5.01432 19.7963 5.34766 20.1244C5.6862 20.4525 6.1888 20.6166 6.85547 20.6166ZM1.44141 10.3666C1.57682 10.3666 1.69401 10.3197 1.79297 10.2259C1.88672 10.127 1.93359 10.0124 1.93359 9.88219V8.71813C1.93359 8.16084 2.04557 7.66865 2.26953 7.24157C2.49349 6.81449 2.8112 6.48115 3.22266 6.24157C3.63932 5.99678 4.13151 5.87438 4.69922 5.87438H4.84766V6.82751C4.84766 7.10876 4.9388 7.28324 5.12109 7.35095C5.30339 7.41345 5.50391 7.36397 5.72266 7.20251L7.69141 5.76501C7.85807 5.64522 7.94141 5.52022 7.94141 5.39001C7.94141 5.25459 7.85807 5.12438 7.69141 4.99938L5.72266 3.55407C5.50391 3.39261 5.30339 3.34574 5.12109 3.41345C4.9388 3.47595 4.84766 3.65042 4.84766 3.93688V4.96813H4.69141C3.94141 4.96813 3.28776 5.12438 2.73047 5.43688C2.16797 5.74938 1.73307 6.18688 1.42578 6.74938C1.11328 7.31188 0.957031 7.96553 0.957031 8.71032V9.88219C0.957031 10.0124 1.00651 10.127 1.10547 10.2259C1.19922 10.3197 1.3112 10.3666 1.44141 10.3666Z"
		fill="currentColor"
	/>
</svg>
