<svg
	color="rgb(var(--foreground, 0, 0, 0))"
	viewBox="0 0 16 24"
	fill="none"
	xmlns="http://www.w3.org/2000/svg"
>
	<path
		d="M6.20703 20.6166H13.9492C14.6211 20.6166 15.1237 20.4525 15.457 20.1244C15.7904 19.7963 15.957 19.291 15.957 18.6088V10.8822C15.957 10.1999 15.7904 9.69469 15.457 9.36657C15.1237 9.03844 14.6211 8.87438 13.9492 8.87438H6.20703C5.54036 8.87438 5.03776 9.03844 4.69922 9.36657C4.36589 9.69469 4.19922 10.1999 4.19922 10.8822V18.6088C4.19922 19.291 4.36589 19.7963 4.69922 20.1244C5.03776 20.4525 5.54036 20.6166 6.20703 20.6166ZM6.23047 19.3588C5.96484 19.3588 5.76953 19.2989 5.64453 19.1791C5.51953 19.0593 5.45703 18.864 5.45703 18.5931V10.9056C5.45703 10.6296 5.51953 10.4317 5.64453 10.3119C5.76953 10.1921 5.96484 10.1322 6.23047 10.1322H13.9258C14.1966 10.1322 14.3919 10.1921 14.5117 10.3119C14.6367 10.4317 14.6992 10.6296 14.6992 10.9056V18.5931C14.6992 18.864 14.6367 19.0593 14.5117 19.1791C14.3919 19.2989 14.1966 19.3588 13.9258 19.3588H6.23047ZM0.792969 10.3666C0.928385 10.3666 1.04557 10.3197 1.14453 10.2259C1.23828 10.127 1.28516 10.0124 1.28516 9.88219V8.71813C1.28516 8.16084 1.39714 7.66865 1.62109 7.24157C1.84505 6.81449 2.16276 6.48115 2.57422 6.24157C2.99089 5.99678 3.48307 5.87438 4.05078 5.87438H4.19922V6.82751C4.19922 7.10876 4.29036 7.28324 4.47266 7.35095C4.65495 7.41345 4.85547 7.36397 5.07422 7.20251L7.04297 5.76501C7.20964 5.64522 7.29297 5.52022 7.29297 5.39001C7.29297 5.25459 7.20964 5.12438 7.04297 4.99938L5.07422 3.55407C4.85547 3.39261 4.65495 3.34574 4.47266 3.41345C4.29036 3.47595 4.19922 3.65042 4.19922 3.93688V4.96813H4.04297C3.29297 4.96813 2.63932 5.12438 2.08203 5.43688C1.51953 5.74938 1.08464 6.18688 0.777344 6.74938C0.464844 7.31188 0.308594 7.96553 0.308594 8.71032V9.88219C0.308594 10.0124 0.358073 10.127 0.457031 10.2259C0.550781 10.3197 0.66276 10.3666 0.792969 10.3666Z"
		fill="currentColor"
	/>
</svg>
