<svg
	color="rgb(var(--foreground, 0, 0, 0))"
	viewBox="0 0 17 24"
	fill="none"
	xmlns="http://www.w3.org/2000/svg"
>
	<path
		d="M2.66016 20.6166H10.4023C11.0742 20.6166 11.5768 20.4525 11.9102 20.1244C12.2435 19.7963 12.4102 19.291 12.4102 18.6088V10.8822C12.4102 10.1999 12.2435 9.69469 11.9102 9.36657C11.5768 9.03844 11.0742 8.87438 10.4023 8.87438H2.66016C1.99349 8.87438 1.49089 9.03844 1.15234 9.36657C0.81901 9.69469 0.652344 10.1999 0.652344 10.8822V18.6088C0.652344 19.291 0.81901 19.7963 1.15234 20.1244C1.49089 20.4525 1.99349 20.6166 2.66016 20.6166ZM15.8164 10.3666C15.9518 10.3666 16.0664 10.3197 16.1602 10.2259C16.2591 10.127 16.3086 10.0124 16.3086 9.88219V8.71032C16.3086 7.96553 16.1523 7.31188 15.8398 6.74938C15.5326 6.18688 15.0977 5.74938 14.5352 5.43688C13.9727 5.12438 13.319 4.96813 12.5742 4.96813H12.4102V3.93688C12.4102 3.65042 12.319 3.47595 12.1367 3.41345C11.9544 3.34574 11.7539 3.39261 11.5352 3.55407L9.56641 4.99938C9.39974 5.11917 9.31641 5.24678 9.31641 5.3822C9.31641 5.51761 9.39974 5.64522 9.56641 5.76501L11.5352 7.20251C11.7539 7.36397 11.9544 7.41345 12.1367 7.35095C12.319 7.28324 12.4102 7.10876 12.4102 6.82751V5.87438H12.5664C13.1289 5.87438 13.6159 5.99678 14.0273 6.24157C14.444 6.48115 14.7643 6.81449 14.9883 7.24157C15.2174 7.66865 15.332 8.16084 15.332 8.71813V9.88219C15.332 10.0124 15.3789 10.127 15.4727 10.2259C15.5716 10.3197 15.6862 10.3666 15.8164 10.3666Z"
		fill="currentColor"
	/>
</svg>
