<svg
	color="rgb(var(--foreground, 0, 0, 0))"
	viewBox="0 0 16 24"
	fill="none"
	xmlns="http://www.w3.org/2000/svg"
>
	<path
		d="M4.78516 12.2578C4.78516 13.2214 4.88151 14.1667 5.07422 15.0938C5.26693 16.0208 5.55339 16.888 5.93359 17.6953C6.31901 18.5026 6.80078 19.2083 7.37891 19.8125L8.36328 19.2734C7.85286 18.7214 7.42318 18.0703 7.07422 17.3203C6.73047 16.5703 6.47005 15.763 6.29297 14.8984C6.12109 14.0339 6.03516 13.1536 6.03516 12.2578C6.03516 11.3047 6.1237 10.3672 6.30078 9.44531C6.47786 8.52344 6.73828 7.65885 7.08203 6.85156C7.43099 6.04427 7.85807 5.33594 8.36328 4.72656L7.37109 4.19531C6.80859 4.84635 6.33464 5.60417 5.94922 6.46875C5.5638 7.33333 5.27214 8.26042 5.07422 9.25C4.88151 10.2344 4.78516 11.237 4.78516 12.2578ZM7.74609 14.875C8.76172 14.875 9.76172 14.7786 10.7461 14.5859C11.7357 14.388 12.6628 14.0964 13.5273 13.7109C14.3919 13.3255 15.1497 12.8516 15.8008 12.2891L15.2773 11.2969C14.668 11.8021 13.9596 12.2292 13.1523 12.5781C12.3451 12.9219 11.4805 13.1823 10.5586 13.3594C9.63672 13.5365 8.69922 13.625 7.74609 13.625C6.84505 13.625 5.96224 13.5391 5.09766 13.3672C4.23307 13.1901 3.42578 12.9297 2.67578 12.5859C1.92578 12.237 1.27474 11.8073 0.722656 11.2969L0.191406 12.2812C0.790365 12.8594 1.49349 13.3411 2.30078 13.7266C3.10807 14.1068 3.97526 14.3932 4.90234 14.5859C5.82943 14.7786 6.77734 14.875 7.74609 14.875ZM8.02734 19.9687C9.11589 19.9687 10.1393 19.7604 11.0977 19.3437C12.0612 18.9271 12.9102 18.3516 13.6445 17.6172C14.3789 16.8828 14.9544 16.0365 15.3711 15.0781C15.7878 14.1146 15.9961 13.0885 15.9961 12C15.9961 10.9115 15.7878 9.88802 15.3711 8.92969C14.9544 7.96615 14.3789 7.11719 13.6445 6.38281C12.9102 5.64844 12.0612 5.07292 11.0977 4.65625C10.1341 4.23958 9.10807 4.03125 8.01953 4.03125C6.93099 4.03125 5.90495 4.23958 4.94141 4.65625C3.98307 5.07292 3.13672 5.64844 2.40234 6.38281C1.67318 7.11719 1.10026 7.96615 0.683594 8.92969C0.266927 9.88802 0.0585938 10.9115 0.0585938 12C0.0585938 13.0885 0.266927 14.1146 0.683594 15.0781C1.10026 16.0365 1.67578 16.8828 2.41016 17.6172C3.14453 18.3516 3.99089 18.9271 4.94922 19.3437C5.91276 19.7604 6.9388 19.9687 8.02734 19.9687ZM8.02734 18.6406C7.10547 18.6406 6.24349 18.4687 5.44141 18.125C4.63932 17.7812 3.93359 17.3073 3.32422 16.7031C2.72005 16.0938 2.24609 15.388 1.90234 14.5859C1.5638 13.7839 1.39453 12.9219 1.39453 12C1.39453 11.0781 1.5638 10.2161 1.90234 9.41406C2.24609 8.61198 2.72005 7.90625 3.32422 7.29687C3.92839 6.6875 4.63151 6.21354 5.43359 5.875C6.23568 5.53125 7.09766 5.35938 8.01953 5.35938C8.94141 5.35938 9.80339 5.53125 10.6055 5.875C11.4128 6.21354 12.1185 6.6875 12.7227 7.29687C13.332 7.90625 13.8086 8.61198 14.1523 9.41406C14.4961 10.2161 14.668 11.0781 14.668 12C14.668 12.9219 14.4961 13.7839 14.1523 14.5859C13.8138 15.388 13.3398 16.0938 12.7305 16.7031C12.1211 17.3073 11.4154 17.7812 10.6133 18.125C9.8112 18.4687 8.94922 18.6406 8.02734 18.6406Z"
		fill="currentColor"
	/>
</svg>
