<svg
	color="rgb(var(--foreground, 0, 0, 0))"
	viewBox="0 0 20 24"
	fill="none"
	xmlns="http://www.w3.org/2000/svg"
>
	<path
		d="M19.3105 9.86719C19.3105 9.17448 19.1309 8.65104 18.7715 8.29688C18.4173 7.94271 17.8887 7.76562 17.1855 7.76562H2.31055C1.61263 7.76562 1.08659 7.94271 0.732422 8.29688C0.378255 8.65104 0.201172 9.17448 0.201172 9.86719V14.1328C0.201172 14.8255 0.378255 15.349 0.732422 15.7031C1.0918 16.0573 1.62044 16.2344 2.31836 16.2344H17.1934C17.8965 16.2344 18.4251 16.0573 18.7793 15.7031C19.1335 15.349 19.3105 14.8255 19.3105 14.1328V9.86719ZM18.0449 10.0938V13.9062C18.0449 14.2552 17.9538 14.5208 17.7715 14.7031C17.5892 14.8854 17.3288 14.9766 16.9902 14.9766H2.50586C2.17253 14.9766 1.91471 14.8854 1.73242 14.7031C1.55013 14.5208 1.45898 14.2552 1.45898 13.9062V10.0938C1.45898 9.73958 1.55013 9.47396 1.73242 9.29688C1.91471 9.11458 2.17513 9.02344 2.51367 9.02344H16.998C17.3314 9.02344 17.5892 9.11458 17.7715 9.29688C17.9538 9.47396 18.0449 9.73958 18.0449 10.0938ZM3.18555 8.58594H2.55273V12.7031C2.55273 12.7917 2.58398 12.8672 2.64648 12.9297C2.70898 12.987 2.78451 13.0156 2.87305 13.0156C2.9668 13.0156 3.04232 12.9844 3.09961 12.9219C3.1569 12.8594 3.18555 12.7839 3.18555 12.6953V8.58594ZM4.56836 8.58594H3.93555V11.3281C3.93555 11.4219 3.9668 11.4974 4.0293 11.5547C4.0918 11.612 4.16471 11.6406 4.24805 11.6406C4.34701 11.6406 4.42513 11.612 4.48242 11.5547C4.53971 11.4922 4.56836 11.4141 4.56836 11.3203V8.58594ZM5.94336 8.58594H5.30273V11.3281C5.30273 11.4219 5.33398 11.4974 5.39648 11.5547C5.45898 11.612 5.53451 11.6406 5.62305 11.6406C5.7168 11.6406 5.79232 11.612 5.84961 11.5547C5.91211 11.4922 5.94336 11.4141 5.94336 11.3203V8.58594ZM7.31055 8.58594H6.67773V11.3281C6.67773 11.4219 6.70898 11.4974 6.77148 11.5547C6.83398 11.612 6.90951 11.6406 6.99805 11.6406C7.0918 11.6406 7.16732 11.612 7.22461 11.5547C7.2819 11.4922 7.31055 11.4141 7.31055 11.3203V8.58594ZM8.69336 8.58594H8.06055V11.3281C8.06055 11.4219 8.0918 11.4974 8.1543 11.5547C8.2168 11.612 8.28971 11.6406 8.37305 11.6406C8.47201 11.6406 8.55013 11.612 8.60742 11.5547C8.66471 11.4922 8.69336 11.4141 8.69336 11.3203V8.58594ZM10.0762 8.58594H9.44336V12.7031C9.44336 12.7917 9.47461 12.8672 9.53711 12.9297C9.59961 12.987 9.67253 13.0156 9.75586 13.0156C9.85482 13.0156 9.93294 12.9844 9.99023 12.9219C10.0475 12.8594 10.0762 12.7839 10.0762 12.6953V8.58594ZM11.4512 8.58594H10.8184V11.3281C10.8184 11.4219 10.847 11.4974 10.9043 11.5547C10.9668 11.612 11.0423 11.6406 11.1309 11.6406C11.2246 11.6406 11.3001 11.612 11.3574 11.5547C11.4199 11.4922 11.4512 11.4141 11.4512 11.3203V8.58594ZM12.8262 8.58594H12.1934V11.3281C12.1934 11.4219 12.2246 11.4974 12.2871 11.5547C12.3496 11.612 12.4251 11.6406 12.5137 11.6406C12.6074 11.6406 12.6829 11.612 12.7402 11.5547C12.7975 11.4922 12.8262 11.4141 12.8262 11.3203V8.58594ZM14.2012 8.58594H13.5684V11.3281C13.5684 11.4219 13.5996 11.4974 13.6621 11.5547C13.7246 11.612 13.7975 11.6406 13.8809 11.6406C13.9798 11.6406 14.0579 11.612 14.1152 11.5547C14.1725 11.4922 14.2012 11.4141 14.2012 11.3203V8.58594ZM15.584 8.58594H14.9512V11.3281C14.9512 11.4219 14.9798 11.4974 15.0371 11.5547C15.0996 11.612 15.1751 11.6406 15.2637 11.6406C15.3574 11.6406 15.4329 11.612 15.4902 11.5547C15.5527 11.4922 15.584 11.4141 15.584 11.3203V8.58594ZM16.959 8.58594H16.3262V12.7031C16.3262 12.7917 16.3574 12.8672 16.4199 12.9297C16.4824 12.987 16.5579 13.0156 16.6465 13.0156C16.7402 13.0156 16.8158 12.9844 16.873 12.9219C16.9303 12.8594 16.959 12.7839 16.959 12.6953V8.58594Z"
		fill="currentColor"
	/>
</svg>
