<svg
	color="rgb(var(--foreground, 0, 0, 0))"
	viewBox="0 0 20 24"
	fill="none"
	xmlns="http://www.w3.org/2000/svg"
>
	<path
		d="M19.4199 9.86719C19.4199 9.17448 19.2428 8.65104 18.8887 8.29688C18.5345 7.94271 18.0059 7.76562 17.3027 7.76562H2.42773C1.72982 7.76562 1.20117 7.94271 0.841797 8.29688C0.48763 8.64583 0.310547 9.16927 0.310547 9.86719V14.1328C0.310547 14.8255 0.490234 15.349 0.849609 15.7031C1.20898 16.0573 1.73763 16.2344 2.43555 16.2344H17.3027C18.0059 16.2344 18.5345 16.0573 18.8887 15.7031C19.2428 15.349 19.4199 14.8255 19.4199 14.1328V9.86719ZM2.63086 9.05469V12.6953C2.63086 12.7839 2.60221 12.8594 2.54492 12.9219C2.48763 12.9844 2.41211 13.0156 2.31836 13.0156C2.22982 13.0156 2.1543 12.987 2.0918 12.9297C2.0293 12.8672 1.99805 12.7917 1.99805 12.7031V9.05469H2.63086ZM4.14648 9.05469V11.3203C4.14648 11.4141 4.11784 11.4922 4.06055 11.5547C4.00326 11.612 3.92513 11.6406 3.82617 11.6406C3.74284 11.6406 3.66992 11.612 3.60742 11.5547C3.54492 11.4974 3.51367 11.4219 3.51367 11.3281V9.05469H4.14648ZM5.66211 9.05469V11.3203C5.66211 11.4141 5.63086 11.4922 5.56836 11.5547C5.51107 11.612 5.43555 11.6406 5.3418 11.6406C5.25326 11.6406 5.17773 11.612 5.11523 11.5547C5.05794 11.4974 5.0293 11.4219 5.0293 11.3281V9.05469H5.66211ZM7.16211 9.05469V11.3203C7.16211 11.4141 7.13346 11.4922 7.07617 11.5547C7.01888 11.612 6.94336 11.6406 6.84961 11.6406C6.76107 11.6406 6.68555 11.612 6.62305 11.5547C6.56055 11.4974 6.5293 11.4219 6.5293 11.3281V9.05469H7.16211ZM8.67773 9.05469V11.3203C8.67773 11.4141 8.64909 11.4922 8.5918 11.5547C8.53451 11.612 8.45638 11.6406 8.35742 11.6406C8.27409 11.6406 8.20117 11.612 8.13867 11.5547C8.07617 11.4974 8.04492 11.4219 8.04492 11.3281V9.05469H8.67773ZM10.1855 9.05469V12.6953C10.1855 12.7839 10.1569 12.8594 10.0996 12.9219C10.0423 12.9844 9.96419 13.0156 9.86523 13.0156C9.7819 13.0156 9.70898 12.987 9.64648 12.9297C9.58398 12.8672 9.55273 12.7917 9.55273 12.7031V9.05469H10.1855ZM11.7012 9.05469V11.3203C11.7012 11.4141 11.6699 11.4922 11.6074 11.5547C11.5501 11.612 11.4746 11.6406 11.3809 11.6406C11.2923 11.6406 11.2168 11.612 11.1543 11.5547C11.097 11.4974 11.0684 11.4219 11.0684 11.3281V9.05469H11.7012ZM13.209 9.05469V11.3203C13.209 11.4141 13.1803 11.4922 13.123 11.5547C13.0658 11.612 12.9902 11.6406 12.8965 11.6406C12.8079 11.6406 12.7324 11.612 12.6699 11.5547C12.6074 11.4974 12.5762 11.4219 12.5762 11.3281V9.05469H13.209ZM14.7168 9.05469V11.3203C14.7168 11.4141 14.6882 11.4922 14.6309 11.5547C14.5736 11.612 14.4954 11.6406 14.3965 11.6406C14.3132 11.6406 14.2402 11.612 14.1777 11.5547C14.1152 11.4974 14.084 11.4219 14.084 11.3281V9.05469H14.7168ZM16.2324 9.05469V11.3203C16.2324 11.4141 16.2012 11.4922 16.1387 11.5547C16.0814 11.612 16.0059 11.6406 15.9121 11.6406C15.8236 11.6406 15.748 11.612 15.6855 11.5547C15.6283 11.4974 15.5996 11.4219 15.5996 11.3281V9.05469H16.2324ZM17.7324 9.05469V12.6953C17.7324 12.7839 17.7038 12.8594 17.6465 12.9219C17.5892 12.9844 17.5137 13.0156 17.4199 13.0156C17.3314 13.0156 17.2559 12.987 17.1934 12.9297C17.1309 12.8672 17.0996 12.7917 17.0996 12.7031V9.05469H17.7324Z"
		fill="currentColor"
	/>
</svg>
