<svg
	color="rgb(var(--foreground, 0, 0, 0))"
	viewBox="0 0 18 24"
	fill="none"
	xmlns="http://www.w3.org/2000/svg"
>
	<path
		d="M2.70703 16.5427L3.33984 17.6208L8.91016 14.824L14.4805 17.6208L15.1133 16.5427L9.54297 13.7458V7.1521H8.28516V13.7458L2.70703 16.5427ZM0.730469 17.6599C0.730469 17.9776 0.86849 18.2146 1.14453 18.3708L2.70703 19.2849C2.80599 19.3474 2.89974 19.3813 2.98828 19.3865C3.07682 19.3917 3.1888 19.3552 3.32422 19.2771L4.84766 18.3943C4.98828 18.3162 5.07943 18.238 5.12109 18.1599C5.16276 18.0818 5.18099 17.9776 5.17578 17.8474L5.18359 16.0349C5.18359 15.7276 5.04818 15.4958 4.77734 15.3396L3.20703 14.4255C3.10807 14.3682 3.00911 14.337 2.91016 14.3318C2.8112 14.3214 2.69661 14.3526 2.56641 14.4255L1.01953 15.324C0.884115 15.3969 0.798177 15.475 0.761719 15.5583C0.730469 15.6417 0.714844 15.738 0.714844 15.8474L0.730469 17.6599ZM12.5977 17.8552C12.5924 17.9854 12.6107 18.0896 12.6523 18.1677C12.694 18.2458 12.7852 18.324 12.9258 18.4021L14.4492 19.2849C14.5846 19.363 14.6966 19.3995 14.7852 19.3943C14.8737 19.3891 14.9674 19.3552 15.0664 19.2927L16.6289 18.3787C16.9049 18.2224 17.043 17.9854 17.043 17.6677L17.0586 15.8552C17.0586 15.7458 17.0404 15.6495 17.0039 15.5662C16.9727 15.4828 16.8893 15.4047 16.7539 15.3318L15.207 14.4333C15.0768 14.3604 14.9622 14.3292 14.8633 14.3396C14.7643 14.3448 14.6654 14.3761 14.5664 14.4333L12.9961 15.3474C12.7253 15.5037 12.5898 15.7354 12.5898 16.0427L12.5977 17.8552ZM6.91797 8.48804L8.4961 9.39429C8.76172 9.54533 9.02474 9.54533 9.28516 9.39429L10.8633 8.48804C10.9727 8.42554 11.0508 8.35522 11.0977 8.2771C11.1497 8.19897 11.1758 8.08179 11.1758 7.92554V6.15991C11.1758 6.00366 11.1497 5.88908 11.0977 5.81616C11.0508 5.74325 10.9779 5.67814 10.8789 5.62085L9.30078 4.72241C9.02474 4.56616 8.7513 4.56616 8.48047 4.72241L6.90234 5.62085C6.80339 5.67293 6.72786 5.73804 6.67578 5.81616C6.6237 5.88908 6.59766 6.00366 6.59766 6.15991V7.92554C6.59766 8.08179 6.6237 8.20158 6.67578 8.28491C6.73307 8.36304 6.8138 8.43075 6.91797 8.48804Z"
		fill="currentColor"
	/>
</svg>
