<svg
	color="rgb(var(--foreground, 0, 0, 0))"
	viewBox="0 0 21 24"
	fill="none"
	xmlns="http://www.w3.org/2000/svg"
>
	<path
		d="M3.83044 19.6094C4.41378 19.6094 4.94242 19.4661 5.41638 19.1797C5.89555 18.8984 6.27576 18.5182 6.55701 18.0391C6.84347 17.5599 6.98669 17.026 6.98669 16.4375C6.98669 16.224 6.99451 16.0469 7.01013 15.9062C7.03097 15.7604 7.07524 15.6406 7.14294 15.5469C7.21586 15.4479 7.33305 15.3568 7.49451 15.2734L20.7133 8.25C20.5518 7.66667 20.1638 7.32031 19.5492 7.21094C18.9398 7.10156 18.1482 7.22135 17.1742 7.57031L10.5023 9.96875C10.0336 10.1354 9.68201 10.3464 9.44763 10.6016C9.21326 10.8568 9.03357 11.2005 8.90857 11.6328L8.75232 12.2031C8.69503 12.4062 8.60388 12.5729 8.47888 12.7031C8.35909 12.8281 8.14555 12.9687 7.83826 13.125L6.62732 13.7656C6.45544 13.8542 6.3044 13.8984 6.17419 13.8984C6.00753 13.8984 5.85909 13.8672 5.72888 13.8047C5.59867 13.7422 5.45544 13.6719 5.29919 13.5937C5.14815 13.5104 4.95544 13.4401 4.72107 13.3828C4.4919 13.3203 4.19503 13.2891 3.83044 13.2891C3.24711 13.2891 2.71847 13.4297 2.24451 13.7109C1.77055 13.9922 1.39294 14.3724 1.11169 14.8516C0.830444 15.3255 0.689819 15.8542 0.689819 16.4375C0.689819 17.026 0.830444 17.5599 1.11169 18.0391C1.39294 18.5182 1.77055 18.8984 2.24451 19.1797C2.71847 19.4661 3.24711 19.6094 3.83044 19.6094ZM3.83044 18.3281C3.48669 18.3281 3.17419 18.2422 2.89294 18.0703C2.61169 17.9036 2.38774 17.6771 2.22107 17.3906C2.0544 17.1042 1.97107 16.7865 1.97107 16.4375C1.97107 16.0937 2.0544 15.7812 2.22107 15.5C2.38774 15.2135 2.61169 14.987 2.89294 14.8203C3.17419 14.6484 3.48669 14.5625 3.83044 14.5625C4.1794 14.5625 4.49451 14.6484 4.77576 14.8203C5.06222 14.987 5.28878 15.2135 5.45544 15.5C5.62732 15.7812 5.71326 16.0937 5.71326 16.4375C5.71326 16.7865 5.62732 17.1042 5.45544 17.3906C5.28878 17.6771 5.06222 17.9036 4.77576 18.0703C4.49451 18.2422 4.1794 18.3281 3.83044 18.3281ZM10.6742 12.2344C10.5023 12.2344 10.3513 12.1719 10.2211 12.0469C10.0909 11.9167 10.0258 11.763 10.0258 11.5859C10.0258 11.3984 10.0909 11.2422 10.2211 11.1172C10.3513 10.9922 10.5023 10.9297 10.6742 10.9297C10.8565 10.9297 11.0127 10.9922 11.1429 11.1172C11.2784 11.2422 11.3461 11.3984 11.3461 11.5859C11.3461 11.7682 11.2784 11.9219 11.1429 12.0469C11.0127 12.1719 10.8565 12.2344 10.6742 12.2344ZM3.83044 10.7188C4.19503 10.7188 4.4919 10.6875 4.72107 10.625C4.95544 10.5625 5.14815 10.4922 5.29919 10.4141C5.45544 10.3359 5.59867 10.2682 5.72888 10.2109C5.8643 10.1484 6.01274 10.1172 6.17419 10.1172C6.3044 10.1172 6.45544 10.1589 6.62732 10.2422L7.94763 10.9453C8.03097 10.987 8.10388 11.0286 8.16638 11.0703C8.23409 11.1068 8.29399 11.1432 8.34607 11.1797H8.39294C8.48669 10.8516 8.60909 10.5781 8.76013 10.3594C8.91638 10.1354 9.1169 9.94531 9.36169 9.78906V9.74219L7.58826 8.79688C7.40076 8.69792 7.26534 8.59896 7.18201 8.5C7.09867 8.39583 7.04399 8.27083 7.01794 8.125C6.99711 7.97917 6.98669 7.79167 6.98669 7.5625C6.98669 6.97396 6.84347 6.4401 6.55701 5.96094C6.27576 5.48177 5.89555 5.10156 5.41638 4.82031C4.94242 4.53385 4.41378 4.39062 3.83044 4.39062C3.24711 4.39062 2.71847 4.53385 2.24451 4.82031C1.77055 5.10677 1.39294 5.48958 1.11169 5.96875C0.830444 6.44792 0.689819 6.97917 0.689819 7.5625C0.689819 8.14583 0.830444 8.67708 1.11169 9.15625C1.39294 9.63021 1.77055 10.0104 2.24451 10.2969C2.71847 10.5781 3.24711 10.7188 3.83044 10.7188ZM3.83044 9.44531C3.48669 9.44531 3.17419 9.35938 2.89294 9.1875C2.61169 9.01562 2.38774 8.78906 2.22107 8.50781C2.0544 8.22135 1.97107 7.90625 1.97107 7.5625C1.97107 7.20833 2.0544 6.89062 2.22107 6.60938C2.38774 6.32292 2.61169 6.09635 2.89294 5.92969C3.17419 5.75781 3.48669 5.67188 3.83044 5.67188C4.1794 5.67188 4.49451 5.75781 4.77576 5.92969C5.06222 6.09635 5.28878 6.32292 5.45544 6.60938C5.62732 6.89062 5.71326 7.20833 5.71326 7.5625C5.71326 7.90625 5.62732 8.22135 5.45544 8.50781C5.28878 8.78906 5.06222 9.01562 4.77576 9.1875C4.49451 9.35938 4.1794 9.44531 3.83044 9.44531ZM17.1742 16.4531C18.1534 16.8177 18.9476 16.9401 19.557 16.8203C20.1664 16.7005 20.5518 16.3411 20.7133 15.7422L14.3539 12.3828L11.1273 14.0781V14.1719L17.1742 16.4531Z"
		fill="currentColor"
	/>
</svg>
