<svg
	color="rgb(var(--foreground, 0, 0, 0))"
	viewBox="0 0 17 24"
	fill="none"
	xmlns="http://www.w3.org/2000/svg"
>
	<path
		d="M0.395142 14.2351C0.514933 14.3549 0.652954 14.4148 0.809204 14.4148C0.970662 14.4148 1.11129 14.3549 1.23108 14.2351L2.60608 12.8601C3.56441 11.9017 4.44202 11.0293 5.23889 10.2429C6.03577 9.45121 6.75191 8.76371 7.38733 8.18038C8.02275 7.59184 8.58264 7.12049 9.06702 6.76632C9.55139 6.41215 9.96025 6.18559 10.2936 6.08663C10.6321 5.98767 10.8977 6.03455 11.0905 6.22726C11.2571 6.39392 11.291 6.63351 11.192 6.94601C11.0931 7.25851 10.8951 7.6309 10.5983 8.06319C10.3014 8.49549 9.9342 8.97726 9.4967 9.50851C9.0592 10.0345 8.58785 10.597 8.08264 11.196C7.65556 11.696 7.23368 12.196 6.81702 12.696C6.40556 13.196 6.03316 13.6882 5.69983 14.1726C5.3717 14.6517 5.11389 15.1153 4.92639 15.5632C4.7441 16.0059 4.66598 16.4252 4.69202 16.821C4.72327 17.2116 4.89775 17.5658 5.21545 17.8835C5.4915 18.1595 5.79618 18.3184 6.12952 18.3601C6.46806 18.4069 6.82743 18.3601 7.20764 18.2194C7.58785 18.0788 7.98108 17.8731 8.38733 17.6023C8.79879 17.3262 9.21545 17.0059 9.63733 16.6413C10.0592 16.2767 10.4759 15.8939 10.8873 15.4929C11.2832 15.1127 11.6503 14.7611 11.9889 14.4382C12.3326 14.1153 12.6425 13.8444 12.9186 13.6257C13.1998 13.4017 13.4394 13.2507 13.6373 13.1726C13.8352 13.0892 13.9863 13.097 14.0905 13.196C14.2675 13.3731 14.2623 13.6361 14.0748 13.9851C13.8873 14.3288 13.6451 14.7559 13.3483 15.2663C13.1608 15.5892 12.9733 15.9174 12.7858 16.2507C12.5983 16.5788 12.4472 16.8991 12.3326 17.2116C12.2181 17.5241 12.1686 17.821 12.1842 18.1023C12.205 18.3835 12.3274 18.6361 12.5514 18.8601C12.9003 19.209 13.3587 19.2819 13.9264 19.0788C14.4993 18.8809 15.1503 18.4069 15.8795 17.6569C16.0306 17.5111 16.1087 17.3575 16.1139 17.196C16.1191 17.0293 16.0618 16.8861 15.942 16.7663C15.8222 16.6517 15.6816 16.5944 15.5201 16.5944C15.3639 16.5944 15.2259 16.6543 15.1061 16.7741C14.7259 17.1231 14.4134 17.3939 14.1686 17.5866C13.929 17.7741 13.7389 17.8939 13.5983 17.946C13.4628 17.9981 13.3639 17.9929 13.3014 17.9304C13.2285 17.8575 13.2128 17.7481 13.2545 17.6023C13.3014 17.4564 13.4056 17.2455 13.567 16.9694C13.7337 16.6934 13.955 16.3262 14.2311 15.8679C14.5852 15.2898 14.8561 14.7872 15.0436 14.3601C15.2363 13.9278 15.3274 13.5528 15.317 13.2351C15.3118 12.9122 15.1894 12.6309 14.9498 12.3913C14.6217 12.058 14.2337 11.9304 13.7858 12.0085C13.3378 12.0866 12.8066 12.3497 12.192 12.7976C11.5774 13.2455 10.8613 13.8601 10.0436 14.6413C9.23629 15.4017 8.56962 15.9877 8.04358 16.3991C7.51754 16.8054 7.09566 17.058 6.77795 17.1569C6.46025 17.2507 6.21806 17.2142 6.05139 17.0476C5.84306 16.8497 5.80139 16.5528 5.92639 16.1569C6.05139 15.7559 6.36129 15.2168 6.85608 14.5398C7.35608 13.8627 8.0592 13.0033 8.96545 11.9616C9.72587 11.0866 10.3665 10.3106 10.8873 9.63351C11.4082 8.95121 11.7988 8.35226 12.0592 7.83663C12.3196 7.3158 12.4394 6.85746 12.4186 6.46163C12.403 6.0658 12.2363 5.70903 11.9186 5.39132C11.6061 5.07882 11.2701 4.89132 10.9108 4.82882C10.5514 4.76632 10.1243 4.85226 9.62952 5.08663C9.13993 5.32101 8.54358 5.72205 7.84045 6.28976C7.14254 6.85746 6.29879 7.61528 5.3092 8.56319C4.31962 9.5059 3.14254 10.6595 1.77795 12.0241L0.395142 13.3991C0.280558 13.5189 0.223267 13.6595 0.223267 13.821C0.223267 13.9773 0.280558 14.1153 0.395142 14.2351Z"
		fill="currentColor"
	/>
</svg>
