<svg
	color="rgb(var(--foreground, 0, 0, 0))"
	viewBox="0 0 17 24"
	fill="none"
	xmlns="http://www.w3.org/2000/svg"
>
	<path
		d="M0.456148 14.5731C0.591564 14.7085 0.763439 14.8048 0.971773 14.8621C1.18531 14.9194 1.40927 14.922 1.64365 14.87C1.88323 14.8179 2.10719 14.6981 2.31552 14.5106C2.36761 14.4637 2.43531 14.3986 2.51865 14.3153C2.60198 14.2319 2.70354 14.1304 2.82334 14.0106C2.94313 13.8856 3.08375 13.7423 3.24521 13.5809C3.40667 13.4142 3.59156 13.2267 3.7999 13.0184C4.79469 12.008 5.70094 11.0965 6.51865 10.284C7.34156 9.46631 8.06031 8.77881 8.6749 8.22151C9.29469 7.65901 9.7999 7.25537 10.1905 7.01058C10.5811 6.76058 10.8468 6.69808 10.9874 6.82308C11.0968 6.92203 11.1046 7.10953 11.0108 7.38558C10.9223 7.65641 10.7608 7.98714 10.5265 8.37776C10.2921 8.76318 10.0186 9.18245 9.70615 9.63558C9.39365 10.0835 9.07334 10.534 8.74521 10.9871C8.25563 11.6746 7.79209 12.3205 7.35459 12.9246C6.92229 13.5236 6.54469 14.0835 6.22177 14.6043C5.89886 15.1252 5.65146 15.6069 5.47959 16.0496C5.31292 16.4923 5.24781 16.8986 5.28427 17.2684C5.32073 17.633 5.48479 17.9585 5.77646 18.245C6.16188 18.6356 6.62542 18.7788 7.16709 18.6746C7.70875 18.5757 8.33896 18.2736 9.05771 17.7684C9.78167 17.2632 10.6098 16.6043 11.5421 15.7918C12.0629 15.3283 12.5343 14.9142 12.9561 14.5496C13.3832 14.1798 13.74 13.9064 14.0265 13.7293C14.3181 13.5522 14.5213 13.5236 14.6358 13.6434C14.7244 13.7267 14.7452 13.8543 14.6983 14.0262C14.6515 14.1981 14.5577 14.4142 14.4171 14.6746C14.2765 14.9351 14.1072 15.2345 13.9093 15.5731C13.7218 15.896 13.5317 16.2215 13.339 16.5496C13.1515 16.8778 13.0004 17.2007 12.8858 17.5184C12.7713 17.8309 12.7244 18.1252 12.7452 18.4012C12.766 18.6825 12.8884 18.9377 13.1124 19.1668C13.4249 19.4793 13.8702 19.5548 14.4483 19.3934C15.0317 19.2319 15.6957 18.7866 16.4405 18.0575C16.5707 17.9272 16.6489 17.7918 16.6749 17.6512C16.7009 17.5106 16.6619 17.3882 16.5577 17.284C16.4588 17.1851 16.3442 17.1408 16.214 17.1512C16.0838 17.1616 15.9666 17.2163 15.8624 17.3153C15.4978 17.6694 15.1775 17.9455 14.9015 18.1434C14.6306 18.3413 14.4093 18.4689 14.2374 18.5262C14.0655 18.5887 13.9483 18.5887 13.8858 18.5262C13.8129 18.4585 13.8051 18.3335 13.8624 18.1512C13.9197 17.9689 14.0317 17.7215 14.1983 17.409C14.3702 17.0913 14.589 16.6981 14.8546 16.2293C15.1046 15.7866 15.3207 15.383 15.503 15.0184C15.6853 14.6538 15.8155 14.3231 15.8936 14.0262C15.977 13.7241 15.9926 13.4507 15.9405 13.2059C15.8936 12.9611 15.7634 12.7345 15.5499 12.5262C15.2686 12.2502 14.964 12.1095 14.6358 12.1043C14.3129 12.0991 13.9535 12.2085 13.5577 12.4325C13.1671 12.6512 12.7244 12.9637 12.2296 13.37C11.74 13.7762 11.1827 14.2528 10.5577 14.7996C9.96917 15.3205 9.47698 15.7371 9.08115 16.0496C8.68532 16.3621 8.3624 16.5939 8.1124 16.745C7.86761 16.8908 7.6749 16.9741 7.53427 16.995C7.39886 17.0158 7.29469 16.9897 7.22177 16.9168C7.14365 16.8335 7.10719 16.7319 7.1124 16.6121C7.12281 16.4871 7.18271 16.3205 7.29209 16.1121C7.40667 15.8986 7.58115 15.62 7.81552 15.2762C8.0499 14.9325 8.35198 14.5028 8.72177 13.9871C9.09157 13.4715 9.53948 12.8465 10.0655 12.1121C10.6801 11.2528 11.2192 10.4715 11.6827 9.76839C12.1515 9.06006 12.5134 8.42464 12.7686 7.86214C13.0239 7.29964 13.1463 6.80224 13.1358 6.36995C13.1254 5.93245 12.9535 5.55224 12.6202 5.22933C12.1671 4.78662 11.6567 4.55224 11.089 4.5262C10.5265 4.50016 9.84677 4.71631 9.0499 5.17464C8.25823 5.62776 7.29209 6.34912 6.15146 7.3387C5.01604 8.32828 3.64365 9.61735 2.03427 11.2059C1.82073 11.4194 1.63063 11.6069 1.46396 11.7684C1.29729 11.9298 1.15146 12.0705 1.02646 12.1903C0.906668 12.3101 0.805106 12.4116 0.721773 12.495C0.638439 12.5783 0.573335 12.646 0.52646 12.6981C0.328544 12.922 0.203544 13.1538 0.15146 13.3934C0.0993769 13.6278 0.101981 13.8491 0.159273 14.0575C0.221773 14.2658 0.320731 14.4377 0.456148 14.5731Z"
		fill="currentColor"
	/>
</svg>
