<svg
	color="rgb(var(--foreground, 0, 0, 0))"
	viewBox="0 0 14 24"
	fill="none"
	xmlns="http://www.w3.org/2000/svg"
>
	<path
		d="M3.61328 17.5234H11.6992C11.8398 17.5234 11.9648 17.4583 12.0742 17.3281C12.1836 17.1979 12.2383 17.0677 12.2383 16.9375C12.2383 16.8021 12.1836 16.6693 12.0742 16.5391C11.9648 16.4089 11.8398 16.3438 11.6992 16.3438H3.58984C2.9388 16.3438 2.61328 16.0156 2.61328 15.3594V3.38281H1.35547V15.3047C1.35547 16.0443 1.54297 16.599 1.91797 16.9688C2.29818 17.3385 2.86328 17.5234 3.61328 17.5234ZM11.3711 20.7734H12.6289V8.61719C12.6289 7.90365 12.4466 7.36979 12.082 7.01562C11.7174 6.65625 11.1758 6.47656 10.457 6.47656H2.27734C2.13672 6.47656 2.01172 6.54167 1.90234 6.67188C1.79818 6.79688 1.74609 6.92708 1.74609 7.0625C1.74609 7.19792 1.79818 7.33073 1.90234 7.46094C2.01172 7.59115 2.13672 7.65625 2.27734 7.65625H10.3945C11.0456 7.65625 11.3711 7.98438 11.3711 8.64062V20.7734ZM11.9961 22.1641C12.2513 22.1641 12.4805 22.1016 12.6836 21.9766C12.8919 21.8568 13.056 21.6927 13.1758 21.4844C13.3008 21.2812 13.3633 21.0521 13.3633 20.7969C13.3633 20.4219 13.2305 20.099 12.9648 19.8281C12.6992 19.5625 12.3763 19.4297 11.9961 19.4297C11.7461 19.4297 11.5169 19.4922 11.3086 19.6172C11.1055 19.7422 10.9414 19.9062 10.8164 20.1094C10.6914 20.3177 10.6289 20.5469 10.6289 20.7969C10.6289 21.0521 10.6914 21.2812 10.8164 21.4844C10.9414 21.6927 11.1055 21.8568 11.3086 21.9766C11.5169 22.1016 11.7461 22.1641 11.9961 22.1641ZM1.97266 4.57031C2.22786 4.57031 2.45703 4.51042 2.66016 4.39062C2.86849 4.26562 3.03255 4.09896 3.15234 3.89062C3.27734 3.68229 3.33984 3.45312 3.33984 3.20312C3.33984 2.82812 3.20703 2.50781 2.94141 2.24219C2.67578 1.97135 2.35286 1.83594 1.97266 1.83594C1.72266 1.83594 1.49349 1.89844 1.28516 2.02344C1.08203 2.14323 0.917969 2.30729 0.792969 2.51562C0.667969 2.72396 0.605469 2.95312 0.605469 3.20312C0.605469 3.45312 0.667969 3.68229 0.792969 3.89062C0.917969 4.09896 1.08203 4.26562 1.28516 4.39062C1.49349 4.51042 1.72266 4.57031 1.97266 4.57031Z"
		fill="currentColor"
	/>
</svg>
