<svg
	color="rgb(var(--foreground, 0, 0, 0))"
	viewBox="0 0 24 24"
	fill="none"
	xmlns="http://www.w3.org/2000/svg"
>
	<path
		d="M8.04138 20.6016C8.84867 20.6016 9.58044 20.3646 10.2367 19.8906C10.8929 19.4167 11.4554 18.7578 11.9242 17.9141C12.3982 17.0703 12.7601 16.0885 13.0101 14.9687C13.2653 13.849 13.3929 12.6406 13.3929 11.3437C13.3929 10.2448 13.2732 9.21615 13.0336 8.25781C12.794 7.29427 12.4502 6.45052 12.0023 5.72656C11.5544 4.9974 11.0153 4.42708 10.3851 4.01562C9.76013 3.60417 9.05701 3.39844 8.27576 3.39844C7.60388 3.39844 6.99972 3.57292 6.46326 3.92188C5.9268 4.26562 5.49972 4.73177 5.18201 5.32031C4.86951 5.90365 4.71326 6.5599 4.71326 7.28906C4.71326 7.92969 4.81222 8.54688 5.01013 9.14062C5.20805 9.73438 5.47888 10.2969 5.82263 10.8281C6.17159 11.3542 6.57524 11.8437 7.03357 12.2969C7.4919 12.7448 7.98409 13.151 8.51013 13.5156C9.04138 13.875 9.58305 14.1849 10.1351 14.4453C10.2289 14.4922 10.3278 14.5156 10.432 14.5156C10.5883 14.5156 10.7185 14.4635 10.8226 14.3594C10.9268 14.25 10.9789 14.1276 10.9789 13.9922C10.9789 13.8984 10.9528 13.8099 10.9008 13.7266C10.8487 13.638 10.7653 13.5651 10.6508 13.5078C10.2028 13.2891 9.70805 12.9922 9.16638 12.6172C8.62471 12.237 8.10388 11.7839 7.60388 11.2578C7.10909 10.7266 6.70284 10.1302 6.38513 9.46875C6.06742 8.80208 5.90857 8.07552 5.90857 7.28906C5.90857 6.77865 6.01274 6.32031 6.22107 5.91406C6.4294 5.50781 6.71065 5.1849 7.06482 4.94531C7.42419 4.70573 7.82784 4.58594 8.27576 4.58594C8.87471 4.58594 9.41638 4.76302 9.90076 5.11719C10.3851 5.47135 10.7992 5.95833 11.1429 6.57812C11.4867 7.19792 11.7497 7.91667 11.932 8.73438C12.1143 9.54688 12.2054 10.4167 12.2054 11.3437C12.2054 12.4531 12.1039 13.4948 11.9008 14.4687C11.7028 15.4427 11.4216 16.2995 11.057 17.0391C10.6924 17.7839 10.2653 18.3646 9.77576 18.7812C9.28617 19.2031 8.75492 19.4141 8.18201 19.4141C7.80701 19.4141 7.52836 19.3021 7.34607 19.0781C7.16899 18.8594 7.08044 18.5729 7.08044 18.2187C7.08044 17.7812 7.20544 17.2812 7.45544 16.7187C7.71065 16.1562 8.07003 15.5885 8.53357 15.0156C9.00232 14.4427 9.55961 13.9115 10.2054 13.4219C10.8513 12.9323 11.5726 12.5391 12.3695 12.2422C13.1664 11.9401 14.0179 11.7891 14.9242 11.7891C15.2107 11.7891 15.3539 11.8958 15.3539 12.1094C15.3539 12.3385 15.3226 12.5547 15.2601 12.7578C15.1976 12.9557 15.1351 13.1562 15.0726 13.3594C15.0153 13.5625 14.9867 13.776 14.9867 14C14.9867 14.2969 15.083 14.5312 15.2758 14.7031C15.4685 14.8698 15.708 14.9531 15.9945 14.9531C16.3122 14.9531 16.6351 14.862 16.9633 14.6797C17.2966 14.4974 17.6247 14.2708 17.9476 14C18.2705 13.7292 18.5726 13.4609 18.8539 13.1953C19.1351 12.9245 19.3851 12.6979 19.6039 12.5156C19.8226 12.3333 19.9971 12.2422 20.1273 12.2422C20.2419 12.2422 20.3174 12.3255 20.3539 12.4922C20.3903 12.6536 20.4242 12.8568 20.4554 13.1016C20.4867 13.3411 20.544 13.5833 20.6273 13.8281C20.7107 14.0677 20.8539 14.2708 21.057 14.4375C21.2601 14.599 21.557 14.6797 21.9476 14.6797C22.1091 14.6797 22.2862 14.6562 22.4789 14.6094C22.6716 14.5625 22.8487 14.487 23.0101 14.3828C23.1039 14.3203 23.1794 14.2422 23.2367 14.1484C23.2992 14.0547 23.3304 13.9479 23.3304 13.8281C23.3304 13.6771 23.2836 13.5495 23.1898 13.4453C23.1013 13.3411 22.9815 13.2891 22.8304 13.2891C22.695 13.2891 22.5674 13.3281 22.4476 13.4062C22.3278 13.4792 22.2002 13.5156 22.0648 13.5156C21.8929 13.5156 21.7758 13.4297 21.7133 13.2578C21.6508 13.0807 21.6065 12.8646 21.5804 12.6094C21.5544 12.349 21.5127 12.0911 21.4554 11.8359C21.4034 11.5755 21.3044 11.3594 21.1586 11.1875C21.0127 11.0104 20.7836 10.9219 20.4711 10.9219C20.2002 10.9219 19.9034 11.0104 19.5804 11.1875C19.2627 11.3646 18.9424 11.5859 18.6195 11.8516C18.2966 12.112 17.9893 12.375 17.6976 12.6406C17.4112 12.901 17.156 13.1198 16.932 13.2969C16.7133 13.474 16.5492 13.5625 16.4398 13.5625C16.3617 13.5625 16.3226 13.5182 16.3226 13.4297C16.3226 13.3359 16.3513 13.2083 16.4086 13.0469C16.4659 12.8802 16.5232 12.6979 16.5804 12.5C16.6377 12.2969 16.6664 12.0911 16.6664 11.8828C16.6664 11.4922 16.5153 11.1823 16.2133 10.9531C15.9164 10.7187 15.5153 10.6016 15.0101 10.6016C13.9685 10.6016 12.9841 10.776 12.057 11.125C11.1351 11.474 10.294 11.9375 9.53357 12.5156C8.77836 13.0885 8.12732 13.7214 7.58044 14.4141C7.03357 15.1068 6.60909 15.8047 6.30701 16.5078C6.01013 17.2109 5.86169 17.8568 5.86169 18.4453C5.86169 19.0755 6.04138 19.5911 6.40076 19.9922C6.76013 20.3984 7.30701 20.6016 8.04138 20.6016ZM0.838257 17.7422H23.057C23.2289 17.7422 23.3773 17.6797 23.5023 17.5547C23.6273 17.4297 23.6898 17.2812 23.6898 17.1094C23.6898 16.9375 23.6273 16.7891 23.5023 16.6641C23.3773 16.5443 23.2289 16.4844 23.057 16.4844H0.838257C0.666382 16.4844 0.517944 16.5443 0.392944 16.6641C0.273153 16.7891 0.213257 16.9375 0.213257 17.1094C0.213257 17.2812 0.273153 17.4297 0.392944 17.5547C0.517944 17.6797 0.666382 17.7422 0.838257 17.7422ZM0.619507 14.6953C0.718465 14.7995 0.835653 14.8516 0.971069 14.8516C1.11169 14.8464 1.23149 14.7943 1.33044 14.6953L4.00232 12.0312C4.10649 11.9323 4.15857 11.8151 4.15857 11.6797C4.15857 11.5391 4.10649 11.4193 4.00232 11.3203C3.90336 11.2161 3.78357 11.1667 3.64294 11.1719C3.50753 11.1719 3.39034 11.2214 3.29138 11.3203L0.619507 13.9766C0.51534 14.0807 0.463257 14.2005 0.463257 14.3359C0.463257 14.4714 0.51534 14.5911 0.619507 14.6953ZM3.29138 14.6953C3.39034 14.7995 3.50753 14.8516 3.64294 14.8516C3.78357 14.8516 3.90336 14.7995 4.00232 14.6953C4.10649 14.5911 4.15857 14.4714 4.15857 14.3359C4.15857 14.1953 4.10649 14.0755 4.00232 13.9766L1.33044 11.3203C1.23149 11.2161 1.11169 11.1641 0.971069 11.1641C0.835653 11.1641 0.718465 11.2161 0.619507 11.3203C0.51534 11.4193 0.463257 11.5391 0.463257 11.6797C0.463257 11.8151 0.51534 11.9323 0.619507 12.0312L3.29138 14.6953Z"
		fill="currentColor"
	/>
</svg>
