<svg
	color="rgb(var(--foreground, 0, 0, 0))"
	viewBox="0 0 20 24"
	fill="none"
	xmlns="http://www.w3.org/2000/svg"
>
	<path
		d="M0.884277 15.1094C0.884277 15.4323 0.962402 15.7266 1.11865 15.9922C1.28011 16.2578 1.49105 16.4688 1.75146 16.625C2.01709 16.7813 2.31136 16.8594 2.63428 16.8594C2.97282 16.8594 3.28271 16.7682 3.56396 16.5859C3.84521 16.3984 4.05615 16.1615 4.19678 15.875L15.978 19.3203C16.0718 19.6953 16.2749 20.0052 16.5874 20.25C16.8999 20.5 17.2593 20.625 17.6655 20.625C17.9832 20.625 18.2723 20.5469 18.5327 20.3906C18.7983 20.2344 19.0093 20.0234 19.1655 19.7578C19.327 19.4922 19.4077 19.2005 19.4077 18.8828C19.4077 18.5182 19.3062 18.1901 19.103 17.8984C18.8999 17.612 18.6421 17.4036 18.3296 17.2734L17.9937 9.39844C18.3322 9.28385 18.6082 9.07812 18.8218 8.78125C19.0405 8.48438 19.1499 8.14583 19.1499 7.76562C19.1499 7.44792 19.0718 7.15625 18.9155 6.89062C18.7593 6.625 18.5483 6.41406 18.2827 6.25781C18.0223 6.10156 17.7332 6.02344 17.4155 6.02344C17.0926 6.02344 16.7983 6.10156 16.5327 6.25781C16.2723 6.41406 16.064 6.61719 15.9077 6.86719L9.3999 5.08594C9.39469 4.76823 9.31136 4.48177 9.1499 4.22656C8.99365 3.96615 8.78532 3.76042 8.5249 3.60938C8.26449 3.45312 7.97803 3.375 7.66553 3.375C7.34261 3.375 7.04834 3.45573 6.78271 3.61719C6.51709 3.77344 6.30615 3.98438 6.1499 4.25C5.99365 4.51042 5.91553 4.80208 5.91553 5.125C5.91553 5.38021 5.96761 5.6224 6.07178 5.85156C6.18115 6.07552 6.32438 6.26823 6.50146 6.42969L2.87646 13.3984C2.79834 13.3776 2.71761 13.3672 2.63428 13.3672C2.31136 13.3672 2.01709 13.4453 1.75146 13.6016C1.49105 13.7578 1.28011 13.9688 1.11865 14.2344C0.962402 14.5 0.884277 14.7917 0.884277 15.1094ZM3.8999 13.9219L7.53271 6.84375C7.73584 6.86979 7.93115 6.85677 8.11865 6.80469C8.31136 6.7526 8.48584 6.67188 8.64209 6.5625C8.80355 6.44792 8.93636 6.3099 9.04053 6.14844L15.7046 7.97656C15.7306 8.3151 15.853 8.61979 16.0718 8.89062C16.2957 9.16146 16.5718 9.34375 16.8999 9.4375L17.1733 17.2031C16.9181 17.276 16.689 17.4036 16.4858 17.5859C16.2879 17.7682 16.1421 17.9818 16.0483 18.2266L4.32178 14.7813C4.29574 14.6146 4.24886 14.4609 4.18115 14.3203C4.11344 14.1797 4.01969 14.0469 3.8999 13.9219Z"
		fill="currentColor"
	/>
</svg>
