<svg
	color="rgb(var(--foreground, 0, 0, 0))"
	viewBox="0 0 16 24"
	fill="none"
	xmlns="http://www.w3.org/2000/svg"
>
	<path
		d="M0.830444 8.92578H2.08826V7.29297C2.08826 6.88672 2.19242 6.58203 2.40076 6.37891C2.60909 6.17057 2.90857 6.06641 3.29919 6.06641H4.91638V4.80859H3.28357C2.46586 4.80859 1.85128 5.01172 1.43982 5.41797C1.03357 5.81901 0.830444 6.42318 0.830444 7.23047V8.92578ZM5.98669 6.06641H10.057V4.80859H5.98669V6.06641ZM13.9554 8.92578H15.2133V7.23047C15.2133 6.42318 15.0075 5.81901 14.5961 5.41797C14.1898 5.01172 13.5778 4.80859 12.7601 4.80859H11.1273V6.06641H12.7445C13.1299 6.06641 13.4268 6.17057 13.6351 6.37891C13.8487 6.58203 13.9554 6.88672 13.9554 7.29297V8.92578ZM13.9554 14.0039H15.2133V9.99609H13.9554V14.0039ZM11.1273 19.1914H12.7601C13.5778 19.1914 14.1898 18.9883 14.5961 18.582C15.0075 18.181 15.2133 17.5768 15.2133 16.7695V15.0742H13.9554V16.707C13.9554 17.1133 13.8487 17.4206 13.6351 17.6289C13.4268 17.832 13.1299 17.9336 12.7445 17.9336H11.1273V19.1914ZM5.98669 19.1914H10.057V17.9336H5.98669V19.1914ZM3.28357 19.1914H4.91638V17.9336H3.29919C2.90857 17.9336 2.60909 17.832 2.40076 17.6289C2.19242 17.4206 2.08826 17.1133 2.08826 16.707V15.0742H0.830444V16.7695C0.830444 17.5768 1.03357 18.181 1.43982 18.582C1.85128 18.9883 2.46586 19.1914 3.28357 19.1914ZM0.830444 14.0039H2.08826V9.99609H0.830444V14.0039ZM3.90076 16.8555H12.1508C12.3955 16.8555 12.5804 16.793 12.7054 16.668C12.8304 16.5378 12.8929 16.3477 12.8929 16.0977V7.87891C12.8929 7.62891 12.8304 7.44141 12.7054 7.31641C12.5804 7.1862 12.3955 7.12109 12.1508 7.12109H3.90076C3.65597 7.12109 3.47107 7.1862 3.34607 7.31641C3.22107 7.44141 3.15857 7.62891 3.15857 7.87891V16.0977C3.15857 16.3477 3.22107 16.5378 3.34607 16.668C3.47107 16.793 3.65597 16.8555 3.90076 16.8555Z"
		fill="currentColor"
	/>
</svg>
