<svg
	color="rgb(var(--foreground, 0, 0, 0))"
	viewBox="0 0 15 24"
	fill="none"
	xmlns="http://www.w3.org/2000/svg"
>
	<path
		d="M0.447632 8.92578H1.70544V7.29297C1.70544 6.88672 1.80961 6.58203 2.01794 6.37891C2.22628 6.17057 2.52576 6.06641 2.91638 6.06641H4.53357V4.80859H2.90076C2.08305 4.80859 1.46847 5.01172 1.05701 5.41797C0.650757 5.81901 0.447632 6.42318 0.447632 7.23047V8.92578ZM5.60388 6.06641H9.67419V4.80859H5.60388V6.06641ZM13.5726 8.92578H14.8304V7.23047C14.8304 6.42318 14.6247 5.81901 14.2133 5.41797C13.807 5.01172 13.195 4.80859 12.3773 4.80859H10.7445V6.06641H12.3617C12.7471 6.06641 13.044 6.17057 13.2523 6.37891C13.4659 6.58203 13.5726 6.88672 13.5726 7.29297V8.92578ZM13.5726 14.0039H14.8304V9.99609H13.5726V14.0039ZM10.7445 19.1914H12.3773C13.195 19.1914 13.807 18.9883 14.2133 18.582C14.6247 18.181 14.8304 17.5768 14.8304 16.7695V15.0742H13.5726V16.707C13.5726 17.1133 13.4659 17.4206 13.2523 17.6289C13.044 17.832 12.7471 17.9336 12.3617 17.9336H10.7445V19.1914ZM5.60388 19.1914H9.67419V17.9336H5.60388V19.1914ZM2.90076 19.1914H4.53357V17.9336H2.91638C2.52576 17.9336 2.22628 17.832 2.01794 17.6289C1.80961 17.4206 1.70544 17.1133 1.70544 16.707V15.0742H0.447632V16.7695C0.447632 17.5768 0.650757 18.181 1.05701 18.582C1.46847 18.9883 2.08305 19.1914 2.90076 19.1914ZM0.447632 14.0039H1.70544V9.99609H0.447632V14.0039Z"
		fill="currentColor"
	/>
</svg>
