<svg
	color="rgb(var(--foreground, 0, 0, 0))"
	viewBox="0 0 18 24"
	fill="none"
	xmlns="http://www.w3.org/2000/svg"
>
	<path
		d="M0.169678 8.3125H6.86499V4.92969C6.86499 4.33594 6.6853 3.86458 6.32593 3.51562C5.97176 3.16146 5.48999 2.98438 4.88062 2.98438H2.23218C1.59676 2.98438 1.09416 3.16146 0.724365 3.51562C0.354574 3.86458 0.169678 4.33594 0.169678 4.92969V8.3125ZM0.169678 14.6172H6.86499V9.375H0.169678V14.6172ZM2.23218 21.0156H4.88062C5.48999 21.0156 5.97176 20.8385 6.32593 20.4844C6.6853 20.1354 6.86499 19.6615 6.86499 19.0625V15.6875H0.169678V19.0625C0.169678 19.6615 0.354574 20.1354 0.724365 20.4844C1.09416 20.8385 1.59676 21.0156 2.23218 21.0156ZM7.92749 9.1875L11.6619 11.3438L13.3494 8.41406C13.6462 7.89844 13.727 7.39844 13.5916 6.91406C13.4613 6.42969 13.1306 6.03646 12.5994 5.73438L10.3181 4.41406C9.88062 4.15885 9.45874 4.04688 9.05249 4.07812C8.64624 4.10417 8.29207 4.26302 7.98999 4.55469C7.98478 4.64323 7.97697 4.73438 7.96655 4.82812C7.95614 4.91667 7.94312 5.00781 7.92749 5.10156V9.1875ZM7.92749 17.8047L11.1306 12.2656L7.92749 10.4219V17.8047ZM13.1462 16.3672L16.0681 14.6797C16.5837 14.3828 16.9041 13.9922 17.0291 13.5078C17.1541 13.0182 17.0629 12.5078 16.7556 11.9766L15.4431 9.69531C15.1671 9.21094 14.8129 8.89583 14.3806 8.75C14.3546 8.79688 14.3285 8.84375 14.3025 8.89062C14.2817 8.9375 14.2582 8.98438 14.2322 9.03125L11.5759 13.6406L13.1462 16.3672ZM8.41968 19.0938L12.2166 16.8984L10.9509 14.7031L8.41968 19.0938Z"
		fill="currentColor"
	/>
</svg>
