<svg
	color="rgb(var(--foreground, 0, 0, 0))"
	viewBox="0 0 19 24"
	fill="none"
	xmlns="http://www.w3.org/2000/svg"
>
	<path
		d="M2.85938 21.0156H5.8125C6.52083 21.0156 7.05469 20.8385 7.41406 20.4844C7.77865 20.1302 7.96094 19.6042 7.96094 18.9062V5.08594C7.96094 4.39323 7.77865 3.86979 7.41406 3.51562C7.05469 3.16146 6.52083 2.98438 5.8125 2.98438H2.85938C2.13021 2.98438 1.57812 3.16146 1.20312 3.51562C0.828125 3.86979 0.640625 4.39323 0.640625 5.08594V18.9062C0.640625 19.6042 0.828125 20.1302 1.20312 20.4844C1.57812 20.8385 2.13021 21.0156 2.85938 21.0156ZM2.875 19.7578C2.59375 19.7578 2.35938 19.6719 2.17188 19.5C1.98958 19.3281 1.89844 19.1094 1.89844 18.8438V5.14844C1.89844 4.88802 1.98958 4.67188 2.17188 4.5C2.35938 4.32812 2.59375 4.24219 2.875 4.24219H5.79688C6.05729 4.24219 6.27344 4.32812 6.44531 4.5C6.61719 4.67188 6.70312 4.88802 6.70312 5.14844V18.8438C6.70312 19.1094 6.61719 19.3281 6.44531 19.5C6.27344 19.6719 6.05729 19.7578 5.79688 19.7578H2.875ZM1.28906 9.83594H7.3125V8.57812H1.28906V9.83594ZM1.28906 15.4219H7.3125V14.1641H1.28906V15.4219ZM7.25781 6.24219L7.61719 8.125L9.09375 5.57031C9.22396 5.34635 9.41146 5.20573 9.65625 5.14844C9.90625 5.09115 10.1536 5.13281 10.3984 5.27344L12.9297 6.73438C13.1536 6.86458 13.2943 7.04688 13.3516 7.28125C13.4141 7.51562 13.3802 7.7474 13.25 7.97656L6.57812 19.5312L7.67188 20.1562L14.3672 8.54688C14.7161 7.94792 14.8229 7.40625 14.6875 6.92188C14.5521 6.43229 14.1797 6.01302 13.5703 5.66406L11.0078 4.17969C10.3776 3.8151 9.8125 3.69271 9.3125 3.8125C8.8125 3.92708 8.38802 4.28646 8.03906 4.89062L7.25781 6.24219ZM7.6875 10.1641L11.4453 12.3359L12.0703 11.25L7.6875 8.71875V10.1641ZM7.49219 16.5L8.64844 17.1797L9.28125 16.0859L7.49219 15.0547V16.5ZM13.7812 8.25781L13.2109 9.96875L13.9453 9.54688C14.1693 9.41667 14.4036 9.38802 14.6484 9.46094C14.8932 9.53385 15.0859 9.69271 15.2266 9.9375L16.6875 12.4609C16.8125 12.6901 16.8438 12.9245 16.7812 13.1641C16.7188 13.3984 16.5755 13.5781 16.3516 13.7031L8.71094 18.1094L7.53125 20.2422L17.0312 14.7656C17.6302 14.4167 17.9922 13.9974 18.1172 13.5078C18.2474 13.013 18.1354 12.4609 17.7812 11.8516L16.3047 9.29688C16.0026 8.77083 15.651 8.41146 15.25 8.21875C14.8542 8.02604 14.4245 8.01042 13.9609 8.17188L13.7812 8.25781ZM11.0078 13.8125L12.6016 16.5703L13.6875 15.9453L11.7344 12.5547L11.0078 13.8125Z"
		fill="currentColor"
	/>
</svg>
