<svg
	color="rgb(var(--foreground, 0, 0, 0))"
	viewBox="0 0 28 24"
	fill="none"
	xmlns="http://www.w3.org/2000/svg"
>
	<path
		d="M7.82422 19.1914H19.5977C20.4154 19.1914 21.0273 18.9883 21.4336 18.582C21.8451 18.181 22.0508 17.5768 22.0508 16.7695V7.23047C22.0508 6.42318 21.8451 5.81901 21.4336 5.41797C21.0273 5.01172 20.4154 4.80859 19.5977 4.80859H7.82422C7.01172 4.80859 6.39974 5.01172 5.98828 5.41797C5.58203 5.81901 5.37891 6.42318 5.37891 7.23047V16.7695C5.37891 17.5768 5.58203 18.181 5.98828 18.582C6.39974 18.9883 7.01172 19.1914 7.82422 19.1914ZM6.81641 14.4961V9.50391C6.81641 9.3737 6.86328 9.26432 6.95703 9.17578C7.05078 9.08203 7.16276 9.03516 7.29297 9.03516C7.41797 9.03516 7.52734 9.08203 7.62109 9.17578C7.71484 9.26432 7.76172 9.3737 7.76172 9.50391V14.4961C7.76172 14.6263 7.71484 14.7383 7.62109 14.832C7.52734 14.9206 7.41797 14.9648 7.29297 14.9648C7.16276 14.9648 7.05078 14.9206 6.95703 14.832C6.86328 14.7383 6.81641 14.6263 6.81641 14.4961ZM9.20703 17.9336V6.06641H18.2227V17.9336H9.20703ZM19.6602 14.4961V9.50391C19.6602 9.3737 19.707 9.26432 19.8008 9.17578C19.8945 9.08203 20.0065 9.03516 20.1367 9.03516C20.2669 9.03516 20.3763 9.08203 20.4648 9.17578C20.5586 9.26432 20.6055 9.3737 20.6055 9.50391V14.4961C20.6055 14.6263 20.5586 14.7383 20.4648 14.832C20.3763 14.9206 20.2669 14.9648 20.1367 14.9648C20.0065 14.9648 19.8945 14.9206 19.8008 14.832C19.707 14.7383 19.6602 14.6263 19.6602 14.4961ZM1.58984 14.3945L3.70703 12.668C3.92057 12.4909 4.02474 12.2773 4.01953 12.0273C4.01432 11.7773 3.91016 11.5638 3.70703 11.3867L1.58984 9.62109C1.40234 9.47005 1.21484 9.39714 1.02734 9.40234C0.839844 9.40234 0.68099 9.47005 0.550781 9.60547C0.425781 9.73568 0.363281 9.92057 0.363281 10.1602V13.8711C0.363281 14.1003 0.428385 14.2799 0.558594 14.4102C0.688802 14.5404 0.847656 14.6081 1.03516 14.6133C1.22786 14.6133 1.41276 14.5404 1.58984 14.3945ZM25.832 14.3945C26.0091 14.5404 26.1914 14.6133 26.3789 14.6133C26.5716 14.6081 26.7331 14.5404 26.8633 14.4102C26.9935 14.2799 27.0586 14.1003 27.0586 13.8711V10.1602C27.0586 9.92057 26.9935 9.73568 26.8633 9.60547C26.7383 9.47005 26.582 9.40234 26.3945 9.40234C26.207 9.39714 26.0195 9.47005 25.832 9.62109L23.7148 11.3867C23.5117 11.5638 23.4076 11.7773 23.4023 12.0273C23.3971 12.2773 23.5013 12.4909 23.7148 12.668L25.832 14.3945Z"
		fill="currentColor"
	/>
</svg>
