<svg
	color="rgb(var(--foreground, 0, 0, 0))"
	viewBox="0 0 17 24"
	fill="none"
	xmlns="http://www.w3.org/2000/svg"
>
	<path
		d="M0.23829 16.2969C0.0820397 16.9219 0.152352 17.4167 0.449227 17.7813C0.746102 18.1458 1.2435 18.3281 1.94141 18.3281H14.3242C15.0274 18.3281 15.5247 18.1458 15.8164 17.7813C16.1133 17.4167 16.1862 16.9219 16.0352 16.2969L13.8633 7.47656C13.7175 6.88802 13.4701 6.4401 13.1211 6.13281C12.7774 5.82552 12.2878 5.67188 11.6524 5.67188H4.6211C3.98569 5.67188 3.4935 5.82552 3.14454 6.13281C2.79558 6.4401 2.54819 6.88802 2.40235 7.47656L0.23829 16.2969ZM1.42579 16.2969L3.52735 7.64062C3.65235 7.11458 3.99871 6.85156 4.56641 6.85156H11.707C12.2695 6.85156 12.6159 7.11458 12.7461 7.64062L14.8399 16.2969C14.9024 16.5573 14.8763 16.7656 14.7617 16.9219C14.6471 17.0729 14.4622 17.1484 14.207 17.1484H2.0586C1.8086 17.1484 1.62371 17.0729 1.50391 16.9219C1.38933 16.7656 1.36329 16.5573 1.42579 16.2969ZM8.14454 21.3437C8.32683 21.3437 8.47006 21.2865 8.57423 21.1719C8.67839 21.0625 8.73048 20.9115 8.73048 20.7187V3.28125C8.73048 3.08854 8.67839 2.9375 8.57423 2.82812C8.47006 2.71354 8.32683 2.65625 8.14454 2.65625C7.95704 2.65625 7.81121 2.71354 7.70704 2.82812C7.60287 2.9375 7.55079 3.08854 7.55079 3.28125V20.7187C7.55079 20.9115 7.60287 21.0625 7.70704 21.1719C7.81121 21.2865 7.95704 21.3437 8.14454 21.3437Z"
		fill="currentColor"
	/>
</svg>
