<svg
	color="rgb(var(--foreground, 0, 0, 0))"
	viewBox="0 0 20 24"
	fill="none"
	xmlns="http://www.w3.org/2000/svg"
>
	<path
		d="M5.75146 17.3408L14.2749 18.833C14.7749 18.9215 15.202 18.8825 15.5562 18.7158C15.9103 18.5492 16.1812 18.2757 16.3687 17.8955C16.5614 17.5153 16.6577 17.0466 16.6577 16.4893V7.52051C16.6577 6.93197 16.5666 6.4476 16.3843 6.06739C16.202 5.68718 15.9338 5.42155 15.5796 5.27051C15.2306 5.11426 14.7957 5.08041 14.2749 5.16895L5.75146 6.66895C4.97542 6.80437 4.38428 7.06478 3.97803 7.4502C3.57178 7.83562 3.36865 8.35645 3.36865 9.0127V14.9893C3.36865 15.6403 3.57178 16.1611 3.97803 16.5518C4.38428 16.9372 4.97542 17.2002 5.75146 17.3408ZM5.68896 16.1611C5.31917 16.0986 5.03532 15.9736 4.8374 15.7861C4.64469 15.5934 4.54834 15.333 4.54834 15.0049V8.99707C4.54834 8.66895 4.64469 8.41114 4.8374 8.22364C5.03532 8.03093 5.31917 7.90332 5.68896 7.84082L14.3374 6.34864C14.7072 6.28614 14.9884 6.35645 15.1812 6.55957C15.3791 6.75749 15.478 7.0726 15.478 7.50489V16.5049C15.478 16.9163 15.3765 17.2262 15.1733 17.4346C14.9754 17.6429 14.6968 17.7184 14.3374 17.6611L5.68896 16.1611ZM1.18896 12.5908H18.8374C19.0353 12.5908 19.189 12.5387 19.2983 12.4346C19.4077 12.3252 19.4624 12.182 19.4624 12.0049C19.4624 11.8174 19.4077 11.6716 19.2983 11.5674C19.189 11.4632 19.0353 11.4111 18.8374 11.4111H1.18896C0.996257 11.4111 0.842611 11.4632 0.728027 11.5674C0.618652 11.6716 0.563965 11.8174 0.563965 12.0049C0.563965 12.182 0.618652 12.3252 0.728027 12.4346C0.842611 12.5387 0.996257 12.5908 1.18896 12.5908Z"
		fill="currentColor"
	/>
</svg>
