<svg
	color="rgb(var(--foreground, 0, 0, 0))"
	viewBox="0 0 15 24"
	fill="none"
	xmlns="http://www.w3.org/2000/svg"
>
	<path
		d="M0.0715332 14.1953C0.0715332 14.5391 0.154867 14.8542 0.321533 15.1406C0.493408 15.4219 0.719971 15.6484 1.00122 15.8203C1.28768 15.987 1.60278 16.0703 1.94653 16.0703C2.29028 16.0703 2.60278 15.987 2.88403 15.8203C3.17049 15.6484 3.39966 15.4219 3.57153 15.1406C3.74341 14.8542 3.82935 14.5391 3.82935 14.1953C3.82935 13.8516 3.74341 13.5391 3.57153 13.2578C3.39966 12.9714 3.17049 12.7448 2.88403 12.5781C2.60278 12.4062 2.29028 12.3203 1.94653 12.3203C1.60278 12.3203 1.28768 12.4062 1.00122 12.5781C0.719971 12.7448 0.493408 12.9714 0.321533 13.2578C0.154867 13.5391 0.0715332 13.8516 0.0715332 14.1953ZM1.03247 14.1953C1.03247 13.9401 1.12101 13.724 1.2981 13.5469C1.48039 13.3698 1.69914 13.2812 1.95435 13.2812C2.20955 13.2812 2.4257 13.3698 2.60278 13.5469C2.77987 13.724 2.86841 13.9401 2.86841 14.1953C2.86841 14.4557 2.77987 14.6745 2.60278 14.8516C2.4257 15.0234 2.20955 15.1094 1.95435 15.1094C1.69914 15.1094 1.48039 15.0234 1.2981 14.8516C1.12101 14.6745 1.03247 14.4557 1.03247 14.1953ZM1.95435 5.125C1.77726 5.125 1.62622 5.1875 1.50122 5.3125C1.38143 5.43229 1.32153 5.58073 1.32153 5.75781V12.9531H2.57935V5.75781C2.57935 5.58073 2.51685 5.43229 2.39185 5.3125C2.27205 5.1875 2.12622 5.125 1.95435 5.125ZM1.95435 18.875C2.12622 18.875 2.27205 18.8151 2.39185 18.6953C2.51685 18.5755 2.57935 18.4349 2.57935 18.2734V15.5547H1.32153V18.2734C1.32153 18.4349 1.38143 18.5755 1.50122 18.6953C1.62622 18.8151 1.77726 18.875 1.95435 18.875ZM5.33716 9.67969C5.33716 10.0234 5.4231 10.3385 5.59497 10.625C5.76685 10.9062 5.99341 11.1328 6.27466 11.3047C6.56112 11.4714 6.87622 11.5547 7.21997 11.5547C7.56372 11.5547 7.87622 11.4714 8.15747 11.3047C8.44393 11.1328 8.67049 10.9062 8.83716 10.625C9.00903 10.3385 9.09497 10.0234 9.09497 9.67969C9.09497 9.33594 9.00903 9.02344 8.83716 8.74219C8.67049 8.45573 8.44393 8.22917 8.15747 8.0625C7.87622 7.89062 7.56372 7.80469 7.21997 7.80469C6.87622 7.80469 6.56112 7.89062 6.27466 8.0625C5.99341 8.22917 5.76685 8.45573 5.59497 8.74219C5.4231 9.02344 5.33716 9.33594 5.33716 9.67969ZM6.30591 9.67969C6.30591 9.42448 6.39445 9.20833 6.57153 9.03125C6.74862 8.85417 6.96476 8.76562 7.21997 8.76562C7.48039 8.76562 7.69653 8.85417 7.86841 9.03125C8.04549 9.20833 8.13403 9.42448 8.13403 9.67969C8.13403 9.9401 8.04549 10.1589 7.86841 10.3359C7.69653 10.5078 7.48039 10.5937 7.21997 10.5937C6.96476 10.5937 6.74862 10.5078 6.57153 10.3359C6.39445 10.1589 6.30591 9.9401 6.30591 9.67969ZM7.21997 5.125C7.04289 5.125 6.89445 5.1849 6.77466 5.30469C6.65487 5.42448 6.59497 5.5651 6.59497 5.72656V8.33594H7.85278V5.72656C7.85278 5.5651 7.79028 5.42448 7.66528 5.30469C7.54549 5.1849 7.39705 5.125 7.21997 5.125ZM7.21997 18.875C7.39705 18.875 7.54549 18.8125 7.66528 18.6875C7.79028 18.5677 7.85278 18.4193 7.85278 18.2422V10.9219H6.59497V18.2422C6.59497 18.4193 6.65487 18.5677 6.77466 18.6875C6.89445 18.8125 7.04289 18.875 7.21997 18.875ZM10.6184 14.1953C10.6184 14.5391 10.7017 14.8542 10.8684 15.1406C11.0403 15.4219 11.2668 15.6484 11.5481 15.8203C11.8346 15.987 12.1497 16.0703 12.4934 16.0703C12.8372 16.0703 13.1497 15.987 13.4309 15.8203C13.7174 15.6484 13.9439 15.4219 14.1106 15.1406C14.2825 14.8542 14.3684 14.5391 14.3684 14.1953C14.3684 13.8516 14.2825 13.5391 14.1106 13.2578C13.9439 12.9714 13.7174 12.7448 13.4309 12.5781C13.1497 12.4062 12.8372 12.3203 12.4934 12.3203C12.1497 12.3203 11.8346 12.4062 11.5481 12.5781C11.2668 12.7448 11.0403 12.9714 10.8684 13.2578C10.7017 13.5391 10.6184 13.8516 10.6184 14.1953ZM11.5793 14.1953C11.5793 13.9401 11.6679 13.724 11.845 13.5469C12.0221 13.3698 12.2382 13.2812 12.4934 13.2812C12.7538 13.2812 12.97 13.3698 13.1418 13.5469C13.3189 13.724 13.4075 13.9401 13.4075 14.1953C13.4075 14.4557 13.3189 14.6745 13.1418 14.8516C12.97 15.0234 12.7538 15.1094 12.4934 15.1094C12.2382 15.1094 12.0221 15.0234 11.845 14.8516C11.6679 14.6745 11.5793 14.4557 11.5793 14.1953ZM12.4934 5.125C12.3163 5.125 12.1653 5.1875 12.0403 5.3125C11.9205 5.43229 11.8606 5.58073 11.8606 5.75781V12.9922H13.1184V5.75781C13.1184 5.58073 13.0559 5.43229 12.9309 5.3125C12.8111 5.1875 12.6653 5.125 12.4934 5.125ZM12.4934 18.875C12.6653 18.875 12.8111 18.8151 12.9309 18.6953C13.0559 18.5755 13.1184 18.4349 13.1184 18.2734V15.4453H11.8606V18.2734C11.8606 18.4349 11.9205 18.5755 12.0403 18.6953C12.1653 18.8151 12.3163 18.875 12.4934 18.875Z"
		fill="currentColor"
	/>
</svg>
