<svg
	color="rgb(var(--foreground, 0, 0, 0))"
	viewBox="0 0 18 24"
	fill="none"
	xmlns="http://www.w3.org/2000/svg"
>
	<path
		d="M9.36951 17.2383C9.36951 17.0508 9.3018 16.8893 9.16638 16.7539C9.03096 16.6185 8.86951 16.5508 8.68201 16.5508C8.49971 16.5508 8.34086 16.6185 8.20544 16.7539C8.07003 16.8893 8.00232 17.0508 8.00232 17.2383V19.6445C8.00232 19.832 8.07003 19.9909 8.20544 20.1211C8.34086 20.2565 8.49971 20.3242 8.68201 20.3242C8.86951 20.3242 9.03096 20.2565 9.16638 20.1211C9.3018 19.9909 9.36951 19.832 9.36951 19.6445V17.2383ZM2.81482 16.8945C2.68461 17.0247 2.61951 17.1862 2.61951 17.3789C2.61951 17.5664 2.68201 17.7253 2.80701 17.8555C2.93722 17.9857 3.09867 18.0508 3.29138 18.0508C3.48409 18.056 3.64555 17.9935 3.77576 17.8633L5.47888 16.1602C5.60909 16.0352 5.67419 15.8789 5.67419 15.6914C5.67419 15.4987 5.60909 15.3372 5.47888 15.207C5.35388 15.0768 5.19503 15.0117 5.00232 15.0117C4.80961 15.0117 4.64815 15.0768 4.51794 15.207L2.81482 16.8945ZM1.04138 11.3164C0.85909 11.3164 0.700236 11.3841 0.564819 11.5195C0.429403 11.6549 0.361694 11.8138 0.361694 11.9961C0.361694 12.1836 0.429403 12.3451 0.564819 12.4805C0.700236 12.6107 0.85909 12.6758 1.04138 12.6758H3.46326C3.64555 12.6758 3.8044 12.6107 3.93982 12.4805C4.07524 12.3451 4.14294 12.1836 4.14294 11.9961C4.14294 11.8138 4.07524 11.6549 3.93982 11.5195C3.8044 11.3841 3.64555 11.3164 3.46326 11.3164H1.04138ZM4.51794 8.80078C4.64815 8.93099 4.80701 8.9961 4.99451 8.9961C5.18722 8.9961 5.34867 8.93099 5.47888 8.80078C5.60909 8.67057 5.67419 8.51172 5.67419 8.32422C5.67419 8.13151 5.60909 7.97005 5.47888 7.83984L3.78357 6.13672C3.65336 6.00651 3.49451 5.94141 3.30701 5.94141C3.11951 5.9362 2.95805 5.9987 2.82263 6.12891C2.69242 6.25911 2.62732 6.42057 2.62732 6.61328C2.62732 6.80078 2.69242 6.95964 2.82263 7.08984L4.51794 8.80078ZM9.36951 4.35547C9.36951 4.16797 9.3018 4.00911 9.16638 3.87891C9.03096 3.74349 8.86951 3.67578 8.68201 3.67578C8.49971 3.67578 8.34086 3.74349 8.20544 3.87891C8.07003 4.00911 8.00232 4.16797 8.00232 4.35547V6.76172C8.00232 6.94922 8.07003 7.11068 8.20544 7.24609C8.34086 7.38151 8.49971 7.44922 8.68201 7.44922C8.86951 7.44922 9.03096 7.38151 9.16638 7.24609C9.3018 7.11068 9.36951 6.94922 9.36951 6.76172V4.35547ZM11.8851 7.83984C11.7549 7.97005 11.6898 8.13151 11.6898 8.32422C11.6898 8.51172 11.7549 8.67057 11.8851 8.80078C12.0153 8.93099 12.1742 8.9961 12.3617 8.9961C12.5544 8.9961 12.7185 8.93099 12.8539 8.80078L14.5492 7.09766C14.6794 6.96745 14.7445 6.80599 14.7445 6.61328C14.7445 6.42057 14.6794 6.25911 14.5492 6.12891C14.419 5.9987 14.2601 5.93359 14.0726 5.93359C13.8851 5.93359 13.7263 5.9987 13.5961 6.12891L11.8851 7.83984ZM16.3226 12.6758C16.5101 12.6758 16.6716 12.6107 16.807 12.4805C16.9424 12.3451 17.0101 12.1836 17.0101 11.9961C17.0101 11.8138 16.9424 11.6549 16.807 11.5195C16.6716 11.3841 16.5101 11.3164 16.3226 11.3164H13.9164C13.7341 11.3164 13.5752 11.3841 13.4398 11.5195C13.3044 11.6549 13.2367 11.8138 13.2367 11.9961C13.2367 12.1836 13.3044 12.3451 13.4398 12.4805C13.5752 12.6107 13.7341 12.6758 13.9164 12.6758H16.3226ZM14.9945 19.5898C15.1612 19.7565 15.3643 19.8398 15.6039 19.8398C15.8487 19.8398 16.0492 19.7565 16.2054 19.5898C16.3669 19.418 16.445 19.2148 16.4398 18.9805C16.4398 18.7513 16.3617 18.5534 16.2054 18.3867L8.77576 10.9336C8.6143 10.7669 8.41117 10.6836 8.16638 10.6836C7.9268 10.6836 7.72888 10.7669 7.57263 10.9336C7.41117 11.1055 7.33044 11.3086 7.33044 11.543C7.33044 11.7773 7.41117 11.9779 7.57263 12.1445L14.9945 19.5898ZM15.2758 19.0508L10.4554 14.2227L10.8461 13.8477L15.6664 18.6758C15.7341 18.7435 15.7732 18.8138 15.7836 18.8867C15.7992 18.9596 15.7732 19.0326 15.7054 19.1055C15.6429 19.168 15.5726 19.1914 15.4945 19.1758C15.4216 19.1654 15.3487 19.1237 15.2758 19.0508Z"
		fill="currentColor"
	/>
</svg>
