<svg
	color="rgb(var(--foreground, 0, 0, 0))"
	viewBox="0 0 18 24"
	fill="none"
	xmlns="http://www.w3.org/2000/svg"
>
	<path
		d="M9.72107 17.2383C9.72107 17.0508 9.65336 16.8893 9.51794 16.7539C9.38253 16.6185 9.22107 16.5508 9.03357 16.5508C8.85128 16.5508 8.69242 16.6185 8.55701 16.7539C8.42159 16.8893 8.35388 17.0508 8.35388 17.2383V19.6445C8.35388 19.832 8.42159 19.9909 8.55701 20.1211C8.69242 20.2565 8.85128 20.3242 9.03357 20.3242C9.22107 20.3242 9.38253 20.2565 9.51794 20.1211C9.65336 19.9909 9.72107 19.832 9.72107 19.6445V17.2383ZM3.16638 16.8945C3.03617 17.0247 2.97107 17.1862 2.97107 17.3789C2.97107 17.5664 3.03357 17.7253 3.15857 17.8555C3.28878 17.9857 3.45024 18.0508 3.64294 18.0508C3.83565 18.056 3.99711 17.9935 4.12732 17.8633L5.83044 16.1602C5.96065 16.0352 6.02576 15.8789 6.02576 15.6914C6.02576 15.4987 5.96065 15.3372 5.83044 15.207C5.70544 15.0768 5.54659 15.0117 5.35388 15.0117C5.16117 15.0117 4.99972 15.0768 4.86951 15.207L3.16638 16.8945ZM1.39294 11.3164C1.21065 11.3164 1.0518 11.3841 0.916382 11.5195C0.780965 11.6549 0.713257 11.8138 0.713257 11.9961C0.713257 12.1836 0.780965 12.345 0.916382 12.4805C1.0518 12.6107 1.21065 12.6758 1.39294 12.6758H3.81482C3.99711 12.6758 4.15597 12.6107 4.29138 12.4805C4.4268 12.345 4.49451 12.1836 4.49451 11.9961C4.49451 11.8138 4.4268 11.6549 4.29138 11.5195C4.15597 11.3841 3.99711 11.3164 3.81482 11.3164H1.39294ZM4.86951 8.80078C4.99972 8.93099 5.15857 8.99609 5.34607 8.99609C5.53878 8.99609 5.70024 8.93099 5.83044 8.80078C5.96065 8.67057 6.02576 8.51172 6.02576 8.32422C6.02576 8.13151 5.96065 7.97005 5.83044 7.83984L4.13513 6.13672C4.00492 6.00651 3.84607 5.94141 3.65857 5.94141C3.47107 5.9362 3.30961 5.9987 3.17419 6.12891C3.04399 6.25911 2.97888 6.42057 2.97888 6.61328C2.97888 6.80078 3.04399 6.95964 3.17419 7.08984L4.86951 8.80078ZM9.72107 4.35547C9.72107 4.16797 9.65336 4.00911 9.51794 3.87891C9.38253 3.74349 9.22107 3.67578 9.03357 3.67578C8.85128 3.67578 8.69242 3.74349 8.55701 3.87891C8.42159 4.00911 8.35388 4.16797 8.35388 4.35547V6.76172C8.35388 6.94922 8.42159 7.11068 8.55701 7.24609C8.69242 7.38151 8.85128 7.44922 9.03357 7.44922C9.22107 7.44922 9.38253 7.38151 9.51794 7.24609C9.65336 7.11068 9.72107 6.94922 9.72107 6.76172V4.35547ZM12.2367 7.83984C12.1065 7.97005 12.0414 8.13151 12.0414 8.32422C12.0414 8.51172 12.1065 8.67057 12.2367 8.80078C12.3669 8.93099 12.5258 8.99609 12.7133 8.99609C12.906 8.99609 13.07 8.93099 13.2054 8.80078L14.9008 7.09766C15.031 6.96745 15.0961 6.80599 15.0961 6.61328C15.0961 6.42057 15.031 6.25911 14.9008 6.12891C14.7705 5.9987 14.6117 5.93359 14.4242 5.93359C14.2367 5.93359 14.0778 5.9987 13.9476 6.12891L12.2367 7.83984ZM16.6742 12.6758C16.8617 12.6758 17.0232 12.6107 17.1586 12.4805C17.294 12.345 17.3617 12.1836 17.3617 11.9961C17.3617 11.8138 17.294 11.6549 17.1586 11.5195C17.0232 11.3841 16.8617 11.3164 16.6742 11.3164H14.2679C14.0857 11.3164 13.9268 11.3841 13.7914 11.5195C13.656 11.6549 13.5883 11.8138 13.5883 11.9961C13.5883 12.1836 13.656 12.345 13.7914 12.4805C13.9268 12.6107 14.0857 12.6758 14.2679 12.6758H16.6742ZM15.3461 19.5898C15.5127 19.7565 15.7159 19.8398 15.9554 19.8398C16.2002 19.8398 16.4008 19.7565 16.557 19.5898C16.7185 19.418 16.7966 19.2148 16.7914 18.9805C16.7914 18.7513 16.7133 18.5534 16.557 18.3867L9.12732 10.9336C8.96586 10.7669 8.76274 10.6836 8.51794 10.6836C8.27836 10.6836 8.08044 10.7669 7.92419 10.9336C7.76274 11.1055 7.68201 11.3086 7.68201 11.543C7.68201 11.7773 7.76274 11.9779 7.92419 12.1445L15.3461 19.5898ZM10.807 14.2227L8.51794 11.9258C8.44503 11.8581 8.40076 11.7878 8.38513 11.7148C8.37472 11.6367 8.40336 11.5638 8.47107 11.4961C8.52836 11.4336 8.59607 11.4102 8.67419 11.4258C8.75232 11.4362 8.82784 11.4779 8.90076 11.5508L11.1976 13.8477L10.807 14.2227Z"
		fill="currentColor"
	/>
</svg>
