<svg
	color="rgb(var(--foreground, 0, 0, 0))"
	viewBox="0 0 18 24"
	fill="none"
	xmlns="http://www.w3.org/2000/svg"
>
	<path
		d="M5.94006 19.7031C6.09631 19.7031 6.18225 19.6198 6.19788 19.4531C6.26558 18.9323 6.33329 18.5234 6.401 18.2266C6.47392 17.9297 6.5859 17.7057 6.73694 17.5547C6.89319 17.4036 7.12235 17.2891 7.42444 17.2109C7.72652 17.1328 8.14319 17.0521 8.67444 16.9688C8.85673 16.9375 8.94788 16.849 8.94788 16.7031C8.94788 16.5573 8.86715 16.4688 8.70569 16.4375C8.17444 16.3385 7.75517 16.25 7.44788 16.1719C7.14058 16.0885 6.90621 15.974 6.74475 15.8281C6.5885 15.6823 6.47392 15.4635 6.401 15.1719C6.33329 14.8802 6.26558 14.474 6.19788 13.9531C6.18225 13.7865 6.09631 13.7031 5.94006 13.7031C5.78381 13.7031 5.69527 13.7839 5.67444 13.9453C5.60673 14.4766 5.53642 14.8932 5.4635 15.1953C5.39058 15.4922 5.276 15.7188 5.11975 15.875C4.96871 16.026 4.73954 16.1406 4.43225 16.2188C4.12496 16.2917 3.70308 16.3646 3.16663 16.4375C3.09892 16.4479 3.04163 16.4766 2.99475 16.5234C2.94788 16.5703 2.92444 16.6302 2.92444 16.7031C2.92444 16.849 3.00517 16.9375 3.16663 16.9688C3.70308 17.0677 4.12496 17.1589 4.43225 17.2422C4.73954 17.3255 4.96871 17.4427 5.11975 17.5938C5.276 17.7396 5.38798 17.9583 5.45569 18.25C5.5286 18.5417 5.60152 18.9479 5.67444 19.4688C5.67965 19.5365 5.70569 19.5911 5.75256 19.6328C5.80465 19.6797 5.86715 19.7031 5.94006 19.7031ZM2.22913 12.8984C2.33329 12.8984 2.39579 12.8385 2.41663 12.7188C2.48433 12.349 2.54683 12.0573 2.60413 11.8438C2.66142 11.625 2.74475 11.4583 2.85413 11.3438C2.9635 11.224 3.12756 11.1328 3.34631 11.0703C3.56506 11.0078 3.87236 10.9427 4.26819 10.875C4.38798 10.8542 4.44788 10.7891 4.44788 10.6797C4.44788 10.5703 4.38798 10.5052 4.26819 10.4844C3.87236 10.4167 3.56506 10.3516 3.34631 10.2891C3.12756 10.2214 2.9635 10.1302 2.85413 10.0156C2.74475 9.90104 2.66142 9.73698 2.60413 9.52344C2.54683 9.30469 2.48433 9.00781 2.41663 8.63281C2.39579 8.51823 2.33329 8.46094 2.22913 8.46094C2.11975 8.46094 2.05465 8.51823 2.03381 8.63281C1.96611 9.00781 1.90361 9.30469 1.84631 9.52344C1.78902 9.73698 1.70569 9.90104 1.59631 10.0156C1.48694 10.1302 1.32288 10.2214 1.10413 10.2891C0.885376 10.3516 0.580688 10.4167 0.190063 10.4844C0.0702718 10.5052 0.010376 10.5703 0.010376 10.6797C0.010376 10.7891 0.0702718 10.8542 0.190063 10.875C0.580688 10.9427 0.885376 11.0078 1.10413 11.0703C1.32288 11.1328 1.48694 11.224 1.59631 11.3438C1.70569 11.4583 1.78902 11.625 1.84631 11.8438C1.90361 12.0573 1.96611 12.349 2.03381 12.7188C2.04423 12.7708 2.06506 12.8151 2.09631 12.8516C2.12756 12.8828 2.17183 12.8984 2.22913 12.8984ZM6.51038 7.89844C6.59371 7.89844 6.64579 7.85156 6.66663 7.75781C6.73433 7.44531 6.79163 7.20052 6.8385 7.02344C6.89058 6.84115 6.9609 6.70312 7.04944 6.60937C7.14319 6.51042 7.28121 6.4349 7.4635 6.38281C7.64579 6.32552 7.8984 6.26302 8.22131 6.19531C8.32027 6.17969 8.36975 6.1276 8.36975 6.03906C8.36975 5.95052 8.32027 5.89583 8.22131 5.875C7.8984 5.80729 7.64579 5.7474 7.4635 5.69531C7.28121 5.63802 7.14319 5.5625 7.04944 5.46875C6.9609 5.36979 6.89058 5.23177 6.8385 5.05469C6.79163 4.8776 6.73433 4.63281 6.66663 4.32031C6.64579 4.22135 6.59371 4.17188 6.51038 4.17188C6.42183 4.17188 6.36715 4.22135 6.34631 4.32031C6.28381 4.63281 6.22652 4.8776 6.17444 5.05469C6.12235 5.23177 6.04944 5.36979 5.95569 5.46875C5.86715 5.5625 5.73173 5.63802 5.54944 5.69531C5.37235 5.7474 5.11975 5.80729 4.79163 5.875C4.69267 5.89583 4.64319 5.95052 4.64319 6.03906C4.64319 6.1276 4.69267 6.17969 4.79163 6.19531C5.11975 6.26302 5.37235 6.32552 5.54944 6.38281C5.73173 6.4349 5.86715 6.51042 5.95569 6.60937C6.04944 6.70312 6.12235 6.84115 6.17444 7.02344C6.22652 7.20052 6.28381 7.44531 6.34631 7.75781C6.36715 7.85156 6.42183 7.89844 6.51038 7.89844ZM12.9635 10.6563C13.0677 10.6563 13.1302 10.599 13.151 10.4844C13.2187 10.1094 13.2812 9.81511 13.3385 9.60156C13.3958 9.38281 13.4791 9.21615 13.5885 9.10156C13.6979 8.98698 13.8619 8.89844 14.0807 8.83594C14.3046 8.76823 14.6119 8.70052 15.0026 8.63281C15.1224 8.61198 15.1823 8.54688 15.1823 8.4375C15.1823 8.32812 15.1224 8.26302 15.0026 8.24219C14.6119 8.17448 14.3046 8.10937 14.0807 8.04687C13.8619 7.98437 13.6979 7.89583 13.5885 7.78125C13.4791 7.66146 13.3958 7.49479 13.3385 7.28125C13.2812 7.0625 13.2187 6.76823 13.151 6.39844C13.1302 6.27865 13.0677 6.21875 12.9635 6.21875C12.8541 6.21875 12.789 6.27865 12.7682 6.39844C12.7005 6.76823 12.638 7.0625 12.5807 7.28125C12.5234 7.49479 12.4401 7.66146 12.3307 7.78125C12.2213 7.89583 12.0573 7.98437 11.8385 8.04687C11.6198 8.10937 11.3151 8.17448 10.9244 8.24219C10.8724 8.2526 10.8281 8.27604 10.7916 8.3125C10.7604 8.34375 10.7448 8.38542 10.7448 8.4375C10.7448 8.54688 10.8046 8.61198 10.9244 8.63281C11.3151 8.70052 11.6198 8.76823 11.8385 8.83594C12.0573 8.89844 12.2213 8.98698 12.3307 9.10156C12.4401 9.21615 12.5234 9.38281 12.5807 9.60156C12.638 9.81511 12.7005 10.1094 12.7682 10.4844C12.789 10.599 12.8541 10.6563 12.9635 10.6563ZM15.5651 19.5781C15.7317 19.7448 15.9349 19.8281 16.1744 19.8281C16.4192 19.8281 16.6198 19.7448 16.776 19.5781C16.9375 19.4063 17.0156 19.2031 17.0104 18.9688C17.0104 18.7396 16.9323 18.5417 16.776 18.375L9.34631 10.9219C9.18486 10.7552 8.98173 10.6719 8.73694 10.6719C8.49736 10.6719 8.29944 10.7552 8.14319 10.9219C7.98173 11.0938 7.901 11.2969 7.901 11.5313C7.901 11.7656 7.98173 11.9661 8.14319 12.1328L15.5651 19.5781ZM15.8463 19.0391L11.026 14.2109L11.4166 13.8359L16.2369 18.6641C16.3046 18.7318 16.3437 18.8021 16.3541 18.875C16.3698 18.9479 16.3437 19.0208 16.276 19.0938C16.2135 19.1563 16.1432 19.1797 16.0651 19.1641C15.9921 19.1536 15.9192 19.112 15.8463 19.0391Z"
		fill="currentColor"
	/>
</svg>
