<svg
	color="rgb(var(--foreground, 0, 0, 0))"
	viewBox="0 0 18 24"
	fill="none"
	xmlns="http://www.w3.org/2000/svg"
>
	<path
		d="M5.93982 19.7031C6.09607 19.7031 6.18201 19.6198 6.19763 19.4531C6.26534 18.9323 6.33305 18.5234 6.40076 18.2266C6.47367 17.9297 6.58565 17.7057 6.73669 17.5547C6.89294 17.4036 7.12211 17.2891 7.42419 17.2109C7.72628 17.1328 8.14295 17.0521 8.6742 16.9688C8.85649 16.9375 8.94763 16.849 8.94763 16.7031C8.94763 16.5573 8.8669 16.4688 8.70545 16.4375C8.1742 16.3385 7.75492 16.25 7.44763 16.1719C7.14034 16.0885 6.90597 15.974 6.74451 15.8281C6.58826 15.6823 6.47367 15.4635 6.40076 15.1719C6.33305 14.8802 6.26534 14.474 6.19763 13.9531C6.18201 13.7865 6.09607 13.7031 5.93982 13.7031C5.78357 13.7031 5.69503 13.7839 5.67419 13.9453C5.60649 14.4766 5.53617 14.8932 5.46326 15.1953C5.39034 15.4922 5.27576 15.7188 5.11951 15.875C4.96847 16.026 4.7393 16.1406 4.43201 16.2188C4.12472 16.2917 3.70284 16.3646 3.16638 16.4375C3.09867 16.4479 3.04138 16.4766 2.99451 16.5234C2.94763 16.5703 2.92419 16.6302 2.92419 16.7031C2.92419 16.849 3.00492 16.9375 3.16638 16.9688C3.70284 17.0677 4.12472 17.1589 4.43201 17.2422C4.7393 17.3255 4.96847 17.4427 5.11951 17.5938C5.27576 17.7396 5.38774 17.9583 5.45544 18.25C5.52836 18.5417 5.60128 18.9479 5.67419 19.4688C5.6794 19.5365 5.70544 19.5911 5.75232 19.6328C5.8044 19.6797 5.8669 19.7031 5.93982 19.7031ZM2.22888 12.8984C2.33305 12.8984 2.39555 12.8385 2.41638 12.7188C2.48409 12.349 2.54659 12.0573 2.60388 11.8438C2.66117 11.625 2.74451 11.4583 2.85388 11.3438C2.96326 11.224 3.12732 11.1328 3.34607 11.0703C3.56482 11.0078 3.87211 10.9427 4.26794 10.875C4.38774 10.8542 4.44763 10.7891 4.44763 10.6797C4.44763 10.5703 4.38774 10.5052 4.26794 10.4844C3.87211 10.4167 3.56482 10.3516 3.34607 10.2891C3.12732 10.2214 2.96326 10.1302 2.85388 10.0156C2.74451 9.90104 2.66117 9.73698 2.60388 9.52344C2.54659 9.30469 2.48409 9.00781 2.41638 8.63281C2.39555 8.51823 2.33305 8.46094 2.22888 8.46094C2.11951 8.46094 2.0544 8.51823 2.03357 8.63281C1.96586 9.00781 1.90336 9.30469 1.84607 9.52344C1.78878 9.73698 1.70544 9.90104 1.59607 10.0156C1.48669 10.1302 1.32263 10.2214 1.10388 10.2891C0.885132 10.3516 0.580444 10.4167 0.189819 10.4844C0.0700277 10.5052 0.0101318 10.5703 0.0101318 10.6797C0.0101318 10.7891 0.0700277 10.8542 0.189819 10.875C0.580444 10.9427 0.885132 11.0078 1.10388 11.0703C1.32263 11.1328 1.48669 11.224 1.59607 11.3438C1.70544 11.4583 1.78878 11.625 1.84607 11.8438C1.90336 12.0573 1.96586 12.349 2.03357 12.7188C2.04399 12.7708 2.06482 12.8151 2.09607 12.8516C2.12732 12.8828 2.17159 12.8984 2.22888 12.8984ZM6.51013 7.89844C6.59347 7.89844 6.64555 7.85156 6.66638 7.75781C6.73409 7.44531 6.79138 7.20052 6.83826 7.02344C6.89034 6.84115 6.96065 6.70312 7.04919 6.60937C7.14294 6.51042 7.28097 6.4349 7.46326 6.38281C7.64555 6.32552 7.89815 6.26302 8.22107 6.19531C8.32003 6.17969 8.36951 6.1276 8.36951 6.03906C8.36951 5.95052 8.32003 5.89583 8.22107 5.875C7.89815 5.80729 7.64555 5.7474 7.46326 5.69531C7.28097 5.63802 7.14294 5.5625 7.04919 5.46875C6.96065 5.36979 6.89034 5.23177 6.83826 5.05469C6.79138 4.8776 6.73409 4.63281 6.66638 4.32031C6.64555 4.22135 6.59347 4.17188 6.51013 4.17188C6.42159 4.17188 6.3669 4.22135 6.34607 4.32031C6.28357 4.63281 6.22628 4.8776 6.17419 5.05469C6.12211 5.23177 6.04919 5.36979 5.95544 5.46875C5.8669 5.5625 5.73149 5.63802 5.54919 5.69531C5.37211 5.7474 5.11951 5.80729 4.79138 5.875C4.69242 5.89583 4.64294 5.95052 4.64294 6.03906C4.64294 6.1276 4.69242 6.17969 4.79138 6.19531C5.11951 6.26302 5.37211 6.32552 5.54919 6.38281C5.73149 6.4349 5.8669 6.51042 5.95544 6.60937C6.04919 6.70312 6.12211 6.84115 6.17419 7.02344C6.22628 7.20052 6.28357 7.44531 6.34607 7.75781C6.3669 7.85156 6.42159 7.89844 6.51013 7.89844ZM12.9633 10.6563C13.0674 10.6563 13.1299 10.599 13.1508 10.4844C13.2185 10.1094 13.281 9.81511 13.3383 9.60156C13.3956 9.38281 13.4789 9.21615 13.5883 9.10156C13.6976 8.98698 13.8617 8.89844 14.0804 8.83594C14.3044 8.76823 14.6117 8.70052 15.0023 8.63281C15.1221 8.61198 15.182 8.54688 15.182 8.4375C15.182 8.32812 15.1221 8.26302 15.0023 8.24219C14.6117 8.17448 14.3044 8.10937 14.0804 8.04687C13.8617 7.98437 13.6976 7.89583 13.5883 7.78125C13.4789 7.66146 13.3956 7.49479 13.3383 7.28125C13.281 7.0625 13.2185 6.76823 13.1508 6.39844C13.1299 6.27865 13.0674 6.21875 12.9633 6.21875C12.8539 6.21875 12.7888 6.27865 12.7679 6.39844C12.7002 6.76823 12.6377 7.0625 12.5804 7.28125C12.5232 7.49479 12.4398 7.66146 12.3304 7.78125C12.2211 7.89583 12.057 7.98437 11.8383 8.04687C11.6195 8.10937 11.3148 8.17448 10.9242 8.24219C10.8721 8.2526 10.8278 8.27604 10.7914 8.3125C10.7601 8.34375 10.7445 8.38542 10.7445 8.4375C10.7445 8.54688 10.8044 8.61198 10.9242 8.63281C11.3148 8.70052 11.6195 8.76823 11.8383 8.83594C12.057 8.89844 12.2211 8.98698 12.3304 9.10156C12.4398 9.21615 12.5232 9.38281 12.5804 9.60156C12.6377 9.81511 12.7002 10.1094 12.7679 10.4844C12.7888 10.599 12.8539 10.6563 12.9633 10.6563ZM15.5648 19.5781C15.7315 19.7448 15.9346 19.8281 16.1742 19.8281C16.419 19.8281 16.6195 19.7448 16.7758 19.5781C16.9372 19.4063 17.0153 19.2031 17.0101 18.9688C17.0101 18.7396 16.932 18.5417 16.7758 18.375L9.34607 10.9219C9.18461 10.7552 8.98149 10.6719 8.7367 10.6719C8.49711 10.6719 8.2992 10.7552 8.14295 10.9219C7.98149 11.0938 7.90076 11.2969 7.90076 11.5313C7.90076 11.7656 7.98149 11.9661 8.14295 12.1328L15.5648 19.5781ZM11.0258 14.2109L8.7367 11.9141C8.66378 11.8464 8.61951 11.776 8.60388 11.7031C8.59347 11.625 8.62211 11.5521 8.68982 11.4844C8.74711 11.4219 8.81482 11.3984 8.89295 11.4141C8.97107 11.4245 9.04659 11.4661 9.11951 11.5391L11.4164 13.8359L11.0258 14.2109Z"
		fill="currentColor"
	/>
</svg>
