<svg
	color="rgb(var(--foreground, 0, 0, 0))"
	viewBox="0 0 21 24"
	fill="none"
	xmlns="http://www.w3.org/2000/svg"
>
	<path
		d="M15.9688 18.7891C16.5573 18.7891 17.1068 18.6875 17.6172 18.4844C18.1276 18.2865 18.5729 18.0104 18.9531 17.6562C19.3385 17.3021 19.638 16.8906 19.8516 16.4219C20.0651 15.9531 20.1719 15.4505 20.1719 14.9141C20.1719 14.3672 20.0729 13.8542 19.875 13.375C19.6771 12.8906 19.3932 12.4635 19.0234 12.0938C18.6536 11.7188 18.2135 11.4245 17.7031 11.2109C17.7031 10.3411 17.5599 9.54167 17.2734 8.8125C16.987 8.07812 16.5833 7.44271 16.0625 6.90625C15.5469 6.36458 14.9427 5.94792 14.25 5.65625C13.5625 5.35938 12.8177 5.21094 12.0156 5.21094C11.3073 5.21094 10.6667 5.32552 10.0938 5.55469C9.52604 5.77865 9.02083 6.08073 8.57812 6.46094C8.14062 6.83594 7.76562 7.2526 7.45312 7.71094C6.97396 7.57031 6.49479 7.54948 6.01562 7.64844C5.54167 7.74219 5.10938 7.9349 4.71875 8.22656C4.32812 8.51302 4.01302 8.8776 3.77344 9.32031C3.53385 9.75781 3.40885 10.25 3.39844 10.7969C2.8099 10.8906 2.29948 11.1146 1.86719 11.4688C1.4401 11.8229 1.10938 12.2682 0.875 12.8047C0.645833 13.3411 0.53125 13.9271 0.53125 14.5625C0.53125 15.1354 0.648438 15.6771 0.882812 16.1875C1.11719 16.6979 1.44531 17.1484 1.86719 17.5391C2.29427 17.9245 2.79167 18.2292 3.35938 18.4531C3.92708 18.6771 4.54427 18.7891 5.21094 18.7891H15.9688ZM15.9688 17.5312H5.21094C4.55469 17.5312 3.96875 17.3958 3.45312 17.125C2.9375 16.849 2.53125 16.487 2.23438 16.0391C1.9375 15.5859 1.78906 15.0938 1.78906 14.5625C1.78906 14.0417 1.89062 13.5703 2.09375 13.1484C2.29688 12.7214 2.59115 12.3828 2.97656 12.1328C3.36719 11.8828 3.83854 11.7578 4.39062 11.7578C4.48958 11.7578 4.53906 11.7057 4.53906 11.6016C4.53906 10.9974 4.63542 10.5 4.82812 10.1094C5.02604 9.71354 5.28646 9.41406 5.60938 9.21094C5.93229 9.0026 6.28906 8.88542 6.67969 8.85938C7.07552 8.82812 7.47396 8.8776 7.875 9.00781C7.96354 9.03385 8.02865 9.00781 8.07031 8.92969C8.32552 8.48177 8.63021 8.07031 8.98438 7.69531C9.33854 7.32031 9.76302 7.02344 10.2578 6.80469C10.7578 6.58073 11.3438 6.46875 12.0156 6.46875C12.8698 6.46875 13.625 6.67188 14.2812 7.07812C14.9375 7.47917 15.4583 8.01042 15.8438 8.67188C16.2292 9.33333 16.4427 10.0495 16.4844 10.8203C16.4948 11.0026 16.4948 11.1953 16.4844 11.3984C16.4792 11.5964 16.4688 11.7865 16.4531 11.9688C16.4427 12.0677 16.4844 12.1276 16.5781 12.1484C17.2865 12.3047 17.8516 12.6276 18.2734 13.1172C18.7005 13.6068 18.9141 14.2057 18.9141 14.9141C18.9141 15.3984 18.7839 15.8385 18.5234 16.2344C18.263 16.6302 17.9089 16.9453 17.4609 17.1797C17.0182 17.4141 16.5208 17.5312 15.9688 17.5312ZM13.6641 12.9609C13.6641 12.3828 13.5234 11.862 13.2422 11.3984C12.9609 10.9297 12.5911 10.5599 12.1328 10.2891C11.6745 10.013 11.1797 9.875 10.6484 9.875C10.6172 9.875 10.5859 9.8776 10.5547 9.88281C10.5234 9.88281 10.4922 9.88542 10.4609 9.89062L10.9531 9.38281C10.9948 9.34115 11.026 9.29167 11.0469 9.23438C11.0729 9.17708 11.0859 9.11979 11.0859 9.0625C11.0859 8.9375 11.0417 8.83073 10.9531 8.74219C10.8698 8.64844 10.7656 8.60156 10.6406 8.60156C10.5781 8.60156 10.5182 8.61458 10.4609 8.64062C10.4036 8.66667 10.3542 8.70312 10.3125 8.75L8.96094 10.125C8.8776 10.2083 8.83333 10.3177 8.82812 10.4531C8.82812 10.5833 8.8724 10.6927 8.96094 10.7812L10.3281 12.1484C10.4115 12.2318 10.513 12.2734 10.6328 12.2734C10.7578 12.2734 10.8646 12.2318 10.9531 12.1484C11.0417 12.0599 11.0859 11.9531 11.0859 11.8281C11.0859 11.7083 11.0391 11.6016 10.9453 11.5078L10.2656 10.8359C10.3021 10.8307 10.3411 10.8255 10.3828 10.8203C10.4297 10.8151 10.474 10.8125 10.5156 10.8125C10.9219 10.8125 11.2891 10.9115 11.6172 11.1094C11.9453 11.3021 12.2057 11.5625 12.3984 11.8906C12.5964 12.2188 12.6953 12.5833 12.6953 12.9844C12.6953 13.3906 12.5964 13.7604 12.3984 14.0938C12.2057 14.4219 11.9453 14.6849 11.6172 14.8828C11.2891 15.0755 10.9219 15.1719 10.5156 15.1719C10.1146 15.1719 9.75 15.0755 9.42188 14.8828C9.09375 14.6849 8.83073 14.4219 8.63281 14.0938C8.4401 13.7604 8.34375 13.3906 8.34375 12.9844C8.34375 12.8542 8.29427 12.7422 8.19531 12.6484C8.10156 12.5547 7.98958 12.5078 7.85938 12.5078C7.72917 12.5078 7.61458 12.5547 7.51562 12.6484C7.42188 12.7422 7.375 12.8542 7.375 12.9844C7.375 13.5677 7.51562 14.099 7.79688 14.5781C8.07812 15.0521 8.45573 15.4323 8.92969 15.7188C9.40885 16 9.9375 16.1406 10.5156 16.1406C11.099 16.1406 11.6276 16 12.1016 15.7188C12.5807 15.4323 12.9609 15.0495 13.2422 14.5703C13.5234 14.0911 13.6641 13.5547 13.6641 12.9609Z"
		fill="currentColor"
	/>
</svg>
