<svg
	color="rgb(var(--foreground, 0, 0, 0))"
	viewBox="0 0 20 24"
	fill="none"
	xmlns="http://www.w3.org/2000/svg"
>
	<path
		d="M11.9922 15.1562V16.4141H15.8984C16.7005 16.4141 17.388 16.2682 17.9609 15.9766C18.5339 15.6797 18.9714 15.2812 19.2734 14.7812C19.5807 14.276 19.7344 13.7083 19.7344 13.0781C19.7344 12.2865 19.513 11.5859 19.0703 10.9766C18.6328 10.362 18.0312 9.89844 17.2656 9.58594C17.2656 8.71615 17.1224 7.91667 16.8359 7.1875C16.5495 6.45312 16.1458 5.81771 15.625 5.28125C15.1094 4.74479 14.5052 4.32812 13.8125 4.03125C13.125 3.73438 12.3802 3.58594 11.5781 3.58594C10.8698 3.58594 10.2292 3.70052 9.65625 3.92969C9.08854 4.15365 8.58333 4.45573 8.14062 4.83594C7.70312 5.21615 7.32812 5.63281 7.01562 6.08594C6.57292 5.96615 6.11458 5.95573 5.64062 6.05469C5.17188 6.15365 4.73698 6.34635 4.33594 6.63281C3.9349 6.91406 3.60677 7.27083 3.35156 7.70312C3.10156 8.13542 2.97135 8.6276 2.96094 9.17969C2.3724 9.26823 1.86198 9.47917 1.42969 9.8125C1.0026 10.1406 0.671875 10.5573 0.4375 11.0625C0.208333 11.5677 0.09375 12.1276 0.09375 12.7422C0.09375 13.4193 0.255208 14.0365 0.578125 14.5938C0.90625 15.1458 1.375 15.5885 1.98438 15.9219C2.59375 16.25 3.32552 16.4141 4.17969 16.4141H7.90625V15.1562H4.17188C3.55729 15.1562 3.03906 15.0495 2.61719 14.8359C2.20052 14.6172 1.88542 14.3255 1.67188 13.9609C1.45833 13.5964 1.35156 13.1901 1.35156 12.7422C1.35156 11.9922 1.57812 11.3724 2.03125 10.8828C2.48438 10.388 3.125 10.1406 3.95312 10.1406C4.05208 10.1406 4.10156 10.0859 4.10156 9.97656C4.10156 9.17448 4.26823 8.5599 4.60156 8.13281C4.9349 7.70052 5.35677 7.42969 5.86719 7.32031C6.3776 7.20573 6.90104 7.22656 7.4375 7.38281C7.52604 7.40885 7.59115 7.38542 7.63281 7.3125C7.88802 6.85938 8.19271 6.44792 8.54688 6.07812C8.90104 5.70312 9.32552 5.40365 9.82031 5.17969C10.3203 4.95573 10.9062 4.84375 11.5781 4.84375C12.4323 4.84375 13.1875 5.04688 13.8438 5.45312C14.5 5.85417 15.0208 6.38542 15.4062 7.04688C15.7917 7.70833 16.0052 8.42708 16.0469 9.20312C16.0573 9.38021 16.0573 9.57031 16.0469 9.77344C16.0417 9.97135 16.0312 10.1615 16.0156 10.3438C16.0052 10.4479 16.0469 10.5078 16.1406 10.5234C16.849 10.6797 17.4141 10.9766 17.8359 11.4141C18.263 11.8516 18.4766 12.4062 18.4766 13.0781C18.4766 13.6771 18.2578 14.1745 17.8203 14.5703C17.388 14.9609 16.7448 15.1562 15.8906 15.1562H11.9922ZM9.95312 20.4141C10.1198 20.4141 10.263 20.3542 10.3828 20.2344C10.5078 20.1146 10.5703 19.974 10.5703 19.8125V12.4844L10.5234 11.0391L11.0469 11.5938L12.2344 12.7734C12.3594 12.8984 12.5 12.9609 12.6562 12.9609C12.8177 12.9609 12.9531 12.9115 13.0625 12.8125C13.1719 12.7083 13.2266 12.5755 13.2266 12.4141C13.2266 12.2474 13.1641 12.1094 13.0391 12L10.3984 9.53125C10.3203 9.45833 10.2448 9.40625 10.1719 9.375C10.1042 9.34375 10.0312 9.32812 9.95312 9.32812C9.86979 9.32812 9.79427 9.34375 9.72656 9.375C9.65885 9.40625 9.58333 9.45833 9.5 9.53125L6.85938 12C6.73438 12.1094 6.67188 12.2474 6.67188 12.4141C6.67188 12.5755 6.72396 12.7083 6.82812 12.8125C6.9375 12.9115 7.07292 12.9609 7.23438 12.9609C7.39583 12.9609 7.53906 12.8984 7.66406 12.7734L8.85156 11.5938L9.375 11.0391L9.32812 12.4844V19.8125C9.32812 19.974 9.38802 20.1146 9.50781 20.2344C9.63281 20.3542 9.78125 20.4141 9.95312 20.4141Z"
		fill="currentColor"
	/>
</svg>
