<svg
	color="rgb(var(--foreground, 0, 0, 0))"
	viewBox="0 0 21 24"
	fill="none"
	xmlns="http://www.w3.org/2000/svg"
>
	<path
		d="M16.4062 18.7891C16.9948 18.7891 17.5443 18.6875 18.0547 18.4844C18.5651 18.2865 19.0104 18.0104 19.3906 17.6562C19.776 17.3021 20.0755 16.8906 20.2891 16.4219C20.5026 15.9531 20.6094 15.4505 20.6094 14.9141C20.6094 14.3672 20.5104 13.8542 20.3125 13.375C20.1146 12.8906 19.8307 12.4635 19.4609 12.0938C19.0911 11.7188 18.651 11.4245 18.1406 11.2109C18.1406 10.3411 17.9974 9.54167 17.7109 8.8125C17.4245 8.07812 17.0208 7.44271 16.5 6.90625C15.9844 6.36458 15.3802 5.94792 14.6875 5.65625C14 5.35938 13.2552 5.21094 12.4531 5.21094C11.7448 5.21094 11.1042 5.32552 10.5312 5.55469C9.96354 5.77865 9.45833 6.08073 9.01562 6.46094C8.57812 6.83594 8.20312 7.2526 7.89062 7.71094C7.41146 7.57031 6.93229 7.54948 6.45312 7.64844C5.97917 7.74219 5.54688 7.9349 5.15625 8.22656C4.76562 8.51302 4.45052 8.8776 4.21094 9.32031C3.97135 9.75781 3.84635 10.25 3.83594 10.7969C3.2474 10.8906 2.73698 11.1146 2.30469 11.4688C1.8776 11.8229 1.54688 12.2682 1.3125 12.8047C1.08333 13.3411 0.96875 13.9271 0.96875 14.5625C0.96875 15.1354 1.08594 15.6771 1.32031 16.1875C1.55469 16.6979 1.88281 17.1484 2.30469 17.5391C2.73177 17.9245 3.22917 18.2292 3.79688 18.4531C4.36458 18.6771 4.98177 18.7891 5.64844 18.7891H16.4062ZM16.4062 17.5312H5.64844C4.99219 17.5312 4.40625 17.3958 3.89062 17.125C3.375 16.849 2.96875 16.487 2.67188 16.0391C2.375 15.5859 2.22656 15.0938 2.22656 14.5625C2.22656 14.0417 2.32812 13.5703 2.53125 13.1484C2.73438 12.7214 3.02865 12.3828 3.41406 12.1328C3.80469 11.8828 4.27604 11.7578 4.82812 11.7578C4.92708 11.7578 4.97656 11.7057 4.97656 11.6016C4.97656 10.9974 5.07292 10.5 5.26562 10.1094C5.46354 9.71354 5.72396 9.41406 6.04688 9.21094C6.36979 9.0026 6.72656 8.88542 7.11719 8.85938C7.51302 8.82812 7.91146 8.8776 8.3125 9.00781C8.40104 9.03385 8.46615 9.00781 8.50781 8.92969C8.76302 8.48177 9.06771 8.07031 9.42188 7.69531C9.77604 7.32031 10.2005 7.02344 10.6953 6.80469C11.1953 6.58073 11.7812 6.46875 12.4531 6.46875C13.3073 6.46875 14.0625 6.67188 14.7188 7.07812C15.375 7.47917 15.8958 8.01042 16.2812 8.67188C16.6667 9.33333 16.8802 10.0495 16.9219 10.8203C16.9323 11.0026 16.9323 11.1953 16.9219 11.3984C16.9167 11.5964 16.9062 11.7865 16.8906 11.9688C16.8802 12.0677 16.9219 12.1276 17.0156 12.1484C17.724 12.3047 18.2891 12.6276 18.7109 13.1172C19.138 13.6068 19.3516 14.2057 19.3516 14.9141C19.3516 15.3984 19.2214 15.8385 18.9609 16.2344C18.7005 16.6302 18.3464 16.9453 17.8984 17.1797C17.4557 17.4141 16.9583 17.5312 16.4062 17.5312ZM8.01562 12.9609C8.01562 13.5547 8.15625 14.0911 8.4375 14.5703C8.71875 15.0495 9.09635 15.4323 9.57031 15.7188C10.0495 16 10.5807 16.1406 11.1641 16.1406C11.7422 16.1406 12.2682 16 12.7422 15.7188C13.2214 15.4323 13.6016 15.0521 13.8828 14.5781C14.1641 14.099 14.3047 13.5677 14.3047 12.9844C14.3047 12.8542 14.2552 12.7422 14.1562 12.6484C14.0625 12.5547 13.9505 12.5078 13.8203 12.5078C13.6901 12.5078 13.5755 12.5547 13.4766 12.6484C13.3828 12.7422 13.3359 12.8542 13.3359 12.9844C13.3359 13.3906 13.237 13.7604 13.0391 14.0938C12.8464 14.4219 12.5859 14.6849 12.2578 14.8828C11.9297 15.0755 11.5651 15.1719 11.1641 15.1719C10.7578 15.1719 10.3906 15.0755 10.0625 14.8828C9.73438 14.6849 9.47135 14.4219 9.27344 14.0938C9.08073 13.7604 8.98438 13.3906 8.98438 12.9844C8.98438 12.5833 9.08073 12.2188 9.27344 11.8906C9.47135 11.5625 9.73438 11.3021 10.0625 11.1094C10.3906 10.9115 10.7578 10.8125 11.1641 10.8125C11.2057 10.8125 11.2474 10.8151 11.2891 10.8203C11.3359 10.8255 11.3776 10.8307 11.4141 10.8359L10.7344 11.5078C10.6406 11.6016 10.5938 11.7083 10.5938 11.8281C10.5938 11.9531 10.638 12.0599 10.7266 12.1484C10.8151 12.2318 10.9219 12.2734 11.0469 12.2734C11.1667 12.2734 11.2682 12.2318 11.3516 12.1484L12.7188 10.7812C12.8073 10.6927 12.849 10.5833 12.8438 10.4531C12.8438 10.3177 12.8021 10.2083 12.7188 10.125L11.3672 8.75C11.3307 8.70312 11.2812 8.66667 11.2188 8.64062C11.1615 8.61458 11.1016 8.60156 11.0391 8.60156C10.9141 8.60156 10.8073 8.64844 10.7188 8.74219C10.6354 8.83073 10.5938 8.9375 10.5938 9.0625C10.5938 9.11979 10.6042 9.17708 10.625 9.23438C10.651 9.29167 10.6849 9.34115 10.7266 9.38281L11.2188 9.89062C11.1927 9.88542 11.1615 9.88281 11.125 9.88281C11.0938 9.8776 11.0625 9.875 11.0312 9.875C10.5 9.875 10.0052 10.013 9.54688 10.2891C9.08854 10.5599 8.71875 10.9297 8.4375 11.3984C8.15625 11.862 8.01562 12.3828 8.01562 12.9609Z"
		fill="currentColor"
	/>
</svg>
