<svg
	color="rgb(var(--foreground, 0, 0, 0))"
	viewBox="0 0 21 24"
	fill="none"
	xmlns="http://www.w3.org/2000/svg"
>
	<path
		d="M16 18.7891C16.5885 18.7891 17.138 18.6875 17.6484 18.4844C18.1589 18.2865 18.6042 18.0104 18.9844 17.6562C19.3698 17.3021 19.6693 16.8906 19.8828 16.4219C20.0964 15.9531 20.2031 15.4505 20.2031 14.9141C20.2031 14.3672 20.1042 13.8542 19.9062 13.375C19.7083 12.8906 19.4245 12.4635 19.0547 12.0938C18.6849 11.7188 18.2448 11.4245 17.7344 11.2109C17.7344 10.3411 17.5911 9.54167 17.3047 8.8125C17.0182 8.07812 16.6146 7.44271 16.0938 6.90625C15.5781 6.36458 14.974 5.94792 14.2812 5.65625C13.5938 5.35938 12.849 5.21094 12.0469 5.21094C11.3385 5.21094 10.6979 5.32552 10.125 5.55469C9.55729 5.77865 9.05208 6.08073 8.60938 6.46094C8.17188 6.83594 7.79688 7.2526 7.48438 7.71094C7.00521 7.57031 6.52604 7.54948 6.04688 7.64844C5.57292 7.74219 5.14062 7.9349 4.75 8.22656C4.35938 8.51302 4.04427 8.8776 3.80469 9.32031C3.5651 9.75781 3.4401 10.25 3.42969 10.7969C2.84115 10.8906 2.33073 11.1146 1.89844 11.4688C1.47135 11.8229 1.14062 12.2682 0.90625 12.8047C0.677083 13.3411 0.5625 13.9271 0.5625 14.5625C0.5625 15.1354 0.679688 15.6771 0.914062 16.1875C1.14844 16.6979 1.47656 17.1484 1.89844 17.5391C2.32552 17.9245 2.82292 18.2292 3.39062 18.4531C3.95833 18.6771 4.57552 18.7891 5.24219 18.7891H16ZM16 17.5312H5.24219C4.58594 17.5312 4 17.3958 3.48438 17.125C2.96875 16.849 2.5625 16.487 2.26562 16.0391C1.96875 15.5859 1.82031 15.0938 1.82031 14.5625C1.82031 14.0417 1.92188 13.5703 2.125 13.1484C2.32812 12.7214 2.6224 12.3828 3.00781 12.1328C3.39844 11.8828 3.86979 11.7578 4.42188 11.7578C4.52083 11.7578 4.57031 11.7057 4.57031 11.6016C4.57031 10.9974 4.66667 10.5 4.85938 10.1094C5.05729 9.71354 5.31771 9.41406 5.64062 9.21094C5.96354 9.0026 6.32031 8.88542 6.71094 8.85938C7.10677 8.82812 7.50521 8.8776 7.90625 9.00781C7.99479 9.03385 8.0599 9.00781 8.10156 8.92969C8.35677 8.48177 8.66146 8.07031 9.01562 7.69531C9.36979 7.32031 9.79427 7.02344 10.2891 6.80469C10.7891 6.58073 11.375 6.46875 12.0469 6.46875C12.901 6.46875 13.6562 6.67188 14.3125 7.07812C14.9688 7.47917 15.4896 8.01042 15.875 8.67188C16.2604 9.33333 16.474 10.0495 16.5156 10.8203C16.526 11.0026 16.526 11.1953 16.5156 11.3984C16.5104 11.5964 16.5 11.7865 16.4844 11.9688C16.474 12.0677 16.5156 12.1276 16.6094 12.1484C17.3177 12.3047 17.8828 12.6276 18.3047 13.1172C18.7318 13.6068 18.9453 14.2057 18.9453 14.9141C18.9453 15.3984 18.8151 15.8385 18.5547 16.2344C18.2943 16.6302 17.9401 16.9453 17.4922 17.1797C17.0495 17.4141 16.5521 17.5312 16 17.5312ZM10.3906 13.4766C10.7708 13.4766 10.9688 13.2682 10.9844 12.8516L11.1016 9.98438C11.1068 9.77083 11.0391 9.59635 10.8984 9.46094C10.763 9.32552 10.5911 9.25781 10.3828 9.25781C10.1693 9.25781 9.99479 9.32552 9.85938 9.46094C9.72396 9.59115 9.66146 9.76302 9.67188 9.97656L9.77344 12.8516C9.78906 13.2682 9.99479 13.4766 10.3906 13.4766ZM10.3828 15.9688C10.6068 15.9688 10.8021 15.8906 10.9688 15.7344C11.1406 15.5781 11.2266 15.3854 11.2266 15.1562C11.2266 14.9271 11.1432 14.7344 10.9766 14.5781C10.8099 14.4219 10.612 14.3438 10.3828 14.3438C10.1536 14.3438 9.95573 14.4245 9.78906 14.5859C9.6224 14.7422 9.53906 14.9323 9.53906 15.1562C9.53906 15.3802 9.6224 15.5729 9.78906 15.7344C9.95573 15.8906 10.1536 15.9688 10.3828 15.9688Z"
		fill="currentColor"
	/>
</svg>
