<svg
	color="rgb(var(--foreground, 0, 0, 0))"
	viewBox="0 0 21 24"
	fill="none"
	xmlns="http://www.w3.org/2000/svg"
>
	<path
		d="M16.0469 18.7891C16.6354 18.7891 17.1849 18.6875 17.6953 18.4844C18.2057 18.2865 18.651 18.0104 19.0312 17.6562C19.4167 17.3021 19.7161 16.8906 19.9297 16.4219C20.1432 15.9531 20.25 15.4505 20.25 14.9141C20.25 14.3672 20.151 13.8542 19.9531 13.375C19.7552 12.8906 19.4714 12.4635 19.1016 12.0938C18.7318 11.7188 18.2917 11.4245 17.7812 11.2109C17.7812 10.3411 17.638 9.54167 17.3516 8.8125C17.0651 8.07812 16.6615 7.44271 16.1406 6.90625C15.625 6.36458 15.0208 5.94792 14.3281 5.65625C13.6406 5.35938 12.8958 5.21094 12.0938 5.21094C11.3854 5.21094 10.7448 5.32552 10.1719 5.55469C9.60417 5.77865 9.09896 6.08073 8.65625 6.46094C8.21875 6.83594 7.84375 7.2526 7.53125 7.71094C7.05208 7.57031 6.57292 7.54948 6.09375 7.64844C5.61979 7.74219 5.1875 7.9349 4.79688 8.22656C4.40625 8.51302 4.09115 8.8776 3.85156 9.32031C3.61198 9.75781 3.48698 10.25 3.47656 10.7969C2.88802 10.8906 2.3776 11.1146 1.94531 11.4688C1.51823 11.8229 1.1875 12.2682 0.953125 12.8047C0.723958 13.3411 0.609375 13.9271 0.609375 14.5625C0.609375 15.1354 0.726562 15.6771 0.960938 16.1875C1.19531 16.6979 1.52344 17.1484 1.94531 17.5391C2.3724 17.9245 2.86979 18.2292 3.4375 18.4531C4.00521 18.6771 4.6224 18.7891 5.28906 18.7891H16.0469ZM7.55469 12.9766C7.55469 12.3828 7.70052 11.8464 7.99219 11.3672C8.28385 10.8828 8.66406 10.5 9.13281 10.2188C9.60677 9.9375 10.1172 9.79688 10.6641 9.79688C10.6953 9.79688 10.7266 9.79948 10.7578 9.80469C10.7943 9.80469 10.8255 9.80729 10.8516 9.8125L10.3516 9.28906C10.3099 9.2474 10.276 9.19792 10.25 9.14062C10.2292 9.07812 10.2188 9.01823 10.2188 8.96094C10.2188 8.83073 10.263 8.71875 10.3516 8.625C10.4453 8.53125 10.5547 8.48438 10.6797 8.48438C10.7422 8.48438 10.8047 8.4974 10.8672 8.52344C10.9297 8.54948 10.9792 8.58594 11.0156 8.63281L12.4062 10.0547C12.4948 10.138 12.5391 10.25 12.5391 10.3906C12.5391 10.5312 12.4948 10.6458 12.4062 10.7344L11 12.1406C10.9115 12.2292 10.8073 12.2734 10.6875 12.2734C10.5573 12.2734 10.4453 12.2292 10.3516 12.1406C10.263 12.0521 10.2188 11.9401 10.2188 11.8047C10.2188 11.6797 10.2656 11.5703 10.3594 11.4766L11.0547 10.7891C10.987 10.7734 10.9036 10.7656 10.8047 10.7656C10.388 10.7656 10.0104 10.8672 9.67188 11.0703C9.33333 11.2682 9.0625 11.5365 8.85938 11.875C8.66146 12.2135 8.5625 12.5885 8.5625 13C8.5625 13.4167 8.66146 13.7969 8.85938 14.1406C9.0625 14.4792 9.33333 14.75 9.67188 14.9531C10.0104 15.1562 10.388 15.2578 10.8047 15.2578C11.2161 15.2578 11.5911 15.1562 11.9297 14.9531C12.2682 14.75 12.5365 14.4792 12.7344 14.1406C12.9375 13.7969 13.0391 13.4167 13.0391 13C13.0391 12.8646 13.0885 12.75 13.1875 12.6562C13.2865 12.5573 13.4062 12.5078 13.5469 12.5078C13.6823 12.5078 13.7995 12.5573 13.8984 12.6562C13.9974 12.75 14.0469 12.8646 14.0469 13C14.0469 13.6042 13.901 14.1536 13.6094 14.6484C13.3177 15.138 12.9271 15.5286 12.4375 15.8203C11.9479 16.112 11.4036 16.2578 10.8047 16.2578C10.2057 16.2578 9.65885 16.112 9.16406 15.8203C8.67448 15.5286 8.28385 15.1354 7.99219 14.6406C7.70052 14.1406 7.55469 13.5859 7.55469 12.9766Z"
		fill="currentColor"
	/>
</svg>
