<svg
	color="rgb(var(--foreground, 0, 0, 0))"
	viewBox="0 0 21 24"
	fill="none"
	xmlns="http://www.w3.org/2000/svg"
>
	<path
		d="M5.60156 17.7109H13.0781L4.00781 8.65625C3.9401 8.81771 3.88542 8.98698 3.84375 9.16406C3.80729 9.34115 3.78906 9.52604 3.78906 9.71875C3.20052 9.8125 2.6901 10.0365 2.25781 10.3906C1.83073 10.7448 1.5 11.1901 1.26562 11.7266C1.03646 12.263 0.921875 12.849 0.921875 13.4844C0.921875 14.0573 1.03906 14.599 1.27344 15.1094C1.50781 15.6198 1.83594 16.0703 2.25781 16.4609C2.6849 16.8516 3.18229 17.1562 3.75 17.375C4.31771 17.599 4.9349 17.7109 5.60156 17.7109ZM17.2891 17.5781C17.9297 17.4479 18.4948 17.2057 18.9844 16.8516C19.4792 16.4922 19.8646 16.0521 20.1406 15.5312C20.4219 15.0104 20.5625 14.4453 20.5625 13.8359C20.5625 13.2891 20.4635 12.776 20.2656 12.2969C20.0677 11.8125 19.7839 11.3854 19.4141 11.0156C19.0443 10.6406 18.6042 10.3464 18.0938 10.1328C18.0938 9.26302 17.9505 8.46354 17.6641 7.73438C17.3776 7 16.974 6.36458 16.4531 5.82812C15.9375 5.28646 15.3333 4.86979 14.6406 4.57812C13.9531 4.28125 13.2083 4.13281 12.4062 4.13281C11.6979 4.13281 11.0573 4.2474 10.4844 4.47656C9.91667 4.70052 9.41146 5.0026 8.96875 5.38281C8.53125 5.75781 8.15625 6.17448 7.84375 6.63281C7.60938 6.5599 7.35938 6.52344 7.09375 6.52344C6.83333 6.51823 6.57552 6.54948 6.32031 6.61719L17.2891 17.5781ZM16.375 19.6953C16.4948 19.8099 16.6354 19.8672 16.7969 19.8672C16.9635 19.8672 17.1068 19.8099 17.2266 19.6953C17.3411 19.5755 17.3984 19.4323 17.3984 19.2656C17.4036 19.099 17.3464 18.9583 17.2266 18.8438L4.1875 5.8125C4.06771 5.69271 3.92188 5.63542 3.75 5.64062C3.58333 5.64062 3.44271 5.69792 3.32812 5.8125C3.21354 5.92708 3.15625 6.07031 3.15625 6.24219C3.16146 6.41406 3.21875 6.55469 3.32812 6.66406L16.375 19.6953Z"
		fill="currentColor"
	/>
</svg>
