<svg
	color="rgb(var(--foreground, 0, 0, 0))"
	viewBox="0 0 20 24"
	fill="none"
	xmlns="http://www.w3.org/2000/svg"
>
	<path
		d="M15.4375 18.7891C16.026 18.7891 16.5755 18.6875 17.0859 18.4844C17.5964 18.2865 18.0417 18.0104 18.4219 17.6562C18.8073 17.3021 19.1068 16.8906 19.3203 16.4219C19.5339 15.9531 19.6406 15.4505 19.6406 14.9141C19.6406 14.3672 19.5417 13.8542 19.3438 13.375C19.1458 12.8906 18.862 12.4635 18.4922 12.0938C18.1224 11.7188 17.6823 11.4245 17.1719 11.2109C17.1719 10.3411 17.0286 9.54167 16.7422 8.8125C16.4557 8.07812 16.0521 7.44271 15.5312 6.90625C15.0156 6.36458 14.4115 5.94792 13.7188 5.65625C13.0312 5.35938 12.2865 5.21094 11.4844 5.21094C10.776 5.21094 10.1354 5.32552 9.5625 5.55469C8.99479 5.77865 8.48958 6.08073 8.04688 6.46094C7.60938 6.83594 7.23438 7.2526 6.92188 7.71094C6.44271 7.57031 5.96354 7.54948 5.48438 7.64844C5.01042 7.74219 4.57812 7.9349 4.1875 8.22656C3.79688 8.51302 3.48177 8.8776 3.24219 9.32031C3.0026 9.75781 2.8776 10.25 2.86719 10.7969C2.27865 10.8906 1.76823 11.1146 1.33594 11.4688C0.908854 11.8229 0.578125 12.2682 0.34375 12.8047C0.114583 13.3411 0 13.9271 0 14.5625C0 15.1354 0.117188 15.6771 0.351562 16.1875C0.585938 16.6979 0.914062 17.1484 1.33594 17.5391C1.76302 17.9245 2.26042 18.2292 2.82812 18.4531C3.39583 18.6771 4.01302 18.7891 4.67969 18.7891H15.4375ZM15.4375 17.5312H4.67969C4.02344 17.5312 3.4375 17.3958 2.92188 17.125C2.40625 16.849 2 16.487 1.70312 16.0391C1.40625 15.5859 1.25781 15.0938 1.25781 14.5625C1.25781 14.0417 1.35938 13.5703 1.5625 13.1484C1.76562 12.7214 2.0599 12.3828 2.44531 12.1328C2.83594 11.8828 3.30729 11.7578 3.85938 11.7578C3.95833 11.7578 4.00781 11.7057 4.00781 11.6016C4.00781 10.9974 4.10417 10.5 4.29688 10.1094C4.49479 9.71354 4.75521 9.41406 5.07812 9.21094C5.40104 9.0026 5.75781 8.88542 6.14844 8.85938C6.54427 8.82812 6.94271 8.8776 7.34375 9.00781C7.43229 9.03385 7.4974 9.00781 7.53906 8.92969C7.79427 8.48177 8.09896 8.07031 8.45312 7.69531C8.80729 7.32031 9.23177 7.02344 9.72656 6.80469C10.2266 6.58073 10.8125 6.46875 11.4844 6.46875C12.3385 6.46875 13.0938 6.67188 13.75 7.07812C14.4062 7.47917 14.9271 8.01042 15.3125 8.67188C15.6979 9.33333 15.9115 10.0495 15.9531 10.8203C15.9635 11.0026 15.9635 11.1953 15.9531 11.3984C15.9479 11.5964 15.9375 11.7865 15.9219 11.9688C15.9115 12.0677 15.9531 12.1276 16.0469 12.1484C16.7552 12.3047 17.3203 12.6276 17.7422 13.1172C18.1693 13.6068 18.3828 14.2057 18.3828 14.9141C18.3828 15.3984 18.2526 15.8385 17.9922 16.2344C17.7318 16.6302 17.3776 16.9453 16.9297 17.1797C16.487 17.4141 15.9896 17.5312 15.4375 17.5312Z"
		fill="currentColor"
	/>
</svg>
