<svg
	color="rgb(var(--foreground, 0, 0, 0))"
	viewBox="0 0 20 24"
	fill="none"
	xmlns="http://www.w3.org/2000/svg"
>
	<path
		d="M4.96094 17.7109H12.4375L11.1719 16.4531H4.96094C4.30469 16.4531 3.71875 16.3177 3.20312 16.0469C2.6875 15.7708 2.28125 15.4089 1.98438 14.9609C1.6875 14.5078 1.53906 14.0156 1.53906 13.4844C1.53906 12.9635 1.64062 12.4922 1.84375 12.0703C2.04688 11.6432 2.34115 11.3047 2.72656 11.0547C3.11719 10.8047 3.58854 10.6797 4.14062 10.6797C4.23958 10.6797 4.28906 10.6276 4.28906 10.5234C4.28906 10.3672 4.29948 10.2214 4.32031 10.0859C4.34115 9.95052 4.3724 9.82292 4.41406 9.70312L3.375 8.66406C3.30208 8.82031 3.24479 8.98698 3.20312 9.16406C3.16667 9.34115 3.14844 9.52604 3.14844 9.71875C2.5599 9.8125 2.04948 10.0365 1.61719 10.3906C1.1901 10.7448 0.859375 11.1901 0.625 11.7266C0.395833 12.263 0.28125 12.849 0.28125 13.4844C0.28125 14.0573 0.398438 14.599 0.632812 15.1094C0.867188 15.6198 1.19531 16.0703 1.61719 16.4609C2.04427 16.8464 2.54167 17.151 3.10938 17.375C3.67708 17.599 4.29427 17.7109 4.96094 17.7109ZM16.6484 17.5781C17.2943 17.4479 17.862 17.2057 18.3516 16.8516C18.8464 16.4922 19.2318 16.0521 19.5078 15.5312C19.7839 15.0104 19.9219 14.4453 19.9219 13.8359C19.9219 13.2891 19.8229 12.776 19.625 12.2969C19.4271 11.8125 19.1432 11.3854 18.7734 11.0156C18.4036 10.6406 17.9635 10.3464 17.4531 10.1328C17.4531 9.26302 17.3099 8.46354 17.0234 7.73438C16.737 7 16.3333 6.36458 15.8125 5.82812C15.2969 5.28646 14.6927 4.86979 14 4.57812C13.3125 4.28125 12.5677 4.13281 11.7656 4.13281C11.0573 4.13281 10.4167 4.2474 9.84375 4.47656C9.27604 4.70052 8.77083 5.0026 8.32812 5.38281C7.89062 5.75781 7.51562 6.17448 7.20312 6.63281C6.95833 6.5651 6.70833 6.53385 6.45312 6.53906C6.19792 6.53906 5.94531 6.57031 5.69531 6.63281L6.89062 7.82812C7.01042 7.82292 7.13281 7.83073 7.25781 7.85156C7.38281 7.86719 7.50521 7.89323 7.625 7.92969C7.71354 7.95573 7.77865 7.92969 7.82031 7.85156C8.07552 7.40365 8.38021 6.99219 8.73438 6.61719C9.08854 6.24219 9.51302 5.94531 10.0078 5.72656C10.5078 5.5026 11.0938 5.39062 11.7656 5.39062C12.6198 5.39062 13.375 5.59375 14.0312 6C14.6875 6.40104 15.2083 6.93229 15.5938 7.59375C15.9792 8.25521 16.1927 8.97135 16.2344 9.74219C16.2448 9.92448 16.2448 10.1172 16.2344 10.3203C16.2292 10.5182 16.2188 10.7083 16.2031 10.8906C16.1927 10.9896 16.2344 11.0495 16.3281 11.0703C17.0365 11.2266 17.6016 11.5495 18.0234 12.0391C18.4505 12.5286 18.6641 13.1276 18.6641 13.8359C18.6641 14.3203 18.5339 14.7604 18.2734 15.1562C18.013 15.5521 17.6589 15.8672 17.2109 16.1016C16.7682 16.3359 16.2708 16.4531 15.7188 16.4531H15.5234L16.6484 17.5781ZM15.7344 19.6953C15.8542 19.8099 15.9948 19.8672 16.1562 19.8672C16.3229 19.8672 16.4661 19.8099 16.5859 19.6953C16.7005 19.5755 16.7578 19.4323 16.7578 19.2656C16.763 19.099 16.7057 18.9583 16.5859 18.8438L3.54688 5.8125C3.42708 5.69271 3.28125 5.63542 3.10938 5.64062C2.94271 5.64062 2.80208 5.69792 2.6875 5.8125C2.57292 5.92708 2.51562 6.07031 2.51562 6.24219C2.52083 6.41406 2.57812 6.55469 2.6875 6.66406L15.7344 19.6953Z"
		fill="currentColor"
	/>
</svg>
