<svg
	color="rgb(var(--foreground, 0, 0, 0))"
	viewBox="0 0 20 24"
	fill="none"
	xmlns="http://www.w3.org/2000/svg"
>
	<path
		d="M15.6406 18.7891C16.2292 18.7891 16.7787 18.6875 17.2891 18.4844C17.7995 18.2865 18.2448 18.0104 18.625 17.6562C19.0104 17.3021 19.3099 16.8906 19.5235 16.4219C19.737 15.9531 19.8438 15.4505 19.8438 14.9141C19.8438 14.3672 19.7448 13.8542 19.5469 13.375C19.349 12.8906 19.0651 12.4635 18.6953 12.0938C18.3255 11.7188 17.8854 11.4245 17.375 11.2109C17.375 10.3411 17.2318 9.54167 16.9453 8.8125C16.6589 8.07812 16.2552 7.44271 15.7344 6.90625C15.2188 6.36458 14.6146 5.94792 13.9219 5.65625C13.2344 5.35938 12.4896 5.21094 11.6875 5.21094C10.9792 5.21094 10.3386 5.32552 9.76564 5.55469C9.19793 5.77865 8.69272 6.08073 8.25002 6.46094C7.81252 6.83594 7.4375 7.2526 7.125 7.71094C6.64583 7.57031 6.16667 7.54948 5.6875 7.64844C5.21354 7.74219 4.78125 7.9349 4.39062 8.22656C4 8.51302 3.6849 8.8776 3.44531 9.32031C3.20573 9.75781 3.08073 10.25 3.07031 10.7969C2.48177 10.8906 1.97135 11.1146 1.53906 11.4688C1.11198 11.8229 0.78125 12.2682 0.546875 12.8047C0.317708 13.3411 0.203125 13.9271 0.203125 14.5625C0.203125 15.1354 0.320312 15.6771 0.554688 16.1875C0.789062 16.6979 1.11719 17.1484 1.53906 17.5391C1.96615 17.9245 2.46354 18.2292 3.03125 18.4531C3.59896 18.6771 4.21615 18.7891 4.88281 18.7891H15.6406ZM10.0313 13.6328C9.60939 13.6328 9.39064 13.4141 9.37502 12.9766L9.27345 9.53906C9.26304 9.32552 9.32814 9.15104 9.46877 9.01562C9.6146 8.875 9.79949 8.80469 10.0235 8.80469C10.2422 8.80469 10.4245 8.875 10.5703 9.01562C10.7214 9.15625 10.7943 9.33333 10.7891 9.54688L10.6719 12.9766C10.6563 13.4141 10.4427 13.6328 10.0313 13.6328ZM10.0235 16.5156C9.79949 16.5156 9.59637 16.4349 9.41408 16.2734C9.23699 16.112 9.14845 15.9115 9.14845 15.6719C9.14845 15.4271 9.23699 15.2266 9.41408 15.0703C9.59116 14.9089 9.79429 14.8281 10.0235 14.8281C10.2526 14.8281 10.4557 14.9089 10.6328 15.0703C10.8099 15.2266 10.8985 15.4271 10.8985 15.6719C10.8985 15.9167 10.8073 16.1198 10.625 16.2812C10.4479 16.4375 10.2474 16.5156 10.0235 16.5156Z"
		fill="currentColor"
	/>
</svg>
