<svg
	color="rgb(var(--foreground, 0, 0, 0))"
	viewBox="0 0 21 24"
	fill="none"
	xmlns="http://www.w3.org/2000/svg"
>
	<path
		d="M12.7109 14.8359V16.0938H16.6172C17.4193 16.0938 18.1068 15.9479 18.6797 15.6562C19.2526 15.3594 19.6901 14.9609 19.9922 14.4609C20.2995 13.9557 20.4531 13.388 20.4531 12.7578C20.4531 11.9661 20.2318 11.2656 19.7891 10.6562C19.3516 10.0417 18.75 9.57812 17.9844 9.26562C17.9844 8.39583 17.8411 7.59635 17.5547 6.86719C17.2682 6.13281 16.8646 5.4974 16.3438 4.96094C15.8281 4.42448 15.224 4.00781 14.5312 3.71094C13.8438 3.41406 13.099 3.26562 12.2969 3.26562C11.5885 3.26562 10.9479 3.38021 10.375 3.60938C9.80729 3.83333 9.30208 4.13542 8.85938 4.51562C8.42188 4.89583 8.04688 5.3125 7.73438 5.76562C7.29167 5.64583 6.83333 5.63542 6.35938 5.73438C5.89062 5.83333 5.45573 6.02604 5.05469 6.3125C4.65365 6.59375 4.32552 6.95052 4.07031 7.38281C3.82031 7.8151 3.6901 8.30729 3.67969 8.85938C3.09115 8.94792 2.58073 9.15885 2.14844 9.49219C1.72135 9.82031 1.39062 10.237 1.15625 10.7422C0.927083 11.2474 0.8125 11.8073 0.8125 12.4219C0.8125 13.099 0.973958 13.7161 1.29688 14.2734C1.625 14.8255 2.09375 15.2682 2.70312 15.6016C3.3125 15.9297 4.04427 16.0938 4.89844 16.0938H8.625V14.8359H4.89062C4.27604 14.8359 3.75781 14.7292 3.33594 14.5156C2.91927 14.2969 2.60417 14.0052 2.39062 13.6406C2.17708 13.276 2.07031 12.8698 2.07031 12.4219C2.07031 11.6719 2.29688 11.0521 2.75 10.5625C3.20312 10.0677 3.84375 9.82031 4.67188 9.82031C4.77083 9.82031 4.82031 9.76562 4.82031 9.65625C4.82031 8.85417 4.98698 8.23958 5.32031 7.8125C5.65365 7.38021 6.07552 7.10938 6.58594 7C7.09635 6.88542 7.61979 6.90625 8.15625 7.0625C8.24479 7.08854 8.3099 7.0651 8.35156 6.99219C8.60677 6.53906 8.91146 6.1276 9.26562 5.75781C9.61979 5.38281 10.0443 5.08333 10.5391 4.85938C11.0391 4.63542 11.625 4.52344 12.2969 4.52344C13.151 4.52344 13.9062 4.72656 14.5625 5.13281C15.2188 5.53385 15.7396 6.0651 16.125 6.72656C16.5104 7.38802 16.724 8.10677 16.7656 8.88281C16.776 9.0599 16.776 9.25 16.7656 9.45312C16.7604 9.65104 16.75 9.84115 16.7344 10.0234C16.724 10.1276 16.7656 10.1875 16.8594 10.2031C17.5677 10.3594 18.1328 10.6562 18.5547 11.0938C18.9818 11.5312 19.1953 12.0859 19.1953 12.7578C19.1953 13.3568 18.9766 13.8542 18.5391 14.25C18.1068 14.6406 17.4635 14.8359 16.6094 14.8359H12.7109ZM10.6719 20.7344C10.75 20.7344 10.8229 20.7161 10.8906 20.6797C10.9635 20.6484 11.0391 20.5964 11.1172 20.5234L13.7578 18.0547C13.8828 17.9453 13.9453 17.8073 13.9453 17.6406C13.9453 17.4844 13.8906 17.3542 13.7812 17.25C13.6719 17.1458 13.5365 17.0938 13.375 17.0938C13.2188 17.0938 13.0781 17.1562 12.9531 17.2812L11.7656 18.4688L11.2422 19.0156L11.2891 17.8516V11.1484C11.2891 10.9818 11.2266 10.8385 11.1016 10.7188C10.9818 10.599 10.8385 10.5391 10.6719 10.5391C10.5 10.5391 10.3516 10.599 10.2266 10.7188C10.1068 10.8385 10.0469 10.9818 10.0469 11.1484V17.8516L10.0938 19.0234L9.57031 18.4688L8.38281 17.2812C8.25781 17.1562 8.11458 17.0938 7.95312 17.0938C7.79167 17.0938 7.65625 17.1458 7.54688 17.25C7.44271 17.3542 7.39062 17.4844 7.39062 17.6406C7.39062 17.8073 7.45312 17.9453 7.57812 18.0547L10.2188 20.5234C10.3021 20.5964 10.3776 20.6484 10.4453 20.6797C10.513 20.7161 10.5885 20.7344 10.6719 20.7344Z"
		fill="currentColor"
	/>
</svg>
