<svg
	color="rgb(var(--foreground, 0, 0, 0))"
	viewBox="0 0 20 24"
	fill="none"
	xmlns="http://www.w3.org/2000/svg"
>
	<path
		d="M6.125 17.7969H15.1094C14.9583 17.3594 14.6901 16.9141 14.3047 16.4609C13.9245 16.0078 13.4245 15.6276 12.8047 15.3203C12.1901 15.013 11.4609 14.8594 10.6172 14.8594C9.76823 14.8594 9.03646 15.013 8.42188 15.3203C7.80729 15.6276 7.30729 16.0078 6.92188 16.4609C6.53646 16.9141 6.27083 17.3594 6.125 17.7969ZM10.6172 13.8906C11.0078 13.8958 11.362 13.7917 11.6797 13.5781C12.0026 13.3646 12.2604 13.0807 12.4531 12.7266C12.6458 12.3724 12.7422 11.9844 12.7422 11.5625C12.7422 11.1458 12.6458 10.7682 12.4531 10.4297C12.2604 10.0859 12.0026 9.8125 11.6797 9.60938C11.362 9.40104 11.0078 9.29688 10.6172 9.29688C10.2266 9.29688 9.86979 9.40104 9.54688 9.60938C9.22396 9.8125 8.96615 10.0859 8.77344 10.4297C8.58594 10.7682 8.49219 11.1458 8.49219 11.5625C8.49219 11.9844 8.58594 12.3724 8.77344 12.7266C8.96615 13.0755 9.22396 13.3568 9.54688 13.5703C9.86979 13.7786 10.2266 13.8854 10.6172 13.8906ZM15.6875 18.7891C16.276 18.7891 16.8255 18.6875 17.3359 18.4844C17.8464 18.2865 18.2917 18.0104 18.6719 17.6562C19.0573 17.3021 19.3568 16.8906 19.5703 16.4219C19.7839 15.9531 19.8906 15.4505 19.8906 14.9141C19.8906 14.3672 19.7917 13.8542 19.5938 13.375C19.3958 12.8906 19.112 12.4635 18.7422 12.0938C18.3724 11.7188 17.9323 11.4245 17.4219 11.2109C17.4219 10.3411 17.2786 9.54167 16.9922 8.8125C16.7057 8.07812 16.3021 7.44271 15.7812 6.90625C15.2656 6.36458 14.6615 5.94792 13.9688 5.65625C13.2812 5.35938 12.5365 5.21094 11.7344 5.21094C11.026 5.21094 10.3854 5.32552 9.8125 5.55469C9.24479 5.77865 8.73958 6.08073 8.29688 6.46094C7.85938 6.83594 7.48438 7.2526 7.17188 7.71094C6.69271 7.57031 6.21354 7.54948 5.73438 7.64844C5.26042 7.74219 4.82812 7.9349 4.4375 8.22656C4.04688 8.51302 3.73177 8.8776 3.49219 9.32031C3.2526 9.75781 3.1276 10.25 3.11719 10.7969C2.52865 10.8906 2.01823 11.1146 1.58594 11.4688C1.15885 11.8229 0.828125 12.2682 0.59375 12.8047C0.364583 13.3411 0.25 13.9271 0.25 14.5625C0.25 15.1354 0.367188 15.6771 0.601562 16.1875C0.835938 16.6979 1.16406 17.1484 1.58594 17.5391C2.01302 17.9245 2.51042 18.2292 3.07812 18.4531C3.64583 18.6771 4.26302 18.7891 4.92969 18.7891H15.6875ZM15.6875 17.5312H4.92969C4.27344 17.5312 3.6875 17.3958 3.17188 17.125C2.65625 16.849 2.25 16.487 1.95312 16.0391C1.65625 15.5859 1.50781 15.0938 1.50781 14.5625C1.50781 14.0417 1.60938 13.5703 1.8125 13.1484C2.01562 12.7214 2.3099 12.3828 2.69531 12.1328C3.08594 11.8828 3.55729 11.7578 4.10938 11.7578C4.20833 11.7578 4.25781 11.7057 4.25781 11.6016C4.25781 10.9974 4.35417 10.5 4.54688 10.1094C4.74479 9.71354 5.00521 9.41406 5.32812 9.21094C5.65104 9.0026 6.00781 8.88542 6.39844 8.85938C6.79427 8.82812 7.19271 8.8776 7.59375 9.00781C7.68229 9.03385 7.7474 9.00781 7.78906 8.92969C8.04427 8.48177 8.34896 8.07031 8.70312 7.69531C9.05729 7.32031 9.48177 7.02344 9.97656 6.80469C10.4766 6.58073 11.0625 6.46875 11.7344 6.46875C12.5885 6.46875 13.3438 6.67188 14 7.07812C14.6562 7.47917 15.1771 8.01042 15.5625 8.67188C15.9479 9.33333 16.1615 10.0495 16.2031 10.8203C16.2135 11.0026 16.2135 11.1953 16.2031 11.3984C16.1979 11.5964 16.1875 11.7865 16.1719 11.9688C16.1615 12.0677 16.2031 12.1276 16.2969 12.1484C17.0052 12.3047 17.5703 12.6276 17.9922 13.1172C18.4193 13.6068 18.6328 14.2057 18.6328 14.9141C18.6328 15.3984 18.5026 15.8385 18.2422 16.2344C17.9818 16.6302 17.6276 16.9453 17.1797 17.1797C16.737 17.4141 16.2396 17.5312 15.6875 17.5312Z"
		fill="currentColor"
	/>
</svg>
