<svg
	color="rgb(var(--foreground, 0, 0, 0))"
	viewBox="0 0 21 24"
	fill="none"
	xmlns="http://www.w3.org/2000/svg"
>
	<path
		d="M4.69531 16.0938H9.54688V11.3047C9.54688 11.0964 9.6224 10.9167 9.77344 10.7656C9.92969 10.6146 10.1146 10.5391 10.3281 10.5391C10.5365 10.5391 10.7161 10.6146 10.8672 10.7656C11.0234 10.9167 11.1016 11.0964 11.1016 11.3047V16.0938H16.3359C17.0859 16.0938 17.7422 15.9505 18.3047 15.6641C18.8672 15.3776 19.3047 14.9896 19.6172 14.5C19.9349 14.0052 20.0938 13.4505 20.0938 12.8359C20.0938 12.0703 19.8724 11.3646 19.4297 10.7188C18.9922 10.0677 18.3906 9.58333 17.625 9.26562C17.625 8.39583 17.4818 7.59635 17.1953 6.86719C16.9089 6.13281 16.5052 5.4974 15.9844 4.96094C15.4688 4.42448 14.8646 4.00781 14.1719 3.71094C13.4844 3.41406 12.7396 3.26562 11.9375 3.26562C11.2292 3.26562 10.5885 3.38021 10.0156 3.60938C9.44792 3.83333 8.94271 4.13542 8.5 4.51562C8.0625 4.89583 7.6875 5.3125 7.375 5.76562C6.93229 5.64583 6.47396 5.63542 6 5.73438C5.53125 5.83333 5.09635 6.02604 4.69531 6.3125C4.29427 6.59375 3.96615 6.95052 3.71094 7.38281C3.46094 7.8151 3.33073 8.30729 3.32031 8.85938C2.73177 8.95312 2.22135 9.17448 1.78906 9.52344C1.36198 9.86719 1.03125 10.2995 0.796875 10.8203C0.567708 11.3359 0.453125 11.8958 0.453125 12.5C0.453125 13.1667 0.627604 13.7708 0.976562 14.3125C1.33073 14.8542 1.82552 15.2865 2.46094 15.6094C3.09635 15.9323 3.84115 16.0938 4.69531 16.0938ZM10.3281 20.7344C10.4062 20.7344 10.4792 20.7188 10.5469 20.6875C10.6198 20.6562 10.6953 20.6016 10.7734 20.5234L13.4141 17.9766C13.5391 17.8516 13.6016 17.7135 13.6016 17.5625C13.6016 17.4062 13.5469 17.276 13.4375 17.1719C13.3281 17.0677 13.1927 17.0156 13.0312 17.0156C12.8594 17.0156 12.7188 17.0781 12.6094 17.2031L11.4219 18.4688L10.8984 19.0156L10.9453 17.8516V16.0859C10.9453 15.9193 10.8828 15.776 10.7578 15.6562C10.638 15.5365 10.4948 15.4766 10.3281 15.4766C10.1562 15.4766 10.0078 15.5365 9.88281 15.6562C9.76302 15.776 9.70312 15.9193 9.70312 16.0859V17.8516L9.75 19.0234L9.22656 18.4688L8.03906 17.2031C7.92969 17.0781 7.78646 17.0156 7.60938 17.0156C7.44792 17.0156 7.3125 17.0677 7.20312 17.1719C7.09896 17.276 7.04688 17.4062 7.04688 17.5625C7.04688 17.7135 7.10938 17.8516 7.23438 17.9766L9.875 20.5234C9.95312 20.6016 10.026 20.6562 10.0938 20.6875C10.1667 20.7188 10.2448 20.7344 10.3281 20.7344Z"
		fill="currentColor"
	/>
</svg>
