<svg
	color="rgb(var(--foreground, 0, 0, 0))"
	viewBox="0 0 21 24"
	fill="none"
	xmlns="http://www.w3.org/2000/svg"
>
	<path
		d="M15.9219 18.7891C16.5104 18.7891 17.0599 18.6875 17.5703 18.4844C18.0807 18.2865 18.526 18.0104 18.9062 17.6562C19.2917 17.3021 19.5911 16.8906 19.8047 16.4219C20.0182 15.9531 20.125 15.4505 20.125 14.9141C20.125 14.3672 20.026 13.8542 19.8281 13.375C19.6302 12.8906 19.3464 12.4635 18.9766 12.0938C18.6068 11.7188 18.1667 11.4245 17.6562 11.2109C17.6562 10.3411 17.513 9.54167 17.2266 8.8125C16.9401 8.07812 16.5365 7.44271 16.0156 6.90625C15.5 6.36458 14.8958 5.94792 14.2031 5.65625C13.5156 5.35938 12.7708 5.21094 11.9688 5.21094C11.2604 5.21094 10.6198 5.32552 10.0469 5.55469C9.47917 5.77865 8.97396 6.08073 8.53125 6.46094C8.09375 6.83594 7.71875 7.2526 7.40625 7.71094C6.92708 7.57031 6.44792 7.54948 5.96875 7.64844C5.49479 7.74219 5.0625 7.9349 4.67188 8.22656C4.28125 8.51302 3.96615 8.8776 3.72656 9.32031C3.48698 9.75781 3.36198 10.25 3.35156 10.7969C2.76302 10.8906 2.2526 11.1146 1.82031 11.4688C1.39323 11.8229 1.0625 12.2682 0.828125 12.8047C0.598958 13.3411 0.484375 13.9271 0.484375 14.5625C0.484375 15.1354 0.601562 15.6771 0.835938 16.1875C1.07031 16.6979 1.39844 17.1484 1.82031 17.5391C2.2474 17.9245 2.74479 18.2292 3.3125 18.4531C3.88021 18.6771 4.4974 18.7891 5.16406 18.7891H15.9219ZM9.75 15.7188C9.61979 15.7188 9.5 15.6901 9.39062 15.6328C9.28646 15.5755 9.1875 15.487 9.09375 15.3672L7.34375 13.1641C7.22396 13.0078 7.16406 12.849 7.16406 12.6875C7.16406 12.5 7.22656 12.3464 7.35156 12.2266C7.47656 12.1016 7.625 12.0391 7.79688 12.0391C8.03646 12.0391 8.22917 12.1432 8.375 12.3516L9.71875 14.1094L12.3906 9.64844C12.526 9.41406 12.7135 9.29688 12.9531 9.29688C13.1354 9.29688 13.2891 9.35417 13.4141 9.46875C13.5443 9.58333 13.6094 9.72656 13.6094 9.89844C13.6094 9.99219 13.5885 10.0807 13.5469 10.1641C13.5104 10.2474 13.474 10.3203 13.4375 10.3828L10.375 15.3594C10.2292 15.599 10.0208 15.7188 9.75 15.7188Z"
		fill="currentColor"
	/>
</svg>
