<svg
	color="rgb(var(--foreground, 0, 0, 0))"
	viewBox="0 0 20 24"
	fill="none"
	xmlns="http://www.w3.org/2000/svg"
>
	<path
		d="M15.5625 18.7891C16.151 18.7891 16.7005 18.6875 17.2109 18.4844C17.7214 18.2865 18.1667 18.0104 18.5469 17.6562C18.9323 17.3021 19.2318 16.8906 19.4453 16.4219C19.6589 15.9531 19.7656 15.4505 19.7656 14.9141C19.7656 14.3672 19.6667 13.8542 19.4688 13.375C19.2708 12.8906 18.987 12.4635 18.6172 12.0938C18.2474 11.7188 17.8073 11.4245 17.2969 11.2109C17.2969 10.3411 17.1536 9.54167 16.8672 8.8125C16.5807 8.07812 16.1771 7.44271 15.6562 6.90625C15.1406 6.36458 14.5365 5.94792 13.8438 5.65625C13.1562 5.35938 12.4115 5.21094 11.6094 5.21094C10.901 5.21094 10.2604 5.32552 9.6875 5.55469C9.11979 5.77865 8.61458 6.08073 8.17188 6.46094C7.73438 6.83594 7.35938 7.2526 7.04688 7.71094C6.56771 7.57031 6.08854 7.54948 5.60938 7.64844C5.13542 7.74219 4.70312 7.9349 4.3125 8.22656C3.92188 8.51302 3.60677 8.8776 3.36719 9.32031C3.1276 9.75781 3.0026 10.25 2.99219 10.7969C2.40365 10.8906 1.89323 11.1146 1.46094 11.4688C1.03385 11.8229 0.703125 12.2682 0.46875 12.8047C0.239583 13.3411 0.125 13.9271 0.125 14.5625C0.125 15.1354 0.242188 15.6771 0.476562 16.1875C0.710938 16.6979 1.03906 17.1484 1.46094 17.5391C1.88802 17.9245 2.38542 18.2292 2.95312 18.4531C3.52083 18.6771 4.13802 18.7891 4.80469 18.7891H15.5625ZM15.5625 17.5312H4.80469C4.14844 17.5312 3.5625 17.3958 3.04688 17.125C2.53125 16.849 2.125 16.487 1.82812 16.0391C1.53125 15.5859 1.38281 15.0938 1.38281 14.5625C1.38281 14.0417 1.48438 13.5703 1.6875 13.1484C1.89062 12.7214 2.1849 12.3828 2.57031 12.1328C2.96094 11.8828 3.43229 11.7578 3.98438 11.7578C4.08333 11.7578 4.13281 11.7057 4.13281 11.6016C4.13281 10.9974 4.22917 10.5 4.42188 10.1094C4.61979 9.71354 4.88021 9.41406 5.20312 9.21094C5.52604 9.0026 5.88281 8.88542 6.27344 8.85938C6.66927 8.82812 7.06771 8.8776 7.46875 9.00781C7.55729 9.03385 7.6224 9.00781 7.66406 8.92969C7.91927 8.48177 8.22396 8.07031 8.57812 7.69531C8.93229 7.32031 9.35677 7.02344 9.85156 6.80469C10.3516 6.58073 10.9375 6.46875 11.6094 6.46875C12.4635 6.46875 13.2188 6.67188 13.875 7.07812C14.5312 7.47917 15.0521 8.01042 15.4375 8.67188C15.8229 9.33333 16.0365 10.0495 16.0781 10.8203C16.0885 11.0026 16.0885 11.1953 16.0781 11.3984C16.0729 11.5964 16.0625 11.7865 16.0469 11.9688C16.0365 12.0677 16.0781 12.1276 16.1719 12.1484C16.8802 12.3047 17.4453 12.6276 17.8672 13.1172C18.2943 13.6068 18.5078 14.2057 18.5078 14.9141C18.5078 15.3984 18.3776 15.8385 18.1172 16.2344C17.8568 16.6302 17.5026 16.9453 17.0547 17.1797C16.612 17.4141 16.1146 17.5312 15.5625 17.5312ZM8.44531 15.2734L9.94531 13.7734L11.4453 15.2734C11.5599 15.388 11.6901 15.4401 11.8359 15.4297C11.9818 15.4141 12.1042 15.3568 12.2031 15.2578C12.3073 15.1589 12.3646 15.0365 12.375 14.8906C12.3906 14.7396 12.3411 14.6094 12.2266 14.5L10.7266 12.9922L12.2266 11.4844C12.3411 11.375 12.3906 11.2474 12.375 11.1016C12.3646 10.9557 12.3099 10.8307 12.2109 10.7266C12.112 10.6276 11.987 10.5729 11.8359 10.5625C11.6901 10.5469 11.5599 10.5964 11.4453 10.7109L9.94531 12.2109L8.44531 10.7109C8.33073 10.5964 8.20052 10.5469 8.05469 10.5625C7.90885 10.5729 7.78385 10.6276 7.67969 10.7266C7.58073 10.8255 7.52344 10.9505 7.50781 11.1016C7.4974 11.2474 7.54688 11.375 7.65625 11.4844L9.16406 12.9922L7.65625 14.5C7.54688 14.6094 7.4974 14.737 7.50781 14.8828C7.52344 15.0286 7.58073 15.151 7.67969 15.25C7.77865 15.3542 7.90104 15.4141 8.04688 15.4297C8.19792 15.4401 8.33073 15.388 8.44531 15.2734Z"
		fill="currentColor"
	/>
</svg>
