<svg
	color="rgb(var(--foreground, 0, 0, 0))"
	viewBox="0 0 21 24"
	fill="none"
	xmlns="http://www.w3.org/2000/svg"
>
	<path
		d="M16.125 18.7891C16.7135 18.7891 17.263 18.6875 17.7734 18.4844C18.2839 18.2865 18.7292 18.0104 19.1094 17.6562C19.4948 17.3021 19.7943 16.8906 20.0078 16.4219C20.2214 15.9531 20.3281 15.4505 20.3281 14.9141C20.3281 14.3672 20.2292 13.8542 20.0312 13.375C19.8333 12.8906 19.5495 12.4635 19.1797 12.0938C18.8099 11.7188 18.3698 11.4245 17.8594 11.2109C17.8594 10.3411 17.7161 9.54167 17.4297 8.8125C17.1432 8.07812 16.7396 7.44271 16.2188 6.90625C15.7031 6.36458 15.099 5.94792 14.4062 5.65625C13.7188 5.35938 12.974 5.21094 12.1719 5.21094C11.4635 5.21094 10.8229 5.32552 10.25 5.55469C9.68229 5.77865 9.17708 6.08073 8.73438 6.46094C8.29688 6.83594 7.92188 7.2526 7.60938 7.71094C7.13021 7.57031 6.65104 7.54948 6.17188 7.64844C5.69792 7.74219 5.26562 7.9349 4.875 8.22656C4.48438 8.51302 4.16927 8.8776 3.92969 9.32031C3.6901 9.75781 3.5651 10.25 3.55469 10.7969C2.96615 10.8906 2.45573 11.1146 2.02344 11.4688C1.59635 11.8229 1.26562 12.2682 1.03125 12.8047C0.802083 13.3411 0.6875 13.9271 0.6875 14.5625C0.6875 15.1354 0.804688 15.6771 1.03906 16.1875C1.27344 16.6979 1.60156 17.1484 2.02344 17.5391C2.45052 17.9245 2.94792 18.2292 3.51562 18.4531C4.08333 18.6771 4.70052 18.7891 5.36719 18.7891H16.125ZM16.125 17.5312H5.36719C4.71094 17.5312 4.125 17.3958 3.60938 17.125C3.09375 16.849 2.6875 16.487 2.39062 16.0391C2.09375 15.5859 1.94531 15.0938 1.94531 14.5625C1.94531 14.0417 2.04688 13.5703 2.25 13.1484C2.45312 12.7214 2.7474 12.3828 3.13281 12.1328C3.52344 11.8828 3.99479 11.7578 4.54688 11.7578C4.64583 11.7578 4.69531 11.7057 4.69531 11.6016C4.69531 10.9974 4.79167 10.5 4.98438 10.1094C5.18229 9.71354 5.44271 9.41406 5.76562 9.21094C6.08854 9.0026 6.44531 8.88542 6.83594 8.85938C7.23177 8.82812 7.63021 8.8776 8.03125 9.00781C8.11979 9.03385 8.1849 9.00781 8.22656 8.92969C8.48177 8.48177 8.78646 8.07031 9.14062 7.69531C9.49479 7.32031 9.91927 7.02344 10.4141 6.80469C10.9141 6.58073 11.5 6.46875 12.1719 6.46875C13.026 6.46875 13.7812 6.67188 14.4375 7.07812C15.0938 7.47917 15.6146 8.01042 16 8.67188C16.3854 9.33333 16.599 10.0495 16.6406 10.8203C16.651 11.0026 16.651 11.1953 16.6406 11.3984C16.6354 11.5964 16.625 11.7865 16.6094 11.9688C16.599 12.0677 16.6406 12.1276 16.7344 12.1484C17.4427 12.3047 18.0078 12.6276 18.4297 13.1172C18.8568 13.6068 19.0703 14.2057 19.0703 14.9141C19.0703 15.3984 18.9401 15.8385 18.6797 16.2344C18.4193 16.6302 18.0651 16.9453 17.6172 17.1797C17.1745 17.4141 16.6771 17.5312 16.125 17.5312ZM6.21875 12.9062C6.21875 13.3333 6.32292 13.724 6.53125 14.0781C6.73958 14.4271 7.01823 14.7057 7.36719 14.9141C7.72135 15.1224 8.11198 15.2266 8.53906 15.2266C9.03906 15.2266 9.48698 15.0755 9.88281 14.7734C10.2839 14.4714 10.5964 14.0391 10.8203 13.4766L11.8047 14.4453C11.8411 14.487 11.8828 14.5104 11.9297 14.5156C11.9818 14.5156 12.0234 14.4974 12.0547 14.4609L13.0391 13.4688L13.75 14.1875C13.7865 14.2292 13.8281 14.25 13.875 14.25C13.9271 14.25 13.974 14.2292 14.0156 14.1875L15.1562 13.0312C15.1979 12.9948 15.2161 12.9531 15.2109 12.9062C15.2109 12.8542 15.1927 12.8125 15.1562 12.7812L14.5547 12.1719C14.4818 12.1042 14.4036 12.0703 14.3203 12.0703H10.7188C10.5469 11.6172 10.263 11.2552 9.86719 10.9844C9.47135 10.7135 9.02865 10.5781 8.53906 10.5781C8.11198 10.5781 7.72135 10.6823 7.36719 10.8906C7.01823 11.099 6.73958 11.3802 6.53125 11.7344C6.32292 12.0833 6.21875 12.474 6.21875 12.9062ZM7.33594 12.8984C7.33594 12.7005 7.40625 12.5339 7.54688 12.3984C7.6875 12.2578 7.85417 12.1875 8.04688 12.1875C8.25 12.1875 8.42188 12.2578 8.5625 12.3984C8.70312 12.5391 8.77344 12.7057 8.77344 12.8984C8.77344 13.0964 8.70312 13.2656 8.5625 13.4062C8.42188 13.5417 8.25 13.6094 8.04688 13.6094C7.85417 13.6094 7.6875 13.5417 7.54688 13.4062C7.40625 13.2656 7.33594 13.0964 7.33594 12.8984Z"
		fill="currentColor"
	/>
</svg>
