<svg
	color="rgb(var(--foreground, 0, 0, 0))"
	viewBox="0 0 20 24"
	fill="none"
	xmlns="http://www.w3.org/2000/svg"
>
	<path
		d="M15.7656 18.7891C16.3542 18.7891 16.9037 18.6875 17.4141 18.4844C17.9245 18.2865 18.3698 18.0104 18.75 17.6562C19.1354 17.3021 19.4349 16.8906 19.6485 16.4219C19.862 15.9531 19.9688 15.4505 19.9688 14.9141C19.9688 14.3672 19.8698 13.8542 19.6719 13.375C19.474 12.8906 19.1901 12.4635 18.8203 12.0938C18.4505 11.7188 18.0104 11.4245 17.5 11.2109C17.5 10.3411 17.3568 9.54167 17.0703 8.8125C16.7839 8.07812 16.3802 7.44271 15.8594 6.90625C15.3438 6.36458 14.7396 5.94792 14.0469 5.65625C13.3594 5.35938 12.6146 5.21094 11.8125 5.21094C11.1042 5.21094 10.4635 5.32552 9.89062 5.55469C9.32292 5.77865 8.81771 6.08073 8.375 6.46094C7.9375 6.83594 7.5625 7.2526 7.25 7.71094C6.77083 7.57031 6.29167 7.54948 5.8125 7.64844C5.33854 7.74219 4.90625 7.9349 4.51562 8.22656C4.125 8.51302 3.8099 8.8776 3.57031 9.32031C3.33073 9.75781 3.20573 10.25 3.19531 10.7969C2.60677 10.8906 2.09635 11.1146 1.66406 11.4688C1.23698 11.8229 0.90625 12.2682 0.671875 12.8047C0.442708 13.3411 0.328125 13.9271 0.328125 14.5625C0.328125 15.1354 0.445312 15.6771 0.679688 16.1875C0.914062 16.6979 1.24219 17.1484 1.66406 17.5391C2.09115 17.9245 2.58854 18.2292 3.15625 18.4531C3.72396 18.6771 4.34115 18.7891 5.00781 18.7891H15.7656ZM5.71875 12.9062C5.71875 12.4635 5.82552 12.0599 6.03906 11.6953C6.25781 11.3307 6.54688 11.0417 6.90625 10.8281C7.27083 10.6146 7.67188 10.5078 8.10938 10.5078C8.61458 10.5078 9.07031 10.6484 9.47656 10.9297C9.88802 11.2057 10.1823 11.5781 10.3594 12.0469H14.0781C14.1615 12.0469 14.2422 12.0807 14.3203 12.1484L14.9375 12.7734C14.974 12.8099 14.9922 12.8542 14.9922 12.9062C14.9974 12.9531 14.9792 12.9974 14.9375 13.0391L13.7578 14.2266C13.7162 14.2734 13.6693 14.2969 13.6172 14.2969C13.5703 14.2969 13.5261 14.2734 13.4844 14.2266L12.75 13.4844L11.7344 14.5078C11.7031 14.5495 11.6615 14.5677 11.6094 14.5625C11.5625 14.5573 11.5182 14.5339 11.4766 14.4922L10.4609 13.4922C10.2318 14.0755 9.91146 14.5234 9.5 14.8359C9.08854 15.1432 8.625 15.2969 8.10938 15.2969C7.67188 15.2969 7.27083 15.1901 6.90625 14.9766C6.54688 14.763 6.25781 14.4766 6.03906 14.1172C5.82552 13.7526 5.71875 13.349 5.71875 12.9062ZM6.86719 12.8984C6.86719 13.1016 6.9401 13.276 7.08594 13.4219C7.23177 13.5625 7.40365 13.6328 7.60156 13.6328C7.8151 13.6328 7.99219 13.5625 8.13281 13.4219C8.27865 13.276 8.35156 13.1016 8.35156 12.8984C8.35156 12.6953 8.27865 12.5234 8.13281 12.3828C7.99219 12.237 7.8151 12.1641 7.60156 12.1641C7.40365 12.1641 7.23177 12.2344 7.08594 12.375C6.9401 12.5156 6.86719 12.6901 6.86719 12.8984Z"
		fill="currentColor"
	/>
</svg>
