<svg
	color="rgb(var(--foreground, 0, 0, 0))"
	viewBox="0 0 20 24"
	fill="none"
	xmlns="http://www.w3.org/2000/svg"
>
	<path
		d="M15.6094 18.7891C16.1979 18.7891 16.7474 18.6875 17.2578 18.4844C17.7682 18.2865 18.2135 18.0104 18.5938 17.6562C18.9792 17.3021 19.2786 16.8906 19.4922 16.4219C19.7057 15.9531 19.8125 15.4505 19.8125 14.9141C19.8125 14.3672 19.7135 13.8542 19.5156 13.375C19.3177 12.8906 19.0339 12.4635 18.6641 12.0938C18.2943 11.7188 17.8542 11.4245 17.3438 11.2109C17.3438 10.3411 17.2005 9.54167 16.9141 8.8125C16.6276 8.07812 16.224 7.44271 15.7031 6.90625C15.1875 6.36458 14.5833 5.94792 13.8906 5.65625C13.2031 5.35938 12.4583 5.21094 11.6562 5.21094C10.9479 5.21094 10.3073 5.32552 9.73438 5.55469C9.16667 5.77865 8.66146 6.08073 8.21875 6.46094C7.78125 6.83594 7.40625 7.2526 7.09375 7.71094C6.61458 7.57031 6.13542 7.54948 5.65625 7.64844C5.18229 7.74219 4.75 7.9349 4.35938 8.22656C3.96875 8.51302 3.65365 8.8776 3.41406 9.32031C3.17448 9.75781 3.04948 10.25 3.03906 10.7969C2.45052 10.8906 1.9401 11.1146 1.50781 11.4688C1.08073 11.8229 0.75 12.2682 0.515625 12.8047C0.286458 13.3411 0.171875 13.9271 0.171875 14.5625C0.171875 15.1354 0.289062 15.6771 0.523438 16.1875C0.757812 16.6979 1.08594 17.1484 1.50781 17.5391C1.9349 17.9245 2.43229 18.2292 3 18.4531C3.56771 18.6771 4.1849 18.7891 4.85156 18.7891H15.6094ZM13.4062 12.9688C13.4062 13.5781 13.2604 14.1328 12.9688 14.6328C12.6771 15.1276 12.2865 15.5208 11.7969 15.8125C11.3073 16.1042 10.7604 16.25 10.1562 16.25C9.55729 16.25 9.01302 16.1042 8.52344 15.8125C8.03385 15.5208 7.64323 15.1302 7.35156 14.6406C7.0599 14.1458 6.91406 13.5964 6.91406 12.9922C6.91406 12.8568 6.96354 12.7422 7.0625 12.6484C7.16146 12.5495 7.27865 12.5 7.41406 12.5C7.55469 12.5 7.67448 12.5495 7.77344 12.6484C7.8724 12.7422 7.92188 12.8568 7.92188 12.9922C7.92188 13.4089 8.02083 13.7891 8.21875 14.1328C8.42188 14.4714 8.69271 14.7422 9.03125 14.9453C9.36979 15.1484 9.74479 15.25 10.1562 15.25C10.5729 15.25 10.9505 15.1484 11.2891 14.9453C11.6276 14.7422 11.8958 14.4714 12.0938 14.1328C12.2969 13.7891 12.3984 13.4089 12.3984 12.9922C12.3984 12.5807 12.2969 12.2057 12.0938 11.8672C11.8958 11.5286 11.6276 11.2604 11.2891 11.0625C10.9505 10.8594 10.5729 10.7578 10.1562 10.7578C10.0625 10.7578 9.97917 10.7656 9.90625 10.7812L10.6016 11.4688C10.6953 11.5625 10.7422 11.6719 10.7422 11.7969C10.7422 11.9323 10.6953 12.0443 10.6016 12.1328C10.513 12.2214 10.4036 12.2656 10.2734 12.2656C10.1536 12.2656 10.0495 12.2214 9.96094 12.1328L8.55469 10.7266C8.46615 10.638 8.42188 10.5234 8.42188 10.3828C8.42188 10.2422 8.46615 10.1302 8.55469 10.0469L9.94531 8.625C9.98698 8.57812 10.0365 8.54167 10.0938 8.51562C10.1562 8.48958 10.2188 8.47656 10.2812 8.47656C10.4062 8.47656 10.513 8.52344 10.6016 8.61719C10.6953 8.71094 10.7422 8.82292 10.7422 8.95312C10.7422 9.01042 10.7292 9.07031 10.7031 9.13281C10.6823 9.1901 10.651 9.23958 10.6094 9.28125L10.1094 9.80469C10.1406 9.79948 10.1719 9.79688 10.2031 9.79688C10.2344 9.79167 10.2656 9.78906 10.2969 9.78906C10.8438 9.78906 11.3516 9.92969 11.8203 10.2109C12.2943 10.4922 12.6771 10.875 12.9688 11.3594C13.2604 11.8385 13.4062 12.375 13.4062 12.9688Z"
		fill="currentColor"
	/>
</svg>
