<svg
	color="rgb(var(--foreground, 0, 0, 0))"
	viewBox="0 0 21 24"
	fill="none"
	xmlns="http://www.w3.org/2000/svg"
>
	<path
		d="M7.69531 15.3984C7.69531 15.9141 7.9349 16.1719 8.41406 16.1719H12.0469C12.526 16.1719 12.7656 15.9141 12.7656 15.3984V12.6094C12.7656 12.1302 12.5599 11.8776 12.1484 11.8516V11.0234C12.1484 10.3776 11.9714 9.85677 11.6172 9.46094C11.263 9.0651 10.8021 8.86719 10.2344 8.86719C9.66146 8.86719 9.19792 9.0651 8.84375 9.46094C8.48958 9.85677 8.3125 10.3776 8.3125 11.0234V11.8516C7.90104 11.8776 7.69531 12.1302 7.69531 12.6094V15.3984ZM9.04688 11.8438V10.9453C9.04688 10.5339 9.15365 10.2031 9.36719 9.95312C9.58594 9.70312 9.875 9.57812 10.2344 9.57812C10.5885 9.57812 10.8724 9.70312 11.0859 9.95312C11.3047 10.2031 11.4141 10.5339 11.4141 10.9453V11.8438H9.04688ZM15.8438 18.7891C16.4323 18.7891 16.9818 18.6875 17.4922 18.4844C18.0026 18.2865 18.4479 18.0104 18.8281 17.6562C19.2135 17.3021 19.513 16.8906 19.7266 16.4219C19.9401 15.9531 20.0469 15.4505 20.0469 14.9141C20.0469 14.3672 19.9479 13.8542 19.75 13.375C19.5521 12.8906 19.2682 12.4635 18.8984 12.0938C18.5286 11.7188 18.0885 11.4245 17.5781 11.2109C17.5781 10.3411 17.4349 9.54167 17.1484 8.8125C16.862 8.07812 16.4583 7.44271 15.9375 6.90625C15.4219 6.36458 14.8177 5.94792 14.125 5.65625C13.4375 5.35938 12.6927 5.21094 11.8906 5.21094C11.1823 5.21094 10.5417 5.32552 9.96875 5.55469C9.40104 5.77865 8.89583 6.08073 8.45312 6.46094C8.01562 6.83594 7.64062 7.2526 7.32812 7.71094C6.84896 7.57031 6.36979 7.54948 5.89062 7.64844C5.41667 7.74219 4.98438 7.9349 4.59375 8.22656C4.20312 8.51302 3.88802 8.8776 3.64844 9.32031C3.40885 9.75781 3.28385 10.25 3.27344 10.7969C2.6849 10.8906 2.17448 11.1146 1.74219 11.4688C1.3151 11.8229 0.984375 12.2682 0.75 12.8047C0.520833 13.3411 0.40625 13.9271 0.40625 14.5625C0.40625 15.1354 0.523438 15.6771 0.757812 16.1875C0.992188 16.6979 1.32031 17.1484 1.74219 17.5391C2.16927 17.9245 2.66667 18.2292 3.23438 18.4531C3.80208 18.6771 4.41927 18.7891 5.08594 18.7891H15.8438ZM15.8438 17.5312H5.08594C4.42969 17.5312 3.84375 17.3958 3.32812 17.125C2.8125 16.849 2.40625 16.487 2.10938 16.0391C1.8125 15.5859 1.66406 15.0938 1.66406 14.5625C1.66406 14.0417 1.76562 13.5703 1.96875 13.1484C2.17188 12.7214 2.46615 12.3828 2.85156 12.1328C3.24219 11.8828 3.71354 11.7578 4.26562 11.7578C4.36458 11.7578 4.41406 11.7057 4.41406 11.6016C4.41406 10.9974 4.51042 10.5 4.70312 10.1094C4.90104 9.71354 5.16146 9.41406 5.48438 9.21094C5.80729 9.0026 6.16406 8.88542 6.55469 8.85938C6.95052 8.82812 7.34896 8.8776 7.75 9.00781C7.83854 9.03385 7.90365 9.00781 7.94531 8.92969C8.20052 8.48177 8.50521 8.07031 8.85938 7.69531C9.21354 7.32031 9.63802 7.02344 10.1328 6.80469C10.6328 6.58073 11.2188 6.46875 11.8906 6.46875C12.7448 6.46875 13.5 6.67188 14.1562 7.07812C14.8125 7.47917 15.3333 8.01042 15.7188 8.67188C16.1042 9.33333 16.3177 10.0495 16.3594 10.8203C16.3698 11.0026 16.3698 11.1953 16.3594 11.3984C16.3542 11.5964 16.3438 11.7865 16.3281 11.9688C16.3177 12.0677 16.3594 12.1276 16.4531 12.1484C17.1615 12.3047 17.7266 12.6276 18.1484 13.1172C18.5755 13.6068 18.7891 14.2057 18.7891 14.9141C18.7891 15.3984 18.6589 15.8385 18.3984 16.2344C18.138 16.6302 17.7839 16.9453 17.3359 17.1797C16.8932 17.4141 16.3958 17.5312 15.8438 17.5312Z"
		fill="currentColor"
	/>
</svg>
