<svg
	color="rgb(var(--foreground, 0, 0, 0))"
	viewBox="0 0 21 24"
	fill="none"
	xmlns="http://www.w3.org/2000/svg"
>
	<path
		d="M6.85938 17.4062C7.04688 16.9844 7.33594 16.5677 7.72656 16.1562C8.11719 15.7448 8.60677 15.4062 9.19531 15.1406C9.78385 14.8698 10.4714 14.7344 11.2578 14.7344C12.0443 14.7344 12.7318 14.8698 13.3203 15.1406C13.9089 15.4062 14.3984 15.7448 14.7891 16.1562C15.1797 16.5677 15.4688 16.9844 15.6562 17.4062H6.85938ZM11.2578 13.7656C10.8672 13.7604 10.5104 13.6536 10.1875 13.4453C9.86458 13.2318 9.60677 12.9505 9.41406 12.6016C9.22656 12.2474 9.13281 11.8594 9.13281 11.4375C9.13281 11.0208 9.22656 10.6432 9.41406 10.3047C9.60677 9.96094 9.86458 9.6875 10.1875 9.48438C10.5104 9.27604 10.8672 9.17188 11.2578 9.17188C11.6484 9.17188 12.0026 9.27604 12.3203 9.48438C12.6432 9.6875 12.901 9.96094 13.0938 10.3047C13.2865 10.6432 13.3828 11.0208 13.3828 11.4375C13.3828 11.8594 13.2865 12.2474 13.0938 12.6016C12.901 12.9557 12.6432 13.2396 12.3203 13.4531C12.0026 13.6667 11.6484 13.7708 11.2578 13.7656ZM16.3281 18.7891C16.9167 18.7891 17.4661 18.6875 17.9766 18.4844C18.487 18.2865 18.9323 18.0104 19.3125 17.6562C19.6979 17.3021 19.9974 16.8906 20.2109 16.4219C20.4245 15.9531 20.5312 15.4505 20.5312 14.9141C20.5312 14.3672 20.4323 13.8542 20.2344 13.375C20.0365 12.8906 19.7526 12.4635 19.3828 12.0938C19.013 11.7188 18.5729 11.4245 18.0625 11.2109C18.0625 10.3411 17.9193 9.54167 17.6328 8.8125C17.3464 8.07812 16.9427 7.44271 16.4219 6.90625C15.9062 6.36458 15.3021 5.94792 14.6094 5.65625C13.9219 5.35938 13.1771 5.21094 12.375 5.21094C11.6667 5.21094 11.026 5.32552 10.4531 5.55469C9.88542 5.77865 9.38021 6.08073 8.9375 6.46094C8.5 6.83594 8.125 7.2526 7.8125 7.71094C7.33333 7.57031 6.85417 7.54948 6.375 7.64844C5.90104 7.74219 5.46875 7.9349 5.07812 8.22656C4.6875 8.51302 4.3724 8.8776 4.13281 9.32031C3.89323 9.75781 3.76823 10.25 3.75781 10.7969C3.16927 10.8906 2.65885 11.1146 2.22656 11.4688C1.79948 11.8229 1.46875 12.2682 1.23438 12.8047C1.00521 13.3411 0.890625 13.9271 0.890625 14.5625C0.890625 15.1354 1.00781 15.6771 1.24219 16.1875C1.47656 16.6979 1.80469 17.1484 2.22656 17.5391C2.65365 17.9245 3.15104 18.2292 3.71875 18.4531C4.28646 18.6771 4.90365 18.7891 5.57031 18.7891H16.3281Z"
		fill="currentColor"
	/>
</svg>
