<svg
	color="rgb(var(--foreground, 0, 0, 0))"
	viewBox="0 0 20 24"
	fill="none"
	xmlns="http://www.w3.org/2000/svg"
>
	<path
		d="M15.4844 18.7891C16.0729 18.7891 16.6224 18.6875 17.1328 18.4844C17.6432 18.2865 18.0885 18.0104 18.4688 17.6562C18.8542 17.3021 19.1536 16.8906 19.3672 16.4219C19.5807 15.9531 19.6875 15.4505 19.6875 14.9141C19.6875 14.3672 19.5885 13.8542 19.3906 13.375C19.1927 12.8906 18.9089 12.4635 18.5391 12.0938C18.1693 11.7188 17.7292 11.4245 17.2188 11.2109C17.2188 10.3411 17.0755 9.54167 16.7891 8.8125C16.5026 8.07812 16.099 7.44271 15.5781 6.90625C15.0625 6.36458 14.4583 5.94792 13.7656 5.65625C13.0781 5.35938 12.3333 5.21094 11.5312 5.21094C10.8229 5.21094 10.1823 5.32552 9.60938 5.55469C9.04167 5.77865 8.53646 6.08073 8.09375 6.46094C7.65625 6.83594 7.28125 7.2526 6.96875 7.71094C6.48958 7.57031 6.01042 7.54948 5.53125 7.64844C5.05729 7.74219 4.625 7.9349 4.23438 8.22656C3.84375 8.51302 3.52865 8.8776 3.28906 9.32031C3.04948 9.75781 2.92448 10.25 2.91406 10.7969C2.32552 10.8906 1.8151 11.1146 1.38281 11.4688C0.955729 11.8229 0.625 12.2682 0.390625 12.8047C0.161458 13.3411 0.046875 13.9271 0.046875 14.5625C0.046875 15.1354 0.164062 15.6771 0.398438 16.1875C0.632812 16.6979 0.960938 17.1484 1.38281 17.5391C1.8099 17.9245 2.30729 18.2292 2.875 18.4531C3.44271 18.6771 4.0599 18.7891 4.72656 18.7891H15.4844ZM7.26562 15.4922V12.6094C7.26562 12.1094 7.47396 11.849 7.89062 11.8281V10.9766C7.89062 10.3099 8.07292 9.77344 8.4375 9.36719C8.80729 8.95573 9.28646 8.75 9.875 8.75C10.4635 8.75 10.9401 8.95573 11.3047 9.36719C11.6693 9.77344 11.8516 10.3099 11.8516 10.9766V11.8281C12.2734 11.849 12.4844 12.1094 12.4844 12.6094V15.4922C12.4844 16.013 12.237 16.2734 11.7422 16.2734H8C7.51042 16.2734 7.26562 16.013 7.26562 15.4922ZM8.65625 11.8203H11.0938V10.8906C11.0938 10.4688 10.9818 10.1276 10.7578 9.86719C10.5339 9.60677 10.2396 9.47656 9.875 9.47656C9.51042 9.47656 9.21615 9.60677 8.99219 9.86719C8.76823 10.1276 8.65625 10.4688 8.65625 10.8906V11.8203Z"
		fill="currentColor"
	/>
</svg>
