<svg
	color="rgb(var(--foreground, 0, 0, 0))"
	viewBox="0 0 21 24"
	fill="none"
	xmlns="http://www.w3.org/2000/svg"
>
	<path
		d="M16.2031 18.7891C16.7917 18.7891 17.3411 18.6875 17.8516 18.4844C18.362 18.2865 18.8073 18.0104 19.1875 17.6562C19.5729 17.3021 19.8724 16.8906 20.0859 16.4219C20.2995 15.9531 20.4062 15.4505 20.4062 14.9141C20.4062 14.3672 20.3073 13.8542 20.1094 13.375C19.9115 12.8906 19.6276 12.4635 19.2578 12.0938C18.888 11.7188 18.4479 11.4245 17.9375 11.2109C17.9375 10.3411 17.7943 9.54167 17.5078 8.8125C17.2214 8.07812 16.8177 7.44271 16.2969 6.90625C15.7812 6.36458 15.1771 5.94792 14.4844 5.65625C13.7969 5.35938 13.0521 5.21094 12.25 5.21094C11.5417 5.21094 10.901 5.32552 10.3281 5.55469C9.76042 5.77865 9.25521 6.08073 8.8125 6.46094C8.375 6.83594 8 7.2526 7.6875 7.71094C7.20833 7.57031 6.72917 7.54948 6.25 7.64844C5.77604 7.74219 5.34375 7.9349 4.95312 8.22656C4.5625 8.51302 4.2474 8.8776 4.00781 9.32031C3.76823 9.75781 3.64323 10.25 3.63281 10.7969C3.04427 10.8906 2.53385 11.1146 2.10156 11.4688C1.67448 11.8229 1.34375 12.2682 1.10938 12.8047C0.880208 13.3411 0.765625 13.9271 0.765625 14.5625C0.765625 15.1354 0.882812 15.6771 1.11719 16.1875C1.35156 16.6979 1.67969 17.1484 2.10156 17.5391C2.52865 17.9245 3.02604 18.2292 3.59375 18.4531C4.16146 18.6771 4.77865 18.7891 5.44531 18.7891H16.2031ZM8.97656 15.4531C8.84635 15.5729 8.70312 15.6276 8.54688 15.6172C8.39062 15.6016 8.25521 15.5391 8.14062 15.4297C8.02604 15.3255 7.96354 15.1953 7.95312 15.0391C7.94271 14.8776 8 14.7344 8.125 14.6094L9.72656 12.9922L8.125 11.375C8 11.25 7.94531 11.1094 7.96094 10.9531C7.97656 10.7969 8.03646 10.6615 8.14062 10.5469C8.25 10.4323 8.38281 10.3724 8.53906 10.3672C8.70052 10.3568 8.84635 10.4115 8.97656 10.5312L10.5859 12.1328L12.1953 10.5312C12.3203 10.4062 12.4609 10.3516 12.6172 10.3672C12.7786 10.3828 12.9167 10.4427 13.0312 10.5469C13.1458 10.6562 13.2057 10.7917 13.2109 10.9531C13.2214 11.1094 13.1667 11.25 13.0469 11.375L11.4453 12.9922L13.0469 14.6094C13.1667 14.7344 13.2188 14.875 13.2031 15.0312C13.1927 15.1875 13.1328 15.3229 13.0234 15.4375C12.9193 15.5521 12.7865 15.6146 12.625 15.625C12.4635 15.6302 12.3203 15.5729 12.1953 15.4531L10.5859 13.8516L8.97656 15.4531Z"
		fill="currentColor"
	/>
</svg>
