<svg
	color="rgb(var(--foreground, 0, 0, 0))"
	viewBox="0 0 21 24"
	fill="none"
	xmlns="http://www.w3.org/2000/svg"
>
	<path
		d="M0.734375 12.8242C0.734375 13.4909 0.908854 14.0951 1.25781 14.6367C1.61198 15.1784 2.10677 15.6107 2.74219 15.9336C3.3776 16.2565 4.1224 16.418 4.97656 16.418H9.98438V19.8086C9.98438 19.9701 10.0443 20.1107 10.1641 20.2305C10.2891 20.3503 10.4375 20.4102 10.6094 20.4102C10.776 20.4102 10.9193 20.3503 11.0391 20.2305C11.1641 20.1107 11.2266 19.9701 11.2266 19.8086V16.418H16.6172C17.3672 16.418 18.0234 16.2747 18.5859 15.9883C19.1484 15.7018 19.5859 15.3138 19.8984 14.8242C20.2161 14.3294 20.375 13.7747 20.375 13.1602C20.375 12.3945 20.1536 11.6888 19.7109 11.043C19.2734 10.3919 18.6719 9.90755 17.9062 9.58984C17.9062 8.72005 17.763 7.92057 17.4766 7.19141C17.1901 6.45703 16.7865 5.82161 16.2656 5.28516C15.75 4.7487 15.1458 4.33203 14.4531 4.03516C13.7656 3.73828 13.0208 3.58984 12.2188 3.58984C11.5104 3.58984 10.8698 3.70443 10.2969 3.93359C9.72917 4.15755 9.22396 4.45964 8.78125 4.83984C8.34375 5.22005 7.96875 5.63672 7.65625 6.08984C7.21354 5.97005 6.75521 5.95964 6.28125 6.05859C5.8125 6.15755 5.3776 6.35026 4.97656 6.63672C4.57552 6.91797 4.2474 7.27474 3.99219 7.70703C3.74219 8.13932 3.61198 8.63151 3.60156 9.18359C3.01302 9.27734 2.5026 9.4987 2.07031 9.84766C1.64323 10.1914 1.3125 10.6237 1.07812 11.1445C0.848958 11.6602 0.734375 12.2201 0.734375 12.8242ZM9.98438 16.0977V12.0742L10.0312 10.9102L8.32031 12.7227C8.21094 12.8477 8.06771 12.9102 7.89062 12.9102C7.72917 12.9102 7.59375 12.8581 7.48438 12.7539C7.38021 12.6497 7.32812 12.5195 7.32812 12.3633C7.32812 12.2122 7.39062 12.0742 7.51562 11.9492L10.1562 9.40234C10.2344 9.32422 10.3073 9.26953 10.375 9.23828C10.4479 9.20703 10.526 9.19141 10.6094 9.19141C10.6875 9.19141 10.7604 9.20703 10.8281 9.23828C10.901 9.26953 10.9766 9.32422 11.0547 9.40234L13.6953 11.9492C13.8203 12.0742 13.8828 12.2122 13.8828 12.3633C13.8828 12.5195 13.8281 12.6497 13.7188 12.7539C13.6094 12.8581 13.474 12.9102 13.3125 12.9102C13.1406 12.9102 13 12.8477 12.8906 12.7227L11.1797 10.9102L11.2266 12.0742V16.0977C11.2266 16.2695 11.1641 16.4154 11.0391 16.5352C10.9193 16.6549 10.776 16.7148 10.6094 16.7148C10.4375 16.7148 10.2891 16.6549 10.1641 16.5352C10.0443 16.4154 9.98438 16.2695 9.98438 16.0977Z"
		fill="currentColor"
	/>
</svg>
