<svg
	color="rgb(var(--foreground, 0, 0, 0))"
	viewBox="0 0 21 24"
	fill="none"
	xmlns="http://www.w3.org/2000/svg"
>
	<path
		d="M16.2812 18.7891C16.8698 18.7891 17.4193 18.6875 17.9297 18.4844C18.4401 18.2865 18.8854 18.0104 19.2656 17.6562C19.651 17.3021 19.9505 16.8906 20.1641 16.4219C20.3776 15.9531 20.4844 15.4505 20.4844 14.9141C20.4844 14.3672 20.3854 13.8542 20.1875 13.375C19.9896 12.8906 19.7057 12.4635 19.3359 12.0938C18.9661 11.7188 18.526 11.4245 18.0156 11.2109C18.0156 10.3411 17.8724 9.54167 17.5859 8.8125C17.2995 8.07812 16.8958 7.44271 16.375 6.90625C15.8594 6.36458 15.2552 5.94792 14.5625 5.65625C13.875 5.35938 13.1302 5.21094 12.3281 5.21094C11.6198 5.21094 10.9792 5.32552 10.4062 5.55469C9.83854 5.77865 9.33333 6.08073 8.89062 6.46094C8.45312 6.83594 8.07812 7.2526 7.76562 7.71094C7.28646 7.57031 6.80729 7.54948 6.32812 7.64844C5.85417 7.74219 5.42188 7.9349 5.03125 8.22656C4.64062 8.51302 4.32552 8.8776 4.08594 9.32031C3.84635 9.75781 3.72135 10.25 3.71094 10.7969C3.1224 10.8906 2.61198 11.1146 2.17969 11.4688C1.7526 11.8229 1.42188 12.2682 1.1875 12.8047C0.958333 13.3411 0.84375 13.9271 0.84375 14.5625C0.84375 15.1354 0.960938 15.6771 1.19531 16.1875C1.42969 16.6979 1.75781 17.1484 2.17969 17.5391C2.60677 17.9245 3.10417 18.2292 3.67188 18.4531C4.23958 18.6771 4.85677 18.7891 5.52344 18.7891H16.2812ZM16.2812 17.5312H5.52344C4.86719 17.5312 4.28125 17.3958 3.76562 17.125C3.25 16.849 2.84375 16.487 2.54688 16.0391C2.25 15.5859 2.10156 15.0938 2.10156 14.5625C2.10156 14.0417 2.20312 13.5703 2.40625 13.1484C2.60938 12.7214 2.90365 12.3828 3.28906 12.1328C3.67969 11.8828 4.15104 11.7578 4.70312 11.7578C4.80208 11.7578 4.85156 11.7057 4.85156 11.6016C4.85156 10.9974 4.94792 10.5 5.14062 10.1094C5.33854 9.71354 5.59896 9.41406 5.92188 9.21094C6.24479 9.0026 6.60156 8.88542 6.99219 8.85938C7.38802 8.82812 7.78646 8.8776 8.1875 9.00781C8.27604 9.03385 8.34115 9.00781 8.38281 8.92969C8.63802 8.48177 8.94271 8.07031 9.29688 7.69531C9.65104 7.32031 10.0755 7.02344 10.5703 6.80469C11.0703 6.58073 11.6562 6.46875 12.3281 6.46875C13.1823 6.46875 13.9375 6.67188 14.5938 7.07812C15.25 7.47917 15.7708 8.01042 16.1562 8.67188C16.5417 9.33333 16.7552 10.0495 16.7969 10.8203C16.8073 11.0026 16.8073 11.1953 16.7969 11.3984C16.7917 11.5964 16.7812 11.7865 16.7656 11.9688C16.7552 12.0677 16.7969 12.1276 16.8906 12.1484C17.599 12.3047 18.1641 12.6276 18.5859 13.1172C19.013 13.6068 19.2266 14.2057 19.2266 14.9141C19.2266 15.3984 19.0964 15.8385 18.8359 16.2344C18.5755 16.6302 18.2214 16.9453 17.7734 17.1797C17.3307 17.4141 16.8333 17.5312 16.2812 17.5312ZM10.1094 15.7188C10.3802 15.7188 10.5885 15.599 10.7344 15.3594L13.7969 10.3828C13.8333 10.3203 13.8698 10.2474 13.9062 10.1641C13.9479 10.0807 13.9688 9.99219 13.9688 9.89844C13.9688 9.72656 13.9036 9.58333 13.7734 9.46875C13.6484 9.35417 13.4948 9.29688 13.3125 9.29688C13.0729 9.29688 12.8854 9.41406 12.75 9.64844L10.0781 14.1094L8.73438 12.3516C8.58854 12.1432 8.39583 12.0391 8.15625 12.0391C7.98438 12.0391 7.83594 12.1016 7.71094 12.2266C7.58594 12.3464 7.52344 12.5 7.52344 12.6875C7.52344 12.849 7.58333 13.0078 7.70312 13.1641L9.45312 15.3672C9.54688 15.487 9.64583 15.5755 9.75 15.6328C9.85938 15.6901 9.97917 15.7188 10.1094 15.7188Z"
		fill="currentColor"
	/>
</svg>
