<svg
	color="rgb(var(--foreground, 0, 0, 0))"
	viewBox="0 0 21 24"
	fill="none"
	xmlns="http://www.w3.org/2000/svg"
>
	<path
		d="M16.0781 18.7891C16.6667 18.7891 17.2161 18.6875 17.7266 18.4844C18.237 18.2865 18.6823 18.0104 19.0625 17.6562C19.4479 17.3021 19.7474 16.8906 19.9609 16.4219C20.1745 15.9531 20.2812 15.4505 20.2812 14.9141C20.2812 14.3672 20.1823 13.8542 19.9844 13.375C19.7865 12.8906 19.5026 12.4635 19.1328 12.0938C18.763 11.7188 18.3229 11.4245 17.8125 11.2109C17.8125 10.3411 17.6693 9.54167 17.3828 8.8125C17.0964 8.07812 16.6927 7.44271 16.1719 6.90625C15.6562 6.36458 15.0521 5.94792 14.3594 5.65625C13.6719 5.35938 12.9271 5.21094 12.125 5.21094C11.4167 5.21094 10.776 5.32552 10.2031 5.55469C9.63542 5.77865 9.13021 6.08073 8.6875 6.46094C8.25 6.83594 7.875 7.2526 7.5625 7.71094C7.08333 7.57031 6.60417 7.54948 6.125 7.64844C5.65104 7.74219 5.21875 7.9349 4.82812 8.22656C4.4375 8.51302 4.1224 8.8776 3.88281 9.32031C3.64323 9.75781 3.51823 10.25 3.50781 10.7969C2.91927 10.8906 2.40885 11.1146 1.97656 11.4688C1.54948 11.8229 1.21875 12.2682 0.984375 12.8047C0.755208 13.3411 0.640625 13.9271 0.640625 14.5625C0.640625 15.1354 0.757812 15.6771 0.992188 16.1875C1.22656 16.6979 1.55469 17.1484 1.97656 17.5391C2.40365 17.9245 2.90104 18.2292 3.46875 18.4531C4.03646 18.6771 4.65365 18.7891 5.32031 18.7891H16.0781Z"
		fill="currentColor"
	/>
</svg>
