<svg
	viewBox="0 0 14 24"
	fill="none"
	xmlns="http://www.w3.org/2000/svg"
	color="rgb(var(--foreground, 0, 0, 0))"
>
	<path
		d="M7.29834 21.332C7.85042 21.332 8.37386 21.1966 8.86865 20.9258C9.36865 20.6602 9.81136 20.293 10.1968 19.8242C10.5822 19.3607 10.8843 18.8346 11.103 18.2461C11.327 17.6576 11.439 17.043 11.439 16.4023C11.439 16.2044 11.4207 16.0221 11.3843 15.8555C11.3478 15.6888 11.2957 15.5352 11.228 15.3945C11.3426 15.4258 11.4546 15.457 11.564 15.4883C11.6785 15.5143 11.7905 15.543 11.8999 15.5742C12.1707 15.6471 12.3504 15.7461 12.439 15.8711C12.5327 15.9909 12.5614 16.168 12.5249 16.4023L11.9546 20.1445C11.9181 20.3685 11.9572 20.543 12.0718 20.668C12.1916 20.793 12.3426 20.8555 12.5249 20.8555C12.7176 20.8555 12.8608 20.7982 12.9546 20.6836C13.0483 20.5742 13.1108 20.4232 13.1421 20.2305L13.7827 16.1758C13.8556 15.7174 13.7931 15.3581 13.5952 15.0977C13.4025 14.832 13.0561 14.6419 12.5561 14.5273L9.03271 13.707L9.0249 13.6289C9.19677 13.5456 9.3374 13.431 9.44677 13.2852C9.55615 13.1341 9.63688 12.9701 9.68896 12.793L12.0874 12.4492C12.577 12.3815 12.9338 12.2122 13.1577 11.9414C13.3869 11.6706 13.5015 11.293 13.5015 10.8086V8.10547C13.5015 7.91797 13.4494 7.77214 13.3452 7.66797C13.241 7.55859 13.0952 7.50391 12.9077 7.50391C12.7202 7.50391 12.5744 7.55859 12.4702 7.66797C12.366 7.77214 12.314 7.91797 12.314 8.10547V10.5664C12.314 10.8424 12.2436 11.0378 12.103 11.1523C11.9624 11.2617 11.7645 11.3346 11.5093 11.3711L9.72021 11.6133C9.67854 11.4935 9.61865 11.3815 9.54052 11.2773C9.4624 11.1732 9.37125 11.0846 9.26709 11.0117V10.9336C9.93375 10.8138 10.4468 10.5612 10.8061 10.1758C11.1655 9.78516 11.3452 9.29297 11.3452 8.69922C11.3452 8.19922 11.2567 7.72526 11.0796 7.27734C10.9077 6.82943 10.6681 6.43099 10.3608 6.08203L10.4311 6.02734C10.8114 5.75651 11.0353 5.42839 11.103 5.04297C11.1707 4.65234 11.0822 4.24089 10.8374 3.80859L10.3765 3.05078C10.2306 2.79557 10.0431 2.66797 9.81396 2.66797C9.6525 2.66797 9.51709 2.72005 9.40771 2.82422C9.30354 2.92839 9.25146 3.05599 9.25146 3.20703C9.25146 3.27474 9.25667 3.33464 9.26709 3.38672C9.28271 3.4388 9.31396 3.50391 9.36084 3.58203L9.76709 4.19922C9.89209 4.40234 9.95198 4.59245 9.94677 4.76953C9.94156 4.94141 9.85823 5.09766 9.69677 5.23828C9.67594 5.25391 9.65511 5.27214 9.63427 5.29297C9.61344 5.30859 9.59 5.32422 9.56396 5.33984C9.24104 5.12109 8.88688 4.95182 8.50146 4.83203C8.11604 4.70703 7.715 4.64453 7.29834 4.64453C6.88688 4.64453 6.49104 4.70703 6.11084 4.83203C5.73063 4.95182 5.38167 5.11849 5.06396 5.33203C5.04313 5.32161 5.01969 5.30599 4.99365 5.28516C4.97281 5.26432 4.95198 5.24609 4.93115 5.23047C4.7749 5.08984 4.69156 4.93359 4.68115 4.76172C4.67594 4.58984 4.73844 4.40234 4.86865 4.19922L5.2749 3.58203C5.31656 3.50391 5.34521 3.4388 5.36084 3.38672C5.37646 3.33464 5.38427 3.27474 5.38427 3.20703C5.38427 3.05599 5.32959 2.92839 5.22021 2.82422C5.11604 2.72005 4.98323 2.66797 4.82177 2.66797C4.5874 2.66797 4.3999 2.79557 4.25927 3.05078L3.79834 3.80859C3.55354 4.24089 3.465 4.65234 3.53271 5.04297C3.60042 5.42839 3.82438 5.75651 4.20459 6.02734L4.25927 6.06641C3.94677 6.41536 3.69938 6.81641 3.51709 7.26953C3.34 7.72266 3.25146 8.19922 3.25146 8.69922C3.25146 9.29297 3.43115 9.78516 3.79052 10.1758C4.15511 10.5612 4.67073 10.8138 5.3374 10.9336V11.0117C5.22802 11.0846 5.13427 11.1732 5.05615 11.2773C4.98323 11.3815 4.92594 11.4935 4.88427 11.6133L3.09521 11.3711C2.84 11.3346 2.64209 11.2617 2.50146 11.1523C2.36084 11.0378 2.29052 10.8424 2.29052 10.5664V8.10547C2.29052 7.91797 2.23844 7.77214 2.13427 7.66797C2.03011 7.55859 1.88427 7.50391 1.69677 7.50391C1.50927 7.50391 1.36344 7.55859 1.25927 7.66797C1.15511 7.77214 1.10302 7.91797 1.10302 8.10547V10.8086C1.10302 11.293 1.215 11.6706 1.43896 11.9414C1.66813 12.2122 2.0275 12.3815 2.51709 12.4492L4.91552 12.793C4.96761 12.9701 5.04834 13.1341 5.15771 13.2852C5.26709 13.431 5.40771 13.5456 5.57959 13.6289V13.707L2.04834 14.5273C1.54313 14.6419 1.19417 14.832 1.00146 15.0977C0.808752 15.3581 0.748856 15.7174 0.821773 16.1758L1.4624 20.2305C1.48844 20.4232 1.54834 20.5742 1.64209 20.6836C1.74104 20.7982 1.88688 20.8555 2.07959 20.8555C2.26188 20.8555 2.41031 20.793 2.5249 20.668C2.64469 20.543 2.68636 20.3685 2.6499 20.1445L2.07959 16.4023C2.04313 16.168 2.06917 15.9909 2.15771 15.8711C2.25146 15.7461 2.43375 15.6471 2.70459 15.5742C2.81396 15.543 2.92334 15.5143 3.03271 15.4883C3.14729 15.457 3.25927 15.4258 3.36865 15.3945C3.30094 15.5352 3.24886 15.6888 3.2124 15.8555C3.18115 16.0221 3.16552 16.2044 3.16552 16.4023C3.16552 17.043 3.2749 17.6576 3.49365 18.2461C3.71761 18.8346 4.02229 19.3607 4.40771 19.8242C4.79313 20.293 5.23323 20.6602 5.72802 20.9258C6.22281 21.1966 6.74625 21.332 7.29834 21.332Z"
		fill="currentColor"
	/>
</svg>
