<svg
	viewBox="0 0 14 24"
	fill="none"
	xmlns="http://www.w3.org/2000/svg"
	color="rgb(var(--foreground, 0, 0, 0))"
>
	<path
		d="M7.27795 21.332C7.83003 21.332 8.35347 21.1966 8.84826 20.9258C9.34826 20.6602 9.79097 20.293 10.1764 19.8242C10.5618 19.3607 10.8639 18.8346 11.0826 18.2461C11.3066 17.6576 11.4186 17.043 11.4186 16.4023C11.4186 15.8555 11.3196 15.4023 11.1217 15.043C10.929 14.6836 10.6582 14.3997 10.3092 14.1914C9.96024 13.9779 9.55139 13.8164 9.08264 13.707V13.6289C9.31701 13.5143 9.4993 13.3424 9.62951 13.1133C9.75972 12.8841 9.83784 12.6341 9.86389 12.3633C9.88993 12.0924 9.85868 11.8346 9.77014 11.5898C9.68159 11.3451 9.53316 11.1523 9.32482 11.0117V10.9336C9.99149 10.8138 10.4915 10.5612 10.8248 10.1758C11.1582 9.78516 11.3248 9.29297 11.3248 8.69922C11.3248 8.14193 11.2181 7.61849 11.0045 7.12891C10.7962 6.63932 10.5045 6.20964 10.1295 5.83984C9.75972 5.46484 9.33003 5.17318 8.84045 4.96484C8.35607 4.7513 7.83524 4.64453 7.27795 4.64453C6.72587 4.64453 6.20503 4.7513 5.71545 4.96484C5.23107 5.17318 4.80139 5.46484 4.42639 5.83984C4.0566 6.20964 3.76493 6.63932 3.55139 7.12891C3.33785 7.61849 3.23107 8.14193 3.23107 8.69922C3.23107 9.29297 3.39774 9.78516 3.73107 10.1758C4.06962 10.5612 4.57222 10.8138 5.23889 10.9336V11.0117C5.03055 11.1523 4.88212 11.3451 4.79357 11.5898C4.70503 11.8346 4.67118 12.0924 4.69201 12.3633C4.71805 12.6341 4.79618 12.8841 4.92639 13.1133C5.0618 13.3424 5.2467 13.5143 5.48107 13.6289V13.707C5.01753 13.8164 4.60868 13.9779 4.25451 14.1914C3.90555 14.3997 3.63212 14.6836 3.4342 15.043C3.24149 15.4023 3.14514 15.8555 3.14514 16.4023C3.14514 17.043 3.25451 17.6576 3.47326 18.2461C3.69722 18.8346 4.00191 19.3607 4.38732 19.8242C4.77274 20.293 5.21285 20.6602 5.70764 20.9258C6.20243 21.1966 6.72587 21.332 7.27795 21.332ZM7.27795 20.0273C6.87691 20.0273 6.50191 19.9232 6.15295 19.7148C5.8092 19.5065 5.50712 19.2305 5.2467 18.8867C4.98628 18.543 4.78316 18.168 4.63732 17.7617C4.49149 17.3555 4.41857 16.957 4.41857 16.5664C4.41857 16.0456 4.56701 15.6367 4.86389 15.3398C5.16597 15.0378 5.61128 14.8867 6.19982 14.8867H8.36389C8.94722 14.8867 9.38732 15.0378 9.6842 15.3398C9.98628 15.6367 10.1373 16.0456 10.1373 16.5664C10.1373 16.957 10.0644 17.3555 9.91857 17.7617C9.77795 18.168 9.57743 18.543 9.31701 18.8867C9.05659 19.2305 8.75191 19.5065 8.40295 19.7148C8.0592 19.9232 7.6842 20.0273 7.27795 20.0273ZM5.86389 12.1367C5.86389 11.7773 5.96805 11.4987 6.17639 11.3008C6.38472 11.1029 6.67899 11.0039 7.0592 11.0039C7.13212 11.0039 7.20503 11.0039 7.27795 11.0039C7.35607 11.0039 7.4342 11.0039 7.51232 11.0039C7.88732 11.0039 8.17639 11.1029 8.37951 11.3008C8.58785 11.4987 8.69201 11.7773 8.69201 12.1367C8.69201 12.5794 8.5618 12.9622 8.30139 13.2852C8.04097 13.6081 7.73107 13.7695 7.3717 13.7695C7.34045 13.7695 7.3092 13.7695 7.27795 13.7695C7.25191 13.7695 7.22326 13.7695 7.19201 13.7695C6.83264 13.7695 6.52014 13.6081 6.25451 13.2852C5.9941 12.9622 5.86389 12.5794 5.86389 12.1367ZM5.8717 9.78516C5.58524 9.78516 5.34045 9.74089 5.13732 9.65234C4.93941 9.5638 4.78576 9.4362 4.67639 9.26953C4.57222 9.09766 4.52014 8.89193 4.52014 8.65234C4.52014 8.28776 4.59305 7.94401 4.73889 7.62109C4.88993 7.29297 5.09305 7.00391 5.34826 6.75391C5.60868 6.4987 5.90295 6.30078 6.23107 6.16016C6.56441 6.01432 6.91337 5.94141 7.27795 5.94141C7.64774 5.94141 7.9967 6.01432 8.32482 6.16016C8.65816 6.30078 8.95243 6.4987 9.20764 6.75391C9.46805 7.00391 9.67118 7.29297 9.81701 7.62109C9.96805 7.94401 10.0436 8.28776 10.0436 8.65234C10.0436 8.89193 9.98889 9.09766 9.87951 9.26953C9.77534 9.4362 9.6217 9.5638 9.41857 9.65234C9.21545 9.74089 8.97326 9.78516 8.69201 9.78516H5.8717ZM2.0592 20.8555C2.24149 20.8555 2.38993 20.793 2.50451 20.668C2.6243 20.543 2.66597 20.3685 2.62951 20.1445L2.0592 16.4023C2.02274 16.168 2.04878 15.9909 2.13732 15.8711C2.23107 15.7461 2.41337 15.6471 2.6842 15.5742L5.48107 14.8242V13.707L2.02795 14.5273C1.52274 14.6471 1.17378 14.8372 0.981074 15.0977C0.788366 15.3581 0.72847 15.7174 0.801387 16.1758L1.44201 20.2305C1.46805 20.4232 1.52795 20.5742 1.6217 20.6836C1.72066 20.7982 1.86649 20.8555 2.0592 20.8555ZM12.5045 20.8555C12.6972 20.8555 12.8404 20.7982 12.9342 20.6836C13.0279 20.5742 13.0904 20.4232 13.1217 20.2305L13.7623 16.1758C13.8352 15.7174 13.7727 15.3581 13.5748 15.0977C13.3821 14.8372 13.0358 14.6471 12.5358 14.5273L9.08264 13.707V14.8242L11.8795 15.5742C12.1503 15.6471 12.33 15.7461 12.4186 15.8711C12.5123 15.9909 12.541 16.168 12.5045 16.4023L11.9342 20.1445C11.8977 20.3685 11.9368 20.543 12.0514 20.668C12.1712 20.793 12.3222 20.8555 12.5045 20.8555ZM5.36389 12.8711V11.6992L3.07482 11.3711C2.81962 11.3294 2.6217 11.2539 2.48107 11.1445C2.34045 11.0352 2.27014 10.8424 2.27014 10.5664V8.10547C2.27014 7.91797 2.21805 7.77214 2.11389 7.66797C2.00972 7.55859 1.86389 7.50391 1.67639 7.50391C1.48889 7.50391 1.34305 7.55859 1.23889 7.66797C1.13472 7.77214 1.08264 7.91797 1.08264 8.10547V10.8086C1.08264 11.293 1.19462 11.6706 1.41857 11.9414C1.64774 12.2122 2.00712 12.3815 2.4967 12.4492L5.36389 12.8711ZM9.19982 12.8711L12.067 12.4492C12.5566 12.3815 12.9134 12.2122 13.1373 11.9414C13.3665 11.6706 13.4811 11.293 13.4811 10.8086V8.10547C13.4811 7.91797 13.429 7.77214 13.3248 7.66797C13.2207 7.55859 13.0748 7.50391 12.8873 7.50391C12.6998 7.50391 12.554 7.55859 12.4498 7.66797C12.3457 7.77214 12.2936 7.91797 12.2936 8.10547V10.5664C12.2936 10.8424 12.2233 11.0352 12.0826 11.1445C11.942 11.2539 11.7441 11.3294 11.4889 11.3711L9.19982 11.6992V12.8711ZM4.94982 6.56641L5.60607 5.73828L4.9967 5.30078C4.79878 5.16016 4.68941 4.9987 4.66857 4.81641C4.65295 4.62891 4.71285 4.42318 4.84826 4.19922L5.25451 3.58203C5.29618 3.50391 5.32482 3.4388 5.34045 3.38672C5.35607 3.33464 5.36389 3.27474 5.36389 3.20703C5.36389 3.05599 5.3092 2.92839 5.19982 2.82422C5.09566 2.72005 4.96285 2.66797 4.80139 2.66797C4.56701 2.66797 4.37951 2.79557 4.23889 3.05078L3.77795 3.80859C3.53316 4.24089 3.44462 4.65234 3.51232 5.04297C3.58003 5.42839 3.80399 5.75651 4.1842 6.02734L4.94982 6.56641ZM9.62951 6.57422L10.4108 6.02734C10.791 5.75651 11.0149 5.42839 11.0826 5.04297C11.1503 4.65234 11.0618 4.24089 10.817 3.80859L10.3561 3.05078C10.2102 2.79557 10.0227 2.66797 9.79357 2.66797C9.63212 2.66797 9.4967 2.72005 9.38732 2.82422C9.28316 2.92839 9.23107 3.05599 9.23107 3.20703C9.23107 3.27474 9.23628 3.33464 9.2467 3.38672C9.26232 3.4388 9.29357 3.50391 9.34045 3.58203L9.7467 4.19922C9.88212 4.42318 9.93941 4.62891 9.91857 4.81641C9.89774 4.9987 9.79097 5.16016 9.59826 5.30078L8.97326 5.74609L9.62951 6.57422Z"
		fill="currentColor"
	/>
</svg>
