<svg
	viewBox="0 0 20 24"
	fill="none"
	xmlns="http://www.w3.org/2000/svg"
	color="rgb(var(--foreground, 0, 0, 0))"
>
	<path
		d="M13.8824 6.77097C13.4969 6.77097 13.1376 6.84649 12.8042 6.99753C12.4761 7.14337 12.1766 7.37514 11.9058 7.69285C11.6402 8.00535 11.4006 8.40899 11.187 8.90378C10.6193 8.33607 9.97871 7.7918 9.26517 7.27097C8.55163 6.75014 7.786 6.28139 6.96829 5.86472C6.15058 5.44805 5.30163 5.10691 4.42142 4.84128C3.54642 4.57045 2.6636 4.40118 1.77298 4.33347C1.50735 4.31785 1.30683 4.36472 1.17142 4.4741C1.04121 4.57826 0.952667 4.71368 0.905792 4.88035C0.858917 5.04701 0.832875 5.20587 0.827667 5.35691C0.765167 6.33607 0.892771 7.26837 1.21048 8.15378C1.5334 9.0392 2.00215 9.83607 2.61673 10.5444C3.23652 11.2475 3.96569 11.8257 4.80423 12.2788C5.64277 12.7319 6.54902 13.0132 7.52298 13.1225C7.17923 13.8882 6.79121 14.6382 6.35892 15.3725C5.93183 16.1069 5.45267 16.8152 4.92142 17.4975C4.39538 18.1798 3.81204 18.8257 3.17142 19.435C3.06725 19.534 3.00215 19.6408 2.9761 19.7553C2.95527 19.8699 2.96048 19.9845 2.99173 20.0991C3.02298 20.2137 3.07246 20.3204 3.14017 20.4194C3.32246 20.7059 3.57506 20.9637 3.89798 21.1928C4.2209 21.4272 4.58808 21.6251 4.99954 21.7866C5.411 21.9481 5.84069 22.0678 6.2886 22.146C6.74173 22.2293 7.18965 22.2606 7.63235 22.2397C8.08027 22.2189 8.49954 22.1434 8.89017 22.0132C9.12454 21.9298 9.27298 21.8231 9.33548 21.6928C9.40319 21.5626 9.43704 21.409 9.43704 21.2319V18.3335C9.86413 18.3074 10.3225 18.2267 10.812 18.0913C11.3068 17.9559 11.7886 17.7501 12.2574 17.4741C12.7261 17.1928 13.1402 16.8283 13.4995 16.3803C13.8641 15.9324 14.1298 15.3882 14.2964 14.7475C14.4683 14.1017 14.4995 13.3439 14.3902 12.4741L14.312 11.9272C14.8433 11.7918 15.3094 11.5965 15.7105 11.3413C16.1167 11.0809 16.4318 10.7866 16.6558 10.4585C16.885 10.1251 16.9995 9.78399 16.9995 9.43503C16.9995 9.11212 16.9162 8.79441 16.7495 8.48191C16.5881 8.1642 16.3641 7.87774 16.0777 7.62253C15.7912 7.36732 15.4605 7.1616 15.0855 7.00535C14.7105 6.8491 14.3094 6.77097 13.8824 6.77097ZM13.9527 7.89597C14.3225 7.89597 14.6506 7.9741 14.937 8.13035C15.2287 8.2866 15.4579 8.48191 15.6245 8.71628C15.7912 8.95066 15.8745 9.19024 15.8745 9.43503C15.8745 9.73191 15.6792 10.0288 15.2886 10.3257C14.9032 10.6173 14.3303 10.8178 13.5699 10.9272C13.4553 10.9376 13.3589 10.9819 13.2808 11.06C13.2079 11.1382 13.1766 11.2319 13.187 11.3413L13.2886 12.5053C13.3563 13.3074 13.299 13.9819 13.1167 14.5288C12.9396 15.0757 12.6818 15.521 12.3433 15.8647C12.0048 16.2033 11.6219 16.4663 11.1949 16.6538C10.7678 16.8361 10.3355 16.9637 9.89798 17.0366C9.46048 17.1095 9.06204 17.1564 8.70267 17.1772C8.58808 17.1824 8.49173 17.2215 8.4136 17.2944C8.34069 17.3673 8.30423 17.4611 8.30423 17.5757V20.9975C8.30423 21.034 8.29381 21.0652 8.27298 21.0913C8.25735 21.1225 8.22871 21.1408 8.18704 21.146C7.80683 21.2137 7.42402 21.2345 7.0386 21.2085C6.6584 21.1824 6.29121 21.1173 5.93704 21.0132C5.58288 20.909 5.25996 20.7736 4.96829 20.6069C4.67663 20.4454 4.43444 20.2658 4.24173 20.0678C4.16881 19.9897 4.1636 19.9246 4.2261 19.8725C4.92923 19.1954 5.56204 18.4767 6.12454 17.7163C6.68704 16.9559 7.19225 16.1642 7.64017 15.3413C8.08808 14.5184 8.49173 13.6772 8.8511 12.8178C8.92402 12.6408 8.92663 12.4871 8.85892 12.3569C8.79642 12.2267 8.67402 12.159 8.49173 12.1538C7.55944 12.1329 6.69746 11.9559 5.90579 11.6225C5.11933 11.2892 4.42923 10.8309 3.83548 10.2475C3.24694 9.65899 2.786 8.9741 2.45267 8.19285C2.12454 7.40639 1.95788 6.55222 1.95267 5.63035C1.95267 5.53139 2.00215 5.48712 2.1011 5.49753C2.92402 5.6017 3.72871 5.7866 4.51517 6.05222C5.30683 6.31785 6.05683 6.64076 6.76517 7.02097C7.47871 7.39597 8.13496 7.80743 8.73392 8.25535C9.33288 8.70326 9.85631 9.15899 10.3042 9.62253C10.4657 9.78399 10.6089 9.90639 10.7339 9.98972C10.8641 10.0678 11.0074 10.1069 11.1636 10.1069C11.4188 10.1069 11.6167 10.0444 11.7574 9.91941C11.9032 9.7892 12.0412 9.59389 12.1714 9.33347C12.3225 9.02097 12.4761 8.75795 12.6324 8.54441C12.7886 8.33087 12.9709 8.16941 13.1792 8.06003C13.3876 7.95066 13.6454 7.89597 13.9527 7.89597ZM12.4917 7.69285L13.5464 7.32566C13.0048 6.06524 12.3537 4.99493 11.5933 4.11472C10.8381 3.2293 9.95267 2.49493 8.93704 1.9116C8.63496 1.73972 8.3511 1.70847 8.08548 1.81785C7.81985 1.92722 7.64538 2.14597 7.56204 2.4741C7.36413 3.18764 7.23131 3.89076 7.1636 4.58347C7.0959 5.27097 7.10892 5.97149 7.20267 6.68503L8.42923 7.26316C8.2886 6.55482 8.22871 5.87774 8.24954 5.23191C8.27558 4.58607 8.36933 3.93243 8.53079 3.27097C8.54121 3.20326 8.57506 3.15899 8.63235 3.13816C8.69485 3.11212 8.75475 3.11732 8.81204 3.15378C9.60371 3.66941 10.299 4.29441 10.898 5.02878C11.4969 5.76316 12.0282 6.65118 12.4917 7.69285ZM14.4683 9.63816C14.5933 9.63816 14.7027 9.59128 14.7964 9.49753C14.8954 9.40378 14.9449 9.2918 14.9449 9.1616C14.9449 9.03139 14.8954 8.91941 14.7964 8.82566C14.7027 8.7267 14.5933 8.67722 14.4683 8.67722C14.3329 8.67722 14.2183 8.7267 14.1245 8.82566C14.0308 8.91941 13.9839 9.03139 13.9839 9.1616C13.9839 9.2918 14.0308 9.40378 14.1245 9.49753C14.2183 9.59128 14.3329 9.63816 14.4683 9.63816ZM15.773 10.6538L18.6245 11.06C18.7548 11.0809 18.8667 11.0574 18.9605 10.9897C19.0542 10.9168 19.1167 10.8231 19.148 10.7085C19.1792 10.5939 19.174 10.4819 19.1324 10.3725C19.0907 10.2632 19.0021 10.1798 18.8667 10.1225L16.2886 9.02878L15.773 10.6538Z"
		fill="currentColor"
	/>
</svg>
