<svg
	viewBox="0 0 19 24"
	fill="none"
	xmlns="http://www.w3.org/2000/svg"
	color="rgb(var(--foreground, 0, 0, 0))"
>
	<path
		d="M13.1595 6.90752C12.7689 6.90752 12.4095 6.98304 12.0814 7.13408C11.7585 7.28513 11.4642 7.52211 11.1986 7.84502C10.9382 8.16794 10.7038 8.58721 10.4955 9.10283C9.92776 8.52471 9.28714 7.97263 8.57359 7.44658C7.86005 6.92054 7.09182 6.44658 6.26891 6.02471C5.4512 5.60283 4.59964 5.25648 3.71422 4.98565C2.83401 4.7096 1.94339 4.53773 1.04234 4.47002C0.80276 4.4544 0.620469 4.49606 0.495469 4.59502C0.375677 4.68877 0.294948 4.81117 0.253281 4.96221C0.211615 5.11325 0.188177 5.26429 0.182969 5.41533C0.120469 6.41013 0.253281 7.35544 0.581406 8.25127C0.91474 9.1419 1.40172 9.94138 2.04234 10.6497C2.68818 11.3528 3.4512 11.9231 4.33141 12.3606C5.21682 12.7929 6.17516 13.0455 7.20641 13.1185C6.83141 14.0143 6.3887 14.845 5.87828 15.6106C5.37307 16.3763 4.83141 17.0872 4.25328 17.7435C3.67516 18.3945 3.09182 18.9961 2.50328 19.5481C2.36266 19.6784 2.30016 19.8242 2.31578 19.9856C2.33141 20.1471 2.38609 20.2981 2.47984 20.4388C2.65693 20.72 2.90432 20.9726 3.22203 21.1966C3.54495 21.4258 3.90693 21.6211 4.30797 21.7825C4.71422 21.944 5.1387 22.0638 5.58141 22.1419C6.02411 22.22 6.46422 22.2487 6.90172 22.2278C7.34443 22.207 7.75849 22.1315 8.14391 22.0013C8.35745 21.9231 8.49286 21.8294 8.55016 21.72C8.61266 21.6106 8.64391 21.4674 8.64391 21.2903V18.3216C9.06057 18.3008 9.5137 18.2252 10.0033 18.095C10.4981 17.9648 10.9798 17.7643 11.4486 17.4935C11.9173 17.2174 12.3314 16.8606 12.6908 16.4231C13.0554 15.9804 13.3236 15.4388 13.4955 14.7981C13.6673 14.1575 13.6986 13.4049 13.5892 12.5403L13.5033 11.9231C14.3106 11.7304 14.9616 11.4075 15.4564 10.9544C15.9512 10.4961 16.1986 10.0065 16.1986 9.48565C16.1986 9.07419 16.0606 8.67054 15.7845 8.27471C15.5137 7.87888 15.1465 7.55336 14.683 7.29815C14.2246 7.03773 13.7168 6.90752 13.1595 6.90752ZM13.9798 9.61846C13.8444 9.61846 13.7298 9.57158 13.6361 9.47783C13.5423 9.38408 13.4955 9.27211 13.4955 9.1419C13.4955 9.01169 13.5423 8.89971 13.6361 8.80596C13.7298 8.707 13.8444 8.65752 13.9798 8.65752C14.1048 8.65752 14.2142 8.707 14.308 8.80596C14.4069 8.89971 14.4564 9.01169 14.4564 9.1419C14.4564 9.27211 14.4069 9.38408 14.308 9.47783C14.2142 9.57158 14.1048 9.61846 13.9798 9.61846ZM15.1283 10.6341L17.9798 11.0403C18.1101 11.0612 18.222 11.0377 18.3158 10.97C18.4095 10.8971 18.472 10.8034 18.5033 10.6888C18.5345 10.5742 18.5293 10.4622 18.4877 10.3528C18.446 10.2435 18.3574 10.1601 18.222 10.1028L15.6439 9.00908L15.1283 10.6341ZM12.1517 5.97783C11.6465 5.07679 11.0684 4.29554 10.4173 3.63408C9.77151 2.96742 9.03714 2.3971 8.21422 1.92315C7.91214 1.75127 7.62828 1.72002 7.36266 1.8294C7.09703 1.93877 6.92255 2.15752 6.83922 2.48565C6.72464 2.88669 6.63089 3.29033 6.55797 3.69658C6.49026 4.10283 6.44599 4.50648 6.42516 4.90752C7.12828 5.25127 7.79755 5.63408 8.43297 6.05596C9.07359 6.47783 9.66734 6.92315 10.2142 7.3919C10.4851 7.02211 10.7819 6.72002 11.1048 6.48565C11.4278 6.25127 11.7767 6.082 12.1517 5.97783Z"
		fill="currentColor"
	/>
</svg>
