<svg
	viewBox="0 0 23 24"
	fill="none"
	xmlns="http://www.w3.org/2000/svg"
	color="rgb(var(--foreground, 0, 0, 0))"
>
	<path
		d="M9.15208 7.71289L10.2693 7.48632C10.2068 7.07487 10.113 6.68684 9.98802 6.32226C9.86302 5.95768 9.65469 5.55664 9.36302 5.11914C9.27448 4.98893 9.2875 4.90559 9.40208 4.86914C10.0219 4.65559 10.6677 4.56705 11.3396 4.60351C12.0115 4.63997 12.6521 4.79101 13.2615 5.05664C13.876 5.31705 14.4073 5.67903 14.8552 6.14257C15.3031 6.60612 15.613 7.1582 15.7849 7.79882L16.9568 7.6582C16.7901 6.94466 16.4854 6.30924 16.0427 5.75195C15.6052 5.19466 15.074 4.73372 14.449 4.36914C13.824 4.00455 13.1521 3.74674 12.4333 3.5957C11.7146 3.44466 10.988 3.41341 10.2536 3.50195C9.52448 3.59049 8.83437 3.81445 8.18333 4.17382C7.99062 4.27799 7.87604 4.42643 7.83958 4.61914C7.80833 4.80664 7.87344 5.00716 8.03489 5.2207C8.29531 5.56445 8.49583 5.86653 8.63646 6.12695C8.78229 6.38737 8.89167 6.63997 8.96458 6.88476C9.0375 7.12955 9.1 7.40559 9.15208 7.71289ZM12.8708 17.7519C13.4698 17.7519 14.1104 17.6894 14.7927 17.5644C15.4802 17.4394 16.1651 17.2598 16.8474 17.0254C17.5349 16.7858 18.1885 16.5019 18.8083 16.1738C19.4333 15.8405 19.988 15.4655 20.4724 15.0488C20.962 14.6322 21.3474 14.1842 21.6286 13.7051C21.9099 13.2207 22.0505 12.7103 22.0505 12.1738C22.0505 11.6426 21.9099 11.1374 21.6286 10.6582C21.3474 10.1738 20.962 9.7233 20.4724 9.30664C19.988 8.88997 19.4333 8.51757 18.8083 8.18945C18.1885 7.85611 17.5349 7.57226 16.8474 7.33789C16.1651 7.0983 15.4802 6.91601 14.7927 6.79101C14.1104 6.66601 13.4698 6.60351 12.8708 6.60351C11.6 6.60351 10.337 6.83789 9.08177 7.30664C7.82656 7.77018 6.67292 8.51236 5.62083 9.5332C4.93333 8.75195 4.18594 8.15299 3.37864 7.73632C2.57656 7.31445 1.70937 7.0957 0.777082 7.08007C0.579165 7.07487 0.409895 7.13216 0.26927 7.25195C0.133853 7.36653 0.0583322 7.52278 0.0427072 7.7207C-0.00937616 8.26236 0.0296863 8.80664 0.159895 9.35351C0.290103 9.90039 0.490624 10.4186 0.761457 10.9082C1.0375 11.3978 1.36302 11.8197 1.73802 12.1738C1.36302 12.5332 1.0375 12.9577 0.761457 13.4473C0.490624 13.9368 0.290103 14.4551 0.159895 15.0019C0.0296863 15.5488 -0.00937616 16.0931 0.0427072 16.6348C0.0583322 16.8327 0.133853 16.9915 0.26927 17.1113C0.409895 17.2259 0.579165 17.2806 0.777082 17.2754C1.70937 17.2598 2.57656 17.0436 3.37864 16.6269C4.18594 16.2051 4.93333 15.6061 5.62083 14.8301C6.67292 15.8457 7.82656 16.5879 9.08177 17.0566C10.337 17.5202 11.6 17.7519 12.8708 17.7519ZM12.8708 16.4941C11.6156 16.4941 10.4021 16.2572 9.23021 15.7832C8.06354 15.304 6.99062 14.5176 6.01146 13.4238C5.88125 13.278 5.73542 13.2077 5.57396 13.2129C5.4125 13.2181 5.26667 13.2988 5.13646 13.4551C4.56875 14.1582 3.99583 14.7181 3.41771 15.1348C2.83958 15.5514 2.20937 15.8197 1.52708 15.9394C1.45937 15.9499 1.40208 15.9316 1.35521 15.8848C1.31354 15.8379 1.29792 15.7806 1.30833 15.7129C1.37604 15.1035 1.57135 14.5306 1.89427 13.9941C2.22239 13.4577 2.61042 13.0124 3.05833 12.6582C3.26146 12.4863 3.36302 12.3275 3.36302 12.1816C3.36302 12.0306 3.25885 11.8665 3.05052 11.6894C2.60781 11.3353 2.22239 10.8926 1.89427 10.3613C1.57135 9.82486 1.37604 9.25195 1.30833 8.64257C1.29792 8.57486 1.31354 8.51757 1.35521 8.4707C1.40208 8.42382 1.45937 8.40559 1.52708 8.41601C2.20937 8.5358 2.83698 8.80403 3.40989 9.2207C3.98802 9.63216 4.56354 10.1921 5.13646 10.9004C5.26146 11.0618 5.40469 11.1452 5.56614 11.1504C5.73281 11.1504 5.87864 11.0801 6.00364 10.9394C6.98802 9.84049 8.06354 9.05403 9.23021 8.58007C10.4021 8.10091 11.6156 7.86132 12.8708 7.86132C13.5375 7.86132 14.2354 7.94205 14.9646 8.10351C15.6937 8.25976 16.4047 8.47851 17.0974 8.75976C17.7901 9.04101 18.4151 9.36393 18.9724 9.72851C19.5349 10.0931 19.9828 10.4863 20.3161 10.9082C20.6495 11.3249 20.8161 11.7467 20.8161 12.1738C20.8161 12.6061 20.6495 13.0332 20.3161 13.4551C19.9828 13.8717 19.5349 14.2624 18.9724 14.6269C18.4151 14.9915 17.7901 15.3144 17.0974 15.5957C16.4047 15.8769 15.6937 16.0983 14.9646 16.2598C14.2354 16.416 13.5375 16.4941 12.8708 16.4941ZM17.7224 12.6504C17.9464 12.6504 18.1391 12.5697 18.3005 12.4082C18.4672 12.2467 18.5505 12.054 18.5505 11.8301C18.5505 11.6061 18.4672 11.4134 18.3005 11.2519C18.1391 11.0905 17.9464 11.0098 17.7224 11.0098C17.4984 11.0098 17.3057 11.0905 17.1443 11.2519C16.9828 11.4134 16.9021 11.6061 16.9021 11.8301C16.9021 12.054 16.9828 12.2467 17.1443 12.4082C17.3057 12.5697 17.4984 12.6504 17.7224 12.6504ZM10.4099 16.8613L10.0818 19.5488C10.0557 19.7676 10.0818 19.9577 10.1599 20.1191C10.2432 20.2806 10.3708 20.3978 10.5427 20.4707C10.7198 20.5488 10.9359 20.5671 11.1911 20.5254C11.6911 20.4473 12.199 20.3014 12.7146 20.0879C13.2302 19.8796 13.7276 19.6165 14.2068 19.2988C14.6911 18.9863 15.1391 18.6348 15.5505 18.2441C15.962 17.8587 16.3109 17.4525 16.5974 17.0254L14.988 17.2207C14.4984 17.6478 13.9802 18.041 13.4333 18.4004C12.8917 18.7598 12.3031 19.0254 11.6677 19.1973C11.4802 19.2441 11.3969 19.1738 11.4177 18.9863L11.613 17.041L10.4099 16.8613Z"
		fill="currentColor"
	/>
</svg>
