<svg
	viewBox="0 0 22 24"
	fill="none"
	xmlns="http://www.w3.org/2000/svg"
	color="rgb(var(--foreground, 0, 0, 0))"
>
	<path
		d="M0.0760861 16.6224C0.0865028 16.7891 0.14119 16.9167 0.240149 17.0052C0.344315 17.0886 0.482336 17.1276 0.654211 17.1224C1.59171 17.1068 2.4589 16.8854 3.25577 16.4583C4.05265 16.0261 4.79744 15.4089 5.49015 14.6068C6.21411 15.3307 6.99015 15.9167 7.81827 16.3646C8.65161 16.8073 9.50838 17.1276 10.3886 17.3255L10.1151 19.5677C10.0787 19.8594 10.1386 20.0807 10.2948 20.2318C10.4563 20.3828 10.7063 20.4297 11.0448 20.3724C11.6907 20.2734 12.3469 20.0599 13.0136 19.7318C13.6803 19.4089 14.3 19.0104 14.873 18.5365C15.4511 18.0625 15.9303 17.5495 16.3105 16.9974C17.0188 16.7735 17.7011 16.4974 18.3573 16.1693C19.0136 15.8412 19.5969 15.4714 20.1073 15.0599C20.623 14.6485 21.0292 14.2005 21.3261 13.7162C21.623 13.2318 21.7714 12.7188 21.7714 12.1771C21.7714 11.6615 21.6334 11.1693 21.3573 10.7005C21.0813 10.2318 20.7011 9.79689 20.2167 9.39585C19.7375 8.9896 19.1881 8.62501 18.5683 8.3021C17.9537 7.97397 17.3053 7.69272 16.623 7.45835C16.4303 6.79168 16.1125 6.20314 15.6698 5.69272C15.2323 5.1771 14.7141 4.75262 14.1151 4.41928C13.5162 4.08595 12.873 3.85418 12.1855 3.72397C11.5032 3.58855 10.8131 3.56772 10.1151 3.66147C9.41723 3.75522 8.75838 3.97397 8.13859 4.31772C7.97192 4.40626 7.87817 4.51824 7.85734 4.65366C7.84171 4.78908 7.90161 4.94793 8.03702 5.13022C8.3964 5.60418 8.65161 6.00783 8.80265 6.34116C8.95369 6.66928 9.06307 7.02345 9.13077 7.40366C8.47452 7.64845 7.84171 7.96616 7.23234 8.35678C6.62296 8.7422 6.04223 9.21095 5.49015 9.76303C4.79744 8.95574 4.05265 8.33855 3.25577 7.91147C2.4589 7.47918 1.59171 7.25522 0.654211 7.2396C0.482336 7.23439 0.344315 7.27605 0.240149 7.3646C0.14119 7.44793 0.0865028 7.57293 0.0760861 7.7396C0.0187944 8.28647 0.0578569 8.83595 0.193274 9.38803C0.333899 9.93491 0.544836 10.4505 0.826086 10.9349C1.11254 11.4193 1.45109 11.8333 1.84171 12.1771C1.45109 12.5261 1.11254 12.9427 0.826086 13.4271C0.544836 13.9115 0.333899 14.4297 0.193274 14.9818C0.0578569 15.5287 0.0187944 16.0755 0.0760861 16.6224ZM17.5995 12.6537C17.3756 12.6537 17.1829 12.5729 17.0214 12.4115C16.8599 12.25 16.7792 12.0573 16.7792 11.8333C16.7792 11.6094 16.8599 11.4167 17.0214 11.2552C17.1829 11.0938 17.3756 11.013 17.5995 11.013C17.8235 11.013 18.0162 11.0938 18.1776 11.2552C18.3443 11.4167 18.4276 11.6094 18.4276 11.8333C18.4276 12.0573 18.3443 12.25 18.1776 12.4115C18.0162 12.5729 17.8235 12.6537 17.5995 12.6537Z"
		fill="currentColor"
	/>
</svg>
