<svg
	viewBox="0 0 19 24"
	fill="none"
	xmlns="http://www.w3.org/2000/svg"
	color="rgb(var(--foreground, 0, 0, 0))"
>
	<path
		d="M9.65747 21.179C10.6887 21.179 11.6236 21.0123 12.4622 20.679C13.3059 20.3457 14.0299 19.8665 14.634 19.2415C15.2382 18.6217 15.7043 17.8795 16.0325 17.0149C16.3606 16.1452 16.5247 15.1816 16.5247 14.1243C16.5247 13.3431 16.4153 12.5696 16.1965 11.804C15.9778 11.0384 15.6653 10.3222 15.259 9.65557C14.858 8.98891 14.3814 8.41339 13.8293 7.92901C13.8241 7.20505 13.6471 6.58526 13.2981 6.06964C12.9543 5.5488 12.47 5.15037 11.845 4.87432C11.2252 4.59828 10.496 4.46026 9.65747 4.46026C8.82414 4.46026 8.09497 4.60089 7.46997 4.88214C6.85018 5.15818 6.3658 5.55662 6.01685 6.07745C5.6731 6.59307 5.49862 7.21287 5.49341 7.93682C4.94132 8.4212 4.46216 8.99412 4.05591 9.65557C3.65487 10.317 3.34497 11.0306 3.12622 11.7962C2.90747 12.5566 2.7981 13.3327 2.7981 14.1243C2.7981 15.1816 2.95955 16.1452 3.28247 17.0149C3.6106 17.8795 4.07674 18.6217 4.68091 19.2415C5.29028 19.8665 6.01424 20.3457 6.85278 20.679C7.69653 21.0123 8.63143 21.179 9.65747 21.179ZM9.65747 9.78839C10.3502 9.78839 11.0168 9.72849 11.6575 9.6087C12.3033 9.4837 12.8502 9.32224 13.2981 9.12432C13.621 9.46287 13.9361 9.87953 14.2434 10.3743C14.5507 10.8691 14.8033 11.4342 15.0012 12.0696C15.1991 12.6998 15.2981 13.3847 15.2981 14.1243C15.2981 15.291 15.0637 16.3118 14.595 17.1868C14.1262 18.0618 13.4674 18.7415 12.6184 19.2259C11.7747 19.7155 10.7877 19.9603 9.65747 19.9603C8.53247 19.9603 7.54549 19.7155 6.69653 19.2259C5.85278 18.7415 5.19393 18.0618 4.71997 17.1868C4.25122 16.3118 4.01685 15.291 4.01685 14.1243C4.01685 13.3847 4.1158 12.7024 4.31372 12.0774C4.51164 11.4472 4.76424 10.8847 5.07153 10.3899C5.37882 9.88995 5.69653 9.46807 6.02466 9.12432C6.46737 9.32224 7.01164 9.4837 7.65747 9.6087C8.3033 9.72849 8.96997 9.78839 9.65747 9.78839ZM9.11841 20.304H10.1418V11.2571C10.1418 11.1165 10.0898 10.9967 9.9856 10.8978C9.88664 10.7988 9.76685 10.7493 9.62622 10.7493C9.4856 10.7493 9.3658 10.7988 9.26685 10.8978C9.16789 10.9967 9.11841 11.1165 9.11841 11.2571V20.304ZM7.16528 12.5228C7.43612 12.5228 7.66789 12.4264 7.8606 12.2337C8.0533 12.0358 8.14966 11.8014 8.14966 11.5306C8.14966 11.2649 8.0533 11.0358 7.8606 10.8431C7.66789 10.6452 7.43612 10.5462 7.16528 10.5462C6.89445 10.5462 6.66268 10.6452 6.46997 10.8431C6.28247 11.0358 6.18872 11.2649 6.18872 11.5306C6.18872 11.8014 6.28247 12.0358 6.46997 12.2337C6.66268 12.4264 6.89445 12.5228 7.16528 12.5228ZM6.2356 15.6165C6.5481 15.6165 6.81632 15.5045 7.04028 15.2806C7.26424 15.0566 7.37622 14.7858 7.37622 14.4681C7.37622 14.1504 7.26424 13.8795 7.04028 13.6556C6.81632 13.4316 6.5481 13.3196 6.2356 13.3196C5.91789 13.3196 5.64445 13.4316 5.41528 13.6556C5.19132 13.8795 5.07935 14.1504 5.07935 14.4681C5.07935 14.7858 5.19132 15.0566 5.41528 15.2806C5.64445 15.5045 5.91789 15.6165 6.2356 15.6165ZM7.16528 18.2884C7.41528 18.2884 7.62882 18.1998 7.80591 18.0228C7.9882 17.8457 8.07935 17.6321 8.07935 17.3821C8.07935 17.1269 7.9882 16.9108 7.80591 16.7337C7.62882 16.5566 7.41528 16.4681 7.16528 16.4681C6.91528 16.4681 6.70174 16.5566 6.52466 16.7337C6.34757 16.9108 6.25903 17.1269 6.25903 17.3821C6.25903 17.6321 6.34757 17.8457 6.52466 18.0228C6.70174 18.1998 6.91528 18.2884 7.16528 18.2884ZM12.1575 12.5228C12.4283 12.5228 12.6575 12.4264 12.845 12.2337C13.0377 12.0358 13.134 11.8014 13.134 11.5306C13.134 11.2649 13.0377 11.0358 12.845 10.8431C12.6575 10.6452 12.4283 10.5462 12.1575 10.5462C11.8814 10.5462 11.6471 10.6452 11.4543 10.8431C11.2668 11.0358 11.1731 11.2649 11.1731 11.5306C11.1731 11.8014 11.2695 12.0358 11.4622 12.2337C11.6549 12.4264 11.8866 12.5228 12.1575 12.5228ZM13.0872 15.6165C13.4049 15.6165 13.6757 15.5045 13.8997 15.2806C14.1288 15.0566 14.2434 14.7858 14.2434 14.4681C14.2434 14.1504 14.1288 13.8795 13.8997 13.6556C13.6757 13.4316 13.4049 13.3196 13.0872 13.3196C12.7747 13.3196 12.5038 13.4316 12.2747 13.6556C12.0507 13.8795 11.9387 14.1504 11.9387 14.4681C11.9387 14.7858 12.0507 15.0566 12.2747 15.2806C12.5038 15.5045 12.7747 15.6165 13.0872 15.6165ZM12.1575 18.2884C12.4075 18.2884 12.621 18.1998 12.7981 18.0228C12.9752 17.8457 13.0637 17.6321 13.0637 17.3821C13.0637 17.1269 12.9752 16.9108 12.7981 16.7337C12.621 16.5566 12.4075 16.4681 12.1575 16.4681C11.9023 16.4681 11.6861 16.5566 11.509 16.7337C11.332 16.9108 11.2434 17.1269 11.2434 17.3821C11.2434 17.6321 11.332 17.8457 11.509 18.0228C11.6861 18.1998 11.9023 18.2884 12.1575 18.2884ZM6.21997 3.95245L6.75122 4.14776C6.91789 4.20505 7.03507 4.28057 7.10278 4.37432C7.17049 4.46807 7.18872 4.58526 7.15747 4.72589L7.06372 5.11651L8.21216 5.1087L8.26685 4.71026C8.30851 4.33005 8.2408 4.00453 8.06372 3.7337C7.89185 3.46287 7.6132 3.25714 7.22778 3.11651L6.6106 2.86651C6.41789 2.7988 6.25382 2.80662 6.11841 2.88995C5.98299 2.96807 5.88924 3.08005 5.83716 3.22589C5.79028 3.37172 5.79549 3.51495 5.85278 3.65557C5.91007 3.7962 6.03247 3.89516 6.21997 3.95245ZM13.1028 3.95245C13.2903 3.89516 13.4127 3.7962 13.47 3.65557C13.5273 3.51495 13.5299 3.37172 13.4778 3.22589C13.4309 3.08005 13.3398 2.96807 13.2043 2.88995C13.0689 2.80662 12.9049 2.7988 12.7122 2.86651L12.095 3.11651C11.7096 3.25714 11.4283 3.46287 11.2512 3.7337C11.0741 4.00453 11.009 4.33005 11.0559 4.71026L11.1106 5.1087L12.259 5.11651L12.1653 4.72589C12.134 4.58526 12.1523 4.46807 12.22 4.37432C12.2877 4.28057 12.4049 4.20505 12.5715 4.14776L13.1028 3.95245ZM4.79028 9.38214L3.33716 8.14776C3.19132 8.02797 3.03247 7.96547 2.8606 7.96026C2.69393 7.94985 2.5507 8.01755 2.43091 8.16339C2.31112 8.30401 2.26945 8.46026 2.30591 8.63214C2.34237 8.7988 2.43091 8.94203 2.57153 9.06182L4.0481 10.304L4.79028 9.38214ZM3.36841 13.0696L1.44653 13.0774C1.25382 13.0774 1.09757 13.1321 0.977783 13.2415C0.8632 13.3509 0.805908 13.4941 0.805908 13.6712C0.805908 13.8535 0.8632 13.9993 0.977783 14.1087C1.09757 14.2181 1.25643 14.2728 1.45435 14.2728L3.36841 14.2649V13.0696ZM4.00122 17.6399L2.54028 18.8665C2.39966 18.9863 2.31112 19.1295 2.27466 19.2962C2.24341 19.4681 2.28768 19.6243 2.40747 19.7649C2.52726 19.9108 2.67049 19.9785 2.83716 19.9681C3.00903 19.9629 3.16789 19.9004 3.31372 19.7806L4.75122 18.5618L4.00122 17.6399ZM14.5247 9.38214L15.2747 10.304L16.7512 9.06182C16.8918 8.94203 16.9778 8.7988 17.009 8.63214C17.0455 8.46026 17.0064 8.30401 16.8918 8.16339C16.7721 8.01755 16.6262 7.94985 16.4543 7.96026C16.2877 7.96547 16.1314 8.02797 15.9856 8.14776L14.5247 9.38214ZM15.9543 13.0696V14.2649L17.8684 14.2728C18.0663 14.2728 18.2226 14.2181 18.3372 14.1087C18.4569 13.9993 18.5168 13.8535 18.5168 13.6712C18.5168 13.4941 18.4569 13.3509 18.3372 13.2415C18.2226 13.1321 18.0689 13.0774 17.8762 13.0774L15.9543 13.0696ZM15.3137 17.6399L14.5637 18.554L16.009 19.7806C16.1549 19.9004 16.3111 19.9629 16.4778 19.9681C16.6497 19.9785 16.7955 19.9108 16.9153 19.7649C17.0351 19.6243 17.0767 19.4681 17.0403 19.2962C17.009 19.1295 16.9205 18.9863 16.7747 18.8665L15.3137 17.6399Z"
		fill="currentColor"
	/>
</svg>
