<svg
	width="19"
	height="24"
	viewBox="0 0 19 24"
	fill="none"
	xmlns="http://www.w3.org/2000/svg"
	color="rgb(var(--foreground, 0, 0, 0))"
>
	<path
		d="M5.21997 7.36456C5.21997 7.57289 5.26685 7.76039 5.3606 7.92706C5.45955 8.08852 5.63403 8.22654 5.88403 8.34112C6.31112 8.53904 6.83195 8.69529 7.44653 8.80987C8.06632 8.92445 8.70695 8.98175 9.36841 8.98175C10.0351 8.98175 10.6757 8.92445 11.2903 8.80987C11.9101 8.69529 12.4335 8.53904 12.8606 8.34112C13.1106 8.22654 13.2825 8.08852 13.3762 7.92706C13.4752 7.76039 13.5247 7.57289 13.5247 7.36456C13.5247 6.79164 13.3528 6.27341 13.009 5.80987C12.6653 5.34112 12.1809 4.96873 11.5559 4.69268C10.9361 4.41664 10.207 4.27862 9.36841 4.27862C8.53508 4.27862 7.80591 4.41664 7.18091 4.69268C6.56112 4.96873 6.07935 5.34112 5.7356 5.80987C5.39185 6.27341 5.21997 6.79164 5.21997 7.36456ZM2.50903 14.2552C2.50903 15.5156 2.7382 16.6432 3.19653 17.638C3.66007 18.6276 4.30591 19.4323 5.13403 20.0521C5.96737 20.6771 6.94393 21.0599 8.06372 21.2005C8.32935 21.2317 8.52726 21.2005 8.65747 21.1067C8.79289 21.0182 8.8606 20.8724 8.8606 20.6692V11.7786C8.8606 11.638 8.91008 11.5182 9.00903 11.4192C9.10799 11.3203 9.22778 11.2708 9.36841 11.2708C9.50903 11.2708 9.62883 11.3203 9.72778 11.4192C9.83195 11.5182 9.88403 11.638 9.88403 11.7786V20.6692C9.88403 20.8724 9.94914 21.0182 10.0793 21.1067C10.2148 21.2005 10.4153 21.2317 10.6809 21.2005C11.8007 21.0599 12.7747 20.6771 13.6028 20.0521C14.4361 19.4323 15.082 18.6276 15.5403 17.638C16.0038 16.6432 16.2356 15.5156 16.2356 14.2552C16.2356 13.6927 16.1679 13.0937 16.0325 12.4583C15.8971 11.8229 15.707 11.2317 15.4622 10.6849C15.2174 10.1328 14.9283 9.7005 14.595 9.388C14.3398 9.15362 14.1288 9.02341 13.9622 8.99737C13.7955 8.96612 13.6392 8.98175 13.4934 9.04425C12.9153 9.30466 12.2721 9.51039 11.5637 9.66143C10.8554 9.81248 10.1236 9.888 9.36841 9.888C8.61841 9.888 7.88924 9.81248 7.18091 9.66143C6.47257 9.51039 5.82935 9.30466 5.25122 9.04425C5.10539 8.98175 4.94914 8.96612 4.78247 8.99737C4.6158 9.02341 4.40487 9.15362 4.14966 9.388C3.81632 9.7005 3.52726 10.1328 3.28247 10.6849C3.03768 11.2317 2.84757 11.8229 2.71216 12.4583C2.57674 13.0937 2.50903 13.6927 2.50903 14.2552ZM6.32935 12.7708C6.0533 12.7708 5.81632 12.6719 5.61841 12.4739C5.4257 12.2708 5.32935 12.0338 5.32935 11.763C5.32935 11.487 5.4257 11.25 5.61841 11.0521C5.81632 10.8541 6.0533 10.7552 6.32935 10.7552C6.60539 10.7552 6.84237 10.8541 7.04028 11.0521C7.2382 11.25 7.33716 11.487 7.33716 11.763C7.33716 12.0338 7.2382 12.2708 7.04028 12.4739C6.84237 12.6719 6.60539 12.7708 6.32935 12.7708ZM5.49341 16.1302C5.17049 16.1302 4.89445 16.0156 4.66528 15.7864C4.43612 15.5573 4.32153 15.2786 4.32153 14.9505C4.32153 14.6328 4.43612 14.3594 4.66528 14.1302C4.89445 13.901 5.17049 13.7864 5.49341 13.7864C5.81112 13.7864 6.08455 13.901 6.31372 14.1302C6.5481 14.3594 6.66528 14.6328 6.66528 14.9505C6.66528 15.2786 6.5481 15.5573 6.31372 15.7864C6.08455 16.0156 5.81112 16.1302 5.49341 16.1302ZM6.4856 18.9896C6.24601 18.9896 6.04289 18.9062 5.87622 18.7396C5.70955 18.5729 5.62622 18.3698 5.62622 18.1302C5.62622 17.8906 5.70955 17.6875 5.87622 17.5208C6.04289 17.3541 6.24601 17.2708 6.4856 17.2708C6.72518 17.2708 6.9283 17.3541 7.09497 17.5208C7.26685 17.6875 7.35278 17.8906 7.35278 18.1302C7.35278 18.3698 7.26685 18.5729 7.09497 18.7396C6.9283 18.9062 6.72518 18.9896 6.4856 18.9896ZM12.4153 12.7708C12.1392 12.7708 11.9023 12.6719 11.7043 12.4739C11.5064 12.2708 11.4075 12.0338 11.4075 11.763C11.4075 11.487 11.5064 11.25 11.7043 11.0521C11.9023 10.8541 12.1392 10.7552 12.4153 10.7552C12.6913 10.7552 12.9257 10.8541 13.1184 11.0521C13.3163 11.25 13.4153 11.487 13.4153 11.763C13.4153 12.0338 13.3163 12.2708 13.1184 12.4739C12.9257 12.6719 12.6913 12.7708 12.4153 12.7708ZM13.2512 16.1302C12.9283 16.1302 12.6523 16.0156 12.4231 15.7864C12.1939 15.5573 12.0793 15.2786 12.0793 14.9505C12.0793 14.6328 12.1939 14.3594 12.4231 14.1302C12.6523 13.901 12.9283 13.7864 13.2512 13.7864C13.5741 13.7864 13.8502 13.901 14.0793 14.1302C14.3085 14.3594 14.4231 14.6328 14.4231 14.9505C14.4231 15.2786 14.3085 15.5573 14.0793 15.7864C13.8502 16.0156 13.5741 16.1302 13.2512 16.1302ZM12.259 18.9896C12.0195 18.9896 11.8137 18.9062 11.6418 18.7396C11.4752 18.5729 11.3918 18.3698 11.3918 18.1302C11.3918 17.8906 11.4752 17.6875 11.6418 17.5208C11.8137 17.3541 12.0195 17.2708 12.259 17.2708C12.4986 17.2708 12.7017 17.3541 12.8684 17.5208C13.0351 17.6875 13.1184 17.8906 13.1184 18.1302C13.1184 18.3698 13.0351 18.5729 12.8684 18.7396C12.7017 18.9062 12.4986 18.9896 12.259 18.9896ZM5.93091 3.91925L6.46216 4.11456C6.62882 4.17185 6.74601 4.24737 6.81372 4.34112C6.88143 4.43487 6.89966 4.54945 6.86841 4.68487L6.77466 5.08331L7.9231 5.0755L7.97778 4.67706C8.01945 4.29685 7.95174 3.97133 7.77466 3.7005C7.60278 3.42445 7.32414 3.21873 6.93872 3.08331L6.32153 2.83331C6.12882 2.7656 5.96476 2.77341 5.82935 2.85675C5.69393 2.93487 5.60018 3.04685 5.5481 3.19268C5.50122 3.33852 5.50643 3.48175 5.56372 3.62237C5.62101 3.763 5.74341 3.86195 5.93091 3.91925ZM12.8137 3.91925C13.0012 3.86195 13.1236 3.763 13.1809 3.62237C13.2382 3.48175 13.2408 3.33852 13.1887 3.19268C13.1418 3.04685 13.0507 2.93487 12.9153 2.85675C12.7799 2.77341 12.6158 2.7656 12.4231 2.83331L11.8059 3.08331C11.4205 3.21873 11.1392 3.42445 10.9622 3.7005C10.7851 3.97133 10.72 4.29685 10.7668 4.67706L10.8215 5.0755L11.97 5.08331L11.8762 4.68487C11.845 4.54945 11.8632 4.43487 11.9309 4.34112C11.9986 4.24737 12.1158 4.17185 12.2825 4.11456L12.8137 3.91925ZM4.50122 9.54425L3.0481 8.31768C2.90226 8.19268 2.74341 8.12758 2.57153 8.12237C2.40487 8.11716 2.26164 8.18487 2.14185 8.3255C2.02205 8.47133 1.98039 8.63018 2.01685 8.80206C2.0533 8.96873 2.14185 9.11195 2.28247 9.23175L3.75122 10.4661L4.50122 9.54425ZM3.07935 13.2396H1.15747C0.964762 13.2396 0.808512 13.2942 0.688721 13.4036C0.574137 13.513 0.516846 13.6588 0.516846 13.8411C0.516846 14.0182 0.574137 14.1614 0.688721 14.2708C0.808512 14.3802 0.967367 14.4349 1.16528 14.4349L3.07935 14.4271V13.2396ZM3.71216 17.8099L2.25122 19.0286C2.1106 19.1484 2.02205 19.2916 1.9856 19.4583C1.95435 19.6302 1.99862 19.7864 2.11841 19.9271C2.2382 20.0729 2.38143 20.1432 2.5481 20.138C2.71997 20.1328 2.87882 20.0677 3.02466 19.9427L4.46216 18.7239L3.71216 17.8099ZM14.2434 9.54425L14.9934 10.4661L16.4622 9.23175C16.6028 9.11195 16.6887 8.96873 16.72 8.80206C16.7564 8.63018 16.7174 8.47133 16.6028 8.3255C16.483 8.18487 16.3372 8.11716 16.1653 8.12237C15.9986 8.12758 15.8424 8.19268 15.6965 8.31768L14.2434 9.54425ZM15.6653 13.2396V14.4271L17.5793 14.4349C17.7773 14.4349 17.9335 14.3802 18.0481 14.2708C18.1679 14.1614 18.2278 14.0182 18.2278 13.8411C18.2278 13.6588 18.1679 13.513 18.0481 13.4036C17.9335 13.2942 17.7799 13.2396 17.5872 13.2396H15.6653ZM15.0325 17.8099L14.2747 18.7239L15.72 19.9427C15.8658 20.0677 16.0221 20.1328 16.1887 20.138C16.3606 20.1432 16.5064 20.0729 16.6262 19.9271C16.746 19.7864 16.7877 19.6302 16.7512 19.4583C16.72 19.2916 16.6314 19.1484 16.4856 19.0286L15.0325 17.8099Z"
		fill="currentColor"
	/>
</svg>
