<svg
	viewBox="0 0 20 24"
	fill="none"
	xmlns="http://www.w3.org/2000/svg"
	color="rgb(var(--foreground, 0, 0, 0))"
>
	<path
		d="M9.01587 1.41406C8.59399 1.41406 8.21639 1.52865 7.88306 1.75781C7.55493 1.98698 7.26847 2.28385 7.02368 2.64844C6.7841 3.01302 6.58358 3.40365 6.42212 3.82031C6.26066 4.23698 6.14087 4.64323 6.06274 5.03906C5.98462 5.42969 5.94556 5.76302 5.94556 6.03906C5.94556 6.51302 6.00545 6.88281 6.12524 7.14844C6.25024 7.40885 6.39347 7.60938 6.55493 7.75C6.7216 7.88542 6.86483 7.99479 6.98462 8.07812C7.10962 8.15625 7.17212 8.25 7.17212 8.35938C7.17212 8.45312 7.08879 8.55208 6.92212 8.65625L4.35962 10.2422L3.74243 9.46094C3.66951 9.36198 3.63306 9.2526 3.63306 9.13281C3.63306 9.01302 3.67472 8.90885 3.75806 8.82031C3.84139 8.72656 3.96899 8.67969 4.14087 8.67969C4.38566 8.67969 4.58097 8.60677 4.72681 8.46094C4.87785 8.3151 4.95337 8.13281 4.95337 7.91406C4.95337 7.69531 4.87785 7.51042 4.72681 7.35938C4.57577 7.20833 4.39087 7.13281 4.17212 7.13281C3.95337 7.13281 3.76587 7.20833 3.60962 7.35938C3.45858 7.51042 3.38306 7.69531 3.38306 7.91406C3.38306 7.97656 3.38566 8.02083 3.39087 8.04688C3.41691 8.20312 3.39347 8.3099 3.32056 8.36719C3.24764 8.42448 3.1617 8.44531 3.06274 8.42969C2.96899 8.40885 2.89868 8.35938 2.85181 8.28125C2.81014 8.20312 2.83097 8.10677 2.91431 7.99219C3.01847 7.85156 3.07056 7.69531 3.07056 7.52344C3.07056 7.30469 2.99243 7.11979 2.83618 6.96875C2.68514 6.81771 2.50024 6.74219 2.28149 6.74219C2.06795 6.74219 1.88306 6.81771 1.72681 6.96875C1.57577 7.11979 1.50024 7.30469 1.50024 7.52344C1.50024 7.69531 1.54712 7.84635 1.64087 7.97656C1.73462 8.10156 1.85702 8.19792 2.00806 8.26562C2.12785 8.31771 2.19035 8.38542 2.19556 8.46875C2.20597 8.55208 2.17993 8.6276 2.11743 8.69531C2.06014 8.76302 1.98983 8.80208 1.90649 8.8125C1.82316 8.81771 1.74764 8.77344 1.67993 8.67969C1.51847 8.44531 1.29712 8.32812 1.01587 8.32812C0.797119 8.32812 0.612223 8.40365 0.461182 8.55469C0.31014 8.70573 0.234619 8.89062 0.234619 9.10938C0.234619 9.32812 0.31014 9.51562 0.461182 9.67188C0.612223 9.82292 0.797119 9.89844 1.01587 9.89844C1.1617 9.89844 1.30233 9.85677 1.43774 9.77344C1.61483 9.66406 1.77889 9.61979 1.92993 9.64062C2.08097 9.65625 2.22681 9.75521 2.36743 9.9375L3.57056 11.4766C3.7216 11.6693 3.9091 11.7995 4.13306 11.8672C4.36222 11.9349 4.58618 11.9115 4.80493 11.7969L5.96899 11.1719L5.74243 11.1406C5.61743 11.5 5.52889 11.9115 5.47681 12.375C5.42993 12.8385 5.48202 13.3568 5.63306 13.9297L5.71899 13.7344L4.64868 13.1484C4.42993 13.0286 4.20597 13.0026 3.97681 13.0703C3.75285 13.138 3.56535 13.2708 3.41431 13.4688L2.21899 15.0078C2.07316 15.1901 1.92472 15.2917 1.77368 15.3125C1.62264 15.3281 1.45858 15.2812 1.28149 15.1719C1.15129 15.0885 1.01326 15.0469 0.867432 15.0469C0.648682 15.0469 0.461182 15.125 0.304932 15.2812C0.15389 15.4323 0.0783691 15.6172 0.0783691 15.8359C0.0783691 16.0495 0.15389 16.2344 0.304932 16.3906C0.461182 16.5417 0.648682 16.6172 0.867432 16.6172C1.14347 16.6172 1.36222 16.4974 1.52368 16.2578C1.59139 16.1693 1.66691 16.1302 1.75024 16.1406C1.83358 16.1458 1.90389 16.1823 1.96118 16.25C2.02368 16.3125 2.04972 16.3854 2.03931 16.4688C2.0341 16.5521 1.9716 16.6224 1.85181 16.6797C1.70077 16.7474 1.57837 16.8464 1.48462 16.9766C1.39087 17.1016 1.34399 17.2474 1.34399 17.4141C1.34399 17.6328 1.41952 17.8177 1.57056 17.9688C1.72681 18.125 1.91431 18.2031 2.13306 18.2031C2.3466 18.2031 2.52889 18.125 2.67993 17.9688C2.83618 17.8177 2.91431 17.6328 2.91431 17.4141C2.91431 17.2474 2.86483 17.0911 2.76587 16.9453C2.67733 16.8307 2.65389 16.737 2.69556 16.6641C2.74243 16.5859 2.81274 16.5391 2.90649 16.5234C3.00545 16.5026 3.09139 16.5208 3.16431 16.5781C3.24243 16.6354 3.26847 16.7422 3.24243 16.8984C3.23201 16.9193 3.22681 16.9635 3.22681 17.0312C3.22681 17.25 3.30233 17.4349 3.45337 17.5859C3.60962 17.737 3.79712 17.8125 4.01587 17.8125C4.23462 17.8125 4.41952 17.737 4.57056 17.5859C4.7216 17.4349 4.79712 17.25 4.79712 17.0312C4.79712 16.8125 4.7242 16.6302 4.57837 16.4844C4.43254 16.3385 4.23462 16.2656 3.98462 16.2656C3.81274 16.2656 3.68514 16.2214 3.60181 16.1328C3.51847 16.0391 3.47681 15.9323 3.47681 15.8125C3.47681 15.6875 3.51326 15.5781 3.58618 15.4844L4.21118 14.7031L7.17993 17.0781C7.27889 17.8385 7.50806 18.5521 7.86743 19.2188C8.22681 19.8854 8.70076 20.4714 9.28931 20.9766C9.88306 21.4818 10.5784 21.875 11.3752 22.1562C12.1721 22.4427 13.0549 22.5859 14.0237 22.5859C14.8049 22.5859 15.5002 22.4792 16.1096 22.2656C16.719 22.0573 17.2424 21.7917 17.6799 21.4688C18.1226 21.1458 18.4794 20.8177 18.7502 20.4844C19.0263 20.151 19.219 19.8646 19.3284 19.625C19.4482 19.3594 19.4794 19.1198 19.4221 18.9062C19.37 18.6979 19.2633 18.5312 19.1018 18.4062C18.9403 18.2865 18.7581 18.2292 18.5549 18.2344C18.357 18.2396 18.1721 18.3307 18.0002 18.5078C17.6305 18.8828 17.2398 19.1589 16.8284 19.3359C16.4221 19.5182 16.0211 19.638 15.6252 19.6953C15.2294 19.7526 14.8674 19.7812 14.5393 19.7812C14.1643 19.7812 13.7919 19.7109 13.4221 19.5703C13.0523 19.4349 12.706 19.237 12.3831 18.9766C12.0653 18.7161 11.7945 18.4062 11.5706 18.0469C11.3518 17.6875 11.2008 17.2839 11.1174 16.8359L13.8049 14.7031L14.4221 15.4844C14.5002 15.5781 14.5393 15.6875 14.5393 15.8125C14.5393 15.9323 14.4976 16.0391 14.4143 16.1328C14.331 16.2214 14.2034 16.2656 14.0315 16.2656C13.7815 16.2656 13.5836 16.3385 13.4377 16.4844C13.2919 16.6302 13.219 16.8125 13.219 17.0312C13.219 17.25 13.2945 17.4349 13.4456 17.5859C13.5966 17.737 13.7815 17.8125 14.0002 17.8125C14.219 17.8125 14.4039 17.737 14.5549 17.5859C14.7112 17.4349 14.7893 17.25 14.7893 17.0312C14.7893 16.9635 14.7841 16.9193 14.7737 16.8984C14.7476 16.7422 14.7711 16.6354 14.844 16.5781C14.9221 16.5208 15.0081 16.5026 15.1018 16.5234C15.2008 16.5391 15.2711 16.5859 15.3127 16.6641C15.3596 16.737 15.3388 16.8307 15.2502 16.9453C15.1513 17.0911 15.1018 17.2474 15.1018 17.4141C15.1018 17.6328 15.1773 17.8177 15.3284 17.9688C15.4794 18.125 15.6643 18.2031 15.8831 18.2031C16.1018 18.2031 16.2867 18.125 16.4377 17.9688C16.594 17.8177 16.6721 17.6328 16.6721 17.4141C16.6721 17.2474 16.6252 17.1016 16.5315 16.9766C16.4377 16.8464 16.3153 16.7474 16.1643 16.6797C16.0445 16.6224 15.9794 16.5521 15.969 16.4688C15.9638 16.3854 15.9898 16.3125 16.0471 16.25C16.1096 16.1823 16.1825 16.1458 16.2659 16.1406C16.3492 16.1302 16.4247 16.1693 16.4924 16.2578C16.6487 16.4974 16.8674 16.6172 17.1487 16.6172C17.3674 16.6172 17.5523 16.5417 17.7034 16.3906C17.8596 16.2344 17.9377 16.0495 17.9377 15.8359C17.9377 15.6172 17.8596 15.4323 17.7034 15.2812C17.5523 15.125 17.3674 15.0469 17.1487 15.0469C17.0028 15.0469 16.8622 15.0885 16.7268 15.1719C16.5549 15.2812 16.3935 15.3281 16.2424 15.3125C16.0914 15.2917 15.943 15.1901 15.7971 15.0078L14.6018 13.4688C14.4508 13.2708 14.2607 13.138 14.0315 13.0703C13.8075 13.0026 13.5862 13.0286 13.3674 13.1484L12.3049 13.7266L12.3909 13.9375C12.5471 13.3646 12.5966 12.8438 12.5393 12.375C12.4872 11.9062 12.4013 11.4896 12.2815 11.125L12.0549 11.1719L13.219 11.7969C13.4377 11.9115 13.6591 11.9349 13.8831 11.8672C14.1122 11.7995 14.3023 11.6693 14.4534 11.4766L15.6565 9.9375C15.7971 9.75521 15.943 9.65625 16.094 9.64062C16.245 9.61979 16.4091 9.66406 16.5862 9.77344C16.7216 9.85677 16.8622 9.89844 17.0081 9.89844C17.2268 9.89844 17.4117 9.82292 17.5627 9.67188C17.7138 9.51562 17.7893 9.32812 17.7893 9.10938C17.7893 8.89062 17.7138 8.70573 17.5627 8.55469C17.4117 8.40365 17.2268 8.32812 17.0081 8.32812C16.7268 8.32812 16.5055 8.44531 16.344 8.67969C16.2763 8.77344 16.2008 8.81771 16.1174 8.8125C16.0341 8.80208 15.9612 8.76302 15.8987 8.69531C15.8414 8.6276 15.8153 8.55208 15.8206 8.46875C15.831 8.38542 15.8961 8.31771 16.0159 8.26562C16.1669 8.19792 16.2893 8.10156 16.3831 7.97656C16.4768 7.84635 16.5237 7.69531 16.5237 7.52344C16.5237 7.30469 16.4456 7.11979 16.2893 6.96875C16.1383 6.81771 15.956 6.74219 15.7424 6.74219C15.5237 6.74219 15.3362 6.81771 15.1799 6.96875C15.0289 7.11979 14.9534 7.30469 14.9534 7.52344C14.9534 7.69531 15.0055 7.85156 15.1096 7.99219C15.193 8.10677 15.2112 8.20312 15.1643 8.28125C15.1226 8.35938 15.0523 8.40885 14.9534 8.42969C14.8596 8.44531 14.7763 8.42448 14.7034 8.36719C14.6305 8.3099 14.607 8.20312 14.6331 8.04688C14.6383 8.02083 14.6409 7.97656 14.6409 7.91406C14.6409 7.69531 14.5627 7.51042 14.4065 7.35938C14.2555 7.20833 14.0706 7.13281 13.8518 7.13281C13.6383 7.13281 13.4534 7.20833 13.2971 7.35938C13.1461 7.51042 13.0706 7.69531 13.0706 7.91406C13.0706 8.13281 13.1435 8.3151 13.2893 8.46094C13.4403 8.60677 13.6383 8.67969 13.8831 8.67969C14.0549 8.67969 14.1825 8.72656 14.2659 8.82031C14.3492 8.90885 14.3909 9.01302 14.3909 9.13281C14.3909 9.2526 14.3544 9.36198 14.2815 9.46094L13.6643 10.2422L11.1096 8.65625C10.9377 8.54688 10.8518 8.44792 10.8518 8.35938C10.8518 8.25 10.9117 8.15365 11.0315 8.07031C11.1565 7.98698 11.2997 7.8776 11.4612 7.74219C11.6278 7.60156 11.7711 7.40104 11.8909 7.14062C12.0159 6.875 12.0784 6.50781 12.0784 6.03906C12.0784 5.76302 12.0393 5.42969 11.9612 5.03906C11.8831 4.64323 11.7633 4.23698 11.6018 3.82031C11.4403 3.40365 11.2372 3.01302 10.9924 2.64844C10.7528 2.28385 10.4664 1.98698 10.1331 1.75781C9.80493 1.52865 9.43254 1.41406 9.01587 1.41406Z"
		fill="currentColor"
	/>
</svg>
