<svg
	viewBox="0 0 21 24"
	fill="none"
	xmlns="http://www.w3.org/2000/svg"
	color="rgb(var(--foreground, 0, 0, 0))"
>
	<path
		d="M9.46094 1.14453C9.01823 1.14453 8.6224 1.26172 8.27344 1.49609C7.92448 1.73047 7.6224 2.03776 7.36719 2.41797C7.11198 2.79297 6.90104 3.19922 6.73438 3.63672C6.56771 4.06901 6.44271 4.48828 6.35938 4.89453C6.27604 5.29557 6.23438 5.63672 6.23438 5.91797C6.23438 6.39714 6.29427 6.77734 6.41406 7.05859C6.53906 7.33984 6.68229 7.55599 6.84375 7.70703C7.01042 7.85807 7.15365 7.97266 7.27344 8.05078C7.39844 8.1237 7.46094 8.19401 7.46094 8.26172C7.46094 8.32422 7.39062 8.40495 7.25 8.50391L4.80469 10.1211L4.1875 9.33984C4.11458 9.24089 4.07812 9.13151 4.07812 9.01172C4.07812 8.89193 4.11979 8.78776 4.20312 8.69922C4.28646 8.60547 4.41406 8.55859 4.58594 8.55859C4.83073 8.55859 5.02604 8.48568 5.17188 8.33984C5.32292 8.19401 5.39844 8.01172 5.39844 7.79297C5.39844 7.57422 5.32292 7.38932 5.17188 7.23828C5.02083 7.08724 4.83594 7.01172 4.61719 7.01172C4.39844 7.01172 4.21094 7.08724 4.05469 7.23828C3.90365 7.38932 3.82812 7.57422 3.82812 7.79297C3.82812 7.82422 3.82812 7.85286 3.82812 7.87891C3.83333 7.89974 3.83854 7.92318 3.84375 7.94922C3.85938 8.09505 3.82812 8.19661 3.75 8.25391C3.67708 8.30599 3.59375 8.32161 3.5 8.30078C3.40625 8.27995 3.33854 8.23307 3.29688 8.16016C3.25521 8.08203 3.27604 7.98568 3.35938 7.87109C3.46354 7.73047 3.51562 7.57422 3.51562 7.40234C3.51562 7.18359 3.4375 6.9987 3.28125 6.84766C3.13021 6.69661 2.94531 6.62109 2.72656 6.62109C2.51302 6.62109 2.32812 6.69661 2.17188 6.84766C2.02083 6.9987 1.94531 7.18359 1.94531 7.40234C1.94531 7.57422 1.99219 7.72526 2.08594 7.85547C2.17969 7.98047 2.30208 8.07682 2.45312 8.14453C2.57292 8.19661 2.63542 8.26432 2.64062 8.34766C2.65104 8.43099 2.625 8.50651 2.5625 8.57422C2.50521 8.64193 2.4349 8.68099 2.35156 8.69141C2.26823 8.69661 2.19271 8.65234 2.125 8.55859C1.96354 8.32422 1.74219 8.20703 1.46094 8.20703C1.24219 8.20703 1.05729 8.28255 0.90625 8.43359C0.755208 8.58464 0.679688 8.76953 0.679688 8.98828C0.679688 9.20703 0.755208 9.39453 0.90625 9.55078C1.05729 9.70182 1.24219 9.77734 1.46094 9.77734C1.60677 9.77734 1.7474 9.73568 1.88281 9.65234C2.0599 9.54297 2.22396 9.4987 2.375 9.51953C2.52604 9.53516 2.67188 9.63411 2.8125 9.81641L4.01562 11.3555C4.16667 11.5482 4.35417 11.681 4.57812 11.7539C4.80729 11.8216 5.03125 11.7956 5.25 11.6758L6.21875 11.1445L5.90625 11.0898C5.79688 11.444 5.71354 11.8398 5.65625 12.2773C5.59896 12.7148 5.58073 13.1992 5.60156 13.7305L6.00781 13.5273L5.09375 13.0273C4.875 12.9076 4.65104 12.8815 4.42188 12.9492C4.19792 13.0169 4.01042 13.1497 3.85938 13.3477L2.66406 14.8867C2.51823 15.069 2.36979 15.1706 2.21875 15.1914C2.06771 15.207 1.90365 15.1602 1.72656 15.0508C1.59635 14.9674 1.45833 14.9258 1.3125 14.9258C1.09375 14.9258 0.90625 15.0039 0.75 15.1602C0.598958 15.3112 0.523438 15.4961 0.523438 15.7148C0.523438 15.9284 0.598958 16.1133 0.75 16.2695C0.90625 16.4206 1.09375 16.4961 1.3125 16.4961C1.58854 16.4961 1.80729 16.3763 1.96875 16.1367C2.03646 16.0482 2.11198 16.0091 2.19531 16.0195C2.27865 16.0247 2.34896 16.0612 2.40625 16.1289C2.46875 16.1914 2.49479 16.2643 2.48438 16.3477C2.47917 16.431 2.41667 16.5013 2.29688 16.5586C2.14583 16.6263 2.02344 16.7253 1.92969 16.8555C1.83594 16.9805 1.78906 17.1263 1.78906 17.293C1.78906 17.5117 1.86458 17.6966 2.01562 17.8477C2.17188 18.0039 2.35938 18.082 2.57812 18.082C2.79167 18.082 2.97396 18.0039 3.125 17.8477C3.28125 17.6966 3.35938 17.5117 3.35938 17.293C3.35938 17.1263 3.3099 16.9701 3.21094 16.8242C3.1224 16.7148 3.09896 16.6237 3.14062 16.5508C3.1875 16.4727 3.25781 16.4232 3.35156 16.4023C3.44531 16.3815 3.52865 16.3997 3.60156 16.457C3.67969 16.5091 3.70833 16.6081 3.6875 16.7539C3.68229 16.7747 3.67708 16.8008 3.67188 16.832C3.67188 16.8581 3.67188 16.8841 3.67188 16.9102C3.67188 17.1289 3.7474 17.3138 3.89844 17.4648C4.05469 17.6159 4.24219 17.6914 4.46094 17.6914C4.67969 17.6914 4.86458 17.6159 5.01562 17.4648C5.16667 17.3138 5.24219 17.1289 5.24219 16.9102C5.24219 16.6914 5.16927 16.5091 5.02344 16.3633C4.8776 16.2174 4.67969 16.1445 4.42969 16.1445C4.25781 16.1445 4.13021 16.1003 4.04688 16.0117C3.96354 15.918 3.92188 15.8112 3.92188 15.6914C3.92188 15.5664 3.95833 15.457 4.03125 15.3633L4.65625 14.582L7.36719 16.7539C7.32552 17.5768 7.46875 18.3555 7.79688 19.0898C8.125 19.8242 8.59896 20.4727 9.21875 21.0352C9.84375 21.6029 10.5755 22.0482 11.4141 22.3711C12.2578 22.694 13.1719 22.8555 14.1562 22.8555C15.0521 22.8555 15.8359 22.7331 16.5078 22.4883C17.1849 22.2487 17.7578 21.9518 18.2266 21.5977C18.6953 21.2435 19.0677 20.8893 19.3438 20.5352C19.625 20.181 19.8177 19.8919 19.9219 19.668C20.0729 19.3398 20.1146 19.0456 20.0469 18.7852C19.9792 18.5299 19.8411 18.3294 19.6328 18.1836C19.4297 18.0378 19.1927 17.9701 18.9219 17.9805C18.651 17.9961 18.3906 18.1107 18.1406 18.3242C17.8125 18.6055 17.4661 18.819 17.1016 18.9648C16.737 19.1159 16.3724 19.2174 16.0078 19.2695C15.6484 19.3216 15.3073 19.3477 14.9844 19.3477C14.6406 19.3477 14.2812 19.2852 13.9062 19.1602C13.5365 19.0352 13.1875 18.8529 12.8594 18.6133C12.5365 18.3737 12.2708 18.0846 12.0625 17.7461C11.8542 17.4076 11.737 17.0299 11.7109 16.6133L14.25 14.582L14.8672 15.3633C14.9453 15.457 14.9844 15.5664 14.9844 15.6914C14.9844 15.8112 14.9427 15.918 14.8594 16.0117C14.776 16.1003 14.6484 16.1445 14.4766 16.1445C14.2266 16.1445 14.0286 16.2174 13.8828 16.3633C13.737 16.5091 13.6641 16.6914 13.6641 16.9102C13.6641 17.1289 13.7396 17.3138 13.8906 17.4648C14.0417 17.6159 14.2266 17.6914 14.4453 17.6914C14.6641 17.6914 14.849 17.6159 15 17.4648C15.1562 17.3138 15.2344 17.1289 15.2344 16.9102C15.2344 16.8789 15.2318 16.8503 15.2266 16.8242C15.2266 16.7982 15.224 16.7721 15.2188 16.7461C15.2031 16.6003 15.2318 16.5013 15.3047 16.4492C15.3828 16.3971 15.4688 16.3815 15.5625 16.4023C15.6562 16.4232 15.724 16.4727 15.7656 16.5508C15.8073 16.6237 15.7839 16.7148 15.6953 16.8242C15.5964 16.9701 15.5469 17.1263 15.5469 17.293C15.5469 17.5117 15.6224 17.6966 15.7734 17.8477C15.9245 18.0039 16.1094 18.082 16.3281 18.082C16.5469 18.082 16.7318 18.0039 16.8828 17.8477C17.0391 17.6966 17.1172 17.5117 17.1172 17.293C17.1172 17.1263 17.0703 16.9805 16.9766 16.8555C16.8828 16.7253 16.7604 16.6263 16.6094 16.5586C16.4896 16.5013 16.4245 16.431 16.4141 16.3477C16.4089 16.2643 16.4349 16.1914 16.4922 16.1289C16.5547 16.0612 16.6276 16.0247 16.7109 16.0195C16.7943 16.0091 16.8698 16.0482 16.9375 16.1367C17.0938 16.3763 17.3125 16.4961 17.5938 16.4961C17.8125 16.4961 17.9974 16.4206 18.1484 16.2695C18.3047 16.1133 18.3828 15.9284 18.3828 15.7148C18.3828 15.4961 18.3047 15.3112 18.1484 15.1602C17.9974 15.0039 17.8125 14.9258 17.5938 14.9258C17.4479 14.9258 17.3073 14.9674 17.1719 15.0508C17 15.1602 16.8385 15.207 16.6875 15.1914C16.5365 15.1706 16.388 15.069 16.2422 14.8867L15.0469 13.3477C14.8958 13.1497 14.7057 13.0169 14.4766 12.9492C14.2526 12.8815 14.0312 12.9076 13.8125 13.0273L12.9062 13.5195L13.3125 13.7227C13.3333 13.1966 13.3151 12.7148 13.2578 12.2773C13.2005 11.8398 13.1172 11.444 13.0078 11.0898L12.6953 11.1445L13.6641 11.6758C13.8828 11.7956 14.1042 11.8216 14.3281 11.7539C14.5573 11.681 14.7474 11.5482 14.8984 11.3555L16.1016 9.81641C16.2422 9.63411 16.388 9.53516 16.5391 9.51953C16.6901 9.4987 16.8542 9.54297 17.0312 9.65234C17.1667 9.73568 17.3073 9.77734 17.4531 9.77734C17.6719 9.77734 17.8568 9.70182 18.0078 9.55078C18.1589 9.39453 18.2344 9.20703 18.2344 8.98828C18.2344 8.76953 18.1589 8.58464 18.0078 8.43359C17.8568 8.28255 17.6719 8.20703 17.4531 8.20703C17.1719 8.20703 16.9505 8.32422 16.7891 8.55859C16.7214 8.65234 16.6458 8.69661 16.5625 8.69141C16.4792 8.68099 16.4062 8.64193 16.3438 8.57422C16.2865 8.50651 16.2604 8.43099 16.2656 8.34766C16.276 8.26432 16.3411 8.19661 16.4609 8.14453C16.612 8.07682 16.7344 7.98047 16.8281 7.85547C16.9219 7.72526 16.9688 7.57422 16.9688 7.40234C16.9688 7.18359 16.8906 6.9987 16.7344 6.84766C16.5833 6.69661 16.401 6.62109 16.1875 6.62109C15.9688 6.62109 15.7812 6.69661 15.625 6.84766C15.474 6.9987 15.3984 7.18359 15.3984 7.40234C15.3984 7.57422 15.4505 7.73047 15.5547 7.87109C15.638 7.98568 15.6589 8.08203 15.6172 8.16016C15.5755 8.23307 15.5078 8.27995 15.4141 8.30078C15.3203 8.32161 15.2344 8.30599 15.1562 8.25391C15.0833 8.20182 15.0547 8.10286 15.0703 7.95703C15.0755 7.9362 15.0781 7.91276 15.0781 7.88672C15.0833 7.85547 15.0859 7.82422 15.0859 7.79297C15.0859 7.57422 15.0078 7.38932 14.8516 7.23828C14.7005 7.08724 14.5156 7.01172 14.2969 7.01172C14.0833 7.01172 13.8984 7.08724 13.7422 7.23828C13.5911 7.38932 13.5156 7.57422 13.5156 7.79297C13.5156 8.01172 13.5885 8.19401 13.7344 8.33984C13.8854 8.48568 14.0833 8.55859 14.3281 8.55859C14.5 8.55859 14.6276 8.60547 14.7109 8.69922C14.7943 8.78776 14.8359 8.89193 14.8359 9.01172C14.8359 9.13151 14.7995 9.24089 14.7266 9.33984L14.1094 10.1211L11.6484 8.50391C11.5026 8.40495 11.4297 8.32422 11.4297 8.26172C11.4297 8.19401 11.4922 8.12109 11.6172 8.04297C11.7422 7.96484 11.888 7.85026 12.0547 7.69922C12.2214 7.54818 12.3672 7.33203 12.4922 7.05078C12.6172 6.76953 12.6797 6.39193 12.6797 5.91797C12.6797 5.63672 12.638 5.29557 12.5547 4.89453C12.4766 4.48828 12.3516 4.06901 12.1797 3.63672C12.013 3.19922 11.8021 2.79297 11.5469 2.41797C11.2917 2.03776 10.9896 1.73047 10.6406 1.49609C10.2969 1.26172 9.90365 1.14453 9.46094 1.14453ZM9.46094 2.33984C9.77344 2.33984 10.0547 2.47005 10.3047 2.73047C10.5547 2.98568 10.7656 3.30859 10.9375 3.69922C11.1146 4.08464 11.2474 4.47786 11.3359 4.87891C11.4297 5.27995 11.4766 5.6263 11.4766 5.91797C11.4766 6.19922 11.4349 6.42839 11.3516 6.60547C11.2734 6.78255 11.1719 6.93359 11.0469 7.05859C10.9271 7.17839 10.8073 7.29036 10.6875 7.39453C10.5677 7.4987 10.4661 7.61849 10.3828 7.75391C10.2995 7.88411 10.2578 8.05078 10.2578 8.25391C10.2578 8.42578 10.3255 8.61589 10.4609 8.82422C10.5964 9.02734 10.763 9.26432 10.9609 9.53516C11.1641 9.80599 11.3646 10.1211 11.5625 10.4805C11.7656 10.8346 11.9349 11.2461 12.0703 11.7148C12.2057 12.1836 12.2734 12.7201 12.2734 13.3242C12.2734 13.7617 12.2188 14.1289 12.1094 14.4258C12.0052 14.7227 11.8151 15.0039 11.5391 15.2695C11.263 15.5299 10.8698 15.8268 10.3594 16.1602C10.3385 16.8529 10.4661 17.4674 10.7422 18.0039C11.0234 18.5456 11.401 19.0013 11.875 19.3711C12.3542 19.7461 12.8854 20.0299 13.4688 20.2227C14.0521 20.4154 14.6354 20.5117 15.2188 20.5117C15.4844 20.5117 15.8073 20.4857 16.1875 20.4336C16.5729 20.3815 16.9766 20.2747 17.3984 20.1133C17.8203 19.957 18.2188 19.7201 18.5938 19.4023C18.6458 19.3555 18.6927 19.3503 18.7344 19.3867C18.776 19.4232 18.776 19.4779 18.7344 19.5508C18.6042 19.7487 18.4141 19.9701 18.1641 20.2148C17.9193 20.4596 17.6094 20.694 17.2344 20.918C16.8646 21.1471 16.4245 21.3346 15.9141 21.4805C15.4036 21.6263 14.8177 21.6992 14.1562 21.6992C13.2604 21.6992 12.4427 21.5534 11.7031 21.2617C10.9688 20.9753 10.3464 20.5768 9.83594 20.0664C9.33073 19.5612 8.96615 18.9779 8.74219 18.3164C8.52344 17.6549 8.48438 16.9544 8.625 16.2148C8.08854 15.8763 7.67708 15.5742 7.39062 15.3086C7.10417 15.0378 6.90625 14.7513 6.79688 14.4492C6.69271 14.1419 6.64062 13.7669 6.64062 13.3242C6.64062 12.7201 6.70833 12.1836 6.84375 11.7148C6.97917 11.2461 7.14583 10.8346 7.34375 10.4805C7.54688 10.1211 7.7474 9.80599 7.94531 9.53516C8.14844 9.26432 8.31771 9.02734 8.45312 8.82422C8.58854 8.61589 8.65625 8.42578 8.65625 8.25391C8.65625 8.05078 8.61458 7.88411 8.53125 7.75391C8.44792 7.61849 8.34635 7.4987 8.22656 7.39453C8.10677 7.29036 7.98438 7.17839 7.85938 7.05859C7.73958 6.93359 7.63802 6.78255 7.55469 6.60547C7.47656 6.42839 7.4375 6.19922 7.4375 5.91797C7.4375 5.6263 7.48177 5.27995 7.57031 4.87891C7.66406 4.47786 7.79688 4.08464 7.96875 3.69922C8.14583 3.30859 8.35938 2.98568 8.60938 2.73047C8.85938 2.47005 9.14323 2.33984 9.46094 2.33984Z"
		fill="currentColor"
	/>
</svg>
