<svg
	viewBox="0 0 18 24"
	fill="none"
	xmlns="http://www.w3.org/2000/svg"
	color="rgb(var(--foreground, 0, 0, 0))"
>
	<path
		d="M0.582886 11.2461C0.582886 11.7617 0.663615 12.2253 0.825073 12.6367C0.99174 13.0482 1.2157 13.3763 1.49695 13.6211C1.78341 13.8607 2.10111 13.9805 2.45007 13.9805C2.80424 13.9805 3.12195 13.8607 3.4032 13.6211C3.68966 13.3763 3.91361 13.0482 4.07507 12.6367C4.24174 12.2253 4.32507 11.7617 4.32507 11.2461C4.32507 10.7357 4.24174 10.2747 4.07507 9.86328C3.91361 9.44661 3.68966 9.11849 3.4032 8.87891C3.12195 8.63411 2.80424 8.51172 2.45007 8.51172C2.10111 8.51172 1.78341 8.63411 1.49695 8.87891C1.2157 9.11849 0.99174 9.44661 0.825073 9.86328C0.663615 10.2747 0.582886 10.7357 0.582886 11.2461ZM4.37195 6.73828C4.37195 7.2487 4.45528 7.71224 4.62195 8.12891C4.78861 8.54036 5.01257 8.86589 5.29382 9.10547C5.58028 9.34505 5.89799 9.46484 6.24695 9.46484C6.60111 9.46484 6.91882 9.34505 7.20007 9.10547C7.48653 8.86589 7.71309 8.54036 7.87976 8.12891C8.04643 7.71224 8.12976 7.2487 8.12976 6.73828C8.12976 6.22266 8.04643 5.75911 7.87976 5.34766C7.71309 4.9362 7.48653 4.61068 7.20007 4.37109C6.91882 4.1263 6.60111 4.00391 6.24695 4.00391C5.89799 4.00391 5.58028 4.1263 5.29382 4.37109C5.01257 4.61068 4.78861 4.9362 4.62195 5.34766C4.45528 5.75911 4.37195 6.22266 4.37195 6.73828ZM9.48132 6.73828C9.48132 7.2487 9.56205 7.71224 9.72351 8.12891C9.89018 8.54036 10.1141 8.86589 10.3954 9.10547C10.6818 9.34505 11.0022 9.46484 11.3563 9.46484C11.7053 9.46484 12.0204 9.34505 12.3016 9.10547C12.5881 8.86589 12.8147 8.54036 12.9813 8.12891C13.148 7.71224 13.2313 7.2487 13.2313 6.73828C13.2313 6.22266 13.148 5.75911 12.9813 5.34766C12.8147 4.9362 12.5881 4.61068 12.3016 4.37109C12.0204 4.1263 11.7053 4.00391 11.3563 4.00391C11.0022 4.00391 10.6818 4.1263 10.3954 4.37109C10.1141 4.61068 9.89018 4.9362 9.72351 5.34766C9.56205 5.75911 9.48132 6.22266 9.48132 6.73828ZM13.2782 11.2461C13.2782 11.7617 13.3615 12.2253 13.5282 12.6367C13.6949 13.0482 13.9188 13.3763 14.2001 13.6211C14.4813 13.8607 14.799 13.9805 15.1532 13.9805C15.5022 13.9805 15.8173 13.8607 16.0985 13.6211C16.385 13.3763 16.6089 13.0482 16.7704 12.6367C16.9371 12.2253 17.0204 11.7617 17.0204 11.2461C17.0204 10.7357 16.9371 10.2747 16.7704 9.86328C16.6089 9.44661 16.385 9.11849 16.0985 8.87891C15.8173 8.63411 15.5022 8.51172 15.1532 8.51172C14.799 8.51172 14.4813 8.63411 14.2001 8.87891C13.9188 9.11849 13.6949 9.44661 13.5282 9.86328C13.3615 10.2747 13.2782 10.7357 13.2782 11.2461ZM2.92664 17.293C2.92664 17.819 3.03601 18.2852 3.25476 18.6914C3.47872 19.0977 3.78601 19.4154 4.17664 19.6445C4.57247 19.8789 5.0308 19.9961 5.55164 19.9961C5.93705 19.9961 6.2782 19.9518 6.57507 19.8633C6.87195 19.7747 7.1558 19.6836 7.42664 19.5898C7.64539 19.5117 7.86414 19.4414 8.08289 19.3789C8.30684 19.3216 8.54643 19.293 8.80164 19.293C9.05684 19.293 9.29382 19.3216 9.51257 19.3789C9.73132 19.4414 9.95268 19.5117 10.1766 19.5898C10.4423 19.6836 10.7235 19.7747 11.0204 19.8633C11.3173 19.9518 11.6584 19.9961 12.0438 19.9961C12.5647 19.9961 13.023 19.8789 13.4188 19.6445C13.8147 19.4154 14.1219 19.0977 14.3407 18.6914C14.5647 18.2852 14.6766 17.819 14.6766 17.293C14.6766 16.8451 14.5985 16.4622 14.4423 16.1445C14.286 15.8268 14.0855 15.5508 13.8407 15.3164C13.6011 15.0768 13.3537 14.8503 13.0985 14.6367C12.885 14.4648 12.6792 14.293 12.4813 14.1211C12.2834 13.944 12.1141 13.7461 11.9735 13.5273C11.8537 13.3503 11.7443 13.1706 11.6454 12.9883C11.5516 12.8008 11.4631 12.6159 11.3798 12.4336C11.1923 12.0326 10.9996 11.6549 10.8016 11.3008C10.6089 10.9414 10.3589 10.6523 10.0516 10.4336C9.74434 10.2096 9.32768 10.0977 8.80164 10.0977C8.27559 10.0977 7.85893 10.2096 7.55164 10.4336C7.24434 10.6523 6.99174 10.9414 6.79382 11.3008C6.60111 11.6549 6.41101 12.0299 6.22351 12.4258C6.14018 12.6081 6.04903 12.793 5.95007 12.9805C5.85632 13.1628 5.75216 13.3398 5.63757 13.5117C5.49695 13.7305 5.32507 13.931 5.12195 14.1133C4.92403 14.2904 4.7183 14.4648 4.50476 14.6367C4.24434 14.8503 3.99434 15.0768 3.75476 15.3164C3.51518 15.5508 3.31726 15.8268 3.16101 16.1445C3.00476 16.4622 2.92664 16.8451 2.92664 17.293Z"
		fill="currentColor"
	/>
</svg>
