<svg
	viewBox="0 0 18 24"
	fill="none"
	xmlns="http://www.w3.org/2000/svg"
	color="rgb(var(--foreground, 0, 0, 0))"
>
	<path
		d="M6.11414 20.2734C6.50476 20.2734 6.8407 20.2344 7.12195 20.1562C7.4032 20.0781 7.6558 19.9922 7.87976 19.8984C8.11414 19.7995 8.32507 19.7083 8.51257 19.625C8.70528 19.5417 8.91101 19.5 9.12976 19.5C9.3433 19.5 9.54643 19.5417 9.73914 19.625C9.93184 19.7083 10.1454 19.7995 10.3798 19.8984C10.5985 19.9922 10.8485 20.0781 11.1298 20.1562C11.411 20.2344 11.7469 20.2734 12.1376 20.2734C12.7001 20.2734 13.2053 20.1484 13.6532 19.8984C14.1011 19.6536 14.4553 19.3177 14.7157 18.8906C14.9761 18.4635 15.1063 17.9844 15.1063 17.4531C15.1063 16.9271 15.0204 16.4844 14.8485 16.125C14.6766 15.7604 14.4605 15.4505 14.2001 15.1953C13.9397 14.9401 13.6792 14.7057 13.4188 14.4922C13.2105 14.3307 13.0178 14.1745 12.8407 14.0234C12.6688 13.8672 12.5308 13.7005 12.4266 13.5234C12.3225 13.3568 12.2287 13.1823 12.1454 13C12.0621 12.8125 11.9787 12.625 11.8954 12.4375C11.7235 12.0417 11.5334 11.6615 11.3251 11.2969C11.1167 10.9323 10.8407 10.6328 10.4969 10.3984C10.1532 10.1589 9.69747 10.0391 9.12976 10.0391C8.55684 10.0391 8.09851 10.1589 7.75476 10.3984C7.41101 10.6328 7.13497 10.9323 6.92664 11.2969C6.7183 11.6615 6.5308 12.0391 6.36414 12.4297C6.2808 12.6224 6.19747 12.8099 6.11414 12.9922C6.0308 13.1745 5.93966 13.3464 5.8407 13.5078C5.73132 13.6901 5.58809 13.8594 5.41101 14.0156C5.23393 14.1719 5.04382 14.3307 4.8407 14.4922C4.57507 14.7057 4.31205 14.9401 4.05164 15.1953C3.79643 15.4505 3.58289 15.7604 3.41101 16.125C3.23914 16.4844 3.1532 16.9271 3.1532 17.4531C3.1532 17.9844 3.28341 18.4635 3.54382 18.8906C3.80424 19.3177 4.15841 19.6536 4.60632 19.8984C5.05424 20.1484 5.55684 20.2734 6.11414 20.2734ZM6.11414 19.1406C5.58289 19.1406 5.14539 18.9818 4.80164 18.6641C4.45789 18.3464 4.28601 17.9427 4.28601 17.4531C4.28601 16.9948 4.36674 16.638 4.5282 16.3828C4.69486 16.1276 4.9058 15.9089 5.16101 15.7266C5.41622 15.5443 5.68445 15.3385 5.9657 15.1094C6.25216 14.875 6.51518 14.5521 6.75476 14.1406C6.93184 13.8385 7.0907 13.5182 7.23132 13.1797C7.37195 12.8359 7.52039 12.513 7.67664 12.2109C7.83289 11.9036 8.02559 11.6536 8.25476 11.4609C8.48393 11.2682 8.77559 11.1719 9.12976 11.1719C9.48393 11.1719 9.77299 11.2682 9.99695 11.4609C10.2261 11.6536 10.4188 11.9036 10.5751 12.2109C10.7365 12.513 10.8876 12.8359 11.0282 13.1797C11.1688 13.5234 11.3277 13.849 11.5048 14.1562C11.7443 14.5625 12.0048 14.8802 12.286 15.1094C12.5725 15.3385 12.8433 15.5443 13.0985 15.7266C13.3537 15.9089 13.5621 16.1276 13.7235 16.3828C13.8902 16.638 13.9735 16.9948 13.9735 17.4531C13.9735 17.9427 13.799 18.3464 13.4501 18.6641C13.1063 18.9818 12.6688 19.1406 12.1376 19.1406C11.8667 19.1406 11.6115 19.1016 11.3719 19.0234C11.1376 18.9505 10.9058 18.862 10.6766 18.7578C10.4475 18.6589 10.2079 18.5703 9.95789 18.4922C9.70789 18.4141 9.43184 18.375 9.12976 18.375C8.82768 18.375 8.54903 18.4141 8.29382 18.4922C8.04382 18.5703 7.80424 18.6589 7.57507 18.7578C7.34591 18.862 7.11414 18.9505 6.87976 19.0234C6.64539 19.1016 6.39018 19.1406 6.11414 19.1406ZM0.692261 11.1953C0.692261 12.0807 0.882365 12.7969 1.26257 13.3438C1.64799 13.8854 2.1558 14.1562 2.78601 14.1562C3.41622 14.1562 3.92403 13.8854 4.30945 13.3438C4.69486 12.7969 4.88757 12.0807 4.88757 11.1953C4.88757 10.3099 4.69486 9.59635 4.30945 9.05469C3.92403 8.50781 3.41622 8.23438 2.78601 8.23438C2.1558 8.23438 1.64799 8.50781 1.26257 9.05469C0.882365 9.59635 0.692261 10.3099 0.692261 11.1953ZM1.7782 11.1953C1.7782 10.6328 1.86934 10.1797 2.05164 9.83594C2.23914 9.49219 2.48393 9.32031 2.78601 9.32031C3.08809 9.32031 3.33289 9.49219 3.52039 9.83594C3.70789 10.1797 3.80164 10.6328 3.80164 11.1953C3.80164 11.7578 3.70789 12.2109 3.52039 12.5547C3.33289 12.8984 3.08809 13.0703 2.78601 13.0703C2.48393 13.0703 2.23914 12.8984 2.05164 12.5547C1.86934 12.2109 1.7782 11.7578 1.7782 11.1953ZM4.48914 6.67969C4.48914 7.57031 4.67924 8.28646 5.05945 8.82812C5.44486 9.36458 5.95268 9.63281 6.58289 9.63281C7.21309 9.63281 7.72091 9.36198 8.10632 8.82031C8.49174 8.27865 8.68445 7.5651 8.68445 6.67969C8.68445 5.79427 8.49174 5.08073 8.10632 4.53906C7.72611 3.9974 7.2183 3.72656 6.58289 3.72656C5.95268 3.72656 5.44486 3.9974 5.05945 4.53906C4.67924 5.08073 4.48914 5.79427 4.48914 6.67969ZM5.57507 6.67969C5.57507 6.11719 5.66622 5.66667 5.84851 5.32812C6.03601 4.98438 6.2808 4.8125 6.58289 4.8125C6.89018 4.8125 7.13497 4.98438 7.31726 5.32812C7.50476 5.67188 7.59851 6.1224 7.59851 6.67969C7.59851 7.24219 7.50476 7.69531 7.31726 8.03906C7.13497 8.3776 6.89018 8.54688 6.58289 8.54688C6.2808 8.54688 6.03601 8.3776 5.84851 8.03906C5.66622 7.69531 5.57507 7.24219 5.57507 6.67969ZM9.5907 6.67969C9.5907 7.26823 9.67664 7.78646 9.84851 8.23438C10.0256 8.67708 10.2704 9.02083 10.5829 9.26562C10.9006 9.51042 11.2704 9.63281 11.6923 9.63281C12.3225 9.63281 12.8277 9.36458 13.2079 8.82812C13.5933 8.28646 13.786 7.57031 13.786 6.67969C13.786 5.79427 13.5933 5.08073 13.2079 4.53906C12.8277 3.9974 12.3225 3.72656 11.6923 3.72656C11.2704 3.72656 10.9006 3.85156 10.5829 4.10156C10.2704 4.34635 10.0256 4.6901 9.84851 5.13281C9.67664 5.57031 9.5907 6.08594 9.5907 6.67969ZM10.6766 6.67969C10.6766 6.1224 10.7678 5.67188 10.9501 5.32812C11.1376 4.98438 11.385 4.8125 11.6923 4.8125C11.9943 4.8125 12.2365 4.98438 12.4188 5.32812C12.6063 5.66667 12.7001 6.11719 12.7001 6.67969C12.7001 7.24219 12.6063 7.69531 12.4188 8.03906C12.2365 8.3776 11.9943 8.54688 11.6923 8.54688C11.385 8.54688 11.1376 8.3776 10.9501 8.03906C10.7678 7.69531 10.6766 7.24219 10.6766 6.67969ZM13.3876 11.1953C13.3876 11.7839 13.4735 12.3021 13.6454 12.75C13.8225 13.1927 14.0673 13.5391 14.3798 13.7891C14.6975 14.0339 15.0673 14.1562 15.4891 14.1562C16.1193 14.1562 16.6246 13.8854 17.0048 13.3438C17.3902 12.7969 17.5829 12.0807 17.5829 11.1953C17.5829 10.3099 17.3902 9.59635 17.0048 9.05469C16.6246 8.50781 16.1193 8.23438 15.4891 8.23438C15.0673 8.23438 14.6975 8.35938 14.3798 8.60938C14.0673 8.85417 13.8225 9.20052 13.6454 9.64844C13.4735 10.0911 13.3876 10.6068 13.3876 11.1953ZM14.4735 11.1953C14.4735 10.6328 14.5673 10.1797 14.7548 9.83594C14.9423 9.49219 15.1871 9.32031 15.4891 9.32031C15.7964 9.32031 16.0412 9.49219 16.2235 9.83594C16.4058 10.1797 16.4969 10.6328 16.4969 11.1953C16.4969 11.7578 16.4058 12.2109 16.2235 12.5547C16.0412 12.8984 15.7964 13.0703 15.4891 13.0703C15.1871 13.0703 14.9423 12.8984 14.7548 12.5547C14.5673 12.2109 14.4735 11.7578 14.4735 11.1953Z"
		fill="currentColor"
	/>
</svg>
