<svg
	viewBox="0 0 25 24"
	fill="none"
	xmlns="http://www.w3.org/2000/svg"
	color="rgb(var(--foreground, 0, 0, 0))"
>
	<path
		d="M17.1139 19.9414C17.6504 19.9414 18.0748 19.8581 18.3873 19.6914C18.705 19.5299 18.9342 19.3164 19.0748 19.0508C19.2155 18.7904 19.2858 18.5065 19.2858 18.1992C19.2858 17.6419 19.1243 17.1706 18.8014 16.7852C18.4785 16.3997 17.9941 16.1081 17.3483 15.9102C16.7024 15.707 15.8951 15.6055 14.9264 15.6055C14.7076 15.6055 14.5175 15.6107 14.3561 15.6211C14.1946 15.6263 14.0514 15.6341 13.9264 15.6445C13.8066 15.6549 13.6998 15.668 13.6061 15.6836L13.0358 14.3086C12.6399 13.3607 12.1764 12.6107 11.6451 12.0586C11.1139 11.5013 10.541 11.1029 9.92639 10.8633C9.31702 10.6237 8.69202 10.5039 8.05139 10.5039C7.89514 10.5039 7.73108 10.5091 7.5592 10.5195C7.38733 10.5247 7.22066 10.5456 7.0592 10.582C6.8665 10.6237 6.72848 10.694 6.64514 10.793C6.56702 10.8867 6.52795 10.9987 6.52795 11.1289C6.52795 11.2799 6.57743 11.3997 6.67639 11.4883C6.77535 11.5716 6.90556 11.6133 7.06702 11.6133C7.23368 11.6081 7.38212 11.5977 7.51233 11.582C7.64254 11.5664 7.804 11.5586 7.9967 11.5586C8.59045 11.5586 9.12952 11.6758 9.61389 11.9102C10.1035 12.1393 10.5566 12.5117 10.9733 13.0273C11.3899 13.543 11.7858 14.2279 12.1608 15.082L12.9108 16.8242C13.2076 16.7617 13.5123 16.7096 13.8248 16.668C14.1373 16.6263 14.5149 16.6055 14.9576 16.6055C15.4837 16.6055 15.9889 16.6576 16.4733 16.7617C16.9629 16.8607 17.3613 17.0195 17.6686 17.2383C17.9759 17.457 18.1295 17.7461 18.1295 18.1055C18.1295 18.3138 18.041 18.4805 17.8639 18.6055C17.6868 18.7357 17.4368 18.8008 17.1139 18.8008C16.7337 18.8008 16.3899 18.7669 16.0826 18.6992C15.7806 18.6367 15.4602 18.6055 15.1217 18.6055C14.7936 18.6055 14.5045 18.6185 14.2545 18.6445C14.0045 18.6706 13.7832 18.6966 13.5905 18.7227C13.403 18.7487 13.2363 18.7617 13.0905 18.7617C12.9082 18.7617 12.7207 18.7383 12.528 18.6914C12.3352 18.6497 12.1399 18.5482 11.942 18.3867L8.44983 15.4414C7.19983 15.4987 6.1217 15.3581 5.21545 15.0195C4.3092 14.681 3.59045 14.1289 3.0592 13.3633C2.66337 13.4102 2.33525 13.3607 2.07483 13.2148C1.81441 13.0638 1.6842 12.8242 1.6842 12.4961C1.6842 12.1992 1.8066 11.9596 2.05139 11.7773C2.29618 11.5951 2.63472 11.5143 3.06702 11.5352C3.46806 10.2174 4.09566 9.24349 4.94983 8.61328C5.804 7.98307 6.84045 7.66797 8.0592 7.66797C8.69462 7.66797 9.33004 7.77995 9.96545 8.00391C10.6061 8.22266 11.2311 8.4987 11.8405 8.83203C12.4498 9.16536 13.0332 9.50911 13.5905 9.86328C14.1477 10.2174 14.666 10.5299 15.1451 10.8008C15.4003 10.957 15.6608 11.0664 15.9264 11.1289C16.192 11.1862 16.4238 11.2148 16.6217 11.2148C17.0488 11.2148 17.4342 11.0794 17.778 10.8086C18.1269 10.5378 18.455 10.1289 18.7623 9.58203L13.5592 6.37891C13.3717 6.26432 13.1738 6.13151 12.9655 5.98047C12.7623 5.82943 12.5878 5.6862 12.442 5.55078C12.2962 5.41016 12.2233 5.30339 12.2233 5.23047C12.2233 5.07943 12.3222 4.94401 12.5201 4.82422C12.7233 4.69922 12.9707 4.60286 13.2623 4.53516C13.554 4.46224 13.83 4.42578 14.0905 4.42578C14.7102 4.42578 15.2832 4.59766 15.8092 4.94141C16.3352 5.28516 16.8352 5.74349 17.3092 6.31641L19.7076 9.18359C20.2597 9.15755 20.7701 9.23568 21.2389 9.41797C21.7076 9.60026 22.1165 9.86328 22.4655 10.207C22.8196 10.5508 23.0931 10.9544 23.2858 11.418C23.4837 11.8815 23.5826 12.3841 23.5826 12.9258C23.5826 13.3841 23.5045 13.7461 23.3483 14.0117C23.1972 14.2721 22.9524 14.457 22.6139 14.5664C22.2806 14.6758 21.8405 14.7305 21.2936 14.7305C20.7832 14.7305 20.2545 14.6367 19.7076 14.4492C19.166 14.2617 18.653 14.0117 18.1686 13.6992C17.6738 13.8242 17.1764 13.9857 16.6764 14.1836C16.1764 14.3815 15.6894 14.6107 15.2155 14.8711C14.7467 15.1315 14.3066 15.418 13.8951 15.7305L14.778 16.2461C15.3821 15.8971 15.9707 15.5977 16.5436 15.3477C17.1165 15.0924 17.5905 14.8971 17.9655 14.7617C18.4342 15.0742 18.9733 15.319 19.5826 15.4961C20.1972 15.6732 20.7545 15.7591 21.2545 15.7539C21.9576 15.7487 22.5618 15.6602 23.067 15.4883C23.5722 15.3164 23.9602 15.0273 24.2311 14.6211C24.5071 14.2096 24.6451 13.6419 24.6451 12.918C24.6451 12.2513 24.528 11.6367 24.2936 11.0742C24.0592 10.5065 23.7389 10.0117 23.3326 9.58984C22.9264 9.16797 22.4576 8.83984 21.9264 8.60547C21.4004 8.36589 20.8405 8.24349 20.2467 8.23828L18.5514 5.93359C17.9004 5.0638 17.2129 4.39453 16.4889 3.92578C15.7701 3.45182 14.9655 3.21484 14.0748 3.21484C13.7311 3.21484 13.3691 3.26172 12.9889 3.35547C12.6087 3.44401 12.2519 3.57161 11.9186 3.73828C11.5905 3.89974 11.3222 4.09505 11.1139 4.32422C10.9108 4.54818 10.8092 4.79557 10.8092 5.06641C10.8092 5.36849 10.9082 5.64453 11.1061 5.89453C11.3092 6.14453 11.567 6.38151 11.8795 6.60547C12.192 6.82422 12.5149 7.04036 12.8483 7.25391C13.1399 7.4362 13.455 7.62891 13.7936 7.83203C14.1321 8.03516 14.4837 8.24349 14.8483 8.45703C15.2128 8.67057 15.58 8.88672 15.9498 9.10547C16.3248 9.32422 16.6972 9.54036 17.067 9.75391C16.9681 9.84245 16.8769 9.90755 16.7936 9.94922C16.7155 9.99089 16.6269 10.0117 16.528 10.0117C16.4082 10.0117 16.2675 9.98307 16.1061 9.92578C15.9446 9.86328 15.7597 9.77214 15.5514 9.65234C14.7649 9.20443 14.0436 8.78776 13.3873 8.40234C12.7363 8.01172 12.1191 7.66797 11.5358 7.37109C10.9576 7.07422 10.3873 6.84245 9.82483 6.67578C9.26233 6.50911 8.679 6.42578 8.07483 6.42578C6.6217 6.42578 5.38473 6.79557 4.36389 7.53516C3.34306 8.26953 2.58264 9.35026 2.08264 10.7773C1.59827 10.8815 1.20504 11.0872 0.902954 11.3945C0.600871 11.7018 0.449829 12.1003 0.449829 12.5898C0.449829 12.9961 0.546183 13.3372 0.738892 13.6133C0.9316 13.8841 1.179 14.0924 1.48108 14.2383C1.78316 14.3789 2.10347 14.4596 2.44202 14.4805C2.69202 14.8815 3.07743 15.2539 3.59827 15.5977C4.1191 15.9362 4.7467 16.1966 5.48108 16.3789C6.22066 16.5612 7.03316 16.6159 7.91858 16.543L11.3326 19.3633C11.5566 19.5508 11.8014 19.694 12.067 19.793C12.3378 19.8919 12.6686 19.9414 13.0592 19.9414C13.3873 19.9414 13.7024 19.9049 14.0045 19.832C14.3118 19.7591 14.6972 19.7227 15.1608 19.7227C15.5826 19.7227 15.9264 19.7591 16.192 19.832C16.4629 19.9049 16.7701 19.9414 17.1139 19.9414ZM7.56702 20.7852C8.1191 20.7852 8.64775 20.7305 9.15295 20.6211C9.66337 20.5169 10.1451 20.3398 10.5983 20.0898C11.0514 19.8398 11.4733 19.4961 11.8639 19.0586L10.8951 18.4023C10.6608 18.694 10.3743 18.9362 10.0358 19.1289C9.70243 19.3268 9.32222 19.4753 8.89514 19.5742C8.47327 19.6732 8.01754 19.7227 7.52795 19.7227C6.98108 19.7227 6.54358 19.6315 6.21545 19.4492C5.89254 19.2669 5.73108 19.0195 5.73108 18.707C5.73108 18.5508 5.78316 18.418 5.88733 18.3086C5.9915 18.2044 6.15816 18.1523 6.38733 18.1523C6.61129 18.1523 6.84566 18.1732 7.09045 18.2148C7.33525 18.2565 7.59306 18.2773 7.86389 18.2773C8.32223 18.2773 8.70764 18.2331 9.02014 18.1445C9.33785 18.0612 9.64775 17.8659 9.94983 17.5586L9.10608 16.8164C8.90295 17.0143 8.72327 17.1445 8.56702 17.207C8.41077 17.2643 8.2415 17.293 8.0592 17.293C7.88733 17.293 7.71545 17.2799 7.54358 17.2539C7.3717 17.2227 7.19462 17.194 7.01233 17.168C6.83525 17.1367 6.64775 17.1211 6.44983 17.1211C5.90816 17.1211 5.46545 17.2669 5.1217 17.5586C4.77795 17.8451 4.60608 18.2253 4.60608 18.6992C4.60608 19.3659 4.87691 19.8789 5.41858 20.2383C5.96025 20.6029 6.67639 20.7852 7.56702 20.7852ZM20.7701 12.4336C20.9629 12.4336 21.1295 12.3659 21.2701 12.2305C21.4108 12.0898 21.4811 11.9232 21.4811 11.7305C21.4811 11.5378 21.4108 11.3737 21.2701 11.2383C21.1295 11.0977 20.9629 11.0273 20.7701 11.0273C20.5774 11.0273 20.4108 11.0977 20.2701 11.2383C20.1347 11.3737 20.067 11.5378 20.067 11.7305C20.067 11.9232 20.1347 12.0898 20.2701 12.2305C20.4108 12.3659 20.5774 12.4336 20.7701 12.4336Z"
		fill="currentColor"
	/>
</svg>
