<svg
	viewBox="0 0 25 24"
	fill="none"
	xmlns="http://www.w3.org/2000/svg"
	color="rgb(var(--foreground, 0, 0, 0))"
>
	<path
		d="M12.9108 19.8086C13.1868 19.8086 13.4707 19.7643 13.7623 19.6758C14.054 19.5924 14.455 19.5508 14.9655 19.5508C15.3092 19.5508 15.5878 19.5716 15.8014 19.6133C16.0149 19.6549 16.2102 19.6966 16.3873 19.7383C16.5696 19.7852 16.7884 19.8086 17.0436 19.8086C17.6217 19.8086 18.0592 19.694 18.3561 19.4648C18.6582 19.2409 18.8092 18.9258 18.8092 18.5195C18.8092 18.0612 18.6504 17.6602 18.3326 17.3164C18.0201 16.9727 17.5748 16.7044 16.9967 16.5117C16.4238 16.319 15.7441 16.2227 14.9576 16.2227C14.5722 16.2227 14.2467 16.2357 13.9811 16.2617C13.7155 16.2826 13.4785 16.3138 13.2701 16.3555C13.0618 16.3971 12.8483 16.444 12.6295 16.4961L11.7858 14.5742C11.5097 13.9596 11.1764 13.4258 10.7858 12.9727C10.3951 12.5143 9.94462 12.1602 9.4342 11.9102C8.929 11.6549 8.36129 11.5273 7.73108 11.5273H6.8092C6.65816 11.5273 6.53577 11.4935 6.44202 11.4258C6.34827 11.3581 6.30139 11.2487 6.30139 11.0977C6.30139 10.8581 6.43941 10.6992 6.71545 10.6211C6.9915 10.5378 7.3066 10.4961 7.66077 10.4961C8.8066 10.4961 9.79879 10.8112 10.6373 11.4414C11.4759 12.0716 12.153 13.0195 12.6686 14.2852L13.2076 15.5898C13.4681 15.5326 13.7389 15.4909 14.0201 15.4648C14.3066 15.4388 14.5931 15.4258 14.8795 15.4258C15.1139 15.4258 15.3378 15.4336 15.5514 15.4492C15.7701 15.4648 15.9889 15.4883 16.2076 15.5195C16.4472 15.3424 16.7076 15.1654 16.9889 14.9883C17.2754 14.806 17.6165 14.6289 18.0123 14.457C18.304 14.6549 18.6087 14.8268 18.9264 14.9727C19.2441 15.1185 19.5696 15.2331 19.903 15.3164C20.2363 15.3945 20.5774 15.4336 20.9264 15.4336C21.6451 15.4336 22.2337 15.3659 22.692 15.2305C23.1556 15.0951 23.4967 14.8477 23.7155 14.4883C23.9394 14.1237 24.0514 13.6029 24.0514 12.9258C24.0514 12.3112 23.9472 11.7435 23.7389 11.2227C23.5306 10.6966 23.2389 10.2409 22.8639 9.85547C22.4889 9.46484 22.0488 9.16276 21.5436 8.94922C21.0436 8.73047 20.4967 8.6237 19.903 8.62891L17.8092 5.83984C17.2259 5.06901 16.5905 4.4987 15.903 4.12891C15.2207 3.75911 14.5332 3.57422 13.8405 3.57422C13.554 3.57422 13.2467 3.61328 12.9186 3.69141C12.5957 3.76432 12.2884 3.8737 11.9967 4.01953C11.705 4.16016 11.4655 4.32682 11.278 4.51953C11.0957 4.71224 11.0045 4.92318 11.0045 5.15234C11.0045 5.36068 11.1217 5.58984 11.3561 5.83984C11.5957 6.08984 11.8899 6.33984 12.2389 6.58984C12.5878 6.83464 12.9238 7.05599 13.2467 7.25391L17.7467 10.0039C17.5748 10.1706 17.403 10.2982 17.2311 10.3867C17.0644 10.4753 16.8847 10.5195 16.692 10.5195C16.3899 10.5195 16.0696 10.4362 15.7311 10.2695C15.3925 10.1029 14.9863 9.88151 14.5123 9.60547C13.9134 9.25651 13.3378 8.92318 12.7858 8.60547C12.2389 8.28255 11.6972 7.99349 11.1608 7.73828C10.6295 7.48307 10.0826 7.28255 9.52014 7.13672C8.96285 6.98568 8.3717 6.91016 7.7467 6.91016C6.88212 6.91016 6.08785 7.07422 5.36389 7.40234C4.64514 7.73047 4.01233 8.22266 3.46545 8.87891C2.91858 9.52995 2.46806 10.3398 2.11389 11.3086C1.69722 11.3086 1.34827 11.4336 1.06702 11.6836C0.785767 11.9336 0.645142 12.2591 0.645142 12.6602C0.645142 13.1133 0.8066 13.4727 1.12952 13.7383C1.45243 14.0039 1.85868 14.1367 2.34827 14.1367C2.72847 14.668 3.1842 15.0977 3.71545 15.4258C4.2467 15.7539 4.83785 15.9935 5.48889 16.1445C6.13993 16.2956 6.83264 16.3711 7.56702 16.3711C7.62431 16.3711 7.6816 16.3711 7.73889 16.3711C7.80139 16.3659 7.86129 16.3633 7.91858 16.3633L11.0826 18.9883C11.4785 19.3372 11.8066 19.5612 12.067 19.6602C12.3326 19.7591 12.6139 19.8086 12.9108 19.8086ZM7.26233 20.4258C8.01754 20.4258 8.64254 20.3555 9.13733 20.2148C9.63212 20.0742 10.067 19.8763 10.442 19.6211L8.02014 17.6055C7.96285 17.6107 7.90035 17.6159 7.83264 17.6211C7.77014 17.6263 7.69723 17.6289 7.61389 17.6289C7.48368 17.6289 7.33264 17.6185 7.16077 17.5977C6.9941 17.5768 6.8092 17.5586 6.60608 17.543C6.40295 17.5221 6.18681 17.5117 5.95764 17.5117C5.52014 17.5117 5.17379 17.6185 4.91858 17.832C4.66858 18.0456 4.54358 18.3294 4.54358 18.6836C4.54358 19.2096 4.78837 19.6315 5.27795 19.9492C5.77275 20.2669 6.4342 20.4258 7.26233 20.4258ZM20.7467 12.5508C20.5696 12.5508 20.4186 12.4883 20.2936 12.3633C20.1738 12.2331 20.1139 12.082 20.1139 11.9102C20.1139 11.7331 20.1764 11.5794 20.3014 11.4492C20.4264 11.3138 20.5774 11.2461 20.7545 11.2461C20.9368 11.2461 21.0879 11.3086 21.2076 11.4336C21.3326 11.5534 21.3951 11.7018 21.3951 11.8789C21.3951 12.0508 21.33 12.207 21.1998 12.3477C21.0748 12.4831 20.9238 12.5508 20.7467 12.5508Z"
		fill="currentColor"
	/>
</svg>
