<svg
	viewBox="0 0 27 24"
	fill="none"
	xmlns="http://www.w3.org/2000/svg"
	color="rgb(var(--foreground, 0, 0, 0))"
>
	<path
		d="M9.60156 17.543C10.263 17.543 10.8255 17.4727 11.2891 17.332C11.7526 17.1914 12.1667 17.0143 12.5312 16.8008C12.8958 16.5924 13.2604 16.3841 13.625 16.1758C13.9948 15.9622 14.4089 15.7852 14.8672 15.6445C15.3255 15.4987 15.8854 15.4258 16.5469 15.4258C17.2812 15.4258 17.8854 15.3659 18.3594 15.2461C18.8333 15.1211 19.2292 14.9674 19.5469 14.7852C19.8698 14.6029 20.1693 14.4206 20.4453 14.2383C20.7214 14.056 21.0234 13.9049 21.3516 13.7852C21.6849 13.6602 22.1016 13.5977 22.6016 13.5977C23.3047 13.5977 23.9323 13.5169 24.4844 13.3555C25.0417 13.194 25.4818 12.9518 25.8047 12.6289C26.1276 12.3008 26.2891 11.8945 26.2891 11.4102C26.2891 10.3737 26.1094 9.5013 25.75 8.79297C25.3958 8.08464 24.9271 7.55078 24.3438 7.19141C23.7604 6.82682 23.125 6.64453 22.4375 6.64453C21.724 6.64453 21.1172 6.78255 20.6172 7.05859C20.1224 7.32943 19.7188 7.69922 19.4062 8.16797C19.099 8.63672 18.8698 9.16536 18.7188 9.75391C18.5885 10.2331 18.4089 10.6289 18.1797 10.9414C17.9505 11.2487 17.6641 11.4883 17.3203 11.6602L16.8281 10.7539C16.1406 9.48307 15.4505 8.45443 14.7578 7.66797C14.0651 6.88151 13.3125 6.30599 12.5 5.94141C11.6875 5.57682 10.7578 5.39453 9.71094 5.39453C8.86198 5.39453 8.10156 5.4987 7.42969 5.70703C6.76302 5.91536 6.14062 6.25911 5.5625 6.73828C4.98438 7.21224 4.41406 7.85286 3.85156 8.66016C3.29427 9.46224 2.69792 10.4622 2.0625 11.6602C1.875 12.0247 1.66146 12.3294 1.42188 12.5742C1.1875 12.819 0.960938 13.0326 0.742188 13.2148C0.528646 13.3971 0.351562 13.5768 0.210938 13.7539C0.0703125 13.9258 0 14.1263 0 14.3555C0 14.6784 0.122396 14.9388 0.367188 15.1367C0.617188 15.3294 0.989583 15.4258 1.48438 15.4258C1.63542 15.4258 1.79427 15.4258 1.96094 15.4258C2.13281 15.4258 2.30469 15.4258 2.47656 15.4258C3.20052 15.4258 3.82292 15.4987 4.34375 15.6445C4.86979 15.7852 5.33594 15.9622 5.74219 16.1758C6.15365 16.3841 6.54688 16.5924 6.92188 16.8008C7.30208 17.0143 7.70312 17.1914 8.125 17.332C8.55208 17.4727 9.04427 17.543 9.60156 17.543ZM9.60156 16.3008C9.10156 16.3008 8.65885 16.2305 8.27344 16.0898C7.88802 15.944 7.51562 15.7669 7.15625 15.5586C6.79688 15.3451 6.41406 15.1315 6.00781 14.918C5.60677 14.7044 5.14323 14.5273 4.61719 14.3867C4.09635 14.2409 3.47135 14.168 2.74219 14.168C2.53906 14.168 2.33854 14.1706 2.14062 14.1758C1.94271 14.1758 1.7526 14.1836 1.57031 14.1992L1.50781 14.0898C1.6849 13.9388 1.8724 13.7721 2.07031 13.5898C2.26823 13.4076 2.46094 13.1992 2.64844 12.9648C2.84115 12.7305 3.01823 12.457 3.17969 12.1445C3.72135 11.0924 4.23177 10.2148 4.71094 9.51172C5.1901 8.80339 5.67448 8.23828 6.16406 7.81641C6.65885 7.39453 7.1901 7.09245 7.75781 6.91016C8.33073 6.72786 8.98177 6.63672 9.71094 6.63672C10.5078 6.63672 11.2057 6.76172 11.8047 7.01172C12.4089 7.26172 12.9427 7.60807 13.4062 8.05078C13.8698 8.48828 14.2943 8.99609 14.6797 9.57422C15.0703 10.1523 15.4505 10.7695 15.8203 11.4258C16.0026 11.7487 16.1979 12.0768 16.4062 12.4102C16.6146 12.7435 16.8307 13.0638 17.0547 13.3711C17.2839 13.6732 17.513 13.9388 17.7422 14.168C17.5807 14.168 17.4089 14.168 17.2266 14.168C17.0495 14.168 16.8672 14.168 16.6797 14.168C15.9401 14.168 15.3073 14.2409 14.7812 14.3867C14.2552 14.5273 13.7865 14.7044 13.375 14.918C12.9688 15.1315 12.5807 15.3451 12.2109 15.5586C11.8411 15.7669 11.4505 15.944 11.0391 16.0898C10.6276 16.2305 10.1484 16.3008 9.60156 16.3008ZM19.0078 13.8242C18.8307 13.6888 18.6458 13.5065 18.4531 13.2773C18.2656 13.043 18.112 12.8164 17.9922 12.5977C18.2734 12.4935 18.5234 12.3529 18.7422 12.1758C18.9661 11.9935 19.1615 11.7591 19.3281 11.4727C19.4948 11.181 19.6354 10.8138 19.75 10.3711C19.875 9.83464 20.0547 9.3763 20.2891 8.99609C20.5234 8.61589 20.8177 8.32682 21.1719 8.12891C21.526 7.92578 21.9479 7.82422 22.4375 7.82422C22.9323 7.82422 23.3854 7.96745 23.7969 8.25391C24.2135 8.54036 24.5443 8.9388 24.7891 9.44922C25.0391 9.95964 25.1641 10.5508 25.1641 11.2227C25.1641 11.4727 25.0521 11.6914 24.8281 11.8789C24.6042 12.0612 24.3151 12.2044 23.9609 12.3086C23.6068 12.4076 23.2318 12.457 22.8359 12.457C22.3464 12.457 21.9167 12.4987 21.5469 12.582C21.1823 12.6602 20.8542 12.7669 20.5625 12.9023C20.276 13.0378 20.0078 13.1862 19.7578 13.3477C19.5078 13.5039 19.2578 13.6628 19.0078 13.8242ZM22.7344 10.7227C22.9271 10.7227 23.0911 10.6549 23.2266 10.5195C23.3672 10.3789 23.4375 10.2122 23.4375 10.0195C23.4375 9.82682 23.3672 9.66276 23.2266 9.52734C23.0911 9.38672 22.9271 9.31641 22.7344 9.31641C22.5417 9.31641 22.375 9.38672 22.2344 9.52734C22.0938 9.66276 22.0234 9.82682 22.0234 10.0195C22.0234 10.2122 22.0938 10.3789 22.2344 10.5195C22.375 10.6549 22.5417 10.7227 22.7344 10.7227ZM9.61719 11.6836C10.4818 11.6836 11.2734 11.5716 11.9922 11.3477C12.7109 11.1185 13.3568 10.8216 13.9297 10.457C14.5026 10.0872 15.0026 9.69141 15.4297 9.26953L14.8516 8.42578C14.1589 9.13932 13.3724 9.69401 12.4922 10.0898C11.612 10.4805 10.6536 10.6758 9.61719 10.6758C8.58073 10.6758 7.625 10.4831 6.75 10.0977C5.875 9.70703 5.09375 9.14974 4.40625 8.42578L3.83594 9.28516C4.23698 9.69141 4.71875 10.0768 5.28125 10.4414C5.84375 10.806 6.48438 11.1055 7.20312 11.3398C7.92708 11.569 8.73177 11.6836 9.61719 11.6836ZM5.9375 15.5586C6.17708 15.293 6.39844 14.9883 6.60156 14.6445C6.8099 14.2956 6.99479 13.931 7.15625 13.5508C7.31771 13.1706 7.45052 12.7904 7.55469 12.4102C7.65885 12.0247 7.72917 11.6602 7.76562 11.3164L6.91406 11.0273C6.88802 11.3242 6.82031 11.6602 6.71094 12.0352C6.60677 12.4049 6.47135 12.7826 6.30469 13.168C6.13802 13.5482 5.94792 13.9102 5.73438 14.2539C5.52604 14.5924 5.30208 14.8867 5.0625 15.1367L5.9375 15.5586ZM13.4219 15.543L14.3203 15.1289C14.0703 14.8737 13.8385 14.5768 13.625 14.2383C13.4115 13.8945 13.224 13.5352 13.0625 13.1602C12.901 12.7852 12.7682 12.4154 12.6641 12.0508C12.5651 11.681 12.5026 11.3398 12.4766 11.0273L11.6094 11.2695C11.6302 11.6237 11.6901 11.9961 11.7891 12.3867C11.888 12.7773 12.0182 13.1654 12.1797 13.5508C12.3411 13.931 12.526 14.293 12.7344 14.6367C12.9479 14.9805 13.1771 15.2826 13.4219 15.543ZM2.29688 18.5898C2.82292 18.5898 3.34896 18.5091 3.875 18.3477C4.40625 18.1914 4.91667 17.957 5.40625 17.6445C5.90104 17.332 6.35938 16.9466 6.78125 16.4883L5.79688 15.8555C5.36458 16.2461 4.94792 16.5638 4.54688 16.8086C4.14583 17.0586 3.75781 17.2435 3.38281 17.3633C3.01302 17.4831 2.65625 17.543 2.3125 17.543C1.96875 17.543 1.70833 17.4909 1.53125 17.3867C1.35938 17.2826 1.27344 17.1367 1.27344 16.9492C1.27344 16.8086 1.33073 16.6888 1.44531 16.5898C1.5651 16.4909 1.77604 16.4049 2.07812 16.332C2.1875 16.3008 2.34375 16.2539 2.54688 16.1914C2.75 16.1289 2.97135 16.056 3.21094 15.9727C3.45573 15.8841 3.69271 15.7904 3.92188 15.6914C4.15625 15.5924 4.35677 15.4935 4.52344 15.3945L3.5625 15.0195C3.22396 15.1706 2.85417 15.293 2.45312 15.3867C2.05208 15.4753 1.67448 15.5846 1.32031 15.7148C1.07552 15.8034 0.861979 15.9076 0.679688 16.0273C0.497396 16.1471 0.356771 16.2956 0.257812 16.4727C0.158854 16.6497 0.109375 16.8633 0.109375 17.1133C0.109375 17.5924 0.317708 17.957 0.734375 18.207C1.15625 18.4622 1.67708 18.5898 2.29688 18.5898ZM16.8672 18.6055C17.487 18.6055 18.0052 18.4779 18.4219 18.2227C18.8438 17.9727 19.0547 17.6107 19.0547 17.1367C19.0547 16.8346 18.9844 16.5872 18.8438 16.3945C18.7083 16.1966 18.5208 16.0378 18.2812 15.918C18.0417 15.793 17.7682 15.6888 17.4609 15.6055C17.1432 15.5221 16.8229 15.4388 16.5 15.3555C16.1771 15.2721 15.8776 15.168 15.6016 15.043L14.6406 15.4102C14.8021 15.5143 14.9974 15.6159 15.2266 15.7148C15.4609 15.8138 15.6979 15.9076 15.9375 15.9961C16.1823 16.0794 16.4062 16.1523 16.6094 16.2148C16.8177 16.2773 16.9766 16.3242 17.0859 16.3555C17.3828 16.4284 17.5911 16.5143 17.7109 16.6133C17.8307 16.7122 17.8906 16.832 17.8906 16.9727C17.8906 17.1602 17.8021 17.3034 17.625 17.4023C17.4531 17.5065 17.1953 17.5586 16.8516 17.5586C16.5078 17.5586 16.1484 17.4987 15.7734 17.3789C15.4036 17.2643 15.0182 17.082 14.6172 16.832C14.2161 16.5872 13.7995 16.2695 13.3672 15.8789L12.375 16.5117C12.7865 16.9596 13.237 17.3398 13.7266 17.6523C14.2214 17.9648 14.7344 18.2018 15.2656 18.3633C15.8021 18.5247 16.3359 18.6055 16.8672 18.6055Z"
		fill="currentColor"
	/>
</svg>
