<svg
	viewBox="0 0 27 24"
	fill="none"
	xmlns="http://www.w3.org/2000/svg"
	color="rgb(var(--foreground, 0, 0, 0))"
>
	<path
		d="M9.69531 10.5626C10.7734 10.5574 11.7578 10.3647 12.6484 9.98449C13.5443 9.60428 14.3464 9.02615 15.0547 8.25011C14.5755 7.64074 14.0755 7.13813 13.5547 6.7423C13.0339 6.34126 12.4635 6.04438 11.8438 5.85167C11.2292 5.65376 10.5312 5.5548 9.75 5.5548C8.97396 5.54959 8.27604 5.63813 7.65625 5.82042C7.04167 5.99751 6.46875 6.28657 5.9375 6.68761C5.41146 7.08865 4.89583 7.6199 4.39062 8.28136C5.10938 9.0574 5.92188 9.63292 6.82812 10.0079C7.73438 10.3777 8.6901 10.5626 9.69531 10.5626ZM4.625 15.3048C5.01562 14.9298 5.3724 14.4975 5.69531 14.0079C6.02344 13.5183 6.29167 13.0157 6.5 12.5001C6.71354 11.9793 6.84635 11.4897 6.89844 11.0314C6.3724 10.8387 5.82031 10.5678 5.24219 10.2189C4.66927 9.8699 4.19531 9.4923 3.82031 9.08605C3.63281 9.3673 3.44531 9.66417 3.25781 9.97667C3.07031 10.2892 2.89062 10.6173 2.71875 10.961C2.47396 11.4454 2.22396 11.8517 1.96875 12.1798C1.71875 12.5079 1.47656 12.784 1.24219 13.0079C1.01302 13.2267 0.809896 13.4194 0.632812 13.586C0.528646 13.685 0.445312 13.7944 0.382812 13.9142C0.320312 14.0288 0.289062 14.1616 0.289062 14.3126C0.289062 14.5418 0.40625 14.7163 0.640625 14.836C0.875 14.9558 1.20312 15.0157 1.625 15.0157H2.5625C3.00521 15.0157 3.38542 15.0418 3.70312 15.0939C4.02604 15.1459 4.33333 15.2163 4.625 15.3048ZM9.67969 17.1017C10.2734 17.1017 10.8151 17.0157 11.3047 16.8439C11.7943 16.672 12.2422 16.4715 12.6484 16.2423C13.0547 16.0131 13.4323 15.8126 13.7812 15.6407C13.3854 15.2657 13.0391 14.8387 12.7422 14.3595C12.4453 13.8803 12.2057 13.3803 12.0234 12.8595C11.8464 12.3334 11.7396 11.8126 11.7031 11.297C11.0625 11.4741 10.401 11.5626 9.71875 11.5626C9.38021 11.5678 9.04688 11.5496 8.71875 11.5079C8.39062 11.461 8.06771 11.3959 7.75 11.3126C7.70833 11.7918 7.59635 12.2944 7.41406 12.8204C7.23698 13.3413 6.9974 13.8491 6.69531 14.3439C6.39844 14.8387 6.04948 15.284 5.64844 15.6798C5.98698 15.81 6.35156 15.9897 6.74219 16.2189C7.13802 16.4428 7.57552 16.6459 8.05469 16.8282C8.53906 17.0105 9.08073 17.1017 9.67969 17.1017ZM14.6953 15.2657C15.0495 15.1824 15.3984 15.1173 15.7422 15.0704C16.0859 15.0183 16.487 14.9923 16.9453 14.9923C17.3203 14.9923 17.6745 14.9663 18.0078 14.9142C18.3464 14.8569 18.6042 14.7762 18.7812 14.672C18.6094 14.448 18.4141 14.1512 18.1953 13.7814C17.9818 13.4116 17.7552 13.0053 17.5156 12.5626C17.276 12.1147 17.0391 11.6668 16.8047 11.2189C16.5703 10.7709 16.3464 10.3543 16.1328 9.96886C15.9245 9.57824 15.7396 9.25792 15.5781 9.00792C15.3073 9.28396 14.9948 9.5548 14.6406 9.82042C14.2865 10.0808 13.9271 10.3152 13.5625 10.5235C13.2031 10.7319 12.8724 10.8933 12.5703 11.0079C12.6172 11.4767 12.7318 11.961 12.9141 12.461C13.0964 12.961 13.3359 13.4532 13.6328 13.9376C13.9349 14.4168 14.2891 14.8595 14.6953 15.2657ZM2.47656 18.4298C3.15885 18.4298 3.8151 18.2918 4.44531 18.0157C5.07552 17.7397 5.55469 17.3725 5.88281 16.9142C5.4974 16.659 5.07292 16.4298 4.60938 16.2267C4.14583 16.0235 3.6849 15.9116 3.22656 15.8907C3.01823 15.948 2.79948 15.9897 2.57031 16.0157C2.34635 16.0366 2.11458 16.0704 1.875 16.1173C1.54167 16.1798 1.24479 16.2892 0.984375 16.4454C0.723958 16.6017 0.59375 16.8413 0.59375 17.1642C0.59375 17.5704 0.773438 17.8829 1.13281 18.1017C1.4974 18.3204 1.94531 18.4298 2.47656 18.4298ZM16.6172 18.4454C17.1484 18.4454 17.5938 18.336 17.9531 18.1173C18.3177 17.9038 18.5 17.5913 18.5 17.1798C18.5 16.9663 18.4401 16.7709 18.3203 16.5939C18.2005 16.4168 18.0417 16.2735 17.8438 16.1642C17.651 16.0548 17.4427 15.9923 17.2188 15.9767C16.974 15.9663 16.7474 15.9584 16.5391 15.9532C16.3359 15.9428 16.112 15.9298 15.8672 15.9142C15.5651 15.9298 15.2604 15.9871 14.9531 16.086C14.6458 16.185 14.3438 16.3074 14.0469 16.4532C13.7552 16.6043 13.4766 16.7631 13.2109 16.9298C13.4297 17.2371 13.7188 17.5027 14.0781 17.7267C14.4427 17.9558 14.8438 18.1329 15.2812 18.2579C15.7188 18.3829 16.1641 18.4454 16.6172 18.4454ZM19.5547 14.3282C19.9245 14.1616 20.2474 13.9897 20.5234 13.8126C20.8047 13.6355 21.1068 13.4871 21.4297 13.3673C21.7526 13.2475 22.1641 13.1876 22.6641 13.1876C23.3411 13.1876 23.9323 13.1121 24.4375 12.961C24.9427 12.8048 25.3333 12.586 25.6094 12.3048C25.8906 12.0183 26.0312 11.6824 26.0312 11.297C26.0312 10.4116 25.8828 9.63292 25.5859 8.96105C25.2943 8.28917 24.8828 7.76574 24.3516 7.39074C23.8203 7.01053 23.2005 6.82042 22.4922 6.82042C21.8776 6.82042 21.3411 6.93761 20.8828 7.17199C20.4245 7.40115 20.0417 7.73188 19.7344 8.16417C19.4271 8.59646 19.2005 9.10688 19.0547 9.69542C18.9453 10.1069 18.8255 10.4402 18.6953 10.6954C18.5703 10.9506 18.4401 11.1564 18.3047 11.3126C18.1693 11.4689 18.0339 11.6043 17.8984 11.7189C18.0859 11.9897 18.3281 12.3751 18.625 12.8751C18.9271 13.3751 19.237 13.8595 19.5547 14.3282ZM22.6797 10.5157C22.4922 10.5157 22.3333 10.4506 22.2031 10.3204C22.0729 10.1902 22.0078 10.0314 22.0078 9.84386C22.0078 9.66157 22.0729 9.50532 22.2031 9.37511C22.3333 9.2449 22.4922 9.1798 22.6797 9.1798C22.8568 9.1798 23.0104 9.2449 23.1406 9.37511C23.276 9.50532 23.3438 9.66157 23.3438 9.84386C23.3438 10.0314 23.276 10.1902 23.1406 10.3204C23.0104 10.4506 22.8568 10.5157 22.6797 10.5157Z"
		fill="currentColor"
	/>
</svg>
