<svg
	color="rgb(var(--foreground, 0, 0, 0))"
	viewBox="0 0 22 24"
	fill="none"
	xmlns="http://www.w3.org/2000/svg"
>
	<path
		d="M3.25438 9.0065C3.38459 9.03254 3.50699 9.0091 3.62157 8.93618C3.73615 8.86327 3.80646 8.7591 3.83251 8.62368C3.85855 8.49347 3.83511 8.37368 3.76219 8.26431C3.68928 8.14972 3.58511 8.07681 3.44969 8.04556L1.19188 7.56118C1.04605 7.52993 0.913235 7.55597 0.793443 7.63931C0.67886 7.71743 0.613756 7.82681 0.598131 7.96743C0.577298 8.09764 0.603339 8.21743 0.676256 8.32681C0.754381 8.43618 0.858548 8.50389 0.988756 8.52993L3.25438 9.0065ZM4.04344 6.40493C4.1424 6.50389 4.25959 6.55337 4.39501 6.55337C4.53563 6.55337 4.65282 6.50389 4.74657 6.40493C4.84032 6.31118 4.88719 6.1966 4.88719 6.06118C4.88719 5.92577 4.84032 5.80858 4.74657 5.70962L3.10594 4.07681C3.00699 3.97264 2.8898 3.92316 2.75438 3.92837C2.62417 3.92837 2.50959 3.97785 2.41063 4.07681C2.31167 4.17577 2.25959 4.29035 2.25438 4.42056C2.25438 4.55077 2.30646 4.66795 2.41063 4.77212L4.04344 6.40493ZM6.95751 5.6315C7.09292 5.60545 7.19969 5.53514 7.27782 5.42056C7.35594 5.30077 7.37938 5.17837 7.34813 5.05337L6.86376 2.79556C6.83251 2.66014 6.75959 2.55597 6.64501 2.48306C6.53042 2.41014 6.40803 2.3867 6.27782 2.41275C6.1424 2.43879 6.03563 2.5091 5.95751 2.62368C5.87938 2.73827 5.85594 2.86327 5.88719 2.99868L6.37157 5.24868C6.40282 5.37889 6.47313 5.48306 6.58251 5.56118C6.69709 5.63931 6.82209 5.66275 6.95751 5.6315ZM17.9263 19.8737C18.9002 18.9049 19.4627 17.819 19.6138 16.6159C19.77 15.4127 19.5148 14.1107 18.8481 12.7096L17.0903 8.99868C16.9653 8.74347 16.8195 8.53254 16.6528 8.36587C16.3611 8.0742 16.0252 7.93358 15.645 7.944C15.2648 7.9492 14.9341 8.09504 14.6528 8.3815C14.4601 8.569 14.3377 8.80077 14.2856 9.07681C14.2388 9.34764 14.2804 9.63931 14.4106 9.95181L14.9263 11.194C14.9419 11.2305 14.9393 11.2591 14.9184 11.2799C14.8924 11.306 14.8611 11.3034 14.8247 11.2721L10.395 6.84243C10.0721 6.51952 9.72313 6.35806 9.34813 6.35806C8.97313 6.35285 8.63199 6.50389 8.32469 6.81118C8.21011 6.92577 8.12157 7.05337 8.05907 7.194C8.00178 7.32941 7.97053 7.47004 7.96532 7.61587C7.6424 7.37108 7.31167 7.25389 6.97313 7.26431C6.6398 7.27472 6.33771 7.41795 6.06688 7.694C5.79605 7.95962 5.65542 8.26431 5.64501 8.60806C5.63459 8.9466 5.74396 9.27212 5.97313 9.58462C5.68667 9.58983 5.43667 9.6992 5.22313 9.91275C4.93667 10.1992 4.79865 10.5221 4.80907 10.8815C4.81949 11.2409 4.97574 11.5742 5.27782 11.8815L5.89501 12.4909C5.74396 12.4909 5.59292 12.5247 5.44188 12.5924C5.29605 12.6549 5.16584 12.7461 5.05126 12.8659C4.7648 13.1523 4.62678 13.4831 4.63719 13.8581C4.65282 14.2278 4.81428 14.5664 5.12157 14.8737L9.87157 19.6237C10.7309 20.4831 11.6346 21.0612 12.5825 21.3581C13.5304 21.6549 14.4627 21.6758 15.3794 21.4206C16.3013 21.1706 17.1502 20.6549 17.9263 19.8737ZM17.1372 19.1393C16.4861 19.7903 15.7882 20.2148 15.0434 20.4127C14.3039 20.6107 13.5486 20.5768 12.7778 20.3112C12.007 20.0508 11.2518 19.5482 10.5122 18.8034L5.93407 14.2252C5.81428 14.1055 5.75178 13.9752 5.74657 13.8346C5.74136 13.6888 5.79605 13.5586 5.91063 13.444C6.02521 13.3346 6.15542 13.2799 6.30126 13.2799C6.4523 13.2799 6.58511 13.3372 6.69969 13.4518L9.52782 16.2799C9.62678 16.3789 9.74136 16.4258 9.87157 16.4206C10.007 16.4101 10.1216 16.3607 10.2153 16.2721C10.3091 16.1784 10.3585 16.0638 10.3638 15.9284C10.3742 15.793 10.3299 15.6758 10.2309 15.5768L6.00438 11.3502C5.88459 11.2357 5.82209 11.1081 5.81688 10.9674C5.81167 10.8216 5.86636 10.6914 5.98094 10.5768C6.09553 10.4622 6.22574 10.4049 6.37157 10.4049C6.52261 10.4049 6.65803 10.4648 6.77782 10.5846L10.7153 14.5221C10.8195 14.6263 10.9367 14.6758 11.0669 14.6706C11.2023 14.6601 11.3143 14.6081 11.4028 14.5143C11.4966 14.4206 11.546 14.3086 11.5513 14.1784C11.5617 14.043 11.5174 13.9232 11.4184 13.819L6.79344 9.194C6.67365 9.07941 6.61115 8.9492 6.60594 8.80337C6.60594 8.65233 6.66324 8.51952 6.77782 8.40493C6.88719 8.29035 7.0148 8.23566 7.16063 8.24087C7.31167 8.24608 7.44709 8.30858 7.56688 8.42837L12.1919 13.0534C12.2856 13.1471 12.3976 13.194 12.5278 13.194C12.6632 13.1888 12.7778 13.1393 12.8716 13.0456C12.9705 12.9466 13.0226 12.8294 13.0278 12.694C13.033 12.5586 12.9888 12.444 12.895 12.3502L8.94969 8.40493C8.8299 8.29035 8.77001 8.16014 8.77001 8.01431C8.77001 7.86847 8.8273 7.73827 8.94188 7.62368C9.05126 7.5091 9.17886 7.45441 9.32469 7.45962C9.47053 7.45962 9.60334 7.51952 9.72313 7.63931L15.1606 13.0768C15.296 13.2122 15.4393 13.2825 15.5903 13.2877C15.7414 13.2877 15.8742 13.2305 15.9888 13.1159C16.0877 13.0169 16.1528 12.8997 16.1841 12.7643C16.2153 12.6289 16.1919 12.4622 16.1138 12.2643L15.1372 9.694C15.0695 9.52212 15.0617 9.36847 15.1138 9.23306C15.1658 9.09764 15.2596 8.99868 15.395 8.93618C15.5408 8.86847 15.6763 8.86847 15.8013 8.93618C15.9263 8.99868 16.0356 9.12368 16.1294 9.31118L17.9419 13.1471C18.546 14.4284 18.7544 15.556 18.5669 16.5299C18.3846 17.4987 17.908 18.3685 17.1372 19.1393ZM10.3247 6.10806C10.2101 6.21743 10.1216 6.34243 10.0591 6.48306C10.0018 6.62368 9.96792 6.76691 9.95751 6.91275L10.9419 7.70181C10.8273 7.58722 10.7674 7.45702 10.7622 7.31118C10.7622 7.16014 10.8195 7.02733 10.9341 6.91275C11.0486 6.79816 11.1789 6.74347 11.3247 6.74868C11.4705 6.75389 11.6033 6.81639 11.7231 6.93618L14.3716 9.59243L15.0044 8.74868L12.395 6.13931C12.0669 5.81639 11.7153 5.65493 11.3403 5.65493C10.9705 5.64972 10.632 5.80077 10.3247 6.10806ZM19.9263 19.1784C20.895 18.2044 21.4575 17.1185 21.6138 15.9206C21.77 14.7174 21.5148 13.4127 20.8481 12.0065L19.0825 8.28775C18.921 7.944 18.7101 7.68358 18.4497 7.5065C18.1893 7.32941 17.9002 7.24087 17.5825 7.24087C17.4575 7.24087 17.3169 7.26431 17.1606 7.31118C17.0044 7.35806 16.8533 7.43618 16.7075 7.54556C16.5617 7.64972 16.4419 7.79035 16.3481 7.96743C16.2544 8.14452 16.2075 8.36066 16.2075 8.61587C16.2075 8.70962 16.2127 8.79816 16.2231 8.8815L17.1528 9.13931C17.1007 9.02472 17.0747 8.91275 17.0747 8.80337C17.0747 8.67837 17.1216 8.56379 17.2153 8.45962C17.3143 8.35545 17.4471 8.30337 17.6138 8.30337C17.8585 8.30337 18.0408 8.43618 18.1606 8.70181L19.9341 12.444C20.5382 13.72 20.7492 14.845 20.5669 15.819C20.3846 16.793 19.9054 17.6627 19.1294 18.4284C18.4992 19.0586 17.8325 19.4752 17.1294 19.6784L15.9888 20.8815C16.6867 20.9023 17.369 20.7695 18.0356 20.4831C18.7075 20.1966 19.3377 19.7617 19.9263 19.1784Z"
		fill="currentColor"
	/>
</svg>
