<svg
	color="rgb(var(--foreground, 0, 0, 0))"
	viewBox="0 0 19 24"
	fill="none"
	xmlns="http://www.w3.org/2000/svg"
>
	<path
		d="M11.9216 7.14844C12.0675 7.14844 12.1456 7.07292 12.156 6.92188C12.2133 6.46354 12.2732 6.10417 12.3357 5.84375C12.3982 5.58333 12.4971 5.38802 12.6326 5.25781C12.768 5.1224 12.9685 5.02083 13.2341 4.95312C13.505 4.88021 13.8721 4.80469 14.3357 4.72656C14.4971 4.71094 14.5779 4.63542 14.5779 4.5C14.5779 4.36979 14.5076 4.29427 14.3669 4.27344C13.8982 4.1849 13.5284 4.10677 13.2576 4.03906C12.9867 3.96615 12.781 3.86458 12.6404 3.73438C12.4998 3.60417 12.3982 3.41146 12.3357 3.15625C12.2732 2.90104 12.2133 2.54427 12.156 2.08594C12.1456 1.9349 12.0675 1.85938 11.9216 1.85938C11.7862 1.85938 11.7133 1.93229 11.7029 2.07812C11.6404 2.54167 11.5779 2.90625 11.5154 3.17188C11.4529 3.4375 11.3539 3.63802 11.2185 3.77344C11.0831 3.90885 10.88 4.01042 10.6091 4.07812C10.3383 4.14062 9.9633 4.20573 9.48413 4.27344C9.42163 4.27865 9.36955 4.30208 9.32788 4.34375C9.29142 4.38542 9.27319 4.4375 9.27319 4.5C9.27319 4.63542 9.3435 4.71094 9.48413 4.72656C9.9633 4.82031 10.3383 4.90365 10.6091 4.97656C10.88 5.04948 11.0805 5.15104 11.2107 5.28125C11.3461 5.41146 11.4451 5.60677 11.5076 5.86719C11.5753 6.1224 11.6404 6.47917 11.7029 6.9375C11.7081 7 11.7315 7.05208 11.7732 7.09375C11.8149 7.13021 11.8643 7.14844 11.9216 7.14844ZM6.69507 5.03906C6.78882 5.03906 6.84871 4.98958 6.87475 4.89062C6.94767 4.5 7.01277 4.22135 7.07007 4.05469C7.13257 3.88281 7.24715 3.76562 7.41382 3.70312C7.58569 3.63542 7.86955 3.5651 8.26538 3.49219C8.37475 3.46615 8.42944 3.40625 8.42944 3.3125C8.42944 3.21354 8.37475 3.15104 8.26538 3.125C7.9685 3.06771 7.73934 3.01562 7.57788 2.96875C7.41642 2.92188 7.29663 2.85677 7.2185 2.77344C7.14038 2.6901 7.07788 2.56771 7.031 2.40625C6.98934 2.24479 6.93725 2.02083 6.87475 1.73438C6.84871 1.63021 6.78882 1.57812 6.69507 1.57812C6.59611 1.57812 6.53621 1.63021 6.51538 1.73438C6.45288 2.02083 6.39819 2.24479 6.35132 2.40625C6.30965 2.56771 6.24715 2.6901 6.16382 2.77344C6.08569 2.85677 5.9659 2.92188 5.80444 2.96875C5.64298 3.01562 5.41382 3.06771 5.11694 3.125C5.00757 3.15104 4.95288 3.21354 4.95288 3.3125C4.95288 3.40625 5.00757 3.46615 5.11694 3.49219C5.41382 3.54948 5.64298 3.60156 5.80444 3.64844C5.97111 3.69531 6.0935 3.76042 6.17163 3.84375C6.25496 3.92188 6.31746 4.04427 6.35913 4.21094C6.406 4.3724 6.45809 4.59896 6.51538 4.89062C6.53621 4.98958 6.59611 5.03906 6.69507 5.03906ZM2.43725 22.4219C2.54663 22.4219 2.61173 22.362 2.63257 22.2422C2.70548 21.862 2.77059 21.5625 2.82788 21.3438C2.88517 21.125 2.9685 20.9583 3.07788 20.8438C3.18725 20.7344 3.35132 20.6458 3.57007 20.5781C3.79402 20.5156 4.10652 20.4479 4.50757 20.375C4.62736 20.3438 4.68725 20.276 4.68725 20.1719C4.68725 20.0625 4.62736 19.9974 4.50757 19.9766C4.11173 19.8984 3.80444 19.8255 3.58569 19.7578C3.36694 19.6901 3.20288 19.599 3.0935 19.4844C2.98413 19.375 2.9008 19.2109 2.8435 18.9922C2.78621 18.7786 2.7159 18.4818 2.63257 18.1016C2.61173 17.9818 2.54663 17.9219 2.43725 17.9219C2.3383 17.9219 2.27319 17.9818 2.24194 18.1016C2.16382 18.4818 2.09611 18.7786 2.03882 18.9922C1.98153 19.2109 1.89819 19.375 1.78882 19.4844C1.68465 19.599 1.52319 19.6901 1.30444 19.7578C1.08569 19.8255 0.775797 19.8984 0.374756 19.9766C0.254964 19.9974 0.195068 20.0625 0.195068 20.1719C0.195068 20.276 0.254964 20.3438 0.374756 20.375C0.775797 20.4531 1.08569 20.5234 1.30444 20.5859C1.5284 20.6536 1.69507 20.7422 1.80444 20.8516C1.91382 20.9661 1.99455 21.1302 2.04663 21.3438C2.10392 21.5625 2.16903 21.862 2.24194 22.2422C2.27319 22.362 2.3383 22.4219 2.43725 22.4219ZM14.4529 20.1875C15.4268 19.2188 15.9893 18.1328 16.1404 16.9297C16.2966 15.7266 16.0414 14.4245 15.3748 13.0234L13.6169 9.3125C13.4919 9.05729 13.3461 8.84635 13.1794 8.67969C12.8878 8.38802 12.5518 8.2474 12.1716 8.25781C11.7914 8.26302 11.4607 8.40885 11.1794 8.69531C10.9867 8.88281 10.8643 9.11458 10.8123 9.39062C10.7654 9.66146 10.8044 9.95312 10.9294 10.2656L11.4529 11.5078C11.4685 11.5443 11.4659 11.5729 11.4451 11.5938C11.4138 11.6198 11.3826 11.6172 11.3513 11.5859L6.92163 7.15625C6.59871 6.83333 6.24975 6.67188 5.87475 6.67188C5.49975 6.66667 5.15861 6.81771 4.85132 7.125C4.73673 7.23958 4.64819 7.36719 4.58569 7.50781C4.52319 7.64323 4.49194 7.78385 4.49194 7.92969C4.16902 7.6849 3.8383 7.56771 3.49975 7.57812C3.16642 7.58854 2.86173 7.73177 2.58569 8.00781C2.32007 8.27344 2.17944 8.57812 2.16382 8.92188C2.1534 9.26042 2.26538 9.58594 2.49975 9.89844C2.2133 9.90365 1.9633 10.013 1.74976 10.2266C1.4633 10.513 1.32528 10.8359 1.33569 11.1953C1.34611 11.5547 1.50236 11.888 1.80444 12.1953L2.42163 12.8047C2.27059 12.8047 2.11955 12.8385 1.96851 12.9062C1.82267 12.9688 1.68986 13.0599 1.57007 13.1797C1.28361 13.4661 1.14559 13.7969 1.15601 14.1719C1.17163 14.5417 1.33569 14.8802 1.64819 15.1875L6.39819 19.9375C7.25757 20.7969 8.16121 21.375 9.10913 21.6719C10.057 21.9688 10.9893 21.9896 11.906 21.7344C12.8279 21.4844 13.6768 20.9688 14.4529 20.1875ZM13.6638 19.4531C13.0128 20.1042 12.3149 20.5286 11.5701 20.7266C10.8305 20.9245 10.0753 20.8906 9.30444 20.625C8.53361 20.3646 7.7784 19.862 7.03882 19.1172L2.45288 14.5391C2.3383 14.4193 2.2784 14.2891 2.27319 14.1484C2.26799 14.0026 2.32267 13.8724 2.43725 13.7578C2.55184 13.6484 2.68205 13.5938 2.82788 13.5938C2.97892 13.5938 3.11173 13.651 3.22632 13.7656L6.04663 16.5938C6.1508 16.6927 6.26798 16.7396 6.39819 16.7344C6.53361 16.724 6.64559 16.6745 6.73413 16.5859C6.82788 16.4922 6.87996 16.3776 6.89038 16.2422C6.9008 16.1068 6.85392 15.9896 6.74975 15.8906L2.531 11.6641C2.41121 11.5495 2.34871 11.4219 2.34351 11.2812C2.3383 11.1354 2.39298 11.0052 2.50757 10.8906C2.62215 10.776 2.75236 10.7188 2.89819 10.7188C3.04923 10.7188 3.18465 10.7786 3.30444 10.8984L7.24194 14.8359C7.3409 14.9401 7.45548 14.9896 7.58569 14.9844C7.72111 14.974 7.83569 14.9219 7.92944 14.8281C8.02319 14.7344 8.07267 14.6224 8.07788 14.4922C8.0883 14.3568 8.04402 14.237 7.94507 14.1328L3.32007 9.50781C3.20027 9.39323 3.13777 9.26302 3.13257 9.11719C3.13257 8.96615 3.18986 8.83333 3.30444 8.71875C3.41382 8.60417 3.54142 8.54948 3.68725 8.55469C3.8383 8.5599 3.97371 8.6224 4.0935 8.74219L8.7185 13.3672C8.81225 13.4609 8.92423 13.5078 9.05444 13.5078C9.18986 13.5026 9.30444 13.4531 9.39819 13.3594C9.49715 13.2604 9.54923 13.1432 9.55444 13.0078C9.55965 12.8724 9.51277 12.7578 9.41382 12.6641L5.47632 8.71875C5.35652 8.60417 5.29402 8.47396 5.28882 8.32812C5.28882 8.18229 5.34611 8.05208 5.46069 7.9375C5.57527 7.82292 5.70548 7.76823 5.85132 7.77344C5.99715 7.77344 6.12996 7.83333 6.24975 7.95312L11.6873 13.3906C11.8227 13.526 11.9659 13.5964 12.1169 13.6016C12.268 13.6016 12.4008 13.5443 12.5154 13.4297C12.6143 13.3307 12.6794 13.2135 12.7107 13.0781C12.7419 12.9427 12.7185 12.776 12.6404 12.5781L11.6638 10.0078C11.5961 9.83594 11.5883 9.68229 11.6404 9.54688C11.6925 9.41146 11.7862 9.3125 11.9216 9.25C12.0675 9.18229 12.2029 9.18229 12.3279 9.25C12.4529 9.3125 12.5596 9.4375 12.6482 9.625L14.4607 13.4609C15.0701 14.7422 15.281 15.8698 15.0935 16.8438C14.9112 17.8125 14.4346 18.6823 13.6638 19.4531ZM6.85132 6.42188C6.73673 6.53125 6.64819 6.65625 6.58569 6.79688C6.52319 6.9375 6.48934 7.08073 6.48413 7.22656L7.4685 8.01562C7.35392 7.90104 7.29402 7.77083 7.28882 7.625C7.28882 7.47396 7.34611 7.34115 7.46069 7.22656C7.57527 7.11198 7.70548 7.05729 7.85132 7.0625C7.99715 7.06771 8.12736 7.13021 8.24194 7.25L10.8982 9.90625L11.531 9.0625L8.91382 6.45312C8.5909 6.13021 8.24194 5.96875 7.86694 5.96875C7.49715 5.96354 7.15861 6.11458 6.85132 6.42188ZM16.4451 19.4922C17.419 18.5182 17.9841 17.4323 18.1404 16.2344C18.2966 15.0312 18.0414 13.7266 17.3748 12.3203L15.6091 8.60156C15.4477 8.25781 15.2367 7.9974 14.9763 7.82031C14.7159 7.64323 14.4268 7.55469 14.1091 7.55469C13.9841 7.55469 13.8409 7.57812 13.6794 7.625C13.5232 7.67188 13.3721 7.75 13.2263 7.85938C13.0857 7.96354 12.9685 8.10417 12.8748 8.28125C12.781 8.45833 12.7341 8.67448 12.7341 8.92969C12.7341 9.02344 12.7393 9.11198 12.7498 9.19531L13.6716 9.45312C13.6195 9.33854 13.5935 9.22656 13.5935 9.11719C13.5935 8.99219 13.643 8.8776 13.7419 8.77344C13.8409 8.66927 13.9737 8.61719 14.1404 8.61719C14.38 8.61719 14.5623 8.75 14.6873 9.01562L16.4607 12.7578C17.0649 14.0339 17.2758 15.1589 17.0935 16.1328C16.9112 17.1068 16.432 17.9766 15.656 18.7422C15.0258 19.3724 14.3565 19.7891 13.6482 19.9922L12.5076 21.1953C13.2107 21.2161 13.8956 21.0833 14.5623 20.7969C15.2341 20.5104 15.8617 20.0755 16.4451 19.4922Z"
		fill="currentColor"
	/>
</svg>
