<svg
	color="rgb(var(--foreground, 0, 0, 0))"
	viewBox="0 0 19 24"
	fill="none"
	xmlns="http://www.w3.org/2000/svg"
>
	<path
		d="M11.9115 7.14844C12.0573 7.14844 12.1355 7.07292 12.1459 6.92188C12.2032 6.46354 12.2631 6.10417 12.3256 5.84375C12.3881 5.58333 12.487 5.38802 12.6224 5.25781C12.7579 5.1224 12.9584 5.02083 13.224 4.95312C13.4948 4.88021 13.8646 4.80469 14.3334 4.72656C14.4896 4.71094 14.5678 4.63542 14.5678 4.5C14.5678 4.36979 14.5 4.29427 14.3646 4.27344C13.8907 4.1849 13.5183 4.10677 13.2474 4.03906C12.9766 3.96615 12.7709 3.86458 12.6303 3.73438C12.4948 3.60417 12.3933 3.41146 12.3256 3.15625C12.2631 2.90104 12.2032 2.54427 12.1459 2.08594C12.1355 1.9349 12.0573 1.85938 11.9115 1.85938C11.7761 1.85938 11.7032 1.93229 11.6928 2.07812C11.6303 2.54167 11.5678 2.90625 11.5053 3.17188C11.4428 3.4375 11.3438 3.63802 11.2084 3.77344C11.073 3.90885 10.8698 4.01042 10.599 4.07812C10.3282 4.14062 9.95317 4.20573 9.474 4.27344C9.41671 4.27865 9.36723 4.30208 9.32556 4.34375C9.28911 4.38542 9.27088 4.4375 9.27088 4.5C9.27088 4.63542 9.33858 4.71094 9.474 4.72656C9.95317 4.82031 10.3282 4.90365 10.599 4.97656C10.8698 5.04948 11.073 5.15104 11.2084 5.28125C11.3438 5.41146 11.4428 5.60677 11.5053 5.86719C11.5678 6.1224 11.6303 6.47917 11.6928 6.9375C11.698 7 11.7214 7.05208 11.7631 7.09375C11.8047 7.13021 11.8542 7.14844 11.9115 7.14844ZM6.68494 5.03906C6.7839 5.03906 6.84379 4.98958 6.86463 4.89062C6.93754 4.5 7.00525 4.22135 7.06775 4.05469C7.13025 3.88281 7.24483 3.76562 7.4115 3.70312C7.57817 3.63542 7.85942 3.5651 8.25525 3.49219C8.36463 3.46615 8.41931 3.40625 8.41931 3.3125C8.41931 3.21354 8.36463 3.15104 8.25525 3.125C7.95838 3.06771 7.72921 3.01562 7.56775 2.96875C7.4115 2.92188 7.29171 2.85677 7.20838 2.77344C7.13025 2.6901 7.06775 2.56771 7.02088 2.40625C6.97921 2.24479 6.92713 2.02083 6.86463 1.73438C6.83858 1.63021 6.77869 1.57812 6.68494 1.57812C6.58598 1.57812 6.52608 1.63021 6.50525 1.73438C6.44275 2.02083 6.38806 2.24479 6.34119 2.40625C6.29952 2.56771 6.23702 2.6901 6.15369 2.77344C6.07556 2.85677 5.95577 2.92188 5.79431 2.96875C5.63285 3.01562 5.40629 3.06771 5.11462 3.125C5.00525 3.15104 4.95056 3.21354 4.95056 3.3125C4.95056 3.40625 5.00525 3.46615 5.11462 3.49219C5.40629 3.54948 5.63285 3.60156 5.79431 3.64844C5.96098 3.69531 6.08598 3.76042 6.16931 3.84375C6.25265 3.92188 6.31515 4.04427 6.35681 4.21094C6.39848 4.3724 6.44796 4.59896 6.50525 4.89062C6.52608 4.98958 6.58598 5.03906 6.68494 5.03906ZM2.43494 22.4219C2.5391 22.4219 2.6016 22.362 2.62244 22.2422C2.69535 21.862 2.76046 21.5625 2.81775 21.3438C2.87504 21.125 2.95837 20.9583 3.06775 20.8438C3.17712 20.7344 3.34379 20.6458 3.56775 20.5781C3.79171 20.5156 4.10421 20.4479 4.50525 20.375C4.62504 20.3438 4.68494 20.276 4.68494 20.1719C4.68494 20.0625 4.62504 19.9974 4.50525 19.9766C4.10421 19.8984 3.79431 19.8255 3.57556 19.7578C3.35681 19.6901 3.19275 19.599 3.08337 19.4844C2.974 19.375 2.89067 19.2109 2.83337 18.9922C2.77608 18.7786 2.70577 18.4818 2.62244 18.1016C2.6016 17.9818 2.5391 17.9219 2.43494 17.9219C2.33077 17.9219 2.26567 17.9818 2.23962 18.1016C2.15629 18.4818 2.08598 18.7786 2.02869 18.9922C1.97139 19.2109 1.88806 19.375 1.77869 19.4844C1.67452 19.599 1.51306 19.6901 1.29431 19.7578C1.08077 19.8255 0.770874 19.8984 0.364624 19.9766C0.244832 19.9974 0.184937 20.0625 0.184937 20.1719C0.184937 20.276 0.244832 20.3438 0.364624 20.375C0.770874 20.4531 1.08337 20.5234 1.30212 20.5859C1.52087 20.6536 1.68494 20.7422 1.79431 20.8516C1.90369 20.9661 1.98702 21.1302 2.04431 21.3438C2.1016 21.5625 2.16671 21.862 2.23962 22.2422C2.26567 22.362 2.33077 22.4219 2.43494 22.4219ZM6.48181 19.9453C7.09119 20.5547 7.72921 21.0052 8.39588 21.2969C9.06254 21.5885 9.73181 21.7318 10.4037 21.7266C11.0808 21.7214 11.737 21.5755 12.3724 21.2891C13.0079 21.0026 13.599 20.5859 14.1459 20.0391C15.0261 19.1641 15.5651 18.2578 15.7631 17.3203C15.9662 16.3776 15.8803 15.3568 15.5053 14.2578C15.4063 13.9453 15.2917 13.6302 15.1615 13.3125C15.0365 12.9896 14.8933 12.6615 14.7318 12.3281C14.5756 11.9948 14.4063 11.6536 14.224 11.3047C14.0469 10.9557 13.8594 10.5938 13.6615 10.2188C13.5573 10.0156 13.4454 9.80208 13.3256 9.57812C13.211 9.35417 13.099 9.14844 12.9896 8.96094C12.8803 8.77344 12.7813 8.63542 12.6928 8.54688C12.5469 8.40104 12.3776 8.33333 12.1849 8.34375C11.9974 8.34896 11.8256 8.42969 11.6693 8.58594C11.4922 8.76302 11.4011 8.96875 11.3959 9.20312C11.3959 9.4375 11.4636 9.75 11.599 10.1406L12.4428 12.5234C12.4948 12.6484 12.5157 12.7526 12.5053 12.8359C12.5 12.9141 12.4766 12.9766 12.4349 13.0234C12.3776 13.0807 12.3125 13.1094 12.2396 13.1094C12.1667 13.1042 12.0808 13.0521 11.9818 12.9531L6.18494 7.15625C6.02348 6.99479 5.82556 6.91406 5.59119 6.91406C5.36202 6.91406 5.16671 6.99479 5.00525 7.15625C4.83858 7.32292 4.75525 7.52344 4.75525 7.75781C4.75525 7.98698 4.83858 8.18229 5.00525 8.34375L9.14588 12.4844C9.04171 12.5312 8.93754 12.5859 8.83338 12.6484C8.72921 12.7057 8.62504 12.7708 8.52088 12.8438L3.71619 8.03906C3.54952 7.8724 3.349 7.78906 3.11462 7.78906C2.88546 7.78906 2.69014 7.8724 2.52869 8.03906C2.36723 8.20052 2.2865 8.39844 2.2865 8.63281C2.2865 8.86198 2.36723 9.05729 2.52869 9.21875L7.27869 13.9688C7.19535 14.0625 7.11463 14.1589 7.0365 14.2578C6.96358 14.3568 6.89327 14.4557 6.82556 14.5547L2.48181 10.2109C2.31514 10.0495 2.11462 9.96875 1.88025 9.96875C1.65108 9.96875 1.45577 10.0495 1.29431 10.2109C1.13285 10.3724 1.05212 10.5703 1.05212 10.8047C1.05212 11.0391 1.13285 11.237 1.29431 11.3984L6.01306 16.1172C5.96619 16.2526 5.92452 16.3854 5.88806 16.5156C5.85681 16.6458 5.82817 16.7734 5.80213 16.8984L2.52087 13.6172C2.35942 13.4505 2.1615 13.3672 1.92712 13.3672C1.69275 13.3672 1.49483 13.4505 1.33337 13.6172C1.17192 13.7786 1.09119 13.9766 1.09119 14.2109C1.09119 14.4401 1.17192 14.6354 1.33337 14.7969L6.48181 19.9453ZM10.5053 8.69531L8.96619 7.15625C8.80473 6.99479 8.60681 6.91406 8.37244 6.91406C8.13806 6.91406 7.94015 6.99479 7.77869 7.15625C7.76827 7.16667 7.75785 7.18229 7.74744 7.20312L10.5834 10.0469C10.5365 9.80208 10.5053 9.56771 10.4896 9.34375C10.474 9.11979 10.4792 8.90365 10.5053 8.69531ZM16.9193 20.0469C17.7995 19.1667 18.3386 18.2578 18.5365 17.3203C18.7396 16.3776 18.6563 15.3542 18.2865 14.25C18.1875 13.9427 18.073 13.6302 17.9428 13.3125C17.8125 12.9896 17.6693 12.6615 17.5131 12.3281C17.3568 11.9948 17.1875 11.6536 17.0053 11.3047C16.823 10.9557 16.6329 10.5938 16.4349 10.2188C16.3308 10.0156 16.2188 9.80208 16.099 9.57812C15.9844 9.35417 15.8724 9.14844 15.7631 8.96094C15.6537 8.77344 15.5547 8.63802 15.4662 8.55469C15.3204 8.40365 15.1511 8.33333 14.9584 8.34375C14.7709 8.34896 14.599 8.42969 14.4428 8.58594C14.3386 8.6901 14.2631 8.8099 14.2162 8.94531C14.3047 9.10677 14.3881 9.26823 14.4662 9.42969C14.5495 9.59115 14.6355 9.75 14.724 9.90625C14.9115 10.2656 15.0938 10.6198 15.2709 10.9688C15.448 11.3177 15.612 11.6615 15.7631 12C15.9193 12.3385 16.0625 12.6719 16.1928 13C16.323 13.3281 16.4349 13.6484 16.5287 13.9609C16.961 15.2891 17.0443 16.5156 16.7787 17.6406C16.5131 18.7604 15.8855 19.8099 14.8959 20.7891C14.5625 21.1276 14.2058 21.4219 13.8256 21.6719C14.3829 21.5938 14.9219 21.4167 15.4428 21.1406C15.9688 20.8646 16.461 20.5 16.9193 20.0469Z"
		fill="currentColor"
	/>
</svg>
