<svg
	color="rgb(var(--foreground, 0, 0, 0))"
	viewBox="0 0 23 24"
	fill="none"
	xmlns="http://www.w3.org/2000/svg"
>
	<path
		d="M3.32921 9.09883C3.45421 9.12487 3.574 9.10143 3.68859 9.02851C3.80317 8.9556 3.87348 8.85143 3.89952 8.71601C3.92556 8.58581 3.90213 8.46601 3.82921 8.35664C3.7615 8.24206 3.65734 8.16914 3.51671 8.13789L1.2589 7.65351C1.11306 7.62226 0.982856 7.64831 0.868273 7.73164C0.753689 7.80976 0.685981 7.91914 0.665148 8.05976C0.644314 8.18997 0.670356 8.30976 0.743273 8.41914C0.821398 8.52851 0.925564 8.59622 1.05577 8.62226L3.32921 9.09883ZM4.11827 6.49726C4.21202 6.59622 4.32661 6.6457 4.46202 6.6457C4.60265 6.6457 4.71984 6.59622 4.81359 6.49726C4.90734 6.40351 4.95421 6.28893 4.95421 6.15351C4.95421 6.0181 4.90734 5.90091 4.81359 5.80195L3.17296 4.16914C3.074 4.06497 2.95681 4.01549 2.8214 4.0207C2.69119 4.0207 2.57661 4.07018 2.47765 4.16914C2.3839 4.2681 2.33442 4.38268 2.32921 4.51289C2.32921 4.6431 2.37869 4.76028 2.47765 4.86445L4.11827 6.49726ZM7.02452 5.72383C7.15994 5.69778 7.26671 5.62747 7.34484 5.51289C7.42296 5.3931 7.4464 5.2707 7.41515 5.1457L6.93077 2.88789C6.89952 2.75247 6.82661 2.64831 6.71202 2.57539C6.59744 2.50247 6.47504 2.47903 6.34484 2.50508C6.21463 2.53112 6.10786 2.60143 6.02452 2.71601C5.9464 2.8306 5.92296 2.9556 5.95421 3.09101L6.43859 5.34101C6.46984 5.47122 6.54015 5.57539 6.64952 5.65351C6.76411 5.73164 6.88911 5.75508 7.02452 5.72383ZM10.0323 19.7238C10.6417 20.3332 11.2797 20.7837 11.9464 21.0754C12.6131 21.3671 13.2823 21.5103 13.9542 21.5051C14.6313 21.4999 15.2875 21.354 15.923 21.0676C16.5584 20.7811 17.1495 20.3645 17.6964 19.8176C18.5766 18.9426 19.1157 18.0363 19.3136 17.0988C19.5167 16.1561 19.4308 15.1353 19.0558 14.0363C18.9568 13.7238 18.8422 13.4087 18.712 13.091C18.587 12.7681 18.4464 12.44 18.2901 12.1066C18.1339 11.7733 17.9646 11.4322 17.7823 11.0832C17.6 10.7342 17.4099 10.3723 17.212 9.99726C17.1079 9.79414 16.9985 9.5806 16.8839 9.35664C16.7693 9.13268 16.6573 8.92695 16.548 8.73945C16.4386 8.55195 16.3396 8.41393 16.2511 8.32539C16.1 8.17956 15.9282 8.11185 15.7355 8.12226C15.548 8.12747 15.3761 8.2082 15.2198 8.36445C15.0428 8.54153 14.9516 8.74726 14.9464 8.98164C14.9464 9.21601 15.0141 9.52851 15.1495 9.91914L16.0011 12.302C16.048 12.427 16.0688 12.5311 16.0636 12.6145C16.0584 12.6926 16.0323 12.7551 15.9855 12.802C15.9282 12.8592 15.8631 12.8879 15.7901 12.8879C15.7172 12.8827 15.6313 12.8306 15.5323 12.7316L9.73546 6.93476C9.574 6.77331 9.37609 6.69258 9.14171 6.69258C8.91254 6.69258 8.71723 6.77331 8.55577 6.93476C8.39431 7.10143 8.31359 7.30195 8.31359 7.53633C8.31359 7.76549 8.39431 7.96081 8.55577 8.12226L12.6964 12.2629C12.5922 12.3098 12.4881 12.3645 12.3839 12.427C12.2797 12.4842 12.1756 12.5493 12.0714 12.6223L7.26671 7.81758C7.10525 7.65091 6.90734 7.56758 6.67296 7.56758C6.43859 7.56758 6.24067 7.65091 6.07921 7.81758C5.91775 7.97903 5.83702 8.17695 5.83702 8.41133C5.83702 8.64049 5.91775 8.83581 6.07921 8.99726L10.8292 13.7473C10.7459 13.841 10.6651 13.9374 10.587 14.0363C10.5141 14.1353 10.4438 14.2342 10.3761 14.3332L6.03234 9.98945C5.86567 9.82799 5.66515 9.74726 5.43077 9.74726C5.20161 9.74726 5.00629 9.82799 4.84484 9.98945C4.68338 10.1509 4.60265 10.3488 4.60265 10.5832C4.60265 10.8176 4.68338 11.0155 4.84484 11.177L9.56359 15.8957C9.51671 16.0311 9.47504 16.1639 9.43859 16.2941C9.40734 16.4243 9.37869 16.552 9.35265 16.677L6.0714 13.3957C5.90994 13.229 5.71202 13.1457 5.47765 13.1457C5.24848 13.1457 5.05056 13.229 4.8839 13.3957C4.72244 13.5572 4.64171 13.7551 4.64171 13.9895C4.64171 14.2186 4.72244 14.4139 4.8839 14.5754L10.0323 19.7238ZM14.0558 8.47383L12.5167 6.93476C12.3553 6.77331 12.1573 6.69258 11.923 6.69258C11.6886 6.69258 11.4907 6.77331 11.3292 6.93476C11.3188 6.94518 11.3084 6.96081 11.298 6.98164L14.1339 9.82539C14.087 9.5806 14.0558 9.34622 14.0401 9.12226C14.0245 8.89831 14.0297 8.68216 14.0558 8.47383ZM20.4698 19.8254C21.35 18.9452 21.8891 18.0363 22.087 17.0988C22.2901 16.1561 22.2068 15.1327 21.837 14.0285C21.7381 13.7212 21.6235 13.4087 21.4933 13.091C21.3631 12.7681 21.2198 12.44 21.0636 12.1066C20.9073 11.7733 20.7381 11.4322 20.5558 11.0832C20.3787 10.7342 20.1886 10.3723 19.9855 9.99726C19.8813 9.79414 19.7719 9.5806 19.6573 9.35664C19.5428 9.13268 19.4282 8.92695 19.3136 8.73945C19.2042 8.55195 19.1053 8.41653 19.0167 8.3332C18.8709 8.18216 18.7042 8.11185 18.5167 8.12226C18.3292 8.12747 18.1547 8.2082 17.9933 8.36445C17.8891 8.46862 17.8136 8.58841 17.7667 8.72383C17.8553 8.88528 17.9386 9.04674 18.0167 9.2082C18.1 9.36966 18.186 9.52851 18.2745 9.68476C18.462 10.0441 18.6443 10.3983 18.8214 10.7473C18.9985 11.0962 19.1625 11.44 19.3136 11.7785C19.4698 12.1171 19.6131 12.4504 19.7433 12.7785C19.8735 13.1066 19.9855 13.427 20.0792 13.7395C20.5115 15.0676 20.5948 16.2941 20.3292 17.4191C20.0636 18.5389 19.436 19.5884 18.4464 20.5676C18.1131 20.9061 17.7563 21.2004 17.3761 21.4504C17.9334 21.3723 18.4724 21.1952 18.9933 20.9191C19.5193 20.6431 20.0115 20.2785 20.4698 19.8254Z"
		fill="currentColor"
	/>
</svg>
