<svg
	color="rgb(var(--foreground, 0, 0, 0))"
	viewBox="0 0 17 24"
	fill="none"
	xmlns="http://www.w3.org/2000/svg"
>
	<path
		d="M0.0183105 12.9023C0.0183105 14.0898 0.25529 15.0977 0.729248 15.9258C1.20841 16.7539 1.89852 17.3841 2.79956 17.8164C3.70581 18.2487 4.79435 18.4648 6.06519 18.4648H7.6355C8.11467 18.4648 8.52612 18.3945 8.86987 18.2539C9.21883 18.1185 9.48706 17.9388 9.67456 17.7148C9.86206 17.4909 9.95581 17.2487 9.95581 16.9883C9.95581 16.806 9.86727 16.7148 9.69019 16.7148H8.99487C8.83342 16.7148 8.71102 16.6784 8.62769 16.6055C8.54956 16.5326 8.5105 16.4466 8.5105 16.3477C8.5105 16.2435 8.54956 16.1549 8.62769 16.082C8.71102 16.0039 8.83342 15.9648 8.99487 15.9648H9.45581C9.87769 15.9648 10.2162 15.8451 10.4714 15.6055C10.7266 15.3659 10.8542 15.0612 10.8542 14.6914C10.8542 14.3737 10.7162 14.2148 10.4402 14.2148H9.49487C9.323 14.2148 9.19539 14.1784 9.11206 14.1055C9.03394 14.0326 8.99487 13.9466 8.99487 13.8477C8.99487 13.7383 9.03394 13.6471 9.11206 13.5742C9.19539 13.5013 9.323 13.4648 9.49487 13.4648H10.3699C10.8438 13.4648 11.1954 13.3424 11.4246 13.0977C11.6537 12.8529 11.7683 12.5534 11.7683 12.1992C11.7683 11.8815 11.6277 11.7227 11.3464 11.7227H9.49487C9.323 11.7227 9.19539 11.6862 9.11206 11.6133C9.03394 11.5404 8.99487 11.4544 8.99487 11.3555C8.99487 11.2461 9.03394 11.1549 9.11206 11.082C9.19539 11.0091 9.323 10.9727 9.49487 10.9727H15.7136C16.0157 10.9727 16.2579 10.8841 16.4402 10.707C16.6277 10.5299 16.7214 10.3138 16.7214 10.0586C16.7214 9.78255 16.6277 9.55859 16.4402 9.38672C16.2579 9.21484 16.0157 9.12891 15.7136 9.12891H6.59644C6.48706 9.12891 6.40112 9.10026 6.33862 9.04297C6.28133 8.98047 6.25269 8.91276 6.25269 8.83984C6.25269 8.69401 6.35685 8.57943 6.56519 8.49609L9.40894 7.28516C9.61727 7.19661 9.76831 7.08464 9.86206 6.94922C9.96102 6.80859 10.0105 6.64714 10.0105 6.46484C10.0105 6.18359 9.92717 5.95964 9.7605 5.79297C9.59904 5.62109 9.40112 5.53516 9.16675 5.53516C9.06779 5.53516 8.97925 5.54557 8.90112 5.56641C8.82821 5.58203 8.75789 5.60286 8.69019 5.62891L4.72144 6.94922C3.61206 7.32943 2.71102 7.81901 2.01831 8.41797C1.3256 9.01172 0.81779 9.69141 0.494873 10.457C0.177165 11.2174 0.0183105 12.0326 0.0183105 12.9023Z"
		fill="currentColor"
	/>
</svg>
