<svg
	color="rgb(var(--foreground, 0, 0, 0))"
	viewBox="0 0 15 24"
	fill="none"
	xmlns="http://www.w3.org/2000/svg"
>
	<path
		d="M8.63464 21.9492C9.76485 21.9492 10.7232 21.7227 11.5096 21.2695C12.3013 20.8164 12.9029 20.1602 13.3143 19.3008C13.7258 18.4414 13.9315 17.4076 13.9315 16.1992V14.6992C13.9315 14.2409 13.8664 13.8477 13.7362 13.5195C13.606 13.1862 13.4341 12.931 13.2206 12.7539C13.007 12.5768 12.7753 12.4883 12.5253 12.4883C12.3534 12.4883 12.2675 12.5716 12.2675 12.7383V13.4023C12.2675 13.5586 12.231 13.6758 12.1581 13.7539C12.0904 13.832 12.0096 13.8711 11.9159 13.8711C11.8169 13.8711 11.731 13.832 11.6581 13.7539C11.5904 13.6758 11.5565 13.5586 11.5565 13.4023V12.9648C11.5565 12.5638 11.4393 12.2409 11.205 11.9961C10.9758 11.7513 10.6867 11.6289 10.3378 11.6289C10.0305 11.6289 9.87683 11.7617 9.87683 12.0273V12.9336C9.87683 13.0898 9.84298 13.207 9.77527 13.2852C9.70756 13.3633 9.62683 13.4023 9.53308 13.4023C9.42891 13.4023 9.34037 13.3633 9.26746 13.2852C9.19975 13.207 9.16589 13.0898 9.16589 12.9336V12.0977C9.16589 11.6445 9.04871 11.3086 8.81433 11.0898C8.58516 10.8711 8.30131 10.7617 7.96277 10.7617C7.65548 10.7617 7.50183 10.8945 7.50183 11.1602V12.9336C7.50183 13.0898 7.46537 13.207 7.39246 13.2852C7.32475 13.3633 7.24402 13.4023 7.15027 13.4023C7.05131 13.4023 6.96537 13.3633 6.89246 13.2852C6.82475 13.207 6.79089 13.0898 6.79089 12.9336V7.00391C6.79089 6.71745 6.70756 6.48828 6.54089 6.31641C6.37423 6.13932 6.1685 6.05078 5.92371 6.05078C5.65808 6.05078 5.44194 6.13932 5.27527 6.31641C5.11381 6.48828 5.03308 6.71745 5.03308 7.00391V15.6836C5.03308 15.793 5.00444 15.8763 4.94714 15.9336C4.89506 15.9857 4.83516 16.0117 4.76746 16.0117C4.63204 16.0117 4.52006 15.9128 4.43152 15.7148L3.28308 13.0039C3.19454 12.806 3.08516 12.6628 2.95496 12.5742C2.82475 12.4805 2.6711 12.4336 2.49402 12.4336C2.22839 12.4336 2.01485 12.5143 1.85339 12.6758C1.69714 12.832 1.61902 13.0195 1.61902 13.2383C1.61902 13.332 1.62683 13.4154 1.64246 13.4883C1.65808 13.5612 1.67631 13.6289 1.69714 13.6914L2.96277 17.4648C3.49923 19.0586 4.26485 20.2044 5.25964 20.9023C6.25964 21.6003 7.38464 21.9492 8.63464 21.9492ZM1.93933 8.05078C2.28308 8.05078 2.57214 7.93099 2.80652 7.69141C3.0461 7.45182 3.16589 7.16276 3.16589 6.82422C3.16589 6.49089 3.0461 6.20443 2.80652 5.96484C2.57214 5.72526 2.28308 5.60547 1.93933 5.60547C1.606 5.60547 1.32214 5.72526 1.08777 5.96484C0.853394 6.20443 0.736206 6.49089 0.736206 6.82422C0.736206 7.16276 0.853394 7.45182 1.08777 7.69141C1.32214 7.93099 1.606 8.05078 1.93933 8.05078ZM5.92371 4.49609C6.26225 4.49609 6.55131 4.3763 6.79089 4.13672C7.03048 3.89714 7.15027 3.60807 7.15027 3.26953C7.15027 2.9362 7.03048 2.64974 6.79089 2.41016C6.55131 2.17057 6.26225 2.05078 5.92371 2.05078C5.59037 2.05078 5.30391 2.17057 5.06433 2.41016C4.82475 2.64974 4.70496 2.9362 4.70496 3.26953C4.70496 3.60807 4.82475 3.89714 5.06433 4.13672C5.30391 4.3763 5.59037 4.49609 5.92371 4.49609ZM9.94714 8.05078C10.2857 8.05078 10.5747 7.93099 10.8143 7.69141C11.0539 7.45182 11.1737 7.16276 11.1737 6.82422C11.1737 6.49089 11.0539 6.20443 10.8143 5.96484C10.5747 5.72526 10.2857 5.60547 9.94714 5.60547C9.61381 5.60547 9.32735 5.72526 9.08777 5.96484C8.84819 6.20443 8.72839 6.49089 8.72839 6.82422C8.72839 7.16276 8.84819 7.45182 9.08777 7.69141C9.32735 7.93099 9.61381 8.05078 9.94714 8.05078ZM13.5409 8.05078C13.8794 8.05078 14.1685 7.93099 14.4081 7.69141C14.6477 7.45182 14.7675 7.16276 14.7675 6.82422C14.7675 6.49089 14.6477 6.20443 14.4081 5.96484C14.1685 5.72526 13.8794 5.60547 13.5409 5.60547C13.2076 5.60547 12.9211 5.72526 12.6815 5.96484C12.4471 6.20443 12.33 6.49089 12.33 6.82422C12.33 7.16276 12.4471 7.45182 12.6815 7.69141C12.9211 7.93099 13.2076 8.05078 13.5409 8.05078ZM13.5409 4.49609C13.8794 4.49609 14.1685 4.3763 14.4081 4.13672C14.6477 3.89714 14.7675 3.60807 14.7675 3.26953C14.7675 2.9362 14.6477 2.64974 14.4081 2.41016C14.1685 2.17057 13.8794 2.05078 13.5409 2.05078C13.2076 2.05078 12.9211 2.17057 12.6815 2.41016C12.4471 2.64974 12.33 2.9362 12.33 3.26953C12.33 3.60807 12.4471 3.89714 12.6815 4.13672C12.9211 4.3763 13.2076 4.49609 13.5409 4.49609Z"
		fill="currentColor"
	/>
</svg>
