<svg
	color="rgb(var(--foreground, 0, 0, 0))"
	viewBox="0 0 15 24"
	fill="none"
	xmlns="http://www.w3.org/2000/svg"
>
	<path
		d="M8.18933 22.1055C9.2935 22.1055 10.2596 21.8685 11.0878 21.3945C11.9159 20.9258 12.5591 20.2513 13.0175 19.3711C13.481 18.4961 13.7128 17.4492 13.7128 16.2305V14.5195C13.7128 13.6237 13.5096 12.9232 13.1034 12.418C12.7024 11.9128 12.1372 11.6576 11.4081 11.6523C11.3195 11.3659 11.1607 11.1419 10.9315 10.9805C10.7076 10.8138 10.4315 10.7305 10.1034 10.7305C9.87944 10.7305 9.65027 10.7695 9.41589 10.8477C9.31694 10.5299 9.14506 10.2826 8.90027 10.1055C8.65548 9.92318 8.36381 9.83203 8.02527 9.83203C7.83777 9.83203 7.65287 9.85807 7.47058 9.91016V7.30859C7.47058 6.8138 7.32214 6.41797 7.02527 6.12109C6.7336 5.81901 6.356 5.66797 5.89246 5.66797C5.42891 5.66797 5.0461 5.81901 4.74402 6.12109C4.44714 6.41797 4.29871 6.8138 4.29871 7.30859V13.8242C4.29871 13.8711 4.28048 13.8945 4.24402 13.8945C4.21277 13.8945 4.18933 13.8763 4.17371 13.8398L3.65808 12.5977C3.52787 12.2904 3.35079 12.0586 3.12683 11.9023C2.90808 11.7409 2.66069 11.6602 2.38464 11.6602C2.00444 11.6602 1.6711 11.7773 1.38464 12.0117C1.09819 12.2409 0.954956 12.569 0.954956 12.9961C0.954956 13.1159 0.965373 13.2487 0.986206 13.3945C1.01225 13.5404 1.04871 13.681 1.09558 13.8164L2.47058 17.6836C2.99141 19.1523 3.731 20.2565 4.68933 20.9961C5.64766 21.7357 6.81433 22.1055 8.18933 22.1055ZM8.22839 21.0273C7.13985 21.0273 6.18673 20.7461 5.36902 20.1836C4.55131 19.6263 3.90287 18.681 3.42371 17.3477L2.04089 13.4961C1.99923 13.3763 1.97839 13.2565 1.97839 13.1367C1.97839 13.0013 2.02527 12.8841 2.11902 12.7852C2.21277 12.6862 2.33777 12.6367 2.49402 12.6367C2.7336 12.6367 2.91069 12.7773 3.02527 13.0586L4.09558 15.4336C4.17891 15.6315 4.27787 15.7695 4.39246 15.8477C4.51225 15.9206 4.64246 15.957 4.78308 15.957C4.94454 15.957 5.07735 15.8997 5.18152 15.7852C5.28569 15.6654 5.33777 15.5169 5.33777 15.3398V7.23828C5.33777 7.07161 5.38985 6.9362 5.49402 6.83203C5.59819 6.72786 5.731 6.67578 5.89246 6.67578C6.05391 6.67578 6.18412 6.72786 6.28308 6.83203C6.38204 6.9362 6.43152 7.07161 6.43152 7.23828V13.0195C6.43152 13.1549 6.481 13.2695 6.57996 13.3633C6.67891 13.457 6.7961 13.5039 6.93152 13.5039C7.06694 13.5039 7.18152 13.457 7.27527 13.3633C7.37423 13.2695 7.42371 13.1549 7.42371 13.0195V10.9414C7.56954 10.8685 7.72579 10.832 7.89246 10.832C8.08516 10.832 8.23621 10.8919 8.34558 11.0117C8.46016 11.1315 8.51746 11.2956 8.51746 11.5039V13.3164C8.51746 13.4622 8.56694 13.5794 8.66589 13.668C8.77006 13.7565 8.88725 13.8008 9.01746 13.8008C9.14766 13.8008 9.26225 13.7565 9.36121 13.668C9.46016 13.5794 9.50964 13.4622 9.50964 13.3164V11.8398C9.65548 11.7721 9.80912 11.7383 9.97058 11.7383C10.1685 11.7383 10.3221 11.7982 10.4315 11.918C10.5409 12.0326 10.5956 12.194 10.5956 12.4023V13.6211C10.5956 13.7617 10.6451 13.8763 10.744 13.9648C10.8482 14.0534 10.968 14.0977 11.1034 14.0977C11.2284 14.0977 11.3404 14.0534 11.4393 13.9648C11.5383 13.8763 11.5878 13.7617 11.5878 13.6211V12.7227C11.9367 12.7227 12.205 12.8945 12.3925 13.2383C12.5852 13.5768 12.6815 14.056 12.6815 14.6758V16.1055C12.6815 17.1523 12.5018 18.0404 12.1425 18.7695C11.7883 19.5039 11.2779 20.0638 10.6112 20.4492C9.94454 20.8346 9.15027 21.0273 8.22839 21.0273ZM1.90808 7.89453C2.25183 7.89453 2.54089 7.77474 2.77527 7.53516C3.01485 7.29557 3.13464 7.00651 3.13464 6.66797C3.13464 6.33464 3.01485 6.04818 2.77527 5.80859C2.54089 5.56901 2.25183 5.44922 1.90808 5.44922C1.57475 5.44922 1.29089 5.56901 1.05652 5.80859C0.822144 6.04818 0.704956 6.33464 0.704956 6.66797C0.704956 7.00651 0.822144 7.29557 1.05652 7.53516C1.29089 7.77474 1.57475 7.89453 1.90808 7.89453ZM5.89246 4.33984C6.231 4.33984 6.52006 4.22005 6.75964 3.98047C6.99923 3.74089 7.11902 3.45182 7.11902 3.11328C7.11902 2.77995 6.99923 2.49349 6.75964 2.25391C6.52006 2.01432 6.231 1.89453 5.89246 1.89453C5.55912 1.89453 5.27266 2.01432 5.03308 2.25391C4.7935 2.49349 4.67371 2.77995 4.67371 3.11328C4.67371 3.45182 4.7935 3.74089 5.03308 3.98047C5.27266 4.22005 5.55912 4.33984 5.89246 4.33984ZM9.91589 7.89453C10.2544 7.89453 10.5435 7.77474 10.7831 7.53516C11.0227 7.29557 11.1425 7.00651 11.1425 6.66797C11.1425 6.33464 11.0227 6.04818 10.7831 5.80859C10.5435 5.56901 10.2544 5.44922 9.91589 5.44922C9.58256 5.44922 9.2961 5.56901 9.05652 5.80859C8.81694 6.04818 8.69714 6.33464 8.69714 6.66797C8.69714 7.00651 8.81694 7.29557 9.05652 7.53516C9.2961 7.77474 9.58256 7.89453 9.91589 7.89453ZM13.5096 7.89453C13.8482 7.89453 14.1372 7.77474 14.3768 7.53516C14.6164 7.29557 14.7362 7.00651 14.7362 6.66797C14.7362 6.33464 14.6164 6.04818 14.3768 5.80859C14.1372 5.56901 13.8482 5.44922 13.5096 5.44922C13.1763 5.44922 12.8899 5.56901 12.6503 5.80859C12.4159 6.04818 12.2987 6.33464 12.2987 6.66797C12.2987 7.00651 12.4159 7.29557 12.6503 7.53516C12.8899 7.77474 13.1763 7.89453 13.5096 7.89453ZM13.5096 4.33984C13.8482 4.33984 14.1372 4.22005 14.3768 3.98047C14.6164 3.74089 14.7362 3.45182 14.7362 3.11328C14.7362 2.77995 14.6164 2.49349 14.3768 2.25391C14.1372 2.01432 13.8482 1.89453 13.5096 1.89453C13.1763 1.89453 12.8899 2.01432 12.6503 2.25391C12.4159 2.49349 12.2987 2.77995 12.2987 3.11328C12.2987 3.45182 12.4159 3.74089 12.6503 3.98047C12.8899 4.22005 13.1763 4.33984 13.5096 4.33984Z"
		fill="currentColor"
	/>
</svg>
