<svg
	color="rgb(var(--foreground, 0, 0, 0))"
	viewBox="0 0 13 24"
	fill="none"
	xmlns="http://www.w3.org/2000/svg"
>
	<path
		d="M7.40808 19.9492C8.53829 19.9492 9.49662 19.7227 10.2831 19.2695C11.0747 18.8164 11.6763 18.1602 12.0878 17.3008C12.4992 16.4414 12.705 15.4076 12.705 14.1992V12.6992C12.705 12.2409 12.6399 11.8477 12.5096 11.5195C12.3794 11.1862 12.2076 10.931 11.994 10.7539C11.7805 10.5768 11.5487 10.4883 11.2987 10.4883C11.1268 10.4883 11.0409 10.5716 11.0409 10.7383V11.4023C11.0409 11.5586 11.0044 11.6758 10.9315 11.7539C10.8638 11.832 10.7831 11.8711 10.6893 11.8711C10.5904 11.8711 10.5044 11.832 10.4315 11.7539C10.3638 11.6758 10.33 11.5586 10.33 11.4023V10.9648C10.33 10.5638 10.2128 10.2409 9.97839 9.99609C9.74923 9.7513 9.46016 9.62891 9.11121 9.62891C8.80391 9.62891 8.65027 9.76172 8.65027 10.0273V10.9336C8.65027 11.0898 8.61641 11.207 8.54871 11.2852C8.481 11.3633 8.40027 11.4023 8.30652 11.4023C8.20235 11.4023 8.11381 11.3633 8.04089 11.2852C7.97319 11.207 7.93933 11.0898 7.93933 10.9336V10.0977C7.93933 9.64453 7.82214 9.30859 7.58777 9.08984C7.3586 8.87109 7.07475 8.76172 6.73621 8.76172C6.42891 8.76172 6.27527 8.89453 6.27527 9.16016V10.9336C6.27527 11.0898 6.23881 11.207 6.16589 11.2852C6.09819 11.3633 6.01746 11.4023 5.92371 11.4023C5.82475 11.4023 5.73881 11.3633 5.66589 11.2852C5.59819 11.207 5.56433 11.0898 5.56433 10.9336V5.00391C5.56433 4.71745 5.481 4.48828 5.31433 4.31641C5.14766 4.13932 4.94194 4.05078 4.69714 4.05078C4.43152 4.05078 4.21537 4.13932 4.04871 4.31641C3.88725 4.48828 3.80652 4.71745 3.80652 5.00391V13.6836C3.80652 13.793 3.77787 13.8763 3.72058 13.9336C3.6685 13.9857 3.6086 14.0117 3.54089 14.0117C3.40548 14.0117 3.2935 13.9128 3.20496 13.7148L2.05652 11.0039C1.96798 10.806 1.8586 10.6628 1.72839 10.5742C1.59819 10.4805 1.44454 10.4336 1.26746 10.4336C1.00183 10.4336 0.788289 10.5143 0.626831 10.6758C0.470581 10.832 0.392456 11.0195 0.392456 11.2383C0.392456 11.332 0.400269 11.4154 0.415894 11.4883C0.431519 11.5612 0.449748 11.6289 0.470581 11.6914L1.73621 15.4648C2.27266 17.0586 3.03829 18.2044 4.03308 18.9023C5.03308 19.6003 6.15808 19.9492 7.40808 19.9492Z"
		fill="currentColor"
	/>
</svg>
