<svg
	color="rgb(var(--foreground, 0, 0, 0))"
	viewBox="0 0 17 24"
	fill="none"
	xmlns="http://www.w3.org/2000/svg"
>
	<path
		d="M3.82312 6.28085C3.0575 6.74439 2.38822 7.33553 1.81531 8.05428C1.24239 8.76782 0.797078 9.58293 0.47937 10.4996C0.161662 11.4163 0.00280762 12.4084 0.00280762 13.4762C0.00280762 13.6168 0.0522868 13.7392 0.151245 13.8433C0.255412 13.9475 0.375203 13.997 0.51062 13.9918C0.646037 13.9866 0.758016 13.9371 0.846558 13.8433C0.935099 13.7496 0.981974 13.6324 0.987183 13.4918C1.01843 12.0907 1.31791 10.8538 1.88562 9.78085C2.45333 8.70793 3.21635 7.86157 4.17468 7.24178L3.82312 6.28085ZM13.37 18.8512C14.4325 18.4657 15.2554 17.9241 15.8387 17.2262C16.4273 16.5282 16.7684 15.7079 16.8622 14.7652C16.9559 13.8173 16.7945 12.773 16.3778 11.6324L15.87 10.2262C15.7085 9.79387 15.5106 9.44491 15.2762 9.17928C15.0419 8.91366 14.7945 8.73397 14.5341 8.64022C14.2736 8.54647 14.0262 8.54126 13.7919 8.6246C13.6252 8.6871 13.5705 8.79647 13.6278 8.95272L13.8544 9.57772C13.9117 9.72355 13.9195 9.84595 13.8778 9.94491C13.8413 10.0387 13.7788 10.1038 13.6903 10.1402C13.5966 10.1715 13.5028 10.1637 13.4091 10.1168C13.3153 10.0647 13.2424 9.96574 13.1903 9.81991L13.0419 9.41366C12.9012 9.03345 12.6799 8.76782 12.3778 8.61678C12.0809 8.46574 11.7684 8.45012 11.4403 8.56991C11.1538 8.67407 11.0549 8.85116 11.1434 9.10116L11.4559 9.95272C11.508 10.0986 11.5158 10.2209 11.4794 10.3199C11.4429 10.4137 11.3804 10.4788 11.2919 10.5152C11.1929 10.5465 11.0966 10.5387 11.0028 10.4918C10.9143 10.4397 10.8413 10.3407 10.7841 10.1949L10.5028 9.41366C10.3466 8.98657 10.12 8.71053 9.82312 8.58553C9.53145 8.45532 9.22677 8.45012 8.90906 8.56991C8.6226 8.67407 8.52364 8.85116 8.61218 9.10116L9.22156 10.7652C9.27364 10.9111 9.28145 11.0334 9.245 11.1324C9.20854 11.2314 9.14604 11.2965 9.0575 11.3277C8.95854 11.359 8.86218 11.3512 8.76843 11.3043C8.67989 11.2574 8.60697 11.1584 8.54968 11.0074L6.52625 5.4371C6.42729 5.16626 6.26843 4.97876 6.04968 4.8746C5.83614 4.76522 5.61479 4.7522 5.38562 4.83553C5.13562 4.92407 4.96375 5.08032 4.87 5.30428C4.77625 5.52303 4.77885 5.76782 4.87781 6.03866L7.84656 14.1949C7.88302 14.2939 7.88302 14.3798 7.84656 14.4527C7.81531 14.5256 7.76843 14.5725 7.70593 14.5933C7.57572 14.6402 7.4377 14.5855 7.29187 14.4293L5.28406 12.273C5.13302 12.1168 4.97937 12.0178 4.82312 11.9762C4.67208 11.9345 4.51322 11.9449 4.34656 12.0074C4.09656 12.0959 3.92208 12.2444 3.82312 12.4527C3.72937 12.6558 3.72156 12.8616 3.79968 13.0699C3.83093 13.1532 3.86479 13.2262 3.90125 13.2887C3.94291 13.3512 3.98458 13.4085 4.02625 13.4605L6.51062 16.5777C7.5575 17.8902 8.66947 18.7027 9.84656 19.0152C11.0236 19.3329 12.1981 19.2782 13.37 18.8512Z"
		fill="currentColor"
	/>
</svg>
