<svg
	color="rgb(var(--foreground, 0, 0, 0))"
	viewBox="0 0 14 24"
	fill="none"
	xmlns="http://www.w3.org/2000/svg"
>
	<path
		d="M6.19017 3.78125C5.09121 3.78125 4.12769 4.01823 3.29956 4.49219C2.47144 4.96094 1.8256 5.63542 1.36206 6.51562C0.903727 7.39062 0.674561 8.4375 0.674561 9.65625V11.3594C0.674561 12.2604 0.875081 12.9635 1.27612 13.4688C1.68237 13.9688 2.25008 14.224 2.97925 14.2344C3.06779 14.5208 3.22404 14.7474 3.448 14.9141C3.67716 15.0755 3.95581 15.1562 4.28394 15.1562C4.50789 15.1562 4.73444 15.1172 4.96361 15.0391C5.06777 15.3568 5.24225 15.6068 5.48705 15.7891C5.73184 15.9661 6.0235 16.0547 6.36205 16.0547C6.54955 16.0547 6.73444 16.0286 6.91673 15.9766V18.5781C6.91673 19.0677 7.06257 19.4635 7.35423 19.7656C7.65111 20.0677 8.03132 20.2188 8.49486 20.2188C8.9584 20.2188 9.33861 20.0677 9.63548 19.7656C9.93236 19.4635 10.0808 19.0677 10.0808 18.5781V12.0547C10.0808 12.0078 10.1016 11.9844 10.1433 11.9844C10.1745 11.9844 10.1954 12.0026 10.2058 12.0391L10.7292 13.2891C10.8594 13.5964 11.0339 13.8307 11.2527 13.9922C11.4766 14.1484 11.7266 14.2266 12.0027 14.2266C12.3829 14.2266 12.7162 14.112 13.0027 13.8828C13.2891 13.6484 13.4324 13.3151 13.4324 12.8828C13.4324 12.7682 13.4193 12.638 13.3933 12.4922C13.3725 12.3411 13.3386 12.1979 13.2917 12.0625L11.9167 8.19531C11.3959 6.73177 10.6563 5.63021 9.69798 4.89062C8.73965 4.15104 7.57038 3.78125 6.19017 3.78125ZM6.15111 4.85938C7.24486 4.85938 8.20059 5.13802 9.0183 5.69531C9.836 6.2526 10.4844 7.19792 10.9636 8.53125L12.3464 12.3906C12.3881 12.5104 12.4089 12.6276 12.4089 12.7422C12.4089 12.8776 12.362 12.9974 12.2683 13.1016C12.1745 13.2005 12.0495 13.25 11.8933 13.25C11.6537 13.25 11.474 13.1068 11.3542 12.8203L10.2917 10.4453C10.2032 10.2526 10.099 10.1198 9.97923 10.0469C9.86465 9.96875 9.73965 9.92969 9.60423 9.92969C9.43757 9.92969 9.30215 9.98958 9.19798 10.1094C9.09382 10.224 9.04173 10.3698 9.04173 10.5469V18.6484C9.04173 18.8151 8.98965 18.9505 8.88548 19.0547C8.78652 19.1589 8.65632 19.2109 8.49486 19.2109C8.3334 19.2109 8.20319 19.1589 8.10423 19.0547C8.00527 18.9505 7.9558 18.8151 7.9558 18.6484V12.8672C7.9558 12.7266 7.90371 12.612 7.79955 12.5234C7.70059 12.4297 7.5834 12.3828 7.44798 12.3828C7.31777 12.3828 7.20319 12.4297 7.10423 12.5234C7.01048 12.612 6.96361 12.7266 6.96361 12.8672V14.9453C6.81777 15.013 6.66152 15.0469 6.49486 15.0469C6.30215 15.0469 6.1485 14.9896 6.03392 14.875C5.92455 14.7552 5.86986 14.5911 5.86986 14.3828V12.5703C5.86986 12.4245 5.81777 12.3073 5.71361 12.2188C5.61465 12.1302 5.50007 12.0859 5.36986 12.0859C5.23965 12.0859 5.12507 12.1302 5.02611 12.2188C4.92715 12.3073 4.87767 12.4245 4.87767 12.5703V14.0469C4.73184 14.1146 4.57821 14.1484 4.41675 14.1484C4.21883 14.1484 4.06519 14.0885 3.95581 13.9688C3.84644 13.849 3.79175 13.6875 3.79175 13.4844V12.2656C3.79175 12.125 3.73966 12.0104 3.6355 11.9219C3.53654 11.8333 3.41935 11.7891 3.28394 11.7891C3.15894 11.7891 3.04696 11.8333 2.948 11.9219C2.84904 12.0104 2.79956 12.125 2.79956 12.2656V13.1641C2.4506 13.1641 2.17977 12.9948 1.98706 12.6562C1.79956 12.3125 1.70581 11.8281 1.70581 11.2031V9.78125C1.70581 8.73438 1.88289 7.84375 2.23706 7.10938C2.59644 6.375 3.10946 5.81771 3.77612 5.4375C4.44279 5.05208 5.23444 4.85938 6.15111 4.85938Z"
		fill="currentColor"
	/>
</svg>
