<svg
	color="rgb(var(--foreground, 0, 0, 0))"
	viewBox="0 0 19 24"
	fill="none"
	xmlns="http://www.w3.org/2000/svg"
>
	<path
		d="M0.768311 12.9023C0.768311 14.0586 1.01571 15.0716 1.5105 15.9414C2.00529 16.8112 2.71362 17.4883 3.6355 17.9727C4.55737 18.457 5.65633 18.6992 6.93237 18.6992H8.72144C9.66935 18.6992 10.4063 18.4857 10.9324 18.0586C11.4636 17.6315 11.7319 17.0378 11.7371 16.2773C12.0391 16.1836 12.2761 16.0169 12.448 15.7773C12.6199 15.5378 12.7058 15.2487 12.7058 14.9102C12.7058 14.7852 12.6954 14.6628 12.6746 14.543C12.6537 14.4232 12.6251 14.306 12.5886 14.1914C12.9167 14.0872 13.1746 13.9076 13.3621 13.6523C13.5548 13.3919 13.6511 13.082 13.6511 12.7227C13.6511 12.5299 13.6225 12.3372 13.5652 12.1445H16.2917C16.8126 12.1445 17.2292 11.9909 17.5417 11.6836C17.8595 11.3711 18.0183 10.9701 18.0183 10.4805C18.0183 9.99609 17.8595 9.59766 17.5417 9.28516C17.2292 8.97266 16.8126 8.81641 16.2917 8.81641H9.45581C9.40894 8.81641 9.3855 8.79557 9.3855 8.75391C9.3855 8.71745 9.40373 8.69401 9.44019 8.68359L10.7527 8.13672C11.0704 8.0013 11.3126 7.81901 11.4792 7.58984C11.6459 7.35547 11.7292 7.09245 11.7292 6.80078C11.7292 6.40495 11.6069 6.05599 11.3621 5.75391C11.1173 5.45182 10.7709 5.30078 10.323 5.30078C10.198 5.30078 10.0574 5.3138 9.90112 5.33984C9.75008 5.36068 9.60425 5.39714 9.46362 5.44922L5.40112 6.89453C3.85946 7.44141 2.7006 8.21745 1.92456 9.22266C1.15373 10.2279 0.768311 11.4544 0.768311 12.9023ZM1.89331 12.9492C1.89331 11.8034 2.18758 10.8008 2.77612 9.94141C3.36466 9.07682 4.35685 8.39453 5.75269 7.89453L9.80737 6.44141C9.92717 6.39974 10.0496 6.37891 10.1746 6.37891C10.3204 6.37891 10.4454 6.42839 10.5496 6.52734C10.6537 6.62109 10.7058 6.7513 10.7058 6.91797C10.7058 7.05859 10.6667 7.17318 10.5886 7.26172C10.5105 7.34505 10.4011 7.41797 10.2605 7.48047L7.7605 8.58984C7.55737 8.68359 7.41675 8.79297 7.33862 8.91797C7.2605 9.04297 7.22144 9.17839 7.22144 9.32422C7.22144 9.49609 7.28133 9.63672 7.40112 9.74609C7.52612 9.85547 7.67977 9.91016 7.86206 9.91016H16.3699C16.5417 9.91016 16.6824 9.96484 16.7917 10.0742C16.9063 10.1784 16.9636 10.3138 16.9636 10.4805C16.9636 10.6523 16.9063 10.7904 16.7917 10.8945C16.6824 10.9987 16.5417 11.0508 16.3699 11.0508H10.2996C10.1589 11.0508 10.0391 11.1029 9.94019 11.207C9.84123 11.3112 9.79175 11.4362 9.79175 11.582C9.79175 11.7227 9.84123 11.8451 9.94019 11.9492C10.0391 12.0482 10.1589 12.0977 10.2996 12.0977H12.4871C12.5183 12.1654 12.5444 12.2435 12.5652 12.332C12.586 12.4206 12.5964 12.5039 12.5964 12.582C12.5964 12.7852 12.5339 12.9466 12.4089 13.0664C12.2839 13.1862 12.1121 13.2461 11.8933 13.2461H9.99487C9.83862 13.2461 9.71362 13.2982 9.61987 13.4023C9.52612 13.5065 9.47925 13.6263 9.47925 13.7617C9.47925 13.9023 9.52612 14.0247 9.61987 14.1289C9.71362 14.2279 9.83862 14.2773 9.99487 14.2773H11.5417C11.6095 14.4336 11.6433 14.5977 11.6433 14.7695C11.6433 14.9727 11.5808 15.1341 11.4558 15.2539C11.336 15.3685 11.1694 15.4258 10.9558 15.4258H9.67456C9.52352 15.4258 9.40112 15.4805 9.30737 15.5898C9.21362 15.694 9.16675 15.8164 9.16675 15.957C9.16675 16.0924 9.21362 16.2122 9.30737 16.3164C9.40112 16.4154 9.52352 16.4648 9.67456 16.4648H10.6121C10.6121 16.8294 10.4324 17.1133 10.073 17.3164C9.71362 17.5143 9.20842 17.6133 8.55737 17.6133H7.06519C5.96623 17.6133 5.03133 17.4258 4.2605 17.0508C3.48966 16.6758 2.90112 16.1393 2.49487 15.4414C2.09383 14.7435 1.89331 13.9128 1.89331 12.9492Z"
		fill="currentColor"
	/>
</svg>
