<svg
	color="rgb(var(--foreground, 0, 0, 0))"
	viewBox="0 0 17 24"
	fill="none"
	xmlns="http://www.w3.org/2000/svg"
>
	<path
		d="M8.99219 20.2188C9.6901 20.2188 10.3177 20.1354 10.875 19.9688C11.4375 19.8021 11.9375 19.5521 12.375 19.2188L3.63281 10.4766V14.7344C3.63281 15.599 3.76562 16.3698 4.03125 17.0469C4.29688 17.724 4.66927 18.2969 5.14844 18.7656C5.6276 19.2396 6.19271 19.599 6.84375 19.8438C7.5 20.0938 8.21615 20.2188 8.99219 20.2188ZM14.2812 16.7188C14.3281 16.625 14.3724 16.526 14.4141 16.4219C14.4609 16.3177 14.5 16.2109 14.5312 16.1016C14.7188 15.6224 14.8984 15.1198 15.0703 14.5938C15.2422 14.0625 15.4167 13.5104 15.5938 12.9375C15.6615 12.7188 15.7318 12.4896 15.8047 12.25C15.8828 12.0052 15.9479 11.7786 16 11.5703C16.0573 11.362 16.0859 11.1953 16.0859 11.0703C16.0859 10.862 16.0156 10.6927 15.875 10.5625C15.7396 10.4323 15.5599 10.3672 15.3359 10.3672C15.0911 10.3672 14.8828 10.4505 14.7109 10.6172C14.5443 10.7839 14.3698 11.0521 14.1875 11.4219L13.1016 13.7031C13.0495 13.8281 12.9922 13.9167 12.9297 13.9688C12.8672 14.0208 12.8047 14.0469 12.7422 14.0469C12.6589 14.0469 12.5911 14.0208 12.5391 13.9688C12.4922 13.9115 12.4688 13.8151 12.4688 13.6797V5.48438C12.4688 5.25521 12.3854 5.0599 12.2188 4.89844C12.0573 4.73177 11.862 4.64844 11.6328 4.64844C11.4036 4.64844 11.2057 4.73177 11.0391 4.89844C10.8776 5.0599 10.7969 5.25521 10.7969 5.48438V11.3438C10.6875 11.3021 10.5755 11.2656 10.4609 11.2344C10.3464 11.2031 10.2266 11.1771 10.1016 11.1562V4.35938C10.1016 4.125 10.0182 3.92708 9.85156 3.76562C9.6901 3.59896 9.49479 3.51562 9.26562 3.51562C9.03125 3.51562 8.83073 3.59896 8.66406 3.76562C8.5026 3.92708 8.42188 4.125 8.42188 4.35938V10.5938C8.36458 10.599 8.32031 10.6042 8.28906 10.6094C8.25781 10.6094 8.22135 10.6146 8.17969 10.625L14.2812 16.7188ZM6.01562 8.45312L7.6875 10.1328V5.02344C7.6875 4.79427 7.60417 4.59896 7.4375 4.4375C7.27604 4.27083 7.08073 4.1875 6.85156 4.1875C6.6224 4.1875 6.42448 4.27083 6.25781 4.4375C6.09635 4.59896 6.01562 4.79427 6.01562 5.02344V8.45312ZM4.25781 6.71094L5.3125 7.75781V7.45312C5.3125 7.22396 5.22917 7.02865 5.0625 6.86719C4.90104 6.70052 4.70573 6.61719 4.47656 6.61719C4.42969 6.61719 4.38802 6.625 4.35156 6.64062C4.3151 6.65625 4.28385 6.67969 4.25781 6.71094ZM14.8203 20.3125C14.9349 20.4271 15.0755 20.4844 15.2422 20.4844C15.4141 20.4844 15.5573 20.4271 15.6719 20.3125C15.7865 20.1927 15.8438 20.0495 15.8438 19.8828C15.8438 19.7161 15.7865 19.5755 15.6719 19.4609L1.78906 5.58594C1.67448 5.47135 1.53125 5.41406 1.35938 5.41406C1.19271 5.41406 1.04948 5.47135 0.929688 5.58594C0.820312 5.70052 0.765625 5.84375 0.765625 6.01562C0.765625 6.18229 0.820312 6.32292 0.929688 6.4375L14.8203 20.3125Z"
		fill="currentColor"
	/>
</svg>
