<svg
	color="rgb(var(--foreground, 0, 0, 0))"
	viewBox="0 0 16 24"
	fill="none"
	xmlns="http://www.w3.org/2000/svg"
>
	<path
		d="M14.0327 17.9026C15.0066 16.9287 15.5717 15.8427 15.728 14.6448C15.8842 13.4417 15.6264 12.137 14.9546 10.7307L13.1967 7.02762C13.0717 6.77242 12.9259 6.56148 12.7592 6.39481C12.4676 6.10315 12.1316 5.96252 11.7514 5.97294C11.3712 5.97815 11.0405 6.12137 10.7592 6.40262C10.5665 6.59533 10.4441 6.82971 10.3921 7.10575C10.3452 7.37658 10.3842 7.66565 10.5092 7.97294L11.0327 9.22294C11.0483 9.2594 11.0457 9.28804 11.0249 9.30887C10.9988 9.33492 10.9676 9.33231 10.9311 9.30106L6.50144 4.87137C6.17852 4.54846 5.82956 4.3844 5.45456 4.37919C5.07956 4.37398 4.73841 4.52762 4.43112 4.84012C4.31654 4.9495 4.228 5.0745 4.1655 5.21512C4.10821 5.35054 4.07696 5.49377 4.07175 5.64481C3.74883 5.40002 3.4181 5.28283 3.07956 5.29325C2.74623 5.30367 2.44414 5.44429 2.17331 5.71512C1.90248 5.98596 1.76185 6.29325 1.75144 6.637C1.74102 6.97554 1.85039 7.30106 2.07956 7.61356C1.7931 7.61356 1.5431 7.72294 1.32956 7.94169C1.0431 8.22815 0.905081 8.55106 0.915498 8.91044C0.925915 9.26981 1.08216 9.60054 1.38425 9.90262L2.00144 10.5198C1.85039 10.5146 1.69935 10.5459 1.54831 10.6136C1.40248 10.6813 1.27227 10.7724 1.15769 10.887C0.964977 11.0797 0.839977 11.2932 0.782686 11.5276C0.725394 11.762 0.733206 11.999 0.806123 12.2386C0.884248 12.4729 1.02487 12.6943 1.228 12.9026L5.978 17.6526C6.83737 18.512 7.74102 19.0875 8.68894 19.3792C9.63685 19.6761 10.5691 19.6995 11.4858 19.4495C12.4077 19.1995 13.2566 18.6839 14.0327 17.9026ZM13.2436 17.1682C12.5926 17.8193 11.8947 18.2438 11.1499 18.4417C10.4103 18.6396 9.65508 18.6057 8.88425 18.3401C8.11341 18.0745 7.35821 17.5719 6.61862 16.8323L2.0405 12.2542C1.92071 12.1344 1.85821 12.0042 1.853 11.8636C1.84779 11.7177 1.90248 11.5875 2.01706 11.4729C2.13164 11.3584 2.26185 11.3011 2.40769 11.3011C2.55873 11.3011 2.69154 11.361 2.80612 11.4807L5.63425 14.3011C5.73321 14.4052 5.84779 14.4547 5.978 14.4495C6.11341 14.4391 6.22539 14.3896 6.31394 14.3011C6.41289 14.2073 6.46498 14.0927 6.47019 13.9573C6.4806 13.8219 6.43373 13.7047 6.32956 13.6057L2.11081 9.37919C1.99102 9.2594 1.92852 9.12919 1.92331 8.98856C1.9181 8.84273 1.97279 8.71512 2.08737 8.60575C2.20196 8.49117 2.33216 8.43387 2.478 8.43387C2.62904 8.43387 2.76446 8.49117 2.88425 8.60575L6.82175 12.5511C6.92591 12.65 7.0431 12.6969 7.17331 12.6917C7.30873 12.6865 7.42071 12.637 7.50925 12.5432C7.603 12.4495 7.65248 12.3349 7.65769 12.1995C7.6681 12.0641 7.62383 11.9469 7.52487 11.8479L2.89987 7.22294C2.78008 7.10315 2.71758 6.97033 2.71237 6.8245C2.71237 6.67346 2.76966 6.54325 2.88425 6.43387C2.99362 6.31929 3.12123 6.2646 3.26706 6.26981C3.4181 6.27502 3.55352 6.33492 3.67331 6.4495L8.29831 11.0745C8.39206 11.1735 8.50404 11.2229 8.63425 11.2229C8.76966 11.2177 8.88425 11.1682 8.978 11.0745C9.07696 10.9755 9.12904 10.8584 9.13425 10.7229C9.13946 10.5875 9.09519 10.4729 9.00144 10.3792L5.05612 6.43387C4.93633 6.31408 4.87644 6.18127 4.87644 6.03544C4.87644 5.8896 4.93112 5.7594 5.0405 5.64481C5.15508 5.53023 5.28529 5.47554 5.43112 5.48075C5.57696 5.48596 5.70977 5.54585 5.82956 5.66044L11.2671 11.0979C11.4025 11.2386 11.5457 11.3115 11.6967 11.3167C11.8478 11.3167 11.9806 11.2594 12.0952 11.1448C12.1941 11.0459 12.2592 10.9287 12.2905 10.7932C12.3217 10.6578 12.2983 10.4886 12.2202 10.2854L11.2436 7.72294C11.1759 7.54585 11.1681 7.39221 11.2202 7.262C11.2723 7.12658 11.366 7.02762 11.5014 6.96512C11.6473 6.89742 11.7827 6.89742 11.9077 6.96512C12.0379 7.02762 12.1473 7.15262 12.2358 7.34012L14.0483 11.1682C14.6525 12.4495 14.8608 13.5771 14.6733 14.5511C14.491 15.525 14.0145 16.3974 13.2436 17.1682Z"
		fill="currentColor"
	/>
</svg>
