<svg
	color="rgb(var(--foreground, 0, 0, 0))"
	viewBox="0 0 15 24"
	fill="none"
	xmlns="http://www.w3.org/2000/svg"
>
	<path
		d="M10.7826 19.1825C11.8139 18.8075 12.6368 18.258 13.2514 17.5341C13.8711 16.8049 14.2461 15.9508 14.3764 14.9716C14.5118 13.9872 14.3711 12.9221 13.9545 11.7763L13.3764 10.1747C13.0639 9.33097 12.6316 8.74242 12.0795 8.40909C11.5274 8.07055 10.9102 8.02107 10.2279 8.26065C10.0456 8.02107 9.81906 7.86482 9.54823 7.7919C9.27739 7.71378 8.99093 7.7294 8.68885 7.83878C8.47531 7.9169 8.27218 8.03149 8.07948 8.18253C7.88156 7.92211 7.63416 7.75024 7.33729 7.6669C7.04562 7.57836 6.74093 7.59138 6.42323 7.70597C6.24614 7.77367 6.08208 7.86222 5.93104 7.97159L5.04041 5.53409C4.87375 5.06534 4.60031 4.74242 4.2201 4.56534C3.83989 4.38305 3.43104 4.37003 2.99354 4.52628C2.55604 4.68774 2.24875 4.96117 2.07166 5.34659C1.89979 5.7268 1.89718 6.14868 2.06385 6.61222L4.29041 12.7372C4.30604 12.7841 4.29562 12.8127 4.25916 12.8232C4.23312 12.8336 4.20708 12.8258 4.18104 12.7997L3.26698 11.7997C3.03781 11.5601 2.79302 11.4039 2.5326 11.331C2.27218 11.2528 2.00916 11.2607 1.74354 11.3544C1.38937 11.4846 1.11593 11.7086 0.923225 12.0263C0.735725 12.344 0.717496 12.7034 0.868538 13.1044C0.904996 13.219 0.959684 13.3414 1.0326 13.4716C1.10552 13.5966 1.18625 13.7164 1.27479 13.831L3.89198 16.995C4.88156 18.1929 5.95187 18.9742 7.10291 19.3388C8.25916 19.7086 9.48573 19.6565 10.7826 19.1825ZM10.4467 18.1591C9.42062 18.5341 8.42843 18.5992 7.4701 18.3544C6.51177 18.1096 5.57948 17.4403 4.67323 16.3466L2.05604 13.1982C1.9727 13.0992 1.91281 12.995 1.87635 12.8857C1.82948 12.7607 1.83208 12.6357 1.88416 12.5107C1.93625 12.3857 2.03781 12.2945 2.18885 12.2372C2.41281 12.1591 2.62895 12.232 2.83729 12.456L4.64979 14.3232C4.79562 14.4794 4.93625 14.5732 5.07166 14.6044C5.20708 14.6304 5.33989 14.62 5.4701 14.5732C5.62635 14.5159 5.73312 14.4169 5.79041 14.2763C5.8477 14.1304 5.8451 13.9716 5.7826 13.7997L3.01698 6.19034C2.95968 6.03409 2.95968 5.89086 3.01698 5.76065C3.07948 5.62524 3.18625 5.52888 3.33729 5.47159C3.49354 5.41951 3.63416 5.42732 3.75916 5.49503C3.88937 5.55753 3.98312 5.6669 4.04041 5.82315L6.01698 11.2528C6.06385 11.383 6.14979 11.4742 6.27479 11.5263C6.39979 11.5784 6.52739 11.581 6.6576 11.5341C6.7826 11.4872 6.87375 11.4039 6.93104 11.2841C6.98833 11.1643 6.99614 11.0419 6.95448 10.9169L6.23573 8.95597C6.35031 8.84138 6.48573 8.75545 6.64198 8.69815C6.82427 8.63045 6.98833 8.63565 7.13416 8.71378C7.28 8.7867 7.38677 8.91951 7.45448 9.11222L8.07948 10.8232C8.12635 10.9534 8.21229 11.0445 8.33729 11.0966C8.46229 11.1435 8.58729 11.1435 8.71229 11.0966C8.83208 11.0549 8.92323 10.9768 8.98573 10.8622C9.04823 10.7424 9.05604 10.6148 9.00916 10.4794L8.50135 9.08878C8.61593 8.9742 8.75135 8.88826 8.9076 8.83097C9.08989 8.76326 9.25395 8.76847 9.39979 8.84659C9.54562 8.91951 9.65239 9.05232 9.7201 9.24503L10.1342 10.3857C10.1862 10.5211 10.2748 10.6148 10.3998 10.6669C10.5248 10.7138 10.6498 10.7138 10.7748 10.6669C10.8946 10.6252 10.9857 10.5471 11.0482 10.4325C11.1107 10.3127 11.1185 10.1851 11.0717 10.0497L10.7592 9.20597C11.0873 9.08617 11.3998 9.15649 11.6967 9.4169C11.9935 9.67211 12.2461 10.0914 12.4545 10.6747L12.9467 12.0107C13.3008 12.995 13.4362 13.8935 13.3529 14.706C13.2696 15.5185 12.9805 16.219 12.4857 16.8075C11.9909 17.3961 11.3112 17.8466 10.4467 18.1591Z"
		fill="currentColor"
	/>
</svg>
