<svg
	color="rgb(var(--foreground, 0, 0, 0))"
	viewBox="0 0 18 24"
	fill="none"
	xmlns="http://www.w3.org/2000/svg"
>
	<path
		d="M17.6746 12.9023C17.6746 12.0326 17.5131 11.2174 17.1902 10.457C16.8725 9.69141 16.3673 9.01172 15.6746 8.41797C14.9819 7.81901 14.0808 7.32943 12.9714 6.94922L9.00269 5.62891C8.93498 5.60286 8.86206 5.58203 8.78394 5.56641C8.71102 5.54557 8.62769 5.53516 8.53394 5.53516C8.29956 5.53516 8.09904 5.62109 7.93237 5.79297C7.76571 5.95964 7.68237 6.18359 7.68237 6.46484C7.68237 6.64714 7.72925 6.80859 7.823 6.94922C7.92196 7.08464 8.0756 7.19661 8.28394 7.28516L11.1277 8.49609C11.336 8.57943 11.4402 8.69401 11.4402 8.83984C11.4402 8.91276 11.4089 8.98047 11.3464 9.04297C11.2891 9.10026 11.2058 9.12891 11.0964 9.12891H1.97925C1.67716 9.12891 1.43237 9.21484 1.24487 9.38672C1.06258 9.55859 0.971436 9.78255 0.971436 10.0586C0.971436 10.3138 1.06258 10.5299 1.24487 10.707C1.43237 10.8841 1.67716 10.9727 1.97925 10.9727H8.20581C8.37248 10.9727 8.49487 11.0091 8.573 11.082C8.65633 11.1549 8.698 11.2461 8.698 11.3555C8.698 11.4544 8.65633 11.5404 8.573 11.6133C8.49487 11.6862 8.37248 11.7227 8.20581 11.7227H6.34644C6.06519 11.7227 5.92456 11.8815 5.92456 12.1992C5.92456 12.5534 6.03914 12.8529 6.26831 13.0977C6.49748 13.3424 6.84904 13.4648 7.323 13.4648H8.20581C8.37248 13.4648 8.49487 13.5013 8.573 13.5742C8.65633 13.6471 8.698 13.7383 8.698 13.8477C8.698 13.9466 8.65633 14.0326 8.573 14.1055C8.49487 14.1784 8.37248 14.2148 8.20581 14.2148H7.25269C6.97664 14.2148 6.83862 14.3737 6.83862 14.6914C6.83862 15.0612 6.96623 15.3659 7.22144 15.6055C7.47664 15.8451 7.81779 15.9648 8.24487 15.9648H8.698C8.86466 15.9648 8.98706 16.0039 9.06519 16.082C9.14852 16.1549 9.19019 16.2435 9.19019 16.3477C9.19019 16.4466 9.14852 16.5326 9.06519 16.6055C8.98706 16.6784 8.86466 16.7148 8.698 16.7148H8.00269C7.8256 16.7148 7.73706 16.806 7.73706 16.9883C7.73706 17.2487 7.83081 17.4909 8.01831 17.7148C8.20581 17.9388 8.47404 18.1185 8.823 18.2539C9.17196 18.3945 9.58602 18.4648 10.0652 18.4648H11.6277C12.9037 18.4648 13.9923 18.2487 14.8933 17.8164C15.7944 17.3841 16.4819 16.7539 16.9558 15.9258C17.435 15.0977 17.6746 14.0898 17.6746 12.9023Z"
		fill="currentColor"
	/>
</svg>
