<svg
	color="rgb(var(--foreground, 0, 0, 0))"
	viewBox="0 0 18 24"
	fill="none"
	xmlns="http://www.w3.org/2000/svg"
>
	<path
		d="M17.9714 12.9023C17.9714 11.4544 17.5834 10.2279 16.8074 9.22266C16.0365 8.21745 14.8803 7.44141 13.3386 6.89453L9.27612 5.44922C9.1355 5.39714 8.98706 5.36068 8.83081 5.33984C8.67977 5.3138 8.54435 5.30078 8.42456 5.30078C7.97144 5.30078 7.62248 5.45182 7.37769 5.75391C7.13289 6.05599 7.0105 6.40495 7.0105 6.80078C7.0105 7.09245 7.09383 7.35547 7.2605 7.58984C7.42716 7.81901 7.66935 8.0013 7.98706 8.13672L9.30737 8.68359C9.33862 8.69401 9.35425 8.71745 9.35425 8.75391C9.35425 8.79557 9.33342 8.81641 9.29175 8.81641H2.448C1.92716 8.81641 1.50789 8.97266 1.19019 9.28516C0.877686 9.59766 0.721436 9.99609 0.721436 10.4805C0.721436 10.9701 0.877686 11.3711 1.19019 11.6836C1.50789 11.9909 1.92716 12.1445 2.448 12.1445H5.17456C5.11727 12.3372 5.08862 12.5299 5.08862 12.7227C5.08862 13.082 5.18237 13.3919 5.36987 13.6523C5.56258 13.9076 5.823 14.0872 6.15112 14.1914C6.11466 14.306 6.08602 14.4232 6.06519 14.543C6.04435 14.6628 6.03394 14.7852 6.03394 14.9102C6.03394 15.2487 6.11987 15.5378 6.29175 15.7773C6.46362 16.0169 6.7006 16.1836 7.00269 16.2773C7.00789 17.0378 7.27612 17.6315 7.80737 18.0586C8.33862 18.4857 9.0756 18.6992 10.0183 18.6992H11.8074C13.0886 18.6992 14.1876 18.457 15.1042 17.9727C16.0261 17.4883 16.7345 16.8112 17.2292 15.9414C17.724 15.0716 17.9714 14.0586 17.9714 12.9023ZM16.8464 12.9492C16.8464 13.9128 16.6433 14.7435 16.2371 15.4414C15.836 16.1393 15.2501 16.6758 14.4792 17.0508C13.7136 17.4258 12.7787 17.6133 11.6746 17.6133H10.1824C9.53133 17.6133 9.02612 17.5143 8.66675 17.3164C8.30737 17.1133 8.12769 16.8294 8.12769 16.4648H9.06519C9.21623 16.4648 9.33862 16.4154 9.43237 16.3164C9.52612 16.2122 9.573 16.0924 9.573 15.957C9.573 15.8164 9.52612 15.694 9.43237 15.5898C9.33862 15.4805 9.21623 15.4258 9.06519 15.4258H7.78394C7.5756 15.4258 7.40894 15.3685 7.28394 15.2539C7.15894 15.1341 7.09644 14.9727 7.09644 14.7695C7.09644 14.5977 7.13289 14.4336 7.20581 14.2773H8.75269C8.90373 14.2773 9.02612 14.2279 9.11987 14.1289C9.21362 14.0247 9.2605 13.9023 9.2605 13.7617C9.2605 13.6263 9.21362 13.5065 9.11987 13.4023C9.02612 13.2982 8.90373 13.2461 8.75269 13.2461H6.84644C6.63289 13.2461 6.46102 13.1862 6.33081 13.0664C6.20581 12.9466 6.14331 12.7852 6.14331 12.582C6.14331 12.5039 6.15373 12.4206 6.17456 12.332C6.19539 12.2435 6.22144 12.1654 6.25269 12.0977H8.44019C8.58081 12.0977 8.7006 12.0482 8.79956 11.9492C8.89852 11.8451 8.948 11.7227 8.948 11.582C8.948 11.4362 8.89852 11.3112 8.79956 11.207C8.7006 11.1029 8.58081 11.0508 8.44019 11.0508H2.36987C2.198 11.0508 2.05477 10.9987 1.94019 10.8945C1.83081 10.7904 1.77612 10.6523 1.77612 10.4805C1.77612 10.3138 1.83081 10.1784 1.94019 10.0742C2.05477 9.96484 2.198 9.91016 2.36987 9.91016H10.8777C11.06 9.91016 11.211 9.85547 11.3308 9.74609C11.4558 9.63672 11.5183 9.49609 11.5183 9.32422C11.5183 9.17839 11.4792 9.04297 11.4011 8.91797C11.323 8.79297 11.1824 8.68359 10.9792 8.58984L8.47925 7.48047C8.34383 7.41797 8.23446 7.34505 8.15112 7.26172C8.073 7.17318 8.03394 7.05859 8.03394 6.91797C8.03394 6.7513 8.08602 6.62109 8.19019 6.52734C8.29956 6.42839 8.42456 6.37891 8.56519 6.37891C8.69019 6.37891 8.81258 6.39974 8.93237 6.44141L12.9871 7.89453C14.3881 8.39453 15.3803 9.07682 15.9636 9.94141C16.5522 10.8008 16.8464 11.8034 16.8464 12.9492Z"
		fill="currentColor"
	/>
</svg>
