<svg
	color="rgb(var(--foreground, 0, 0, 0))"
	viewBox="0 0 14 24"
	fill="none"
	xmlns="http://www.w3.org/2000/svg"
>
	<path
		d="M7.86902 20.2188C8.97319 20.2188 9.93933 19.9818 10.7675 19.5078C11.5956 19.0391 12.2388 18.3672 12.6971 17.4922C13.1607 16.612 13.3925 15.5625 13.3925 14.3438V12.6328C13.3925 11.737 13.1893 11.0365 12.7831 10.5312C12.382 10.026 11.8169 9.77083 11.0878 9.76562C10.9992 9.47917 10.8404 9.25521 10.6112 9.09375C10.3872 8.92708 10.1112 8.84375 9.78308 8.84375C9.55912 8.84375 9.32996 8.88281 9.09558 8.96094C8.99662 8.64323 8.82475 8.39583 8.57996 8.21875C8.33516 8.03646 8.0435 7.94531 7.70496 7.94531C7.51746 7.94531 7.33256 7.97135 7.15027 8.02344V5.42188C7.15027 4.92708 7.00183 4.53125 6.70496 4.23438C6.41329 3.93229 6.03569 3.78125 5.57214 3.78125C5.1086 3.78125 4.72579 3.93229 4.42371 4.23438C4.12683 4.53125 3.97839 4.92708 3.97839 5.42188V11.9375C3.97839 11.9844 3.96016 12.0078 3.92371 12.0078C3.89246 12.0078 3.86902 11.9896 3.85339 11.9531L3.33777 10.7109C3.20756 10.4036 3.03048 10.1719 2.80652 10.0156C2.58777 9.85417 2.34037 9.77344 2.06433 9.77344C1.68412 9.77344 1.35079 9.89062 1.06433 10.125C0.777873 10.3542 0.634644 10.6823 0.634644 11.1094C0.634644 11.2292 0.64506 11.362 0.665894 11.5078C0.691935 11.6536 0.728394 11.7943 0.775269 11.9297L2.15027 15.7969C2.6711 17.2656 3.41069 18.3698 4.36902 19.1094C5.32735 19.849 6.49402 20.2188 7.86902 20.2188ZM7.90808 19.1406C6.81954 19.1406 5.86641 18.8594 5.04871 18.2969C4.231 17.7396 3.58256 16.7943 3.10339 15.4609L1.72058 11.6094C1.67891 11.4896 1.65808 11.3698 1.65808 11.25C1.65808 11.1146 1.70496 10.9974 1.79871 10.8984C1.89246 10.7995 2.01746 10.75 2.17371 10.75C2.41329 10.75 2.59037 10.8906 2.70496 11.1719L3.77527 13.5469C3.8586 13.7448 3.95756 13.8828 4.07214 13.9609C4.19194 14.0339 4.32214 14.0703 4.46277 14.0703C4.62423 14.0703 4.75704 14.013 4.86121 13.8984C4.96537 13.7786 5.01746 13.6302 5.01746 13.4531V5.35156C5.01746 5.1849 5.06954 5.04948 5.17371 4.94531C5.27787 4.84115 5.41069 4.78906 5.57214 4.78906C5.7336 4.78906 5.86381 4.84115 5.96277 4.94531C6.06173 5.04948 6.11121 5.1849 6.11121 5.35156V11.1328C6.11121 11.2682 6.16069 11.3828 6.25964 11.4766C6.3586 11.5703 6.47579 11.6172 6.61121 11.6172C6.74662 11.6172 6.86121 11.5703 6.95496 11.4766C7.05391 11.3828 7.10339 11.2682 7.10339 11.1328V9.05469C7.24923 8.98177 7.40548 8.94531 7.57214 8.94531C7.76485 8.94531 7.91589 9.00521 8.02527 9.125C8.13985 9.24479 8.19714 9.40885 8.19714 9.61719V11.4297C8.19714 11.5755 8.24662 11.6927 8.34558 11.7812C8.44975 11.8698 8.56694 11.9141 8.69714 11.9141C8.82735 11.9141 8.94194 11.8698 9.04089 11.7812C9.13985 11.6927 9.18933 11.5755 9.18933 11.4297V9.95312C9.33516 9.88542 9.48881 9.85156 9.65027 9.85156C9.84819 9.85156 10.0018 9.91146 10.1112 10.0312C10.2206 10.1458 10.2753 10.3073 10.2753 10.5156V11.7344C10.2753 11.875 10.3247 11.9896 10.4237 12.0781C10.5279 12.1667 10.6477 12.2109 10.7831 12.2109C10.9081 12.2109 11.0201 12.1667 11.119 12.0781C11.218 11.9896 11.2675 11.875 11.2675 11.7344V10.8359C11.6164 10.8359 11.8846 11.0078 12.0721 11.3516C12.2649 11.6901 12.3612 12.1693 12.3612 12.7891V14.2188C12.3612 15.2656 12.1815 16.1562 11.8221 16.8906C11.468 17.6198 10.9576 18.1771 10.2909 18.5625C9.62423 18.9479 8.82996 19.1406 7.90808 19.1406Z"
		fill="currentColor"
	/>
</svg>
