<svg
	color="rgb(var(--foreground, 0, 0, 0))"
	viewBox="0 0 16 24"
	fill="none"
	xmlns="http://www.w3.org/2000/svg"
>
	<path
		d="M8.53125 20.3594C9.83333 20.3594 10.9427 20.026 11.8594 19.3594L11.0859 18.5938C10.7109 18.8229 10.3047 18.9922 9.86719 19.1016C9.4349 19.2161 8.97656 19.2734 8.49219 19.2734C7.57031 19.2734 6.77604 19.0807 6.10938 18.6953C5.44792 18.3151 4.9375 17.7604 4.57812 17.0312C4.21875 16.2969 4.03906 15.4062 4.03906 14.3594V11.5625L3.00781 10.5312V14.4844C3.00781 15.7031 3.23698 16.7526 3.69531 17.6328C4.15885 18.5078 4.80469 19.1797 5.63281 19.6484C6.46094 20.1224 7.42708 20.3594 8.53125 20.3594ZM13.0234 16.2578L13.7891 17.0234C13.8724 16.8568 13.9531 16.6823 14.0312 16.5C14.1094 16.3177 14.1823 16.1302 14.25 15.9375L15.625 12.0703C15.7188 11.8099 15.7656 11.5599 15.7656 11.3203C15.7604 10.9349 15.6276 10.6042 15.3672 10.3281C15.112 10.0521 14.7578 9.91406 14.3047 9.91406C14.0495 9.91406 13.8099 9.99219 13.5859 10.1484C13.362 10.3047 13.1849 10.5391 13.0547 10.8516L12.5469 12.0938C12.5312 12.1302 12.5078 12.1484 12.4766 12.1484C12.4401 12.1484 12.4219 12.125 12.4219 12.0781V5.8125C12.4219 5.35938 12.2891 5 12.0234 4.73438C11.763 4.46354 11.4141 4.32812 10.9766 4.32812C10.8151 4.32812 10.6641 4.35677 10.5234 4.41406C10.3828 4.46615 10.2578 4.54427 10.1484 4.64844C10.0964 4.2474 9.94792 3.93229 9.70312 3.70312C9.45833 3.46875 9.14323 3.35156 8.75781 3.35156C8.3776 3.35156 8.0625 3.46875 7.8125 3.70312C7.5625 3.9375 7.40885 4.2474 7.35156 4.63281C7.14844 4.42969 6.89583 4.32812 6.59375 4.32812C6.1875 4.32812 5.85938 4.45833 5.60938 4.71875C5.36458 4.97917 5.24219 5.32552 5.24219 5.75781V6.63281C5.13802 6.51823 5.01042 6.43229 4.85938 6.375C4.70833 6.31771 4.54948 6.28906 4.38281 6.28906C4.1901 6.28906 4.01562 6.32812 3.85938 6.40625C3.70833 6.48438 3.58594 6.59115 3.49219 6.72656L4.33594 7.57031V7.51562C4.34635 7.45312 4.3724 7.40365 4.41406 7.36719C4.45573 7.33073 4.51042 7.3125 4.57812 7.3125C4.73958 7.3125 4.8724 7.36719 4.97656 7.47656C5.08073 7.58073 5.13281 7.71615 5.13281 7.88281V8.36719L6.125 9.36719V5.89844C6.125 5.73177 6.17188 5.59635 6.26562 5.49219C6.36458 5.38802 6.49479 5.33594 6.65625 5.33594C6.81771 5.33594 6.95052 5.38802 7.05469 5.49219C7.15885 5.59635 7.21094 5.73177 7.21094 5.89844V10.4453L8.20312 11.4375V4.9375C8.20312 4.77083 8.25521 4.63281 8.35938 4.52344C8.46354 4.41406 8.59635 4.35938 8.75781 4.35938C8.91406 4.35938 9.04167 4.41406 9.14062 4.52344C9.24479 4.63281 9.29688 4.77083 9.29688 4.9375V11.4766C9.29688 11.612 9.34375 11.7266 9.4375 11.8203C9.53646 11.9089 9.65365 11.9531 9.78906 11.9531C9.92448 11.9531 10.0417 11.9089 10.1406 11.8203C10.2396 11.7266 10.2891 11.612 10.2891 11.4766V5.89844C10.2891 5.73177 10.3385 5.59635 10.4375 5.49219C10.5417 5.38802 10.6745 5.33594 10.8359 5.33594C10.9974 5.33594 11.1276 5.38802 11.2266 5.49219C11.3307 5.59635 11.3828 5.73177 11.3828 5.89844V13.5938C11.3828 13.7708 11.4349 13.9193 11.5391 14.0391C11.6432 14.1536 11.776 14.2109 11.9375 14.2109C12.0781 14.2109 12.2057 14.1745 12.3203 14.1016C12.4401 14.0234 12.5443 13.888 12.6328 13.6953L13.7344 11.2422C13.8125 11.0599 13.9141 10.9323 14.0391 10.8594C14.1693 10.7865 14.3073 10.776 14.4531 10.8281C14.6042 10.875 14.7031 10.9714 14.75 11.1172C14.7969 11.2578 14.7865 11.4297 14.7188 11.6328L13.2969 15.6094C13.2552 15.724 13.2109 15.8359 13.1641 15.9453C13.1224 16.0547 13.0755 16.1589 13.0234 16.2578ZM14.2656 20.4766C14.3802 20.5911 14.5208 20.6484 14.6875 20.6484C14.8594 20.6484 15.0026 20.5911 15.1172 20.4766C15.2318 20.3568 15.2891 20.2135 15.2891 20.0469C15.2891 19.8802 15.2318 19.7396 15.1172 19.625L1.23438 5.75C1.11979 5.63542 0.976562 5.57812 0.804688 5.57812C0.638021 5.57812 0.494792 5.63542 0.375 5.75C0.265625 5.86458 0.210938 6.00781 0.210938 6.17969C0.210938 6.34635 0.265625 6.48698 0.375 6.60156L14.2656 20.4766Z"
		fill="currentColor"
	/>
</svg>
