<svg
	color="rgb(var(--foreground, 0, 0, 0))"
	viewBox="0 0 13 24"
	fill="none"
	xmlns="http://www.w3.org/2000/svg"
>
	<path
		d="M5.52344 20.5039C6.89844 20.5039 8.0651 20.1341 9.02344 19.3945C9.98177 18.6549 10.7214 17.5534 11.2422 16.0898L12.6172 12.2227C12.7109 11.957 12.7578 11.7044 12.7578 11.4648C12.7578 11.0534 12.6198 10.7174 12.3438 10.457C12.0677 10.1914 11.7318 10.0586 11.3359 10.0586C11.0651 10.0586 10.8151 10.1393 10.5859 10.3008C10.3568 10.457 10.1771 10.6888 10.0469 10.9961L9.53906 12.2461C9.52344 12.2826 9.5 12.3008 9.46875 12.3008C9.43229 12.3008 9.41406 12.2773 9.41406 12.2305V5.96484C9.41406 5.50651 9.28125 5.14453 9.01562 4.87891C8.75521 4.60807 8.40625 4.47266 7.96875 4.47266C7.80729 4.47266 7.65625 4.5013 7.51562 4.55859C7.375 4.61068 7.25 4.6888 7.14062 4.79297C7.08854 4.39193 6.9401 4.07682 6.69531 3.84766C6.45052 3.61328 6.13542 3.49609 5.75 3.49609C5.36979 3.49609 5.05469 3.61328 4.80469 3.84766C4.55469 4.08203 4.40104 4.39193 4.34375 4.77734C4.14062 4.57422 3.88802 4.47266 3.58594 4.47266C3.17969 4.47266 2.85156 4.60547 2.60156 4.87109C2.35677 5.13151 2.23438 5.47786 2.23438 5.91016V6.77734C2.13021 6.66797 2.0026 6.58464 1.85156 6.52734C1.70052 6.47005 1.54167 6.44141 1.375 6.44141C0.96875 6.44141 0.638021 6.57682 0.382812 6.84766C0.127604 7.11849 0 7.47526 0 7.91797V14.6289C0 15.8477 0.229167 16.8971 0.6875 17.7773C1.15104 18.6523 1.79688 19.3242 2.625 19.793C3.45312 20.2669 4.41927 20.5039 5.52344 20.5039ZM5.48438 19.4258C4.5625 19.4258 3.76823 19.2331 3.10156 18.8477C2.4401 18.4674 1.92969 17.9102 1.57031 17.1758C1.21094 16.4414 1.03125 15.5508 1.03125 14.5039V8.02734C1.03125 7.86068 1.08073 7.72526 1.17969 7.62109C1.27865 7.51693 1.40885 7.46484 1.57031 7.46484C1.73177 7.46484 1.86458 7.51693 1.96875 7.62109C2.07292 7.72526 2.125 7.86068 2.125 8.02734V12.0195C2.125 12.1602 2.17448 12.2773 2.27344 12.3711C2.3724 12.4596 2.48438 12.5039 2.60938 12.5039C2.74479 12.5039 2.86198 12.4596 2.96094 12.3711C3.0651 12.2773 3.11719 12.1602 3.11719 12.0195V6.05078C3.11719 5.88411 3.16406 5.7487 3.25781 5.64453C3.35677 5.53516 3.48698 5.48047 3.64844 5.48047C3.8099 5.48047 3.94271 5.53516 4.04688 5.64453C4.15104 5.7487 4.20312 5.88411 4.20312 6.05078V11.6211C4.20312 11.7617 4.2526 11.8789 4.35156 11.9727C4.45052 12.0612 4.5651 12.1055 4.69531 12.1055C4.82552 12.1055 4.9401 12.0612 5.03906 11.9727C5.14323 11.8789 5.19531 11.7617 5.19531 11.6211V5.08203C5.19531 4.91536 5.2474 4.77734 5.35156 4.66797C5.45573 4.55859 5.58854 4.50391 5.75 4.50391C5.90625 4.50391 6.03385 4.55859 6.13281 4.66797C6.23698 4.77734 6.28906 4.91536 6.28906 5.08203V11.6211C6.28906 11.7565 6.33594 11.8711 6.42969 11.9648C6.52865 12.0586 6.64583 12.1055 6.78125 12.1055C6.91667 12.1055 7.03385 12.0586 7.13281 11.9648C7.23177 11.8711 7.28125 11.7565 7.28125 11.6211V6.05078C7.28125 5.88411 7.33073 5.7487 7.42969 5.64453C7.53385 5.53516 7.66667 5.48047 7.82812 5.48047C7.98958 5.48047 8.11979 5.53516 8.21875 5.64453C8.32292 5.7487 8.375 5.88411 8.375 6.05078V13.7383C8.375 13.931 8.42708 14.082 8.53125 14.1914C8.63542 14.3008 8.76823 14.3555 8.92969 14.3555C9.07031 14.3555 9.19792 14.319 9.3125 14.2461C9.43229 14.1732 9.53646 14.0378 9.625 13.8398L10.75 11.332C10.8229 11.1602 10.9245 11.0456 11.0547 10.9883C11.1901 10.931 11.3255 10.9284 11.4609 10.9805C11.612 11.0378 11.7083 11.1341 11.75 11.2695C11.7969 11.4049 11.7865 11.569 11.7188 11.7617L10.2891 15.7539C9.8099 17.0872 9.16146 18.0326 8.34375 18.5898C7.52604 19.1471 6.57292 19.4258 5.48438 19.4258Z"
		fill="currentColor"
	/>
</svg>
