<svg
	color="rgb(var(--foreground, 0, 0, 0))"
	viewBox="0 0 15 24"
	fill="none"
	xmlns="http://www.w3.org/2000/svg"
>
	<path
		d="M6.73148 20.5039C8.10648 20.5039 9.24971 20.1237 10.1612 19.3633C11.0726 18.6029 11.8356 17.5117 12.4502 16.0898L14.083 12.2383C14.208 11.9466 14.2549 11.6732 14.2237 11.418C14.1924 11.1628 14.1065 10.9388 13.9659 10.7461C13.8252 10.5482 13.6508 10.3945 13.4424 10.2852C13.1351 10.1289 12.7966 10.0898 12.4268 10.168C12.0622 10.2461 11.7497 10.4961 11.4893 10.918L10.7471 12.2461C10.7263 12.2826 10.7028 12.3008 10.6768 12.3008C10.6299 12.3008 10.6117 12.2747 10.6221 12.2227L11.6377 6.32422C11.7263 5.83984 11.6586 5.4388 11.4346 5.12109C11.2159 4.79818 10.8929 4.59766 10.4659 4.51953C10.0023 4.44141 9.60388 4.50911 9.27054 4.72266C8.94242 4.9362 8.72888 5.29818 8.62992 5.80859L8.39554 7.17578H8.48929V5.07422C8.48929 4.61068 8.34606 4.23307 8.05961 3.94141C7.77315 3.64453 7.40596 3.49609 6.95804 3.49609C6.48929 3.49609 6.11429 3.64974 5.83304 3.95703C5.55179 4.25911 5.41117 4.64974 5.41117 5.12891V6.12891L5.60648 6.08984L5.51273 5.46484C5.39815 5.03776 5.1794 4.73307 4.85648 4.55078C4.53877 4.36849 4.19242 4.30859 3.81742 4.37109C3.36429 4.44922 3.02575 4.66016 2.80179 5.00391C2.58304 5.34245 2.50231 5.73568 2.55961 6.18359L2.70804 7.46484L2.99711 7.40234C2.8669 6.97526 2.64815 6.6862 2.34086 6.53516C2.03356 6.38411 1.70023 6.34245 1.34086 6.41016C0.872106 6.49349 0.530961 6.69401 0.317419 7.01172C0.109086 7.32943 0.0413773 7.72786 0.114294 8.20703L1.15336 15.1758C1.31481 16.2799 1.62471 17.2305 2.08304 18.0273C2.54138 18.8242 3.15336 19.4362 3.91898 19.8633C4.68982 20.2904 5.62732 20.5039 6.73148 20.5039ZM6.69242 19.4258C5.307 19.4258 4.26534 19.0456 3.56742 18.2852C2.8695 17.5299 2.41117 16.4518 2.19242 15.0508L1.06742 8.03516C1.04138 7.8737 1.06742 7.73568 1.14554 7.62109C1.22888 7.50651 1.34867 7.43359 1.50492 7.40234C1.64554 7.3763 1.77315 7.40495 1.88773 7.48828C2.00231 7.57161 2.07784 7.6862 2.11429 7.83203L3.24711 12.0742C3.28356 12.2253 3.35388 12.332 3.45804 12.3945C3.56221 12.4518 3.67679 12.4674 3.80179 12.4414C3.932 12.4206 4.03617 12.3581 4.11429 12.2539C4.19763 12.1497 4.23148 12.0326 4.21586 11.9023L3.54398 6.01953C3.52315 5.84766 3.54919 5.70443 3.62211 5.58984C3.70023 5.47005 3.82002 5.39714 3.98148 5.37109C4.14294 5.34505 4.28096 5.3763 4.39554 5.46484C4.51013 5.55339 4.58044 5.67578 4.60648 5.83203L5.41898 11.7305C5.43461 11.8555 5.4919 11.9544 5.59086 12.0273C5.69502 12.1003 5.81482 12.1263 5.95023 12.1055C6.1169 12.0794 6.23409 12.0195 6.30179 11.9258C6.3695 11.8268 6.40336 11.707 6.40336 11.5664V5.07422C6.40336 4.91276 6.45544 4.77995 6.55961 4.67578C6.66377 4.56641 6.79659 4.51172 6.95804 4.51172C7.11429 4.51172 7.2419 4.56641 7.34086 4.67578C7.44502 4.77995 7.49711 4.91276 7.49711 5.07422V11.6367C7.49711 11.7669 7.54398 11.8789 7.63773 11.9727C7.73669 12.0612 7.85127 12.1055 7.98148 12.1055C8.1169 12.1055 8.22627 12.0664 8.30961 11.9883C8.39815 11.9049 8.45544 11.7982 8.48148 11.668L9.59086 5.98047C9.62731 5.79297 9.70284 5.66016 9.81742 5.58203C9.93721 5.50391 10.0726 5.47786 10.2237 5.50391C10.3747 5.52995 10.4893 5.60286 10.5674 5.72266C10.6508 5.83724 10.6794 5.98047 10.6534 6.15234L9.54398 13.4648C9.4919 13.7982 9.53617 14.0299 9.67679 14.1602C9.82263 14.2904 9.97627 14.3555 10.1377 14.3555C10.2784 14.3555 10.4008 14.3164 10.5049 14.2383C10.6143 14.1602 10.7237 14.0273 10.833 13.8398L12.2237 11.3711C12.307 11.2148 12.4138 11.1133 12.544 11.0664C12.6794 11.0195 12.807 11.0221 12.9268 11.0742C13.0622 11.1211 13.156 11.2096 13.208 11.3398C13.2653 11.4701 13.2575 11.6237 13.1846 11.8008L11.4971 15.7539C10.9398 17.0456 10.2705 17.9805 9.48929 18.5586C8.71325 19.1367 7.78096 19.4258 6.69242 19.4258Z"
		fill="currentColor"
	/>
</svg>
