<svg
	color="rgb(var(--foreground, 0, 0, 0))"
	viewBox="0 0 13 24"
	fill="none"
	xmlns="http://www.w3.org/2000/svg"
>
	<path
		d="M5.72925 4.04688C4.59904 4.04688 3.6381 4.27604 2.84644 4.73438C2.05998 5.1875 1.46102 5.84375 1.04956 6.70312C0.638102 7.55729 0.432373 8.58854 0.432373 9.79688V11.2969C0.432373 11.7552 0.497477 12.151 0.627686 12.4844C0.757894 12.8125 0.929769 13.0651 1.14331 13.2422C1.35685 13.4193 1.58862 13.5078 1.83862 13.5078C2.0105 13.5078 2.09644 13.4245 2.09644 13.2578V12.5938C2.09644 12.4375 2.13029 12.3203 2.198 12.2422C2.27091 12.1641 2.35425 12.125 2.448 12.125C2.54696 12.125 2.63029 12.1641 2.698 12.2422C2.77091 12.3203 2.80737 12.4375 2.80737 12.5938V13.0312C2.80737 13.4375 2.92196 13.763 3.15112 14.0078C3.3855 14.2474 3.67716 14.3672 4.02612 14.3672C4.33341 14.3672 4.48706 14.2344 4.48706 13.9688V13.0625C4.48706 12.9062 4.52091 12.7891 4.58862 12.7109C4.65633 12.6328 4.73706 12.5938 4.83081 12.5938C4.93498 12.5938 5.02091 12.6328 5.08862 12.7109C5.16154 12.7891 5.198 12.9062 5.198 13.0625V13.8984C5.198 14.3516 5.31258 14.6875 5.54175 14.9062C5.77612 15.125 6.06258 15.2344 6.40112 15.2344C6.70841 15.2344 6.86206 15.1016 6.86206 14.8359V13.0625C6.86206 12.9062 6.89591 12.7891 6.96362 12.7109C7.03133 12.6328 7.11206 12.5938 7.20581 12.5938C7.30998 12.5938 7.39591 12.6328 7.46362 12.7109C7.53654 12.7891 7.573 12.9062 7.573 13.0625V18.9922C7.573 19.2839 7.65633 19.5156 7.823 19.6875C7.98966 19.8646 8.19539 19.9531 8.44019 19.9531C8.7006 19.9531 8.91154 19.8646 9.073 19.6875C9.23967 19.5156 9.323 19.2839 9.323 18.9922V10.3125C9.323 10.2031 9.35164 10.1224 9.40894 10.0703C9.46623 10.013 9.52873 9.98438 9.59644 9.98438C9.73185 9.98438 9.84383 10.0833 9.93237 10.2812L11.0808 12.9922C11.1641 13.1953 11.2709 13.3438 11.4011 13.4375C11.5365 13.526 11.6902 13.5703 11.8621 13.5703C12.1277 13.5703 12.3412 13.4896 12.5027 13.3281C12.6641 13.1667 12.7449 12.9766 12.7449 12.7578C12.7449 12.6693 12.7371 12.5885 12.7214 12.5156C12.7058 12.4375 12.685 12.3672 12.6589 12.3047L11.4011 8.53125C10.8647 6.94271 10.0964 5.79948 9.09644 5.10156C8.09644 4.39844 6.97404 4.04688 5.72925 4.04688Z"
		fill="currentColor"
	/>
</svg>
