<svg
	color="rgb(var(--foreground, 0, 0, 0))"
	viewBox="0 0 14 24"
	fill="none"
	xmlns="http://www.w3.org/2000/svg"
>
	<path
		d="M6.53303 20.3516C7.77262 20.3516 8.79605 20.0911 9.60334 19.5703C10.4106 19.0495 11.0721 18.2682 11.5877 17.2266C11.7336 16.9349 11.8742 16.6302 12.0096 16.3125C12.145 15.9948 12.2752 15.6641 12.4002 15.3203C12.5252 14.9714 12.6476 14.6094 12.7674 14.2344C12.8924 13.8594 13.0148 13.4714 13.1346 13.0703C13.2023 12.8516 13.2752 12.6224 13.3533 12.3828C13.4315 12.138 13.4966 11.9115 13.5487 11.7031C13.6059 11.4948 13.6346 11.3281 13.6346 11.2031C13.6346 10.9948 13.5643 10.8255 13.4237 10.6953C13.283 10.5651 13.1033 10.5 12.8846 10.5C12.6346 10.5 12.4237 10.5833 12.2518 10.75C12.0851 10.9167 11.9106 11.1849 11.7283 11.5547L10.6502 13.8359C10.5929 13.9609 10.533 14.0495 10.4705 14.1016C10.408 14.1536 10.3455 14.1797 10.283 14.1797C10.2049 14.1797 10.1346 14.1536 10.0721 14.1016C10.0148 14.0443 9.99657 13.9479 10.0174 13.8125L10.9627 5.66406C10.9888 5.40885 10.9315 5.20573 10.7908 5.05469C10.6554 4.90365 10.4914 4.8099 10.2987 4.77344C10.0955 4.73698 9.89241 4.77083 9.68928 4.875C9.49137 4.97396 9.37157 5.15104 9.32991 5.40625L8.33772 11.4766C8.23355 11.4349 8.12157 11.3984 8.00178 11.3672C7.8872 11.3359 7.76741 11.3099 7.64241 11.2891V4.46094C7.64241 4.23698 7.55907 4.04688 7.39241 3.89062C7.23095 3.72917 7.03564 3.64844 6.80647 3.64844C6.5773 3.64844 6.37939 3.72917 6.21272 3.89062C6.05126 4.04688 5.97053 4.23698 5.97053 4.46094V11.2031C5.84553 11.2135 5.72053 11.2266 5.59553 11.2422C5.47574 11.2578 5.35334 11.276 5.22834 11.2969L4.42366 5.29688C4.3872 5.02083 4.27262 4.83073 4.07991 4.72656C3.89241 4.61719 3.69449 4.58073 3.48616 4.61719C3.28824 4.64844 3.11116 4.74479 2.95491 4.90625C2.80387 5.0625 2.74397 5.27083 2.77522 5.53125L3.55647 11.8281C3.43147 11.8906 3.30907 11.9557 3.18928 12.0234C3.0747 12.0911 2.96272 12.1589 2.85334 12.2266L1.86116 7.39062C1.80387 7.125 1.68147 6.9401 1.49397 6.83594C1.30647 6.73177 1.11376 6.69531 0.915845 6.72656C0.723136 6.76302 0.553866 6.86198 0.408032 7.02344C0.262199 7.1849 0.207511 7.40104 0.24397 7.67188L1.18147 14.8672C1.33251 16.0078 1.63199 16.9896 2.07991 17.8125C2.52782 18.6302 3.12157 19.2578 3.86116 19.6953C4.60595 20.1328 5.49657 20.3516 6.53303 20.3516Z"
		fill="currentColor"
	/>
</svg>
