<svg
	color="rgb(var(--foreground, 0, 0, 0))"
	viewBox="0 0 14 24"
	fill="none"
	xmlns="http://www.w3.org/2000/svg"
>
	<path
		d="M10.0443 18.8512C11.1068 18.4657 11.9297 17.9241 12.5131 17.2262C13.1016 16.5282 13.4427 15.7079 13.5365 14.7652C13.6302 13.8173 13.4688 12.773 13.0521 11.6324L12.5443 10.2262C12.3881 9.79387 12.1901 9.44491 11.9506 9.17928C11.7162 8.91366 11.4688 8.73397 11.2084 8.64022C10.948 8.54647 10.7006 8.54126 10.4662 8.6246C10.3047 8.6871 10.2526 8.79647 10.3099 8.95272L10.5365 9.57772C10.5886 9.72355 10.5938 9.84595 10.5521 9.94491C10.5157 10.0387 10.4532 10.1038 10.3646 10.1402C10.2709 10.1715 10.1771 10.1637 10.0834 10.1168C9.99483 10.0647 9.92192 9.96574 9.86462 9.81991L9.71619 9.41366C9.58077 9.03345 9.36202 8.76782 9.05994 8.61678C8.75785 8.46574 8.44275 8.45012 8.11462 8.56991C7.82817 8.67407 7.73181 8.85116 7.82556 9.10116L8.13025 9.95272C8.18754 10.0986 8.19535 10.2209 8.15369 10.3199C8.11723 10.4137 8.05473 10.4788 7.96619 10.5152C7.87244 10.5465 7.77869 10.5387 7.68494 10.4918C7.59119 10.4449 7.51827 10.3459 7.46619 10.1949L7.17712 9.41366C7.02087 8.98657 6.79692 8.71053 6.50525 8.58553C6.21358 8.45532 5.90629 8.45012 5.58337 8.56991C5.29692 8.67407 5.20056 8.85116 5.29431 9.10116L5.89587 10.7652C5.95317 10.9111 5.96098 11.0334 5.91931 11.1324C5.88285 11.2314 5.82035 11.2965 5.73181 11.3277C5.63806 11.359 5.54431 11.3512 5.45056 11.3043C5.35681 11.2574 5.2839 11.1584 5.23181 11.0074L3.20056 5.4371C3.1016 5.16626 2.94275 4.97876 2.724 4.8746C2.51046 4.76522 2.2891 4.7522 2.05994 4.83553C1.81514 4.92407 1.64327 5.08032 1.54431 5.30428C1.45056 5.52303 1.45317 5.76782 1.55212 6.03866L4.52087 14.1949C4.55733 14.2939 4.55733 14.3798 4.52087 14.4527C4.48962 14.5256 4.44275 14.5725 4.38025 14.5933C4.25525 14.6402 4.11723 14.5855 3.96619 14.4293L1.95837 12.273C1.80733 12.1168 1.65369 12.0178 1.49744 11.9762C1.34639 11.9345 1.19014 11.9449 1.02869 12.0074C0.773478 12.0959 0.598999 12.2444 0.505249 12.4527C0.411499 12.6558 0.401082 12.8616 0.473999 13.0699C0.505249 13.1532 0.541707 13.2262 0.583374 13.2887C0.625041 13.3512 0.666707 13.4085 0.708374 13.4605L3.18494 16.5777C4.23181 17.8902 5.34379 18.7027 6.52087 19.0152C7.69796 19.3329 8.87244 19.2782 10.0443 18.8512Z"
		fill="currentColor"
	/>
</svg>
