<svg
	color="rgb(var(--foreground, 0, 0, 0))"
	viewBox="0 0 16 24"
	fill="none"
	xmlns="http://www.w3.org/2000/svg"
>
	<path
		d="M6.2019 17.6328C6.81128 18.2369 7.4493 18.6848 8.11597 18.9765C8.78263 19.2682 9.4519 19.4114 10.1238 19.4062C10.8009 19.401 11.4571 19.2551 12.0925 18.9687C12.7279 18.6874 13.3191 18.2734 13.866 17.7265C14.7462 16.8463 15.2852 15.9374 15.4832 14.9999C15.6863 14.0572 15.6029 13.0338 15.2332 11.9296C15.1342 11.6223 15.0196 11.3098 14.8894 10.9921C14.7592 10.6744 14.616 10.3489 14.4597 10.0156C14.3035 9.68223 14.1342 9.34108 13.9519 8.99213C13.7748 8.63796 13.5847 8.27338 13.3816 7.89838C13.2774 7.69525 13.1654 7.48171 13.0457 7.25775C12.9311 7.03379 12.8191 6.83067 12.7097 6.64838C12.6003 6.46088 12.5014 6.32286 12.4128 6.23431C12.267 6.08327 12.0977 6.01296 11.905 6.02338C11.7175 6.02858 11.5457 6.10931 11.3894 6.26556C11.2123 6.43744 11.1212 6.64317 11.116 6.88275C11.116 7.11713 11.1837 7.43223 11.3191 7.82806L12.1628 10.2031C12.2149 10.3281 12.2384 10.4322 12.2332 10.5156C12.2279 10.5937 12.2019 10.6562 12.155 10.7031C12.0977 10.7604 12.0326 10.789 11.9597 10.789C11.8868 10.7838 11.7983 10.7317 11.6941 10.6328L5.91284 4.83588C5.74618 4.67442 5.54565 4.59369 5.31128 4.59369C5.08211 4.59369 4.8868 4.67442 4.72534 4.83588C4.56388 5.00254 4.48315 5.20306 4.48315 5.43744C4.48315 5.66661 4.56388 5.86192 4.72534 6.02338L8.86597 10.164C8.76701 10.2109 8.66284 10.2656 8.55347 10.3281C8.4493 10.3906 8.34513 10.4557 8.24097 10.5234L3.43628 5.71869C3.27482 5.55202 3.0769 5.46869 2.84253 5.46869C2.60815 5.46869 2.41024 5.55202 2.24878 5.71869C2.08732 5.88015 2.00659 6.07806 2.00659 6.31244C2.00659 6.54161 2.08732 6.73952 2.24878 6.90619L6.99097 11.6484C6.91284 11.7421 6.83472 11.8385 6.75659 11.9374C6.68368 12.0364 6.61336 12.138 6.54565 12.2421L2.2019 7.89056C2.03524 7.72911 1.83472 7.64838 1.60034 7.64838C1.37118 7.64838 1.17586 7.72911 1.0144 7.89056C0.852946 8.05723 0.772217 8.25775 0.772217 8.49213C0.772217 8.72129 0.852946 8.91661 1.0144 9.07806L5.74097 13.7968C5.68888 13.927 5.64461 14.0598 5.60815 14.1953C5.5769 14.3255 5.54826 14.4531 5.52222 14.5781L2.24097 11.2968C2.07951 11.1301 1.88159 11.0468 1.64722 11.0468C1.41805 11.0468 1.22013 11.1301 1.05347 11.2968C0.892008 11.4583 0.811279 11.6562 0.811279 11.8906C0.811279 12.1197 0.892008 12.3176 1.05347 12.4843L6.2019 17.6328Z"
		fill="currentColor"
	/>
</svg>
