<svg
	color="rgb(var(--foreground, 0, 0, 0))"
	viewBox="0 0 16 24"
	fill="none"
	xmlns="http://www.w3.org/2000/svg"
>
	<path
		d="M4.79419 3.21829C4.25773 3.21829 3.75252 3.31985 3.27856 3.52298C2.80461 3.7261 2.38794 4.00735 2.02856 4.36673C1.6744 4.7209 1.39575 5.13496 1.19263 5.60892C0.989502 6.07767 0.887939 6.58288 0.887939 7.12454C0.887939 7.58808 0.96346 8.03079 1.1145 8.45267C1.27075 8.86933 1.48429 9.24694 1.75513 9.58548C1.82284 9.6636 1.89315 9.7209 1.96606 9.75735C2.04419 9.79381 2.11971 9.81204 2.19263 9.81204C2.32284 9.81204 2.43742 9.77038 2.53638 9.68704C2.63534 9.5985 2.69263 9.48913 2.70825 9.35892C2.72909 9.22871 2.68481 9.0985 2.57544 8.96829C2.36711 8.71829 2.20304 8.43704 2.08325 8.12454C1.96867 7.80683 1.91138 7.4735 1.91138 7.12454C1.91138 6.59329 2.03898 6.11152 2.29419 5.67923C2.55461 5.24173 2.90356 4.89277 3.34106 4.63235C3.77856 4.37194 4.26294 4.24173 4.79419 4.24173C5.32544 4.24173 5.80721 4.37194 6.2395 4.63235C6.677 4.89277 7.02336 5.24173 7.27856 5.67923C7.53898 6.11152 7.66919 6.59329 7.66919 7.12454C7.66919 7.14538 7.66919 7.16881 7.66919 7.19485C7.66919 7.2209 7.66919 7.25215 7.66919 7.2886C7.6744 7.46569 7.72648 7.5959 7.82544 7.67923C7.92961 7.75735 8.04419 7.79642 8.16919 7.79642C8.28898 7.79642 8.40096 7.75735 8.50513 7.67923C8.6145 7.5959 8.6744 7.48652 8.68481 7.3511C8.69002 7.31985 8.69263 7.286 8.69263 7.24954C8.69263 7.21308 8.69263 7.17142 8.69263 7.12454C8.69263 6.40579 8.51815 5.75215 8.16919 5.1636C7.82023 4.56985 7.34888 4.0985 6.75513 3.74954C6.16659 3.39538 5.51294 3.21829 4.79419 3.21829ZM12.1067 20.3824C13.1431 20.0074 13.9687 19.4579 14.5833 18.7339C15.1978 18.0048 15.5702 17.1506 15.7004 16.1714C15.8359 15.187 15.6952 14.1219 15.2786 12.9761L14.7004 11.3745C14.3931 10.5308 13.9635 9.94225 13.4114 9.60892C12.8593 9.27038 12.2395 9.2209 11.552 9.46048C11.3697 9.2209 11.1431 9.06465 10.8723 8.99173C10.6015 8.9136 10.315 8.92923 10.0129 9.0386C9.7994 9.11673 9.59627 9.23131 9.40356 9.38235C9.20565 9.12194 8.95825 8.95006 8.66138 8.86673C8.36971 8.77819 8.06502 8.79121 7.74731 8.90579C7.57023 8.9735 7.40617 9.06204 7.25513 9.17142L6.3645 6.73392C6.19784 6.26517 5.9244 5.94225 5.54419 5.76517C5.16398 5.58288 4.75773 5.56985 4.32544 5.7261C3.88273 5.88756 3.57284 6.161 3.39575 6.54642C3.22388 6.92663 3.22127 7.3485 3.38794 7.81204L5.6145 13.937C5.63013 13.9839 5.61971 14.0126 5.58325 14.023C5.55721 14.0334 5.53117 14.0256 5.50513 13.9995L4.59106 12.9995C4.3619 12.76 4.11711 12.6037 3.85669 12.5308C3.59627 12.4527 3.33325 12.4605 3.06763 12.5542C2.71346 12.6844 2.44002 12.9084 2.24731 13.2261C2.05981 13.5438 2.04159 13.9032 2.19263 14.3042C2.22909 14.4188 2.28377 14.5412 2.35669 14.6714C2.42961 14.7964 2.51034 14.9162 2.59888 15.0308L5.21606 18.1949C6.20565 19.3928 7.27596 20.174 8.427 20.5386C9.58325 20.9084 10.8098 20.8563 12.1067 20.3824ZM11.7708 19.3589C10.7447 19.7339 9.75252 19.799 8.79419 19.5542C7.83585 19.3094 6.90356 18.6402 5.99731 17.5464L3.38013 14.398C3.302 14.299 3.24211 14.1949 3.20044 14.0855C3.15356 13.9605 3.15617 13.8355 3.20825 13.7105C3.26554 13.5855 3.36711 13.4943 3.51294 13.437C3.7369 13.3589 3.95304 13.4318 4.16138 13.6558L5.97388 15.523C6.11971 15.6792 6.26034 15.773 6.39575 15.8042C6.53117 15.8303 6.66659 15.8199 6.802 15.773C6.95304 15.7157 7.05721 15.6167 7.1145 15.4761C7.17179 15.3303 7.17179 15.1714 7.1145 14.9995L4.34106 7.39017C4.28377 7.23392 4.28638 7.09069 4.34888 6.96048C4.41138 6.82506 4.51815 6.72871 4.66919 6.67142C4.82023 6.61933 4.95825 6.62715 5.08325 6.69485C5.21346 6.75735 5.30721 6.86673 5.3645 7.02298L7.34106 12.4527C7.38794 12.5829 7.47388 12.674 7.59888 12.7261C7.72388 12.7782 7.85148 12.7808 7.98169 12.7339C8.10669 12.687 8.19784 12.6037 8.25513 12.4839C8.31763 12.3641 8.32544 12.2417 8.27856 12.1167L7.56763 10.1558C7.68221 10.0412 7.81502 9.95527 7.96606 9.89798C8.14836 9.83027 8.31242 9.83548 8.45825 9.9136C8.60408 9.98652 8.71085 10.1193 8.77856 10.312L9.40356 12.023C9.45044 12.1532 9.53638 12.2443 9.66138 12.2964C9.79158 12.3433 9.91919 12.3433 10.0442 12.2964C10.164 12.2548 10.2551 12.1766 10.3176 12.062C10.3801 11.9423 10.3853 11.8146 10.3333 11.6792L9.83325 10.2886C9.94263 10.174 10.0754 10.0881 10.2317 10.0308C10.414 9.96308 10.578 9.96829 10.7239 10.0464C10.8697 10.1193 10.9765 10.2521 11.0442 10.4449L11.4583 11.5855C11.5103 11.7209 11.5989 11.8146 11.7239 11.8667C11.8489 11.9136 11.9739 11.9136 12.0989 11.8667C12.2187 11.8251 12.3098 11.7469 12.3723 11.6324C12.4348 11.5126 12.4426 11.385 12.3958 11.2495L12.0911 10.4058C12.414 10.286 12.7239 10.3563 13.0208 10.6167C13.3176 10.8719 13.5702 11.2912 13.7786 11.8745L14.2708 13.2105C14.6301 14.1949 14.7655 15.0933 14.677 15.9058C14.5937 16.7183 14.3046 17.4188 13.8098 18.0074C13.3202 18.5959 12.6405 19.0464 11.7708 19.3589Z"
		fill="currentColor"
	/>
</svg>
