<svg
	color="rgb(var(--foreground, 0, 0, 0))"
	viewBox="0 0 14 24"
	fill="none"
	xmlns="http://www.w3.org/2000/svg"
>
	<path
		d="M0.757812 14.8672C0.757812 15.7318 0.890625 16.5026 1.15625 17.1797C1.42188 17.8568 1.79427 18.4297 2.27344 18.8984C2.7526 19.3724 3.31771 19.7318 3.96875 19.9766C4.625 20.2266 5.34115 20.3516 6.11719 20.3516C7.35677 20.3516 8.38021 20.0911 9.1875 19.5703C9.99479 19.0495 10.6536 18.2682 11.1641 17.2266C11.3151 16.9349 11.4583 16.6302 11.5938 16.3125C11.7292 15.9948 11.8594 15.6641 11.9844 15.3203C12.1094 14.9714 12.2318 14.6094 12.3516 14.2344C12.4714 13.8594 12.5938 13.4714 12.7188 13.0703C12.7865 12.8516 12.8568 12.6224 12.9297 12.3828C13.0078 12.138 13.0729 11.9115 13.125 11.7031C13.1823 11.4948 13.2109 11.3281 13.2109 11.2031C13.2109 10.9948 13.1406 10.8255 13 10.6953C12.8646 10.5651 12.6849 10.5 12.4609 10.5C12.2161 10.5 12.0078 10.5833 11.8359 10.75C11.6693 10.9167 11.4948 11.1849 11.3125 11.5547L10.2266 13.8359C10.1745 13.9609 10.1172 14.0495 10.0547 14.1016C9.99219 14.1536 9.92969 14.1797 9.86719 14.1797C9.78385 14.1797 9.71615 14.1536 9.66406 14.1016C9.61719 14.0443 9.59375 13.9479 9.59375 13.8125V5.61719C9.59375 5.38802 9.51042 5.19271 9.34375 5.03125C9.18229 4.86458 8.98698 4.78125 8.75781 4.78125C8.52865 4.78125 8.33073 4.86458 8.16406 5.03125C8.0026 5.19271 7.92188 5.38802 7.92188 5.61719V11.4766C7.8125 11.4349 7.70052 11.3984 7.58594 11.3672C7.47135 11.3359 7.35156 11.3099 7.22656 11.2891V4.49219C7.22656 4.25781 7.14323 4.0599 6.97656 3.89844C6.8151 3.73177 6.61979 3.64844 6.39062 3.64844C6.15625 3.64844 5.95573 3.73177 5.78906 3.89844C5.6276 4.0599 5.54688 4.25781 5.54688 4.49219V11.2031C5.42708 11.2135 5.30469 11.2266 5.17969 11.2422C5.05469 11.2578 4.93229 11.276 4.8125 11.2969V5.15625C4.8125 4.92708 4.72917 4.73177 4.5625 4.57031C4.40104 4.40365 4.20573 4.32031 3.97656 4.32031C3.7474 4.32031 3.54948 4.40365 3.38281 4.57031C3.22135 4.73177 3.14062 4.92708 3.14062 5.15625V11.8281C3.01042 11.8906 2.88542 11.9557 2.76562 12.0234C2.65104 12.0911 2.54167 12.1589 2.4375 12.2266V7.58594C2.4375 7.35677 2.35417 7.16146 2.1875 7C2.02604 6.83333 1.83073 6.75 1.60156 6.75C1.36719 6.75 1.16667 6.83333 1 7C0.838542 7.16146 0.757812 7.35677 0.757812 7.58594V14.8672Z"
		fill="currentColor"
	/>
</svg>
