<svg
	color="rgb(var(--foreground, 0, 0, 0))"
	viewBox="0 0 19 24"
	fill="none"
	xmlns="http://www.w3.org/2000/svg"
>
	<path
		d="M4.38257 6.28409C3.61694 6.74763 2.94767 7.33878 2.37476 8.05753C1.80184 8.77107 1.35653 9.58617 1.03882 10.5028C0.72111 11.4195 0.562256 12.4117 0.562256 13.4794C0.562256 13.62 0.611735 13.7424 0.710693 13.8466C0.81486 13.9508 0.934652 14.0002 1.07007 13.995C1.20549 13.9898 1.31746 13.9403 1.40601 13.8466C1.49455 13.7528 1.54142 13.6357 1.54663 13.495C1.57788 12.094 1.87736 10.857 2.44507 9.78409C3.01278 8.71117 3.7758 7.86482 4.73413 7.24503L4.38257 6.28409ZM14.3591 19.1825C15.3904 18.8075 16.2133 18.258 16.8279 17.5341C17.4477 16.8049 17.8227 15.9508 17.9529 14.9716C18.0883 13.9872 17.9477 12.9221 17.531 11.7763L16.9529 10.1747C16.6456 9.33097 16.2159 8.74242 15.6638 8.40909C15.1117 8.07055 14.4919 8.02107 13.8044 8.26065C13.6222 8.02107 13.3956 7.86482 13.1248 7.7919C12.8539 7.71378 12.5675 7.7294 12.2654 7.83878C12.0518 7.9169 11.8487 8.03149 11.656 8.18253C11.4581 7.92211 11.2107 7.75024 10.9138 7.6669C10.6222 7.57836 10.3175 7.59138 9.99976 7.70597C9.82267 7.77367 9.65861 7.86222 9.50757 7.97159L8.61694 5.53409C8.45028 5.06534 8.17684 4.74242 7.79663 4.56534C7.41642 4.38305 7.00757 4.37003 6.57007 4.52628C6.13257 4.68774 5.82528 4.96117 5.64819 5.34659C5.47632 5.7268 5.47371 6.14868 5.64038 6.61222L7.86694 12.7372C7.88257 12.7841 7.87215 12.8127 7.83569 12.8232C7.80965 12.8336 7.78361 12.8258 7.75757 12.7997L6.84351 11.7997C6.61434 11.5601 6.36955 11.4039 6.10913 11.331C5.84871 11.2528 5.58569 11.2607 5.32007 11.3544C4.9659 11.4846 4.69246 11.7086 4.49976 12.0263C4.31226 12.344 4.29403 12.7034 4.44507 13.1044C4.48153 13.219 4.53621 13.3414 4.60913 13.4716C4.68205 13.5966 4.76278 13.7164 4.85132 13.831L7.46851 16.995C8.45809 18.1929 9.5284 18.9742 10.6794 19.3388C11.8357 19.7086 13.0623 19.6565 14.3591 19.1825ZM14.0232 18.1591C12.9972 18.5341 12.005 18.5992 11.0466 18.3544C10.0883 18.1096 9.15601 17.4403 8.24976 16.3466L5.63257 13.1982C5.55444 13.0992 5.49455 12.995 5.45288 12.8857C5.40601 12.7607 5.40861 12.6357 5.46069 12.5107C5.51798 12.3857 5.61955 12.2945 5.76538 12.2372C5.98934 12.1591 6.20548 12.232 6.41382 12.456L8.22632 14.3232C8.37215 14.4794 8.51278 14.5732 8.64819 14.6044C8.78361 14.6304 8.91903 14.62 9.05444 14.5732C9.20549 14.5159 9.30965 14.4169 9.36694 14.2763C9.42424 14.1304 9.42163 13.9716 9.35913 13.7997L6.59351 6.19034C6.53621 6.03409 6.53621 5.89086 6.59351 5.76065C6.65601 5.62524 6.76538 5.52888 6.92163 5.47159C7.07267 5.41951 7.21069 5.42732 7.33569 5.49503C7.4659 5.55753 7.55965 5.6669 7.61694 5.82315L9.59351 11.2528C9.64038 11.383 9.72632 11.4742 9.85132 11.5263C9.97632 11.5784 10.1039 11.581 10.2341 11.5341C10.3591 11.4872 10.4503 11.4039 10.5076 11.2841C10.5701 11.1643 10.5779 11.0419 10.531 10.9169L9.82007 8.95597C9.93465 8.84138 10.0675 8.75545 10.2185 8.69815C10.4008 8.63045 10.5649 8.63565 10.7107 8.71378C10.8565 8.7867 10.9633 8.91951 11.031 9.11222L11.656 10.8232C11.7029 10.9534 11.7888 11.0445 11.9138 11.0966C12.044 11.1435 12.1716 11.1435 12.2966 11.0966C12.4164 11.0549 12.5076 10.9768 12.5701 10.8622C12.6326 10.7424 12.6378 10.6148 12.5857 10.4794L12.0779 9.08878C12.1925 8.9742 12.3279 8.88826 12.4841 8.83097C12.6664 8.76326 12.8305 8.76847 12.9763 8.84659C13.1222 8.91951 13.2289 9.05232 13.2966 9.24503L13.7107 10.3857C13.7628 10.5211 13.8513 10.6148 13.9763 10.6669C14.1013 10.7138 14.2263 10.7138 14.3513 10.6669C14.4711 10.6252 14.5623 10.5471 14.6248 10.4325C14.6873 10.3127 14.6951 10.1851 14.6482 10.0497L14.3435 9.20597C14.6664 9.08617 14.9763 9.15649 15.2732 9.4169C15.5701 9.67211 15.8227 10.0914 16.031 10.6747L16.5232 12.0107C16.8826 12.995 17.018 13.8935 16.9294 14.706C16.8461 15.5185 16.557 16.219 16.0623 16.8075C15.5675 17.3961 14.8878 17.8466 14.0232 18.1591Z"
		fill="currentColor"
	/>
</svg>
