<svg
	color="rgb(var(--foreground, 0, 0, 0))"
	viewBox="0 0 16 24"
	fill="none"
	xmlns="http://www.w3.org/2000/svg"
>
	<path
		d="M4.65649 3.39836C4.12004 3.39836 3.61483 3.49992 3.14087 3.70305C2.66691 3.90617 2.25024 4.18742 1.89087 4.5468C1.5367 4.90097 1.25806 5.31503 1.05493 5.78899C0.851807 6.25774 0.750244 6.76294 0.750244 7.30461C0.750244 7.76815 0.825765 8.21086 0.976807 8.63274C1.13306 9.0494 1.3466 9.42701 1.61743 9.76555C1.68514 9.84367 1.75545 9.90097 1.82837 9.93742C1.90649 9.97388 1.98202 9.99211 2.05493 9.99211C2.18514 9.99211 2.29972 9.95044 2.39868 9.86711C2.49764 9.77857 2.55493 9.66919 2.57056 9.53899C2.59139 9.40878 2.54712 9.27857 2.43774 9.14836C2.22941 8.89836 2.06535 8.61711 1.94556 8.30461C1.83097 7.9869 1.77368 7.65357 1.77368 7.30461C1.77368 6.77336 1.90129 6.29159 2.15649 5.8593C2.41691 5.4218 2.76587 5.07284 3.20337 4.81242C3.64087 4.55201 4.12524 4.4218 4.65649 4.4218C5.18774 4.4218 5.66952 4.55201 6.10181 4.81242C6.53931 5.07284 6.88566 5.4218 7.14087 5.8593C7.40129 6.29159 7.53149 6.77336 7.53149 7.30461C7.53149 7.32544 7.53149 7.34888 7.53149 7.37492C7.53149 7.40097 7.53149 7.43222 7.53149 7.46867C7.5367 7.64576 7.58879 7.77597 7.68774 7.8593C7.79191 7.93742 7.90649 7.97649 8.03149 7.97649C8.15129 7.97649 8.26327 7.93742 8.36743 7.8593C8.47681 7.77597 8.5367 7.66659 8.54712 7.53117C8.55233 7.49992 8.55493 7.46607 8.55493 7.42961C8.55493 7.39315 8.55493 7.35149 8.55493 7.30461C8.55493 6.58586 8.38045 5.93222 8.03149 5.34367C7.68254 4.74992 7.21118 4.27857 6.61743 3.92961C6.02889 3.57544 5.37524 3.39836 4.65649 3.39836ZM12.2502 20.2343C13.3127 19.8489 14.1357 19.3072 14.719 18.6093C15.3075 17.9114 15.6487 17.0911 15.7424 16.1484C15.8362 15.2004 15.6747 14.1562 15.2581 13.0155L14.7502 11.6093C14.594 11.177 14.3961 10.828 14.1565 10.5624C13.9221 10.2968 13.6747 10.1171 13.4143 10.0234C13.1539 9.92961 12.9065 9.9244 12.6721 10.0077C12.5055 10.0702 12.4508 10.1796 12.5081 10.3359L12.7424 10.9609C12.7945 11.1067 12.7997 11.2291 12.7581 11.328C12.7216 11.4218 12.6591 11.4869 12.5706 11.5234C12.4768 11.5546 12.3831 11.5468 12.2893 11.4999C12.1956 11.4478 12.1226 11.3489 12.0706 11.203L11.9221 10.7968C11.7815 10.4166 11.5601 10.151 11.2581 9.99992C10.9612 9.84888 10.6487 9.83326 10.3206 9.95305C10.0341 10.0572 9.93514 10.2343 10.0237 10.4843L10.3362 11.3359C10.3883 11.4817 10.3961 11.6041 10.3596 11.703C10.3232 11.7968 10.2607 11.8619 10.1721 11.8984C10.0732 11.9296 9.97681 11.9218 9.88306 11.8749C9.79451 11.828 9.7216 11.7291 9.66431 11.578L9.38306 10.7968C9.22681 10.3697 9.00024 10.0937 8.70337 9.96867C8.4117 9.83847 8.10702 9.83326 7.78931 9.95305C7.50285 10.0572 7.40649 10.2343 7.50024 10.4843L8.10181 12.1484C8.15389 12.2942 8.1617 12.4166 8.12524 12.5155C8.08879 12.6145 8.02629 12.6796 7.93774 12.7109C7.83879 12.7421 7.74243 12.7343 7.64868 12.6874C7.56014 12.6405 7.48983 12.5416 7.43774 12.3905L5.40649 6.82024C5.30754 6.5494 5.14868 6.3619 4.92993 6.25774C4.71639 6.14836 4.49504 6.13534 4.26587 6.21867C4.01587 6.30722 3.84399 6.46347 3.75024 6.68742C3.65649 6.90617 3.6591 7.15097 3.75806 7.4218L6.72681 15.578C6.76327 15.677 6.76327 15.7629 6.72681 15.8359C6.69556 15.9088 6.64868 15.9557 6.58618 15.9765C6.45597 16.0234 6.31795 15.9687 6.17212 15.8124L4.16431 13.6562C4.01326 13.4999 3.85962 13.401 3.70337 13.3593C3.55233 13.3176 3.39347 13.328 3.22681 13.3905C2.97681 13.4791 2.80493 13.6275 2.71118 13.8359C2.61743 14.039 2.60702 14.2447 2.67993 14.453C2.71118 14.5364 2.74764 14.6093 2.78931 14.6718C2.83097 14.7343 2.87264 14.7916 2.91431 14.8437L5.39087 17.9609C6.43774 19.2734 7.54972 20.0859 8.72681 20.3984C9.90389 20.7161 11.0784 20.6614 12.2502 20.2343Z"
		fill="currentColor"
	/>
</svg>
