<svg
	color="rgb(var(--foreground, 0, 0, 0))"
	viewBox="0 0 17 24"
	fill="none"
	xmlns="http://www.w3.org/2000/svg"
>
	<path
		d="M0.644531 15.0156C0.644531 15.6458 0.738281 16.2422 0.925781 16.8047C1.11849 17.362 1.38151 17.8542 1.71484 18.2812C2.05339 18.7135 2.44141 19.0521 2.87891 19.2969C3.31641 19.5417 3.78516 19.6641 4.28516 19.6641H6.77734C7.27214 19.9245 7.81641 20.1276 8.41016 20.2734C9.00911 20.4193 9.64453 20.4922 10.3164 20.4922H11.3633C11.832 20.4922 12.2617 20.4766 12.6523 20.4453C13.0482 20.4193 13.3815 20.3724 13.6523 20.3047C14.1784 20.1797 14.5924 19.9453 14.8945 19.6016C15.2018 19.2578 15.3555 18.8568 15.3555 18.3984C15.3555 18.3047 15.3477 18.2135 15.332 18.125C15.3216 18.0365 15.3034 17.9479 15.2773 17.8594C15.8138 17.4531 16.082 16.9245 16.082 16.2734C16.082 15.9557 16.0247 15.6719 15.9102 15.4219C16.0872 15.2396 16.2227 15.026 16.3164 14.7812C16.4102 14.5312 16.457 14.2682 16.457 13.9922C16.457 13.8151 16.4362 13.638 16.3945 13.4609C16.3529 13.2839 16.2956 13.1276 16.2227 12.9922C16.4466 12.6641 16.5586 12.2682 16.5586 11.8047C16.5586 11.4297 16.4674 11.0911 16.2852 10.7891C16.1081 10.4818 15.8685 10.2396 15.5664 10.0625C15.2643 9.88021 14.9258 9.78906 14.5508 9.78906H11.6992C11.6159 9.78906 11.5482 9.77083 11.4961 9.73438C11.444 9.69271 11.418 9.63542 11.418 9.5625C11.418 9.35938 11.4805 9.09635 11.6055 8.77344C11.7357 8.45052 11.8841 8.09375 12.0508 7.70312C12.2227 7.3125 12.3737 6.91146 12.5039 6.5C12.6341 6.08854 12.6992 5.69271 12.6992 5.3125C12.6992 4.95833 12.6237 4.64583 12.4727 4.375C12.3216 4.10417 12.1159 3.89323 11.8555 3.74219C11.5951 3.58594 11.2956 3.50781 10.957 3.50781C10.5872 3.50781 10.2669 3.61198 9.99609 3.82031C9.72526 4.02344 9.46745 4.35938 9.22266 4.82812C8.99349 5.26562 8.7513 5.69792 8.49609 6.125C8.24089 6.55208 7.95964 6.98698 7.65234 7.42969C7.35026 7.86719 7.01693 8.32552 6.65234 8.80469C6.28776 9.27865 5.88151 9.78906 5.43359 10.3359H4.00391C3.38411 10.3359 2.81901 10.5469 2.30859 10.9688C1.80339 11.3906 1.39974 11.9557 1.09766 12.6641C0.795573 13.3724 0.644531 14.1562 0.644531 15.0156ZM5.04297 14.9766C5.04297 14.4297 5.08724 13.9375 5.17578 13.5C5.26432 13.0625 5.41016 12.6406 5.61328 12.2344C5.81641 11.8281 6.08724 11.3958 6.42578 10.9375C6.80599 10.4323 7.22005 9.89323 7.66797 9.32031C8.12109 8.74219 8.57161 8.125 9.01953 7.46875C9.47266 6.8125 9.88672 6.10938 10.2617 5.35938C10.4023 5.07292 10.5247 4.88542 10.6289 4.79688C10.7383 4.70833 10.8633 4.66406 11.0039 4.66406C11.1602 4.66406 11.2878 4.72135 11.3867 4.83594C11.4909 4.94531 11.543 5.10417 11.543 5.3125C11.543 5.61458 11.4779 5.95052 11.3477 6.32031C11.2174 6.6901 11.0664 7.06771 10.8945 7.45312C10.7279 7.83854 10.5794 8.21354 10.4492 8.57812C10.3242 8.9375 10.2617 9.26562 10.2617 9.5625C10.2617 9.98958 10.4154 10.3281 10.7227 10.5781C11.0352 10.8229 11.4154 10.9453 11.8633 10.9453H14.5508C14.7904 10.9453 14.9909 11.0286 15.1523 11.1953C15.319 11.3568 15.4023 11.5599 15.4023 11.8047C15.4023 11.987 15.3711 12.1432 15.3086 12.2734C15.2461 12.4036 15.1419 12.5417 14.9961 12.6875C14.9232 12.75 14.8841 12.8203 14.8789 12.8984C14.8737 12.9714 14.8997 13.0443 14.957 13.1172C15.0768 13.2943 15.1628 13.4479 15.2148 13.5781C15.2721 13.7031 15.3008 13.8411 15.3008 13.9922C15.3008 14.1693 15.2591 14.3333 15.1758 14.4844C15.0924 14.6354 14.9648 14.776 14.793 14.9062C14.6992 14.9792 14.6367 15.0651 14.6055 15.1641C14.5742 15.2578 14.5846 15.3646 14.6367 15.4844C14.7357 15.6615 14.8086 15.8047 14.8555 15.9141C14.9023 16.0182 14.9258 16.138 14.9258 16.2734C14.9258 16.6536 14.6576 16.9818 14.1211 17.2578C14.0378 17.3099 13.9831 17.3698 13.957 17.4375C13.9362 17.5052 13.944 17.5807 13.9805 17.6641C14.0742 17.8984 14.1315 18.0547 14.1523 18.1328C14.1784 18.2109 14.1914 18.2995 14.1914 18.3984C14.1914 18.5807 14.1237 18.7396 13.9883 18.875C13.8581 19.0104 13.6549 19.1146 13.3789 19.1875C13.1602 19.2448 12.8763 19.2839 12.5273 19.3047C12.1836 19.3307 11.7982 19.3438 11.3711 19.3438H10.4023C9.32943 19.3438 8.38932 19.1562 7.58203 18.7812C6.77995 18.4062 6.15495 17.8906 5.70703 17.2344C5.26432 16.5729 5.04297 15.8203 5.04297 14.9766ZM1.80078 15.0156C1.80078 14.3646 1.90234 13.7734 2.10547 13.2422C2.3138 12.7109 2.58464 12.2865 2.91797 11.9688C3.25651 11.651 3.61849 11.4922 4.00391 11.4922C4.11328 11.4922 4.22526 11.4922 4.33984 11.4922C4.45443 11.4922 4.56901 11.4922 4.68359 11.4922C4.40755 12.0182 4.20443 12.5625 4.07422 13.125C3.94922 13.6823 3.88672 14.2917 3.88672 14.9531C3.88672 15.651 4.00651 16.2995 4.24609 16.8984C4.49089 17.4974 4.83724 18.0312 5.28516 18.5C5.11849 18.5 4.95182 18.5 4.78516 18.5C4.61849 18.5 4.45182 18.5 4.28516 18.5C3.84245 18.5 3.43359 18.3411 3.05859 18.0234C2.68359 17.7057 2.37891 17.2839 2.14453 16.7578C1.91536 16.2266 1.80078 15.6458 1.80078 15.0156Z"
		fill="currentColor"
	/>
</svg>
