<svg
	color="rgb(var(--foreground, 0, 0, 0))"
	viewBox="0 0 17 24"
	fill="none"
	xmlns="http://www.w3.org/2000/svg"
>
	<path
		d="M16.8711 8.98828C16.8711 8.35807 16.7747 7.76172 16.582 7.19922C16.3945 6.63672 16.1315 6.14193 15.793 5.71484C15.4596 5.28776 15.0742 4.95182 14.6367 4.70703C14.1992 4.46224 13.7305 4.33984 13.2305 4.33984H10.7383C10.2383 4.07943 9.69141 3.8763 9.09766 3.73047C8.50391 3.57943 7.87109 3.50391 7.19922 3.50391H6.15234C5.68359 3.50391 5.2513 3.51953 4.85547 3.55078C4.46484 3.58203 4.13411 3.63151 3.86328 3.69922C3.33724 3.82422 2.92057 4.05859 2.61328 4.40234C2.3112 4.74089 2.16016 5.14193 2.16016 5.60547C2.16016 5.69922 2.16536 5.79036 2.17578 5.87891C2.19141 5.96745 2.21224 6.05339 2.23828 6.13672C1.70182 6.54818 1.43359 7.07943 1.43359 7.73047C1.43359 8.04818 1.49089 8.33203 1.60547 8.58203C1.42839 8.75911 1.29036 8.97266 1.19141 9.22266C1.09766 9.47266 1.05078 9.73568 1.05078 10.0117C1.05078 10.1836 1.07161 10.3607 1.11328 10.543C1.16016 10.7201 1.22005 10.8763 1.29297 11.0117C1.06901 11.3346 0.957031 11.7279 0.957031 12.1914C0.957031 12.5716 1.04557 12.9154 1.22266 13.2227C1.39974 13.5247 1.63932 13.7669 1.94141 13.9492C2.2487 14.1263 2.58984 14.2148 2.96484 14.2148H5.81641C5.89974 14.2148 5.96745 14.2357 6.01953 14.2773C6.07161 14.3138 6.09766 14.3685 6.09766 14.4414C6.09766 14.6445 6.03255 14.9076 5.90234 15.2305C5.77734 15.5534 5.62891 15.9102 5.45703 16.3008C5.29036 16.6862 5.14193 17.0872 5.01172 17.5039C4.88151 17.9154 4.81641 18.3112 4.81641 18.6914C4.81641 19.0404 4.89193 19.3503 5.04297 19.6211C5.19401 19.8971 5.39974 20.1107 5.66016 20.2617C5.92057 20.418 6.22005 20.4961 6.55859 20.4961C6.92839 20.4961 7.24609 20.3919 7.51172 20.1836C7.78255 19.9805 8.04036 19.6445 8.28516 19.1758C8.51432 18.7331 8.75651 18.2982 9.01172 17.8711C9.27214 17.4492 9.55339 17.0195 9.85547 16.582C10.1628 16.1393 10.4987 15.6784 10.8633 15.1992C11.2279 14.7201 11.6341 14.2096 12.082 13.668H13.5117C14.1315 13.668 14.694 13.457 15.1992 13.0352C15.7096 12.6133 16.1159 12.0482 16.418 11.3398C16.7201 10.6315 16.8711 9.84766 16.8711 8.98828ZM12.4727 9.02734C12.4727 9.57422 12.4284 10.0664 12.3398 10.5039C12.2513 10.9414 12.1055 11.3633 11.9023 11.7695C11.6992 12.1758 11.4284 12.6081 11.0898 13.0664C10.7096 13.5716 10.293 14.1107 9.83984 14.6836C9.39193 15.2565 8.94141 15.8737 8.48828 16.5352C8.04036 17.1914 7.62891 17.8945 7.25391 18.6445C7.11328 18.9258 6.98828 19.1107 6.87891 19.1992C6.76953 19.293 6.64714 19.3398 6.51172 19.3398C6.35547 19.3398 6.22526 19.2826 6.12109 19.168C6.02214 19.0586 5.97266 18.8997 5.97266 18.6914C5.97266 18.3841 6.03776 18.0456 6.16797 17.6758C6.29818 17.3112 6.44661 16.9362 6.61328 16.5508C6.78516 16.1654 6.93359 15.793 7.05859 15.4336C7.1888 15.069 7.25391 14.7383 7.25391 14.4414C7.25391 14.0143 7.09766 13.6784 6.78516 13.4336C6.47786 13.1836 6.10026 13.0586 5.65234 13.0586H2.96484C2.72005 13.0586 2.51693 12.9779 2.35547 12.8164C2.19401 12.6497 2.11328 12.4414 2.11328 12.1914C2.11328 12.0143 2.14453 11.8607 2.20703 11.7305C2.26953 11.6003 2.3737 11.4622 2.51953 11.3164C2.59245 11.2539 2.63151 11.1862 2.63672 11.1133C2.64193 11.0352 2.61589 10.9596 2.55859 10.8867C2.4388 10.7044 2.35026 10.5508 2.29297 10.4258C2.23568 10.2956 2.20703 10.1576 2.20703 10.0117C2.20703 9.83464 2.2487 9.67057 2.33203 9.51953C2.42057 9.36849 2.55078 9.22526 2.72266 9.08984C2.81641 9.02214 2.87891 8.9388 2.91016 8.83984C2.94141 8.74089 2.92839 8.63411 2.87109 8.51953C2.77734 8.34245 2.70703 8.20182 2.66016 8.09766C2.61328 7.98828 2.58984 7.86589 2.58984 7.73047C2.58984 7.35026 2.85807 7.01953 3.39453 6.73828C3.47786 6.69141 3.52995 6.63411 3.55078 6.56641C3.57682 6.49349 3.56901 6.41536 3.52734 6.33203C3.4388 6.10286 3.38151 5.94922 3.35547 5.87109C3.33464 5.78776 3.32422 5.69922 3.32422 5.60547C3.32422 5.42318 3.38932 5.26432 3.51953 5.12891C3.65495 4.99349 3.85807 4.88932 4.12891 4.81641C4.35286 4.75911 4.63672 4.71745 4.98047 4.69141C5.32943 4.66536 5.71745 4.65234 6.14453 4.65234H7.11328C8.1862 4.65755 9.1237 4.84766 9.92578 5.22266C10.7331 5.59766 11.3581 6.11328 11.8008 6.76953C12.2487 7.42578 12.4727 8.17839 12.4727 9.02734ZM15.7148 8.98828C15.7148 9.63411 15.6107 10.2253 15.4023 10.7617C15.1992 11.293 14.9284 11.7174 14.5898 12.0352C14.2565 12.3529 13.8971 12.5117 13.5117 12.5117C13.3971 12.5117 13.2826 12.5117 13.168 12.5117C13.0586 12.5117 12.9466 12.5117 12.832 12.5117C13.1081 11.9857 13.3086 11.4414 13.4336 10.8789C13.5638 10.3164 13.6289 9.70703 13.6289 9.05078C13.6289 8.35286 13.5065 7.70443 13.2617 7.10547C13.0221 6.5013 12.6784 5.96745 12.2305 5.50391C12.3971 5.50391 12.5638 5.50391 12.7305 5.50391C12.8971 5.50391 13.0638 5.50391 13.2305 5.50391C13.668 5.50391 14.0742 5.66276 14.4492 5.98047C14.8294 6.29818 15.1341 6.72266 15.3633 7.25391C15.5977 7.77995 15.7148 8.35807 15.7148 8.98828Z"
		fill="currentColor"
	/>
</svg>
