<svg
	color="rgb(var(--foreground, 0, 0, 0))"
	viewBox="0 0 17 24"
	fill="none"
	xmlns="http://www.w3.org/2000/svg"
>
	<path
		d="M16.2617 9.00049C16.2617 8.22965 16.1133 7.52393 15.8164 6.8833C15.5195 6.23747 15.1159 5.72184 14.6055 5.33643C14.1003 4.9458 13.5247 4.75049 12.8789 4.75049H11.5039C12.207 5.26091 12.7201 5.89111 13.043 6.64111C13.3659 7.38591 13.5195 8.1984 13.5039 9.07861C13.4987 9.72965 13.4206 10.3208 13.2695 10.8521C13.1185 11.3781 12.9336 11.8442 12.7148 12.2505C12.4961 12.6515 12.2721 12.9927 12.043 13.2739H13.168C13.7461 13.2739 14.2695 13.0838 14.7383 12.7036C15.207 12.3234 15.5768 11.8104 15.8477 11.1646C16.1237 10.5187 16.2617 9.79736 16.2617 9.00049ZM12.457 9.05518C12.4674 8.34163 12.3372 7.68278 12.0664 7.07861C11.7956 6.46924 11.4023 5.93799 10.8867 5.48486C10.3711 5.02653 9.7487 4.66976 9.01953 4.41455C8.29036 4.15934 7.47005 4.02653 6.55859 4.01611L5.50391 4.0083C4.99349 4.00309 4.55339 4.01872 4.18359 4.05518C3.81901 4.08643 3.52995 4.1333 3.31641 4.1958C3.01432 4.26872 2.73828 4.40413 2.48828 4.60205C2.24349 4.79997 2.12109 5.08382 2.12109 5.45361C2.12109 5.60465 2.13672 5.73747 2.16797 5.85205C2.20443 5.96143 2.24609 6.05778 2.29297 6.14111C2.36068 6.24528 2.34505 6.3182 2.24609 6.35986C2.00651 6.45882 1.79818 6.61768 1.62109 6.83643C1.44922 7.05518 1.36328 7.3182 1.36328 7.62549C1.36328 7.98486 1.45703 8.27913 1.64453 8.5083C1.73307 8.6333 1.70964 8.73486 1.57422 8.81299C1.39714 8.91195 1.2513 9.06559 1.13672 9.27393C1.02734 9.47705 0.972656 9.70622 0.972656 9.96143C0.972656 10.1437 1.0013 10.3234 1.05859 10.5005C1.11589 10.6724 1.19401 10.8052 1.29297 10.8989C1.40234 10.9927 1.39453 11.0942 1.26953 11.2036C1.14974 11.3026 1.05339 11.438 0.980469 11.6099C0.907552 11.7817 0.871094 11.9797 0.871094 12.2036C0.871094 12.4536 0.93099 12.6828 1.05078 12.8911C1.17057 13.0994 1.33203 13.2661 1.53516 13.3911C1.73828 13.5109 1.97005 13.5708 2.23047 13.5708H4.98047C5.32943 13.5708 5.60807 13.6541 5.81641 13.8208C6.02995 13.9875 6.13672 14.2166 6.13672 14.5083C6.13672 14.7687 6.07161 15.076 5.94141 15.4302C5.8112 15.7791 5.66016 16.1515 5.48828 16.5474C5.31641 16.9432 5.16536 17.3364 5.03516 17.7271C4.90495 18.1229 4.83984 18.4927 4.83984 18.8364C4.83984 19.2062 4.94141 19.4901 5.14453 19.688C5.35286 19.8911 5.61068 19.9927 5.91797 19.9927C6.19401 19.9927 6.41276 19.9041 6.57422 19.7271C6.73568 19.55 6.89193 19.3156 7.04297 19.0239C7.6263 17.8937 8.27214 16.8651 8.98047 15.938C9.69401 15.0109 10.3451 14.1541 10.9336 13.3677C11.2669 12.925 11.543 12.4927 11.7617 12.0708C11.9857 11.6437 12.1549 11.188 12.2695 10.7036C12.3841 10.2192 12.4466 9.66976 12.457 9.05518Z"
		fill="currentColor"
	/>
</svg>
