<svg
	color="rgb(var(--foreground, 0, 0, 0))"
	viewBox="0 0 16 24"
	fill="none"
	xmlns="http://www.w3.org/2000/svg"
>
	<path
		d="M0.558594 15C0.558594 15.7708 0.704427 16.4792 0.996094 17.125C1.29297 17.7656 1.69661 18.2786 2.20703 18.6641C2.71745 19.0547 3.29557 19.25 3.94141 19.25H5.31641C4.61328 18.7344 4.10547 18.1042 3.79297 17.3594C3.48568 16.6146 3.33203 15.8021 3.33203 14.9219C3.33203 14.2708 3.40495 13.6823 3.55078 13.1562C3.69661 12.625 3.87891 12.1589 4.09766 11.7578C4.32161 11.3516 4.54557 11.0078 4.76953 10.7266H3.65234C3.06901 10.7266 2.54297 10.9167 2.07422 11.2969C1.61068 11.6719 1.24089 12.1823 0.964844 12.8281C0.69401 13.474 0.558594 14.1979 0.558594 15ZM4.41016 14.9375C4.41016 15.651 4.54297 16.3151 4.80859 16.9297C5.07943 17.5443 5.46745 18.0807 5.97266 18.5391C6.48307 18.9974 7.10025 19.3542 7.82421 19.6094C8.54817 19.8646 9.36328 19.9922 10.2695 19.9922H11.332C11.8372 19.9922 12.2747 19.974 12.6445 19.9375C13.0143 19.9062 13.3034 19.862 13.5117 19.8047C13.8138 19.7266 14.0872 19.5885 14.332 19.3906C14.582 19.1979 14.707 18.9167 14.707 18.5469C14.707 18.3958 14.6888 18.263 14.6523 18.1484C14.6211 18.0391 14.582 17.9427 14.5352 17.8594C14.4674 17.75 14.4831 17.6771 14.582 17.6406C14.8216 17.5417 15.0273 17.3828 15.1992 17.1641C15.3763 16.9401 15.4648 16.6745 15.4648 16.3672C15.4648 16.013 15.3737 15.7214 15.1914 15.4922C15.0977 15.3672 15.1211 15.2656 15.2617 15.1875C15.4336 15.0833 15.5742 14.9297 15.6836 14.7266C15.7982 14.5234 15.8555 14.2943 15.8555 14.0391C15.8555 13.8568 15.8268 13.6797 15.7695 13.5078C15.7122 13.3307 15.6341 13.1953 15.5352 13.1016C15.431 13.0078 15.4388 12.9062 15.5586 12.7969C15.6784 12.6927 15.7747 12.5547 15.8477 12.3828C15.9206 12.2109 15.957 12.0156 15.957 11.7969C15.957 11.5469 15.8971 11.3177 15.7773 11.1094C15.6575 10.901 15.4961 10.737 15.293 10.6172C15.0898 10.4922 14.8581 10.4297 14.5977 10.4297H11.8477C11.5039 10.4297 11.2253 10.3464 11.0117 10.1797C10.7982 10.013 10.6914 9.78385 10.6914 9.49219C10.6914 9.23177 10.7565 8.92708 10.8867 8.57812C11.0169 8.22396 11.168 7.84896 11.3398 7.45312C11.5117 7.05729 11.6628 6.66146 11.793 6.26562C11.9284 5.86979 11.9961 5.5 11.9961 5.15625C11.9961 4.79167 11.8919 4.51042 11.6836 4.3125C11.4805 4.10938 11.2253 4.00781 10.918 4.00781C10.6367 4.00781 10.4154 4.09635 10.2539 4.27344C10.0924 4.45052 9.93619 4.6849 9.78515 4.97656C9.20703 6.10156 8.56119 7.13021 7.84765 8.0625C7.13411 8.98958 6.48307 9.84375 5.89453 10.625C5.5612 11.0677 5.28255 11.5026 5.05859 11.9297C4.83984 12.3568 4.67578 12.8125 4.56641 13.2969C4.46224 13.7812 4.41016 14.3281 4.41016 14.9375Z"
		fill="currentColor"
	/>
</svg>
