<svg
	color="rgb(var(--foreground, 0, 0, 0))"
	viewBox="0 0 21 24"
	fill="none"
	xmlns="http://www.w3.org/2000/svg"
>
	<path
		d="M14.3828 14.6172C14.3828 14.0391 14.2708 13.4948 14.0469 12.9844C13.8281 12.474 13.5234 12.0234 13.1328 11.6328C12.7474 11.2422 12.2995 10.9349 11.7891 10.7109C11.2786 10.487 10.7344 10.375 10.1562 10.375C9.57292 10.375 9.02604 10.487 8.51562 10.7109C8.00521 10.9349 7.55469 11.2422 7.16406 11.6328C6.77865 12.0234 6.47396 12.474 6.25 12.9844C6.03125 13.4948 5.92188 14.0391 5.92188 14.6172C5.92188 14.9036 5.95052 15.1823 6.00781 15.4531C6.0651 15.7188 6.14844 15.974 6.25781 16.2188H14.0469C14.1562 15.974 14.2396 15.7188 14.2969 15.4531C14.3542 15.1823 14.3828 14.9036 14.3828 14.6172ZM1.83594 15.0625H3.75781C3.96094 15.0625 4.1276 15.0026 4.25781 14.8828C4.39323 14.7578 4.46094 14.6068 4.46094 14.4297C4.45573 14.2526 4.38802 14.1042 4.25781 13.9844C4.1276 13.8594 3.96094 13.7969 3.75781 13.7969H1.83594C1.63281 13.7969 1.46615 13.8594 1.33594 13.9844C1.20573 14.1042 1.14062 14.2526 1.14062 14.4297C1.14062 14.6068 1.20573 14.7578 1.33594 14.8828C1.46615 15.0026 1.63281 15.0625 1.83594 15.0625ZM5.17969 10.5547C5.32031 10.7005 5.48177 10.776 5.66406 10.7812C5.85156 10.7865 6.00521 10.7266 6.125 10.6016C6.24479 10.4766 6.30208 10.3229 6.29688 10.1406C6.29688 9.95833 6.22396 9.79688 6.07812 9.65625L4.71875 8.29688C4.57292 8.15104 4.41146 8.07812 4.23438 8.07812C4.05729 8.07812 3.90625 8.13802 3.78125 8.25781C3.65625 8.3776 3.59375 8.52865 3.59375 8.71094C3.59896 8.88802 3.67448 9.04948 3.82031 9.19531L5.17969 10.5547ZM14.1797 10.6016C14.3047 10.7214 14.4583 10.7812 14.6406 10.7812C14.8229 10.776 14.9844 10.7005 15.125 10.5547L16.4844 9.19531C16.6302 9.04948 16.7031 8.88802 16.7031 8.71094C16.7083 8.53385 16.6484 8.38281 16.5234 8.25781C16.4036 8.13281 16.2526 8.07292 16.0703 8.07812C15.8932 8.07812 15.7318 8.15104 15.5859 8.29688L14.2266 9.65625C14.0807 9.79688 14.0052 9.96094 14 10.1484C13.9948 10.3307 14.0547 10.4818 14.1797 10.6016ZM16.5469 15.0625H18.4688C18.6719 15.0625 18.8385 15.0026 18.9688 14.8828C19.099 14.7578 19.1641 14.6068 19.1641 14.4297C19.1641 14.2526 19.099 14.1042 18.9688 13.9844C18.8385 13.8594 18.6719 13.7969 18.4688 13.7969H16.5469C16.349 13.7969 16.1823 13.8594 16.0469 13.9844C15.9115 14.1042 15.8438 14.2526 15.8438 14.4297C15.849 14.6068 15.9167 14.7578 16.0469 14.8828C16.1823 15.0026 16.349 15.0625 16.5469 15.0625ZM10.1562 8.9375C10.3281 8.93229 10.4766 8.86458 10.6016 8.73438C10.7266 8.59896 10.7891 8.43229 10.7891 8.23438V6.3125C10.7891 6.10938 10.7266 5.94271 10.6016 5.8125C10.4766 5.68229 10.3281 5.61719 10.1562 5.61719C9.97917 5.61719 9.82812 5.68229 9.70312 5.8125C9.57812 5.94271 9.51562 6.10938 9.51562 6.3125V8.23438C9.51562 8.43229 9.57812 8.59896 9.70312 8.73438C9.82812 8.86979 9.97917 8.9375 10.1562 8.9375ZM0.820312 18.3828H19.4844C19.6667 18.3828 19.8255 18.3229 19.9609 18.2031C20.0964 18.0781 20.1641 17.9297 20.1641 17.7578C20.1641 17.5859 20.0964 17.4401 19.9609 17.3203C19.8255 17.1953 19.6667 17.1328 19.4844 17.1328H0.820312C0.638021 17.1328 0.479167 17.1953 0.34375 17.3203C0.208333 17.4401 0.140625 17.5859 0.140625 17.7578C0.140625 17.9297 0.208333 18.0781 0.34375 18.2031C0.479167 18.3229 0.638021 18.3828 0.820312 18.3828Z"
		fill="currentColor"
	/>
</svg>
