<svg
	color="rgb(var(--foreground, 0, 0, 0))"
	viewBox="0 0 21 24"
	fill="none"
	xmlns="http://www.w3.org/2000/svg"
>
	<path
		d="M6.875 17.3789H8.92969C8.39844 17.1549 7.96094 16.7956 7.61719 16.3008C7.27865 15.806 7.10938 15.2539 7.10938 14.6445C7.10938 14.0924 7.24479 13.5872 7.51562 13.1289C7.79167 12.6706 8.15885 12.306 8.61719 12.0352C9.07552 11.7591 9.58073 11.6211 10.1328 11.6211C10.6797 11.6211 11.1823 11.7591 11.6406 12.0352C12.099 12.306 12.4635 12.6706 12.7344 13.1289C13.0104 13.5872 13.1484 14.0924 13.1484 14.6445C13.1484 15.2539 12.9766 15.806 12.6328 16.3008C12.2943 16.7956 11.8594 17.1549 11.3281 17.3789H13.3828C13.7005 17.0091 13.9479 16.5924 14.125 16.1289C14.3073 15.6602 14.3984 15.1654 14.3984 14.6445C14.3984 14.056 14.2865 13.5039 14.0625 12.9883C13.8438 12.4727 13.5365 12.0195 13.1406 11.6289C12.7448 11.2331 12.2891 10.9232 11.7734 10.6992C11.2578 10.4753 10.7109 10.3633 10.1328 10.3633C9.54948 10.3633 9 10.4753 8.48438 10.6992C7.96875 10.9232 7.51302 11.2331 7.11719 11.6289C6.72135 12.0195 6.41146 12.4727 6.1875 12.9883C5.96875 13.5039 5.85938 14.056 5.85938 14.6445C5.85938 15.1654 5.94792 15.6602 6.125 16.1289C6.30729 16.5924 6.55729 17.0091 6.875 17.3789ZM1.8125 15.0742H3.73438C3.9375 15.0742 4.10417 15.0143 4.23438 14.8945C4.36979 14.7695 4.4375 14.6185 4.4375 14.4414C4.43229 14.2643 4.36458 14.1159 4.23438 13.9961C4.10417 13.8711 3.9375 13.8086 3.73438 13.8086H1.8125C1.60938 13.8086 1.44271 13.8711 1.3125 13.9961C1.18229 14.1159 1.11719 14.2643 1.11719 14.4414C1.11719 14.6185 1.18229 14.7695 1.3125 14.8945C1.44271 15.0143 1.60938 15.0742 1.8125 15.0742ZM6.10156 10.6133C6.22135 10.4883 6.27865 10.3346 6.27344 10.1523C6.27344 9.97005 6.20052 9.80859 6.05469 9.66797L4.69531 8.30859C4.54948 8.16276 4.38802 8.08984 4.21094 8.08984C4.03385 8.08984 3.88281 8.14974 3.75781 8.26953C3.63281 8.38932 3.57031 8.54036 3.57031 8.72266C3.57552 8.89974 3.65104 9.0612 3.79688 9.20703L5.15625 10.5664C5.29688 10.7122 5.45833 10.7878 5.64062 10.793C5.82812 10.7982 5.98177 10.7383 6.10156 10.6133ZM14.1562 10.6133C14.2812 10.7331 14.4349 10.793 14.6172 10.793C14.7995 10.7878 14.9609 10.7122 15.1016 10.5664L16.4609 9.20703C16.6068 9.0612 16.6797 8.89974 16.6797 8.72266C16.6849 8.54557 16.625 8.39453 16.5 8.26953C16.3802 8.14453 16.2292 8.08464 16.0469 8.08984C15.8698 8.08984 15.7083 8.16276 15.5625 8.30859L14.2031 9.66797C14.0573 9.80859 13.9818 9.97266 13.9766 10.1602C13.9714 10.3424 14.0312 10.4935 14.1562 10.6133ZM16.5234 15.0742H18.4453C18.6484 15.0742 18.8151 15.0143 18.9453 14.8945C19.0755 14.7695 19.1406 14.6185 19.1406 14.4414C19.1406 14.2643 19.0755 14.1159 18.9453 13.9961C18.8151 13.8711 18.6484 13.8086 18.4453 13.8086H16.5234C16.3255 13.8086 16.1589 13.8711 16.0234 13.9961C15.888 14.1159 15.8203 14.2643 15.8203 14.4414C15.8255 14.6185 15.8932 14.7695 16.0234 14.8945C16.1589 15.0143 16.3255 15.0742 16.5234 15.0742ZM10.1328 8.94922C10.3047 8.94401 10.4531 8.8763 10.5781 8.74609C10.7031 8.61068 10.7656 8.44401 10.7656 8.24609V6.32422C10.7656 6.12109 10.7031 5.95443 10.5781 5.82422C10.4531 5.69401 10.3047 5.62891 10.1328 5.62891C9.95573 5.62891 9.80469 5.69401 9.67969 5.82422C9.55469 5.95443 9.49219 6.12109 9.49219 6.32422V8.24609C9.49219 8.44401 9.55469 8.61068 9.67969 8.74609C9.80469 8.88151 9.95573 8.94922 10.1328 8.94922ZM0.796875 18.3711H19.4609C19.6432 18.3711 19.8021 18.3112 19.9375 18.1914C20.0729 18.0664 20.1406 17.918 20.1406 17.7461C20.1406 17.5742 20.0729 17.4284 19.9375 17.3086C19.8021 17.1836 19.6432 17.1211 19.4609 17.1211H0.796875C0.614583 17.1211 0.455729 17.1836 0.320312 17.3086C0.184896 17.4284 0.117188 17.5742 0.117188 17.7461C0.117188 17.918 0.184896 18.0664 0.320312 18.1914C0.455729 18.3112 0.614583 18.3711 0.796875 18.3711Z"
		fill="currentColor"
	/>
</svg>
