<svg
	color="rgb(var(--foreground, 0, 0, 0))"
	viewBox="0 0 17 24"
	fill="none"
	xmlns="http://www.w3.org/2000/svg"
>
	<path
		d="M12.8047 14.7188C11.7474 14.7188 10.7917 14.5599 9.9375 14.2422C9.08854 13.9245 8.35938 13.4661 7.75 12.8672C7.14583 12.2682 6.68229 11.5469 6.35938 10.7031C6.03646 9.85417 5.875 8.89844 5.875 7.83594C5.875 7.54427 5.89583 7.22656 5.9375 6.88281C5.98438 6.53385 6.04427 6.19792 6.11719 5.875C6.1901 5.55208 6.27344 5.28125 6.36719 5.0625C6.40365 4.97396 6.42708 4.90104 6.4375 4.84375C6.44792 4.78125 6.45312 4.73177 6.45312 4.69531C6.45312 4.59115 6.41406 4.49219 6.33594 4.39844C6.25781 4.29948 6.14323 4.25 5.99219 4.25C5.95052 4.25 5.88802 4.25781 5.80469 4.27344C5.72135 4.28385 5.63542 4.30469 5.54688 4.33594C4.58333 4.72135 3.73958 5.29948 3.01562 6.07031C2.29167 6.83594 1.72656 7.72135 1.32031 8.72656C0.919271 9.73177 0.71875 10.7812 0.71875 11.875C0.71875 13.026 0.921875 14.0807 1.32812 15.0391C1.73958 15.9974 2.3099 16.8307 3.03906 17.5391C3.77344 18.2422 4.63021 18.7865 5.60938 19.1719C6.59375 19.5573 7.65625 19.75 8.79688 19.75C9.64062 19.75 10.4453 19.6302 11.2109 19.3906C11.9766 19.1562 12.6797 18.8281 13.3203 18.4062C13.9609 17.9896 14.5156 17.5052 14.9844 16.9531C15.4531 16.3958 15.8073 15.7995 16.0469 15.1641C16.0833 15.0703 16.1068 14.9844 16.1172 14.9062C16.1276 14.8229 16.1328 14.763 16.1328 14.7266C16.1328 14.5807 16.0833 14.4635 15.9844 14.375C15.8854 14.2865 15.7812 14.2422 15.6719 14.2422C15.5833 14.2422 15.4714 14.2656 15.3359 14.3125C15.0339 14.4115 14.6562 14.5052 14.2031 14.5938C13.75 14.6771 13.2839 14.7188 12.8047 14.7188Z"
		fill="currentColor"
	/>
</svg>
