<svg
	color="rgb(var(--foreground, 0, 0, 0))"
	viewBox="0 0 16 24"
	fill="none"
	xmlns="http://www.w3.org/2000/svg"
>
	<path
		d="M6.96094 20.1133C7.91406 20.1133 8.79688 19.9596 9.60938 19.6523C10.4219 19.3451 11.1328 18.8997 11.7422 18.3164C12.3568 17.7383 12.8385 17.0404 13.1875 16.2227C13.2604 16.056 13.2891 15.9102 13.2734 15.7852C13.2578 15.6549 13.2109 15.5534 13.1328 15.4805C13.0651 15.4128 12.974 15.3737 12.8594 15.3633C12.7448 15.3477 12.6198 15.3659 12.4844 15.418C12.1875 15.5378 11.8568 15.6315 11.4922 15.6992C11.1328 15.7617 10.7292 15.793 10.2812 15.793C9.11458 15.793 8.10156 15.5638 7.24219 15.1055C6.38281 14.6419 5.71615 13.9909 5.24219 13.1523C4.77344 12.3138 4.53906 11.3242 4.53906 10.1836C4.53906 9.70964 4.57812 9.25651 4.65625 8.82422C4.73958 8.38672 4.84115 8.04557 4.96094 7.80078C5.11719 7.48828 5.11719 7.24349 4.96094 7.06641C4.88802 6.97786 4.78646 6.92318 4.65625 6.90234C4.52604 6.88151 4.36979 6.90755 4.1875 6.98047C3.38542 7.30859 2.67969 7.79036 2.07031 8.42578C1.46615 9.05599 0.992188 9.79557 0.648438 10.6445C0.304688 11.4935 0.132812 12.4049 0.132812 13.3789C0.132812 14.332 0.296875 15.2174 0.625 16.0352C0.958333 16.8477 1.42969 17.5612 2.03906 18.1758C2.64844 18.7852 3.36979 19.2591 4.20312 19.5977C5.03646 19.9414 5.95573 20.1133 6.96094 20.1133ZM6.97656 18.918C6.14323 18.918 5.38021 18.7747 4.6875 18.4883C4 18.207 3.40365 17.8138 2.89844 17.3086C2.39844 16.7982 2.01042 16.2018 1.73438 15.5195C1.46354 14.832 1.32812 14.0872 1.32812 13.2852C1.32812 12.6289 1.42448 12.0065 1.61719 11.418C1.8099 10.8242 2.08333 10.2773 2.4375 9.77734C2.79167 9.27734 3.21094 8.84245 3.69531 8.47266C3.59635 8.72786 3.52083 9.03776 3.46875 9.40234C3.41667 9.76693 3.39062 10.1367 3.39062 10.5117C3.39062 11.7982 3.66667 12.9232 4.21875 13.8867C4.77083 14.8503 5.54167 15.6003 6.53125 16.1367C7.52083 16.6732 8.67188 16.9414 9.98438 16.9414C10.3333 16.9414 10.6562 16.9206 10.9531 16.8789C11.2552 16.8372 11.4896 16.7904 11.6562 16.7383C11.3333 17.1862 10.9297 17.5742 10.4453 17.9023C9.96615 18.2305 9.42969 18.4805 8.83594 18.6523C8.2474 18.8294 7.6276 18.918 6.97656 18.918ZM12.7578 12.9727C12.9141 12.9727 13.0026 12.8867 13.0234 12.7148C13.0859 12.194 13.1536 11.7852 13.2266 11.4883C13.2995 11.1914 13.4115 10.9701 13.5625 10.8242C13.7188 10.6732 13.9479 10.5586 14.25 10.4805C14.5521 10.4023 14.9688 10.319 15.5 10.2305C15.6771 10.2044 15.7656 10.1185 15.7656 9.97266C15.7656 9.82682 15.6875 9.73828 15.5312 9.70703C15 9.60286 14.5781 9.51172 14.2656 9.43359C13.9583 9.35547 13.7266 9.24349 13.5703 9.09766C13.4141 8.95182 13.2995 8.73307 13.2266 8.44141C13.1536 8.14974 13.0859 7.74349 13.0234 7.22266C13.0026 7.05078 12.9141 6.96484 12.7578 6.96484C12.6016 6.96484 12.513 7.04818 12.4922 7.21484C12.4245 7.74089 12.3542 8.15495 12.2812 8.45703C12.2135 8.75911 12.1016 8.98828 11.9453 9.14453C11.7943 9.29557 11.5651 9.40755 11.2578 9.48047C10.9505 9.55339 10.526 9.62891 9.98438 9.70703C9.91667 9.71224 9.85938 9.74089 9.8125 9.79297C9.77083 9.83984 9.75 9.89974 9.75 9.97266C9.75 10.1185 9.82812 10.2044 9.98438 10.2305C10.526 10.3346 10.9505 10.4284 11.2578 10.5117C11.5651 10.5951 11.7943 10.7096 11.9453 10.8555C12.1016 11.0013 12.2135 11.2201 12.2812 11.5117C12.3542 11.8034 12.4245 12.2096 12.4922 12.7305C12.5026 12.7982 12.5312 12.8555 12.5781 12.9023C12.625 12.9492 12.6849 12.9727 12.7578 12.9727ZM9.02344 7.68359C9.11198 7.68359 9.16406 7.63672 9.17969 7.54297C9.24219 7.21484 9.29688 6.95964 9.34375 6.77734C9.39583 6.58984 9.46615 6.44922 9.55469 6.35547C9.64844 6.25651 9.78906 6.18099 9.97656 6.12891C10.1693 6.07682 10.4349 6.01693 10.7734 5.94922C10.8724 5.92839 10.9219 5.8737 10.9219 5.78516C10.9219 5.69661 10.8724 5.64193 10.7734 5.62109C10.4349 5.55339 10.1719 5.49089 9.98438 5.43359C9.80208 5.3763 9.66406 5.30078 9.57031 5.20703C9.48177 5.11328 9.41146 4.97526 9.35938 4.79297C9.3125 4.60547 9.2526 4.35026 9.17969 4.02734C9.16406 3.93359 9.11198 3.88672 9.02344 3.88672C8.9349 3.88672 8.88021 3.93359 8.85938 4.02734C8.79167 4.35026 8.73177 4.60547 8.67969 4.79297C8.63281 4.97526 8.5625 5.11328 8.46875 5.20703C8.38021 5.30078 8.24219 5.3763 8.05469 5.43359C7.8724 5.49089 7.61198 5.55339 7.27344 5.62109C7.17448 5.64193 7.125 5.69661 7.125 5.78516C7.125 5.8737 7.17448 5.92839 7.27344 5.94922C7.61198 6.01693 7.875 6.07943 8.0625 6.13672C8.25 6.1888 8.39062 6.26432 8.48438 6.36328C8.57812 6.45703 8.64844 6.59505 8.69531 6.77734C8.74219 6.95964 8.79688 7.21484 8.85938 7.54297C8.88021 7.63672 8.9349 7.68359 9.02344 7.68359Z"
		fill="currentColor"
	/>
</svg>
