<svg
	color="rgb(var(--foreground, 0, 0, 0))"
	viewBox="0 0 17 24"
	fill="none"
	xmlns="http://www.w3.org/2000/svg"
>
	<path
		d="M7.51562 20.1133C8.45833 20.1133 9.33073 19.9622 10.1328 19.6602C10.9349 19.3581 11.638 18.9206 12.2422 18.3477C12.8464 17.7747 13.3229 17.082 13.6719 16.2695C13.7969 15.9831 13.7839 15.7643 13.6328 15.6133C13.5078 15.4831 13.3203 15.4674 13.0703 15.5664C12.7474 15.6966 12.401 15.793 12.0312 15.8555C11.6615 15.918 11.263 15.9492 10.8359 15.9492C9.65885 15.9492 8.63281 15.7174 7.75781 15.2539C6.88802 14.7852 6.21354 14.1263 5.73438 13.2773C5.25521 12.4232 5.01562 11.418 5.01562 10.2617C5.01562 9.81901 5.05469 9.3737 5.13281 8.92578C5.21094 8.47786 5.3151 8.11849 5.44531 7.84766C5.58594 7.56641 5.58854 7.34766 5.45312 7.19141C5.31771 7.02474 5.09115 7.00391 4.77344 7.12891C3.97135 7.44661 3.27083 7.92057 2.67188 8.55078C2.07292 9.18099 1.60417 9.91797 1.26562 10.7617C0.932292 11.6055 0.765625 12.5039 0.765625 13.457C0.765625 14.4049 0.929688 15.2852 1.25781 16.0977C1.59115 16.9049 2.0599 17.6107 2.66406 18.2148C3.26823 18.8138 3.98177 19.2799 4.80469 19.6133C5.6276 19.9466 6.53125 20.1133 7.51562 20.1133ZM13.3906 12.9727C13.5469 12.9727 13.6354 12.8867 13.6562 12.7148C13.7188 12.194 13.7865 11.7852 13.8594 11.4883C13.9323 11.1914 14.0443 10.9701 14.1953 10.8242C14.3516 10.6732 14.5807 10.5586 14.8828 10.4805C15.1849 10.4023 15.6016 10.319 16.1328 10.2305C16.3099 10.2044 16.3984 10.1185 16.3984 9.97266C16.3984 9.82682 16.3203 9.73828 16.1641 9.70703C15.6328 9.60286 15.2109 9.51172 14.8984 9.43359C14.5911 9.35547 14.3594 9.24349 14.2031 9.09766C14.0469 8.95182 13.9323 8.73307 13.8594 8.44141C13.7865 8.14974 13.7188 7.74349 13.6562 7.22266C13.6354 7.05078 13.5469 6.96484 13.3906 6.96484C13.2344 6.96484 13.1458 7.04818 13.125 7.21484C13.0573 7.74089 12.987 8.15495 12.9141 8.45703C12.8464 8.75911 12.7344 8.98828 12.5781 9.14453C12.4271 9.29557 12.1979 9.40755 11.8906 9.48047C11.5833 9.55339 11.1589 9.62891 10.6172 9.70703C10.5495 9.71224 10.4922 9.74089 10.4453 9.79297C10.4036 9.83984 10.3828 9.89974 10.3828 9.97266C10.3828 10.1185 10.4609 10.2044 10.6172 10.2305C11.1589 10.3346 11.5833 10.4284 11.8906 10.5117C12.1979 10.5951 12.4271 10.7096 12.5781 10.8555C12.7344 11.0013 12.8464 11.2201 12.9141 11.5117C12.987 11.8034 13.0573 12.2096 13.125 12.7305C13.1354 12.7982 13.1641 12.8555 13.2109 12.9023C13.2578 12.9492 13.3177 12.9727 13.3906 12.9727ZM9.65625 7.68359C9.74479 7.68359 9.79688 7.63672 9.8125 7.54297C9.875 7.21484 9.92969 6.95964 9.97656 6.77734C10.0286 6.58984 10.099 6.44922 10.1875 6.35547C10.2812 6.25651 10.4219 6.18099 10.6094 6.12891C10.8021 6.07682 11.0677 6.01693 11.4062 5.94922C11.5052 5.92839 11.5547 5.8737 11.5547 5.78516C11.5547 5.69661 11.5052 5.64193 11.4062 5.62109C11.0677 5.55339 10.8047 5.49089 10.6172 5.43359C10.4349 5.3763 10.2969 5.30078 10.2031 5.20703C10.1146 5.11328 10.0443 4.97526 9.99219 4.79297C9.94531 4.60547 9.88542 4.35026 9.8125 4.02734C9.79688 3.93359 9.74479 3.88672 9.65625 3.88672C9.56771 3.88672 9.51302 3.93359 9.49219 4.02734C9.42448 4.35026 9.36458 4.60547 9.3125 4.79297C9.26562 4.97526 9.19531 5.11328 9.10156 5.20703C9.01302 5.30078 8.875 5.3763 8.6875 5.43359C8.50521 5.49089 8.24479 5.55339 7.90625 5.62109C7.80729 5.64193 7.75781 5.69661 7.75781 5.78516C7.75781 5.8737 7.80729 5.92839 7.90625 5.94922C8.24479 6.01693 8.50781 6.07943 8.69531 6.13672C8.88281 6.1888 9.02344 6.26432 9.11719 6.36328C9.21094 6.45703 9.28125 6.59505 9.32812 6.77734C9.375 6.95964 9.42969 7.21484 9.49219 7.54297C9.51302 7.63672 9.56771 7.68359 9.65625 7.68359Z"
		fill="currentColor"
	/>
</svg>
