<svg
	color="rgb(var(--foreground, 0, 0, 0))"
	viewBox="0 0 16 24"
	fill="none"
	xmlns="http://www.w3.org/2000/svg"
>
	<path
		d="M12.2734 14.707C10.8411 14.707 9.60156 14.4336 8.55469 13.8867C7.51302 13.3398 6.70833 12.5612 6.14062 11.5508C5.57812 10.5404 5.29688 9.33984 5.29688 7.94922C5.29688 7.35547 5.34115 6.8112 5.42969 6.31641C5.51823 5.82161 5.63542 5.43359 5.78125 5.15234C5.83854 5.03776 5.875 4.94661 5.89062 4.87891C5.91146 4.8112 5.92188 4.73828 5.92188 4.66016C5.92188 4.52995 5.86719 4.40495 5.75781 4.28516C5.65365 4.16016 5.51823 4.09766 5.35156 4.09766C5.32031 4.09766 5.26823 4.10547 5.19531 4.12109C5.1224 4.13151 5.03125 4.16016 4.92188 4.20703C3.95833 4.59766 3.10677 5.17318 2.36719 5.93359C1.6276 6.69401 1.04688 7.57422 0.625 8.57422C0.208333 9.56901 0 10.6133 0 11.707C0 12.8945 0.200521 13.9883 0.601562 14.9883C1.00781 15.9831 1.57812 16.8477 2.3125 17.582C3.04688 18.3164 3.91146 18.8867 4.90625 19.293C5.90625 19.6992 7 19.9023 8.1875 19.9023C9.31771 19.9023 10.3672 19.7122 11.3359 19.332C12.3047 18.957 13.1536 18.418 13.8828 17.7148C14.612 17.0117 15.1875 16.1732 15.6094 15.1992C15.6562 15.0951 15.6849 15.0039 15.6953 14.9258C15.7109 14.8424 15.7188 14.7799 15.7188 14.7383C15.7188 14.5768 15.6615 14.4466 15.5469 14.3477C15.4375 14.2487 15.3229 14.1992 15.2031 14.1992C15.1406 14.1992 15.0807 14.2044 15.0234 14.2148C14.9661 14.2253 14.8906 14.2461 14.7969 14.2773C14.5833 14.3659 14.3385 14.4414 14.0625 14.5039C13.7917 14.5664 13.5026 14.6159 13.1953 14.6523C12.8932 14.6888 12.5859 14.707 12.2734 14.707ZM1.22656 11.6523C1.22656 10.8451 1.35938 10.0612 1.625 9.30078C1.89583 8.54036 2.27604 7.84505 2.76562 7.21484C3.26042 6.58464 3.84375 6.05859 4.51562 5.63672C4.39062 5.99609 4.29427 6.37891 4.22656 6.78516C4.16406 7.1862 4.13281 7.61068 4.13281 8.05859C4.13281 9.68359 4.44792 11.0794 5.07812 12.2461C5.71354 13.4076 6.625 14.2982 7.8125 14.918C9.00521 15.5378 10.4323 15.8477 12.0938 15.8477C12.4948 15.8477 12.8698 15.8242 13.2188 15.7773C13.5677 15.7253 13.9036 15.6419 14.2266 15.5273C13.8307 16.1784 13.3229 16.7409 12.7031 17.2148C12.0885 17.6888 11.3984 18.0508 10.6328 18.3008C9.8724 18.556 9.07292 18.6836 8.23438 18.6836C7.22396 18.6836 6.29167 18.5091 5.4375 18.1602C4.58333 17.8164 3.84115 17.3294 3.21094 16.6992C2.58073 16.069 2.09115 15.3268 1.74219 14.4727C1.39844 13.6133 1.22656 12.6732 1.22656 11.6523Z"
		fill="currentColor"
	/>
</svg>
