<svg
	color="rgb(var(--foreground, 0, 0, 0))"
	viewBox="0 0 15 24"
	fill="none"
	xmlns="http://www.w3.org/2000/svg"
>
	<path
		d="M8.70312 20.9102C8.80729 20.9102 8.89323 20.8763 8.96094 20.8086C9.02865 20.7461 9.07292 20.6602 9.09375 20.5508C9.20312 19.6966 9.32552 18.9753 9.46094 18.3867C9.60156 17.7982 9.78385 17.3138 10.0078 16.9336C10.237 16.5534 10.5391 16.2513 10.9141 16.0273C11.2891 15.7982 11.7656 15.6185 12.3438 15.4883C12.9219 15.3581 13.6354 15.2461 14.4844 15.1523C14.5938 15.1419 14.6823 15.1003 14.75 15.0273C14.8177 14.9544 14.8516 14.8659 14.8516 14.7617C14.8516 14.6628 14.8177 14.5768 14.75 14.5039C14.6823 14.431 14.5938 14.3893 14.4844 14.3789C13.6354 14.2852 12.9219 14.1732 12.3438 14.043C11.7656 13.9128 11.2891 13.7331 10.9141 13.5039C10.5391 13.2747 10.237 12.9701 10.0078 12.5898C9.78385 12.2096 9.60156 11.7279 9.46094 11.1445C9.32552 10.556 9.20312 9.83203 9.09375 8.97266C9.07292 8.86849 9.02865 8.78516 8.96094 8.72266C8.89323 8.65495 8.80729 8.62109 8.70312 8.62109C8.60417 8.62109 8.51823 8.65495 8.44531 8.72266C8.3776 8.78516 8.33594 8.86849 8.32031 8.97266C8.21094 9.83203 8.08594 10.556 7.94531 11.1445C7.8099 11.7279 7.6276 12.2096 7.39844 12.5898C7.16927 12.9701 6.86719 13.2747 6.49219 13.5039C6.11719 13.7331 5.64062 13.9128 5.0625 14.043C4.48438 14.1732 3.77344 14.2852 2.92969 14.3789C2.8151 14.3893 2.72396 14.431 2.65625 14.5039C2.58854 14.5768 2.55469 14.6628 2.55469 14.7617C2.55469 14.8659 2.58854 14.9544 2.65625 15.0273C2.72396 15.1003 2.8151 15.1419 2.92969 15.1523C3.77344 15.2617 4.48177 15.3867 5.05469 15.5273C5.63281 15.6628 6.10677 15.8424 6.47656 16.0664C6.85156 16.2904 7.15365 16.5898 7.38281 16.9648C7.61198 17.3398 7.79427 17.8164 7.92969 18.3945C8.07031 18.9779 8.20052 19.6966 8.32031 20.5508C8.33594 20.6602 8.3776 20.7461 8.44531 20.8086C8.51823 20.8763 8.60417 20.9102 8.70312 20.9102ZM3.40625 12.2695C3.47917 12.2695 3.53906 12.2461 3.58594 12.1992C3.63281 12.1523 3.66146 12.0951 3.67188 12.0273C3.73958 11.5065 3.8099 11.1003 3.88281 10.8086C3.95573 10.5169 4.06771 10.2982 4.21875 10.1523C4.375 10.0013 4.60417 9.88672 4.90625 9.80859C5.21354 9.72526 5.63802 9.63151 6.17969 9.52734C6.33594 9.49609 6.41406 9.40755 6.41406 9.26172C6.41406 9.1888 6.39062 9.12891 6.34375 9.08203C6.30208 9.03516 6.2474 9.00911 6.17969 9.00391C5.63802 8.92578 5.21354 8.85026 4.90625 8.77734C4.59896 8.70443 4.36719 8.59245 4.21094 8.44141C4.0599 8.28516 3.94792 8.05599 3.875 7.75391C3.80729 7.45182 3.73958 7.03776 3.67188 6.51172C3.65104 6.34505 3.5625 6.26172 3.40625 6.26172C3.25 6.26172 3.16146 6.34766 3.14062 6.51953C3.07812 7.04036 3.01042 7.44661 2.9375 7.73828C2.86458 8.02474 2.75 8.24089 2.59375 8.38672C2.4375 8.53255 2.20573 8.64714 1.89844 8.73047C1.59115 8.80859 1.16927 8.89974 0.632812 9.00391C0.476562 9.02995 0.398438 9.11589 0.398438 9.26172C0.398438 9.41276 0.486979 9.5013 0.664062 9.52734C1.19531 9.61589 1.61198 9.69922 1.91406 9.77734C2.22135 9.85547 2.45052 9.97005 2.60156 10.1211C2.75781 10.2669 2.86979 10.4883 2.9375 10.7852C3.01042 11.082 3.07812 11.4909 3.14062 12.0117C3.16146 12.1836 3.25 12.2695 3.40625 12.2695ZM7.1875 6.89453C7.28125 6.89453 7.33854 6.84245 7.35938 6.73828C7.41667 6.42057 7.46875 6.17057 7.51562 5.98828C7.5625 5.80599 7.63021 5.66797 7.71875 5.57422C7.8125 5.47526 7.95312 5.39714 8.14062 5.33984C8.32812 5.28255 8.59115 5.22526 8.92969 5.16797C9.03385 5.14714 9.08594 5.08724 9.08594 4.98828C9.08594 4.89453 9.03385 4.83724 8.92969 4.81641C8.59115 4.75391 8.32812 4.69661 8.14062 4.64453C7.95312 4.58724 7.8125 4.51172 7.71875 4.41797C7.63021 4.31901 7.5625 4.17839 7.51562 3.99609C7.46875 3.8138 7.41667 3.5638 7.35938 3.24609C7.33854 3.14193 7.28125 3.08984 7.1875 3.08984C7.08854 3.08984 7.03125 3.14193 7.01562 3.24609C6.95312 3.5638 6.89844 3.8138 6.85156 3.99609C6.8099 4.17839 6.74219 4.31901 6.64844 4.41797C6.5599 4.51172 6.42188 4.58724 6.23438 4.64453C6.04688 4.69661 5.78385 4.75391 5.44531 4.81641C5.34115 4.83724 5.28906 4.89453 5.28906 4.98828C5.28906 5.08724 5.34115 5.14714 5.44531 5.16797C5.78385 5.22526 6.04688 5.28255 6.23438 5.33984C6.42188 5.39714 6.5599 5.47526 6.64844 5.57422C6.74219 5.66797 6.8099 5.80599 6.85156 5.98828C6.89844 6.17057 6.95312 6.42057 7.01562 6.73828C7.03125 6.84245 7.08854 6.89453 7.1875 6.89453Z"
		fill="currentColor"
	/>
</svg>
