<svg
	color="rgb(var(--foreground, 0, 0, 0))"
	viewBox="0 0 17 24"
	fill="none"
	xmlns="http://www.w3.org/2000/svg"
>
	<path
		d="M8.35938 15.9766C8.90104 15.9766 9.41146 15.8724 9.89062 15.6641C10.375 15.4557 10.7995 15.1693 11.1641 14.8047C11.5339 14.4401 11.8229 14.0182 12.0312 13.5391C12.2396 13.0547 12.3438 12.5417 12.3438 12C12.3438 11.4531 12.2396 10.9401 12.0312 10.4609C11.8229 9.98177 11.5339 9.5599 11.1641 9.19531C10.7995 8.82552 10.375 8.53646 9.89062 8.32812C9.41146 8.11979 8.90104 8.01562 8.35938 8.01562C7.81771 8.01562 7.30469 8.11979 6.82031 8.32812C6.34115 8.53646 5.91927 8.82552 5.55469 9.19531C5.1901 9.5599 4.90365 9.98177 4.69531 10.4609C4.48698 10.9401 4.38281 11.4531 4.38281 12C4.38281 12.5417 4.48698 13.0547 4.69531 13.5391C4.90365 14.0182 5.1901 14.4401 5.55469 14.8047C5.91927 15.1693 6.34115 15.4557 6.82031 15.6641C7.30469 15.8724 7.81771 15.9766 8.35938 15.9766ZM1.4375 12.9141C1.6875 12.9141 1.90104 12.8255 2.07812 12.6484C2.26042 12.4661 2.35156 12.25 2.35156 12C2.35156 11.75 2.26042 11.5365 2.07812 11.3594C1.90104 11.1771 1.6875 11.0859 1.4375 11.0859C1.1875 11.0859 0.971354 11.1771 0.789062 11.3594C0.611979 11.5365 0.523438 11.75 0.523438 12C0.523438 12.25 0.611979 12.4661 0.789062 12.6484C0.971354 12.8255 1.1875 12.9141 1.4375 12.9141ZM3.46094 8.01562C3.71094 8.01562 3.92448 7.92708 4.10156 7.75C4.28385 7.56771 4.375 7.35156 4.375 7.10156C4.375 6.85156 4.28385 6.63802 4.10156 6.46094C3.92448 6.27865 3.71094 6.1875 3.46094 6.1875C3.21094 6.1875 2.99479 6.27865 2.8125 6.46094C2.63542 6.63802 2.54688 6.85156 2.54688 7.10156C2.54688 7.35156 2.63542 7.56771 2.8125 7.75C2.99479 7.92708 3.21094 8.01562 3.46094 8.01562ZM8.35938 5.99219C8.60938 5.99219 8.82292 5.90365 9 5.72656C9.18229 5.54427 9.27344 5.32812 9.27344 5.07812C9.27344 4.82812 9.18229 4.61458 9 4.4375C8.82292 4.25521 8.60938 4.16406 8.35938 4.16406C8.10938 4.16406 7.89323 4.25521 7.71094 4.4375C7.53385 4.61458 7.44531 4.82812 7.44531 5.07812C7.44531 5.32812 7.53385 5.54427 7.71094 5.72656C7.89323 5.90365 8.10938 5.99219 8.35938 5.99219ZM13.2578 8.01562C13.5078 8.01562 13.7214 7.92708 13.8984 7.75C14.0807 7.56771 14.1719 7.35156 14.1719 7.10156C14.1719 6.85156 14.0807 6.63802 13.8984 6.46094C13.7214 6.27865 13.5078 6.1875 13.2578 6.1875C13.0078 6.1875 12.7917 6.27865 12.6094 6.46094C12.4323 6.63802 12.3438 6.85156 12.3438 7.10156C12.3438 7.35156 12.4323 7.56771 12.6094 7.75C12.7917 7.92708 13.0078 8.01562 13.2578 8.01562ZM15.2812 12.9141C15.5312 12.9141 15.7448 12.8255 15.9219 12.6484C16.1042 12.4661 16.1953 12.25 16.1953 12C16.1953 11.75 16.1042 11.5365 15.9219 11.3594C15.7448 11.1771 15.5312 11.0859 15.2812 11.0859C15.0312 11.0859 14.8151 11.1771 14.6328 11.3594C14.4557 11.5365 14.3672 11.75 14.3672 12C14.3672 12.25 14.4557 12.4661 14.6328 12.6484C14.8151 12.8255 15.0312 12.9141 15.2812 12.9141ZM13.2578 17.8125C13.5078 17.8125 13.7214 17.724 13.8984 17.5469C14.0807 17.3646 14.1719 17.1484 14.1719 16.8984C14.1719 16.6484 14.0807 16.4349 13.8984 16.2578C13.7214 16.0755 13.5078 15.9844 13.2578 15.9844C13.0078 15.9844 12.7917 16.0755 12.6094 16.2578C12.4323 16.4349 12.3438 16.6484 12.3438 16.8984C12.3438 17.1484 12.4323 17.3646 12.6094 17.5469C12.7917 17.724 13.0078 17.8125 13.2578 17.8125ZM8.35938 19.8359C8.60938 19.8359 8.82292 19.7448 9 19.5625C9.18229 19.3854 9.27344 19.1719 9.27344 18.9219C9.27344 18.6719 9.18229 18.4557 9 18.2734C8.82292 18.0964 8.60938 18.0078 8.35938 18.0078C8.10938 18.0078 7.89323 18.0964 7.71094 18.2734C7.53385 18.4557 7.44531 18.6719 7.44531 18.9219C7.44531 19.1719 7.53385 19.3854 7.71094 19.5625C7.89323 19.7448 8.10938 19.8359 8.35938 19.8359ZM3.46094 17.8125C3.71094 17.8125 3.92448 17.724 4.10156 17.5469C4.28385 17.3646 4.375 17.1484 4.375 16.8984C4.375 16.6484 4.28385 16.4349 4.10156 16.2578C3.92448 16.0755 3.71094 15.9844 3.46094 15.9844C3.21094 15.9844 2.99479 16.0755 2.8125 16.2578C2.63542 16.4349 2.54688 16.6484 2.54688 16.8984C2.54688 17.1484 2.63542 17.3646 2.8125 17.5469C2.99479 17.724 3.21094 17.8125 3.46094 17.8125Z"
		fill="currentColor"
	/>
</svg>
