<svg
	color="rgb(var(--foreground, 0, 0, 0))"
	viewBox="0 0 18 24"
	fill="none"
	xmlns="http://www.w3.org/2000/svg"
>
	<path
		d="M8.64844 15.9883C9.1901 15.9883 9.70052 15.8841 10.1797 15.6758C10.6641 15.4674 11.0885 15.181 11.4531 14.8164C11.8177 14.4466 12.1042 14.0221 12.3125 13.543C12.5208 13.0638 12.625 12.5508 12.625 12.0039C12.625 11.457 12.5208 10.944 12.3125 10.4648C12.1042 9.98047 11.8177 9.55599 11.4531 9.19141C11.0885 8.82161 10.6641 8.53255 10.1797 8.32422C9.70052 8.11589 9.1901 8.01172 8.64844 8.01172C8.10156 8.01172 7.58854 8.11589 7.10938 8.32422C6.63021 8.53255 6.20573 8.82161 5.83594 9.19141C5.47135 9.55599 5.1849 9.98047 4.97656 10.4648C4.76823 10.944 4.66406 11.457 4.66406 12.0039C4.66406 12.5508 4.76823 13.0638 4.97656 13.543C5.1849 14.0221 5.47135 14.4466 5.83594 14.8164C6.20573 15.181 6.63021 15.4674 7.10938 15.6758C7.58854 15.8841 8.10156 15.9883 8.64844 15.9883ZM8.64844 14.793C8.13802 14.793 7.67188 14.668 7.25 14.418C6.82812 14.1628 6.48958 13.8242 6.23438 13.4023C5.97917 12.9805 5.85156 12.5143 5.85156 12.0039C5.85156 11.4935 5.97917 11.0273 6.23438 10.6055C6.48958 10.1836 6.82812 9.84505 7.25 9.58984C7.67188 9.33464 8.13802 9.20703 8.64844 9.20703C9.15885 9.20703 9.625 9.33464 10.0469 9.58984C10.4688 9.84505 10.8047 10.1836 11.0547 10.6055C11.3099 11.0273 11.4375 11.4935 11.4375 12.0039C11.4375 12.5143 11.3099 12.9805 11.0547 13.4023C10.8047 13.8242 10.4688 14.1628 10.0469 14.418C9.625 14.668 9.15885 14.793 8.64844 14.793ZM9.33594 4.20703C9.33594 4.01953 9.26823 3.85807 9.13281 3.72266C8.9974 3.58724 8.83594 3.51953 8.64844 3.51953C8.46615 3.51953 8.30729 3.58724 8.17188 3.72266C8.03646 3.85807 7.96875 4.01953 7.96875 4.20703V5.84766C7.96875 6.02995 8.03646 6.1888 8.17188 6.32422C8.30729 6.45964 8.46615 6.52734 8.64844 6.52734C8.83594 6.52734 8.9974 6.45964 9.13281 6.32422C9.26823 6.1888 9.33594 6.02995 9.33594 5.84766V4.20703ZM12.5078 7.18359C12.3776 7.3138 12.3125 7.47526 12.3125 7.66797C12.3125 7.85547 12.3776 8.01432 12.5078 8.14453C12.638 8.27474 12.7969 8.34245 12.9844 8.34766C13.1771 8.34766 13.3411 8.27995 13.4766 8.14453L14.6406 6.98047C14.7708 6.85026 14.8359 6.6888 14.8359 6.49609C14.8359 6.30339 14.7708 6.14193 14.6406 6.01172C14.5104 5.88151 14.3516 5.81641 14.1641 5.81641C13.9766 5.81641 13.8177 5.88151 13.6875 6.01172L12.5078 7.18359ZM16.4219 12.6836C16.6094 12.6836 16.7708 12.6159 16.9062 12.4805C17.0417 12.3451 17.1094 12.1862 17.1094 12.0039C17.1094 11.8164 17.0417 11.6576 16.9062 11.5273C16.7708 11.3919 16.6094 11.3242 16.4219 11.3242H14.7891C14.6068 11.3242 14.4479 11.3919 14.3125 11.5273C14.1771 11.6576 14.1094 11.8164 14.1094 12.0039C14.1094 12.1862 14.1771 12.3451 14.3125 12.4805C14.4479 12.6159 14.6068 12.6836 14.7891 12.6836H16.4219ZM13.4688 15.8711C13.3385 15.7409 13.1771 15.6758 12.9844 15.6758C12.7969 15.6758 12.638 15.7409 12.5078 15.8711C12.3776 16.0013 12.3125 16.1602 12.3125 16.3477C12.3125 16.5352 12.3776 16.6966 12.5078 16.832L13.6875 18.0039C13.8177 18.1341 13.9766 18.1966 14.1641 18.1914C14.3516 18.1914 14.5104 18.1263 14.6406 17.9961C14.7708 17.8659 14.8359 17.707 14.8359 17.5195C14.8359 17.3268 14.7708 17.1654 14.6406 17.0352L13.4688 15.8711ZM9.33594 18.1602C9.33594 17.9727 9.26823 17.8112 9.13281 17.6758C8.9974 17.5404 8.83594 17.4727 8.64844 17.4727C8.46615 17.4727 8.30729 17.5404 8.17188 17.6758C8.03646 17.8112 7.96875 17.9727 7.96875 18.1602V19.8008C7.96875 19.9831 8.03646 20.1419 8.17188 20.2773C8.30729 20.4128 8.46615 20.4805 8.64844 20.4805C8.83594 20.4805 8.9974 20.4128 9.13281 20.2773C9.26823 20.1419 9.33594 19.9831 9.33594 19.8008V18.1602ZM2.65625 17.0273C2.52604 17.1576 2.46094 17.319 2.46094 17.5117C2.46094 17.6992 2.52344 17.8581 2.64844 17.9883C2.77865 18.1185 2.9401 18.1836 3.13281 18.1836C3.32552 18.1888 3.48698 18.1263 3.61719 17.9961L4.78125 16.832C4.91146 16.7018 4.97656 16.543 4.97656 16.3555C4.98177 16.1628 4.91927 16.0013 4.78906 15.8711C4.65885 15.7409 4.4974 15.6758 4.30469 15.6758C4.11198 15.6758 3.95052 15.7409 3.82031 15.8711L2.65625 17.0273ZM0.875 11.3242C0.692708 11.3242 0.533854 11.3919 0.398438 11.5273C0.263021 11.6576 0.195312 11.8164 0.195312 12.0039C0.195312 12.1862 0.263021 12.3451 0.398438 12.4805C0.533854 12.6159 0.692708 12.6836 0.875 12.6836H2.50781C2.69531 12.6836 2.85677 12.6159 2.99219 12.4805C3.1276 12.3451 3.19531 12.1862 3.19531 12.0039C3.19531 11.8164 3.1276 11.6576 2.99219 11.5273C2.85677 11.3919 2.69531 11.3242 2.50781 11.3242H0.875ZM3.82031 8.14453C3.95052 8.27474 4.10938 8.33984 4.29688 8.33984C4.48958 8.33984 4.65104 8.27474 4.78125 8.14453C4.91146 8.01953 4.97656 7.86068 4.97656 7.66797C4.98177 7.47005 4.91927 7.30859 4.78906 7.18359L3.625 6.01172C3.5 5.88672 3.34115 5.82422 3.14844 5.82422C2.96094 5.81901 2.79948 5.88151 2.66406 6.01172C2.53385 6.14193 2.46875 6.30339 2.46875 6.49609C2.46875 6.68359 2.53125 6.84245 2.65625 6.97266L3.82031 8.14453Z"
		fill="currentColor"
	/>
</svg>
