<svg
	color="rgb(var(--foreground, 0, 0, 0))"
	viewBox="0 0 18 24"
	fill="none"
	xmlns="http://www.w3.org/2000/svg"
>
	<path
		d="M8.5625 8.01172C8.01562 8.01172 7.5026 8.11589 7.02344 8.32422C6.54427 8.53255 6.11979 8.82161 5.75 9.19141C5.38542 9.55599 5.09896 9.98047 4.89062 10.4648C4.68229 10.944 4.57812 11.457 4.57812 12.0039C4.57812 12.5508 4.68229 13.0638 4.89062 13.543C5.09896 14.0221 5.38542 14.4466 5.75 14.8164C6.11979 15.181 6.54427 15.4674 7.02344 15.6758C7.5026 15.8841 8.01562 15.9883 8.5625 15.9883C9.10417 15.9883 9.61458 15.8841 10.0938 15.6758C10.5781 15.4674 11.0026 15.181 11.3672 14.8164C11.7318 14.4466 12.0182 14.0221 12.2266 13.543C12.4349 13.0638 12.5391 12.5508 12.5391 12.0039C12.5391 11.457 12.4349 10.944 12.2266 10.4648C12.0182 9.98047 11.7318 9.55599 11.3672 9.19141C11.0026 8.82161 10.5781 8.53255 10.0938 8.32422C9.61458 8.11589 9.10417 8.01172 8.5625 8.01172ZM9.25 4.20703C9.25 4.01953 9.18229 3.85807 9.04688 3.72266C8.91146 3.58724 8.75 3.51953 8.5625 3.51953C8.38021 3.51953 8.22135 3.58724 8.08594 3.72266C7.95052 3.85807 7.88281 4.01953 7.88281 4.20703V5.84766C7.88281 6.02995 7.95052 6.1888 8.08594 6.32422C8.22135 6.45964 8.38021 6.52734 8.5625 6.52734C8.75 6.52734 8.91146 6.45964 9.04688 6.32422C9.18229 6.1888 9.25 6.02995 9.25 5.84766V4.20703ZM12.4219 7.18359C12.2917 7.3138 12.2266 7.47526 12.2266 7.66797C12.2266 7.85547 12.2917 8.01432 12.4219 8.14453C12.5521 8.27474 12.7109 8.34245 12.8984 8.34766C13.0911 8.34766 13.2552 8.27995 13.3906 8.14453L14.5547 6.98047C14.6849 6.85026 14.75 6.6888 14.75 6.49609C14.75 6.30339 14.6849 6.14193 14.5547 6.01172C14.4245 5.88151 14.2656 5.81641 14.0781 5.81641C13.8906 5.81641 13.7318 5.88151 13.6016 6.01172L12.4219 7.18359ZM16.3359 12.6836C16.5234 12.6836 16.6849 12.6159 16.8203 12.4805C16.9557 12.3451 17.0234 12.1862 17.0234 12.0039C17.0234 11.8164 16.9557 11.6576 16.8203 11.5273C16.6849 11.3919 16.5234 11.3242 16.3359 11.3242H14.7031C14.5208 11.3242 14.362 11.3919 14.2266 11.5273C14.0911 11.6576 14.0234 11.8164 14.0234 12.0039C14.0234 12.1862 14.0911 12.3451 14.2266 12.4805C14.362 12.6159 14.5208 12.6836 14.7031 12.6836H16.3359ZM13.3828 15.8711C13.2526 15.7409 13.0911 15.6758 12.8984 15.6758C12.7109 15.6758 12.5521 15.7409 12.4219 15.8711C12.2917 16.0013 12.2266 16.1602 12.2266 16.3477C12.2266 16.5352 12.2917 16.6966 12.4219 16.832L13.6016 18.0039C13.7318 18.1341 13.8906 18.1966 14.0781 18.1914C14.2656 18.1914 14.4245 18.1263 14.5547 17.9961C14.6849 17.8659 14.75 17.707 14.75 17.5195C14.75 17.3268 14.6849 17.1654 14.5547 17.0352L13.3828 15.8711ZM9.25 18.1602C9.25 17.9727 9.18229 17.8112 9.04688 17.6758C8.91146 17.5404 8.75 17.4727 8.5625 17.4727C8.38021 17.4727 8.22135 17.5404 8.08594 17.6758C7.95052 17.8112 7.88281 17.9727 7.88281 18.1602V19.8008C7.88281 19.9831 7.95052 20.1419 8.08594 20.2773C8.22135 20.4128 8.38021 20.4805 8.5625 20.4805C8.75 20.4805 8.91146 20.4128 9.04688 20.2773C9.18229 20.1419 9.25 19.9831 9.25 19.8008V18.1602ZM2.57031 17.0273C2.4401 17.1576 2.375 17.319 2.375 17.5117C2.375 17.6992 2.4375 17.8581 2.5625 17.9883C2.69271 18.1185 2.85417 18.1836 3.04688 18.1836C3.23958 18.1888 3.40104 18.1263 3.53125 17.9961L4.69531 16.832C4.82552 16.7018 4.89062 16.543 4.89062 16.3555C4.89583 16.1628 4.83333 16.0013 4.70312 15.8711C4.57292 15.7409 4.41146 15.6758 4.21875 15.6758C4.02604 15.6758 3.86458 15.7409 3.73438 15.8711L2.57031 17.0273ZM0.789062 11.3242C0.606771 11.3242 0.447917 11.3919 0.3125 11.5273C0.177083 11.6576 0.109375 11.8164 0.109375 12.0039C0.109375 12.1862 0.177083 12.3451 0.3125 12.4805C0.447917 12.6159 0.606771 12.6836 0.789062 12.6836H2.42188C2.60938 12.6836 2.77083 12.6159 2.90625 12.4805C3.04167 12.3451 3.10938 12.1862 3.10938 12.0039C3.10938 11.8164 3.04167 11.6576 2.90625 11.5273C2.77083 11.3919 2.60938 11.3242 2.42188 11.3242H0.789062ZM3.73438 8.14453C3.86458 8.27474 4.02344 8.33984 4.21094 8.33984C4.40365 8.33984 4.5651 8.27474 4.69531 8.14453C4.82552 8.01953 4.89062 7.86068 4.89062 7.66797C4.89583 7.47005 4.83333 7.30859 4.70312 7.18359L3.53906 6.01172C3.41406 5.88672 3.25521 5.82422 3.0625 5.82422C2.875 5.81901 2.71354 5.88151 2.57812 6.01172C2.44792 6.14193 2.38281 6.30339 2.38281 6.49609C2.38281 6.68359 2.44531 6.84245 2.57031 6.97266L3.73438 8.14453Z"
		fill="currentColor"
	/>
</svg>
