<svg
	color="rgb(var(--foreground, 0, 0, 0))"
	viewBox="0 0 17 24"
	fill="none"
	xmlns="http://www.w3.org/2000/svg"
>
	<path
		d="M8.6875 15.9766C9.22917 15.9766 9.73958 15.8724 10.2188 15.6641C10.7031 15.4557 11.1276 15.1693 11.4922 14.8047C11.862 14.4401 12.151 14.0182 12.3594 13.5391C12.5677 13.0547 12.6719 12.5417 12.6719 12C12.6719 11.4531 12.5677 10.9401 12.3594 10.4609C12.151 9.98177 11.862 9.5599 11.4922 9.19531C11.1276 8.82552 10.7031 8.53646 10.2188 8.32812C9.73958 8.11979 9.22917 8.01562 8.6875 8.01562C8.14583 8.01562 7.63281 8.11979 7.14844 8.32812C6.66927 8.53646 6.2474 8.82552 5.88281 9.19531C5.51823 9.5599 5.23177 9.98177 5.02344 10.4609C4.8151 10.9401 4.71094 11.4531 4.71094 12C4.71094 12.5417 4.8151 13.0547 5.02344 13.5391C5.23177 14.0182 5.51823 14.4401 5.88281 14.8047C6.2474 15.1693 6.66927 15.4557 7.14844 15.6641C7.63281 15.8724 8.14583 15.9766 8.6875 15.9766ZM8.6875 14.7891C8.17708 14.7891 7.71094 14.6641 7.28906 14.4141C6.86719 14.1589 6.52865 13.8203 6.27344 13.3984C6.02344 12.9766 5.89844 12.5104 5.89844 12C5.89844 11.4948 6.02344 11.0312 6.27344 10.6094C6.52865 10.1823 6.86719 9.84115 7.28906 9.58594C7.71094 9.33073 8.17708 9.20312 8.6875 9.20312C9.19792 9.20312 9.66406 9.33073 10.0859 9.58594C10.5078 9.84115 10.8464 10.1797 11.1016 10.6016C11.3568 11.0234 11.4844 11.4896 11.4844 12C11.4844 12.5104 11.3568 12.9766 11.1016 13.3984C10.8464 13.8203 10.5078 14.1589 10.0859 14.4141C9.66406 14.6641 9.19792 14.7891 8.6875 14.7891ZM1.76562 12.9141C2.01562 12.9141 2.22917 12.8255 2.40625 12.6484C2.58854 12.4661 2.67969 12.25 2.67969 12C2.67969 11.75 2.58854 11.5365 2.40625 11.3594C2.22917 11.1771 2.01562 11.0859 1.76562 11.0859C1.51562 11.0859 1.29948 11.1771 1.11719 11.3594C0.940104 11.5365 0.851562 11.75 0.851562 12C0.851562 12.25 0.940104 12.4661 1.11719 12.6484C1.29948 12.8255 1.51562 12.9141 1.76562 12.9141ZM3.78906 8.01562C4.03906 8.01562 4.2526 7.92708 4.42969 7.75C4.61198 7.56771 4.70312 7.35156 4.70312 7.10156C4.70312 6.85156 4.61198 6.63802 4.42969 6.46094C4.2526 6.27865 4.03906 6.1875 3.78906 6.1875C3.53906 6.1875 3.32292 6.27865 3.14062 6.46094C2.96354 6.63802 2.875 6.85156 2.875 7.10156C2.875 7.35156 2.96354 7.56771 3.14062 7.75C3.32292 7.92708 3.53906 8.01562 3.78906 8.01562ZM8.6875 5.99219C8.9375 5.99219 9.15104 5.90365 9.32812 5.72656C9.51042 5.54427 9.60156 5.32812 9.60156 5.07812C9.60156 4.82812 9.51042 4.61458 9.32812 4.4375C9.15104 4.25521 8.9375 4.16406 8.6875 4.16406C8.4375 4.16406 8.22135 4.25521 8.03906 4.4375C7.86198 4.61458 7.77344 4.82812 7.77344 5.07812C7.77344 5.32812 7.86198 5.54427 8.03906 5.72656C8.22135 5.90365 8.4375 5.99219 8.6875 5.99219ZM13.5859 8.01562C13.8359 8.01562 14.0495 7.92708 14.2266 7.75C14.4089 7.56771 14.5 7.35156 14.5 7.10156C14.5 6.85156 14.4089 6.63802 14.2266 6.46094C14.0495 6.27865 13.8359 6.1875 13.5859 6.1875C13.3359 6.1875 13.1198 6.27865 12.9375 6.46094C12.7604 6.63802 12.6719 6.85156 12.6719 7.10156C12.6719 7.35156 12.7604 7.56771 12.9375 7.75C13.1198 7.92708 13.3359 8.01562 13.5859 8.01562ZM15.6094 12.9141C15.8594 12.9141 16.0729 12.8255 16.25 12.6484C16.4323 12.4661 16.5234 12.25 16.5234 12C16.5234 11.75 16.4323 11.5365 16.25 11.3594C16.0729 11.1771 15.8594 11.0859 15.6094 11.0859C15.3594 11.0859 15.1432 11.1771 14.9609 11.3594C14.7839 11.5365 14.6953 11.75 14.6953 12C14.6953 12.25 14.7839 12.4661 14.9609 12.6484C15.1432 12.8255 15.3594 12.9141 15.6094 12.9141ZM13.5859 17.8125C13.8359 17.8125 14.0495 17.724 14.2266 17.5469C14.4089 17.3646 14.5 17.1484 14.5 16.8984C14.5 16.6484 14.4089 16.4349 14.2266 16.2578C14.0495 16.0755 13.8359 15.9844 13.5859 15.9844C13.3359 15.9844 13.1198 16.0755 12.9375 16.2578C12.7604 16.4349 12.6719 16.6484 12.6719 16.8984C12.6719 17.1484 12.7604 17.3646 12.9375 17.5469C13.1198 17.724 13.3359 17.8125 13.5859 17.8125ZM8.6875 19.8359C8.9375 19.8359 9.15104 19.7448 9.32812 19.5625C9.51042 19.3854 9.60156 19.1719 9.60156 18.9219C9.60156 18.6719 9.51042 18.4557 9.32812 18.2734C9.15104 18.0964 8.9375 18.0078 8.6875 18.0078C8.4375 18.0078 8.22135 18.0964 8.03906 18.2734C7.86198 18.4557 7.77344 18.6719 7.77344 18.9219C7.77344 19.1719 7.86198 19.3854 8.03906 19.5625C8.22135 19.7448 8.4375 19.8359 8.6875 19.8359ZM3.78906 17.8125C4.03906 17.8125 4.2526 17.724 4.42969 17.5469C4.61198 17.3646 4.70312 17.1484 4.70312 16.8984C4.70312 16.6484 4.61198 16.4349 4.42969 16.2578C4.2526 16.0755 4.03906 15.9844 3.78906 15.9844C3.53906 15.9844 3.32292 16.0755 3.14062 16.2578C2.96354 16.4349 2.875 16.6484 2.875 16.8984C2.875 17.1484 2.96354 17.3646 3.14062 17.5469C3.32292 17.724 3.53906 17.8125 3.78906 17.8125Z"
		fill="currentColor"
	/>
</svg>
