<svg
	color="rgb(var(--foreground, 0, 0, 0))"
	viewBox="0 0 21 24"
	fill="none"
	xmlns="http://www.w3.org/2000/svg"
>
	<path
		d="M14.2891 16.3867C14.2891 15.8086 14.1771 15.2643 13.9531 14.7539C13.7344 14.2435 13.4297 13.793 13.0391 13.4023C12.6536 13.0117 12.2057 12.707 11.6953 12.4883C11.1849 12.2643 10.6406 12.1523 10.0625 12.1523C9.47917 12.1523 8.93229 12.2643 8.42188 12.4883C7.91146 12.707 7.46094 13.0117 7.07031 13.4023C6.6849 13.793 6.38021 14.2435 6.15625 14.7539C5.9375 15.2643 5.82812 15.8086 5.82812 16.3867C5.82812 16.6732 5.85677 16.9518 5.91406 17.2227C5.97135 17.4883 6.05469 17.7435 6.16406 17.9883H13.9531C14.0625 17.7435 14.1458 17.4883 14.2031 17.2227C14.2604 16.9518 14.2891 16.6732 14.2891 16.3867ZM1.74219 16.832H3.66406C3.86719 16.832 4.03385 16.7721 4.16406 16.6523C4.29948 16.5273 4.36719 16.3763 4.36719 16.1992C4.36198 16.0273 4.29427 15.8789 4.16406 15.7539C4.03385 15.6289 3.86719 15.5664 3.66406 15.5664H1.74219C1.53906 15.5664 1.3724 15.6289 1.24219 15.7539C1.11198 15.8789 1.04688 16.0273 1.04688 16.1992C1.04688 16.3763 1.11198 16.5273 1.24219 16.6523C1.3724 16.7721 1.53906 16.832 1.74219 16.832ZM5.08594 12.3242C5.22656 12.4701 5.38802 12.5456 5.57031 12.5508C5.75781 12.556 5.91146 12.4961 6.03125 12.3711C6.15104 12.2461 6.20833 12.0924 6.20312 11.9102C6.20312 11.7279 6.13021 11.5664 5.98438 11.4258L4.625 10.0664C4.47917 9.92057 4.31771 9.84766 4.14062 9.84766C3.96354 9.84766 3.8125 9.90755 3.6875 10.0273C3.5625 10.1471 3.5 10.2982 3.5 10.4805C3.50521 10.6576 3.58073 10.819 3.72656 10.9648L5.08594 12.3242ZM14.0859 12.3711C14.2109 12.4909 14.3646 12.5508 14.5469 12.5508C14.7292 12.5456 14.8906 12.4701 15.0312 12.3242L16.3906 10.9648C16.5365 10.819 16.6094 10.6576 16.6094 10.4805C16.6146 10.3034 16.5547 10.1523 16.4297 10.0273C16.3099 9.90234 16.1589 9.84245 15.9766 9.84766C15.7995 9.84766 15.638 9.92057 15.4922 10.0664L14.1328 11.4258C13.987 11.5664 13.9115 11.7305 13.9062 11.918C13.901 12.1003 13.9609 12.2513 14.0859 12.3711ZM16.4531 16.832H18.375C18.5781 16.832 18.7448 16.7721 18.875 16.6523C19.0052 16.5273 19.0703 16.3763 19.0703 16.1992C19.0703 16.0273 19.0052 15.8789 18.875 15.7539C18.7448 15.6289 18.5781 15.5664 18.375 15.5664H16.4531C16.2552 15.5664 16.0885 15.6289 15.9531 15.7539C15.8177 15.8789 15.75 16.0273 15.75 16.1992C15.7552 16.3763 15.8229 16.5273 15.9531 16.6523C16.0885 16.7721 16.2552 16.832 16.4531 16.832ZM0.726562 20.1523H19.3906C19.5729 20.1523 19.7318 20.0898 19.8672 19.9648C20.0026 19.8451 20.0703 19.6992 20.0703 19.5273C20.0703 19.3555 20.0026 19.207 19.8672 19.082C19.7318 18.9622 19.5729 18.9023 19.3906 18.9023H0.726562C0.544271 18.9023 0.385417 18.9622 0.25 19.082C0.114583 19.207 0.046875 19.3555 0.046875 19.5273C0.046875 19.6992 0.114583 19.8451 0.25 19.9648C0.385417 20.0898 0.544271 20.1523 0.726562 20.1523ZM10.0625 10.2227C10.2344 10.2227 10.3828 10.1576 10.5078 10.0273C10.6328 9.89193 10.6953 9.72786 10.6953 9.53516V6.60547L10.6016 5.42578L11.1797 6.08984L12.1562 7.08203C12.2135 7.13411 12.2786 7.17839 12.3516 7.21484C12.4245 7.24609 12.4974 7.26172 12.5703 7.26172C12.7266 7.26172 12.8542 7.21224 12.9531 7.11328C13.0573 7.01432 13.1094 6.88932 13.1094 6.73828C13.1094 6.65495 13.0938 6.58203 13.0625 6.51953C13.0312 6.45182 12.9844 6.38672 12.9219 6.32422L10.4844 4.05078C10.3333 3.91536 10.1927 3.84766 10.0625 3.84766C9.92708 3.84766 9.78385 3.91536 9.63281 4.05078L7.19531 6.32422C7.13281 6.38672 7.08594 6.45182 7.05469 6.51953C7.02344 6.58203 7.00781 6.65495 7.00781 6.73828C7.00781 6.88932 7.05729 7.01432 7.15625 7.11328C7.26042 7.21224 7.39062 7.26172 7.54688 7.26172C7.61979 7.26172 7.69271 7.24609 7.76562 7.21484C7.83854 7.17839 7.90365 7.13411 7.96094 7.08203L9.01562 6.01172L9.51562 5.42578L9.42188 6.60547V9.53516C9.42188 9.72786 9.48438 9.89193 9.60938 10.0273C9.73438 10.1576 9.88542 10.2227 10.0625 10.2227Z"
		fill="currentColor"
	/>
</svg>
