<svg
	color="rgb(var(--foreground, 0, 0, 0))"
	viewBox="0 0 21 24"
	fill="none"
	xmlns="http://www.w3.org/2000/svg"
>
	<path
		d="M6.78125 19.1602H8.83594C8.30469 18.9362 7.86719 18.5768 7.52344 18.082C7.1849 17.5872 7.01562 17.0352 7.01562 16.4258C7.01562 15.8737 7.15104 15.3685 7.42188 14.9102C7.69792 14.4518 8.0651 14.0872 8.52344 13.8164C8.98177 13.5404 9.48698 13.4023 10.0391 13.4023C10.5859 13.4023 11.0885 13.5404 11.5469 13.8164C12.0052 14.0872 12.3698 14.4518 12.6406 14.9102C12.9167 15.3685 13.0547 15.8737 13.0547 16.4258C13.0547 17.0352 12.8828 17.5872 12.5391 18.082C12.2005 18.5768 11.7656 18.9362 11.2344 19.1602H13.2891C13.6068 18.7904 13.8542 18.3711 14.0312 17.9023C14.2135 17.4388 14.3047 16.9466 14.3047 16.4258C14.3047 15.8372 14.1927 15.2852 13.9688 14.7695C13.75 14.2539 13.4427 13.8008 13.0469 13.4102C12.651 13.0143 12.1953 12.7044 11.6797 12.4805C11.1641 12.2565 10.6172 12.1445 10.0391 12.1445C9.45573 12.1445 8.90625 12.2565 8.39062 12.4805C7.875 12.7044 7.41927 13.0143 7.02344 13.4102C6.6276 13.8008 6.31771 14.2539 6.09375 14.7695C5.875 15.2852 5.76562 15.8372 5.76562 16.4258C5.76562 16.9466 5.85417 17.4388 6.03125 17.9023C6.21354 18.3711 6.46354 18.7904 6.78125 19.1602ZM1.71875 16.8555H3.64062C3.84375 16.8555 4.01042 16.7956 4.14062 16.6758C4.27604 16.5508 4.34375 16.3997 4.34375 16.2227C4.33854 16.0508 4.27083 15.9023 4.14062 15.7773C4.01042 15.6523 3.84375 15.5898 3.64062 15.5898H1.71875C1.51562 15.5898 1.34896 15.6523 1.21875 15.7773C1.08854 15.9023 1.02344 16.0508 1.02344 16.2227C1.02344 16.3997 1.08854 16.5508 1.21875 16.6758C1.34896 16.7956 1.51562 16.8555 1.71875 16.8555ZM6.00781 12.3945C6.1276 12.2695 6.1849 12.1159 6.17969 11.9336C6.17969 11.7513 6.10677 11.5898 5.96094 11.4492L4.60156 10.0898C4.45573 9.94401 4.29427 9.87109 4.11719 9.87109C3.9401 9.87109 3.78906 9.93099 3.66406 10.0508C3.53906 10.1706 3.47656 10.3216 3.47656 10.5039C3.48177 10.681 3.55729 10.8424 3.70312 10.9883L5.0625 12.3477C5.20312 12.4935 5.36458 12.569 5.54688 12.5742C5.73438 12.5794 5.88802 12.5195 6.00781 12.3945ZM14.0625 12.3945C14.1875 12.5143 14.3411 12.5742 14.5234 12.5742C14.7057 12.569 14.8672 12.4935 15.0078 12.3477L16.3672 10.9883C16.513 10.8424 16.5859 10.681 16.5859 10.5039C16.5911 10.3268 16.5312 10.1758 16.4062 10.0508C16.2865 9.92578 16.1354 9.86589 15.9531 9.87109C15.776 9.87109 15.6146 9.94401 15.4688 10.0898L14.1094 11.4492C13.9635 11.5898 13.888 11.7539 13.8828 11.9414C13.8776 12.1237 13.9375 12.2747 14.0625 12.3945ZM16.4297 16.8555H18.3516C18.5547 16.8555 18.7214 16.7956 18.8516 16.6758C18.9818 16.5508 19.0469 16.3997 19.0469 16.2227C19.0469 16.0508 18.9818 15.9023 18.8516 15.7773C18.7214 15.6523 18.5547 15.5898 18.3516 15.5898H16.4297C16.2318 15.5898 16.0651 15.6523 15.9297 15.7773C15.7943 15.9023 15.7266 16.0508 15.7266 16.2227C15.7318 16.3997 15.7995 16.5508 15.9297 16.6758C16.0651 16.7956 16.2318 16.8555 16.4297 16.8555ZM0.703125 20.1523H19.3672C19.5495 20.1523 19.7083 20.0898 19.8438 19.9648C19.9792 19.8451 20.0469 19.6992 20.0469 19.5273C20.0469 19.3555 19.9792 19.207 19.8438 19.082C19.7083 18.9622 19.5495 18.9023 19.3672 18.9023H0.703125C0.520833 18.9023 0.361979 18.9622 0.226562 19.082C0.0911458 19.207 0.0234375 19.3555 0.0234375 19.5273C0.0234375 19.6992 0.0911458 19.8451 0.226562 19.9648C0.361979 20.0898 0.520833 20.1523 0.703125 20.1523ZM10.0391 10.2227C10.2109 10.2227 10.3594 10.1576 10.4844 10.0273C10.6094 9.89193 10.6719 9.72786 10.6719 9.53516V6.60547L10.5781 5.42578L11.1562 6.08984L12.1328 7.08203C12.1901 7.13411 12.2552 7.17839 12.3281 7.21484C12.401 7.24609 12.474 7.26172 12.5469 7.26172C12.7031 7.26172 12.8307 7.21224 12.9297 7.11328C13.0339 7.01432 13.0859 6.88932 13.0859 6.73828C13.0859 6.65495 13.0703 6.58203 13.0391 6.51953C13.0078 6.45182 12.9609 6.38672 12.8984 6.32422L10.4609 4.05078C10.3099 3.91536 10.1693 3.84766 10.0391 3.84766C9.90365 3.84766 9.76042 3.91536 9.60938 4.05078L7.17188 6.32422C7.10938 6.38672 7.0625 6.45182 7.03125 6.51953C7 6.58203 6.98438 6.65495 6.98438 6.73828C6.98438 6.88932 7.03385 7.01432 7.13281 7.11328C7.23698 7.21224 7.36719 7.26172 7.52344 7.26172C7.59635 7.26172 7.66927 7.24609 7.74219 7.21484C7.8151 7.17839 7.88021 7.13411 7.9375 7.08203L8.99219 6.01172L9.49219 5.42578L9.39844 6.60547V9.53516C9.39844 9.72786 9.46094 9.89193 9.58594 10.0273C9.71094 10.1576 9.86198 10.2227 10.0391 10.2227Z"
		fill="currentColor"
	/>
</svg>
