<svg
	color="rgb(var(--foreground, 0, 0, 0))"
	viewBox="0 0 21 24"
	fill="none"
	xmlns="http://www.w3.org/2000/svg"
>
	<path
		d="M14.3359 16.3867C14.3359 15.8086 14.224 15.2643 14 14.7539C13.7812 14.2435 13.4766 13.793 13.0859 13.4023C12.7005 13.0117 12.2526 12.707 11.7422 12.4883C11.2318 12.2643 10.6875 12.1523 10.1094 12.1523C9.52604 12.1523 8.97917 12.2643 8.46875 12.4883C7.95833 12.707 7.50781 13.0117 7.11719 13.4023C6.73177 13.793 6.42708 14.2435 6.20312 14.7539C5.98438 15.2643 5.875 15.8086 5.875 16.3867C5.875 16.6732 5.90365 16.9518 5.96094 17.2227C6.01823 17.4883 6.10156 17.7435 6.21094 17.9883H14C14.1094 17.7435 14.1927 17.4883 14.25 17.2227C14.3073 16.9518 14.3359 16.6732 14.3359 16.3867ZM1.78906 16.832H3.71094C3.91406 16.832 4.08073 16.7721 4.21094 16.6523C4.34635 16.5273 4.41406 16.3763 4.41406 16.1992C4.40885 16.0273 4.34115 15.8789 4.21094 15.7539C4.08073 15.6289 3.91406 15.5664 3.71094 15.5664H1.78906C1.58594 15.5664 1.41927 15.6289 1.28906 15.7539C1.15885 15.8789 1.09375 16.0273 1.09375 16.1992C1.09375 16.3763 1.15885 16.5273 1.28906 16.6523C1.41927 16.7721 1.58594 16.832 1.78906 16.832ZM5.13281 12.3242C5.27344 12.4701 5.4349 12.5456 5.61719 12.5508C5.80469 12.556 5.95833 12.4961 6.07812 12.3711C6.19792 12.2461 6.25521 12.0924 6.25 11.9102C6.25 11.7279 6.17708 11.5664 6.03125 11.4258L4.67188 10.0664C4.52604 9.92057 4.36458 9.84766 4.1875 9.84766C4.01042 9.84766 3.85938 9.90755 3.73438 10.0273C3.60938 10.1471 3.54688 10.2982 3.54688 10.4805C3.55208 10.6576 3.6276 10.819 3.77344 10.9648L5.13281 12.3242ZM14.1328 12.3711C14.2578 12.4909 14.4115 12.5508 14.5938 12.5508C14.776 12.5456 14.9375 12.4701 15.0781 12.3242L16.4375 10.9648C16.5833 10.819 16.6562 10.6576 16.6562 10.4805C16.6615 10.3034 16.6016 10.1523 16.4766 10.0273C16.3568 9.90234 16.2057 9.84245 16.0234 9.84766C15.8464 9.84766 15.6849 9.92057 15.5391 10.0664L14.1797 11.4258C14.0339 11.5664 13.9583 11.7305 13.9531 11.918C13.9479 12.1003 14.0078 12.2513 14.1328 12.3711ZM16.5 16.832H18.4219C18.625 16.832 18.7917 16.7721 18.9219 16.6523C19.0521 16.5273 19.1172 16.3763 19.1172 16.1992C19.1172 16.0273 19.0521 15.8789 18.9219 15.7539C18.7917 15.6289 18.625 15.5664 18.4219 15.5664H16.5C16.3021 15.5664 16.1354 15.6289 16 15.7539C15.8646 15.8789 15.7969 16.0273 15.7969 16.1992C15.8021 16.3763 15.8698 16.5273 16 16.6523C16.1354 16.7721 16.3021 16.832 16.5 16.832ZM0.773438 20.1523H19.4375C19.6198 20.1523 19.7786 20.0898 19.9141 19.9648C20.0495 19.8451 20.1172 19.6992 20.1172 19.5273C20.1172 19.3555 20.0495 19.207 19.9141 19.082C19.7786 18.9622 19.6198 18.9023 19.4375 18.9023H0.773438C0.591146 18.9023 0.432292 18.9622 0.296875 19.082C0.161458 19.207 0.09375 19.3555 0.09375 19.5273C0.09375 19.6992 0.161458 19.8451 0.296875 19.9648C0.432292 20.0898 0.591146 20.1523 0.773438 20.1523ZM10.1094 3.84766C9.93229 3.84766 9.78125 3.91536 9.65625 4.05078C9.53125 4.1862 9.46875 4.35026 9.46875 4.54297V7.46484L9.5625 8.64453L9.0625 8.05859L8.00781 6.99609C7.95052 6.9388 7.88542 6.89453 7.8125 6.86328C7.73958 6.83203 7.66667 6.81641 7.59375 6.81641C7.4375 6.81641 7.30729 6.86589 7.20312 6.96484C7.10417 7.05859 7.05469 7.18359 7.05469 7.33984C7.05469 7.42318 7.07031 7.4987 7.10156 7.56641C7.13281 7.62891 7.17969 7.6888 7.24219 7.74609L9.67969 10.0195C9.83073 10.1549 9.97396 10.2227 10.1094 10.2227C10.2396 10.2227 10.3802 10.1549 10.5312 10.0195L12.9688 7.74609C13.0312 7.6888 13.0781 7.62891 13.1094 7.56641C13.1406 7.4987 13.1562 7.42318 13.1562 7.33984C13.1562 7.18359 13.1042 7.05859 13 6.96484C12.901 6.86589 12.7734 6.81641 12.6172 6.81641C12.5443 6.81641 12.4714 6.83203 12.3984 6.86328C12.3255 6.89453 12.2604 6.9388 12.2031 6.99609L11.2266 7.98047L10.6484 8.64453L10.7422 7.46484V4.54297C10.7422 4.35026 10.6797 4.1862 10.5547 4.05078C10.4297 3.91536 10.2812 3.84766 10.1094 3.84766Z"
		fill="currentColor"
	/>
</svg>
