<svg
	color="rgb(var(--foreground, 0, 0, 0))"
	viewBox="0 0 21 24"
	fill="none"
	xmlns="http://www.w3.org/2000/svg"
>
	<path
		d="M6.82812 19.1602H8.88281C8.35156 18.9362 7.91406 18.5768 7.57031 18.082C7.23177 17.5872 7.0625 17.0352 7.0625 16.4258C7.0625 15.8737 7.19792 15.3685 7.46875 14.9102C7.74479 14.4518 8.11198 14.0872 8.57031 13.8164C9.02865 13.5404 9.53385 13.4023 10.0859 13.4023C10.6328 13.4023 11.1354 13.5404 11.5938 13.8164C12.0521 14.0872 12.4167 14.4518 12.6875 14.9102C12.9635 15.3685 13.1016 15.8737 13.1016 16.4258C13.1016 17.0352 12.9297 17.5872 12.5859 18.082C12.2474 18.5768 11.8125 18.9362 11.2812 19.1602H13.3359C13.6536 18.7904 13.901 18.3711 14.0781 17.9023C14.2604 17.4388 14.3516 16.9466 14.3516 16.4258C14.3516 15.8372 14.2396 15.2852 14.0156 14.7695C13.7969 14.2539 13.4896 13.8008 13.0938 13.4102C12.6979 13.0143 12.2422 12.7044 11.7266 12.4805C11.2109 12.2565 10.6641 12.1445 10.0859 12.1445C9.5026 12.1445 8.95312 12.2565 8.4375 12.4805C7.92188 12.7044 7.46615 13.0143 7.07031 13.4102C6.67448 13.8008 6.36458 14.2539 6.14062 14.7695C5.92188 15.2852 5.8125 15.8372 5.8125 16.4258C5.8125 16.9466 5.90104 17.4388 6.07812 17.9023C6.26042 18.3711 6.51042 18.7904 6.82812 19.1602ZM1.76562 16.8555H3.6875C3.89062 16.8555 4.05729 16.7956 4.1875 16.6758C4.32292 16.5508 4.39062 16.3997 4.39062 16.2227C4.38542 16.0508 4.31771 15.9023 4.1875 15.7773C4.05729 15.6523 3.89062 15.5898 3.6875 15.5898H1.76562C1.5625 15.5898 1.39583 15.6523 1.26562 15.7773C1.13542 15.9023 1.07031 16.0508 1.07031 16.2227C1.07031 16.3997 1.13542 16.5508 1.26562 16.6758C1.39583 16.7956 1.5625 16.8555 1.76562 16.8555ZM6.05469 12.3945C6.17448 12.2695 6.23177 12.1159 6.22656 11.9336C6.22656 11.7513 6.15365 11.5898 6.00781 11.4492L4.64844 10.0898C4.5026 9.94401 4.34115 9.87109 4.16406 9.87109C3.98698 9.87109 3.83594 9.93099 3.71094 10.0508C3.58594 10.1706 3.52344 10.3216 3.52344 10.5039C3.52865 10.681 3.60417 10.8424 3.75 10.9883L5.10938 12.3477C5.25 12.4935 5.41146 12.569 5.59375 12.5742C5.78125 12.5794 5.9349 12.5195 6.05469 12.3945ZM14.1094 12.3945C14.2344 12.5143 14.388 12.5742 14.5703 12.5742C14.7526 12.569 14.9141 12.4935 15.0547 12.3477L16.4141 10.9883C16.5599 10.8424 16.6328 10.681 16.6328 10.5039C16.638 10.3268 16.5781 10.1758 16.4531 10.0508C16.3333 9.92578 16.1823 9.86589 16 9.87109C15.8229 9.87109 15.6615 9.94401 15.5156 10.0898L14.1562 11.4492C14.0104 11.5898 13.9349 11.7539 13.9297 11.9414C13.9245 12.1237 13.9844 12.2747 14.1094 12.3945ZM16.4766 16.8555H18.3984C18.6016 16.8555 18.7682 16.7956 18.8984 16.6758C19.0286 16.5508 19.0938 16.3997 19.0938 16.2227C19.0938 16.0508 19.0286 15.9023 18.8984 15.7773C18.7682 15.6523 18.6016 15.5898 18.3984 15.5898H16.4766C16.2786 15.5898 16.112 15.6523 15.9766 15.7773C15.8411 15.9023 15.7734 16.0508 15.7734 16.2227C15.7786 16.3997 15.8464 16.5508 15.9766 16.6758C16.112 16.7956 16.2786 16.8555 16.4766 16.8555ZM0.75 20.1523H19.4141C19.5964 20.1523 19.7552 20.0898 19.8906 19.9648C20.026 19.8451 20.0938 19.6992 20.0938 19.5273C20.0938 19.3555 20.026 19.207 19.8906 19.082C19.7552 18.9622 19.5964 18.9023 19.4141 18.9023H0.75C0.567708 18.9023 0.408854 18.9622 0.273438 19.082C0.138021 19.207 0.0703125 19.3555 0.0703125 19.5273C0.0703125 19.6992 0.138021 19.8451 0.273438 19.9648C0.408854 20.0898 0.567708 20.1523 0.75 20.1523ZM10.0859 3.84766C9.90885 3.84766 9.75781 3.91536 9.63281 4.05078C9.50781 4.1862 9.44531 4.35026 9.44531 4.54297V7.46484L9.53906 8.64453L9.03906 8.05859L7.98438 6.99609C7.92708 6.9388 7.86198 6.89453 7.78906 6.86328C7.71615 6.83203 7.64323 6.81641 7.57031 6.81641C7.41406 6.81641 7.28385 6.86589 7.17969 6.96484C7.08073 7.05859 7.03125 7.18359 7.03125 7.33984C7.03125 7.42318 7.04688 7.4987 7.07812 7.56641C7.10938 7.62891 7.15625 7.6888 7.21875 7.74609L9.65625 10.0195C9.80729 10.1549 9.95052 10.2227 10.0859 10.2227C10.2161 10.2227 10.3568 10.1549 10.5078 10.0195L12.9453 7.74609C13.0078 7.6888 13.0547 7.62891 13.0859 7.56641C13.1172 7.4987 13.1328 7.42318 13.1328 7.33984C13.1328 7.18359 13.0807 7.05859 12.9766 6.96484C12.8776 6.86589 12.75 6.81641 12.5938 6.81641C12.5208 6.81641 12.4479 6.83203 12.375 6.86328C12.3021 6.89453 12.237 6.9388 12.1797 6.99609L11.2031 7.98047L10.625 8.64453L10.7188 7.46484V4.54297C10.7188 4.35026 10.6562 4.1862 10.5312 4.05078C10.4062 3.91536 10.2578 3.84766 10.0859 3.84766Z"
		fill="currentColor"
	/>
</svg>
