<svg
	color="rgb(var(--foreground, 0, 0, 0))"
	viewBox="0 0 16 24"
	fill="none"
	xmlns="http://www.w3.org/2000/svg"
>
	<path
		d="M10.2648 13.2852C10.9732 13.2852 11.632 13.1107 12.2414 12.7617C12.856 12.4128 13.3924 11.9284 13.8508 11.3086C14.3143 10.6888 14.6737 9.97005 14.9289 9.15234C15.1893 8.32943 15.3195 7.44661 15.3195 6.50391C15.3195 5.76432 15.1971 5.07943 14.9523 4.44922C14.7075 3.81901 14.3586 3.26953 13.9055 2.80078C13.4575 2.33203 12.9237 1.96745 12.3039 1.70703C11.6893 1.44661 11.0096 1.31641 10.2648 1.31641C9.52004 1.31641 8.83775 1.44661 8.21796 1.70703C7.60337 1.96745 7.07212 2.33203 6.62421 2.80078C6.1815 3.26953 5.83775 3.81901 5.59296 4.44922C5.34816 5.07943 5.22577 5.76432 5.22577 6.50391C5.22577 7.44661 5.35337 8.32943 5.60858 9.15234C5.869 9.97005 6.22837 10.6888 6.68671 11.3086C7.14504 11.9284 7.67889 12.4128 8.28827 12.7617C8.89764 13.1107 9.5565 13.2852 10.2648 13.2852ZM9.17108 12.7461L8.80389 14.1523C8.76223 14.3086 8.78306 14.457 8.86639 14.5977C8.94973 14.7331 9.09035 14.8008 9.28827 14.8008H11.2492C11.4471 14.8008 11.5877 14.7331 11.6711 14.5977C11.7596 14.457 11.7805 14.3086 11.7336 14.1523L11.3586 12.7461H9.17108ZM3.33514 14.4258L3.00702 15.707C2.97056 15.8477 2.98879 15.9805 3.06171 16.1055C3.13462 16.2253 3.26223 16.2852 3.44452 16.2852H5.21796C5.40546 16.2852 5.53306 16.2253 5.60077 16.1055C5.67369 15.9805 5.69191 15.8477 5.65546 15.707L5.31952 14.4258H3.33514ZM10.1711 22.5742C10.3221 22.5742 10.4523 22.5169 10.5617 22.4023C10.6763 22.293 10.7336 22.1628 10.7336 22.0117C10.7336 21.5846 10.8117 21.2227 10.968 20.9258C11.1242 20.6289 11.3039 20.3529 11.507 20.0977C11.7101 19.8424 11.8898 19.5638 12.0461 19.2617C12.2075 18.9648 12.2883 18.6003 12.2883 18.168C12.2883 17.8138 12.2362 17.5091 12.132 17.2539C12.0331 16.9935 11.9081 16.7617 11.757 16.5586C11.606 16.3503 11.4549 16.1471 11.3039 15.9492C11.1581 15.7513 11.0357 15.5378 10.9367 15.3086C10.8377 15.0794 10.7909 14.8086 10.7961 14.4961L9.68671 14.5039C9.68671 14.9258 9.73619 15.2852 9.83514 15.582C9.9341 15.8789 10.0565 16.1367 10.2023 16.3555C10.3534 16.5742 10.5044 16.7747 10.6555 16.957C10.8065 17.1393 10.9315 17.3268 11.0305 17.5195C11.1346 17.707 11.1867 17.9232 11.1867 18.168C11.1867 18.418 11.132 18.6341 11.0226 18.8164C10.9185 19.0039 10.7883 19.1862 10.632 19.3633C10.481 19.5456 10.3273 19.7487 10.1711 19.9727C10.0148 20.2018 9.88462 20.4779 9.78046 20.8008C9.67629 21.1289 9.62421 21.5326 9.62421 22.0117C9.62421 22.1628 9.67629 22.293 9.78046 22.4023C9.88983 22.5169 10.02 22.5742 10.1711 22.5742ZM4.25702 22.6836C4.39764 22.6836 4.51744 22.6341 4.61639 22.5352C4.71535 22.4414 4.76483 22.3268 4.76483 22.1914C4.76483 21.8164 4.82994 21.5065 4.96014 21.2617C5.09556 21.0221 5.24921 20.8008 5.42108 20.5977C5.59296 20.3945 5.744 20.1706 5.87421 19.9258C6.00962 19.6862 6.07733 19.3815 6.07733 19.0117C6.07733 18.6159 6.01223 18.2982 5.88202 18.0586C5.75702 17.819 5.61119 17.6081 5.44452 17.4258C5.27785 17.2435 5.12941 17.0456 4.99921 16.832C4.87421 16.6133 4.81431 16.332 4.81952 15.9883H3.83514C3.82994 16.3633 3.869 16.6758 3.95233 16.9258C4.04087 17.1758 4.14764 17.3867 4.27264 17.5586C4.39764 17.7305 4.52264 17.8867 4.64764 18.0273C4.77785 18.168 4.88462 18.3138 4.96796 18.4648C5.0565 18.6159 5.10077 18.7982 5.10077 19.0117C5.10077 19.2721 5.03306 19.4857 4.89764 19.6523C4.76744 19.8242 4.61379 20.0039 4.43671 20.1914C4.26483 20.3789 4.11119 20.6263 3.97577 20.9336C3.84556 21.2409 3.78046 21.6602 3.78046 22.1914C3.78046 22.3268 3.82473 22.4414 3.91327 22.5352C4.00702 22.6341 4.1216 22.6836 4.25702 22.6836ZM0.288269 9.37891C0.288269 10.1497 0.39504 10.8737 0.608582 11.5508C0.822123 12.2279 1.119 12.8242 1.49921 13.3398C1.87941 13.8555 2.32212 14.2591 2.82733 14.5508C3.33775 14.8372 3.88983 14.9805 4.48358 14.9805C5.05129 14.9857 5.57994 14.8503 6.06952 14.5742C6.56431 14.2982 6.99921 13.9206 7.37421 13.4414C6.72316 12.9987 6.15546 12.4258 5.67108 11.7227C5.19191 11.0143 4.81952 10.2148 4.55389 9.32422C4.29348 8.43359 4.16327 7.49349 4.16327 6.50391C4.16327 6.2487 4.17629 5.9987 4.20233 5.75391C4.22837 5.50911 4.26483 5.26693 4.31171 5.02734C3.52525 5.05339 2.82994 5.25911 2.22577 5.64453C1.6216 6.02995 1.14764 6.54557 0.803894 7.19141C0.460144 7.83724 0.288269 8.56641 0.288269 9.37891Z"
		fill="currentColor"
	/>
</svg>
