<svg
	color="rgb(var(--foreground, 0, 0, 0))"
	viewBox="0 0 11 24"
	fill="none"
	xmlns="http://www.w3.org/2000/svg"
>
	<path
		d="M5.21014 13.3398C5.91848 13.3398 6.57733 13.1654 7.18671 12.8164C7.80129 12.4674 8.33775 11.9831 8.79608 11.3633C9.25441 10.7435 9.61119 10.0247 9.86639 9.20703C10.1268 8.38411 10.257 7.5013 10.257 6.55859C10.257 5.81901 10.1346 5.13411 9.88983 4.50391C9.65025 3.8737 9.30389 3.32422 8.85077 2.85547C8.40285 2.38672 7.869 2.02214 7.24921 1.76172C6.63462 1.5013 5.95494 1.37109 5.21014 1.37109C4.46535 1.37109 3.78306 1.5013 3.16327 1.76172C2.54869 2.02214 2.01744 2.38672 1.56952 2.85547C1.1216 3.32422 0.775248 3.8737 0.530457 4.50391C0.290873 5.13411 0.171082 5.81901 0.171082 6.55859C0.171082 7.5013 0.298686 8.38411 0.553894 9.20703C0.814311 10.0247 1.17369 10.7435 1.63202 11.3633C2.09035 11.9831 2.62421 12.4674 3.23358 12.8164C3.84296 13.1654 4.50181 13.3398 5.21014 13.3398ZM5.21014 12.168C4.66327 12.168 4.15546 12.0221 3.68671 11.7305C3.21796 11.4336 2.8091 11.0273 2.46014 10.5117C2.11119 9.99609 1.83775 9.39974 1.63983 8.72266C1.44712 8.04557 1.35077 7.32422 1.35077 6.55859C1.35077 5.8138 1.51483 5.13932 1.84296 4.53516C2.17108 3.92578 2.62421 3.44401 3.20233 3.08984C3.78566 2.73047 4.45494 2.55078 5.21014 2.55078C5.96535 2.55078 6.63202 2.73047 7.21014 3.08984C7.79348 3.44401 8.25181 3.92578 8.58514 4.53516C8.91848 5.13932 9.08514 5.8138 9.08514 6.55859C9.08514 7.32422 8.98619 8.04557 8.78827 8.72266C8.59035 9.39974 8.31431 9.99609 7.96014 10.5117C7.60598 11.0273 7.19452 11.4336 6.72577 11.7305C6.25702 12.0221 5.75181 12.168 5.21014 12.168ZM4.11639 12.8008L3.74921 14.207C3.70233 14.3633 3.72056 14.5117 3.80389 14.6523C3.89244 14.7878 4.03566 14.8555 4.23358 14.8555H6.19452C6.39244 14.8555 6.53306 14.7878 6.61639 14.6523C6.69973 14.5117 6.72056 14.3633 6.67889 14.207L6.29608 12.8008H4.11639ZM5.11639 22.6289C5.26744 22.6289 5.39764 22.5716 5.50702 22.457C5.61639 22.3477 5.67108 22.2174 5.67108 22.0664C5.67108 21.6393 5.74921 21.2773 5.90546 20.9805C6.06171 20.6836 6.24139 20.4076 6.44452 20.1523C6.65285 19.8971 6.83514 19.6185 6.99139 19.3164C7.14764 19.0195 7.22577 18.6549 7.22577 18.2227C7.22577 17.8685 7.17369 17.5638 7.06952 17.3086C6.97056 17.0482 6.84556 16.8164 6.69452 16.6133C6.54869 16.4049 6.40025 16.2018 6.24921 16.0039C6.10337 15.806 5.98098 15.5924 5.88202 15.3633C5.78306 15.1341 5.73619 14.8633 5.74139 14.5508H4.63202C4.62681 14.9779 4.67369 15.3398 4.77264 15.6367C4.87681 15.9336 5.00181 16.1914 5.14764 16.4102C5.29869 16.6289 5.44712 16.8294 5.59296 17.0117C5.744 17.194 5.869 17.3815 5.96796 17.5742C6.07212 17.7617 6.12421 17.9779 6.12421 18.2227C6.12421 18.4727 6.07212 18.6888 5.96796 18.8711C5.86379 19.0586 5.73358 19.2409 5.57733 19.418C5.42108 19.6003 5.26483 19.8034 5.10858 20.0273C4.95754 20.2565 4.82733 20.5326 4.71796 20.8555C4.61379 21.1836 4.56171 21.5872 4.56171 22.0664C4.56171 22.2174 4.61639 22.3477 4.72577 22.457C4.83514 22.5716 4.96535 22.6289 5.11639 22.6289Z"
		fill="currentColor"
	/>
</svg>
