<svg
	color="rgb(var(--foreground, 0, 0, 0))"
	viewBox="0 0 21 24"
	fill="none"
	xmlns="http://www.w3.org/2000/svg"
>
	<path
		d="M2.02344 11.6484C2.39323 11.6484 2.73177 11.5573 3.03906 11.375C3.34635 11.1927 3.58854 10.9479 3.76562 10.6406C3.94792 10.3333 4.03906 9.99219 4.03906 9.61719C4.03906 9.2526 3.94792 8.91927 3.76562 8.61719C3.58854 8.3099 3.34635 8.0651 3.03906 7.88281C2.73177 7.69531 2.39323 7.60156 2.02344 7.60156C1.65365 7.60156 1.3151 7.69271 1.00781 7.875C0.700521 8.05729 0.455729 8.30208 0.273438 8.60938C0.0911458 8.91146 0 9.2474 0 9.61719C0 9.99219 0.0911458 10.3333 0.273438 10.6406C0.455729 10.9479 0.700521 11.1927 1.00781 11.375C1.3151 11.5573 1.65365 11.6484 2.02344 11.6484ZM2.02344 10.4297C1.80469 10.4297 1.61458 10.3516 1.45312 10.1953C1.29688 10.0339 1.21875 9.84115 1.21875 9.61719C1.21875 9.39844 1.29688 9.21094 1.45312 9.05469C1.61458 8.89844 1.80469 8.82031 2.02344 8.82031C2.24219 8.82031 2.42969 8.90104 2.58594 9.0625C2.74219 9.21875 2.82031 9.40365 2.82031 9.61719C2.82031 9.84115 2.74219 10.0339 2.58594 10.1953C2.4349 10.3516 2.2474 10.4297 2.02344 10.4297ZM10.0234 8.39844C10.3932 8.39844 10.7292 8.30729 11.0312 8.125C11.3385 7.94271 11.5833 7.70052 11.7656 7.39844C11.9479 7.09115 12.0391 6.75 12.0391 6.375C12.0391 6.00521 11.9479 5.66927 11.7656 5.36719C11.5833 5.0599 11.3385 4.8151 11.0312 4.63281C10.7292 4.45052 10.3932 4.35938 10.0234 4.35938C9.64844 4.35938 9.30729 4.45052 9 4.63281C8.69271 4.8151 8.44792 5.0599 8.26562 5.36719C8.08854 5.66927 8 6.00521 8 6.375C8 6.75 8.09115 7.09115 8.27344 7.39844C8.45573 7.70052 8.70052 7.94271 9.00781 8.125C9.3151 8.30729 9.65365 8.39844 10.0234 8.39844ZM10.0234 7.17969C9.80469 7.17969 9.61458 7.10156 9.45312 6.94531C9.29688 6.78385 9.21875 6.59375 9.21875 6.375C9.21875 6.15104 9.29688 5.96354 9.45312 5.8125C9.61458 5.65625 9.80469 5.57812 10.0234 5.57812C10.237 5.57812 10.4219 5.65885 10.5781 5.82031C10.7396 5.97656 10.8203 6.16146 10.8203 6.375C10.8203 6.59375 10.7422 6.78385 10.5859 6.94531C10.4349 7.10156 10.2474 7.17969 10.0234 7.17969ZM18.0156 11.6484C18.3854 11.6484 18.724 11.5573 19.0312 11.375C19.3385 11.1927 19.5833 10.9479 19.7656 10.6406C19.9479 10.3333 20.0391 9.99219 20.0391 9.61719C20.0391 9.2474 19.9479 8.91146 19.7656 8.60938C19.5833 8.30208 19.3385 8.05729 19.0312 7.875C18.724 7.69271 18.3854 7.60156 18.0156 7.60156C17.6458 7.60156 17.3073 7.69531 17 7.88281C16.6927 8.0651 16.4479 8.3099 16.2656 8.61719C16.0885 8.91927 16 9.2526 16 9.61719C16 9.99219 16.0885 10.3333 16.2656 10.6406C16.4479 10.9479 16.6927 11.1927 17 11.375C17.3073 11.5573 17.6458 11.6484 18.0156 11.6484ZM18.0156 10.4297C17.7917 10.4297 17.6016 10.3516 17.4453 10.1953C17.2943 10.0339 17.2188 9.84115 17.2188 9.61719C17.2188 9.40365 17.2969 9.21875 17.4531 9.0625C17.6094 8.90104 17.7969 8.82031 18.0156 8.82031C18.2344 8.82031 18.4219 8.89844 18.5781 9.05469C18.7396 9.21094 18.8203 9.39844 18.8203 9.61719C18.8203 9.84115 18.7396 10.0339 18.5781 10.1953C18.4219 10.3516 18.2344 10.4297 18.0156 10.4297ZM2.95312 11.1328L5.42969 12.6562C5.67969 12.8125 5.98438 12.875 6.34375 12.8438C6.70312 12.8125 7.01302 12.625 7.27344 12.2812L10.2266 8.32031L9.10938 7.84375L6.41406 11.4609C6.34115 11.5599 6.26302 11.6198 6.17969 11.6406C6.09635 11.6562 5.98958 11.6224 5.85938 11.5391L3.57812 10.1328L2.95312 11.1328ZM17.0859 11.125L16.4609 10.125L14.1953 11.5156C14.0547 11.6042 13.9401 11.638 13.8516 11.6172C13.763 11.5964 13.6797 11.5339 13.6016 11.4297L10.9297 7.82812L9.82031 8.3125L12.7812 12.2891C13.0312 12.6276 13.3333 12.8125 13.6875 12.8438C14.0417 12.875 14.3307 12.8203 14.5547 12.6797L17.0859 11.125ZM3.9375 16.8594H16.1094V15.6797H3.9375V16.8594ZM1.98438 11.3047L3.57812 17.7969C3.72917 18.4115 3.97656 18.8724 4.32031 19.1797C4.66927 19.487 5.16667 19.6406 5.8125 19.6406H14.2266C14.8724 19.6406 15.3698 19.487 15.7188 19.1797C16.0677 18.8724 16.3177 18.4115 16.4688 17.7969L18.0625 11.3047L16.9609 10.8047L15.2969 17.6484C15.1615 18.1901 14.8099 18.4609 14.2422 18.4609H5.80469C5.23177 18.4609 4.88021 18.1901 4.75 17.6484L3.07812 10.8047L1.98438 11.3047Z"
		fill="currentColor"
	/>
</svg>
