<svg
	color="rgb(var(--foreground, 0, 0, 0))"
	viewBox="0 0 20 24"
	fill="none"
	xmlns="http://www.w3.org/2000/svg"
>
	<path
		d="M3.06958 19.6719H17.2649C17.7805 19.6719 18.2102 19.5833 18.554 19.4062C18.9029 19.2344 19.1633 18.9766 19.3352 18.6328C19.5071 18.2943 19.593 17.8724 19.593 17.3672V6.63281C19.593 6.1276 19.5071 5.70573 19.3352 5.36719C19.1633 5.02344 18.9029 4.76562 18.554 4.59375C18.2102 4.41667 17.7805 4.32812 17.2649 4.32812H3.06958C2.55396 4.32812 2.12427 4.41667 1.78052 4.59375C1.43677 4.76562 1.17635 5.02344 0.999268 5.36719C0.827393 5.70573 0.741455 6.1276 0.741455 6.63281V17.3672C0.741455 17.8724 0.827393 18.2943 0.999268 18.6328C1.17635 18.9766 1.43677 19.2344 1.78052 19.4062C2.12427 19.5833 2.55396 19.6719 3.06958 19.6719ZM3.07739 18.4141C2.73364 18.4141 2.46802 18.3177 2.28052 18.125C2.09302 17.9375 1.99927 17.6641 1.99927 17.3047V6.69531C1.99927 6.33594 2.09302 6.0625 2.28052 5.875C2.46802 5.68229 2.73364 5.58594 3.07739 5.58594H17.2571C17.6008 5.58594 17.8665 5.68229 18.054 5.875C18.2415 6.0625 18.3352 6.33594 18.3352 6.69531V17.3047C18.3352 17.6641 18.2415 17.9375 18.054 18.125C17.8665 18.3177 17.6008 18.4141 17.2571 18.4141H3.07739ZM5.77271 11.4062C6.205 11.4062 6.59823 11.3021 6.95239 11.0938C7.30656 10.8802 7.58781 10.5964 7.79614 10.2422C8.00968 9.88802 8.11646 9.49479 8.11646 9.0625C8.11646 8.63542 8.00968 8.24479 7.79614 7.89062C7.58781 7.53646 7.30656 7.2526 6.95239 7.03906C6.59823 6.82552 6.205 6.71875 5.77271 6.71875C5.34562 6.71875 4.955 6.82552 4.60083 7.03906C4.24666 7.2526 3.96281 7.53646 3.74927 7.89062C3.53573 8.24479 3.42896 8.63542 3.42896 9.0625C3.42896 9.49479 3.53573 9.88802 3.74927 10.2422C3.96281 10.5964 4.24666 10.8802 4.60083 11.0938C4.955 11.3021 5.34562 11.4062 5.77271 11.4062ZM5.77271 10.6641C5.33521 10.6641 4.96021 10.5078 4.64771 10.1953C4.33521 9.88281 4.17896 9.50521 4.17896 9.0625C4.17896 8.61979 4.33521 8.24219 4.64771 7.92969C4.96021 7.61719 5.33521 7.46094 5.77271 7.46094C6.21541 7.46094 6.59302 7.61719 6.90552 7.92969C7.21802 8.24219 7.37427 8.61979 7.37427 9.0625C7.37427 9.50521 7.21802 9.88281 6.90552 10.1953C6.59302 10.5078 6.21541 10.6641 5.77271 10.6641ZM5.77271 10.2969C6.12166 10.2969 6.41333 10.1797 6.64771 9.94531C6.88208 9.70573 6.99927 9.41146 6.99927 9.0625C6.99927 8.71875 6.88208 8.42969 6.64771 8.19531C6.41333 7.95573 6.12166 7.83594 5.77271 7.83594C5.42896 7.83594 5.13729 7.95573 4.89771 8.19531C4.66333 8.42969 4.54614 8.71875 4.54614 9.0625C4.54614 9.41146 4.66333 9.70573 4.89771 9.94531C5.13729 10.1797 5.42896 10.2969 5.77271 10.2969ZM11.8274 11.4062C12.2545 11.4062 12.6451 11.3021 12.9993 11.0938C13.3534 10.8802 13.6347 10.5964 13.843 10.2422C14.0566 9.88802 14.1633 9.49479 14.1633 9.0625C14.1633 8.63542 14.0566 8.24479 13.843 7.89062C13.6347 7.53646 13.3534 7.2526 12.9993 7.03906C12.6451 6.82552 12.2545 6.71875 11.8274 6.71875C11.3951 6.71875 11.0019 6.82552 10.6477 7.03906C10.2935 7.2526 10.0097 7.53646 9.79614 7.89062C9.58781 8.24479 9.48364 8.63542 9.48364 9.0625C9.48364 9.49479 9.58781 9.88802 9.79614 10.2422C10.0097 10.5964 10.2935 10.8802 10.6477 11.0938C11.0019 11.3021 11.3951 11.4062 11.8274 11.4062ZM11.8274 10.6641C11.3847 10.6641 11.0071 10.5078 10.6946 10.1953C10.3821 9.88281 10.2258 9.50521 10.2258 9.0625C10.2258 8.61979 10.3821 8.24219 10.6946 7.92969C11.0071 7.61719 11.3847 7.46094 11.8274 7.46094C12.2649 7.46094 12.6399 7.61719 12.9524 7.92969C13.2649 8.24219 13.4211 8.61979 13.4211 9.0625C13.4211 9.50521 13.2649 9.88281 12.9524 10.1953C12.6399 10.5078 12.2649 10.6641 11.8274 10.6641ZM11.8274 10.2969C12.1711 10.2969 12.4602 10.1797 12.6946 9.94531C12.9342 9.70573 13.054 9.41146 13.054 9.0625C13.054 8.71875 12.9342 8.42969 12.6946 8.19531C12.4602 7.95573 12.1711 7.83594 11.8274 7.83594C11.4784 7.83594 11.1842 7.95573 10.9446 8.19531C10.7102 8.42969 10.593 8.71875 10.593 9.0625C10.593 9.41146 10.7102 9.70573 10.9446 9.94531C11.1842 10.1797 11.4784 10.2969 11.8274 10.2969ZM5.77271 17.2578C6.205 17.2578 6.59823 17.1536 6.95239 16.9453C7.30656 16.7318 7.58781 16.4479 7.79614 16.0938C8.00968 15.7396 8.11646 15.3464 8.11646 14.9141C8.11646 14.487 8.00968 14.0964 7.79614 13.7422C7.58781 13.388 7.30656 13.1068 6.95239 12.8984C6.59823 12.6849 6.205 12.5781 5.77271 12.5781C5.34562 12.5781 4.955 12.6849 4.60083 12.8984C4.24666 13.1068 3.96281 13.388 3.74927 13.7422C3.53573 14.0964 3.42896 14.487 3.42896 14.9141C3.42896 15.3464 3.53573 15.7396 3.74927 16.0938C3.96281 16.4479 4.24666 16.7318 4.60083 16.9453C4.955 17.1536 5.34562 17.2578 5.77271 17.2578ZM5.77271 16.5156C5.33521 16.5156 4.96021 16.3594 4.64771 16.0469C4.33521 15.7344 4.17896 15.3568 4.17896 14.9141C4.17896 14.4766 4.33521 14.1016 4.64771 13.7891C4.96021 13.4766 5.33521 13.3203 5.77271 13.3203C6.21541 13.3203 6.59302 13.4766 6.90552 13.7891C7.21802 14.1016 7.37427 14.4766 7.37427 14.9141C7.37427 15.3568 7.21802 15.7344 6.90552 16.0469C6.59302 16.3594 6.21541 16.5156 5.77271 16.5156ZM5.77271 16.1484C6.12166 16.1484 6.41333 16.0312 6.64771 15.7969C6.88208 15.5573 6.99927 15.263 6.99927 14.9141C6.99927 14.5703 6.88208 14.2812 6.64771 14.0469C6.41333 13.8073 6.12166 13.6875 5.77271 13.6875C5.42896 13.6875 5.13729 13.8073 4.89771 14.0469C4.66333 14.2812 4.54614 14.5703 4.54614 14.9141C4.54614 15.263 4.66333 15.5573 4.89771 15.7969C5.13729 16.0312 5.42896 16.1484 5.77271 16.1484ZM11.8274 17.2578C12.2545 17.2578 12.6451 17.1536 12.9993 16.9453C13.3534 16.7318 13.6347 16.4479 13.843 16.0938C14.0566 15.7396 14.1633 15.3464 14.1633 14.9141C14.1633 14.487 14.0566 14.0964 13.843 13.7422C13.6347 13.388 13.3534 13.1068 12.9993 12.8984C12.6451 12.6849 12.2545 12.5781 11.8274 12.5781C11.3951 12.5781 11.0019 12.6849 10.6477 12.8984C10.2935 13.1068 10.0097 13.388 9.79614 13.7422C9.58781 14.0964 9.48364 14.487 9.48364 14.9141C9.48364 15.3464 9.58781 15.7396 9.79614 16.0938C10.0097 16.4479 10.2935 16.7318 10.6477 16.9453C11.0019 17.1536 11.3951 17.2578 11.8274 17.2578ZM11.8274 16.5156C11.3847 16.5156 11.0071 16.3594 10.6946 16.0469C10.3821 15.7344 10.2258 15.3568 10.2258 14.9141C10.2258 14.4766 10.3821 14.1016 10.6946 13.7891C11.0071 13.4766 11.3847 13.3203 11.8274 13.3203C12.2649 13.3203 12.6399 13.4766 12.9524 13.7891C13.2649 14.1016 13.4211 14.4766 13.4211 14.9141C13.4211 15.3568 13.2649 15.7344 12.9524 16.0469C12.6399 16.3594 12.2649 16.5156 11.8274 16.5156ZM11.8274 16.1484C12.1711 16.1484 12.4602 16.0312 12.6946 15.7969C12.9342 15.5573 13.054 15.263 13.054 14.9141C13.054 14.5703 12.9342 14.2812 12.6946 14.0469C12.4602 13.8073 12.1711 13.6875 11.8274 13.6875C11.4784 13.6875 11.1842 13.8073 10.9446 14.0469C10.7102 14.2812 10.593 14.5703 10.593 14.9141C10.593 15.263 10.7102 15.5573 10.9446 15.7969C11.1842 16.0312 11.4784 16.1484 11.8274 16.1484ZM16.5618 9.3125C16.7545 9.3125 16.9159 9.2474 17.0461 9.11719C17.1764 8.98177 17.2415 8.81771 17.2415 8.625C17.2415 8.4375 17.1764 8.27865 17.0461 8.14844C16.9159 8.01302 16.7545 7.94531 16.5618 7.94531C16.3743 7.94531 16.2128 8.01302 16.0774 8.14844C15.942 8.27865 15.8743 8.4375 15.8743 8.625C15.8743 8.81771 15.942 8.98177 16.0774 9.11719C16.2128 9.2474 16.3743 9.3125 16.5618 9.3125ZM16.5618 11.5547C16.7545 11.5547 16.9159 11.4896 17.0461 11.3594C17.1764 11.224 17.2415 11.0599 17.2415 10.8672C17.2415 10.6797 17.1764 10.5208 17.0461 10.3906C16.9159 10.2552 16.7545 10.1875 16.5618 10.1875C16.3743 10.1875 16.2128 10.2552 16.0774 10.3906C15.942 10.5208 15.8743 10.6797 15.8743 10.8672C15.8743 11.0599 15.942 11.224 16.0774 11.3594C16.2128 11.4896 16.3743 11.5547 16.5618 11.5547ZM16.5618 13.8047C16.7545 13.8047 16.9159 13.737 17.0461 13.6016C17.1764 13.4661 17.2415 13.3047 17.2415 13.1172C17.2415 12.9245 17.1764 12.763 17.0461 12.6328C16.9159 12.5026 16.7545 12.4375 16.5618 12.4375C16.3743 12.4375 16.2128 12.5026 16.0774 12.6328C15.942 12.763 15.8743 12.9245 15.8743 13.1172C15.8743 13.3047 15.942 13.4661 16.0774 13.6016C16.2128 13.737 16.3743 13.8047 16.5618 13.8047ZM16.5618 16.0469C16.7545 16.0469 16.9159 15.9818 17.0461 15.8516C17.1764 15.7161 17.2415 15.5521 17.2415 15.3594C17.2415 15.1719 17.1764 15.013 17.0461 14.8828C16.9159 14.7474 16.7545 14.6797 16.5618 14.6797C16.3743 14.6797 16.2128 14.7474 16.0774 14.8828C15.942 15.013 15.8743 15.1719 15.8743 15.3594C15.8743 15.5521 15.942 15.7161 16.0774 15.8516C16.2128 15.9818 16.3743 16.0469 16.5618 16.0469Z"
		fill="currentColor"
	/>
</svg>
