<svg
	color="rgb(var(--foreground, 0, 0, 0))"
	viewBox="0 0 20 24"
	fill="none"
	xmlns="http://www.w3.org/2000/svg"
>
	<path
		d="M2.74927 19.6719H16.9446C17.4602 19.6719 17.8899 19.5833 18.2336 19.4062C18.5826 19.2344 18.843 18.9766 19.0149 18.6328C19.1868 18.2943 19.2727 17.8724 19.2727 17.3672V6.63281C19.2727 6.1276 19.1868 5.70573 19.0149 5.36719C18.843 5.02344 18.5826 4.76562 18.2336 4.59375C17.8899 4.41667 17.4602 4.32812 16.9446 4.32812H2.74927C2.23364 4.32812 1.80396 4.41667 1.46021 4.59375C1.11646 4.76562 0.856038 5.02344 0.678955 5.36719C0.50708 5.70573 0.421143 6.1276 0.421143 6.63281V17.3672C0.421143 17.8724 0.50708 18.2943 0.678955 18.6328C0.856038 18.9766 1.11646 19.2344 1.46021 19.4062C1.80396 19.5833 2.23364 19.6719 2.74927 19.6719ZM5.22583 11.3906C4.78312 11.3906 4.37948 11.2812 4.01489 11.0625C3.65031 10.8438 3.35864 10.5521 3.13989 10.1875C2.92114 9.81771 2.81177 9.41146 2.81177 8.96875C2.81177 8.52604 2.92114 8.1224 3.13989 7.75781C3.35864 7.38802 3.65031 7.09375 4.01489 6.875C4.37948 6.65625 4.78312 6.54688 5.22583 6.54688C5.67375 6.54688 6.08 6.65625 6.44458 6.875C6.80916 7.09375 7.10083 7.38802 7.31958 7.75781C7.53833 8.1224 7.64771 8.52604 7.64771 8.96875C7.64771 9.41146 7.53833 9.81771 7.31958 10.1875C7.10083 10.5521 6.80916 10.8438 6.44458 11.0625C6.08 11.2812 5.67375 11.3906 5.22583 11.3906ZM11.4758 11.3906C11.0331 11.3906 10.6269 11.2812 10.2571 11.0625C9.8925 10.8438 9.60083 10.5521 9.38208 10.1875C9.16333 9.81771 9.05396 9.41146 9.05396 8.96875C9.05396 8.52604 9.16333 8.1224 9.38208 7.75781C9.60083 7.38802 9.8925 7.09375 10.2571 6.875C10.6269 6.65625 11.0331 6.54688 11.4758 6.54688C11.9185 6.54688 12.3222 6.65625 12.6868 6.875C13.0566 7.09375 13.3482 7.38802 13.5618 7.75781C13.7805 8.1224 13.8899 8.52604 13.8899 8.96875C13.8899 9.41146 13.7805 9.81771 13.5618 10.1875C13.3482 10.5521 13.0566 10.8438 12.6868 11.0625C12.3222 11.2812 11.9185 11.3906 11.4758 11.3906ZM5.22583 17.4297C4.78312 17.4297 4.37948 17.3203 4.01489 17.1016C3.65031 16.8828 3.35864 16.5911 3.13989 16.2266C2.92114 15.862 2.81177 15.4557 2.81177 15.0078C2.81177 14.5651 2.92114 14.1615 3.13989 13.7969C3.35864 13.4323 3.65031 13.1406 4.01489 12.9219C4.37948 12.7031 4.78312 12.5938 5.22583 12.5938C5.67375 12.5938 6.08 12.7031 6.44458 12.9219C6.80916 13.1406 7.10083 13.4323 7.31958 13.7969C7.53833 14.1615 7.64771 14.5651 7.64771 15.0078C7.64771 15.4557 7.53833 15.862 7.31958 16.2266C7.10083 16.5911 6.80916 16.8828 6.44458 17.1016C6.08 17.3203 5.67375 17.4297 5.22583 17.4297ZM11.4758 17.4297C11.0331 17.4297 10.6269 17.3203 10.2571 17.1016C9.8925 16.8828 9.60083 16.5911 9.38208 16.2266C9.16333 15.862 9.05396 15.4557 9.05396 15.0078C9.05396 14.5651 9.16333 14.1615 9.38208 13.7969C9.60083 13.4323 9.8925 13.1406 10.2571 12.9219C10.6269 12.7031 11.0331 12.5938 11.4758 12.5938C11.9185 12.5938 12.3222 12.7031 12.6868 12.9219C13.0566 13.1406 13.3482 13.4323 13.5618 13.7969C13.7805 14.1615 13.8899 14.5651 13.8899 15.0078C13.8899 15.4557 13.7805 15.862 13.5618 16.2266C13.3482 16.5911 13.0566 16.8828 12.6868 17.1016C12.3222 17.3203 11.9185 17.4297 11.4758 17.4297ZM16.4446 9.22656C16.2467 9.22656 16.0774 9.15885 15.9368 9.02344C15.8014 8.88802 15.7336 8.71875 15.7336 8.51562C15.7336 8.32292 15.8014 8.15885 15.9368 8.02344C16.0774 7.88281 16.2467 7.8125 16.4446 7.8125C16.6373 7.8125 16.8014 7.88281 16.9368 8.02344C17.0774 8.15885 17.1477 8.32292 17.1477 8.51562C17.1477 8.71875 17.0774 8.88802 16.9368 9.02344C16.8014 9.15885 16.6373 9.22656 16.4446 9.22656ZM16.4446 11.5391C16.2467 11.5391 16.0774 11.4714 15.9368 11.3359C15.8014 11.2005 15.7336 11.0312 15.7336 10.8281C15.7336 10.6406 15.8014 10.4766 15.9368 10.3359C16.0774 10.1953 16.2467 10.125 16.4446 10.125C16.6373 10.125 16.8014 10.1953 16.9368 10.3359C17.0774 10.4766 17.1477 10.6406 17.1477 10.8281C17.1477 11.0312 17.0774 11.2005 16.9368 11.3359C16.8014 11.4714 16.6373 11.5391 16.4446 11.5391ZM16.4446 13.8672C16.2467 13.8672 16.0774 13.7969 15.9368 13.6562C15.8014 13.5156 15.7336 13.349 15.7336 13.1562C15.7336 12.9583 15.8014 12.7917 15.9368 12.6562C16.0774 12.5208 16.2467 12.4531 16.4446 12.4531C16.6373 12.4531 16.8014 12.5208 16.9368 12.6562C17.0774 12.7917 17.1477 12.9583 17.1477 13.1562C17.1477 13.349 17.0774 13.5156 16.9368 13.6562C16.8014 13.7969 16.6373 13.8672 16.4446 13.8672ZM16.4446 16.1797C16.2467 16.1797 16.0774 16.1094 15.9368 15.9688C15.8014 15.8281 15.7336 15.6615 15.7336 15.4688C15.7336 15.2708 15.8014 15.1042 15.9368 14.9688C16.0774 14.8333 16.2467 14.7656 16.4446 14.7656C16.6373 14.7656 16.8014 14.8333 16.9368 14.9688C17.0774 15.1042 17.1477 15.2708 17.1477 15.4688C17.1477 15.6615 17.0774 15.8281 16.9368 15.9688C16.8014 16.1094 16.6373 16.1797 16.4446 16.1797ZM5.22583 10.6172C5.68416 10.6172 6.07479 10.4583 6.39771 10.1406C6.72062 9.81771 6.88208 9.42708 6.88208 8.96875C6.88208 8.51042 6.72062 8.1224 6.39771 7.80469C6.07479 7.48177 5.68416 7.32031 5.22583 7.32031C4.77271 7.32031 4.38468 7.48177 4.06177 7.80469C3.74406 8.1224 3.58521 8.51042 3.58521 8.96875C3.58521 9.42708 3.74406 9.81771 4.06177 10.1406C4.38468 10.4583 4.77271 10.6172 5.22583 10.6172ZM5.22583 10.2422C4.87166 10.2422 4.57218 10.1198 4.32739 9.875C4.08781 9.63021 3.96802 9.32812 3.96802 8.96875C3.96802 8.60938 4.08781 8.3099 4.32739 8.07031C4.57218 7.82552 4.87166 7.70312 5.22583 7.70312C5.58521 7.70312 5.88468 7.82552 6.12427 8.07031C6.36906 8.3099 6.49146 8.60938 6.49146 8.96875C6.49146 9.32812 6.36906 9.63021 6.12427 9.875C5.88468 10.1198 5.58521 10.2422 5.22583 10.2422ZM11.4758 10.6172C11.929 10.6172 12.317 10.4583 12.6399 10.1406C12.9628 9.81771 13.1243 9.42708 13.1243 8.96875C13.1243 8.51042 12.9628 8.1224 12.6399 7.80469C12.317 7.48177 11.929 7.32031 11.4758 7.32031C11.0227 7.32031 10.6347 7.48177 10.3118 7.80469C9.98885 8.1224 9.82739 8.51042 9.82739 8.96875C9.82739 9.42708 9.98885 9.81771 10.3118 10.1406C10.6347 10.4583 11.0227 10.6172 11.4758 10.6172ZM11.4758 10.2422C11.1165 10.2422 10.8144 10.1198 10.5696 9.875C10.3248 9.63021 10.2024 9.32812 10.2024 8.96875C10.2024 8.60938 10.3248 8.3099 10.5696 8.07031C10.8144 7.82552 11.1165 7.70312 11.4758 7.70312C11.83 7.70312 12.1295 7.82552 12.3743 8.07031C12.6191 8.3099 12.7415 8.60938 12.7415 8.96875C12.7415 9.32812 12.6191 9.63021 12.3743 9.875C12.1295 10.1198 11.83 10.2422 11.4758 10.2422ZM5.22583 16.6562C5.68416 16.6562 6.07479 16.4974 6.39771 16.1797C6.72062 15.8568 6.88208 15.4661 6.88208 15.0078C6.88208 14.5547 6.72062 14.1693 6.39771 13.8516C6.07479 13.5286 5.68416 13.3672 5.22583 13.3672C4.77271 13.3672 4.38468 13.5286 4.06177 13.8516C3.74406 14.1693 3.58521 14.5547 3.58521 15.0078C3.58521 15.4661 3.74406 15.8568 4.06177 16.1797C4.38468 16.4974 4.77271 16.6562 5.22583 16.6562ZM5.22583 16.2812C4.87166 16.2812 4.57218 16.1589 4.32739 15.9141C4.08781 15.6693 3.96802 15.3672 3.96802 15.0078C3.96802 14.6536 4.08781 14.3542 4.32739 14.1094C4.57218 13.8646 4.87166 13.7422 5.22583 13.7422C5.58521 13.7422 5.88468 13.8646 6.12427 14.1094C6.36906 14.3542 6.49146 14.6536 6.49146 15.0078C6.49146 15.3672 6.36906 15.6693 6.12427 15.9141C5.88468 16.1589 5.58521 16.2812 5.22583 16.2812ZM11.4758 16.6562C11.929 16.6562 12.317 16.4974 12.6399 16.1797C12.9628 15.8568 13.1243 15.4661 13.1243 15.0078C13.1243 14.5547 12.9628 14.1693 12.6399 13.8516C12.317 13.5286 11.929 13.3672 11.4758 13.3672C11.0227 13.3672 10.6347 13.5286 10.3118 13.8516C9.98885 14.1693 9.82739 14.5547 9.82739 15.0078C9.82739 15.4661 9.98885 15.8568 10.3118 16.1797C10.6347 16.4974 11.0227 16.6562 11.4758 16.6562ZM11.4758 16.2812C11.1165 16.2812 10.8144 16.1589 10.5696 15.9141C10.3248 15.6693 10.2024 15.3672 10.2024 15.0078C10.2024 14.6536 10.3248 14.3542 10.5696 14.1094C10.8144 13.8646 11.1165 13.7422 11.4758 13.7422C11.83 13.7422 12.1295 13.8646 12.3743 14.1094C12.6191 14.3542 12.7415 14.6536 12.7415 15.0078C12.7415 15.3672 12.6191 15.6693 12.3743 15.9141C12.1295 16.1589 11.83 16.2812 11.4758 16.2812Z"
		fill="currentColor"
	/>
</svg>
