<svg
	color="rgb(var(--foreground, 0, 0, 0))"
	viewBox="0 0 19 24"
	fill="none"
	xmlns="http://www.w3.org/2000/svg"
>
	<path
		d="M2.10864 18.0391H16.9758C17.5279 18.0391 17.9706 17.8724 18.304 17.5391C18.6425 17.2005 18.8118 16.7552 18.8118 16.2031V7.79688C18.8118 7.24479 18.6425 6.80208 18.304 6.46875C17.9706 6.13021 17.5279 5.96094 16.9758 5.96094H2.10864C1.55656 5.96094 1.11125 6.13021 0.772705 6.46875C0.439372 6.80208 0.272705 7.24479 0.272705 7.79688V16.2031C0.272705 16.7552 0.439372 17.2005 0.772705 17.5391C1.11125 17.8724 1.55656 18.0391 2.10864 18.0391ZM2.12427 16.7812C1.94718 16.7812 1.80396 16.724 1.69458 16.6094C1.58521 16.4896 1.53052 16.3359 1.53052 16.1484V7.85156C1.53052 7.66406 1.58521 7.51302 1.69458 7.39844C1.80396 7.27865 1.94718 7.21875 2.12427 7.21875H16.9602C17.1425 7.21875 17.2857 7.27865 17.3899 7.39844C17.4993 7.51302 17.554 7.66406 17.554 7.85156V16.1484C17.554 16.3359 17.4993 16.4896 17.3899 16.6094C17.2857 16.724 17.1425 16.7812 16.9602 16.7812H2.12427ZM3.18677 15.8594H10.8743C11.0982 15.8594 11.2753 15.7943 11.4055 15.6641C11.5409 15.5286 11.6086 15.349 11.6086 15.125V8.875C11.6086 8.65104 11.5409 8.47396 11.4055 8.34375C11.2753 8.20833 11.0982 8.14062 10.8743 8.14062H3.18677C2.96281 8.14062 2.78312 8.20833 2.64771 8.34375C2.5175 8.47396 2.45239 8.65104 2.45239 8.875V15.125C2.45239 15.349 2.5175 15.5286 2.64771 15.6641C2.78312 15.7943 2.96281 15.8594 3.18677 15.8594ZM3.53052 14.9922C3.38989 14.9922 3.31958 14.9219 3.31958 14.7812V9.21875C3.31958 9.07812 3.38989 9.00781 3.53052 9.00781H10.5305C10.6711 9.00781 10.7415 9.07812 10.7415 9.21875V14.7812C10.7415 14.9219 10.6711 14.9922 10.5305 14.9922H3.53052ZM12.6165 17.3672H13.4836V6.625H12.6165V17.3672ZM13.093 14.7734H18.1946V13.9062H13.093V14.7734ZM14.3899 9.66406H16.6477C16.6894 9.66406 16.7232 9.65104 16.7493 9.625C16.7805 9.59375 16.7961 9.5599 16.7961 9.52344V8.28906C16.7961 8.2474 16.7805 8.21354 16.7493 8.1875C16.7232 8.15625 16.6894 8.14062 16.6477 8.14062H14.3899C14.3534 8.14062 14.3196 8.15625 14.2883 8.1875C14.2571 8.21354 14.2415 8.2474 14.2415 8.28906V9.52344C14.2415 9.5599 14.2571 9.59375 14.2883 9.625C14.3196 9.65104 14.3534 9.66406 14.3899 9.66406ZM14.6399 10.9688H16.3977C16.5175 10.9688 16.6139 10.9323 16.6868 10.8594C16.7597 10.7865 16.7961 10.6927 16.7961 10.5781C16.7961 10.4583 16.7597 10.362 16.6868 10.2891C16.6139 10.2161 16.5175 10.1797 16.3977 10.1797H14.6399C14.5201 10.1797 14.4237 10.2161 14.3508 10.2891C14.2779 10.362 14.2415 10.4583 14.2415 10.5781C14.2415 10.6927 14.2779 10.7865 14.3508 10.8594C14.4237 10.9323 14.5201 10.9688 14.6399 10.9688ZM14.6399 12.2891H16.3977C16.5175 12.2891 16.6139 12.2526 16.6868 12.1797C16.7597 12.1068 16.7961 12.0104 16.7961 11.8906C16.7961 11.776 16.7597 11.6823 16.6868 11.6094C16.6139 11.5365 16.5175 11.5 16.3977 11.5H14.6399C14.5201 11.5 14.4237 11.5365 14.3508 11.6094C14.2779 11.6823 14.2415 11.776 14.2415 11.8906C14.2415 12.0104 14.2779 12.1068 14.3508 12.1797C14.4237 12.2526 14.5201 12.2891 14.6399 12.2891Z"
		fill="currentColor"
	/>
</svg>
