<svg
	color="rgb(var(--foreground, 0, 0, 0))"
	viewBox="0 0 20 24"
	fill="none"
	xmlns="http://www.w3.org/2000/svg"
>
	<path
		d="M2.38208 17.8828H13.1399V6.11719H2.38208C1.91333 6.11719 1.53312 6.26823 1.24146 6.57031C0.954997 6.86719 0.811768 7.26042 0.811768 7.75V16.25C0.811768 16.7396 0.954997 17.1354 1.24146 17.4375C1.53312 17.7344 1.91333 17.8828 2.38208 17.8828ZM3.21021 15.9844C2.97583 15.9844 2.79093 15.9167 2.65552 15.7812C2.5201 15.6406 2.45239 15.4557 2.45239 15.2266V8.77344C2.45239 8.54427 2.5201 8.36198 2.65552 8.22656C2.79093 8.08594 2.97583 8.01562 3.21021 8.01562H10.9836C11.2128 8.01562 11.3951 8.08594 11.5305 8.22656C11.6711 8.36198 11.7415 8.54427 11.7415 8.77344V15.2266C11.7415 15.4557 11.6711 15.6406 11.5305 15.7812C11.3951 15.9167 11.2128 15.9844 10.9836 15.9844H3.21021ZM3.53052 15.1172H10.6555C10.8014 15.1172 10.8743 15.0469 10.8743 14.9062V9.09375C10.8743 8.95312 10.8014 8.88281 10.6555 8.88281H3.53052C3.38989 8.88281 3.31958 8.95312 3.31958 9.09375V14.9062C3.31958 15.0469 3.38989 15.1172 3.53052 15.1172ZM14.0071 14.2344H19.0227V7.75C19.0227 7.26042 18.8769 6.86719 18.5852 6.57031C18.2987 6.26823 17.9211 6.11719 17.4524 6.11719H14.0071V14.2344ZM15.2961 9.58594C15.2545 9.58594 15.218 9.57292 15.1868 9.54688C15.1555 9.51562 15.1399 9.47917 15.1399 9.4375V8.17188C15.1399 8.13021 15.1555 8.09375 15.1868 8.0625C15.218 8.03125 15.2545 8.01562 15.2961 8.01562H17.6165C17.6581 8.01562 17.6946 8.03125 17.7258 8.0625C17.7571 8.09375 17.7727 8.13021 17.7727 8.17188V9.4375C17.7727 9.47917 17.7571 9.51562 17.7258 9.54688C17.6946 9.57292 17.6581 9.58594 17.6165 9.58594H15.2961ZM15.554 11.0156C15.4342 11.0156 15.3352 10.9792 15.2571 10.9062C15.179 10.8281 15.1399 10.7292 15.1399 10.6094C15.1399 10.4844 15.179 10.3854 15.2571 10.3125C15.3352 10.2344 15.4342 10.1953 15.554 10.1953H17.3586C17.4836 10.1953 17.5826 10.2344 17.6555 10.3125C17.7336 10.3854 17.7727 10.4844 17.7727 10.6094C17.7727 10.7292 17.7336 10.8281 17.6555 10.9062C17.5826 10.9792 17.4836 11.0156 17.3586 11.0156H15.554ZM15.554 12.4531C15.4342 12.4531 15.3352 12.4167 15.2571 12.3438C15.179 12.2656 15.1399 12.1641 15.1399 12.0391C15.1399 11.9193 15.179 11.8229 15.2571 11.75C15.3352 11.6771 15.4342 11.6406 15.554 11.6406H17.3586C17.4836 11.6406 17.5826 11.6771 17.6555 11.75C17.7336 11.8229 17.7727 11.9193 17.7727 12.0391C17.7727 12.1641 17.7336 12.2656 17.6555 12.3438C17.5826 12.4167 17.4836 12.4531 17.3586 12.4531H15.554ZM14.0071 17.8828H17.4524C17.9211 17.8828 18.2987 17.7344 18.5852 17.4375C18.8769 17.1354 19.0227 16.7396 19.0227 16.25V15.1016H14.0071V17.8828Z"
		fill="currentColor"
	/>
</svg>
