<svg
	color="rgb(var(--foreground, 0, 0, 0))"
	viewBox="0 0 17 24"
	fill="none"
	xmlns="http://www.w3.org/2000/svg"
>
	<path
		d="M2.35864 18.7422H14.929C15.481 18.7422 15.9237 18.5729 16.2571 18.2344C16.5956 17.8958 16.7649 17.4531 16.7649 16.9062V7.09375C16.7649 6.54688 16.5956 6.10417 16.2571 5.76562C15.9237 5.42708 15.481 5.25781 14.929 5.25781H2.35864C1.80656 5.25781 1.36125 5.42708 1.02271 5.76562C0.689372 6.10417 0.522705 6.54688 0.522705 7.09375V16.9062C0.522705 17.4531 0.689372 17.8958 1.02271 18.2344C1.36125 18.5729 1.80656 18.7422 2.35864 18.7422ZM2.37427 17.4844C2.19718 17.4844 2.05396 17.4271 1.94458 17.3125C1.83521 17.1927 1.78052 17.0365 1.78052 16.8438V7.15625C1.78052 6.96354 1.83521 6.8099 1.94458 6.69531C2.05396 6.57552 2.19718 6.51562 2.37427 6.51562H14.9211C15.0982 6.51562 15.2389 6.57552 15.343 6.69531C15.4524 6.8099 15.5071 6.96354 15.5071 7.15625V16.8438C15.5071 17.0365 15.4524 17.1927 15.343 17.3125C15.2389 17.4271 15.0982 17.4844 14.9211 17.4844H2.37427ZM3.96021 8.40625C4.14771 8.40625 4.30656 8.34115 4.43677 8.21094C4.57218 8.07552 4.63989 7.91146 4.63989 7.71875C4.63989 7.53125 4.57218 7.3724 4.43677 7.24219C4.30656 7.10677 4.14771 7.03906 3.96021 7.03906C3.7675 7.03906 3.60343 7.10677 3.46802 7.24219C3.33781 7.3724 3.27271 7.53125 3.27271 7.71875C3.27271 7.91146 3.33781 8.07552 3.46802 8.21094C3.60343 8.34115 3.7675 8.40625 3.96021 8.40625ZM5.96802 8.40625C6.16073 8.40625 6.32218 8.34115 6.45239 8.21094C6.58781 8.07552 6.65552 7.91146 6.65552 7.71875C6.65552 7.53125 6.58781 7.3724 6.45239 7.24219C6.32218 7.10677 6.16073 7.03906 5.96802 7.03906C5.78052 7.03906 5.61906 7.10677 5.48364 7.24219C5.35343 7.3724 5.28833 7.53125 5.28833 7.71875C5.28833 7.91146 5.35343 8.07552 5.48364 8.21094C5.61906 8.34115 5.78052 8.40625 5.96802 8.40625ZM7.98364 8.40625C8.17114 8.40625 8.33 8.34115 8.46021 8.21094C8.59562 8.07552 8.66333 7.91146 8.66333 7.71875C8.66333 7.53125 8.59562 7.3724 8.46021 7.24219C8.33 7.10677 8.17114 7.03906 7.98364 7.03906C7.79093 7.03906 7.62687 7.10677 7.49146 7.24219C7.36125 7.3724 7.29614 7.53125 7.29614 7.71875C7.29614 7.91146 7.36125 8.07552 7.49146 8.21094C7.62687 8.34115 7.79093 8.40625 7.98364 8.40625ZM11.6477 8.11719H13.7571C13.8717 8.11719 13.9654 8.08073 14.0383 8.00781C14.1112 7.9349 14.1477 7.83854 14.1477 7.71875C14.1477 7.60417 14.1112 7.51042 14.0383 7.4375C13.9654 7.36458 13.8717 7.32812 13.7571 7.32812H11.6477C11.5279 7.32812 11.4316 7.36458 11.3586 7.4375C11.2857 7.51042 11.2493 7.60417 11.2493 7.71875C11.2493 7.83854 11.2857 7.9349 11.3586 8.00781C11.4316 8.08073 11.5279 8.11719 11.6477 8.11719ZM1.28052 9.92969H16.0227V8.90625H1.28052V9.92969ZM3.81177 16.5156H13.4836C13.7076 16.5156 13.8847 16.4505 14.0149 16.3203C14.1451 16.1849 14.2102 16.0078 14.2102 15.7891V11.5469C14.2102 11.3229 14.1451 11.1458 14.0149 11.0156C13.8847 10.8802 13.7076 10.8125 13.4836 10.8125H3.81177C3.58781 10.8125 3.40812 10.8802 3.27271 11.0156C3.1425 11.1458 3.07739 11.3229 3.07739 11.5469V15.7891C3.07739 16.0078 3.1425 16.1849 3.27271 16.3203C3.40812 16.4505 3.58781 16.5156 3.81177 16.5156ZM4.15552 15.6484C4.0201 15.6484 3.95239 15.5807 3.95239 15.4453V11.8906C3.95239 11.75 4.0201 11.6797 4.15552 11.6797H13.1399C13.2753 11.6797 13.343 11.75 13.343 11.8906V15.4453C13.343 15.5807 13.2753 15.6484 13.1399 15.6484H4.15552ZM3.79614 13.4219H13.4993V12.5547H3.79614V13.4219Z"
		fill="currentColor"
	/>
</svg>
