<svg
	color="rgb(var(--foreground, 0, 0, 0))"
	viewBox="0 0 17 24"
	fill="none"
	xmlns="http://www.w3.org/2000/svg"
>
	<path
		d="M0.764893 9.0625H16.3821V6.89062C16.3821 6.40104 16.2362 6.00781 15.9446 5.71094C15.6581 5.40885 15.2805 5.25781 14.8118 5.25781H2.33521C1.86646 5.25781 1.48625 5.40885 1.19458 5.71094C0.908122 6.00781 0.764893 6.40104 0.764893 6.89062V9.0625ZM3.66333 8.02344C3.46541 8.02344 3.29614 7.95573 3.15552 7.82031C3.0201 7.67969 2.95239 7.51302 2.95239 7.32031C2.95239 7.1224 3.0201 6.95573 3.15552 6.82031C3.29614 6.6849 3.46541 6.61719 3.66333 6.61719C3.85604 6.61719 4.0201 6.6849 4.15552 6.82031C4.29614 6.95573 4.36646 7.1224 4.36646 7.32031C4.36646 7.51302 4.29614 7.67969 4.15552 7.82031C4.0201 7.95573 3.85604 8.02344 3.66333 8.02344ZM5.73364 8.02344C5.54093 8.02344 5.37427 7.95573 5.23364 7.82031C5.09823 7.67969 5.03052 7.51302 5.03052 7.32031C5.03052 7.1224 5.09823 6.95573 5.23364 6.82031C5.37427 6.6849 5.54093 6.61719 5.73364 6.61719C5.93156 6.61719 6.09823 6.6849 6.23364 6.82031C6.37427 6.95573 6.44458 7.1224 6.44458 7.32031C6.44458 7.51302 6.37427 7.67969 6.23364 7.82031C6.09823 7.95573 5.93156 8.02344 5.73364 8.02344ZM7.81177 8.02344C7.61385 8.02344 7.44458 7.95573 7.30396 7.82031C7.16854 7.67969 7.10083 7.51302 7.10083 7.32031C7.10083 7.1224 7.16854 6.95573 7.30396 6.82031C7.44458 6.6849 7.61385 6.61719 7.81177 6.61719C8.00448 6.61719 8.16854 6.6849 8.30396 6.82031C8.44458 6.95573 8.51489 7.1224 8.51489 7.32031C8.51489 7.51302 8.44458 7.67969 8.30396 7.82031C8.16854 7.95573 8.00448 8.02344 7.81177 8.02344ZM11.9055 7.72656C11.7805 7.72656 11.679 7.6901 11.6008 7.61719C11.5279 7.53906 11.4915 7.4375 11.4915 7.3125C11.4915 7.19271 11.5279 7.09635 11.6008 7.02344C11.679 6.95052 11.7805 6.91406 11.9055 6.91406H14.0852C14.205 6.91406 14.3014 6.95052 14.3743 7.02344C14.4472 7.09635 14.4836 7.19271 14.4836 7.3125C14.4836 7.4375 14.4472 7.53906 14.3743 7.61719C14.3014 7.6901 14.205 7.72656 14.0852 7.72656H11.9055ZM2.33521 18.7422H14.8118C15.2805 18.7422 15.6581 18.5911 15.9446 18.2891C16.2362 17.9922 16.3821 17.599 16.3821 17.1094V9.92969H0.764893V17.1094C0.764893 17.599 0.908122 17.9922 1.19458 18.2891C1.48625 18.5911 1.86646 18.7422 2.33521 18.7422ZM3.58521 17.0391C3.36125 17.0391 3.18156 16.9714 3.04614 16.8359C2.91073 16.7005 2.84302 16.5208 2.84302 16.2969V11.9141C2.84302 11.6797 2.91073 11.4948 3.04614 11.3594C3.18156 11.224 3.36125 11.1562 3.58521 11.1562H13.5696C13.7935 11.1562 13.9732 11.224 14.1086 11.3594C14.2441 11.4948 14.3118 11.6797 14.3118 11.9141V16.2969C14.3118 16.5208 14.2441 16.7005 14.1086 16.8359C13.9732 16.9714 13.7935 17.0391 13.5696 17.0391H3.58521ZM3.71021 12.9531H13.4446V12.2422C13.4446 12.0964 13.3743 12.0234 13.2336 12.0234H3.92114C3.78052 12.0234 3.71021 12.0964 3.71021 12.2422V12.9531ZM3.92114 16.1719H13.2336C13.3743 16.1719 13.4446 16.1016 13.4446 15.9609V13.8203H3.71021V15.9609C3.71021 16.1016 3.78052 16.1719 3.92114 16.1719Z"
		fill="currentColor"
	/>
</svg>
