<svg
	color="rgb(var(--foreground, 0, 0, 0))"
	viewBox="0 0 25 24"
	fill="none"
	xmlns="http://www.w3.org/2000/svg"
>
	<path
		d="M0 12.196C0 13.2377 0.231771 14.1856 0.695312 15.0398C1.16406 15.8887 1.83073 16.6205 2.69531 17.2351C3.5651 17.8497 4.60417 18.321 5.8125 18.6491C7.02083 18.9825 8.36719 19.1491 9.85156 19.1491C11.3359 19.1491 12.6823 18.9825 13.8906 18.6491C15.1042 18.321 16.1432 17.8497 17.0078 17.2351C17.8776 16.6205 18.5443 15.8887 19.0078 15.0398C19.4766 14.1856 19.7109 13.2377 19.7109 12.196C19.7109 11.7585 19.4714 11.3497 18.9922 10.9695C18.513 10.584 17.8333 10.2455 16.9531 9.95383C16.0781 9.66217 15.0391 9.4356 13.8359 9.27414C12.6328 9.10748 11.3047 9.02414 9.85156 9.02414C8.40365 9.02414 7.07812 9.10748 5.875 9.27414C4.67188 9.4356 3.63021 9.66217 2.75 9.95383C1.875 10.2455 1.19792 10.584 0.71875 10.9695C0.239583 11.3497 0 11.7585 0 12.196ZM1.25781 12.196C1.25781 12.0554 1.36458 11.9096 1.57812 11.7585C1.79167 11.6023 2.09375 11.4512 2.48438 11.3054C2.875 11.1544 3.33594 11.0137 3.86719 10.8835C4.39844 10.7533 4.98438 10.6387 5.625 10.5398C6.26562 10.4356 6.94271 10.3549 7.65625 10.2976C8.36979 10.2351 9.10156 10.2038 9.85156 10.2038C10.6016 10.2038 11.3333 10.2351 12.0469 10.2976C12.7604 10.3549 13.4375 10.4356 14.0781 10.5398C14.7188 10.6387 15.3047 10.7533 15.8359 10.8835C16.3724 11.0137 16.8359 11.1544 17.2266 11.3054C17.6172 11.4512 17.9193 11.6023 18.1328 11.7585C18.3464 11.9096 18.4531 12.0554 18.4531 12.196C18.4531 12.3575 18.3073 12.5267 18.0156 12.7038C17.7292 12.8757 17.3229 13.045 16.7969 13.2116C16.2708 13.3783 15.6484 13.5267 14.9297 13.657C14.2161 13.7872 13.4297 13.8913 12.5703 13.9695C11.7109 14.0476 10.8047 14.0866 9.85156 14.0866C8.90365 14.0866 8 14.0476 7.14062 13.9695C6.28125 13.8913 5.49219 13.7872 4.77344 13.657C4.0599 13.5267 3.4401 13.3783 2.91406 13.2116C2.38802 13.045 1.97917 12.8757 1.6875 12.7038C1.40104 12.5267 1.25781 12.3575 1.25781 12.196ZM1.5 13.7663C2.01042 14.0684 2.69792 14.3392 3.5625 14.5788C4.43229 14.8184 5.40885 15.0059 6.49219 15.1413C7.57552 15.2767 8.69531 15.3445 9.85156 15.3445C11.013 15.3445 12.1354 15.2767 13.2188 15.1413C14.3021 15.0059 15.276 14.8184 16.1406 14.5788C17.0104 14.3392 17.7005 14.0684 18.2109 13.7663C17.9974 14.5945 17.5078 15.3184 16.7422 15.9382C15.9766 16.558 15.0026 17.0372 13.8203 17.3757C12.638 17.7195 11.3151 17.8913 9.85156 17.8913C8.38802 17.8913 7.0651 17.7195 5.88281 17.3757C4.70573 17.0372 3.73438 16.558 2.96875 15.9382C2.20312 15.3184 1.71354 14.5945 1.5 13.7663ZM18.0781 11.5163L23.2969 8.32102C23.6875 8.08664 23.9583 7.808 24.1094 7.48508C24.2656 7.16217 24.3203 6.83664 24.2734 6.50852C24.2318 6.18039 24.1094 5.88092 23.9062 5.61008C23.7031 5.33925 23.4349 5.13612 23.1016 5.00071C22.7734 4.86008 22.401 4.81842 21.9844 4.87571C21.5677 4.933 21.125 5.13092 20.6562 5.46946L14.4141 9.96164L15.7344 10.3132L21.5547 6.34446C21.7839 6.18821 21.9922 6.10227 22.1797 6.08664C22.3672 6.07102 22.5208 6.10487 22.6406 6.18821C22.7656 6.26633 22.849 6.3731 22.8906 6.50852C22.9375 6.64394 22.9323 6.78717 22.875 6.93821C22.8177 7.08404 22.7005 7.21164 22.5234 7.32102L16.9766 10.7585L18.0781 11.5163ZM5.3125 14.2741L13.7266 14.3054C13.7266 13.7637 13.5938 13.2924 13.3281 12.8913C13.0677 12.4903 12.7188 12.1778 12.2812 11.9538C11.8438 11.7299 11.3698 11.6179 10.8594 11.6179C10.3542 11.6179 9.88802 11.7247 9.46094 11.9382C9.03906 12.1465 8.69531 12.4252 8.42969 12.7741C8.29427 12.7273 8.15885 12.6934 8.02344 12.6726C7.89323 12.6517 7.7526 12.6413 7.60156 12.6413C7.22135 12.6413 6.86979 12.7142 6.54688 12.8601C6.22917 13.0007 5.96094 13.196 5.74219 13.446C5.52344 13.6908 5.38021 13.9669 5.3125 14.2741Z"
		fill="currentColor"
	/>
</svg>
