<svg
	color="rgb(var(--foreground, 0, 0, 0))"
	viewBox="0 0 25 24"
	fill="none"
	xmlns="http://www.w3.org/2000/svg"
>
	<path
		d="M0.289673 12.1189C0.289673 13.1606 0.521444 14.1085 0.984985 14.9627C1.45374 15.8116 2.1204 16.5434 2.98499 17.158C3.85478 17.7726 4.89384 18.2439 6.10217 18.572C7.31051 18.9054 8.65686 19.072 10.1412 19.072C11.6256 19.072 12.972 18.9054 14.1803 18.572C15.3938 18.2439 16.4329 17.7726 17.2975 17.158C18.1673 16.5434 18.8339 15.8116 19.2975 14.9627C19.7662 14.1085 20.0006 13.1606 20.0006 12.1189C20.0006 11.6814 19.761 11.2726 19.2819 10.8924C18.8027 10.5069 18.123 10.1684 17.2428 9.87674C16.3678 9.58507 15.3287 9.35851 14.1256 9.19705C12.9225 9.03039 11.5944 8.94705 10.1412 8.94705C8.69332 8.94705 7.3678 9.03039 6.16467 9.19705C4.96155 9.35851 3.91988 9.58507 3.03967 9.87674C2.16467 10.1684 1.48759 10.5069 1.00842 10.8924C0.529256 11.2726 0.289673 11.6814 0.289673 12.1189ZM1.54749 12.1189C1.54749 11.9783 1.65426 11.8325 1.8678 11.6814C2.08134 11.5252 2.38342 11.3741 2.77405 11.2283C3.16467 11.0773 3.62561 10.9366 4.15686 10.8064C4.68811 10.6762 5.27405 10.5616 5.91467 10.4627C6.5553 10.3585 7.23238 10.2778 7.94592 10.2205C8.65946 10.158 9.39124 10.1267 10.1412 10.1267C10.8912 10.1267 11.623 10.158 12.3365 10.2205C13.0501 10.2778 13.7272 10.3585 14.3678 10.4627C15.0084 10.5616 15.5944 10.6762 16.1256 10.8064C16.6621 10.9366 17.1256 11.0773 17.5162 11.2283C17.9069 11.3741 18.2089 11.5252 18.4225 11.6814C18.636 11.8325 18.7428 11.9783 18.7428 12.1189C18.7428 12.2804 18.597 12.4523 18.3053 12.6346C18.0188 12.8116 17.6126 12.9887 17.0865 13.1658C16.5605 13.3377 15.9381 13.4939 15.2194 13.6346C14.5058 13.77 13.7194 13.8793 12.86 13.9627C12.0006 14.046 11.0944 14.0877 10.1412 14.0877C9.19332 14.0877 8.28967 14.046 7.4303 13.9627C6.57092 13.8793 5.78186 13.77 5.06311 13.6346C4.34957 13.4939 3.72978 13.3377 3.20374 13.1658C2.67769 12.9887 2.26884 12.8116 1.97717 12.6346C1.69071 12.4523 1.54749 12.2804 1.54749 12.1189ZM18.3522 11.2674L23.5084 8.11112C23.8678 7.89237 24.1178 7.63716 24.2584 7.34549C24.399 7.04862 24.4485 6.74914 24.4069 6.44705C24.3704 6.13976 24.2558 5.86372 24.0631 5.61893C23.8756 5.36893 23.6282 5.18143 23.3209 5.05643C23.0188 4.93143 22.6725 4.89757 22.2819 4.95487C21.8912 5.01216 21.4772 5.19966 21.0397 5.51737L15.0162 9.8533L18.3522 11.2674ZM5.60217 14.1971L14.0162 14.2283C14.0162 13.6866 13.8834 13.2153 13.6178 12.8142C13.3574 12.4132 13.0084 12.1007 12.5709 11.8767C12.1334 11.6528 11.6595 11.5408 11.149 11.5408C10.6438 11.5408 10.1777 11.6476 9.75061 11.8611C9.32874 12.0694 8.98499 12.3481 8.71936 12.6971C8.58394 12.6502 8.44853 12.6163 8.31311 12.5955C8.1829 12.5747 8.04228 12.5642 7.89124 12.5642C7.51103 12.5642 7.15946 12.6372 6.83655 12.783C6.51884 12.9236 6.25061 13.1189 6.03186 13.3689C5.81311 13.6137 5.66988 13.8898 5.60217 14.1971Z"
		fill="currentColor"
	/>
</svg>
