<svg
	color="rgb(var(--foreground, 0, 0, 0))"
	viewBox="0 0 12 24"
	fill="none"
	xmlns="http://www.w3.org/2000/svg"
>
	<path
		d="M1.82739 20.8398H9.46021C10.0019 20.8398 10.4394 20.668 10.7727 20.3242C11.106 19.9857 11.2727 19.5352 11.2727 18.9727V5.02734C11.2727 4.46484 11.106 4.01432 10.7727 3.67578C10.4394 3.33203 10.0019 3.16016 9.46021 3.16016H1.82739C1.29093 3.16016 0.856038 3.33203 0.522705 3.67578C0.189372 4.01432 0.0227051 4.46484 0.0227051 5.02734V18.9727C0.0227051 19.5352 0.189372 19.9857 0.522705 20.3242C0.856038 20.668 1.29093 20.8398 1.82739 20.8398ZM1.88989 19.582C1.7076 19.582 1.55916 19.5247 1.44458 19.4102C1.33521 19.3008 1.28052 19.1523 1.28052 18.9648V5.04297C1.28052 4.85547 1.33521 4.70443 1.44458 4.58984C1.55916 4.47526 1.7076 4.41797 1.88989 4.41797H9.40552C9.58781 4.41797 9.73364 4.47526 9.84302 4.58984C9.9576 4.70443 10.0149 4.85547 10.0149 5.04297V18.9648C10.0149 19.1523 9.9576 19.3008 9.84302 19.4102C9.73364 19.5247 9.58781 19.582 9.40552 19.582H1.88989ZM2.73364 7.85547C2.84823 7.85547 2.94198 7.81901 3.01489 7.74609C3.08781 7.67318 3.12427 7.57682 3.12427 7.45703V5.73047C3.12427 5.61068 3.08781 5.51432 3.01489 5.44141C2.94198 5.36849 2.84823 5.33203 2.73364 5.33203C2.61385 5.33203 2.5175 5.36849 2.44458 5.44141C2.37166 5.51432 2.33521 5.61068 2.33521 5.73047V7.45703C2.33521 7.57682 2.37166 7.67318 2.44458 7.74609C2.5175 7.81901 2.61385 7.85547 2.73364 7.85547ZM0.952393 10.082H10.3508V9.05859H0.952393V10.082ZM2.73364 13.3477C2.84823 13.3477 2.94198 13.3112 3.01489 13.2383C3.08781 13.1654 3.12427 13.0716 3.12427 12.957V11.2227C3.12427 11.1081 3.08781 11.0143 3.01489 10.9414C2.94198 10.8685 2.84823 10.832 2.73364 10.832C2.61385 10.832 2.5175 10.8685 2.44458 10.9414C2.37166 11.0143 2.33521 11.1081 2.33521 11.2227V12.957C2.33521 13.0716 2.37166 13.1654 2.44458 13.2383C2.5175 13.3112 2.61385 13.3477 2.73364 13.3477ZM0.952393 18.4414H10.3508V17.418H0.952393V18.4414Z"
		fill="currentColor"
	/>
</svg>
