<svg
	color="rgb(var(--foreground, 0, 0, 0))"
	viewBox="0 0 12 24"
	fill="none"
	xmlns="http://www.w3.org/2000/svg"
>
	<path
		d="M0.272705 9.03516H11.1321V4.79297C11.1321 4.30339 10.9862 3.91016 10.6946 3.61328C10.4081 3.3112 10.0279 3.16016 9.55396 3.16016H1.84302C1.37427 3.16016 0.994059 3.3112 0.702393 3.61328C0.415934 3.91016 0.272705 4.30339 0.272705 4.79297V9.03516ZM2.43677 7.56641C2.32218 7.56641 2.22583 7.52995 2.14771 7.45703C2.07479 7.38411 2.03833 7.28776 2.03833 7.16797V5.38672C2.03833 5.27734 2.07479 5.1862 2.14771 5.11328C2.22062 5.03516 2.31698 4.99609 2.43677 4.99609C2.54614 4.99609 2.63729 5.03255 2.71021 5.10547C2.78833 5.17839 2.82739 5.27214 2.82739 5.38672V7.16797C2.82739 7.28255 2.79093 7.37891 2.71802 7.45703C2.6451 7.52995 2.55135 7.56641 2.43677 7.56641ZM0.272705 17.707H11.1321V9.94922H0.272705V17.707ZM2.43677 13.6836C2.32218 13.6836 2.22583 13.6471 2.14771 13.5742C2.07479 13.5013 2.03833 13.4076 2.03833 13.293V11.5117C2.03833 11.3971 2.07479 11.3034 2.14771 11.2305C2.22062 11.1576 2.31698 11.1211 2.43677 11.1211C2.54614 11.1211 2.63729 11.1576 2.71021 11.2305C2.78833 11.3034 2.82739 11.3971 2.82739 11.5117V13.293C2.82739 13.4076 2.79093 13.5013 2.71802 13.5742C2.6451 13.6471 2.55135 13.6836 2.43677 13.6836ZM0.272705 18.6211V19.207C0.272705 19.6966 0.415934 20.0898 0.702393 20.3867C0.994059 20.6888 1.37427 20.8398 1.84302 20.8398H9.55396C10.0279 20.8398 10.4081 20.6888 10.6946 20.3867C10.9862 20.0898 11.1321 19.6966 11.1321 19.207V18.6211H0.272705Z"
		fill="currentColor"
	/>
</svg>
