<svg
	color="rgb(var(--foreground, 0, 0, 0))"
	viewBox="0 0 17 24"
	fill="none"
	xmlns="http://www.w3.org/2000/svg"
>
	<path
		d="M7.56177 12.875H8.81958V6.49219C8.81958 6.22135 8.90031 6.00521 9.06177 5.84375C9.22843 5.67708 9.44718 5.59375 9.71802 5.59375C9.98885 5.59375 10.205 5.67708 10.3665 5.84375C10.5331 6.00521 10.6165 6.22135 10.6165 6.49219V7.80469C10.6165 7.97656 10.679 8.125 10.804 8.25C10.929 8.375 11.0774 8.4375 11.2493 8.4375C11.4211 8.4375 11.567 8.375 11.6868 8.25C11.8118 8.125 11.8743 7.97656 11.8743 7.80469V6.49219C11.8743 6.0599 11.7831 5.68229 11.6008 5.35938C11.4237 5.03646 11.1737 4.78646 10.8508 4.60938C10.5279 4.42708 10.1503 4.33594 9.71802 4.33594C9.28573 4.33594 8.90812 4.42708 8.58521 4.60938C8.26229 4.78646 8.00968 5.03646 7.82739 5.35938C7.65031 5.68229 7.56177 6.0599 7.56177 6.49219V12.875ZM5.33521 12.875H6.35864V10.8281C6.35864 10.6406 6.30135 10.4896 6.18677 10.375C6.07218 10.2604 5.92114 10.2031 5.73364 10.2031H3.41333C3.27271 10.2031 3.15031 10.2552 3.04614 10.3594C2.94718 10.4583 2.89771 10.5781 2.89771 10.7188C2.89771 10.8594 2.94718 10.9792 3.04614 11.0781C3.15031 11.1771 3.27271 11.2266 3.41333 11.2266H5.18677C5.28573 11.2266 5.33521 11.276 5.33521 11.375V12.875ZM10.0227 12.875H11.0461V11.375C11.0461 11.276 11.0956 11.2266 11.1946 11.2266H12.968C13.1086 11.2266 13.2284 11.1771 13.3274 11.0781C13.4264 10.9792 13.4758 10.8594 13.4758 10.7188C13.4758 10.5781 13.4264 10.4583 13.3274 10.3594C13.2284 10.2552 13.1086 10.2031 12.968 10.2031H10.6477C10.455 10.2031 10.3014 10.2604 10.1868 10.375C10.0774 10.4896 10.0227 10.6406 10.0227 10.8281V12.875ZM0.75708 13.6484H15.7024C15.8743 13.6484 16.0201 13.5859 16.1399 13.4609C16.2649 13.3359 16.3274 13.1875 16.3274 13.0156C16.3274 12.8438 16.2649 12.6979 16.1399 12.5781C16.0201 12.4531 15.8743 12.3906 15.7024 12.3906H0.75708C0.585205 12.3906 0.436768 12.4531 0.311768 12.5781C0.191976 12.6979 0.13208 12.8438 0.13208 13.0156C0.13208 13.1875 0.191976 13.3359 0.311768 13.4609C0.436768 13.5859 0.585205 13.6484 0.75708 13.6484ZM4.63208 19.6641H11.8274C12.6034 19.6641 13.2649 19.5286 13.8118 19.2578C14.3639 18.9922 14.7831 18.6042 15.0696 18.0938C15.3612 17.5833 15.5071 16.9635 15.5071 16.2344V13.2344H14.2493V16.2344C14.2493 16.9635 14.0514 17.5078 13.6555 17.8672C13.2597 18.2266 12.6503 18.4062 11.8274 18.4062H4.63208C3.80916 18.4062 3.19979 18.2266 2.80396 17.8672C2.41333 17.5078 2.21802 16.9635 2.21802 16.2344V13.2344H0.960205V16.2344C0.960205 16.9635 1.10343 17.5833 1.38989 18.0938C1.68156 18.6042 2.10083 18.9922 2.64771 19.2578C3.19458 19.5286 3.85604 19.6641 4.63208 19.6641Z"
		fill="currentColor"
	/>
</svg>
