<svg
	color="rgb(var(--foreground, 0, 0, 0))"
	viewBox="0 0 17 24"
	fill="none"
	xmlns="http://www.w3.org/2000/svg"
>
	<path
		d="M7.75708 12.875H9.01489V6.49219C9.01489 6.22135 9.09562 6.00521 9.25708 5.84375C9.42375 5.67708 9.6425 5.59375 9.91333 5.59375C10.1842 5.59375 10.4003 5.67708 10.5618 5.84375C10.7284 6.00521 10.8118 6.22135 10.8118 6.49219V7.80469C10.8118 7.97656 10.8743 8.125 10.9993 8.25C11.1243 8.375 11.2727 8.4375 11.4446 8.4375C11.6165 8.4375 11.7623 8.375 11.8821 8.25C12.0071 8.125 12.0696 7.97656 12.0696 7.80469V6.49219C12.0696 6.0599 11.9784 5.68229 11.7961 5.35938C11.6191 5.03646 11.3691 4.78646 11.0461 4.60938C10.7232 4.42708 10.3456 4.33594 9.91333 4.33594C9.48104 4.33594 9.10343 4.42708 8.78052 4.60938C8.4576 4.78646 8.205 5.03646 8.02271 5.35938C7.84562 5.68229 7.75708 6.0599 7.75708 6.49219V12.875ZM5.53052 12.875H6.55396V10.8281C6.55396 10.6406 6.49666 10.4896 6.38208 10.375C6.2675 10.2604 6.11646 10.2031 5.92896 10.2031H3.60864C3.46802 10.2031 3.34562 10.2552 3.24146 10.3594C3.1425 10.4583 3.09302 10.5781 3.09302 10.7188C3.09302 10.8594 3.1425 10.9792 3.24146 11.0781C3.34562 11.1771 3.46802 11.2266 3.60864 11.2266H5.38208C5.48104 11.2266 5.53052 11.276 5.53052 11.375V12.875ZM10.218 12.875H11.2415V11.375C11.2415 11.276 11.2909 11.2266 11.3899 11.2266H13.1633C13.304 11.2266 13.4237 11.1771 13.5227 11.0781C13.6217 10.9792 13.6711 10.8594 13.6711 10.7188C13.6711 10.5781 13.6217 10.4583 13.5227 10.3594C13.4237 10.2552 13.304 10.2031 13.1633 10.2031H10.843C10.6503 10.2031 10.4967 10.2604 10.3821 10.375C10.2727 10.4896 10.218 10.6406 10.218 10.8281V12.875ZM0.952393 13.6484H1.15552V16.2344C1.15552 16.9635 1.29875 17.5833 1.58521 18.0938C1.87687 18.6042 2.29614 18.9922 2.84302 19.2578C3.38989 19.5286 4.05135 19.6641 4.82739 19.6641H12.0227C12.7987 19.6641 13.4602 19.5286 14.0071 19.2578C14.5592 18.9922 14.9784 18.6042 15.2649 18.0938C15.5566 17.5833 15.7024 16.9635 15.7024 16.2344V13.6484H15.8977C16.0696 13.6484 16.2154 13.5859 16.3352 13.4609C16.4602 13.3359 16.5227 13.1875 16.5227 13.0156C16.5227 12.8438 16.4602 12.6979 16.3352 12.5781C16.2154 12.4531 16.0696 12.3906 15.8977 12.3906H0.952393C0.780518 12.3906 0.63208 12.4531 0.50708 12.5781C0.387288 12.6979 0.327393 12.8438 0.327393 13.0156C0.327393 13.1875 0.387288 13.3359 0.50708 13.4609C0.63208 13.5859 0.780518 13.6484 0.952393 13.6484Z"
		fill="currentColor"
	/>
</svg>
