<svg
	color="rgb(var(--foreground, 0, 0, 0))"
	viewBox="0 0 16 24"
	fill="none"
	xmlns="http://www.w3.org/2000/svg"
>
	<path
		d="M0.718018 8.43359H15.7415V5.96484C15.7415 5.47526 15.5956 5.08203 15.304 4.78516C15.0175 4.48307 14.6373 4.33203 14.1633 4.33203H2.28833C1.81958 4.33203 1.43937 4.48307 1.14771 4.78516C0.861247 5.08203 0.718018 5.47526 0.718018 5.96484V8.43359ZM3.92114 7.35547C3.69718 7.35547 3.50448 7.27995 3.34302 7.12891C3.18677 6.97266 3.10864 6.78516 3.10864 6.56641C3.10864 6.34245 3.18677 6.15495 3.34302 6.00391C3.50448 5.84766 3.69718 5.76953 3.92114 5.76953C4.13468 5.76953 4.31958 5.84766 4.47583 6.00391C4.63729 6.15495 4.71802 6.34245 4.71802 6.56641C4.71802 6.78516 4.63729 6.97266 4.47583 7.12891C4.31958 7.27995 4.13468 7.35547 3.92114 7.35547ZM6.78833 7.35547C6.56958 7.35547 6.37948 7.27995 6.21802 7.12891C6.05656 6.97266 5.97583 6.78516 5.97583 6.56641C5.97583 6.34245 6.05656 6.15495 6.21802 6.00391C6.37948 5.84766 6.56958 5.76953 6.78833 5.76953C7.00708 5.76953 7.19458 5.84766 7.35083 6.00391C7.50708 6.15495 7.58521 6.34245 7.58521 6.56641C7.58521 6.78516 7.50708 6.97266 7.35083 7.12891C7.19458 7.27995 7.00708 7.35547 6.78833 7.35547ZM9.64771 7.35547C9.42896 7.35547 9.23885 7.27995 9.07739 7.12891C8.92114 6.97266 8.84302 6.78516 8.84302 6.56641C8.84302 6.34245 8.92114 6.15495 9.07739 6.00391C9.23885 5.84766 9.42896 5.76953 9.64771 5.76953C9.86646 5.76953 10.054 5.84766 10.2102 6.00391C10.3717 6.15495 10.4524 6.34245 10.4524 6.56641C10.4524 6.78516 10.3717 6.97266 10.2102 7.12891C10.054 7.27995 9.86646 7.35547 9.64771 7.35547ZM12.5149 7.35547C12.3014 7.35547 12.1139 7.27995 11.9524 7.12891C11.7961 6.97266 11.718 6.78516 11.718 6.56641C11.718 6.34245 11.7961 6.15495 11.9524 6.00391C12.1139 5.84766 12.3014 5.76953 12.5149 5.76953C12.7389 5.76953 12.929 5.84766 13.0852 6.00391C13.2467 6.15495 13.3274 6.34245 13.3274 6.56641C13.3274 6.78516 13.2467 6.97266 13.0852 7.12891C12.929 7.27995 12.7389 7.35547 12.5149 7.35547ZM2.28833 18.2617H14.1633C14.6373 18.2617 15.0175 18.1133 15.304 17.8164C15.5956 17.5195 15.7415 17.1237 15.7415 16.6289V9.30078H0.718018V16.6289C0.718018 17.1237 0.861247 17.5195 1.14771 17.8164C1.43937 18.1133 1.81958 18.2617 2.28833 18.2617ZM3.46802 16.3242C3.24406 16.3242 3.06177 16.2565 2.92114 16.1211C2.78573 15.9857 2.71802 15.8034 2.71802 15.5742V11.4258C2.71802 11.1966 2.78573 11.0143 2.92114 10.8789C3.06177 10.7383 3.24406 10.668 3.46802 10.668H12.9915C13.2206 10.668 13.4029 10.7383 13.5383 10.8789C13.679 11.0143 13.7493 11.1966 13.7493 11.4258V15.5742C13.7493 15.8034 13.679 15.9857 13.5383 16.1211C13.4029 16.2565 13.2206 16.3242 12.9915 16.3242H3.46802ZM3.78833 15.457H12.679C12.8144 15.457 12.8821 15.3867 12.8821 15.2461V11.7539C12.8821 11.6081 12.8144 11.5352 12.679 11.5352H3.78833C3.65291 11.5352 3.58521 11.6081 3.58521 11.7539V15.2461C3.58521 15.3867 3.65291 15.457 3.78833 15.457ZM2.95239 19.668C3.13989 19.668 3.29093 19.6107 3.40552 19.4961C3.5201 19.3815 3.57739 19.2305 3.57739 19.043V17.4805H2.31958V19.043C2.31958 19.2305 2.37687 19.3815 2.49146 19.4961C2.61125 19.6107 2.76489 19.668 2.95239 19.668ZM13.5071 19.668C13.6946 19.668 13.8456 19.6107 13.9602 19.4961C14.0748 19.3815 14.1321 19.2305 14.1321 19.043V17.4805H12.8743V19.043C12.8743 19.2305 12.9316 19.3815 13.0461 19.4961C13.1659 19.6107 13.3196 19.668 13.5071 19.668Z"
		fill="currentColor"
	/>
</svg>
