<svg
	color="rgb(var(--foreground, 0, 0, 0))"
	viewBox="0 0 16 24"
	fill="none"
	xmlns="http://www.w3.org/2000/svg"
>
	<path
		d="M2.21802 18.2617H13.8743C14.4264 18.2617 14.8717 18.0924 15.2102 17.7539C15.5487 17.4206 15.718 16.9779 15.718 16.4258V6.16797C15.718 5.61589 15.5487 5.17318 15.2102 4.83984C14.8717 4.5013 14.4264 4.33203 13.8743 4.33203H2.21802C1.66593 4.33203 1.22062 4.5013 0.88208 4.83984C0.548747 5.17318 0.38208 5.61589 0.38208 6.16797V16.4258C0.38208 16.9779 0.548747 17.4206 0.88208 17.7539C1.22062 18.0924 1.66593 18.2617 2.21802 18.2617ZM2.23364 17.0039C2.05656 17.0039 1.91333 16.9466 1.80396 16.832C1.69458 16.7174 1.63989 16.5638 1.63989 16.3711V6.22266C1.63989 6.03516 1.69458 5.88411 1.80396 5.76953C1.91333 5.64974 2.05656 5.58984 2.23364 5.58984H13.8665C14.0435 5.58984 14.1868 5.64974 14.2961 5.76953C14.4055 5.88411 14.4602 6.03516 14.4602 6.22266V16.3711C14.4602 16.5638 14.4055 16.7174 14.2961 16.832C14.1868 16.9466 14.0435 17.0039 13.8665 17.0039H2.23364ZM3.99146 7.77734C4.19979 7.77734 4.37948 7.70443 4.53052 7.55859C4.68677 7.40755 4.76489 7.22526 4.76489 7.01172C4.76489 6.79297 4.68677 6.61068 4.53052 6.46484C4.37948 6.3138 4.19979 6.23828 3.99146 6.23828C3.77791 6.23828 3.59302 6.3138 3.43677 6.46484C3.28573 6.61068 3.21021 6.79297 3.21021 7.01172C3.21021 7.22526 3.28573 7.40755 3.43677 7.55859C3.59302 7.70443 3.77791 7.77734 3.99146 7.77734ZM6.69458 7.77734C6.90812 7.77734 7.09041 7.70443 7.24146 7.55859C7.3925 7.40755 7.46802 7.22526 7.46802 7.01172C7.46802 6.79297 7.3925 6.61068 7.24146 6.46484C7.09041 6.3138 6.90812 6.23828 6.69458 6.23828C6.48104 6.23828 6.29614 6.3138 6.13989 6.46484C5.98885 6.61068 5.91333 6.79297 5.91333 7.01172C5.91333 7.22526 5.98885 7.40755 6.13989 7.55859C6.29614 7.70443 6.48104 7.77734 6.69458 7.77734ZM9.39771 7.77734C9.61125 7.77734 9.79354 7.70443 9.94458 7.55859C10.0956 7.40755 10.1711 7.22526 10.1711 7.01172C10.1711 6.79297 10.0956 6.61068 9.94458 6.46484C9.79354 6.3138 9.61125 6.23828 9.39771 6.23828C9.18416 6.23828 8.99927 6.3138 8.84302 6.46484C8.69198 6.61068 8.61646 6.79297 8.61646 7.01172C8.61646 7.22526 8.69198 7.40755 8.84302 7.55859C8.99927 7.70443 9.18416 7.77734 9.39771 7.77734ZM12.1008 7.77734C12.3144 7.77734 12.4967 7.70443 12.6477 7.55859C12.804 7.40755 12.8821 7.22526 12.8821 7.01172C12.8821 6.79297 12.804 6.61068 12.6477 6.46484C12.4967 6.3138 12.3144 6.23828 12.1008 6.23828C11.8873 6.23828 11.705 6.3138 11.554 6.46484C11.4029 6.61068 11.3274 6.79297 11.3274 7.01172C11.3274 7.22526 11.4029 7.40755 11.554 7.55859C11.705 7.70443 11.8873 7.77734 12.1008 7.77734ZM1.13989 9.46484H14.968V8.44141H1.13989V9.46484ZM3.43677 16.082H12.6633C12.8873 16.082 13.0644 16.0169 13.1946 15.8867C13.33 15.7513 13.3977 15.5742 13.3977 15.3555V11.1211C13.3977 10.9023 13.33 10.7253 13.1946 10.5898C13.0644 10.4544 12.8873 10.3867 12.6633 10.3867H3.43677C3.21281 10.3867 3.03573 10.4544 2.90552 10.5898C2.77531 10.7253 2.71021 10.9023 2.71021 11.1211V15.3555C2.71021 15.5742 2.77531 15.7513 2.90552 15.8867C3.03573 16.0169 3.21281 16.082 3.43677 16.082ZM3.78052 15.2148C3.6451 15.2148 3.57739 15.1471 3.57739 15.0117V11.4648C3.57739 11.3242 3.6451 11.2539 3.78052 11.2539H12.3274C12.4628 11.2539 12.5305 11.3242 12.5305 11.4648V15.0117C12.5305 15.1471 12.4628 15.2148 12.3274 15.2148H3.78052ZM2.61646 19.668C2.80396 19.668 2.955 19.6107 3.06958 19.4961C3.18416 19.3815 3.24146 19.2305 3.24146 19.043V17.4805H1.98364V19.043C1.98364 19.2305 2.04093 19.3815 2.15552 19.4961C2.27531 19.6107 2.42896 19.668 2.61646 19.668ZM13.4836 19.668C13.6711 19.668 13.8222 19.6107 13.9368 19.4961C14.0514 19.3815 14.1086 19.2305 14.1086 19.043V17.4805H12.8508V19.043C12.8508 19.2305 12.9081 19.3815 13.0227 19.4961C13.1425 19.6107 13.2961 19.668 13.4836 19.668Z"
		fill="currentColor"
	/>
</svg>
