<svg
	color="rgb(var(--foreground, 0, 0, 0))"
	viewBox="0 0 18 24"
	fill="none"
	xmlns="http://www.w3.org/2000/svg"
>
	<path
		d="M1.25398 14.6429C1.36856 14.6064 1.44929 14.5361 1.49616 14.4319C1.54825 14.3225 1.55866 14.2028 1.52741 14.0725C1.42846 13.6767 1.35293 13.2626 1.30085 12.8304C1.24877 12.3929 1.23314 11.9007 1.25398 11.3538C1.25918 11.208 1.22533 11.096 1.15241 11.0179C1.0795 10.9397 0.985747 10.8981 0.871163 10.8929C0.720122 10.8824 0.602934 10.9163 0.519601 10.9944C0.441476 11.0725 0.394601 11.1741 0.378976 11.2991C0.347726 11.7366 0.352934 12.2158 0.394601 12.7366C0.436268 13.2522 0.532622 13.7809 0.683664 14.3225C0.72533 14.458 0.800851 14.5543 0.910226 14.6116C1.0196 14.6689 1.13418 14.6793 1.25398 14.6429ZM0.910226 9.98661C1.02481 10.0283 1.1446 10.0257 1.2696 9.97879C1.3946 9.92671 1.48314 9.82515 1.53523 9.67411C1.9571 8.50223 2.54825 7.52827 3.30866 6.75223C4.06908 5.97098 4.92845 5.38504 5.88679 4.99442C6.85033 4.60379 7.83991 4.40848 8.85554 4.40848C9.54825 4.40848 10.1732 4.47879 10.7305 4.61942C11.293 4.75484 11.8061 4.95536 12.2696 5.22098C12.405 5.29911 12.5378 5.33556 12.668 5.33036C12.7982 5.31994 12.892 5.24963 12.9493 5.11942C13.0118 4.984 13.017 4.87202 12.9649 4.78348C12.9128 4.68973 12.8373 4.61161 12.7384 4.54911C12.1446 4.17411 11.5352 3.91109 10.9102 3.76004C10.2852 3.609 9.60033 3.53348 8.85554 3.53348C7.97533 3.53348 7.12116 3.65067 6.29304 3.88504C5.47012 4.11942 4.69929 4.47619 3.98054 4.95536C3.267 5.42931 2.62898 6.02306 2.06648 6.73661C1.50398 7.45015 1.04304 8.28609 0.683664 9.24442C0.610747 9.44234 0.602934 9.6064 0.660226 9.73661C0.717518 9.86161 0.800851 9.94494 0.910226 9.98661ZM17.1602 12.8225C17.2852 12.8225 17.3868 12.7783 17.4649 12.6897C17.543 12.596 17.5769 12.4814 17.5665 12.346C17.4467 11.2835 17.2488 10.3434 16.9727 9.52567C16.7019 8.70275 16.3477 7.97098 15.9102 7.33036C15.4779 6.68973 14.9623 6.1064 14.3634 5.58036C14.2488 5.4814 14.1316 5.43973 14.0118 5.45536C13.892 5.47098 13.7982 5.51786 13.7305 5.59598C13.6576 5.67931 13.6212 5.78088 13.6212 5.90067C13.6264 6.01525 13.6863 6.12463 13.8009 6.22879C14.5717 6.94754 15.2175 7.7965 15.7384 8.77567C16.2644 9.74963 16.5925 10.9449 16.7227 12.3616C16.7384 12.4918 16.7826 12.6012 16.8555 12.6897C16.9337 12.7783 17.0352 12.8225 17.1602 12.8225ZM2.16023 16.9085C2.23314 17.0126 2.33471 17.0751 2.46491 17.096C2.59512 17.1116 2.71491 17.0725 2.82429 16.9788C3.10554 16.7444 3.31648 16.4449 3.4571 16.0804C3.59773 15.7158 3.66804 15.3356 3.66804 14.9397C3.66804 14.5804 3.62898 14.2626 3.55085 13.9866C3.47273 13.7054 3.3946 13.4111 3.31648 13.1038C3.23835 12.7965 3.19929 12.4189 3.19929 11.971C3.19929 11.2054 3.34512 10.4866 3.63679 9.81473C3.93366 9.13765 4.33991 8.54129 4.85554 8.02567C5.37116 7.50484 5.96752 7.09859 6.6446 6.80692C7.32168 6.51004 8.04304 6.36161 8.80866 6.36161C10.043 6.36161 11.1134 6.67671 12.0196 7.30692C12.9311 7.93192 13.6368 8.80692 14.1368 9.93192C14.6368 11.0517 14.8894 12.3564 14.8946 13.846C14.8946 14.7158 14.8347 15.4606 14.7149 16.0804C14.5951 16.6949 14.4623 17.1793 14.3165 17.5335C14.2644 17.6585 14.2592 17.7783 14.3009 17.8929C14.3425 18.0074 14.4128 18.0908 14.5118 18.1429C14.6212 18.1897 14.7384 18.1923 14.8634 18.1507C14.9936 18.109 15.0821 18.0257 15.129 17.9007C15.28 17.484 15.4232 16.9371 15.5587 16.26C15.6993 15.583 15.7696 14.7757 15.7696 13.8382C15.7696 12.5934 15.6055 11.4606 15.2774 10.4397C14.9493 9.4189 14.4805 8.53869 13.8712 7.79911C13.2618 7.05952 12.53 6.48921 11.6759 6.08817C10.8217 5.68713 9.86596 5.48661 8.80866 5.48661C7.92325 5.48661 7.08731 5.65848 6.30085 6.00223C5.5196 6.34077 4.8295 6.80952 4.23054 7.40848C3.63679 8.00223 3.17064 8.68973 2.8321 9.47098C2.49356 10.2522 2.32429 11.0856 2.32429 11.971C2.32429 12.3981 2.36335 12.7835 2.44148 13.1272C2.52481 13.471 2.60554 13.7913 2.68366 14.0882C2.767 14.3798 2.81127 14.6611 2.81648 14.9319C2.81648 15.1975 2.767 15.4501 2.66804 15.6897C2.57429 15.9293 2.43627 16.1298 2.25398 16.2913C2.16023 16.3694 2.10554 16.4684 2.08991 16.5882C2.07429 16.708 2.09773 16.8147 2.16023 16.9085ZM4.00398 18.3616C4.19668 18.2626 4.40241 18.096 4.62116 17.8616C4.83991 17.6324 5.03783 17.3746 5.21491 17.0882C5.392 16.7965 5.517 16.5153 5.58991 16.2444C5.62116 16.135 5.61335 16.0257 5.56648 15.9163C5.5196 15.8017 5.43366 15.7236 5.30866 15.6819C5.19929 15.6455 5.09252 15.6559 4.98835 15.7132C4.88418 15.7705 4.81127 15.8616 4.7696 15.9866C4.66543 16.3304 4.517 16.6324 4.32429 16.8929C4.13679 17.1533 3.89981 17.3824 3.61335 17.5804C3.47273 17.6793 3.38679 17.7835 3.35554 17.8929C3.3295 18.0074 3.33731 18.109 3.37898 18.1975C3.42585 18.2965 3.50658 18.3668 3.62116 18.4085C3.73575 18.4501 3.86335 18.4345 4.00398 18.3616ZM5.67585 14.1272C5.57689 13.8616 5.46491 13.5569 5.33991 13.2132C5.22012 12.8694 5.16023 12.471 5.16023 12.0179C5.16023 11.3251 5.32429 10.7001 5.65241 10.1429C5.98054 9.58557 6.42325 9.14286 6.98054 8.81473C7.53783 8.48661 8.16283 8.32254 8.85554 8.32254C9.12116 8.32254 9.33991 8.33557 9.51179 8.36161C9.68366 8.38244 9.84773 8.42411 10.004 8.48661C10.1654 8.54911 10.3634 8.63504 10.5977 8.74442C10.7175 8.80171 10.8269 8.81734 10.9259 8.79129C11.03 8.76004 11.1029 8.70015 11.1446 8.61161C11.2071 8.50223 11.2201 8.38765 11.1837 8.26786C11.1472 8.14807 11.0639 8.04911 10.9337 7.97098C10.6732 7.81994 10.3581 7.69494 9.98835 7.59598C9.61856 7.49181 9.24096 7.43973 8.85554 7.43973C8.21491 7.43973 7.61595 7.55692 7.05866 7.79129C6.50658 8.02567 6.0222 8.35119 5.60554 8.76786C5.18887 9.18452 4.86335 9.6715 4.62898 10.2288C4.3946 10.7809 4.27741 11.3772 4.27741 12.0179C4.27741 12.5126 4.3321 12.9606 4.44148 13.3616C4.55606 13.7626 4.68106 14.1298 4.81648 14.4632C4.87377 14.5934 4.9571 14.6845 5.06648 14.7366C5.17585 14.7887 5.30085 14.7861 5.44148 14.7288C5.55606 14.6819 5.63418 14.6012 5.67585 14.4866C5.71752 14.372 5.71752 14.2522 5.67585 14.1272ZM11.8243 9.79129C12.1993 10.3434 12.4805 10.997 12.668 11.7522C12.8607 12.5022 12.9571 13.3382 12.9571 14.26C12.9571 15.2444 12.8295 16.1741 12.5743 17.0491C12.3243 17.9189 11.9857 18.6194 11.5587 19.1507C11.491 19.2444 11.4545 19.3512 11.4493 19.471C11.4441 19.5908 11.4857 19.6923 11.5743 19.7757C11.668 19.8642 11.7826 19.9033 11.918 19.8929C12.0535 19.8877 12.1602 19.833 12.2384 19.7288C12.7123 19.083 13.0925 18.2757 13.379 17.3069C13.6706 16.3382 13.8165 15.3121 13.8165 14.2288C13.8165 13.4423 13.7644 12.7522 13.6602 12.1585C13.5561 11.5595 13.4102 11.0335 13.2227 10.5804C13.0404 10.122 12.8321 9.70275 12.5977 9.32254C12.5144 9.19754 12.4102 9.11682 12.2852 9.08036C12.1654 9.0439 12.0509 9.05432 11.9415 9.11161C11.8269 9.17411 11.7566 9.27046 11.7305 9.40067C11.7045 9.52567 11.7357 9.65588 11.8243 9.79129ZM5.6446 19.3929C6.28523 18.8772 6.77481 18.2262 7.11335 17.4397C7.4571 16.6533 7.62637 15.8069 7.62116 14.9007C7.61595 14.4423 7.57168 14.0361 7.48835 13.6819C7.40502 13.3278 7.32168 13.01 7.23835 12.7288C7.16023 12.4423 7.12116 12.1741 7.12116 11.9241C7.12116 11.4293 7.27741 11.0335 7.58991 10.7366C7.90762 10.4345 8.32168 10.2835 8.8321 10.2835C9.35293 10.2835 9.76439 10.4606 10.0665 10.8147C10.3686 11.1689 10.5873 11.6429 10.7227 12.2366C10.8581 12.8251 10.9337 13.471 10.9493 14.1741C10.9753 14.9866 10.9024 15.7496 10.7305 16.4632C10.5639 17.1715 10.3269 17.8017 10.0196 18.3538C9.71231 18.9059 9.36596 19.3512 8.98054 19.6897C8.88679 19.7679 8.8295 19.8616 8.80866 19.971C8.79304 20.0804 8.81648 20.1845 8.87898 20.2835C8.95189 20.3876 9.05346 20.4475 9.18366 20.4632C9.31387 20.4788 9.43106 20.4397 9.53523 20.346C9.94148 19.9762 10.3139 19.4736 10.6524 18.8382C10.9962 18.2028 11.2696 17.4814 11.4727 16.6741C11.6759 15.8616 11.7748 15.0074 11.7696 14.1116C11.7696 13.2366 11.6759 12.4449 11.4884 11.7366C11.3009 11.0231 10.9936 10.458 10.5665 10.0413C10.1394 9.61942 9.56127 9.40848 8.8321 9.40848C8.34773 9.40848 7.91023 9.51004 7.5196 9.71317C7.13418 9.91629 6.82689 10.2001 6.59773 10.5647C6.37377 10.9293 6.26179 11.3564 6.26179 11.846C6.26179 12.1429 6.30085 12.458 6.37898 12.7913C6.4571 13.1246 6.53523 13.471 6.61335 13.8304C6.69148 14.1845 6.73314 14.5413 6.73835 14.9007C6.74356 15.6767 6.60554 16.3955 6.32429 17.0569C6.04304 17.7184 5.63418 18.2679 5.09773 18.7054C4.99356 18.7939 4.93106 18.8929 4.91023 19.0022C4.8946 19.1168 4.92064 19.2236 4.98835 19.3225C5.06648 19.4371 5.16804 19.4996 5.29304 19.51C5.42325 19.5205 5.54043 19.4814 5.6446 19.3929ZM7.47273 20.0179C7.78002 19.7939 8.10033 19.4501 8.43366 18.9866C8.767 18.5283 9.00658 18.0491 9.15241 17.5491C9.17846 17.4606 9.17585 17.359 9.1446 17.2444C9.11856 17.1246 9.04304 17.0439 8.91804 17.0022C8.78783 16.9554 8.67064 16.958 8.56648 17.01C8.46231 17.0621 8.392 17.1403 8.35554 17.2444C8.15762 17.7653 7.93627 18.1897 7.69148 18.5179C7.45189 18.846 7.20189 19.1116 6.94148 19.3147C6.84252 19.3929 6.78002 19.4892 6.75398 19.6038C6.73314 19.7236 6.75658 19.833 6.82429 19.9319C6.88679 20.0413 6.98314 20.1038 7.11335 20.1194C7.24356 20.135 7.36335 20.1012 7.47273 20.0179ZM9.59773 15.7288C9.67064 15.3746 9.70971 14.997 9.71491 14.596C9.72012 14.1897 9.69148 13.7783 9.62898 13.3616C9.56648 12.9449 9.47273 12.5413 9.34773 12.1507C9.29564 12.0048 9.21752 11.9033 9.11335 11.846C9.00918 11.7887 8.89721 11.7783 8.77741 11.8147C8.66283 11.8512 8.57689 11.9215 8.5196 12.0257C8.46231 12.1246 8.4545 12.2418 8.49616 12.3772C8.61596 12.7522 8.70189 13.1272 8.75398 13.5022C8.81127 13.872 8.83731 14.234 8.8321 14.5882C8.8321 14.9423 8.80085 15.2835 8.73835 15.6116C8.71231 15.7262 8.72533 15.833 8.77741 15.9319C8.8295 16.0309 8.92325 16.0908 9.05866 16.1116C9.18366 16.1376 9.29825 16.1168 9.40241 16.0491C9.50658 15.9762 9.57168 15.8694 9.59773 15.7288Z"
		fill="currentColor"
	/>
</svg>
