<svg
	color="rgb(var(--foreground, 0, 0, 0))"
	viewBox="0 0 11 24"
	fill="none"
	xmlns="http://www.w3.org/2000/svg"
>
	<path
		d="M5.07764 2.35851C4.37972 2.35851 3.72868 2.48611 3.12451 2.74132C2.52555 2.99653 1.99691 3.3533 1.53857 3.81163C1.08545 4.26476 0.728678 4.7934 0.468262 5.39757C0.213053 5.99653 0.0854492 6.64236 0.0854492 7.33507C0.0854492 8.03298 0.215658 8.69184 0.476074 9.31163C0.741699 9.92621 1.1141 10.4679 1.59326 10.9366C2.07243 11.4002 2.63753 11.7569 3.28857 12.0069V19.7179C3.28857 19.8168 3.3042 19.9054 3.33545 19.9835C3.37191 20.0616 3.42399 20.1372 3.4917 20.2101L4.79639 21.5226C4.8641 21.5903 4.95264 21.6293 5.06201 21.6398C5.1766 21.6502 5.27555 21.6137 5.35889 21.5304L7.83545 19.0538C7.91878 18.9705 7.95785 18.8767 7.95264 18.7726C7.95264 18.6684 7.91357 18.5747 7.83545 18.4913L6.29639 16.9757L8.40576 14.8741C8.48389 14.796 8.52034 14.7049 8.51514 14.6007C8.51514 14.4965 8.47347 14.4028 8.39014 14.3194L6.3042 12.2179C7.51253 11.7387 8.43962 11.072 9.08545 10.2179C9.73649 9.36371 10.062 8.40278 10.062 7.33507C10.062 6.64757 9.9318 6.00434 9.67139 5.40538C9.41618 4.80121 9.05941 4.27257 8.60107 3.81944C8.14795 3.36111 7.6193 3.00434 7.01514 2.74913C6.41097 2.48871 5.76514 2.35851 5.07764 2.35851ZM5.07764 7.13194C4.69222 7.13194 4.3641 6.99653 4.09326 6.72569C3.82243 6.45486 3.68701 6.12673 3.68701 5.74132C3.68701 5.3559 3.81982 5.02778 4.08545 4.75694C4.35628 4.48611 4.68701 4.35069 5.07764 4.35069C5.45785 4.35069 5.78337 4.48871 6.0542 4.76476C6.33024 5.03559 6.46826 5.36111 6.46826 5.74132C6.46826 6.12673 6.33024 6.45486 6.0542 6.72569C5.78337 6.99653 5.45785 7.13194 5.07764 7.13194Z"
		fill="currentColor"
	/>
</svg>
