<svg
	color="rgb(var(--foreground, 0, 0, 0))"
	viewBox="0 0 12 24"
	fill="none"
	xmlns="http://www.w3.org/2000/svg"
>
	<path
		d="M5.31982 21.5151C5.48649 21.6505 5.66878 21.7235 5.8667 21.7339C6.06982 21.7443 6.24951 21.674 6.40576 21.5229L8.81982 19.1089C8.97087 18.9526 9.04378 18.7703 9.03857 18.562C9.03857 18.3537 8.96305 18.174 8.81201 18.0229L7.60107 16.8198L9.3667 15.062C9.51774 14.911 9.59066 14.7313 9.58545 14.5229C9.58545 14.3146 9.50993 14.1323 9.35889 13.9761L7.72607 12.3354C8.79899 11.8198 9.62712 11.1401 10.2104 10.2964C10.7938 9.45262 11.0854 8.51252 11.0854 7.47606C11.0854 6.75731 10.95 6.08283 10.6792 5.45262C10.4084 4.82241 10.0334 4.26773 9.5542 3.78856C9.08024 3.30939 8.52555 2.937 7.89014 2.67137C7.25993 2.40054 6.58545 2.26512 5.8667 2.26512C5.13753 2.26512 4.45784 2.40054 3.82764 2.67137C3.19743 2.937 2.64274 3.30939 2.16357 3.78856C1.68441 4.26252 1.30941 4.8146 1.03857 5.44481C0.772949 6.07502 0.640137 6.7521 0.640137 7.47606C0.640137 8.17398 0.765137 8.83543 1.01514 9.46043C1.27035 10.0802 1.62972 10.6323 2.09326 11.1167C2.5568 11.6011 3.10628 11.9839 3.7417 12.2651V19.6401C3.7417 19.7703 3.76253 19.9031 3.8042 20.0386C3.85107 20.1792 3.9318 20.299 4.04639 20.3979L5.31982 21.5151ZM5.8667 20.2807L4.99951 19.4214V11.3589C4.39014 11.2235 3.85107 10.9682 3.38232 10.5932C2.91357 10.2182 2.54639 9.76252 2.28076 9.22606C2.02035 8.6896 1.89014 8.10627 1.89014 7.47606C1.89014 6.92918 1.9917 6.41877 2.19482 5.94481C2.40316 5.46564 2.68701 5.04637 3.04639 4.687C3.41097 4.32241 3.83284 4.03856 4.31201 3.83543C4.79639 3.6271 5.31462 3.52293 5.8667 3.52293C6.59587 3.52293 7.25993 3.70002 7.85889 4.05418C8.46305 4.40835 8.94222 4.88491 9.29639 5.48387C9.65055 6.08283 9.82764 6.74689 9.82764 7.47606C9.82764 8.09585 9.69222 8.67658 9.42139 9.21825C9.15576 9.7547 8.77816 10.2156 8.28857 10.6011C7.8042 10.9865 7.23649 11.2573 6.58545 11.4136V12.9917L8.1167 14.5307L6.46045 16.1636V17.4604L7.56982 18.5542L5.8667 20.2807ZM5.8667 7.54637C6.25732 7.54637 6.59066 7.40835 6.8667 7.13231C7.14274 6.85627 7.28076 6.52033 7.28076 6.1245C7.28076 5.73387 7.14274 5.40054 6.8667 5.1245C6.59066 4.84845 6.25732 4.71043 5.8667 4.71043C5.47087 4.71043 5.13493 4.84845 4.85889 5.1245C4.58284 5.39533 4.44482 5.72866 4.44482 6.1245C4.44482 6.52033 4.58284 6.85627 4.85889 7.13231C5.13493 7.40835 5.47087 7.54637 5.8667 7.54637Z"
		fill="currentColor"
	/>
</svg>
