<svg
	color="rgb(var(--foreground, 0, 0, 0))"
	viewBox="0 0 17 24"
	fill="none"
	xmlns="http://www.w3.org/2000/svg"
>
	<path
		d="M1.76587 19.6562H8.91429C9.48721 19.6562 9.9221 19.5 10.219 19.1875C10.5211 18.8802 10.6721 18.4167 10.6721 17.7969V12.4141C10.6721 11.7995 10.5211 11.3385 10.219 11.0312C9.9221 10.7188 9.48721 10.5625 8.91429 10.5625H1.76587C1.19295 10.5625 0.755453 10.7188 0.453369 11.0312C0.156494 11.3385 0.00805664 11.7995 0.00805664 12.4141V17.7969C0.00805664 18.4167 0.156494 18.8802 0.453369 19.1875C0.755453 19.5 1.19295 19.6562 1.76587 19.6562ZM1.80493 18.4766C1.63827 18.4766 1.50806 18.4245 1.41431 18.3203C1.32056 18.2214 1.27368 18.0755 1.27368 17.8828V12.3281C1.27368 12.1354 1.32056 11.9896 1.41431 11.8906C1.50806 11.7917 1.63827 11.7422 1.80493 11.7422H8.87523C9.0471 11.7422 9.17731 11.7917 9.26585 11.8906C9.3596 11.9896 9.40648 12.1354 9.40648 12.3281V17.8828C9.40648 18.0755 9.3596 18.2214 9.26585 18.3203C9.17731 18.4245 9.0471 18.4766 8.87523 18.4766H1.80493ZM8.15648 11.1719H9.39085V8.53906C9.39085 7.88281 9.51585 7.33073 9.76585 6.88281C10.0211 6.4349 10.3544 6.09635 10.7659 5.86719C11.1773 5.63802 11.6278 5.52344 12.1174 5.52344C12.6018 5.52344 13.0497 5.63802 13.4612 5.86719C13.8778 6.09635 14.2112 6.4349 14.4612 6.88281C14.7164 7.33073 14.844 7.88281 14.844 8.53906V10.2734C14.844 10.5078 14.9039 10.6823 15.0237 10.7969C15.1435 10.9115 15.2919 10.9688 15.469 10.9688C15.6356 10.9688 15.7789 10.9141 15.8987 10.8047C16.0237 10.6953 16.0862 10.5182 16.0862 10.2734V8.70312C16.0862 7.96875 15.9768 7.32812 15.758 6.78125C15.5393 6.23438 15.2424 5.78125 14.8674 5.42188C14.4924 5.05729 14.0679 4.78646 13.594 4.60938C13.12 4.43229 12.6278 4.34375 12.1174 4.34375C11.607 4.34375 11.1148 4.43229 10.6409 4.60938C10.1669 4.78646 9.74242 5.05729 9.36742 5.42188C8.99242 5.78125 8.69554 6.23438 8.47679 6.78125C8.26325 7.32812 8.15648 7.96875 8.15648 8.70312V11.1719Z"
		fill="currentColor"
	/>
</svg>
