<svg
	color="rgb(var(--foreground, 0, 0, 0))"
	viewBox="0 0 11 24"
	fill="none"
	xmlns="http://www.w3.org/2000/svg"
>
	<path
		d="M1.83618 19.6602H8.98462C9.55754 19.6602 9.99243 19.5039 10.2893 19.1914C10.5914 18.8841 10.7424 18.4206 10.7424 17.8008V12.418C10.7424 11.8034 10.5914 11.3424 10.2893 11.0352C9.99243 10.7227 9.55754 10.5664 8.98462 10.5664H1.83618C1.26326 10.5664 0.825765 10.7227 0.523682 11.0352C0.226807 11.3424 0.0783691 11.8034 0.0783691 12.418V17.8008C0.0783691 18.4206 0.226807 18.8841 0.523682 19.1914C0.825765 19.5039 1.26326 19.6602 1.83618 19.6602ZM1.87524 18.4805C1.70858 18.4805 1.57837 18.4284 1.48462 18.3242C1.39087 18.2253 1.34399 18.0794 1.34399 17.8867V12.332C1.34399 12.1393 1.39087 11.9935 1.48462 11.8945C1.57837 11.7956 1.70858 11.7461 1.87524 11.7461H8.94556C9.11743 11.7461 9.24764 11.7956 9.33618 11.8945C9.42993 11.9935 9.47681 12.1393 9.47681 12.332V17.8867C9.47681 18.0794 9.42993 18.2253 9.33618 18.3242C9.24764 18.4284 9.11743 18.4805 8.94556 18.4805H1.87524ZM1.44556 11.168H2.68774V8.53516C2.68774 7.87891 2.81274 7.32682 3.06274 6.87891C3.31274 6.43099 3.64347 6.09245 4.05493 5.86328C4.4716 5.63411 4.92212 5.51953 5.40649 5.51953C5.89608 5.51953 6.3466 5.63411 6.75806 5.86328C7.17472 6.09245 7.50806 6.43099 7.75806 6.87891C8.01327 7.32682 8.14087 7.87891 8.14087 8.53516V11.168H9.37524V8.69922C9.37524 7.72005 9.18514 6.90755 8.80493 6.26172C8.42993 5.61589 7.94035 5.13411 7.33618 4.81641C6.73202 4.4987 6.08879 4.33984 5.40649 4.33984C4.72941 4.33984 4.08879 4.4987 3.48462 4.81641C2.88045 5.13411 2.38826 5.61589 2.00806 6.26172C1.63306 6.90755 1.44556 7.72005 1.44556 8.69922V11.168Z"
		fill="currentColor"
	/>
</svg>
