<svg
	color="rgb(var(--foreground, 0, 0, 0))"
	viewBox="0 0 17 24"
	fill="none"
	xmlns="http://www.w3.org/2000/svg"
>
	<path
		d="M1.84399 19.6562H8.99243C9.56535 19.6562 10.0002 19.5 10.2971 19.1875C10.5992 18.8802 10.7502 18.4167 10.7502 17.7969V12.4141C10.7502 11.7995 10.5992 11.3385 10.2971 11.0312C10.0002 10.7188 9.56535 10.5625 8.99243 10.5625H1.84399C1.27108 10.5625 0.833578 10.7188 0.531494 11.0312C0.234619 11.3385 0.0861816 11.7995 0.0861816 12.4141V17.7969C0.0861816 18.4167 0.234619 18.8802 0.531494 19.1875C0.833578 19.5 1.27108 19.6562 1.84399 19.6562ZM8.23462 11.1719H9.46899V8.53906C9.46899 7.88281 9.59399 7.33073 9.84399 6.88281C10.0992 6.4349 10.4325 6.09635 10.844 5.86719C11.2555 5.63802 11.706 5.52344 12.1956 5.52344C12.6799 5.52344 13.1278 5.63802 13.5393 5.86719C13.956 6.09635 14.2893 6.4349 14.5393 6.88281C14.7945 7.33073 14.9221 7.88281 14.9221 8.53906V10.2734C14.9221 10.5078 14.982 10.6823 15.1018 10.7969C15.2216 10.9115 15.37 10.9688 15.5471 10.9688C15.7138 10.9688 15.857 10.9141 15.9768 10.8047C16.1018 10.6953 16.1643 10.5182 16.1643 10.2734V8.70312C16.1643 7.96875 16.0549 7.32812 15.8362 6.78125C15.6174 6.23438 15.3206 5.78125 14.9456 5.42188C14.5706 5.05729 14.1461 4.78646 13.6721 4.60938C13.1982 4.43229 12.706 4.34375 12.1956 4.34375C11.6851 4.34375 11.193 4.43229 10.719 4.60938C10.245 4.78646 9.82056 5.05729 9.44556 5.42188C9.07056 5.78125 8.77368 6.23438 8.55493 6.78125C8.34139 7.32812 8.23462 7.96875 8.23462 8.70312V11.1719Z"
		fill="currentColor"
	/>
</svg>
