<svg
	color="rgb(var(--foreground, 0, 0, 0))"
	viewBox="0 0 12 24"
	fill="none"
	xmlns="http://www.w3.org/2000/svg"
>
	<path
		d="M2.50024 19.6641H9.64868C10.2216 19.6641 10.6565 19.5078 10.9534 19.1953C11.2555 18.8828 11.4065 18.4193 11.4065 17.8047V12.4219C11.4065 11.8073 11.2555 11.3464 10.9534 11.0391C10.6565 10.7266 10.2216 10.5703 9.64868 10.5703H2.50024C1.92733 10.5703 1.48983 10.7266 1.18774 11.0391C0.890869 11.3464 0.742432 11.8073 0.742432 12.4219V17.8047C0.742432 18.4193 0.890869 18.8828 1.18774 19.1953C1.48983 19.5078 1.92733 19.6641 2.50024 19.6641ZM2.10962 11.1719H3.35181V8.53125C3.35181 7.875 3.47681 7.32292 3.72681 6.875C3.97681 6.42708 4.30754 6.08854 4.71899 5.85938C5.13566 5.63021 5.58618 5.51562 6.07056 5.51562C6.56014 5.51562 7.01066 5.63021 7.42212 5.85938C7.83879 6.08854 8.17212 6.42708 8.42212 6.875C8.67733 7.32292 8.80493 7.875 8.80493 8.53125V11.1719H10.0393V8.70312C10.0393 7.72396 9.8492 6.91146 9.46899 6.26562C9.09399 5.61979 8.60441 5.13802 8.00024 4.82031C7.39608 4.4974 6.75285 4.33594 6.07056 4.33594C5.39347 4.33594 4.75285 4.4974 4.14868 4.82031C3.54451 5.13802 3.05233 5.61979 2.67212 6.26562C2.29712 6.91146 2.10962 7.72396 2.10962 8.70312V11.1719Z"
		fill="currentColor"
	/>
</svg>
