<svg
	color="rgb(var(--foreground, 0, 0, 0))"
	viewBox="0 0 14 24"
	fill="none"
	xmlns="http://www.w3.org/2000/svg"
>
	<path
		d="M6.74255 19.8906C6.80505 19.8906 6.88318 19.8776 6.97693 19.8516C7.07068 19.8255 7.16703 19.7865 7.26599 19.7344C8.38057 19.1094 9.31807 18.5547 10.0785 18.0703C10.8441 17.5911 11.4587 17.125 11.9222 16.6719C12.3858 16.2188 12.7191 15.7292 12.9222 15.2031C13.1306 14.6719 13.2347 14.0495 13.2347 13.3359V7.35938C13.2347 6.94792 13.1488 6.65365 12.9769 6.47656C12.8051 6.29948 12.5524 6.14062 12.2191 6C12.0368 5.92188 11.7842 5.82292 11.4613 5.70312C11.1384 5.57812 10.7816 5.44531 10.391 5.30469C10.0056 5.15885 9.61755 5.01562 9.22693 4.875C8.8363 4.73438 8.47953 4.60677 8.15662 4.49219C7.8337 4.3776 7.5811 4.28906 7.3988 4.22656C7.29464 4.19531 7.18526 4.16927 7.07068 4.14844C6.9613 4.1224 6.85193 4.10938 6.74255 4.10938C6.63318 4.10938 6.5238 4.1224 6.41443 4.14844C6.30505 4.17448 6.19828 4.20052 6.09412 4.22656C5.90662 4.27865 5.65141 4.36198 5.32849 4.47656C5.00557 4.58594 4.6488 4.71354 4.25818 4.85938C3.87276 5 3.48474 5.14323 3.09412 5.28906C2.70349 5.4349 2.34672 5.57031 2.0238 5.69531C1.70089 5.82031 1.44828 5.92188 1.26599 6C0.937866 6.13542 0.685262 6.29427 0.508179 6.47656C0.336304 6.65365 0.250366 6.94792 0.250366 7.35938V13.3359C0.250366 14.0495 0.354533 14.6693 0.562866 15.1953C0.7712 15.7214 1.10714 16.2109 1.57068 16.6641C2.03422 17.1172 2.6462 17.5859 3.40662 18.0703C4.17224 18.5547 5.10974 19.1094 6.21912 19.7344C6.31807 19.7865 6.41443 19.8255 6.50818 19.8516C6.60193 19.8776 6.68005 19.8906 6.74255 19.8906ZM6.74255 18.4766C6.68005 18.4766 6.61235 18.4609 6.53943 18.4297C6.46651 18.4036 6.37276 18.3568 6.25818 18.2891C5.35714 17.7422 4.59932 17.2734 3.98474 16.8828C3.37537 16.487 2.88839 16.112 2.5238 15.7578C2.15922 15.3984 1.8962 15.0078 1.73474 14.5859C1.57328 14.1641 1.49255 13.651 1.49255 13.0469V7.60156C1.49255 7.47135 1.50818 7.375 1.53943 7.3125C1.57589 7.24479 1.6488 7.1901 1.75818 7.14844C1.99255 7.05469 2.26599 6.95052 2.57849 6.83594C2.89099 6.72135 3.22172 6.60156 3.57068 6.47656C3.91964 6.35156 4.2686 6.22917 4.61755 6.10938C4.96651 5.98438 5.29724 5.86458 5.60974 5.75C5.92224 5.63542 6.19568 5.53125 6.43005 5.4375C6.49255 5.41146 6.54985 5.39323 6.60193 5.38281C6.65401 5.3724 6.70089 5.36719 6.74255 5.36719C6.78422 5.36719 6.8311 5.3724 6.88318 5.38281C6.93526 5.39323 6.99255 5.41146 7.05505 5.4375C7.28943 5.53125 7.56287 5.63802 7.87537 5.75781C8.18787 5.8724 8.51599 5.99479 8.85974 6.125C9.2087 6.25 9.55505 6.375 9.8988 6.5C10.2478 6.625 10.5785 6.74479 10.891 6.85938C11.2087 6.96875 11.4899 7.0651 11.7347 7.14844C11.8389 7.1849 11.9066 7.23698 11.9379 7.30469C11.9743 7.3724 11.9926 7.47135 11.9926 7.60156V13.0469C11.9926 13.651 11.9118 14.1641 11.7504 14.5859C11.5941 15.0078 11.3311 15.3958 10.9613 15.75C10.5967 16.1042 10.1071 16.4792 9.49255 16.875C8.88318 17.2708 8.12797 17.7422 7.22693 18.2891C7.11235 18.3568 7.0186 18.4036 6.94568 18.4297C6.87276 18.4609 6.80505 18.4766 6.74255 18.4766Z"
		fill="currentColor"
	/>
</svg>
