<svg
	color="rgb(var(--foreground, 0, 0, 0))"
	viewBox="0 0 14 24"
	fill="none"
	xmlns="http://www.w3.org/2000/svg"
>
	<path
		d="M7.06054 19.8906C7.12304 19.8906 7.20117 19.8776 7.29492 19.8516C7.38867 19.8255 7.48502 19.7865 7.58398 19.7344C8.69857 19.1094 9.63607 18.5547 10.3965 18.0703C11.1621 17.5911 11.7767 17.125 12.2402 16.6719C12.7038 16.2188 13.0371 15.7292 13.2402 15.2031C13.4486 14.6719 13.5527 14.0495 13.5527 13.3359V7.35938C13.5527 6.94792 13.4668 6.65365 13.2949 6.47656C13.123 6.29948 12.8704 6.14062 12.5371 6C12.3548 5.92188 12.1022 5.82292 11.7793 5.70312C11.4564 5.57812 11.0996 5.44531 10.709 5.30469C10.3236 5.15885 9.93554 5.01562 9.54492 4.875C9.15429 4.73438 8.79752 4.60677 8.47461 4.49219C8.15169 4.3776 7.89909 4.28906 7.71679 4.22656C7.61263 4.19531 7.50325 4.16927 7.38867 4.14844C7.27929 4.1224 7.16992 4.10938 7.06054 4.10938C6.95117 4.10938 6.84179 4.1224 6.73242 4.14844C6.62304 4.17448 6.51627 4.20052 6.41211 4.22656C6.22461 4.27865 5.9694 4.36198 5.64648 4.47656C5.32357 4.58594 4.9668 4.71354 4.57617 4.85938C4.19076 5 3.80273 5.14323 3.41211 5.28906C3.02148 5.4349 2.66471 5.57031 2.3418 5.69531C2.01888 5.82031 1.76628 5.92188 1.58398 6C1.25586 6.13542 1.00326 6.29427 0.826172 6.47656C0.654297 6.65365 0.568359 6.94792 0.568359 7.35938V13.3359C0.568359 14.0495 0.672526 14.6693 0.880859 15.1953C1.08919 15.7214 1.42513 16.2109 1.88867 16.6641C2.35221 17.1172 2.96419 17.5859 3.72461 18.0703C4.49023 18.5547 5.42773 19.1094 6.53711 19.7344C6.63607 19.7865 6.73242 19.8255 6.82617 19.8516C6.91992 19.8776 6.99804 19.8906 7.06054 19.8906ZM7.06054 18.4766C6.99804 18.4766 6.93034 18.4609 6.85742 18.4297C6.7845 18.4036 6.69075 18.3568 6.57617 18.2891C5.67513 17.7422 4.91732 17.2734 4.30273 16.8828C3.69336 16.487 3.20638 16.112 2.8418 15.7578C2.47721 15.3984 2.21419 15.0078 2.05273 14.5859C1.89128 14.1641 1.81055 13.651 1.81055 13.0469V7.60156C1.81055 7.47135 1.82617 7.375 1.85742 7.3125C1.89388 7.24479 1.9668 7.1901 2.07617 7.14844C2.31055 7.05469 2.58398 6.95052 2.89648 6.83594C3.20898 6.72135 3.53971 6.60156 3.88867 6.47656C4.23763 6.35156 4.58659 6.22917 4.93555 6.10938C5.28451 5.98438 5.61523 5.86458 5.92773 5.75C6.24023 5.63542 6.51367 5.53125 6.74804 5.4375C6.81054 5.41146 6.86784 5.39323 6.91992 5.38281C6.972 5.3724 7.01888 5.36719 7.06054 5.36719C7.10221 5.36719 7.14909 5.3724 7.20117 5.38281C7.25325 5.39323 7.31054 5.41146 7.37304 5.4375C7.60742 5.53125 7.88086 5.63802 8.19336 5.75781C8.50586 5.8724 8.83398 5.99479 9.17773 6.125C9.52669 6.25 9.87304 6.375 10.2168 6.5C10.5658 6.625 10.8965 6.74479 11.209 6.85938C11.5267 6.96875 11.8079 7.0651 12.0527 7.14844C12.1569 7.1849 12.2246 7.23698 12.2559 7.30469C12.2923 7.3724 12.3105 7.47135 12.3105 7.60156V13.0469C12.3105 13.651 12.2298 14.1641 12.0684 14.5859C11.9121 15.0078 11.6491 15.3958 11.2793 15.75C10.9147 16.1042 10.4251 16.4792 9.81054 16.875C9.20117 17.2708 8.44596 17.7422 7.54492 18.2891C7.43034 18.3568 7.33659 18.4036 7.26367 18.4297C7.19075 18.4609 7.12304 18.4766 7.06054 18.4766ZM6.20898 15.3281C6.47461 15.3281 6.68554 15.2083 6.84179 14.9688L10.4121 9.34375C10.459 9.27083 10.5006 9.19271 10.5371 9.10938C10.5788 9.02083 10.5996 8.93229 10.5996 8.84375C10.5996 8.67188 10.5345 8.53385 10.4043 8.42969C10.2741 8.32552 10.1283 8.27344 9.96679 8.27344C9.74804 8.27344 9.56575 8.39062 9.41992 8.625L6.17773 13.8281L4.63867 11.8359C4.54492 11.7109 4.45117 11.6276 4.35742 11.5859C4.26888 11.5391 4.16992 11.5156 4.06055 11.5156C3.89388 11.5156 3.75065 11.5781 3.63086 11.7031C3.51628 11.8229 3.45898 11.9688 3.45898 12.1406C3.45898 12.3021 3.51888 12.4635 3.63867 12.625L5.54492 14.9688C5.64388 15.0938 5.74544 15.1849 5.84961 15.2422C5.95898 15.2995 6.07878 15.3281 6.20898 15.3281Z"
		fill="currentColor"
	/>
</svg>
