<svg
	color="rgb(var(--foreground, 0, 0, 0))"
	viewBox="0 0 14 24"
	fill="none"
	xmlns="http://www.w3.org/2000/svg"
>
	<path
		d="M6.94336 19.7656C7.00586 19.7656 7.08138 19.7526 7.16992 19.7266C7.26367 19.7057 7.36003 19.6693 7.45898 19.6172C8.57357 19.0339 9.50586 18.5078 10.2559 18.0391C11.0111 17.5703 11.6126 17.1068 12.0605 16.6484C12.5137 16.1901 12.8392 15.6979 13.0371 15.1719C13.235 14.6406 13.334 14.0234 13.334 13.3203V7.42969C13.334 7.02865 13.248 6.73958 13.0762 6.5625C12.9095 6.38542 12.6621 6.22917 12.334 6.09375C12.1517 6.01562 11.9017 5.91667 11.584 5.79688C11.2663 5.67708 10.9147 5.54688 10.5293 5.40625C10.1491 5.26562 9.76628 5.125 9.38086 4.98438C9.00065 4.84375 8.65169 4.71875 8.33398 4.60938C8.02148 4.49479 7.77409 4.40625 7.5918 4.34375C7.48763 4.3125 7.38086 4.28646 7.27148 4.26562C7.16211 4.24479 7.05273 4.23438 6.94336 4.23438C6.83398 4.23438 6.72461 4.24479 6.61523 4.26562C6.51107 4.28646 6.4069 4.3125 6.30273 4.34375C6.12044 4.40625 5.87044 4.49479 5.55273 4.60938C5.23503 4.71875 4.88346 4.84375 4.49805 4.98438C4.11784 5.11979 3.73503 5.26042 3.34961 5.40625C2.9694 5.54688 2.62044 5.67969 2.30273 5.80469C1.98503 5.92448 1.73503 6.02083 1.55273 6.09375C1.22982 6.22396 0.982422 6.38021 0.810547 6.5625C0.638672 6.73958 0.552734 7.02865 0.552734 7.42969V13.3203C0.552734 14.0234 0.654297 14.6354 0.857422 15.1562C1.06576 15.6719 1.39648 16.1536 1.84961 16.6016C2.30794 17.0443 2.91211 17.5026 3.66211 17.9766C4.41732 18.4505 5.33919 18.9974 6.42773 19.6172C6.52669 19.6693 6.62044 19.7057 6.70898 19.7266C6.80273 19.7526 6.88086 19.7656 6.94336 19.7656ZM6.06836 15.5234C5.93294 15.5234 5.81055 15.4948 5.70117 15.4375C5.5918 15.3802 5.48503 15.2839 5.38086 15.1484L3.41992 12.7422C3.36263 12.6641 3.31576 12.5833 3.2793 12.5C3.24805 12.4115 3.23242 12.3229 3.23242 12.2344C3.23242 12.0573 3.29232 11.9062 3.41211 11.7812C3.5319 11.651 3.68034 11.5859 3.85742 11.5859C3.97201 11.5859 4.07357 11.6094 4.16211 11.6562C4.25586 11.7031 4.35221 11.7917 4.45117 11.9219L6.03711 13.9688L9.37305 8.60938C9.51888 8.36979 9.70638 8.25 9.93555 8.25C10.1022 8.25 10.2533 8.30469 10.3887 8.41406C10.5241 8.51823 10.5918 8.66146 10.5918 8.84375C10.5918 8.93229 10.571 9.02083 10.5293 9.10938C10.4876 9.19792 10.4434 9.28125 10.3965 9.35938L6.72461 15.1484C6.64128 15.2734 6.54492 15.3672 6.43555 15.4297C6.32617 15.4922 6.20378 15.5234 6.06836 15.5234Z"
		fill="currentColor"
	/>
</svg>
