<svg
	color="rgb(var(--foreground, 0, 0, 0))"
	viewBox="0 0 14 24"
	fill="none"
	xmlns="http://www.w3.org/2000/svg"
>
	<path
		d="M6.62537 19.7656C6.68787 19.7656 6.76339 19.7526 6.85193 19.7266C6.94568 19.7057 7.04203 19.6693 7.14099 19.6172C8.25557 19.0339 9.18787 18.5078 9.93787 18.0391C10.6931 17.5703 11.2946 17.1068 11.7426 16.6484C12.1957 16.1901 12.5212 15.6979 12.7191 15.1719C12.917 14.6406 13.016 14.0234 13.016 13.3203V7.42969C13.016 7.02865 12.9301 6.73958 12.7582 6.5625C12.5915 6.38542 12.3441 6.22917 12.016 6.09375C11.8337 6.01562 11.5837 5.91667 11.266 5.79688C10.9483 5.67708 10.5967 5.54688 10.2113 5.40625C9.8311 5.26562 9.44828 5.125 9.06287 4.98438C8.68266 4.84375 8.3337 4.71875 8.01599 4.60938C7.70349 4.49479 7.4561 4.40625 7.2738 4.34375C7.16964 4.3125 7.06287 4.28646 6.95349 4.26562C6.84412 4.24479 6.73474 4.23438 6.62537 4.23438C6.51599 4.23438 6.40662 4.24479 6.29724 4.26562C6.19307 4.28646 6.08891 4.3125 5.98474 4.34375C5.80245 4.40625 5.55245 4.49479 5.23474 4.60938C4.91703 4.71875 4.56547 4.84375 4.18005 4.98438C3.79985 5.11979 3.41703 5.26042 3.03162 5.40625C2.65141 5.54688 2.30245 5.67969 1.98474 5.80469C1.66703 5.92448 1.41703 6.02083 1.23474 6.09375C0.911825 6.22396 0.664429 6.38021 0.492554 6.5625C0.320679 6.73958 0.234741 7.02865 0.234741 7.42969V13.3203C0.234741 14.0234 0.336304 14.6354 0.539429 15.1562C0.747762 15.6719 1.07849 16.1536 1.53162 16.6016C1.98995 17.0443 2.59412 17.5026 3.34412 17.9766C4.09932 18.4505 5.0212 18.9974 6.10974 19.6172C6.2087 19.6693 6.30245 19.7057 6.39099 19.7266C6.48474 19.7526 6.56287 19.7656 6.62537 19.7656Z"
		fill="currentColor"
	/>
</svg>
