<svg
	color="rgb(var(--foreground, 0, 0, 0))"
	viewBox="0 0 19 24"
	fill="none"
	xmlns="http://www.w3.org/2000/svg"
>
	<path
		d="M4.90649 18.7773H6.59399C6.75545 18.7773 6.88827 18.832 6.99243 18.9414L8.19556 20.1367C8.69035 20.6315 9.16951 20.8763 9.63306 20.8711C10.1018 20.8711 10.5836 20.6263 11.0784 20.1367L12.2815 18.9414C12.3909 18.832 12.5237 18.7773 12.6799 18.7773H14.3674C15.0653 18.7773 15.581 18.6106 15.9143 18.2773C16.2476 17.9492 16.4143 17.4336 16.4143 16.7304V15.0429C16.4143 14.8867 16.469 14.7539 16.5784 14.6445L17.7659 13.4414C18.2659 12.9518 18.5133 12.4726 18.5081 12.0039C18.5081 11.5351 18.2607 11.0533 17.7659 10.5586L16.5784 9.35543C16.469 9.24606 16.4143 9.11585 16.4143 8.96481V7.26949C16.4143 6.57678 16.2476 6.06376 15.9143 5.73043C15.5862 5.39189 15.0706 5.22262 14.3674 5.22262H12.6799C12.5237 5.22262 12.3909 5.17053 12.2815 5.06637L11.0784 3.87106C10.5836 3.37626 10.1018 3.12887 9.63306 3.12887C9.16951 3.12887 8.69035 3.37626 8.19556 3.87106L6.99243 5.06637C6.88827 5.17053 6.75545 5.22262 6.59399 5.22262H4.90649C4.20858 5.22262 3.69295 5.38928 3.35962 5.72262C3.02629 6.05074 2.85962 6.56637 2.85962 7.26949V8.96481C2.85962 9.11585 2.80754 9.24606 2.70337 9.35543L1.50806 10.5586C1.01326 11.0533 0.765869 11.5351 0.765869 12.0039C0.765869 12.4726 1.01326 12.9518 1.50806 13.4414L2.70337 14.6445C2.80754 14.7539 2.85962 14.8867 2.85962 15.0429V16.7304C2.85962 17.4283 3.02629 17.944 3.35962 18.2773C3.69295 18.6106 4.20858 18.7773 4.90649 18.7773ZM4.90649 17.5351C4.55754 17.5351 4.33618 17.4882 4.24243 17.3945C4.14868 17.3007 4.10181 17.0794 4.10181 16.7304V14.6289C4.10181 14.3997 4.02108 14.2044 3.85962 14.0429L2.38306 12.5742C2.13306 12.3242 2.00806 12.1341 2.00806 12.0039C2.00806 11.8737 2.13306 11.6836 2.38306 11.4336L3.85962 9.96481C4.02108 9.79814 4.10181 9.60022 4.10181 9.37106V7.26949C4.10181 6.92053 4.14608 6.69918 4.23462 6.60543C4.32837 6.51168 4.55233 6.46481 4.90649 6.46481H7.00806C7.24764 6.46481 7.44556 6.38408 7.60181 6.22262L9.07056 4.74606C9.32056 4.50126 9.50806 4.37887 9.63306 4.37887C9.76326 4.37887 9.95337 4.50126 10.2034 4.74606L11.6799 6.22262C11.8362 6.38408 12.0315 6.46481 12.2659 6.46481H14.3674C14.7164 6.46481 14.9377 6.51428 15.0315 6.61324C15.1252 6.70699 15.1721 6.92574 15.1721 7.26949V9.37106C15.1721 9.60022 15.2555 9.79814 15.4221 9.96481L16.8987 11.4336C17.1435 11.6836 17.2659 11.8737 17.2659 12.0039C17.2659 12.1341 17.1435 12.3242 16.8987 12.5742L15.4221 14.0429C15.2555 14.2044 15.1721 14.3997 15.1721 14.6289V16.7304C15.1721 17.0794 15.1252 17.3007 15.0315 17.3945C14.9377 17.4882 14.7164 17.5351 14.3674 17.5351H12.2659C12.0315 17.5351 11.8362 17.6185 11.6799 17.7851L10.2034 19.2617C9.95337 19.5065 9.76326 19.6289 9.63306 19.6289C9.50806 19.6289 9.32056 19.5065 9.07056 19.2617L7.60181 17.7851C7.44556 17.6185 7.24764 17.5351 7.00806 17.5351H4.90649ZM6.97681 15.3086C7.1591 15.3086 7.31014 15.2435 7.42993 15.1132L9.64087 12.8945L11.8674 15.1132C11.9924 15.2435 12.1409 15.3086 12.3127 15.3086C12.4846 15.3086 12.6305 15.2461 12.7502 15.1211C12.8752 14.9961 12.9377 14.8476 12.9377 14.6757C12.9377 14.5039 12.8752 14.3554 12.7502 14.2304L10.5315 12.0117L12.7581 9.77731C12.8831 9.65231 12.9456 9.50647 12.9456 9.33981C12.9456 9.16793 12.8831 9.0221 12.7581 8.90231C12.6383 8.77731 12.4924 8.71481 12.3206 8.71481C12.1591 8.71481 12.0159 8.77991 11.8909 8.91012L9.64087 11.1367L7.41431 8.91793C7.29972 8.79293 7.15389 8.73043 6.97681 8.73043C6.80493 8.73043 6.65649 8.79033 6.53149 8.91012C6.4117 9.02991 6.35181 9.17574 6.35181 9.34762C6.35181 9.51949 6.41431 9.66533 6.53931 9.78512L8.75806 12.0117L6.53931 14.2382C6.41431 14.358 6.35181 14.5039 6.35181 14.6757C6.35181 14.8476 6.4117 14.9961 6.53149 15.1211C6.65649 15.2461 6.80493 15.3086 6.97681 15.3086Z"
		fill="currentColor"
	/>
</svg>
