<svg
	color="rgb(var(--foreground, 0, 0, 0))"
	viewBox="0 0 19 24"
	fill="none"
	xmlns="http://www.w3.org/2000/svg"
>
	<path
		d="M4.64868 18.7773H6.34399C6.50024 18.7773 6.63045 18.832 6.73462 18.9414L7.93774 20.1367C8.43254 20.6315 8.91431 20.8763 9.38306 20.8711C9.85181 20.8711 10.331 20.6263 10.8206 20.1367L12.0237 18.9414C12.1331 18.832 12.2659 18.7773 12.4221 18.7773H14.1096C14.8075 18.7773 15.3232 18.6107 15.6565 18.2773C15.9898 17.9492 16.1565 17.4336 16.1565 16.7305V15.043C16.1565 14.8867 16.2112 14.7539 16.3206 14.6445L17.5159 13.4414C18.0107 12.9518 18.2555 12.4727 18.2502 12.0039C18.2502 11.5352 18.0055 11.0534 17.5159 10.5586L16.3206 9.35547C16.2112 9.24609 16.1565 9.11589 16.1565 8.96484V7.26953C16.1565 6.57682 15.9898 6.0638 15.6565 5.73047C15.3284 5.39193 14.8127 5.22266 14.1096 5.22266H12.4221C12.2659 5.22266 12.1331 5.17057 12.0237 5.06641L10.8206 3.87109C10.331 3.37109 9.85181 3.1237 9.38306 3.12891C8.91431 3.12891 8.43254 3.3763 7.93774 3.87109L6.73462 5.06641C6.63045 5.17057 6.50024 5.22266 6.34399 5.22266H4.64868C3.95076 5.22266 3.43514 5.38932 3.10181 5.72266C2.76847 6.05078 2.60181 6.56641 2.60181 7.26953V8.96484C2.60181 9.11589 2.54972 9.24609 2.44556 9.35547L1.25024 10.5586C0.755452 11.0534 0.508057 11.5352 0.508057 12.0039C0.508057 12.4727 0.755452 12.9518 1.25024 13.4414L2.44556 14.6445C2.54972 14.7539 2.60181 14.8867 2.60181 15.043V16.7305C2.60181 17.4284 2.76847 17.944 3.10181 18.2773C3.43514 18.6107 3.95076 18.7773 4.64868 18.7773ZM6.75806 15.2852C6.58097 15.2852 6.42993 15.2227 6.30493 15.0977C6.17993 14.9674 6.11743 14.8138 6.11743 14.6367C6.11743 14.4596 6.17993 14.3086 6.30493 14.1836L8.47681 12.0117L6.30493 9.84766C6.17993 9.71745 6.11743 9.56641 6.11743 9.39453C6.11743 9.21224 6.17993 9.0612 6.30493 8.94141C6.42993 8.81641 6.58097 8.75391 6.75806 8.75391C6.92993 8.75391 7.08097 8.8138 7.21118 8.93359L9.39087 11.1055L11.5862 8.92578C11.7112 8.80078 11.8596 8.73828 12.0315 8.73828C12.2086 8.73828 12.3596 8.80078 12.4846 8.92578C12.6096 9.05078 12.6721 9.20182 12.6721 9.37891C12.6721 9.55599 12.6096 9.70964 12.4846 9.83984L10.3049 12.0117L12.4768 14.1758C12.6018 14.2904 12.6643 14.444 12.6643 14.6367C12.6643 14.8138 12.6018 14.9674 12.4768 15.0977C12.3518 15.2227 12.1982 15.2852 12.0159 15.2852C11.8284 15.2852 11.6747 15.2227 11.5549 15.0977L9.39087 12.9258L7.23462 15.0977C7.10441 15.2227 6.94556 15.2852 6.75806 15.2852Z"
		fill="currentColor"
	/>
</svg>
