<svg
	color="rgb(var(--foreground, 0, 0, 0))"
	viewBox="0 0 19 24"
	fill="none"
	xmlns="http://www.w3.org/2000/svg"
>
	<path
		d="M4.42188 18.7773H6.10938C6.27083 18.7773 6.40365 18.832 6.50781 18.9414L7.71094 20.1367C8.20573 20.6315 8.6849 20.8763 9.14844 20.8711C9.61719 20.8711 10.099 20.6263 10.5938 20.1367L11.7969 18.9414C11.9062 18.832 12.0391 18.7773 12.1953 18.7773H13.8828C14.5807 18.7773 15.0964 18.6106 15.4297 18.2773C15.763 17.9492 15.9297 17.4336 15.9297 16.7304V15.0429C15.9297 14.8867 15.9844 14.7539 16.0938 14.6445L17.2812 13.4414C17.7812 12.9518 18.0286 12.4726 18.0234 12.0039C18.0234 11.5351 17.776 11.0533 17.2812 10.5586L16.0938 9.35543C15.9844 9.24605 15.9297 9.11584 15.9297 8.9648V7.26949C15.9297 6.57678 15.763 6.06376 15.4297 5.73043C15.1016 5.39189 14.5859 5.22261 13.8828 5.22261H12.1953C12.0391 5.22261 11.9062 5.17053 11.7969 5.06636L10.5938 3.87105C10.099 3.37626 9.61719 3.12886 9.14844 3.12886C8.6849 3.12886 8.20573 3.37626 7.71094 3.87105L6.50781 5.06636C6.40365 5.17053 6.27083 5.22261 6.10938 5.22261H4.42188C3.72396 5.22261 3.20833 5.38928 2.875 5.72261C2.54167 6.05074 2.375 6.56636 2.375 7.26949V8.9648C2.375 9.11584 2.32292 9.24605 2.21875 9.35543L1.02344 10.5586C0.528646 11.0533 0.28125 11.5351 0.28125 12.0039C0.28125 12.4726 0.528646 12.9518 1.02344 13.4414L2.21875 14.6445C2.32292 14.7539 2.375 14.8867 2.375 15.0429V16.7304C2.375 17.4283 2.54167 17.944 2.875 18.2773C3.20833 18.6106 3.72396 18.7773 4.42188 18.7773ZM4.42188 17.5351C4.07292 17.5351 3.85156 17.4882 3.75781 17.3945C3.66406 17.3007 3.61719 17.0794 3.61719 16.7304V14.6289C3.61719 14.3997 3.53646 14.2044 3.375 14.0429L1.89844 12.5742C1.64844 12.3242 1.52344 12.1341 1.52344 12.0039C1.52344 11.8737 1.64844 11.6836 1.89844 11.4336L3.375 9.9648C3.53646 9.79814 3.61719 9.60022 3.61719 9.37105V7.26949C3.61719 6.92053 3.66146 6.69918 3.75 6.60543C3.84375 6.51168 4.06771 6.4648 4.42188 6.4648H6.52344C6.76302 6.4648 6.96094 6.38407 7.11719 6.22261L8.58594 4.74605C8.83594 4.50126 9.02344 4.37886 9.14844 4.37886C9.27865 4.37886 9.46875 4.50126 9.71875 4.74605L11.1953 6.22261C11.3516 6.38407 11.5469 6.4648 11.7812 6.4648H13.8828C14.2318 6.4648 14.4531 6.51428 14.5469 6.61324C14.6406 6.70699 14.6875 6.92574 14.6875 7.26949V9.37105C14.6875 9.60022 14.7708 9.79814 14.9375 9.9648L16.4141 11.4336C16.6589 11.6836 16.7812 11.8737 16.7812 12.0039C16.7812 12.1341 16.6589 12.3242 16.4141 12.5742L14.9375 14.0429C14.7708 14.2044 14.6875 14.3997 14.6875 14.6289V16.7304C14.6875 17.0794 14.6406 17.3007 14.5469 17.3945C14.4531 17.4882 14.2318 17.5351 13.8828 17.5351H11.7812C11.5469 17.5351 11.3516 17.6184 11.1953 17.7851L9.71875 19.2617C9.46875 19.5065 9.27865 19.6289 9.14844 19.6289C9.02344 19.6289 8.83594 19.5065 8.58594 19.2617L7.11719 17.7851C6.96094 17.6184 6.76302 17.5351 6.52344 17.5351H4.42188ZM8.30469 15.707C8.57031 15.707 8.78125 15.5872 8.9375 15.3476L12.5078 9.72261C12.5547 9.6497 12.5964 9.57157 12.6328 9.48824C12.6745 9.3997 12.6953 9.31116 12.6953 9.22261C12.6953 9.05074 12.6302 8.91272 12.5 8.80855C12.3698 8.70439 12.224 8.6523 12.0625 8.6523C11.8438 8.6523 11.6615 8.76949 11.5156 9.00386L8.27344 14.207L6.73438 12.2148C6.64062 12.0898 6.54688 12.0065 6.45312 11.9648C6.36458 11.9179 6.26562 11.8945 6.15625 11.8945C5.98958 11.8945 5.84635 11.957 5.72656 12.082C5.61198 12.2018 5.55469 12.3476 5.55469 12.5195C5.55469 12.6809 5.61458 12.8424 5.73438 13.0039L7.64062 15.3476C7.73958 15.4726 7.84115 15.5638 7.94531 15.6211C8.05469 15.6783 8.17448 15.707 8.30469 15.707Z"
		fill="currentColor"
	/>
</svg>
