<svg
	color="rgb(var(--foreground, 0, 0, 0))"
	viewBox="0 0 18 24"
	fill="none"
	xmlns="http://www.w3.org/2000/svg"
>
	<path
		d="M4.16406 18.7773H5.85938C6.01562 18.7773 6.14583 18.832 6.25 18.9414L7.45312 20.1367C7.94792 20.6315 8.42969 20.8763 8.89844 20.8711C9.36719 20.8711 9.84635 20.6263 10.3359 20.1367L11.5391 18.9414C11.6484 18.832 11.7812 18.7773 11.9375 18.7773H13.625C14.3229 18.7773 14.8385 18.6107 15.1719 18.2773C15.5052 17.9492 15.6719 17.4336 15.6719 16.7305V15.043C15.6719 14.8867 15.7266 14.7539 15.8359 14.6445L17.0312 13.4414C17.526 12.9518 17.7708 12.4727 17.7656 12.0039C17.7656 11.5352 17.5208 11.0534 17.0312 10.5586L15.8359 9.35547C15.7266 9.24609 15.6719 9.11589 15.6719 8.96484V7.26953C15.6719 6.57682 15.5052 6.0638 15.1719 5.73047C14.8438 5.39193 14.3281 5.22266 13.625 5.22266H11.9375C11.7812 5.22266 11.6484 5.17057 11.5391 5.06641L10.3359 3.87109C9.84635 3.37109 9.36719 3.1237 8.89844 3.12891C8.42969 3.12891 7.94792 3.3763 7.45312 3.87109L6.25 5.06641C6.14583 5.17057 6.01562 5.22266 5.85938 5.22266H4.16406C3.46615 5.22266 2.95052 5.38932 2.61719 5.72266C2.28385 6.05078 2.11719 6.56641 2.11719 7.26953V8.96484C2.11719 9.11589 2.0651 9.24609 1.96094 9.35547L0.765625 10.5586C0.270833 11.0534 0.0234375 11.5352 0.0234375 12.0039C0.0234375 12.4727 0.270833 12.9518 0.765625 13.4414L1.96094 14.6445C2.0651 14.7539 2.11719 14.8867 2.11719 15.043V16.7305C2.11719 17.4284 2.28385 17.944 2.61719 18.2773C2.95052 18.6107 3.46615 18.7773 4.16406 18.7773ZM8.02344 15.8164C7.88802 15.8164 7.76562 15.7878 7.65625 15.7305C7.54688 15.6732 7.4401 15.5768 7.33594 15.4414L5.375 13.0352C5.31771 12.957 5.27083 12.8763 5.23438 12.793C5.20312 12.7044 5.1875 12.6159 5.1875 12.5273C5.1875 12.3503 5.2474 12.1992 5.36719 12.0742C5.48698 11.944 5.63542 11.8789 5.8125 11.8789C5.92708 11.8789 6.02865 11.9023 6.11719 11.9492C6.21094 11.9961 6.30729 12.0846 6.40625 12.2148L7.99219 14.2617L11.3281 8.90234C11.474 8.66276 11.6615 8.54297 11.8906 8.54297C12.0573 8.54297 12.2083 8.59766 12.3438 8.70703C12.4792 8.8112 12.5469 8.95443 12.5469 9.13672C12.5469 9.22526 12.526 9.3138 12.4844 9.40234C12.4427 9.49089 12.3984 9.57422 12.3516 9.65234L8.67969 15.4414C8.59635 15.5664 8.5 15.6602 8.39062 15.7227C8.28125 15.7852 8.15885 15.8164 8.02344 15.8164Z"
		fill="currentColor"
	/>
</svg>
