<svg
	color="rgb(var(--foreground, 0, 0, 0))"
	viewBox="0 0 13 24"
	fill="none"
	xmlns="http://www.w3.org/2000/svg"
>
	<path
		d="M0 18.9062C0 19.3385 0.114583 19.6823 0.34375 19.9375C0.578125 20.1979 0.895833 20.3281 1.29688 20.3281H11.1485C11.5443 20.3281 11.8568 20.1979 12.086 19.9375C12.3203 19.6823 12.4375 19.3385 12.4375 18.9062V5.09375C12.4375 4.65625 12.3203 4.3099 12.086 4.05469C11.8568 3.79948 11.5443 3.67188 11.1485 3.67188H1.29688C0.895833 3.67188 0.578125 3.79948 0.34375 4.05469C0.114583 4.3099 0 4.65625 0 5.09375V18.9062ZM1.25781 18.6172V5.38281C1.25781 5.22656 1.29427 5.11198 1.36719 5.03906C1.4401 4.96615 1.55469 4.92969 1.71094 4.92969H10.7344C10.8854 4.92969 10.9974 4.96615 11.0703 5.03906C11.1432 5.11198 11.1797 5.22656 11.1797 5.38281V18.6172C11.1797 18.7734 11.1432 18.888 11.0703 18.9609C10.9974 19.0339 10.8854 19.0703 10.7344 19.0703H1.71094C1.55469 19.0703 1.4401 19.0339 1.36719 18.9609C1.29427 18.888 1.25781 18.7734 1.25781 18.6172ZM3.5 19.6641H4.52344V17.0547C4.52344 16.888 4.60677 16.8047 4.77344 16.8047H7.66406C7.83073 16.8047 7.91406 16.888 7.91406 17.0547V19.6641H8.93752V16.7656C8.93752 16.4271 8.86199 16.1797 8.71095 16.0234C8.55991 15.862 8.32293 15.7812 8.00002 15.7812H4.4375C4.11979 15.7812 3.88281 15.862 3.72656 16.0234C3.57552 16.1797 3.5 16.4271 3.5 16.7656V19.6641ZM3.625 8.34375H5.14844C5.36198 8.34375 5.46875 8.23698 5.46875 8.02344V6.54688C5.46875 6.33333 5.36198 6.22656 5.14844 6.22656H3.625C3.42188 6.22656 3.32031 6.33333 3.32031 6.54688V8.02344C3.32031 8.23698 3.42188 8.34375 3.625 8.34375ZM7.28906 8.34375H8.8047C9.01824 8.34375 9.12502 8.23698 9.12502 8.02344V6.54688C9.12502 6.33333 9.01824 6.22656 8.8047 6.22656H7.28906C7.08073 6.22656 6.97656 6.33333 6.97656 6.54688V8.02344C6.97656 8.23698 7.08073 8.34375 7.28906 8.34375ZM3.625 11.4375H5.14844C5.36198 11.4375 5.46875 11.3307 5.46875 11.1172V9.64062C5.46875 9.42708 5.36198 9.32031 5.14844 9.32031H3.625C3.42188 9.32031 3.32031 9.42708 3.32031 9.64062V11.1172C3.32031 11.3307 3.42188 11.4375 3.625 11.4375ZM7.28906 11.4375H8.8047C9.01824 11.4375 9.12502 11.3307 9.12502 11.1172V9.64062C9.12502 9.42708 9.01824 9.32031 8.8047 9.32031H7.28906C7.08073 9.32031 6.97656 9.42708 6.97656 9.64062V11.1172C6.97656 11.3307 7.08073 11.4375 7.28906 11.4375ZM3.625 14.5312H5.14844C5.36198 14.5312 5.46875 14.4245 5.46875 14.2109V12.7344C5.46875 12.5208 5.36198 12.4141 5.14844 12.4141H3.625C3.42188 12.4141 3.32031 12.5208 3.32031 12.7344V14.2109C3.32031 14.4245 3.42188 14.5312 3.625 14.5312ZM7.28906 14.5312H8.8047C9.01824 14.5312 9.12502 14.4245 9.12502 14.2109V12.7344C9.12502 12.5208 9.01824 12.4141 8.8047 12.4141H7.28906C7.08073 12.4141 6.97656 12.5208 6.97656 12.7344V14.2109C6.97656 14.4245 7.08073 14.5312 7.28906 14.5312Z"
		fill="currentColor"
	/>
</svg>
