<svg
	color="rgb(var(--foreground, 0, 0, 0))"
	viewBox="0 0 20 24"
	fill="none"
	xmlns="http://www.w3.org/2000/svg"
>
	<path
		d="M0.71875 18.9062C0.71875 19.7734 1.21875 20.3281 2.01562 20.3281H11.3281C12.125 20.3281 12.625 19.7734 12.625 18.9062V5.09375C12.625 4.22656 12.125 3.67188 11.3281 3.67188H2.01562C1.21875 3.67188 0.71875 4.22656 0.71875 5.09375V18.9062ZM3.71094 7.86719V6.35156C3.71094 6.15625 3.83594 6.01562 4.03125 6.01562H5.59375C5.78906 6.01562 5.92969 6.15625 5.92969 6.35156V7.86719C5.92969 8.07031 5.78906 8.20312 5.59375 8.20312H4.03125C3.83594 8.20312 3.71094 8.07031 3.71094 7.86719ZM7.48438 7.86719V6.35156C7.48438 6.15625 7.60938 6.01562 7.8125 6.01562H9.36719C9.5625 6.01562 9.70312 6.15625 9.70312 6.35156V7.86719C9.70312 8.07031 9.5625 8.20312 9.36719 8.20312H7.8125C7.60938 8.20312 7.48438 8.07031 7.48438 7.86719ZM13.3125 20.3281H17.8203C18.6094 20.3281 19.1094 19.7734 19.1094 18.9062V8.9375C19.1094 8.07031 18.6094 7.51562 17.8203 7.51562H13.6953V18.9062C13.6953 19.4297 13.5703 19.9062 13.3125 20.3281ZM3.71094 11.0547V9.53906C3.71094 9.34375 3.83594 9.20312 4.03125 9.20312H5.59375C5.78906 9.20312 5.92969 9.34375 5.92969 9.53906V11.0547C5.92969 11.2578 5.78906 11.3906 5.59375 11.3906H4.03125C3.83594 11.3906 3.71094 11.2578 3.71094 11.0547ZM7.48438 11.0547V9.53906C7.48438 9.34375 7.60938 9.20312 7.8125 9.20312H9.36719C9.5625 9.20312 9.70312 9.34375 9.70312 9.53906V11.0547C9.70312 11.2578 9.5625 11.3906 9.36719 11.3906H7.8125C7.60938 11.3906 7.48438 11.2578 7.48438 11.0547ZM15.4688 11.4688V10.2188C15.4688 10.0547 15.5703 9.94531 15.7422 9.94531H17.0391C17.2031 9.94531 17.3125 10.0547 17.3125 10.2188V11.4688C17.3125 11.6328 17.2031 11.75 17.0391 11.75H15.7422C15.5703 11.75 15.4688 11.6328 15.4688 11.4688ZM3.71094 14.2422V12.7266C3.71094 12.5234 3.83594 12.3906 4.03125 12.3906H5.59375C5.78906 12.3906 5.92969 12.5234 5.92969 12.7266V14.2422C5.92969 14.4375 5.78906 14.5781 5.59375 14.5781H4.03125C3.83594 14.5781 3.71094 14.4375 3.71094 14.2422ZM7.48438 14.2422V12.7266C7.48438 12.5234 7.60938 12.3906 7.8125 12.3906H9.36719C9.5625 12.3906 9.70312 12.5234 9.70312 12.7266V14.2422C9.70312 14.4375 9.5625 14.5781 9.36719 14.5781H7.8125C7.60938 14.5781 7.48438 14.4375 7.48438 14.2422ZM15.4688 14.5469V13.2969C15.4688 13.1328 15.5703 13.0234 15.7422 13.0234H17.0391C17.2031 13.0234 17.3125 13.1328 17.3125 13.2969V14.5469C17.3125 14.7109 17.2031 14.8203 17.0391 14.8203H15.7422C15.5703 14.8203 15.4688 14.7109 15.4688 14.5469ZM3.96875 19.0703V16.5312C3.96875 16.1719 4.20312 15.9375 4.5625 15.9375H8.85156C9.21094 15.9375 9.44531 16.1719 9.44531 16.5312V19.0703H3.96875ZM15.4688 17.625V16.375C15.4688 16.2109 15.5703 16.0938 15.7422 16.0938H17.0391C17.2031 16.0938 17.3125 16.2109 17.3125 16.375V17.625C17.3125 17.7891 17.2031 17.8984 17.0391 17.8984H15.7422C15.5703 17.8984 15.4688 17.7891 15.4688 17.625Z"
		fill="currentColor"
	/>
</svg>
