<svg
	color="rgb(var(--foreground, 0, 0, 0))"
	viewBox="0 0 19 24"
	fill="none"
	xmlns="http://www.w3.org/2000/svg"
>
	<path
		d="M11.5859 20.3281H17.5235C17.9193 20.3281 18.2318 20.1979 18.461 19.9375C18.6953 19.6823 18.8125 19.3385 18.8125 18.9062V8.9375C18.8125 8.50521 18.6953 8.16146 18.461 7.90625C18.2318 7.64583 17.9193 7.51562 17.5235 7.51562H12.1484V8.77344H17.1094C17.2604 8.77344 17.3724 8.8099 17.4453 8.88281C17.5182 8.95573 17.5547 9.07031 17.5547 9.22656V18.6172C17.5547 18.7734 17.5182 18.888 17.4453 18.9609C17.3724 19.0339 17.2604 19.0703 17.1094 19.0703H11.5859V20.3281ZM14.586 11.8125H15.8438C16.0208 11.8125 16.1094 11.724 16.1094 11.5469V10.3281C16.1094 10.151 16.0208 10.0625 15.8438 10.0625H14.586C14.4141 10.0625 14.3281 10.151 14.3281 10.3281V11.5469C14.3281 11.724 14.4141 11.8125 14.586 11.8125ZM14.586 14.7969H15.8438C16.0208 14.7969 16.1094 14.7083 16.1094 14.5312V13.3125C16.1094 13.1354 16.0208 13.0469 15.8438 13.0469H14.586C14.4141 13.0469 14.3281 13.1354 14.3281 13.3125V14.5312C14.3281 14.7083 14.4141 14.7969 14.586 14.7969ZM14.586 17.7812H15.8438C16.0208 17.7812 16.1094 17.6927 16.1094 17.5156V16.2969C16.1094 16.1198 16.0208 16.0312 15.8438 16.0312H14.586C14.4141 16.0312 14.3281 16.1198 14.3281 16.2969V17.5156C14.3281 17.6927 14.4141 17.7812 14.586 17.7812ZM0.4375 18.9062C0.4375 19.3385 0.552083 19.6823 0.78125 19.9375C1.01562 20.1979 1.33333 20.3281 1.73438 20.3281H11.5859C11.9818 20.3281 12.2943 20.1979 12.5234 19.9375C12.7578 19.6823 12.875 19.3385 12.875 18.9062V5.09375C12.875 4.65625 12.7578 4.3099 12.5234 4.05469C12.2943 3.79948 11.9818 3.67188 11.5859 3.67188H1.73438C1.33333 3.67188 1.01562 3.79948 0.78125 4.05469C0.552083 4.3099 0.4375 4.65625 0.4375 5.09375V18.9062ZM1.69531 18.6172V5.38281C1.69531 5.22656 1.73177 5.11198 1.80469 5.03906C1.8776 4.96615 1.99219 4.92969 2.14844 4.92969H11.1719C11.3229 4.92969 11.4349 4.96615 11.5078 5.03906C11.5807 5.11198 11.6172 5.22656 11.6172 5.38281V18.6172C11.6172 18.7734 11.5807 18.888 11.5078 18.9609C11.4349 19.0339 11.3229 19.0703 11.1719 19.0703H2.14844C1.99219 19.0703 1.8776 19.0339 1.80469 18.9609C1.73177 18.888 1.69531 18.7734 1.69531 18.6172ZM3.9375 19.6641H4.96094V17.0547C4.96094 16.888 5.04427 16.8047 5.21094 16.8047H8.10156C8.26823 16.8047 8.35156 16.888 8.35156 17.0547V19.6641H9.375V16.7656C9.375 16.4271 9.29948 16.1797 9.14844 16.0234C8.9974 15.862 8.76042 15.7812 8.4375 15.7812H4.875C4.55729 15.7812 4.32031 15.862 4.16406 16.0234C4.01302 16.1797 3.9375 16.4271 3.9375 16.7656V19.6641ZM4.0625 8.34375H5.58594C5.79948 8.34375 5.90625 8.23698 5.90625 8.02344V6.54688C5.90625 6.33333 5.79948 6.22656 5.58594 6.22656H4.0625C3.85938 6.22656 3.75781 6.33333 3.75781 6.54688V8.02344C3.75781 8.23698 3.85938 8.34375 4.0625 8.34375ZM7.72656 8.34375H9.24219C9.45573 8.34375 9.5625 8.23698 9.5625 8.02344V6.54688C9.5625 6.33333 9.45573 6.22656 9.24219 6.22656H7.72656C7.51823 6.22656 7.41406 6.33333 7.41406 6.54688V8.02344C7.41406 8.23698 7.51823 8.34375 7.72656 8.34375ZM4.0625 11.4375H5.58594C5.79948 11.4375 5.90625 11.3307 5.90625 11.1172V9.64062C5.90625 9.42708 5.79948 9.32031 5.58594 9.32031H4.0625C3.85938 9.32031 3.75781 9.42708 3.75781 9.64062V11.1172C3.75781 11.3307 3.85938 11.4375 4.0625 11.4375ZM7.72656 11.4375H9.24219C9.45573 11.4375 9.5625 11.3307 9.5625 11.1172V9.64062C9.5625 9.42708 9.45573 9.32031 9.24219 9.32031H7.72656C7.51823 9.32031 7.41406 9.42708 7.41406 9.64062V11.1172C7.41406 11.3307 7.51823 11.4375 7.72656 11.4375ZM4.0625 14.5312H5.58594C5.79948 14.5312 5.90625 14.4245 5.90625 14.2109V12.7344C5.90625 12.5208 5.79948 12.4141 5.58594 12.4141H4.0625C3.85938 12.4141 3.75781 12.5208 3.75781 12.7344V14.2109C3.75781 14.4245 3.85938 14.5312 4.0625 14.5312ZM7.72656 14.5312H9.24219C9.45573 14.5312 9.5625 14.4245 9.5625 14.2109V12.7344C9.5625 12.5208 9.45573 12.4141 9.24219 12.4141H7.72656C7.51823 12.4141 7.41406 12.5208 7.41406 12.7344V14.2109C7.41406 14.4245 7.51823 14.5312 7.72656 14.5312Z"
		fill="currentColor"
	/>
</svg>
