<svg
	color="rgb(var(--foreground, 0, 0, 0))"
	viewBox="0 0 13 24"
	fill="none"
	xmlns="http://www.w3.org/2000/svg"
>
	<path
		d="M0.812531 18.9062C0.812531 19.7734 1.31253 20.3281 2.10941 20.3281H11.4219C12.2188 20.3281 12.7188 19.7734 12.7188 18.9062V5.09375C12.7188 4.22656 12.2188 3.67188 11.4219 3.67188H2.10941C1.31253 3.67188 0.812531 4.22656 0.812531 5.09375V18.9062ZM3.80472 7.86719V6.35156C3.80472 6.15625 3.92972 6.01562 4.12503 6.01562H5.68753C5.88284 6.01562 6.02347 6.15625 6.02347 6.35156V7.86719C6.02347 8.07031 5.88284 8.20312 5.68753 8.20312H4.12503C3.92972 8.20312 3.80472 8.07031 3.80472 7.86719ZM7.57816 7.86719V6.35156C7.57816 6.15625 7.70316 6.01562 7.90628 6.01562H9.46097C9.65628 6.01562 9.79691 6.15625 9.79691 6.35156V7.86719C9.79691 8.07031 9.65628 8.20312 9.46097 8.20312H7.90628C7.70316 8.20312 7.57816 8.07031 7.57816 7.86719ZM3.80472 11.0547V9.53906C3.80472 9.34375 3.92972 9.20312 4.12503 9.20312H5.68753C5.88284 9.20312 6.02347 9.34375 6.02347 9.53906V11.0547C6.02347 11.2578 5.88284 11.3906 5.68753 11.3906H4.12503C3.92972 11.3906 3.80472 11.2578 3.80472 11.0547ZM7.57816 11.0547V9.53906C7.57816 9.34375 7.70316 9.20312 7.90628 9.20312H9.46097C9.65628 9.20312 9.79691 9.34375 9.79691 9.53906V11.0547C9.79691 11.2578 9.65628 11.3906 9.46097 11.3906H7.90628C7.70316 11.3906 7.57816 11.2578 7.57816 11.0547ZM3.80472 14.2422V12.7266C3.80472 12.5234 3.92972 12.3906 4.12503 12.3906H5.68753C5.88284 12.3906 6.02347 12.5234 6.02347 12.7266V14.2422C6.02347 14.4375 5.88284 14.5781 5.68753 14.5781H4.12503C3.92972 14.5781 3.80472 14.4375 3.80472 14.2422ZM7.57816 14.2422V12.7266C7.57816 12.5234 7.70316 12.3906 7.90628 12.3906H9.46097C9.65628 12.3906 9.79691 12.5234 9.79691 12.7266V14.2422C9.79691 14.4375 9.65628 14.5781 9.46097 14.5781H7.90628C7.70316 14.5781 7.57816 14.4375 7.57816 14.2422ZM4.06253 19.0703V16.5312C4.06253 16.1719 4.29691 15.9375 4.65628 15.9375H8.94534C9.30472 15.9375 9.53909 16.1719 9.53909 16.5312V19.0703H4.06253Z"
		fill="currentColor"
	/>
</svg>
