<svg
	color="rgb(var(--foreground, 0, 0, 0))"
	viewBox="0 0 17 24"
	fill="none"
	xmlns="http://www.w3.org/2000/svg"
>
	<path
		d="M1.14062 9.20703H15.875C16.3047 9.20703 16.5547 8.89453 16.5547 8.57422C16.5547 8.33984 16.4297 8.13672 16.1406 7.97266L9.46875 4.12891C9.15625 3.94922 8.82812 3.85547 8.50781 3.85547C8.1875 3.85547 7.85938 3.94922 7.54688 4.12891L0.875 7.97266C0.585938 8.13672 0.460938 8.33984 0.460938 8.57422C0.460938 8.89453 0.703125 9.20703 1.14062 9.20703ZM3.48438 7.94922L8.20312 5.30078C8.29688 5.24609 8.40625 5.21484 8.50781 5.21484C8.60938 5.21484 8.71875 5.24609 8.8125 5.30078L13.5312 7.94922H3.48438ZM1.47656 17.6992C1.47656 18.0195 1.65625 18.1992 1.97656 18.1992H3.97656C4.29688 18.1992 4.48438 18.0195 4.48438 17.6992V17.5117C4.48438 17.207 4.29688 17.0195 3.97656 17.0195H3.57031V11.0664H3.97656C4.29688 11.0664 4.48438 10.8867 4.48438 10.5664V10.3789C4.48438 10.0742 4.29688 9.88672 3.97656 9.88672H1.97656C1.65625 9.88672 1.47656 10.0742 1.47656 10.3789V10.5664C1.47656 10.8867 1.65625 11.0664 1.97656 11.0664H2.39062V17.0195H1.97656C1.65625 17.0195 1.47656 17.207 1.47656 17.5117V17.6992ZM5.1875 17.6992C5.1875 18.0195 5.375 18.1992 5.6875 18.1992H7.69531C8.00781 18.1992 8.19531 18.0195 8.19531 17.6992V17.5117C8.19531 17.207 8.00781 17.0195 7.69531 17.0195H7.28906V11.0664H7.69531C8.00781 11.0664 8.19531 10.8867 8.19531 10.5664V10.3789C8.19531 10.0742 8.00781 9.88672 7.69531 9.88672H5.6875C5.375 9.88672 5.1875 10.0742 5.1875 10.3789V10.5664C5.1875 10.8867 5.375 11.0664 5.6875 11.0664H6.10938V17.0195H5.6875C5.375 17.0195 5.1875 17.207 5.1875 17.5117V17.6992ZM8.90625 17.6992C8.90625 18.0195 9.09375 18.1992 9.40625 18.1992H11.4141C11.7266 18.1992 11.9141 18.0195 11.9141 17.6992V17.5117C11.9141 17.207 11.7266 17.0195 11.4141 17.0195H11.0078V11.0664H11.4141C11.7266 11.0664 11.9141 10.8867 11.9141 10.5664V10.3789C11.9141 10.0742 11.7266 9.88672 11.4141 9.88672H9.40625C9.09375 9.88672 8.90625 10.0742 8.90625 10.3789V10.5664C8.90625 10.8867 9.09375 11.0664 9.40625 11.0664H9.82812V17.0195H9.40625C9.09375 17.0195 8.90625 17.207 8.90625 17.5117V17.6992ZM12.625 17.6992C12.625 18.0195 12.8047 18.1992 13.125 18.1992H15.125C15.4453 18.1992 15.625 18.0195 15.625 17.6992V17.5117C15.625 17.207 15.4453 17.0195 15.125 17.0195H14.7188V11.0664H15.125C15.4453 11.0664 15.625 10.8867 15.625 10.5664V10.3789C15.625 10.0742 15.4453 9.88672 15.125 9.88672H13.125C12.8047 9.88672 12.625 10.0742 12.625 10.3789V10.5664C12.625 10.8867 12.8047 11.0664 13.125 11.0664H13.5391V17.0195H13.125C12.8047 17.0195 12.625 17.207 12.625 17.5117V17.6992ZM0.109375 19.5117C0.109375 19.8555 0.390625 20.1445 0.734375 20.1445H16.2812C16.625 20.1445 16.9141 19.8555 16.9141 19.5117C16.9141 19.168 16.625 18.8867 16.2812 18.8867H0.734375C0.390625 18.8867 0.109375 19.168 0.109375 19.5117Z"
		fill="currentColor"
	/>
</svg>
