<svg
	color="rgb(var(--foreground, 0, 0, 0))"
	viewBox="0 0 17 24"
	fill="none"
	xmlns="http://www.w3.org/2000/svg"
>
	<path
		d="M14.7397 6.48994L13.3569 5.10712C13.2683 5.01858 13.1642 4.97692 13.0444 4.98212C12.9298 4.98212 12.8282 5.02379 12.7397 5.10712C12.6564 5.19046 12.6121 5.29202 12.6069 5.41181C12.6069 5.5316 12.6512 5.63317 12.7397 5.7165L14.1225 7.10712C14.211 7.19567 14.3126 7.23994 14.4272 7.23994C14.547 7.23473 14.6512 7.19046 14.7397 7.10712C14.823 7.01858 14.8647 6.91702 14.8647 6.80244C14.8699 6.68264 14.8282 6.57848 14.7397 6.48994ZM4.95844 14.2634L5.57563 14.8806L14.1069 6.35712L13.4897 5.73994L4.95844 14.2634ZM1.42719 18.4196C1.75011 18.7425 2.08084 18.9352 2.41938 18.9977C2.76313 19.0602 3.04438 18.9795 3.26313 18.7556L6.22407 15.779C6.46886 15.5394 6.65376 15.305 6.77876 15.0759C6.90896 14.8467 6.9923 14.6097 7.02876 14.3649L7.26313 12.9587L6.88032 12.5837L5.47407 12.8181C5.23448 12.8545 5.00011 12.9379 4.77094 13.0681C4.54178 13.1931 4.3048 13.3754 4.06001 13.6149L1.08344 16.5837C0.859485 16.8024 0.778755 17.0837 0.841255 17.4274C0.908964 17.766 1.10428 18.0967 1.42719 18.4196ZM2.63032 6.48994C2.54178 6.57848 2.49751 6.68264 2.49751 6.80244C2.50271 6.91702 2.54698 7.01858 2.63032 7.10712C2.71886 7.19046 2.82042 7.23473 2.93501 7.23994C3.0548 7.23994 3.15896 7.19567 3.24751 7.10712L4.63032 5.7165C4.71886 5.63317 4.76053 5.5316 4.75532 5.41181C4.75532 5.29202 4.71365 5.19046 4.63032 5.10712C4.54178 5.02379 4.43761 4.98212 4.31782 4.98212C4.20323 4.97692 4.10167 5.01858 4.01313 5.10712L2.63032 6.48994ZM12.4116 14.2634L3.88032 5.73994L3.26313 6.35712L11.7944 14.8806L12.4116 14.2634ZM15.9428 18.4196C16.2657 18.0967 16.4584 17.766 16.5209 17.4274C16.5887 17.0837 16.5105 16.8024 16.2866 16.5837L13.31 13.6149C13.0704 13.3754 12.8334 13.1931 12.5991 13.0681C12.3699 12.9379 12.1355 12.8545 11.8959 12.8181L10.4897 12.5837L10.1147 12.9587L10.3413 14.3649C10.3777 14.6097 10.4584 14.8467 10.5834 15.0759C10.7137 15.305 10.9012 15.5394 11.1459 15.779L14.1069 18.7556C14.3256 18.9795 14.6043 19.0602 14.9428 18.9977C15.2866 18.9352 15.6199 18.7425 15.9428 18.4196Z"
		fill="currentColor"
	/>
</svg>
