<svg
	color="rgb(var(--foreground, 0, 0, 0))"
	viewBox="0 0 21 24"
	fill="none"
	xmlns="http://www.w3.org/2000/svg"
>
	<path
		d="M1.41943 16.0547C1.73714 16.0547 2.00277 15.9479 2.21631 15.7344C2.42985 15.5208 2.53662 15.2604 2.53662 14.9531V9.04688C2.53662 8.73438 2.42985 8.47135 2.21631 8.25781C2.00277 8.03906 1.73714 7.92969 1.41943 7.92969C1.10693 7.92969 0.843913 8.03906 0.630371 8.25781C0.416829 8.47135 0.310059 8.73438 0.310059 9.04688V14.9531C0.310059 15.2604 0.416829 15.5208 0.630371 15.7344C0.843913 15.9479 1.10693 16.0547 1.41943 16.0547ZM5.13037 17.7812C5.6512 17.7812 6.07568 17.625 6.40381 17.3125C6.73193 17 6.896 16.5964 6.896 16.1016V7.90625C6.896 7.40625 6.73193 7 6.40381 6.6875C6.07568 6.375 5.6512 6.21875 5.13037 6.21875C4.61475 6.21875 4.19287 6.375 3.86475 6.6875C3.53662 7 3.37256 7.40625 3.37256 7.90625V16.1016C3.37256 16.5964 3.53662 17 3.86475 17.3125C4.19287 17.625 4.61475 17.7812 5.13037 17.7812ZM7.80225 13.5078H12.6538V10.4922H7.80225V13.5078ZM15.3257 17.7812C15.8465 17.7812 16.271 17.625 16.5991 17.3125C16.9272 17 17.0913 16.5964 17.0913 16.1016V7.90625C17.0913 7.40625 16.9272 7 16.5991 6.6875C16.271 6.375 15.8465 6.21875 15.3257 6.21875C14.8101 6.21875 14.3882 6.375 14.0601 6.6875C13.7319 7 13.5679 7.40625 13.5679 7.90625V16.1016C13.5679 16.5964 13.7319 17 14.0601 17.3125C14.3882 17.625 14.8101 17.7812 15.3257 17.7812ZM18.9585 16.0547C19.271 16.0547 19.534 15.9479 19.7476 15.7344C19.9663 15.5208 20.0757 15.2604 20.0757 14.9531V9.04688C20.0757 8.73438 19.9663 8.47135 19.7476 8.25781C19.534 8.03906 19.271 7.92969 18.9585 7.92969C18.646 7.92969 18.383 8.03906 18.1694 8.25781C17.9559 8.47135 17.8491 8.73438 17.8491 9.04688V14.9531C17.8491 15.2604 17.9559 15.5208 18.1694 15.7344C18.383 15.9479 18.646 16.0547 18.9585 16.0547Z"
		fill="currentColor"
	/>
</svg>
