<svg
	color="rgb(var(--foreground, 0, 0, 0))"
	viewBox="0 0 21 24"
	fill="none"
	xmlns="http://www.w3.org/2000/svg"
>
	<path
		d="M2.01318 16.0547H3.01318V14.9531H2.021C1.91162 14.9531 1.82048 14.9167 1.74756 14.8438C1.67985 14.7708 1.646 14.6823 1.646 14.5781V9.42969C1.646 9.32031 1.67985 9.22917 1.74756 9.15625C1.82048 9.07812 1.91162 9.03906 2.021 9.03906H3.01318V7.9375H2.01318C1.73714 7.9375 1.48714 8.0026 1.26318 8.13281C1.04443 8.26302 0.869954 8.4401 0.739746 8.66406C0.609538 8.88281 0.544434 9.13021 0.544434 9.40625V14.5938C0.544434 14.8698 0.609538 15.1172 0.739746 15.3359C0.869954 15.5547 1.04443 15.7292 1.26318 15.8594C1.48714 15.9896 1.73714 16.0547 2.01318 16.0547ZM4.54443 17.7812H5.09912C5.75016 17.7812 6.25537 17.5938 6.61475 17.2188C6.97933 16.8438 7.16162 16.3151 7.16162 15.6328V8.38281C7.16162 7.69531 6.98193 7.16406 6.62256 6.78906C6.26839 6.40885 5.76579 6.21875 5.11475 6.21875H4.45068C3.84652 6.21875 3.37777 6.40885 3.04443 6.78906C2.71631 7.16406 2.55225 7.69531 2.55225 8.38281V15.6328C2.55225 16.3151 2.72412 16.8438 3.06787 17.2188C3.41683 17.5938 3.90902 17.7812 4.54443 17.7812ZM4.56006 16.6016C4.29964 16.6016 4.09652 16.5182 3.95068 16.3516C3.80485 16.1797 3.73193 15.9401 3.73193 15.6328V8.38281C3.73193 8.07552 3.79704 7.83594 3.92725 7.66406C4.06266 7.48698 4.24495 7.39844 4.47412 7.39844H5.09131C5.37256 7.39844 5.59131 7.48698 5.74756 7.66406C5.90381 7.83594 5.98193 8.07552 5.98193 8.38281V15.6328C5.98193 15.9401 5.9012 16.1797 5.73975 16.3516C5.57829 16.5182 5.35693 16.6016 5.07568 16.6016H4.56006ZM6.9585 11.3594H13.896V10.1797H6.9585V11.3594ZM6.9585 13.8125H13.896V12.6328H6.9585V13.8125ZM15.7554 17.7812H16.3101C16.9403 17.7812 17.4299 17.5938 17.7788 17.2188C18.1278 16.8438 18.3022 16.3151 18.3022 15.6328V8.38281C18.3022 7.69531 18.1356 7.16406 17.8022 6.78906C17.4689 6.40885 17.0002 6.21875 16.396 6.21875H15.7397C15.0887 6.21875 14.5835 6.40885 14.2241 6.78906C13.87 7.16406 13.6929 7.69531 13.6929 8.38281V15.6328C13.6929 16.3151 13.8726 16.8438 14.2319 17.2188C14.5913 17.5938 15.0991 17.7812 15.7554 17.7812ZM15.7788 16.6016C15.4924 16.6016 15.2684 16.5182 15.1069 16.3516C14.9507 16.1797 14.8726 15.9401 14.8726 15.6328V8.38281C14.8726 8.07552 14.9507 7.83594 15.1069 7.66406C15.2632 7.48698 15.4819 7.39844 15.7632 7.39844H16.3804C16.6095 7.39844 16.7892 7.48698 16.9194 7.66406C17.0549 7.83594 17.1226 8.07552 17.1226 8.38281V15.6328C17.1226 15.9401 17.047 16.1797 16.896 16.3516C16.7502 16.5182 16.5496 16.6016 16.2944 16.6016H15.7788ZM17.8413 16.0547H18.8413C19.1174 16.0547 19.3647 15.9896 19.5835 15.8594C19.8075 15.7292 19.9845 15.5547 20.1147 15.3359C20.245 15.1172 20.3101 14.8698 20.3101 14.5938V9.40625C20.3101 9.13021 20.245 8.88281 20.1147 8.66406C19.9845 8.4401 19.8075 8.26302 19.5835 8.13281C19.3647 8.0026 19.1174 7.9375 18.8413 7.9375H17.8413V9.03906H18.8335C18.9377 9.03906 19.0262 9.07812 19.0991 9.15625C19.172 9.22917 19.2085 9.32031 19.2085 9.42969V14.5781C19.2085 14.6823 19.172 14.7708 19.0991 14.8438C19.0262 14.9167 18.9377 14.9531 18.8335 14.9531H17.8413V16.0547Z"
		fill="currentColor"
	/>
</svg>
