<svg
	color="rgb(var(--foreground, 0, 0, 0))"
	viewBox="0 0 19 24"
	fill="none"
	xmlns="http://www.w3.org/2000/svg"
>
	<path
		d="M9.15893 6.10561C9.44539 6.10561 9.68757 5.99363 9.88549 5.76967C10.0834 5.54571 10.1824 5.26967 10.1824 4.94154C10.1824 4.60821 10.1303 4.32175 10.0261 4.08217C9.92716 3.84258 9.78393 3.61342 9.59643 3.39467C9.47143 3.23842 9.3308 3.15769 9.17455 3.15248C9.0183 3.14727 8.87768 3.21238 8.75268 3.34779C8.56518 3.57696 8.41414 3.81394 8.29955 4.05873C8.19018 4.29831 8.13549 4.59258 8.13549 4.94154C8.13549 5.26967 8.23445 5.54571 8.43237 5.76967C8.63549 5.99363 8.87768 6.10561 9.15893 6.10561ZM8.71362 9.70717H9.5808V5.26967H8.71362V9.70717ZM4.05737 12.1212H14.2605V11.5744C14.2605 10.8035 14.06 10.2228 13.6589 9.83217C13.2631 9.43633 12.6746 9.23842 11.8933 9.23842H6.42455C5.6433 9.23842 5.05216 9.43633 4.65112 9.83217C4.25528 10.2228 4.05737 10.8035 4.05737 11.5744V12.1212ZM1.39331 20.3009H16.9167V15.5197C16.9167 14.7488 16.7188 14.1681 16.323 13.7775C15.9272 13.3816 15.3386 13.1837 14.5574 13.1837H3.7605C2.97925 13.1837 2.3881 13.3816 1.98706 13.7775C1.59123 14.1681 1.39331 14.7488 1.39331 15.5197V20.3009ZM9.15112 17.004C8.95841 17.004 8.77351 17.0509 8.59643 17.1447C8.42455 17.2332 8.24487 17.3374 8.05737 17.4572C7.87507 17.577 7.67455 17.6811 7.4558 17.7697C7.24226 17.8634 6.99487 17.9103 6.71362 17.9103C6.44278 17.9103 6.2032 17.8634 5.99487 17.7697C5.78653 17.6811 5.59382 17.577 5.41674 17.4572C5.24487 17.3374 5.0782 17.2332 4.91674 17.1447C4.75528 17.0509 4.58341 17.004 4.40112 17.004C4.21882 17.004 4.04175 17.0509 3.86987 17.1447C3.698 17.2332 3.5131 17.3374 3.31519 17.4572C3.12248 17.577 2.89331 17.6811 2.62769 17.7697C2.36727 17.8634 2.05477 17.9103 1.69019 17.9103H1.39331V16.879H1.69019C1.96623 16.879 2.21362 16.8348 2.43237 16.7462C2.65633 16.6525 2.86727 16.5457 3.06519 16.4259C3.2631 16.3061 3.46883 16.202 3.68237 16.1134C3.89591 16.0197 4.13549 15.9728 4.40112 15.9728C4.66153 15.9728 4.88809 16.0197 5.0808 16.1134C5.27872 16.202 5.46101 16.3061 5.62768 16.4259C5.79434 16.5457 5.96362 16.6525 6.13549 16.7462C6.30737 16.8348 6.50007 16.879 6.71362 16.879C6.96362 16.879 7.18237 16.8348 7.36987 16.7462C7.55737 16.6525 7.73705 16.5457 7.90893 16.4259C8.0808 16.3061 8.26309 16.202 8.4558 16.1134C8.65372 16.0197 8.88549 15.9728 9.15112 15.9728C9.41674 15.9728 9.64591 16.0197 9.83862 16.1134C10.0365 16.202 10.2214 16.3061 10.3933 16.4259C10.5652 16.5457 10.7449 16.6525 10.9324 16.7462C11.1251 16.8348 11.3464 16.879 11.5964 16.879C11.81 16.879 12.0001 16.8348 12.1667 16.7462C12.3386 16.6525 12.5079 16.5457 12.6746 16.4259C12.8412 16.3061 13.0209 16.202 13.2136 16.1134C13.4115 16.0197 13.6433 15.9728 13.9089 15.9728C14.1693 15.9728 14.4063 16.0197 14.6199 16.1134C14.8334 16.202 15.0391 16.3061 15.2371 16.4259C15.435 16.5457 15.6433 16.6525 15.8621 16.7462C16.0808 16.8348 16.3282 16.879 16.6042 16.879H16.9167V17.9103H16.6042C16.2397 17.9103 15.9272 17.8634 15.6667 17.7697C15.4063 17.6811 15.1772 17.577 14.9792 17.4572C14.7813 17.3374 14.599 17.2332 14.4324 17.1447C14.2657 17.0509 14.0912 17.004 13.9089 17.004C13.7266 17.004 13.5522 17.0509 13.3855 17.1447C13.224 17.2332 13.0548 17.3374 12.8777 17.4572C12.7058 17.577 12.5157 17.6811 12.3074 17.7697C12.099 17.8634 11.8621 17.9103 11.5964 17.9103C11.3152 17.9103 11.0652 17.8634 10.8464 17.7697C10.6277 17.6811 10.4246 17.577 10.2371 17.4572C10.0548 17.3374 9.87507 17.2332 9.69799 17.1447C9.52612 17.0509 9.34382 17.004 9.15112 17.004ZM0.783936 20.8478H17.5261C17.698 20.8478 17.8438 20.7853 17.9636 20.6603C18.0886 20.5353 18.1511 20.3869 18.1511 20.215C18.1511 20.0431 18.0886 19.8947 17.9636 19.7697C17.8438 19.6499 17.698 19.59 17.5261 19.59H0.783936C0.612061 19.59 0.463623 19.6499 0.338623 19.7697C0.218831 19.8947 0.158936 20.0431 0.158936 20.215C0.158936 20.3869 0.218831 20.5353 0.338623 20.6603C0.463623 20.7853 0.612061 20.8478 0.783936 20.8478Z"
		fill="currentColor"
	/>
</svg>
