<svg
	color="rgb(var(--foreground, 0, 0, 0))"
	viewBox="0 0 19 24"
	fill="none"
	xmlns="http://www.w3.org/2000/svg"
>
	<path
		d="M9.16675 6.10561C9.45321 6.10561 9.69539 5.99363 9.89331 5.76967C10.0912 5.54571 10.1902 5.26967 10.1902 4.94154C10.1902 4.60821 10.1381 4.32175 10.0339 4.08217C9.93498 3.84258 9.79175 3.61342 9.60425 3.39467C9.47925 3.23842 9.33862 3.15769 9.18237 3.15248C9.02612 3.14727 8.8855 3.21238 8.7605 3.34779C8.573 3.57696 8.42196 3.81394 8.30737 4.05873C8.198 4.29831 8.14331 4.59258 8.14331 4.94154C8.14331 5.26967 8.24227 5.54571 8.44019 5.76967C8.64331 5.99363 8.8855 6.10561 9.16675 6.10561ZM8.72144 9.70717H9.58862V5.26967H8.72144V9.70717ZM4.06519 13.5275H5.323V11.6369C5.323 11.2671 5.42196 10.9858 5.61987 10.7931C5.81779 10.5952 6.09383 10.4962 6.448 10.4962H11.8777C12.2371 10.4962 12.5157 10.5952 12.7136 10.7931C12.9115 10.9858 13.0105 11.2671 13.0105 11.6369V13.5275H14.2683V11.5744C14.2683 10.8035 14.0678 10.2228 13.6667 9.83217C13.2709 9.43633 12.6824 9.23842 11.9011 9.23842H6.43237C5.65112 9.23842 5.05998 9.43633 4.65894 9.83217C4.2631 10.2228 4.06519 10.8035 4.06519 11.5744V13.5275ZM1.40112 20.3009H2.65894V15.59C2.65894 15.215 2.75789 14.9311 2.95581 14.7384C3.15373 14.5405 3.42977 14.4415 3.78394 14.4415H14.5417C14.8959 14.4415 15.172 14.5405 15.3699 14.7384C15.5678 14.9311 15.6667 15.215 15.6667 15.59V20.3009H16.9246V15.5197C16.9246 14.7488 16.7266 14.1681 16.3308 13.7775C15.935 13.3816 15.3464 13.1837 14.5652 13.1837H3.76831C2.98706 13.1837 2.39591 13.3816 1.99487 13.7775C1.59904 14.1681 1.40112 14.7488 1.40112 15.5197V20.3009ZM9.15894 17.1134C9.33081 17.1134 9.49748 17.1577 9.65894 17.2462C9.82039 17.3348 9.98967 17.4363 10.1667 17.5509C10.3438 17.6655 10.5417 17.7671 10.7605 17.8556C10.9845 17.9441 11.2397 17.9884 11.5261 17.9884C11.8022 17.9884 12.0444 17.9441 12.2527 17.8556C12.4662 17.7671 12.6563 17.6655 12.823 17.5509C12.9897 17.4363 13.1485 17.3348 13.2996 17.2462C13.4506 17.1577 13.6069 17.1134 13.7683 17.1134C13.9246 17.1134 14.0782 17.1577 14.2292 17.2462C14.3855 17.3348 14.5496 17.4363 14.7214 17.5509C14.8985 17.6655 15.099 17.7671 15.323 17.8556C15.5522 17.9441 15.8178 17.9884 16.1199 17.9884H16.3308V16.7697H16.1199C15.9324 16.7697 15.7553 16.7254 15.5886 16.6369C15.422 16.5483 15.2501 16.4468 15.073 16.3322C14.8959 16.2176 14.7006 16.116 14.4871 16.0275C14.2787 15.9389 14.0391 15.8947 13.7683 15.8947C13.4975 15.8947 13.2605 15.9389 13.0574 16.0275C12.8595 16.116 12.6798 16.2176 12.5183 16.3322C12.3569 16.4468 12.198 16.5483 12.0417 16.6369C11.8855 16.7254 11.7136 16.7697 11.5261 16.7697C11.3022 16.7697 11.1016 16.7254 10.9246 16.6369C10.7527 16.5483 10.5834 16.4468 10.4167 16.3322C10.2501 16.2176 10.0678 16.116 9.86987 16.0275C9.67196 15.9389 9.43498 15.8947 9.15894 15.8947C8.88289 15.8947 8.64331 15.9389 8.44019 16.0275C8.24227 16.116 8.05998 16.2176 7.89331 16.3322C7.72664 16.4468 7.55737 16.5483 7.3855 16.6369C7.21362 16.7254 7.01571 16.7697 6.79175 16.7697C6.60425 16.7697 6.43237 16.7254 6.27612 16.6369C6.11987 16.5483 5.96102 16.4468 5.79956 16.3322C5.6381 16.2176 5.45581 16.116 5.25269 16.0275C5.05477 15.9389 4.82039 15.8947 4.54956 15.8947C4.27873 15.8947 4.03654 15.9389 3.823 16.0275C3.61466 16.116 3.42196 16.2176 3.24487 16.3322C3.06779 16.4468 2.89331 16.5483 2.72144 16.6369C2.55477 16.7254 2.38029 16.7697 2.198 16.7697H1.94019V17.9884H2.198C2.50008 17.9884 2.7631 17.9441 2.98706 17.8556C3.21102 17.7671 3.41154 17.6655 3.58862 17.5509C3.76571 17.4363 3.92977 17.3348 4.08081 17.2462C4.23185 17.1577 4.3881 17.1134 4.54956 17.1134C4.70581 17.1134 4.85946 17.1577 5.0105 17.2462C5.16154 17.3348 5.32039 17.4363 5.48706 17.5509C5.65894 17.6655 5.84904 17.7671 6.05737 17.8556C6.26571 17.9441 6.5105 17.9884 6.79175 17.9884C7.07821 17.9884 7.33081 17.9441 7.54956 17.8556C7.76831 17.7671 7.96623 17.6655 8.14331 17.5509C8.3256 17.4363 8.49748 17.3348 8.65894 17.2462C8.82039 17.1577 8.98706 17.1134 9.15894 17.1134ZM0.791748 20.8478H17.5339C17.7058 20.8478 17.8516 20.7853 17.9714 20.6603C18.0964 20.5353 18.1589 20.3869 18.1589 20.215C18.1589 20.0431 18.0964 19.8947 17.9714 19.7697C17.8516 19.6499 17.7058 19.59 17.5339 19.59H0.791748C0.619873 19.59 0.471436 19.6499 0.346436 19.7697C0.226644 19.8947 0.166748 20.0431 0.166748 20.215C0.166748 20.3869 0.226644 20.5353 0.346436 20.6603C0.471436 20.7853 0.619873 20.8478 0.791748 20.8478Z"
		fill="currentColor"
	/>
</svg>
