<svg
	color="rgb(var(--foreground, 0, 0, 0))"
	viewBox="0 0 19 24"
	fill="none"
	xmlns="http://www.w3.org/2000/svg"
>
	<path
		d="M13.1196 7.73633C13.3228 7.60613 13.5233 7.41081 13.7212 7.1504C13.9191 6.88477 14.0988 6.58529 14.2603 6.25196C14.4269 5.91863 14.5597 5.57748 14.6587 5.22852C14.7577 4.87956 14.815 4.55144 14.8306 4.24415C14.8462 3.93165 14.8071 3.66863 14.7134 3.45508C14.6196 3.24154 14.4582 3.10613 14.229 3.04883C13.9894 2.99675 13.7785 3.04363 13.5962 3.18946C13.4139 3.33529 13.2603 3.55144 13.1353 3.8379C13.0103 4.11915 12.9139 4.43946 12.8462 4.79883C12.7837 5.15821 12.7499 5.52279 12.7446 5.89258C12.7446 6.26238 12.7733 6.61133 12.8306 6.93946C12.8931 7.26238 12.9894 7.528 13.1196 7.73633ZM13.3071 8.04102C13.6092 8.04102 13.9504 7.9681 14.3306 7.82227C14.7108 7.67644 15.0962 7.48113 15.4868 7.23633C15.8775 6.98633 16.242 6.71029 16.5806 6.40821C16.9191 6.10092 17.1978 5.78842 17.4165 5.47071C17.6353 5.153 17.7629 4.84831 17.7993 4.55665C17.841 4.26498 17.7551 4.01238 17.5415 3.79883C17.328 3.58529 17.0754 3.49935 16.7837 3.54102C16.4972 3.57748 16.1952 3.70508 15.8775 3.92383C15.5597 4.14258 15.2472 4.42123 14.94 4.75977C14.6379 5.09831 14.3618 5.4629 14.1118 5.85352C13.867 6.24415 13.6717 6.63217 13.5259 7.01758C13.3801 7.39779 13.3071 7.73894 13.3071 8.04102ZM13.6118 8.22071C13.8202 8.35092 14.0858 8.44727 14.4087 8.50977C14.7316 8.57227 15.078 8.60352 15.4478 8.60352C15.8228 8.59831 16.19 8.56446 16.5493 8.50196C16.9087 8.43425 17.229 8.3379 17.5103 8.2129C17.7967 8.0879 18.0129 7.93685 18.1587 7.75977C18.3097 7.57748 18.3566 7.36915 18.2993 7.13477C18.242 6.9004 18.1066 6.73633 17.8931 6.64258C17.6795 6.54363 17.4191 6.50196 17.1118 6.51758C16.8045 6.528 16.4764 6.58529 16.1275 6.68946C15.7785 6.78842 15.4347 6.91863 15.0962 7.08008C14.7629 7.24154 14.4634 7.42123 14.1978 7.61915C13.9374 7.81706 13.742 8.01758 13.6118 8.22071ZM0.791518 20.5176C0.989434 20.7207 1.23683 20.8613 1.53371 20.9395C1.83579 21.0228 2.17693 20.9447 2.55714 20.7051L6.47902 18.252L5.54152 17.3223C5.43735 17.2181 5.38527 17.0983 5.38527 16.9629C5.38527 16.8223 5.43475 16.6999 5.53371 16.5957C5.63266 16.4968 5.75246 16.4473 5.89308 16.4473C6.03371 16.4421 6.1561 16.4915 6.26027 16.5957L7.36964 17.6895L8.24464 17.1348L6.93214 15.8691C6.82798 15.765 6.77589 15.6426 6.77589 15.502C6.77589 15.3613 6.82537 15.2415 6.92433 15.1426C7.0285 15.0384 7.14829 14.9863 7.28371 14.9863C7.42433 14.9811 7.54673 15.0306 7.65089 15.1348L9.13527 16.5879L12.9478 14.1816C13.6144 13.765 14.1405 13.2988 14.5259 12.7832C14.9165 12.2624 15.1639 11.7233 15.2681 11.166C15.3722 10.6035 15.328 10.041 15.1353 9.47852C14.9426 8.91602 14.5962 8.38217 14.0962 7.87696L13.4243 7.19727C12.8462 6.61394 12.2264 6.23894 11.565 6.07227C10.9087 5.9056 10.2551 5.93946 9.60402 6.17383C8.95818 6.40821 8.35923 6.83529 7.80714 7.45508L9.88527 9.50196C9.99464 9.60613 10.0493 9.72852 10.0493 9.86915C10.0493 10.0046 9.99985 10.1218 9.90089 10.2207C9.80193 10.3249 9.68214 10.3796 9.54152 10.3848C9.40089 10.3848 9.2785 10.3327 9.17433 10.2285L7.17433 8.2754L6.62746 9.13477L8.11964 10.5957C8.22902 10.6999 8.28371 10.8223 8.28371 10.9629C8.28371 11.1035 8.23162 11.2233 8.12746 11.3223C8.02329 11.4264 7.9035 11.4785 7.76808 11.4785C7.63266 11.4785 7.51027 11.4264 7.40089 11.3223L6.07277 10.0332L0.588393 18.7285C0.369643 19.0827 0.288914 19.4108 0.346205 19.7129C0.408705 20.0202 0.557143 20.2884 0.791518 20.5176Z"
		fill="currentColor"
	/>
</svg>
