<svg
	color="rgb(var(--foreground, 0, 0, 0))"
	viewBox="0 0 19 24"
	fill="none"
	xmlns="http://www.w3.org/2000/svg"
>
	<path
		d="M13.125 7.73633C13.3281 7.60613 13.5287 7.41081 13.7266 7.1504C13.9245 6.88477 14.1042 6.58529 14.2656 6.25196C14.4323 5.91863 14.5651 5.57748 14.6641 5.22852C14.763 4.87956 14.8203 4.55144 14.836 4.24415C14.8516 3.93165 14.8125 3.66863 14.7188 3.45508C14.625 3.24154 14.4636 3.10613 14.2344 3.04883C13.9948 2.99675 13.7839 3.04363 13.6016 3.18946C13.4193 3.33529 13.2656 3.55144 13.1406 3.8379C13.0156 4.11915 12.9193 4.43946 12.8516 4.79883C12.7891 5.15821 12.7552 5.52279 12.75 5.89258C12.75 6.26238 12.7787 6.61133 12.836 6.93946C12.8985 7.26238 12.9948 7.528 13.125 7.73633ZM13.3125 8.04102C13.6146 8.04102 13.9557 7.9681 14.336 7.82227C14.7162 7.67644 15.1016 7.48113 15.4922 7.23633C15.8828 6.98633 16.2474 6.71029 16.586 6.40821C16.9245 6.10092 17.2031 5.78842 17.4219 5.47071C17.6406 5.153 17.7682 4.84831 17.8047 4.55665C17.8464 4.26498 17.7604 4.01238 17.5469 3.79883C17.3333 3.58529 17.0807 3.49935 16.7891 3.54102C16.5026 3.57748 16.2005 3.70508 15.8828 3.92383C15.5651 4.14258 15.2526 4.42123 14.9453 4.75977C14.6432 5.09831 14.3672 5.4629 14.1172 5.85352C13.8724 6.24415 13.6771 6.63217 13.5313 7.01758C13.3854 7.39779 13.3125 7.73894 13.3125 8.04102ZM13.6172 8.22071C13.8255 8.35092 14.0912 8.44727 14.4141 8.50977C14.737 8.57227 15.0833 8.60352 15.4531 8.60352C15.8281 8.59831 16.1953 8.56446 16.5547 8.50196C16.9141 8.43425 17.2344 8.3379 17.5156 8.2129C17.8021 8.0879 18.0182 7.93685 18.1641 7.75977C18.3151 7.57748 18.362 7.36915 18.3047 7.13477C18.2474 6.9004 18.112 6.73633 17.8985 6.64258C17.6849 6.54363 17.4245 6.50196 17.1172 6.51758C16.8099 6.528 16.4818 6.58529 16.1328 6.68946C15.7839 6.78842 15.4401 6.91863 15.1016 7.08008C14.7682 7.24154 14.4688 7.42123 14.2031 7.61915C13.9427 7.81706 13.7474 8.01758 13.6172 8.22071ZM13.4297 7.19727C12.9297 6.69206 12.4011 6.3431 11.8438 6.1504C11.2865 5.95769 10.724 5.91342 10.1563 6.01758C9.59376 6.12175 9.0521 6.37175 8.53126 6.76758C8.01043 7.15821 7.53908 7.68946 7.1172 8.36133L0.593764 18.7285C0.375014 19.0827 0.294285 19.4108 0.351576 19.7129C0.414076 20.0202 0.562514 20.2884 0.796889 20.5176C0.994806 20.7207 1.2422 20.8613 1.53908 20.9395C1.84116 21.0228 2.18231 20.9447 2.56251 20.7051L12.9531 14.1816C13.6198 13.765 14.1458 13.2988 14.5313 12.7832C14.9219 12.2624 15.1693 11.7233 15.2735 11.166C15.3776 10.6035 15.3333 10.041 15.1406 9.47852C14.9479 8.91602 14.6016 8.38217 14.1016 7.87696L13.4297 7.19727ZM12.6016 8.03321L13.2656 8.7129C13.7604 9.2129 14.0573 9.72071 14.1563 10.2363C14.2552 10.7468 14.1537 11.252 13.8516 11.752C13.5547 12.2468 13.0521 12.7181 12.3438 13.166L1.96876 19.6816C1.88022 19.7337 1.79949 19.7467 1.72658 19.7207C1.65366 19.6947 1.60158 19.6452 1.57033 19.5723C1.54428 19.4994 1.55731 19.4212 1.60939 19.3379L8.13283 8.9629C8.58074 8.24935 9.0547 7.74154 9.5547 7.43946C10.0599 7.13217 10.5703 7.0306 11.086 7.13477C11.6016 7.23373 12.1068 7.53321 12.6016 8.03321ZM10.1563 10.4707C10.2552 10.3718 10.3021 10.2546 10.2969 10.1191C10.2969 9.97852 10.2448 9.85613 10.1406 9.75196L8.32033 7.95508L7.60939 8.69727L9.4297 10.4785C9.53387 10.5827 9.65626 10.6348 9.79689 10.6348C9.93751 10.6296 10.0573 10.5749 10.1563 10.4707ZM8.38283 11.5723C8.48178 11.4733 8.53126 11.3535 8.53126 11.2129C8.53647 11.0723 8.48439 10.9499 8.37501 10.8457L6.9297 9.43165L6.21876 10.166L7.65626 11.5723C7.76043 11.6764 7.88022 11.7285 8.01564 11.7285C8.15626 11.7285 8.27866 11.6764 8.38283 11.5723ZM6.63283 14.8457C6.53387 14.9447 6.48439 15.0645 6.48439 15.2051C6.48439 15.3457 6.53647 15.4681 6.64064 15.5723L7.91408 16.8066L8.8047 16.252L7.35939 14.8379C7.25522 14.7337 7.13283 14.6843 6.9922 14.6895C6.85678 14.6895 6.73699 14.7415 6.63283 14.8457ZM5.2422 16.2988C5.14324 16.403 5.09376 16.5254 5.09376 16.666C5.09376 16.8014 5.14585 16.9212 5.25001 17.0254L6.13283 17.9082L7.03908 17.3535L5.96876 16.2988C5.8646 16.1947 5.7422 16.1452 5.60158 16.1504C5.46095 16.1504 5.34116 16.1999 5.2422 16.2988Z"
		fill="currentColor"
	/>
</svg>
