<svg
	color="rgb(var(--foreground, 0, 0, 0))"
	viewBox="0 0 21 24"
	fill="none"
	xmlns="http://www.w3.org/2000/svg"
>
	<path
		d="M10.1328 15.8438H10.8359C11.8151 15.8438 12.7031 15.6875 13.5 15.375C14.3021 15.0573 14.9922 14.6042 15.5703 14.0156C16.1484 13.4271 16.5938 12.7214 16.9063 11.8984C17.2188 11.0703 17.375 10.1458 17.375 9.125V7.53906C17.375 6.91927 17.0859 6.375 16.5078 5.90625C15.9297 5.4375 15.1224 5.07292 14.0859 4.8125C13.0547 4.54688 11.8542 4.41406 10.4844 4.41406C9.11458 4.41406 7.91146 4.54688 6.875 4.8125C5.84375 5.07292 5.03906 5.4375 4.46094 5.90625C3.88281 6.375 3.59375 6.91927 3.59375 7.53906V9.125C3.59375 10.1146 3.75 11.0182 4.0625 11.8359C4.375 12.6536 4.82031 13.362 5.39844 13.9609C5.97656 14.5599 6.66667 15.0234 7.46875 15.3516C8.27084 15.6797 9.15886 15.8438 10.1328 15.8438ZM10.4844 9.44531C9.39583 9.44531 8.42448 9.36198 7.57031 9.19531C6.71615 9.02344 6.04167 8.79427 5.54688 8.50781C5.05729 8.22135 4.8125 7.89844 4.8125 7.53906C4.8125 7.17969 5.05729 6.85677 5.54688 6.57031C6.04167 6.28385 6.71615 6.05729 7.57031 5.89062C8.42448 5.71875 9.39583 5.63281 10.4844 5.63281C11.5781 5.63281 12.5521 5.71875 13.4063 5.89062C14.2604 6.05729 14.9323 6.28385 15.4219 6.57031C15.9167 6.85677 16.1641 7.17969 16.1641 7.53906C16.1641 7.89844 15.9167 8.22135 15.4219 8.50781C14.9323 8.79427 14.2604 9.02344 13.4063 9.19531C12.5521 9.36198 11.5781 9.44531 10.4844 9.44531ZM16.5313 12.3906H17.1484C18.0182 12.3906 18.7005 12.1745 19.1953 11.7422C19.6901 11.3099 19.9375 10.7161 19.9375 9.96094C19.9375 9.20573 19.6875 8.61198 19.1875 8.17969C18.6927 7.7474 18.013 7.53125 17.1484 7.53125H16.6484V8.74219H17.1484C17.6432 8.74219 18.0286 8.85156 18.3047 9.07031C18.5807 9.28385 18.7188 9.58073 18.7188 9.96094C18.7188 10.3411 18.5807 10.6406 18.3047 10.8594C18.0286 11.0729 17.6432 11.1797 17.1484 11.1797H16.5313V12.3906ZM10.4453 19.5859C11.9297 19.5859 13.2917 19.487 14.5313 19.2891C15.7708 19.0911 16.8438 18.8073 17.75 18.4375C18.6563 18.0677 19.3568 17.6302 19.8516 17.125C20.3464 16.6198 20.5938 16.0599 20.5938 15.4453C20.5938 14.9714 20.4375 14.526 20.125 14.1094C19.8125 13.6927 19.3724 13.3177 18.8047 12.9844C18.5703 13.0833 18.3229 13.1589 18.0625 13.2109C17.8073 13.263 17.5313 13.2943 17.2344 13.3047C16.6146 14.388 15.7526 15.2344 14.6484 15.8438C13.5495 16.4531 12.2786 16.7578 10.8359 16.7578H10.1328C9.06511 16.7578 8.08334 16.5781 7.1875 16.2188C6.29167 15.8594 5.51302 15.3542 4.85156 14.7031C4.19011 14.0521 3.67188 13.2812 3.29688 12.3906C2.34896 12.7604 1.61198 13.2057 1.08594 13.7266C0.559896 14.2422 0.296875 14.8151 0.296875 15.4453C0.296875 16.0599 0.544271 16.6198 1.03906 17.125C1.53906 17.6302 2.24219 18.0677 3.14844 18.4375C4.05469 18.8073 5.125 19.0911 6.35938 19.2891C7.59896 19.487 8.96094 19.5859 10.4453 19.5859Z"
		fill="currentColor"
	/>
</svg>
