<svg
	color="rgb(var(--foreground, 0, 0, 0))"
	viewBox="0 0 21 24"
	fill="none"
	xmlns="http://www.w3.org/2000/svg"
>
	<path
		d="M15.2969 13.0664C16.0729 13.2487 16.7448 13.4648 17.3125 13.7148C17.8802 13.9648 18.3177 14.2383 18.625 14.5352C18.9323 14.8268 19.0859 15.1289 19.0859 15.4414C19.0859 15.8216 18.8594 16.1888 18.4062 16.543C17.9531 16.8919 17.3203 17.2044 16.5078 17.4805C15.6953 17.7565 14.7474 17.9727 13.6641 18.1289C12.5807 18.2904 11.4089 18.3711 10.1484 18.3711C8.88802 18.3711 7.71615 18.2904 6.63281 18.1289C5.54948 17.9727 4.60156 17.7565 3.78906 17.4805C2.97656 17.2044 2.34375 16.8919 1.89062 16.543C1.4375 16.1888 1.21094 15.8216 1.21094 15.4414C1.21094 15.1289 1.35938 14.8294 1.65625 14.543C1.95833 14.2513 2.38542 13.9805 2.9375 13.7305C3.49479 13.4805 4.15365 13.2617 4.91406 13.0742L4.32031 11.9648C2.97135 12.319 1.91406 12.7956 1.14844 13.3945C0.382812 13.9935 0 14.6758 0 15.4414C0 16.056 0.247396 16.6159 0.742188 17.1211C1.24219 17.6263 1.94531 18.0638 2.85156 18.4336C3.75781 18.8034 4.82812 19.0872 6.0625 19.2852C7.30208 19.4831 8.66406 19.582 10.1484 19.582C11.6328 19.582 12.9948 19.4831 14.2344 19.2852C15.474 19.0872 16.5469 18.8034 17.4531 18.4336C18.3594 18.0638 19.0599 17.6263 19.5547 17.1211C20.0495 16.6159 20.2969 16.056 20.2969 15.4414C20.2969 14.6602 19.8932 13.9648 19.0859 13.3555C18.2839 12.7409 17.1797 12.2591 15.7734 11.9102L15.2969 13.0664ZM16 7.64453V9.27734C16 10.4023 15.7734 11.3919 15.3203 12.2461C14.8672 13.0951 14.2292 13.7591 13.4062 14.2383C12.5885 14.7122 11.6224 14.9492 10.5078 14.9492H9.78125C8.66667 14.9492 7.69792 14.7122 6.875 14.2383C6.05729 13.7643 5.42188 13.1029 4.96875 12.2539C4.52083 11.3997 4.29688 10.4076 4.29688 9.27734V7.64453H3.03906V9.27734C3.03906 10.2982 3.20052 11.2305 3.52344 12.0742C3.84635 12.918 4.30469 13.6497 4.89844 14.2695C5.4974 14.8841 6.20833 15.3607 7.03125 15.6992C7.85938 16.0378 8.77604 16.207 9.78125 16.207H10.5078C11.5182 16.207 12.4349 16.0378 13.2578 15.6992C14.0859 15.3607 14.7969 14.8841 15.3906 14.2695C15.9896 13.6497 16.4505 12.918 16.7734 12.0742C17.0964 11.2253 17.2578 10.293 17.2578 9.27734V7.64453H16ZM10.1484 10.8633C11.5599 10.8633 12.7995 10.7279 13.8672 10.457C14.9349 10.1862 15.7656 9.8112 16.3594 9.33203C16.9583 8.84766 17.2578 8.28516 17.2578 7.64453C17.2578 7.00391 16.9583 6.44141 16.3594 5.95703C15.7656 5.47266 14.9349 5.09505 13.8672 4.82422C12.7995 4.55339 11.5599 4.41797 10.1484 4.41797C8.73177 4.41797 7.48958 4.55339 6.42188 4.82422C5.35938 5.09505 4.52865 5.47266 3.92969 5.95703C3.33594 6.44141 3.03906 7.00391 3.03906 7.64453C3.03906 8.28516 3.33594 8.84766 3.92969 9.33203C4.52865 9.8112 5.36198 10.1862 6.42969 10.457C7.4974 10.7279 8.73698 10.8633 10.1484 10.8633ZM10.1484 9.60547C9.30469 9.60547 8.52604 9.55599 7.8125 9.45703C7.10417 9.35807 6.48698 9.22005 5.96094 9.04297C5.4349 8.86068 5.02604 8.65234 4.73438 8.41797C4.44271 8.17839 4.29688 7.92057 4.29688 7.64453C4.29688 7.36849 4.44271 7.11068 4.73438 6.87109C5.02604 6.63151 5.4349 6.42318 5.96094 6.24609C6.48698 6.06901 7.10417 5.93099 7.8125 5.83203C8.52604 5.72786 9.30469 5.67578 10.1484 5.67578C10.9922 5.67578 11.7682 5.72786 12.4766 5.83203C13.1901 5.93099 13.8099 6.06901 14.3359 6.24609C14.862 6.42318 15.2708 6.63151 15.5625 6.87109C15.8542 7.11068 16 7.36849 16 7.64453C16 7.92057 15.8542 8.17839 15.5625 8.41797C15.2708 8.65234 14.862 8.86068 14.3359 9.04297C13.8099 9.22005 13.1901 9.35807 12.4766 9.45703C11.7682 9.55599 10.9922 9.60547 10.1484 9.60547ZM16.3828 12.6523H17.0234C17.9193 12.6523 18.6224 12.431 19.1328 11.9883C19.6432 11.5404 19.8984 10.9232 19.8984 10.1367C19.8984 9.36068 19.6406 8.7487 19.125 8.30078C18.6146 7.85286 17.9141 7.62891 17.0234 7.62891H16.5V8.88672H17.0234C17.5286 8.88672 17.9245 8.9987 18.2109 9.22266C18.4974 9.44141 18.6406 9.74609 18.6406 10.1367C18.6406 10.5273 18.4974 10.8346 18.2109 11.0586C17.9245 11.2826 17.5286 11.3945 17.0234 11.3945H16.3828V12.6523Z"
		fill="currentColor"
	/>
</svg>
