<svg
	viewBox="0 0 12 24"
	fill="none"
	xmlns="http://www.w3.org/2000/svg"
	color="rgb(var(--foreground, 0, 0, 0))"
>
	<path
		d="M3.27131 21.0586C3.59943 21.0586 3.85724 20.9701 4.04474 20.793C4.23224 20.6159 4.32599 20.3685 4.32599 20.0508L4.16974 11.2773C4.16974 11.1419 4.19839 11.0247 4.25568 10.9258C4.31818 10.8216 4.40933 10.7435 4.52912 10.6914C4.87287 10.5404 5.15152 10.3763 5.36506 10.1992C5.58381 10.0169 5.74006 9.78516 5.83381 9.50391C5.92756 9.22266 5.96662 8.85286 5.95099 8.39453L5.73224 3.59766C5.71662 3.23828 5.53693 3.05859 5.19318 3.05859C5.04214 3.05859 4.92235 3.10807 4.83381 3.20703C4.74527 3.30078 4.70099 3.4362 4.70099 3.61328L4.75568 8.27734C4.75568 8.41797 4.71402 8.52734 4.63068 8.60547C4.55256 8.68359 4.45099 8.72266 4.32599 8.72266C4.19058 8.72266 4.0812 8.6862 3.99787 8.61328C3.91454 8.53516 3.87287 8.43099 3.87287 8.30078L3.79474 3.47266C3.78954 3.30599 3.74006 3.17578 3.64631 3.08203C3.55777 2.98828 3.43277 2.94141 3.27131 2.94141C3.11506 2.94141 2.99006 2.98828 2.89631 3.08203C2.80256 3.17578 2.75568 3.30599 2.75568 3.47266L2.67756 8.30078C2.67756 8.43099 2.63329 8.53516 2.54474 8.61328C2.46141 8.6862 2.35464 8.72266 2.22443 8.72266C1.93277 8.72266 1.78693 8.57422 1.78693 8.27734L1.84162 3.61328C1.84162 3.4362 1.79735 3.30078 1.70881 3.20703C1.62547 3.10807 1.50568 3.05859 1.34943 3.05859C1.18797 3.05859 1.06037 3.10547 0.966619 3.19922C0.872869 3.29297 0.820786 3.42578 0.810369 3.59766L0.599432 8.39453C0.578598 8.85286 0.615057 9.22266 0.708807 9.50391C0.802557 9.78516 0.956203 10.0169 1.16974 10.1992C1.38849 10.3763 1.66974 10.5404 2.01349 10.6914C2.13849 10.7435 2.22964 10.8216 2.28693 10.9258C2.34422 11.0247 2.37287 11.1419 2.37287 11.2773L2.22443 20.0508C2.21922 20.3685 2.31037 20.6159 2.49787 20.793C2.68537 20.9701 2.94318 21.0586 3.27131 21.0586ZM9.3885 14.2461L9.21662 20.0117C9.2062 20.3503 9.29735 20.6081 9.49006 20.7852C9.68277 20.9674 9.94058 21.0586 10.2635 21.0586C10.5916 21.0586 10.852 20.9753 11.0447 20.8086C11.2375 20.6471 11.3338 20.4102 11.3338 20.0977V3.52734C11.3338 3.32943 11.2765 3.18359 11.1619 3.08984C11.0474 2.99089 10.9171 2.94141 10.7713 2.94141C10.6255 2.94141 10.4979 2.98307 10.3885 3.06641C10.2791 3.14974 10.1593 3.28255 10.0291 3.46484C9.71662 3.90755 9.43277 4.4362 9.17756 5.05078C8.92235 5.66016 8.701 6.32943 8.5135 7.05859C8.3312 7.78255 8.19058 8.53516 8.09162 9.31641C7.99266 10.0977 7.94318 10.8789 7.94318 11.6602V12.043C7.94318 12.3138 7.99266 12.5482 8.09162 12.7461C8.19058 12.944 8.33641 13.1081 8.52912 13.2383L8.99787 13.5508C9.13329 13.6497 9.23225 13.7565 9.29475 13.8711C9.36245 13.9805 9.3937 14.1055 9.3885 14.2461Z"
		fill="currentColor"
	/>
</svg>
