<svg
	color="rgb(var(--foreground, 0, 0, 0))"
	viewBox="0 0 15 24"
	fill="none"
	xmlns="http://www.w3.org/2000/svg"
>
	<path
		d="M1.45064 8.66016L1.92721 7.60547C1.72929 7.54818 1.56523 7.43099 1.43502 7.25391C1.30481 7.07682 1.23971 6.8737 1.23971 6.64453C1.23971 6.39974 1.31783 6.1888 1.47408 6.01172C1.63033 5.83464 1.83346 5.71484 2.08346 5.65234C2.33346 5.58464 2.59908 5.59505 2.88033 5.68359C2.84387 5.41797 2.89596 5.1862 3.03658 4.98828C3.18242 4.79036 3.37512 4.65755 3.61471 4.58984C3.8595 4.52214 4.11471 4.55339 4.38033 4.68359C4.26054 4.22526 4.31262 3.8737 4.53658 3.62891C4.76575 3.37891 5.04179 3.25391 5.36471 3.25391C5.68242 3.25391 5.96887 3.3737 6.22408 3.61328C6.47929 3.85286 6.57564 4.20443 6.51314 4.66797C6.67981 4.55859 6.87512 4.49089 7.09908 4.46484C7.32825 4.4388 7.5496 4.44922 7.76314 4.49609C7.98189 4.54297 8.16158 4.62109 8.30221 4.73047C8.40117 4.49609 8.5496 4.3138 8.74752 4.18359C8.95064 4.05339 9.1746 3.98828 9.41939 3.98828C9.77356 3.98828 10.0392 4.11589 10.2163 4.37109C10.3934 4.62109 10.4767 4.94141 10.4663 5.33203C10.7892 5.27995 11.0756 5.29297 11.3256 5.37109C11.5756 5.44401 11.771 5.57943 11.9116 5.77734C12.0574 5.97005 12.1303 6.21745 12.1303 6.51953C12.1303 6.76432 12.047 6.98828 11.8803 7.19141C11.7189 7.38932 11.5184 7.52474 11.2788 7.59766L11.9116 8.58203C12.3074 8.38932 12.6277 8.10286 12.8725 7.72266C13.1225 7.33724 13.2475 6.91016 13.2475 6.44141C13.2475 5.99349 13.159 5.59766 12.9819 5.25391C12.8048 4.91016 12.5574 4.63932 12.2397 4.44141C11.922 4.23828 11.5574 4.13151 11.146 4.12109C10.9845 3.74089 10.7527 3.4362 10.4506 3.20703C10.1486 2.97266 9.78658 2.85547 9.36471 2.85547C9.09908 2.85547 8.84648 2.90234 8.60689 2.99609C8.36731 3.08464 8.15377 3.21484 7.96627 3.38672C7.86731 3.36068 7.75533 3.34505 7.63033 3.33984C7.51054 3.32943 7.39335 3.33724 7.27877 3.36328C7.10689 2.98307 6.84908 2.68099 6.50533 2.45703C6.16158 2.23307 5.78137 2.12109 5.36471 2.12109C4.81262 2.12109 4.3621 2.26432 4.01314 2.55078C3.66419 2.83203 3.45585 3.14193 3.38814 3.48047C3.19023 3.46484 3.00794 3.50651 2.84127 3.60547C2.6746 3.69922 2.54179 3.82943 2.44283 3.99609C2.34387 4.15755 2.29439 4.32682 2.29439 4.50391C1.89856 4.49349 1.53398 4.58464 1.20064 4.77734C0.87252 4.96484 0.609499 5.22266 0.411582 5.55078C0.218874 5.87891 0.12252 6.24349 0.12252 6.64453C0.12252 7.09766 0.244916 7.50651 0.489707 7.87109C0.739707 8.23568 1.06002 8.4987 1.45064 8.66016ZM3.60689 20.6289H8.48971L8.44283 19.4648H5.98189L5.09127 9.69141C5.04439 9.1862 5.16419 8.77995 5.45064 8.47266C5.74231 8.16536 6.15377 8.01172 6.68502 8.01172C7.21106 8.01172 7.61992 8.16536 7.91158 8.47266C8.20325 8.77995 8.32564 9.1862 8.27877 9.69141L7.52877 17.9648L8.73189 17.4336L9.42721 9.73828C9.46887 9.30599 9.61471 8.97786 9.86471 8.75391C10.1199 8.52474 10.422 8.41016 10.771 8.41016C11.0522 8.41016 11.3126 8.47786 11.5522 8.61328C11.7918 8.74349 11.9715 8.93359 12.0913 9.18359C12.2111 9.43359 12.2371 9.73307 12.1694 10.082L11.1225 15.5117L12.2866 15.5664L13.31 10.1445C13.4194 9.56641 13.3673 9.0612 13.1538 8.62891C12.9402 8.19141 12.6199 7.85286 12.1928 7.61328C11.771 7.36849 11.297 7.24609 10.771 7.24609C10.4168 7.24609 10.0887 7.31641 9.78658 7.45703C9.48971 7.59245 9.23189 7.78516 9.01314 8.03516C8.79439 7.67578 8.48189 7.38932 8.07564 7.17578C7.66939 6.95703 7.20585 6.84766 6.68502 6.84766C6.16419 6.84766 5.70064 6.95703 5.29439 7.17578C4.88814 7.38932 4.57564 7.67578 4.35689 8.03516C4.13814 7.78516 3.87773 7.59245 3.57564 7.45703C3.27356 7.31641 2.94804 7.24609 2.59908 7.24609C2.07304 7.24609 1.59648 7.36849 1.16939 7.61328C0.742312 7.85286 0.421999 8.19141 0.208457 8.62891C-0.00508432 9.0612 -0.0545635 9.56641 0.0600198 10.1445L1.70846 18.8711C1.81783 19.4336 2.02096 19.8659 2.31783 20.168C2.61471 20.4753 3.04439 20.6289 3.60689 20.6289ZM3.64596 19.4648C3.43242 19.4648 3.26054 19.4102 3.13033 19.3008C3.00533 19.1914 2.9246 19.0299 2.88814 18.8164L1.20064 10.082C1.13294 9.73307 1.15898 9.43359 1.27877 9.18359C1.39856 8.93359 1.57564 8.74349 1.81002 8.61328C2.0496 8.47786 2.31262 8.41016 2.59908 8.41016C2.94804 8.41016 3.24752 8.52474 3.49752 8.75391C3.75273 8.97786 3.89856 9.30599 3.93502 9.73828L4.81783 19.4648H3.64596ZM10.9506 21.8789C11.3309 21.8789 11.6824 21.7799 12.0053 21.582C12.3282 21.3841 12.573 21.1211 12.7397 20.793C13.2032 20.6836 13.5809 20.4414 13.8725 20.0664C14.1642 19.6966 14.31 19.2747 14.31 18.8008C14.31 18.3737 14.1902 17.9883 13.9506 17.6445C13.7163 17.2956 13.4194 17.0299 13.06 16.8477C13.0444 16.4727 12.9402 16.1445 12.7475 15.8633C12.5548 15.582 12.3022 15.3633 11.9897 15.207C11.6772 15.0508 11.3309 14.9727 10.9506 14.9727C10.3881 14.9727 9.90377 15.1367 9.49752 15.4648C9.09648 15.793 8.88033 16.2279 8.84908 16.7695C8.38033 16.8737 7.98971 17.1159 7.67721 17.4961C7.36992 17.8763 7.21627 18.3086 7.21627 18.793C7.21627 19.1576 7.2996 19.4909 7.46627 19.793C7.63814 20.095 7.86992 20.3398 8.16158 20.5273C8.45325 20.72 8.77617 20.832 9.13033 20.8633C9.31262 21.1654 9.56523 21.4102 9.88814 21.5977C10.2163 21.7852 10.5704 21.8789 10.9506 21.8789ZM10.9506 20.8711C10.6486 20.8711 10.3803 20.7799 10.146 20.5977C9.91679 20.4154 9.81002 20.1471 9.82564 19.793C9.56002 19.8763 9.30481 19.8893 9.06002 19.832C8.81523 19.7747 8.6121 19.6575 8.45064 19.4805C8.29439 19.3034 8.21627 19.0742 8.21627 18.793C8.21627 18.3659 8.36992 18.043 8.67721 17.8242C8.9845 17.6107 9.38294 17.5456 9.87252 17.6289C9.78398 17.3841 9.76575 17.1367 9.81783 16.8867C9.87512 16.6315 9.99752 16.418 10.185 16.2461C10.3777 16.069 10.6329 15.9805 10.9506 15.9805C11.2579 15.9805 11.5079 16.0664 11.7006 16.2383C11.8934 16.4049 12.021 16.6185 12.0835 16.8789C12.1512 17.1393 12.1434 17.4076 12.06 17.6836C12.4246 17.6419 12.7189 17.7279 12.9428 17.9414C13.1668 18.1602 13.2788 18.4596 13.2788 18.8398C13.2788 19.1732 13.1668 19.431 12.9428 19.6133C12.7189 19.8008 12.4116 19.8763 12.021 19.8398C12.0314 20.1419 11.9246 20.3893 11.7006 20.582C11.4767 20.7747 11.2267 20.8711 10.9506 20.8711Z"
		fill="currentColor"
	/>
</svg>
