<svg
	color="rgb(var(--foreground, 0, 0, 0))"
	viewBox="0 0 15 24"
	fill="none"
	xmlns="http://www.w3.org/2000/svg"
>
	<path
		d="M0.653778 7.82422C1.11732 7.56901 1.61992 7.44141 2.16159 7.44141C2.57305 7.44141 2.97149 7.52214 3.3569 7.68359C3.74232 7.84505 4.07044 8.09245 4.34128 8.42578C4.62253 8.01953 4.98711 7.70964 5.43503 7.49609C5.88815 7.28255 6.3569 7.17578 6.84128 7.17578C7.33086 7.17578 7.79961 7.28255 8.24753 7.49609C8.70065 7.70964 9.06524 8.01953 9.34128 8.42578C9.61211 8.09245 9.94284 7.84505 10.3335 7.68359C10.7241 7.52214 11.1277 7.44141 11.5444 7.44141C12.0704 7.44141 12.5574 7.5638 13.0053 7.80859C13.1408 7.61068 13.2475 7.39714 13.3257 7.16797C13.4038 6.9388 13.4428 6.69661 13.4428 6.44141C13.4428 5.99349 13.3517 5.59766 13.1694 5.25391C12.9923 4.91016 12.7449 4.63932 12.4272 4.44141C12.1147 4.23828 11.7527 4.13151 11.3413 4.12109C11.1746 3.74089 10.9402 3.4362 10.6382 3.20703C10.3413 2.97266 9.9819 2.85547 9.56003 2.85547C9.2944 2.85547 9.03919 2.90234 8.7944 2.99609C8.55482 3.08464 8.34128 3.21484 8.15378 3.38672C8.06003 3.36068 7.95065 3.34505 7.82565 3.33984C7.70065 3.32943 7.58347 3.33724 7.47409 3.36328C7.30222 2.98307 7.0444 2.68099 6.70065 2.45703C6.3569 2.23307 5.97669 2.12109 5.56003 2.12109C5.00274 2.12109 4.54961 2.26432 4.20065 2.55078C3.8569 2.83203 3.65117 3.14193 3.58347 3.48047C3.38555 3.46484 3.20326 3.50651 3.03659 3.60547C2.86992 3.69922 2.73451 3.82943 2.63034 3.99609C2.53138 4.15755 2.4819 4.32682 2.4819 4.50391C2.08607 4.49349 1.72409 4.58464 1.39597 4.77734C1.06784 4.96484 0.80482 5.22266 0.606903 5.55078C0.408986 5.87891 0.310028 6.24349 0.310028 6.64453C0.310028 6.85286 0.33607 7.05339 0.388153 7.24609C0.440236 7.4388 0.528778 7.63151 0.653778 7.82422ZM3.77878 20.6289H4.8569L3.90378 10.1289C3.8569 9.57682 3.65378 9.16797 3.2944 8.90234C2.93503 8.63151 2.5444 8.49609 2.12253 8.49609C1.78399 8.49609 1.46107 8.58203 1.15378 8.75391C0.851695 8.92578 0.619924 9.18099 0.458466 9.51953C0.302216 9.85286 0.270966 10.2695 0.364716 10.7695L1.90378 18.8711C2.00794 19.4284 2.20586 19.8607 2.49753 20.168C2.78919 20.4753 3.21628 20.6289 3.77878 20.6289ZM5.88034 20.6289H7.18503V20.5898C7.00274 20.3503 6.86211 20.0846 6.76315 19.793C6.6694 19.5065 6.62253 19.2044 6.62253 18.8867C6.62253 18.3294 6.76055 17.8164 7.03659 17.3477C7.31784 16.8737 7.70586 16.5065 8.20065 16.2461L8.73972 10.1992C8.78138 9.73047 8.70065 9.35286 8.49753 9.06641C8.29961 8.77995 8.0444 8.57161 7.7319 8.44141C7.4194 8.30599 7.12253 8.23828 6.84128 8.23828C6.56003 8.23828 6.26315 8.30599 5.95065 8.44141C5.64336 8.57161 5.38815 8.77995 5.18503 9.06641C4.9819 9.35286 4.90117 9.73047 4.94284 10.1992L5.88034 20.6289ZM11.1069 14.2617C11.6486 14.2617 12.1408 14.3919 12.5835 14.6523L13.3178 10.7695C13.4116 10.2695 13.3777 9.85286 13.2163 9.51953C13.06 9.18099 12.8283 8.92578 12.521 8.75391C12.2189 8.58203 11.8986 8.49609 11.56 8.49609C11.1382 8.49609 10.7475 8.63151 10.3882 8.90234C10.034 9.16797 9.83086 9.57682 9.77878 10.1289L9.34128 14.918C9.56524 14.7148 9.82826 14.556 10.1303 14.4414C10.4376 14.3216 10.7632 14.2617 11.1069 14.2617ZM11.1069 21.8789C11.4871 21.8789 11.8387 21.7799 12.1616 21.582C12.4845 21.3841 12.7293 21.1211 12.896 20.793C13.422 20.6784 13.8152 20.4388 14.0757 20.0742C14.3361 19.7096 14.4663 19.3164 14.4663 18.8945C14.4663 18.4622 14.3309 18.0638 14.06 17.6992C13.7944 17.3398 13.4064 17.1211 12.896 17.043C12.8803 16.5482 12.7033 16.1393 12.3647 15.8164C12.0314 15.4935 11.6121 15.332 11.1069 15.332C10.6121 15.332 10.1954 15.4883 9.8569 15.8008C9.52357 16.1081 9.34649 16.5039 9.32565 16.9883C8.79961 17.0716 8.39336 17.2982 8.1069 17.668C7.82565 18.043 7.68503 18.4492 7.68503 18.8867C7.68503 19.3242 7.82565 19.7253 8.1069 20.0898C8.38815 20.4596 8.7944 20.6992 9.32565 20.8086C9.4819 21.1315 9.72149 21.3893 10.0444 21.582C10.3673 21.7799 10.7215 21.8789 11.1069 21.8789Z"
		fill="currentColor"
	/>
</svg>
