<svg
	viewBox="0 0 21 24"
	fill="none"
	xmlns="http://www.w3.org/2000/svg"
	color="rgb(var(--foreground, 0, 0, 0))"
>
	<path
		d="M3.21826 19.7578H11.7261C11.7209 19.7214 11.7157 19.6849 11.7104 19.6484C11.7104 19.612 11.7078 19.5755 11.7026 19.5391L10.8901 11.0312C10.8537 10.6823 10.9032 10.3646 11.0386 10.0781C11.1792 9.79167 11.3823 9.5625 11.6479 9.39062C11.9188 9.21875 12.2287 9.13281 12.5776 9.13281H14.6948C14.6948 8.89323 14.6714 8.70052 14.6245 8.55469C14.5776 8.40885 14.4943 8.25521 14.3745 8.09375L12.8823 6.11719V4.63281C12.8823 4.08073 12.7235 3.65625 12.4058 3.35938C12.0933 3.0625 11.6427 2.91406 11.0542 2.91406H4.47607C3.88753 2.91406 3.43441 3.0625 3.1167 3.35938C2.8042 3.65625 2.64795 4.08073 2.64795 4.63281V6.11719L1.16357 8.09375C1.03337 8.26562 0.944824 8.42969 0.897949 8.58594C0.856283 8.73698 0.835449 8.94792 0.835449 9.21875V17.4062C0.835449 18.1875 1.03337 18.7734 1.4292 19.1641C1.83024 19.5599 2.42659 19.7578 3.21826 19.7578ZM5.64795 5.96875C5.51253 5.96875 5.39535 5.91927 5.29639 5.82031C5.19743 5.72135 5.14795 5.60156 5.14795 5.46094C5.14795 5.32031 5.19743 5.20052 5.29639 5.10156C5.39535 4.9974 5.51253 4.94531 5.64795 4.94531H9.85889C9.9943 4.94531 10.1115 4.9974 10.2104 5.10156C10.3094 5.20052 10.3589 5.32031 10.3589 5.46094C10.3589 5.60156 10.3094 5.72135 10.2104 5.82031C10.1115 5.91927 9.9943 5.96875 9.85889 5.96875H5.64795ZM14.4214 21.0859H18.0386C18.5542 21.0859 18.9448 20.9505 19.2104 20.6797C19.4761 20.4141 19.6375 20 19.6948 19.4375L20.5151 10.9297C20.536 10.7109 20.4865 10.5365 20.3667 10.4062C20.2521 10.2708 20.0881 10.2031 19.8745 10.2031H12.5776C12.3693 10.2031 12.2052 10.2708 12.0854 10.4062C11.9709 10.5417 11.924 10.7161 11.9448 10.9297L12.7651 19.4375C12.8172 20 12.9761 20.4141 13.2417 20.6797C13.5073 20.9505 13.9006 21.0859 14.4214 21.0859ZM15.7183 10.6016H16.7964L16.8433 9.86719C16.8589 9.66927 16.8979 9.50781 16.9604 9.38281C17.0282 9.25781 17.1349 9.14323 17.2808 9.03906L19.8901 7.16406C20.0412 7.0599 20.1219 6.9375 20.1323 6.79688C20.1427 6.65104 20.1037 6.52083 20.0151 6.40625C19.9318 6.29167 19.8172 6.21875 19.6714 6.1875C19.5308 6.15104 19.3823 6.1901 19.2261 6.30469L16.7104 8.125C16.4084 8.34375 16.187 8.58333 16.0464 8.84375C15.9058 9.09896 15.8172 9.41927 15.7808 9.80469L15.7183 10.6016Z"
		fill="currentColor"
	/>
</svg>
