<svg
	color="rgb(var(--foreground, 0, 0, 0))"
	viewBox="0 0 20 24"
	fill="none"
	xmlns="http://www.w3.org/2000/svg"
>
	<path
		d="M13.7371 21.0859H17.3542C17.8699 21.0859 18.2605 20.9505 18.5261 20.6797C18.7917 20.4141 18.9532 20 19.0105 19.4375L19.8308 10.9297C19.8516 10.7109 19.8022 10.5365 19.6824 10.4062C19.5678 10.2708 19.4037 10.2031 19.1902 10.2031H11.8933C11.685 10.2031 11.5209 10.2708 11.4011 10.4062C11.2865 10.5417 11.2397 10.7161 11.2605 10.9297L12.0808 19.4375C12.1329 20 12.2917 20.4141 12.5574 20.6797C12.823 20.9505 13.2162 21.0859 13.7371 21.0859ZM13.7839 19.8672C13.4819 19.8672 13.3126 19.7083 13.2761 19.3906L12.5261 11.4219H18.5652L17.8074 19.3906C17.7761 19.7083 17.6095 19.8672 17.3074 19.8672H13.7839ZM15.0339 10.6016H16.1121L16.1589 9.86719C16.1746 9.66927 16.2136 9.50781 16.2761 9.38281C16.3438 9.25781 16.4506 9.14323 16.5964 9.03906L19.2058 7.16406C19.3569 7.0599 19.4376 6.9375 19.448 6.79688C19.4584 6.65104 19.4194 6.52083 19.3308 6.40625C19.2475 6.29167 19.1329 6.21875 18.9871 6.1875C18.8464 6.15104 18.698 6.1901 18.5417 6.30469L16.0261 8.125C15.724 8.34375 15.5027 8.58333 15.3621 8.84375C15.2214 9.09896 15.1329 9.41927 15.0964 9.80469L15.0339 10.6016ZM2.53394 19.7578H11.0417C11.0365 19.7214 11.0313 19.6849 11.0261 19.6484C11.0261 19.612 11.0235 19.5755 11.0183 19.5391L10.9246 18.5H2.54956C1.78914 18.5 1.40894 18.1146 1.40894 17.3438V9.28125C1.40894 9.13021 1.41675 9.01562 1.43237 8.9375C1.448 8.85938 1.48446 8.78125 1.54175 8.70312L3.06519 6.6875C3.12248 6.60938 3.16154 6.53385 3.18237 6.46094C3.20841 6.38802 3.22144 6.30208 3.22144 6.20312V4.80469C3.22144 4.38281 3.41675 4.17188 3.80737 4.17188H10.3621C10.7475 4.17188 10.9402 4.38281 10.9402 4.80469V6.20312C10.9402 6.30208 10.9506 6.38802 10.9714 6.46094C10.9975 6.53385 11.0391 6.60938 11.0964 6.6875L12.6199 8.70312C12.672 8.77083 12.7058 8.83594 12.7214 8.89844C12.7371 8.95573 12.7449 9.03385 12.7449 9.13281H14.0105C14.0105 8.89323 13.9871 8.70052 13.9402 8.55469C13.8933 8.40885 13.81 8.25521 13.6902 8.09375L12.198 6.11719V4.63281C12.198 4.08073 12.0391 3.65625 11.7214 3.35938C11.4089 3.0625 10.9584 2.91406 10.3699 2.91406H3.79175C3.20321 2.91406 2.75008 3.0625 2.43237 3.35938C2.11987 3.65625 1.96362 4.08073 1.96362 4.63281V6.11719L0.479248 8.09375C0.34904 8.26562 0.260498 8.42969 0.213623 8.58594C0.171956 8.73698 0.151123 8.94792 0.151123 9.21875V17.4062C0.151123 18.1875 0.34904 18.7734 0.744873 19.1641C1.14591 19.5599 1.74227 19.7578 2.53394 19.7578ZM4.96362 6.39062H9.17456C9.30998 6.39062 9.42717 6.34115 9.52612 6.24219C9.62508 6.14323 9.67456 6.02344 9.67456 5.88281C9.67456 5.74219 9.62508 5.6224 9.52612 5.52344C9.42717 5.41927 9.30998 5.36719 9.17456 5.36719H4.96362C4.82821 5.36719 4.71102 5.41927 4.61206 5.52344C4.5131 5.6224 4.46362 5.74219 4.46362 5.88281C4.46362 6.02344 4.5131 6.14323 4.61206 6.24219C4.71102 6.34115 4.82821 6.39062 4.96362 6.39062Z"
		fill="currentColor"
	/>
</svg>
