<svg
	viewBox="0 0 12 24"
	fill="none"
	xmlns="http://www.w3.org/2000/svg"
	color="rgb(var(--foreground, 0, 0, 0))"
>
	<path
		d="M6.02612 14.1797C7.17196 14.1797 8.17196 13.9661 9.02612 13.5391C9.8855 13.112 10.5522 12.5156 11.0261 11.75C11.5053 10.9792 11.7449 10.0781 11.7449 9.04688C11.7449 8.51042 11.6746 7.9349 11.5339 7.32031C11.3933 6.70052 11.198 6.08854 10.948 5.48438C10.698 4.875 10.4089 4.31771 10.0808 3.8125C9.85164 3.45312 9.38029 3.17708 8.66675 2.98438C7.95841 2.79167 7.08081 2.69531 6.03394 2.69531C4.98185 2.69531 4.09904 2.79167 3.3855 2.98438C2.67716 3.17708 2.20581 3.45312 1.97144 3.8125C1.64331 4.31771 1.35425 4.875 1.10425 5.48438C0.859456 6.08854 0.666748 6.70052 0.526123 7.32031C0.390706 7.9349 0.322998 8.51042 0.322998 9.04688C0.322998 10.0781 0.559977 10.9792 1.03394 11.75C1.50789 12.5156 2.17196 13.112 3.02612 13.5391C3.8855 13.9661 4.8855 14.1797 6.02612 14.1797ZM6.02612 13C5.09904 13 4.29696 12.8411 3.61987 12.5234C2.94279 12.2005 2.41935 11.7448 2.04956 11.1562C1.68498 10.5625 1.50269 9.85938 1.50269 9.04688C1.50269 8.65625 1.54435 8.23698 1.62769 7.78906C1.71623 7.34115 1.84123 6.88802 2.00269 6.42969C2.16414 5.97135 2.35685 5.53125 2.58081 5.10938C2.92456 5.29167 3.39331 5.4349 3.98706 5.53906C4.58081 5.63802 5.2631 5.6875 6.03394 5.6875C6.79435 5.6875 7.47144 5.63802 8.06519 5.53906C8.66414 5.4349 9.13289 5.29167 9.47144 5.10938C9.69539 5.53125 9.8881 5.97135 10.0496 6.42969C10.2162 6.88802 10.3438 7.34115 10.4324 7.78906C10.5209 8.23698 10.5652 8.65625 10.5652 9.04688C10.5652 9.85938 10.3803 10.5625 10.0105 11.1562C9.64071 11.7448 9.11727 12.2005 8.44019 12.5234C7.7631 12.8411 6.95841 13 6.02612 13ZM6.03394 4.58594C5.50789 4.58594 5.01831 4.5651 4.56519 4.52344C4.11727 4.48177 3.75269 4.43229 3.47144 4.375C3.19539 4.3125 3.05737 4.25 3.05737 4.1875C3.05737 4.13542 3.198 4.08073 3.47925 4.02344C3.7605 3.96094 4.12769 3.90885 4.58081 3.86719C5.03394 3.82552 5.51831 3.80469 6.03394 3.80469C6.54435 3.80469 7.02612 3.82552 7.47925 3.86719C7.93237 3.90885 8.29956 3.96094 8.58081 4.02344C8.86727 4.08073 9.0105 4.13542 9.0105 4.1875C9.0105 4.25 8.86987 4.3125 8.58862 4.375C8.30737 4.43229 7.94019 4.48177 7.48706 4.52344C7.03394 4.5651 6.54956 4.58594 6.03394 4.58594ZM6.02612 19.4141C6.18758 19.4141 6.3256 19.3542 6.44019 19.2344C6.55998 19.1198 6.61987 18.9844 6.61987 18.8281V13.5625H5.448V18.8281C5.448 18.9844 5.50529 19.1198 5.61987 19.2344C5.73446 19.3542 5.86987 19.4141 6.02612 19.4141ZM6.02612 21.3047C7.44279 21.2995 8.55216 21.1302 9.35425 20.7969C10.1615 20.4635 10.5652 19.9974 10.5652 19.3984C10.5652 18.7995 10.1615 18.3333 9.35425 18C8.55216 17.6667 7.44279 17.5 6.02612 17.5C4.61466 17.5 3.50789 17.6667 2.70581 18C1.90373 18.3333 1.50269 18.7995 1.50269 19.3984C1.50269 20.0026 1.90373 20.4688 2.70581 20.7969C3.50789 21.1302 4.61466 21.2995 6.02612 21.3047ZM6.02612 20.1562C5.36466 20.1562 4.78914 20.1224 4.29956 20.0547C3.80998 19.9922 3.42977 19.9036 3.15894 19.7891C2.89331 19.6745 2.7605 19.5443 2.7605 19.3984C2.7605 19.2578 2.89331 19.1302 3.15894 19.0156C3.42977 18.901 3.80998 18.8099 4.29956 18.7422C4.78914 18.6745 5.36466 18.6406 6.02612 18.6406C6.69279 18.6406 7.27091 18.6745 7.7605 18.7422C8.25008 18.8099 8.63029 18.901 8.90112 19.0156C9.17196 19.1302 9.30737 19.2578 9.30737 19.3984C9.30737 19.5443 9.17196 19.6745 8.90112 19.7891C8.63029 19.9036 8.25008 19.9922 7.7605 20.0547C7.27091 20.1224 6.69279 20.1562 6.02612 20.1562Z"
		fill="currentColor"
	/>
</svg>
