<svg
	viewBox="0 0 13 24"
	fill="none"
	color="rgb(var(--foreground, 0, 0, 0))"
	xmlns="http://www.w3.org/2000/svg"
>
	<path
		d="M6.448 21.3047C7.86466 21.3047 8.97404 21.1354 9.77612 20.7969C10.5782 20.4635 10.9792 19.9974 10.9792 19.3984C10.9792 18.8464 10.6303 18.4062 9.93237 18.0781C9.23967 17.75 8.27612 17.5599 7.04175 17.5078V14.1562C8.073 14.0833 8.97144 13.8255 9.73706 13.3828C10.5079 12.9401 11.1042 12.349 11.5261 11.6094C11.9532 10.8698 12.1667 10.0156 12.1667 9.04688C12.1667 8.51042 12.0964 7.9349 11.9558 7.32031C11.8152 6.70052 11.6199 6.08854 11.3699 5.48438C11.1199 4.875 10.8308 4.31771 10.5027 3.8125C10.2735 3.45312 9.80217 3.17708 9.08862 2.98438C8.38029 2.79167 7.50269 2.69531 6.45581 2.69531C5.40373 2.69531 4.52091 2.79167 3.80737 2.98438C3.09904 3.17708 2.62769 3.45312 2.39331 3.8125C2.06519 4.31771 1.77612 4.875 1.52612 5.48438C1.28133 6.08854 1.08862 6.70052 0.947998 7.32031C0.812581 7.9349 0.744873 8.51042 0.744873 9.04688C0.744873 10.0208 0.955811 10.8776 1.37769 11.6172C1.80477 12.3568 2.40112 12.9479 3.16675 13.3906C3.93237 13.8281 4.83341 14.0833 5.86987 14.1562V17.5078C4.63029 17.5547 3.66154 17.7422 2.96362 18.0703C2.27091 18.4036 1.92456 18.8464 1.92456 19.3984C1.92456 20.0026 2.323 20.4714 3.11987 20.8047C3.92196 21.138 5.03133 21.3047 6.448 21.3047ZM6.45581 4.625C5.86206 4.625 5.34123 4.60677 4.89331 4.57031C4.44539 4.52865 4.09644 4.47396 3.84644 4.40625C3.60164 4.33854 3.47925 4.26562 3.47925 4.1875C3.47925 4.11458 3.60425 4.04688 3.85425 3.98438C4.10425 3.91667 4.4506 3.86458 4.89331 3.82812C5.34123 3.78646 5.86206 3.76562 6.45581 3.76562C7.04435 3.76562 7.56258 3.78646 8.0105 3.82812C8.45841 3.86458 8.80737 3.91667 9.05737 3.98438C9.30737 4.04688 9.43237 4.11458 9.43237 4.1875C9.43237 4.26562 9.30737 4.33854 9.05737 4.40625C8.80737 4.47396 8.45841 4.52865 8.0105 4.57031C7.56258 4.60677 7.04435 4.625 6.45581 4.625Z"
		fill="currentColor"
	/>
</svg>
