<svg viewBox="0 0 38 24" fill="none" xmlns="http://www.w3.org/2000/svg">
	<path
		opacity="0.07"
		d="M34.1316 0.00012207H3.35726C3.22907 0.00012207 3.10065 0.00012207 2.97268 0.00080154C2.86464 0.0017075 2.75683 0.00283995 2.6488 0.00578432C2.41348 0.012126 2.17611 0.0261684 1.94374 0.0678425C1.71069 0.10777 1.48489 0.182197 1.27378 0.28867C0.849374 0.504533 0.504411 0.849496 0.288548 1.2739C0.181884 1.48509 0.10745 1.71107 0.0677205 1.94431C0.0255934 2.17692 0.0117775 2.41405 0.00543576 2.64915C0.00267543 2.75709 0.00101442 2.86505 0.00045298 2.97303C0 3.10077 0 3.22896 0 3.35738V20.6426C0 20.7711 0 20.899 0.00045298 21.0274C0.00113245 21.1352 0.00249139 21.2433 0.00543576 21.3513C0.0117775 21.586 0.0258198 21.8233 0.0677205 22.0557C0.107368 22.2889 0.181727 22.5149 0.288322 22.7261C0.395493 22.937 0.535383 23.1297 0.702798 23.2969C0.869926 23.4644 1.06257 23.6042 1.27355 23.7113C1.48804 23.8207 1.70773 23.8903 1.94396 23.9326C2.17611 23.9741 2.41348 23.9881 2.6488 23.9945C2.75683 23.9969 2.86464 23.9983 2.97268 23.999C3.10065 23.9999 3.22907 23.9999 3.35726 23.9999H34.1316C34.2595 23.9999 34.388 23.9999 34.5159 23.999C34.6237 23.9985 34.7315 23.9969 34.84 23.9945C35.0749 23.9881 35.3123 23.9741 35.5451 23.9326C35.7782 23.8927 36.004 23.8181 36.2151 23.7113C36.6392 23.4952 36.9841 23.1503 37.2003 22.7261C37.3097 22.5116 37.379 22.2919 37.4209 22.0557C37.463 21.8233 37.4766 21.586 37.4829 21.3513C37.4859 21.2433 37.4875 21.1352 37.4879 21.0274C37.4888 20.899 37.4888 20.7711 37.4888 20.6426V3.35761C37.4888 3.22919 37.4888 3.10099 37.4879 2.9728C37.4875 2.8649 37.4858 2.75701 37.4829 2.64915C37.4766 2.41405 37.463 2.17692 37.4209 1.94431C37.3814 1.71103 37.3071 1.48502 37.2003 1.2739C36.9843 0.849571 36.6394 0.504635 36.2151 0.28867C36.0039 0.182306 35.7781 0.107958 35.5451 0.068069C35.3123 0.0261684 35.0749 0.0123525 34.84 0.00601081C34.732 0.0032674 34.624 0.00160639 34.5159 0.00102803C34.388 0.00012207 34.2595 0.00012207 34.1316 0.00012207Z"
		fill="black"
	/>
	<path
		d="M34.1316 0.800079L34.5103 0.800759C34.6126 0.801438 34.7152 0.802571 34.8183 0.805289C34.9979 0.810271 35.2076 0.82001 35.4033 0.855116C35.5732 0.885693 35.7159 0.932123 35.8527 1.00188C36.1264 1.14107 36.3488 1.36372 36.4877 1.63764C36.557 1.77353 36.6032 1.91532 36.6338 2.08677C36.6687 2.28019 36.6784 2.4906 36.6832 2.67111C36.6861 2.77303 36.6875 2.87495 36.6877 2.97914C36.6889 3.10529 36.6889 3.23122 36.6889 3.3576V20.6429C36.6889 20.7692 36.6889 20.8952 36.688 21.0238C36.6875 21.1257 36.6861 21.2277 36.6834 21.3296C36.6784 21.5099 36.6687 21.7203 36.6334 21.916C36.6077 22.0716 36.5584 22.2225 36.4873 22.3633C36.3481 22.6373 36.1254 22.8599 35.8513 22.999C35.7154 23.0683 35.5732 23.1148 35.4049 23.1451C35.2054 23.1807 34.9866 23.1904 34.8219 23.1949C34.7184 23.1972 34.6153 23.1988 34.5096 23.1993C34.3839 23.2002 34.2575 23.2002 34.1316 23.2002H3.35227C3.2277 23.2002 3.10313 23.2002 2.9763 23.1993C2.87437 23.1988 2.77244 23.1974 2.67054 23.1952C2.50203 23.1906 2.28324 23.1807 2.08529 23.1453C1.92878 23.1193 1.77712 23.0696 1.63548 22.9981C1.49961 22.9291 1.3756 22.8389 1.26811 22.7309C1.16028 22.6232 1.07023 22.4992 1.00131 22.3633C0.930132 22.2217 0.880802 22.0701 0.854994 21.9137C0.819662 21.7182 0.809696 21.5087 0.805167 21.3298C0.802608 21.2275 0.801098 21.1252 0.800637 21.0229L0.799957 20.7224V3.27833L0.80041 2.97823C0.800878 2.87577 0.802388 2.77332 0.80494 2.67089C0.809923 2.49151 0.819662 2.282 0.855221 2.08496C0.88108 1.92887 0.930409 1.7776 1.00153 1.63628C1.07039 1.50084 1.16008 1.37718 1.26879 1.26869C1.37654 1.16077 1.50068 1.07057 1.63661 1.00143C1.77791 0.930442 1.92909 0.881119 2.08506 0.855116C2.28097 0.82001 2.49093 0.810271 2.67076 0.805289C2.77314 0.802571 2.87574 0.801438 2.97743 0.800759L3.35725 0.800079H34.1316Z"
		fill="white"
	/>
	<path
		d="M9.85411 8.10165C10.1721 7.70416 10.3877 7.17033 10.3309 6.62494C9.86566 6.64804 9.29808 6.93183 8.96922 7.32978C8.6741 7.67042 8.41296 8.22645 8.4809 8.74896C9.00319 8.79426 9.52502 8.48804 9.85411 8.10165Z"
		fill="black"
	/>
	<path
		d="M10.325 8.85109C9.56625 8.8058 8.92166 9.28143 8.5595 9.28143C8.19712 9.28143 7.64244 8.87374 7.04247 8.88484C6.26176 8.89617 5.53745 9.33782 5.14109 10.0399C4.32618 11.4442 4.92593 13.5279 5.71864 14.6717C6.10345 15.2379 6.5673 15.8607 7.17837 15.8383C7.75592 15.8157 7.98218 15.4646 8.68384 15.4646C9.38528 15.4646 9.58912 15.8383 10.2004 15.827C10.8341 15.8157 11.2305 15.2608 11.6153 14.6945C12.057 14.049 12.2375 13.4262 12.2488 13.3922C12.2375 13.3809 11.0267 12.9164 11.0153 11.5234C11.004 10.357 11.9661 9.80213 12.0114 9.76793C11.4681 8.96434 10.6192 8.87374 10.3248 8.85109"
		fill="black"
	/>
	<path
		d="M17.8866 7.27271C19.535 7.27271 20.683 8.409 20.683 10.0633C20.683 11.7235 19.5114 12.8656 17.8454 12.8656H16.0203V15.7683H14.7017V7.27271H17.8866ZM16.0203 11.7588H17.5333C18.6816 11.7588 19.3348 11.1407 19.3348 10.0692C19.3348 8.99788 18.6813 8.38545 17.5391 8.38545H16.0203V11.7588Z"
		fill="black"
	/>
	<path
		d="M21.0101 14.0078C21.0101 12.9187 21.8402 12.2947 23.3708 12.2005L25.0133 12.1003V11.6292C25.0133 10.9407 24.5601 10.5638 23.7536 10.5638C23.0881 10.5638 22.6053 10.9052 22.5056 11.429H21.3161C21.3516 10.3283 22.3876 9.52765 23.7889 9.52765C25.296 9.52765 26.2792 10.3165 26.2792 11.5411V15.7681H25.0606V14.7496H25.0312C24.6838 15.4148 23.9182 15.8327 23.0881 15.8327C21.8637 15.8327 21.0101 15.1029 21.0101 14.0078V14.0078ZM25.0133 13.4604V12.9834L23.5475 13.0777C22.723 13.1306 22.2936 13.4366 22.2936 13.9723C22.2936 14.4905 22.7409 14.8262 23.4415 14.8262C24.3361 14.8262 25.0133 14.2549 25.0133 13.4604V13.4604Z"
		fill="black"
	/>
	<path
		d="M27.3996 18.0405V17.0222C27.482 17.0337 27.682 17.0455 27.788 17.0455C28.3708 17.0455 28.7006 16.7986 28.9008 16.1624L29.0185 15.7858L26.7872 9.60419H28.1647L29.7191 14.62H29.7485L31.3027 9.60419H32.6451L30.3313 16.0977C29.8013 17.5873 29.195 18.076 27.9117 18.076C27.8116 18.076 27.4877 18.0643 27.3996 18.0405V18.0405Z"
		fill="black"
	/>
</svg>
