<svg viewBox="0 0 39 24" fill="none" xmlns="http://www.w3.org/2000/svg">
	<path
		opacity="0.07"
		d="M35.4888 0H3.48883C1.78883 0 0.488831 1.3 0.488831 3V21C0.488831 22.7 1.88883 24 3.48883 24H35.4888C37.1888 24 38.4888 22.7 38.4888 21V3C38.4888 1.3 37.0888 0 35.4888 0Z"
		fill="black"
	/>
	<path
		d="M35.4888 1C36.5888 1 37.4888 1.9 37.4888 3V21C37.4888 22.1 36.5888 23 35.4888 23H3.48883C2.38883 23 1.48883 22.1 1.48883 21V3C1.48883 1.9 2.38883 1 3.48883 1H35.4888Z"
		fill="white"
	/>
	<path
		d="M22.0888 4.4C17.8888 3 13.3888 5.2 11.8888 9.4C10.3888 13.6 12.6888 18.1 16.8888 19.6C21.0888 21.1 25.5888 18.8 27.0888 14.6C28.4888 10.4 26.2888 5.9 22.0888 4.4V4.4Z"
		fill="#EDA024"
	/>
	<path
		fill-rule="evenodd"
		clip-rule="evenodd"
		d="M21.2032 8.19719C22.3413 8.60597 23.1611 9.21162 22.9731 10.3738C22.8309 11.2198 22.3781 11.6333 21.7661 11.7792C22.5804 12.2254 22.9724 12.9027 22.5531 14.0908C22.0317 15.5809 20.8645 15.7161 19.3186 15.4274L18.9206 17L18.0224 16.7821L18.4204 15.2095C18.3227 15.184 18.2197 15.1605 18.114 15.1364C17.9729 15.1043 17.827 15.071 17.6826 15.0304L17.2846 16.6031L16.3881 16.3856L16.786 14.8129L15 14.3367L15.4439 13.2247C15.4439 13.2247 16.1181 13.4063 16.1076 13.3949C16.3576 13.4544 16.4799 13.2834 16.53 13.1637L17.1673 10.6426L17.6312 8.85067C17.6512 8.65699 17.5892 8.4036 17.2239 8.30719C17.2488 8.29293 16.5662 8.14764 16.5662 8.14764L16.8322 7.09381L18.673 7.54042L19.0628 6L19.9901 6.225L19.6003 7.76542C19.7806 7.80381 19.9568 7.84842 20.1349 7.89352C20.1933 7.90832 20.2521 7.92319 20.3112 7.9379L20.701 6.39746L21.6033 6.61638L21.2032 8.19719ZM18.7425 10.6742C18.7565 10.6783 18.7715 10.6827 18.7875 10.6874C19.3267 10.846 20.9257 11.3164 21.195 10.269C21.4458 9.27343 20.0606 8.96933 19.4169 8.82803C19.3409 8.81134 19.2752 8.79692 19.2238 8.7839L18.7425 10.6742ZM18.0329 13.7797C18.0046 13.7714 17.9784 13.7639 17.9548 13.757L18.4361 11.8668C18.4929 11.8812 18.5649 11.8978 18.648 11.9169C19.4068 12.0915 21.1016 12.4814 20.8381 13.4825C20.5825 14.5221 18.6972 13.9732 18.0329 13.7797Z"
		fill="white"
	/>
</svg>
