<svg viewBox="0 0 39 24" fill="none" xmlns="http://www.w3.org/2000/svg">
	<path
		d="M35.4888 0H3.48883C1.78883 0 0.488831 1.3 0.488831 3V21C0.488831 22.7 1.88883 24 3.48883 24H35.4888C37.1888 24 38.4888 22.7 38.4888 21V3C38.4888 1.3 37.0888 0 35.4888 0Z"
		fill="black"
		fill-opacity="0.07"
	/>
	<path
		d="M35.4888 1C36.5888 1 37.4888 1.9 37.4888 3V21C37.4888 22.1 36.5888 23 35.4888 23H3.48883C2.38883 23 1.48883 22.1 1.48883 21V3C1.48883 1.9 2.38883 1 3.48883 1H35.4888Z"
		fill="white"
	/>
	<path
		d="M11.9418 3.104H27.0368C27.8648 3.104 28.5468 3.785 28.5468 4.614V19.709C28.5468 20.537 27.8648 21.219 27.0368 21.219H11.9418C11.1138 21.219 10.4318 20.537 10.4318 19.709V4.614C10.4318 3.786 11.1138 3.104 11.9418 3.104Z"
		fill="#FDB913"
	/>
	<path
		d="M20.5458 12.357L20.5448 9.11399L21.3908 8.91299V9.33799C21.3908 9.33799 21.6108 8.77799 22.1198 8.64799C22.1958 8.62408 22.2764 8.61893 22.3548 8.63299V9.46099C22.2023 9.46284 22.0515 9.49408 21.9108 9.55299C21.5988 9.67599 21.4408 9.94599 21.4408 10.358V12.148L20.5458 12.357ZM16.0838 13.412C16.0838 13.412 15.9458 13.205 15.9458 12.475V10.861L15.5098 10.964V10.3L15.9468 10.197V9.46999L16.8468 9.25699V9.98199L17.4828 9.83199V10.496L16.8468 10.646V12.291C16.8468 13.039 17.0448 13.182 17.0448 13.182L16.0838 13.411V13.412V13.412ZM17.5768 11.482C17.5768 10.906 17.6588 10.485 17.8358 10.162C18.0458 9.77899 18.3888 9.52899 18.8898 9.41499C19.8778 9.19099 20.2338 9.77499 20.2198 10.559C20.2148 10.839 20.2158 10.976 20.2158 10.976L18.4758 11.385V11.413C18.4758 11.961 18.5908 12.22 18.9388 12.147C19.2388 12.084 19.3218 11.896 19.3448 11.664C19.3488 11.626 19.3508 11.531 19.3508 11.531L20.1658 11.336C20.1658 11.336 20.1678 11.402 20.1658 11.477C20.1598 11.788 20.0688 12.56 18.9358 12.828C17.8628 13.083 17.5768 12.428 17.5768 11.482M18.9268 10.019C18.6378 10.085 18.4868 10.368 18.4798 10.836L19.3558 10.628L19.3568 10.487C19.3558 10.133 19.2468 9.94699 18.9268 10.019M25.4018 9.58499C25.3678 8.59799 25.6238 7.81399 26.7258 7.56499C27.4288 7.40499 27.6958 7.58699 27.8308 7.76399C27.9608 7.93199 28.0108 8.15999 28.0108 8.47799V8.53599L27.1488 8.74099V8.62099C27.1488 8.24399 27.0438 8.10099 26.7698 8.16899C26.4438 8.25099 26.3118 8.55999 26.3118 9.17599L26.3128 9.46299C26.3128 10.088 26.3988 10.374 26.7738 10.296C27.0998 10.228 27.1448 9.94199 27.1498 9.69099L27.1528 9.52599L28.0128 9.32199L28.0138 9.45599C28.0118 10.276 27.5798 10.793 26.7698 10.982C25.6548 11.243 25.4358 10.598 25.4018 9.58499M22.4208 10.968C22.4208 10.217 22.8608 9.97899 23.5238 9.70499C24.1188 9.45899 24.1318 9.33699 24.1338 9.12199C24.1378 8.94199 24.0538 8.78799 23.7578 8.86399C23.659 8.88409 23.5698 8.93682 23.5045 9.01371C23.4392 9.0906 23.4016 9.18719 23.3978 9.28799C23.3937 9.34322 23.392 9.39861 23.3928 9.45399L22.5578 9.65199C22.552 9.48534 22.5716 9.31877 22.6158 9.15799C22.7488 8.70799 23.1458 8.40699 23.8288 8.24799C24.7178 8.04399 25.0138 8.43299 25.0148 9.03999V10.477C25.0148 11.171 25.1448 11.273 25.1448 11.273L24.3248 11.467C24.2788 11.372 24.2418 11.274 24.2148 11.173C24.1878 11.072 24.0348 11.625 23.4148 11.77C22.7648 11.924 22.4208 11.52 22.4208 10.968ZM24.1288 9.94199C23.9908 10.0392 23.845 10.1248 23.6928 10.198C23.4188 10.331 23.2958 10.496 23.2958 10.75C23.2958 10.97 23.4318 11.114 23.6788 11.053C23.9448 10.986 24.1288 10.738 24.1288 10.394V9.94199ZM11.3768 15.685C11.2839 15.6831 11.1931 15.6567 11.1138 15.6084C11.0344 15.56 10.9692 15.4915 10.9249 15.4098C10.8806 15.3281 10.8587 15.2362 10.8615 15.1433C10.8643 15.0504 10.8917 14.9599 10.9408 14.881L10.9468 14.874L10.9568 14.871L12.1808 14.582V15.512L12.1608 15.516C11.8838 15.583 11.5508 15.659 11.4838 15.674C11.4486 15.6808 11.4127 15.6842 11.3768 15.684M11.3768 16.875C11.2838 16.8739 11.1928 16.848 11.1132 16.7999C11.0335 16.7519 10.9681 16.6835 10.9237 16.6018C10.8793 16.5201 10.8574 16.428 10.8604 16.3351C10.8635 16.2421 10.8912 16.1517 10.9408 16.073L10.9468 16.064L10.9568 16.062L12.1808 15.772V16.702L12.1608 16.708C11.8838 16.774 11.5508 16.851 11.4838 16.865C11.4486 16.8718 11.4127 16.8752 11.3768 16.875ZM11.3768 18.066C11.2841 18.0642 11.1935 18.0379 11.1142 17.9898C11.0349 17.9416 10.9698 17.8733 10.9255 17.7918C10.8812 17.7103 10.8593 17.6186 10.862 17.5258C10.8647 17.4331 10.8919 17.3428 10.9408 17.264L10.9468 17.254L12.1808 16.964V17.894L12.1608 17.898C11.9356 17.9524 11.7099 18.005 11.4838 18.056C11.4486 18.0628 11.4127 18.0662 11.3768 18.066ZM11.2318 14.545V9.34199L12.1808 9.11799V14.321L11.2318 14.545V14.545ZM13.5948 14.103C13.5948 13.782 13.3308 13.518 13.0098 13.518C12.6888 13.518 12.4248 13.782 12.4248 14.103V18.966C12.429 19.3848 12.5972 19.7853 12.8934 20.0814C13.1895 20.3776 13.59 20.5458 14.0088 20.55L15.6658 20.548V16.257C15.6661 16.1309 15.6351 16.0067 15.5758 15.8954C15.5165 15.7841 15.4306 15.6891 15.3258 15.619L13.8498 14.617V16.894C13.8496 16.9273 13.8362 16.9592 13.8126 16.9828C13.7891 17.0064 13.7572 17.0197 13.7238 17.02C13.6906 17.0195 13.6588 17.006 13.6353 16.9825C13.6118 16.959 13.5983 16.9272 13.5978 16.894L13.5948 14.103ZM14.3858 10.475C14.2063 10.5166 14.0379 10.5965 13.892 10.7092C13.7462 10.8219 13.6264 10.9648 13.5408 11.128V10.762L12.6868 10.964L12.6878 13.299C12.8378 13.2397 13.0011 13.223 13.1599 13.2507C13.3188 13.2784 13.4668 13.3495 13.5878 13.456V11.95C13.5878 11.589 13.7678 11.3 14.0238 11.243C14.2168 11.201 14.3778 11.27 14.3778 11.614V13.814L15.2778 13.603V11.276C15.2778 10.712 15.0608 10.317 14.3848 10.476M27.4558 7.14499C27.3089 7.14317 27.1686 7.08401 27.0647 6.98013C26.9608 6.87625 26.9016 6.73589 26.8998 6.58899C26.8998 6.28399 27.1498 6.03299 27.4558 6.03299C27.7618 6.03299 28.0118 6.28299 28.0118 6.58899C28.011 6.73621 27.9522 6.87717 27.8481 6.98127C27.744 7.08537 27.603 7.1442 27.4558 7.14499M27.4558 6.10299C27.1888 6.10299 26.9698 6.32299 26.9698 6.58899C26.9698 6.85499 27.1898 7.07499 27.4558 7.07499C27.7218 7.07499 27.9418 6.85499 27.9418 6.58899C27.9403 6.46058 27.8886 6.33786 27.7978 6.24706C27.707 6.15625 27.5842 6.10455 27.4558 6.10299"
		fill="#231F20"
	/>
	<path
		d="M27.2538 6.25799H27.4938L27.5098 6.25699C27.5958 6.25699 27.6668 6.32799 27.6668 6.41399L27.6658 6.43199C27.6658 6.51999 27.6258 6.58799 27.5528 6.59899V6.60099C27.6198 6.60799 27.6548 6.64499 27.6588 6.74099L27.6628 6.87799C27.6628 6.88972 27.6657 6.90126 27.6713 6.91157C27.6769 6.92188 27.685 6.93062 27.6948 6.93699H27.5718C27.56 6.91921 27.5538 6.89833 27.5538 6.87699C27.5498 6.83599 27.5508 6.79699 27.5498 6.74799C27.5478 6.67399 27.5248 6.64199 27.4498 6.64199H27.3618V6.93699H27.2538V6.25699V6.25799V6.25799ZM27.4488 6.55999H27.4588C27.4854 6.55999 27.5108 6.54945 27.5295 6.5307C27.5483 6.51195 27.5588 6.48651 27.5588 6.45999L27.5578 6.44999C27.5578 6.37799 27.5258 6.33999 27.4538 6.33999H27.3618V6.55999H27.4488V6.55999Z"
		fill="#231F20"
	/>
</svg>
