<svg viewBox="0 0 39 24" fill="none" xmlns="http://www.w3.org/2000/svg">
	<path
		opacity="0.07"
		d="M35.4888 0H3.48883C1.78883 0 0.488831 1.3 0.488831 3V21C0.488831 22.7 1.88883 24 3.48883 24H35.4888C37.1888 24 38.4888 22.7 38.4888 21V3C38.4888 1.3 37.0888 0 35.4888 0Z"
		fill="black"
	/>
	<path
		d="M35.4888 1C36.5888 1 37.4888 1.9 37.4888 3V21C37.4888 22.1 36.5888 23 35.4888 23H3.48883C2.38883 23 1.48883 22.1 1.48883 21V3C1.48883 1.9 2.38883 1 3.48883 1H35.4888Z"
		fill="white"
	/>
	<path
		d="M15.4888 19C19.3548 19 22.4888 15.866 22.4888 12C22.4888 8.13401 19.3548 5 15.4888 5C11.6228 5 8.48883 8.13401 8.48883 12C8.48883 15.866 11.6228 19 15.4888 19Z"
		fill="#EB001B"
	/>
	<path
		d="M23.4888 19C27.3548 19 30.4888 15.866 30.4888 12C30.4888 8.13401 27.3548 5 23.4888 5C19.6228 5 16.4888 8.13401 16.4888 12C16.4888 15.866 19.6228 19 23.4888 19Z"
		fill="#00A2E5"
	/>
	<path
		d="M22.4888 12C22.4888 9.59999 21.2888 7.49999 19.4888 6.29999C17.6888 7.59999 16.4888 9.69999 16.4888 12C16.4888 14.3 17.6888 16.5 19.4888 17.7C21.2888 16.5 22.4888 14.4 22.4888 12Z"
		fill="#7375CF"
	/>
</svg>
