<svg viewBox="0 0 39 24" fill="none" xmlns="http://www.w3.org/2000/svg">
	<path
		opacity="0.07"
		d="M35.4888 0H3.48883C1.78883 0 0.488831 1.3 0.488831 3V21C0.488831 22.7 1.88883 24 3.48883 24H35.4888C37.1888 24 38.4888 22.7 38.4888 21V3C38.4888 1.3 37.0888 0 35.4888 0Z"
		fill="black"
	/>
	<path
		d="M35.4888 1C36.5888 1 37.4888 1.9 37.4888 3V21C37.4888 22.1 36.5888 23 35.4888 23H3.48883C2.38883 23 1.48883 22.1 1.48883 21V3C1.48883 1.9 2.38883 1 3.48883 1H35.4888Z"
		fill="white"
	/>
	<path
		fill-rule="evenodd"
		clip-rule="evenodd"
		d="M24.3818 8C24.3689 8.07952 24.354 8.16077 24.3373 8.24427C23.7631 11.0658 21.7986 12.0405 19.2896 12.0405H18.0121C17.7052 12.0405 17.4466 12.2536 17.3989 12.5433L16.5595 17.6384C16.5285 17.8286 16.6816 18 16.8821 18H19.148C19.4162 18 19.6442 17.8135 19.6864 17.5602L19.7087 17.4501L20.1353 14.8592L20.1627 14.7171C20.2044 14.463 20.4329 14.2763 20.7011 14.2763H21.04C23.2352 14.2763 24.9538 13.4235 25.4561 10.9551C25.6658 9.92404 25.5572 9.06306 25.002 8.45755C24.834 8.27501 24.6256 8.12344 24.3818 8Z"
		fill="#019DDE"
	/>
	<path
		fill-rule="evenodd"
		clip-rule="evenodd"
		d="M23.8286 8.08061C23.7432 8.05684 23.6551 8.03536 23.5648 8.01593C23.4739 7.99699 23.3809 7.98022 23.2851 7.96549C22.9498 7.91385 22.5825 7.88935 22.189 7.88935H18.8674C18.7855 7.88935 18.7078 7.90697 18.6383 7.93883C18.485 8.00905 18.3713 8.14734 18.3437 8.31664L17.637 12.5842L17.6167 12.7086C17.6632 12.4277 17.9149 12.221 18.2136 12.221H19.457C21.8989 12.221 23.811 11.2753 24.3699 8.53975C24.3866 8.45878 24.4006 8.37999 24.4132 8.30288C24.2718 8.23132 24.1187 8.17015 23.9538 8.11802C23.913 8.10511 23.871 8.09268 23.8286 8.08061Z"
		fill="#00164C"
	/>
	<path
		fill-rule="evenodd"
		clip-rule="evenodd"
		d="M18.3437 8.31664C18.3713 8.14734 18.485 8.00905 18.6383 7.93883C18.7078 7.90697 18.7855 7.88935 18.8674 7.88935H22.189C22.5825 7.88935 22.9498 7.91385 23.2851 7.96549C23.3809 7.98022 23.4739 7.99699 23.5648 8.01593C23.6551 8.03536 23.7432 8.05684 23.8286 8.08061C23.871 8.09268 23.913 8.10511 23.9538 8.11802C24.1187 8.17015 24.2718 8.23132 24.4132 8.30288C24.5795 7.29181 24.4123 6.60343 23.839 5.98006C23.2068 5.2937 22.0661 5 20.6063 5H16.3683C16.0701 5 15.8157 5.2067 15.7697 5.4881L14.0045 16.1567C13.9697 16.3677 14.1404 16.5581 14.3637 16.5581H16.98L18.3437 8.31664Z"
		fill="#012F86"
	/>
</svg>
