<svg
	color="rgb(var(--foreground, 0, 0, 0))"
	viewBox="0 0 13 24"
	fill="none"
	xmlns="http://www.w3.org/2000/svg"
>
	<path
		d="M6.85938 19.3789C7.26562 19.3789 7.55469 19.0977 7.55469 18.6914V8.40234L7.5 6.73828L9.83594 9.30078L11.6172 11.0508C11.7422 11.1758 11.9219 11.2383 12.1094 11.2383C12.5 11.2383 12.7812 10.9414 12.7812 10.5586C12.7812 10.3711 12.7188 10.207 12.5703 10.0508L7.38281 4.85547C7.23438 4.69922 7.05469 4.62109 6.85938 4.62109C6.66406 4.62109 6.48438 4.69922 6.33594 4.85547L1.15625 10.0508C1.00781 10.207 0.9375 10.3711 0.9375 10.5586C0.9375 10.9414 1.21875 11.2383 1.60938 11.2383C1.79688 11.2383 1.98438 11.1758 2.10156 11.0508L3.88281 9.30078L6.22656 6.73047L6.16406 8.40234V18.6914C6.16406 19.0977 6.45312 19.3789 6.85938 19.3789Z"
		fill="currentColor"
	/>
</svg>
