<svg
	color="rgb(var(--foreground, 0, 0, 0))"
	viewBox="0 0 15 24"
	fill="none"
	xmlns="http://www.w3.org/2000/svg"
>
	<path
		d="M0 12C0 12.1953 0.0859375 12.375 0.242188 12.5234L5.42969 17.7031C5.58594 17.8516 5.75 17.9219 5.9375 17.9219C6.32031 17.9219 6.625 17.6406 6.625 17.25C6.625 17.0625 6.55469 16.875 6.42969 16.7578L4.67969 14.9766L2.04688 12.5781L3.9375 12.6953H13.8203C14.2266 12.6953 14.5078 12.4062 14.5078 12C14.5078 11.5938 14.2266 11.3047 13.8203 11.3047H3.9375L2.05469 11.4219L4.67969 9.02344L6.42969 7.24219C6.55469 7.11719 6.625 6.9375 6.625 6.75C6.625 6.35938 6.32031 6.07812 5.9375 6.07812C5.75 6.07812 5.58594 6.14062 5.41406 6.3125L0.242188 11.4766C0.0859375 11.625 0 11.8047 0 12Z"
		fill="currentColor"
	/>
</svg>
