<svg
	color="rgb(var(--foreground, 0, 0, 0))"
	viewBox="0 0 13 24"
	fill="none"
	xmlns="http://www.w3.org/2000/svg"
>
	<path
		d="M6.70312 4.62109C6.29688 4.62109 6.00781 4.90234 6.00781 5.30859V15.5977L6.07031 17.2695L3.72656 14.6992L1.94531 12.9492C1.82812 12.8242 1.64062 12.7617 1.45312 12.7617C1.0625 12.7617 0.78125 13.0586 0.78125 13.4414C0.78125 13.6289 0.851562 13.793 1 13.9492L6.17969 19.1445C6.32812 19.3008 6.50781 19.3789 6.70312 19.3789C6.89844 19.3789 7.07812 19.3008 7.22656 19.1445L12.4141 13.9492C12.5625 13.793 12.625 13.6289 12.625 13.4414C12.625 13.0586 12.3438 12.7617 11.9531 12.7617C11.7656 12.7617 11.5859 12.8242 11.4609 12.9492L9.67969 14.6992L7.34375 17.2617L7.39844 15.5977V5.30859C7.39844 4.90234 7.10938 4.62109 6.70312 4.62109Z"
		fill="currentColor"
	/>
</svg>
