<svg
	color="rgb(var(--foreground, 0, 0, 0))"
	viewBox="0 0 14 24"
	fill="none"
	xmlns="http://www.w3.org/2000/svg"
>
	<path
		d="M5.60938 18.6758C5.94271 18.6758 6.20573 18.5299 6.39844 18.2383L13.7812 6.61328C13.849 6.50391 13.8984 6.40495 13.9297 6.31641C13.9609 6.22266 13.9766 6.12891 13.9766 6.03516C13.9766 5.82161 13.9115 5.64974 13.7812 5.51953C13.651 5.38932 13.4792 5.32422 13.2656 5.32422C13.1094 5.32422 12.9818 5.35547 12.8828 5.41797C12.7839 5.47526 12.6875 5.57682 12.5938 5.72266L5.57812 16.9023L1.9375 12.1367C1.75 11.8815 1.52604 11.7539 1.26562 11.7539C1.04688 11.7539 0.867188 11.8242 0.726562 11.9648C0.585938 12.1003 0.515625 12.2747 0.515625 12.4883C0.515625 12.582 0.533854 12.6784 0.570312 12.7773C0.606771 12.8711 0.664062 12.9648 0.742188 13.0586L4.79688 18.2227C5.03125 18.5247 5.30208 18.6758 5.60938 18.6758Z"
		fill="currentColor"
	/>
</svg>
