<svg
	color="rgb(var(--foreground, 0, 0, 0))"
	viewBox="0 0 8 24"
	fill="none"
	xmlns="http://www.w3.org/2000/svg"
>
	<path
		d="M0 12C0 12.099 0.0208333 12.1901 0.0625 12.2734C0.0989583 12.362 0.153646 12.4427 0.226562 12.5156L6.41406 18.5781C6.55469 18.7135 6.72656 18.7812 6.92969 18.7812C7.0599 18.7812 7.17969 18.75 7.28906 18.6875C7.39844 18.625 7.48438 18.5391 7.54688 18.4297C7.60938 18.3255 7.64062 18.2057 7.64062 18.0703C7.64062 17.8776 7.57292 17.7083 7.4375 17.5625L1.75 12L7.4375 6.4375C7.57292 6.29167 7.64062 6.1224 7.64062 5.92969C7.64062 5.79427 7.60938 5.67448 7.54688 5.57031C7.48438 5.46094 7.39844 5.375 7.28906 5.3125C7.17969 5.25 7.0599 5.21875 6.92969 5.21875C6.72656 5.21875 6.55469 5.28906 6.41406 5.42969L0.226562 11.4844C0.153646 11.5573 0.0989583 11.6354 0.0625 11.7188C0.0208333 11.8073 0 11.901 0 12Z"
		fill="currentColor"
	/>
</svg>
