<svg
	color="rgb(var(--foreground, 0, 0, 0))"
	viewBox="0 0 19 24"
	fill="none"
	xmlns="http://www.w3.org/2000/svg"
>
	<path
		d="M9.5 19.3906C10.5156 19.3906 11.4688 19.1979 12.3594 18.8125C13.25 18.4323 14.0339 17.9036 14.7109 17.2266C15.388 16.5443 15.9167 15.7578 16.2969 14.8672C16.6823 13.9714 16.875 13.0156 16.875 12C16.875 10.9844 16.6823 10.0312 16.2969 9.14062C15.9167 8.24479 15.388 7.45833 14.7109 6.78125C14.0339 6.09896 13.25 5.56771 12.3594 5.1875C11.4688 4.80208 10.5156 4.60938 9.5 4.60938C8.48438 4.60938 7.53125 4.80208 6.64062 5.1875C5.75 5.56771 4.96615 6.09896 4.28906 6.78125C3.61198 7.45833 3.08073 8.24479 2.69531 9.14062C2.3151 10.0312 2.125 10.9844 2.125 12C2.125 13.0156 2.3151 13.9714 2.69531 14.8672C3.08073 15.7578 3.61198 16.5443 4.28906 17.2266C4.96615 17.9036 5.75 18.4323 6.64062 18.8125C7.53125 19.1979 8.48438 19.3906 9.5 19.3906ZM9.5 18.1172C8.65104 18.1172 7.85938 17.9609 7.125 17.6484C6.39583 17.3359 5.75521 16.901 5.20312 16.3438C4.65104 15.7865 4.21875 15.138 3.90625 14.3984C3.59375 13.6536 3.4375 12.8542 3.4375 12C3.4375 11.1458 3.59375 10.349 3.90625 9.60938C4.21875 8.86979 4.65104 8.22135 5.20312 7.66406C5.75521 7.10156 6.39583 6.66406 7.125 6.35156C7.85938 6.03906 8.65104 5.88281 9.5 5.88281C10.349 5.88281 11.138 6.03906 11.8672 6.35156C12.6016 6.66406 13.2448 7.10156 13.7969 7.66406C14.349 8.22135 14.7812 8.86979 15.0938 9.60938C15.4062 10.349 15.5625 11.1458 15.5625 12C15.5625 12.8542 15.4062 13.6536 15.0938 14.3984C14.7812 15.138 14.349 15.7865 13.7969 16.3438C13.2448 16.901 12.6016 17.3359 11.8672 17.6484C11.138 17.9609 10.349 18.1172 9.5 18.1172ZM9.5 21.5C9.65625 21.5 9.78646 21.4453 9.89062 21.3359C10 21.2266 10.0547 21.0938 10.0547 20.9375V15.6484C10.0547 15.4922 10 15.362 9.89062 15.2578C9.78646 15.1484 9.65625 15.0938 9.5 15.0938C9.34375 15.0938 9.21094 15.1484 9.10156 15.2578C8.99219 15.362 8.9375 15.4922 8.9375 15.6484V20.9375C8.9375 21.0938 8.99219 21.2266 9.10156 21.3359C9.21094 21.4453 9.34375 21.5 9.5 21.5ZM0.5625 12.5625H5.85156C6.00781 12.5625 6.14062 12.5078 6.25 12.3984C6.35938 12.2891 6.41406 12.1562 6.41406 12C6.41406 11.8438 6.35938 11.7135 6.25 11.6094C6.14062 11.5 6.00781 11.4453 5.85156 11.4453H0.5625C0.40625 11.4453 0.273438 11.5 0.164062 11.6094C0.0546875 11.7135 0 11.8438 0 12C0 12.1562 0.0546875 12.2891 0.164062 12.3984C0.273438 12.5078 0.40625 12.5625 0.5625 12.5625ZM9.5 8.91406C9.65625 8.91406 9.78646 8.85938 9.89062 8.75C10 8.64062 10.0547 8.50781 10.0547 8.35156V3.0625C10.0547 2.90625 10 2.77344 9.89062 2.66406C9.78646 2.55469 9.65625 2.5 9.5 2.5C9.34375 2.5 9.21094 2.55469 9.10156 2.66406C8.99219 2.77344 8.9375 2.90625 8.9375 3.0625V8.35156C8.9375 8.50781 8.99219 8.64062 9.10156 8.75C9.21094 8.85938 9.34375 8.91406 9.5 8.91406ZM13.1484 12.5625H18.4375C18.5938 12.5625 18.7266 12.5078 18.8359 12.3984C18.9453 12.2891 19 12.1562 19 12C19 11.8438 18.9453 11.7135 18.8359 11.6094C18.7266 11.5 18.5938 11.4453 18.4375 11.4453H13.1484C12.9922 11.4453 12.8594 11.5 12.75 11.6094C12.6406 11.7135 12.5859 11.8438 12.5859 12C12.5859 12.1562 12.6406 12.2891 12.75 12.3984C12.8594 12.5078 12.9922 12.5625 13.1484 12.5625Z"
		fill="currentColor"
	/>
</svg>
