<svg
	color="rgb(var(--foreground, 0, 0, 0))"
	viewBox="0 0 16 24"
	fill="none"
	xmlns="http://www.w3.org/2000/svg"
>
	<path
		d="M1.35938 10.8672C1.56771 10.8672 1.73698 10.7995 1.86719 10.6641C2.0026 10.5234 2.07031 10.349 2.07031 10.1406V9.48438L1.91406 6.75781L3.96875 8.92188L6.375 11.3438C6.50521 11.4792 6.66927 11.5469 6.86719 11.5469C7.09115 11.5469 7.27604 11.4818 7.42188 11.3516C7.56771 11.2161 7.64062 11.0391 7.64062 10.8203C7.64062 10.7161 7.6224 10.6172 7.58594 10.5234C7.54948 10.4297 7.4974 10.349 7.42969 10.2812L5.01562 7.875L2.85156 5.82031L5.58594 5.97656H6.23438C6.44271 5.97656 6.61719 5.91146 6.75781 5.78125C6.89844 5.64583 6.96875 5.47396 6.96875 5.26562C6.96875 5.05729 6.89844 4.88542 6.75781 4.75C6.6224 4.61458 6.44792 4.54688 6.23438 4.54688H1.89844C1.5026 4.54688 1.19271 4.65885 0.96875 4.88281C0.75 5.10156 0.640625 5.40885 0.640625 5.80469V10.1406C0.640625 10.3438 0.708333 10.5156 0.84375 10.6562C0.979167 10.7969 1.15104 10.8672 1.35938 10.8672ZM9.92969 19.4531H14.2656C14.6667 19.4531 14.9766 19.3411 15.1953 19.1172C15.4193 18.8984 15.5312 18.5911 15.5312 18.1953V13.8594C15.5312 13.6562 15.4609 13.4844 15.3203 13.3438C15.1849 13.2031 15.013 13.1328 14.8047 13.1328C14.6016 13.1328 14.4323 13.2031 14.2969 13.3438C14.1615 13.4792 14.0938 13.651 14.0938 13.8594V14.5156L14.2578 17.2422L12.1953 15.0781L9.79688 12.6562C9.66667 12.5208 9.5 12.4531 9.29688 12.4531C9.07812 12.4531 8.89323 12.5208 8.74219 12.6562C8.59635 12.7865 8.52344 12.9609 8.52344 13.1797C8.52344 13.2839 8.54167 13.3828 8.57812 13.4766C8.61458 13.5703 8.66927 13.651 8.74219 13.7188L11.1484 16.125L13.3203 18.1797L10.5859 18.0234H9.92969C9.72135 18.0234 9.54688 18.0885 9.40625 18.2188C9.26562 18.3542 9.19531 18.526 9.19531 18.7344C9.19531 18.9427 9.26562 19.1146 9.40625 19.25C9.54688 19.3854 9.72135 19.4531 9.92969 19.4531Z"
		fill="currentColor"
	/>
</svg>
