<svg
	color="rgb(var(--foreground, 0, 0, 0))"
	viewBox="0 0 16 24"
	fill="none"
	xmlns="http://www.w3.org/2000/svg"
>
	<path
		d="M1.9375 11.2109H6.27344C6.67448 11.2109 6.98438 11.1016 7.20312 10.8828C7.42188 10.6589 7.53125 10.3464 7.53125 9.94531V5.61719C7.53125 5.41406 7.46354 5.24219 7.32812 5.10156C7.19271 4.96094 7.02083 4.89062 6.8125 4.89062C6.60417 4.89062 6.43229 4.96094 6.29688 5.10156C6.16667 5.23698 6.10156 5.40885 6.10156 5.61719V6.27344L6.26562 9L4.20312 6.83594L1.80469 4.41406C1.66927 4.27344 1.5026 4.20312 1.30469 4.20312C1.08073 4.20312 0.895833 4.27083 0.75 4.40625C0.604167 4.54167 0.53125 4.71875 0.53125 4.9375C0.53125 5.04167 0.549479 5.14062 0.585938 5.23438C0.622396 5.32292 0.677083 5.40365 0.75 5.47656L3.15625 7.88281L5.32031 9.9375L2.59375 9.78125H1.9375C1.72917 9.78125 1.55469 9.84896 1.41406 9.98438C1.27344 10.1146 1.20312 10.2839 1.20312 10.4922C1.20312 10.7005 1.27344 10.8724 1.41406 11.0078C1.55469 11.1432 1.72917 11.2109 1.9375 11.2109ZM9.42969 19.1406C9.63281 19.1406 9.80208 19.0703 9.9375 18.9297C10.0729 18.7943 10.1406 18.6224 10.1406 18.4141V17.6719L9.97656 14.9531L12.0391 17.1172L14.4922 19.5859C14.6224 19.7266 14.7891 19.7969 14.9922 19.7969C15.2109 19.7969 15.3932 19.7292 15.5391 19.5938C15.6849 19.4583 15.7578 19.2812 15.7578 19.0625C15.7578 18.9583 15.7396 18.8594 15.7031 18.7656C15.6667 18.6771 15.6146 18.5964 15.5469 18.5234L13.0859 16.0625L10.9141 14.0078L13.6484 14.1641H14.3906C14.599 14.1641 14.7734 14.099 14.9141 13.9688C15.0547 13.8385 15.125 13.6693 15.125 13.4609C15.125 13.2474 15.0547 13.0755 14.9141 12.9453C14.7734 12.8099 14.599 12.7422 14.3906 12.7422H9.96875C9.56771 12.7422 9.25781 12.8516 9.03906 13.0703C8.82031 13.2891 8.71094 13.599 8.71094 14V18.4141C8.71094 18.6224 8.77865 18.7943 8.91406 18.9297C9.04948 19.0703 9.22135 19.1406 9.42969 19.1406Z"
		fill="currentColor"
	/>
</svg>
