<svg
	color="rgb(var(--foreground, 0, 0, 0))"
	viewBox="0 0 16 24"
	fill="none"
	xmlns="http://www.w3.org/2000/svg"
>
	<path
		d="M3.3324 19.1914H12.809C14.4496 19.1914 15.2621 18.3789 15.2621 16.7695V7.23047C15.2621 5.62109 14.4496 4.80859 12.809 4.80859H3.3324C1.69958 4.80859 0.879272 5.61328 0.879272 7.23047V16.7695C0.879272 18.3867 1.69958 19.1914 3.3324 19.1914ZM3.34802 17.9336C2.56677 17.9336 2.13708 17.5195 2.13708 16.707V7.29297C2.13708 6.48047 2.56677 6.06641 3.34802 6.06641H12.7933C13.5668 6.06641 14.0043 6.48047 14.0043 7.29297V16.707C14.0043 17.5195 13.5668 17.9336 12.7933 17.9336H3.34802ZM5.0199 12.6523H11.1449C11.5824 12.6523 11.8871 12.418 11.8871 12.0039C11.8871 11.582 11.598 11.3398 11.1449 11.3398H5.0199C4.55896 11.3398 4.2699 11.582 4.2699 12.0039C4.2699 12.418 4.5824 12.6523 5.0199 12.6523Z"
		fill="currentColor"
	/>
</svg>
