<svg
	color="rgb(var(--foreground, 0, 0, 0))"
	viewBox="0 0 17 24"
	fill="none"
	xmlns="http://www.w3.org/2000/svg"
>
	<path
		d="M12.9065 17.6328L13.7346 16.8047L3.32056 6.39062L2.49243 7.21875L12.9065 17.6328ZM8.10962 19.9688C9.19816 19.9688 10.2216 19.7604 11.1799 19.3438C12.1435 18.9271 12.9924 18.3516 13.7268 17.6172C14.4612 16.8828 15.0367 16.0365 15.4534 15.0781C15.87 14.1146 16.0784 13.0885 16.0784 12C16.0784 10.9115 15.87 9.88802 15.4534 8.92969C15.0367 7.96615 14.4612 7.11719 13.7268 6.38281C12.9924 5.64844 12.1435 5.07292 11.1799 4.65625C10.2164 4.23958 9.19035 4.03125 8.10181 4.03125C7.01327 4.03125 5.98722 4.23958 5.02368 4.65625C4.06535 5.07292 3.21899 5.64844 2.48462 6.38281C1.75545 7.11719 1.18254 7.96615 0.765869 8.92969C0.349202 9.88802 0.140869 10.9115 0.140869 12C0.140869 13.0885 0.349202 14.1146 0.765869 15.0781C1.18254 16.0365 1.75806 16.8828 2.49243 17.6172C3.22681 18.3516 4.07316 18.9271 5.03149 19.3438C5.99504 19.7604 7.02108 19.9688 8.10962 19.9688ZM8.10962 18.6406C7.18774 18.6406 6.32577 18.4688 5.52368 18.125C4.7216 17.7812 4.01587 17.3073 3.40649 16.7031C2.80233 16.0938 2.32837 15.388 1.98462 14.5859C1.64608 13.7839 1.47681 12.9219 1.47681 12C1.47681 11.0781 1.64608 10.2161 1.98462 9.41406C2.32837 8.61198 2.80233 7.90625 3.40649 7.29688C4.01066 6.6875 4.71379 6.21354 5.51587 5.875C6.31795 5.53125 7.17993 5.35938 8.10181 5.35938C9.02368 5.35938 9.88566 5.53125 10.6877 5.875C11.495 6.21354 12.2008 6.6875 12.8049 7.29688C13.4143 7.90625 13.8909 8.61198 14.2346 9.41406C14.5784 10.2161 14.7502 11.0781 14.7502 12C14.7502 12.9219 14.5784 13.7839 14.2346 14.5859C13.8961 15.388 13.4221 16.0938 12.8127 16.7031C12.2034 17.3073 11.4976 17.7812 10.6956 18.125C9.89347 18.4688 9.03149 18.6406 8.10962 18.6406Z"
		fill="currentColor"
	/>
</svg>
