<svg
	color="rgb(var(--foreground, 0, 0, 0))"
	viewBox="0 0 15 24"
	fill="none"
	xmlns="http://www.w3.org/2000/svg"
>
	<path
		d="M2.56677 19.1914H12.0433C13.684 19.1914 14.4965 18.3789 14.4965 16.7695V7.23047C14.4965 5.62109 13.684 4.80859 12.0433 4.80859H2.56677C0.93396 4.80859 0.113647 5.61328 0.113647 7.23047V16.7695C0.113647 18.3867 0.93396 19.1914 2.56677 19.1914ZM2.5824 17.9336C1.80115 17.9336 1.37146 17.5195 1.37146 16.707V7.29297C1.37146 6.48047 1.80115 6.06641 2.5824 6.06641H12.0277C12.8011 6.06641 13.2386 6.48047 13.2386 7.29297V16.707C13.2386 17.5195 12.8011 17.9336 12.0277 17.9336H2.5824ZM3.69177 11.9883C3.69177 12.3711 3.9574 12.6289 4.35583 12.6289H6.65271V14.9336C6.65271 15.3242 6.91833 15.5977 7.30115 15.5977C7.69177 15.5977 7.96521 15.332 7.96521 14.9336V12.6289H10.2699C10.6605 12.6289 10.934 12.3711 10.934 11.9883C10.934 11.5977 10.6605 11.3242 10.2699 11.3242H7.96521V9.02734C7.96521 8.62891 7.69177 8.35547 7.30115 8.35547C6.91833 8.35547 6.65271 8.62891 6.65271 9.02734V11.3242H4.35583C3.9574 11.3242 3.69177 11.5977 3.69177 11.9883Z"
		fill="currentColor"
	/>
</svg>
