<svg
	color="rgb(var(--foreground, 0, 0, 0))"
	viewBox="0 0 15 24"
	fill="none"
	xmlns="http://www.w3.org/2000/svg"
>
	<path
		d="M2.94958 19.1914H12.4261C14.0668 19.1914 14.8793 18.3789 14.8793 16.7695V7.23047C14.8793 5.62109 14.0668 4.80859 12.4261 4.80859H2.94958C1.31677 4.80859 0.49646 5.61328 0.49646 7.23047V16.7695C0.49646 18.3867 1.31677 19.1914 2.94958 19.1914ZM3.87927 11.9961C3.87927 11.5898 4.16052 11.3086 4.56677 11.3086H7.01208V8.86328C7.01208 8.45703 7.28552 8.16797 7.68396 8.16797C8.09021 8.16797 8.37146 8.45703 8.37146 8.86328V11.3086H10.8246C11.223 11.3086 11.5121 11.5898 11.5121 11.9961C11.5121 12.3945 11.223 12.6602 10.8246 12.6602H8.37146V15.1133C8.37146 15.5195 8.09021 15.8008 7.68396 15.8008C7.28552 15.8008 7.01208 15.5117 7.01208 15.1133V12.6602H4.56677C4.16052 12.6602 3.87927 12.3945 3.87927 11.9961Z"
		fill="currentColor"
	/>
</svg>
