<svg
	color="rgb(var(--foreground, 0, 0, 0))"
	viewBox="0 0 16 24"
	fill="none"
	xmlns="http://www.w3.org/2000/svg"
>
	<path
		d="M1.72705 6.16895C2.65674 6.16895 3.42236 5.40332 3.42236 4.4502C3.42236 3.5127 2.65674 2.75488 1.72705 2.75488C0.773926 2.75488 0.00830078 3.5127 0.00830078 4.4502C0.00830078 5.40332 0.773926 6.16895 1.72705 6.16895ZM0.828613 12.5283H4.06299L4.2583 12.7236C4.64893 13.1143 5.18018 13.3096 5.6958 13.3096C6.12549 13.3096 6.53955 13.1768 6.90674 12.9033L10.813 9.98145L14.6958 7.64551C15.0708 7.42676 15.1958 6.94238 14.9849 6.56738C14.7505 6.19238 14.2661 6.0752 13.8911 6.30176L6.49268 10.7314L4.43799 8.66895C4.3833 8.62207 4.41455 8.55176 4.48486 8.55176H6.36768C6.80518 8.55176 7.16455 8.2002 7.16455 7.7627V5.41895C7.62549 5.2627 7.96143 4.8252 7.96143 4.30957C7.96143 3.64551 7.42236 3.12207 6.76611 3.12207C6.11768 3.12207 5.58643 3.6377 5.57861 4.30176V6.98145H1.60986C0.750488 6.98145 0.0395508 7.68457 0.0395508 8.55176V11.7393C0.0395508 12.1611 0.383301 12.5283 0.828613 12.5283ZM1.55518 10.9814V10.2314C1.55518 10.1221 1.68018 10.0674 1.7583 10.1455L2.59424 10.9814H1.55518ZM5.81299 21.2314C6.21924 21.3096 6.67236 21.0439 6.7583 20.6064L7.54736 16.6455C7.5708 16.5439 7.5708 16.4658 7.55518 16.3564L7.40674 13.4736C6.86768 13.8799 6.27393 14.0596 5.6958 14.0596C5.62549 14.0596 5.54736 14.0596 5.46924 14.0518L5.95361 16.4893L5.1958 20.2939C5.10986 20.7236 5.39111 21.1455 5.81299 21.2314Z"
		fill="currentColor"
	/>
</svg>
