<svg
	color="rgb(var(--foreground, 0, 0, 0))"
	viewBox="0 0 19 24"
	fill="none"
	xmlns="http://www.w3.org/2000/svg"
>
	<path
		d="M7.08008 5.47656C7.08008 5.71875 7.27539 5.91406 7.51758 5.91406C8.2207 5.91406 8.65039 6.03906 9.0957 6.53125C9.26758 6.71875 9.43945 6.79688 9.61133 6.79688C9.79102 6.79688 9.96289 6.71875 10.1348 6.53125C10.5801 6.03906 11.0098 5.91406 11.7129 5.91406C11.9551 5.91406 12.1504 5.71875 12.1504 5.47656C12.1504 5.23438 11.9551 5.03906 11.7051 5.03906C10.8379 5.03906 10.2598 5.25 9.61133 5.83594C8.9707 5.25 8.39258 5.03906 7.51758 5.03906C7.27539 5.03906 7.08008 5.23438 7.08008 5.47656ZM9.61133 14.7422C10.9941 14.7422 11.3848 13.8906 12.6113 13.5781L7.19727 7.94531C6.8457 7.58594 6.33008 7.53125 5.9082 7.83594L2.8457 10.0156C2.31445 10.3828 2.36914 10.9453 2.67383 11.2734C2.92383 11.5547 3.38477 11.6719 3.82227 11.3594L6.30664 9.60156L7.71289 11.0469C7.86914 11.2109 7.91602 11.4609 7.67383 11.625L4.7832 13.5234C5.11914 13.4922 5.47852 13.4766 5.89258 13.4922C7.66602 13.5703 7.99414 14.7422 9.61133 14.7422ZM12.7285 11.5781C13.6738 11.5781 14.4395 10.8125 14.4395 9.86719C14.4395 8.92969 13.6738 8.16406 12.7285 8.16406C11.7832 8.16406 11.0254 8.92969 11.0254 9.86719C11.0254 10.8125 11.7832 11.5781 12.7285 11.5781ZM0.806641 16.8047H1.5957C3.68164 16.8047 4.1582 15.5234 5.60352 15.5234C7.04883 15.5234 7.52539 16.8047 9.61133 16.8047C11.7051 16.8047 12.1738 15.5234 13.627 15.5234C15.0723 15.5234 15.541 16.8047 17.6348 16.8047H18.4238C18.666 16.8047 18.8613 16.6172 18.8613 16.375C18.8613 16.1328 18.666 15.9375 18.4238 15.9375H17.6348C16.1348 15.9375 15.627 14.6563 13.627 14.6563C11.6191 14.6563 11.1113 15.9375 9.61133 15.9375C8.11133 15.9375 7.61133 14.6563 5.60352 14.6563C3.60352 14.6563 3.0957 15.9375 1.5957 15.9375H0.806641C0.556641 15.9375 0.369141 16.1328 0.369141 16.375C0.369141 16.6172 0.556641 16.8047 0.806641 16.8047ZM0.806641 18.9609H1.5957C3.68164 18.9609 4.1582 17.6719 5.60352 17.6719C7.04883 17.6719 7.52539 18.9609 9.61133 18.9609C11.7051 18.9609 12.1738 17.6719 13.627 17.6719C15.0723 17.6719 15.541 18.9609 17.6348 18.9609H18.4238C18.666 18.9609 18.8613 18.7656 18.8613 18.5234C18.8613 18.2813 18.666 18.0859 18.4238 18.0859H17.6348C16.1348 18.0859 15.627 16.8047 13.627 16.8047C11.6191 16.8047 11.1113 18.0859 9.61133 18.0859C8.11133 18.0859 7.61133 16.8047 5.60352 16.8047C3.60352 16.8047 3.0957 18.0859 1.5957 18.0859H0.806641C0.556641 18.0859 0.369141 18.2813 0.369141 18.5234C0.369141 18.7656 0.556641 18.9609 0.806641 18.9609Z"
		fill="currentColor"
	/>
</svg>
