<svg
	color="rgb(var(--foreground, 0, 0, 0))"
	viewBox="0 0 16 24"
	fill="none"
	xmlns="http://www.w3.org/2000/svg"
>
	<path
		d="M6.71204 15.515L9.61047 17.6322L7.92297 20.9994C7.72766 21.3822 7.88391 21.8744 8.28235 22.0775C8.64172 22.2494 9.1261 22.1478 9.33704 21.7181L11.3136 17.765C11.4855 17.4135 11.423 17.0619 11.1495 16.7963L9.65735 15.3978H12.1964C12.6573 15.3978 12.9933 15.0385 12.9933 14.601V11.4213C12.9933 10.1166 11.9386 9.04626 10.6183 9.04626H7.8761V8.39001L8.19641 7.26501C8.29016 6.92908 8.15735 6.5697 7.8761 6.39001V5.20251C8.3136 4.62439 8.76672 3.77283 8.76672 3.17908C8.76672 2.39001 8.21985 1.84314 7.44641 1.84314C6.65735 1.84314 6.10266 2.39001 6.10266 3.17908C6.10266 3.82751 6.54797 4.67908 6.99329 5.20251V6.39783C6.84485 6.49939 6.73547 6.64783 6.68079 6.82751L5.89172 9.60876C5.74329 10.14 6.05579 10.6244 6.61829 10.6244H6.99329V11.9603C5.61047 12.6556 5.4386 14.5775 6.71204 15.515ZM13.7042 9.39001C14.6417 9.39001 15.3995 8.62439 15.3995 7.67126C15.3995 6.73376 14.6417 5.97595 13.7042 5.97595C12.7511 5.97595 11.9855 6.73376 11.9855 7.67126C11.9855 8.62439 12.7511 9.39001 13.7042 9.39001ZM9.46985 10.6244C9.5011 10.6244 9.52454 10.6713 9.49329 10.6947L7.8761 11.5072V10.6244H9.46985ZM9.71985 13.8431L11.298 13.0931C11.3683 13.0619 11.4542 13.1088 11.4542 13.1869V13.8431H9.71985ZM5.55579 15.3744L4.8761 17.3744H0.899536C0.446411 17.3744 0.0870361 17.7338 0.0870361 18.1713C0.0870361 18.6244 0.446411 18.9838 0.899536 18.9838H5.44641C5.74329 18.9838 6.04016 18.8119 6.17297 18.5228L7.07922 16.7103L6.26672 16.1244C5.97766 15.9056 5.73547 15.6478 5.55579 15.3744Z"
		fill="currentColor"
	/>
</svg>
