<svg
	color="rgb(var(--foreground, 0, 0, 0))"
	viewBox="0 0 24 24"
	fill="none"
	xmlns="http://www.w3.org/2000/svg"
>
	<path
		d="M3.51957 11.3477C4.46488 11.3477 5.2227 10.5898 5.2227 9.64453C5.2227 8.70703 4.46488 7.94141 3.51957 7.94141C2.58207 7.94141 1.82426 8.70703 1.82426 9.64453C1.82426 10.5898 2.58207 11.3477 3.51957 11.3477ZM8.62895 16.0586H10.8633C12.7149 16.0586 13.2383 15.0039 13.0821 13.793L12.5664 9.69141H16.5743C17.0274 9.69141 17.3789 9.33203 17.3789 8.87891C17.3789 8.43359 17.0274 8.08203 16.5743 8.08203H11.5743C11.1133 8.08203 10.7618 8.40234 10.7618 8.94922V13.0898H9.42582C8.71488 13.0898 8.11332 12.832 7.76957 12.2852C7.69145 12.1602 7.69145 11.9727 7.83988 11.8008L9.8477 9.41797C10.3164 8.87109 9.94145 8.08203 9.26176 8.08203H6.44145C5.99613 8.08203 5.63676 8.43359 5.63676 8.87891C5.63676 9.33984 5.98051 9.69141 6.44145 9.69141H7.58207L6.4102 11.0742C5.57426 12.0664 4.83207 12.7539 3.58207 13.3086L2.36332 13.8555L2.74613 12.5039C2.87113 12.0586 2.58207 11.6211 2.16801 11.5273C1.73051 11.418 1.29301 11.6836 1.18363 12.0977L0.425821 15.0586C0.214884 15.8555 0.918009 16.2617 1.61332 15.957L4.13676 14.8398C4.39457 14.7383 4.54301 14.7461 4.73832 14.9023C5.55082 15.5898 6.8477 16.0586 8.62895 16.0586ZM17.2539 14.2461H23.0586C23.5039 14.2461 23.8633 13.8867 23.8633 13.4336C23.8633 12.9883 23.5039 12.6289 23.0586 12.6289H17.1758C17.1133 12.6289 17.0352 12.6289 16.9493 12.6367L13.7305 12.9023L13.8399 13.6836C13.8946 14.1445 13.8868 14.5664 13.793 14.9414L17.2539 14.2461Z"
		fill="currentColor"
	/>
</svg>
