<svg
	color="rgb(var(--foreground, 0, 0, 0))"
	viewBox="0 0 22 24"
	fill="none"
	xmlns="http://www.w3.org/2000/svg"
>
	<path
		d="M11.2235 6.55078C12.1688 6.55078 12.9266 5.79297 12.9266 4.84765C12.9266 3.90234 12.1688 3.13672 11.2235 3.13672C10.2782 3.13672 9.51258 3.90234 9.51258 4.84765C9.51258 5.79297 10.2782 6.55078 11.2235 6.55078ZM17.9657 8.96484C18.4032 8.96484 18.7626 8.61328 18.7626 8.16015C18.7626 7.72265 18.4032 7.37109 17.9657 7.37109H9.57508C8.80946 7.37109 8.1454 7.77734 7.79383 8.47265L4.25477 15.5586L2.25477 13.5586C1.94227 13.2461 1.43446 13.2539 1.12977 13.5586C0.825083 13.8711 0.832895 14.3711 1.12977 14.6836L3.95008 17.5117C4.28602 17.8398 4.80946 17.793 5.0829 17.3945L7.3954 14.0195C7.5204 13.8242 7.79383 13.793 7.97352 13.9258L10.8173 16.1055V20.0742C10.8173 20.5117 11.1688 20.8633 11.6141 20.8633C12.0595 20.8633 12.411 20.5117 12.411 20.0742V15.707C12.411 15.4961 12.3251 15.293 12.1766 15.1445L9.41102 12.3789L10.8954 9.40234C11.0438 9.11328 11.3016 8.96484 11.5985 8.96484H17.9657ZM17.3563 10.8477C17.3563 11.6055 18.2548 12.2305 19.3485 12.2305C20.4501 12.2305 21.3407 11.6055 21.3407 10.8477C21.3407 10.0742 20.4501 9.45703 19.3485 9.45703C18.2548 9.45703 17.3563 10.0742 17.3563 10.8477ZM12.8016 12.5352H15.9813C16.4188 12.5352 16.7704 12.168 16.7704 11.7461C16.7704 11.3008 16.4188 10.9414 15.9813 10.9414H13.1298L11.8954 9.71484H11.7001C11.622 9.71484 11.5751 9.74609 11.536 9.8164L10.9345 10.9961L12.247 12.3008C12.4032 12.4492 12.5985 12.5352 12.8016 12.5352Z"
		fill="currentColor"
	/>
</svg>
