<svg
	color="rgb(var(--foreground, 0, 0, 0))"
	viewBox="0 0 14 24"
	fill="none"
	xmlns="http://www.w3.org/2000/svg"
>
	<path
		d="M9.63183 6.82422C10.5771 6.82422 11.335 6.06641 11.335 5.12109C11.335 4.18359 10.5771 3.42578 9.63183 3.42578C8.68652 3.42578 7.92871 4.18359 7.92871 5.12109C7.92871 6.06641 8.68652 6.82422 9.63183 6.82422ZM6.75683 20.5742C10.1631 20.5742 12.4365 18.3008 12.4365 14.8945C12.4365 13.1055 11.585 12.0586 9.99121 12.0586H8.94433C8.76465 12.0586 8.64746 11.9414 8.71777 11.7227L9.43652 9.54297C9.76465 8.54297 9.2959 7.63672 8.18652 7.35547L4.95996 6.54297C4.64746 6.46484 4.41308 6.51953 4.13183 6.68359L0.999021 8.44922C0.631834 8.66016 0.545896 9.19922 0.803709 9.54297C1.05371 9.89453 1.49902 9.95703 1.89746 9.75391L4.77246 8.23047L6.45215 8.67578C6.78027 8.76953 6.90527 8.99609 6.7959 9.30078L5.91308 11.7773C5.50683 12.9414 6.19433 13.9336 7.31933 13.9336H10.2256C10.8271 13.9336 11.249 14.293 11.249 14.8945C11.249 17.5898 9.45996 19.3867 6.76465 19.3867C4.06933 19.3867 2.26465 17.5898 2.26465 14.8945C2.26465 13.9648 2.53808 13.1523 2.99121 12.4727C3.49902 11.7148 2.49121 11.082 1.95996 11.8789C1.41308 12.7148 1.07715 13.7383 1.07715 14.8945C1.07715 18.3008 3.34277 20.5742 6.75683 20.5742ZM12.46 20.5742C12.9365 20.5742 13.3193 20.1914 13.3193 19.7148C13.3193 19.2383 12.9365 18.8555 12.46 18.8555C11.9834 18.8555 11.6006 19.2383 11.6006 19.7148C11.6006 20.1914 11.9834 20.5742 12.46 20.5742Z"
		fill="currentColor"
	/>
</svg>
