<svg
	color="rgb(var(--foreground, 0, 0, 0))"
	viewBox="0 0 19 24"
	fill="none"
	xmlns="http://www.w3.org/2000/svg"
>
	<path
		d="M5.39404 7.12891C6.06592 7.12891 6.61279 6.58203 6.61279 5.91016C6.61279 5.23828 6.06592 4.68359 5.39404 4.68359C4.72217 4.68359 4.17529 5.23828 4.17529 5.91016C4.17529 6.58203 4.72217 7.12891 5.39404 7.12891ZM10.0347 10.1133C10.98 10.1133 11.7456 9.35548 11.7456 8.41016C11.7456 7.46485 10.98 6.69923 10.0347 6.69923C9.08935 6.69923 8.33154 7.46485 8.33154 8.41016C8.33154 9.35548 9.08935 10.1133 10.0347 10.1133ZM6.31592 13.8477C8.07373 14.0664 8.30811 15.082 9.60498 15.082C9.65186 15.082 9.68311 15.082 9.72998 15.0742L10.4956 12.9258C10.5815 12.6758 10.7222 12.582 10.9878 12.582H17.9331C18.3862 12.582 18.769 12.1992 18.769 11.7383C18.769 11.293 18.3862 10.9102 17.9331 10.9102H4.84717L3.76123 7.36329C3.62842 6.91016 3.16748 6.66016 2.73779 6.79298C2.30029 6.9336 2.05811 7.40235 2.18311 7.81641L3.40186 11.8867C3.51904 12.2695 3.81592 12.582 4.22217 12.582H6.45654C6.62061 12.582 6.72998 12.7149 6.67529 12.8789L6.31592 13.8477ZM0.800293 17.1445H1.58936C3.67529 17.1445 4.15186 15.8633 5.59717 15.8633C7.04248 15.8633 7.51904 17.1445 9.60498 17.1445C11.6987 17.1445 12.1675 15.8633 13.6206 15.8633C15.0659 15.8633 15.5347 17.1445 17.6284 17.1445H18.4175C18.6597 17.1445 18.855 16.957 18.855 16.7149C18.855 16.4727 18.6597 16.2774 18.4175 16.2774H17.6284C16.1284 16.2774 15.6206 14.9961 13.6206 14.9961C11.6128 14.9961 11.105 16.2774 9.60498 16.2774C8.10498 16.2774 7.60498 14.9961 5.59717 14.9961C3.59717 14.9961 3.08936 16.2774 1.58936 16.2774H0.800293C0.550293 16.2774 0.362793 16.4727 0.362793 16.7149C0.362793 16.957 0.550293 17.1445 0.800293 17.1445ZM5.31592 18.0586C5.57373 18.0586 5.77686 17.8555 5.77686 17.5977C5.77686 17.3477 5.57373 17.1445 5.31592 17.1445C5.06592 17.1445 4.86279 17.3477 4.86279 17.5977C4.86279 17.8555 5.06592 18.0586 5.31592 18.0586ZM13.9175 18.0586C14.1753 18.0586 14.3706 17.8555 14.3706 17.5977C14.3706 17.3477 14.1753 17.1445 13.9175 17.1445C13.6597 17.1445 13.4644 17.3477 13.4644 17.5977C13.4644 17.8555 13.6597 18.0586 13.9175 18.0586ZM3.83936 18.4024C4.09717 18.4024 4.30029 18.207 4.30029 17.9492C4.30029 17.6914 4.09717 17.4961 3.83936 17.4961C3.58936 17.4961 3.38623 17.6914 3.38623 17.9492C3.38623 18.207 3.58936 18.4024 3.83936 18.4024ZM6.79248 18.4024C7.05029 18.4024 7.24561 18.207 7.24561 17.9492C7.24561 17.6914 7.05029 17.4961 6.79248 17.4961C6.53467 17.4961 6.33936 17.6914 6.33936 17.9492C6.33936 18.207 6.53467 18.4024 6.79248 18.4024ZM12.4409 18.4024C12.6987 18.4024 12.9019 18.207 12.9019 17.9492C12.9019 17.6914 12.6987 17.4961 12.4409 17.4961C12.1909 17.4961 11.9878 17.6914 11.9878 17.9492C11.9878 18.207 12.1909 18.4024 12.4409 18.4024ZM15.394 18.4024C15.6519 18.4024 15.8472 18.207 15.8472 17.9492C15.8472 17.6914 15.6519 17.4961 15.394 17.4961C15.1362 17.4961 14.9409 17.6914 14.9409 17.9492C14.9409 18.207 15.1362 18.4024 15.394 18.4024ZM2.47217 19.0508C2.72217 19.0508 2.92529 18.8477 2.92529 18.5977C2.92529 18.3399 2.72217 18.1367 2.47217 18.1367C2.21436 18.1367 2.01123 18.3399 2.01123 18.5977C2.01123 18.8477 2.21436 19.0508 2.47217 19.0508ZM8.17529 19.0508C8.43311 19.0508 8.63623 18.8477 8.63623 18.5977C8.63623 18.3399 8.43311 18.1367 8.17529 18.1367C7.92529 18.1367 7.72217 18.3399 7.72217 18.5977C7.72217 18.8477 7.92529 19.0508 8.17529 19.0508ZM11.0581 19.0508C11.3159 19.0508 11.5112 18.8477 11.5112 18.5977C11.5112 18.3399 11.3159 18.1367 11.0581 18.1367C10.8003 18.1367 10.605 18.3399 10.605 18.5977C10.605 18.8477 10.8003 19.0508 11.0581 19.0508ZM16.769 19.0508C17.0269 19.0508 17.2222 18.8477 17.2222 18.5977C17.2222 18.3399 17.0269 18.1367 16.769 18.1367C16.5112 18.1367 16.3159 18.3399 16.3159 18.5977C16.3159 18.8477 16.5112 19.0508 16.769 19.0508ZM1.00342 19.3164C1.26123 19.3164 1.46436 19.1133 1.46436 18.8555C1.46436 18.6055 1.26123 18.4024 1.00342 18.4024C0.753418 18.4024 0.550293 18.6055 0.550293 18.8555C0.550293 19.1133 0.753418 19.3164 1.00342 19.3164ZM9.62061 19.3164C9.87061 19.3164 10.0737 19.1133 10.0737 18.8555C10.0737 18.6055 9.87061 18.4024 9.62061 18.4024C9.36279 18.4024 9.15967 18.6055 9.15967 18.8555C9.15967 19.1133 9.36279 19.3164 9.62061 19.3164ZM18.2222 19.3164C18.48 19.3164 18.6831 19.1133 18.6831 18.8555C18.6831 18.6055 18.48 18.4024 18.2222 18.4024C17.9722 18.4024 17.769 18.6055 17.769 18.8555C17.769 19.1133 17.9722 19.3164 18.2222 19.3164Z"
		fill="currentColor"
	/>
</svg>
