<svg
	color="rgb(var(--foreground, 0, 0, 0))"
	viewBox="0 0 14 24"
	fill="none"
	xmlns="http://www.w3.org/2000/svg"
>
	<path
		d="M11.5676 5.14502C12.4036 5.14502 13.0754 4.47314 13.0754 3.63721C13.0754 2.80908 12.4036 2.12158 11.5676 2.12158C10.7239 2.12158 10.052 2.80908 10.052 3.63721C10.052 4.47314 10.7239 5.14502 11.5676 5.14502ZM5.30981 8.49659C6.24731 8.49659 7.02075 7.73096 7.02075 6.77784C7.02075 5.84034 6.24731 5.08252 5.30981 5.08252C4.3645 5.08252 3.60669 5.84034 3.60669 6.77784C3.60669 7.73096 4.3645 8.49659 5.30981 8.49659ZM0.794189 12.3013C0.794189 12.9107 1.427 13.1997 1.91919 12.9497L4.65356 11.5747C4.78637 11.5044 4.93481 11.5825 4.96606 11.7232L5.76294 14.9107L4.51294 18.0357H1.56763C1.14575 18.0357 0.794189 18.3794 0.794189 18.8013C0.794189 19.2232 1.14575 19.5669 1.56763 19.5669H4.9895C5.34106 19.5669 5.55981 19.4263 5.73169 19.1138L7.39575 16.0357L8.32544 18.4888L5.37231 20.4732C5.02075 20.7075 4.91919 21.1997 5.15356 21.5357C5.38794 21.8794 5.83325 21.9966 6.21606 21.7388L9.70825 19.4185C9.97387 19.2466 10.0989 18.9888 9.98169 18.52L7.91919 10.2778C7.87231 10.106 7.91919 9.94971 8.1145 9.84815L13.4426 7.18409C13.8254 7.0044 13.9817 6.53564 13.7864 6.15283C13.5911 5.77002 13.1379 5.62158 12.7551 5.80908L2.33325 11.02V8.41846C2.33325 7.99659 1.99731 7.65284 1.56763 7.65284C1.14575 7.65284 0.794189 7.99659 0.794189 8.41846V12.3013Z"
		fill="currentColor"
	/>
</svg>
