<svg
	color="rgb(var(--foreground, 0, 0, 0))"
	viewBox="0 0 12 24"
	fill="none"
	xmlns="http://www.w3.org/2000/svg"
>
	<path
		d="M4.81233 22.489C5.24202 22.489 5.60139 22.1375 5.60139 21.7V17.8015L7.42952 15.1062C7.49983 14.9968 7.65608 15.0281 7.6717 15.1687L7.95295 17.575C7.96858 17.7078 7.99202 17.7781 8.05452 17.9265L9.59358 21.9812C9.78108 22.4734 10.2342 22.575 10.6014 22.4421C10.9686 22.3015 11.2498 21.9265 11.0623 21.4265L9.5467 17.3953V9.95777C9.5467 9.12183 9.19514 8.25464 8.39045 7.92652L7.89827 7.72339C6.99202 7.34839 6.14045 7.45777 5.37483 8.00464L3.52327 9.34058L1.45295 8.46558L5.56233 2.77026H6.92952C7.28108 2.77026 7.57014 2.4812 7.57014 2.13745C7.57014 1.77808 7.28108 1.50464 6.92952 1.50464H5.63264C5.49202 1.50464 5.35139 1.56714 5.26545 1.68433L0.234204 8.65308C-0.0392333 9.02808 0.0232667 9.57495 0.468579 9.76245L3.31233 10.9812C3.43733 11.0281 3.52327 11.0359 3.70295 11.0359H5.58577C5.88264 11.0359 5.9842 11.2312 5.9842 11.45V13.614L4.10139 17.1843C4.03108 17.3171 4.01545 17.4187 4.01545 17.5671V21.7C4.01545 22.1375 4.36702 22.489 4.81233 22.489ZM8.74983 7.02027C9.68733 7.02027 10.4451 6.25464 10.4451 5.30152C10.4451 4.37183 9.68733 3.6062 8.74983 3.6062C7.7967 3.6062 7.03108 4.37183 7.03108 5.30152C7.03108 6.25464 7.7967 7.02027 8.74983 7.02027Z"
		fill="currentColor"
	/>
</svg>
