<svg
	color="rgb(var(--foreground, 0, 0, 0))"
	viewBox="0 0 20 24"
	fill="none"
	xmlns="http://www.w3.org/2000/svg"
>
	<path
		d="M1.42664 17.8466H12.2079L15.4032 14.6513C15.5594 14.495 15.8173 14.495 15.9657 14.6513L17.2782 15.956L15.9188 17.3232C15.2235 18.0263 16.2782 19.0888 16.9813 18.3857L18.8798 16.495C19.1923 16.1825 19.1844 15.7216 18.8798 15.4169L16.6688 13.2138C16.2391 12.7841 15.6766 12.5419 15.0751 12.5419H9.5907V3.51848C9.5907 2.94035 8.74695 2.69035 8.37976 3.35442L0.895386 16.8232C0.598511 17.37 0.895386 17.8466 1.42664 17.8466ZM1.98914 16.9794C1.89539 16.9794 1.86414 16.8935 1.89539 16.8388L8.53601 4.87004C8.5907 4.77629 8.72351 4.79973 8.72351 4.90129V16.9794H1.98914ZM14.5594 11.7216C15.5048 11.7216 16.2626 10.9638 16.2626 10.0185C16.2626 9.07316 15.5048 8.30754 14.5594 8.30754C13.6063 8.30754 12.8485 9.07316 12.8485 10.0185C12.8485 10.9638 13.6063 11.7216 14.5594 11.7216ZM11.2391 14.0654C11.3798 14.0654 11.4423 14.206 11.3485 14.3075L9.5907 16.0654V14.0654H11.2391ZM0.778198 21.0419H1.56726C3.66101 21.0419 4.12976 19.7529 5.58289 19.7529C7.0282 19.7529 7.49695 21.0419 9.5907 21.0419C11.6766 21.0419 12.1532 19.7529 13.5985 19.7529C15.0438 19.7529 15.5204 21.0419 17.6063 21.0419H18.4032C18.6454 21.0419 18.8329 20.8544 18.8329 20.6122C18.8329 20.37 18.6454 20.1747 18.4032 20.1747H17.6063C16.1063 20.1747 15.5985 18.8857 13.5985 18.8857C11.5985 18.8857 11.0907 20.1747 9.5907 20.1747C8.0907 20.1747 7.58289 18.8857 5.58289 18.8857C3.57507 18.8857 3.07507 20.1747 1.56726 20.1747H0.778198C0.536011 20.1747 0.340698 20.37 0.340698 20.6122C0.340698 20.8544 0.536011 21.0419 0.778198 21.0419Z"
		fill="currentColor"
	/>
</svg>
