<svg
	color="rgb(var(--foreground, 0, 0, 0))"
	viewBox="0 0 20 24"
	fill="none"
	xmlns="http://www.w3.org/2000/svg"
>
	<path
		d="M5.58421 6.65625C5.89671 6.65625 6.18057 6.58333 6.43577 6.4375C6.69098 6.28646 6.89411 6.08333 7.04515 5.82812C7.19619 5.57292 7.27171 5.28906 7.27171 4.97656C7.27171 4.66406 7.19619 4.38021 7.04515 4.125C6.89411 3.86979 6.69098 3.66667 6.43577 3.51562C6.18057 3.36458 5.89671 3.28906 5.58421 3.28906C5.27171 3.28906 4.98786 3.36458 4.73265 3.51562C4.47744 3.66667 4.27432 3.86979 4.12327 4.125C3.97223 4.38021 3.89671 4.66406 3.89671 4.97656C3.89671 5.28906 3.97223 5.57292 4.12327 5.82812C4.27432 6.08333 4.47744 6.28646 4.73265 6.4375C4.98786 6.58333 5.27171 6.65625 5.58421 6.65625ZM5.58421 14.2188C5.74567 14.2188 5.86807 14.2786 5.9514 14.3984C6.03473 14.5182 6.12067 14.7188 6.20921 15C6.26129 15.1562 6.33161 15.3984 6.42015 15.7266C6.50869 16.0547 6.60504 16.4245 6.70921 16.8359C6.81338 17.2422 6.91754 17.6536 7.02171 18.0703C7.13109 18.487 7.23004 18.8672 7.31859 19.2109C7.40713 19.5599 7.47744 19.8307 7.52952 20.0234C7.65452 20.4818 7.90452 20.7109 8.27952 20.7109C8.52952 20.7109 8.71963 20.6146 8.84984 20.4219C8.98525 20.2292 9.0165 20.0104 8.94359 19.7656C8.93317 19.7292 8.89671 19.5833 8.83421 19.3281C8.77171 19.0729 8.69359 18.75 8.59984 18.3594C8.51129 17.9688 8.41234 17.5469 8.30296 17.0938C8.19879 16.6406 8.09723 16.1979 7.99827 15.7656C7.89932 15.3281 7.81338 14.9401 7.74046 14.6016C7.66754 14.2578 7.61807 14.0052 7.59202 13.8438C7.56077 13.6302 7.53473 13.3724 7.5139 13.0703C7.49307 12.7682 7.47484 12.4531 7.45921 12.125C7.44879 11.7969 7.44098 11.4844 7.43577 11.1875C7.43057 10.8854 7.42796 10.6328 7.42796 10.4297C7.42796 10.3672 7.454 10.3281 7.50609 10.3125C7.55817 10.2969 7.60504 10.3151 7.64671 10.3672C7.79254 10.5703 7.95921 10.8073 8.14671 11.0781C8.33942 11.349 8.52952 11.6172 8.71702 11.8828C8.90973 12.1484 9.0764 12.3802 9.21702 12.5781C9.36286 12.776 9.46182 12.9062 9.5139 12.9688C9.63369 13.099 9.77692 13.1771 9.94359 13.2031C10.1155 13.2292 10.2769 13.1979 10.428 13.1094C10.6311 13.0052 10.7561 12.862 10.803 12.6797C10.855 12.4922 10.8394 12.3229 10.7561 12.1719C10.7248 12.1146 10.6884 12.0573 10.6467 12C10.6103 11.9375 10.5712 11.8776 10.5295 11.8203L8.50609 8.84375C8.29254 8.52604 8.05296 8.26823 7.78734 8.07031C7.52692 7.86719 7.21702 7.71875 6.85765 7.625C6.50348 7.52604 6.079 7.47656 5.58421 7.47656C5.08942 7.47656 4.66234 7.52604 4.30296 7.625C3.94879 7.71875 3.6389 7.86719 3.37327 8.07031C3.11286 8.26823 2.87588 8.52604 2.66234 8.84375L0.638899 11.8203C0.597232 11.8776 0.555566 11.9375 0.513899 12C0.477441 12.0573 0.443586 12.1146 0.412336 12.1719C0.329003 12.3229 0.310774 12.4922 0.357649 12.6797C0.409732 12.862 0.537336 13.0052 0.740461 13.1094C0.891503 13.1979 1.05036 13.2292 1.21702 13.2031C1.3889 13.1771 1.53213 13.099 1.64671 12.9688C1.704 12.9062 1.80296 12.776 1.94359 12.5781C2.08942 12.3802 2.25609 12.1484 2.44359 11.8828C2.63109 11.6172 2.82119 11.3516 3.0139 11.0859C3.20661 10.8151 3.37588 10.5755 3.52171 10.3672C3.55817 10.3151 3.60244 10.2995 3.65452 10.3203C3.71182 10.3359 3.74046 10.375 3.74046 10.4375C3.74046 10.6406 3.73786 10.8906 3.73265 11.1875C3.72744 11.4844 3.71702 11.7969 3.7014 12.125C3.69098 12.4531 3.67536 12.7682 3.65452 13.0703C3.63369 13.3724 3.60504 13.6302 3.56859 13.8438C3.54254 14.0052 3.49307 14.2578 3.42015 14.6016C3.34723 14.9401 3.26129 15.3281 3.16234 15.7656C3.06859 16.1979 2.96702 16.6406 2.85765 17.0938C2.75348 17.5469 2.65452 17.9688 2.56077 18.3594C2.46702 18.75 2.3889 19.0729 2.3264 19.3281C2.26911 19.5833 2.23525 19.7292 2.22484 19.7656C2.15192 20.0104 2.18057 20.2292 2.31077 20.4219C2.44619 20.6146 2.6389 20.7109 2.8889 20.7109C3.2639 20.7109 3.5139 20.4818 3.6389 20.0234C3.69098 19.8307 3.76129 19.5599 3.84984 19.2109C3.93838 18.8672 4.03473 18.487 4.1389 18.0703C4.24307 17.6536 4.34723 17.2422 4.4514 16.8359C4.56077 16.4245 4.65973 16.0547 4.74827 15.7266C4.83682 15.3984 4.90713 15.1562 4.95921 15C5.04775 14.7188 5.13369 14.5182 5.21702 14.3984C5.30036 14.2786 5.42275 14.2188 5.58421 14.2188ZM14.5686 6.65625C14.8811 6.65625 15.1649 6.58333 15.4201 6.4375C15.6754 6.28646 15.8785 6.08333 16.0295 5.82812C16.1806 5.57292 16.2561 5.28906 16.2561 4.97656C16.2561 4.66406 16.1806 4.38021 16.0295 4.125C15.8785 3.86979 15.6754 3.66667 15.4201 3.51562C15.1649 3.36458 14.8811 3.28906 14.5686 3.28906C14.2561 3.28906 13.9722 3.36458 13.717 3.51562C13.4618 3.66667 13.2587 3.86979 13.1076 4.125C12.9566 4.38021 12.8811 4.66406 12.8811 4.97656C12.8811 5.28906 12.9566 5.57292 13.1076 5.82812C13.2587 6.08333 13.4618 6.28646 13.717 6.4375C13.9722 6.58333 14.2561 6.65625 14.5686 6.65625ZM14.5686 14.2188C14.73 14.2188 14.8524 14.2786 14.9358 14.3984C15.0191 14.5182 15.105 14.7188 15.1936 15C15.2457 15.1562 15.316 15.3984 15.4045 15.7266C15.4931 16.0547 15.5894 16.4245 15.6936 16.8359C15.7978 17.2422 15.9019 17.6536 16.0061 18.0703C16.1155 18.487 16.2144 18.8672 16.303 19.2109C16.3915 19.5599 16.4618 19.8307 16.5139 20.0234C16.6389 20.4818 16.8889 20.7109 17.2639 20.7109C17.5139 20.7109 17.704 20.6146 17.8342 20.4219C17.9696 20.2292 18.0009 20.0104 17.928 19.7656C17.9175 19.7292 17.8811 19.5833 17.8186 19.3281C17.7561 19.0729 17.678 18.75 17.5842 18.3594C17.4957 17.9688 17.3967 17.5469 17.2873 17.0938C17.1832 16.6406 17.0816 16.1979 16.9826 15.7656C16.8837 15.3281 16.7978 14.9401 16.7248 14.6016C16.6519 14.2578 16.6024 14.0052 16.5764 13.8438C16.5451 13.6302 16.5191 13.3724 16.4983 13.0703C16.4774 12.7682 16.4592 12.4531 16.4436 12.125C16.4332 11.7969 16.4254 11.4844 16.4201 11.1875C16.4149 10.8854 16.4123 10.6328 16.4123 10.4297C16.4123 10.3672 16.4384 10.3281 16.4905 10.3125C16.5425 10.2969 16.5894 10.3151 16.6311 10.3672C16.7769 10.5703 16.9436 10.8073 17.1311 11.0781C17.3238 11.349 17.5139 11.6172 17.7014 11.8828C17.8941 12.1484 18.0608 12.3802 18.2014 12.5781C18.3472 12.776 18.4462 12.9062 18.4983 12.9688C18.6181 13.099 18.7613 13.1771 18.928 13.2031C19.0998 13.2292 19.2613 13.1979 19.4123 13.1094C19.6155 13.0052 19.7405 12.862 19.7873 12.6797C19.8394 12.4922 19.8238 12.3229 19.7405 12.1719C19.7092 12.1146 19.6728 12.0573 19.6311 12C19.5946 11.9375 19.5556 11.8776 19.5139 11.8203L17.4905 8.84375C17.2769 8.52604 17.0373 8.26823 16.7717 8.07031C16.5113 7.86719 16.2014 7.71875 15.842 7.625C15.4879 7.52604 15.0634 7.47656 14.5686 7.47656C14.0738 7.47656 13.6467 7.52604 13.2873 7.625C12.9332 7.71875 12.6233 7.86719 12.3576 8.07031C12.0972 8.26823 11.8603 8.52604 11.6467 8.84375L9.62327 11.8203C9.58161 11.8776 9.53994 11.9375 9.49827 12C9.46182 12.0573 9.42796 12.1146 9.39671 12.1719C9.31338 12.3229 9.29515 12.4922 9.34202 12.6797C9.39411 12.862 9.52171 13.0052 9.72484 13.1094C9.87588 13.1979 10.0347 13.2292 10.2014 13.2031C10.3733 13.1771 10.5165 13.099 10.6311 12.9688C10.6884 12.9062 10.7873 12.776 10.928 12.5781C11.0738 12.3802 11.2405 12.1484 11.428 11.8828C11.6155 11.6172 11.8056 11.3516 11.9983 11.0859C12.191 10.8151 12.3603 10.5755 12.5061 10.3672C12.5425 10.3151 12.5868 10.2995 12.6389 10.3203C12.6962 10.3359 12.7248 10.375 12.7248 10.4375C12.7248 10.6406 12.7222 10.8906 12.717 11.1875C12.7118 11.4844 12.7014 11.7969 12.6858 12.125C12.6754 12.4531 12.6597 12.7682 12.6389 13.0703C12.6181 13.3724 12.5894 13.6302 12.553 13.8438C12.5269 14.0052 12.4774 14.2578 12.4045 14.6016C12.3316 14.9401 12.2457 15.3281 12.1467 15.7656C12.053 16.1979 11.9514 16.6406 11.842 17.0938C11.7379 17.5469 11.6389 17.9688 11.5451 18.3594C11.4514 18.75 11.3733 19.0729 11.3108 19.3281C11.2535 19.5833 11.2196 19.7292 11.2092 19.7656C11.1363 20.0104 11.1649 20.2292 11.2951 20.4219C11.4306 20.6146 11.6233 20.7109 11.8733 20.7109C12.2483 20.7109 12.4983 20.4818 12.6233 20.0234C12.6754 19.8307 12.7457 19.5599 12.8342 19.2109C12.9228 18.8672 13.0191 18.487 13.1233 18.0703C13.2274 17.6536 13.3316 17.2422 13.4358 16.8359C13.5451 16.4245 13.6441 16.0547 13.7326 15.7266C13.8212 15.3984 13.8915 15.1562 13.9436 15C14.0321 14.7188 14.1181 14.5182 14.2014 14.3984C14.2847 14.2786 14.4071 14.2188 14.5686 14.2188Z"
		fill="currentColor"
	/>
</svg>
