<svg
	color="rgb(var(--foreground, 0, 0, 0))"
	viewBox="0 0 20 24"
	fill="none"
	xmlns="http://www.w3.org/2000/svg"
>
	<path
		d="M15.2865 6.56152C16.1771 6.56152 16.9037 5.83496 16.9037 4.94433C16.9037 4.06152 16.1771 3.33496 15.2865 3.33496C14.3959 3.33496 13.6771 4.06152 13.6771 4.94433C13.6771 5.83496 14.3959 6.56152 15.2865 6.56152ZM5.85682 6.89746C6.74745 6.89746 7.47401 6.1709 7.47401 5.28027C7.47401 4.38965 6.74745 3.6709 5.85682 3.6709C4.9662 3.6709 4.24745 4.38965 4.24745 5.28027C4.24745 6.1709 4.9662 6.89746 5.85682 6.89746ZM1.35682 8.88183L3.00526 9.01465C3.11463 9.02246 3.19276 9.10058 3.19276 9.22558V12.2178C3.19276 12.8193 3.38807 13.4053 3.75526 13.8662L5.68495 16.3506L4.70057 19.624C4.56776 20.0537 4.81776 20.5146 5.23182 20.6318C5.64588 20.749 6.09901 20.5537 6.23963 20.085L7.3412 16.4053C7.36463 16.335 7.37245 16.2803 7.37245 16.21L10.3568 19.9834C10.6303 20.3271 11.1459 20.3975 11.474 20.124C11.8256 19.8271 11.8881 19.3428 11.6146 18.9912L6.28651 12.249L6.5287 9.8584C6.55213 9.68652 6.70838 9.60058 6.85682 9.6709L8.70838 10.6006C8.83338 10.6709 9.05995 10.7178 9.23963 10.7178H12.0912C12.2787 10.7178 12.474 10.6475 12.6068 10.5303L13.9584 9.37402C14.0912 9.25683 14.2553 9.31152 14.3178 9.46777L15.0756 11.5771L11.8803 12.4521C11.5599 12.5381 11.3099 12.8193 11.2787 13.1553L10.9193 16.835C10.8724 17.3584 11.3334 17.71 11.724 17.71C12.1303 17.71 12.4818 17.4131 12.5209 16.9912L12.8256 13.9287L15.0678 13.585L13.9974 15.7412C13.8803 15.9756 13.8178 16.2334 13.9115 16.4756L15.3881 20.1553C15.5678 20.6006 16.0521 20.7568 16.4349 20.6006C16.8412 20.4365 17.0443 19.9678 16.8803 19.5537L15.5678 16.2803L17.3803 13.7021C17.8412 13.0615 18.0053 12.2334 17.8646 11.46L17.5834 9.91308C17.5443 9.70215 17.7084 9.56933 17.9037 9.63183L18.8334 9.94433C19.4662 10.1631 19.9428 9.77246 19.8881 9.13965L19.5131 5.4209C19.474 4.95996 19.0599 4.64746 18.6381 4.69433C18.2084 4.74121 17.8724 5.13183 17.9115 5.58496L18.1615 8.03808L15.9428 7.2959C15.0365 6.99121 14.0756 7.15527 13.3256 7.80371L11.8021 9.11621H9.33338L6.95057 7.92871C6.5912 7.74121 6.23963 7.64746 5.8412 7.61621L2.50526 7.36621L3.2787 5.03027C3.42713 4.60058 3.19276 4.14746 2.7787 4.00683C2.35682 3.86621 1.89588 4.09277 1.76307 4.51465L0.645883 7.81933C0.481821 8.31933 0.833384 8.84277 1.35682 8.88183Z"
		fill="currentColor"
	/>
</svg>
