<svg
	color="rgb(var(--foreground, 0, 0, 0))"
	viewBox="0 0 20 24"
	fill="none"
	xmlns="http://www.w3.org/2000/svg"
>
	<path
		d="M7.29623 17.2239C7.64779 17.4661 8.1556 17.3879 8.41342 17.0364L10.2572 14.4583L11.9994 14.7551L10.2806 17.3176C10.0384 17.6926 10.1244 18.2083 10.5072 18.427C10.9603 18.6926 11.3978 18.5442 11.6165 18.2083L13.9447 14.7083C14.2415 14.2473 14.0853 13.5286 13.4134 13.3645L10.2181 12.5989C9.9056 12.5208 9.78842 12.2551 9.9681 11.9817L11.3197 9.96606C11.4134 9.81762 11.5931 9.78637 11.7337 9.88794L13.6947 11.2317C13.7962 11.2942 13.89 11.3411 14.0072 11.3567L18.3978 12.1614C18.7884 12.2317 19.2572 11.9817 19.3353 11.5129C19.4056 11.0833 19.1244 10.6614 18.6947 10.5911L14.4681 9.81762L7.95248 5.36449L9.81967 4.02855C10.1869 3.77074 10.265 3.27074 10.015 2.91918C9.74935 2.5598 9.24935 2.47387 8.89779 2.72387L6.10092 4.72387C5.63998 5.0598 5.63217 5.71605 6.10873 6.03637L8.49154 7.66919C8.62435 7.77075 8.66342 7.94262 8.56185 8.07544L6.57748 10.9661C5.74935 12.1692 6.26498 13.802 7.88998 14.0676L8.49154 14.1692L7.10873 16.0989C6.85092 16.4583 6.92904 16.9661 7.29623 17.2239ZM12.6009 7.12231C13.5384 7.12231 14.3119 6.35668 14.3119 5.41918C14.3119 4.48168 13.5384 3.70824 12.6009 3.70824C11.6634 3.70824 10.8978 4.48168 10.8978 5.41918C10.8978 6.35668 11.6634 7.12231 12.6009 7.12231ZM1.4681 18.0286C2.06185 18.0286 2.92123 17.8098 3.7181 17.3489C7.49154 19.677 12.7103 21.4192 17.9915 21.4192C18.2337 21.4192 18.4212 21.2317 18.4212 20.9895C18.4212 20.7473 18.2337 20.552 17.9915 20.552C11.4759 20.552 5.11654 17.8567 1.56185 14.6848C1.35873 14.5051 1.13217 14.5364 0.98373 14.6692C0.79623 14.8333 0.749355 15.1301 0.991542 15.3489C1.4056 15.7083 1.85092 16.0676 2.32748 16.4192C2.0306 16.7317 1.75717 16.927 1.29623 17.1848C1.06185 17.3254 0.968105 17.5286 1.0306 17.7317C1.06967 17.8879 1.23373 18.0286 1.4681 18.0286Z"
		fill="currentColor"
	/>
</svg>
