<svg
	color="rgb(var(--foreground, 0, 0, 0))"
	viewBox="0 0 18 24"
	fill="none"
	xmlns="http://www.w3.org/2000/svg"
>
	<path
		d="M12.9583 5.75781C13.8879 5.75781 14.6614 4.99219 14.6614 4.05469C14.6614 3.11719 13.8879 2.34375 12.9583 2.34375C12.0208 2.34375 11.2473 3.11719 11.2473 4.05469C11.2473 4.99219 12.0208 5.75781 12.9583 5.75781ZM0.575439 7.79688H5.64575L5.49731 7.9375C4.83325 8.59375 4.83325 9.71094 5.49731 10.3594L6.88794 11.7344V12.9063L5.48169 11.5078C5.302 11.3281 5.03638 11.3281 4.8645 11.5C4.70044 11.6719 4.70044 11.9375 4.8645 12.1094L6.88794 14.125V15.3438L3.46606 11.9219C3.28638 11.75 3.01294 11.75 2.84888 11.9219C2.677 12.0859 2.677 12.3594 2.84888 12.5313L11.2942 20.9766C11.7864 21.4688 12.3254 21.6563 12.927 21.6563C13.1692 21.6563 13.3645 21.4609 13.3645 21.2188C13.3645 20.9766 13.1692 20.7891 12.927 20.7891C12.3879 20.7891 12.2395 20.6953 11.7864 20.25L8.23169 16.6875C8.38794 16.5469 8.48169 16.3359 8.48169 16.1094V15.7266L13.3098 20.5547C13.802 21.0469 14.3411 21.2344 14.9504 21.2344C15.1926 21.2344 15.3801 21.0391 15.3801 20.7969C15.3801 20.5547 15.1926 20.3672 14.9504 20.3672C14.4114 20.3672 14.2551 20.2734 13.802 19.8281L10.4817 16.5C10.6301 16.3594 10.7239 16.1484 10.7239 15.9219V12.1563C10.7239 11.9375 10.6536 11.7266 10.5051 11.5938L8.43481 9.53125L10.2786 7.67969C10.3958 7.5625 10.5911 7.5625 10.7083 7.67969L11.9973 8.97656C12.1379 9.125 12.3489 9.20313 12.552 9.20313H16.2317V15.8984C16.2317 16.1328 16.427 16.3359 16.6614 16.3359C16.8958 16.3359 17.0989 16.1328 17.0989 15.8984V8.58594C17.1145 8.53125 17.1145 8.46094 17.1145 8.39844C17.1145 7.96094 16.7629 7.60156 16.3176 7.60156H12.8801L10.0833 4.78906C9.73169 4.42969 9.21606 4.22656 8.71606 4.22656H5.77075C4.97388 4.22656 4.7395 5.10156 5.2395 5.60156L6.552 6.90625L6.52856 6.92969H0.575439C0.333252 6.92969 0.137939 7.125 0.137939 7.36719C0.137939 7.60156 0.333252 7.79688 0.575439 7.79688ZM8.48169 11.8438L9.13013 12.4844V15.1484L8.48169 14.5078V11.8438Z"
		fill="currentColor"
	/>
</svg>
