<svg
	color="rgb(var(--foreground, 0, 0, 0))"
	viewBox="0 0 13 24"
	fill="none"
	xmlns="http://www.w3.org/2000/svg"
>
	<path
		d="M10.6553 7.30078C11.6006 7.30078 12.3584 6.54297 12.3584 5.60547C12.3584 4.66016 11.6006 3.90234 10.6553 3.90234C9.70996 3.90234 8.95215 4.66016 8.95215 5.60547C8.95215 6.54297 9.70996 7.30078 10.6553 7.30078ZM5.99902 20.0977C9.19434 20.0977 11.6787 17.6055 11.6787 14.4102C11.6787 12.9414 11.0771 12.0586 9.76465 11.6133L8.53027 11.1836C8.32715 11.1211 8.27246 10.9648 8.40527 10.7695L9.20996 9.59766C9.83496 8.69922 9.6084 7.95703 8.64746 7.28516L5.67871 5.20703C5.36621 4.99609 4.97559 4.98828 4.66309 5.19141L1.91309 7.04297C0.897461 7.73047 1.83496 8.97266 2.74902 8.34766L5.08496 6.76953L6.69434 7.89453C6.96777 8.08984 6.99902 8.30859 6.81934 8.55859L5.53027 10.4336C4.83496 11.4414 5.39746 12.5352 6.4834 12.8164L9.91309 13.6758C10.2803 13.7617 10.4912 14.0664 10.4912 14.4883C10.4912 16.9414 8.52246 18.9023 6.00684 18.9023C3.46777 18.9023 1.50684 16.9414 1.50684 14.4102C1.50684 13.4883 1.78027 12.668 2.2334 11.9883C2.74121 11.2305 1.7334 10.5977 1.20215 11.3945C0.655273 12.2305 0.319336 13.2539 0.319336 14.4102C0.319336 17.6055 2.80371 20.0977 5.99902 20.0977ZM11.7021 20.0977C12.1865 20.0977 12.5615 19.7148 12.5615 19.2305C12.5615 18.7539 12.1865 18.3711 11.7021 18.3711C11.2178 18.3711 10.835 18.7539 10.835 19.2305C10.835 19.7148 11.2178 20.0977 11.7021 20.0977Z"
		fill="currentColor"
	/>
</svg>
