<svg
	color="rgb(var(--foreground, 0, 0, 0))"
	viewBox="0 0 19 24"
	fill="none"
	xmlns="http://www.w3.org/2000/svg"
>
	<path
		d="M9.27808 13.4334C10.6609 13.4334 11.0515 12.5819 12.2781 12.2694L6.86401 6.63654C6.51245 6.27716 5.99683 6.23029 5.57495 6.52716L2.51245 8.70685C1.9812 9.08185 2.03589 9.63654 2.34058 9.96466C2.59058 10.2459 3.05151 10.3631 3.48901 10.0506L5.97339 8.29279L7.37964 9.7381C7.53589 9.90216 7.58276 10.1522 7.34058 10.3162L4.44995 12.2147C4.78589 12.1834 5.14526 12.1756 5.55933 12.1912C7.33276 12.2694 7.66089 13.4334 9.27808 13.4334ZM12.3953 10.2693C13.3406 10.2693 14.1062 9.51154 14.1062 8.56623C14.1062 7.62091 13.3406 6.85529 12.3953 6.85529C11.45 6.85529 10.6921 7.62091 10.6921 8.56623C10.6921 9.51154 11.45 10.2693 12.3953 10.2693ZM0.473389 15.4959H1.26245C3.34839 15.4959 3.82495 14.2147 5.27026 14.2147C6.71558 14.2147 7.19214 15.4959 9.27808 15.4959C11.3718 15.4959 11.8406 14.2147 13.2937 14.2147C14.739 14.2147 15.2078 15.4959 17.3015 15.4959H18.0906C18.3328 15.4959 18.5281 15.3084 18.5281 15.0662C18.5281 14.824 18.3328 14.6287 18.0906 14.6287H17.3015C15.8015 14.6287 15.2937 13.3475 13.2937 13.3475C11.2859 13.3475 10.7781 14.6287 9.27808 14.6287C7.77808 14.6287 7.27808 13.3475 5.27026 13.3475C3.27026 13.3475 2.76245 14.6287 1.26245 14.6287H0.473389C0.223389 14.6287 0.0358887 14.824 0.0358887 15.0662C0.0358887 15.3084 0.223389 15.4959 0.473389 15.4959ZM4.98901 16.41C5.24683 16.41 5.44995 16.2069 5.44995 15.9569C5.44995 15.699 5.24683 15.4959 4.98901 15.4959C4.73901 15.4959 4.53589 15.699 4.53589 15.9569C4.53589 16.2069 4.73901 16.41 4.98901 16.41ZM13.5906 16.41C13.8484 16.41 14.0437 16.2069 14.0437 15.9569C14.0437 15.699 13.8484 15.4959 13.5906 15.4959C13.3328 15.4959 13.1375 15.699 13.1375 15.9569C13.1375 16.2069 13.3328 16.41 13.5906 16.41ZM3.51245 16.7615C3.77026 16.7615 3.97339 16.5584 3.97339 16.3006C3.97339 16.0506 3.77026 15.8475 3.51245 15.8475C3.26245 15.8475 3.05933 16.0506 3.05933 16.3006C3.05933 16.5584 3.26245 16.7615 3.51245 16.7615ZM6.46558 16.7615C6.72339 16.7615 6.9187 16.5584 6.9187 16.3006C6.9187 16.0506 6.72339 15.8475 6.46558 15.8475C6.20776 15.8475 6.01245 16.0506 6.01245 16.3006C6.01245 16.5584 6.20776 16.7615 6.46558 16.7615ZM12.114 16.7615C12.3718 16.7615 12.575 16.5584 12.575 16.3006C12.575 16.0506 12.3718 15.8475 12.114 15.8475C11.864 15.8475 11.6609 16.0506 11.6609 16.3006C11.6609 16.5584 11.864 16.7615 12.114 16.7615ZM15.0671 16.7615C15.325 16.7615 15.5203 16.5584 15.5203 16.3006C15.5203 16.0506 15.325 15.8475 15.0671 15.8475C14.8093 15.8475 14.614 16.0506 14.614 16.3006C14.614 16.5584 14.8093 16.7615 15.0671 16.7615ZM2.14526 17.4022C2.39526 17.4022 2.59839 17.2069 2.59839 16.949C2.59839 16.6912 2.39526 16.4959 2.14526 16.4959C1.88745 16.4959 1.68433 16.6912 1.68433 16.949C1.68433 17.2069 1.88745 17.4022 2.14526 17.4022ZM7.84839 17.4022C8.1062 17.4022 8.30933 17.2069 8.30933 16.949C8.30933 16.6912 8.1062 16.4959 7.84839 16.4959C7.59839 16.4959 7.39526 16.6912 7.39526 16.949C7.39526 17.2069 7.59839 17.4022 7.84839 17.4022ZM10.7312 17.4022C10.989 17.4022 11.1843 17.2069 11.1843 16.949C11.1843 16.6912 10.989 16.4959 10.7312 16.4959C10.4734 16.4959 10.2781 16.6912 10.2781 16.949C10.2781 17.2069 10.4734 17.4022 10.7312 17.4022ZM16.4421 17.4022C16.7 17.4022 16.8953 17.2069 16.8953 16.949C16.8953 16.6912 16.7 16.4959 16.4421 16.4959C16.1843 16.4959 15.989 16.6912 15.989 16.949C15.989 17.2069 16.1843 17.4022 16.4421 17.4022ZM0.676514 17.6678C0.934326 17.6678 1.13745 17.4647 1.13745 17.2147C1.13745 16.9569 0.934326 16.7537 0.676514 16.7537C0.426514 16.7537 0.223389 16.9569 0.223389 17.2147C0.223389 17.4647 0.426514 17.6678 0.676514 17.6678ZM9.2937 17.6678C9.5437 17.6678 9.74683 17.4647 9.74683 17.2147C9.74683 16.9569 9.5437 16.7537 9.2937 16.7537C9.03589 16.7537 8.83276 16.9569 8.83276 17.2147C8.83276 17.4647 9.03589 17.6678 9.2937 17.6678ZM17.8953 17.6678C18.1531 17.6678 18.3562 17.4647 18.3562 17.2147C18.3562 16.9569 18.1531 16.7537 17.8953 16.7537C17.6453 16.7537 17.4421 16.9569 17.4421 17.2147C17.4421 17.4647 17.6453 17.6678 17.8953 17.6678Z"
		fill="currentColor"
	/>
</svg>
