<svg
	color="rgb(var(--foreground, 0, 0, 0))"
	viewBox="0 0 11 24"
	fill="none"
	xmlns="http://www.w3.org/2000/svg"
>
	<path
		d="M1.13965 21.5938C1.59277 21.5938 1.92871 21.25 1.92871 20.8281V17.0859L4.11621 14.7578C4.15527 14.7188 4.22559 14.7188 4.26465 14.7656L6.3584 17.5703L8.13965 21.1094C8.63184 22.1016 10.0225 21.3906 9.5459 20.4453L5.88965 13.1172C5.56152 12.4609 5.39746 11.5781 5.31934 10.6797C5.2959 10.3906 5.4834 10.25 5.7334 10.375L7.17871 11.1094L8.51465 13.7813C8.99121 14.7266 10.4209 14.0859 9.91309 13.0781L8.45996 10.1797C8.38184 10.0234 8.26465 9.90625 8.1084 9.82813L6.03027 8.78906C5.41309 8.47656 4.78027 8.35938 4.19434 8.21094C3.52246 8.04688 2.9209 7.83594 2.51465 7.25781L1.56934 5.88281V3.17969C1.56934 2.75781 1.20996 2.40625 0.780273 2.40625C0.350586 2.40625 -0.000976562 2.75781 -0.000976562 3.17969V6.13281C-0.000976562 6.30469 0.0380859 6.42188 0.139648 6.57031L1.7959 8.96094C1.94434 9.17969 2.03809 9.32031 2.06934 9.6875C2.13184 10.5547 2.31934 12.1641 2.6709 13.3281L0.514648 16.3203C0.413086 16.4766 0.374023 16.625 0.374023 16.7734V20.8281C0.374023 21.25 0.709961 21.5938 1.13965 21.5938ZM4.7334 7.36719C5.6709 7.36719 6.42871 6.60938 6.42871 5.65625C6.42871 4.71875 5.6709 3.96094 4.7334 3.96094C3.78027 3.96094 3.02246 4.71875 3.02246 5.65625C3.02246 6.60938 3.78027 7.36719 4.7334 7.36719Z"
		fill="currentColor"
	/>
</svg>
