<svg
	color="rgb(var(--foreground, 0, 0, 0))"
	viewBox="0 0 8 24"
	fill="none"
	xmlns="http://www.w3.org/2000/svg"
>
	<path
		d="M0 13.8359C0 14.0339 0.0677083 14.2005 0.203125 14.3359C0.338542 14.4661 0.502604 14.5312 0.695312 14.5312C0.888021 14.5312 1.04948 14.4661 1.17969 14.3359C1.3151 14.2005 1.38281 14.0339 1.38281 13.8359V10.8281C1.38281 10.6615 1.46875 10.5781 1.64062 10.5781C1.80729 10.5781 1.89062 10.6615 1.89062 10.8281V19.9375C1.89062 20.151 1.96354 20.3307 2.10938 20.4766C2.26042 20.6224 2.44271 20.6953 2.65625 20.6953C2.86979 20.6953 3.04948 20.6224 3.19531 20.4766C3.34635 20.3307 3.42188 20.151 3.42188 19.9375V14.3984C3.42188 14.3255 3.44531 14.263 3.49219 14.2109C3.54427 14.1589 3.60677 14.1328 3.67969 14.1328C3.7526 14.1328 3.8151 14.1589 3.86719 14.2109C3.91927 14.263 3.94531 14.3255 3.94531 14.3984V19.9375C3.94531 20.151 4.01823 20.3307 4.16406 20.4766C4.3099 20.6224 4.48958 20.6953 4.70312 20.6953C4.91667 20.6953 5.09635 20.6224 5.24219 20.4766C5.39323 20.3307 5.46875 20.151 5.46875 19.9375V10.8281C5.46875 10.6615 5.55208 10.5781 5.71875 10.5781C5.89062 10.5781 5.97656 10.6615 5.97656 10.8281V13.8359C5.97656 14.0339 6.04167 14.2005 6.17188 14.3359C6.30729 14.4661 6.47135 14.5312 6.66406 14.5312C6.85677 14.5312 7.02083 14.4661 7.15625 14.3359C7.29167 14.2005 7.35938 14.0339 7.35938 13.8359V10.4766C7.35938 9.89844 7.22656 9.39583 6.96094 8.96875C6.70052 8.53646 6.33594 8.20312 5.86719 7.96875C5.40365 7.72917 4.86198 7.60938 4.24219 7.60938H3.11719C2.4974 7.60938 1.95312 7.72917 1.48438 7.96875C1.02083 8.20312 0.65625 8.53646 0.390625 8.96875C0.130208 9.39583 0 9.89844 0 10.4766V13.8359ZM3.67969 6.71094C3.99219 6.71094 4.27604 6.63542 4.53125 6.48438C4.79167 6.32812 4.9974 6.1224 5.14844 5.86719C5.30469 5.60677 5.38281 5.32031 5.38281 5.00781C5.38281 4.6901 5.30469 4.40365 5.14844 4.14844C4.9974 3.89323 4.79167 3.6901 4.53125 3.53906C4.27604 3.38281 3.99219 3.30469 3.67969 3.30469C3.36719 3.30469 3.08073 3.38281 2.82031 3.53906C2.5651 3.6901 2.35938 3.89323 2.20312 4.14844C2.05208 4.40365 1.97656 4.6901 1.97656 5.00781C1.97656 5.32031 2.05208 5.60677 2.20312 5.86719C2.35938 6.1224 2.5651 6.32812 2.82031 6.48438C3.08073 6.63542 3.36719 6.71094 3.67969 6.71094Z"
		fill="currentColor"
	/>
</svg>
