<svg
	color="rgb(var(--foreground, 0, 0, 0))"
	viewBox="0 0 13 24"
	fill="none"
	xmlns="http://www.w3.org/2000/svg"
>
	<path
		d="M1.66022 21.8374H5.69147C6.17584 21.8374 6.4024 21.603 6.48053 21.1733L7.16803 17.4077H10.3555L9.73053 20.8765C9.63678 21.4311 10.004 21.7983 10.4102 21.8374C10.8008 21.8765 11.2305 21.689 11.3243 21.1733L12.1055 16.8218C12.2071 16.2124 11.8555 15.8452 11.418 15.7983L8.58209 15.4858L8.82428 12.7983C8.83209 12.6655 8.94147 12.5796 9.06647 12.5796H11.3321C11.7696 12.5796 12.1368 12.2046 12.1368 11.7671V7.3374C12.1368 7.00927 11.9337 6.7124 11.629 6.59521C11.3321 6.47021 10.9883 6.5249 10.754 6.75927L10.2618 7.25927L9.80865 6.85302C10.043 6.62646 9.99615 6.2749 9.75397 6.04833L5.60553 2.31396C5.35553 2.0874 5.00397 2.11083 4.7774 2.36083L4.38678 2.81396C4.16803 3.06396 4.17584 3.3999 4.43365 3.63427L8.55865 7.35302C8.80865 7.57177 9.12115 7.54833 9.36334 7.31396L9.80865 7.7124L6.3399 11.189C5.94928 11.5796 5.69928 12.0718 5.64459 12.6733L4.94928 20.228H1.66022C1.2149 20.228 0.863342 20.5796 0.863342 21.0249C0.863342 21.4702 1.2149 21.8374 1.66022 21.8374ZM5.69147 9.97021C6.62115 9.97021 7.37897 9.2124 7.37897 8.25927C7.37897 7.32177 6.62115 6.56396 5.69147 6.56396C4.73834 6.56396 3.98053 7.32177 3.98053 8.25927C3.98053 9.2124 4.73834 9.97021 5.69147 9.97021ZM10.5274 9.28271V10.9546H8.8399L10.5274 9.28271Z"
		fill="currentColor"
	/>
</svg>
