<svg
	color="rgb(var(--foreground, 0, 0, 0))"
	viewBox="0 0 9 24"
	fill="none"
	xmlns="http://www.w3.org/2000/svg"
>
	<path
		d="M0.015757 4.06356L0.164194 6.80575C0.187632 7.30575 0.382944 7.59481 0.734507 7.85262L2.42982 9.09481C2.64076 9.24325 2.75794 9.35262 2.75794 9.71981V19.9151C2.75794 20.337 3.10169 20.6729 3.52357 20.6729C3.94544 20.6729 4.28138 20.337 4.28138 19.9151V14.4307C4.28138 14.2901 4.40638 14.1651 4.54701 14.1651C4.68763 14.1651 4.80482 14.2901 4.80482 14.4307V19.9151C4.80482 20.337 5.14857 20.6729 5.57044 20.6729C5.99232 20.6729 6.32826 20.337 6.32826 19.9151V10.8604C6.32826 10.7198 6.44544 10.6104 6.58607 10.6104C6.72669 10.6104 6.83607 10.7198 6.83607 10.8604V13.8682C6.83607 14.2589 7.14857 14.5636 7.53138 14.5636C7.91419 14.5636 8.22669 14.2589 8.22669 13.8682V10.5089C8.22669 8.78231 6.96107 7.63387 5.11732 7.63387H3.49232C3.02357 7.63387 2.73451 7.54012 2.35951 7.2745L1.54701 6.69637L1.39857 3.99325C1.38294 3.61043 1.05482 3.29793 0.672007 3.32918C0.281382 3.36043 0.000131955 3.68075 0.015757 4.06356ZM4.54701 6.75887C5.49232 6.75887 6.25013 6.00106 6.25013 5.05575C6.25013 4.11043 5.49232 3.35262 4.54701 3.35262C3.60169 3.35262 2.84388 4.11043 2.84388 5.05575C2.84388 6.00106 3.60169 6.75887 4.54701 6.75887Z"
		fill="currentColor"
	/>
</svg>
