<svg
	color="rgb(var(--foreground, 0, 0, 0))"
	viewBox="0 0 18 24"
	fill="none"
	xmlns="http://www.w3.org/2000/svg"
>
	<path
		d="M9.02441 6.41016C9.96973 6.41016 10.7354 5.63672 10.7354 4.71484C10.7354 3.76953 9.96973 3.01172 9.02441 3.01172C8.08691 3.01172 7.3291 3.76953 7.3291 4.71484C7.3291 5.63672 8.08691 6.41016 9.02441 6.41016ZM2.94629 19.1133C2.52441 19.5352 2.61816 20.0508 2.93066 20.332C3.21191 20.582 3.69629 20.6367 4.08691 20.2461L7.06348 17.2695C7.12598 17.207 7.14941 17.1836 7.2041 17.082L8.67285 14.3242C8.88379 13.918 9.46191 13.9023 9.82129 14.168L13.1494 16.6914V20.1289C13.1494 20.6602 13.4775 20.9883 13.9619 20.9883C14.4463 20.9883 14.7744 20.6602 14.7744 20.1289V16.3008C14.7744 16.0664 14.6807 15.8633 14.4697 15.6758L10.7197 12.457V8.95703C10.7197 8.76172 10.8525 8.60547 11.0869 8.56641L17.3057 7.62109C17.7432 7.55078 18.0479 7.12891 17.9775 6.69141C17.915 6.25391 17.501 5.94922 17.0635 6.01953L4.67285 7.89453V5.98828C5.11816 5.79297 5.5166 5.51953 5.81348 5.18359C6.0166 4.95703 6.0166 4.66016 5.81348 4.42578C5.21191 3.74609 4.18848 3.31641 3.2666 3.31641C2.35254 3.31641 1.3291 3.74609 0.719727 4.42578C0.508789 4.66016 0.508789 4.95703 0.719727 5.19141C1.28223 5.81641 2.2041 6.23047 3.06348 6.28516V8.83984C3.06348 9.34766 3.47754 9.70703 3.99316 9.62891L6.67285 9.22266C6.91504 9.18359 7.09473 9.33984 7.09473 9.58203V12.7461L5.80566 16.2539L2.94629 19.1133Z"
		fill="currentColor"
	/>
</svg>
