<svg
	color="rgb(var(--foreground, 0, 0, 0))"
	viewBox="0 0 17 24"
	fill="none"
	xmlns="http://www.w3.org/2000/svg"
>
	<path
		d="M15.2148 8.77627C15.2148 10.495 14.8788 12.1044 14.0351 14.2528C13.9413 14.5028 14.0429 14.7528 14.2617 14.8466C14.496 14.9403 14.7304 14.8544 14.8476 14.62C15.746 12.6435 16.1054 10.9481 16.1054 8.77627C16.1054 6.67471 15.746 4.97159 14.8398 2.93252C14.7304 2.69815 14.496 2.61221 14.2617 2.70596C14.0351 2.79971 13.9413 3.04971 14.0351 3.29971C14.8788 5.46377 15.2148 7.06534 15.2148 8.77627ZM7.52728 7.13565C8.4726 7.13565 9.23822 6.37002 9.23822 5.44034C9.23822 4.50284 8.4726 3.73721 7.52728 3.73721C6.58978 3.73721 5.83197 4.50284 5.83197 5.44034C5.83197 6.37002 6.58978 7.13565 7.52728 7.13565ZM13.582 7.95596H5.24603C5.4101 7.78409 5.45697 7.53409 5.40228 7.31534C5.30072 6.95596 4.95697 6.65909 4.37885 6.7919L2.07416 7.32315C0.589784 7.6669 0.628846 9.57315 2.17572 9.57315H4.69135C4.91791 9.57315 5.0976 9.76065 5.0976 9.98721V13.2841L2.68353 15.6825C2.35541 16.0106 2.13666 16.3466 2.00385 16.8544L1.08978 20.2841C0.933534 20.87 1.27728 21.2372 1.68353 21.2997C2.07416 21.37 2.50385 21.1825 2.63666 20.6981L3.50385 17.4794C3.58978 17.1747 3.65228 17.0497 3.88666 16.8544L5.77728 15.2372C6.1601 14.9247 6.80853 14.9794 7.07416 15.4403L8.2226 17.4403L10.0429 20.87C10.3085 21.3778 10.8788 21.4325 11.246 21.1981C11.5663 20.9872 11.6992 20.5575 11.4648 20.12L9.63666 16.6356L8.5976 14.2685C8.42572 13.87 8.33197 13.4325 8.33197 12.9794V9.98721C8.33197 9.76065 8.51166 9.57315 8.74603 9.57315H13.582C14.0351 9.57315 14.3945 9.21377 14.3945 8.77627C14.3945 8.32315 14.0351 7.95596 13.582 7.95596Z"
		fill="currentColor"
	/>
</svg>
