<svg
	color="rgb(var(--foreground, 0, 0, 0))"
	viewBox="0 0 24 24"
	fill="none"
	xmlns="http://www.w3.org/2000/svg"
>
	<path
		d="M9.07031 13.082C9.35677 13.082 9.59896 12.9831 9.79688 12.7852C10 12.582 10.1016 12.3372 10.1016 12.0508C10.1016 11.7643 10 11.5221 9.79688 11.3242C9.59896 11.1211 9.35677 11.0195 9.07031 11.0195C8.77865 11.0195 8.53125 11.1211 8.32812 11.3242C8.13021 11.5221 8.03125 11.7643 8.03125 12.0508C8.03125 12.3372 8.13021 12.582 8.32812 12.7852C8.53125 12.9831 8.77865 13.082 9.07031 13.082ZM12.1797 13.082C12.4661 13.082 12.7083 12.9831 12.9062 12.7852C13.1094 12.582 13.2109 12.3372 13.2109 12.0508C13.2109 11.7643 13.1094 11.5221 12.9062 11.3242C12.7083 11.1211 12.4661 11.0195 12.1797 11.0195C11.8932 11.0195 11.6484 11.1211 11.4453 11.3242C11.2474 11.5221 11.1484 11.7643 11.1484 12.0508C11.1484 12.3372 11.2474 12.582 11.4453 12.7852C11.6484 12.9831 11.8932 13.082 12.1797 13.082ZM15.2812 13.082C15.5677 13.082 15.8099 12.9831 16.0078 12.7852C16.2109 12.582 16.3125 12.3372 16.3125 12.0508C16.3125 11.7643 16.2109 11.5221 16.0078 11.3242C15.8099 11.1211 15.5677 11.0195 15.2812 11.0195C14.9948 11.0195 14.75 11.1211 14.5469 11.3242C14.349 11.5221 14.25 11.7643 14.25 12.0508C14.25 12.3372 14.349 12.582 14.5469 12.7852C14.75 12.9831 14.9948 13.082 15.2812 13.082ZM0.359375 13.668C0.359375 13.8398 0.419271 13.9883 0.539062 14.1133C0.664062 14.2331 0.8125 14.293 0.984375 14.293C1.16146 14.293 1.3099 14.2331 1.42969 14.1133C1.55469 13.9883 1.61719 13.8398 1.61719 13.668V10.9336C1.61719 10.7826 1.69271 10.707 1.84375 10.707C2 10.707 2.07812 10.7826 2.07812 10.9336V19.1992C2.07812 19.3867 2.14323 19.5482 2.27344 19.6836C2.40885 19.819 2.57292 19.8867 2.76562 19.8867C2.95833 19.8867 3.1224 19.819 3.25781 19.6836C3.39323 19.5482 3.46094 19.3867 3.46094 19.1992V14.168C3.46094 14.1055 3.48438 14.0508 3.53125 14.0039C3.57812 13.957 3.63281 13.9336 3.69531 13.9336C3.75781 13.9336 3.8125 13.957 3.85938 14.0039C3.91146 14.0508 3.9375 14.1055 3.9375 14.168V19.1992C3.9375 19.3867 4.0026 19.5482 4.13281 19.6836C4.26823 19.819 4.43229 19.8867 4.625 19.8867C4.81771 19.8867 4.98177 19.819 5.11719 19.6836C5.2526 19.5482 5.32031 19.3867 5.32031 19.1992V10.9336C5.32031 10.7826 5.39583 10.707 5.54688 10.707C5.70312 10.707 5.78125 10.7826 5.78125 10.9336V13.668C5.78125 13.8398 5.84115 13.9883 5.96094 14.1133C6.08594 14.2331 6.23438 14.293 6.40625 14.293C6.58333 14.293 6.73177 14.2331 6.85156 14.1133C6.97135 13.9883 7.03125 13.8398 7.03125 13.668V10.6133C7.03125 10.0924 6.91146 9.63672 6.67188 9.24609C6.4375 8.85547 6.10677 8.55339 5.67969 8.33984C5.25781 8.12109 4.76823 8.01172 4.21094 8.01172H3.1875C2.625 8.01172 2.13021 8.12109 1.70312 8.33984C1.28125 8.55339 0.950521 8.85547 0.710938 9.24609C0.476562 9.63672 0.359375 10.0924 0.359375 10.6133V13.668ZM3.69531 7.19922C4.1224 7.19922 4.48698 7.04818 4.78906 6.74609C5.09115 6.44401 5.24219 6.07943 5.24219 5.65234C5.24219 5.22526 5.09115 4.86328 4.78906 4.56641C4.48698 4.26432 4.1224 4.11328 3.69531 4.11328C3.26823 4.11328 2.90365 4.26432 2.60156 4.56641C2.30469 4.86328 2.15625 5.22526 2.15625 5.65234C2.15625 6.07943 2.30469 6.44401 2.60156 6.74609C2.90365 7.04818 3.26823 7.19922 3.69531 7.19922ZM17.2891 13.668C17.2891 13.8398 17.349 13.9883 17.4687 14.1133C17.5937 14.2331 17.7422 14.293 17.9141 14.293C18.0911 14.293 18.2396 14.2331 18.3594 14.1133C18.4844 13.9883 18.5469 13.8398 18.5469 13.668V10.9336C18.5469 10.7826 18.6224 10.707 18.7734 10.707C18.9297 10.707 19.0078 10.7826 19.0078 10.9336V19.1992C19.0078 19.3867 19.0729 19.5482 19.2031 19.6836C19.3385 19.819 19.5026 19.8867 19.6953 19.8867C19.888 19.8867 20.0521 19.819 20.1875 19.6836C20.3229 19.5482 20.3906 19.3867 20.3906 19.1992V14.168C20.3906 14.1055 20.4141 14.0508 20.4609 14.0039C20.5078 13.957 20.5625 13.9336 20.625 13.9336C20.6875 13.9336 20.7422 13.957 20.7891 14.0039C20.8411 14.0508 20.8672 14.1055 20.8672 14.168V19.1992C20.8672 19.3867 20.9323 19.5482 21.0625 19.6836C21.1979 19.819 21.362 19.8867 21.5547 19.8867C21.7474 19.8867 21.9089 19.819 22.0391 19.6836C22.1745 19.5482 22.2422 19.3867 22.2422 19.1992V10.9336C22.2422 10.7826 22.3203 10.707 22.4766 10.707C22.6276 10.707 22.7031 10.7826 22.7031 10.9336V13.668C22.7031 13.8398 22.763 13.9883 22.8828 14.1133C23.0078 14.2331 23.1589 14.293 23.3359 14.293C23.5078 14.293 23.6536 14.2331 23.7734 14.1133C23.8984 13.9883 23.9609 13.8398 23.9609 13.668V10.6133C23.9609 10.0924 23.8411 9.63672 23.6016 9.24609C23.3672 8.85547 23.0365 8.55339 22.6094 8.33984C22.1875 8.12109 21.6979 8.01172 21.1406 8.01172H20.1094C19.5521 8.01172 19.0599 8.12109 18.6328 8.33984C18.2109 8.55339 17.8802 8.85547 17.6406 9.24609C17.4062 9.63672 17.2891 10.0924 17.2891 10.6133V13.668ZM20.625 7.19922C21.0521 7.19922 21.4167 7.04818 21.7187 6.74609C22.0208 6.44401 22.1719 6.07943 22.1719 5.65234C22.1719 5.22526 22.0208 4.86328 21.7187 4.56641C21.4167 4.26432 21.0521 4.11328 20.625 4.11328C20.1979 4.11328 19.8333 4.26432 19.5312 4.56641C19.2344 4.86328 19.0859 5.22526 19.0859 5.65234C19.0859 6.07943 19.2344 6.44401 19.5312 6.74609C19.8333 7.04818 20.1979 7.19922 20.625 7.19922Z"
		fill="currentColor"
	/>
</svg>
