<svg
	color="rgb(var(--foreground, 0, 0, 0))"
	viewBox="0 0 18 24"
	fill="none"
	xmlns="http://www.w3.org/2000/svg"
>
	<path
		d="M9.04663 2.62215C8.31226 1.87996 7.43726 1.91902 6.29663 3.05184C5.66382 3.70027 5.32788 5.00496 5.12476 5.93465L3.96851 7.09871C3.60913 7.45808 3.68726 7.95027 4.00757 8.27058L6.31226 10.5675C6.46069 10.7003 6.64819 10.7862 6.86694 10.7862H8.42944C8.48413 10.7862 8.50757 10.8721 8.46069 10.8956L6.83569 11.7081C5.45288 12.3878 5.13257 14.2237 6.53882 15.2628L9.42944 17.3721L7.74976 20.7315C7.55444 21.1221 7.71069 21.6065 8.09351 21.794C8.45288 21.9737 8.93726 21.8643 9.15601 21.4425L11.0935 17.5675C11.2498 17.2471 11.281 16.8565 10.9294 16.505L8.60132 14.1846L11.6326 12.6768C11.781 12.5987 11.9451 12.63 12.0466 12.7393L16.2107 16.8956C16.5232 17.2081 17.0388 17.1925 17.3201 16.8956C17.6248 16.5831 17.6326 16.0909 17.3201 15.7784L11.1794 9.63777C10.906 9.36433 10.6169 9.20808 10.2341 9.20808H7.19507L5.14038 7.1534L5.74976 6.54402C6.67944 6.34871 7.99194 6.01277 8.61694 5.37215C9.76538 4.23933 9.80444 3.35652 9.04663 2.62215ZM8.44507 3.23934C8.85132 3.63777 8.71851 4.03621 8.00757 4.76277C7.56226 5.20027 6.72632 5.4034 6.09351 5.5909C6.26538 4.94246 6.47632 4.12215 6.92163 3.66902C7.64038 2.95027 8.02319 2.83309 8.44507 3.23934ZM13.4451 9.98152C14.3904 9.98152 15.156 9.2159 15.156 8.27058C15.156 7.32527 14.3904 6.55965 13.4451 6.55965C12.4998 6.55965 11.7419 7.32527 11.7419 8.27058C11.7419 9.2159 12.4998 9.98152 13.4451 9.98152ZM1.32788 18.7081H5.28882C5.62476 18.7081 5.89819 18.4659 6.03882 18.1768L6.89038 16.4815L6.07788 15.88C5.78882 15.669 5.55444 15.4268 5.36694 15.169L4.71069 17.1221H1.32788C0.898193 17.1221 0.538818 17.4815 0.538818 17.9112C0.538818 18.3643 0.898193 18.7081 1.32788 18.7081Z"
		fill="currentColor"
	/>
</svg>
