<svg
	color="rgb(var(--foreground, 0, 0, 0))"
	viewBox="0 0 14 24"
	fill="none"
	xmlns="http://www.w3.org/2000/svg"
>
	<path
		d="M5.12953 5.82422C6.06703 5.82422 6.84046 5.05859 6.84046 4.12109C6.84046 3.18359 6.06703 2.41016 5.12953 2.41016C4.19203 2.41016 3.4264 3.18359 3.4264 4.12109C3.4264 5.05859 4.19203 5.82422 5.12953 5.82422ZM6.30921 17.7461C6.66859 17.8086 7.05921 17.6367 7.19984 17.1602L8.25453 13.6289C8.39515 13.1445 8.19203 12.7305 7.7389 12.5664L5.00453 11.582L5.41078 8.75391C5.43421 8.59766 5.55921 8.55079 5.70765 8.61329L7.08265 9.23829C7.26234 9.32423 7.40296 9.34766 7.63734 9.3711L11.0905 9.72266C11.528 9.76954 11.9186 9.45704 11.9498 9.02735C11.9889 8.60548 11.6764 8.21485 11.2467 8.17579L7.72328 7.83204L5.05921 6.60548C3.91859 6.08985 2.7389 6.66798 2.59046 7.8086L2.15296 11.1367C2.02796 12.1133 2.63734 12.9961 3.59046 13.2227L6.55921 13.9024L5.69984 16.7149C5.52796 17.2852 5.89515 17.6758 6.30921 17.7461ZM13.3952 7.36329C13.278 7.12891 13.028 7.04298 12.8014 7.15235C12.4342 7.33204 12.1686 7.47266 11.903 7.61329C12.1842 7.76173 12.4108 7.9961 12.5436 8.27735C12.7233 8.17579 12.9108 8.08204 13.192 7.9336C13.4108 7.82423 13.4967 7.57423 13.3952 7.36329ZM2.8014 21.5899H5.70765C5.94984 21.5899 6.14515 21.4024 6.14515 21.1602V19.7539H8.62171C8.85609 19.7539 9.0514 19.5508 9.0514 19.3086V17.9024H10.653C10.8873 17.9024 11.0827 17.7149 11.0905 17.4727L11.3639 10.4414C11.2858 10.4414 11.2389 10.4492 11.1764 10.4492C10.9498 10.4649 10.7077 10.4414 10.4967 10.4102L10.2311 17.0274H8.62171C8.37171 17.0274 8.18421 17.207 8.18421 17.457V18.8789H5.70765C5.46546 18.8789 5.27796 19.0664 5.27796 19.3086V20.7227H2.8014C2.55921 20.7227 2.35609 20.9258 2.35609 21.1602C2.35609 21.3945 2.56703 21.5899 2.8014 21.5899ZM0.934213 20.207C1.26234 20.3867 1.72328 20.3399 2.02015 19.8945L4.13734 16.7305C4.22328 16.6055 4.27015 16.457 4.3014 16.2695L4.62953 14.2461L3.43421 13.9727C3.24671 13.9336 3.06703 13.8711 2.88734 13.7852L2.7389 16.0195L0.731088 19.0274C0.387338 19.5508 0.582651 20.0117 0.934213 20.207Z"
		fill="currentColor"
	/>
</svg>
