<svg
	color="rgb(var(--foreground, 0, 0, 0))"
	viewBox="0 0 16 24"
	fill="none"
	xmlns="http://www.w3.org/2000/svg"
>
	<path
		d="M0.248768 11.759L0.701893 14.5559C0.88158 15.5871 2.28783 15.3762 2.12377 14.3527L1.72533 11.9387L3.31127 11.3215C3.55346 11.2277 3.76439 11.259 3.86596 11.4856L5.32689 14.3762C5.76439 15.2434 6.12377 15.509 6.48314 15.7668L11.1941 19.2277C12.0222 19.8371 13.0144 18.634 12.0847 17.9465L8.42064 15.259C8.24096 15.1262 8.25658 14.884 8.45189 14.7746L10.9441 13.3371L14.2097 14.8996C15.1472 15.3371 15.8894 14.0324 14.7956 13.509L11.3113 11.8527C10.8816 11.6496 10.4831 11.7121 10.1394 11.9152L8.49877 12.8762C8.28002 13.0012 8.12377 12.9387 8.04564 12.7746L6.72533 10.0871C6.60033 9.83712 6.63158 9.59493 6.90502 9.46212L8.10814 8.91524C8.50658 8.72774 8.65502 8.59493 8.76439 8.21212L9.53002 5.56368C9.81127 4.56368 8.46752 4.19649 8.17846 5.19649L7.43627 7.79024L0.780018 10.7199C0.326893 10.9152 0.16283 11.259 0.248768 11.759ZM3.29564 8.47774C4.24096 8.47774 4.99877 7.71993 4.99877 6.77462C4.99877 5.83712 4.24096 5.07149 3.29564 5.07149C2.35033 5.07149 1.59252 5.83712 1.59252 6.77462C1.59252 7.71993 2.35033 8.47774 3.29564 8.47774Z"
		fill="currentColor"
	/>
</svg>
