<svg
	color="rgb(var(--foreground, 0, 0, 0))"
	viewBox="0 0 19 24"
	fill="none"
	xmlns="http://www.w3.org/2000/svg"
>
	<path
		d="M10.2288 6.90809C11.1663 6.90809 11.9319 6.13464 11.9319 5.19714C11.9319 4.25964 11.1663 3.49402 10.2288 3.49402C9.29126 3.49402 8.51782 4.25964 8.51782 5.19714C8.51782 6.13464 9.29126 6.90809 10.2288 6.90809ZM12.4241 20.4472C12.76 20.3143 13.0178 19.9706 12.885 19.494L11.7053 15.3768C11.6428 15.1815 11.5334 15.0253 11.3459 14.9159L8.88501 13.4706L10.0569 9.99403C10.1428 9.7284 10.4241 9.69715 10.6194 9.89246L12.3616 11.6268C12.5178 11.7753 12.7053 11.8612 12.9084 11.8612C13.1194 11.8612 13.3147 11.7909 13.4709 11.6268L15.8225 9.26746C16.1194 8.95496 16.1428 8.4784 15.8225 8.1659C15.5178 7.86121 15.0256 7.8534 14.7131 8.1659L12.9084 9.97059L11.4006 8.40809C10.7053 7.68934 9.96313 7.5409 8.51782 7.5409H2.21313V6.93934C2.83813 6.6034 3.29126 5.87683 3.29126 5.25183C3.29126 4.42371 2.64282 3.76746 1.82251 3.76746C1.0022 3.76746 0.345947 4.42371 0.345947 5.25183C0.345947 5.87683 0.799072 6.6034 1.42407 6.93934V7.5409H1.13501C0.705322 7.5409 0.345947 7.89246 0.345947 8.32996C0.345947 8.75965 0.705322 9.11121 1.13501 9.11121H6.61938C6.84595 9.11121 7.05688 9.29871 6.94751 9.61121L6.03345 12.3534C5.71313 13.3222 6.16626 14.3612 7.10376 14.7675L10.2834 16.1659L11.3772 19.9003C11.5334 20.455 12.0334 20.5878 12.4241 20.4472ZM13.2991 13.619H18.1194V12.7518H13.2991C13.0569 12.7518 12.8694 12.9393 12.8694 13.1815C12.8694 13.4237 13.0569 13.619 13.2991 13.619ZM2.45532 20.1737C2.65845 20.4706 3.05688 20.6268 3.49438 20.3925L7.0022 18.4472C7.17407 18.3534 7.29907 18.1972 7.36938 17.994L8.04126 16.0018L6.80688 15.4628C6.65845 15.3925 6.51782 15.3222 6.3772 15.2284L5.94751 17.2284L2.73657 19.0253C2.23657 19.3143 2.22095 19.8378 2.45532 20.1737Z"
		fill="currentColor"
	/>
</svg>
