<svg
	color="rgb(var(--foreground, 0, 0, 0))"
	viewBox="0 0 19 24"
	fill="none"
	xmlns="http://www.w3.org/2000/svg"
>
	<path
		d="M12.3239 7.67188C13.2692 7.67188 14.027 6.91406 14.027 5.96875C14.027 5.02344 13.2692 4.25781 12.3239 4.25781C11.3786 4.25781 10.613 5.02344 10.613 5.96875C10.613 6.91406 11.3786 7.67188 12.3239 7.67188ZM6.20672 17.9062C6.57391 18.1328 7.10516 18.0156 7.33953 17.6406L9.26141 14.5625L11.3473 14.6797L10.0427 16.7656C9.79266 17.1562 9.90203 17.6797 10.3005 17.9062C10.6911 18.1328 11.1911 18.0234 11.4255 17.6406L13.4489 14.4062C13.777 13.8672 13.5036 13.1875 12.7614 13.1094L9.34734 12.7266C9.01922 12.6875 8.88641 12.3359 9.05828 12.0938L10.4723 9.96875C10.5583 9.82812 10.7302 9.79688 10.8708 9.875L16.0505 12.9922C16.4333 13.2188 16.9567 13.1016 17.1755 12.7188C17.3942 12.3203 17.277 11.8203 16.8864 11.5859L6.65203 5.4375C6.51922 5.36719 6.37859 5.33594 6.23797 5.33594H2.95672C2.49578 5.33594 2.12859 5.69531 2.12859 6.14063C2.12859 6.59375 2.49578 6.96094 2.95672 6.96094H6.00359L7.43328 7.82031C7.58953 7.90625 7.62859 8.09375 7.53484 8.25L5.76141 10.9062C4.80047 12.3281 5.58953 14.2422 7.38641 14.4609L5.94109 16.7656C5.69891 17.1562 5.80828 17.6641 6.20672 17.9062ZM3.29266 19.7422H15.7458C16.6208 19.7422 17.3317 19.5625 17.8864 19.0859C18.1208 18.8906 18.113 18.6406 17.9802 18.4688C17.8473 18.2891 17.5739 18.2188 17.3317 18.4063C16.9098 18.7422 16.4802 18.875 15.7458 18.875H3.29266C2.55828 18.875 2.12859 18.7422 1.70672 18.4063C1.48016 18.2344 1.23797 18.2734 1.09734 18.4219C0.925469 18.5938 0.894219 18.8672 1.14422 19.0859C1.70672 19.5625 2.41766 19.7422 3.29266 19.7422Z"
		fill="currentColor"
	/>
</svg>
