<svg
	color="rgb(var(--foreground, 0, 0, 0))"
	viewBox="0 0 16 24"
	fill="none"
	xmlns="http://www.w3.org/2000/svg"
>
	<path
		d="M14.928 8.25671C14.8811 8.20984 14.842 8.17859 14.7952 8.14734V7.1864L15.5608 6.78796C15.8264 6.65515 15.9905 6.39734 15.9905 6.11609V3.66296C15.9905 3.23328 15.6623 2.88171 15.2248 2.88171H13.4905C13.0608 2.88171 12.717 3.23328 12.717 3.66296V6.11609C12.717 6.39734 12.8811 6.65515 13.1545 6.78796L13.928 7.1864V8.14734C13.8811 8.17859 13.8342 8.20984 13.7952 8.25671L11.8889 10.1473L9.98266 8.22546C9.60766 7.84265 9.01391 7.60828 8.42016 7.60828H3.28735C2.93578 7.60828 2.64672 7.81921 2.52172 8.16296L1.29516 11.8505C1.10766 12.4208 1.43578 12.8114 1.83422 12.9052C2.20141 13.0067 2.63891 12.8505 2.81078 12.3505L3.86547 9.20984H5.56078C5.71703 9.20984 5.82641 9.35046 5.77172 9.50671L4.73266 12.6317C4.38891 13.6473 4.70141 14.6239 5.84203 15.1239L9.17797 16.5848L10.303 20.5302C10.4436 21.0223 10.8967 21.1708 11.2795 21.0692C11.6702 20.9677 11.9905 20.6083 11.842 20.0848L10.6077 15.7723C10.5373 15.5458 10.428 15.3817 10.1623 15.2645L7.56078 14.1161L8.94359 9.95203C9.00609 9.78015 9.20922 9.71765 9.34203 9.85046L11.3186 11.8505C11.6311 12.163 12.1467 12.163 12.4592 11.8505L14.928 9.38953C15.2483 9.0614 15.2483 8.57703 14.928 8.25671ZM8.42016 6.78796C9.36547 6.78796 10.1233 6.03015 10.1233 5.08484C10.1233 4.13953 9.36547 3.3739 8.42016 3.3739C7.47485 3.3739 6.70922 4.13953 6.70922 5.08484C6.70922 6.03015 7.47485 6.78796 8.42016 6.78796ZM4.99828 15.5145L4.60766 17.7333L1.24828 19.6083C0.77172 19.8739 0.748283 20.3739 0.967033 20.7255C1.17016 21.0536 1.59203 21.2567 2.03735 21.0067L5.73266 18.9598C5.95922 18.827 6.03735 18.6786 6.11547 18.4364L6.81078 16.3661L5.53735 15.8114C5.34203 15.7255 5.16235 15.6239 4.99828 15.5145Z"
		fill="currentColor"
	/>
</svg>
