<svg
	color="rgb(var(--foreground, 0, 0, 0))"
	viewBox="0 0 17 24"
	fill="none"
	xmlns="http://www.w3.org/2000/svg"
>
	<path
		d="M8.52597 8.29993C9.46347 8.29993 10.2291 7.5343 10.2291 6.58118C10.2291 5.64368 9.46347 4.88586 8.52597 4.88586C7.57284 4.88586 6.81503 5.64368 6.81503 6.58118C6.81503 7.5343 7.57284 8.29993 8.52597 8.29993ZM1.26034 15.5265L5.18222 15.8546C5.88534 15.9171 6.03378 15.964 6.70566 16.1515L11.4869 17.4952L15.7838 19.0656C16.1588 19.1984 16.6666 19.0656 16.815 18.589C16.94 18.1749 16.7525 17.7218 16.3385 17.5734L12.0494 16.0109C11.9791 15.9874 11.8385 15.9327 11.7838 15.9093L8.44784 14.7062C8.89316 13.8546 9.49472 12.4874 9.65097 11.0031C9.66659 10.8312 9.77597 10.7452 9.93222 10.7452H15.6666C16.1119 10.7452 16.4557 10.3859 16.4557 9.94836C16.4557 9.50305 16.1119 9.15149 15.6666 9.15149H9.37753C8.32284 9.15149 8.22909 9.14368 7.08066 8.83118L1.13534 7.18274C0.705657 7.06555 0.275969 7.31555 0.150969 7.73743C0.0337819 8.16711 0.283782 8.60461 0.705657 8.7218L6.25253 10.2531C6.39316 10.2921 6.48691 10.4015 6.47128 10.5656C6.29159 11.964 5.61191 13.3156 5.25253 13.9327H2.11972V10.7452C2.11972 10.3077 1.74472 9.94836 1.31503 9.94836C0.877532 9.94836 0.518157 10.3077 0.518157 10.7452V14.7218C0.518157 15.1906 0.729094 15.4718 1.26034 15.5265Z"
		fill="currentColor"
	/>
</svg>
