<svg
	color="rgb(var(--foreground, 0, 0, 0))"
	viewBox="0 0 17 24"
	fill="none"
	xmlns="http://www.w3.org/2000/svg"
>
	<path
		d="M3.51394 19.4011H7.16238C7.46707 19.4011 7.77175 19.2605 7.928 18.9636L9.59207 15.9011C9.64675 15.7839 9.803 15.7917 9.84207 15.9089L10.7171 18.2527L7.56082 20.3542C7.19363 20.6042 7.09988 21.1042 7.34207 21.4871C7.58425 21.8621 8.09207 21.9636 8.46707 21.7058L12.053 19.3308C12.4124 19.0886 12.5843 18.7058 12.4827 18.2839L10.2952 9.58862C10.2171 9.29956 10.2952 9.14331 10.5139 9.03394L16.1702 6.20581C16.5764 6.00269 16.7327 5.50269 16.5374 5.10425C16.3343 4.698 15.8499 4.52612 15.4358 4.73706L3.68582 10.6199L1.81082 8.74487C1.71707 8.65112 1.6155 8.573 1.51394 8.50269L3.21707 5.51831C3.32644 5.54175 3.44363 5.55737 3.56863 5.55737C4.51394 5.55737 5.27175 4.79956 5.27175 3.85425C5.27175 2.90894 4.51394 2.15112 3.56863 2.15112C2.62332 2.15112 1.8655 2.90894 1.8655 3.85425C1.8655 4.36206 2.08425 4.81519 2.43582 5.12769L0.334255 8.79956C0.154567 9.11987 0.217067 9.46362 0.482692 9.72925L2.93582 12.1902C3.15457 12.4011 3.54519 12.5183 3.95144 12.3152L6.73269 10.9167C6.928 10.823 7.10769 10.9089 7.14675 11.073L7.98269 14.4324L6.64675 17.7605H3.51394C3.053 17.7605 2.69363 18.1199 2.69363 18.5808C2.69363 19.0261 3.053 19.4011 3.51394 19.4011ZM3.56863 4.69019C3.08425 4.69019 2.73269 4.33081 2.73269 3.85425C2.73269 3.37769 3.08425 3.01831 3.56863 3.01831C4.04519 3.01831 4.40457 3.37769 4.40457 3.85425C4.40457 4.33081 4.04519 4.69019 3.56863 4.69019ZM7.63894 7.53394C8.57644 7.53394 9.34207 6.77612 9.34207 5.83081C9.34207 4.89331 8.57644 4.12769 7.63894 4.12769C6.69363 4.12769 5.93582 4.89331 5.93582 5.83081C5.93582 6.77612 6.69363 7.53394 7.63894 7.53394Z"
		fill="currentColor"
	/>
</svg>
