<svg
	color="rgb(var(--foreground, 0, 0, 0))"
	viewBox="0 0 14 24"
	fill="none"
	xmlns="http://www.w3.org/2000/svg"
>
	<path
		d="M2.13695 21.4818C2.57445 21.5599 2.9807 21.2709 3.06664 20.8177L3.80882 16.8256L6.9182 15.1381C7.00414 15.0834 7.08226 15.1068 7.12132 15.1927L8.69164 18.9818C8.78539 19.1849 8.92601 19.3256 9.1057 19.4193L12.6369 21.3802C13.0823 21.6381 13.551 21.4271 13.7385 21.0756C13.9651 20.6927 13.8166 20.1849 13.426 19.9662L10.1369 18.1459L7.91039 9.23181C7.77757 8.70056 7.31664 8.31775 6.74632 8.31775H1.97289L4.20726 3.56775C4.51195 2.92712 4.05101 2.50525 3.58226 2.50525C3.31664 2.50525 3.05882 2.63806 2.92601 2.96619L0.347887 9.68494C0.222887 10.0052 0.324449 10.3021 0.519762 10.4974L2.51195 12.4974C2.81664 12.7943 3.34007 12.7943 3.64476 12.4974L4.52757 11.6068C4.64476 11.4896 4.82445 11.4896 4.87132 11.6615L5.34789 13.5756L2.59007 15.6459C2.39476 15.7943 2.30882 16.0287 2.26195 16.2474L1.48851 20.5365C1.41039 20.9584 1.69945 21.3959 2.13695 21.4818ZM6.44945 7.49744C7.38695 7.49744 8.14476 6.73962 8.14476 5.79431C8.14476 4.85681 7.38695 4.099 6.44945 4.099C5.49632 4.099 4.73851 4.85681 4.73851 5.79431C4.73851 6.73962 5.49632 7.49744 6.44945 7.49744ZM3.90257 9.92712L3.07445 10.7552L2.24632 9.92712H3.90257Z"
		fill="currentColor"
	/>
</svg>
