<svg
	color="rgb(var(--foreground, 0, 0, 0))"
	viewBox="0 0 21 24"
	fill="none"
	xmlns="http://www.w3.org/2000/svg"
>
	<path
		d="M16.5374 7.91016C17.4749 7.91016 18.2327 7.14453 18.2327 6.19922C18.2327 5.26172 17.4749 4.49609 16.5374 4.49609C15.5842 4.49609 14.8186 5.26172 14.8186 6.19922C14.8186 7.14453 15.5842 7.91016 16.5374 7.91016ZM10.8889 16.4258C11.3186 16.4258 11.6702 16.0742 11.6702 15.6445V11.7148C11.6702 11.5273 11.5999 11.3555 11.4514 11.1836L9.40454 8.90234C9.27954 8.76172 9.36548 8.55078 9.56079 8.55078H12.0686C12.3733 8.55078 12.467 8.76953 12.467 8.98047V10.9258C12.467 11.3555 12.8186 11.6992 13.2483 11.6992H16.3967C16.8264 11.6992 17.1702 11.3555 17.1702 10.9258C17.1702 10.4961 16.8264 10.1445 16.3967 10.1445H14.0295V7.37891C14.0295 6.50391 13.3342 5.80859 12.4592 5.80859H8.62329C7.82642 5.80859 7.12329 6.29297 6.81079 7.01953C6.5061 7.76172 6.67798 8.58984 7.24048 9.16016L10.1077 12.043V15.6445C10.1077 16.0742 10.4592 16.4258 10.8889 16.4258ZM5.23267 19.5039C7.59204 19.5039 9.48267 17.6133 9.48267 15.2539C9.48267 12.9023 7.59204 11.0039 5.23267 11.0039C2.8811 11.0039 0.990479 12.9023 0.990479 15.2539C0.990479 17.6133 2.8811 19.5039 5.23267 19.5039ZM18.6311 12.918C19.2639 13.4883 19.678 14.3242 19.678 15.2539C19.678 16.9883 18.2639 18.4023 16.5374 18.4023C14.803 18.4023 13.3889 16.9883 13.3889 15.2539C13.3889 14.8164 13.4749 14.3867 13.6389 14.0117C13.8186 13.5898 13.6389 13.293 13.3655 13.1992C13.1077 13.0977 12.803 13.1836 12.6624 13.5195C12.4202 14.0586 12.2874 14.6367 12.2874 15.2539C12.2874 17.6133 14.178 19.5039 16.5374 19.5039C18.8889 19.5039 20.7795 17.6133 20.7795 15.2539C20.7795 13.9727 20.2249 12.8477 19.3264 12.0586C19.0374 11.8086 18.7092 11.8711 18.5139 12.082C18.3264 12.293 18.2952 12.6211 18.6311 12.918ZM5.23267 18.4023C3.5061 18.4023 2.09204 16.9883 2.09204 15.2539C2.09204 13.5195 3.5061 12.1055 5.23267 12.1055C6.96704 12.1055 8.3811 13.5195 8.3811 15.2539C8.3811 16.9883 6.96704 18.4023 5.23267 18.4023Z"
		fill="currentColor"
	/>
</svg>
