<svg
	color="rgb(var(--foreground, 0, 0, 0))"
	viewBox="0 0 20 24"
	fill="none"
	xmlns="http://www.w3.org/2000/svg"
>
	<path
		d="M10.0581 8.78126C11.0034 8.78126 11.769 8.01563 11.769 7.07032C11.769 6.12501 11.0034 5.35938 10.0581 5.35938C9.11279 5.35938 8.35498 6.12501 8.35498 7.07032C8.35498 8.01563 9.11279 8.78126 10.0581 8.78126ZM1.67529 7.60938L7.41748 10.6875C7.60498 10.7891 7.71436 10.9844 7.65186 11.1953L7.09717 13.2188C8.55029 13.5156 9.04248 14.4063 10.1128 14.4063C10.4097 14.4063 10.6597 14.3281 10.9019 14.2109L11.6597 11.4141C11.7378 11.125 11.8159 10.9688 12.1128 10.8203L18.1284 7.60938C18.5581 7.37501 18.7222 6.83595 18.5034 6.40626C18.2534 5.97657 17.73 5.80469 17.2925 6.03906L11.3237 9.20313C10.3862 9.70313 9.49561 9.76563 8.37061 9.16407L2.51123 6.03906C2.07373 5.80469 1.53467 5.97657 1.30811 6.40626C1.07373 6.83595 1.24561 7.37501 1.67529 7.60938ZM1.30811 16.4688H2.09717C4.18311 16.4688 4.65967 15.1797 6.10498 15.1797C7.55029 15.1797 8.02686 16.4688 10.1128 16.4688C12.2065 16.4688 12.6753 15.1797 14.1284 15.1797C15.5737 15.1797 16.0425 16.4688 18.1362 16.4688H18.9253C19.1675 16.4688 19.3628 16.2813 19.3628 16.0391C19.3628 15.7969 19.1675 15.6016 18.9253 15.6016H18.1362C16.6362 15.6016 16.1284 14.3125 14.1284 14.3125C12.1206 14.3125 11.6128 15.6016 10.1128 15.6016C8.61279 15.6016 8.11279 14.3125 6.10498 14.3125C4.10498 14.3125 3.59717 15.6016 2.09717 15.6016H1.30811C1.05811 15.6016 0.870605 15.7969 0.870605 16.0391C0.870605 16.2813 1.05811 16.4688 1.30811 16.4688ZM5.82373 17.3828C6.08154 17.3828 6.28467 17.1797 6.28467 16.9219C6.28467 16.6719 6.08154 16.4688 5.82373 16.4688C5.57373 16.4688 5.37061 16.6719 5.37061 16.9219C5.37061 17.1797 5.57373 17.3828 5.82373 17.3828ZM14.4253 17.3828C14.6831 17.3828 14.8784 17.1797 14.8784 16.9219C14.8784 16.6719 14.6831 16.4688 14.4253 16.4688C14.1675 16.4688 13.9722 16.6719 13.9722 16.9219C13.9722 17.1797 14.1675 17.3828 14.4253 17.3828ZM4.34717 17.7266C4.60498 17.7266 4.80811 17.5313 4.80811 17.2734C4.80811 17.0156 4.60498 16.8203 4.34717 16.8203C4.09717 16.8203 3.89404 17.0156 3.89404 17.2734C3.89404 17.5313 4.09717 17.7266 4.34717 17.7266ZM7.30029 17.7266C7.55811 17.7266 7.75342 17.5313 7.75342 17.2734C7.75342 17.0156 7.55811 16.8203 7.30029 16.8203C7.04248 16.8203 6.84717 17.0156 6.84717 17.2734C6.84717 17.5313 7.04248 17.7266 7.30029 17.7266ZM12.9487 17.7266C13.2065 17.7266 13.4097 17.5313 13.4097 17.2734C13.4097 17.0156 13.2065 16.8203 12.9487 16.8203C12.6987 16.8203 12.4956 17.0156 12.4956 17.2734C12.4956 17.5313 12.6987 17.7266 12.9487 17.7266ZM15.9019 17.7266C16.1597 17.7266 16.355 17.5313 16.355 17.2734C16.355 17.0156 16.1597 16.8203 15.9019 16.8203C15.644 16.8203 15.4487 17.0156 15.4487 17.2734C15.4487 17.5313 15.644 17.7266 15.9019 17.7266ZM2.97998 18.375C3.22998 18.375 3.43311 18.1719 3.43311 17.9219C3.43311 17.6641 3.22998 17.4609 2.97998 17.4609C2.72217 17.4609 2.51904 17.6641 2.51904 17.9219C2.51904 18.1719 2.72217 18.375 2.97998 18.375ZM8.68311 18.375C8.94092 18.375 9.14404 18.1719 9.14404 17.9219C9.14404 17.6641 8.94092 17.4609 8.68311 17.4609C8.43311 17.4609 8.22998 17.6641 8.22998 17.9219C8.22998 18.1719 8.43311 18.375 8.68311 18.375ZM11.5659 18.375C11.8237 18.375 12.019 18.1719 12.019 17.9219C12.019 17.6641 11.8237 17.4609 11.5659 17.4609C11.3081 17.4609 11.1128 17.6641 11.1128 17.9219C11.1128 18.1719 11.3081 18.375 11.5659 18.375ZM17.2769 18.375C17.5347 18.375 17.73 18.1719 17.73 17.9219C17.73 17.6641 17.5347 17.4609 17.2769 17.4609C17.019 17.4609 16.8237 17.6641 16.8237 17.9219C16.8237 18.1719 17.019 18.375 17.2769 18.375ZM1.51123 18.6406C1.76904 18.6406 1.97217 18.4375 1.97217 18.1797C1.97217 17.9297 1.76904 17.7266 1.51123 17.7266C1.26123 17.7266 1.05811 17.9297 1.05811 18.1797C1.05811 18.4375 1.26123 18.6406 1.51123 18.6406ZM10.1284 18.6406C10.3784 18.6406 10.5815 18.4375 10.5815 18.1797C10.5815 17.9297 10.3784 17.7266 10.1284 17.7266C9.87061 17.7266 9.66748 17.9297 9.66748 18.1797C9.66748 18.4375 9.87061 18.6406 10.1284 18.6406ZM18.73 18.6406C18.9878 18.6406 19.1909 18.4375 19.1909 18.1797C19.1909 17.9297 18.9878 17.7266 18.73 17.7266C18.48 17.7266 18.2769 17.9297 18.2769 18.1797C18.2769 18.4375 18.48 18.6406 18.73 18.6406Z"
		fill="currentColor"
	/>
</svg>
