<svg
	color="rgb(var(--foreground, 0, 0, 0))"
	viewBox="0 0 16 24"
	fill="none"
	xmlns="http://www.w3.org/2000/svg"
>
	<path
		d="M3.95483 4.80029C4.48608 4.80029 4.9314 4.37061 4.9314 3.82373C4.9314 3.28467 4.48608 2.84717 3.95483 2.84717C3.40015 2.84717 2.98608 3.28467 2.98608 3.82373C2.98608 4.37061 3.40015 4.80029 3.95483 4.80029ZM2.27515 19.9409L6.97046 21.1206C7.63452 21.2847 8.07983 20.8003 7.9939 20.1831L7.5564 17.1909H11.2751L14.1814 20.1362C14.4861 20.4409 14.9939 20.4409 15.2986 20.1362C15.6267 19.8315 15.6111 19.3159 15.2986 19.0034L12.2283 15.9175C12.0173 15.7065 11.9314 15.644 11.5798 15.605L8.21265 15.269L7.36108 12.6987C7.29858 12.519 7.43921 12.3394 7.63452 12.3784L13.7908 13.605C14.1892 13.6831 14.6345 13.4722 14.7126 12.9956C14.783 12.5659 14.533 12.1519 14.1033 12.0659L5.59546 10.3706C4.84546 10.2222 4.44702 10.1128 4.11108 9.78467L2.47046 8.15967V4.52685C2.47046 4.08935 2.1189 3.73779 1.68921 3.73779C1.23608 3.73779 0.892334 4.08935 0.892334 4.52685V8.35498C0.892334 8.6831 0.931396 8.8706 1.16577 9.10498L2.9939 10.9253C3.3689 11.3081 3.41577 11.4409 3.54858 11.8237L6.01733 19.2456L2.65796 18.4019C2.23608 18.2925 1.8064 18.5581 1.71265 18.9878C1.6189 19.4019 1.86108 19.8315 2.27515 19.9409ZM6.4314 9.67529C7.37671 9.67529 8.14233 8.90967 8.14233 7.96435C8.14233 7.01904 7.37671 6.26123 6.4314 6.26123C5.48608 6.26123 4.72827 7.01904 4.72827 7.96435C4.72827 8.90967 5.48608 9.67529 6.4314 9.67529Z"
		fill="currentColor"
	/>
</svg>
