<svg
	color="rgb(var(--foreground, 0, 0, 0))"
	viewBox="0 0 14 24"
	fill="none"
	xmlns="http://www.w3.org/2000/svg"
>
	<path
		d="M6.91181 5.83203C7.84931 5.83203 8.61494 5.05859 8.61494 4.12109C8.61494 3.18359 7.84931 2.41016 6.91181 2.41016C5.97431 2.41016 5.20087 3.18359 5.20087 4.12109C5.20087 5.05859 5.97431 5.83203 6.91181 5.83203ZM0.763374 11.8086C1.16962 11.8789 1.60712 11.6836 1.70869 11.207L2.37275 8.23829H3.55244C3.70087 8.23829 3.81025 8.36329 3.77119 8.51173L2.98212 11.5508C2.654 12.7852 3.4665 14.0039 5.02119 13.6133L7.88837 12.9024L7.33369 15.668C7.24775 16.0899 7.529 16.5195 7.95087 16.6133C8.31806 16.6914 8.79462 16.457 8.89619 15.9883L9.69306 11.9961C9.81025 11.418 9.31806 10.9805 8.83369 11.0274L6.28681 11.2774L7.03681 8.4336C7.06806 8.31641 7.19306 8.23829 7.31025 8.28516L10.2321 9.39454C10.7634 9.59766 11.3024 9.29298 11.3024 8.73829V5.05078C11.3024 4.61328 10.9509 4.25391 10.4977 4.25391C10.0602 4.25391 9.70087 4.61328 9.70087 5.05078V7.48829L8.20869 6.91016C7.72431 6.73048 7.19306 6.63673 6.66181 6.63673H1.72431C1.34931 6.63673 1.029 6.90235 0.950874 7.26173L0.153999 10.8555C0.0524361 11.293 0.325874 11.7305 0.763374 11.8086ZM4.36494 21.4024C4.73212 21.4805 5.2165 21.2305 5.30244 20.7774L6.09931 16.7852C6.11494 16.7149 6.11494 16.6289 6.11494 16.5586V14.1289L5.20087 14.3477C4.84931 14.4414 4.52119 14.4649 4.2165 14.4414L4.51337 16.5899L3.73994 20.4492C3.654 20.8867 3.92744 21.3164 4.36494 21.4024ZM7.41181 19.832H12.5993C12.8415 19.832 13.0368 19.6367 13.0368 19.3945C13.0368 19.1524 12.8415 18.9649 12.5993 18.9649H7.41181C7.16962 18.9649 6.97431 19.1524 6.97431 19.3945C6.97431 19.6367 7.16962 19.832 7.41181 19.832ZM6.60712 21.5899H13.3884C13.6306 21.5899 13.8259 21.3945 13.8259 21.1524C13.8259 20.9102 13.6306 20.7227 13.3884 20.7227H6.60712C6.36494 20.7227 6.17744 20.9102 6.17744 21.1524C6.17744 21.3945 6.36494 21.5899 6.60712 21.5899Z"
		fill="currentColor"
	/>
</svg>
