<svg
	color="rgb(var(--foreground, 0, 0, 0))"
	viewBox="0 0 13 24"
	fill="none"
	xmlns="http://www.w3.org/2000/svg"
>
	<path
		d="M5.61626 6.23438C6.55376 6.23438 7.31939 5.46875 7.31939 4.53906C7.31939 3.60156 6.55376 2.83594 5.61626 2.83594C4.67876 2.83594 3.91314 3.60156 3.91314 4.53906C3.91314 5.46875 4.67876 6.23438 5.61626 6.23438ZM1.10064 10.2422C0.178761 11.5234 0.991261 13.2578 2.81939 12.9844L5.68657 12.5547L4.5772 15.8516C4.2022 16.9453 5.73345 17.3984 6.0772 16.3672L7.55376 11.8906C7.73345 11.3516 7.39751 10.8203 6.7647 10.8203H3.93657L5.42095 8.84375C5.56939 8.64063 5.66314 8.61719 5.85845 8.61719H11.7022C12.1319 8.61719 12.4834 8.27344 12.4834 7.83594C12.4834 7.40625 12.1397 7.05469 11.7022 7.05469H4.27251C3.72564 7.05469 3.19439 7.33594 2.85064 7.80469L1.10064 10.2422ZM1.78814 20.5703C1.78814 20.9297 2.03814 21.1641 2.40532 21.1641H8.2647C8.63189 21.1641 8.87407 20.9297 8.87407 20.5703V18.2188C8.87407 17.8672 8.63189 17.6328 8.2647 17.6328H2.40532C2.03814 17.6328 1.78814 17.8672 1.78814 18.2188V20.5703Z"
		fill="currentColor"
	/>
</svg>
