<svg
	color="rgb(var(--foreground, 0, 0, 0))"
	viewBox="0 0 23 24"
	fill="none"
	xmlns="http://www.w3.org/2000/svg"
>
	<path
		d="M8.92358 6.10571C9.58765 6.10571 10.1189 5.58228 10.1189 4.9104C10.1189 4.24634 9.58765 3.70728 8.92358 3.70728C8.25952 3.70728 7.72046 4.24634 7.72046 4.9104C7.72046 5.58228 8.25952 6.10571 8.92358 6.10571ZM13.3767 8.32446C14.3142 8.32446 15.0798 7.55884 15.0798 6.60571C15.0798 5.66821 14.3142 4.9104 13.3767 4.9104C12.4236 4.9104 11.6658 5.66821 11.6658 6.60571C11.6658 7.55884 12.4236 8.32446 13.3767 8.32446ZM1.64233 16.7542H5.91577C6.15015 16.7542 6.25171 16.7307 6.42358 16.6917L10.7517 15.6448C10.822 15.6292 10.8845 15.6917 10.8767 15.762L10.5876 18.1213L8.89233 16.9104C8.53296 16.6526 8.03296 16.7385 7.78296 17.0979C7.51733 17.4573 7.59546 17.9573 7.95483 18.2151L10.572 20.0588C11.1501 20.4651 11.8533 20.3323 12.0017 19.7385L14.158 11.0901C14.1892 10.9885 14.2908 10.926 14.3923 10.9495L21.4392 12.3479C22.0408 12.4729 22.3845 12.0198 22.3845 11.5745C22.3845 11.2307 22.1892 10.8792 21.7517 10.7932L14.8064 9.39478C12.7439 8.98853 11.4626 8.79321 9.9939 8.79321H8.03296V6.79321C8.03296 6.34009 7.67358 5.99634 7.23608 5.99634C6.78296 5.99634 6.4314 6.34009 6.4314 6.79321V9.58228C6.4314 10.0198 6.78296 10.3792 7.23608 10.3792H10.533C10.6814 10.3792 10.783 10.512 10.7439 10.6526L10.1033 13.1213C10.0017 13.5198 9.72827 13.8245 9.33765 13.9651L5.90015 15.1604H1.64233C1.19702 15.1604 0.853271 15.5198 0.853271 15.9651C0.853271 16.4104 1.19702 16.7542 1.64233 16.7542Z"
		fill="currentColor"
	/>
</svg>
