<svg
	color="rgb(var(--foreground, 0, 0, 0))"
	viewBox="0 0 18 24"
	fill="none"
	xmlns="http://www.w3.org/2000/svg"
>
	<path
		d="M8.6663 6.41626C9.6038 6.41626 10.3616 5.65845 10.3616 4.70532C10.3616 3.76782 9.6038 3.01001 8.6663 3.01001C7.71317 3.01001 6.95536 3.76782 6.95536 4.70532C6.95536 5.65845 7.71317 6.41626 8.6663 6.41626ZM1.47098 20.7522C1.76786 21.0413 2.26005 21.0959 2.6038 20.7522L6.02567 17.3381C6.23661 17.135 6.27567 16.9709 6.25223 16.6663L6.05692 14.4631C6.0413 14.3225 6.17411 14.26 6.26786 14.3459L8.72098 16.4553L9.99442 20.4163C10.1429 20.8772 10.6116 21.0569 11.01 20.9397C11.4632 20.8069 11.6741 20.3538 11.5335 19.9241L10.2132 15.7522C10.1741 15.635 10.1038 15.5022 10.01 15.4163L7.36942 12.8069L9.06473 9.41626C9.13505 9.27563 9.30692 9.24438 9.42411 9.36157L11.3225 11.2756C11.4085 11.3616 11.5335 11.4319 11.6585 11.4709L15.4632 12.6116C15.7757 12.7053 16.2991 12.5803 16.4632 12.0569C16.5882 11.635 16.346 11.1741 15.9163 11.0491L12.3147 9.98657L10.26 7.90845C9.7913 7.4397 9.25223 7.23657 8.61161 7.23657H3.17411C2.86161 7.23657 2.58817 7.40845 2.45536 7.68188L0.93192 10.7131C0.736608 11.1038 0.877233 11.5959 1.2913 11.7913C1.70536 11.9866 2.17411 11.8381 2.37723 11.4241L3.6663 8.85376H5.27567C5.45536 8.85376 5.56473 9.02563 5.4788 9.19751L4.29911 11.5647C3.87723 12.4006 3.76005 13.3772 3.99442 14.2991L4.55692 16.51L1.45536 19.5959C1.14286 19.9006 1.15067 20.4319 1.47098 20.7522ZM15.6897 17.1975C16.721 17.1975 17.5491 16.3616 17.5491 15.3381C17.5491 14.3147 16.721 13.4866 15.6897 13.4866C14.6663 13.4866 13.8382 14.3147 13.8382 15.3381C13.8382 16.3616 14.6663 17.1975 15.6897 17.1975Z"
		fill="currentColor"
	/>
</svg>
