<svg
	color="rgb(var(--foreground, 0, 0, 0))"
	viewBox="0 0 23 24"
	fill="none"
	xmlns="http://www.w3.org/2000/svg"
>
	<path
		d="M4.43164 15.6133C4.12695 16.3945 4.42383 17.1992 5.07227 17.6523C6.12695 18.3867 7.11133 18.6602 8.68164 18.6602H11.1738C13.0957 18.6602 13.6113 17.1523 12.9551 15.8867L10.9473 12.0117V6.15234C10.9473 5.69141 10.5879 5.33984 10.1191 5.33984C9.66602 5.33984 9.32227 5.69141 9.32227 6.15234V12.207C9.32227 12.3164 9.33008 12.4023 9.35352 12.4805L10.4863 15.7227H9.01758C8.07227 15.7227 7.52539 15.457 6.7832 15.0117C6.58789 14.8945 6.5332 14.7148 6.61914 14.4883L8.43945 9.83203C8.60352 9.41797 8.39258 8.93359 7.9707 8.77734C7.5332 8.61328 7.08008 8.81641 6.91602 9.24609L4.43164 15.6133ZM2.57227 15.0664C3.50977 15.0664 4.27539 14.3086 4.27539 13.3633C4.27539 12.418 3.50977 11.6523 2.57227 11.6523C1.62695 11.6523 0.861328 12.418 0.861328 13.3633C0.861328 14.3086 1.62695 15.0664 2.57227 15.0664ZM14.0254 17.3945L16.916 16.4492L21.5332 15.6133C21.9785 15.5352 22.2754 15.1289 22.1973 14.668C22.1113 14.2227 21.6895 13.9336 21.2441 14.0117L13.627 15.3945L13.6895 15.5039C14.0645 16.1289 14.127 16.8164 14.0254 17.3945Z"
		fill="currentColor"
	/>
</svg>
