<svg
	color="rgb(var(--foreground, 0, 0, 0))"
	viewBox="0 0 17 24"
	fill="none"
	xmlns="http://www.w3.org/2000/svg"
>
	<path
		d="M1.10052 10.6016H4.99115L7.38177 12.7734C7.48334 12.8594 7.42865 13.0078 7.29584 13.0078H4.56927C4.3349 13.0078 4.10052 13.0625 3.93646 13.2266L1.03802 16.1328C0.725525 16.4531 0.717712 16.9453 1.03802 17.2656C1.35052 17.5781 1.85834 17.5781 2.17084 17.2656L4.7724 14.6641L7.66302 15.1406V16.6016C7.66302 17.8594 8.55365 18.6328 9.70209 18.6328C10.1396 18.6328 10.538 18.5078 10.8661 18.2812V22.5781C10.8661 22.8203 11.0536 23.0156 11.2958 23.0156C11.5458 23.0156 11.7333 22.8203 11.7333 22.5781V17.2812C11.7802 17.25 11.8349 17.2109 11.874 17.1719L14.2724 14.7734C14.4208 14.625 14.5068 14.4062 14.5068 14.2031V10.6328C14.5068 10.1172 14.3427 9.69531 14.038 9.39844L9.28802 4.66406V6.92969L11.3349 8.97656C11.4833 9.125 11.4755 9.28906 11.3349 9.42188L9.2099 11.5547L8.53021 11.0781V1.41406C8.53021 1.17969 8.3349 0.984375 8.10052 0.984375C7.86615 0.984375 7.66302 1.17969 7.66302 1.41406V10.4688L5.75677 9.13281C5.60834 9.03125 5.49115 8.99219 5.2724 8.99219H1.10052C0.655212 8.99219 0.295837 9.35156 0.295837 9.79688C0.295837 10.2344 0.655212 10.6016 1.10052 10.6016ZM14.9599 8.46094C15.8974 8.46094 16.6552 7.70312 16.6552 6.75781C16.6552 5.82031 15.8974 5.0625 14.9599 5.0625C14.0146 5.0625 13.249 5.82031 13.249 6.75781C13.249 7.70312 14.0146 8.46094 14.9599 8.46094ZM12.538 12.5C12.6865 12.3516 12.8974 12.4375 12.8974 12.6406V13.875L11.7333 15.0391V13.3047L12.538 12.5ZM8.53021 16.6016V15.2344C9.35052 15.2188 10.1474 14.8906 10.7411 14.2891L10.8661 14.1719V15.9062L10.7333 16.0391C10.4286 16.3516 10.4286 16.8516 10.7255 17.1641C10.538 17.5312 10.1552 17.7656 9.70209 17.7656C9.03802 17.7656 8.53021 17.3594 8.53021 16.6016Z"
		fill="currentColor"
	/>
</svg>
