<svg
	color="rgb(var(--foreground, 0, 0, 0))"
	viewBox="0 0 12 24"
	fill="none"
	xmlns="http://www.w3.org/2000/svg"
>
	<path
		d="M4.61768 22.6211C5.02393 22.6211 5.37549 22.2695 5.37549 21.8633V17.7695L5.75049 14.7305L6.11768 17.7695V21.8633C6.11768 22.2695 6.46924 22.6211 6.87549 22.6211C7.28955 22.6211 7.6333 22.2695 7.6333 21.8633V10.9648C7.6333 10.8711 7.7583 10.8555 7.79736 10.9336C8.75049 12.6992 9.31299 14.2773 9.53955 14.9648C9.68018 15.3477 10.1099 15.5664 10.5005 15.4336C10.8052 15.332 11.0005 15.043 11.0083 14.7305V9.29297C11.0083 4.26953 9.11768 1.37891 5.75049 1.37891C2.39111 1.37891 0.500488 4.26953 0.500488 9.29297V14.6133C0.492676 14.6523 0.492676 14.6914 0.492676 14.7305C0.492676 15.0352 0.687988 15.332 1.00049 15.4336C1.39111 15.5664 1.81299 15.3477 1.95361 14.9648C2.18799 14.2773 2.74268 12.6992 3.70361 10.9336C3.74268 10.8555 3.86768 10.8711 3.86768 10.9648V21.8633C3.86768 22.2695 4.21143 22.6211 4.61768 22.6211ZM5.75049 2.24609C8.55518 2.24609 10.1411 4.83203 10.1411 9.29297V12.3242C9.59424 11.0586 8.83643 9.53516 7.98486 8.57422C7.64111 8.18359 7.1333 7.94922 6.58643 7.94922H4.90674C4.35986 7.94922 3.85205 8.18359 3.51611 8.57422C2.67236 9.52734 1.90674 11.043 1.36768 12.3008V9.29297C1.36768 4.83203 2.9458 2.24609 5.75049 2.24609ZM5.75049 7.14453C6.67236 7.14453 7.42236 6.39453 7.42236 5.45703C7.42236 4.52734 6.67236 3.78515 5.75049 3.78515C4.81299 3.78515 4.06299 4.52734 4.06299 5.45703C4.06299 6.39453 4.81299 7.14453 5.75049 7.14453Z"
		fill="currentColor"
	/>
</svg>
