<svg
	color="rgb(var(--foreground, 0, 0, 0))"
	viewBox="0 0 14 24"
	fill="none"
	xmlns="http://www.w3.org/2000/svg"
>
	<path
		d="M6.20341 6.13855C7.1331 6.13855 7.90653 5.37292 7.90653 4.43542C7.90653 3.49792 7.1331 2.72449 6.20341 2.72449C5.26591 2.72449 4.49247 3.49792 4.49247 4.43542C4.49247 5.37292 5.26591 6.13855 6.20341 6.13855ZM0.929971 8.43543H3.46903C3.58622 8.43543 3.68778 8.52918 3.67216 8.64637L3.42997 11.9432C3.34403 13.1229 4.03153 13.8573 5.03153 14.0604L8.29716 14.7479L9.00028 18.2479C9.09403 18.7245 9.57841 18.9511 9.93778 18.8807C10.3753 18.7948 10.6565 18.3651 10.5706 17.9276L9.77372 13.9042C9.71122 13.5917 9.4456 13.3729 9.14872 13.2714L6.62528 12.4823L6.84403 9.43543C6.86747 9.20106 7.08622 9.11512 7.26591 9.26356L8.46122 10.2557C8.60966 10.3729 8.78153 10.4432 8.97685 10.4432H12.6018C13.0472 10.4432 13.3987 10.0839 13.3987 9.63856C13.3987 9.19324 13.0472 8.84168 12.6018 8.84168H9.26591L7.52372 7.38856C7.08622 7.02918 6.68778 6.82606 6.06278 6.82606H2.01591L2.91435 3.84167C3.03935 3.41199 2.79716 2.95886 2.37528 2.83386C1.9456 2.70886 1.48466 2.95105 1.35966 3.38074L0.164346 7.39637C0.00809637 7.92762 0.258096 8.43543 0.929971 8.43543ZM4.32841 21.2401C4.71122 21.3573 5.18778 21.1854 5.33622 20.7089L6.53153 16.7167C6.56278 16.6073 6.5706 16.4901 6.5706 16.3651V15.1542L4.8831 14.7948C4.84403 14.787 4.81278 14.787 4.78153 14.7792L4.95341 16.3651L3.78935 20.2479C3.66435 20.662 3.90653 21.1151 4.32841 21.2401Z"
		fill="currentColor"
	/>
</svg>
