<svg
	color="rgb(var(--foreground, 0, 0, 0))"
	viewBox="0 0 18 24"
	fill="none"
	xmlns="http://www.w3.org/2000/svg"
>
	<path
		d="M10.4976 7.9375C11.4351 7.9375 12.2007 7.17969 12.2007 6.22656C12.2007 5.28906 11.4351 4.52344 10.4976 4.52344C9.54443 4.52344 8.78662 5.28906 8.78662 6.22656C8.78662 7.17969 9.54443 7.9375 10.4976 7.9375ZM11.7241 13.3203C12.1851 13.3203 12.5522 12.9609 12.5522 12.5C12.5522 12.0391 12.1851 11.6797 11.7241 11.6797H8.85693V8.74219C8.85693 7.76562 8.03662 7.14062 7.13037 7.32812L2.30225 8.32812C0.552246 8.6875 0.0756836 10.7578 1.34912 11.875L4.34912 14.5156V18.6562C4.34912 19.1016 4.72412 19.4766 5.16943 19.4766C5.61475 19.4766 5.98975 19.1016 5.98975 18.6562V14.2031C5.98975 13.9141 5.92725 13.7578 5.74756 13.5625L3.43506 11.2344C3.31006 11.1016 3.37256 10.9219 3.52881 10.8906L6.77881 10.2891C7.09912 10.2266 7.21631 10.3359 7.21631 10.6172V12.5C7.21631 12.9609 7.59131 13.3203 8.03662 13.3203H11.7241ZM16.1382 16.4219H17.2788C17.6694 16.4219 17.9272 16.1641 17.9272 15.7734V8.75781C17.9272 8.39062 17.6694 8.13281 17.2944 8.13281H16.1069C13.3179 8.13281 11.6304 8.85938 9.85693 10.9219H11.0913C12.4897 9.54688 13.9272 9.03125 16.1069 9.03125H17.021V15.5078H16.1382C15.8491 15.5078 15.6382 15.3672 15.5054 15.125L14.7944 13.7031C14.6772 13.4688 14.4429 13.4141 14.2554 13.4766C14.021 13.5547 13.8413 13.8047 13.9897 14.1094L14.7085 15.5391C14.9819 16.0781 15.521 16.4219 16.1382 16.4219ZM6.74756 15.9844C7.49756 15.4453 8.09912 14.7734 8.63818 14.0781H8.03662C7.86475 14.0781 7.69287 14.0469 7.52881 13.9844C7.28662 14.2812 7.02881 14.5469 6.74756 14.8047V15.9844ZM1.07568 17.2422H2.41943C2.8335 17.2422 3.23193 17.2188 3.59131 17.1641V16.2578C3.23975 16.3125 2.8335 16.3438 2.41943 16.3438H1.07568C0.817871 16.3438 0.614746 16.5312 0.614746 16.7969C0.614746 17.0312 0.817871 17.2422 1.07568 17.2422Z"
		fill="currentColor"
	/>
</svg>
