<svg
	color="rgb(var(--foreground, 0, 0, 0))"
	viewBox="0 0 15 24"
	fill="none"
	xmlns="http://www.w3.org/2000/svg"
>
	<path
		d="M8.26276 16.625L10.6846 13.2969L12.2159 16.0938C12.7315 18.4922 12.794 20.3281 12.794 20.6094C12.794 21.0938 13.1534 21.4531 13.5909 21.4531C14.044 21.4531 14.3878 21.0938 14.3878 20.6328C14.3878 20.5547 14.3487 18.4609 13.7784 15.6484L13.7471 15.5078C13.0909 12.2812 11.0362 6.3125 5.73151 2.78906C5.46588 2.625 5.23151 2.54688 4.95807 2.54688H1.52057C1.08307 2.54688 0.723694 2.90625 0.723694 3.34375C0.723694 3.80469 1.08307 4.16406 1.52057 4.16406H4.89557C5.73151 4.74219 6.45807 5.36719 7.12213 6.03906C7.21588 6.125 7.22369 6.26562 7.16119 6.36719L4.45807 10.9844C4.12994 11.5625 4.52838 12.1953 5.15338 12.1953H8.84088L6.90338 15.7578L6.82526 15.8984L4.44244 20.2578C4.22369 20.6484 4.36432 21.1484 4.75494 21.3516C5.12213 21.5469 5.62213 21.4609 5.85651 21.0312L8.26276 16.625ZM4.00494 8.44531C4.94244 8.44531 5.70026 7.6875 5.70026 6.73438C5.70026 5.79688 4.94244 5.03906 4.00494 5.03906C3.05963 5.03906 2.29401 5.79688 2.29401 6.73438C2.29401 7.6875 3.05963 8.44531 4.00494 8.44531ZM6.54401 10.5938L7.14557 9.57031C7.23932 9.39062 7.42682 9.42969 7.50494 9.54688L8.20807 10.5938H6.54401Z"
		fill="currentColor"
	/>
</svg>
