<svg
	color="rgb(var(--foreground, 0, 0, 0))"
	viewBox="0 0 25 24"
	fill="none"
	xmlns="http://www.w3.org/2000/svg"
>
	<path
		d="M6.06926 6.65625C6.38176 6.65625 6.66561 6.58333 6.92082 6.4375C7.17603 6.28646 7.37915 6.08333 7.5302 5.82812C7.68124 5.57292 7.75676 5.28906 7.75676 4.97656C7.75676 4.66406 7.68124 4.38021 7.5302 4.125C7.37915 3.86979 7.17603 3.66667 6.92082 3.51562C6.66561 3.36458 6.38176 3.28906 6.06926 3.28906C5.75676 3.28906 5.4729 3.36458 5.2177 3.51562C4.96249 3.66667 4.75936 3.86979 4.60832 4.125C4.45728 4.38021 4.38176 4.66406 4.38176 4.97656C4.38176 5.28906 4.45728 5.57292 4.60832 5.82812C4.75936 6.08333 4.96249 6.28646 5.2177 6.4375C5.4729 6.58333 5.75676 6.65625 6.06926 6.65625ZM3.37395 20.7109C3.74895 20.7109 3.99895 20.4818 4.12395 20.0234C4.17603 19.8307 4.24634 19.5599 4.33488 19.2109C4.42342 18.8672 4.51978 18.487 4.62395 18.0703C4.72811 17.6536 4.83228 17.2422 4.93645 16.8359C5.04582 16.4245 5.14478 16.0547 5.23332 15.7266C5.32186 15.3984 5.39217 15.1562 5.44426 15C5.5328 14.7188 5.61874 14.5182 5.70207 14.3984C5.7854 14.2786 5.9078 14.2188 6.06926 14.2188C6.23072 14.2188 6.35311 14.2786 6.43645 14.3984C6.51978 14.5182 6.60572 14.7188 6.69426 15C6.74634 15.1562 6.81665 15.3984 6.9052 15.7266C6.99374 16.0547 7.09009 16.4245 7.19426 16.8359C7.29842 17.2422 7.40259 17.6536 7.50676 18.0703C7.61613 18.487 7.71509 18.8672 7.80363 19.2109C7.89217 19.5599 7.96249 19.8307 8.01457 20.0234C8.13957 20.4818 8.38957 20.7109 8.76457 20.7109C9.01457 20.7109 9.20467 20.6146 9.33488 20.4219C9.4703 20.2292 9.50155 20.0104 9.42863 19.7656C9.41822 19.7292 9.38176 19.5833 9.31926 19.3281C9.25676 19.0729 9.17863 18.75 9.08488 18.3594C8.99634 17.9688 8.89738 17.5469 8.78801 17.0938C8.68384 16.6406 8.58228 16.1979 8.48332 15.7656C8.38436 15.3281 8.29842 14.9401 8.22551 14.6016C8.15259 14.2578 8.10311 14.0052 8.07707 13.8438C8.04582 13.6302 8.01978 13.3724 7.99895 13.0703C7.97811 12.7682 7.95988 12.4531 7.94426 12.125C7.93384 11.7969 7.92603 11.4844 7.92082 11.1875C7.91561 10.8854 7.91301 10.6328 7.91301 10.4297C7.91301 10.3672 7.93905 10.3281 7.99113 10.3125C8.04322 10.2969 8.09009 10.3151 8.13176 10.3672L9.01457 11.6016C9.06145 11.362 9.18905 11.138 9.39738 10.9297C9.61092 10.7214 9.87915 10.6146 10.2021 10.6094L8.99113 8.84375C8.77759 8.53125 8.53801 8.27344 8.27238 8.07031C8.01197 7.86719 7.70207 7.71875 7.3427 7.625C6.98853 7.52604 6.56405 7.47656 6.06926 7.47656C5.57447 7.47656 5.14738 7.52604 4.78801 7.625C4.43384 7.71875 4.12395 7.86719 3.85832 8.07031C3.5979 8.26823 3.36092 8.52604 3.14738 8.84375L1.12395 11.8203C1.08228 11.8776 1.04061 11.9375 0.998945 12C0.962487 12.0573 0.928633 12.1146 0.897383 12.1719C0.814049 12.3229 0.79582 12.4922 0.842695 12.6797C0.894779 12.862 1.02238 13.0052 1.22551 13.1094C1.37655 13.1979 1.5354 13.2292 1.70207 13.2031C1.87395 13.1771 2.01717 13.099 2.13176 12.9688C2.18905 12.9062 2.28801 12.776 2.42863 12.5781C2.57447 12.3802 2.74113 12.1484 2.92863 11.8828C3.11613 11.6172 3.30624 11.3516 3.49895 11.0859C3.69165 10.8151 3.86092 10.5755 4.00676 10.3672C4.04322 10.3151 4.08749 10.2995 4.13957 10.3203C4.19686 10.3359 4.22551 10.375 4.22551 10.4375C4.22551 10.6406 4.2229 10.8906 4.2177 11.1875C4.21249 11.4844 4.20207 11.7969 4.18645 12.125C4.17603 12.4531 4.1604 12.7682 4.13957 13.0703C4.11874 13.3724 4.09009 13.6302 4.05363 13.8438C4.02759 14.0052 3.97811 14.2578 3.9052 14.6016C3.83228 14.9401 3.74634 15.3281 3.64738 15.7656C3.55363 16.1979 3.45207 16.6406 3.3427 17.0938C3.23853 17.5469 3.13957 17.9688 3.04582 18.3594C2.95207 18.75 2.87395 19.0729 2.81145 19.3281C2.75415 19.5833 2.7203 19.7292 2.70988 19.7656C2.63697 20.0104 2.66561 20.2292 2.79582 20.4219C2.93124 20.6146 3.12395 20.7109 3.37395 20.7109ZM12.5614 12.0547C12.9052 12.0547 13.1995 11.9323 13.4443 11.6875C13.6943 11.4427 13.8193 11.1484 13.8193 10.8047C13.8193 10.4609 13.6943 10.1667 13.4443 9.92188C13.1995 9.67708 12.9052 9.55469 12.5614 9.55469C12.2177 9.55469 11.9234 9.67708 11.6786 9.92188C11.4338 10.1667 11.3114 10.4609 11.3114 10.8047C11.3114 11.1484 11.4338 11.4427 11.6786 11.6875C11.9234 11.9323 12.2177 12.0547 12.5614 12.0547ZM10.9052 20.7109C11.051 20.7109 11.1812 20.6641 11.2958 20.5703C11.4156 20.4818 11.4989 20.3411 11.5458 20.1484C11.5875 20.0026 11.6448 19.7839 11.7177 19.4922C11.7906 19.2057 11.8661 18.8958 11.9443 18.5625C12.0276 18.2344 12.1057 17.9323 12.1786 17.6562C12.2515 17.3802 12.3062 17.1797 12.3427 17.0547C12.4 16.8932 12.439 16.7969 12.4599 16.7656C12.4859 16.7292 12.5198 16.7109 12.5614 16.7109C12.6031 16.7109 12.6344 16.7292 12.6552 16.7656C12.6812 16.7969 12.7203 16.8932 12.7724 17.0547C12.814 17.1797 12.8687 17.3802 12.9364 17.6562C13.0094 17.9323 13.0875 18.2344 13.1708 18.5625C13.2542 18.8958 13.3323 19.2057 13.4052 19.4922C13.4781 19.7839 13.5354 20.0026 13.5771 20.1484C13.6239 20.3411 13.7047 20.4818 13.8193 20.5703C13.9338 20.6641 14.0667 20.7109 14.2177 20.7109C14.4364 20.7109 14.6031 20.625 14.7177 20.4531C14.8323 20.2812 14.8635 20.0938 14.8114 19.8906C14.8062 19.8646 14.7776 19.7422 14.7255 19.5234C14.6734 19.3099 14.6083 19.0443 14.5302 18.7266C14.4573 18.4141 14.3818 18.0885 14.3036 17.75C14.2307 17.4167 14.163 17.1146 14.1005 16.8438C14.0432 16.5729 14.0042 16.375 13.9833 16.25C13.9573 16.0885 13.9364 15.888 13.9208 15.6484C13.9052 15.4036 13.8948 15.1667 13.8896 14.9375C13.8844 14.7083 13.8818 14.5286 13.8818 14.3984C13.8818 14.2839 13.9 14.1875 13.9364 14.1094C13.9729 14.026 14.0224 13.9453 14.0849 13.8672C14.2724 13.6328 14.4651 13.3984 14.663 13.1641C14.8661 12.9297 15.0406 12.7266 15.1864 12.5547C15.3323 12.3828 15.4182 12.2734 15.4443 12.2266C15.538 12.0911 15.5719 11.9505 15.5458 11.8047C15.5198 11.6536 15.4547 11.5234 15.3505 11.4141C15.2307 11.2786 15.0823 11.2109 14.9052 11.2109C14.7333 11.2057 14.5953 11.2578 14.4911 11.3672L13.663 12.25C13.4911 12.4375 13.3219 12.5755 13.1552 12.6641C12.9937 12.7474 12.7958 12.7891 12.5614 12.7891C12.3271 12.7891 12.1265 12.7474 11.9599 12.6641C11.7984 12.5755 11.6318 12.4375 11.4599 12.25L10.6318 11.3672C10.5276 11.2578 10.387 11.2057 10.2099 11.2109C10.0328 11.2109 9.88697 11.2786 9.77238 11.4141C9.66301 11.5234 9.5953 11.6536 9.56926 11.8047C9.54842 11.9505 9.58228 12.0911 9.67082 12.2266C9.70207 12.2734 9.79061 12.3828 9.93645 12.5547C10.0823 12.7266 10.2542 12.9297 10.4521 13.1641C10.6552 13.3984 10.8505 13.6328 11.038 13.8672C11.1005 13.9453 11.1474 14.026 11.1786 14.1094C11.2151 14.1875 11.2333 14.2839 11.2333 14.3984C11.2333 14.5286 11.2307 14.7083 11.2255 14.9375C11.2203 15.1667 11.2099 15.4036 11.1943 15.6484C11.1838 15.888 11.1656 16.0885 11.1396 16.25C11.1187 16.375 11.0771 16.5729 11.0146 16.8438C10.9573 17.1146 10.8896 17.4167 10.8114 17.75C10.7333 18.0885 10.6578 18.4141 10.5849 18.7266C10.512 19.0443 10.4495 19.3099 10.3974 19.5234C10.3453 19.7422 10.314 19.8646 10.3036 19.8906C10.2515 20.0938 10.2828 20.2812 10.3974 20.4531C10.512 20.625 10.6812 20.7109 10.9052 20.7109ZM19.0536 6.65625C19.3661 6.65625 19.6474 6.58333 19.8974 6.4375C20.1526 6.28646 20.3557 6.08333 20.5068 5.82812C20.6578 5.57292 20.7333 5.28906 20.7333 4.97656C20.7333 4.66406 20.6578 4.38021 20.5068 4.125C20.3557 3.86979 20.1526 3.66667 19.8974 3.51562C19.6474 3.36458 19.3661 3.28906 19.0536 3.28906C18.7411 3.28906 18.4573 3.36458 18.2021 3.51562C17.9469 3.66667 17.7437 3.86979 17.5927 4.125C17.4417 4.38021 17.3661 4.66406 17.3661 4.97656C17.3661 5.28906 17.4417 5.57292 17.5927 5.82812C17.7437 6.08333 17.9469 6.28646 18.2021 6.4375C18.4573 6.58333 18.7411 6.65625 19.0536 6.65625ZM16.3583 20.7109C16.7333 20.7109 16.9833 20.4818 17.1083 20.0234C17.1604 19.8307 17.2307 19.5599 17.3193 19.2109C17.4078 18.8672 17.5042 18.487 17.6083 18.0703C17.7125 17.6536 17.8167 17.2422 17.9208 16.8359C18.0302 16.4245 18.1265 16.0547 18.2099 15.7266C18.2984 15.3984 18.3713 15.1562 18.4286 15C18.5172 14.7188 18.6031 14.5182 18.6864 14.3984C18.7698 14.2786 18.8922 14.2188 19.0536 14.2188C19.2099 14.2188 19.3297 14.2786 19.413 14.3984C19.5015 14.5182 19.5901 14.7188 19.6786 15C19.7307 15.1562 19.801 15.3984 19.8896 15.7266C19.9781 16.0547 20.0745 16.4245 20.1786 16.8359C20.2828 17.2422 20.387 17.6536 20.4911 18.0703C20.6005 18.487 20.6995 18.8672 20.788 19.2109C20.8765 19.5599 20.9469 19.8307 20.9989 20.0234C21.1239 20.4818 21.3739 20.7109 21.7489 20.7109C21.9989 20.7109 22.189 20.6146 22.3193 20.4219C22.4495 20.2292 22.4807 20.0104 22.413 19.7656C22.4026 19.7292 22.3661 19.5833 22.3036 19.3281C22.2411 19.0729 22.163 18.75 22.0693 18.3594C21.9755 17.9688 21.8765 17.5469 21.7724 17.0938C21.6682 16.6406 21.5667 16.1979 21.4677 15.7656C21.3687 15.3281 21.2828 14.9401 21.2099 14.6016C21.137 14.2578 21.0875 14.0052 21.0614 13.8438C21.0302 13.6302 21.0015 13.3724 20.9755 13.0703C20.9547 12.7682 20.939 12.4531 20.9286 12.125C20.9182 11.7969 20.9104 11.4844 20.9052 11.1875C20.9 10.8906 20.8974 10.6406 20.8974 10.4375C20.8974 10.375 20.9234 10.3359 20.9755 10.3203C21.0328 10.2995 21.0771 10.3151 21.1083 10.3672C21.2594 10.5755 21.4286 10.8151 21.6161 11.0859C21.8088 11.3516 21.9989 11.6172 22.1864 11.8828C22.3792 12.1484 22.5458 12.3802 22.6864 12.5781C22.8323 12.776 22.9312 12.9062 22.9833 12.9688C23.0979 13.099 23.2385 13.1771 23.4052 13.2031C23.5771 13.2292 23.7411 13.1979 23.8974 13.1094C24.0953 13.0052 24.2177 12.862 24.2646 12.6797C24.3167 12.4922 24.3036 12.3229 24.2255 12.1719C24.189 12.1146 24.15 12.0573 24.1083 12C24.0719 11.9375 24.0328 11.8776 23.9911 11.8203L21.9755 8.84375C21.7568 8.52604 21.5146 8.26823 21.2489 8.07031C20.9885 7.86719 20.6812 7.71875 20.3271 7.625C19.9729 7.52604 19.5484 7.47656 19.0536 7.47656C18.5588 7.47656 18.1318 7.52604 17.7724 7.625C17.4182 7.71875 17.1083 7.86719 16.8427 8.07031C16.5823 8.27344 16.3453 8.53125 16.1318 8.84375L14.913 10.6094C15.2411 10.6146 15.5094 10.7214 15.7177 10.9297C15.9312 11.138 16.0614 11.362 16.1083 11.6016L16.9911 10.3672C17.0276 10.3151 17.0719 10.2969 17.1239 10.3125C17.1812 10.3281 17.2099 10.3672 17.2099 10.4297C17.2099 10.6328 17.2073 10.8854 17.2021 11.1875C17.1969 11.4844 17.1864 11.7969 17.1708 12.125C17.1604 12.4531 17.1422 12.7682 17.1161 13.0703C17.0953 13.3724 17.0693 13.6302 17.038 13.8438C17.012 14.0052 16.9625 14.2578 16.8896 14.6016C16.8167 14.9401 16.7307 15.3281 16.6318 15.7656C16.5328 16.1979 16.4312 16.6406 16.3271 17.0938C16.2229 17.5469 16.1239 17.9688 16.0302 18.3594C15.9364 18.75 15.8583 19.0729 15.7958 19.3281C15.7333 19.5833 15.6995 19.7292 15.6943 19.7656C15.6213 20.0104 15.65 20.2292 15.7802 20.4219C15.9156 20.6146 16.1083 20.7109 16.3583 20.7109Z"
		fill="currentColor"
	/>
</svg>
