<svg
	color="rgb(var(--foreground, 0, 0, 0))"
	viewBox="0 0 14 24"
	fill="none"
	xmlns="http://www.w3.org/2000/svg"
>
	<path
		d="M11.3804 10.4609H13.5366C13.7944 10.4609 13.9038 10.2422 13.8179 10.0078C13.6694 9.5625 13.3257 9.21875 12.896 9.07813V2.96094C12.896 2.71875 12.7007 2.53125 12.4585 2.53125C12.2163 2.53125 12.0288 2.71875 12.0288 2.96094V9.07813C11.5913 9.21875 11.2476 9.5625 11.0991 10.0078C11.0132 10.2422 11.1226 10.4609 11.3804 10.4609ZM7.17725 6.40625C8.11475 6.40625 8.88037 5.64844 8.88037 4.6875C8.88037 3.75781 8.11475 2.99219 7.17725 2.99219C6.22412 2.99219 5.46631 3.75781 5.46631 4.6875C5.46631 5.64844 6.22412 6.40625 7.17725 6.40625ZM1.72412 21.375C2.06787 21.5547 2.56787 21.4844 2.80225 21.0625L4.771 17.5156L5.93506 14.8984C5.9585 14.8438 6.03662 14.8203 6.0835 14.8672L9.2085 17.1328V20.6719C9.2085 21.1172 9.56006 21.4688 9.99756 21.4688C10.4429 21.4688 10.7866 21.1172 10.7866 20.6719V16.7813C10.7866 16.5547 10.7241 16.3203 10.5444 16.1563L7.28662 13.0781L7.59131 10.6016C7.59912 10.5078 7.72412 10.5 7.75537 10.5781L8.48193 12.3047C8.60693 12.6094 8.88818 12.7891 9.2085 12.7891H12.5601C12.9976 12.7891 13.3491 12.4375 13.3491 12C13.3491 11.5625 12.9976 11.2109 12.5601 11.2109H9.72412L8.59912 8.5625C8.30225 7.875 7.86475 7.48438 6.86475 7.21094L6.41162 7.08594C5.32568 6.78125 4.5835 6.73438 3.7085 7.11719L2.50537 7.63281V4.70313C2.50537 4.27344 2.146 3.92188 1.71631 3.92188C1.27881 3.92188 0.927246 4.27344 0.927246 4.70313V8.92969C0.927246 9.49219 1.51318 9.79688 2.02881 9.57031L4.26318 8.59375C4.36475 8.55469 4.4585 8.61719 4.44287 8.72656L3.31787 16.8828L1.41162 20.3047C1.2085 20.6719 1.34131 21.1797 1.72412 21.375Z"
		fill="currentColor"
	/>
</svg>
