<svg
	color="rgb(var(--foreground, 0, 0, 0))"
	viewBox="0 0 11 24"
	fill="none"
	xmlns="http://www.w3.org/2000/svg"
>
	<path
		d="M5.62079 6.84021C6.55829 6.84021 7.3161 6.07458 7.3161 5.13708C7.3161 4.19177 6.55829 3.43396 5.62079 3.43396C4.67548 3.43396 3.91767 4.19177 3.91767 5.13708C3.91767 6.07458 4.67548 6.84021 5.62079 6.84021ZM7.38642 20.059C7.87079 21.0355 9.30829 20.434 8.78485 19.3715L7.1911 16.1449C7.0661 15.9027 6.90204 15.6371 6.7536 15.4261L5.74579 13.9965L5.8161 13.7855C6.08173 12.973 6.18329 12.4886 6.24579 11.684L6.40204 9.42615C6.48017 8.35583 5.84735 7.54333 4.74579 7.54333C3.92548 7.54333 3.36298 7.9574 2.60517 8.69958L1.40985 9.87927C1.01923 10.2621 0.894228 10.5746 0.855165 11.0824L0.71454 12.9261C0.675478 13.3949 0.93329 13.723 1.36298 13.7386C1.80048 13.7699 2.0661 13.5121 2.10517 13.0121L2.28485 10.9886L2.85517 10.473C3.0661 10.2855 3.33173 10.4105 3.32392 10.6215L3.19892 12.3324C3.1286 13.1996 3.33173 13.6136 3.92548 14.3558L5.51142 16.3402C5.66767 16.5433 5.68329 16.6215 5.7536 16.7465L7.38642 20.059ZM10.1052 10.5902H8.30048L7.16767 9.3324L7.03485 11.2152L7.48798 11.6683C7.73798 11.9183 7.95673 11.9965 8.42548 11.9965H10.1052C10.5739 11.9965 10.8864 11.7308 10.8864 11.2933C10.8864 10.8715 10.5661 10.5902 10.1052 10.5902ZM1.66767 20.2933L4.01923 17.4965C4.24579 17.223 4.28485 17.1605 4.3786 16.8715L4.55048 16.3402L3.29267 14.7621L2.90985 16.5277L0.58954 19.2777C-0.144835 20.1605 1.0661 21.0199 1.66767 20.2933Z"
		fill="currentColor"
	/>
</svg>
