<svg
	color="rgb(var(--foreground, 0, 0, 0))"
	viewBox="0 0 11 24"
	fill="none"
	xmlns="http://www.w3.org/2000/svg"
>
	<path
		d="M4.03638 5.91797C4.97388 5.91797 5.74731 5.14453 5.74731 4.20703C5.74731 3.27735 4.97388 2.50391 4.03638 2.50391C3.09888 2.50391 2.33325 3.27735 2.33325 4.20703C2.33325 5.14453 3.09888 5.91797 4.03638 5.91797ZM8.09888 18.3164C8.427 18.1602 8.63794 17.7773 8.427 17.2461L7.052 13.8008C7.01294 13.6914 6.93481 13.6055 6.76294 13.4805L4.24731 11.6211L4.43481 8.84766C4.44263 8.69141 4.55981 8.64453 4.70825 8.69141L6.34106 9.2461C6.49731 9.29297 6.69263 9.31641 6.8645 9.29297L9.89575 8.95703C10.9739 8.83203 10.7786 7.26172 9.71606 7.37891L6.77856 7.71485L3.78638 6.72266C2.69263 6.35547 1.74731 6.97266 1.65356 8.06641L1.43481 10.8008C1.3645 11.6211 1.79419 12.418 2.49731 12.8242L5.69263 14.6758L6.95825 17.832C7.177 18.3867 7.72388 18.5039 8.09888 18.3164ZM6.84106 20.7852L9.90356 19.7695C10.1301 19.6914 10.2473 19.5352 10.2473 19.2695V9.65235C10.1536 9.67578 10.052 9.69922 9.94263 9.71485L9.38013 9.77735V19.0273L6.58325 19.957C6.27856 20.0664 6.20044 20.332 6.28638 20.543C6.34888 20.7305 6.55981 20.8789 6.84106 20.7852ZM0.786377 19.7227C1.10669 19.8711 1.51294 19.8242 1.79419 19.4102L3.8645 16.3242C3.927 16.2227 3.98169 16.082 3.9895 15.9102L4.07544 14.5195L2.302 13.4883L2.40356 15.668L0.497314 18.5273C0.161377 19.043 0.403564 19.543 0.786377 19.7227ZM0.544189 21.4961H3.74731C3.9895 21.4961 4.19263 21.293 4.19263 21.0586C4.19263 20.8164 3.9895 20.6289 3.74731 20.6289H0.544189C0.302002 20.6289 0.114502 20.8164 0.114502 21.0586C0.114502 21.293 0.302002 21.4961 0.544189 21.4961Z"
		fill="currentColor"
	/>
</svg>
