<svg
	color="rgb(var(--foreground, 0, 0, 0))"
	viewBox="0 0 15 24"
	fill="none"
	xmlns="http://www.w3.org/2000/svg"
>
	<path
		d="M5.09949 8.43359C6.05261 8.43359 6.81042 7.66797 6.81042 6.72266C6.81042 5.77734 6.05261 5.01953 5.09949 5.01953C4.15417 5.01953 3.39636 5.77734 3.39636 6.72266C3.39636 7.66797 4.15417 8.43359 5.09949 8.43359ZM0.966675 14.3711C0.622925 15.6602 1.44324 16.4805 2.45105 16.4805C2.77136 16.4805 3.1073 16.4023 3.43542 16.2227L7.67761 13.9648L12.3729 16.3164C12.9432 16.5977 13.4042 16.3711 13.5839 16.0039C13.7557 15.6445 13.6464 15.1523 13.0995 14.8789L8.18542 12.4102C7.86511 12.2461 7.51355 12.2305 7.17761 12.3789L4.00574 13.7539L4.64636 11.5195C4.76355 11.1367 5.11511 10.8555 5.52136 10.8555H11.8417C12.287 10.8555 12.6464 10.4961 12.6464 10.0508C12.6464 9.61328 12.287 9.24609 11.8417 9.24609H4.93542C3.37292 9.24609 2.09949 10.1445 1.74011 11.4961L0.966675 14.3711ZM0.716675 18.9805H14.4667C14.7089 18.9805 14.9042 18.793 14.9042 18.5508C14.9042 18.3086 14.7089 18.1133 14.4667 18.1133H0.716675C0.466675 18.1133 0.279175 18.3086 0.279175 18.5508C0.279175 18.793 0.466675 18.9805 0.716675 18.9805Z"
		fill="currentColor"
	/>
</svg>
