<svg
	color="rgb(var(--foreground, 0, 0, 0))"
	viewBox="0 0 18 24"
	fill="none"
	xmlns="http://www.w3.org/2000/svg"
>
	<path
		d="M11.7322 6.07422C12.6775 6.07422 13.4353 5.31641 13.4353 4.37891C13.4353 3.43359 12.6775 2.67578 11.7322 2.67578C10.7869 2.67578 10.0291 3.43359 10.0291 4.37891C10.0291 5.31641 10.7869 6.07422 11.7322 6.07422ZM3.26343 14.1758H7.76343L11.9197 14.7617C13.4744 14.9805 14.5994 14.3008 14.5994 12.8164V10.0039C14.5994 9.86328 14.7478 9.80859 14.8416 9.90234L15.615 10.6836V13.3555C15.615 13.8086 15.9978 14.1758 16.4275 14.1758C16.8728 14.1758 17.2322 13.8086 17.2322 13.3555V10.3398C17.2322 10.1289 17.1541 9.91797 16.99 9.76172L15.0212 7.80078C14.4353 7.23047 13.6853 6.89453 12.8494 6.89453H5.13843C4.70093 6.89453 4.32593 7.26953 4.32593 7.70703C4.32593 8.16016 4.68531 8.51953 5.13843 8.51953H11.0681C11.3025 8.51953 11.4744 8.69922 11.4744 8.92578V12.5508H3.26343C2.8025 12.5508 2.44312 12.9102 2.44312 13.3555C2.44312 13.8086 2.81812 14.1758 3.26343 14.1758ZM0.904059 10.7227C1.91968 11.7305 3.06031 11.6211 3.49 11.1992C3.90406 10.7617 3.93531 9.70703 2.93531 8.69141C1.90406 7.66797 0.841559 7.69922 0.411872 8.13672C-0.0178156 8.56641 -0.111566 9.69141 0.904059 10.7227ZM13.2322 21.0898C13.5447 21.4023 14.0525 21.4023 14.365 21.0898C14.6853 20.7773 14.6775 20.2695 14.365 19.9492L11.7791 17.332L12.7009 15.543C12.4275 15.5664 12.1228 15.543 11.8103 15.5039L10.6931 15.3477L10.0134 17.2227C9.90406 17.5117 9.97437 17.832 10.2087 18.0664L13.2322 21.0898Z"
		fill="currentColor"
	/>
</svg>
