<svg
	color="rgb(var(--foreground, 0, 0, 0))"
	viewBox="0 0 20 24"
	fill="none"
	xmlns="http://www.w3.org/2000/svg"
>
	<path
		d="M12.0459 8.41284C12.9834 8.41284 13.749 7.64722 13.749 6.70972C13.749 5.78003 12.9834 5.0144 12.0459 5.0144C11.1084 5.0144 10.3428 5.78003 10.3428 6.70972C10.3428 7.64722 11.1084 8.41284 12.0459 8.41284ZM9.26465 18.0613C9.06934 19.116 10.6475 19.366 10.8428 18.2957L11.6475 13.905C11.7256 13.4988 11.46 13.0535 10.9912 12.991L8.35059 12.616L9.9834 10.9832C10.1396 10.8191 10.374 10.8191 10.5303 10.9832L15.085 15.5378C15.3896 15.8347 15.8975 15.866 16.21 15.5378C16.5146 15.2097 16.5225 14.7253 16.21 14.4128L10.1709 8.37378C9.80371 8.00659 9.30371 7.78784 8.76465 7.78784H5.27246C5.06152 7.78784 4.8584 7.87378 4.70996 8.02222L2.31934 10.4207C2.00684 10.7332 2.00684 11.2332 2.31934 11.5457C2.63184 11.8582 3.12402 11.8582 3.43652 11.5457L5.6084 9.38159H7.00684C7.15527 9.38159 7.21777 9.5144 7.11621 9.61597L4.95996 11.7644C3.92871 12.8035 4.47559 14.5691 6.12402 14.5691H9.89746L9.26465 18.0613ZM4.74121 14.9519L4.53027 17.366H1.28027C0.842773 17.366 0.483398 17.7253 0.483398 18.1628C0.483398 18.6003 0.842773 18.9597 1.28027 18.9597H5.27246C5.6709 18.9597 5.99121 18.655 6.06152 18.2566L6.59277 15.3269H6.12402C5.57715 15.3269 5.1084 15.1863 4.74121 14.9519ZM16.6396 18.9597H19.0303C19.5693 18.9597 19.999 18.5222 19.999 17.9832C19.999 17.4519 19.5693 17.0144 19.0303 17.0144H18.9912V16.7332C18.9912 16.0847 18.499 15.5847 17.8584 15.5847H17.0381C16.835 15.5847 16.6709 15.7488 16.6709 15.9519C16.6709 16.155 16.835 16.3113 17.0381 16.3113H17.8584C18.1006 16.3113 18.2725 16.491 18.2725 16.7332V17.0144H16.6396C16.0928 17.0144 15.6553 17.4519 15.6553 17.9832C15.6553 18.5222 16.0928 18.9597 16.6396 18.9597Z"
		fill="currentColor"
	/>
</svg>
