<svg
	color="rgb(var(--foreground, 0, 0, 0))"
	viewBox="0 0 15 24"
	fill="none"
	xmlns="http://www.w3.org/2000/svg"
>
	<path
		d="M2.86533 7.08594C3.81064 7.08594 4.56845 6.32812 4.56845 5.38281C4.56845 4.4375 3.81064 3.67188 2.86533 3.67188C1.92002 3.67188 1.15439 4.4375 1.15439 5.38281C1.15439 6.32812 1.92002 7.08594 2.86533 7.08594ZM7.54502 20.3281H11.9435C12.3888 20.3281 12.5138 19.7656 12.1544 19.5234L10.6075 18.5C10.7638 18.25 10.8653 17.9766 10.9356 17.6797L12.7091 10.5938C13.8731 10.5938 14.8341 9.63281 14.8341 8.46094C14.8341 7.28906 13.8731 6.34375 12.7091 6.34375C11.5294 6.34375 10.5763 7.28906 10.5763 8.46094C10.5763 9.32812 11.0997 10.0781 11.8419 10.4062L10.0763 17.4766C9.7872 18.6484 8.76377 19.4453 7.54502 19.4453C7.29502 19.4453 7.10752 19.6484 7.10752 19.8906C7.10752 20.125 7.29502 20.3281 7.54502 20.3281ZM12.7091 9.72656C11.9903 9.72656 11.4435 9.17969 11.4435 8.46094C11.4435 7.75781 11.9903 7.21094 12.7091 7.21094C13.42 7.21094 13.9669 7.75781 13.9669 8.46094C13.9669 9.17969 13.42 9.72656 12.7091 9.72656ZM5.55283 20.2578C5.93564 20.3672 6.39658 20.1719 6.52158 19.7031L7.70127 15.4219C7.8497 14.875 7.62314 14.4844 7.07627 14.3281L3.63877 13.3516L3.90439 10.3359C3.92002 10.2422 4.02939 10.1875 4.0997 10.25L5.69345 11.3906C5.9747 11.5938 6.33408 11.5938 6.62314 11.3906L9.39658 9.40625C9.75595 9.15625 9.84189 8.65625 9.58408 8.29688C9.33408 7.9375 8.83408 7.85938 8.4747 8.10938L6.1622 9.77344L4.25595 8.40625C3.85752 8.10938 3.37314 7.90625 2.77158 7.90625C1.76377 7.90625 1.00595 8.53906 0.943453 9.4375L0.677828 13.1562C0.599703 14.2656 1.13877 15.0859 2.37314 15.2656L5.94345 15.7812L4.99033 19.2812C4.86533 19.75 5.12314 20.1406 5.55283 20.2578ZM1.73252 17.3594L1.77158 17.3516L2.00595 18.4297L0.349703 19.5234C-0.0174845 19.7656 0.107515 20.3281 0.59189 20.3281H3.9747C4.23252 20.3281 4.42002 20.125 4.42002 19.8906C4.42002 19.6484 4.23252 19.4453 3.9747 19.4453C3.46689 19.4453 3.09189 19.2422 2.95908 18.6328L2.63877 17.1641L3.29502 17.0234C3.49033 16.9922 3.60752 16.8125 3.60752 16.6172C3.60752 16.4141 3.45908 16.2578 3.27939 16.2344L0.646578 15.7812C0.209078 15.7109 0.0762655 16.0859 0.209078 16.375L0.357515 16.6641C0.630953 17.2266 1.07627 17.5 1.73252 17.3594Z"
		fill="currentColor"
	/>
</svg>
