<svg
	color="rgb(var(--foreground, 0, 0, 0))"
	viewBox="0 0 16 24"
	fill="none"
	xmlns="http://www.w3.org/2000/svg"
>
	<path
		d="M5.32598 6.65625C6.26348 6.65625 7.01348 5.91406 7.01348 4.97656C7.01348 4.03906 6.26348 3.28906 5.32598 3.28906C4.38848 3.28906 3.63848 4.03906 3.63848 4.97656C3.63848 5.91406 4.38848 6.65625 5.32598 6.65625ZM2.63067 20.7109C2.99786 20.7109 3.24786 20.5078 3.38067 20.0234C3.64629 19.0625 4.43536 15.7891 4.70098 15C4.88067 14.4375 5.00567 14.2188 5.32598 14.2188C5.64629 14.2188 5.77129 14.4375 5.95098 15C6.21661 15.7891 7.00567 19.0625 7.27129 20.0234C7.40411 20.5078 7.65411 20.7109 8.02129 20.7109C8.52129 20.7109 8.82598 20.2578 8.68536 19.7656C8.63067 19.5547 7.49786 14.8203 7.33379 13.8438C7.20098 12.9844 7.16973 11.25 7.16973 10.4297C7.16973 10.3047 7.31036 10.2578 7.38848 10.3672L8.27129 11.6016C8.36504 11.1328 8.80254 10.625 9.45879 10.6094L8.24786 8.84375C7.59161 7.89062 6.81036 7.47656 5.32598 7.47656C3.84161 7.47656 3.04473 7.89844 2.40411 8.84375L0.380669 11.8203C0.302544 11.9375 0.216607 12.0547 0.154107 12.1719C-0.0099558 12.4688 0.0759817 12.8984 0.482232 13.1094C0.786919 13.2812 1.16192 13.2344 1.38848 12.9688C1.59942 12.7188 2.67754 11.1953 3.26348 10.3672C3.33379 10.2656 3.48223 10.3047 3.48223 10.4375C3.48223 11.2578 3.44317 12.9844 3.31036 13.8438C3.15411 14.8203 2.02129 19.5547 1.96661 19.7656C1.82598 20.2578 2.13067 20.7109 2.63067 20.7109ZM11.8963 12.0547C12.5838 12.0547 13.1541 11.4922 13.1541 10.8047C13.1541 10.1172 12.5838 9.55469 11.8963 9.55469C11.2088 9.55469 10.6463 10.1172 10.6463 10.8047C10.6463 11.4922 11.2088 12.0547 11.8963 12.0547ZM10.1619 20.7109C10.4588 20.7109 10.701 20.5391 10.8025 20.1484C10.9666 19.5625 11.4432 17.5469 11.5994 17.0547C11.7088 16.7344 11.7322 16.7109 11.8182 16.7109C11.9041 16.7109 11.9197 16.7344 12.0291 17.0547C12.1854 17.5469 12.6619 19.5625 12.8338 20.1484C12.9275 20.5391 13.1775 20.7109 13.4744 20.7109C13.9197 20.7109 14.1775 20.2969 14.0682 19.8906C14.0291 19.7578 13.3494 16.8594 13.24 16.25C13.1775 15.875 13.1463 15.2188 13.1463 14.9453C13.1463 14.8203 13.2947 14.7812 13.365 14.8828L14.365 16.3281C14.576 16.6328 14.9197 16.6406 15.1385 16.4766C15.3494 16.3359 15.451 16.0469 15.2557 15.75L13.9588 13.75C13.5135 13.0625 12.8104 12.7891 12.0916 12.7891H11.8182C11.2947 12.7891 11.0682 12.625 10.7166 12.25L9.88848 11.3672C9.67754 11.1484 9.26348 11.1406 9.02911 11.4141C8.81036 11.6328 8.74786 11.9531 8.92754 12.2266C9.01348 12.3594 9.73223 13.1641 10.2947 13.8672C10.4197 14.0234 10.49 14.1719 10.49 14.3984C10.49 14.7891 10.4744 15.7656 10.3963 16.25C10.2869 16.8594 9.60723 19.7578 9.56036 19.8906C9.45879 20.2969 9.71661 20.7109 10.1619 20.7109Z"
		fill="currentColor"
	/>
</svg>
