<svg
	color="rgb(var(--foreground, 0, 0, 0))"
	viewBox="0 0 16 24"
	fill="none"
	xmlns="http://www.w3.org/2000/svg"
>
	<path
		d="M10.2292 6.47265C11.1745 6.47265 11.9323 5.71484 11.9323 4.76953C11.9323 3.82422 11.1745 3.05859 10.2292 3.05859C9.27603 3.05859 8.51822 3.82422 8.51822 4.76953C8.51822 5.71484 9.27603 6.47265 10.2292 6.47265ZM2.40103 12.1445C2.87759 12.3633 3.30728 12.1523 3.49478 11.7773L4.92447 8.92578H6.63541C6.81509 8.92578 6.94009 9.09765 6.84634 9.26172L5.34634 12.2383C4.79166 13.3398 5.47134 14.7227 6.92447 14.6367L10.9635 14.3867L9.47134 17.6992C9.28384 18.1211 9.46353 18.6367 9.88541 18.793C10.3542 18.9727 10.7604 18.832 10.9635 18.3789L13.0417 13.8164C13.2682 13.3242 12.9479 12.6445 12.3151 12.6445H8.65103L10.276 9.40234C10.3385 9.26172 10.5104 9.22265 10.6198 9.33984L12.5338 11.168C12.9167 11.5352 13.5963 11.4727 13.862 10.9492L15.5104 7.63672C15.7135 7.22265 15.5885 6.72265 15.151 6.51953C14.737 6.32422 14.2448 6.49609 14.0417 6.90234L12.8854 9.18359L11.9479 8.23828C11.3151 7.60547 10.6432 7.27734 9.61197 7.27734H4.41666C4.10416 7.27734 3.82291 7.45703 3.69009 7.73047L2.01822 11.0508C1.81509 11.457 1.97134 11.9336 2.40103 12.1445ZM0.158844 20.168C0.416656 20.707 0.986969 20.7148 1.25259 20.5977L5.37759 18.8008C5.54947 18.7227 5.69791 18.5898 5.78384 18.4102L7.29166 15.3711L6.97134 15.3945C6.31509 15.4336 5.74478 15.2461 5.32291 14.9258L4.39322 17.418L0.588531 19.0586C0.158844 19.2461 -0.0599064 19.7305 0.158844 20.168ZM13.7917 20.9414C14.7526 20.9414 15.5104 20.1914 15.5104 19.2305C15.5104 18.2852 14.7526 17.5273 13.7917 17.5273C12.8463 17.5273 12.0963 18.2852 12.0963 19.2305C12.0963 20.1914 12.8463 20.9414 13.7917 20.9414Z"
		fill="currentColor"
	/>
</svg>
