<svg
	color="rgb(var(--foreground, 0, 0, 0))"
	viewBox="0 0 21 24"
	fill="none"
	xmlns="http://www.w3.org/2000/svg"
>
	<path
		d="M13.5192 8.0586C14.4645 8.0586 15.2301 7.29297 15.2301 6.34766C15.2301 5.40235 14.4645 4.64453 13.5192 4.64453C12.5739 4.64453 11.816 5.40235 11.816 6.34766C11.816 7.29297 12.5739 8.0586 13.5192 8.0586ZM7.77698 19.2695C8.08167 19.4414 8.59729 19.3711 8.82385 18.918L10.7848 15.0195C10.9332 14.7148 10.8864 14.3555 10.6364 14.1133L8.27698 11.7461L9.4801 11.1445L13.2067 14.8789V15.0586C13.2067 15.4883 13.566 15.8398 13.9957 15.8398C14.0504 15.8398 14.0973 15.832 14.1442 15.8242L17.1754 18.8477C17.316 18.9883 17.4098 19.0117 17.5582 19.0117H19.9098C20.1364 19.0117 20.3317 18.8164 20.3317 18.582V18.1914C20.3317 17.9492 20.1364 17.7539 19.9098 17.7539H17.3082L14.7614 15.207C14.7692 15.1602 14.777 15.1055 14.777 15.0586V11.543C14.777 11.332 14.7301 11.1445 14.5504 10.9805L11.0192 7.46485C10.6207 7.06641 10.0973 6.85547 9.53479 6.85547H6.53479C5.75354 6.85547 5.52698 7.70703 6.00354 8.17578L6.94104 9.10547L6.55823 9.26172C5.13635 9.84766 4.72229 11.7148 6.06604 12.6914L9.08948 14.9102L7.43323 18.2227C7.23792 18.6055 7.39417 19.0664 7.77698 19.2695ZM11.2535 10.2539C11.402 10.1758 11.566 10.2148 11.6754 10.3242L13.2067 11.8633V13.6523L10.2848 10.7383L11.2535 10.2539ZM1.08948 16.2383H5.00354C5.31604 16.2383 5.56604 16.043 5.69104 15.8008L6.58167 14.0117L5.62073 13.3008C5.40198 13.1445 5.21448 12.9648 5.06604 12.7773L4.43323 14.668H1.08948C0.65979 14.668 0.308228 15.0195 0.308228 15.457C0.308228 15.8867 0.65979 16.2383 1.08948 16.2383Z"
		fill="currentColor"
	/>
</svg>
