<svg
	color="rgb(var(--foreground, 0, 0, 0))"
	viewBox="0 0 21 24"
	fill="none"
	xmlns="http://www.w3.org/2000/svg"
>
	<path
		d="M13.7156 7.73572C14.6609 7.73572 15.4265 6.97009 15.4265 6.02478C15.4265 5.07947 14.6609 4.32166 13.7156 4.32166C12.7703 4.32166 12.0125 5.07947 12.0125 6.02478C12.0125 6.97009 12.7703 7.73572 13.7156 7.73572ZM8.2312 19.6263C8.58276 19.7513 9.02026 19.6654 9.24683 19.2045L11.2468 15.2045C11.4031 14.8998 11.364 14.5404 11.0984 14.2826L8.68433 11.8607L11.739 10.3373C11.8796 10.2592 12.0437 10.2982 12.1531 10.4076L13.9734 12.2123C14.114 12.3529 14.3171 12.4467 14.5281 12.4467H18.1375C18.575 12.4467 18.9343 12.0951 18.9343 11.642V9.82166C19.2937 9.36072 20.3406 7.86853 20.3406 6.54041C20.3406 5.47791 19.575 4.72009 18.5125 4.72009C17.45 4.72009 16.6843 5.47791 16.6843 6.54041C16.6843 7.86072 17.7078 9.34509 18.075 9.81384V10.8451H14.8562L11.489 7.47009C11.0906 7.07166 10.5437 6.84509 9.97339 6.84509H3.32495C2.88745 6.84509 2.52808 7.20447 2.52808 7.64197C2.52808 8.08728 2.88745 8.44666 3.32495 8.44666H8.34058C8.42651 8.44666 8.45776 8.57947 8.37964 8.61853L6.88745 9.36072C6.09839 9.75134 5.69995 10.4935 5.69995 11.2435C5.69995 11.892 5.98901 12.5326 6.58276 12.9623L9.51245 15.0951L7.81714 18.4935C7.55151 19.0326 7.83276 19.4701 8.2312 19.6263ZM18.5125 5.58728C19.075 5.58728 19.4734 5.99353 19.4734 6.54041C19.4734 7.29822 18.8953 8.31384 18.5125 8.93103C18.1296 8.31384 17.5515 7.29822 17.5515 6.54041C17.5515 5.99353 17.95 5.58728 18.5125 5.58728ZM1.32495 16.4467H5.32495C5.63745 16.4467 5.91089 16.267 6.05151 16.0092L6.95776 14.1732L6.14526 13.5717C5.8562 13.3607 5.6062 13.1029 5.4187 12.8373L4.76245 14.8451H1.32495C0.887451 14.8451 0.528076 15.2045 0.528076 15.642C0.528076 16.0795 0.887451 16.4467 1.32495 16.4467Z"
		fill="currentColor"
	/>
</svg>
