<svg
	color="rgb(var(--foreground, 0, 0, 0))"
	viewBox="0 0 20 24"
	fill="none"
	xmlns="http://www.w3.org/2000/svg"
>
	<path
		d="M8.33948 17.7994C8.7301 17.5651 9.13635 17.3619 9.55823 17.1979V14.2291C9.55823 14.1198 9.64417 14.0338 9.75354 14.0338H10.7457C11.1832 14.0338 11.5426 13.6744 11.5426 13.2369V8.76819L11.941 8.36975V11.6354C11.941 12.0807 12.3082 12.4244 12.7457 12.4244C13.1832 12.4244 13.5426 12.0807 13.5426 11.6354V6.76819L16.3473 3.9635C16.5192 3.79163 16.5192 3.51819 16.3473 3.34631C16.1754 3.16663 15.8942 3.16663 15.7223 3.34631L10.1754 8.88538C10.0114 9.04163 9.94885 9.22913 9.94885 9.48694V12.4479H7.14417C6.44104 12.4479 5.95667 12.9323 5.95667 13.6276V15.1198C6.82385 15.7682 7.64417 16.6354 8.33948 17.7994ZM7.52698 11.7994C8.46448 11.7994 9.2301 11.0416 9.2301 10.0885C9.2301 9.151 8.46448 8.38538 7.52698 8.38538C6.57385 8.38538 5.81604 9.151 5.81604 10.0885C5.81604 11.0416 6.57385 11.7994 7.52698 11.7994ZM0.769165 15.6119C3.12854 15.6119 5.76135 16.5104 7.27698 20.4166C7.42542 20.8229 7.88635 20.901 8.15979 20.6276C9.90979 18.8698 11.9332 18.2916 14.8395 19.1119C15.0817 19.1744 15.2692 19.0729 15.3707 18.8385C15.9723 17.4479 17.2223 16.7448 18.7223 16.7448C18.9645 16.7448 19.1598 16.5573 19.1598 16.3151C19.1598 16.0729 18.9645 15.8776 18.7223 15.8776C17.066 15.8776 15.5192 16.6901 14.7223 18.1823C11.9098 17.4869 9.70667 18.0573 7.90979 19.6744C6.19104 15.7135 3.22229 14.7448 0.769165 14.7448C0.519165 14.7448 0.331665 14.9401 0.331665 15.1823C0.331665 15.4244 0.519165 15.6119 0.769165 15.6119Z"
		fill="currentColor"
	/>
</svg>
