<svg
	color="rgb(var(--foreground, 0, 0, 0))"
	viewBox="0 0 16 24"
	fill="none"
	xmlns="http://www.w3.org/2000/svg"
>
	<path
		d="M0.101074 20.0156C0.101074 20.375 0.397949 20.6641 0.749512 20.6641C1.10889 20.6641 1.40576 20.375 1.40576 20.0156V3.98438C1.40576 3.625 1.10889 3.33594 0.749512 3.33594C0.397949 3.33594 0.101074 3.625 0.101074 3.98438V20.0156ZM10.187 6.76562C11.1323 6.76562 11.8901 6 11.8901 5.0625C11.8901 4.11719 11.1323 3.35938 10.187 3.35938C9.2417 3.35938 8.48389 4.11719 8.48389 5.0625C8.48389 6 9.2417 6.76562 10.187 6.76562ZM11.9604 19.9844C12.4448 20.9609 13.8823 20.3594 13.3589 19.2969L11.7651 16.0703C11.6401 15.8281 11.4761 15.5625 11.3198 15.3516L10.312 13.9219L10.3823 13.7109C10.6558 12.8984 10.7573 12.4141 10.812 11.6094L10.9683 9.35156C11.0464 8.28125 10.4136 7.46875 9.31982 7.46875C8.4917 7.46875 7.93701 7.88281 7.1792 8.625L5.98389 9.80469C5.59326 10.1875 5.46826 10.5 5.4292 11.0078L5.28076 12.8516C5.24951 13.3203 5.50732 13.6484 5.93701 13.6641C6.37451 13.6953 6.64014 13.4375 6.6792 12.9375L6.85107 10.9141L7.4292 10.3984C7.63232 10.2109 7.90576 10.3359 7.89014 10.5469L7.76514 12.2578C7.70264 13.125 7.89795 13.5391 8.49951 14.2812L10.0776 16.2656C10.2417 16.4688 10.2573 16.5469 10.3276 16.6719L11.9604 19.9844ZM14.6714 10.5156H12.8745L11.7339 9.25781L11.6011 11.1406L12.0542 11.5938C12.312 11.8438 12.5308 11.9219 12.9917 11.9219H14.6714C15.148 11.9219 15.4605 11.6562 15.4605 11.2188C15.4605 10.7969 15.1401 10.5156 14.6714 10.5156ZM6.2417 20.2188L8.58545 17.4219C8.81982 17.1484 8.85107 17.0859 8.94482 16.7969L9.1167 16.2656L7.85889 14.6875L7.48389 16.4531L5.16357 19.2031C4.4292 20.0859 5.63232 20.9453 6.2417 20.2188Z"
		fill="currentColor"
	/>
</svg>
