<svg
	color="rgb(var(--foreground, 0, 0, 0))"
	viewBox="0 0 17 24"
	fill="none"
	xmlns="http://www.w3.org/2000/svg"
>
	<path
		d="M8.65357 8.28015C9.59107 8.28015 10.3489 7.51453 10.3489 6.5614C10.3489 5.6239 9.59107 4.86609 8.65357 4.86609C7.70045 4.86609 6.93482 5.6239 6.93482 6.5614C6.93482 7.51453 7.70045 8.28015 8.65357 8.28015ZM0.622323 11.4598L3.23951 14.0848C3.59889 14.4442 4.18482 14.452 4.53639 14.0145L6.18482 11.9833C6.2942 11.8583 6.46607 11.9286 6.46607 12.0848V15.5458L3.51295 15.2177C2.49732 15.1005 2.1692 16.5927 3.14576 16.913L6.49732 18.0223C6.33326 18.7177 6.93482 19.3114 7.62232 19.0848L8.65357 18.7489L9.68482 19.0848C10.3723 19.3114 10.9739 18.7177 10.8098 18.0223L14.1692 16.913C15.1458 16.5927 14.8098 15.1005 13.7942 15.2177L10.8411 15.5458V12.0848C10.8411 11.9286 11.0208 11.8583 11.1223 11.9833L12.7708 14.0145C13.1223 14.452 13.7083 14.4442 14.0676 14.0848L16.6848 11.4598C17.0286 11.1083 17.0364 10.5692 16.6848 10.2255C16.3489 9.88953 15.7942 9.88953 15.4504 10.2255L13.5208 12.163L11.552 9.7489C11.2239 9.35047 10.7317 9.10047 10.2083 9.10047H7.1067C6.57545 9.10047 6.09107 9.35047 5.75514 9.7489L3.78639 12.163L1.8567 10.2255C1.51295 9.88953 0.95826 9.88953 0.622323 10.2255C0.27076 10.5692 0.278573 11.1083 0.622323 11.4598Z"
		fill="currentColor"
	/>
</svg>
