<svg
	color="rgb(var(--foreground, 0, 0, 0))"
	viewBox="0 0 16 24"
	fill="none"
	xmlns="http://www.w3.org/2000/svg"
>
	<path
		d="M7.65336 6.03125C8.59086 6.03125 9.34867 5.27344 9.34867 4.32031C9.34867 3.38281 8.59086 2.625 7.65336 2.625C6.70024 2.625 5.94242 3.38281 5.94242 4.32031C5.94242 5.27344 6.70024 6.03125 7.65336 6.03125ZM0.668986 21.1719C0.997111 21.4531 1.50492 21.4375 1.80961 21.0938L4.59086 17.9141C4.7393 17.7422 4.82524 17.5547 4.84867 17.3359L5.20024 13.9141C5.20805 13.7969 5.33305 13.75 5.41117 13.8438L7.65336 16.4297V20.5625C7.65336 21.0078 8.01274 21.375 8.46586 21.375C8.90336 21.375 9.27836 21.0078 9.27836 20.5625V16.1641C9.27836 15.9453 9.20805 15.7969 9.10649 15.6484L6.73149 12.1797L7.88774 8.72656C7.95024 8.53906 8.07524 8.46875 8.26274 8.46875H13.3487C13.5205 8.94531 13.9737 9.28906 14.5127 9.28906C15.1768 9.28906 15.7237 8.74219 15.7237 8.0625C15.7237 7.39844 15.1768 6.85156 14.5127 6.85156H5.09867C4.44242 6.85156 3.91117 7.03906 3.37992 7.5625L1.84086 9.11719C1.32524 9.64062 1.60649 10.4922 2.31742 10.4922H3.77055L3.45805 11.4219C3.29399 11.9219 3.21586 12.4375 3.21586 12.9453V17.0391L0.590861 20.0312C0.293986 20.3672 0.325236 20.875 0.668986 21.1719Z"
		fill="currentColor"
	/>
</svg>
