<svg
	color="rgb(var(--foreground, 0, 0, 0))"
	viewBox="0 0 15 24"
	fill="none"
	xmlns="http://www.w3.org/2000/svg"
>
	<path
		d="M5.99445 6.11328C6.93195 6.11328 7.68976 5.34766 7.68976 4.39453C7.68976 3.45703 6.93195 2.69922 5.99445 2.69922C5.04132 2.69922 4.2757 3.45703 4.2757 4.39453C4.2757 5.34766 5.04132 6.11328 5.99445 6.11328ZM9.57257 21.3008C10.0257 21.3008 10.3773 20.9414 10.3773 20.5039V16.0664C10.3773 15.8789 10.2757 15.6133 10.0257 15.4492L7.17413 13.5508V8.72266C7.17413 8.6211 7.26007 8.52735 7.36945 8.52735H13.5648C14.0101 8.52735 14.3616 8.16797 14.3616 7.73047C14.3616 7.29297 14.0101 6.9336 13.5648 6.9336H4.75226C4.00226 6.9336 3.59601 7.19922 3.2132 7.67578L1.13507 10.2305C0.63507 10.8398 1.04132 11.7227 1.68976 11.7227H3.98663V12.8242C3.98663 13.5508 4.39288 14.2305 5.04913 14.582L8.77569 16.5898V20.5039C8.77569 20.9414 9.13507 21.3008 9.57257 21.3008ZM3.17413 10.1758L4.03351 9.10547V10.1758H3.17413ZM0.588195 21.0273C0.892883 21.3711 1.39288 21.3867 1.72882 21.0977L4.86163 18.3555C5.01788 18.2148 5.08038 18.1523 5.13507 18.0039L5.97101 15.9258L4.68976 15.2383C4.56476 15.168 4.43976 15.0898 4.32257 15.0039L3.68976 17.2617L0.66632 19.9023C0.346008 20.1836 0.306945 20.707 0.588195 21.0273Z"
		fill="currentColor"
	/>
</svg>
