<svg
	color="rgb(var(--foreground, 0, 0, 0))"
	viewBox="0 0 17 24"
	fill="none"
	xmlns="http://www.w3.org/2000/svg"
>
	<path
		d="M9.84107 5.61328C10.7786 5.61328 11.5442 4.85547 11.5442 3.89453C11.5442 2.95703 10.7786 2.19922 9.84107 2.19922C8.89576 2.19922 8.13014 2.95703 8.13014 3.89453C8.13014 4.85547 8.89576 5.61328 9.84107 5.61328ZM2.23951 15.0195H7.38795C8.1067 15.0195 8.4192 14.2227 8.01295 13.7305L6.40357 11.7539L11.0129 11.4492H15.3411C15.7786 11.4492 16.1458 11.0977 16.1458 10.6602C16.1458 10.2305 15.7786 9.86329 15.3411 9.86329H7.33326L9.22389 7.96485C9.30982 7.88673 9.4192 7.83204 9.53639 7.84766L15.2083 8.58204C15.6692 8.63673 16.0911 8.28516 16.0911 7.80079C16.0911 7.41016 15.802 7.06641 15.4036 7.01954L3.52857 5.51953C3.27857 5.48828 3.05201 5.57422 2.87232 5.73828L0.887949 7.72266C0.575449 8.03516 0.583261 8.51173 0.887949 8.83204C1.1692 9.12891 1.68482 9.16016 2.00514 8.83204L3.71607 7.12891L5.56764 7.36329C5.73951 7.37891 5.80982 7.56641 5.68482 7.69141L3.93482 9.41798C3.25514 10.0899 3.21607 11.1758 3.93482 11.8945L5.46607 13.4414H2.23951C1.80201 13.4414 1.45045 13.793 1.45045 14.2305C1.45045 14.6602 1.80201 15.0195 2.23951 15.0195ZM9.92701 21.8008C10.1692 21.8008 10.3567 21.6133 10.3567 21.3711V13.2305C10.3567 12.9883 10.1692 12.8008 9.92701 12.8008C9.68482 12.8008 9.48951 12.9883 9.48951 13.2305V21.3711C9.48951 21.6133 9.68482 21.8008 9.92701 21.8008Z"
		fill="currentColor"
	/>
</svg>
