<svg
	color="rgb(var(--foreground, 0, 0, 0))"
	viewBox="0 0 22 24"
	fill="none"
	xmlns="http://www.w3.org/2000/svg"
>
	<path
		d="M5.19884 7.14844C5.62592 7.14844 5.9879 6.9974 6.28478 6.69531C6.58686 6.39323 6.7379 6.02865 6.7379 5.60156C6.7379 5.17448 6.58686 4.8125 6.28478 4.51562C5.9879 4.21354 5.62592 4.0625 5.19884 4.0625C4.77176 4.0625 4.40717 4.21354 4.10509 4.51562C3.80301 4.8125 3.65197 5.17448 3.65197 5.60156C3.65197 6.02865 3.80301 6.39323 4.10509 6.69531C4.40717 6.9974 4.77176 7.14844 5.19884 7.14844ZM4.26915 19.8359C4.46186 19.8359 4.62332 19.7682 4.75353 19.6328C4.88894 19.5026 4.95665 19.3411 4.95665 19.1484V16.25C4.95665 16.0938 5.03738 16.0156 5.19884 16.0156C5.35509 16.0156 5.43322 16.0938 5.43322 16.25V19.1484C5.43322 19.3411 5.49832 19.5026 5.62853 19.6328C5.76394 19.7682 5.92801 19.8359 6.12072 19.8359C6.30822 19.8359 6.46967 19.7682 6.60509 19.6328C6.74051 19.5026 6.80822 19.3411 6.80822 19.1484V16.25H7.76134C7.95405 16.25 8.08947 16.1797 8.16759 16.0391C8.24572 15.8984 8.25613 15.7344 8.19884 15.5469L6.76915 10.9766C6.73269 10.8672 6.74572 10.7839 6.80822 10.7266C6.87592 10.6641 6.95144 10.6406 7.03478 10.6562C7.12332 10.6719 7.18582 10.737 7.22228 10.8516L8.1129 13.7031C8.18061 13.9219 8.29519 14.0703 8.45665 14.1484C8.62332 14.2214 8.78999 14.2344 8.95665 14.1875C9.12332 14.1406 9.25353 14.0443 9.34728 13.8984C9.44103 13.7526 9.45405 13.5677 9.38634 13.3438L8.55822 10.7031C8.38113 10.125 8.17801 9.63021 7.94884 9.21875C7.72488 8.80729 7.41759 8.49479 7.02697 8.28125C6.63634 8.0625 6.10509 7.95312 5.43322 7.95312H4.95665C4.28478 7.95312 3.75353 8.0625 3.3629 8.28125C2.97228 8.49479 2.66238 8.80729 2.43322 9.21875C2.20926 9.63021 2.00613 10.125 1.82384 10.7031L1.00353 13.3438C0.93582 13.5677 0.948841 13.7526 1.04259 13.8984C1.13634 14.0443 1.26655 14.1406 1.43322 14.1875C1.59988 14.2344 1.76394 14.2214 1.9254 14.1484C2.08686 14.0703 2.20405 13.9219 2.27697 13.7031L3.16759 10.8516C3.19884 10.737 3.25874 10.6719 3.34728 10.6562C3.43582 10.6406 3.51134 10.6641 3.57384 10.7266C3.63634 10.7839 3.64936 10.8672 3.6129 10.9766L2.19103 15.5469C2.12853 15.7344 2.13634 15.8984 2.21447 16.0391C2.29259 16.1797 2.42801 16.25 2.62072 16.25H3.57384V19.1484C3.57384 19.3411 3.64155 19.5026 3.77697 19.6328C3.91238 19.7682 4.07644 19.8359 4.26915 19.8359ZM18.4957 7.14844C18.9228 7.14844 19.2848 6.9974 19.5817 6.69531C19.8837 6.39323 20.0348 6.02865 20.0348 5.60156C20.0348 5.17448 19.8837 4.8125 19.5817 4.51562C19.2848 4.21354 18.9228 4.0625 18.4957 4.0625C18.0686 4.0625 17.7041 4.21354 17.402 4.51562C17.0999 4.8125 16.9488 5.17448 16.9488 5.60156C16.9488 6.02865 17.0999 6.39323 17.402 6.69531C17.7041 6.9974 18.0686 7.14844 18.4957 7.14844ZM17.566 19.8359C17.7639 19.8359 17.928 19.7682 18.0582 19.6328C18.1884 19.5026 18.2535 19.3411 18.2535 19.1484V14.1172C18.2535 13.9609 18.3343 13.8828 18.4957 13.8828C18.652 13.8828 18.7301 13.9609 18.7301 14.1172V19.1484C18.7301 19.3411 18.7978 19.5026 18.9332 19.6328C19.0686 19.7682 19.2327 19.8359 19.4254 19.8359C19.6181 19.8359 19.7796 19.7682 19.9098 19.6328C20.0452 19.5026 20.1129 19.3411 20.1129 19.1484V10.8828C20.1129 10.7318 20.191 10.6562 20.3473 10.6562C20.4983 10.6562 20.5738 10.7318 20.5738 10.8828V13.6094C20.5738 13.7865 20.6337 13.9375 20.7535 14.0625C20.8785 14.1875 21.0296 14.25 21.2067 14.25C21.3785 14.25 21.5244 14.1875 21.6442 14.0625C21.7692 13.9375 21.8317 13.7865 21.8317 13.6094V10.5625C21.8317 10.0417 21.7119 9.58594 21.4723 9.19531C21.2379 8.80469 20.9072 8.5026 20.4801 8.28906C20.0582 8.07031 19.5686 7.96094 19.0113 7.96094H17.9801C17.4228 7.96094 16.9306 8.07031 16.5035 8.28906C16.0817 8.5026 15.7509 8.80469 15.5113 9.19531C15.2718 9.58594 15.152 10.0417 15.152 10.5625V13.6094C15.152 13.7865 15.2145 13.9375 15.3395 14.0625C15.4645 14.1875 15.6129 14.25 15.7848 14.25C15.9619 14.25 16.1103 14.1875 16.2301 14.0625C16.3551 13.9375 16.4176 13.7865 16.4176 13.6094V10.8828C16.4176 10.7318 16.4931 10.6562 16.6442 10.6562C16.8004 10.6562 16.8785 10.7318 16.8785 10.8828V19.1484C16.8785 19.3411 16.9436 19.5026 17.0738 19.6328C17.2093 19.7682 17.3733 19.8359 17.566 19.8359ZM12.0504 21.375C12.2275 21.375 12.3759 21.3151 12.4957 21.1953C12.6207 21.0807 12.6832 20.9375 12.6832 20.7656V3.23438C12.6832 3.05729 12.6207 2.91146 12.4957 2.79688C12.3759 2.68229 12.2275 2.625 12.0504 2.625C11.8785 2.625 11.7301 2.68229 11.6051 2.79688C11.4853 2.91146 11.4254 3.05729 11.4254 3.23438V20.7656C11.4254 20.9375 11.4853 21.0807 11.6051 21.1953C11.7301 21.3151 11.8785 21.375 12.0504 21.375Z"
		fill="currentColor"
	/>
</svg>
