<svg
	color="rgb(var(--foreground, 0, 0, 0))"
	viewBox="0 0 15 24"
	fill="none"
	xmlns="http://www.w3.org/2000/svg"
>
	<path
		d="M10.6423 5.66015C11.5876 5.66015 12.3532 4.89453 12.3532 3.94922C12.3532 3.0039 11.5876 2.24609 10.6423 2.24609C9.69694 2.24609 8.93913 3.0039 8.93913 3.94922C8.93913 4.89453 9.69694 5.66015 10.6423 5.66015ZM4.36881 19.957H9.82194C10.6891 19.957 11.4001 19.7773 11.9548 19.3008C12.1813 19.1133 12.1735 18.8711 12.0641 18.707C11.9391 18.5195 11.6579 18.4258 11.4001 18.6211C10.986 18.9492 10.5485 19.0898 9.82194 19.0898H9.74381V14.5352C9.74381 14.3008 9.68913 14.082 9.53288 13.8789L7.57194 11.3867L9.24381 8.82422C9.35319 8.66015 9.58756 8.66015 9.6735 8.84765L10.2282 9.96484C10.3688 10.2305 10.6423 10.4102 10.9469 10.4102H14.1657C14.6032 10.4102 14.9626 10.0508 14.9626 9.60547C14.9626 9.16797 14.6032 8.80859 14.1657 8.80859H11.4391L10.5954 7.09765C10.2594 6.42578 9.57194 5.99609 8.80631 5.99609H4.52506C4.25944 5.99609 4.00163 6.1289 3.85319 6.35547L2.25163 8.76953C2.00944 9.1289 2.111 9.6289 2.47819 9.87109C2.83756 10.1211 3.33756 10.0195 3.58756 9.64453L4.95475 7.59765H6.27506C6.37663 7.59765 6.43913 7.6914 6.37663 7.79297L5.02506 9.82422C4.60319 10.4492 4.68913 11.3008 5.22819 11.8398L8.14225 14.7695V19.0898H4.36881C3.63444 19.0898 3.20475 18.9492 2.78288 18.6211C2.5485 18.4414 2.2985 18.5039 2.16569 18.6602C2.00944 18.8242 1.986 19.0898 2.22819 19.3008C2.78288 19.7773 3.49381 19.957 4.36881 19.957ZM0.392252 13.0195L3.54069 15.7773C4.04069 16.2227 4.59538 15.9883 4.83756 15.6055L6.0485 13.7383L4.72038 12.4102C4.70475 12.3867 4.68913 12.3711 4.66569 12.3477L3.87663 13.9336L1.43913 11.8086C1.111 11.5273 0.60319 11.5508 0.314127 11.8867C0.0172524 12.2227 0.0485024 12.7305 0.392252 13.0195ZM4.36881 21.7539C4.736 21.7539 5.0485 21.4492 5.0485 21.082C5.0485 20.7148 4.736 20.4023 4.36881 20.4023C4.00163 20.4023 3.68913 20.7148 3.68913 21.082C3.68913 21.4492 4.00163 21.7539 4.36881 21.7539ZM9.82194 21.7539C10.1891 21.7539 10.4938 21.4492 10.4938 21.082C10.4938 20.7148 10.1891 20.4023 9.82194 20.4023C9.45475 20.4023 9.14225 20.7148 9.14225 21.082C9.14225 21.4492 9.45475 21.7539 9.82194 21.7539Z"
		fill="currentColor"
	/>
</svg>
