<svg
	color="rgb(var(--foreground, 0, 0, 0))"
	viewBox="0 0 18 24"
	fill="none"
	xmlns="http://www.w3.org/2000/svg"
>
	<path
		d="M13.7544 8.45313C14.6997 8.45313 15.4653 7.69532 15.4653 6.75001C15.4653 5.8047 14.6997 5.03906 13.7544 5.03906C12.8091 5.03906 12.0513 5.8047 12.0513 6.75001C12.0513 7.69532 12.8091 8.45313 13.7544 8.45313ZM8.34034 18.9609C8.80909 18.9609 9.16847 18.5781 9.16847 18.125V14.4844C9.16847 14.1406 9.01222 13.8984 8.80909 13.6953L6.39503 11.2734L9.3169 10.5313C9.46534 10.4922 9.59034 10.6016 9.59034 10.75V12.3047C9.59034 12.5234 9.67628 12.7344 9.83253 12.8906L12.3169 15.3906C12.645 15.7109 13.1763 15.7109 13.5044 15.3906C13.8247 15.0703 13.8325 14.5313 13.5044 14.2109L11.2466 11.9688V10.3906L12.4966 11.8125C12.6607 11.9922 12.8872 12.1016 13.1216 12.1016H16.8638C17.3247 12.1016 17.6841 11.7344 17.6841 11.2656C17.6841 10.8047 17.3247 10.4453 16.8638 10.4453H13.5044L11.5122 8.14845C10.895 7.43751 9.9419 7.15626 9.02784 7.38282L4.77003 8.45313C3.09815 8.87501 2.80909 10.9453 4.13722 12.0234L7.51222 14.7734V18.125C7.51222 18.5781 7.8794 18.9609 8.34034 18.9609ZM1.09815 18.7188C1.41847 19.0391 1.95753 19.0391 2.28565 18.7188L5.1919 15.8125C5.34034 15.6563 5.38722 15.5156 5.43409 15.2656L5.62159 14.2109L3.77003 12.7031V14.875L1.09815 17.5391C0.770028 17.8594 0.777841 18.3984 1.09815 18.7188Z"
		fill="currentColor"
	/>
</svg>
