<svg
	color="rgb(var(--foreground, 0, 0, 0))"
	viewBox="0 0 20 24"
	fill="none"
	xmlns="http://www.w3.org/2000/svg"
>
	<path
		d="M6.64526 14.9105C7.59058 16.0433 9.11401 15.887 9.87964 14.7386L17.0828 3.95735C17.3328 3.57454 17.2312 3.07454 16.8562 2.82454C16.489 2.57454 15.9812 2.66829 15.7234 3.0511L12.4656 7.94954C12.0984 8.51204 11.4578 8.80891 10.7859 8.80891C10.075 8.80891 9.34839 8.47298 8.88745 7.78548L5.74683 3.0511C5.49683 2.66829 4.99683 2.57454 4.61401 2.82454C4.23901 3.07454 4.13745 3.57454 4.38745 3.95735L8.23901 9.73079C8.4187 9.99641 8.42651 10.3558 8.23901 10.6292L7.1687 12.2464L4.82495 10.2152C4.49683 9.91829 3.98901 9.90266 3.62964 10.262L0.449951 13.4573C0.129639 13.7855 0.129639 14.2777 0.449951 14.598C0.801514 14.9339 1.28589 14.8948 1.58276 14.598L4.20776 11.9886L6.64526 14.9105ZM2.24683 3.76985H3.52808C3.47339 3.48079 3.50464 3.1761 3.61401 2.90266H2.24683C2.00464 2.90266 1.80933 3.09798 1.80933 3.34016C1.80933 3.58235 2.00464 3.76985 2.24683 3.76985ZM7.12964 3.76985H14.3328L14.825 3.04329C14.8562 3.00423 14.8875 2.94954 14.9187 2.90266H6.55151C6.58276 2.94954 6.61401 3.00423 6.64526 3.0511L7.12964 3.76985ZM17.9421 3.76985H18.6062C18.8484 3.76985 19.0359 3.58235 19.0359 3.34016C19.0359 3.09798 18.8484 2.90266 18.6062 2.90266H17.8562C17.9656 3.1761 17.9968 3.47297 17.9421 3.76985ZM10.7859 7.98079C11.7312 7.98079 12.4968 7.22298 12.4968 6.27766C12.4968 5.33235 11.7312 4.56672 10.7859 4.56672C9.84058 4.56672 9.08276 5.33235 9.08276 6.27766C9.08276 7.22298 9.84058 7.98079 10.7859 7.98079ZM8.56714 20.9495C8.81714 20.5745 8.72339 20.098 8.34058 19.8402L5.4812 17.9261L7.05933 16.1839C6.69995 16.012 6.37183 15.7464 6.06714 15.3948L5.50464 14.7386L3.58276 17.6292C3.33276 17.9964 3.42651 18.5042 3.80151 18.762L7.45776 21.1761C7.83276 21.4339 8.33276 21.3167 8.56714 20.9495Z"
		fill="currentColor"
	/>
</svg>
