<svg
	color="rgb(var(--foreground, 0, 0, 0))"
	viewBox="0 0 20 24"
	fill="none"
	xmlns="http://www.w3.org/2000/svg"
>
	<path
		d="M8.98828 13.5093L13.2852 14.8374L17.3945 16.7046C18.457 17.1812 19.082 15.689 18.082 15.2281L11.0039 12.0327V8.23587C11.0039 7.92337 11.082 7.88431 11.3086 7.79837L13.4414 6.93118C13.707 6.82181 13.7305 6.75931 13.8633 6.60306L16.1055 4.00149C16.4023 3.65774 16.3477 3.14993 16.0117 2.86868C15.6758 2.57962 15.1602 2.62649 14.8789 2.96243L12.7383 5.45462L2.88672 9.47806C2.60547 9.58743 2.42578 9.70462 2.30859 9.82181H6.32422L7.53516 9.33743C7.77734 9.24368 7.86328 9.32962 7.86328 9.47806V11.9624C7.86328 12.7827 8.23828 13.2827 8.98828 13.5093ZM8.47266 6.17337C9.41016 6.17337 10.168 5.41556 10.168 4.47024C10.168 3.53274 9.41016 2.77493 8.47266 2.77493C7.51953 2.77493 6.76172 3.53274 6.76172 4.47024C6.76172 5.41556 7.51953 6.17337 8.47266 6.17337ZM1.05859 11.4702H7.08984V10.6031H1.05859C0.808594 10.6031 0.621094 10.7906 0.621094 11.0327C0.621094 11.2749 0.808594 11.4702 1.05859 11.4702ZM18.8633 11.4702C19.1055 11.4702 19.293 11.2749 19.293 11.0327C19.293 10.7906 19.1055 10.6031 18.8633 10.6031H11.7852V11.4702H18.8633ZM8.27734 20.3218C8.09766 20.939 8.58984 21.3218 9.06641 21.3218C9.39453 21.3218 9.73047 21.1421 9.83203 20.7437L10.9805 16.5874C10.9961 16.5093 11.0039 16.4312 11.0039 16.3687V14.8999L9.13672 14.3296L9.37891 16.3218L8.27734 20.3218Z"
		fill="currentColor"
	/>
</svg>
