<svg
	color="rgb(var(--foreground, 0, 0, 0))"
	viewBox="0 0 20 24"
	fill="none"
	xmlns="http://www.w3.org/2000/svg"
>
	<path
		d="M9.53638 6.74207C10.4661 6.74207 11.2395 5.96863 11.2395 5.03113C11.2395 4.10144 10.4661 3.328 9.53638 3.328C8.59888 3.328 7.82544 4.10144 7.82544 5.03113C7.82544 5.96863 8.59888 6.74207 9.53638 6.74207ZM7.02856 16.8983C7.34106 17.2108 7.83325 17.2108 8.14575 16.8983L11.3645 13.6796C11.8098 13.2421 11.5208 12.4218 10.8567 12.3593L7.2395 11.9686C6.93481 11.9374 6.89575 11.7499 7.02856 11.5546L8.30981 9.61707C8.44263 9.42957 8.68481 9.38269 8.8645 9.50769L11.1458 11.0155C11.2629 11.0936 11.4114 11.1561 11.5754 11.1561H15.1614C15.5911 11.1561 15.9504 10.7968 15.9504 10.3671C15.9504 9.92175 15.5911 9.56238 15.1614 9.56238H11.802L4.84106 4.92175C4.71606 4.83582 4.56763 4.78113 4.40356 4.78113H0.809814C0.380127 4.78113 0.020752 5.14832 0.020752 5.58582C0.020752 6.0155 0.380127 6.37488 0.809814 6.37488H4.16919L5.45044 7.22644C5.63794 7.35144 5.69263 7.59363 5.55981 7.78113L3.70825 10.5624C2.84888 11.8514 3.59888 13.5702 5.25513 13.6639L8.95044 13.8593L7.02856 15.7811C6.70825 16.0936 6.70825 16.5858 7.02856 16.8983ZM15.1614 8.17175C15.1614 8.71863 16.0598 9.16394 17.1536 9.16394C18.2473 9.16394 19.1379 8.71863 19.1379 8.17175C19.1379 7.62488 18.2473 7.17175 17.1536 7.17175C16.0598 7.17175 15.1614 7.62488 15.1614 8.17175ZM4.052 14.1014V16.7811L1.84106 19.3358C1.55981 19.6718 1.59106 20.1952 1.93481 20.4843C2.32544 20.7968 2.80981 20.6874 3.06763 20.3905L5.45044 17.6014C5.58325 17.4452 5.62231 17.2733 5.64575 17.1093L6.09106 14.453L5.22388 14.4139C4.78638 14.3905 4.38794 14.2811 4.052 14.1014Z"
		fill="currentColor"
	/>
</svg>
