<svg
	color="rgb(var(--foreground, 0, 0, 0))"
	viewBox="0 0 19 24"
	fill="none"
	xmlns="http://www.w3.org/2000/svg"
>
	<path
		d="M15.1151 9.33984C16.0604 9.33984 16.8182 8.58203 16.8182 7.63672C16.8182 6.69141 16.0604 5.92578 15.1151 5.92578C14.1698 5.92578 13.4041 6.69141 13.4041 7.63672C13.4041 8.58203 14.1698 9.33984 15.1151 9.33984ZM1.38852 17.3555L5.98227 16.207V17.2852C5.98227 17.7227 6.34165 18.0742 6.77133 18.0742C7.20883 18.0742 7.56821 17.7227 7.56821 17.2852V15.918L10.9041 15.418C11.5213 15.332 12.1229 15.0586 12.6307 14.6758L15.5213 12.5117C15.6307 12.4336 15.787 12.4492 15.8416 12.582L16.6932 14.3008V17.2852C16.6932 17.7461 17.0213 18.0742 17.4901 18.0742C17.9588 18.0742 18.2791 17.7461 18.2791 17.2852V14.1133C18.2791 13.9883 18.2557 13.8555 18.1932 13.7461L16.826 11.0195C16.5526 10.4727 16.0213 10.1367 15.412 10.1367H14.7088C14.0291 10.1367 13.3573 10.3633 12.8104 10.7773L10.5448 12.4648L7.21665 11.8008C6.52133 11.6602 5.98227 11.9648 5.98227 12.6992V14.5664L1.00571 15.832C0.490083 15.957 0.294771 16.3555 0.349458 16.7227C0.419771 17.1367 0.802583 17.5039 1.38852 17.3555ZM7.56821 14.1836V13.582L8.65415 13.918L7.56821 14.1836ZM11.3338 18.0742H14.5057C15.162 18.0742 15.6932 17.543 15.6932 16.8789C15.6932 16.2305 15.162 15.6914 14.5057 15.6914H11.3338C10.6698 15.6914 10.1463 16.2305 10.1463 16.8789C10.1463 17.543 10.6698 18.0742 11.3338 18.0742ZM14.5057 17.5117C14.162 17.5117 13.8807 17.2227 13.8807 16.8711C13.8807 16.5352 14.162 16.2539 14.5057 16.2539C14.8573 16.2539 15.1307 16.5352 15.1307 16.8711C15.1307 17.2227 14.8573 17.5117 14.5057 17.5117Z"
		fill="currentColor"
	/>
</svg>
