<svg
	color="rgb(var(--foreground, 0, 0, 0))"
	viewBox="0 0 15 24"
	fill="none"
	xmlns="http://www.w3.org/2000/svg"
>
	<path
		d="M8.02341 6.94568C8.95309 6.94568 9.71872 6.18005 9.71872 5.22693C9.71872 4.29724 8.95309 3.53162 8.02341 3.53162C7.07028 3.53162 6.30466 4.29724 6.30466 5.22693C6.30466 6.18005 7.07028 6.94568 8.02341 6.94568ZM5.81247 19.2894C6.11716 19.2035 6.30466 19.1097 6.42966 18.8754L8.14841 15.7816C8.17966 15.7269 8.20309 15.7035 8.27341 15.7035H12.4765V19.6644C12.4765 20.1176 12.8359 20.4613 13.2656 20.4613C13.7187 20.4613 14.0703 20.1176 14.0703 19.6644V15.0004C14.0703 14.4769 13.789 14.1644 13.2422 14.1176L9.70309 13.7972V9.35193C9.70309 8.48474 9.09372 7.76599 8.02341 7.76599H7.64841C7.01559 7.76599 6.53122 7.87537 5.90622 8.34412L3.28122 10.3129C2.82809 10.641 2.85934 11.3051 3.32028 11.6097L6.53122 13.7426V13.9457L5.13278 17.8207L1.16403 18.9144C0.742156 19.0316 0.492156 19.4613 0.609343 19.8832C0.734343 20.3285 1.13278 20.5551 1.58591 20.4379L5.81247 19.2894ZM5.13278 10.9066L6.32028 10.016C6.41403 9.95349 6.53122 10.0004 6.53122 10.1176V11.8363L5.13278 10.9066Z"
		fill="currentColor"
	/>
</svg>
