<svg
	color="rgb(var(--foreground, 0, 0, 0))"
	viewBox="0 0 12 24"
	fill="none"
	xmlns="http://www.w3.org/2000/svg"
>
	<path
		d="M6.08354 6.65625C6.39604 6.65625 6.67989 6.58333 6.9351 6.4375C7.19031 6.28646 7.39344 6.08333 7.54448 5.82812C7.69552 5.57292 7.77104 5.28906 7.77104 4.97656C7.77104 4.66406 7.69552 4.38021 7.54448 4.125C7.39344 3.86979 7.19031 3.66667 6.9351 3.51562C6.67989 3.36458 6.39604 3.28906 6.08354 3.28906C5.77104 3.28906 5.48719 3.36458 5.23198 3.51562C4.97677 3.66667 4.77364 3.86979 4.6226 4.125C4.47156 4.38021 4.39604 4.66406 4.39604 4.97656C4.39604 5.28906 4.47156 5.57292 4.6226 5.82812C4.77364 6.08333 4.97677 6.28646 5.23198 6.4375C5.48719 6.58333 5.77104 6.65625 6.08354 6.65625ZM6.08354 14.2188C6.245 14.2188 6.36739 14.2786 6.45073 14.3984C6.53406 14.5182 6.62 14.7188 6.70854 15C6.76062 15.1562 6.83094 15.3984 6.91948 15.7266C7.00802 16.0547 7.10437 16.4245 7.20854 16.8359C7.31271 17.2422 7.41687 17.6536 7.52104 18.0703C7.63041 18.487 7.72937 18.8672 7.81791 19.2109C7.90646 19.5599 7.97677 19.8307 8.02885 20.0234C8.15385 20.4818 8.40385 20.7109 8.77885 20.7109C9.02885 20.7109 9.21896 20.6146 9.34916 20.4219C9.48458 20.2292 9.51583 20.0104 9.44291 19.7656C9.4325 19.7292 9.39604 19.5833 9.33354 19.3281C9.27104 19.0729 9.19291 18.75 9.09916 18.3594C9.01062 17.9688 8.91166 17.5469 8.80229 17.0938C8.69812 16.6406 8.59656 16.1979 8.4976 15.7656C8.39864 15.3281 8.31271 14.9401 8.23979 14.6016C8.16687 14.2578 8.11739 14.0052 8.09135 13.8438C8.0601 13.6302 8.03406 13.3724 8.01323 13.0703C7.99239 12.7682 7.97416 12.4531 7.95854 12.125C7.94812 11.7969 7.94031 11.4844 7.9351 11.1875C7.92989 10.8854 7.92729 10.6328 7.92729 10.4297C7.92729 10.3672 7.95333 10.3281 8.00541 10.3125C8.0575 10.2969 8.10437 10.3151 8.14604 10.3672C8.29187 10.5703 8.45854 10.8073 8.64604 11.0781C8.83875 11.349 9.02885 11.6172 9.21635 11.8828C9.40906 12.1484 9.57573 12.3802 9.71635 12.5781C9.86219 12.776 9.96114 12.9062 10.0132 12.9688C10.133 13.099 10.2762 13.1771 10.4429 13.2031C10.6148 13.2292 10.7762 13.1979 10.9273 13.1094C11.1304 13.0052 11.2554 12.862 11.3023 12.6797C11.3544 12.4922 11.3387 12.3229 11.2554 12.1719C11.2242 12.1146 11.1877 12.0573 11.146 12C11.1096 11.9375 11.0705 11.8776 11.0289 11.8203L9.00541 8.84375C8.79187 8.52604 8.55229 8.26823 8.28666 8.07031C8.02625 7.86719 7.71635 7.71875 7.35698 7.625C7.00281 7.52604 6.57833 7.47656 6.08354 7.47656C5.58875 7.47656 5.16166 7.52604 4.80229 7.625C4.44812 7.71875 4.13823 7.86719 3.8726 8.07031C3.61219 8.26823 3.37521 8.52604 3.16166 8.84375L1.13823 11.8203C1.09656 11.8776 1.05489 11.9375 1.01323 12C0.976769 12.0573 0.942915 12.1146 0.911665 12.1719C0.828332 12.3229 0.810103 12.4922 0.856978 12.6797C0.909061 12.862 1.03667 13.0052 1.23979 13.1094C1.39083 13.1979 1.54969 13.2292 1.71635 13.2031C1.88823 13.1771 2.03146 13.099 2.14604 12.9688C2.20333 12.9062 2.30229 12.776 2.44292 12.5781C2.58875 12.3802 2.75541 12.1484 2.94291 11.8828C3.13041 11.6172 3.32052 11.3516 3.51323 11.0859C3.70594 10.8151 3.87521 10.5755 4.02104 10.3672C4.0575 10.3151 4.10177 10.2995 4.15385 10.3203C4.21114 10.3359 4.23979 10.375 4.23979 10.4375C4.23979 10.6406 4.23719 10.8906 4.23198 11.1875C4.22677 11.4844 4.21635 11.7969 4.20073 12.125C4.19031 12.4531 4.17469 12.7682 4.15385 13.0703C4.13302 13.3724 4.10437 13.6302 4.06791 13.8438C4.04187 14.0052 3.99239 14.2578 3.91948 14.6016C3.84656 14.9401 3.76062 15.3281 3.66166 15.7656C3.56791 16.1979 3.46635 16.6406 3.35698 17.0938C3.25281 17.5469 3.15385 17.9688 3.0601 18.3594C2.96635 18.75 2.88823 19.0729 2.82573 19.3281C2.76844 19.5833 2.73458 19.7292 2.72417 19.7656C2.65125 20.0104 2.67989 20.2292 2.8101 20.4219C2.94552 20.6146 3.13823 20.7109 3.38823 20.7109C3.76323 20.7109 4.01323 20.4818 4.13823 20.0234C4.19031 19.8307 4.26062 19.5599 4.34916 19.2109C4.43771 18.8672 4.53406 18.487 4.63823 18.0703C4.74239 17.6536 4.84656 17.2422 4.95073 16.8359C5.0601 16.4245 5.15906 16.0547 5.2476 15.7266C5.33614 15.3984 5.40646 15.1562 5.45854 15C5.54708 14.7188 5.63302 14.5182 5.71635 14.3984C5.79969 14.2786 5.92208 14.2188 6.08354 14.2188Z"
		fill="currentColor"
	/>
</svg>
