<svg
	color="rgb(var(--foreground, 0, 0, 0))"
	viewBox="0 0 19 24"
	fill="none"
	xmlns="http://www.w3.org/2000/svg"
>
	<path
		d="M9.47387 5.95947C10.4114 5.95947 11.1848 5.20166 11.1848 4.24072C11.1848 3.30322 10.4114 2.54541 9.47387 2.54541C8.52856 2.54541 7.77075 3.30322 7.77075 4.24072C7.77075 5.20166 8.52856 5.95947 9.47387 5.95947ZM1.74731 15.6157H2.20044C2.51294 15.6157 2.72388 15.397 2.72388 15.0845V13.4204H3.9895L3.88794 13.6314C3.69263 14.022 3.85669 14.4985 4.23169 14.686C4.62231 14.8892 5.08325 14.7251 5.27856 14.3345L5.73169 13.4204H13.2239L13.6692 14.3345C13.8645 14.7251 14.3333 14.8892 14.7239 14.686C15.0989 14.4985 15.2629 14.022 15.0676 13.6314L14.9661 13.4204H16.2161V15.0845C16.2161 15.397 16.427 15.6157 16.7395 15.6157H17.2004C17.5129 15.6157 17.7161 15.397 17.7161 15.0845V13.4204H18.3645C18.6067 13.4204 18.7942 13.2329 18.7942 12.9907C18.7942 12.7485 18.6067 12.5532 18.3645 12.5532H17.7161V10.8892C17.7161 10.5767 17.5129 10.3657 17.2004 10.3657H16.7395C16.427 10.3657 16.2161 10.5767 16.2161 10.8892V12.5532H14.5364L12.2004 7.82667C11.8567 7.13917 11.2161 6.73292 10.4114 6.73292H8.54419C7.7395 6.73292 7.09888 7.13917 6.75513 7.82667L4.41919 12.5532H2.72388V10.8892C2.72388 10.5767 2.51294 10.3657 2.20044 10.3657H1.74731C1.43481 10.3657 1.22388 10.5767 1.22388 10.8892V12.5532H0.583252C0.333252 12.5532 0.145752 12.7485 0.145752 12.9907C0.145752 13.2329 0.333252 13.4204 0.583252 13.4204H1.22388V15.0845C1.22388 15.397 1.43481 15.6157 1.74731 15.6157ZM7.76294 11.8032H11.2004V9.93604C11.2004 9.80323 11.4114 9.74073 11.4895 9.90479L12.7942 12.5532H6.16138L7.47388 9.90479C7.552 9.74073 7.76294 9.78761 7.76294 9.92823V11.8032ZM6.30981 21.436C6.68481 21.5142 7.1145 21.3189 7.23169 20.7876L7.96606 17.4282L9.47387 14.647L10.9895 17.4282L11.7239 20.7876C11.8411 21.3423 12.3098 21.5298 12.6926 21.4282C13.0598 21.3267 13.3567 20.9751 13.2395 20.4439L12.4973 16.9829C12.4895 16.9126 12.4817 16.8657 12.4504 16.7954L11.5286 14.1782H7.43481L6.49731 16.7954C6.47388 16.8657 6.46606 16.9126 6.45044 16.9829L5.70825 20.4439C5.59106 20.9985 5.927 21.3579 6.30981 21.436Z"
		fill="currentColor"
	/>
</svg>
