<svg
	color="rgb(var(--foreground, 0, 0, 0))"
	viewBox="0 0 14 24"
	fill="none"
	xmlns="http://www.w3.org/2000/svg"
>
	<path
		d="M7.35951 5.64245C8.29701 5.64245 9.05482 4.87683 9.05482 3.9237C9.05482 2.9862 8.29701 2.22839 7.35951 2.22839C6.40638 2.22839 5.64076 2.9862 5.64076 3.9237C5.64076 4.87683 6.40638 5.64245 7.35951 5.64245ZM3.32826 12.6268H4.32044C4.22669 13.4237 4.37513 13.9393 5.02357 14.6034L8.07044 17.6659L9.26576 21.2206C9.43763 21.7362 9.89857 21.8378 10.2736 21.7362C10.6954 21.6112 10.9142 21.1425 10.7736 20.7206L9.53138 16.9784C9.49232 16.8612 9.45326 16.8143 9.38294 16.7128L7.29701 14.3221L7.73451 9.56433C7.74232 9.40808 7.92982 9.36121 8.01576 9.49402L9.02357 11.0487C9.17201 11.2675 9.39076 11.4628 9.60951 11.5878L12.1329 12.9471C12.5236 13.1503 13.0001 13.0096 13.2189 12.6268C13.4142 12.2362 13.2814 11.7518 12.8986 11.5409L10.3673 10.1893L8.68763 7.59558C8.22669 6.88464 7.55482 6.46277 6.62513 6.46277H5.78138C5.63294 5.97839 5.17201 5.62683 4.60951 5.62683H3.73451C2.74232 5.62683 2.16419 6.21277 2.16419 7.22058V11.4628C2.16419 12.1503 2.64076 12.6268 3.32826 12.6268ZM12.4611 8.60339C12.2189 8.60339 12.0314 8.79089 12.0314 9.03308V10.2206L12.8986 10.6893V9.03308C12.8986 8.79089 12.7033 8.60339 12.4611 8.60339ZM12.4611 21.7596C12.7033 21.7596 12.8986 21.5643 12.8986 21.3221V13.744C12.6173 13.8221 12.3204 13.8143 12.0314 13.7206V21.3221C12.0314 21.5643 12.2189 21.7596 12.4611 21.7596ZM1.14857 21.5253C1.46888 21.8534 1.95326 21.8378 2.26576 21.5253L5.18763 18.619C5.24232 18.5565 5.30482 18.5018 5.33607 18.4315L6.14076 16.7987L4.74232 15.4003L3.92982 17.6268L1.14857 20.4237C0.843881 20.7362 0.836069 21.2206 1.14857 21.5253Z"
		fill="currentColor"
	/>
</svg>
