<svg
	color="rgb(var(--foreground, 0, 0, 0))"
	viewBox="0 0 17 24"
	fill="none"
	xmlns="http://www.w3.org/2000/svg"
>
	<path
		d="M11.6606 6.73438C12.606 6.73438 13.356 5.97656 13.356 5.02344C13.356 4.07812 12.606 3.32031 11.6606 3.32031C10.7075 3.32031 9.94189 4.07812 9.94189 5.02344C9.94189 5.97656 10.7075 6.73438 11.6606 6.73438ZM6.34033 20.6797C6.77783 20.6797 7.15283 20.3203 7.15283 19.875V12.5391C8.93408 12.25 10.481 11.0703 11.2231 9.46095C11.2856 9.29688 11.4731 9.21876 11.7856 9.32813L15.7388 10.6563C16.2857 10.8359 16.6607 10.5391 16.7778 10.1563C16.9028 9.76563 16.7622 9.28907 16.2544 9.12501L4.41064 5.17188C3.86377 4.98438 3.48096 5.28906 3.36377 5.67188C3.23877 6.0625 3.38721 6.53126 3.89502 6.70313L8.15283 8.12501C8.34814 8.19532 8.44971 8.4297 8.32471 8.63282C7.87158 9.34376 7.19971 9.77345 6.34033 9.77345H2.30127V5.71875C2.30127 5.24219 1.98096 4.91406 1.48877 4.91406C1.00439 4.91406 0.684082 5.24219 0.684082 5.71875V10.5156C0.684082 11.0469 0.949707 11.2969 1.35596 11.3672L4.93408 11.9609L5.53564 15.4922V19.875C5.53564 20.3203 5.89502 20.6797 6.34033 20.6797Z"
		fill="currentColor"
	/>
</svg>
