<svg
	color="rgb(var(--foreground, 0, 0, 0))"
	viewBox="0 0 17 24"
	fill="none"
	xmlns="http://www.w3.org/2000/svg"
>
	<path
		d="M0.886475 20.0156C0.886475 20.375 1.18335 20.6641 1.53491 20.6641C1.89429 20.6641 2.19116 20.375 2.19116 20.0156V3.98438C2.19116 3.625 1.89429 3.33594 1.53491 3.33594C1.18335 3.33594 0.886475 3.625 0.886475 3.98438V20.0156ZM10.8474 6.76562C11.7927 6.76562 12.5505 6 12.5505 5.0625C12.5505 4.11719 11.7927 3.35938 10.8474 3.35938C9.9021 3.35938 9.14429 4.11719 9.14429 5.0625C9.14429 6 9.9021 6.76562 10.8474 6.76562ZM9.07397 19.9844L10.7068 16.6719C10.7771 16.5469 10.7927 16.4688 10.9568 16.2656L12.5349 14.2812C13.1365 13.5391 13.3396 13.125 13.2693 12.2578L13.1443 10.5469C13.1287 10.3359 13.4021 10.2109 13.6052 10.3984L14.1833 10.9141L14.3552 12.9375C14.3943 13.4375 14.6599 13.6953 15.0974 13.6641C15.5271 13.6484 15.7927 13.3203 15.7537 12.8516L15.6052 11.0078C15.5662 10.5 15.4412 10.1875 15.0505 9.80469L13.8552 8.625C13.0974 7.88281 12.5427 7.46875 11.7146 7.46875C10.6208 7.46875 9.98804 8.28125 10.0662 9.35156L10.2224 11.6094C10.2771 12.4141 10.3787 12.8984 10.6521 13.7109L10.7224 13.9219L9.7146 15.3516C9.55835 15.5625 9.39429 15.8281 9.26929 16.0703L7.67554 19.2969C7.1521 20.3594 8.5896 20.9609 9.07397 19.9844ZM6.36304 10.5156C5.89429 10.5156 5.58179 10.7969 5.58179 11.2188C5.58179 11.6562 5.88647 11.9219 6.36304 11.9219H8.04272C8.50366 11.9219 8.73022 11.8438 8.98022 11.5938L9.43335 11.1406L9.30054 9.25781L8.15991 10.5156H6.36304ZM14.7927 20.2188C15.4021 20.9453 16.6052 20.0859 15.8708 19.2031L13.5505 16.4531L13.1755 14.6875L11.9177 16.2656L12.0896 16.7969C12.1833 17.0859 12.2146 17.1484 12.449 17.4219L14.7927 20.2188Z"
		fill="currentColor"
	/>
</svg>
