<svg
	color="rgb(var(--foreground, 0, 0, 0))"
	viewBox="0 0 16 24"
	fill="none"
	xmlns="http://www.w3.org/2000/svg"
>
	<path
		d="M8.15907 6.43689C9.07314 6.43689 9.81532 5.68689 9.81532 4.7572C9.81532 3.84314 9.07314 3.09314 8.15907 3.09314C7.22939 3.09314 6.47939 3.84314 6.47939 4.7572C6.47939 5.68689 7.22939 6.43689 8.15907 6.43689ZM8.15907 13.5931L10.0419 16.5463L11.4481 20.4213C11.6044 20.851 12.0184 20.9916 12.37 20.8588C12.745 20.7338 12.9403 20.3041 12.7997 19.9369L9.96376 12.14V8.61658C9.96376 8.45252 10.0497 8.30408 10.1981 8.22595L14.9872 5.67126C15.3388 5.48376 15.4716 5.05408 15.2841 4.6947C15.0966 4.34314 14.6669 4.21814 14.3153 4.40564L9.69032 6.85095C9.1747 7.12439 8.66689 7.24939 8.15907 7.24939C7.65126 7.24939 7.14345 7.12439 6.62782 6.85095L2.00282 4.40564C1.65126 4.21814 1.22157 4.34314 1.03407 4.6947C0.83876 5.05408 0.979385 5.48376 1.33095 5.67126L6.12001 8.22595C6.26845 8.30408 6.35439 8.45252 6.35439 8.61658V12.14L3.51845 19.9369C3.37782 20.3041 3.57314 20.7338 3.94032 20.8588C4.2997 20.9916 4.71376 20.851 4.87001 20.4213L6.27626 16.5463L8.15907 13.5931Z"
		fill="currentColor"
	/>
</svg>
