<svg
	color="rgb(var(--foreground, 0, 0, 0))"
	viewBox="0 0 13 24"
	fill="none"
	xmlns="http://www.w3.org/2000/svg"
>
	<path
		d="M10.7018 6.25391C11.6315 6.25391 12.3971 5.48828 12.3971 4.53516C12.3971 3.59766 11.6315 2.83984 10.7018 2.83984C9.74866 2.83984 8.98304 3.59766 8.98304 4.53516C8.98304 5.48828 9.74866 6.25391 10.7018 6.25391ZM6.77991 18.3164C7.23304 18.3164 7.60023 17.9492 7.60023 17.5117V13.418C7.60023 13.2227 7.52991 13.0508 7.41273 12.9102L5.56116 10.6367C5.44398 10.4883 5.48304 10.332 5.63148 10.2539L7.88148 9.08203C8.04554 8.9961 8.21741 9.0586 8.24085 9.25391L8.43616 10.6367C8.48304 10.9414 8.65491 11.1523 8.97523 11.3086L11.2018 12.4258C11.8034 12.7305 12.2799 12.4805 12.4362 12.0977C12.5768 11.7383 12.4674 11.2695 11.9674 11.0195L9.98304 10.0039L9.66273 7.64453C9.48304 6.38672 8.10023 5.61328 6.7721 6.3086L3.8346 7.83985C2.49085 8.54297 2.30335 10.082 3.31116 11.0898L5.99085 13.7617V17.5117C5.99085 17.9492 6.35023 18.3164 6.77991 18.3164ZM0.529914 13.2617C0.834602 13.8086 1.3971 13.9727 1.9596 13.8477L2.06116 13.8242L3.96741 19.4883L2.46741 20.4727C2.1471 20.6836 2.24085 21.1602 2.61585 21.1602H10.9049C11.2799 21.1602 11.3737 20.668 11.069 20.4727L9.59241 19.5039L11.4987 13.707C11.5846 13.4727 11.4518 13.207 11.233 13.1367C10.9674 13.0586 10.7409 13.1914 10.6627 13.4258L9.55335 16.7148C9.2721 16.1289 8.80335 15.6445 8.22523 15.332V16.5039C8.6471 16.8867 8.88929 17.4414 8.88929 18.0508C8.88929 19.2227 7.93616 20.168 6.76429 20.168C5.61585 20.168 4.6471 19.1992 4.6471 18.0508C4.6471 17.4336 4.92835 16.8633 5.35804 16.4727V15.3164C4.76429 15.6133 4.27991 16.1055 3.99085 16.707L2.9596 13.6289L3.6471 13.4727C3.88148 13.4258 4.02991 13.2539 4.02991 13.0039C4.02991 12.7617 3.86585 12.5898 3.63148 12.5508L0.748664 12.0508C0.264289 11.9648 0.0221018 12.3555 0.240852 12.7539L0.529914 13.2617Z"
		fill="currentColor"
	/>
</svg>
