<svg
	color="rgb(var(--foreground, 0, 0, 0))"
	viewBox="0 0 12 24"
	fill="none"
	xmlns="http://www.w3.org/2000/svg"
>
	<path
		d="M6.82927 5.75781C7.76677 5.75781 8.52458 4.99219 8.52458 4.03906C8.52458 3.10156 7.76677 2.34375 6.82927 2.34375C5.87615 2.34375 5.11052 3.10156 5.11052 4.03906C5.11052 4.99219 5.87615 5.75781 6.82927 5.75781ZM8.6574 10.3203C8.97771 10.6562 9.5949 10.6328 9.87615 10.1875L11.7746 7.14062C12.3605 6.20312 10.9855 5.45312 10.4465 6.3125L9.07146 8.53125L7.99333 7.44531C6.95427 6.41406 5.82146 6.20312 4.24333 6.38281L1.46208 6.69531C1.10271 6.73438 0.821458 7.02344 0.782395 7.36719L0.39177 10.4375C0.26677 11.4219 1.79802 11.6797 1.93083 10.625L2.24333 8.17188L3.69646 8.00781C3.89958 7.99219 4.04021 8.125 4.00896 8.35156L3.64177 11.3594C3.46208 12.7812 4.2824 13.6016 5.68865 13.5L8.56365 13.2969L7.70427 16.4297C7.41521 17.4844 8.93865 17.8516 9.21208 16.8281L10.3449 12.6562C10.4855 12.125 10.1261 11.6719 9.5324 11.6719H6.56365L6.93865 9.10938C6.97771 8.85938 7.20427 8.85156 7.3449 9.00781L8.6574 10.3203ZM4.41521 14.0938L4.22771 16.875L2.75896 20.5469C2.50115 21.2031 2.9699 21.6562 3.45427 21.6562C3.75896 21.6562 4.06365 21.4922 4.2199 21.1016L5.7199 17.3359C5.73552 17.2812 5.75896 17.2188 5.76677 17.1641L6.20427 14.2266L5.74333 14.2578C5.25115 14.2891 4.79802 14.2266 4.41521 14.0938Z"
		fill="currentColor"
	/>
</svg>
