<svg
	color="rgb(var(--foreground, 0, 0, 0))"
	viewBox="0 0 16 24"
	fill="none"
	xmlns="http://www.w3.org/2000/svg"
>
	<path
		d="M6.34375 5.26953C7.27344 5.26953 8.04688 4.49609 8.04688 3.56641C8.04688 2.62891 7.27344 1.85547 6.34375 1.85547C5.40625 1.85547 4.63281 2.62891 4.63281 3.56641C4.63281 4.49609 5.40625 5.26953 6.34375 5.26953ZM7.35156 18.0899C7.65625 18.168 8.17188 18.0586 8.32031 17.5586L9.45312 13.8008C9.57031 13.3945 9.39062 12.9805 8.96094 12.832L5.89062 11.7695L6.27344 9.15235C6.28906 8.9961 6.49219 8.95704 6.5625 9.10548L7.21875 10.3789C7.36719 10.668 7.625 10.8086 7.92188 10.8086H11.0625C11.4922 10.8086 11.8516 10.4727 11.8516 10.0274C11.8516 9.60548 11.4922 9.2461 11.0625 9.2461H8.40625L7.38281 7.22266C7.05469 6.56641 6.46875 6.10547 5.73438 5.96484L5.29688 5.87891C4.49219 5.72266 3.84375 5.89454 3.34375 6.20704L0.804688 7.78516C0.585938 7.9336 0.4375 8.1836 0.4375 8.46485V11.5977C0.4375 12.0274 0.796875 12.3945 1.22656 12.3945C1.65625 12.3945 2.01562 12.0274 2.01562 11.5977V8.88673L3.10938 8.20704C3.21094 8.15235 3.32812 8.21485 3.30469 8.33204L2.94531 11.2305C2.80469 12.3399 3.17188 13.0977 4.44531 13.3945L7.70312 14.1602L6.82031 17.1211C6.70312 17.5274 6.85938 17.9492 7.35156 18.0899ZM1.58594 20.918C1.86719 21.1055 2.375 21.1055 2.66406 20.6836L4.97656 17.2383C5.08594 17.0742 5.14062 16.9492 5.17188 16.7539L5.5 14.4492L4.27344 14.1602C4.08594 14.1211 3.92188 14.0586 3.76562 14.0039L3.60156 16.4805L1.36719 19.8242C1.125 20.1836 1.21094 20.6758 1.58594 20.918ZM4.69531 22.1445H7.21094C7.45312 22.1445 7.65625 21.9414 7.65625 21.6992V20.1914H9.73438C9.96875 20.1914 10.1641 20.0039 10.1641 19.7539V18.2383H12.2578C12.5 18.2383 12.6875 18.0508 12.6875 17.8086V16.293H14.6875C14.9297 16.293 15.1328 16.0977 15.1328 15.8555C15.1328 15.6211 14.9297 15.418 14.6875 15.418H12.2578C12.0156 15.418 11.8281 15.6211 11.8281 15.8555V17.3711H9.73438C9.48438 17.3711 9.30469 17.5742 9.30469 17.8086V19.3242H7.21094C6.97656 19.3242 6.78906 19.5117 6.78906 19.7539V21.2774H4.69531C4.44531 21.2774 4.26562 21.4649 4.26562 21.6992C4.26562 21.9414 4.44531 22.1445 4.69531 22.1445Z"
		fill="currentColor"
	/>
</svg>
