<svg
	color="rgb(var(--foreground, 0, 0, 0))"
	viewBox="0 0 14 24"
	fill="none"
	xmlns="http://www.w3.org/2000/svg"
>
	<path
		d="M8.50636 6.83936C9.45168 6.83936 10.2095 6.08154 10.2095 5.13623C10.2095 4.19092 9.45168 3.43311 8.50636 3.43311C7.56105 3.43311 6.80324 4.19092 6.80324 5.13623C6.80324 6.08154 7.56105 6.83936 8.50636 6.83936ZM5.83449 13.6362L8.82668 15.3159L6.89699 16.9722C6.48293 17.3237 6.49074 17.7847 6.74074 18.0659C6.99855 18.355 7.45949 18.4253 7.88918 18.0581L10.5845 15.7612C10.9517 15.4487 10.897 14.7769 10.4517 14.4878L7.52199 12.5659L8.10011 10.5425C8.17824 10.2534 8.51418 10.2144 8.68605 10.4644L9.54543 11.7222C9.74855 12.0112 10.1157 12.1284 10.4517 11.9722L12.9282 10.8706C13.3657 10.6753 13.5298 10.2925 13.3423 9.89404C13.147 9.50342 12.772 9.38623 12.3345 9.58154L10.3736 10.4487L9.02199 8.58154C8.31886 7.61279 7.44386 7.21436 6.00636 7.32373L3.26418 7.51904C2.82668 7.55029 2.5298 7.83154 2.4673 8.28467L2.10011 11.0659C2.02979 11.5503 2.27199 11.8862 2.70168 11.9331C3.13918 11.9722 3.42043 11.7222 3.48293 11.2378L3.81886 8.96436L4.92043 8.88623C5.16261 8.86279 5.4048 9.03467 5.31886 9.33936L4.67824 11.5737C4.30324 12.894 5.16261 13.2534 5.83449 13.6362ZM0.607918 20.3862C0.896981 20.6284 1.34229 20.6597 1.74073 20.2769L4.27199 17.769C4.48293 17.5581 4.5298 17.5112 4.66261 17.1831L5.72511 14.4331L5.4673 14.2925C4.87355 13.9722 4.45949 13.644 4.17824 13.2925L3.24855 16.5815L0.623543 19.1987C0.209481 19.605 0.287606 20.105 0.607918 20.3862Z"
		fill="currentColor"
	/>
</svg>
