<svg
	color="rgb(var(--foreground, 0, 0, 0))"
	viewBox="0 0 19 24"
	fill="none"
	xmlns="http://www.w3.org/2000/svg"
>
	<path
		d="M14.0608 7.12109C14.9905 7.12109 15.7483 6.36328 15.7483 5.41016C15.7483 4.47266 14.9905 3.71484 14.0608 3.71484C13.1077 3.71484 12.3499 4.47266 12.3499 5.41016C12.3499 6.36328 13.1077 7.12109 14.0608 7.12109ZM1.29517 9.57422C1.05298 9.57422 0.857666 9.76953 0.857666 9.99609C0.857666 10.2383 1.05298 10.4414 1.29517 10.4414H5.0686C5.26392 10.4414 5.46704 10.3555 5.62329 10.1992L7.72485 8.10547H9.11548C9.23267 8.10547 9.27954 8.21484 9.18579 8.30078L7.49048 10.0039C6.78735 10.707 6.77954 11.6992 7.49048 12.4102L10.0999 15.0117V19.418H2.95923C2.72485 19.418 2.52173 19.6055 2.52173 19.8398C2.52173 20.0742 2.71704 20.2852 2.95923 20.2852H16.6233C17.4202 20.2852 17.8967 20.0898 18.4514 19.8242C18.6858 19.7227 18.7717 19.4727 18.6858 19.2773C18.6233 19.0586 18.3655 18.9102 18.0842 19.0508C17.6389 19.2773 17.2874 19.418 16.6233 19.418H11.6858V14.6836C11.6858 14.5273 11.6389 14.3477 11.5295 14.207L9.79517 11.8711L11.9983 9.66016C12.1467 9.50391 12.3655 9.50391 12.5139 9.66016L14.6077 11.7695C14.7483 11.9258 14.967 11.9883 15.1702 11.9883C15.3733 11.9883 15.5764 11.9102 15.7249 11.7695L17.4358 10.0586V17.7539C17.4358 17.9961 17.6311 18.1914 17.8577 18.1914C18.0999 18.1914 18.303 17.9961 18.303 17.7539V8.86328C18.303 8.16797 17.4436 7.79297 16.9358 8.30078L15.1702 10.0664L12.1858 7.10547C11.803 6.73047 11.4202 6.51953 10.8108 6.51953H7.49048C7.20142 6.51953 6.99829 6.59766 6.78735 6.80078L4.51392 9.07422C4.36548 9.22266 4.29517 9.39453 4.27954 9.57422H1.29517ZM6.55298 12.4258L5.45142 13.9023H1.5686C1.13892 13.9023 0.779541 14.2461 0.779541 14.6914C0.779541 15.1289 1.13892 15.4727 1.5686 15.4727H5.84204C6.0686 15.4727 6.27173 15.3867 6.45142 15.207L7.84204 13.8242L6.95923 12.9492C6.79517 12.7773 6.66235 12.6133 6.55298 12.4258Z"
		fill="currentColor"
	/>
</svg>
