<svg
	color="rgb(var(--foreground, 0, 0, 0))"
	viewBox="0 0 16 24"
	fill="none"
	xmlns="http://www.w3.org/2000/svg"
>
	<path
		d="M2.44556 2.96795C1.29712 2.96795 0.398682 3.8742 0.398682 5.03045C0.398682 5.94451 1.07056 6.9367 2.00806 7.4367V9.9992C2.00806 10.2648 2.08618 10.4914 2.28931 10.6555L4.49243 12.4055C4.76587 12.6164 5.06274 12.6008 5.40649 12.4601L7.85181 11.4367C8.19556 11.2883 8.36743 11.4836 8.40649 11.718L9.61743 18.3976L6.25806 19.7414C5.85962 19.8976 5.65649 20.3586 5.81274 20.7726C6.00024 21.2336 6.45337 21.3586 6.84399 21.2023L10.8049 19.6242C11.1487 19.4836 11.3284 19.1476 11.3049 18.7883L11.0784 15.7101C11.0549 15.3664 11.4299 15.1711 11.6956 15.3508L14.0784 16.9445V20.4836C14.0784 20.9133 14.4221 21.2726 14.8674 21.2726C15.3049 21.2726 15.6565 20.9133 15.6565 20.4836V16.5226C15.6565 16.2414 15.5081 16.0305 15.3049 15.8586L12.2346 13.3273L11.6252 10.0305C11.5706 9.69452 11.6096 9.36639 11.7737 9.03827L14.3596 3.8742C14.5549 3.48357 14.3909 3.00701 14.0003 2.8117C13.6096 2.61638 13.1331 2.77263 12.9377 3.15545L10.3987 8.2492C10.219 8.60858 9.96118 8.84295 9.57837 8.9992L5.10181 10.8586L3.29712 9.41327C3.16431 9.3117 3.00806 9.27264 2.87524 9.27264V7.4367C3.81274 6.9367 4.48462 5.94451 4.48462 5.03045C4.48462 3.8742 3.58618 2.96795 2.44556 2.96795ZM2.44556 3.83513C3.10181 3.83513 3.61743 4.36638 3.61743 5.05388C3.61743 5.72576 3.12524 6.45233 2.44556 6.6867C1.76587 6.45233 1.26587 5.72576 1.26587 5.05388C1.26587 4.36638 1.78149 3.83513 2.44556 3.83513ZM7.96118 8.6242C8.90649 8.6242 9.67212 7.85858 9.67212 6.91327C9.67212 5.96795 8.90649 5.21013 7.96118 5.21013C7.01587 5.21013 6.25806 5.96795 6.25806 6.91327C6.25806 7.85858 7.01587 8.6242 7.96118 8.6242Z"
		fill="currentColor"
	/>
</svg>
