<svg
	color="rgb(var(--foreground, 0, 0, 0))"
	viewBox="0 0 20 24"
	fill="none"
	xmlns="http://www.w3.org/2000/svg"
>
	<path
		d="M5.2041 7.49219C6.1416 7.49219 6.90723 6.72656 6.90723 5.77344C6.90723 4.83594 6.1416 4.07812 5.2041 4.07812C4.2666 4.07812 3.49316 4.83594 3.49316 5.77344C3.49316 6.72656 4.2666 7.49219 5.2041 7.49219ZM2.02441 15.3984L3.48535 14.5V17.5859C4.07129 17.375 4.54785 17.0938 5.11035 16.875L5.23535 15.7344C5.25098 15.6484 5.36816 15.6328 5.39941 15.7031L5.87598 16.6562C6.12598 16.6016 6.39941 16.5703 6.72754 16.5703C7.11035 16.5703 7.41504 16.625 7.68066 16.7266L6.8916 14.6016V12.4141L18.5635 5.25C18.7744 5.11719 18.8291 4.85938 18.6885 4.64062C18.5635 4.42969 18.3057 4.375 18.0947 4.50781L6.8916 11.3828V9.89844C6.8916 9.03125 6.28223 8.3125 5.21191 8.3125H4.84473C4.2041 8.3125 3.48535 8.39844 2.83691 9.03125L1.06348 10.7969C0.774414 11.0859 0.774414 11.5859 1.06348 11.8672L2.99316 13.7734L1.56348 14.6484C1.35254 14.7812 1.29004 15.0469 1.43066 15.2578C1.55566 15.4688 1.81348 15.5312 2.02441 15.3984ZM3.48535 12.1562L2.67285 11.3359L3.24316 10.7578C3.33691 10.6641 3.48535 10.7188 3.48535 10.8594V12.1562ZM1.7666 19.9219H2.56348C4.64941 19.9219 5.12598 18.6328 6.57129 18.6328C8.0166 18.6328 8.49316 19.9219 10.5791 19.9219C12.665 19.9219 13.1416 18.6328 14.5869 18.6328C16.0322 18.6328 16.5088 19.9219 18.5947 19.9219H19.3916C19.6338 19.9219 19.8213 19.7344 19.8213 19.4922C19.8213 19.25 19.6338 19.0547 19.3916 19.0547H18.5947C17.0947 19.0547 16.5869 17.7656 14.5869 17.7656C12.5869 17.7656 12.0791 19.0547 10.5791 19.0547C9.0791 19.0547 8.57129 17.7656 6.57129 17.7656C4.56348 17.7656 4.06348 19.0547 2.56348 19.0547H1.7666C1.52441 19.0547 1.3291 19.25 1.3291 19.4922C1.3291 19.7344 1.52441 19.9219 1.7666 19.9219Z"
		fill="currentColor"
	/>
</svg>
