<svg
	color="rgb(var(--foreground, 0, 0, 0))"
	viewBox="0 0 17 24"
	fill="none"
	xmlns="http://www.w3.org/2000/svg"
>
	<path
		d="M13.0569 6.45764C13.9944 6.45764 14.7522 5.69983 14.7522 4.7467C14.7522 3.8092 13.9944 3.05139 13.0569 3.05139C12.1038 3.05139 11.3459 3.8092 11.3459 4.7467C11.3459 5.69983 12.1038 6.45764 13.0569 6.45764ZM2.30688 11.5983C3.26782 11.5983 4.0647 10.8092 4.0647 9.84045C4.0647 9.4967 3.95532 9.16858 3.78345 8.89514H8.5022C8.77563 8.89514 8.90063 9.17639 8.70532 9.3717L7.14282 10.9342C6.4397 11.6373 6.54126 12.6842 7.01782 13.0436L10.9944 16.0748L9.76001 19.8873C9.58032 20.4342 9.92407 20.8248 10.3381 20.9264C10.7053 21.0123 11.135 20.8561 11.2991 20.3405L12.6819 16.067C12.7834 15.7545 12.7288 15.4186 12.51 15.2076L9.83813 12.5358L12.9084 9.45764C13.0413 9.32483 13.2444 9.32483 13.3772 9.45764L14.4397 10.5123L12.9866 11.9655C12.6663 12.2936 12.6741 12.8014 12.9866 13.1139C13.2834 13.403 13.8069 13.4342 14.1272 13.1139L16.1506 11.0905C16.4709 10.7701 16.4631 10.2701 16.1506 9.94983L14.1975 7.98108C13.7288 7.51233 13.1663 7.27795 12.4944 7.27795H3.11157C2.67407 7.27795 2.30688 7.63733 2.30688 8.08264C1.33813 8.08264 0.549072 8.87952 0.549072 9.84045C0.549072 10.8092 1.33813 11.5983 2.30688 11.5983ZM6.78345 13.8092L6.39282 16.1842H2.65063C2.1897 16.1842 1.83032 16.5436 1.83032 16.9967C1.83032 17.442 2.1897 17.8014 2.65063 17.8014H7.04126C7.46313 17.8014 7.74438 17.5905 7.85376 17.2155L8.48657 15.1139L6.78345 13.8092Z"
		fill="currentColor"
	/>
</svg>
