<svg
	color="rgb(var(--foreground, 0, 0, 0))"
	viewBox="0 0 20 24"
	fill="none"
	xmlns="http://www.w3.org/2000/svg"
>
	<path
		d="M13.7495 6.84021C14.6948 6.84021 15.4526 6.07458 15.4526 5.13708C15.4526 4.19177 14.6948 3.43396 13.7495 3.43396C12.8042 3.43396 12.0464 4.19177 12.0464 5.13708C12.0464 6.07458 12.8042 6.84021 13.7495 6.84021ZM3.7417 6.32458H8.24951C8.52295 6.32458 8.7417 6.09802 8.7417 5.81677C8.7417 5.53552 8.52295 5.30115 8.24951 5.30115H3.7417C3.46045 5.30115 3.24951 5.53552 3.24951 5.81677C3.24951 6.09802 3.46045 6.32458 3.7417 6.32458ZM15.5229 20.059C15.9995 21.0355 17.4448 20.434 16.9214 19.3715L15.3276 16.1449C15.2026 15.9027 15.0308 15.6371 14.8823 15.4261L13.8745 13.9965L13.9448 13.7855C14.2183 12.973 14.3198 12.4886 14.3745 11.684L14.5308 9.42615C14.6089 8.35583 13.9761 7.54333 12.8823 7.54333C12.0542 7.54333 11.4995 7.9574 10.7417 8.69958L9.54639 9.87927C9.15576 10.2621 9.03076 10.5746 8.9917 11.0824L8.84326 12.9261C8.8042 13.3949 9.06201 13.723 9.49951 13.7386C9.93701 13.7699 10.2026 13.5121 10.2417 13.0121L10.4136 10.9886L10.9917 10.473C11.1948 10.2855 11.4683 10.4105 11.4526 10.6215L11.3276 12.3324C11.2573 13.1996 11.4604 13.6136 12.062 14.3558L13.6401 16.3402C13.8042 16.5433 13.8198 16.6215 13.8901 16.7465L15.5229 20.059ZM0.944824 10.2386H6.29639C6.57764 10.2386 6.78857 10.0121 6.78857 9.73083C6.78857 9.44958 6.57764 9.21521 6.29639 9.21521H0.944824C0.671387 9.21521 0.460449 9.4574 0.460449 9.73083C0.460449 10.0043 0.671387 10.2386 0.944824 10.2386ZM18.2339 10.5902H16.437L15.2964 9.3324L15.1636 11.2152L15.6167 11.6683C15.8667 11.9183 16.0933 11.9965 16.5542 11.9965H18.2339C18.7104 11.9965 19.0151 11.7308 19.0151 11.2933C19.0151 10.8715 18.7026 10.5902 18.2339 10.5902ZM3.28076 14.1527H6.25732C6.53076 14.1527 6.7417 13.9261 6.7417 13.6449C6.7417 13.3636 6.53076 13.1293 6.25732 13.1293H3.28076C2.99951 13.1293 2.78857 13.3636 2.78857 13.6449C2.78857 13.9261 2.99951 14.1527 3.28076 14.1527ZM9.8042 20.2933L12.1479 17.4965C12.3823 17.223 12.4136 17.1605 12.5073 16.8715L12.6792 16.3402L11.4214 14.7621L11.0464 16.5277L8.72607 19.2777C7.9917 20.1605 9.19482 21.0199 9.8042 20.2933ZM1.22607 18.0199H5.3042C5.57764 18.0199 5.78857 17.7933 5.78857 17.5121C5.78857 17.2308 5.57764 16.9965 5.3042 16.9965H1.22607C0.952637 16.9965 0.741699 17.2308 0.741699 17.5121C0.741699 17.7933 0.952637 18.0199 1.22607 18.0199Z"
		fill="currentColor"
	/>
</svg>
