<svg
	color="rgb(var(--foreground, 0, 0, 0))"
	viewBox="0 0 18 24"
	fill="none"
	xmlns="http://www.w3.org/2000/svg"
>
	<path
		d="M5.60386 7.51013C6.54918 7.51013 7.30699 6.74451 7.30699 5.79138C7.30699 4.85388 6.54918 4.09607 5.60386 4.09607C4.66636 4.09607 3.89293 4.85388 3.89293 5.79138C3.89293 6.74451 4.66636 7.51013 5.60386 7.51013ZM17.1586 18.4008L12.0101 15.6195L9.03355 13.5492C8.8148 13.4008 8.60386 13.2054 8.43199 12.9867C8.73668 12.7992 8.86168 12.4554 8.77574 12.1195L8.1898 9.74451C7.97886 8.90857 7.22105 8.33044 6.36168 8.33044H4.5023C3.93199 8.33044 3.53355 8.47107 3.16636 8.83826L1.04918 10.9554C0.791364 11.2133 0.752302 11.6117 0.931989 11.9242L2.41636 14.5258V19.1039C2.41636 19.5336 2.77574 19.9008 3.21324 19.9008C3.65074 19.9008 4.01011 19.5336 4.01011 19.1039V15.1742L8.5648 15.5023L11.3226 17.0648L16.4086 19.7992C16.8773 20.0492 17.3304 19.8148 17.4945 19.4867C17.6898 19.0961 17.5414 18.6039 17.1586 18.4008ZM2.61949 11.6586L3.99449 10.2758L5.0648 13.0336L4.22105 13.5179H3.68199L2.61949 11.6586Z"
		fill="currentColor"
	/>
</svg>
