<svg
	color="rgb(var(--foreground, 0, 0, 0))"
	viewBox="0 0 24 24"
	fill="none"
	xmlns="http://www.w3.org/2000/svg"
>
	<path
		d="M7.875 19.5508H10.4688C10.7917 19.5508 11.0495 19.457 11.2422 19.2695C11.4349 19.082 11.5312 18.8529 11.5312 18.582C11.5312 18.4362 11.4974 18.2852 11.4297 18.1289C11.3672 17.9779 11.2656 17.8268 11.125 17.6758C10.9531 17.4883 10.8177 17.2878 10.7188 17.0742C10.6198 16.8607 10.5703 16.6393 10.5703 16.4102C10.5703 15.957 10.7214 15.569 11.0234 15.2461C11.3255 14.9232 11.7318 14.7617 12.2422 14.7617C12.7526 14.7617 13.1589 14.9232 13.4609 15.2461C13.763 15.569 13.9141 15.957 13.9141 16.4102C13.9141 16.6393 13.862 16.8607 13.7578 17.0742C13.6589 17.2878 13.5234 17.4883 13.3516 17.6758C13.2161 17.8268 13.1146 17.9779 13.0469 18.1289C12.9844 18.2852 12.9531 18.4362 12.9531 18.582C12.9531 18.8529 13.0495 19.082 13.2422 19.2695C13.4349 19.457 13.6927 19.5508 14.0156 19.5508H16.6016C17.388 19.5508 17.9818 19.3529 18.3828 18.957C18.7891 18.5612 18.9922 17.9753 18.9922 17.1992V14.4414C18.9922 14.3789 19.013 14.3372 19.0547 14.3164C19.0964 14.2904 19.151 14.3034 19.2188 14.3555C19.3854 14.4701 19.5599 14.5742 19.7422 14.668C19.9245 14.7565 20.1146 14.8268 20.3125 14.8789C20.5156 14.931 20.724 14.957 20.9375 14.957C21.4323 14.957 21.8906 14.8346 22.3125 14.5898C22.7396 14.3398 23.0833 13.9961 23.3438 13.5586C23.6094 13.1211 23.7422 12.6107 23.7422 12.0273C23.7422 11.4492 23.6094 10.9414 23.3438 10.5039C23.0833 10.0612 22.7396 9.71745 22.3125 9.47266C21.8906 9.22786 21.4323 9.10547 20.9375 9.10547C20.724 9.10547 20.5156 9.13151 20.3125 9.18359C20.1146 9.23568 19.9245 9.30859 19.7422 9.40234C19.5599 9.49089 19.3854 9.59245 19.2188 9.70703C19.151 9.75911 19.0964 9.77474 19.0547 9.75391C19.013 9.72786 18.9922 9.68359 18.9922 9.62109V6.80078C18.9922 6.02995 18.7891 5.44661 18.3828 5.05078C17.9818 4.64974 17.388 4.44922 16.6016 4.44922H14.0156C13.6927 4.44922 13.4349 4.54297 13.2422 4.73047C13.0495 4.91797 12.9531 5.14714 12.9531 5.41797C12.9531 5.5638 12.9844 5.71484 13.0469 5.87109C13.1146 6.02214 13.2161 6.17318 13.3516 6.32422C13.5234 6.51172 13.6589 6.71224 13.7578 6.92578C13.862 7.13932 13.9141 7.36328 13.9141 7.59766C13.9141 8.04036 13.7604 8.42578 13.4531 8.75391C13.151 9.07682 12.7474 9.23828 12.2422 9.23828C11.737 9.23828 11.3307 9.07682 11.0234 8.75391C10.7214 8.42578 10.5703 8.04036 10.5703 7.59766C10.5703 7.36328 10.6198 7.13932 10.7188 6.92578C10.8177 6.71224 10.9531 6.51172 11.125 6.32422C11.2656 6.17318 11.3672 6.02214 11.4297 5.87109C11.4974 5.71484 11.5312 5.5638 11.5312 5.41797C11.5312 5.14714 11.4349 4.91797 11.2422 4.73047C11.0495 4.54297 10.7917 4.44922 10.4688 4.44922H7.875C7.09375 4.44922 6.5 4.64974 6.09375 5.05078C5.69271 5.44661 5.49219 6.02995 5.49219 6.80078V9.62109C5.49219 9.68359 5.47135 9.72786 5.42969 9.75391C5.38802 9.77474 5.33333 9.75911 5.26562 9.70703C5.09896 9.59245 4.92448 9.49089 4.74219 9.40234C4.5599 9.30859 4.36719 9.23568 4.16406 9.18359C3.96615 9.13151 3.75781 9.10547 3.53906 9.10547C3.04948 9.10547 2.59115 9.22786 2.16406 9.47266C1.73698 9.71745 1.39323 10.0612 1.13281 10.5039C0.872396 10.9414 0.742188 11.4492 0.742188 12.0273C0.742188 12.6107 0.872396 13.1211 1.13281 13.5586C1.39323 13.9961 1.73698 14.3398 2.16406 14.5898C2.59115 14.8346 3.04948 14.957 3.53906 14.957C3.75781 14.957 3.96615 14.931 4.16406 14.8789C4.36719 14.8268 4.5599 14.7565 4.74219 14.668C4.92448 14.5742 5.09896 14.4701 5.26562 14.3555C5.33333 14.3034 5.38802 14.2904 5.42969 14.3164C5.47135 14.3372 5.49219 14.3789 5.49219 14.4414V17.1992C5.49219 17.9753 5.69271 18.5612 6.09375 18.957C6.5 19.3529 7.09375 19.5508 7.875 19.5508ZM7.89844 18.293C7.53906 18.293 7.25781 18.194 7.05469 17.9961C6.85156 17.7982 6.75 17.5117 6.75 17.1367V13.8086C6.75 13.4805 6.65625 13.2201 6.46875 13.0273C6.28125 12.8346 6.05208 12.7383 5.78125 12.7383C5.63542 12.7383 5.48438 12.7721 5.32812 12.8398C5.17708 12.9023 5.02604 13.0039 4.875 13.1445C4.6875 13.3164 4.48438 13.4544 4.26562 13.5586C4.05208 13.6576 3.83073 13.707 3.60156 13.707C3.15885 13.707 2.77344 13.5534 2.44531 13.2461C2.1224 12.9388 1.96094 12.5326 1.96094 12.0273C1.96094 11.5273 2.1224 11.1237 2.44531 10.8164C2.77344 10.5091 3.15885 10.3555 3.60156 10.3555C3.83073 10.3555 4.05208 10.4076 4.26562 10.5117C4.48438 10.6107 4.6875 10.7461 4.875 10.918C5.02604 11.0586 5.17708 11.1628 5.32812 11.2305C5.48438 11.293 5.63542 11.3242 5.78125 11.3242C6.05208 11.3242 6.28125 11.2279 6.46875 11.0352C6.65625 10.8424 6.75 10.582 6.75 10.2539V6.86328C6.75 6.49349 6.85156 6.20964 7.05469 6.01172C7.25781 5.80859 7.53906 5.70703 7.89844 5.70703H9.69531C9.8776 5.70703 9.96094 5.74609 9.94531 5.82422C9.92969 5.89714 9.89844 5.97005 9.85156 6.04297C9.7474 6.20443 9.65365 6.37109 9.57031 6.54297C9.49219 6.70964 9.42969 6.88672 9.38281 7.07422C9.34115 7.25651 9.32031 7.45182 9.32031 7.66016C9.32031 8.14974 9.44271 8.60807 9.6875 9.03516C9.93229 9.45703 10.2734 9.80078 10.7109 10.0664C11.1536 10.3268 11.6641 10.457 12.2422 10.457C12.8203 10.457 13.3281 10.3268 13.7656 10.0664C14.2083 9.80078 14.5521 9.45703 14.7969 9.03516C15.0417 8.60807 15.1641 8.14974 15.1641 7.66016C15.1641 7.45182 15.1406 7.25651 15.0938 7.07422C15.0469 6.88672 14.9844 6.70964 14.9062 6.54297C14.8281 6.37109 14.737 6.20443 14.6328 6.04297C14.5859 5.97005 14.5521 5.89714 14.5312 5.82422C14.5156 5.74609 14.6016 5.70703 14.7891 5.70703H16.5859C16.9453 5.70703 17.2266 5.80859 17.4297 6.01172C17.6328 6.20964 17.7344 6.49349 17.7344 6.86328V10.2539C17.7344 10.582 17.8281 10.8424 18.0156 11.0352C18.2031 11.2279 18.4323 11.3242 18.7031 11.3242C18.849 11.3242 18.9974 11.293 19.1484 11.2305C19.3047 11.1628 19.4583 11.0586 19.6094 10.918C19.7969 10.7461 19.9974 10.6107 20.2109 10.5117C20.4245 10.4076 20.6458 10.3555 20.875 10.3555C21.3229 10.3555 21.7083 10.5091 22.0312 10.8164C22.3594 11.1237 22.5234 11.5273 22.5234 12.0273C22.5234 12.5326 22.3594 12.9388 22.0312 13.2461C21.7083 13.5534 21.3229 13.707 20.875 13.707C20.6458 13.707 20.4245 13.6576 20.2109 13.5586C19.9974 13.4544 19.7969 13.3164 19.6094 13.1445C19.4583 13.0039 19.3047 12.9023 19.1484 12.8398C18.9974 12.7721 18.849 12.7383 18.7031 12.7383C18.4323 12.7383 18.2031 12.8346 18.0156 13.0273C17.8281 13.2201 17.7344 13.4805 17.7344 13.8086V17.1367C17.7344 17.5117 17.6328 17.7982 17.4297 17.9961C17.2266 18.194 16.9453 18.293 16.5859 18.293H14.7891C14.6016 18.293 14.5156 18.2539 14.5312 18.1758C14.5521 18.1029 14.5859 18.0299 14.6328 17.957C14.737 17.8008 14.8281 17.6367 14.9062 17.4648C14.9844 17.293 15.0469 17.1159 15.0938 16.9336C15.1406 16.7461 15.1641 16.5508 15.1641 16.3477C15.1641 15.8477 15.0417 15.3867 14.7969 14.9648C14.5573 14.5378 14.2161 14.194 13.7734 13.9336C13.3359 13.6732 12.8255 13.543 12.2422 13.543C11.6589 13.543 11.1458 13.6732 10.7031 13.9336C10.2656 14.194 9.92448 14.5378 9.67969 14.9648C9.4401 15.3867 9.32031 15.8477 9.32031 16.3477C9.32031 16.5508 9.34115 16.7461 9.38281 16.9336C9.42969 17.1159 9.49219 17.293 9.57031 17.4648C9.65365 17.6367 9.7474 17.8008 9.85156 17.957C9.89844 18.0299 9.92969 18.1029 9.94531 18.1758C9.96094 18.2539 9.8776 18.293 9.69531 18.293H7.89844Z"
		fill="currentColor"
	/>
</svg>
