<svg
	color="rgb(var(--foreground, 0, 0, 0))"
	viewBox="0 0 20 24"
	fill="none"
	xmlns="http://www.w3.org/2000/svg"
>
	<path
		d="M0 17.1992C0 17.9753 0.203125 18.5612 0.609375 18.957C1.01562 19.3529 1.60938 19.5508 2.39062 19.5508H11.9922C12.7734 19.5508 13.3646 19.3529 13.7656 18.957C14.1719 18.5612 14.375 17.9753 14.375 17.1992V14.4414C14.375 14.3789 14.3958 14.3372 14.4375 14.3164C14.4792 14.2904 14.5365 14.3034 14.6094 14.3555C14.7708 14.4701 14.9427 14.5742 15.125 14.668C15.3073 14.7565 15.4974 14.8268 15.6953 14.8789C15.8984 14.931 16.1094 14.957 16.3281 14.957C16.8177 14.957 17.276 14.8346 17.7031 14.5898C18.1302 14.3398 18.474 13.9961 18.7344 13.5586C18.9948 13.1211 19.125 12.6107 19.125 12.0273C19.125 11.4492 18.9948 10.9414 18.7344 10.5039C18.474 10.0612 18.1302 9.71745 17.7031 9.47266C17.276 9.22786 16.8177 9.10547 16.3281 9.10547C16.1094 9.10547 15.8984 9.13151 15.6953 9.18359C15.4974 9.23568 15.3073 9.30859 15.125 9.40234C14.9427 9.49089 14.7708 9.59245 14.6094 9.70703C14.5365 9.75911 14.4792 9.77474 14.4375 9.75391C14.3958 9.72786 14.375 9.68359 14.375 9.62109V6.80078C14.375 6.02995 14.1719 5.44661 13.7656 5.05078C13.3646 4.64974 12.7734 4.44922 11.9922 4.44922H2.39062C1.60938 4.44922 1.01562 4.64974 0.609375 5.05078C0.203125 5.44661 0 6.02995 0 6.80078V10.2539C0 10.582 0.09375 10.8398 0.28125 11.0273C0.46875 11.2096 0.697917 11.3008 0.96875 11.3008C1.11458 11.3008 1.26302 11.2695 1.41406 11.207C1.57031 11.1393 1.72396 11.0352 1.875 10.8945C2.0625 10.7227 2.26302 10.5872 2.47656 10.4883C2.6901 10.3893 2.91406 10.3398 3.14843 10.3398C3.59114 10.3398 3.97395 10.4935 4.29687 10.8008C4.625 11.1029 4.78906 11.5065 4.78906 12.0117C4.78906 12.5169 4.625 12.9232 4.29687 13.2305C3.97395 13.5326 3.59114 13.6836 3.14843 13.6836C2.91406 13.6836 2.6901 13.6341 2.47656 13.5352C2.26302 13.431 2.0625 13.293 1.875 13.1211C1.72396 12.9857 1.57031 12.8867 1.41406 12.8242C1.26302 12.7565 1.11458 12.7227 0.96875 12.7227C0.697917 12.7227 0.46875 12.8164 0.28125 13.0039C0.09375 13.1862 0 13.4388 0 13.7617V17.1992ZM1.25781 17.1367V14.5352C1.25781 14.3529 1.29427 14.2747 1.36719 14.3008C1.44531 14.3216 1.52083 14.3555 1.59375 14.4023C1.75521 14.5013 1.91927 14.5924 2.08594 14.6758C2.25781 14.7539 2.4349 14.8164 2.61719 14.8633C2.80469 14.9102 3.0026 14.9336 3.21093 14.9336C3.70052 14.9336 4.15625 14.8112 4.57812 14.5664C5.0052 14.3216 5.34895 13.9805 5.60937 13.543C5.875 13.1003 6.00781 12.5898 6.00781 12.0117C6.00781 11.4336 5.875 10.9258 5.60937 10.4883C5.34895 10.0456 5.0052 9.70182 4.57812 9.45703C4.15625 9.21224 3.70052 9.08984 3.21093 9.08984C3.0026 9.08984 2.80469 9.11328 2.61719 9.16016C2.4349 9.20182 2.25781 9.26432 2.08594 9.34766C1.91927 9.42578 1.75521 9.51693 1.59375 9.62109C1.52083 9.66797 1.44531 9.70443 1.36719 9.73047C1.29427 9.7513 1.25781 9.67057 1.25781 9.48828V6.86328C1.25781 6.49349 1.35938 6.20964 1.5625 6.01172C1.76562 5.80859 2.04948 5.70703 2.41406 5.70703H11.9687C12.3281 5.70703 12.6094 5.80859 12.8125 6.01172C13.0156 6.20964 13.1172 6.49349 13.1172 6.86328V10.2539C13.1172 10.582 13.2109 10.8424 13.3984 11.0352C13.5859 11.2279 13.8151 11.3242 14.0859 11.3242C14.237 11.3242 14.388 11.293 14.5391 11.2305C14.6901 11.1628 14.8411 11.0586 14.9922 10.918C15.1849 10.7461 15.388 10.6107 15.6016 10.5117C15.8151 10.4076 16.0365 10.3555 16.2656 10.3555C16.7083 10.3555 17.0911 10.5091 17.4141 10.8164C17.7422 11.1237 17.9062 11.5273 17.9062 12.0273C17.9062 12.5326 17.7422 12.9388 17.4141 13.2461C17.0911 13.5534 16.7083 13.707 16.2656 13.707C16.0365 13.707 15.8151 13.6576 15.6016 13.5586C15.388 13.4544 15.1849 13.3164 14.9922 13.1445C14.8411 13.0039 14.6901 12.9023 14.5391 12.8398C14.388 12.7721 14.237 12.7383 14.0859 12.7383C13.8151 12.7383 13.5859 12.8346 13.3984 13.0273C13.2109 13.2201 13.1172 13.4805 13.1172 13.8086V17.1367C13.1172 17.5117 13.0156 17.7982 12.8125 17.9961C12.6094 18.194 12.3281 18.293 11.9687 18.293H2.41406C2.04948 18.293 1.76562 18.194 1.5625 17.9961C1.35938 17.7982 1.25781 17.5117 1.25781 17.1367Z"
		fill="currentColor"
	/>
</svg>
