<svg
	color="rgb(var(--foreground, 0, 0, 0))"
	viewBox="0 0 19 24"
	fill="none"
	xmlns="http://www.w3.org/2000/svg"
>
	<path
		d="M0.125 17.1914C0.125 17.9674 0.320312 18.5534 0.710938 18.9492C1.10677 19.3503 1.6901 19.5508 2.46094 19.5508H12.125C12.9062 19.5508 13.4948 19.3529 13.8906 18.957C14.2917 18.5664 14.4922 17.9883 14.4922 17.2227V13.9258C14.4922 13.8477 14.5182 13.7956 14.5703 13.7695C14.6276 13.7435 14.6953 13.7617 14.7734 13.8242C14.9193 13.9336 15.0729 14.0326 15.2344 14.1211C15.3958 14.2096 15.5703 14.2826 15.7578 14.3398C15.9505 14.3919 16.1589 14.418 16.3828 14.418C16.8255 14.418 17.224 14.3138 17.5781 14.1055C17.9375 13.8919 18.2214 13.6055 18.4297 13.2461C18.638 12.8815 18.7422 12.4753 18.7422 12.0273C18.7422 11.5846 18.638 11.1836 18.4297 10.8242C18.2214 10.4596 17.9375 10.1732 17.5781 9.96484C17.224 9.7513 16.8255 9.64453 16.3828 9.64453C16.1589 9.64453 15.9505 9.67318 15.7578 9.73047C15.5703 9.78255 15.3958 9.85286 15.2344 9.94141C15.0729 10.0299 14.9193 10.1289 14.7734 10.2383C14.6953 10.3008 14.6276 10.319 14.5703 10.293C14.5182 10.2669 14.4922 10.2148 14.4922 10.1367V6.77734C14.4922 6.01172 14.2917 5.43359 13.8906 5.04297C13.4948 4.64714 12.9062 4.44922 12.125 4.44922H2.46094C1.6901 4.44922 1.10677 4.64974 0.710938 5.05078C0.320312 5.44661 0.125 6.03255 0.125 6.80859V10.1602C0.125 10.4154 0.210938 10.6211 0.382812 10.7773C0.554688 10.9284 0.757812 11.0039 0.992188 11.0039C1.1224 11.0039 1.2526 10.9779 1.38281 10.9258C1.51823 10.8685 1.64583 10.7799 1.76562 10.6602C1.88542 10.5456 2.02083 10.4284 2.17188 10.3086C2.32292 10.1888 2.50521 10.0872 2.71875 10.0039C2.93229 9.92057 3.1901 9.87891 3.49219 9.87891C3.88281 9.87891 4.23698 9.97266 4.55469 10.1602C4.8776 10.3477 5.13281 10.6029 5.32031 10.9258C5.50781 11.2487 5.60156 11.6107 5.60156 12.0117C5.60156 12.4076 5.50781 12.7669 5.32031 13.0898C5.13281 13.4128 4.8776 13.6706 4.55469 13.8633C4.23698 14.0508 3.88281 14.1445 3.49219 14.1445C3.1901 14.1445 2.93229 14.1029 2.71875 14.0195C2.50521 13.9362 2.32292 13.8346 2.17188 13.7148C2.02083 13.5898 1.88542 13.4701 1.76562 13.3555C1.64583 13.2409 1.51823 13.1576 1.38281 13.1055C1.2526 13.0482 1.1224 13.0195 0.992188 13.0195C0.757812 13.0195 0.554688 13.0977 0.382812 13.2539C0.210938 13.4049 0.125 13.6081 0.125 13.8633V17.1914Z"
		fill="currentColor"
	/>
</svg>
