<svg
	color="rgb(var(--foreground, 0, 0, 0))"
	viewBox="0 0 24 24"
	fill="none"
	xmlns="http://www.w3.org/2000/svg"
>
	<path
		d="M0.742188 12.0039C0.742188 12.5352 0.854167 12.9857 1.07812 13.3555C1.30208 13.7201 1.59375 13.9987 1.95312 14.1914C2.31771 14.3789 2.71094 14.4727 3.13281 14.4727C3.39844 14.4727 3.64062 14.4362 3.85938 14.3633C4.07812 14.2852 4.30469 14.1732 4.53906 14.0273C4.76302 13.8919 4.94531 13.8555 5.08594 13.918C5.23177 13.9805 5.30469 14.1081 5.30469 14.3008V17.1914C5.30469 17.9622 5.5026 18.543 5.89844 18.9336C6.29948 19.3242 6.89062 19.5195 7.67188 19.5195H9.75781C9.94531 19.5195 10.0703 19.4492 10.1328 19.3086C10.2005 19.168 10.1667 18.9857 10.0312 18.7617C9.88021 18.5221 9.76562 18.293 9.6875 18.0742C9.61458 17.8607 9.57812 17.6211 9.57812 17.3555C9.57812 16.9336 9.67448 16.5404 9.86719 16.1758C10.0599 15.8112 10.3385 15.5195 10.7031 15.3008C11.0729 15.0768 11.5234 14.9648 12.0547 14.9648C12.5859 14.9648 13.0339 15.0768 13.3984 15.3008C13.7682 15.5195 14.0469 15.8112 14.2344 16.1758C14.4271 16.5404 14.5234 16.9336 14.5234 17.3555C14.5234 17.6211 14.487 17.8607 14.4141 18.0742C14.3411 18.293 14.2292 18.5221 14.0781 18.7617C13.9427 18.9857 13.9062 19.168 13.9688 19.3086C14.0365 19.4492 14.1641 19.5195 14.3516 19.5195H16.4375C17.2135 19.5195 17.8021 19.3242 18.2031 18.9336C18.6042 18.543 18.8047 17.9622 18.8047 17.1914V14.3008C18.8047 14.1081 18.875 13.9805 19.0156 13.918C19.1615 13.8555 19.3438 13.8919 19.5625 14.0273C19.8021 14.1732 20.0312 14.2852 20.25 14.3633C20.4688 14.4362 20.7083 14.4727 20.9688 14.4727C21.3958 14.4727 21.7891 14.3789 22.1484 14.1914C22.513 13.9987 22.8073 13.7201 23.0312 13.3555C23.2552 12.9857 23.3672 12.5352 23.3672 12.0039C23.3672 11.4674 23.2552 11.0169 23.0312 10.6523C22.8073 10.2826 22.513 10.0039 22.1484 9.81641C21.7891 9.6237 21.3958 9.52734 20.9688 9.52734C20.7083 9.52734 20.4688 9.56641 20.25 9.64453C20.0312 9.71745 19.8021 9.82682 19.5625 9.97266C19.3438 10.1081 19.1615 10.1445 19.0156 10.082C18.875 10.0195 18.8047 9.89193 18.8047 9.69922V6.80859C18.8047 6.04297 18.6042 5.46484 18.2031 5.07422C17.8021 4.67839 17.2135 4.48047 16.4375 4.48047H14.3516C14.1641 4.48047 14.0365 4.55339 13.9688 4.69922C13.9062 4.83984 13.9427 5.02214 14.0781 5.24609C14.2292 5.48568 14.3411 5.71484 14.4141 5.93359C14.487 6.14714 14.5234 6.38672 14.5234 6.65234C14.5234 7.07422 14.4271 7.46745 14.2344 7.83203C14.0469 8.19141 13.7682 8.48307 13.3984 8.70703C13.0339 8.93099 12.5859 9.04297 12.0547 9.04297C11.5234 9.04297 11.0729 8.93099 10.7031 8.70703C10.3385 8.48307 10.0599 8.19141 9.86719 7.83203C9.67448 7.46745 9.57812 7.07422 9.57812 6.65234C9.57812 6.38672 9.61458 6.14714 9.6875 5.93359C9.76562 5.71484 9.88021 5.48568 10.0312 5.24609C10.1667 5.02214 10.2005 4.83984 10.1328 4.69922C10.0703 4.55339 9.94531 4.48047 9.75781 4.48047H7.67188C6.89062 4.48047 6.29948 4.67839 5.89844 5.07422C5.5026 5.46484 5.30469 6.04297 5.30469 6.80859V9.69922C5.30469 9.89193 5.23177 10.0195 5.08594 10.082C4.94531 10.1445 4.76302 10.1081 4.53906 9.97266C4.30469 9.82682 4.07812 9.71745 3.85938 9.64453C3.64062 9.56641 3.39844 9.52734 3.13281 9.52734C2.71094 9.52734 2.31771 9.6237 1.95312 9.81641C1.59375 10.0039 1.30208 10.2826 1.07812 10.6523C0.854167 11.0169 0.742188 11.4674 0.742188 12.0039Z"
		fill="currentColor"
	/>
</svg>
