<svg
	color="rgb(var(--foreground, 0, 0, 0))"
	viewBox="0 0 16 24"
	fill="none"
	xmlns="http://www.w3.org/2000/svg"
>
	<path
		d="M0.807617 6.45312H15.3623C15.529 6.45312 15.6696 6.39583 15.7842 6.28125C15.904 6.16667 15.9639 6.02604 15.9639 5.85938C15.9639 5.69792 15.904 5.5599 15.7842 5.44531C15.6696 5.33073 15.529 5.27344 15.3623 5.27344H0.807617C0.646159 5.27344 0.508138 5.33073 0.393555 5.44531C0.278971 5.5599 0.22168 5.69792 0.22168 5.85938C0.22168 6.02604 0.278971 6.16667 0.393555 6.28125C0.508138 6.39583 0.646159 6.45312 0.807617 6.45312ZM0.807617 10.5469H15.3623C15.529 10.5469 15.6696 10.4896 15.7842 10.375C15.904 10.2604 15.9639 10.1198 15.9639 9.95312C15.9639 9.78646 15.904 9.64844 15.7842 9.53906C15.6696 9.42448 15.529 9.36719 15.3623 9.36719H0.807617C0.646159 9.36719 0.508138 9.42448 0.393555 9.53906C0.278971 9.64844 0.22168 9.78646 0.22168 9.95312C0.22168 10.1198 0.278971 10.2604 0.393555 10.375C0.508138 10.4896 0.646159 10.5469 0.807617 10.5469ZM0.807617 14.6406H15.3623C15.529 14.6406 15.6696 14.5833 15.7842 14.4688C15.904 14.3542 15.9639 14.2135 15.9639 14.0469C15.9639 13.8802 15.904 13.7422 15.7842 13.6328C15.6696 13.5182 15.529 13.4609 15.3623 13.4609H0.807617C0.646159 13.4609 0.508138 13.5182 0.393555 13.6328C0.278971 13.7422 0.22168 13.8802 0.22168 14.0469C0.22168 14.2135 0.278971 14.3542 0.393555 14.4688C0.508138 14.5833 0.646159 14.6406 0.807617 14.6406ZM0.807617 18.7266H15.3623C15.529 18.7266 15.6696 18.6693 15.7842 18.5547C15.904 18.4453 15.9639 18.3073 15.9639 18.1406C15.9639 17.974 15.904 17.8333 15.7842 17.7188C15.6696 17.6042 15.529 17.5469 15.3623 17.5469H0.807617C0.646159 17.5469 0.508138 17.6042 0.393555 17.7188C0.278971 17.8333 0.22168 17.974 0.22168 18.1406C0.22168 18.3073 0.278971 18.4453 0.393555 18.5547C0.508138 18.6693 0.646159 18.7266 0.807617 18.7266Z"
		fill="currentColor"
	/>
</svg>
