<svg
	color="rgb(var(--foreground, 0, 0, 0))"
	viewBox="0 0 17 24"
	fill="none"
	xmlns="http://www.w3.org/2000/svg"
>
	<path
		d="M1.32324 6.45312H15.8779C16.0446 6.45312 16.1852 6.39583 16.2998 6.28125C16.4196 6.16667 16.4795 6.02604 16.4795 5.85938C16.4795 5.69792 16.4196 5.5599 16.2998 5.44531C16.1852 5.33073 16.0446 5.27344 15.8779 5.27344H1.32324C1.16178 5.27344 1.02376 5.33073 0.90918 5.44531C0.794596 5.5599 0.737305 5.69792 0.737305 5.85938C0.737305 6.02604 0.794596 6.16667 0.90918 6.28125C1.02376 6.39583 1.16178 6.45312 1.32324 6.45312ZM4.21387 10.5469H12.9951C13.1618 10.5469 13.3024 10.4896 13.417 10.375C13.5316 10.2604 13.5889 10.1198 13.5889 9.95312C13.5889 9.78646 13.5316 9.64844 13.417 9.53906C13.3024 9.42448 13.1618 9.36719 12.9951 9.36719H4.21387C4.0472 9.36719 3.90658 9.42448 3.79199 9.53906C3.67741 9.64844 3.62012 9.78646 3.62012 9.95312C3.62012 10.1198 3.67741 10.2604 3.79199 10.375C3.90658 10.4896 4.0472 10.5469 4.21387 10.5469ZM1.32324 14.6406H15.8779C16.0446 14.6406 16.1852 14.5833 16.2998 14.4688C16.4196 14.3542 16.4795 14.2135 16.4795 14.0469C16.4795 13.8802 16.4196 13.7422 16.2998 13.6328C16.1852 13.5182 16.0446 13.4609 15.8779 13.4609H1.32324C1.16178 13.4609 1.02376 13.5182 0.90918 13.6328C0.794596 13.7422 0.737305 13.8802 0.737305 14.0469C0.737305 14.2135 0.794596 14.3542 0.90918 14.4688C1.02376 14.5833 1.16178 14.6406 1.32324 14.6406ZM4.21387 18.7266H12.9951C13.1618 18.7266 13.3024 18.6693 13.417 18.5547C13.5316 18.4453 13.5889 18.3073 13.5889 18.1406C13.5889 17.974 13.5316 17.8333 13.417 17.7188C13.3024 17.6042 13.1618 17.5469 12.9951 17.5469H4.21387C4.0472 17.5469 3.90658 17.6042 3.79199 17.7188C3.67741 17.8333 3.62012 17.974 3.62012 18.1406C3.62012 18.3073 3.67741 18.4453 3.79199 18.5547C3.90658 18.6693 4.0472 18.7266 4.21387 18.7266Z"
		fill="currentColor"
	/>
</svg>
