<svg
	color="rgb(var(--foreground, 0, 0, 0))"
	viewBox="0 0 17 24"
	fill="none"
	xmlns="http://www.w3.org/2000/svg"
>
	<path
		d="M1.58105 6.45312H16.1357C16.3024 6.45312 16.443 6.39583 16.5576 6.28125C16.6774 6.16667 16.7373 6.02604 16.7373 5.85938C16.7373 5.69792 16.6774 5.5599 16.5576 5.44531C16.443 5.33073 16.3024 5.27344 16.1357 5.27344H1.58105C1.4196 5.27344 1.28158 5.33073 1.16699 5.44531C1.05241 5.5599 0.995117 5.69792 0.995117 5.85938C0.995117 6.02604 1.05241 6.16667 1.16699 6.28125C1.28158 6.39583 1.4196 6.45312 1.58105 6.45312ZM1.58105 10.5469H10.3701C10.5368 10.5469 10.6774 10.4896 10.792 10.375C10.9066 10.2604 10.9639 10.1198 10.9639 9.95312C10.9639 9.78646 10.9066 9.64844 10.792 9.53906C10.6774 9.42448 10.5368 9.36719 10.3701 9.36719H1.58105C1.4196 9.36719 1.28158 9.42448 1.16699 9.53906C1.05241 9.64844 0.995117 9.78646 0.995117 9.95312C0.995117 10.1198 1.05241 10.2604 1.16699 10.375C1.28158 10.4896 1.4196 10.5469 1.58105 10.5469ZM1.58105 14.6406H16.1357C16.3024 14.6406 16.443 14.5833 16.5576 14.4688C16.6774 14.3542 16.7373 14.2135 16.7373 14.0469C16.7373 13.8802 16.6774 13.7422 16.5576 13.6328C16.443 13.5182 16.3024 13.4609 16.1357 13.4609H1.58105C1.4196 13.4609 1.28158 13.5182 1.16699 13.6328C1.05241 13.7422 0.995117 13.8802 0.995117 14.0469C0.995117 14.2135 1.05241 14.3542 1.16699 14.4688C1.28158 14.5833 1.4196 14.6406 1.58105 14.6406ZM1.58105 18.7266H10.3701C10.5368 18.7266 10.6774 18.6693 10.792 18.5547C10.9066 18.4453 10.9639 18.3073 10.9639 18.1406C10.9639 17.974 10.9066 17.8333 10.792 17.7188C10.6774 17.6042 10.5368 17.5469 10.3701 17.5469H1.58105C1.4196 17.5469 1.28158 17.6042 1.16699 17.7188C1.05241 17.8333 0.995117 17.974 0.995117 18.1406C0.995117 18.3073 1.05241 18.4453 1.16699 18.5547C1.28158 18.6693 1.4196 18.7266 1.58105 18.7266Z"
		fill="currentColor"
	/>
</svg>
