<svg
	color="rgb(var(--foreground, 0, 0, 0))"
	viewBox="0 0 17 24"
	fill="none"
	xmlns="http://www.w3.org/2000/svg"
>
	<path
		d="M1.06543 6.45312H15.6201C15.7868 6.45312 15.9274 6.39583 16.042 6.28125C16.1618 6.16667 16.2217 6.02604 16.2217 5.85938C16.2217 5.69792 16.1618 5.5599 16.042 5.44531C15.9274 5.33073 15.7868 5.27344 15.6201 5.27344H1.06543C0.903971 5.27344 0.765951 5.33073 0.651367 5.44531C0.536784 5.5599 0.479492 5.69792 0.479492 5.85938C0.479492 6.02604 0.536784 6.16667 0.651367 6.28125C0.765951 6.39583 0.903971 6.45312 1.06543 6.45312ZM1.06543 14.6406H15.6201C15.7868 14.6406 15.9274 14.5833 16.042 14.4688C16.1618 14.3542 16.2217 14.2135 16.2217 14.0469C16.2217 13.8802 16.1618 13.7422 16.042 13.6328C15.9274 13.5182 15.7868 13.4609 15.6201 13.4609H1.06543C0.903971 13.4609 0.765951 13.5182 0.651367 13.6328C0.536784 13.7422 0.479492 13.8802 0.479492 14.0469C0.479492 14.2135 0.536784 14.3542 0.651367 14.4688C0.765951 14.5833 0.903971 14.6406 1.06543 14.6406ZM6.83887 10.5469H15.6201C15.7868 10.5469 15.9274 10.4896 16.042 10.375C16.1618 10.2604 16.2217 10.1198 16.2217 9.95312C16.2217 9.78646 16.1618 9.64844 16.042 9.53906C15.9274 9.42448 15.7868 9.36719 15.6201 9.36719H6.83887C6.6722 9.36719 6.53158 9.42448 6.41699 9.53906C6.30241 9.64844 6.24512 9.78646 6.24512 9.95312C6.24512 10.1198 6.30241 10.2604 6.41699 10.375C6.53158 10.4896 6.6722 10.5469 6.83887 10.5469ZM6.83887 18.7266H15.6201C15.7868 18.7266 15.9274 18.6693 16.042 18.5547C16.1618 18.4453 16.2217 18.3073 16.2217 18.1406C16.2217 17.974 16.1618 17.8333 16.042 17.7188C15.9274 17.6042 15.7868 17.5469 15.6201 17.5469H6.83887C6.6722 17.5469 6.53158 17.6042 6.41699 17.7188C6.30241 17.8333 6.24512 17.974 6.24512 18.1406C6.24512 18.3073 6.30241 18.4453 6.41699 18.5547C6.53158 18.6693 6.6722 18.7266 6.83887 18.7266Z"
		fill="currentColor"
	/>
</svg>
