<svg
	color="rgb(var(--foreground, 0, 0, 0))"
	viewBox="0 0 10 24"
	fill="none"
	xmlns="http://www.w3.org/2000/svg"
>
	<path
		d="M1.99854 17.5859H6.06885C6.86572 17.5859 7.55583 17.4557 8.13916 17.1953C8.72249 16.9297 9.17301 16.5599 9.49072 16.0859C9.80843 15.6068 9.96729 15.0443 9.96729 14.3984C9.96729 13.888 9.8527 13.4349 9.62354 13.0391C9.39958 12.6432 9.08447 12.3255 8.67822 12.0859C8.27718 11.8464 7.81104 11.7135 7.27979 11.6875V11.625C7.71208 11.5625 8.09229 11.4219 8.42041 11.2031C8.74854 10.9792 9.00374 10.6979 9.18604 10.3594C9.36833 10.0156 9.45947 9.63802 9.45947 9.22656C9.45947 8.64844 9.31624 8.14844 9.02979 7.72656C8.74854 7.30469 8.34749 6.98177 7.82666 6.75781C7.30583 6.52865 6.68343 6.41406 5.95947 6.41406H1.99854C1.58187 6.41406 1.25635 6.53125 1.02197 6.76562C0.792806 7 0.678223 7.33333 0.678223 7.76562V16.2422C0.678223 16.6693 0.792806 17 1.02197 17.2344C1.25635 17.4688 1.58187 17.5859 1.99854 17.5859ZM3.25635 15.7812V12.6797H5.21729C5.90479 12.6797 6.43083 12.8099 6.79541 13.0703C7.1652 13.3307 7.3501 13.7109 7.3501 14.2109C7.3501 14.7214 7.17041 15.112 6.81104 15.3828C6.45687 15.6484 5.94385 15.7812 5.27197 15.7812H3.25635ZM3.25635 11.0547V8.25H5.17822C5.7251 8.25 6.15218 8.36979 6.45947 8.60938C6.76676 8.84896 6.92041 9.18229 6.92041 9.60938C6.92041 10.0625 6.74854 10.4167 6.40479 10.6719C6.06624 10.9271 5.59229 11.0547 4.98291 11.0547H3.25635Z"
		fill="currentColor"
	/>
</svg>
