<svg
	color="rgb(var(--foreground, 0, 0, 0))"
	viewBox="0 0 20 24"
	fill="none"
	xmlns="http://www.w3.org/2000/svg"
>
	<path
		d="M4.60156 7.90234H15.2734C15.4505 7.90234 15.599 7.84245 15.7188 7.72266C15.8438 7.60286 15.9062 7.45443 15.9062 7.27734C15.9062 7.10026 15.8438 6.95182 15.7188 6.83203C15.599 6.70703 15.4505 6.64453 15.2734 6.64453H4.60156C4.42448 6.64453 4.27344 6.70703 4.14844 6.83203C4.02865 6.95182 3.96875 7.10026 3.96875 7.27734C3.96875 7.45443 4.02865 7.60286 4.14844 7.72266C4.27344 7.84245 4.42448 7.90234 4.60156 7.90234ZM6.54688 12.6289H17.2266C17.4036 12.6289 17.5521 12.569 17.6719 12.4492C17.7917 12.3242 17.8516 12.1732 17.8516 11.9961C17.8516 11.819 17.7917 11.6706 17.6719 11.5508C17.5521 11.431 17.4036 11.3711 17.2266 11.3711H6.54688C6.375 11.3711 6.22656 11.431 6.10156 11.5508C5.98177 11.6706 5.92188 11.819 5.92188 11.9961C5.92188 12.1732 5.98177 12.3242 6.10156 12.4492C6.22656 12.569 6.375 12.6289 6.54688 12.6289ZM8.5 17.3477H19.1797C19.3568 17.3477 19.5052 17.2878 19.625 17.168C19.7448 17.0482 19.8047 16.8997 19.8047 16.7227C19.8047 16.5456 19.7448 16.3971 19.625 16.2773C19.5052 16.1523 19.3568 16.0898 19.1797 16.0898H8.5C8.32292 16.0898 8.17448 16.1523 8.05469 16.2773C7.9349 16.3971 7.875 16.5456 7.875 16.7227C7.875 16.8997 7.9349 17.0482 8.05469 17.168C8.17448 17.2878 8.32292 17.3477 8.5 17.3477ZM1.14844 8.25391C1.41927 8.25391 1.65104 8.16016 1.84375 7.97266C2.03646 7.77995 2.13281 7.54818 2.13281 7.27734C2.13281 7.0013 2.03646 6.76953 1.84375 6.58203C1.65104 6.38932 1.41927 6.29297 1.14844 6.29297C0.877604 6.29297 0.645833 6.38932 0.453125 6.58203C0.260417 6.76953 0.164062 7.0013 0.164062 7.27734C0.164062 7.54818 0.260417 7.77995 0.453125 7.97266C0.645833 8.16016 0.877604 8.25391 1.14844 8.25391ZM3.10156 12.9805C3.3724 12.9805 3.60417 12.8841 3.79688 12.6914C3.98958 12.4987 4.08594 12.2669 4.08594 11.9961C4.08594 11.7253 3.98958 11.4935 3.79688 11.3008C3.60417 11.1081 3.3724 11.0117 3.10156 11.0117C2.82552 11.0117 2.59115 11.1081 2.39844 11.3008C2.21094 11.4935 2.11719 11.7253 2.11719 11.9961C2.11719 12.2669 2.21094 12.4987 2.39844 12.6914C2.59115 12.8841 2.82552 12.9805 3.10156 12.9805ZM5.04688 17.707C5.32292 17.707 5.55469 17.6107 5.74219 17.418C5.9349 17.2253 6.03125 16.9935 6.03125 16.7227C6.03125 16.4466 5.9349 16.2148 5.74219 16.0273C5.55469 15.8346 5.32292 15.7383 5.04688 15.7383C4.77604 15.7383 4.54427 15.8346 4.35156 16.0273C4.15885 16.2148 4.0625 16.4466 4.0625 16.7227C4.0625 16.9935 4.15885 17.2253 4.35156 17.418C4.54427 17.6107 4.77604 17.707 5.04688 17.707Z"
		fill="currentColor"
	/>
</svg>
