<svg
	color="rgb(var(--foreground, 0, 0, 0))"
	viewBox="0 0 17 24"
	fill="none"
	xmlns="http://www.w3.org/2000/svg"
>
	<path
		d="M5.375 7.90234H16.0469C16.224 7.90234 16.3724 7.84245 16.4922 7.72266C16.6172 7.60286 16.6797 7.45443 16.6797 7.27734C16.6797 7.10026 16.6172 6.95182 16.4922 6.83203C16.3724 6.70703 16.224 6.64453 16.0469 6.64453H5.375C5.19792 6.64453 5.04688 6.70703 4.92188 6.83203C4.80208 6.95182 4.74219 7.10026 4.74219 7.27734C4.74219 7.45443 4.80208 7.60286 4.92188 7.72266C5.04688 7.84245 5.19792 7.90234 5.375 7.90234ZM5.375 12.6289H16.0469C16.224 12.6289 16.3724 12.569 16.4922 12.4492C16.6172 12.3242 16.6797 12.1732 16.6797 11.9961C16.6797 11.819 16.6172 11.6706 16.4922 11.5508C16.3724 11.431 16.224 11.3711 16.0469 11.3711H5.375C5.19792 11.3711 5.04688 11.431 4.92188 11.5508C4.80208 11.6706 4.74219 11.819 4.74219 11.9961C4.74219 12.1732 4.80208 12.3242 4.92188 12.4492C5.04688 12.569 5.19792 12.6289 5.375 12.6289ZM5.375 17.3477H16.0469C16.224 17.3477 16.3724 17.2878 16.4922 17.168C16.6172 17.0482 16.6797 16.8997 16.6797 16.7227C16.6797 16.5456 16.6172 16.3971 16.4922 16.2773C16.3724 16.1523 16.224 16.0898 16.0469 16.0898H5.375C5.19792 16.0898 5.04688 16.1523 4.92188 16.2773C4.80208 16.3971 4.74219 16.5456 4.74219 16.7227C4.74219 16.8997 4.80208 17.0482 4.92188 17.168C5.04688 17.2878 5.19792 17.3477 5.375 17.3477ZM1.92188 8.25391C2.19271 8.25391 2.42448 8.16016 2.61719 7.97266C2.8099 7.77995 2.90625 7.54818 2.90625 7.27734C2.90625 7.0013 2.8099 6.76953 2.61719 6.58203C2.42448 6.38932 2.19271 6.29297 1.92188 6.29297C1.65104 6.29297 1.41927 6.38932 1.22656 6.58203C1.03385 6.76953 0.9375 7.0013 0.9375 7.27734C0.9375 7.54818 1.03385 7.77995 1.22656 7.97266C1.41927 8.16016 1.65104 8.25391 1.92188 8.25391ZM1.92188 12.9805C2.19271 12.9805 2.42448 12.8841 2.61719 12.6914C2.8099 12.4987 2.90625 12.2669 2.90625 11.9961C2.90625 11.7253 2.8099 11.4935 2.61719 11.3008C2.42448 11.1081 2.19271 11.0117 1.92188 11.0117C1.65104 11.0117 1.41927 11.1081 1.22656 11.3008C1.03385 11.4935 0.9375 11.7253 0.9375 11.9961C0.9375 12.2669 1.03385 12.4987 1.22656 12.6914C1.41927 12.8841 1.65104 12.9805 1.92188 12.9805ZM1.92188 17.707C2.19271 17.707 2.42448 17.6107 2.61719 17.418C2.8099 17.2253 2.90625 16.9935 2.90625 16.7227C2.90625 16.4466 2.8099 16.2148 2.61719 16.0273C2.42448 15.8346 2.19271 15.7383 1.92188 15.7383C1.65104 15.7383 1.41927 15.8346 1.22656 16.0273C1.03385 16.2148 0.9375 16.4466 0.9375 16.7227C0.9375 16.9935 1.03385 17.2253 1.22656 17.418C1.41927 17.6107 1.65104 17.707 1.92188 17.707Z"
		fill="currentColor"
	/>
</svg>
