<svg
	color="rgb(var(--foreground, 0, 0, 0))"
	viewBox="0 0 17 24"
	fill="none"
	xmlns="http://www.w3.org/2000/svg"
>
	<path
		d="M8.46729 12.0391C9.01416 12.0391 9.52979 11.9349 10.0142 11.7266C10.4985 11.5182 10.9256 11.2318 11.2954 10.8672C11.6652 10.4974 11.9543 10.0729 12.1626 9.59375C12.3761 9.10938 12.4829 8.59375 12.4829 8.04688C12.4829 7.49479 12.3761 6.97917 12.1626 6.5C11.9543 6.01563 11.6652 5.58854 11.2954 5.21875C10.9256 4.84896 10.4985 4.5599 10.0142 4.35156C9.52979 4.14323 9.01416 4.03906 8.46729 4.03906C7.92041 4.03906 7.40479 4.14323 6.92041 4.35156C6.43604 4.5599 6.00895 4.84896 5.63916 5.21875C5.26937 5.58854 4.98031 6.01563 4.77197 6.5C4.56364 6.97917 4.45947 7.49479 4.45947 8.04688C4.45947 8.59375 4.56364 9.10938 4.77197 9.59375C4.98551 10.0729 5.27718 10.4974 5.64697 10.8672C6.01676 11.2318 6.44124 11.5182 6.92041 11.7266C7.40479 11.9349 7.92041 12.0391 8.46729 12.0391ZM8.46729 10.7188C7.96208 10.7188 7.50635 10.6016 7.1001 10.3672C6.69385 10.1276 6.37093 9.80729 6.13135 9.40625C5.89697 9 5.77979 8.54688 5.77979 8.04688C5.77979 7.54167 5.89697 7.08594 6.13135 6.67969C6.37093 6.27344 6.69385 5.95313 7.1001 5.71875C7.50635 5.47917 7.96208 5.35938 8.46729 5.35938C8.97249 5.35938 9.42822 5.47917 9.83447 5.71875C10.2407 5.95313 10.5636 6.27344 10.8032 6.67969C11.0428 7.08594 11.1626 7.54167 11.1626 8.04688C11.1626 8.54688 11.0428 9 10.8032 9.40625C10.5636 9.80729 10.2407 10.1276 9.83447 10.3672C9.42822 10.6016 8.97249 10.7188 8.46729 10.7188ZM8.4751 19.9687C9.56364 19.9687 10.5871 19.7604 11.5454 19.3437C12.509 18.9271 13.3579 18.3516 14.0923 17.6172C14.8267 16.8828 15.4022 16.0365 15.8188 15.0781C16.2355 14.1146 16.4438 13.0885 16.4438 12C16.4438 10.9115 16.2355 9.88802 15.8188 8.92969C15.4022 7.96615 14.8267 7.11719 14.0923 6.38281C13.3579 5.64844 12.509 5.07292 11.5454 4.65625C10.5819 4.23959 9.55583 4.03125 8.46729 4.03125C7.37874 4.03125 6.3527 4.23959 5.38916 4.65625C4.43083 5.07292 3.58447 5.64844 2.8501 6.38281C2.12093 7.11719 1.54801 7.96615 1.13135 8.92969C0.714681 9.88802 0.506348 10.9115 0.506348 12C0.506348 13.0885 0.714681 14.1146 1.13135 15.0781C1.54801 16.0365 2.12354 16.8828 2.85791 17.6172C3.59229 18.3516 4.43864 18.9271 5.39697 19.3437C6.36051 19.7604 7.38656 19.9687 8.4751 19.9687ZM8.4751 18.6406C7.55322 18.6406 6.69124 18.4688 5.88916 18.125C5.08708 17.7813 4.38135 17.3073 3.77197 16.7031C3.16781 16.0938 2.69385 15.388 2.3501 14.5859C2.01156 13.7839 1.84229 12.9219 1.84229 12C1.84229 11.0781 2.01156 10.2161 2.3501 9.41406C2.69385 8.61198 3.16781 7.90625 3.77197 7.29688C4.37614 6.6875 5.07926 6.21354 5.88135 5.875C6.68343 5.53125 7.54541 5.35938 8.46729 5.35938C9.38916 5.35938 10.2511 5.53125 11.0532 5.875C11.8605 6.21354 12.5662 6.6875 13.1704 7.29688C13.7798 7.90625 14.2563 8.61198 14.6001 9.41406C14.9438 10.2161 15.1157 11.0781 15.1157 12C15.1157 12.9219 14.9438 13.7839 14.6001 14.5859C14.2616 15.388 13.7876 16.0938 13.1782 16.7031C12.5688 17.3073 11.8631 17.7813 11.061 18.125C10.259 18.4688 9.39697 18.6406 8.4751 18.6406Z"
		fill="currentColor"
	/>
</svg>
