<svg
	color="rgb(var(--foreground, 0, 0, 0))"
	viewBox="0 0 17 24"
	fill="none"
	xmlns="http://www.w3.org/2000/svg"
>
	<path
		d="M4.09229 17.3047C4.68604 17.3047 5.23291 17.2109 5.73291 17.0234C6.23812 16.8307 6.68343 16.5573 7.06885 16.2031C7.45947 15.8438 7.77979 15.4141 8.02979 14.9141H8.10791C8.43604 15.6641 8.93343 16.25 9.6001 16.6719C10.2668 17.0938 11.061 17.3047 11.9829 17.3047C12.9412 17.3047 13.7694 17.1068 14.4673 16.7109C15.1652 16.3151 15.6678 15.75 15.9751 15.0156C16.0063 14.9375 16.0324 14.8594 16.0532 14.7812C16.0741 14.7031 16.0845 14.6328 16.0845 14.5703C16.0845 14.3828 16.0246 14.2318 15.9048 14.1172C15.785 13.9974 15.6287 13.9375 15.436 13.9375C15.3162 13.9375 15.2121 13.9635 15.1235 14.0156C15.0402 14.0677 14.9621 14.1458 14.8892 14.25C14.535 14.8698 14.1209 15.3229 13.647 15.6094C13.1782 15.8958 12.6053 16.0391 11.9282 16.0391C11.2772 16.0391 10.7095 15.888 10.2251 15.5859C9.74593 15.2839 9.37614 14.8646 9.11572 14.3281C8.85531 13.7865 8.7251 13.1589 8.7251 12.4453V12.3438H15.3032C15.5636 12.3438 15.7668 12.2682 15.9126 12.1172C16.0636 11.9609 16.1392 11.7474 16.1392 11.4766C16.1392 10.7734 16.0376 10.1302 15.8345 9.54688C15.6313 8.96354 15.3423 8.45833 14.9673 8.03125C14.5923 7.60417 14.147 7.27604 13.6313 7.04688C13.1157 6.8125 12.5428 6.69531 11.9126 6.69531C11.3501 6.69531 10.8371 6.78385 10.3735 6.96094C9.90999 7.13802 9.50374 7.39323 9.15479 7.72656C8.80583 8.05469 8.51937 8.45052 8.29541 8.91406H8.23291C8.09749 8.45052 7.86572 8.05469 7.5376 7.72656C7.20947 7.39323 6.80322 7.13802 6.31885 6.96094C5.83968 6.78385 5.30322 6.69531 4.70947 6.69531C4.14697 6.69531 3.61833 6.77865 3.12354 6.94531C2.63395 7.10677 2.20426 7.33854 1.83447 7.64062C1.46989 7.9375 1.19906 8.28646 1.02197 8.6875C0.959473 8.80208 0.912598 8.91927 0.881348 9.03906C0.850098 9.15365 0.834473 9.26302 0.834473 9.36719C0.834473 9.5651 0.894368 9.72396 1.01416 9.84375C1.13395 9.95833 1.2876 10.0156 1.4751 10.0156C1.75635 10.0156 1.95947 9.89062 2.08447 9.64062C2.3501 9.05729 2.69906 8.63542 3.13135 8.375C3.56885 8.10938 4.1027 7.97656 4.73291 7.97656C5.49333 7.97656 6.10791 8.19792 6.57666 8.64062C7.04541 9.07812 7.27979 9.64583 7.27979 10.3438V11.2031L4.2251 11.3672C3.00114 11.4297 2.06364 11.7135 1.4126 12.2188C0.766764 12.724 0.443848 13.4115 0.443848 14.2812C0.443848 14.8906 0.592285 15.4219 0.88916 15.875C1.19124 16.3281 1.61572 16.6797 2.1626 16.9297C2.70947 17.1797 3.3527 17.3047 4.09229 17.3047ZM4.13916 16.0547C3.69124 16.0547 3.30062 15.9792 2.96729 15.8281C2.63395 15.6719 2.37614 15.4583 2.19385 15.1875C2.01156 14.9167 1.92041 14.6068 1.92041 14.2578C1.92041 13.737 2.13135 13.3281 2.55322 13.0312C2.9751 12.7292 3.58447 12.5547 4.38135 12.5078L7.27979 12.3438V13.25C7.27979 13.7656 7.13916 14.237 6.85791 14.6641C6.58187 15.0859 6.20687 15.4245 5.73291 15.6797C5.25895 15.9297 4.7277 16.0547 4.13916 16.0547ZM8.7251 11.2031C8.76156 10.5677 8.9126 10.0052 9.17822 9.51562C9.44906 9.02604 9.80843 8.64583 10.2563 8.375C10.7095 8.09896 11.2251 7.96094 11.8032 7.96094C12.3761 7.96094 12.8735 8.09635 13.2954 8.36719C13.7173 8.63802 14.0454 9.01823 14.2798 9.50781C14.5142 9.99219 14.6366 10.5573 14.647 11.2031H8.7251Z"
		fill="currentColor"
	/>
</svg>
