<svg
	color="rgb(var(--foreground, 0, 0, 0))"
	viewBox="0 0 12 24"
	fill="none"
	xmlns="http://www.w3.org/2000/svg"
>
	<path
		d="M5.48291 20.0391C6.21208 20.0391 6.88916 19.9062 7.51416 19.6406C8.13916 19.375 8.68864 19.0052 9.1626 18.5313C9.63656 18.0573 10.0063 17.5078 10.272 16.8828C10.5376 16.2526 10.6704 15.5755 10.6704 14.8516C10.6704 14.1276 10.5376 13.4505 10.272 12.8203C10.0063 12.1901 9.63656 11.638 9.1626 11.1641C8.68864 10.6901 8.13656 10.3229 7.50635 10.0625C6.88135 9.79688 6.20426 9.66406 5.4751 9.66406C4.75114 9.66406 4.07406 9.79688 3.44385 10.0625C2.81885 10.3229 2.26937 10.6901 1.79541 11.1641C1.32666 11.638 0.959473 12.1901 0.693848 12.8203C0.433431 13.4505 0.303223 14.1276 0.303223 14.8516C0.303223 15.5755 0.436035 16.2526 0.70166 16.8828C0.967285 17.5078 1.33447 18.0573 1.80322 18.5313C2.27718 19.0052 2.82666 19.375 3.45166 19.6406C4.08187 19.9062 4.75895 20.0391 5.48291 20.0391ZM5.48291 18.7188C4.75895 18.7188 4.10531 18.5469 3.52197 18.2031C2.93864 17.8594 2.4751 17.3958 2.13135 16.8125C1.79281 16.2292 1.62354 15.5755 1.62354 14.8516C1.62354 14.1276 1.79281 13.474 2.13135 12.8906C2.4751 12.3021 2.93604 11.8385 3.51416 11.5C4.09749 11.1563 4.75114 10.9844 5.4751 10.9844C6.19906 10.9844 6.8527 11.1563 7.43604 11.5C8.02458 11.8385 8.49072 12.3021 8.83447 12.8906C9.17822 13.474 9.3501 14.1276 9.3501 14.8516C9.3501 15.5755 9.17822 16.2292 8.83447 16.8125C8.49593 17.3958 8.03499 17.8594 7.45166 18.2031C6.86833 18.5469 6.21208 18.7188 5.48291 18.7188ZM9.3501 14.8516H10.6704V6.10156H9.3501V14.8516ZM10.0063 6.96094C10.2824 6.96094 10.535 6.89323 10.7642 6.75781C10.9933 6.6224 11.173 6.44271 11.3032 6.21875C11.4386 5.98959 11.5063 5.73698 11.5063 5.46094C11.5063 5.1849 11.4386 4.9349 11.3032 4.71094C11.173 4.48177 10.9933 4.29948 10.7642 4.16406C10.535 4.02865 10.2824 3.96094 10.0063 3.96094C9.73031 3.96094 9.4777 4.02865 9.24854 4.16406C9.02458 4.29948 8.84489 4.48177 8.70947 4.71094C8.57406 4.9349 8.50635 5.1849 8.50635 5.46094C8.50635 5.73698 8.57406 5.98959 8.70947 6.21875C8.84489 6.44271 9.02458 6.6224 9.24854 6.75781C9.4777 6.89323 9.73031 6.96094 10.0063 6.96094Z"
		fill="currentColor"
	/>
</svg>
