<svg
	color="rgb(var(--foreground, 0, 0, 0))"
	viewBox="0 0 17 24"
	fill="none"
	xmlns="http://www.w3.org/2000/svg"
>
	<path
		d="M5.89844 7.90625H15.7891C15.9661 7.90625 16.1146 7.84635 16.2344 7.72656C16.3594 7.60677 16.4219 7.45833 16.4219 7.28125C16.4219 7.10417 16.3594 6.95573 16.2344 6.83594C16.1146 6.71094 15.9661 6.64844 15.7891 6.64844H5.89844C5.72135 6.64844 5.57031 6.71094 5.44531 6.83594C5.32552 6.95573 5.26562 7.10417 5.26562 7.28125C5.26562 7.45833 5.32552 7.60677 5.44531 7.72656C5.57031 7.84635 5.72135 7.90625 5.89844 7.90625ZM5.89844 12.6328H15.7891C15.9661 12.6328 16.1146 12.5729 16.2344 12.4531C16.3594 12.3281 16.4219 12.1771 16.4219 12C16.4219 11.8229 16.3594 11.6745 16.2344 11.5547C16.1146 11.4349 15.9661 11.375 15.7891 11.375H5.89844C5.72135 11.375 5.57031 11.4349 5.44531 11.5547C5.32552 11.6745 5.26562 11.8229 5.26562 12C5.26562 12.1771 5.32552 12.3281 5.44531 12.4531C5.57031 12.5729 5.72135 12.6328 5.89844 12.6328ZM5.89844 17.3516H15.7891C15.9661 17.3516 16.1146 17.2917 16.2344 17.1719C16.3594 17.0521 16.4219 16.9036 16.4219 16.7266C16.4219 16.5495 16.3594 16.401 16.2344 16.2812C16.1146 16.1562 15.9661 16.0938 15.7891 16.0938H5.89844C5.72135 16.0938 5.57031 16.1562 5.44531 16.2812C5.32552 16.401 5.26562 16.5495 5.26562 16.7266C5.26562 16.9036 5.32552 17.0521 5.44531 17.1719C5.57031 17.2917 5.72135 17.3516 5.89844 17.3516ZM1.45312 8.05469H2.78906C3.0026 8.05469 3.1849 7.97917 3.33594 7.82812C3.49219 7.67188 3.57031 7.48958 3.57031 7.28125C3.57031 7.0625 3.49219 6.8776 3.33594 6.72656C3.1849 6.57552 3.0026 6.5 2.78906 6.5H1.45312C1.23958 6.5 1.05729 6.57552 0.90625 6.72656C0.755208 6.8776 0.679688 7.0625 0.679688 7.28125C0.679688 7.48958 0.755208 7.67188 0.90625 7.82812C1.05729 7.97917 1.23958 8.05469 1.45312 8.05469ZM1.45312 12.7812H2.78906C3.0026 12.7812 3.1849 12.7057 3.33594 12.5547C3.49219 12.3984 3.57031 12.2135 3.57031 12C3.57031 11.7865 3.49219 11.6042 3.33594 11.4531C3.1849 11.3021 3.0026 11.2266 2.78906 11.2266H1.45312C1.23958 11.2266 1.05729 11.3021 0.90625 11.4531C0.755208 11.6042 0.679688 11.7865 0.679688 12C0.679688 12.2135 0.755208 12.3984 0.90625 12.5547C1.05729 12.7057 1.23958 12.7812 1.45312 12.7812ZM1.45312 17.5H2.78906C3.0026 17.5 3.1849 17.4245 3.33594 17.2734C3.49219 17.1224 3.57031 16.9401 3.57031 16.7266C3.57031 16.5078 3.49219 16.3229 3.33594 16.1719C3.1849 16.0208 3.0026 15.9453 2.78906 15.9453H1.45312C1.23958 15.9453 1.05729 16.0208 0.90625 16.1719C0.755208 16.3229 0.679688 16.5078 0.679688 16.7266C0.679688 16.9401 0.755208 17.1224 0.90625 17.2734C1.05729 17.4245 1.23958 17.5 1.45312 17.5Z"
		fill="currentColor"
	/>
</svg>
