<svg
	color="rgb(var(--foreground, 0, 0, 0))"
	viewBox="0 0 19 24"
	fill="none"
	xmlns="http://www.w3.org/2000/svg"
>
	<path
		d="M10.8134 6.45312C10.9748 6.45312 11.1128 6.39583 11.2274 6.28125C11.342 6.16667 11.3993 6.02604 11.3993 5.85938C11.3993 5.69792 11.342 5.5599 11.2274 5.44531C11.1128 5.33073 10.9748 5.27344 10.8134 5.27344H0.946167C0.784709 5.27344 0.644084 5.33073 0.524292 5.44531C0.409709 5.5599 0.352417 5.69792 0.352417 5.85938C0.352417 6.02604 0.409709 6.16667 0.524292 6.28125C0.644084 6.39583 0.784709 6.45312 0.946167 6.45312H10.8134ZM10.8134 10.5469C10.9748 10.5469 11.1128 10.4896 11.2274 10.375C11.342 10.2604 11.3993 10.1198 11.3993 9.95312C11.3993 9.78646 11.342 9.64844 11.2274 9.53906C11.1128 9.42448 10.9748 9.36719 10.8134 9.36719H0.946167C0.784709 9.36719 0.644084 9.42448 0.524292 9.53906C0.409709 9.64844 0.352417 9.78646 0.352417 9.95312C0.352417 10.1198 0.409709 10.2604 0.524292 10.375C0.644084 10.4896 0.784709 10.5469 0.946167 10.5469H10.8134ZM10.8134 14.6406C10.9748 14.6406 11.1128 14.5833 11.2274 14.4688C11.342 14.3542 11.3993 14.2135 11.3993 14.0469C11.3993 13.8802 11.342 13.7422 11.2274 13.6328C11.1128 13.5182 10.9748 13.4609 10.8134 13.4609H0.946167C0.784709 13.4609 0.644084 13.5182 0.524292 13.6328C0.409709 13.7422 0.352417 13.8802 0.352417 14.0469C0.352417 14.2135 0.409709 14.3542 0.524292 14.4688C0.644084 14.5833 0.784709 14.6406 0.946167 14.6406H10.8134ZM6.82117 18.7266C6.98783 18.7266 7.12585 18.6693 7.23523 18.5547C7.34981 18.4453 7.4071 18.3073 7.4071 18.1406C7.4071 17.974 7.34981 17.8333 7.23523 17.7188C7.12585 17.6042 6.98783 17.5469 6.82117 17.5469H0.946167C0.784709 17.5469 0.644084 17.6042 0.524292 17.7188C0.409709 17.8333 0.352417 17.974 0.352417 18.1406C0.352417 18.3073 0.409709 18.4453 0.524292 18.5547C0.644084 18.6693 0.784709 18.7266 0.946167 18.7266H6.82117ZM17.2509 14.3984C17.4384 14.5234 17.6259 14.5859 17.8134 14.5859C18.0061 14.5859 18.1623 14.526 18.2821 14.4062C18.4071 14.2812 18.4696 14.1016 18.4696 13.8672V10.1641C18.4696 9.80469 18.3394 9.57552 18.079 9.47656C17.8238 9.3724 17.5477 9.42188 17.2509 9.625L14.6649 11.3828C14.5139 11.487 14.4123 11.6198 14.3602 11.7812C14.3081 11.9427 14.3055 12.1068 14.3524 12.2734C14.4045 12.4349 14.5087 12.5677 14.6649 12.6719L17.2509 14.3984Z"
		fill="currentColor"
	/>
</svg>
