<svg
	color="rgb(var(--foreground, 0, 0, 0))"
	viewBox="0 0 9 24"
	fill="none"
	xmlns="http://www.w3.org/2000/svg"
>
	<path
		d="M1.05554 19.2852C1.22221 19.2852 1.36283 19.2253 1.47742 19.1055C1.592 18.9909 1.64929 18.8503 1.64929 18.6836V5.30859C1.64929 5.14193 1.592 5.0013 1.47742 4.88672C1.36283 4.77214 1.22221 4.71484 1.05554 4.71484C0.894084 4.71484 0.756063 4.77214 0.641479 4.88672C0.526896 5.0013 0.469604 5.14193 0.469604 5.30859V18.6836C0.469604 18.8503 0.526896 18.9909 0.641479 19.1055C0.756063 19.2253 0.894084 19.2852 1.05554 19.2852ZM7.50085 14.3945C7.68835 14.5195 7.87585 14.582 8.06335 14.582C8.25606 14.582 8.41231 14.5221 8.5321 14.4023C8.6571 14.2773 8.7196 14.0977 8.7196 13.8633V10.1602C8.7196 9.80078 8.5894 9.57161 8.32898 9.47266C8.07377 9.36849 7.79773 9.41797 7.50085 9.62109L4.91492 11.3789C4.76388 11.4831 4.66231 11.6159 4.61023 11.7773C4.55815 11.9388 4.55554 12.1029 4.60242 12.2695C4.6545 12.431 4.75867 12.5638 4.91492 12.668L7.50085 14.3945Z"
		fill="currentColor"
	/>
</svg>
