<svg
	color="rgb(var(--foreground, 0, 0, 0))"
	viewBox="0 0 15 24"
	fill="none"
	xmlns="http://www.w3.org/2000/svg"
>
	<path
		d="M1.34375 13.4258C1.34375 14.2904 1.5026 15.1471 1.82031 15.9961C2.13802 16.8451 2.61458 17.6159 3.25 18.3086C3.88542 19.0013 4.67969 19.5534 5.63281 19.9648C6.58594 20.3815 7.69531 20.5898 8.96094 20.5898C9.6901 20.5898 10.3464 20.4857 10.9297 20.2773C11.513 20.0742 11.974 19.7956 12.3125 19.4414C12.651 19.0872 12.8203 18.694 12.8203 18.2617C12.8203 17.9544 12.7135 17.6966 12.5 17.4883C12.2865 17.2747 11.9766 17.1445 11.5703 17.0977C11.4661 17.082 11.3672 17.0977 11.2734 17.1445C11.1849 17.1914 11.1302 17.2799 11.1094 17.4102C11.0417 17.9518 10.8359 18.3945 10.4922 18.7383C10.1536 19.082 9.73438 19.2539 9.23438 19.2539C8.88021 19.2539 8.59896 19.1602 8.39062 18.9727C8.1875 18.7852 8.08594 18.556 8.08594 18.2852C8.08594 17.9779 8.21615 17.7044 8.47656 17.4648C8.73698 17.2201 9.07292 16.9857 9.48438 16.7617C9.90104 16.5378 10.3411 16.3008 10.8047 16.0508C11.2682 15.8008 11.7057 15.5169 12.1172 15.1992C12.5339 14.8815 12.8724 14.5117 13.1328 14.0898C13.3984 13.668 13.5312 13.168 13.5312 12.5898C13.5312 12.0221 13.4089 11.5221 13.1641 11.0898C12.9193 10.6576 12.5859 10.319 12.1641 10.0742C11.7422 9.82943 11.263 9.70703 10.7266 9.70703C9.98177 9.70703 9.32812 9.89974 8.76562 10.2852C8.20833 10.6706 7.79688 11.1836 7.53125 11.8242C7.56771 11.1836 7.47396 10.6419 7.25 10.1992C7.02604 9.75651 6.71354 9.42057 6.3125 9.19141C5.91667 8.96224 5.47656 8.84766 4.99219 8.84766C4.20052 8.84766 3.53385 9.05859 2.99219 9.48047C2.45052 9.89714 2.03906 10.4518 1.75781 11.1445C1.48177 11.8372 1.34375 12.5977 1.34375 13.4258ZM2.52344 13.4258C2.52344 12.7122 2.61979 12.1029 2.8125 11.5977C3.00521 11.0924 3.27865 10.7044 3.63281 10.4336C3.98698 10.1628 4.41146 10.0273 4.90625 10.0273C5.32812 10.0273 5.6875 10.1419 5.98438 10.3711C6.28646 10.6003 6.51823 10.9102 6.67969 11.3008C6.84635 11.6862 6.9375 12.1185 6.95312 12.5977C6.95833 12.7799 7.02083 12.9049 7.14062 12.9727C7.26042 13.0404 7.38802 13.0586 7.52344 13.0273C7.66406 12.9909 7.76562 12.9102 7.82812 12.7852C8.15625 12.1497 8.57812 11.6758 9.09375 11.3633C9.61458 11.0456 10.151 10.8867 10.7031 10.8867C11.026 10.8867 11.3099 10.9596 11.5547 11.1055C11.8047 11.2461 12 11.4518 12.1406 11.7227C12.2812 11.9883 12.3516 12.3034 12.3516 12.668C12.3516 13.0951 12.2188 13.4701 11.9531 13.793C11.6927 14.1159 11.3568 14.4076 10.9453 14.668C10.5339 14.9284 10.0964 15.181 9.63281 15.4258C9.17448 15.6706 8.73958 15.9284 8.32812 16.1992C7.91667 16.4648 7.58073 16.7669 7.32031 17.1055C7.0599 17.4388 6.92969 17.832 6.92969 18.2852C6.92969 18.4727 6.96354 18.6497 7.03125 18.8164C7.09896 18.9831 7.19271 19.1315 7.3125 19.2617C6.50521 19.1055 5.80208 18.8424 5.20312 18.4727C4.60417 18.1029 4.10677 17.6549 3.71094 17.1289C3.3151 16.5977 3.01823 16.0169 2.82031 15.3867C2.6224 14.7565 2.52344 14.1029 2.52344 13.4258ZM3.23438 4.82422C3.73438 4.82422 4.23438 4.94922 4.73438 5.19922C5.23438 5.44401 5.7474 5.7513 6.27344 6.12109C6.79948 6.48568 7.35156 6.85286 7.92969 7.22266C8.50781 7.58724 9.1224 7.89453 9.77344 8.14453C10.4245 8.38932 11.1276 8.51172 11.8828 8.51172C12.5339 8.51172 13.0885 8.38932 13.5469 8.14453C14.0104 7.89453 14.362 7.55859 14.6016 7.13672C14.8464 6.70964 14.9688 6.23307 14.9688 5.70703C14.9688 5.44141 14.9349 5.17057 14.8672 4.89453C14.7995 4.61328 14.6953 4.33724 14.5547 4.06641C14.4661 3.89974 14.349 3.79818 14.2031 3.76172C14.0625 3.72526 13.9245 3.73828 13.7891 3.80078C13.6589 3.85807 13.5651 3.95703 13.5078 4.09766C13.4505 4.23307 13.4714 4.39193 13.5703 4.57422C13.7943 5.0013 13.9062 5.41276 13.9062 5.80859C13.9062 6.29297 13.7344 6.68099 13.3906 6.97266C13.0521 7.26432 12.5495 7.41016 11.8828 7.41016C11.2474 7.41016 10.638 7.28776 10.0547 7.04297C9.47656 6.79297 8.90885 6.48568 8.35156 6.12109C7.79948 5.7513 7.2474 5.38411 6.69531 5.01953C6.14844 4.64974 5.58854 4.34245 5.01562 4.09766C4.44271 3.84766 3.84896 3.72266 3.23438 3.72266C2.55729 3.72266 1.97656 3.85547 1.49219 4.12109C1.01302 4.38672 0.643229 4.74089 0.382812 5.18359C0.127604 5.62109 0 6.10026 0 6.62109C0 7.14714 0.127604 7.65755 0.382812 8.15234C0.466146 8.31901 0.580729 8.42057 0.726562 8.45703C0.872396 8.48828 1.01042 8.47266 1.14062 8.41016C1.27083 8.34766 1.36458 8.2487 1.42188 8.11328C1.47917 7.97786 1.46094 7.82161 1.36719 7.64453C1.26823 7.44661 1.19271 7.25391 1.14062 7.06641C1.09375 6.87891 1.07031 6.69922 1.07031 6.52734C1.07031 6.03776 1.25521 5.63151 1.625 5.30859C2 4.98568 2.53646 4.82422 3.23438 4.82422ZM7.03906 11.8711L7.53125 12.0195L8.13281 11.6289C8.21615 11.0664 8.35938 10.5482 8.5625 10.0742C8.77083 9.60026 8.98958 9.14453 9.21875 8.70703C9.44792 8.26432 9.64323 7.81641 9.80469 7.36328C9.97135 6.90495 10.0547 6.41276 10.0547 5.88672C10.0547 5.42839 9.95833 5.01432 9.76562 4.64453C9.57292 4.26953 9.3099 3.97005 8.97656 3.74609C8.64844 3.52214 8.27604 3.41016 7.85938 3.41016C7.30729 3.41016 6.83594 3.59505 6.44531 3.96484C6.05469 4.33464 5.85156 4.80078 5.83594 5.36328L6.85938 5.66016C6.86458 5.31641 6.95833 5.04036 7.14062 4.83203C7.32292 4.61849 7.5625 4.51172 7.85938 4.51172C8.17708 4.51172 8.4375 4.63932 8.64062 4.89453C8.84896 5.14453 8.95312 5.47526 8.95312 5.88672C8.95312 6.30859 8.86458 6.72786 8.6875 7.14453C8.51562 7.55599 8.3099 7.99089 8.07031 8.44922C7.83594 8.90755 7.61719 9.41536 7.41406 9.97266C7.21615 10.5299 7.09115 11.1628 7.03906 11.8711Z"
		fill="currentColor"
	/>
</svg>
