<svg
	color="rgb(var(--foreground, 0, 0, 0))"
	viewBox="0 0 16 24"
	fill="none"
	xmlns="http://www.w3.org/2000/svg"
>
	<path
		d="M4.20312 4.82422C4.70312 4.82422 5.20312 4.94922 5.70312 5.19922C6.20312 5.44401 6.71615 5.7513 7.24219 6.12109C7.76823 6.48568 8.32031 6.85286 8.89844 7.22266C9.47656 7.58724 10.0911 7.89453 10.7422 8.14453C11.3932 8.38932 12.0964 8.51172 12.8516 8.51172C13.5026 8.51172 14.0573 8.38932 14.5156 8.14453C14.9792 7.89453 15.3307 7.55859 15.5703 7.13672C15.8151 6.70964 15.9375 6.23307 15.9375 5.70703C15.9375 5.44141 15.9036 5.17057 15.8359 4.89453C15.7682 4.61328 15.6641 4.33724 15.5234 4.06641C15.4349 3.89974 15.3177 3.79818 15.1719 3.76172C15.0312 3.72526 14.8932 3.73828 14.7578 3.80078C14.6276 3.85807 14.5339 3.95703 14.4766 4.09766C14.4193 4.23307 14.4401 4.39193 14.5391 4.57422C14.763 5.0013 14.875 5.41276 14.875 5.80859C14.875 6.29297 14.7031 6.68099 14.3594 6.97266C14.0208 7.26432 13.5182 7.41016 12.8516 7.41016C12.2161 7.41016 11.6068 7.28776 11.0234 7.04297C10.4453 6.79297 9.8776 6.48568 9.32031 6.12109C8.76823 5.7513 8.21615 5.38411 7.66406 5.01953C7.11719 4.64974 6.55729 4.34245 5.98438 4.09766C5.41146 3.84766 4.81771 3.72266 4.20312 3.72266C3.52604 3.72266 2.94531 3.85547 2.46094 4.12109C1.98177 4.38672 1.61198 4.74089 1.35156 5.18359C1.09635 5.62109 0.96875 6.10026 0.96875 6.62109C0.96875 7.14714 1.09635 7.65755 1.35156 8.15234C1.4349 8.31901 1.54948 8.42057 1.69531 8.45703C1.84115 8.48828 1.97917 8.47266 2.10938 8.41016C2.23958 8.34766 2.33333 8.2487 2.39062 8.11328C2.44792 7.97786 2.42969 7.82161 2.33594 7.64453C2.23698 7.44661 2.16146 7.25391 2.10938 7.06641C2.0625 6.87891 2.03906 6.69922 2.03906 6.52734C2.03906 6.03776 2.22396 5.63151 2.59375 5.30859C2.96875 4.98568 3.50521 4.82422 4.20312 4.82422ZM7.99219 12.8633L9.01562 12.8555C8.98438 12.2461 9.03125 11.694 9.15625 11.1992C9.28646 10.6992 9.45312 10.2331 9.65625 9.80078C9.85938 9.36328 10.0651 8.94141 10.2734 8.53516C10.487 8.1237 10.6641 7.70443 10.8047 7.27734C10.9505 6.84505 11.0234 6.38151 11.0234 5.88672C11.0234 5.42839 10.9271 5.01432 10.7344 4.64453C10.5417 4.26953 10.2786 3.97005 9.94531 3.74609C9.61719 3.52214 9.24479 3.41016 8.82812 3.41016C8.27604 3.41016 7.80469 3.59505 7.41406 3.96484C7.02344 4.33464 6.82031 4.80078 6.80469 5.36328L7.82812 5.66016C7.83333 5.31641 7.92708 5.04036 8.10938 4.83203C8.29167 4.61849 8.53125 4.51172 8.82812 4.51172C9.14583 4.51172 9.40625 4.63932 9.60938 4.89453C9.81771 5.14453 9.92188 5.47526 9.92188 5.88672C9.92188 6.26172 9.85156 6.63151 9.71094 6.99609C9.57031 7.36068 9.39844 7.74349 9.19531 8.14453C8.99219 8.54036 8.79167 8.97005 8.59375 9.43359C8.40104 9.89714 8.24479 10.4102 8.125 10.9727C8.00521 11.5299 7.96094 12.1602 7.99219 12.8633ZM2.3125 13.4258C2.3125 14.2904 2.47135 15.1471 2.78906 15.9961C3.10677 16.8451 3.58333 17.6159 4.21875 18.3086C4.85417 19.0013 5.64844 19.5534 6.60156 19.9648C7.55469 20.3815 8.66406 20.5898 9.92969 20.5898C10.6589 20.5898 11.3151 20.4857 11.8984 20.2773C12.4818 20.0742 12.9427 19.7956 13.2812 19.4414C13.6198 19.0872 13.7891 18.694 13.7891 18.2617C13.7891 17.9544 13.6823 17.6966 13.4688 17.4883C13.2552 17.2747 12.9453 17.1445 12.5391 17.0977C12.4349 17.082 12.3359 17.0977 12.2422 17.1445C12.1536 17.1914 12.099 17.2799 12.0781 17.4102C12.0104 17.9518 11.8047 18.3945 11.4609 18.7383C11.1224 19.082 10.7031 19.2539 10.2031 19.2539C9.84896 19.2539 9.56771 19.1602 9.35938 18.9727C9.15625 18.7852 9.05469 18.556 9.05469 18.2852C9.05469 17.9727 9.1849 17.6992 9.44531 17.4648C9.70573 17.2305 10.0417 17.0091 10.4531 16.8008C10.8698 16.5872 11.3099 16.3633 11.7734 16.1289C12.237 15.8893 12.6745 15.6133 13.0859 15.3008C13.5026 14.9883 13.8411 14.6133 14.1016 14.1758C14.3672 13.7383 14.5 13.2096 14.5 12.5898C14.5 12.0221 14.3776 11.5221 14.1328 11.0898C13.888 10.6576 13.5547 10.319 13.1328 10.0742C12.7109 9.82943 12.2318 9.70703 11.6953 9.70703C11.2005 9.70703 10.7422 9.79818 10.3203 9.98047C9.90365 10.1576 9.53906 10.4154 9.22656 10.7539C8.91927 11.0924 8.67708 11.5013 8.5 11.9805C8.53646 11.2878 8.44271 10.7096 8.21875 10.2461C7.99479 9.78255 7.68229 9.43359 7.28125 9.19922C6.88542 8.96484 6.44531 8.84766 5.96094 8.84766C5.19531 8.84766 4.53906 9.05859 3.99219 9.48047C3.45052 9.89714 3.03385 10.4518 2.74219 11.1445C2.45573 11.8372 2.3125 12.5977 2.3125 13.4258Z"
		fill="currentColor"
	/>
</svg>
