<svg
	color="rgb(var(--foreground, 0, 0, 0))"
	viewBox="0 0 19 24"
	fill="none"
	xmlns="http://www.w3.org/2000/svg"
>
	<path
		d="M7.89929 6.45312H17.7587C17.9201 6.45312 18.0581 6.39583 18.1727 6.28125C18.2925 6.16667 18.3524 6.02604 18.3524 5.85938C18.3524 5.69792 18.2925 5.5599 18.1727 5.44531C18.0581 5.33073 17.9201 5.27344 17.7587 5.27344H7.89929C7.73263 5.27344 7.592 5.33073 7.47742 5.44531C7.36283 5.5599 7.30554 5.69792 7.30554 5.85938C7.30554 6.02604 7.36283 6.16667 7.47742 6.28125C7.592 6.39583 7.73263 6.45312 7.89929 6.45312ZM7.89929 10.5469H17.7587C17.9201 10.5469 18.0581 10.4896 18.1727 10.375C18.2925 10.2604 18.3524 10.1198 18.3524 9.95312C18.3524 9.78646 18.2925 9.64844 18.1727 9.53906C18.0581 9.42448 17.9201 9.36719 17.7587 9.36719H7.89929C7.73263 9.36719 7.592 9.42448 7.47742 9.53906C7.36283 9.64844 7.30554 9.78646 7.30554 9.95312C7.30554 10.1198 7.36283 10.2604 7.47742 10.375C7.592 10.4896 7.73263 10.5469 7.89929 10.5469ZM7.89929 14.6406H17.7587C17.9201 14.6406 18.0581 14.5833 18.1727 14.4688C18.2925 14.3542 18.3524 14.2135 18.3524 14.0469C18.3524 13.8802 18.2925 13.7422 18.1727 13.6328C18.0581 13.5182 17.9201 13.4609 17.7587 13.4609H7.89929C7.73263 13.4609 7.592 13.5182 7.47742 13.6328C7.36283 13.7422 7.30554 13.8802 7.30554 14.0469C7.30554 14.2135 7.36283 14.3542 7.47742 14.4688C7.592 14.5833 7.73263 14.6406 7.89929 14.6406ZM7.89929 18.7266H13.7665C13.9331 18.7266 14.0738 18.6693 14.1884 18.5547C14.3081 18.4453 14.368 18.3073 14.368 18.1406C14.368 17.974 14.3081 17.8333 14.1884 17.7188C14.0738 17.6042 13.9331 17.5469 13.7665 17.5469H7.89929C7.73263 17.5469 7.592 17.6042 7.47742 17.7188C7.36283 17.8333 7.30554 17.974 7.30554 18.1406C7.30554 18.3073 7.36283 18.4453 7.47742 18.5547C7.592 18.6693 7.73263 18.7266 7.89929 18.7266ZM1.51648 14.3984L4.10242 12.6719C4.25346 12.5677 4.35242 12.4349 4.39929 12.2734C4.45138 12.1068 4.45138 11.9427 4.39929 11.7812C4.34721 11.6198 4.24825 11.487 4.10242 11.3828L1.51648 9.625C1.31335 9.48958 1.11804 9.42188 0.930542 9.42188C0.743042 9.42188 0.589396 9.48698 0.469604 9.61719C0.349813 9.74219 0.289917 9.92448 0.289917 10.1641V13.8672C0.289917 14.1016 0.349813 14.2786 0.469604 14.3984C0.594604 14.5182 0.750854 14.5807 0.938354 14.5859C1.13106 14.5859 1.32377 14.5234 1.51648 14.3984Z"
		fill="currentColor"
	/>
</svg>
