<svg
	color="rgb(var(--foreground, 0, 0, 0))"
	viewBox="0 0 17 24"
	fill="none"
	xmlns="http://www.w3.org/2000/svg"
>
	<path
		d="M1.30554 19.2852C1.47221 19.2852 1.61283 19.2253 1.72742 19.1055C1.842 18.9909 1.89929 18.8503 1.89929 18.6836V5.30859C1.89929 5.14193 1.842 5.0013 1.72742 4.88672C1.61283 4.77214 1.47221 4.71484 1.30554 4.71484C1.14408 4.71484 1.00606 4.77214 0.891479 4.88672C0.776896 5.0013 0.719604 5.14193 0.719604 5.30859V18.6836C0.719604 18.8503 0.776896 18.9909 0.891479 19.1055C1.00606 19.2253 1.14408 19.2852 1.30554 19.2852ZM5.20398 19.2852C5.37065 19.2852 5.51127 19.2253 5.62585 19.1055C5.74044 18.9909 5.79773 18.8503 5.79773 18.6836V5.30859C5.79773 5.14193 5.74044 5.0013 5.62585 4.88672C5.51127 4.77214 5.37065 4.71484 5.20398 4.71484C5.04252 4.71484 4.9045 4.77214 4.78992 4.88672C4.67533 5.0013 4.61804 5.14193 4.61804 5.30859V18.6836C4.61804 18.8503 4.67533 18.9909 4.78992 19.1055C4.9045 19.2253 5.04252 19.2852 5.20398 19.2852ZM9.10242 19.2852C9.26908 19.2852 9.40971 19.2253 9.52429 19.1055C9.63888 18.9909 9.69617 18.8503 9.69617 18.6836V5.30859C9.69617 5.14193 9.63888 5.0013 9.52429 4.88672C9.40971 4.77214 9.26908 4.71484 9.10242 4.71484C8.94096 4.71484 8.80294 4.77214 8.68835 4.88672C8.57377 5.0013 8.51648 5.14193 8.51648 5.30859V18.6836C8.51648 18.8503 8.57377 18.9909 8.68835 19.1055C8.80294 19.2253 8.94096 19.2852 9.10242 19.2852ZM13.8446 14.3945L16.4305 12.668C16.5816 12.5638 16.6805 12.431 16.7274 12.2695C16.7795 12.1029 16.7795 11.9388 16.7274 11.7773C16.6753 11.6159 16.5764 11.4831 16.4305 11.3789L13.8446 9.62109C13.6415 9.48568 13.4462 9.41797 13.2587 9.41797C13.0712 9.41797 12.9149 9.48307 12.7899 9.61328C12.6701 9.73828 12.6128 9.92057 12.618 10.1602V13.8633C12.6128 14.0977 12.6727 14.2747 12.7977 14.3945C12.9227 14.5143 13.079 14.5768 13.2665 14.582C13.4592 14.582 13.6519 14.5195 13.8446 14.3945Z"
		fill="currentColor"
	/>
</svg>
