<svg
	color="rgb(var(--foreground, 0, 0, 0))"
	viewBox="0 0 10 24"
	fill="none"
	xmlns="http://www.w3.org/2000/svg"
>
	<path
		d="M1.59229 17.5859H6.52979C6.71729 17.5859 6.86833 17.5339 6.98291 17.4297C7.1027 17.3203 7.1626 17.1745 7.1626 16.9922C7.1626 16.8151 7.10531 16.6745 6.99072 16.5703C6.87614 16.4661 6.7251 16.4141 6.5376 16.4141H4.7876L6.68604 7.58594H8.43604C8.61833 7.58594 8.76676 7.53385 8.88135 7.42969C9.00114 7.32031 9.06104 7.17448 9.06104 6.99219C9.06104 6.8151 9.00374 6.67448 8.88916 6.57031C8.77458 6.46615 8.62614 6.41406 8.44385 6.41406H3.48291C3.30062 6.41406 3.15218 6.46615 3.0376 6.57031C2.92301 6.67448 2.86572 6.8151 2.86572 6.99219C2.86572 7.17448 2.92301 7.32031 3.0376 7.42969C3.15739 7.53385 3.30843 7.58594 3.49072 7.58594H5.24072L3.34229 16.4141H1.58447C1.40218 16.4141 1.25374 16.4661 1.13916 16.5703C1.02458 16.6745 0.967285 16.8151 0.967285 16.9922C0.967285 17.1745 1.02458 17.3203 1.13916 17.4297C1.25895 17.5339 1.40999 17.5859 1.59229 17.5859Z"
		fill="currentColor"
	/>
</svg>
