<svg
	color="rgb(var(--foreground, 0, 0, 0))"
	viewBox="0 0 17 24"
	fill="none"
	xmlns="http://www.w3.org/2000/svg"
>
	<path
		d="M1.5498 6.45312H16.1045C16.2712 6.45312 16.4118 6.39583 16.5264 6.28125C16.6462 6.16667 16.7061 6.02604 16.7061 5.85938C16.7061 5.69792 16.6462 5.5599 16.5264 5.44531C16.4118 5.33073 16.2712 5.27344 16.1045 5.27344H1.5498C1.38835 5.27344 1.25033 5.33073 1.13574 5.44531C1.02116 5.5599 0.963867 5.69792 0.963867 5.85938C0.963867 6.02604 1.02116 6.16667 1.13574 6.28125C1.25033 6.39583 1.38835 6.45312 1.5498 6.45312ZM1.5498 10.5469H16.1045C16.2712 10.5469 16.4118 10.4896 16.5264 10.375C16.6462 10.2604 16.7061 10.1198 16.7061 9.95312C16.7061 9.78646 16.6462 9.64844 16.5264 9.53906C16.4118 9.42448 16.2712 9.36719 16.1045 9.36719H1.5498C1.38835 9.36719 1.25033 9.42448 1.13574 9.53906C1.02116 9.64844 0.963867 9.78646 0.963867 9.95312C0.963867 10.1198 1.02116 10.2604 1.13574 10.375C1.25033 10.4896 1.38835 10.5469 1.5498 10.5469ZM1.5498 14.6406H16.1045C16.2712 14.6406 16.4118 14.5833 16.5264 14.4688C16.6462 14.3542 16.7061 14.2135 16.7061 14.0469C16.7061 13.8802 16.6462 13.7422 16.5264 13.6328C16.4118 13.5182 16.2712 13.4609 16.1045 13.4609H1.5498C1.38835 13.4609 1.25033 13.5182 1.13574 13.6328C1.02116 13.7422 0.963867 13.8802 0.963867 14.0469C0.963867 14.2135 1.02116 14.3542 1.13574 14.4688C1.25033 14.5833 1.38835 14.6406 1.5498 14.6406ZM1.5498 18.7266H9.90918C10.0706 18.7266 10.2087 18.6693 10.3232 18.5547C10.443 18.4453 10.5029 18.3073 10.5029 18.1406C10.5029 17.974 10.443 17.8333 10.3232 17.7188C10.2087 17.6042 10.0706 17.5469 9.90918 17.5469H1.5498C1.38835 17.5469 1.25033 17.6042 1.13574 17.7188C1.02116 17.8333 0.963867 17.974 0.963867 18.1406C0.963867 18.3073 1.02116 18.4453 1.13574 18.5547C1.25033 18.6693 1.38835 18.7266 1.5498 18.7266Z"
		fill="currentColor"
	/>
</svg>
