<svg
	color="rgb(var(--foreground, 0, 0, 0))"
	viewBox="0 0 17 24"
	fill="none"
	xmlns="http://www.w3.org/2000/svg"
>
	<path
		d="M1.29199 6.45312H15.8467C16.0133 6.45312 16.154 6.39583 16.2686 6.28125C16.3883 6.16667 16.4482 6.02604 16.4482 5.85938C16.4482 5.69792 16.3883 5.5599 16.2686 5.44531C16.154 5.33073 16.0133 5.27344 15.8467 5.27344H1.29199C1.13053 5.27344 0.992513 5.33073 0.87793 5.44531C0.763346 5.5599 0.706055 5.69792 0.706055 5.85938C0.706055 6.02604 0.763346 6.16667 0.87793 6.28125C0.992513 6.39583 1.13053 6.45312 1.29199 6.45312ZM1.29199 10.5469H15.8467C16.0133 10.5469 16.154 10.4896 16.2686 10.375C16.3883 10.2604 16.4482 10.1198 16.4482 9.95312C16.4482 9.78646 16.3883 9.64844 16.2686 9.53906C16.154 9.42448 16.0133 9.36719 15.8467 9.36719H1.29199C1.13053 9.36719 0.992513 9.42448 0.87793 9.53906C0.763346 9.64844 0.706055 9.78646 0.706055 9.95312C0.706055 10.1198 0.763346 10.2604 0.87793 10.375C0.992513 10.4896 1.13053 10.5469 1.29199 10.5469ZM1.29199 14.6406H15.8467C16.0133 14.6406 16.154 14.5833 16.2686 14.4688C16.3883 14.3542 16.4482 14.2135 16.4482 14.0469C16.4482 13.8802 16.3883 13.7422 16.2686 13.6328C16.154 13.5182 16.0133 13.4609 15.8467 13.4609H1.29199C1.13053 13.4609 0.992513 13.5182 0.87793 13.6328C0.763346 13.7422 0.706055 13.8802 0.706055 14.0469C0.706055 14.2135 0.763346 14.3542 0.87793 14.4688C0.992513 14.5833 1.13053 14.6406 1.29199 14.6406ZM7.49512 18.7266H15.8467C16.0133 18.7266 16.154 18.6693 16.2686 18.5547C16.3883 18.4453 16.4482 18.3073 16.4482 18.1406C16.4482 17.974 16.3883 17.8333 16.2686 17.7188C16.154 17.6042 16.0133 17.5469 15.8467 17.5469H7.49512C7.32845 17.5469 7.18783 17.6042 7.07324 17.7188C6.96387 17.8333 6.90918 17.974 6.90918 18.1406C6.90918 18.3073 6.96387 18.4453 7.07324 18.5547C7.18783 18.6693 7.32845 18.7266 7.49512 18.7266Z"
		fill="currentColor"
	/>
</svg>
