<svg
	color="rgb(var(--foreground, 0, 0, 0))"
	viewBox="0 0 19 24"
	fill="none"
	xmlns="http://www.w3.org/2000/svg"
>
	<path
		d="M14.2173 17.793C14.884 17.793 15.4621 17.6419 15.9517 17.3398C16.4465 17.0326 16.811 16.5977 17.0454 16.0352H17.0923V17.1445C17.0923 17.3477 17.1496 17.5065 17.2642 17.6211C17.384 17.7409 17.535 17.8008 17.7173 17.8008C17.9048 17.8008 18.0558 17.7409 18.1704 17.6211C18.2902 17.5013 18.3501 17.3398 18.3501 17.1367V9.73047C18.3501 9.53255 18.2902 9.37109 18.1704 9.24609C18.0558 9.11589 17.9048 9.05078 17.7173 9.05078C17.535 9.05078 17.384 9.11589 17.2642 9.24609C17.1496 9.37109 17.0923 9.53255 17.0923 9.73047V10.832H17.0454C16.8892 10.4674 16.6704 10.1523 16.3892 9.88672C16.1131 9.62109 15.7876 9.41797 15.4126 9.27734C15.0428 9.13672 14.6444 9.06641 14.2173 9.06641C13.509 9.06641 12.8892 9.2487 12.3579 9.61328C11.8319 9.97786 11.4204 10.4883 11.1235 11.1445C10.8319 11.8008 10.686 12.5638 10.686 13.4336C10.686 14.3086 10.8319 15.0742 11.1235 15.7305C11.4204 16.3815 11.8319 16.8893 12.3579 17.2539C12.8892 17.6133 13.509 17.793 14.2173 17.793ZM14.5298 16.6523C14.0246 16.6523 13.5845 16.5221 13.2095 16.2617C12.8345 15.9961 12.5454 15.6237 12.3423 15.1445C12.1392 14.6602 12.0376 14.0898 12.0376 13.4336C12.0376 12.7721 12.1392 12.2018 12.3423 11.7227C12.5454 11.2383 12.8345 10.8659 13.2095 10.6055C13.5845 10.3398 14.0246 10.207 14.5298 10.207C15.035 10.207 15.4777 10.3424 15.8579 10.6133C16.2381 10.8789 16.5324 11.2565 16.7407 11.7461C16.9491 12.2305 17.0532 12.7982 17.0532 13.4492C17.0532 14.1003 16.9491 14.6654 16.7407 15.1445C16.5376 15.6237 16.2459 15.9961 15.8657 16.2617C15.4855 16.5221 15.0402 16.6523 14.5298 16.6523ZM0.811035 17.7383C1.01937 17.7383 1.18083 17.694 1.29541 17.6055C1.40999 17.5169 1.50374 17.3633 1.57666 17.1445L2.58447 14.3867H7.19385L8.20166 17.1445C8.27458 17.3633 8.36833 17.5169 8.48291 17.6055C8.59749 17.694 8.75635 17.7383 8.95947 17.7383C9.16781 17.7383 9.33187 17.681 9.45166 17.5664C9.57666 17.4518 9.63916 17.2956 9.63916 17.0977C9.63916 16.9779 9.61051 16.8372 9.55322 16.6758L5.88916 6.91797C5.79541 6.67839 5.66781 6.4987 5.50635 6.37891C5.34489 6.25911 5.13916 6.19922 4.88916 6.19922C4.40479 6.19922 4.07666 6.4362 3.90479 6.91016L0.240723 16.6836C0.183431 16.8451 0.154785 16.9857 0.154785 17.1055C0.154785 17.3034 0.212077 17.4596 0.32666 17.5742C0.446452 17.6836 0.60791 17.7383 0.811035 17.7383ZM2.96729 13.1992L4.86572 7.94141H4.90479L6.80322 13.1992H2.96729Z"
		fill="currentColor"
	/>
</svg>
