<svg
	color="rgb(var(--foreground, 0, 0, 0))"
	viewBox="0 0 32 24"
	fill="none"
	xmlns="http://www.w3.org/2000/svg"
>
	<path
		d="M1.5376 17.7969C1.74593 17.7969 1.90739 17.7474 2.02197 17.6484C2.13656 17.5547 2.23031 17.401 2.30322 17.1875L3.31104 14.4219H7.92041L8.92822 17.1875C9.00114 17.401 9.09489 17.5547 9.20947 17.6484C9.32406 17.7474 9.48291 17.7969 9.68604 17.7969C9.89437 17.7969 10.0584 17.737 10.1782 17.6172C10.3032 17.4922 10.3657 17.3307 10.3657 17.1328C10.3657 17.013 10.3371 16.8724 10.2798 16.7109L6.61572 6.96094C6.52197 6.71615 6.39437 6.53125 6.23291 6.40625C6.07145 6.27604 5.86572 6.21094 5.61572 6.21094C5.14176 6.21094 4.81364 6.45833 4.63135 6.95312L0.967285 16.7188C0.909993 16.8802 0.881348 17.0208 0.881348 17.1406C0.881348 17.3385 0.938639 17.4974 1.05322 17.6172C1.17301 17.737 1.33447 17.7969 1.5376 17.7969ZM3.69385 13.2422L5.59229 7.98438H5.63135L7.52979 13.2422H3.69385ZM12.4829 17.5703H16.2798C17.1079 17.5703 17.8162 17.4427 18.4048 17.1875C18.9985 16.9323 19.4543 16.5755 19.772 16.1172C20.0897 15.6589 20.2485 15.1198 20.2485 14.5C20.2485 13.9844 20.1313 13.526 19.897 13.125C19.6678 12.7188 19.3475 12.3906 18.936 12.1406C18.5298 11.8906 18.0584 11.737 17.522 11.6797V11.625C17.9334 11.5573 18.3006 11.4036 18.6235 11.1641C18.9465 10.9193 19.1991 10.6172 19.3813 10.2578C19.5688 9.89323 19.6626 9.5026 19.6626 9.08594C19.6626 8.5599 19.5194 8.09635 19.2329 7.69531C18.9465 7.28906 18.548 6.97135 18.0376 6.74219C17.5272 6.50781 16.9282 6.39062 16.2407 6.39062H12.4829C12.2642 6.39062 12.0897 6.45833 11.9595 6.59375C11.8293 6.72396 11.7642 6.90104 11.7642 7.125V16.8359C11.7642 17.0599 11.8293 17.2396 11.9595 17.375C12.0897 17.5052 12.2642 17.5703 12.4829 17.5703ZM13.2407 11.2266V7.64062H15.9048C16.6183 7.64062 17.1782 7.79427 17.5845 8.10156C17.9907 8.40365 18.1938 8.80208 18.1938 9.29688C18.1938 9.90625 17.9647 10.3802 17.5063 10.7188C17.048 11.0573 16.4074 11.2266 15.5845 11.2266H13.2407ZM13.2407 16.3281V12.3906H15.8735C16.8006 12.3906 17.509 12.5651 17.9985 12.9141C18.4933 13.2578 18.7407 13.7578 18.7407 14.4141C18.7407 15.0078 18.5037 15.4766 18.0298 15.8203C17.561 16.1589 16.8866 16.3281 16.0063 16.3281H13.2407ZM26.686 17.7578C27.3527 17.7578 27.9647 17.6667 28.522 17.4844C29.0793 17.2969 29.5688 17.0286 29.9907 16.6797C30.4126 16.3307 30.7511 15.9062 31.0063 15.4062C31.0845 15.2552 31.1444 15.1042 31.186 14.9531C31.2329 14.8021 31.2563 14.6562 31.2563 14.5156C31.2563 14.3229 31.1938 14.1693 31.0688 14.0547C30.9438 13.9349 30.7876 13.875 30.6001 13.875C30.4438 13.875 30.3162 13.9141 30.2173 13.9922C30.1183 14.0651 30.0246 14.1979 29.936 14.3906C29.759 14.8333 29.5168 15.2083 29.2095 15.5156C28.9074 15.8229 28.5428 16.0573 28.1157 16.2188C27.6938 16.375 27.2173 16.4531 26.686 16.4531C25.9256 16.4531 25.2668 16.2708 24.7095 15.9062C24.1522 15.5417 23.7199 15.0234 23.4126 14.3516C23.1105 13.6797 22.9595 12.8802 22.9595 11.9531C22.9595 11.0417 23.1105 10.2526 23.4126 9.58594C23.7199 8.91927 24.1522 8.40625 24.7095 8.04688C25.272 7.6875 25.9308 7.50781 26.686 7.50781C27.186 7.50781 27.647 7.59896 28.0688 7.78125C28.4959 7.96354 28.8657 8.22396 29.1782 8.5625C29.4959 8.89583 29.7381 9.28646 29.9048 9.73438C29.9933 9.92708 30.0949 10.0677 30.2095 10.1562C30.3241 10.2448 30.4647 10.2891 30.6313 10.2891C30.8241 10.2891 30.9803 10.2318 31.1001 10.1172C31.2199 9.9974 31.2798 9.84115 31.2798 9.64844C31.2798 9.44531 31.2355 9.22135 31.147 8.97656C30.9438 8.40365 30.6209 7.90885 30.1782 7.49219C29.7355 7.07552 29.2121 6.75781 28.6079 6.53906C28.009 6.3151 27.3683 6.20312 26.686 6.20312C25.6235 6.20312 24.7017 6.4375 23.9204 6.90625C23.1444 7.36979 22.5428 8.03385 22.1157 8.89844C21.6938 9.75781 21.4829 10.7786 21.4829 11.9609C21.4829 13.1536 21.6938 14.1849 22.1157 15.0547C22.5428 15.9193 23.1444 16.5859 23.9204 17.0547C24.7017 17.5234 25.6235 17.7578 26.686 17.7578Z"
		fill="currentColor"
	/>
</svg>
