<svg
	color="rgb(var(--foreground, 0, 0, 0))"
	viewBox="0 0 8 24"
	fill="none"
	xmlns="http://www.w3.org/2000/svg"
>
	<path
		d="M1.12354 16.1211C1.28499 16.1211 1.41781 16.0794 1.52197 15.9961C1.63135 15.9076 1.71729 15.7669 1.77979 15.5742L2.42822 13.6602H5.48291L6.13135 15.5742C6.19385 15.7721 6.27979 15.9128 6.38916 15.9961C6.49854 16.0794 6.63395 16.1211 6.79541 16.1211C6.99333 16.1211 7.15218 16.0664 7.27197 15.957C7.39176 15.8477 7.45166 15.7044 7.45166 15.5273C7.45166 15.4492 7.44124 15.3737 7.42041 15.3008C7.40479 15.2227 7.38135 15.1419 7.3501 15.0586L4.92041 8.60547C4.83187 8.36589 4.70426 8.1862 4.5376 8.06641C4.37614 7.94141 4.18083 7.87891 3.95166 7.87891C3.7277 7.87891 3.53499 7.9388 3.37354 8.05859C3.21208 8.17318 3.08447 8.35547 2.99072 8.60547L0.561035 15.0586C0.529785 15.1315 0.506348 15.2096 0.490723 15.293C0.480306 15.3711 0.475098 15.4492 0.475098 15.5273C0.475098 15.7096 0.532389 15.8555 0.646973 15.9648C0.766764 16.069 0.925618 16.1211 1.12354 16.1211ZM2.77197 12.6445L3.86572 9.38672H4.04541L5.13916 12.6445H2.77197Z"
		fill="currentColor"
	/>
</svg>
