<svg
	color="rgb(var(--foreground, 0, 0, 0))"
	viewBox="0 0 10 24"
	fill="none"
	xmlns="http://www.w3.org/2000/svg"
>
	<path
		d="M1.1626 17.7695C1.37093 17.7695 1.53239 17.7253 1.64697 17.6367C1.76156 17.5482 1.85531 17.3945 1.92822 17.1758L2.93604 14.418H7.54541L8.55322 17.1758C8.62614 17.3945 8.71989 17.5482 8.83447 17.6367C8.94906 17.7253 9.10791 17.7695 9.31104 17.7695C9.51937 17.7695 9.68343 17.7122 9.80322 17.5977C9.92822 17.4831 9.99072 17.3268 9.99072 17.1289C9.99072 17.0091 9.96208 16.8685 9.90479 16.707L6.24072 6.94922C6.14697 6.70964 6.01937 6.52995 5.85791 6.41016C5.69645 6.29036 5.49072 6.23047 5.24072 6.23047C4.75635 6.23047 4.42822 6.46745 4.25635 6.94141L0.592285 16.7148C0.534993 16.8763 0.506348 17.0169 0.506348 17.1367C0.506348 17.3346 0.563639 17.4909 0.678223 17.6055C0.798014 17.7148 0.959473 17.7695 1.1626 17.7695ZM3.31885 13.2305L5.21729 7.97266H5.25635L7.15479 13.2305H3.31885Z"
		fill="currentColor"
	/>
</svg>
