<svg
	color="rgb(var(--foreground, 0, 0, 0))"
	viewBox="0 0 25 24"
	fill="none"
	xmlns="http://www.w3.org/2000/svg"
>
	<path
		d="M3.06104 17.7578C3.46208 17.7578 3.84489 17.6901 4.20947 17.5547C4.57406 17.4193 4.89958 17.2292 5.18604 16.9844C5.47249 16.7344 5.69385 16.4427 5.8501 16.1094H5.87354V17.125C5.87354 17.3177 5.93343 17.474 6.05322 17.5938C6.17301 17.7083 6.32406 17.7656 6.50635 17.7656C6.69906 17.7656 6.8527 17.7057 6.96729 17.5859C7.08708 17.4661 7.14697 17.3021 7.14697 17.0938V11.9219C7.14697 11.3542 7.01676 10.8646 6.75635 10.4531C6.49593 10.0365 6.12354 9.71354 5.63916 9.48438C5.15999 9.25521 4.59489 9.14062 3.94385 9.14062C3.20947 9.14062 2.56104 9.28906 1.99854 9.58594C1.43604 9.88281 1.04281 10.2812 0.818848 10.7812C0.777181 10.875 0.743327 10.9688 0.717285 11.0625C0.691243 11.151 0.678223 11.237 0.678223 11.3203C0.678223 11.4922 0.73291 11.6302 0.842285 11.7344C0.956868 11.8385 1.09749 11.8906 1.26416 11.8906C1.38916 11.8906 1.49593 11.8672 1.58447 11.8203C1.67822 11.7682 1.75374 11.6875 1.81104 11.5781C2.02458 11.1302 2.30062 10.7995 2.63916 10.5859C2.98291 10.3724 3.40479 10.2656 3.90479 10.2656C4.50895 10.2656 4.98031 10.4245 5.31885 10.7422C5.65739 11.0547 5.82666 11.4818 5.82666 12.0234V12.6875L3.33447 12.8281C2.3501 12.8802 1.59489 13.1224 1.06885 13.5547C0.542806 13.987 0.279785 14.5625 0.279785 15.2812C0.279785 15.776 0.396973 16.2109 0.631348 16.5859C0.865723 16.9557 1.19124 17.2448 1.60791 17.4531C2.02979 17.6562 2.51416 17.7578 3.06104 17.7578ZM3.38135 16.6719C2.86051 16.6719 2.43864 16.5417 2.11572 16.2812C1.79281 16.0208 1.63135 15.6797 1.63135 15.2578C1.63135 14.8464 1.7902 14.513 2.10791 14.2578C2.42562 14.0026 2.88916 13.8542 3.49854 13.8125L5.82666 13.6641V14.4766C5.82666 14.888 5.71729 15.2604 5.49854 15.5938C5.27979 15.9271 4.98551 16.1901 4.61572 16.3828C4.24593 16.5755 3.83447 16.6719 3.38135 16.6719ZM9.32666 17.7578C9.51416 17.7578 9.66781 17.6979 9.7876 17.5781C9.9126 17.4583 9.9751 17.2995 9.9751 17.1016V15.9766H9.99854C10.2537 16.5286 10.6261 16.9661 11.1157 17.2891C11.6105 17.6068 12.1782 17.7656 12.8188 17.7656C13.5324 17.7656 14.1522 17.5885 14.6782 17.2344C15.2095 16.875 15.6209 16.3724 15.9126 15.7266C16.2095 15.0807 16.3579 14.3229 16.3579 13.4531C16.3579 12.5833 16.2095 11.8255 15.9126 11.1797C15.6209 10.5339 15.2095 10.0339 14.6782 9.67969C14.1522 9.32031 13.5376 9.14062 12.8345 9.14062C12.2043 9.14062 11.6418 9.30208 11.147 9.625C10.6574 9.94792 10.2928 10.3802 10.0532 10.9219H10.0142V6.92969C10.0142 6.71615 9.95166 6.54688 9.82666 6.42188C9.70687 6.29688 9.55062 6.23438 9.35791 6.23438C9.15999 6.23438 8.99854 6.29688 8.87354 6.42188C8.75374 6.54688 8.69385 6.71615 8.69385 6.92969V17.1016C8.69385 17.3047 8.75114 17.4661 8.86572 17.5859C8.98551 17.7005 9.13916 17.7578 9.32666 17.7578ZM12.5298 16.625C12.035 16.625 11.5975 16.4948 11.2173 16.2344C10.8423 15.9688 10.548 15.599 10.3345 15.125C10.1209 14.651 10.0142 14.0964 10.0142 13.4609C10.0142 12.8255 10.1209 12.2708 10.3345 11.7969C10.5532 11.3177 10.8501 10.9479 11.2251 10.6875C11.6053 10.4219 12.0402 10.2891 12.5298 10.2891C13.035 10.2891 13.4725 10.4193 13.8423 10.6797C14.2121 10.9349 14.4959 11.2995 14.6938 11.7734C14.897 12.2474 14.9985 12.8073 14.9985 13.4531C14.9985 14.1042 14.897 14.6667 14.6938 15.1406C14.4907 15.6146 14.2043 15.9818 13.8345 16.2422C13.4647 16.4974 13.0298 16.625 12.5298 16.625ZM21.1079 17.7656C21.6183 17.7656 22.0949 17.6797 22.5376 17.5078C22.9855 17.3307 23.3709 17.0911 23.6938 16.7891C24.0168 16.4818 24.2537 16.1276 24.4048 15.7266C24.4256 15.6641 24.4412 15.6016 24.4517 15.5391C24.4673 15.4714 24.4751 15.4115 24.4751 15.3594C24.4751 15.1927 24.4204 15.0573 24.311 14.9531C24.2069 14.8438 24.0715 14.7891 23.9048 14.7891C23.759 14.7891 23.6392 14.8229 23.5454 14.8906C23.4569 14.9583 23.3683 15.0781 23.2798 15.25C23.0767 15.6927 22.7954 16.0339 22.436 16.2734C22.0819 16.5078 21.6418 16.625 21.1157 16.625C20.3501 16.625 19.7355 16.3411 19.272 15.7734C18.8136 15.2057 18.5845 14.4349 18.5845 13.4609C18.5845 12.4922 18.8162 11.7214 19.2798 11.1484C19.7433 10.5703 20.3553 10.2812 21.1157 10.2812C21.6157 10.2812 22.0454 10.3984 22.4048 10.6328C22.7694 10.8672 23.0558 11.2135 23.2642 11.6719C23.3527 11.8385 23.4412 11.9557 23.5298 12.0234C23.6183 12.0859 23.7355 12.1172 23.8813 12.1172C24.048 12.1172 24.1834 12.0677 24.2876 11.9688C24.397 11.8646 24.4517 11.7266 24.4517 11.5547C24.4517 11.5078 24.4438 11.4583 24.4282 11.4063C24.4178 11.349 24.4074 11.2943 24.397 11.2422C24.2668 10.8411 24.0402 10.4844 23.7173 10.1719C23.3996 9.85417 23.0116 9.60417 22.5532 9.42188C22.1001 9.23438 21.6105 9.14062 21.0845 9.14062C20.3084 9.14062 19.6313 9.32031 19.0532 9.67969C18.4751 10.0391 18.0272 10.5443 17.7095 11.1953C17.3918 11.8411 17.2329 12.599 17.2329 13.4688C17.2329 14.3438 17.3918 15.1042 17.7095 15.75C18.0324 16.3906 18.4829 16.888 19.061 17.2422C19.6444 17.5911 20.3267 17.7656 21.1079 17.7656Z"
		fill="currentColor"
	/>
</svg>
