<svg
	color="rgb(var(--foreground, 0, 0, 0))"
	viewBox="0 0 19 24"
	fill="none"
	xmlns="http://www.w3.org/2000/svg"
>
	<path
		d="M14.0376 17.793C14.4386 17.793 14.8241 17.7253 15.1938 17.5898C15.5636 17.4492 15.8918 17.2539 16.1782 17.0039C16.4647 16.7539 16.6886 16.4596 16.8501 16.1211H16.8813V17.1523C16.8813 17.3503 16.9412 17.5065 17.061 17.6211C17.1808 17.7409 17.3319 17.8008 17.5142 17.8008C17.7017 17.8008 17.8553 17.7409 17.9751 17.6211C18.0949 17.5013 18.1548 17.3346 18.1548 17.1211V11.9102C18.1548 11.3424 18.022 10.8503 17.7563 10.4336C17.4959 10.0117 17.1235 9.6862 16.6392 9.45703C16.1548 9.22266 15.5819 9.10547 14.9204 9.10547C14.186 9.10547 13.535 9.25651 12.9673 9.55859C12.3996 9.85547 12.0037 10.2565 11.7798 10.7617C11.7329 10.8555 11.6965 10.9492 11.6704 11.043C11.6444 11.1367 11.6313 11.2253 11.6313 11.3086C11.6313 11.4805 11.686 11.6185 11.7954 11.7227C11.91 11.8268 12.0532 11.8789 12.2251 11.8789C12.3449 11.8789 12.4517 11.8555 12.5454 11.8086C12.6392 11.7565 12.7147 11.6758 12.772 11.5664C12.9907 11.1133 13.2694 10.7799 13.6079 10.5664C13.9517 10.3477 14.3787 10.2383 14.8892 10.2383C15.4985 10.2383 15.9751 10.3971 16.3188 10.7148C16.6626 11.0326 16.8345 11.4648 16.8345 12.0117V12.6836L14.311 12.8242C13.3215 12.8763 12.561 13.1211 12.0298 13.5586C11.4985 13.9909 11.2329 14.5716 11.2329 15.3008C11.2329 15.8008 11.3501 16.2383 11.5845 16.6133C11.8241 16.9831 12.1548 17.2721 12.5767 17.4805C12.9985 17.6888 13.4855 17.793 14.0376 17.793ZM14.3579 16.707C13.8267 16.707 13.397 16.5742 13.0688 16.3086C12.7459 16.043 12.5845 15.6966 12.5845 15.2695C12.5845 14.8529 12.7459 14.5169 13.0688 14.2617C13.3918 14.0013 13.8605 13.8503 14.4751 13.8086L16.8345 13.6602V14.4883C16.8345 14.9049 16.7225 15.2799 16.4985 15.6133C16.2798 15.9466 15.9829 16.2122 15.6079 16.4102C15.2329 16.6081 14.8162 16.707 14.3579 16.707ZM0.904785 17.7383C1.11312 17.7383 1.27458 17.694 1.38916 17.6055C1.50374 17.5169 1.59749 17.3633 1.67041 17.1445L2.67822 14.3867H7.2876L8.29541 17.1445C8.36833 17.3633 8.46208 17.5169 8.57666 17.6055C8.69124 17.694 8.8501 17.7383 9.05322 17.7383C9.26156 17.7383 9.42562 17.681 9.54541 17.5664C9.67041 17.4518 9.73291 17.2956 9.73291 17.0977C9.73291 16.9779 9.70426 16.8372 9.64697 16.6758L5.98291 6.91797C5.88916 6.67839 5.76156 6.4987 5.6001 6.37891C5.43864 6.25911 5.23291 6.19922 4.98291 6.19922C4.49854 6.19922 4.17041 6.4362 3.99854 6.91016L0.334473 16.6836C0.277181 16.8451 0.248535 16.9857 0.248535 17.1055C0.248535 17.3034 0.305827 17.4596 0.42041 17.5742C0.540202 17.6836 0.70166 17.7383 0.904785 17.7383ZM3.06104 13.1992L4.95947 7.94141H4.99854L6.89697 13.1992H3.06104Z"
		fill="currentColor"
	/>
</svg>
