<svg
	color="rgb(var(--foreground, 0, 0, 0))"
	viewBox="0 0 11 24"
	fill="none"
	xmlns="http://www.w3.org/2000/svg"
>
	<path
		d="M0.0610352 17.4362L2.02979 17.9597C2.44645 18.0691 2.77197 18.0404 3.00635 17.8737C3.24072 17.7071 3.35791 17.4206 3.35791 17.0144V14.3503H6.8501V12.1706H0.79541V16.7097C0.79541 16.9284 0.727702 17.1055 0.592285 17.2409C0.462077 17.3711 0.284993 17.4362 0.0610352 17.4362ZM0.79541 10.8737H3.35791V7.73312C3.35791 7.36333 3.27458 7.08468 3.10791 6.89718C2.94124 6.70448 2.69124 6.56385 2.35791 6.47531L0.490723 5.97531C0.584473 6.03781 0.657389 6.12114 0.709473 6.22531C0.766764 6.32427 0.79541 6.44406 0.79541 6.58468V10.8737ZM7.56104 17.4362L9.52979 17.9597C9.94645 18.0691 10.272 18.0404 10.5063 17.8737C10.7407 17.7071 10.8579 17.4206 10.8579 17.0144V7.73312C10.8579 7.36333 10.772 7.08208 10.6001 6.88937C10.4334 6.69666 10.1834 6.55604 9.8501 6.4675L7.99072 5.97531C8.08447 6.03781 8.15739 6.12114 8.20947 6.22531C8.26676 6.32427 8.29541 6.44406 8.29541 6.58468V16.7097C8.29541 16.9284 8.2277 17.1055 8.09229 17.2409C7.96208 17.3711 7.78499 17.4362 7.56104 17.4362Z"
		fill="currentColor"
	/>
</svg>
