<svg
	color="rgb(var(--foreground, 0, 0, 0))"
	viewBox="0 0 22 24"
	fill="none"
	xmlns="http://www.w3.org/2000/svg"
>
	<path
		d="M8.35798 6.45326H20.9127C21.0793 6.45326 21.22 6.39597 21.3345 6.28139C21.4491 6.1668 21.5064 6.02618 21.5064 5.85951C21.5064 5.69805 21.4491 5.56003 21.3345 5.44545C21.22 5.33087 21.0793 5.27357 20.9127 5.27357H8.35798C8.19132 5.27357 8.05069 5.33087 7.93611 5.44545C7.82152 5.56003 7.76423 5.69805 7.76423 5.85951C7.76423 6.02618 7.82152 6.1668 7.93611 6.28139C8.05069 6.39597 8.19132 6.45326 8.35798 6.45326ZM8.35798 10.547H20.9127C21.0793 10.547 21.22 10.4897 21.3345 10.3751C21.4491 10.2606 21.5064 10.1199 21.5064 9.95326C21.5064 9.78659 21.4491 9.64857 21.3345 9.5392C21.22 9.42461 21.0793 9.36732 20.9127 9.36732H8.35798C8.19132 9.36732 8.05069 9.42461 7.93611 9.5392C7.82152 9.64857 7.76423 9.78659 7.76423 9.95326C7.76423 10.1199 7.82152 10.2606 7.93611 10.3751C8.05069 10.4897 8.19132 10.547 8.35798 10.547ZM8.35798 14.6408H20.9127C21.0793 14.6408 21.22 14.5835 21.3345 14.4689C21.4491 14.3543 21.5064 14.2137 21.5064 14.047C21.5064 13.8803 21.4491 13.7423 21.3345 13.6329C21.22 13.5184 21.0793 13.4611 20.9127 13.4611H8.35798C8.19132 13.4611 8.05069 13.5184 7.93611 13.6329C7.82152 13.7423 7.76423 13.8803 7.76423 14.047C7.76423 14.2137 7.82152 14.3543 7.93611 14.4689C8.05069 14.5835 8.19132 14.6408 8.35798 14.6408ZM8.35798 18.7267H15.9049C16.0715 18.7267 16.2121 18.6694 16.3267 18.5548C16.4413 18.4454 16.4986 18.3074 16.4986 18.1408C16.4986 17.9741 16.4413 17.8335 16.3267 17.7189C16.2121 17.6043 16.0715 17.547 15.9049 17.547H8.35798C8.19132 17.547 8.05069 17.6043 7.93611 17.7189C7.82152 17.8335 7.76423 17.9741 7.76423 18.1408C7.76423 18.3074 7.82152 18.4454 7.93611 18.5548C8.05069 18.6694 8.19132 18.7267 8.35798 18.7267ZM3.47517 19.1017L5.03767 17.0079C5.19392 16.7996 5.23298 16.5887 5.15486 16.3751C5.08194 16.1616 4.90746 16.0548 4.63142 16.0548H3.52205V7.93764H4.63142C4.90225 7.93764 5.07934 7.83347 5.16267 7.62514C5.246 7.4168 5.20434 7.20326 5.03767 6.98451L3.47517 4.89857C3.371 4.75274 3.23298 4.68243 3.06111 4.68764C2.88923 4.68764 2.75382 4.75795 2.65486 4.89857L1.09236 6.98451C0.9309 7.20326 0.891837 7.4168 0.97517 7.62514C1.0585 7.83347 1.23298 7.93764 1.49861 7.93764H2.6158V16.0548H1.49861C1.23298 16.0548 1.0585 16.159 0.97517 16.3673C0.891837 16.5757 0.9309 16.7892 1.09236 17.0079L2.65486 19.1017C2.75902 19.2423 2.89444 19.3126 3.06111 19.3126C3.23298 19.3126 3.371 19.2423 3.47517 19.1017Z"
		fill="currentColor"
	/>
</svg>
