<svg
	color="rgb(var(--foreground, 0, 0, 0))"
	viewBox="0 0 19 24"
	fill="none"
	xmlns="http://www.w3.org/2000/svg"
>
	<path
		d="M11.3892 19.5703C12.4256 19.5703 13.3996 19.3724 14.311 18.9766C15.2225 18.5807 16.0272 18.0339 16.7251 17.3359C17.423 16.638 17.9699 15.8333 18.3657 14.9219C18.7616 14.0052 18.9595 13.0313 18.9595 12C18.9595 10.9688 18.7589 9.9974 18.3579 9.08594C17.9621 8.16927 17.4152 7.36198 16.7173 6.66406C16.0194 5.96615 15.2121 5.41927 14.2954 5.02344C13.384 4.62761 12.4126 4.42969 11.3813 4.42969C10.3501 4.42969 9.37614 4.62761 8.45947 5.02344C7.54801 5.41927 6.74333 5.96615 6.04541 6.66406C5.3527 7.36198 4.80843 8.16667 4.4126 9.07813C4.01676 9.98959 3.81885 10.9635 3.81885 12C3.81885 13.0313 4.01676 14.0052 4.4126 14.9219C4.80843 15.8333 5.35531 16.638 6.05322 17.3359C6.75114 18.0339 7.55583 18.5807 8.46729 18.9766C9.38395 19.3724 10.3579 19.5703 11.3892 19.5703ZM11.3892 18.2969C10.5142 18.2969 9.69645 18.1354 8.93604 17.8125C8.17562 17.4896 7.50635 17.0417 6.92822 16.4688C6.35531 15.8906 5.90739 15.2214 5.58447 14.4609C5.26156 13.6953 5.1001 12.875 5.1001 12C5.1001 11.125 5.26156 10.3073 5.58447 9.54688C5.90739 8.78125 6.35531 8.11198 6.92822 7.53906C7.50114 6.96094 8.16781 6.51042 8.92822 6.1875C9.68864 5.85938 10.5063 5.69531 11.3813 5.69531C12.2563 5.69531 13.0741 5.85938 13.8345 6.1875C14.6001 6.51042 15.2694 6.96094 15.8423 7.53906C16.4204 8.11198 16.8709 8.78125 17.1938 9.54688C17.522 10.3073 17.6886 11.125 17.6938 12C17.6938 12.875 17.5324 13.6953 17.2095 14.4609C16.8866 15.2214 16.436 15.8906 15.8579 16.4688C15.285 17.0417 14.6157 17.4896 13.8501 17.8125C13.0845 18.1354 12.2642 18.2969 11.3892 18.2969ZM6.09229 16.8906L5.56104 16.125C5.31624 16.2708 5.05062 16.3828 4.76416 16.4609C4.4777 16.5391 4.17562 16.5781 3.85791 16.5781C3.40999 16.5781 3.01676 16.5026 2.67822 16.3516C2.33968 16.2005 2.07666 15.9896 1.88916 15.7188C1.70166 15.4479 1.60791 15.1302 1.60791 14.7656C1.60791 14.2344 1.81364 13.8073 2.2251 13.4844C2.64176 13.1615 3.23551 12.974 4.00635 12.9219L4.57666 12.8828L4.34229 11.75L3.83447 11.7969C2.65218 11.901 1.74072 12.2057 1.1001 12.7109C0.459473 13.2161 0.13916 13.9063 0.13916 14.7813C0.13916 15.3854 0.282389 15.9141 0.568848 16.3672C0.855306 16.8203 1.25374 17.1745 1.76416 17.4297C2.27458 17.6849 2.86833 17.8125 3.54541 17.8125C4.01937 17.8125 4.4751 17.7318 4.9126 17.5703C5.35531 17.4036 5.74854 17.1771 6.09229 16.8906ZM5.43604 8.58594L6.20947 7.46094C5.71989 7.28906 5.1652 7.20313 4.54541 7.20313C3.96729 7.20313 3.42822 7.28646 2.92822 7.45313C2.42822 7.61979 1.99333 7.85417 1.62354 8.15625C1.25895 8.45313 0.985514 8.79948 0.803223 9.19531C0.745931 9.3099 0.699056 9.42709 0.662598 9.54688C0.631348 9.66146 0.615723 9.76823 0.615723 9.86719C0.615723 10.0651 0.675618 10.224 0.79541 10.3438C0.915202 10.4635 1.06885 10.5234 1.25635 10.5234C1.53239 10.5234 1.73291 10.3984 1.85791 10.1484C2.12354 9.5599 2.4751 9.13542 2.9126 8.875C3.3501 8.60938 3.88395 8.47656 4.51416 8.47656C4.83187 8.47656 5.13916 8.51302 5.43604 8.58594ZM11.8423 18.8672L13.5142 18.8516V9.88281C13.5142 9.11719 13.3605 8.44271 13.0532 7.85938C12.7511 7.27084 12.311 6.79167 11.7329 6.42188C11.16 6.05209 10.4725 5.8125 9.67041 5.70313C9.51937 5.68229 9.36312 5.66667 9.20166 5.65625C9.04541 5.64584 8.88656 5.63802 8.7251 5.63281L7.0376 7.35156C7.19385 7.30469 7.3527 7.26823 7.51416 7.24219C7.68083 7.21094 7.8527 7.1875 8.02979 7.17188C8.20687 7.15625 8.39697 7.14844 8.6001 7.14844C9.58968 7.14844 10.3605 7.40625 10.9126 7.92188C11.4699 8.43229 11.7485 9.14584 11.7485 10.0625V11.2109L7.73291 11.4531C6.56624 11.526 5.61051 11.7813 4.86572 12.2188L5.18604 14.0469C5.34749 13.8125 5.55843 13.6094 5.81885 13.4375C6.08447 13.2656 6.39437 13.1276 6.74854 13.0234C7.10791 12.9193 7.50895 12.8516 7.95166 12.8203L11.7485 12.5703V13.9453C11.7485 14.4193 11.6574 14.8646 11.4751 15.2813C11.298 15.6927 11.048 16.0599 10.7251 16.3828C10.4074 16.7057 10.0298 16.9688 9.59229 17.1719C9.15999 17.3698 8.69124 17.4922 8.18604 17.5391L9.4751 18.6406C9.99072 18.4427 10.4438 18.1797 10.8345 17.8516C11.2303 17.5234 11.5324 17.151 11.7407 16.7344H11.8423V18.8672Z"
		fill="currentColor"
	/>
</svg>
