<svg
	color="rgb(var(--foreground, 0, 0, 0))"
	viewBox="0 0 16 24"
	fill="none"
	xmlns="http://www.w3.org/2000/svg"
>
	<path
		d="M12.5845 11.6836C13.1157 11.6836 13.5845 11.5716 13.9907 11.3477C14.4022 11.1185 14.7225 10.8034 14.9517 10.4023C15.186 10.0013 15.3032 9.53776 15.3032 9.01172C15.3032 8.48568 15.186 8.02214 14.9517 7.62109C14.7225 7.22005 14.4022 6.90755 13.9907 6.68359C13.5845 6.45443 13.1157 6.33984 12.5845 6.33984C12.0688 6.33984 11.6131 6.45443 11.2173 6.68359C10.8215 6.90755 10.5116 7.22005 10.2876 7.62109C10.0636 8.02214 9.95166 8.48568 9.95166 9.01172C9.95166 9.53776 10.0636 10.0013 10.2876 10.4023C10.5116 10.8034 10.8215 11.1185 11.2173 11.3477C11.6131 11.5716 12.0688 11.6836 12.5845 11.6836ZM12.5845 10.6445C12.1678 10.6445 11.8293 10.4935 11.5688 10.1914C11.3084 9.88411 11.1782 9.49089 11.1782 9.01172C11.1782 8.53255 11.3084 8.14193 11.5688 7.83984C11.8293 7.53776 12.1678 7.38672 12.5845 7.38672C13.0272 7.38672 13.384 7.53776 13.6548 7.83984C13.9308 8.14193 14.0688 8.53255 14.0688 9.01172C14.0688 9.49089 13.9308 9.88411 13.6548 10.1914C13.3787 10.4935 13.022 10.6445 12.5845 10.6445ZM1.09229 17.6602C1.30062 17.6602 1.46468 17.5977 1.58447 17.4727C1.70426 17.3477 1.76416 17.181 1.76416 16.9727V8.80859H1.73291L7.35791 17.1367C7.49333 17.3294 7.62093 17.4648 7.74072 17.543C7.86572 17.6211 8.01416 17.6602 8.18604 17.6602C8.4152 17.6602 8.59229 17.5924 8.71729 17.457C8.84229 17.3216 8.90479 17.1341 8.90479 16.8945V7.08203C8.90479 6.86849 8.84489 6.69922 8.7251 6.57422C8.60531 6.44401 8.44124 6.37891 8.23291 6.37891C8.02979 6.37891 7.86833 6.44401 7.74854 6.57422C7.62874 6.69922 7.56885 6.86849 7.56885 7.08203V15.2383H7.6001L1.9751 6.90234C1.83968 6.70443 1.71208 6.56901 1.59229 6.49609C1.47249 6.41797 1.32406 6.37891 1.14697 6.37891C0.928223 6.37891 0.753743 6.44922 0.623535 6.58984C0.493327 6.73047 0.428223 6.91536 0.428223 7.14453V16.9727C0.428223 17.181 0.488118 17.3477 0.60791 17.4727C0.73291 17.5977 0.894368 17.6602 1.09229 17.6602ZM10.7173 13.6367H14.5454C14.7329 13.6367 14.8892 13.582 15.0142 13.4727C15.1444 13.3633 15.2095 13.2122 15.2095 13.0195C15.2095 12.8268 15.1444 12.6732 15.0142 12.5586C14.8892 12.444 14.7329 12.3867 14.5454 12.3867H10.7173C10.5298 12.3867 10.3735 12.444 10.2485 12.5586C10.1287 12.6732 10.0688 12.8268 10.0688 13.0195C10.0688 13.2122 10.1287 13.3633 10.2485 13.4727C10.3735 13.582 10.5298 13.6367 10.7173 13.6367Z"
		fill="currentColor"
	/>
</svg>
