<svg
	color="rgb(var(--foreground, 0, 0, 0))"
	viewBox="0 0 17 24"
	fill="none"
	xmlns="http://www.w3.org/2000/svg"
>
	<path
		d="M5.60938 8.05859H15.9141C16.0911 8.05859 16.2396 7.9987 16.3594 7.87891C16.4844 7.75911 16.5469 7.61068 16.5469 7.43359C16.5469 7.25651 16.4844 7.10807 16.3594 6.98828C16.2396 6.86328 16.0911 6.80078 15.9141 6.80078H5.60938C5.43229 6.80078 5.28125 6.86328 5.15625 6.98828C5.03646 7.10807 4.97656 7.25651 4.97656 7.43359C4.97656 7.61068 5.03646 7.75911 5.15625 7.87891C5.28125 7.9987 5.43229 8.05859 5.60938 8.05859ZM5.60938 12.7852H15.9141C16.0911 12.7852 16.2396 12.7253 16.3594 12.6055C16.4844 12.4805 16.5469 12.3294 16.5469 12.1523C16.5469 11.9753 16.4844 11.8268 16.3594 11.707C16.2396 11.5872 16.0911 11.5273 15.9141 11.5273H5.60938C5.43229 11.5273 5.28125 11.5872 5.15625 11.707C5.03646 11.8268 4.97656 11.9753 4.97656 12.1523C4.97656 12.3294 5.03646 12.4805 5.15625 12.6055C5.28125 12.7253 5.43229 12.7852 5.60938 12.7852ZM5.60938 17.5039H15.9141C16.0911 17.5039 16.2396 17.444 16.3594 17.3242C16.4844 17.2044 16.5469 17.056 16.5469 16.8789C16.5469 16.7018 16.4844 16.5534 16.3594 16.4336C16.2396 16.3086 16.0911 16.2461 15.9141 16.2461H5.60938C5.43229 16.2461 5.28125 16.3086 5.15625 16.4336C5.03646 16.5534 4.97656 16.7018 4.97656 16.8789C4.97656 17.056 5.03646 17.2044 5.15625 17.3242C5.28125 17.444 5.43229 17.5039 5.60938 17.5039ZM2.50781 9.00391C2.65885 9.00391 2.78125 8.96224 2.875 8.87891C2.96875 8.79036 3.01562 8.65755 3.01562 8.48047V5.95703C3.01562 5.79036 2.96094 5.66016 2.85156 5.56641C2.7474 5.46745 2.60938 5.41797 2.4375 5.41797C2.30208 5.41797 2.1849 5.4388 2.08594 5.48047C1.99219 5.52214 1.89583 5.57682 1.79688 5.64453L1.24219 6.02734C1.08073 6.13672 1 6.26172 1 6.40234C1 6.50651 1.03385 6.58984 1.10156 6.65234C1.16927 6.71484 1.2474 6.74609 1.33594 6.74609C1.38802 6.74609 1.43229 6.74089 1.46875 6.73047C1.50521 6.71484 1.55469 6.68359 1.61719 6.63672L1.97656 6.39453H1.99219V8.48047C1.99219 8.65755 2.03906 8.79036 2.13281 8.87891C2.22656 8.96224 2.35156 9.00391 2.50781 9.00391ZM1.25 13.7148H3.25781C3.36719 13.7148 3.45573 13.681 3.52344 13.6133C3.59635 13.5456 3.63281 13.457 3.63281 13.3477C3.63281 13.2279 3.59635 13.1341 3.52344 13.0664C3.45573 12.9987 3.36719 12.9648 3.25781 12.9648H2.14062V12.9414L2.78125 12.4258C3.04688 12.207 3.23698 12.0195 3.35156 11.8633C3.46615 11.7018 3.52344 11.5065 3.52344 11.2773C3.52344 10.9648 3.40104 10.7122 3.15625 10.5195C2.91146 10.3268 2.57812 10.2305 2.15625 10.2305C1.78125 10.2305 1.47135 10.3164 1.22656 10.4883C0.986979 10.6602 0.867188 10.8711 0.867188 11.1211C0.867188 11.3763 1.01042 11.5039 1.29688 11.5039C1.47396 11.5039 1.60938 11.4258 1.70312 11.2695C1.8125 11.0768 1.96875 10.9805 2.17188 10.9805C2.28646 10.9805 2.38021 11.0143 2.45312 11.082C2.52604 11.1497 2.5625 11.2383 2.5625 11.3477C2.5625 11.4414 2.52865 11.5378 2.46094 11.6367C2.39844 11.7305 2.26562 11.8581 2.0625 12.0195L1.03906 12.8633C0.893229 12.9831 0.820312 13.1289 0.820312 13.3008C0.820312 13.4206 0.859375 13.5195 0.9375 13.5977C1.01562 13.6758 1.11979 13.7148 1.25 13.7148ZM2.17188 18.582C2.64062 18.582 3.0026 18.4857 3.25781 18.293C3.51823 18.1003 3.64844 17.8398 3.64844 17.5117C3.64844 17.2982 3.57552 17.1211 3.42969 16.9805C3.28906 16.8398 3.08333 16.7591 2.8125 16.7383V16.7148C3.01042 16.6784 3.17708 16.5951 3.3125 16.4648C3.44792 16.3346 3.51562 16.1549 3.51562 15.9258C3.51562 15.6289 3.38542 15.4023 3.125 15.2461C2.86979 15.0846 2.54948 15.0039 2.16406 15.0039C1.96094 15.0039 1.76042 15.0352 1.5625 15.0977C1.36979 15.1602 1.20833 15.2513 1.07812 15.3711C0.953125 15.4909 0.890625 15.6367 0.890625 15.8086C0.890625 15.918 0.927083 16.0091 1 16.082C1.07292 16.1497 1.16927 16.1836 1.28906 16.1836C1.3724 16.1836 1.4375 16.168 1.48438 16.1367C1.53646 16.1055 1.59115 16.0586 1.64844 15.9961C1.73698 15.8971 1.82031 15.8294 1.89844 15.793C1.98177 15.7565 2.07031 15.7383 2.16406 15.7383C2.28385 15.7383 2.38281 15.7669 2.46094 15.8242C2.54427 15.8815 2.58594 15.9701 2.58594 16.0898C2.58594 16.1992 2.54167 16.2826 2.45312 16.3398C2.36458 16.3919 2.23958 16.418 2.07812 16.418H1.99219C1.7526 16.418 1.63281 16.5299 1.63281 16.7539C1.63281 16.9779 1.7526 17.0898 1.99219 17.0898H2.09375C2.45312 17.0898 2.63281 17.2096 2.63281 17.4492C2.63281 17.5534 2.58854 17.6419 2.5 17.7148C2.41146 17.7826 2.30208 17.8164 2.17188 17.8164C2.03646 17.8164 1.91667 17.7852 1.8125 17.7227C1.71354 17.6549 1.6276 17.5846 1.55469 17.5117C1.50781 17.4701 1.46094 17.4362 1.41406 17.4102C1.36719 17.3789 1.30729 17.3633 1.23438 17.3633C1.10938 17.3633 1.00521 17.3997 0.921875 17.4727C0.84375 17.5404 0.804688 17.6341 0.804688 17.7539C0.804688 18.0195 0.953125 18.2227 1.25 18.3633C1.54688 18.5091 1.85417 18.582 2.17188 18.582Z"
		fill="currentColor"
	/>
</svg>
