<svg
	color="rgb(var(--foreground, 0, 0, 0))"
	viewBox="0 0 25 24"
	fill="none"
	xmlns="http://www.w3.org/2000/svg"
>
	<path
		d="M4.36572 17.7656C4.57926 17.7656 4.75114 17.7031 4.88135 17.5781C5.01156 17.4479 5.07666 17.2734 5.07666 17.0547V7.07031C5.07666 6.8151 5.00374 6.61979 4.85791 6.48438C4.71208 6.34896 4.51676 6.28125 4.27197 6.28125C4.09489 6.28125 3.94385 6.3099 3.81885 6.36719C3.69385 6.41927 3.55062 6.4974 3.38916 6.60156L0.787598 8.28906C0.516764 8.46615 0.381348 8.67969 0.381348 8.92969C0.381348 9.09115 0.433431 9.22396 0.537598 9.32812C0.646973 9.43229 0.787598 9.48438 0.959473 9.48438C1.06364 9.48438 1.14697 9.47135 1.20947 9.44531C1.27718 9.41406 1.34489 9.375 1.4126 9.32812L3.63916 7.92969H3.67041V17.0547C3.67041 17.2734 3.73031 17.4479 3.8501 17.5781C3.9751 17.7031 4.14697 17.7656 4.36572 17.7656ZM7.92822 17.6094H14.4204C14.6183 17.6094 14.7746 17.5521 14.8892 17.4375C15.009 17.3229 15.0688 17.1719 15.0688 16.9844C15.0688 16.7969 15.009 16.6458 14.8892 16.5312C14.7746 16.4115 14.6183 16.3516 14.4204 16.3516H9.21729V16.3125L12.272 13.3203C12.8866 12.7214 13.3683 12.2031 13.7173 11.7656C14.0662 11.3229 14.3136 10.9167 14.4595 10.5469C14.6053 10.1719 14.6782 9.78385 14.6782 9.38281C14.6782 8.78385 14.5168 8.2474 14.1938 7.77344C13.8709 7.29427 13.4282 6.91667 12.8657 6.64062C12.3084 6.35938 11.6782 6.21875 10.9751 6.21875C10.1418 6.21875 9.39958 6.42708 8.74854 6.84375C8.09749 7.26042 7.65218 7.8125 7.4126 8.5C7.32406 8.75 7.27979 8.97656 7.27979 9.17969C7.27979 9.3724 7.33447 9.52865 7.44385 9.64844C7.55322 9.76823 7.70426 9.82812 7.89697 9.82812C8.07926 9.82812 8.21468 9.78385 8.30322 9.69531C8.39697 9.60156 8.4751 9.45833 8.5376 9.26562C8.56885 9.14583 8.60531 9.03125 8.64697 8.92188C8.69385 8.80729 8.74854 8.70052 8.81104 8.60156C9.01937 8.2526 9.30843 7.97656 9.67822 7.77344C10.0532 7.5651 10.4855 7.46094 10.9751 7.46094C11.397 7.46094 11.7798 7.55208 12.1235 7.73438C12.4673 7.91146 12.7407 8.15104 12.9438 8.45312C13.147 8.75521 13.2485 9.09115 13.2485 9.46094C13.2485 9.75781 13.1965 10.0417 13.0923 10.3125C12.9881 10.5781 12.798 10.8802 12.522 11.2188C12.2459 11.5573 11.8501 11.9818 11.3345 12.4922L7.67822 16.1484C7.51676 16.3099 7.40218 16.4505 7.33447 16.5703C7.27197 16.6849 7.24072 16.8125 7.24072 16.9531C7.24072 17.1562 7.30322 17.3177 7.42822 17.4375C7.55322 17.5521 7.71989 17.6094 7.92822 17.6094ZM20.1235 17.7812C20.9204 17.7812 21.6261 17.638 22.2407 17.3516C22.8605 17.0651 23.3475 16.6745 23.7017 16.1797C24.0558 15.6797 24.2329 15.112 24.2329 14.4766C24.2329 13.7057 23.9725 13.0807 23.4517 12.6016C22.9308 12.1224 22.2277 11.8542 21.3423 11.7969V11.7656C22.0819 11.6406 22.6678 11.3438 23.1001 10.875C23.5324 10.4062 23.7485 9.82552 23.7485 9.13281C23.7485 8.57031 23.5897 8.07031 23.272 7.63281C22.9595 7.19531 22.5272 6.85156 21.9751 6.60156C21.423 6.34635 20.7928 6.21875 20.0845 6.21875C19.548 6.21875 19.0506 6.29427 18.5923 6.44531C18.1392 6.59635 17.7433 6.8125 17.4048 7.09375C17.0662 7.36979 16.8058 7.70312 16.6235 8.09375C16.5506 8.23438 16.4959 8.375 16.4595 8.51562C16.4282 8.65625 16.4126 8.80208 16.4126 8.95312C16.4126 9.13542 16.4673 9.28385 16.5767 9.39844C16.6912 9.51302 16.8397 9.57031 17.022 9.57031C17.1991 9.57031 17.3319 9.53125 17.4204 9.45312C17.5142 9.375 17.5897 9.24479 17.647 9.0625C17.7616 8.71875 17.9308 8.42708 18.1548 8.1875C18.3787 7.94792 18.6496 7.76562 18.9673 7.64062C19.285 7.51562 19.6418 7.45312 20.0376 7.45312C20.5063 7.45312 20.9126 7.53125 21.2563 7.6875C21.6001 7.83854 21.8657 8.05469 22.0532 8.33594C22.2407 8.61198 22.3345 8.9375 22.3345 9.3125C22.3345 9.70312 22.2355 10.0443 22.0376 10.3359C21.8397 10.6276 21.561 10.8542 21.2017 11.0156C20.8475 11.1771 20.4386 11.2578 19.9751 11.2578H19.1157C18.9282 11.2578 18.7772 11.3125 18.6626 11.4219C18.5532 11.526 18.4985 11.6667 18.4985 11.8438C18.4985 12.0156 18.5532 12.1563 18.6626 12.2656C18.7772 12.375 18.9282 12.4297 19.1157 12.4297H19.9907C20.8553 12.4297 21.5324 12.6068 22.022 12.9609C22.5116 13.3151 22.7563 13.8177 22.7563 14.4688C22.7563 14.8698 22.6444 15.224 22.4204 15.5312C22.1965 15.8385 21.8866 16.0807 21.4907 16.2578C21.1001 16.4297 20.647 16.5156 20.1313 16.5156C19.6834 16.5156 19.2798 16.4531 18.9204 16.3281C18.561 16.1979 18.2563 16.013 18.0063 15.7734C17.7616 15.5286 17.5819 15.2344 17.4673 14.8906C17.4048 14.724 17.3215 14.6016 17.2173 14.5234C17.1183 14.4401 16.9855 14.3984 16.8188 14.3984C16.6209 14.3984 16.4595 14.4583 16.3345 14.5781C16.2147 14.6979 16.1548 14.8594 16.1548 15.0625C16.1548 15.1979 16.173 15.3307 16.2095 15.4609C16.2459 15.5911 16.3006 15.724 16.3735 15.8594C16.5871 16.2708 16.8761 16.6198 17.2407 16.9062C17.6053 17.1927 18.0298 17.4115 18.5142 17.5625C19.0037 17.7083 19.5402 17.7812 20.1235 17.7812Z"
		fill="currentColor"
	/>
</svg>
