<svg
	color="rgb(var(--foreground, 0, 0, 0))"
	viewBox="0 0 16 24"
	fill="none"
	xmlns="http://www.w3.org/2000/svg"
>
	<path
		d="M12.9616 12.361L7.21943 18.1031C6.71943 18.6031 6.18037 18.9261 5.60224 19.0719C5.02933 19.2229 4.46422 19.2151 3.90693 19.0485C3.35485 18.887 2.86526 18.5901 2.43818 18.1578C2.0111 17.7308 1.71422 17.2412 1.54755 16.6891C1.3861 16.137 1.37828 15.5745 1.52412 15.0016C1.67516 14.4235 1.99808 13.8844 2.49287 13.3844L10.3288 5.55627C10.6257 5.25419 10.959 5.04325 11.3288 4.92346C11.6986 4.80367 12.0658 4.78023 12.4304 4.85315C12.7949 4.92607 13.1205 5.10315 13.4069 5.3844C13.6934 5.67607 13.8731 6.00419 13.946 6.36877C14.0189 6.72815 13.9929 7.09273 13.8679 7.46252C13.7481 7.83232 13.5397 8.16565 13.2429 8.46252L5.58662 16.1188C5.39391 16.3167 5.19339 16.4026 4.98505 16.3766C4.77672 16.3453 4.60485 16.2646 4.46943 16.1344C4.33401 15.999 4.25328 15.8271 4.22724 15.6188C4.2012 15.4104 4.28453 15.2073 4.47724 15.0094L9.8288 9.67346C9.94339 9.55367 10.0033 9.41825 10.0085 9.26721C10.0189 9.11096 9.96682 8.97555 9.85224 8.86096C9.73766 8.75159 9.60224 8.6995 9.44599 8.70471C9.29495 8.70992 9.16214 8.77242 9.04755 8.89221L3.68037 14.2594C3.41474 14.525 3.23766 14.8245 3.14912 15.1578C3.06578 15.4912 3.06318 15.8193 3.1413 16.1422C3.22464 16.4651 3.38349 16.7438 3.61787 16.9781C3.87308 17.2334 4.16214 17.4026 4.48505 17.486C4.80797 17.5641 5.13089 17.5563 5.4538 17.4625C5.78193 17.3688 6.0788 17.1891 6.34443 16.9235L14.0319 9.23596C14.5215 8.74638 14.8444 8.22294 15.0007 7.66565C15.1569 7.10836 15.1621 6.56148 15.0163 6.02502C14.8705 5.48857 14.584 5.0068 14.1569 4.57971C13.7455 4.16825 13.2689 3.88961 12.7272 3.74377C12.1908 3.59273 11.6413 3.59273 11.0788 3.74377C10.5163 3.89482 9.99026 4.21513 9.50068 4.70471L1.62568 12.5875C1.1413 13.0719 0.784534 13.5953 0.555367 14.1578C0.3262 14.7203 0.216825 15.2933 0.227242 15.8766C0.237659 16.4547 0.35745 17.0146 0.586617 17.5563C0.815784 18.0979 1.14912 18.5849 1.58662 19.0172C2.01891 19.4495 2.50589 19.7802 3.04755 20.0094C3.58922 20.2438 4.14912 20.3636 4.72724 20.3688C5.31058 20.3792 5.88349 20.2698 6.44599 20.0406C7.00849 19.8115 7.53193 19.4573 8.0163 18.9781L13.7976 13.1969C13.9121 13.0823 13.9694 12.9391 13.9694 12.7672C13.9694 12.5953 13.9095 12.4547 13.7897 12.3453C13.6804 12.2203 13.5423 12.1656 13.3757 12.1813C13.2142 12.1917 13.0762 12.2516 12.9616 12.361Z"
		fill="currentColor"
	/>
</svg>
