<svg
	color="rgb(var(--foreground, 0, 0, 0))"
	viewBox="0 0 14 24"
	fill="none"
	xmlns="http://www.w3.org/2000/svg"
>
	<path
		d="M0.959473 8.61328C0.959473 9.39974 1.13135 10.0846 1.4751 10.668C1.82406 11.2513 2.31104 11.707 2.93604 12.0352C3.56104 12.3581 4.29281 12.5195 5.13135 12.5195H6.39697V18.5664C6.39697 18.7852 6.45947 18.9596 6.58447 19.0898C6.71468 19.22 6.89176 19.2852 7.11572 19.2852C7.33447 19.2852 7.50895 19.22 7.63916 19.0898C7.77458 18.9596 7.84229 18.7852 7.84229 18.5664V6.16016H9.5376V18.5664C9.5376 18.7852 9.6001 18.9596 9.7251 19.0898C9.85531 19.22 10.0298 19.2852 10.2485 19.2852C10.4725 19.2852 10.6496 19.22 10.7798 19.0898C10.9152 18.9596 10.9829 18.7852 10.9829 18.5664V6.16016H12.3032C12.522 6.16016 12.6965 6.09245 12.8267 5.95703C12.9621 5.82162 13.0298 5.64453 13.0298 5.42578C13.0298 5.20703 12.9621 5.03516 12.8267 4.91016C12.6965 4.77995 12.522 4.71485 12.3032 4.71485H5.09229C4.26416 4.71485 3.5402 4.8763 2.92041 5.19922C2.30062 5.52214 1.81885 5.97787 1.4751 6.56641C1.13135 7.14974 0.959473 7.83203 0.959473 8.61328Z"
		fill="currentColor"
	/>
</svg>
