<svg
	color="rgb(var(--foreground, 0, 0, 0))"
	viewBox="0 0 20 24"
	fill="none"
	xmlns="http://www.w3.org/2000/svg"
>
	<path
		d="M3.69041 14.3945C3.88312 14.5195 4.07322 14.582 4.26072 14.582C4.45343 14.5768 4.61229 14.5143 4.73729 14.3945C4.86229 14.2747 4.92218 14.0977 4.91697 13.8633V10.1602C4.92218 9.92057 4.86229 9.73828 4.73729 9.61328C4.61749 9.48307 4.46385 9.41797 4.27635 9.41797C4.08885 9.41797 3.89354 9.48568 3.69041 9.62109L1.11229 11.3789C0.961244 11.4831 0.859681 11.6159 0.807598 11.7773C0.755515 11.9388 0.75291 12.1029 0.799785 12.2695C0.851869 12.431 0.956035 12.5638 1.11229 12.668L3.69041 14.3945ZM8.4326 19.2852C8.59926 19.2852 8.73729 19.2253 8.84666 19.1055C8.96124 18.9909 9.01854 18.8503 9.01854 18.6836V5.30859C9.01854 5.14193 8.96124 5.0013 8.84666 4.88672C8.73729 4.77214 8.59926 4.71484 8.4326 4.71484C8.26593 4.71484 8.12531 4.77214 8.01072 4.88672C7.89614 5.0013 7.83885 5.14193 7.83885 5.30859V18.6836C7.83885 18.8503 7.89614 18.9909 8.01072 19.1055C8.12531 19.2253 8.26593 19.2852 8.4326 19.2852ZM12.331 19.2852C12.4977 19.2852 12.6357 19.2253 12.7451 19.1055C12.8597 18.9909 12.917 18.8503 12.917 18.6836V5.30859C12.917 5.14193 12.8597 5.0013 12.7451 4.88672C12.6357 4.77214 12.4977 4.71484 12.331 4.71484C12.1644 4.71484 12.0237 4.77214 11.9092 4.88672C11.7946 5.0013 11.7373 5.14193 11.7373 5.30859V18.6836C11.7373 18.8503 11.7946 18.9909 11.9092 19.1055C12.0237 19.2253 12.1644 19.2852 12.331 19.2852ZM17.0654 14.3945L19.6513 12.668C19.8076 12.5638 19.9092 12.431 19.956 12.2695C20.0081 12.1029 20.0081 11.9388 19.956 11.7773C19.904 11.6159 19.8024 11.4831 19.6513 11.3789L17.0654 9.62109C16.7685 9.41797 16.4899 9.36849 16.2295 9.47266C15.9743 9.57161 15.8467 9.80078 15.8467 10.1602V13.8633C15.8467 14.0977 15.9066 14.2773 16.0263 14.4023C16.1513 14.5221 16.3076 14.582 16.4951 14.582C16.6878 14.582 16.8779 14.5195 17.0654 14.3945Z"
		fill="currentColor"
	/>
</svg>
