<svg
	color="rgb(var(--foreground, 0, 0, 0))"
	viewBox="0 0 25 24"
	fill="none"
	xmlns="http://www.w3.org/2000/svg"
>
	<path
		d="M3.25635 15.3086C3.65739 15.3086 4.0402 15.2409 4.40479 15.1055C4.76937 14.9701 5.09489 14.7773 5.38135 14.5273C5.66781 14.2773 5.88916 13.9857 6.04541 13.6523H6.06885V14.668C6.06885 14.8607 6.12874 15.0169 6.24854 15.1367C6.36833 15.2565 6.51937 15.3164 6.70166 15.3164C6.89437 15.3164 7.04801 15.2565 7.1626 15.1367C7.28239 15.0117 7.34229 14.8451 7.34229 14.6367V9.46484C7.34229 8.90234 7.21208 8.41276 6.95166 7.99609C6.69124 7.57943 6.31885 7.25911 5.83447 7.03516C5.35531 6.80599 4.7902 6.69141 4.13916 6.69141C3.40479 6.69141 2.75635 6.83984 2.19385 7.13672C1.63135 7.43359 1.23812 7.82943 1.01416 8.32422C0.972493 8.42318 0.938639 8.51953 0.912598 8.61328C0.886556 8.70182 0.873535 8.78776 0.873535 8.87109C0.873535 9.04297 0.928223 9.18099 1.0376 9.28516C1.15218 9.38932 1.29281 9.44141 1.45947 9.44141C1.58447 9.44141 1.69124 9.41797 1.77979 9.37109C1.87354 9.31901 1.94906 9.23828 2.00635 9.12891C2.2251 8.68099 2.50374 8.35026 2.84229 8.13672C3.18083 7.92318 3.6001 7.81641 4.1001 7.81641C4.70426 7.81641 5.17562 7.97526 5.51416 8.29297C5.8527 8.60547 6.02197 9.03255 6.02197 9.57422V10.2383L3.52979 10.3789C2.54541 10.431 1.7902 10.6732 1.26416 11.1055C0.738118 11.5378 0.475098 12.1133 0.475098 12.832C0.475098 13.3268 0.592285 13.7617 0.82666 14.1367C1.06104 14.5065 1.38656 14.7956 1.80322 15.0039C2.2251 15.207 2.70947 15.3086 3.25635 15.3086ZM3.57666 14.2227C3.05583 14.2227 2.63395 14.0924 2.31104 13.832C1.98812 13.5716 1.82666 13.2279 1.82666 12.8008C1.82666 12.3945 1.98551 12.0638 2.30322 11.8086C2.62093 11.5482 3.08447 11.3997 3.69385 11.3633L6.02197 11.207V12.0273C6.02197 12.4388 5.9126 12.8112 5.69385 13.1445C5.4751 13.4727 5.18083 13.7357 4.81104 13.9336C4.44124 14.1263 4.02979 14.2227 3.57666 14.2227ZM9.52197 15.3086C9.70947 15.3086 9.86312 15.2487 9.98291 15.1289C10.1079 15.0091 10.1704 14.8477 10.1704 14.6445V13.5273H10.1938C10.4491 14.0742 10.8215 14.5091 11.311 14.832C11.8058 15.1497 12.3735 15.3086 13.0142 15.3086C13.7277 15.3086 14.3475 15.1315 14.8735 14.7773C15.4048 14.4232 15.8162 13.9232 16.1079 13.2773C16.4048 12.6315 16.5532 11.8737 16.5532 11.0039C16.5532 10.1289 16.4048 9.36849 16.1079 8.72266C15.8162 8.07682 15.4048 7.57682 14.8735 7.22266C14.3475 6.86849 13.7329 6.69141 13.0298 6.69141C12.3996 6.69141 11.8371 6.85286 11.3423 7.17578C10.8527 7.49349 10.4881 7.92578 10.2485 8.47266H10.2095V4.48047C10.2095 4.26693 10.147 4.09766 10.022 3.97266C9.90218 3.84245 9.74593 3.77734 9.55322 3.77734C9.35531 3.77734 9.19385 3.84245 9.06885 3.97266C8.94906 4.09766 8.88916 4.26693 8.88916 4.48047V14.6445C8.88916 14.8529 8.94645 15.0169 9.06104 15.1367C9.18083 15.2513 9.33447 15.3086 9.52197 15.3086ZM12.7251 14.1758C12.2303 14.1758 11.7928 14.0456 11.4126 13.7852C11.0376 13.5195 10.7433 13.1497 10.5298 12.6758C10.3162 12.2018 10.2095 11.6445 10.2095 11.0039C10.2095 10.3685 10.3162 9.8138 10.5298 9.33984C10.7485 8.86589 11.0454 8.4987 11.4204 8.23828C11.8006 7.97266 12.2355 7.83984 12.7251 7.83984C13.2303 7.83984 13.6678 7.97005 14.0376 8.23047C14.4074 8.48568 14.6912 8.85026 14.8892 9.32422C15.0923 9.79818 15.1938 10.3581 15.1938 11.0039C15.1938 11.6549 15.0923 12.2175 14.8892 12.6914C14.686 13.1654 14.3996 13.5326 14.0298 13.793C13.66 14.0482 13.2251 14.1758 12.7251 14.1758ZM21.3032 15.3086C21.8136 15.3086 22.2902 15.2227 22.7329 15.0508C23.1808 14.8789 23.5662 14.6393 23.8892 14.332C24.2121 14.0247 24.4491 13.6732 24.6001 13.2773C24.6209 13.2096 24.6366 13.1445 24.647 13.082C24.6626 13.0195 24.6704 12.9596 24.6704 12.9023C24.6704 12.7357 24.6157 12.6003 24.5063 12.4961C24.4022 12.3919 24.2668 12.3398 24.1001 12.3398C23.9543 12.3398 23.8345 12.3737 23.7407 12.4414C23.6522 12.5039 23.5636 12.6211 23.4751 12.793C23.272 13.2409 22.9907 13.5846 22.6313 13.8242C22.2772 14.0586 21.8371 14.1758 21.311 14.1758C20.5454 14.1758 19.9308 13.8919 19.4673 13.3242C19.009 12.7565 18.7798 11.9831 18.7798 11.0039C18.7798 10.0352 19.0116 9.26432 19.4751 8.69141C19.9386 8.11849 20.5506 7.83203 21.311 7.83203C21.811 7.83203 22.2407 7.94922 22.6001 8.18359C22.9647 8.41797 23.2511 8.76432 23.4595 9.22266C23.548 9.38411 23.6366 9.4987 23.7251 9.56641C23.8136 9.63411 23.9308 9.66797 24.0767 9.66797C24.2433 9.66797 24.3787 9.61849 24.4829 9.51953C24.5923 9.41536 24.647 9.27734 24.647 9.10547C24.647 9.05859 24.6392 9.00651 24.6235 8.94922C24.6131 8.89193 24.6027 8.83724 24.5923 8.78516C24.4621 8.38932 24.2355 8.03255 23.9126 7.71484C23.5949 7.39714 23.2069 7.14714 22.7485 6.96484C22.2954 6.78255 21.8058 6.69141 21.2798 6.69141C20.5037 6.69141 19.8267 6.87109 19.2485 7.23047C18.6704 7.58464 18.2225 8.08724 17.9048 8.73828C17.5871 9.38411 17.4282 10.1445 17.4282 11.0195C17.4282 11.8945 17.5871 12.6549 17.9048 13.3008C18.2277 13.9414 18.6782 14.4362 19.2563 14.7852C19.8397 15.1341 20.522 15.3086 21.3032 15.3086ZM1.42041 20.2227C1.59749 20.2227 1.75635 20.1784 1.89697 20.0898C2.0376 20.0065 2.14958 19.8945 2.23291 19.7539C2.32145 19.6133 2.36572 19.457 2.36572 19.2852C2.36572 19.0247 2.27197 18.8034 2.08447 18.6211C1.90218 18.4388 1.68083 18.3477 1.42041 18.3477C1.1652 18.3477 0.943848 18.4388 0.756348 18.6211C0.574056 18.8034 0.48291 19.0247 0.48291 19.2852C0.48291 19.5404 0.574056 19.7591 0.756348 19.9414C0.943848 20.1289 1.1652 20.2227 1.42041 20.2227ZM5.14697 20.2227C5.32406 20.2227 5.48291 20.1784 5.62354 20.0898C5.76416 20.0065 5.87614 19.8945 5.95947 19.7539C6.04801 19.6133 6.09229 19.457 6.09229 19.2852C6.09229 19.0247 5.99854 18.8034 5.81104 18.6211C5.62874 18.4388 5.40739 18.3477 5.14697 18.3477C4.89176 18.3477 4.67041 18.4388 4.48291 18.6211C4.30062 18.8034 4.20947 19.0247 4.20947 19.2852C4.20947 19.5404 4.30062 19.7591 4.48291 19.9414C4.67041 20.1289 4.89176 20.2227 5.14697 20.2227ZM8.86572 20.2227C9.0376 20.2227 9.19385 20.1784 9.33447 20.0898C9.48031 20.0065 9.59489 19.8945 9.67822 19.7539C9.76156 19.6133 9.80322 19.457 9.80322 19.2852C9.80322 19.0247 9.71208 18.8034 9.52979 18.6211C9.34749 18.4388 9.12614 18.3477 8.86572 18.3477C8.60531 18.3477 8.38395 18.4388 8.20166 18.6211C8.01937 18.8034 7.92822 19.0247 7.92822 19.2852C7.92822 19.5404 8.01937 19.7591 8.20166 19.9414C8.38395 20.1289 8.60531 20.2227 8.86572 20.2227ZM12.5845 20.2227C12.7563 20.2227 12.9126 20.1784 13.0532 20.0898C13.1991 20.0065 13.3136 19.8945 13.397 19.7539C13.4803 19.6133 13.522 19.457 13.522 19.2852C13.522 19.0247 13.4308 18.8034 13.2485 18.6211C13.0662 18.4388 12.8449 18.3477 12.5845 18.3477C12.3241 18.3477 12.1027 18.4388 11.9204 18.6211C11.7381 18.8034 11.647 19.0247 11.647 19.2852C11.647 19.5404 11.7381 19.7591 11.9204 19.9414C12.1027 20.1289 12.3241 20.2227 12.5845 20.2227ZM16.3032 20.2227C16.4751 20.2227 16.6313 20.1784 16.772 20.0898C16.9178 20.0065 17.0324 19.8945 17.1157 19.7539C17.1991 19.6133 17.2407 19.457 17.2407 19.2852C17.2407 19.0247 17.1496 18.8034 16.9673 18.6211C16.785 18.4388 16.5636 18.3477 16.3032 18.3477C16.048 18.3477 15.8267 18.4388 15.6392 18.6211C15.4569 18.8034 15.3657 19.0247 15.3657 19.2852C15.3657 19.5404 15.4569 19.7591 15.6392 19.9414C15.8267 20.1289 16.048 20.2227 16.3032 20.2227ZM20.022 20.2227C20.1938 20.2227 20.3501 20.1784 20.4907 20.0898C20.6366 20.0065 20.7511 19.8945 20.8345 19.7539C20.9178 19.6133 20.9595 19.457 20.9595 19.2852C20.9595 19.0247 20.8683 18.8034 20.686 18.6211C20.5037 18.4388 20.2824 18.3477 20.022 18.3477C19.7616 18.3477 19.5402 18.4388 19.3579 18.6211C19.1756 18.8034 19.0845 19.0247 19.0845 19.2852C19.0845 19.5404 19.1756 19.7591 19.3579 19.9414C19.5402 20.1289 19.7616 20.2227 20.022 20.2227ZM23.7407 20.2227C23.9126 20.2227 24.0688 20.1784 24.2095 20.0898C24.3553 20.0065 24.4699 19.8945 24.5532 19.7539C24.6366 19.6133 24.6782 19.457 24.6782 19.2852C24.6782 19.0247 24.5871 18.8034 24.4048 18.6211C24.2225 18.4388 24.0011 18.3477 23.7407 18.3477C23.4803 18.3477 23.259 18.4388 23.0767 18.6211C22.8944 18.8034 22.8032 19.0247 22.8032 19.2852C22.8032 19.5404 22.8944 19.7591 23.0767 19.9414C23.259 20.1289 23.4803 20.2227 23.7407 20.2227Z"
		fill="currentColor"
	/>
</svg>
