<svg
	color="rgb(var(--foreground, 0, 0, 0))"
	viewBox="0 0 17 24"
	fill="none"
	xmlns="http://www.w3.org/2000/svg"
>
	<path
		d="M5.82899 8.0971H15.6649C15.8368 8.0971 15.9826 8.0372 16.1024 7.91741C16.2274 7.79762 16.2899 7.64918 16.2899 7.4721C16.2899 7.29502 16.2274 7.14658 16.1024 7.02679C15.9826 6.90179 15.8368 6.83929 15.6649 6.83929H5.82899C5.65191 6.83929 5.50087 6.90179 5.37587 7.02679C5.25608 7.14658 5.19618 7.29502 5.19618 7.4721C5.19618 7.64918 5.25608 7.79762 5.37587 7.91741C5.50087 8.0372 5.65191 8.0971 5.82899 8.0971ZM5.82899 12.8237H15.6649C15.8368 12.8237 15.9826 12.7638 16.1024 12.644C16.2274 12.519 16.2899 12.3679 16.2899 12.1908C16.2899 12.0138 16.2274 11.8653 16.1024 11.7455C15.9826 11.6257 15.8368 11.5658 15.6649 11.5658H5.82899C5.65191 11.5658 5.50087 11.6257 5.37587 11.7455C5.25608 11.8653 5.19618 12.0138 5.19618 12.1908C5.19618 12.3679 5.25608 12.519 5.37587 12.644C5.50087 12.7638 5.65191 12.8237 5.82899 12.8237ZM5.82899 17.5424H15.6649C15.8368 17.5424 15.9826 17.4825 16.1024 17.3627C16.2274 17.2429 16.2899 17.0945 16.2899 16.9174C16.2899 16.7403 16.2274 16.5919 16.1024 16.4721C15.9826 16.3471 15.8368 16.2846 15.6649 16.2846H5.82899C5.65191 16.2846 5.50087 16.3471 5.37587 16.4721C5.25608 16.5919 5.19618 16.7403 5.19618 16.9174C5.19618 17.0945 5.25608 17.2429 5.37587 17.3627C5.50087 17.4825 5.65191 17.5424 5.82899 17.5424ZM1.45399 8.75335L2.12587 8.26116L2.77431 8.75335C2.85243 8.81064 2.92795 8.83408 3.00087 8.82366C3.07378 8.80804 3.12847 8.77158 3.16493 8.71429C3.20139 8.65179 3.20399 8.57627 3.17274 8.48772L2.91493 7.69085L3.57118 7.19866C3.63889 7.14658 3.67535 7.08668 3.68056 7.01897C3.69097 6.94606 3.67274 6.88356 3.62587 6.83147C3.5842 6.77939 3.5217 6.75335 3.43837 6.75335H2.61806L2.34462 5.90179C2.32378 5.82887 2.28212 5.77939 2.21962 5.75335C2.15712 5.72731 2.09201 5.72731 2.02431 5.75335C1.96181 5.77418 1.92014 5.82366 1.89931 5.90179L1.62587 6.75335H0.797743C0.71441 6.75335 0.649306 6.77939 0.602431 6.83147C0.560764 6.88356 0.542535 6.94606 0.547743 7.01897C0.55816 7.08668 0.597222 7.14658 0.664931 7.19866L1.32899 7.69085L1.07118 8.48772C1.03993 8.57627 1.04253 8.65179 1.07899 8.71429C1.11545 8.77158 1.16753 8.80804 1.23524 8.82366C1.30816 8.83408 1.38108 8.81064 1.45399 8.75335ZM1.45399 13.4643L2.12587 12.9721L2.77431 13.4643C2.85243 13.5216 2.92795 13.545 3.00087 13.5346C3.07378 13.519 3.12847 13.4825 3.16493 13.4252C3.20139 13.3627 3.20399 13.2872 3.17274 13.1987L2.91493 12.4018L3.57118 11.9096C3.63889 11.8575 3.67535 11.7976 3.68056 11.7299C3.69097 11.6622 3.67274 11.6023 3.62587 11.5502C3.5842 11.4981 3.5217 11.4721 3.43837 11.4721H2.61806L2.34462 10.6127C2.32378 10.5398 2.28212 10.4903 2.21962 10.4643C2.15712 10.4382 2.09201 10.4382 2.02431 10.4643C1.96181 10.4903 1.92014 10.5398 1.89931 10.6127L1.62587 11.4721H0.797743C0.71441 11.4721 0.649306 11.4981 0.602431 11.5502C0.560764 11.6023 0.542535 11.6622 0.547743 11.7299C0.55816 11.7976 0.597222 11.8575 0.664931 11.9096L1.32899 12.4018L1.07118 13.1987C1.03993 13.2872 1.04253 13.3627 1.07899 13.4252C1.11545 13.4825 1.16753 13.519 1.23524 13.5346C1.30816 13.545 1.38108 13.5216 1.45399 13.4643ZM1.45399 18.1987L2.12587 17.7065L2.77431 18.1987C2.85243 18.256 2.92795 18.2768 3.00087 18.2612C3.07378 18.2507 3.12847 18.2143 3.16493 18.1518C3.20139 18.0945 3.20399 18.0216 3.17274 17.933L2.91493 17.1362L3.57118 16.644C3.63889 16.5919 3.67535 16.532 3.68056 16.4643C3.69097 16.3914 3.67274 16.3315 3.62587 16.2846C3.5842 16.2325 3.5217 16.2065 3.43837 16.2065H2.61806L2.34462 15.3471C2.32378 15.2742 2.28212 15.2247 2.21962 15.1987C2.15712 15.1726 2.09201 15.1726 2.02431 15.1987C1.96181 15.2247 1.92014 15.2742 1.89931 15.3471L1.62587 16.2065H0.797743C0.71441 16.2065 0.649306 16.2325 0.602431 16.2846C0.560764 16.3315 0.542535 16.3914 0.547743 16.4643C0.55816 16.532 0.597222 16.5919 0.664931 16.644L1.32899 17.1362L1.07118 17.933C1.03993 18.0216 1.04253 18.0945 1.07899 18.1518C1.11545 18.2143 1.16753 18.2507 1.23524 18.2612C1.30816 18.2768 1.38108 18.256 1.45399 18.1987Z"
		fill="currentColor"
	/>
</svg>
