<svg
	color="rgb(var(--foreground, 0, 0, 0))"
	viewBox="0 0 14 24"
	fill="none"
	xmlns="http://www.w3.org/2000/svg"
>
	<path
		d="M6.60791 17.7891C7.47249 17.7891 8.22249 17.651 8.85791 17.375C9.49333 17.0938 9.98551 16.7005 10.3345 16.1953C10.6886 15.6849 10.8657 15.0911 10.8657 14.4141C10.8657 13.6016 10.6027 12.9609 10.0767 12.4922C9.55583 12.0234 8.71729 11.6536 7.56104 11.3828L6.2876 11.0781C5.49072 10.8854 4.9152 10.6562 4.56104 10.3906C4.20687 10.125 4.02979 9.77604 4.02979 9.34375C4.02979 8.97917 4.13916 8.65625 4.35791 8.375C4.58187 8.09375 4.88656 7.875 5.27197 7.71875C5.65739 7.55729 6.1001 7.47656 6.6001 7.47656C7.04801 7.47656 7.44906 7.54167 7.80322 7.67188C8.1626 7.80208 8.46729 7.99479 8.71729 8.25C8.96729 8.5 9.15739 8.80469 9.2876 9.16406C9.4126 9.45573 9.62093 9.60156 9.9126 9.60156C10.1157 9.60156 10.2746 9.54688 10.3892 9.4375C10.509 9.32292 10.5688 9.16927 10.5688 8.97656C10.5688 8.91927 10.5636 8.86198 10.5532 8.80469C10.548 8.74219 10.5376 8.67969 10.522 8.61719C10.4022 8.14323 10.16 7.72656 9.79541 7.36719C9.43083 7.00781 8.97249 6.72656 8.42041 6.52344C7.87354 6.3151 7.26676 6.21094 6.6001 6.21094C5.81364 6.21094 5.11572 6.34896 4.50635 6.625C3.89697 6.90104 3.41781 7.28385 3.06885 7.77344C2.7251 8.25781 2.55322 8.8151 2.55322 9.44531C2.55322 10.2161 2.80322 10.8359 3.30322 11.3047C3.80322 11.7734 4.58447 12.1328 5.64697 12.3828L7.08447 12.7266C7.89697 12.9245 8.48291 13.1667 8.84229 13.4531C9.20687 13.7396 9.38916 14.1172 9.38916 14.5859C9.38916 14.9609 9.26937 15.2943 9.02979 15.5859C8.79541 15.8776 8.46729 16.1094 8.04541 16.2812C7.62874 16.4479 7.14958 16.5312 6.60791 16.5312C6.12354 16.5312 5.68604 16.4609 5.29541 16.3203C4.90479 16.1797 4.57145 15.9766 4.29541 15.7109C4.01937 15.4453 3.81364 15.1276 3.67822 14.7578C3.60531 14.5859 3.51937 14.4635 3.42041 14.3906C3.32666 14.3125 3.19906 14.2734 3.0376 14.2734C2.82926 14.2734 2.6626 14.3333 2.5376 14.4531C2.41781 14.5729 2.35791 14.7344 2.35791 14.9375C2.35791 15.0885 2.37874 15.2344 2.42041 15.375C2.55583 15.8698 2.81885 16.2969 3.20947 16.6562C3.6001 17.0156 4.08447 17.2943 4.6626 17.4922C5.24593 17.6901 5.89437 17.7891 6.60791 17.7891ZM0.48291 12.2109H12.7407C12.8293 12.2109 12.9048 12.1797 12.9673 12.1172C13.0298 12.0547 13.061 11.9792 13.061 11.8906C13.061 11.8021 13.0298 11.7266 12.9673 11.6641C12.9048 11.6016 12.8293 11.5703 12.7407 11.5703H0.48291C0.394368 11.5703 0.318848 11.6016 0.256348 11.6641C0.193848 11.7266 0.162598 11.8021 0.162598 11.8906C0.162598 11.9792 0.193848 12.0547 0.256348 12.1172C0.318848 12.1797 0.394368 12.2109 0.48291 12.2109Z"
		fill="currentColor"
	/>
</svg>
