<svg
	color="rgb(var(--foreground, 0, 0, 0))"
	viewBox="0 0 15 24"
	fill="none"
	xmlns="http://www.w3.org/2000/svg"
>
	<path
		d="M14.3032 18.7578C14.4803 18.7578 14.6209 18.7057 14.7251 18.6016C14.8293 18.4974 14.8813 18.3646 14.8813 18.2031V12.8594C14.8813 12.6667 14.8241 12.5156 14.7095 12.4062C14.6001 12.2917 14.4491 12.2344 14.2563 12.2344C14.0845 12.2344 13.9465 12.263 13.8423 12.3203C13.7381 12.3776 13.6287 12.4453 13.5142 12.5234L12.2642 13.375C12.1548 13.4531 12.0741 13.5286 12.022 13.6016C11.9751 13.6693 11.9517 13.7474 11.9517 13.8359C11.9517 13.9661 11.9933 14.0755 12.0767 14.1641C12.1652 14.2474 12.2694 14.2891 12.3892 14.2891C12.4673 14.2891 12.535 14.2786 12.5923 14.2578C12.6548 14.2318 12.7251 14.1901 12.8032 14.1328L13.7095 13.5234H13.7329V18.2031C13.7329 18.3646 13.785 18.4974 13.8892 18.6016C13.9985 18.7057 14.1366 18.7578 14.3032 18.7578ZM1.64697 16.7812C1.85531 16.7812 2.01676 16.737 2.13135 16.6484C2.24593 16.5599 2.33968 16.4062 2.4126 16.1875L3.42041 13.4297H8.02979L9.0376 16.1875C9.11051 16.4062 9.20426 16.5599 9.31885 16.6484C9.43343 16.737 9.59229 16.7812 9.79541 16.7812C10.0037 16.7812 10.1678 16.724 10.2876 16.6094C10.4126 16.4948 10.4751 16.3385 10.4751 16.1406C10.4751 16.0208 10.4465 15.8802 10.3892 15.7188L6.7251 5.96094C6.63135 5.72135 6.50374 5.54167 6.34229 5.42188C6.18083 5.30208 5.9751 5.24219 5.7251 5.24219C5.24072 5.24219 4.9126 5.47917 4.74072 5.95312L1.07666 15.7266C1.01937 15.888 0.990723 16.0286 0.990723 16.1484C0.990723 16.3464 1.04801 16.5026 1.1626 16.6172C1.28239 16.7266 1.44385 16.7812 1.64697 16.7812ZM3.80322 12.2422L5.70166 6.98438H5.74072L7.63916 12.2422H3.80322Z"
		fill="currentColor"
	/>
</svg>
