<svg
	color="rgb(var(--foreground, 0, 0, 0))"
	viewBox="0 0 12 24"
	fill="none"
	xmlns="http://www.w3.org/2000/svg"
>
	<path
		d="M11.4204 12.0195C11.5923 12.0195 11.7303 11.9674 11.8345 11.8633C11.9386 11.7591 11.9907 11.6263 11.9907 11.4648V6.12109C11.9907 5.92318 11.936 5.76953 11.8267 5.66016C11.7173 5.54557 11.5662 5.48828 11.3735 5.48828C11.2017 5.48828 11.0636 5.51693 10.9595 5.57422C10.8553 5.63151 10.7459 5.69922 10.6313 5.77734L9.38135 6.63672C9.26676 6.70964 9.18604 6.78255 9.13916 6.85547C9.09229 6.92839 9.06885 7.00651 9.06885 7.08984C9.06885 7.22005 9.11051 7.32943 9.19385 7.41797C9.27718 7.50651 9.38135 7.55078 9.50635 7.55078C9.58447 7.55078 9.65218 7.53776 9.70947 7.51172C9.76676 7.48568 9.83447 7.44661 9.9126 7.39453L10.8267 6.78516H10.8501V11.4648C10.8501 11.6263 10.9022 11.7591 11.0063 11.8633C11.1105 11.9674 11.2485 12.0195 11.4204 12.0195ZM1.00635 18.5117C1.21468 18.5117 1.37614 18.4674 1.49072 18.3789C1.60531 18.2904 1.69906 18.1367 1.77197 17.918L2.77979 15.1602H7.38916L8.39697 17.918C8.46989 18.1367 8.56364 18.2904 8.67822 18.3789C8.79281 18.4674 8.95166 18.5117 9.15479 18.5117C9.36312 18.5117 9.52718 18.4544 9.64697 18.3398C9.77197 18.2253 9.83447 18.069 9.83447 17.8711C9.83447 17.7513 9.80583 17.6107 9.74854 17.4492L6.08447 7.69141C5.99072 7.45182 5.86312 7.27214 5.70166 7.15234C5.5402 7.03255 5.33447 6.97266 5.08447 6.97266C4.6001 6.97266 4.27197 7.20964 4.1001 7.68359L0.436035 17.457C0.378743 17.6185 0.350098 17.7591 0.350098 17.8789C0.350098 18.0768 0.407389 18.2331 0.521973 18.3477C0.641764 18.457 0.803223 18.5117 1.00635 18.5117ZM3.1626 13.9727L5.06104 8.71484H5.1001L6.99854 13.9727H3.1626Z"
		fill="currentColor"
	/>
</svg>
