<svg
	color="rgb(var(--foreground, 0, 0, 0))"
	viewBox="0 0 19 24"
	fill="none"
	xmlns="http://www.w3.org/2000/svg"
>
	<path
		d="M0.38916 10.4414H18.1782V9.18359H0.38916V10.4414ZM0.38916 14.8242H18.1782V13.5664H0.38916V14.8242ZM8.61572 18.8398H9.87354V5.16797H8.61572V18.8398ZM2.48291 19.1914H15.9985C16.8215 19.1914 17.436 18.9883 17.8423 18.582C18.2485 18.181 18.4517 17.5794 18.4517 16.7773V7.23047C18.4517 6.42839 18.2485 5.82422 17.8423 5.41797C17.436 5.01172 16.8215 4.80859 15.9985 4.80859H2.48291C1.6652 4.80859 1.05062 5.01172 0.63916 5.41797C0.23291 5.81901 0.0297852 6.42318 0.0297852 7.23047V16.7773C0.0297852 17.5794 0.23291 18.181 0.63916 18.582C1.05062 18.9883 1.6652 19.1914 2.48291 19.1914ZM2.49854 17.9336C2.10791 17.9336 1.80843 17.832 1.6001 17.6289C1.39176 17.4206 1.2876 17.1133 1.2876 16.707V7.30078C1.2876 6.89453 1.39176 6.58724 1.6001 6.37891C1.80843 6.17057 2.10791 6.06641 2.49854 6.06641H15.9829C16.3683 6.06641 16.6652 6.17057 16.8735 6.37891C17.0871 6.58724 17.1938 6.89453 17.1938 7.30078V16.707C17.1938 17.1133 17.0871 17.4206 16.8735 17.6289C16.6652 17.832 16.3683 17.9336 15.9829 17.9336H2.49854Z"
		fill="currentColor"
	/>
</svg>
