<svg
	color="rgb(var(--foreground, 0, 0, 0))"
	viewBox="0 0 31 24"
	fill="none"
	xmlns="http://www.w3.org/2000/svg"
>
	<path
		d="M2.17822 16.375H6.24854C7.04541 16.375 7.73551 16.2448 8.31885 15.9844C8.90218 15.7188 9.3527 15.349 9.67041 14.875C9.98812 14.3958 10.147 13.8333 10.147 13.1875C10.147 12.6771 10.0324 12.224 9.80322 11.8281C9.57926 11.4323 9.26416 11.1146 8.85791 10.875C8.45687 10.6354 7.99072 10.5026 7.45947 10.4766V10.4141C7.89176 10.3516 8.27197 10.2109 8.6001 9.99219C8.92822 9.76823 9.18343 9.48698 9.36572 9.14844C9.54801 8.80469 9.63916 8.42708 9.63916 8.01562C9.63916 7.4375 9.49593 6.9375 9.20947 6.51562C8.92822 6.09375 8.52718 5.77083 8.00635 5.54688C7.48551 5.31771 6.86312 5.20312 6.13916 5.20312H2.17822C1.76156 5.20312 1.43604 5.32031 1.20166 5.55469C0.972493 5.78906 0.85791 6.1224 0.85791 6.55469V15.0312C0.85791 15.4583 0.972493 15.7891 1.20166 16.0234C1.43604 16.2578 1.76156 16.375 2.17822 16.375ZM3.43604 14.5703V11.4688H5.39697C6.08447 11.4688 6.61051 11.599 6.9751 11.8594C7.34489 12.1198 7.52979 12.5 7.52979 13C7.52979 13.5104 7.3501 13.901 6.99072 14.1719C6.63656 14.4375 6.12354 14.5703 5.45166 14.5703H3.43604ZM3.43604 9.84375V7.03906H5.35791C5.90479 7.03906 6.33187 7.15885 6.63916 7.39844C6.94645 7.63802 7.1001 7.97135 7.1001 8.39844C7.1001 8.85156 6.92822 9.20573 6.58447 9.46094C6.24593 9.71615 5.77197 9.84375 5.1626 9.84375H3.43604ZM11.9282 16.375H16.8657C17.048 16.375 17.1965 16.3229 17.311 16.2188C17.4308 16.1094 17.4907 15.9635 17.4907 15.7812C17.4907 15.6042 17.4334 15.4635 17.3188 15.3594C17.2043 15.2552 17.0558 15.2031 16.8735 15.2031H15.1157L17.0142 6.375H18.7642C18.9465 6.375 19.0949 6.32292 19.2095 6.21875C19.3293 6.10938 19.3892 5.96354 19.3892 5.78125C19.3892 5.60417 19.3319 5.46354 19.2173 5.35938C19.1027 5.25521 18.9543 5.20312 18.772 5.20312H13.8188C13.6366 5.20312 13.4881 5.25521 13.3735 5.35938C13.259 5.46354 13.2017 5.60417 13.2017 5.78125C13.2017 5.96354 13.259 6.10938 13.3735 6.21875C13.4933 6.32292 13.6444 6.375 13.8267 6.375H15.5688L13.6704 15.2031H11.9204C11.7329 15.2031 11.5819 15.2552 11.4673 15.3594C11.3527 15.4635 11.2954 15.6042 11.2954 15.7812C11.2954 15.9635 11.3527 16.1094 11.4673 16.2188C11.5871 16.3229 11.7407 16.375 11.9282 16.375ZM26.2407 16.5781C27.1834 16.5781 27.9933 16.4036 28.6704 16.0547C29.3527 15.7005 29.8761 15.2135 30.2407 14.5938C30.6105 13.974 30.7954 13.2552 30.7954 12.4375V5.74219C30.7954 5.52344 30.7277 5.34896 30.5923 5.21875C30.4621 5.08854 30.2876 5.02344 30.0688 5.02344C29.8449 5.02344 29.6678 5.08854 29.5376 5.21875C29.4126 5.34896 29.3501 5.52344 29.3501 5.74219V12.3203C29.3501 13.1901 29.0767 13.8958 28.5298 14.4375C27.9881 14.974 27.2251 15.2422 26.2407 15.2422C25.5897 15.2422 25.0324 15.1198 24.5688 14.875C24.1105 14.6302 23.7563 14.2891 23.5063 13.8516C23.2616 13.4089 23.1392 12.8984 23.1392 12.3203V5.74219C23.1392 5.52344 23.0715 5.34896 22.936 5.21875C22.8058 5.08854 22.6313 5.02344 22.4126 5.02344C22.1938 5.02344 22.0194 5.08854 21.8892 5.21875C21.759 5.34896 21.6938 5.52344 21.6938 5.74219V12.4375C21.6938 13.2552 21.8787 13.974 22.2485 14.5938C22.6183 15.2135 23.1418 15.7005 23.8188 16.0547C24.4959 16.4036 25.3032 16.5781 26.2407 16.5781ZM22.1548 18.9766H30.3267C30.4569 18.9766 30.5662 18.9323 30.6548 18.8438C30.7485 18.7552 30.7954 18.6458 30.7954 18.5156C30.7954 18.3802 30.7485 18.2682 30.6548 18.1797C30.5662 18.0911 30.4569 18.0469 30.3267 18.0469H22.1548C22.035 18.0469 21.9282 18.0911 21.8345 18.1797C21.7407 18.2682 21.6938 18.3802 21.6938 18.5156C21.6938 18.6458 21.7407 18.7552 21.8345 18.8438C21.9282 18.9323 22.035 18.9766 22.1548 18.9766Z"
		fill="currentColor"
	/>
</svg>
