<svg
	color="rgb(var(--foreground, 0, 0, 0))"
	viewBox="0 0 20 24"
	fill="none"
	xmlns="http://www.w3.org/2000/svg"
>
	<path
		d="M3.06885 19.1914H16.5923C17.41 19.1914 18.022 18.9883 18.4282 18.582C18.8397 18.181 19.0454 17.5768 19.0454 16.7695V14.4648C19.0454 14.2617 18.9907 14.1055 18.8813 13.9961C18.772 13.8867 18.6157 13.832 18.4126 13.832C18.2095 13.832 18.0532 13.8867 17.9438 13.9961C17.8397 14.1055 17.7876 14.2617 17.7876 14.4648V16.707C17.7876 17.1133 17.6808 17.4206 17.4673 17.6289C17.259 17.832 16.9621 17.9336 16.5767 17.9336H3.09229C2.70166 17.9336 2.40218 17.832 2.19385 17.6289C1.98551 17.4206 1.88135 17.1133 1.88135 16.707V14.4648C1.88135 14.2617 1.82406 14.1055 1.70947 13.9961C1.6001 13.8867 1.44645 13.832 1.24854 13.832C1.05062 13.832 0.896973 13.8867 0.787598 13.9961C0.678223 14.1055 0.623535 14.2617 0.623535 14.4648V16.7695C0.623535 17.5768 0.82666 18.181 1.23291 18.582C1.64437 18.9883 2.25635 19.1914 3.06885 19.1914ZM3.06885 4.80859C2.25635 4.80859 1.64437 5.01172 1.23291 5.41797C0.82666 5.81901 0.623535 6.42318 0.623535 7.23047V9.14453C0.623535 9.34766 0.678223 9.50651 0.787598 9.62109C0.896973 9.73047 1.05062 9.78516 1.24854 9.78516C1.44645 9.78516 1.6001 9.73047 1.70947 9.62109C1.82406 9.50651 1.88135 9.34766 1.88135 9.14453V7.29297C1.88135 6.88672 1.98551 6.58203 2.19385 6.37891C2.40218 6.17057 2.70166 6.06641 3.09229 6.06641H16.5767C16.9621 6.06641 17.259 6.17057 17.4673 6.37891C17.6808 6.58203 17.7876 6.88672 17.7876 7.29297V9.14453C17.7876 9.34766 17.8423 9.50651 17.9517 9.62109C18.061 9.73047 18.2147 9.78516 18.4126 9.78516C18.6209 9.78516 18.7772 9.73047 18.8813 9.62109C18.9907 9.50651 19.0454 9.34766 19.0454 9.14453V7.23047C19.0454 6.42318 18.8397 5.81901 18.4282 5.41797C18.022 5.01172 17.41 4.80859 16.5923 4.80859H3.06885ZM1.24854 12.8164C1.52979 12.8164 1.76937 12.7174 1.96729 12.5195C2.1652 12.3164 2.26416 12.0742 2.26416 11.793C2.26416 11.5169 2.1652 11.2799 1.96729 11.082C1.76937 10.8841 1.52979 10.7852 1.24854 10.7852C0.972494 10.7852 0.73291 10.8841 0.529785 11.082C0.331868 11.2799 0.23291 11.5169 0.23291 11.793C0.23291 12.0742 0.331868 12.3164 0.529785 12.5195C0.73291 12.7174 0.972494 12.8164 1.24854 12.8164ZM18.4126 12.8164C18.6938 12.8164 18.9334 12.7174 19.1313 12.5195C19.3293 12.3164 19.4282 12.0742 19.4282 11.793C19.4282 11.5169 19.3293 11.2799 19.1313 11.082C18.9334 10.8841 18.6938 10.7852 18.4126 10.7852C18.1313 10.7852 17.8918 10.8841 17.6938 11.082C17.4959 11.2747 17.397 11.5117 17.397 11.793C17.397 12.0742 17.4959 12.3164 17.6938 12.5195C17.8918 12.7174 18.1313 12.8164 18.4126 12.8164ZM7.26416 15.668C7.40479 15.668 7.52458 15.6315 7.62354 15.5586C7.72249 15.4805 7.80322 15.3503 7.86572 15.168L8.43604 13.5039H11.2251L11.8032 15.168C11.9126 15.5013 12.1131 15.668 12.4048 15.668C12.5767 15.668 12.7147 15.6185 12.8188 15.5195C12.923 15.4154 12.9751 15.2852 12.9751 15.1289C12.9751 15.0195 12.9491 14.8841 12.897 14.7227L10.7017 8.82422C10.5506 8.41276 10.259 8.20703 9.82666 8.20703C9.39958 8.20703 9.11051 8.41276 8.95947 8.82422L6.77197 14.7227C6.71468 14.8841 6.68604 15.0195 6.68604 15.1289C6.68604 15.2904 6.73812 15.4206 6.84229 15.5195C6.94645 15.6185 7.08708 15.668 7.26416 15.668ZM8.74854 12.5664L9.7876 9.54297H9.87354L10.9126 12.5664H8.74854Z"
		fill="currentColor"
	/>
</svg>
