<svg
	color="rgb(var(--foreground, 0, 0, 0))"
	viewBox="0 0 19 24"
	fill="none"
	xmlns="http://www.w3.org/2000/svg"
>
	<path
		d="M9.42041 17.7695C9.62874 17.7695 9.7902 17.7253 9.90479 17.6367C10.0194 17.5482 10.1131 17.3945 10.186 17.1758L11.1938 14.418H15.8032L16.811 17.1758C16.884 17.3945 16.9777 17.5482 17.0923 17.6367C17.2069 17.7253 17.3657 17.7695 17.5688 17.7695C17.7772 17.7695 17.9412 17.7122 18.061 17.5977C18.186 17.4831 18.2485 17.3268 18.2485 17.1289C18.2485 17.0091 18.2199 16.8685 18.1626 16.707L14.4985 6.94922C14.4048 6.70964 14.2772 6.52995 14.1157 6.41016C13.9543 6.29036 13.7485 6.23047 13.4985 6.23047C13.0142 6.23047 12.686 6.46745 12.5142 6.94141L8.8501 16.7148C8.79281 16.8763 8.76416 17.0169 8.76416 17.1367C8.76416 17.3346 8.82145 17.4909 8.93604 17.6055C9.05583 17.7148 9.21729 17.7695 9.42041 17.7695ZM11.5767 13.2305L13.4751 7.97266H13.5142L15.4126 13.2305H11.5767ZM1.1001 17.7461C1.26156 17.7461 1.39437 17.7044 1.49854 17.6211C1.60791 17.5326 1.69385 17.3919 1.75635 17.1992L2.40479 15.2852H5.45947L6.10791 17.1992C6.17041 17.3971 6.25635 17.5378 6.36572 17.6211C6.4751 17.7044 6.61051 17.7461 6.77197 17.7461C6.96989 17.7461 7.12874 17.6914 7.24854 17.582C7.36833 17.4727 7.42822 17.3294 7.42822 17.1523C7.42822 17.0742 7.41781 16.9987 7.39697 16.9258C7.38135 16.8477 7.35791 16.7669 7.32666 16.6836L4.89697 10.2305C4.80843 9.99089 4.68083 9.8112 4.51416 9.69141C4.3527 9.56641 4.15739 9.50391 3.92822 9.50391C3.70426 9.50391 3.51156 9.5638 3.3501 9.68359C3.18864 9.79818 3.06104 9.98047 2.96729 10.2305L0.537598 16.6836C0.506348 16.7565 0.48291 16.8346 0.467285 16.918C0.456868 16.9961 0.45166 17.0742 0.45166 17.1523C0.45166 17.3346 0.508952 17.4805 0.623535 17.5898C0.743327 17.694 0.902181 17.7461 1.1001 17.7461ZM2.74854 14.2695L3.84229 11.0117H4.02197L5.11572 14.2695H2.74854Z"
		fill="currentColor"
	/>
</svg>
