<svg
	color="rgb(var(--foreground, 0, 0, 0))"
	viewBox="0 0 17 24"
	fill="none"
	xmlns="http://www.w3.org/2000/svg"
>
	<path
		d="M1.03418 6.45312H15.5889C15.7555 6.45312 15.8962 6.39583 16.0107 6.28125C16.1305 6.16667 16.1904 6.02604 16.1904 5.85938C16.1904 5.69792 16.1305 5.5599 16.0107 5.44531C15.8962 5.33073 15.7555 5.27344 15.5889 5.27344H1.03418C0.872721 5.27344 0.734701 5.33073 0.620117 5.44531C0.505534 5.5599 0.448242 5.69792 0.448242 5.85938C0.448242 6.02604 0.505534 6.16667 0.620117 6.28125C0.734701 6.39583 0.872721 6.45312 1.03418 6.45312ZM1.43262 11.2188H15.1982C15.5264 11.2188 15.7738 11.138 15.9404 10.9766C16.1071 10.8151 16.1904 10.5703 16.1904 10.2422V9.65625C16.1904 9.33854 16.1071 9.09896 15.9404 8.9375C15.7738 8.77083 15.5264 8.6875 15.1982 8.6875H1.43262C1.10449 8.6875 0.857096 8.77083 0.69043 8.9375C0.528971 9.09896 0.448242 9.33854 0.448242 9.65625V10.2422C0.448242 10.5703 0.528971 10.8151 0.69043 10.9766C0.857096 11.138 1.10449 11.2188 1.43262 11.2188ZM1.43262 15.3125H7.26855C7.59668 15.3125 7.84147 15.2318 8.00293 15.0703C8.1696 14.9089 8.25293 14.6641 8.25293 14.3359V13.75C8.25293 13.4323 8.1696 13.1927 8.00293 13.0312C7.84147 12.8646 7.59668 12.7812 7.26855 12.7812H1.43262C1.10449 12.7812 0.857096 12.8646 0.69043 13.0312C0.528971 13.1927 0.448242 13.4323 0.448242 13.75V14.3359C0.448242 14.6641 0.528971 14.9089 0.69043 15.0703C0.857096 15.2318 1.10449 15.3125 1.43262 15.3125ZM9.90918 14.6406H15.5889C15.7555 14.6406 15.8962 14.5833 16.0107 14.4688C16.1305 14.3542 16.1904 14.2135 16.1904 14.0469C16.1904 13.8802 16.1305 13.7422 16.0107 13.6328C15.8962 13.5182 15.7555 13.4609 15.5889 13.4609H9.90918C9.74251 13.4609 9.60189 13.5182 9.4873 13.6328C9.37793 13.7422 9.32324 13.8802 9.32324 14.0469C9.32324 14.2135 9.37793 14.3542 9.4873 14.4688C9.60189 14.5833 9.74251 14.6406 9.90918 14.6406ZM1.03418 18.7266H15.5889C15.7555 18.7266 15.8962 18.6693 16.0107 18.5547C16.1305 18.4453 16.1904 18.3073 16.1904 18.1406C16.1904 17.974 16.1305 17.8333 16.0107 17.7188C15.8962 17.6042 15.7555 17.5469 15.5889 17.5469H1.03418C0.872721 17.5469 0.734701 17.6042 0.620117 17.7188C0.505534 17.8333 0.448242 17.974 0.448242 18.1406C0.448242 18.3073 0.505534 18.4453 0.620117 18.5547C0.734701 18.6693 0.872721 18.7266 1.03418 18.7266Z"
		fill="currentColor"
	/>
</svg>
