<svg
	color="rgb(var(--foreground, 0, 0, 0))"
	viewBox="0 0 17 24"
	fill="none"
	xmlns="http://www.w3.org/2000/svg"
>
	<path
		d="M5.42969 7.90147H15.5312C15.7083 7.90147 15.8568 7.84158 15.9766 7.72179C16.1016 7.602 16.1641 7.45356 16.1641 7.27647C16.1641 7.09939 16.1016 6.95095 15.9766 6.83116C15.8568 6.70616 15.7083 6.64366 15.5312 6.64366H5.42969C5.2526 6.64366 5.10156 6.70616 4.97656 6.83116C4.85677 6.95095 4.79688 7.09939 4.79688 7.27647C4.79688 7.45356 4.85677 7.602 4.97656 7.72179C5.10156 7.84158 5.2526 7.90147 5.42969 7.90147ZM5.42969 12.628H15.5312C15.7083 12.628 15.8568 12.5681 15.9766 12.4483C16.1016 12.3233 16.1641 12.1723 16.1641 11.9952C16.1641 11.8181 16.1016 11.6697 15.9766 11.5499C15.8568 11.4301 15.7083 11.3702 15.5312 11.3702H5.42969C5.2526 11.3702 5.10156 11.4301 4.97656 11.5499C4.85677 11.6697 4.79688 11.8181 4.79688 11.9952C4.79688 12.1723 4.85677 12.3233 4.97656 12.4483C5.10156 12.5681 5.2526 12.628 5.42969 12.628ZM5.42969 17.3468H15.5312C15.7083 17.3468 15.8568 17.2869 15.9766 17.1671C16.1016 17.0473 16.1641 16.8989 16.1641 16.7218C16.1641 16.5447 16.1016 16.3963 15.9766 16.2765C15.8568 16.1515 15.7083 16.089 15.5312 16.089H5.42969C5.2526 16.089 5.10156 16.1515 4.97656 16.2765C4.85677 16.3963 4.79688 16.5447 4.79688 16.7218C4.79688 16.8989 4.85677 17.0473 4.97656 17.1671C5.10156 17.2869 5.2526 17.3468 5.42969 17.3468ZM1.05469 8.44835L2.44531 7.62022C2.52865 7.56814 2.58333 7.50043 2.60938 7.4171C2.63542 7.32856 2.63281 7.24262 2.60156 7.15929C2.57552 7.07595 2.52344 7.01085 2.44531 6.96397L1.05469 6.12022C0.898438 6.02127 0.752604 5.99522 0.617188 6.0421C0.486979 6.08897 0.421875 6.20616 0.421875 6.39366V8.17491C0.421875 8.35199 0.489583 8.46397 0.625 8.51085C0.760417 8.55772 0.903646 8.53689 1.05469 8.44835ZM1.05469 13.1593L2.44531 12.3312C2.52865 12.2843 2.58333 12.2192 2.60938 12.1358C2.63542 12.0473 2.63281 11.9614 2.60156 11.878C2.57552 11.7895 2.52344 11.7218 2.44531 11.6749L1.05469 10.8312C0.898438 10.7374 0.752604 10.714 0.617188 10.7608C0.486979 10.8025 0.421875 10.9171 0.421875 11.1046V12.8858C0.421875 13.0681 0.489583 13.1827 0.625 13.2296C0.760417 13.2713 0.903646 13.2478 1.05469 13.1593ZM1.05469 17.8937L2.44531 17.0655C2.52865 17.0187 2.58333 16.9536 2.60938 16.8702C2.63542 16.7817 2.63281 16.6957 2.60156 16.6124C2.57552 16.5239 2.52344 16.4562 2.44531 16.4093L1.05469 15.5655C0.898438 15.4718 0.752604 15.4483 0.617188 15.4952C0.486979 15.5369 0.421875 15.6515 0.421875 15.839V17.6202C0.421875 17.7973 0.489583 17.9093 0.625 17.9562C0.760417 18.003 0.903646 17.9822 1.05469 17.8937Z"
		fill="currentColor"
	/>
</svg>
