<svg
	color="rgb(var(--foreground, 0, 0, 0))"
	viewBox="0 0 10 24"
	fill="none"
	xmlns="http://www.w3.org/2000/svg"
>
	<path
		d="M4.60791 16.5898C5.54541 16.5898 6.35531 16.4154 7.0376 16.0664C7.71989 15.7174 8.24333 15.2331 8.60791 14.6133C8.9777 13.9883 9.1626 13.2669 9.1626 12.4492V5.73828C9.1626 5.51953 9.09489 5.34505 8.95947 5.21484C8.82926 5.07943 8.65218 5.01172 8.42822 5.01172C8.20947 5.01172 8.03499 5.07943 7.90479 5.21484C7.77979 5.34505 7.71729 5.51953 7.71729 5.73828V12.332C7.71729 13.2018 7.44385 13.9076 6.89697 14.4492C6.3501 14.9909 5.58708 15.2617 4.60791 15.2617C3.95687 15.2617 3.39958 15.1393 2.93604 14.8945C2.47249 14.6445 2.11833 14.3008 1.87354 13.8633C1.62874 13.4258 1.50635 12.9154 1.50635 12.332V5.73828C1.50635 5.51953 1.43864 5.34505 1.30322 5.21484C1.17301 5.07943 0.995931 5.01172 0.771973 5.01172C0.553223 5.01172 0.378743 5.07943 0.248535 5.21484C0.123535 5.34505 0.0610352 5.51953 0.0610352 5.73828V12.4492C0.0610352 13.2669 0.243327 13.9883 0.60791 14.6133C0.977702 15.2331 1.50114 15.7174 2.17822 16.0664C2.86051 16.4154 3.67041 16.5898 4.60791 16.5898ZM0.521973 18.9883H8.69385C8.82406 18.9883 8.93343 18.944 9.02197 18.8555C9.11572 18.7669 9.1626 18.6576 9.1626 18.5273C9.1626 18.3919 9.11572 18.2799 9.02197 18.1914C8.93343 18.1029 8.82406 18.0586 8.69385 18.0586H0.521973C0.396973 18.0586 0.287598 18.1029 0.193848 18.1914C0.105306 18.2799 0.0610352 18.3919 0.0610352 18.5273C0.0610352 18.6576 0.105306 18.7669 0.193848 18.8555C0.287598 18.944 0.396973 18.9883 0.521973 18.9883Z"
		fill="currentColor"
	/>
</svg>
