<svg
	color="rgb(var(--foreground, 0, 0, 0))"
	viewBox="0 0 16 24"
	fill="none"
	xmlns="http://www.w3.org/2000/svg"
>
	<path
		d="M0.776367 6.45312H9.55762C9.72428 6.45312 9.86491 6.39583 9.97949 6.28125C10.0941 6.16667 10.1514 6.02604 10.1514 5.85938C10.1514 5.69792 10.0941 5.5599 9.97949 5.44531C9.86491 5.33073 9.72428 5.27344 9.55762 5.27344H0.776367C0.614909 5.27344 0.476888 5.33073 0.362305 5.44531C0.247721 5.5599 0.19043 5.69792 0.19043 5.85938C0.19043 6.02604 0.247721 6.16667 0.362305 6.28125C0.476888 6.39583 0.614909 6.45312 0.776367 6.45312ZM11.8936 6.45312H15.3311C15.4977 6.45312 15.6383 6.39583 15.7529 6.28125C15.8727 6.16667 15.9326 6.02604 15.9326 5.85938C15.9326 5.69792 15.8727 5.5599 15.7529 5.44531C15.6383 5.33073 15.4977 5.27344 15.3311 5.27344H11.8936C11.7321 5.27344 11.5941 5.33073 11.4795 5.44531C11.3649 5.5599 11.3076 5.69792 11.3076 5.85938C11.3076 6.02604 11.3649 6.16667 11.4795 6.28125C11.5941 6.39583 11.7321 6.45312 11.8936 6.45312ZM0.78418 10.5469H2.43262C2.59928 10.5469 2.73991 10.4896 2.85449 10.375C2.96908 10.2604 3.02637 10.1198 3.02637 9.95312C3.02637 9.78646 2.96908 9.64844 2.85449 9.53906C2.73991 9.42448 2.59928 9.36719 2.43262 9.36719H0.78418C0.622721 9.36719 0.482096 9.42448 0.362305 9.53906C0.247721 9.64844 0.19043 9.78646 0.19043 9.95312C0.19043 10.1198 0.247721 10.2604 0.362305 10.375C0.482096 10.4896 0.622721 10.5469 0.78418 10.5469ZM4.77637 10.5469H8.88574C9.05241 10.5469 9.19303 10.4896 9.30762 10.375C9.4222 10.2604 9.47949 10.1198 9.47949 9.95312C9.47949 9.78646 9.4222 9.64844 9.30762 9.53906C9.19303 9.42448 9.05241 9.36719 8.88574 9.36719H4.77637C4.6097 9.36719 4.46908 9.42448 4.35449 9.53906C4.23991 9.64844 4.18262 9.78646 4.18262 9.95312C4.18262 10.1198 4.23991 10.2604 4.35449 10.375C4.46908 10.4896 4.6097 10.5469 4.77637 10.5469ZM11.2295 10.5469H15.3389C15.5055 10.5469 15.6462 10.4896 15.7607 10.375C15.8753 10.2604 15.9326 10.1198 15.9326 9.95312C15.9326 9.78646 15.8753 9.64844 15.7607 9.53906C15.6462 9.42448 15.5055 9.36719 15.3389 9.36719H11.2295C11.0628 9.36719 10.9196 9.42448 10.7998 9.53906C10.6852 9.64844 10.6279 9.78646 10.6279 9.95312C10.6279 10.1198 10.6852 10.2604 10.7998 10.375C10.9196 10.4896 11.0628 10.5469 11.2295 10.5469ZM0.78418 14.6406H4.22168C4.38835 14.6406 4.52897 14.5833 4.64355 14.4688C4.75814 14.3542 4.81543 14.2135 4.81543 14.0469C4.81543 13.8802 4.75814 13.7422 4.64355 13.6328C4.52897 13.5182 4.38835 13.4609 4.22168 13.4609H0.78418C0.622721 13.4609 0.482096 13.5182 0.362305 13.6328C0.247721 13.7422 0.19043 13.8802 0.19043 14.0469C0.19043 14.2135 0.247721 14.3542 0.362305 14.4688C0.482096 14.5833 0.622721 14.6406 0.78418 14.6406ZM6.56543 14.6406H15.3389C15.5055 14.6406 15.6462 14.5833 15.7607 14.4688C15.8753 14.3542 15.9326 14.2135 15.9326 14.0469C15.9326 13.8802 15.8753 13.7422 15.7607 13.6328C15.6462 13.5182 15.5055 13.4609 15.3389 13.4609H6.56543C6.39876 13.4609 6.25553 13.5182 6.13574 13.6328C6.02116 13.7422 5.96387 13.8802 5.96387 14.0469C5.96387 14.2135 6.02116 14.3542 6.13574 14.4688C6.25553 14.5833 6.39876 14.6406 6.56543 14.6406ZM0.776367 18.7266H9.13574C9.2972 18.7266 9.43522 18.6693 9.5498 18.5547C9.6696 18.4453 9.72949 18.3073 9.72949 18.1406C9.72949 17.974 9.6696 17.8333 9.5498 17.7188C9.43522 17.6042 9.2972 17.5469 9.13574 17.5469H0.776367C0.614909 17.5469 0.476888 17.6042 0.362305 17.7188C0.247721 17.8333 0.19043 17.974 0.19043 18.1406C0.19043 18.3073 0.247721 18.4453 0.362305 18.5547C0.476888 18.6693 0.614909 18.7266 0.776367 18.7266Z"
		fill="currentColor"
	/>
</svg>
