<svg
	color="rgb(var(--foreground, 0, 0, 0))"
	viewBox="0 0 14 24"
	fill="none"
	xmlns="http://www.w3.org/2000/svg"
>
	<path
		d="M1.5 11.8984C1.5 12.9193 1.70833 13.8255 2.125 14.6172C2.54688 15.4089 3.13281 16.0443 3.88281 16.5234C4.63281 16.9974 5.50521 17.276 6.5 17.3594V19.1797H3.60156C3.4349 19.1797 3.29427 19.237 3.17969 19.3516C3.0651 19.4661 3.00781 19.6068 3.00781 19.7734C3.00781 19.9349 3.0651 20.0729 3.17969 20.1875C3.29427 20.3021 3.4349 20.3594 3.60156 20.3594H10.5781C10.7448 20.3594 10.8854 20.3021 11 20.1875C11.1146 20.0729 11.1719 19.9349 11.1719 19.7734C11.1719 19.6068 11.1146 19.4661 11 19.3516C10.8854 19.237 10.7448 19.1797 10.5781 19.1797H7.67969V17.3594C8.1224 17.3281 8.53906 17.2526 8.92969 17.1328C9.32552 17.013 9.69531 16.8568 10.0391 16.6641L9.19531 15.8281C8.89323 15.974 8.5651 16.0859 8.21094 16.1641C7.86198 16.2422 7.48958 16.2812 7.09375 16.2812C6.20312 16.2812 5.42708 16.099 4.76562 15.7344C4.10417 15.3646 3.59115 14.8464 3.22656 14.1797C2.86198 13.513 2.67969 12.737 2.67969 11.8516V10.3125C2.67969 10.151 2.6224 10.013 2.50781 9.89844C2.39323 9.78385 2.2526 9.72656 2.08594 9.72656C1.92448 9.72656 1.78646 9.78385 1.67188 9.89844C1.55729 10.013 1.5 10.151 1.5 10.3125V11.8984ZM11.2266 13.5078L12.1406 14.4219C12.5 13.6667 12.6797 12.8255 12.6797 11.8984V10.3125C12.6797 10.151 12.6224 10.013 12.5078 9.89844C12.3932 9.78385 12.2552 9.72656 12.0938 9.72656C11.9271 9.72656 11.7865 9.78385 11.6719 9.89844C11.5573 10.013 11.5 10.151 11.5 10.3125V11.8516C11.5 12.4453 11.4089 12.9974 11.2266 13.5078ZM7.09375 14.6797C7.375 14.6797 7.64844 14.6354 7.91406 14.5469L6.71875 13.3438C6.67188 13.3698 6.60417 13.3828 6.51562 13.3828C6.28125 13.3359 6.08594 13.2266 5.92969 13.0547C5.77344 12.8828 5.66927 12.6771 5.61719 12.4375L5.60938 12.2422L4.25 10.8828V11.6172C4.25 12.2161 4.36979 12.7474 4.60938 13.2109C4.84896 13.6693 5.18229 14.0286 5.60938 14.2891C6.03646 14.5495 6.53125 14.6797 7.09375 14.6797ZM9.92969 6.70312C9.92969 6.10417 9.8099 5.57552 9.57031 5.11719C9.33073 4.65365 8.9974 4.29167 8.57031 4.03125C8.14323 3.77083 7.65104 3.64062 7.09375 3.64062C6.57812 3.64062 6.11979 3.7526 5.71875 3.97656C5.31771 4.19531 4.99219 4.5026 4.74219 4.89844C4.49219 5.28906 4.33854 5.74479 4.28125 6.26562V6.57812L5.42969 7.71875V6.70312C5.42969 6.125 5.58073 5.66406 5.88281 5.32031C6.1901 4.97656 6.59375 4.80469 7.09375 4.80469C7.59375 4.80469 7.99479 4.97656 8.29688 5.32031C8.59896 5.66406 8.75 6.125 8.75 6.70312V10.8516C8.75 10.8828 8.75 10.9141 8.75 10.9453C8.75 10.9714 8.7474 11 8.74219 11.0312L9.88281 12.1719C9.91406 11.9844 9.92969 11.7995 9.92969 11.6172V6.70312ZM12.8281 18.1328C12.9427 18.2474 13.0833 18.3047 13.25 18.3047C13.4219 18.3047 13.5651 18.2474 13.6797 18.1328C13.7943 18.013 13.8516 17.8698 13.8516 17.7031C13.8516 17.5365 13.7943 17.3958 13.6797 17.2812L1.59375 5.20312C1.47396 5.08854 1.33073 5.03125 1.16406 5.03125C0.997396 5.03125 0.854167 5.08854 0.734375 5.20312C0.619792 5.31771 0.5625 5.46094 0.5625 5.63281C0.5625 5.80469 0.619792 5.94531 0.734375 6.05469L12.8281 18.1328Z"
		fill="currentColor"
	/>
</svg>
