<svg
	color="rgb(var(--foreground, 0, 0, 0))"
	viewBox="0 0 15 24"
	fill="none"
	xmlns="http://www.w3.org/2000/svg"
>
	<path
		d="M1.78906 11.8594C1.78906 12.8802 1.9974 13.7865 2.41406 14.5781C2.83594 15.3698 3.42188 16.0052 4.17188 16.4844C4.92188 16.9583 5.79427 17.237 6.78906 17.3203V19.1406H3.89062C3.72396 19.1406 3.58333 19.1979 3.46875 19.3125C3.35417 19.4271 3.29688 19.5677 3.29688 19.7344C3.29688 19.8958 3.35417 20.0339 3.46875 20.1484C3.58333 20.263 3.72396 20.3203 3.89062 20.3203H10.8672C11.0339 20.3203 11.1745 20.263 11.2891 20.1484C11.4036 20.0339 11.4609 19.8958 11.4609 19.7344C11.4609 19.5677 11.4036 19.4271 11.2891 19.3125C11.1745 19.1979 11.0339 19.1406 10.8672 19.1406H7.96875V17.3203C8.41146 17.2891 8.82812 17.2161 9.21875 17.1016C9.61458 16.9818 9.98177 16.8255 10.3203 16.6328L9.48438 15.7891C9.18229 15.9349 8.85417 16.0469 8.5 16.125C8.15104 16.2031 7.77865 16.2422 7.38281 16.2422C6.49219 16.2422 5.71615 16.0599 5.05469 15.6953C4.39323 15.3255 3.88021 14.8073 3.51562 14.1406C3.15104 13.474 2.96875 12.6979 2.96875 11.8125V10.2734C2.96875 10.112 2.91146 9.97396 2.79688 9.85938C2.68229 9.74479 2.54167 9.6875 2.375 9.6875C2.21354 9.6875 2.07552 9.74479 1.96094 9.85938C1.84635 9.97396 1.78906 10.112 1.78906 10.2734V11.8594ZM11.5156 13.4688L12.4297 14.3828C12.7891 13.6276 12.9688 12.7865 12.9688 11.8594V10.2734C12.9688 10.112 12.9115 9.97396 12.7969 9.85938C12.6823 9.74479 12.5443 9.6875 12.3828 9.6875C12.2161 9.6875 12.0755 9.74479 11.9609 9.85938C11.8464 9.97396 11.7891 10.112 11.7891 10.2734V11.8125C11.7891 12.4062 11.6979 12.9583 11.5156 13.4688ZM7.38281 14.5625C7.65885 14.5625 7.90885 14.5208 8.13281 14.4375L4.77344 11.0781V11.7344C4.77344 12.2917 4.88281 12.7839 5.10156 13.2109C5.32031 13.6328 5.625 13.9635 6.01562 14.2031C6.40625 14.4427 6.86198 14.5625 7.38281 14.5625ZM7.38281 3.67969C7.89844 3.67969 8.35156 3.79948 8.74219 4.03906C9.13802 4.27865 9.44271 4.61198 9.65625 5.03906C9.875 5.46094 9.98438 5.95052 9.98438 6.50781V11.7344C9.98438 11.7656 9.98177 11.7995 9.97656 11.8359C9.97656 11.8672 9.97135 11.8958 9.96094 11.9219L4.77344 6.73438V6.42188C4.78385 5.88021 4.89844 5.40365 5.11719 4.99219C5.34115 4.58073 5.64583 4.26042 6.03125 4.03125C6.41667 3.79688 6.86719 3.67969 7.38281 3.67969ZM13.1172 18.0938C13.2318 18.2083 13.3724 18.2656 13.5391 18.2656C13.7109 18.2656 13.8542 18.2083 13.9688 18.0938C14.0833 17.974 14.1406 17.8307 14.1406 17.6641C14.1406 17.4974 14.0833 17.3568 13.9688 17.2422L1.88281 5.16406C1.76302 5.04948 1.61979 4.99219 1.45312 4.99219C1.28646 4.99219 1.14323 5.04948 1.02344 5.16406C0.908854 5.27865 0.851562 5.42188 0.851562 5.59375C0.851562 5.76562 0.908854 5.90625 1.02344 6.01562L13.1172 18.0938Z"
		fill="currentColor"
	/>
</svg>
