<svg
	color="rgb(var(--foreground, 0, 0, 0))"
	viewBox="0 0 12 24"
	fill="none"
	xmlns="http://www.w3.org/2000/svg"
>
	<path
		d="M0.382812 11.8594C0.382812 12.8802 0.591146 13.7865 1.00781 14.5781C1.42969 15.3698 2.01562 16.0052 2.76562 16.4844C3.51562 16.9583 4.38802 17.237 5.38281 17.3203V19.1406H2.48438C2.31771 19.1406 2.17708 19.1979 2.0625 19.3125C1.94792 19.4271 1.89062 19.5677 1.89062 19.7344C1.89062 19.8958 1.94792 20.0339 2.0625 20.1484C2.17708 20.263 2.31771 20.3203 2.48438 20.3203H9.46094C9.6276 20.3203 9.76823 20.263 9.88281 20.1484C9.9974 20.0339 10.0547 19.8958 10.0547 19.7344C10.0547 19.5677 9.9974 19.4271 9.88281 19.3125C9.76823 19.1979 9.6276 19.1406 9.46094 19.1406H6.5625V17.3203C7.55729 17.237 8.42969 16.9583 9.17969 16.4844C9.92969 16.0052 10.513 15.3698 10.9297 14.5781C11.3516 13.7865 11.5625 12.8802 11.5625 11.8594V10.2734C11.5625 10.112 11.5052 9.97396 11.3906 9.85938C11.276 9.74479 11.138 9.6875 10.9766 9.6875C10.8099 9.6875 10.6693 9.74479 10.5547 9.85938C10.4401 9.97396 10.3828 10.112 10.3828 10.2734V11.8125C10.3828 12.6979 10.2005 13.474 9.83594 14.1406C9.47135 14.8073 8.95833 15.3255 8.29688 15.6953C7.64062 16.0599 6.86719 16.2422 5.97656 16.2422C5.08594 16.2422 4.3099 16.0599 3.64844 15.6953C2.98698 15.3255 2.47396 14.8073 2.10938 14.1406C1.74479 13.474 1.5625 12.6979 1.5625 11.8125V10.2734C1.5625 10.112 1.50521 9.97396 1.39062 9.85938C1.27604 9.74479 1.13542 9.6875 0.96875 9.6875C0.807292 9.6875 0.669271 9.74479 0.554688 9.85938C0.440104 9.97396 0.382812 10.112 0.382812 10.2734V11.8594ZM5.97656 14.5625C6.49219 14.5625 6.94531 14.4427 7.33594 14.2031C7.73177 13.9635 8.03646 13.6328 8.25 13.2109C8.46875 12.7839 8.57812 12.2917 8.57812 11.7344V6.50781C8.57812 5.95052 8.46875 5.46094 8.25 5.03906C8.03646 4.61198 7.73177 4.27865 7.33594 4.03906C6.94531 3.79948 6.49219 3.67969 5.97656 3.67969C5.45573 3.67969 5 3.79948 4.60938 4.03906C4.21875 4.27865 3.91406 4.61198 3.69531 5.03906C3.47656 5.46094 3.36719 5.95052 3.36719 6.50781V11.7344C3.36719 12.2917 3.47656 12.7839 3.69531 13.2109C3.91406 13.6328 4.21875 13.9635 4.60938 14.2031C5 14.4427 5.45573 14.5625 5.97656 14.5625Z"
		fill="currentColor"
	/>
</svg>
