<svg
	color="rgb(var(--foreground, 0, 0, 0))"
	viewBox="0 0 12 24"
	fill="none"
	xmlns="http://www.w3.org/2000/svg"
>
	<path
		d="M0.203125 11.8984C0.203125 12.9193 0.411458 13.8255 0.828125 14.6172C1.25 15.4089 1.83594 16.0443 2.58594 16.5234C3.33594 16.9974 4.20833 17.276 5.20312 17.3594V19.1797H2.30469C2.13802 19.1797 1.9974 19.237 1.88281 19.3516C1.76823 19.4661 1.71094 19.6068 1.71094 19.7734C1.71094 19.9349 1.76823 20.0729 1.88281 20.1875C1.9974 20.3021 2.13802 20.3594 2.30469 20.3594H9.28125C9.44792 20.3594 9.58854 20.3021 9.70312 20.1875C9.81771 20.0729 9.875 19.9349 9.875 19.7734C9.875 19.6068 9.81771 19.4661 9.70312 19.3516C9.58854 19.237 9.44792 19.1797 9.28125 19.1797H6.38281V17.3594C7.3776 17.276 8.25 16.9974 9 16.5234C9.75 16.0443 10.3333 15.4089 10.75 14.6172C11.1719 13.8255 11.3828 12.9193 11.3828 11.8984V10.3125C11.3828 10.151 11.3255 10.013 11.2109 9.89844C11.0964 9.78385 10.9583 9.72656 10.7969 9.72656C10.6302 9.72656 10.4896 9.78385 10.375 9.89844C10.2604 10.013 10.2031 10.151 10.2031 10.3125V11.8516C10.2031 12.737 10.0208 13.513 9.65625 14.1797C9.29167 14.8464 8.77865 15.3646 8.11719 15.7344C7.46094 16.099 6.6875 16.2812 5.79688 16.2812C4.90625 16.2812 4.13021 16.099 3.46875 15.7344C2.80729 15.3646 2.29427 14.8464 1.92969 14.1797C1.5651 13.513 1.38281 12.737 1.38281 11.8516V10.3125C1.38281 10.151 1.32552 10.013 1.21094 9.89844C1.09635 9.78385 0.955729 9.72656 0.789062 9.72656C0.627604 9.72656 0.489583 9.78385 0.375 9.89844C0.260417 10.013 0.203125 10.151 0.203125 10.3125V11.8984ZM2.95312 11.6172C2.95312 12.2161 3.07292 12.7474 3.3125 13.2109C3.55208 13.6693 3.88542 14.0286 4.3125 14.2891C4.73958 14.5495 5.23438 14.6797 5.79688 14.6797C6.35417 14.6797 6.84635 14.5495 7.27344 14.2891C7.70052 14.0286 8.03385 13.6693 8.27344 13.2109C8.51302 12.7474 8.63281 12.2161 8.63281 11.6172V6.70312C8.63281 6.10417 8.51302 5.57552 8.27344 5.11719C8.03385 4.65365 7.70052 4.29167 7.27344 4.03125C6.84635 3.77083 6.35417 3.64062 5.79688 3.64062C5.23438 3.64062 4.73958 3.77083 4.3125 4.03125C3.88542 4.29167 3.55208 4.65365 3.3125 5.11719C3.07292 5.57552 2.95312 6.10417 2.95312 6.70312V11.6172ZM4.13281 11.6172V6.70312C4.13281 6.125 4.28385 5.66406 4.58594 5.32031C4.89323 4.97656 5.29688 4.80469 5.79688 4.80469C6.29688 4.80469 6.69792 4.97656 7 5.32031C7.30208 5.66406 7.45312 6.125 7.45312 6.70312V11.6172C7.45312 12.1953 7.30208 12.6562 7 13C6.69792 13.3438 6.29688 13.5156 5.79688 13.5156C5.29688 13.5156 4.89323 13.3438 4.58594 13C4.28385 12.6562 4.13281 12.1953 4.13281 11.6172Z"
		fill="currentColor"
	/>
</svg>
