<svg
	color="rgb(var(--foreground, 0, 0, 0))"
	viewBox="0 0 16 24"
	fill="none"
	xmlns="http://www.w3.org/2000/svg"
>
	<path
		d="M11.3594 19.6408C12.0417 19.6408 12.6224 19.5418 13.1016 19.3439C13.5807 19.1512 14.0182 18.8309 14.4141 18.383C14.4453 18.3517 14.474 18.3179 14.5 18.2814C14.5312 18.2502 14.5625 18.2189 14.5938 18.1877C14.8281 17.9272 15 17.6694 15.1094 17.4142C15.224 17.1538 15.2812 16.9012 15.2812 16.6564C15.2812 16.3752 15.1979 16.1043 15.0312 15.8439C14.8646 15.5783 14.6068 15.3257 14.2578 15.0861L11.9844 13.508C11.6354 13.2684 11.2656 13.146 10.875 13.1408C10.4896 13.1356 10.1328 13.2944 9.80469 13.6173L9.20312 14.2189C9.11458 14.3074 9.02865 14.3569 8.94531 14.3673C8.86719 14.3778 8.78385 14.3543 8.69531 14.297C8.55469 14.2085 8.375 14.0757 8.15625 13.8986C7.94271 13.7215 7.71875 13.5288 7.48438 13.3205C7.25 13.1069 7.03646 12.9038 6.84375 12.7111C6.64062 12.508 6.44271 12.3022 6.25 12.0939C6.0625 11.8856 5.88802 11.6851 5.72656 11.4923C5.57031 11.2944 5.4401 11.1121 5.33594 10.9455C5.28385 10.8569 5.26302 10.7736 5.27344 10.6955C5.28385 10.6121 5.33333 10.5262 5.42188 10.4377L6.01562 9.83609C6.34375 9.50797 6.50521 9.1512 6.5 8.76578C6.49479 8.37516 6.3724 8.00536 6.13281 7.65641L4.55469 5.38297C4.3099 5.03401 4.05729 4.7788 3.79688 4.61734C3.53646 4.45068 3.26562 4.36474 2.98438 4.35953C2.48958 4.34911 1.97917 4.57828 1.45312 5.04703C1.42188 5.07828 1.38802 5.10953 1.35156 5.14078C1.32031 5.16682 1.28906 5.19286 1.25781 5.21891C0.815104 5.61474 0.494792 6.05224 0.296875 6.53141C0.0989583 7.01057 0 7.5887 0 8.26578C0 9.01057 0.148438 9.79964 0.445312 10.633C0.747396 11.4663 1.1875 12.3179 1.76562 13.1877C2.34896 14.0522 3.0599 14.9038 3.89844 15.7423C4.73698 16.5757 5.58854 17.2814 6.45312 17.8595C7.31771 18.4429 8.16406 18.8856 8.99219 19.1877C9.82552 19.4897 10.6146 19.6408 11.3594 19.6408ZM11.3672 18.4377C10.7057 18.4533 9.99479 18.3074 9.23438 18.0002C8.47396 17.6929 7.71354 17.2736 6.95312 16.7423C6.19271 16.2059 5.47396 15.6017 4.79688 14.9298C4.11979 14.2528 3.50521 13.5262 2.95312 12.7502C2.40625 11.9689 1.97396 11.1929 1.65625 10.422C1.33854 9.64599 1.1849 8.92724 1.19531 8.26578C1.20573 7.83349 1.28646 7.43766 1.4375 7.07828C1.58854 6.7137 1.81771 6.39859 2.125 6.13297C2.15104 6.10693 2.17448 6.08609 2.19531 6.07047C2.22135 6.04964 2.2474 6.0288 2.27344 6.00797C2.38802 5.90901 2.50521 5.83349 2.625 5.78141C2.75 5.72411 2.86979 5.69547 2.98438 5.69547C3.23438 5.69547 3.42708 5.80224 3.5625 6.01578L5.07812 8.28922C5.16146 8.41422 5.20052 8.54182 5.19531 8.67203C5.19531 8.80224 5.13542 8.92724 5.01562 9.04703L4.32812 9.73453C4.05729 10.0002 3.92188 10.2892 3.92188 10.6017C3.92188 10.909 4.02083 11.1929 4.21875 11.4533C4.44271 11.7554 4.72656 12.1017 5.07031 12.4923C5.41406 12.883 5.73698 13.2267 6.03906 13.5236C6.23698 13.7215 6.46354 13.9403 6.71875 14.1798C6.97917 14.4142 7.23698 14.6434 7.49219 14.8673C7.7526 15.0861 7.98438 15.271 8.1875 15.422C8.44792 15.6147 8.73177 15.7137 9.03906 15.7189C9.34635 15.7189 9.63542 15.5835 9.90625 15.3127L10.5938 14.6252C10.7135 14.5002 10.8385 14.4377 10.9688 14.4377C11.099 14.4377 11.2266 14.4767 11.3516 14.5548L13.625 16.0705C13.7396 16.1486 13.8203 16.2371 13.8672 16.3361C13.9193 16.4351 13.9453 16.5418 13.9453 16.6564C13.9453 16.8908 13.8411 17.1278 13.6328 17.3673C13.612 17.3934 13.5911 17.4194 13.5703 17.4455C13.5547 17.4663 13.5339 17.4897 13.5078 17.5158C13.2422 17.8231 12.9271 18.0522 12.5625 18.2033C12.1979 18.3543 11.7995 18.4324 11.3672 18.4377Z"
		fill="currentColor"
	/>
</svg>
