<svg
	color="rgb(var(--foreground, 0, 0, 0))"
	viewBox="0 0 17 24"
	fill="none"
	xmlns="http://www.w3.org/2000/svg"
>
	<path
		d="M12.125 19.668C12.8073 19.668 13.388 19.569 13.8672 19.3711C14.3464 19.1784 14.7839 18.8581 15.1797 18.4102C15.2109 18.3789 15.2396 18.3451 15.2656 18.3086C15.2969 18.2773 15.3281 18.2461 15.3594 18.2148C15.5938 17.9544 15.7656 17.6966 15.875 17.4414C15.9896 17.181 16.0469 16.9284 16.0469 16.6836C16.0469 16.4023 15.9635 16.1315 15.7969 15.8711C15.6302 15.6055 15.3724 15.3529 15.0234 15.1133L12.75 13.5352C12.401 13.2956 12.0312 13.1732 11.6406 13.168C11.2552 13.1628 10.8984 13.3216 10.5703 13.6445L9.96875 14.2461C9.88021 14.3346 9.79427 14.3841 9.71094 14.3945C9.63281 14.4049 9.54688 14.3815 9.45312 14.3242C9.31771 14.2357 9.14062 14.1029 8.92188 13.9258C8.70833 13.7487 8.48438 13.556 8.25 13.3477C8.01562 13.1341 7.80208 12.931 7.60938 12.7383C7.40625 12.5352 7.20833 12.3294 7.01562 12.1211C6.82292 11.9128 6.64844 11.7122 6.49219 11.5195C6.33594 11.3216 6.20573 11.1393 6.10156 10.9727C6.04948 10.8841 6.02865 10.8008 6.03906 10.7227C6.04948 10.6393 6.09896 10.5534 6.1875 10.4648L6.78125 9.86328C7.10938 9.53516 7.27083 9.17839 7.26562 8.79297C7.26042 8.40234 7.13802 8.03255 6.89844 7.68359L5.3125 5.41016C5.07292 5.0612 4.82292 4.80599 4.5625 4.64453C4.30208 4.47786 4.03125 4.39193 3.75 4.38672C3.25 4.3763 2.73958 4.60547 2.21875 5.07422C2.18229 5.10547 2.14844 5.13672 2.11719 5.16797C2.08594 5.19401 2.05208 5.22005 2.01562 5.24609C1.57292 5.64193 1.2526 6.07943 1.05469 6.55859C0.861979 7.03776 0.765625 7.61589 0.765625 8.29297C0.765625 9.03776 0.914062 9.82682 1.21094 10.6602C1.51302 11.4935 1.95312 12.3451 2.53125 13.2148C3.11458 14.0794 3.82552 14.931 4.66406 15.7695C5.4974 16.6029 6.34635 17.3086 7.21094 17.8867C8.07552 18.4701 8.92448 18.9128 9.75781 19.2148C10.5911 19.5169 11.3802 19.668 12.125 19.668ZM12.1328 18.4648C11.4661 18.4805 10.7526 18.3346 9.99219 18.0273C9.23698 17.7201 8.47656 17.3008 7.71094 16.7695C6.95052 16.2331 6.23438 15.6289 5.5625 14.957C4.88542 14.2799 4.27083 13.5534 3.71875 12.7773C3.17188 11.9961 2.73958 11.2201 2.42188 10.4492C2.10417 9.67318 1.95052 8.95443 1.96094 8.29297C1.97135 7.86068 2.05208 7.46484 2.20312 7.10547C2.35417 6.74089 2.58333 6.42578 2.89062 6.16016C2.91667 6.13411 2.9401 6.11328 2.96094 6.09766C2.98698 6.07682 3.01302 6.05599 3.03906 6.03516C3.15365 5.9362 3.27083 5.86068 3.39062 5.80859C3.51562 5.7513 3.63281 5.72266 3.74219 5.72266C3.99219 5.72266 4.1875 5.82943 4.32812 6.04297L5.84375 8.31641C5.92708 8.44141 5.96615 8.56901 5.96094 8.69922C5.96094 8.82943 5.90104 8.95443 5.78125 9.07422L5.09375 9.76172C4.82292 10.0273 4.6875 10.3164 4.6875 10.6289C4.6875 10.9362 4.78646 11.2201 4.98438 11.4805C5.20833 11.7826 5.49219 12.1289 5.83594 12.5195C6.17969 12.9102 6.5 13.2539 6.79688 13.5508C7 13.7487 7.22917 13.9674 7.48438 14.207C7.74479 14.4414 8.0026 14.6706 8.25781 14.8945C8.51823 15.1133 8.7474 15.2982 8.94531 15.4492C9.21094 15.6419 9.4974 15.7409 9.80469 15.7461C10.112 15.7461 10.401 15.6107 10.6719 15.3398L11.3594 14.6523C11.4792 14.5273 11.6042 14.4648 11.7344 14.4648C11.8646 14.4648 11.9896 14.5039 12.1094 14.582L14.3828 16.0977C14.5026 16.1758 14.5859 16.2643 14.6328 16.3633C14.6849 16.4622 14.7109 16.569 14.7109 16.6836C14.7109 16.918 14.6042 17.1549 14.3906 17.3945C14.3698 17.4206 14.349 17.4466 14.3281 17.4727C14.3125 17.4935 14.2943 17.5169 14.2734 17.543C14.0026 17.8503 13.6849 18.0794 13.3203 18.2305C12.9609 18.3815 12.5651 18.4596 12.1328 18.4648ZM10.1719 10.8711C10.3281 10.8711 10.4635 10.8138 10.5781 10.6992L13.9375 7.32422L15.1406 6.02734L15.0078 8.31641V9.48047C15.0078 9.63151 15.0573 9.76172 15.1562 9.87109C15.2604 9.97526 15.3906 10.0299 15.5469 10.0352C15.7031 10.0456 15.8385 9.99609 15.9531 9.88672C16.0677 9.77734 16.125 9.64193 16.125 9.48047V4.95703C16.125 4.7487 16.0729 4.59245 15.9688 4.48828C15.8698 4.38411 15.7161 4.33203 15.5078 4.33203H10.9688C10.8125 4.33203 10.6771 4.38932 10.5625 4.50391C10.4531 4.61849 10.4036 4.75651 10.4141 4.91797C10.4193 5.06901 10.474 5.19661 10.5781 5.30078C10.6875 5.39974 10.8177 5.44922 10.9688 5.44922H12.1562L14.4531 5.32422L13.1406 6.51953L9.77344 9.89453C9.64844 10.0195 9.58594 10.1628 9.58594 10.3242C9.58594 10.4805 9.64062 10.6107 9.75 10.7148C9.86458 10.819 10.0052 10.8711 10.1719 10.8711Z"
		fill="currentColor"
	/>
</svg>
