<svg
	color="rgb(var(--foreground, 0, 0, 0))"
	viewBox="0 0 15 24"
	fill="none"
	xmlns="http://www.w3.org/2000/svg"
>
	<path
		d="M4.08594 15.4023C4.84115 16.1523 5.63542 16.8294 6.46875 17.4336C7.30208 18.0378 8.13542 18.5169 8.96875 18.8711C9.80208 19.2253 10.5911 19.4023 11.3359 19.4023C11.8411 19.4023 12.3125 19.3112 12.75 19.1289C13.1875 18.9466 13.5833 18.6602 13.9375 18.2695C14.1406 18.0404 14.3021 17.793 14.4219 17.5273C14.5469 17.2669 14.6094 17.0039 14.6094 16.7383C14.6094 16.5404 14.5677 16.3529 14.4844 16.1758C14.4062 15.9935 14.2734 15.8372 14.0859 15.707L11.6953 14.0039C11.513 13.8789 11.3438 13.7852 11.1875 13.7227C11.0312 13.6602 10.8828 13.6289 10.7422 13.6289C10.5651 13.6289 10.3932 13.6784 10.2266 13.7773C10.0599 13.8711 9.88802 14.0065 9.71094 14.1836L9.15625 14.7305C9.07292 14.8138 8.97396 14.8555 8.85938 14.8555C8.79688 14.8555 8.73698 14.8451 8.67969 14.8242C8.6276 14.8034 8.58073 14.7852 8.53906 14.7695C8.29948 14.6393 7.98958 14.4154 7.60938 14.0977C7.22917 13.7747 6.84635 13.4206 6.46094 13.0352C6.08073 12.6497 5.72917 12.2669 5.40625 11.8867C5.08333 11.5065 4.85938 11.1966 4.73438 10.957C4.71354 10.9154 4.69271 10.8685 4.67188 10.8164C4.65625 10.7591 4.64844 10.7018 4.64844 10.6445C4.64844 10.5299 4.6875 10.4336 4.76562 10.3555L5.3125 9.78516C5.48958 9.60807 5.625 9.4362 5.71875 9.26953C5.81771 9.10286 5.86719 8.93099 5.86719 8.75391C5.86719 8.61328 5.83594 8.46484 5.77344 8.30859C5.71094 8.15234 5.61458 7.98307 5.48438 7.80078L3.80469 5.43359C3.66927 5.24609 3.50781 5.11068 3.32031 5.02734C3.13281 4.9388 2.9349 4.89453 2.72656 4.89453C2.1849 4.89453 1.68229 5.12109 1.21875 5.57422C0.838542 5.9388 0.559896 6.34245 0.382812 6.78516C0.210938 7.22266 0.125 7.69141 0.125 8.19141C0.125 8.94141 0.296875 9.73047 0.640625 10.5586C0.989583 11.3815 1.46354 12.207 2.0625 13.0352C2.66146 13.8633 3.33594 14.6523 4.08594 15.4023ZM9.03125 11.1367C9.1875 11.1367 9.32292 11.0794 9.4375 10.9648L12.7969 7.58984L14 6.29297L13.8672 8.58203V9.74609C13.8672 9.89714 13.9167 10.0273 14.0156 10.1367C14.1198 10.2409 14.25 10.2956 14.4062 10.3008C14.5625 10.3112 14.6979 10.2617 14.8125 10.1523C14.9271 10.043 14.9844 9.90755 14.9844 9.74609V5.22266C14.9844 5.01432 14.9323 4.85807 14.8281 4.75391C14.7292 4.64974 14.5755 4.59766 14.3672 4.59766H9.82812C9.67188 4.59766 9.53646 4.65495 9.42188 4.76953C9.3125 4.88411 9.26302 5.02214 9.27344 5.18359C9.27865 5.33464 9.33333 5.46224 9.4375 5.56641C9.54688 5.66536 9.67708 5.71484 9.82812 5.71484H11.0156L13.3125 5.58984L12 6.78516L8.63281 10.1602C8.50781 10.2852 8.44531 10.4284 8.44531 10.5898C8.44531 10.7461 8.5 10.8763 8.60938 10.9805C8.72396 11.0846 8.86458 11.1367 9.03125 11.1367Z"
		fill="currentColor"
	/>
</svg>
