<svg
	color="rgb(var(--foreground, 0, 0, 0))"
	viewBox="0 0 17 24"
	fill="none"
	xmlns="http://www.w3.org/2000/svg"
>
	<path
		d="M12.3438 19.668C13.026 19.668 13.6068 19.569 14.0859 19.3711C14.5651 19.1784 15.0026 18.8581 15.3984 18.4102C15.4297 18.3789 15.4583 18.3451 15.4844 18.3086C15.5156 18.2773 15.5469 18.2461 15.5781 18.2148C15.8125 17.9544 15.9844 17.6966 16.0938 17.4414C16.2083 17.181 16.2656 16.9284 16.2656 16.6836C16.2656 16.4023 16.1823 16.1315 16.0156 15.8711C15.849 15.6055 15.5911 15.3529 15.2422 15.1133L12.9688 13.5352C12.6198 13.2956 12.25 13.1732 11.8594 13.168C11.474 13.1628 11.1172 13.3216 10.7891 13.6445L10.1875 14.2461C10.099 14.3346 10.013 14.3841 9.92969 14.3945C9.85156 14.4049 9.76562 14.3815 9.67188 14.3242C9.53646 14.2357 9.35938 14.1029 9.14062 13.9258C8.92708 13.7487 8.70312 13.556 8.46875 13.3477C8.23438 13.1341 8.02083 12.931 7.82812 12.7383C7.625 12.5352 7.42708 12.3294 7.23438 12.1211C7.04167 11.9128 6.86719 11.7122 6.71094 11.5195C6.55469 11.3216 6.42448 11.1393 6.32031 10.9727C6.26823 10.8841 6.2474 10.8008 6.25781 10.7227C6.26823 10.6393 6.31771 10.5534 6.40625 10.4648L7 9.86328C7.32812 9.53516 7.48958 9.17839 7.48438 8.79297C7.47917 8.40234 7.35677 8.03255 7.11719 7.68359L5.53125 5.41016C5.29167 5.0612 5.04167 4.80599 4.78125 4.64453C4.52083 4.47786 4.25 4.39193 3.96875 4.38672C3.46875 4.3763 2.95833 4.60547 2.4375 5.07422C2.40104 5.10547 2.36719 5.13672 2.33594 5.16797C2.30469 5.19401 2.27083 5.22005 2.23438 5.24609C1.79167 5.64193 1.47135 6.07943 1.27344 6.55859C1.08073 7.03776 0.984375 7.61589 0.984375 8.29297C0.984375 9.03776 1.13281 9.82682 1.42969 10.6602C1.73177 11.4935 2.17188 12.3451 2.75 13.2148C3.33333 14.0794 4.04427 14.931 4.88281 15.7695C5.71615 16.6029 6.5651 17.3086 7.42969 17.8867C8.29427 18.4701 9.14323 18.9128 9.97656 19.2148C10.8099 19.5169 11.599 19.668 12.3438 19.668ZM12.3516 18.4648C11.6849 18.4805 10.9714 18.3346 10.2109 18.0273C9.45573 17.7201 8.69531 17.3008 7.92969 16.7695C7.16927 16.2331 6.45312 15.6289 5.78125 14.957C5.10417 14.2799 4.48958 13.5534 3.9375 12.7773C3.39062 11.9961 2.95833 11.2201 2.64062 10.4492C2.32292 9.67318 2.16927 8.95443 2.17969 8.29297C2.1901 7.86068 2.27083 7.46484 2.42188 7.10547C2.57292 6.74089 2.80208 6.42578 3.10938 6.16016C3.13542 6.13411 3.15885 6.11328 3.17969 6.09766C3.20573 6.07682 3.23177 6.05599 3.25781 6.03516C3.3724 5.9362 3.48958 5.86068 3.60938 5.80859C3.73438 5.7513 3.85156 5.72266 3.96094 5.72266C4.21094 5.72266 4.40625 5.82943 4.54688 6.04297L6.0625 8.31641C6.14583 8.44141 6.1849 8.56901 6.17969 8.69922C6.17969 8.82943 6.11979 8.95443 6 9.07422L5.3125 9.76172C5.04167 10.0273 4.90625 10.3164 4.90625 10.6289C4.90625 10.9362 5.00521 11.2201 5.20312 11.4805C5.42708 11.7826 5.71094 12.1289 6.05469 12.5195C6.39844 12.9102 6.71875 13.2539 7.01562 13.5508C7.21875 13.7487 7.44792 13.9674 7.70312 14.207C7.96354 14.4414 8.22135 14.6706 8.47656 14.8945C8.73698 15.1133 8.96615 15.2982 9.16406 15.4492C9.42969 15.6419 9.71615 15.7409 10.0234 15.7461C10.3307 15.7461 10.6198 15.6107 10.8906 15.3398L11.5781 14.6523C11.6979 14.5273 11.8229 14.4648 11.9531 14.4648C12.0833 14.4648 12.2083 14.5039 12.3281 14.582L14.6016 16.0977C14.7214 16.1758 14.8047 16.2643 14.8516 16.3633C14.9036 16.4622 14.9297 16.569 14.9297 16.6836C14.9297 16.918 14.8229 17.1549 14.6094 17.3945C14.5885 17.4206 14.5677 17.4466 14.5469 17.4727C14.5312 17.4935 14.513 17.5169 14.4922 17.543C14.2214 17.8503 13.9036 18.0794 13.5391 18.2305C13.1797 18.3815 12.7839 18.4596 12.3516 18.4648ZM15.7578 4.33203C15.6016 4.33203 15.4661 4.38932 15.3516 4.50391L11.9922 7.87891L10.7891 9.17578L10.9219 6.88672V5.72266C10.9219 5.57161 10.8698 5.44401 10.7656 5.33984C10.6667 5.23047 10.5391 5.17318 10.3828 5.16797C10.2266 5.15755 10.0911 5.20703 9.97656 5.31641C9.86198 5.42578 9.80469 5.5612 9.80469 5.72266V10.2461C9.80469 10.4544 9.85417 10.6107 9.95312 10.7148C10.0573 10.819 10.2135 10.8711 10.4219 10.8711H14.9609C15.1224 10.8711 15.2578 10.8138 15.3672 10.6992C15.4766 10.5846 15.5286 10.4466 15.5234 10.2852C15.513 10.1289 15.4531 10.0013 15.3438 9.90234C15.2396 9.80339 15.112 9.75391 14.9609 9.75391H13.7812L11.4844 9.87891L12.7969 8.68359L16.1562 5.30859C16.2812 5.18359 16.3438 5.04036 16.3438 4.87891C16.3438 4.72266 16.2865 4.59245 16.1719 4.48828C16.0625 4.38411 15.9245 4.33203 15.7578 4.33203Z"
		fill="currentColor"
	/>
</svg>
