<svg
	color="rgb(var(--foreground, 0, 0, 0))"
	viewBox="0 0 15 24"
	fill="none"
	xmlns="http://www.w3.org/2000/svg"
>
	<path
		d="M4.25 15.2539C5 16.0039 5.79167 16.681 6.625 17.2852C7.45833 17.8893 8.29167 18.3685 9.125 18.7227C9.95833 19.0768 10.7474 19.2539 11.4922 19.2539C11.9974 19.2539 12.4688 19.1628 12.9062 18.9805C13.3438 18.7982 13.7396 18.5117 14.0938 18.1211C14.3021 17.8919 14.4661 17.6445 14.5859 17.3789C14.7057 17.1185 14.7656 16.8555 14.7656 16.5898C14.7656 16.3919 14.7266 16.2044 14.6484 16.0273C14.5703 15.8451 14.4375 15.6888 14.25 15.5586L11.8516 13.8555C11.6693 13.7305 11.5 13.6367 11.3438 13.5742C11.1875 13.5117 11.0391 13.4805 10.8984 13.4805C10.7214 13.4805 10.5495 13.5299 10.3828 13.6289C10.2161 13.7227 10.0443 13.8581 9.86719 14.0352L9.3125 14.582C9.23438 14.6654 9.13542 14.707 9.01562 14.707C8.95312 14.707 8.89323 14.6966 8.83594 14.6758C8.78385 14.6549 8.73958 14.6367 8.70312 14.6211C8.45833 14.4909 8.14583 14.2669 7.76562 13.9492C7.38542 13.6263 7.0026 13.2721 6.61719 12.8867C6.23698 12.5013 5.88542 12.1185 5.5625 11.7383C5.23958 11.3581 5.01562 11.0482 4.89062 10.8086C4.86979 10.7669 4.84896 10.7201 4.82812 10.668C4.8125 10.6107 4.80469 10.5534 4.80469 10.4961C4.80469 10.3815 4.84375 10.2852 4.92188 10.207L5.47656 9.63672C5.64844 9.45964 5.78385 9.28776 5.88281 9.12109C5.98177 8.95443 6.03125 8.78255 6.03125 8.60547C6.03125 8.46484 5.9974 8.31641 5.92969 8.16016C5.86719 8.00391 5.77083 7.83464 5.64062 7.65234L3.96094 5.28516C3.82552 5.09766 3.66406 4.96224 3.47656 4.87891C3.28906 4.79036 3.09115 4.74609 2.88281 4.74609C2.34635 4.74609 1.84375 4.97266 1.375 5.42578C0.994792 5.79036 0.716146 6.19401 0.539062 6.63672C0.367188 7.07422 0.28125 7.54297 0.28125 8.04297C0.28125 8.79297 0.455729 9.58203 0.804688 10.4102C1.15365 11.2331 1.6276 12.0586 2.22656 12.8867C2.82552 13.7148 3.5 14.5039 4.25 15.2539Z"
		fill="currentColor"
	/>
</svg>
