<svg
	color="rgb(var(--foreground, 0, 0, 0))"
	viewBox="0 0 16 24"
	fill="none"
	xmlns="http://www.w3.org/2000/svg"
>
	<path
		d="M4.30469 15.4023C5.0599 16.1523 5.85417 16.8294 6.6875 17.4336C7.52083 18.0378 8.35417 18.5169 9.1875 18.8711C10.0208 19.2253 10.8099 19.4023 11.5547 19.4023C12.0599 19.4023 12.5312 19.3112 12.9688 19.1289C13.4062 18.9466 13.8021 18.6602 14.1562 18.2695C14.3594 18.0404 14.5208 17.793 14.6406 17.5273C14.7656 17.2669 14.8281 17.0039 14.8281 16.7383C14.8281 16.5404 14.7865 16.3529 14.7031 16.1758C14.625 15.9935 14.4922 15.8372 14.3047 15.707L11.9141 14.0039C11.7318 13.8789 11.5625 13.7852 11.4062 13.7227C11.25 13.6602 11.1016 13.6289 10.9609 13.6289C10.7839 13.6289 10.612 13.6784 10.4453 13.7773C10.2786 13.8711 10.1068 14.0065 9.92969 14.1836L9.375 14.7305C9.29167 14.8138 9.19271 14.8555 9.07812 14.8555C9.01562 14.8555 8.95573 14.8451 8.89844 14.8242C8.84635 14.8034 8.79948 14.7852 8.75781 14.7695C8.51823 14.6393 8.20833 14.4154 7.82812 14.0977C7.44792 13.7747 7.0651 13.4206 6.67969 13.0352C6.29948 12.6497 5.94792 12.2669 5.625 11.8867C5.30208 11.5065 5.07812 11.1966 4.95312 10.957C4.93229 10.9154 4.91146 10.8685 4.89062 10.8164C4.875 10.7591 4.86719 10.7018 4.86719 10.6445C4.86719 10.5299 4.90625 10.4336 4.98438 10.3555L5.53125 9.78516C5.70833 9.60807 5.84375 9.4362 5.9375 9.26953C6.03646 9.10286 6.08594 8.93099 6.08594 8.75391C6.08594 8.61328 6.05469 8.46484 5.99219 8.30859C5.92969 8.15234 5.83333 7.98307 5.70312 7.80078L4.02344 5.43359C3.88802 5.24609 3.72656 5.11068 3.53906 5.02734C3.35156 4.9388 3.15365 4.89453 2.94531 4.89453C2.40365 4.89453 1.90104 5.12109 1.4375 5.57422C1.05729 5.9388 0.778646 6.34245 0.601562 6.78516C0.429688 7.22266 0.34375 7.69141 0.34375 8.19141C0.34375 8.94141 0.515625 9.73047 0.859375 10.5586C1.20833 11.3815 1.68229 12.207 2.28125 13.0352C2.88021 13.8633 3.55469 14.6523 4.30469 15.4023ZM14.6172 4.59766C14.4609 4.59766 14.3255 4.65495 14.2109 4.76953L10.8516 8.14453L9.64844 9.44141L9.78125 7.15234V5.98828C9.78125 5.83724 9.72917 5.70964 9.625 5.60547C9.52604 5.49609 9.39844 5.4388 9.24219 5.43359C9.08594 5.42318 8.95052 5.47266 8.83594 5.58203C8.72135 5.69141 8.66406 5.82682 8.66406 5.98828V10.5117C8.66406 10.7201 8.71354 10.8763 8.8125 10.9805C8.91667 11.0846 9.07292 11.1367 9.28125 11.1367H13.8203C13.9818 11.1367 14.1172 11.0794 14.2266 10.9648C14.3359 10.8503 14.388 10.7122 14.3828 10.5508C14.3724 10.3945 14.3125 10.2669 14.2031 10.168C14.099 10.069 13.9714 10.0195 13.8203 10.0195H12.6406L10.3438 10.1445L11.6562 8.94922L15.0156 5.57422C15.1406 5.44922 15.2031 5.30599 15.2031 5.14453C15.2031 4.98828 15.1458 4.85807 15.0312 4.75391C14.9219 4.64974 14.7839 4.59766 14.6172 4.59766Z"
		fill="currentColor"
	/>
</svg>
