<svg
	color="rgb(var(--foreground, 0, 0, 0))"
	viewBox="0 0 20 24"
	fill="none"
	xmlns="http://www.w3.org/2000/svg"
>
	<path
		d="M3.94531 16.25C3.71615 16.25 3.53125 16.1797 3.39062 16.0391C3.25 15.8984 3.17969 15.7188 3.17969 15.5V14.0547C3.17969 13.8307 3.25 13.651 3.39062 13.5156C3.53125 13.375 3.71615 13.3047 3.94531 13.3047H5.85938C6.08854 13.3047 6.27344 13.375 6.41406 13.5156C6.55469 13.651 6.625 13.8307 6.625 14.0547V15.5C6.625 15.7188 6.55469 15.8984 6.41406 16.0391C6.27344 16.1797 6.08854 16.25 5.85938 16.25H3.94531ZM0.75 10.25V8.47656H19.1094V10.25H0.75ZM3.20312 18.6719H16.6562C17.474 18.6719 18.0859 18.4688 18.4922 18.0625C18.9036 17.6615 19.1094 17.0599 19.1094 16.2578V7.75C19.1094 6.94792 18.9036 6.34375 18.4922 5.9375C18.0859 5.53125 17.474 5.32812 16.6562 5.32812H3.20312C2.38542 5.32812 1.77083 5.53125 1.35938 5.9375C0.953125 6.33854 0.75 6.94271 0.75 7.75V16.2578C0.75 17.0599 0.953125 17.6615 1.35938 18.0625C1.77083 18.4688 2.38542 18.6719 3.20312 18.6719Z"
		fill="currentColor"
	/>
</svg>
