<svg
	color="rgb(var(--foreground, 0, 0, 0))"
	viewBox="0 0 19 24"
	fill="none"
	xmlns="http://www.w3.org/2000/svg"
>
	<path
		d="M3.89844 15.9375H5.8125C6.04167 15.9375 6.22656 15.8672 6.36719 15.7266C6.50781 15.5859 6.57812 15.4062 6.57812 15.1875V13.7422C6.57812 13.5182 6.50781 13.3385 6.36719 13.2031C6.22656 13.0625 6.04167 12.9922 5.8125 12.9922H3.89844C3.66927 12.9922 3.48438 13.0625 3.34375 13.2031C3.20312 13.3385 3.13281 13.5182 3.13281 13.7422V15.1875C3.13281 15.4062 3.20312 15.5859 3.34375 15.7266C3.48438 15.8672 3.66927 15.9375 3.89844 15.9375ZM1.02344 10.2109H18.125V8.4375H1.02344V10.2109ZM2.84375 18.6719H16.2969C17.1146 18.6719 17.7266 18.4688 18.1328 18.0625C18.5443 17.6615 18.75 17.0599 18.75 16.2578V7.75C18.75 6.94792 18.5443 6.34375 18.1328 5.9375C17.7266 5.53125 17.1146 5.32812 16.2969 5.32812H2.84375C2.02604 5.32812 1.41146 5.53125 1 5.9375C0.59375 6.33854 0.390625 6.94271 0.390625 7.75V16.2578C0.390625 17.0599 0.59375 17.6615 1 18.0625C1.41146 18.4688 2.02604 18.6719 2.84375 18.6719ZM2.85938 17.4141C2.46875 17.4141 2.16927 17.3125 1.96094 17.1094C1.7526 16.901 1.64844 16.5938 1.64844 16.1875V7.82031C1.64844 7.41406 1.7526 7.10677 1.96094 6.89844C2.16927 6.6901 2.46875 6.58594 2.85938 6.58594H16.2813C16.6667 6.58594 16.9635 6.6901 17.1719 6.89844C17.3854 7.10677 17.4922 7.41406 17.4922 7.82031V16.1875C17.4922 16.5938 17.3854 16.901 17.1719 17.1094C16.9635 17.3125 16.6667 17.4141 16.2813 17.4141H2.85938Z"
		fill="currentColor"
	/>
</svg>
