<svg
	color="rgb(var(--foreground, 0, 0, 0))"
	viewBox="0 0 11 24"
	fill="none"
	xmlns="http://www.w3.org/2000/svg"
>
	<path
		d="M5.78906 18.9336C6.66927 18.9336 7.47917 18.7826 8.21875 18.4805C8.95833 18.1836 9.54948 17.7461 9.99219 17.168C10.4401 16.5898 10.6641 15.8841 10.6641 15.0508C10.6641 14.0872 10.3438 13.306 9.70312 12.707C9.0625 12.1081 8.05208 11.6419 6.67188 11.3086L5.1875 10.957C4.31771 10.7487 3.67448 10.4596 3.25781 10.0898C2.84635 9.71484 2.64062 9.24349 2.64062 8.67578C2.64062 8.26432 2.76302 7.88672 3.00781 7.54297C3.25781 7.19401 3.61719 6.91536 4.08594 6.70703C4.55469 6.4987 5.11979 6.39453 5.78125 6.39453C6.31771 6.39453 6.79688 6.47786 7.21875 6.64453C7.64062 6.80599 7.99479 7.04818 8.28125 7.37109C8.57292 7.6888 8.79167 8.08203 8.9375 8.55078C9.06771 8.96224 9.32812 9.16797 9.71875 9.16797C9.94792 9.16797 10.125 9.10026 10.25 8.96484C10.375 8.82422 10.4375 8.64193 10.4375 8.41797C10.4375 8.35547 10.4323 8.29297 10.4219 8.23047C10.4167 8.16276 10.4036 8.09245 10.3828 8.01953C10.2266 7.42057 9.92969 6.89453 9.49219 6.44141C9.0599 5.98828 8.52344 5.63672 7.88281 5.38672C7.2474 5.13672 6.54688 5.01172 5.78125 5.01172C4.875 5.01172 4.07031 5.17057 3.36719 5.48828C2.66406 5.80599 2.11198 6.24609 1.71094 6.80859C1.3151 7.37109 1.11719 8.02474 1.11719 8.76953C1.11719 9.69141 1.42969 10.4492 2.05469 11.043C2.67969 11.6315 3.64583 12.0846 4.95312 12.4023L6.4375 12.7539C7.41146 12.9883 8.10417 13.2904 8.51562 13.6602C8.93229 14.0299 9.14062 14.5299 9.14062 15.1602C9.14062 15.6602 9.00781 16.0898 8.74219 16.4492C8.48177 16.8034 8.10156 17.0768 7.60156 17.2695C7.10156 17.457 6.5026 17.5508 5.80469 17.5508C5.17969 17.5508 4.63021 17.4648 4.15625 17.293C3.68229 17.1211 3.28906 16.8685 2.97656 16.5352C2.66927 16.2018 2.45312 15.7904 2.32812 15.3008C2.26042 15.0977 2.16146 14.944 2.03125 14.8398C1.90104 14.7305 1.73958 14.6758 1.54688 14.6758C1.31771 14.6758 1.14062 14.7461 1.01562 14.8867C0.890625 15.0273 0.828125 15.2122 0.828125 15.4414C0.828125 15.5612 0.846354 15.6914 0.882812 15.832C1.04427 16.4831 1.36458 17.0404 1.84375 17.5039C2.32292 17.9674 2.90365 18.3216 3.58594 18.5664C4.27344 18.8112 5.00781 18.9336 5.78906 18.9336ZM5.75 20.8164C5.91667 20.8164 6.05729 20.7591 6.17188 20.6445C6.28646 20.5299 6.34375 20.3893 6.34375 20.2227V3.76953C6.34375 3.60807 6.28646 3.47005 6.17188 3.35547C6.05729 3.24089 5.91667 3.18359 5.75 3.18359C5.58854 3.18359 5.45052 3.24089 5.33594 3.35547C5.22135 3.47005 5.16406 3.60807 5.16406 3.76953V20.2227C5.16406 20.3893 5.22135 20.5299 5.33594 20.6445C5.45052 20.7591 5.58854 20.8164 5.75 20.8164Z"
		fill="currentColor"
	/>
</svg>
