<svg
	color="rgb(var(--foreground, 0, 0, 0))"
	viewBox="0 0 14 24"
	fill="none"
	xmlns="http://www.w3.org/2000/svg"
>
	<path
		d="M8.02343 19.1328C8.85156 19.1328 9.62239 19.013 10.3359 18.7734C11.0547 18.5339 11.6797 18.1719 12.2109 17.6875C12.7422 17.2083 13.138 16.6068 13.3984 15.8828C13.4401 15.7839 13.4687 15.6849 13.4844 15.5859C13.5 15.4818 13.5078 15.388 13.5078 15.3047C13.5078 15.1016 13.4479 14.9401 13.3281 14.8203C13.2083 14.6953 13.0469 14.6328 12.8437 14.6328C12.6667 14.6328 12.5182 14.6849 12.3984 14.7891C12.2786 14.888 12.1771 15.0443 12.0937 15.2578C11.8906 15.8255 11.5911 16.2943 11.1953 16.6641C10.8047 17.0339 10.3385 17.3073 9.79687 17.4844C9.26041 17.6615 8.67187 17.75 8.03125 17.75C7.10937 17.75 6.28906 17.5156 5.57031 17.0469C4.85677 16.5729 4.29688 15.9036 3.89062 15.0391C3.48438 14.1745 3.28125 13.1536 3.28125 11.9766C3.28125 10.8151 3.48438 9.80729 3.89062 8.95312C4.29688 8.09375 4.85677 7.42969 5.57031 6.96094C6.28385 6.49219 7.10156 6.25781 8.02343 6.25781C8.65885 6.25781 9.24479 6.36719 9.78125 6.58594C10.3177 6.79948 10.7812 7.10938 11.1719 7.51562C11.5677 7.92188 11.8698 8.40885 12.0781 8.97656C12.1562 9.1849 12.2578 9.34115 12.3828 9.44531C12.5078 9.54948 12.6615 9.60156 12.8437 9.60156C13.0469 9.60156 13.2083 9.53906 13.3281 9.41406C13.4531 9.28906 13.5156 9.125 13.5156 8.92188C13.5156 8.83854 13.5052 8.7474 13.4844 8.64844C13.4687 8.54427 13.4401 8.44271 13.3984 8.34375C13.1484 7.65104 12.7708 7.04427 12.2656 6.52344C11.7656 6.0026 11.1562 5.59635 10.4375 5.30469C9.72395 5.01302 8.91927 4.86719 8.02343 4.86719C6.79427 4.86719 5.70833 5.15885 4.76562 5.74219C3.82292 6.32552 3.08594 7.15104 2.55469 8.21875C2.02865 9.28125 1.76562 10.5339 1.76562 11.9766C1.76562 13.4349 2.02865 14.7005 2.55469 15.7734C3.08073 16.8464 3.8151 17.6745 4.75781 18.2578C5.70052 18.8411 6.78906 19.1328 8.02343 19.1328ZM0.554688 11.1094H9C9.14583 11.1094 9.26562 11.0599 9.35937 10.9609C9.45833 10.862 9.50781 10.7422 9.50781 10.6016C9.50781 10.4505 9.45833 10.3281 9.35937 10.2344C9.26562 10.1354 9.14583 10.0859 9 10.0859H0.554688C0.414062 10.0859 0.294271 10.1354 0.195312 10.2344C0.101562 10.3281 0.0546875 10.4505 0.0546875 10.6016C0.0546875 10.7422 0.101562 10.862 0.195312 10.9609C0.294271 11.0599 0.414062 11.1094 0.554688 11.1094ZM0.554688 13.9141H9C9.14583 13.9141 9.26562 13.8646 9.35937 13.7656C9.45833 13.6667 9.50781 13.5469 9.50781 13.4062C9.50781 13.2552 9.45833 13.1328 9.35937 13.0391C9.26562 12.9401 9.14583 12.8906 9 12.8906H0.554688C0.414062 12.8906 0.294271 12.9401 0.195312 13.0391C0.101562 13.1328 0.0546875 13.2552 0.0546875 13.4062C0.0546875 13.5469 0.101562 13.6667 0.195312 13.7656C0.294271 13.8646 0.414062 13.9141 0.554688 13.9141Z"
		fill="currentColor"
	/>
</svg>
