<svg
	color="rgb(var(--foreground, 0, 0, 0))"
	viewBox="0 0 19 24"
	fill="none"
	xmlns="http://www.w3.org/2000/svg"
>
	<path
		d="M0.585938 11.8672V12.7266H8.0625C7.94792 12.9661 7.77604 13.224 7.54688 13.5C7.32292 13.7708 7.0651 14.0312 6.77344 14.2812C6.48698 14.526 6.1901 14.7344 5.88281 14.9062C5.57552 15.0729 5.28646 15.1719 5.01562 15.2031C4.81771 15.224 4.66406 15.2943 4.55469 15.4141C4.44531 15.5286 4.39062 15.6797 4.39062 15.8672C4.39062 16.0391 4.45312 16.1901 4.57812 16.3203C4.70833 16.4505 4.88542 16.5 5.10938 16.4688C5.40625 16.4219 5.73698 16.3073 6.10156 16.125C6.47135 15.9375 6.83333 15.6979 7.1875 15.4062C7.54688 15.1146 7.86458 14.7865 8.14062 14.4219C8.42188 14.0573 8.6276 13.6745 8.75781 13.2734H8.8125V18.5H9.75781V13.2734H9.82031C9.95052 13.6745 10.1536 14.0573 10.4297 14.4219C10.7109 14.7865 11.0286 15.1146 11.3828 15.4062C11.7422 15.6979 12.1042 15.9375 12.4688 16.125C12.8333 16.3073 13.1667 16.4219 13.4688 16.4688C13.6927 16.5 13.8672 16.4505 13.9922 16.3203C14.1224 16.1901 14.1875 16.0391 14.1875 15.8672C14.1875 15.6797 14.1328 15.5286 14.0234 15.4141C13.9141 15.2943 13.7578 15.224 13.5547 15.2031C13.2839 15.1719 12.9948 15.0729 12.6875 14.9062C12.3854 14.7344 12.0885 14.526 11.7969 14.2812C11.5104 14.0312 11.2526 13.7708 11.0234 13.5C10.7995 13.224 10.6302 12.9661 10.5156 12.7266H17.9141V11.8672H12.4141C12.7474 11.7161 13.0391 11.5286 13.2891 11.3047C13.5443 11.0807 13.7422 10.8281 13.8828 10.5469C14.0234 10.2604 14.0938 9.95312 14.0938 9.625C14.0938 9.05208 13.9062 8.58073 13.5312 8.21094C13.1615 7.83594 12.6953 7.64844 12.1328 7.64844C11.8099 7.64844 11.5 7.71354 11.2031 7.84375C10.9062 7.97396 10.6328 8.16146 10.3828 8.40625C10.138 8.64583 9.92969 8.93229 9.75781 9.26562V5.46094H8.8125V9.26562C8.64583 8.93229 8.4375 8.64583 8.1875 8.40625C7.94271 8.16146 7.67188 7.97396 7.375 7.84375C7.07812 7.71354 6.76562 7.64844 6.4375 7.64844C5.88021 7.64844 5.41406 7.83594 5.03906 8.21094C4.66406 8.58073 4.47656 9.05208 4.47656 9.625C4.47656 9.95312 4.54688 10.2604 4.6875 10.5469C4.83333 10.8281 5.03125 11.0807 5.28125 11.3047C5.53646 11.5286 5.82812 11.7161 6.15625 11.8672H0.585938ZM8.4375 11.75C8.05208 11.75 7.6875 11.6901 7.34375 11.5703C7 11.4505 6.69531 11.2943 6.42969 11.1016C6.16406 10.9036 5.95573 10.6849 5.80469 10.4453C5.65365 10.2005 5.57812 9.95573 5.57812 9.71094C5.57812 9.41406 5.66146 9.18229 5.82812 9.01562C5.99479 8.84375 6.21875 8.75781 6.5 8.75781C6.79167 8.75781 7.06771 8.83073 7.32812 8.97656C7.58854 9.1224 7.82031 9.32552 8.02344 9.58594C8.22656 9.84115 8.38542 10.1354 8.5 10.4688C8.61458 10.8021 8.67188 11.1562 8.67188 11.5312V11.75H8.4375ZM10.1328 11.75H9.89844V11.5312C9.89844 11.1562 9.95573 10.8021 10.0703 10.4688C10.1901 10.1354 10.3516 9.84115 10.5547 9.58594C10.7578 9.32552 10.9896 9.1224 11.25 8.97656C11.5104 8.83073 11.7839 8.75781 12.0703 8.75781C12.3568 8.75781 12.5807 8.84375 12.7422 9.01562C12.9089 9.18229 12.9922 9.41406 12.9922 9.71094C12.9922 9.95573 12.9167 10.2005 12.7656 10.4453C12.6146 10.6849 12.4062 10.9036 12.1406 11.1016C11.8802 11.2943 11.5781 11.4505 11.2344 11.5703C10.8906 11.6901 10.5234 11.75 10.1328 11.75ZM2.5625 18.6719H16.0156C16.8333 18.6719 17.4453 18.4688 17.8516 18.0625C18.263 17.6615 18.4688 17.0599 18.4688 16.2578V7.75C18.4688 6.94792 18.263 6.34375 17.8516 5.9375C17.4453 5.53125 16.8333 5.32812 16.0156 5.32812H2.5625C1.74479 5.32812 1.13021 5.53125 0.71875 5.9375C0.3125 6.33854 0.109375 6.94271 0.109375 7.75V16.2578C0.109375 17.0599 0.3125 17.6615 0.71875 18.0625C1.13021 18.4688 1.74479 18.6719 2.5625 18.6719ZM2.57812 17.4141C2.1875 17.4141 1.88802 17.3125 1.67969 17.1094C1.47135 16.901 1.36719 16.5938 1.36719 16.1875V7.82031C1.36719 7.41406 1.47135 7.10677 1.67969 6.89844C1.88802 6.6901 2.1875 6.58594 2.57812 6.58594H16C16.3854 6.58594 16.6823 6.6901 16.8906 6.89844C17.1042 7.10677 17.2109 7.41406 17.2109 7.82031V16.1875C17.2109 16.5938 17.1042 16.901 16.8906 17.1094C16.6823 17.3125 16.3854 17.4141 16 17.4141H2.57812Z"
		fill="currentColor"
	/>
</svg>
