<svg
	color="rgb(var(--foreground, 0, 0, 0))"
	viewBox="0 0 19 24"
	fill="none"
	xmlns="http://www.w3.org/2000/svg"
>
	<path
		d="M0.46875 11.8984H6.30469C5.95573 11.7422 5.64844 11.5443 5.38281 11.3047C5.11719 11.0651 4.90885 10.7943 4.75781 10.4922C4.60677 10.1901 4.53125 9.86458 4.53125 9.51562C4.53125 9.10938 4.6224 8.7474 4.80469 8.42969C4.98698 8.11198 5.23438 7.86198 5.54688 7.67969C5.86458 7.4974 6.22396 7.40625 6.625 7.40625C6.97396 7.40625 7.30469 7.47656 7.61719 7.61719C7.9349 7.7526 8.22396 7.94792 8.48438 8.20312C8.74479 8.45833 8.96354 8.76302 9.14062 9.11719V5.32812H10.1641V9.11719C10.3464 8.76302 10.5677 8.45833 10.8281 8.20312C11.0885 7.94792 11.375 7.7526 11.6875 7.61719C12.0052 7.47656 12.3359 7.40625 12.6797 7.40625C13.0807 7.40625 13.4375 7.4974 13.75 7.67969C14.0677 7.86198 14.3177 8.11198 14.5 8.42969C14.6823 8.7474 14.7734 9.10938 14.7734 9.51562C14.7734 9.86458 14.6979 10.1901 14.5469 10.4922C14.401 10.7943 14.1953 11.0651 13.9297 11.3047C13.6641 11.5443 13.3542 11.7422 13 11.8984H18.8281V12.8281H10.9766C11.0964 13.0781 11.276 13.349 11.5156 13.6406C11.7552 13.9271 12.0286 14.2031 12.3359 14.4688C12.6432 14.7292 12.9583 14.9479 13.2813 15.125C13.6042 15.3021 13.9089 15.4062 14.1953 15.4375C14.4141 15.4583 14.5807 15.5339 14.6953 15.6641C14.8151 15.7891 14.875 15.9531 14.875 16.1562C14.875 16.3385 14.8047 16.5 14.6641 16.6406C14.5286 16.7812 14.3411 16.8359 14.1016 16.8047C13.7786 16.7578 13.4219 16.6354 13.0313 16.4375C12.6458 16.2396 12.263 15.987 11.8828 15.6797C11.5078 15.3672 11.1719 15.0182 10.875 14.6328C10.5781 14.2422 10.362 13.8333 10.2266 13.4062H10.1641V18.6719H9.14062V13.4062H9.08594C8.95052 13.8333 8.73438 14.2422 8.4375 14.6328C8.14062 15.0182 7.80208 15.3672 7.42188 15.6797C7.04688 15.987 6.66406 16.2396 6.27344 16.4375C5.88281 16.6354 5.52865 16.7578 5.21094 16.8047C4.97135 16.8359 4.78125 16.7812 4.64062 16.6406C4.50521 16.5 4.4375 16.3385 4.4375 16.1562C4.4375 15.9531 4.49479 15.7891 4.60938 15.6641C4.72917 15.5339 4.89583 15.4583 5.10938 15.4375C5.40104 15.4062 5.70833 15.3021 6.03125 15.125C6.35417 14.9427 6.66927 14.7214 6.97656 14.4609C7.28385 14.1953 7.55729 13.9193 7.79688 13.6328C8.03646 13.3464 8.21615 13.0781 8.33594 12.8281H0.46875V11.8984ZM8.74219 11.7734H8.99219V11.5391C8.99219 11.1432 8.92969 10.7708 8.80469 10.4219C8.6849 10.0677 8.51823 9.75521 8.30469 9.48438C8.09115 9.20833 7.84635 8.99219 7.57031 8.83594C7.29427 8.67969 7 8.60156 6.6875 8.60156C6.39062 8.60156 6.15365 8.69271 5.97656 8.875C5.79948 9.05208 5.71094 9.29688 5.71094 9.60938C5.71094 9.86979 5.79167 10.1276 5.95312 10.3828C6.11458 10.638 6.33594 10.8724 6.61719 11.0859C6.89844 11.2943 7.22135 11.4609 7.58594 11.5859C7.95052 11.7109 8.33594 11.7734 8.74219 11.7734ZM10.5625 11.7734C10.974 11.7734 11.362 11.7109 11.7266 11.5859C12.0911 11.4609 12.4141 11.2943 12.6953 11.0859C12.9766 10.8724 13.1953 10.638 13.3516 10.3828C13.513 10.1276 13.5938 9.86979 13.5938 9.60938C13.5938 9.29688 13.5052 9.05208 13.3281 8.875C13.1563 8.69271 12.9193 8.60156 12.6172 8.60156C12.3099 8.60156 12.0182 8.67969 11.7422 8.83594C11.4661 8.99219 11.2214 9.20833 11.0078 9.48438C10.7943 9.75521 10.625 10.0677 10.5 10.4219C10.375 10.7708 10.3125 11.1432 10.3125 11.5391V11.7734H10.5625ZM2.92188 18.6719H16.375C17.1927 18.6719 17.8047 18.4688 18.2109 18.0625C18.6224 17.6615 18.8281 17.0599 18.8281 16.2578V7.75C18.8281 6.94792 18.6224 6.34375 18.2109 5.9375C17.8047 5.53125 17.1927 5.32812 16.375 5.32812H2.92188C2.10417 5.32812 1.48958 5.53125 1.07812 5.9375C0.671875 6.33854 0.46875 6.94271 0.46875 7.75V16.2578C0.46875 17.0599 0.671875 17.6615 1.07812 18.0625C1.48958 18.4688 2.10417 18.6719 2.92188 18.6719Z"
		fill="currentColor"
	/>
</svg>
