<svg
	color="rgb(var(--foreground, 0, 0, 0))"
	viewBox="0 0 12 24"
	fill="none"
	xmlns="http://www.w3.org/2000/svg"
>
	<path
		d="M5.89844 4.79688C5.36198 4.79688 4.84896 4.86719 4.35938 5.00781C3.875 5.14844 3.4375 5.36458 3.04688 5.65625C2.65625 5.94792 2.33594 6.31771 2.08594 6.76562C1.99219 6.90625 1.91927 7.04948 1.86719 7.19531C1.8151 7.33594 1.78646 7.48698 1.78125 7.64844C1.78125 7.83594 1.83594 7.99219 1.94531 8.11719C2.0599 8.24219 2.22656 8.30469 2.44531 8.30469C2.58594 8.30469 2.71094 8.27083 2.82031 8.20312C2.9349 8.13021 3.03385 7.9974 3.11719 7.80469C3.26823 7.4349 3.48438 7.125 3.76562 6.875C4.05208 6.61979 4.38021 6.42969 4.75 6.30469C5.125 6.17448 5.52344 6.10938 5.94531 6.10938C6.47135 6.10938 6.95312 6.19531 7.39062 6.36719C7.83333 6.53906 8.1849 6.79427 8.44531 7.13281C8.71094 7.46615 8.84375 7.875 8.84375 8.35938C8.84375 8.6875 8.7526 9.01823 8.57031 9.35156C8.38802 9.67969 8.10156 9.92708 7.71094 10.0938H9.36719C9.66406 9.85938 9.89062 9.58333 10.0469 9.26562C10.2031 8.94271 10.2812 8.60938 10.2812 8.26562C10.2812 7.52604 10.0807 6.89844 9.67969 6.38281C9.28385 5.86198 8.7526 5.46875 8.08594 5.20312C7.41927 4.93229 6.6901 4.79688 5.89844 4.79688ZM1.01562 10.9375H10.9062C11.0521 10.9375 11.1719 10.888 11.2656 10.7891C11.3646 10.6901 11.4141 10.5703 11.4141 10.4297C11.4141 10.2786 11.3646 10.1562 11.2656 10.0625C11.1719 9.96875 11.0521 9.92188 10.9062 9.92188H1.01562C0.875 9.92188 0.755208 9.96875 0.65625 10.0625C0.5625 10.1562 0.515625 10.2786 0.515625 10.4297C0.515625 10.5703 0.5625 10.6901 0.65625 10.7891C0.755208 10.888 0.875 10.9375 1.01562 10.9375ZM1.01562 13.6641H10.9062C11.0521 13.6641 11.1719 13.6146 11.2656 13.5156C11.3646 13.4167 11.4141 13.2969 11.4141 13.1562C11.4141 13.0052 11.3646 12.8828 11.2656 12.7891C11.1719 12.6953 11.0521 12.6484 10.9062 12.6484H1.01562C0.875 12.6484 0.755208 12.6953 0.65625 12.7891C0.5625 12.8828 0.515625 13.0052 0.515625 13.1562C0.515625 13.2969 0.5625 13.4167 0.65625 13.5156C0.755208 13.6146 0.875 13.6641 1.01562 13.6641ZM5.97656 19.2031C6.65885 19.2031 7.27604 19.112 7.82812 18.9297C8.38021 18.7526 8.85677 18.4974 9.25781 18.1641C9.66406 17.8307 9.98177 17.4375 10.2109 16.9844C10.2995 16.8438 10.3724 16.7031 10.4297 16.5625C10.487 16.4219 10.5156 16.2656 10.5156 16.0938C10.5156 15.901 10.4531 15.7448 10.3281 15.625C10.2083 15.5052 10.0521 15.4453 9.85938 15.4453C9.66146 15.4453 9.50781 15.4922 9.39844 15.5859C9.28906 15.6797 9.20052 15.8021 9.13281 15.9531C8.96615 16.3802 8.73438 16.737 8.4375 17.0234C8.14583 17.3099 7.78906 17.526 7.36719 17.6719C6.95052 17.8177 6.47396 17.8906 5.9375 17.8906C5.30729 17.8906 4.76042 17.7865 4.29688 17.5781C3.83333 17.3698 3.47396 17.0938 3.21875 16.75C2.96875 16.4062 2.84375 16.0286 2.84375 15.6172C2.84375 15.1849 2.96875 14.776 3.21875 14.3906C3.46875 14.0052 3.88281 13.6979 4.46094 13.4688H2.69531C2.28906 13.7135 1.97135 14.0312 1.74219 14.4219C1.51302 14.8073 1.39844 15.2266 1.39844 15.6797C1.39844 16.3307 1.58333 16.9245 1.95312 17.4609C2.32812 17.9922 2.85938 18.4141 3.54688 18.7266C4.23438 19.0443 5.04427 19.2031 5.97656 19.2031Z"
		fill="currentColor"
	/>
</svg>
