<svg
	color="rgb(var(--foreground, 0, 0, 0))"
	viewBox="0 0 12 24"
	fill="none"
	xmlns="http://www.w3.org/2000/svg"
>
	<path
		d="M1.05469 19.0898H10.375C10.5677 19.0898 10.7292 19.0299 10.8594 18.9102C10.9896 18.7956 11.0547 18.6393 11.0547 18.4414C11.0547 18.2435 10.9896 18.0872 10.8594 17.9727C10.7292 17.8581 10.5677 17.8008 10.375 17.8008H2.85938V17.7617C3.23438 17.6367 3.5651 17.4102 3.85156 17.082C4.14323 16.7539 4.3724 16.3555 4.53906 15.8867C4.70573 15.4128 4.78906 14.8919 4.78906 14.3242C4.78906 13.8346 4.7474 13.3893 4.66406 12.9883C4.58073 12.582 4.48438 12.1914 4.375 11.8164C4.26562 11.4362 4.16927 11.043 4.08594 10.6367C4.0026 10.2305 3.96094 9.77995 3.96094 9.28516C3.96094 8.68099 4.09635 8.15234 4.36719 7.69922C4.63802 7.24089 5.02865 6.88411 5.53906 6.62891C6.05469 6.36849 6.67448 6.23828 7.39844 6.23828C7.84115 6.23828 8.21094 6.26953 8.50782 6.33203C8.80469 6.38932 9.05209 6.44922 9.25 6.51172C9.44792 6.56901 9.61719 6.59766 9.75782 6.59766C9.95573 6.59766 10.1016 6.54557 10.1953 6.44141C10.2943 6.33203 10.3438 6.19141 10.3438 6.01953C10.3438 5.85807 10.2917 5.71745 10.1875 5.59766C10.0885 5.47786 9.92969 5.3737 9.71094 5.28516C9.36719 5.14974 8.99219 5.05339 8.58594 4.99609C8.1849 4.9388 7.75 4.91016 7.28125 4.91016C6.28125 4.91016 5.41927 5.09505 4.69531 5.46484C3.97135 5.82943 3.41146 6.34766 3.01562 7.01953C2.625 7.69141 2.42969 8.48307 2.42969 9.39453C2.42969 9.83203 2.47396 10.2695 2.5625 10.707C2.65625 11.1445 2.76042 11.5768 2.875 12.0039C2.98958 12.4258 3.09115 12.8372 3.17969 13.2383C3.27344 13.6393 3.32031 14.0221 3.32031 14.3867C3.32031 14.9753 3.21354 15.4935 3 15.9414C2.78646 16.3893 2.5026 16.7591 2.14844 17.0508C1.79948 17.3424 1.41667 17.5456 1 17.6602C0.786458 17.7279 0.630208 17.8216 0.53125 17.9414C0.432292 18.0612 0.382812 18.2201 0.382812 18.418C0.382812 18.6159 0.445312 18.7773 0.570312 18.9023C0.695312 19.0273 0.856771 19.0898 1.05469 19.0898ZM0.484375 12.0039C0.484375 12.1654 0.539062 12.3008 0.648438 12.4102C0.763021 12.5195 0.901042 12.5742 1.0625 12.5742H8.70313C8.86459 12.5742 9 12.5195 9.10938 12.4102C9.21875 12.3008 9.27344 12.1654 9.27344 12.0039C9.27344 11.8477 9.21875 11.7148 9.10938 11.6055C9 11.4909 8.86459 11.4336 8.70313 11.4336H1.0625C0.901042 11.4336 0.763021 11.4909 0.648438 11.6055C0.539062 11.7148 0.484375 11.8477 0.484375 12.0039Z"
		fill="currentColor"
	/>
</svg>
