<svg
	color="rgb(var(--foreground, 0, 0, 0))"
	viewBox="0 0 19 24"
	fill="none"
	xmlns="http://www.w3.org/2000/svg"
>
	<path
		d="M0.09375 10.5986C0.09375 10.9684 0.200521 11.2601 0.414062 11.4736C0.627604 11.6872 0.919271 11.7939 1.28906 11.7939H17.1875C17.5573 11.7939 17.849 11.6872 18.0625 11.4736C18.2812 11.2601 18.3906 10.9684 18.3906 10.5986V10.2158C18.3906 9.85124 18.2812 9.55957 18.0625 9.34082C17.849 9.12207 17.5573 9.0127 17.1875 9.0127H1.28906C0.919271 9.0127 0.627604 9.12207 0.414062 9.34082C0.200521 9.55957 0.09375 9.85124 0.09375 10.2158V10.5986ZM5.0625 20.3721H13.4219C14.0208 20.3721 14.4948 20.2679 14.8438 20.0596C15.1979 19.8512 15.4635 19.5804 15.6406 19.2471C15.8177 18.9137 15.9427 18.5596 16.0156 18.1846L17.1016 12.8643H1.39062L2.46875 18.1846C2.54167 18.5596 2.66667 18.9137 2.84375 19.2471C3.02083 19.5804 3.28385 19.8512 3.63281 20.0596C3.98698 20.2679 4.46354 20.3721 5.0625 20.3721ZM5.57031 19.0283C5.42448 19.0492 5.29948 19.0231 5.19531 18.9502C5.09635 18.8825 5.03385 18.7835 5.00781 18.6533L4.33594 14.7236C4.3099 14.5934 4.33594 14.4788 4.41406 14.3799C4.49219 14.2809 4.60677 14.2184 4.75781 14.1924C4.90365 14.1715 5.02865 14.1976 5.13281 14.2705C5.24219 14.3382 5.30729 14.4372 5.32812 14.5674L5.99219 18.4971C6.01302 18.6273 5.98698 18.7419 5.91406 18.8408C5.84115 18.9398 5.72656 19.0023 5.57031 19.0283ZM8.04688 19.0205C7.89583 19.0309 7.77083 18.9945 7.67188 18.9111C7.57812 18.8278 7.52604 18.7184 7.51562 18.583L7.25781 14.7002C7.2474 14.5648 7.28646 14.4528 7.375 14.3643C7.46354 14.2705 7.58073 14.2184 7.72656 14.208C7.8776 14.1976 8 14.234 8.09375 14.3174C8.19271 14.4007 8.2474 14.5101 8.25781 14.6455L8.51562 18.5283C8.52083 18.6637 8.47917 18.7757 8.39062 18.8643C8.30208 18.958 8.1875 19.0101 8.04688 19.0205ZM10.4531 19.0205C10.3073 19.0101 10.1901 18.958 10.1016 18.8643C10.013 18.7757 9.97135 18.6637 9.97656 18.5283L10.2344 14.6455C10.2448 14.5101 10.2969 14.4007 10.3906 14.3174C10.4896 14.234 10.6146 14.1976 10.7656 14.208C10.9115 14.2184 11.0286 14.2705 11.1172 14.3643C11.2057 14.4528 11.2448 14.5648 11.2344 14.7002L10.9766 18.583C10.9661 18.7184 10.9115 18.8278 10.8125 18.9111C10.7188 18.9945 10.599 19.0309 10.4531 19.0205ZM12.9141 19.0283C12.763 19.0023 12.6484 18.9398 12.5703 18.8408C12.4974 18.7419 12.4714 18.6273 12.4922 18.4971L13.1562 14.5674C13.1771 14.4372 13.2396 14.3382 13.3438 14.2705C13.4531 14.1976 13.5807 14.1715 13.7266 14.1924C13.8776 14.2184 13.9922 14.2835 14.0703 14.3877C14.1484 14.4919 14.1745 14.609 14.1484 14.7393L13.4766 18.6533C13.4505 18.7835 13.3854 18.8825 13.2812 18.9502C13.1771 19.0231 13.0547 19.0492 12.9141 19.0283ZM2.60938 9.34863H4.17188L6.92188 4.5752C7.02604 4.3877 7.04427 4.21842 6.97656 4.06738C6.91406 3.91113 6.8125 3.79395 6.67188 3.71582C6.53125 3.6377 6.3776 3.61165 6.21094 3.6377C6.04427 3.66374 5.90885 3.7653 5.80469 3.94238L2.60938 9.34863ZM14.3125 9.34863H15.875L12.6797 3.94238C12.5807 3.77051 12.4479 3.67155 12.2812 3.64551C12.1146 3.61947 11.9583 3.6429 11.8125 3.71582C11.6719 3.79395 11.5677 3.91113 11.5 4.06738C11.4375 4.21842 11.4583 4.3877 11.5625 4.5752L14.3125 9.34863Z"
		fill="currentColor"
	/>
</svg>
