<svg
	color="rgb(var(--foreground, 0, 0, 0))"
	viewBox="0 0 15 24"
	fill="none"
	xmlns="http://www.w3.org/2000/svg"
>
	<path
		d="M0.867188 17.5625C0.867188 18.3698 1.07031 18.974 1.47656 19.375C1.88802 19.7812 2.5026 19.9844 3.32031 19.9844H12.5156C13.2135 19.9844 13.7578 19.7812 14.1484 19.375C14.5391 18.974 14.7344 18.3698 14.7344 17.5625V9.47656C14.7344 8.66927 14.5286 8.0651 14.1172 7.66406C13.7057 7.25781 13.0938 7.05469 12.2812 7.05469H11.0312C11.0208 6.50781 10.8672 6.00521 10.5703 5.54688C10.2786 5.08333 9.89062 4.71354 9.40625 4.4375C8.92188 4.15625 8.38542 4.01562 7.79688 4.01562C7.20833 4.01562 6.67188 4.15625 6.1875 4.4375C5.70312 4.71354 5.3151 5.08333 5.02344 5.54688C4.73177 6.00521 4.57812 6.50781 4.5625 7.05469H3.32031C2.5026 7.05469 1.88802 7.25781 1.47656 7.66406C1.07031 8.0651 0.867188 8.66927 0.867188 9.47656V17.5625ZM5.82031 7.05469C5.83073 6.71615 5.92448 6.40625 6.10156 6.125C6.27865 5.84375 6.51302 5.61979 6.80469 5.45312C7.10156 5.28646 7.43229 5.20312 7.79688 5.20312C8.16667 5.20312 8.4974 5.28646 8.78906 5.45312C9.08594 5.61979 9.32031 5.84375 9.49219 6.125C9.66927 6.40625 9.76302 6.71615 9.77344 7.05469H5.82031Z"
		fill="currentColor"
	/>
</svg>
