<svg
	color="rgb(var(--foreground, 0, 0, 0))"
	viewBox="0 0 19 24"
	fill="none"
	xmlns="http://www.w3.org/2000/svg"
>
	<path
		d="M7.08594 15.8828H16.2031C16.3542 15.8828 16.487 15.8281 16.6016 15.7188C16.7161 15.6042 16.7734 15.4635 16.7734 15.2969C16.7734 15.1302 16.7161 14.9922 16.6016 14.8828C16.487 14.7682 16.3542 14.7109 16.2031 14.7109H7.21875C7 14.7109 6.82031 14.6406 6.67969 14.5C6.54427 14.3542 6.46094 14.1615 6.42969 13.9219L5.14844 5.22656C5.10677 4.92448 5.01302 4.69792 4.86719 4.54688C4.72656 4.39583 4.45573 4.32031 4.05469 4.32031H1.3125C1.15625 4.32031 1.02083 4.38021 0.90625 4.5C0.791667 4.61458 0.734375 4.75 0.734375 4.90625C0.734375 5.06771 0.791667 5.20833 0.90625 5.32812C1.02083 5.44271 1.15625 5.5 1.3125 5.5H3.95312L5.20312 14.0781C5.28646 14.6354 5.47917 15.0755 5.78125 15.3984C6.08333 15.7214 6.51823 15.8828 7.08594 15.8828ZM5.64844 13.1016H16.2188C16.7917 13.1016 17.2292 12.9401 17.5312 12.6172C17.8333 12.2891 18.026 11.8438 18.1094 11.2812L18.7344 7.14844C18.7448 7.09635 18.7526 7.04427 18.7578 6.99219C18.763 6.9349 18.7656 6.88802 18.7656 6.85156C18.7656 6.66406 18.7005 6.51302 18.5703 6.39844C18.4401 6.27865 18.2682 6.21875 18.0547 6.21875H4.96875L4.97656 7.39844H17.4375L16.8828 11.1406C16.8516 11.3802 16.7708 11.5729 16.6406 11.7188C16.5104 11.8594 16.3307 11.9297 16.1016 11.9297H5.63281L5.64844 13.1016ZM7.70312 19.6797C8.05208 19.6797 8.34896 19.5573 8.59375 19.3125C8.84375 19.0677 8.96875 18.7682 8.96875 18.4141C8.96875 18.0599 8.84375 17.7604 8.59375 17.5156C8.34896 17.2708 8.05208 17.1484 7.70312 17.1484C7.46354 17.1484 7.2474 17.2031 7.05469 17.3125C6.86719 17.4271 6.71615 17.5807 6.60156 17.7734C6.48698 17.9661 6.42969 18.1797 6.42969 18.4141C6.42969 18.6484 6.48698 18.862 6.60156 19.0547C6.71615 19.2474 6.86719 19.3984 7.05469 19.5078C7.2474 19.6224 7.46354 19.6797 7.70312 19.6797ZM15.0078 19.6797C15.362 19.6797 15.6615 19.5573 15.9062 19.3125C16.1562 19.0677 16.2812 18.7682 16.2812 18.4141C16.2812 18.0599 16.1562 17.7604 15.9062 17.5156C15.6615 17.2708 15.362 17.1484 15.0078 17.1484C14.7734 17.1484 14.5599 17.2031 14.3672 17.3125C14.1745 17.4271 14.0208 17.5807 13.9062 17.7734C13.7917 17.9661 13.7344 18.1797 13.7344 18.4141C13.7344 18.7682 13.8594 19.0677 14.1094 19.3125C14.3594 19.5573 14.6589 19.6797 15.0078 19.6797Z"
		fill="currentColor"
	/>
</svg>
