<svg
	color="rgb(var(--foreground, 0, 0, 0))"
	viewBox="0 0 20 24"
	fill="none"
	xmlns="http://www.w3.org/2000/svg"
>
	<path
		d="M0.796875 11.3486C0.796875 11.7184 0.903646 12.0101 1.11719 12.2236C1.33073 12.4372 1.6224 12.5439 1.99219 12.5439H17.8906C18.2604 12.5439 18.5521 12.4372 18.7656 12.2236C18.9844 12.0101 19.0937 11.7184 19.0937 11.3486V10.2158C19.0937 9.85124 18.9844 9.55957 18.7656 9.34082C18.5521 9.12207 18.2604 9.0127 17.8906 9.0127H1.99219C1.6224 9.0127 1.33073 9.12207 1.11719 9.34082C0.903646 9.55957 0.796875 9.85124 0.796875 10.2158V11.3486ZM2.29688 10.2549H17.5859C17.7682 10.2549 17.8594 10.346 17.8594 10.5283V11.0283C17.8594 11.2158 17.7682 11.3096 17.5859 11.3096H2.29688C2.11979 11.3096 2.03125 11.2158 2.03125 11.0283V10.5283C2.03125 10.346 2.11979 10.2549 2.29688 10.2549ZM5.76562 20.3721H14.125C14.724 20.3721 15.1979 20.2679 15.5469 20.0596C15.901 19.8512 16.1641 19.5804 16.3359 19.2471C16.513 18.9137 16.6406 18.5596 16.7187 18.1846L17.9609 12.2314L16.7344 12.0205L15.5703 17.708C15.4974 18.0413 15.4036 18.3122 15.2891 18.5205C15.1797 18.7288 15.0156 18.8799 14.7969 18.9736C14.5833 19.0726 14.2865 19.1221 13.9062 19.1221H5.98438C5.60417 19.1221 5.30469 19.0726 5.08594 18.9736C4.8724 18.8799 4.70833 18.7288 4.59375 18.5205C4.48438 18.3122 4.39323 18.0413 4.32031 17.708L3.15625 12.0205L1.92969 12.2314L3.17188 18.1846C3.25 18.5596 3.375 18.9137 3.54688 19.2471C3.72396 19.5804 3.98698 19.8512 4.33594 20.0596C4.6901 20.2679 5.16667 20.3721 5.76562 20.3721ZM6.61719 18.2705C6.76302 18.2497 6.8724 18.1898 6.94531 18.0908C7.01823 17.9971 7.04427 17.8877 7.02344 17.7627L6.375 13.6768C6.35417 13.5518 6.29167 13.4554 6.1875 13.3877C6.08854 13.32 5.96875 13.2965 5.82812 13.3174C5.68229 13.3434 5.57031 13.4033 5.49219 13.4971C5.41927 13.5908 5.39583 13.7002 5.42188 13.8252L6.07031 17.9111C6.09635 18.0413 6.15885 18.1403 6.25781 18.208C6.35677 18.2757 6.47656 18.2965 6.61719 18.2705ZM8.85938 18.2236C9 18.2184 9.11198 18.1715 9.19531 18.083C9.27865 17.9945 9.31771 17.8877 9.3125 17.7627L9.0625 13.7158C9.05208 13.5856 9 13.4814 8.90625 13.4033C8.81771 13.32 8.70052 13.2835 8.55469 13.2939C8.41406 13.3044 8.29948 13.3538 8.21094 13.4424C8.1276 13.5309 8.09115 13.6403 8.10156 13.7705L8.35156 17.8096C8.36198 17.9398 8.41406 18.0439 8.50781 18.1221C8.60156 18.2002 8.71875 18.234 8.85938 18.2236ZM11.0391 18.2236C11.1797 18.234 11.2969 18.2002 11.3906 18.1221C11.4844 18.0439 11.5365 17.9398 11.5469 17.8096L11.7969 13.7705C11.8073 13.6403 11.7682 13.5309 11.6797 13.4424C11.5964 13.3538 11.4844 13.3044 11.3438 13.2939C11.1979 13.2835 11.0781 13.32 10.9844 13.4033C10.8958 13.4814 10.8464 13.5856 10.8359 13.7158L10.5859 17.7627C10.5807 17.8877 10.6198 17.9945 10.7031 18.083C10.7865 18.1715 10.8984 18.2184 11.0391 18.2236ZM13.2734 18.2705C13.4141 18.2965 13.5339 18.2757 13.6328 18.208C13.737 18.1403 13.7995 18.0413 13.8203 17.9111L14.4766 13.8252C14.4974 13.7002 14.4687 13.5908 14.3906 13.4971C14.3177 13.4033 14.2083 13.3434 14.0625 13.3174C13.9219 13.2965 13.8021 13.32 13.7031 13.3877C13.6042 13.4554 13.5417 13.5518 13.5156 13.6768L12.8672 17.7627C12.8464 17.8877 12.8724 17.9971 12.9453 18.0908C13.0182 18.1898 13.1276 18.2497 13.2734 18.2705ZM3.32031 9.33301H4.89062L7.625 4.5752C7.72917 4.3877 7.7474 4.21842 7.67969 4.06738C7.61719 3.91113 7.51562 3.79395 7.375 3.71582C7.23438 3.6377 7.08073 3.61165 6.91406 3.6377C6.7474 3.66374 6.61198 3.7653 6.50781 3.94238L3.32031 9.33301ZM15 9.33301H16.5703L13.3828 3.94238C13.2839 3.77051 13.151 3.67155 12.9844 3.64551C12.8177 3.61947 12.6615 3.6429 12.5156 3.71582C12.375 3.79395 12.2708 3.91113 12.2031 4.06738C12.1406 4.21842 12.1615 4.3877 12.2656 4.5752L15 9.33301Z"
		fill="currentColor"
	/>
</svg>
