<svg
	color="rgb(var(--foreground, 0, 0, 0))"
	viewBox="0 0 14 24"
	fill="none"
	xmlns="http://www.w3.org/2000/svg"
>
	<path
		d="M0 17.5625C0 18.3698 0.203125 18.974 0.609375 19.375C1.02083 19.7812 1.63542 19.9844 2.45312 19.9844H11.6484C12.3464 19.9844 12.8906 19.7812 13.2812 19.375C13.6719 18.974 13.8672 18.3698 13.8672 17.5625V9.47656C13.8672 8.66927 13.6615 8.0651 13.25 7.66406C12.8385 7.25781 12.2266 7.05469 11.4141 7.05469H10.1641C10.1536 6.50781 10 6.00521 9.70312 5.54688C9.41146 5.08333 9.02344 4.71354 8.53906 4.4375C8.05469 4.15625 7.51823 4.01562 6.92969 4.01562C6.34115 4.01562 5.80469 4.15625 5.32031 4.4375C4.83594 4.71354 4.44792 5.08333 4.15625 5.54688C3.86458 6.00521 3.71094 6.50781 3.69531 7.05469H2.45312C1.63542 7.05469 1.02083 7.25781 0.609375 7.66406C0.203125 8.0651 0 8.66927 0 9.47656V17.5625ZM1.25781 17.5V9.53906C1.25781 9.13281 1.36198 8.82812 1.57031 8.625C1.77865 8.41667 2.07812 8.3125 2.46875 8.3125H11.3906C11.776 8.3125 12.0755 8.41667 12.2891 8.625C12.5026 8.82812 12.6094 9.13281 12.6094 9.53906V17.5C12.6094 17.9062 12.513 18.2135 12.3203 18.4219C12.1276 18.625 11.8958 18.7266 11.625 18.7266H2.46875C2.07812 18.7266 1.77865 18.625 1.57031 18.4219C1.36198 18.2135 1.25781 17.9062 1.25781 17.5ZM4.95312 7.05469C4.96354 6.71615 5.05729 6.40625 5.23438 6.125C5.41146 5.84375 5.64583 5.61979 5.9375 5.45312C6.23438 5.28646 6.5651 5.20312 6.92969 5.20312C7.29948 5.20312 7.63021 5.28646 7.92188 5.45312C8.21875 5.61979 8.45312 5.84375 8.625 6.125C8.80208 6.40625 8.89583 6.71615 8.90625 7.05469H4.95312Z"
		fill="currentColor"
	/>
</svg>
