<svg
	color="rgb(var(--foreground, 0, 0, 0))"
	viewBox="0 0 19 24"
	fill="none"
	xmlns="http://www.w3.org/2000/svg"
>
	<path
		d="M0.765625 4.90625C0.765625 5.06771 0.822917 5.20833 0.9375 5.32812C1.05208 5.44271 1.1875 5.5 1.34375 5.5H3.98438L5.23438 14.0781C5.31771 14.6354 5.51042 15.0755 5.8125 15.3984C6.11458 15.7214 6.54948 15.8828 7.11719 15.8828H16.2344C16.3854 15.8828 16.5182 15.8281 16.6328 15.7188C16.7474 15.6042 16.8047 15.4635 16.8047 15.2969C16.8047 15.1302 16.7474 14.9922 16.6328 14.8828C16.5182 14.7682 16.3854 14.7109 16.2344 14.7109H7.25C7.03125 14.7109 6.85156 14.6406 6.71094 14.5C6.57552 14.3542 6.49219 14.1615 6.46094 13.9219L6.33594 13.1016H16.25C16.8229 13.1016 17.2604 12.9401 17.5625 12.6172C17.8646 12.2891 18.0573 11.8438 18.1406 11.2812L18.7656 7.14844C18.776 7.09635 18.7839 7.04427 18.7891 6.99219C18.7943 6.9349 18.7969 6.88802 18.7969 6.85156C18.7969 6.66406 18.7318 6.51302 18.6016 6.39844C18.4714 6.27865 18.2995 6.21875 18.0859 6.21875H5.33594L5.17969 5.22656C5.13802 4.92448 5.04427 4.69792 4.89844 4.54688C4.75781 4.39583 4.48698 4.32031 4.08594 4.32031H1.34375C1.1875 4.32031 1.05208 4.38021 0.9375 4.5C0.822917 4.61458 0.765625 4.75 0.765625 4.90625ZM6.46094 18.4141C6.46094 18.6484 6.51823 18.862 6.63281 19.0547C6.7474 19.2474 6.89844 19.3984 7.08594 19.5078C7.27865 19.6224 7.49479 19.6797 7.73438 19.6797C8.08333 19.6797 8.38021 19.5573 8.625 19.3125C8.875 19.0677 9 18.7682 9 18.4141C9 18.0599 8.875 17.7604 8.625 17.5156C8.38021 17.2708 8.08333 17.1484 7.73438 17.1484C7.49479 17.1484 7.27865 17.2031 7.08594 17.3125C6.89844 17.4271 6.7474 17.5807 6.63281 17.7734C6.51823 17.9661 6.46094 18.1797 6.46094 18.4141ZM13.7656 18.4141C13.7656 18.7682 13.8906 19.0677 14.1406 19.3125C14.3906 19.5573 14.6901 19.6797 15.0391 19.6797C15.3932 19.6797 15.6927 19.5573 15.9375 19.3125C16.1875 19.0677 16.3125 18.7682 16.3125 18.4141C16.3125 18.0599 16.1875 17.7604 15.9375 17.5156C15.6927 17.2708 15.3932 17.1484 15.0391 17.1484C14.8047 17.1484 14.5911 17.2031 14.3984 17.3125C14.2057 17.4271 14.0521 17.5807 13.9375 17.7734C13.8229 17.9661 13.7656 18.1797 13.7656 18.4141Z"
		fill="currentColor"
	/>
</svg>
