<svg
	color="rgb(var(--foreground, 0, 0, 0))"
	viewBox="0 0 18 24"
	fill="none"
	xmlns="http://www.w3.org/2000/svg"
>
	<path
		d="M9.3329 19.8867L16.9501 12.2538C17.148 12.0559 17.2886 11.8788 17.372 11.7226C17.4605 11.5611 17.5152 11.3893 17.536 11.207C17.5621 11.0195 17.5751 10.7877 17.5751 10.5117V7.54291C17.5751 7.26687 17.549 7.04291 17.497 6.87103C17.4501 6.69395 17.3694 6.53249 17.2548 6.38666C17.1402 6.23562 16.9839 6.06114 16.786 5.86322L14.9891 4.06635C14.7912 3.87364 14.6194 3.71999 14.4735 3.60541C14.3277 3.48562 14.1662 3.40228 13.9891 3.35541C13.8173 3.30332 13.5933 3.27728 13.3173 3.27728H10.3407C10.0699 3.27728 9.84071 3.2903 9.65321 3.31635C9.46571 3.33718 9.29123 3.39187 9.12977 3.48041C8.97352 3.56895 8.79904 3.70957 8.60633 3.90228L0.965708 11.5273C0.408416 12.0846 0.127166 12.6497 0.121958 13.2226C0.116749 13.7955 0.400603 14.3684 0.97352 14.9413L5.91883 19.8788C6.49175 20.4466 7.06467 20.7278 7.63758 20.7226C8.2105 20.7226 8.7756 20.4439 9.3329 19.8867ZM12.0048 9.52728C11.6975 9.52728 11.4423 9.42312 11.2391 9.21478C11.036 9.00645 10.9345 8.75385 10.9345 8.45697C10.9345 8.15489 11.036 7.90228 11.2391 7.69916C11.4423 7.49082 11.6975 7.38666 12.0048 7.38666C12.3069 7.38666 12.5595 7.49082 12.7626 7.69916C12.9709 7.90228 13.0751 8.15489 13.0751 8.45697C13.0751 8.75385 12.9709 9.00645 12.7626 9.21478C12.5595 9.42312 12.3069 9.52728 12.0048 9.52728Z"
		fill="currentColor"
	/>
</svg>
