<svg
	color="rgb(var(--foreground, 0, 0, 0))"
	viewBox="0 0 12 24"
	fill="none"
	xmlns="http://www.w3.org/2000/svg"
>
	<path
		d="M6.02345 19.2344C6.2422 19.2344 6.41929 19.1641 6.5547 19.0234C6.69012 18.8828 6.75783 18.7005 6.75783 18.4766V13.1172L11.2266 5.91406C11.3307 5.7474 11.3828 5.58333 11.3828 5.42188C11.3828 5.23438 11.3125 5.07812 11.1719 4.95312C11.0365 4.82812 10.8646 4.76562 10.6563 4.76562C10.5156 4.76562 10.3906 4.79688 10.2813 4.85938C10.1719 4.91667 10.0781 5.01562 10 5.15625L6.0547 11.7656H6.00002L2.05469 5.15625C1.97135 5.01562 1.875 4.91667 1.76562 4.85938C1.65625 4.79688 1.53125 4.76562 1.39062 4.76562C1.1875 4.76562 1.01562 4.82812 0.875 4.95312C0.734375 5.07812 0.664062 5.23438 0.664062 5.42188C0.664062 5.58333 0.716146 5.7474 0.820312 5.91406L5.29689 13.1172V18.4766C5.29689 18.7005 5.3646 18.8828 5.50002 19.0234C5.63543 19.1641 5.80991 19.2344 6.02345 19.2344ZM2.27344 13.2969H9.84377C9.99481 13.2969 10.1146 13.25 10.2031 13.1562C10.2917 13.0573 10.336 12.9349 10.336 12.7891C10.336 12.6432 10.2917 12.5234 10.2031 12.4297C10.1146 12.3307 9.99481 12.2812 9.84377 12.2812H2.27344C2.1224 12.2812 2.0026 12.3307 1.91406 12.4297C1.82552 12.5234 1.78125 12.6432 1.78125 12.7891C1.78125 12.9297 1.82552 13.0495 1.91406 13.1484C2.0026 13.2474 2.1224 13.2969 2.27344 13.2969ZM2.27344 15.9766H9.84377C9.99481 15.9766 10.1146 15.9271 10.2031 15.8281C10.2917 15.7292 10.336 15.6094 10.336 15.4688C10.336 15.3229 10.2917 15.2005 10.2031 15.1016C10.1146 15.0026 9.99481 14.9531 9.84377 14.9531H2.27344C2.1224 14.9531 2.0026 15.0026 1.91406 15.1016C1.82552 15.2005 1.78125 15.3229 1.78125 15.4688C1.78125 15.6094 1.82552 15.7292 1.91406 15.8281C2.0026 15.9271 2.1224 15.9766 2.27344 15.9766Z"
		fill="currentColor"
	/>
</svg>
