<svg
	color="rgb(var(--foreground, 0, 0, 0))"
	viewBox="0 0 21 24"
	fill="none"
	xmlns="http://www.w3.org/2000/svg"
>
	<path
		d="M0.184326 7.43225C0.184326 7.72913 0.254639 7.99996 0.395264 8.24475C0.535889 8.48433 0.725993 8.67444 0.965576 8.81506C1.20516 8.95048 1.47339 9.01819 1.77026 9.01819H19.2859C19.5828 9.01819 19.851 8.95048 20.0906 8.81506C20.3302 8.67444 20.5203 8.48433 20.6609 8.24475C20.8015 7.99996 20.8718 7.72913 20.8718 7.43225C20.8718 7.12496 20.8015 6.85152 20.6609 6.61194C20.5203 6.37236 20.3302 6.18486 20.0906 6.04944C19.851 5.90881 19.5828 5.8385 19.2859 5.8385H1.77026C1.47339 5.8385 1.20516 5.90881 0.965576 6.04944C0.725993 6.18486 0.535889 6.37236 0.395264 6.61194C0.254639 6.85152 0.184326 7.12496 0.184326 7.43225ZM1.42651 7.43225C1.42651 7.32288 1.46297 7.23433 1.53589 7.16663C1.61401 7.09371 1.71037 7.05725 1.82495 7.05725H19.2312C19.3458 7.05725 19.4395 7.09371 19.5125 7.16663C19.5906 7.23433 19.6296 7.32288 19.6296 7.43225C19.6296 7.53642 19.5906 7.62496 19.5125 7.69788C19.4395 7.76558 19.3458 7.79944 19.2312 7.79944H1.82495C1.71037 7.79944 1.61401 7.76558 1.53589 7.69788C1.46297 7.62496 1.42651 7.53642 1.42651 7.43225ZM6.02026 16.3776H15.0437C16.5125 16.3776 17.6218 16.0208 18.3718 15.3073C19.127 14.5937 19.5046 13.539 19.5046 12.1432V8.43225H18.2468V12.1432C18.2468 13.1276 17.976 13.8698 17.4343 14.3698C16.8927 14.8698 16.0958 15.1198 15.0437 15.1198H6.02026C4.96297 15.1198 4.16349 14.8698 3.62183 14.3698C3.08016 13.8698 2.80933 13.1276 2.80933 12.1432V8.43225H1.55151V12.1432C1.55151 13.539 1.92651 14.5937 2.67651 15.3073C3.43172 16.0208 4.54631 16.3776 6.02026 16.3776ZM3.84058 18.1198C4.00203 18.1823 4.16089 18.1744 4.31714 18.0963C4.4786 18.0234 4.58797 17.9062 4.64526 17.7448L5.30933 15.9088L4.12964 15.4791L3.46558 17.3151C3.40828 17.4765 3.4161 17.6354 3.48901 17.7916C3.56193 17.9531 3.67912 18.0625 3.84058 18.1198ZM17.2234 18.1198C17.3796 18.0625 17.4942 17.9531 17.5671 17.7916C17.6401 17.6354 17.6479 17.4765 17.5906 17.3151L16.9265 15.4791L15.7468 15.9088L16.4109 17.7448C16.4682 17.9062 16.575 18.0234 16.7312 18.0963C16.8927 18.1744 17.0567 18.1823 17.2234 18.1198Z"
		fill="currentColor"
	/>
</svg>
