<svg
	color="rgb(var(--foreground, 0, 0, 0))"
	viewBox="0 0 21 24"
	fill="none"
	xmlns="http://www.w3.org/2000/svg"
>
	<path
		d="M0.871826 6.89319C0.871826 7.17444 0.970785 7.41402 1.1687 7.61194C1.36662 7.80986 1.6062 7.90881 1.88745 7.90881H19.864C20.1453 7.90881 20.3848 7.80986 20.5828 7.61194C20.7859 7.41402 20.8875 7.17444 20.8875 6.89319C20.8875 6.61194 20.7859 6.37236 20.5828 6.17444C20.3848 5.97652 20.1453 5.87756 19.864 5.87756H1.88745C1.6062 5.87756 1.36662 5.97652 1.1687 6.17444C0.970785 6.37236 0.871826 6.61194 0.871826 6.89319ZM6.36401 16.3385H15.3875C16.8614 16.3385 17.9734 15.9817 18.7234 15.2682C19.4786 14.5546 19.8562 13.5 19.8562 12.1041V8.97131H1.90308V12.1041C1.90308 13.5 2.27808 14.5546 3.02808 15.2682C3.78328 15.9817 4.89526 16.3385 6.36401 16.3385ZM4.18433 18.0807C4.35099 18.1432 4.51245 18.1354 4.6687 18.0573C4.83016 17.9843 4.93953 17.8671 4.99683 17.7057L5.66089 15.8698L4.4812 15.4401L3.81714 17.276C3.75985 17.4375 3.76766 17.5963 3.84058 17.7526C3.91349 17.914 4.02808 18.0234 4.18433 18.0807ZM17.5671 18.0807C17.7286 18.0234 17.8458 17.914 17.9187 17.7526C17.9916 17.5963 17.9994 17.4375 17.9421 17.276L17.2781 15.4401L16.0906 15.8698L16.7546 17.7057C16.8171 17.8671 16.9265 17.9843 17.0828 18.0573C17.2442 18.1354 17.4057 18.1432 17.5671 18.0807Z"
		fill="currentColor"
	/>
</svg>
