<svg
	color="rgb(var(--foreground, 0, 0, 0))"
	viewBox="0 0 21 24"
	fill="none"
	xmlns="http://www.w3.org/2000/svg"
>
	<path
		d="M0.796875 17.9258C0.796875 18.1289 0.856771 18.2904 0.976562 18.4102C1.09635 18.5299 1.25781 18.5898 1.46094 18.5898H1.92969C2.1276 18.5898 2.28646 18.5299 2.40625 18.4102C2.53125 18.2904 2.59375 18.1289 2.59375 17.9258V16.7695C2.64062 16.7799 2.71615 16.7904 2.82031 16.8008C2.92969 16.806 3.03125 16.8086 3.125 16.8086H18.2656C18.3594 16.8086 18.4609 16.806 18.5703 16.8008C18.6797 16.7904 18.7552 16.7799 18.7969 16.7695V17.9258C18.7969 18.1289 18.8568 18.2904 18.9766 18.4102C19.1016 18.5299 19.263 18.5898 19.4609 18.5898H19.9297C20.1328 18.5898 20.2943 18.5299 20.4141 18.4102C20.5339 18.2904 20.5938 18.1289 20.5938 17.9258V13.2695C20.5938 12.5247 20.3932 11.9544 19.9922 11.5586C19.5964 11.1576 19.0234 10.957 18.2734 10.957H3.11719C2.3724 10.957 1.79948 11.1576 1.39844 11.5586C0.997396 11.9544 0.796875 12.5247 0.796875 13.2695V17.9258ZM2.67188 9.83984H4.65625V8.71484C4.65625 8.35026 4.75521 8.07161 4.95312 7.87891C5.15104 7.6862 5.4349 7.58984 5.80469 7.58984H8.71875C9.08854 7.58984 9.36979 7.6862 9.5625 7.87891C9.76042 8.07161 9.85938 8.35026 9.85938 8.71484V9.83984H11.6328V8.71484C11.6328 8.35026 11.7318 8.07161 11.9297 7.87891C12.1328 7.6862 12.4297 7.58984 12.8203 7.58984H15.5547C15.9453 7.58984 16.2396 7.6862 16.4375 7.87891C16.6406 8.07161 16.7422 8.35026 16.7422 8.71484V9.83984H18.7344V7.59766C18.7344 6.8737 18.5443 6.32943 18.1641 5.96484C17.7891 5.59505 17.2526 5.41016 16.5547 5.41016H4.85156C4.14844 5.41016 3.60938 5.59505 3.23438 5.96484C2.85938 6.32943 2.67188 6.8737 2.67188 7.59766V9.83984Z"
		fill="currentColor"
	/>
</svg>
