<svg
	color="rgb(var(--foreground, 0, 0, 0))"
	viewBox="0 0 20 24"
	fill="none"
	xmlns="http://www.w3.org/2000/svg"
>
	<path
		d="M0.664062 18.5898H1.13281C1.33073 18.5898 1.48958 18.5299 1.60938 18.4102C1.73438 18.2904 1.79688 18.1289 1.79688 17.9258V16.7695C1.84375 16.7799 1.91927 16.7904 2.02344 16.8008C2.13281 16.806 2.23438 16.8086 2.32812 16.8086H17.4688C17.5625 16.8086 17.6641 16.806 17.7734 16.8008C17.8828 16.7904 17.9583 16.7799 18 16.7695V17.9258C18 18.1289 18.0599 18.2904 18.1797 18.4102C18.3047 18.5299 18.4661 18.5898 18.6641 18.5898H19.1328C19.3359 18.5898 19.4974 18.5299 19.6172 18.4102C19.737 18.2904 19.7969 18.1289 19.7969 17.9258V12.5742C19.7969 11.8294 19.599 11.2617 19.2031 10.8711C18.8125 10.4753 18.2422 10.2773 17.4922 10.2773H2.30469C1.5599 10.2773 0.989583 10.4753 0.59375 10.8711C0.197917 11.2617 0 11.8294 0 12.5742V17.9258C0 18.1289 0.0598958 18.2904 0.179688 18.4102C0.299479 18.5299 0.460938 18.5898 0.664062 18.5898ZM1.5625 15.668C1.38542 15.668 1.29688 15.5664 1.29688 15.3633V12.3945C1.29688 12.0977 1.38802 11.8607 1.57031 11.6836C1.7526 11.5065 1.99479 11.418 2.29688 11.418H17.5078C17.8099 11.418 18.0495 11.5065 18.2266 11.6836C18.4089 11.8607 18.5 12.0977 18.5 12.3945V15.3633C18.5 15.5664 18.4115 15.668 18.2344 15.668H1.5625ZM2.03125 10.4414H4.08594V8.83203C4.08594 8.47266 4.1849 8.19661 4.38281 8.00391C4.58073 7.80599 4.86458 7.70703 5.23438 7.70703H7.97656C8.34115 7.70703 8.6224 7.80599 8.82031 8.00391C9.01823 8.19661 9.11719 8.47266 9.11719 8.83203V10.4414H10.6797V8.83203C10.6797 8.47266 10.7786 8.19661 10.9766 8.00391C11.1745 7.80599 11.4557 7.70703 11.8203 7.70703H14.5625C14.9323 7.70703 15.2161 7.80599 15.4141 8.00391C15.612 8.19661 15.7109 8.47266 15.7109 8.83203V10.4414H17.7656V7.59766C17.7656 6.8737 17.5781 6.32943 17.2031 5.96484C16.8281 5.59505 16.2891 5.41016 15.5859 5.41016H4.21094C3.51302 5.41016 2.97396 5.59505 2.59375 5.96484C2.21875 6.32943 2.03125 6.8737 2.03125 7.59766V10.4414Z"
		fill="currentColor"
	/>
</svg>
