<svg
	color="rgb(var(--foreground, 0, 0, 0))"
	viewBox="0 0 12 24"
	fill="none"
	xmlns="http://www.w3.org/2000/svg"
>
	<path
		d="M2.88434 11.9727H4.22028V8.65234H2.88434V11.9727ZM8.39215 11.9727H9.72809V8.65234H8.39215V11.9727ZM2.13434 20.457H2.37653C2.56923 20.457 2.72548 20.3971 2.84528 20.2773C2.96507 20.1575 3.02496 20.0013 3.02496 19.8086V14.7539H1.4859V19.8086C1.4859 20.0013 1.5458 20.1575 1.66559 20.2773C1.79059 20.3971 1.94684 20.457 2.13434 20.457ZM2.61871 16.9805H9.99371V15.8008H2.61871V16.9805ZM10.2359 20.457H10.4781C10.6656 20.457 10.8192 20.3971 10.939 20.2773C11.064 20.1575 11.1265 20.0013 11.1265 19.8086V14.7539H9.58746V19.8086C9.58746 20.0013 9.64736 20.1575 9.76715 20.2773C9.88694 20.3971 10.0432 20.457 10.2359 20.457ZM2.64215 9.33984H9.97028C10.8765 9.33984 11.3297 8.89974 11.3297 8.01953V4.86328C11.3297 3.98307 10.8765 3.54297 9.97028 3.54297H2.64215C1.7359 3.54297 1.28278 3.98307 1.28278 4.86328V8.01953C1.28278 8.89974 1.7359 9.33984 2.64215 9.33984ZM1.94684 15.1602H10.6656C11.525 15.1602 11.9547 14.7461 11.9547 13.918V12.7305C11.9547 11.9023 11.525 11.4883 10.6656 11.4883H1.94684C1.08746 11.4883 0.657776 11.9023 0.657776 12.7305V13.918C0.657776 14.7461 1.08746 15.1602 1.94684 15.1602Z"
		fill="currentColor"
	/>
</svg>
