<svg
	color="rgb(var(--foreground, 0, 0, 0))"
	viewBox="0 0 12 24"
	fill="none"
	xmlns="http://www.w3.org/2000/svg"
>
	<path
		d="M2.34528 9.33984H9.67342C10.5797 9.33984 11.0328 8.89974 11.0328 8.01953V4.86328C11.0328 3.98307 10.5797 3.54297 9.67342 3.54297H2.34528C1.43903 3.54297 0.985901 3.98307 0.985901 4.86328V8.01953C0.985901 8.89974 1.43903 9.33984 2.34528 9.33984ZM2.78278 8.02734C2.62653 8.02734 2.50673 7.98828 2.4234 7.91016C2.34007 7.83203 2.2984 7.71745 2.2984 7.56641V5.30859C2.2984 5.16276 2.34007 5.05078 2.4234 4.97266C2.50673 4.89453 2.62653 4.85547 2.78278 4.85547H9.23592C9.39217 4.85547 9.51196 4.89453 9.59529 4.97266C9.67862 5.05078 9.72029 5.16276 9.72029 5.30859V7.56641C9.72029 7.71745 9.67862 7.83203 9.59529 7.91016C9.51196 7.98828 9.39217 8.02734 9.23592 8.02734H2.78278ZM2.58746 11.9727H4.07965V8.65234H2.58746V11.9727ZM7.93904 11.9727H9.43123V8.65234H7.93904V11.9727ZM1.64996 15.1602H10.3687C11.2281 15.1602 11.6578 14.7461 11.6578 13.918V12.7305C11.6578 11.9023 11.2281 11.4883 10.3687 11.4883H1.64996C0.790588 11.4883 0.360901 11.9023 0.360901 12.7305V13.918C0.360901 14.7461 0.790588 15.1602 1.64996 15.1602ZM2.00934 13.8477C1.78538 13.8477 1.6734 13.7461 1.6734 13.543V13.1055C1.6734 12.9023 1.78538 12.8008 2.00934 12.8008H10.0094C10.2333 12.8008 10.3453 12.9023 10.3453 13.1055V13.543C10.3453 13.7461 10.2333 13.8477 10.0094 13.8477H2.00934ZM1.83746 20.457H2.07965C2.27236 20.457 2.42861 20.3971 2.5484 20.2773C2.66819 20.1575 2.72809 20.0013 2.72809 19.8086V14.7539H1.18903V19.8086C1.18903 20.0013 1.24892 20.1575 1.36871 20.2773C1.49371 20.3971 1.64996 20.457 1.83746 20.457ZM2.32184 16.9805H9.69685V15.8008H2.32184V16.9805ZM9.93904 20.457H10.1812C10.3687 20.457 10.5224 20.3971 10.6422 20.2773C10.7672 20.1575 10.8297 20.0013 10.8297 19.8086V14.7539H9.2906V19.8086C9.2906 20.0013 9.3505 20.1575 9.47029 20.2773C9.59008 20.3971 9.74633 20.457 9.93904 20.457Z"
		fill="currentColor"
	/>
</svg>
