<svg
	color="rgb(var(--foreground, 0, 0, 0))"
	viewBox="0 0 14 24"
	fill="none"
	xmlns="http://www.w3.org/2000/svg"
>
	<path
		d="M2.45465 19.6641H6.46246V2.89062H2.45465C1.91819 2.89062 1.4833 3.0625 1.14996 3.40625C0.81663 3.74479 0.649963 4.19531 0.649963 4.75781V17.7969C0.649963 18.3594 0.81663 18.8099 1.14996 19.1484C1.4833 19.4922 1.91819 19.6641 2.45465 19.6641ZM4.55621 12.3906C4.33226 12.3906 4.13694 12.3099 3.97028 12.1484C3.80882 11.987 3.72809 11.7943 3.72809 11.5703C3.72809 11.3411 3.80882 11.1458 3.97028 10.9844C4.13694 10.8229 4.33226 10.7422 4.55621 10.7422C4.78538 10.7422 4.98069 10.8229 5.14215 10.9844C5.30361 11.1458 5.38434 11.3411 5.38434 11.5703C5.38434 11.7943 5.30361 11.987 5.14215 12.1484C4.98069 12.3099 4.78538 12.3906 4.55621 12.3906ZM11.5406 19.6641C12.077 19.6641 12.5119 19.4922 12.8453 19.1484C13.1786 18.8099 13.3453 18.3594 13.3453 17.7969V4.75781C13.3453 4.19531 13.1786 3.74479 12.8453 3.40625C12.5119 3.0625 12.077 2.89062 11.5406 2.89062H7.53278V19.6641H11.5406ZM9.43121 12.3906C9.20726 12.3906 9.01194 12.3099 8.84528 12.1484C8.68382 11.987 8.60309 11.7943 8.60309 11.5703C8.60309 11.3411 8.68382 11.1458 8.84528 10.9844C9.01194 10.8229 9.20726 10.7422 9.43121 10.7422C9.66038 10.7422 9.85569 10.8229 10.0172 10.9844C10.1786 11.1458 10.2593 11.3411 10.2593 11.5703C10.2593 11.7943 10.1786 11.987 10.0172 12.1484C9.85569 12.3099 9.66038 12.3906 9.43121 12.3906ZM2.93903 21.1094C3.13173 21.1094 3.28798 21.0495 3.40778 20.9297C3.52757 20.8099 3.58746 20.651 3.58746 20.4531V18.8828H2.29059V20.4531C2.29059 20.651 2.35048 20.8099 2.47028 20.9297C2.59007 21.0495 2.74632 21.1094 2.93903 21.1094ZM11.0562 21.1094C11.2489 21.1094 11.4052 21.0495 11.525 20.9297C11.6448 20.8099 11.7047 20.651 11.7047 20.4531V18.8828H10.4078V20.4531C10.4078 20.651 10.4677 20.8099 10.5875 20.9297C10.7073 21.0495 10.8635 21.1094 11.0562 21.1094Z"
		fill="currentColor"
	/>
</svg>
