<svg
	color="rgb(var(--foreground, 0, 0, 0))"
	viewBox="0 0 14 24"
	fill="none"
	xmlns="http://www.w3.org/2000/svg"
>
	<path
		d="M2.75934 19.5078H11.8453C12.3817 19.5078 12.8166 19.3359 13.15 18.9922C13.4833 18.6536 13.65 18.2031 13.65 17.6406V4.91406C13.65 4.35156 13.4833 3.90104 13.15 3.5625C12.8166 3.21875 12.3817 3.04688 11.8453 3.04688H2.75934C2.22288 3.04688 1.78798 3.21875 1.45465 3.5625C1.12132 3.90104 0.954651 4.35156 0.954651 4.91406V17.6406C0.954651 18.2031 1.12132 18.6536 1.45465 18.9922C1.78798 19.3359 2.22288 19.5078 2.75934 19.5078ZM2.82184 18.25C2.63955 18.25 2.49111 18.1927 2.37653 18.0781C2.26715 17.9688 2.21246 17.8203 2.21246 17.6328V4.92188C2.21246 4.73438 2.26715 4.58594 2.37653 4.47656C2.49111 4.36198 2.63955 4.30469 2.82184 4.30469H11.7828C11.9651 4.30469 12.1109 4.36198 12.2203 4.47656C12.3349 4.58594 12.3922 4.73438 12.3922 4.92188V17.6328C12.3922 17.8203 12.3349 17.9688 12.2203 18.0781C12.1109 18.1927 11.9651 18.25 11.7828 18.25H2.82184ZM6.79059 18.8359H7.81403V3.69531H6.79059V18.8359ZM5.27496 12.3906C5.50413 12.3906 5.69944 12.3099 5.8609 12.1484C6.02236 11.987 6.10309 11.7943 6.10309 11.5703C6.10309 11.3411 6.02236 11.1458 5.8609 10.9844C5.69944 10.8229 5.50413 10.7422 5.27496 10.7422C5.05101 10.7422 4.85569 10.8229 4.68903 10.9844C4.52757 11.1458 4.44684 11.3411 4.44684 11.5703C4.44684 11.7943 4.52757 11.987 4.68903 12.1484C4.85569 12.3099 5.05101 12.3906 5.27496 12.3906ZM9.32184 12.3906C9.55101 12.3906 9.74632 12.3099 9.90778 12.1484C10.0692 11.987 10.15 11.7943 10.15 11.5703C10.15 11.3411 10.0692 11.1458 9.90778 10.9844C9.74632 10.8229 9.55101 10.7422 9.32184 10.7422C9.09788 10.7422 8.90257 10.8229 8.7359 10.9844C8.57444 11.1458 8.49371 11.3411 8.49371 11.5703C8.49371 11.7943 8.57444 11.987 8.7359 12.1484C8.90257 12.3099 9.09788 12.3906 9.32184 12.3906ZM3.24371 20.9531C3.43642 20.9531 3.59267 20.8932 3.71246 20.7734C3.83226 20.6536 3.89215 20.4948 3.89215 20.2969V18.7266H2.59528V20.2969C2.59528 20.4948 2.65517 20.6536 2.77496 20.7734C2.89476 20.8932 3.05101 20.9531 3.24371 20.9531ZM11.3609 20.9531C11.5536 20.9531 11.7099 20.8932 11.8297 20.7734C11.9494 20.6536 12.0093 20.4948 12.0093 20.2969V18.7266H10.7125V20.2969C10.7125 20.4948 10.7724 20.6536 10.8922 20.7734C11.0119 20.8932 11.1682 20.9531 11.3609 20.9531Z"
		fill="currentColor"
	/>
</svg>
