<svg
	color="rgb(var(--foreground, 0, 0, 0))"
	viewBox="0 0 25 24"
	fill="none"
	xmlns="http://www.w3.org/2000/svg"
>
	<path
		d="M5.70312 12.2695H12.2031V6.83984C12.2031 6.32943 12.0521 5.92057 11.75 5.61328C11.4479 5.30078 11.0521 5.14453 10.5625 5.14453H4.61719C4.1276 5.14453 3.73177 5.30078 3.42969 5.61328C3.1276 5.92057 2.97656 6.32943 2.97656 6.83984V8.27734H3.19531C3.67969 8.27734 4.10938 8.38672 4.48438 8.60547C4.86458 8.81901 5.16146 9.11849 5.375 9.50391C5.59375 9.88411 5.70312 10.319 5.70312 10.8086V12.2695ZM13.1484 12.2695H19.6484V10.8086C19.6484 10.319 19.7552 9.88411 19.9688 9.50391C20.1875 9.11849 20.4844 8.81901 20.8594 8.60547C21.2396 8.38672 21.6719 8.27734 22.1562 8.27734H22.375V6.83984C22.375 6.32943 22.224 5.92057 21.9219 5.61328C21.6198 5.30078 21.224 5.14453 20.7344 5.14453H14.7891C14.2995 5.14453 13.9036 5.30078 13.6016 5.61328C13.2995 5.92057 13.1484 6.32943 13.1484 6.83984V12.2695ZM0.757812 15.5586C0.757812 16.0482 0.903646 16.4414 1.19531 16.7383C1.49219 17.0352 1.88021 17.1836 2.35938 17.1836H22.9922C23.4714 17.1836 23.8568 17.0352 24.1484 16.7383C24.4453 16.4414 24.5938 16.0482 24.5938 15.5586V10.8086C24.5938 10.3242 24.4453 9.93359 24.1484 9.63672C23.8568 9.33464 23.4714 9.18359 22.9922 9.18359H22.1562C21.6771 9.18359 21.2917 9.33464 21 9.63672C20.7083 9.93359 20.5625 10.3242 20.5625 10.8086V13.1758H4.79688V10.8086C4.79688 10.3242 4.64844 9.93359 4.35156 9.63672C4.0599 9.33464 3.67448 9.18359 3.19531 9.18359H2.35938C1.88021 9.18359 1.49219 9.33464 1.19531 9.63672C0.903646 9.93359 0.757812 10.3242 0.757812 10.8086V15.5586ZM3.51562 18.8555H4.00781C4.21615 18.8555 4.38281 18.793 4.50781 18.668C4.63281 18.543 4.69531 18.3763 4.69531 18.168V16.5117H2.82812V18.168C2.82812 18.3763 2.89062 18.543 3.01562 18.668C3.14062 18.793 3.30729 18.8555 3.51562 18.8555ZM21.3438 18.8555H21.8359C22.0443 18.8555 22.2109 18.793 22.3359 18.668C22.4609 18.543 22.5234 18.3763 22.5234 18.168V16.5117H20.6562V18.168C20.6562 18.3763 20.7188 18.543 20.8438 18.668C20.9688 18.793 21.1354 18.8555 21.3438 18.8555Z"
		fill="currentColor"
	/>
</svg>
