<svg
	color="rgb(var(--foreground, 0, 0, 0))"
	viewBox="0 0 25 24"
	fill="none"
	xmlns="http://www.w3.org/2000/svg"
>
	<path
		d="M2.97656 9.73828H4.29688V7.09766C4.29688 6.90495 4.35417 6.7513 4.46875 6.63672C4.58854 6.51693 4.73958 6.45703 4.92188 6.45703H11.3906C11.5781 6.45703 11.7292 6.51693 11.8438 6.63672C11.9583 6.7513 12.0156 6.90495 12.0156 7.09766V13.3008H13.3359V7.08984C13.3359 6.5013 13.1615 6.02995 12.8125 5.67578C12.4688 5.32161 12.0156 5.14453 11.4531 5.14453H4.86719C4.29948 5.14453 3.84115 5.32161 3.49219 5.67578C3.14844 6.02995 2.97656 6.5013 2.97656 7.08984V9.73828ZM22.5469 9.73828V7.08984C22.5469 6.5013 22.3724 6.02995 22.0234 5.67578C21.6797 5.32161 21.224 5.14453 20.6562 5.14453H13.8984C13.3359 5.14453 12.8802 5.32161 12.5312 5.67578C12.1875 6.02995 12.0156 6.5013 12.0156 7.08984V13.3008H13.3359V7.09766C13.3359 6.90495 13.3932 6.7513 13.5078 6.63672C13.6224 6.51693 13.7734 6.45703 13.9609 6.45703H20.6016C20.7891 6.45703 20.9401 6.51693 21.0547 6.63672C21.1693 6.7513 21.2266 6.90495 21.2266 7.09766V9.73828H22.5469ZM0.59375 15.3945C0.59375 15.957 0.763021 16.4102 1.10156 16.7539C1.44531 17.0924 1.89323 17.2617 2.44531 17.2617H22.9062C23.4635 17.2617 23.9115 17.0924 24.25 16.7539C24.5885 16.4102 24.7578 15.957 24.7578 15.3945V10.6445C24.7578 10.082 24.5885 9.63151 24.25 9.29297C23.9115 8.94922 23.4635 8.77734 22.9062 8.77734H21.8281C21.276 8.77734 20.8307 8.94922 20.4922 9.29297C20.1536 9.63151 19.9844 10.082 19.9844 10.6445V12.5195H5.375V10.6445C5.375 10.082 5.20312 9.63151 4.85938 9.29297C4.52083 8.94922 4.07552 8.77734 3.52344 8.77734H2.44531C1.89323 8.77734 1.44531 8.94922 1.10156 9.29297C0.763021 9.63151 0.59375 10.082 0.59375 10.6445V15.3945ZM1.92188 15.3789V10.6602C1.92188 10.4883 1.97396 10.3503 2.07812 10.2461C2.1875 10.1419 2.33073 10.0898 2.50781 10.0898H3.45312C3.63021 10.0898 3.77344 10.1419 3.88281 10.2461C3.99219 10.3503 4.04688 10.4883 4.04688 10.6602V13.832H21.3047V10.6602C21.3047 10.4883 21.3594 10.3503 21.4688 10.2461C21.5781 10.1419 21.7214 10.0898 21.8984 10.0898H22.8438C23.0208 10.0898 23.1641 10.1419 23.2734 10.2461C23.3828 10.3503 23.4375 10.4883 23.4375 10.6602V15.3789C23.4375 15.5508 23.3828 15.6888 23.2734 15.793C23.1641 15.8971 23.0208 15.9492 22.8438 15.9492H2.50781C2.33073 15.9492 2.1875 15.8971 2.07812 15.793C1.97396 15.6888 1.92188 15.5508 1.92188 15.3789ZM3.4375 18.8555H3.92188C4.13021 18.8555 4.29688 18.793 4.42188 18.668C4.55208 18.543 4.61719 18.3763 4.61719 18.168V16.5117H2.74219V18.168C2.74219 18.3763 2.80469 18.543 2.92969 18.668C3.0599 18.793 3.22917 18.8555 3.4375 18.8555ZM21.4297 18.8555H21.9141C22.1224 18.8555 22.2891 18.793 22.4141 18.668C22.5443 18.543 22.6094 18.3763 22.6094 18.168V16.5117H20.7344V18.168C20.7344 18.3763 20.7969 18.543 20.9219 18.668C21.0521 18.793 21.2214 18.8555 21.4297 18.8555Z"
		fill="currentColor"
	/>
</svg>
