<svg
	color="rgb(var(--foreground, 0, 0, 0))"
	viewBox="0 0 13 24"
	fill="none"
	xmlns="http://www.w3.org/2000/svg"
>
	<path
		d="M1.03125 20.2891C1.20833 20.2891 1.35677 20.2266 1.47656 20.1016C1.60156 19.9818 1.66406 19.8359 1.66406 19.6641V5.38281C1.66406 5.10677 1.79688 4.96875 2.0625 4.96875H10.6562C10.9219 4.96875 11.0547 5.10677 11.0547 5.38281V19.6641C11.0547 19.8359 11.1146 19.9818 11.2344 20.1016C11.3594 20.2266 11.5104 20.2891 11.6875 20.2891C11.8594 20.2891 12.0052 20.2266 12.125 20.1016C12.25 19.9818 12.3125 19.8359 12.3125 19.6641V5.30469C12.3125 4.82552 12.1615 4.4401 11.8594 4.14844C11.5625 3.85677 11.1693 3.71094 10.6797 3.71094H2.03906C1.54948 3.71094 1.15365 3.85677 0.851562 4.14844C0.554688 4.4401 0.40625 4.82552 0.40625 5.30469V19.6641C0.40625 19.8359 0.466146 19.9818 0.585938 20.1016C0.710938 20.2266 0.859375 20.2891 1.03125 20.2891ZM2.84375 20.0156H9.88281C10.0547 20.0156 10.1406 19.9271 10.1406 19.75V6.14062C10.1406 5.96354 10.0547 5.875 9.88281 5.875H2.84375C2.66667 5.875 2.57812 5.96354 2.57812 6.14062V19.75C2.57812 19.9271 2.66667 20.0156 2.84375 20.0156ZM8.28125 13.7344C8.10938 13.7344 7.96094 13.6745 7.83594 13.5547C7.71615 13.4297 7.65625 13.2812 7.65625 13.1094C7.65625 12.9323 7.71615 12.7839 7.83594 12.6641C7.96094 12.5443 8.10938 12.4844 8.28125 12.4844C8.45833 12.4844 8.60677 12.5443 8.72656 12.6641C8.84635 12.7839 8.90625 12.9323 8.90625 13.1094C8.90625 13.2812 8.84635 13.4297 8.72656 13.5547C8.60677 13.6745 8.45833 13.7344 8.28125 13.7344Z"
		fill="currentColor"
	/>
</svg>
