<svg
	color="rgb(var(--foreground, 0, 0, 0))"
	viewBox="0 0 13 24"
	fill="none"
	xmlns="http://www.w3.org/2000/svg"
>
	<path
		d="M0.5 19.6641C0.5 19.8359 0.559896 19.9818 0.679688 20.1016C0.804688 20.2266 0.953125 20.2891 1.125 20.2891C1.30208 20.2891 1.45052 20.2266 1.57031 20.1016C1.69531 19.9818 1.75781 19.8359 1.75781 19.6641V5.38281C1.75781 5.10677 1.89062 4.96875 2.15625 4.96875H10.75C11.0156 4.96875 11.1484 5.10677 11.1484 5.38281V19.6641C11.1484 19.8359 11.2083 19.9818 11.3281 20.1016C11.4531 20.2266 11.6042 20.2891 11.7812 20.2891C11.9531 20.2891 12.099 20.2266 12.2188 20.1016C12.3438 19.9818 12.4062 19.8359 12.4062 19.6641V5.30469C12.4062 4.82552 12.2552 4.4401 11.9531 4.14844C11.6562 3.85677 11.263 3.71094 10.7734 3.71094H2.13281C1.64323 3.71094 1.2474 3.85677 0.945312 4.14844C0.648438 4.4401 0.5 4.82552 0.5 5.30469V19.6641ZM2.67188 19.8438C2.67188 19.9167 2.69792 19.9688 2.75 20C2.80729 20.0365 2.8724 20.0391 2.94531 20.0078L5.39844 18.9219C5.4974 18.8802 5.56771 18.8359 5.60938 18.7891C5.65104 18.7422 5.67188 18.6693 5.67188 18.5703V7.3125C5.67188 7.21354 5.65104 7.14323 5.60938 7.10156C5.56771 7.05469 5.5 7.01042 5.40625 6.96875L2.94531 5.875C2.8724 5.84375 2.80729 5.84635 2.75 5.88281C2.69792 5.91406 2.67188 5.96875 2.67188 6.04688V19.8438Z"
		fill="currentColor"
	/>
</svg>
