<svg
	color="rgb(var(--foreground, 0, 0, 0))"
	viewBox="0 0 14 24"
	fill="none"
	xmlns="http://www.w3.org/2000/svg"
>
	<path
		d="M6.84473 15.3789C7.7041 15.3789 8.51139 15.2174 9.2666 14.8945C10.0218 14.5716 10.6859 14.1237 11.2588 13.5508C11.8317 12.9779 12.2796 12.3164 12.6025 11.5664C12.9255 10.8112 13.0869 10.0039 13.0869 9.14453C13.0869 8.28516 12.9255 7.47786 12.6025 6.72266C12.2796 5.96745 11.8317 5.30599 11.2588 4.73828C10.6859 4.16536 10.0218 3.71745 9.2666 3.39453C8.51139 3.06641 7.7041 2.90234 6.84473 2.90234C5.98535 2.90234 5.17806 3.0638 4.42285 3.38672C3.67285 3.70964 3.01139 4.15755 2.43848 4.73047C1.86556 5.30339 1.41764 5.96745 1.09473 6.72266C0.77181 7.47786 0.610352 8.28516 0.610352 9.14453C0.610352 10.0039 0.77181 10.8112 1.09473 11.5664C1.41764 12.3164 1.86556 12.9779 2.43848 13.5508C3.01139 14.1237 3.67285 14.5716 4.42285 14.8945C5.17806 15.2174 5.98535 15.3789 6.84473 15.3789ZM6.85254 14.2383C6.14941 14.2383 5.49056 14.1055 4.87598 13.8398C4.26139 13.5742 3.71973 13.2096 3.25098 12.7461C2.78743 12.2773 2.42285 11.7357 2.15723 11.1211C1.89681 10.5065 1.7666 9.84505 1.7666 9.13672C1.7666 8.43359 1.89681 7.77474 2.15723 7.16016C2.42285 6.54557 2.78743 6.00651 3.25098 5.54297C3.71973 5.07422 4.26139 4.70964 4.87598 4.44922C5.49056 4.18359 6.14941 4.05078 6.85254 4.05078C7.55566 4.05078 8.21452 4.18359 8.8291 4.44922C9.44889 4.70964 9.99056 5.07422 10.4541 5.54297C10.9229 6.00651 11.2874 6.54557 11.5479 7.16016C11.8083 7.77474 11.9385 8.43359 11.9385 9.13672C11.9385 9.84505 11.8083 10.5065 11.5479 11.1211C11.2874 11.7357 10.9229 12.2773 10.4541 12.7461C9.99056 13.2096 9.44889 13.5742 8.8291 13.8398C8.21452 14.1055 7.55566 14.2383 6.85254 14.2383ZM4.93066 12.9883C5.37858 12.9883 5.74056 12.806 6.0166 12.4414C6.29785 12.0716 6.56608 11.5404 6.82129 10.8477C6.88379 10.8529 6.94108 10.8555 6.99316 10.8555C7.04525 10.8503 7.09993 10.8398 7.15723 10.8242V12.2227C7.15723 12.5664 7.24316 12.8294 7.41504 13.0117C7.58691 13.194 7.84212 13.2852 8.18066 13.2852C8.59733 13.2852 8.99577 13.1784 9.37598 12.9648C9.75618 12.7461 10.0661 12.4701 10.3057 12.1367C10.5505 11.8034 10.6729 11.4622 10.6729 11.1133C10.6729 10.6602 10.4906 10.2982 10.126 10.0273C9.7666 9.7513 9.24837 9.48828 8.57129 9.23828C8.5765 9.17578 8.5765 9.11589 8.57129 9.05859C8.57129 8.99609 8.56868 8.93359 8.56348 8.87109H9.8916C10.2354 8.87109 10.4984 8.78516 10.6807 8.61328C10.863 8.4362 10.9541 8.17839 10.9541 7.83984C10.9541 7.42839 10.8473 7.03255 10.6338 6.65234C10.4202 6.27214 10.1468 5.96224 9.81348 5.72266C9.48014 5.48307 9.13639 5.36328 8.78223 5.36328C8.34473 5.36328 7.98796 5.54036 7.71191 5.89453C7.43587 6.2487 7.17546 6.75651 6.93066 7.41797C6.86816 7.41797 6.80306 7.42057 6.73535 7.42578C6.67285 7.42578 6.61296 7.43359 6.55566 7.44922V6.13672C6.55566 5.79297 6.46712 5.52995 6.29004 5.34766C6.11816 5.16016 5.86556 5.06641 5.53223 5.06641C5.11556 5.06641 4.71712 5.17578 4.33691 5.39453C3.95671 5.60807 3.64421 5.88151 3.39941 6.21484C3.15462 6.54818 3.03223 6.89193 3.03223 7.24609C3.03223 7.69401 3.21452 8.05599 3.5791 8.33203C3.94368 8.60286 4.46452 8.86589 5.1416 9.12109C5.1416 9.17839 5.14421 9.24089 5.14941 9.30859C5.15462 9.37109 5.16243 9.42839 5.17285 9.48047H3.82129C3.47754 9.48047 3.21191 9.56641 3.02441 9.73828C2.84212 9.91016 2.75098 10.1654 2.75098 10.5039C2.75098 10.9206 2.85775 11.319 3.07129 11.6992C3.29004 12.0794 3.56608 12.3893 3.89941 12.6289C4.23275 12.8685 4.5765 12.9883 4.93066 12.9883ZM6.85254 10.043C6.61296 10.043 6.40723 9.95964 6.23535 9.79297C6.06868 9.6263 5.98535 9.42318 5.98535 9.18359C5.98535 8.9388 6.06868 8.73307 6.23535 8.56641C6.40723 8.39453 6.61296 8.30859 6.85254 8.30859C7.09212 8.30859 7.29525 8.39453 7.46191 8.56641C7.63379 8.73307 7.71973 8.9388 7.71973 9.18359C7.71973 9.42318 7.63379 9.6263 7.46191 9.79297C7.29525 9.95964 7.09212 10.043 6.85254 10.043ZM6.22754 15.1602V20.582H7.48535V15.1602H6.22754ZM3.33691 21.0977H10.3604C10.5062 21.0977 10.6208 21.0508 10.7041 20.957C10.7926 20.8633 10.8369 20.7383 10.8369 20.582C10.8369 20.2904 10.7249 20.0508 10.501 19.8633C10.2822 19.6758 9.98796 19.582 9.61816 19.582H4.07129C3.7015 19.582 3.40462 19.6758 3.18066 19.8633C2.96191 20.0508 2.85254 20.2904 2.85254 20.582C2.85254 20.7383 2.89681 20.8633 2.98535 20.957C3.07389 21.0508 3.19108 21.0977 3.33691 21.0977Z"
		fill="currentColor"
	/>
</svg>
