<svg
	color="rgb(var(--foreground, 0, 0, 0))"
	viewBox="0 0 13 24"
	fill="none"
	xmlns="http://www.w3.org/2000/svg"
>
	<path
		d="M2.81348 21.0977H9.83691C9.98275 21.0977 10.0973 21.0508 10.1807 20.957C10.2692 20.8633 10.3135 20.7383 10.3135 20.582C10.3135 20.2904 10.2015 20.0508 9.97754 19.8633C9.75879 19.6758 9.46452 19.582 9.09473 19.582H6.96191V15.3398C7.74837 15.2617 8.48014 15.0482 9.15723 14.6992C9.83952 14.3451 10.4359 13.8893 10.9463 13.332C11.4567 12.7695 11.8525 12.1315 12.1338 11.418C12.4202 10.7044 12.5635 9.94661 12.5635 9.14453C12.5635 8.28516 12.402 7.47786 12.0791 6.72266C11.7562 5.96745 11.3083 5.30599 10.7354 4.73828C10.1624 4.16536 9.49837 3.71745 8.74316 3.39453C7.98796 3.06641 7.18066 2.90234 6.32129 2.90234C5.46191 2.90234 4.65462 3.0638 3.89941 3.38672C3.14941 3.70964 2.48796 4.15755 1.91504 4.73047C1.34212 5.30339 0.894206 5.96745 0.571289 6.72266C0.248372 7.47786 0.0869141 8.28516 0.0869141 9.14453C0.0869141 9.95182 0.230143 10.7122 0.516602 11.4258C0.80306 12.1393 1.2015 12.7773 1.71191 13.3398C2.22233 13.8971 2.81868 14.3529 3.50098 14.707C4.18327 15.056 4.91764 15.2695 5.7041 15.3477V19.582H3.54785C3.17806 19.582 2.88118 19.6758 2.65723 19.8633C2.43848 20.0508 2.3291 20.2904 2.3291 20.582C2.3291 20.7383 2.37337 20.8633 2.46191 20.957C2.55046 21.0508 2.66764 21.0977 2.81348 21.0977ZM4.34473 13.1055C3.98014 13.1055 3.62598 12.9831 3.28223 12.7383C2.94368 12.4883 2.66243 12.168 2.43848 11.7773C2.21452 11.3867 2.10254 10.9753 2.10254 10.543C2.10254 10.1992 2.19629 9.9388 2.38379 9.76172C2.5765 9.57943 2.84993 9.48828 3.2041 9.48828H4.59473C4.58431 9.4362 4.5765 9.3763 4.57129 9.30859C4.56608 9.24089 4.56348 9.17839 4.56348 9.12109C3.86556 8.86068 3.3291 8.58984 2.9541 8.30859C2.5791 8.02214 2.3916 7.64714 2.3916 7.18359C2.3916 6.82422 2.5166 6.47266 2.7666 6.12891C3.02181 5.78516 3.34473 5.5013 3.73535 5.27734C4.12598 5.05339 4.53743 4.94141 4.96973 4.94141C5.31348 4.94141 5.57389 5.03776 5.75098 5.23047C5.93327 5.42318 6.02441 5.69401 6.02441 6.04297V7.39453C6.08171 7.37891 6.14421 7.37109 6.21191 7.37109C6.27962 7.36589 6.34473 7.36328 6.40723 7.36328C6.65723 6.68099 6.92546 6.15755 7.21191 5.79297C7.49837 5.42839 7.86816 5.24609 8.32129 5.24609C8.68066 5.24609 9.03223 5.37109 9.37598 5.62109C9.71973 5.86589 10.001 6.18359 10.2197 6.57422C10.4437 6.96484 10.5557 7.3737 10.5557 7.80078C10.5557 8.14974 10.4619 8.41536 10.2744 8.59766C10.0869 8.77474 9.81608 8.86328 9.46191 8.86328H8.09473C8.09993 8.92578 8.10254 8.98828 8.10254 9.05078C8.10775 9.11328 8.10775 9.17578 8.10254 9.23828C8.80046 9.49349 9.33431 9.76432 9.7041 10.0508C10.0791 10.332 10.2666 10.707 10.2666 11.1758C10.2666 11.5352 10.1416 11.8867 9.8916 12.2305C9.6416 12.5742 9.31868 12.8581 8.92285 13.082C8.53223 13.3008 8.12337 13.4102 7.69629 13.4102C7.35254 13.4102 7.08952 13.3164 6.90723 13.1289C6.73014 12.9414 6.6416 12.6706 6.6416 12.3164V10.8789C6.58431 10.8945 6.52702 10.9049 6.46973 10.9102C6.41764 10.9102 6.36035 10.9076 6.29785 10.9023C6.03223 11.6159 5.75618 12.1628 5.46973 12.543C5.18327 12.918 4.80827 13.1055 4.34473 13.1055ZM6.3291 10.0664C6.5791 10.0664 6.79004 9.98047 6.96191 9.80859C7.13379 9.63672 7.21973 9.42839 7.21973 9.18359C7.21973 8.92839 7.13379 8.71484 6.96191 8.54297C6.79004 8.37109 6.5791 8.28516 6.3291 8.28516C6.0791 8.28516 5.86816 8.37109 5.69629 8.54297C5.52441 8.71484 5.43848 8.92839 5.43848 9.18359C5.43848 9.42839 5.52441 9.63672 5.69629 9.80859C5.86816 9.98047 6.0791 10.0664 6.3291 10.0664Z"
		fill="currentColor"
	/>
</svg>
