<svg
	color="rgb(var(--foreground, 0, 0, 0))"
	viewBox="0 0 18 24"
	fill="none"
	xmlns="http://www.w3.org/2000/svg"
>
	<path
		d="M0.368164 14.7266C0.368164 15.3568 0.495768 15.974 0.750977 16.5781C1.00618 17.1771 1.34733 17.7188 1.77441 18.2031C2.2015 18.6875 2.67546 19.0729 3.19629 19.3594C3.72233 19.6458 4.25358 19.7891 4.79004 19.7891C5.43587 19.7891 5.99056 19.599 6.4541 19.2188C6.91764 18.8385 7.33691 18.2839 7.71191 17.5547C8.09212 16.8255 8.48014 15.9427 8.87598 14.9062C8.90723 14.9062 8.93848 14.9062 8.96973 14.9062C9.00618 14.901 9.04004 14.8958 9.07129 14.8906C9.17546 14.8854 9.264 14.8724 9.33691 14.8516V18.1719C9.33691 18.8854 9.514 19.4271 9.86816 19.7969C10.2275 20.1667 10.751 20.3516 11.4385 20.3516C12.0687 20.3516 12.6833 20.224 13.2822 19.9688C13.8864 19.7135 14.4307 19.3724 14.915 18.9453C15.3994 18.5182 15.7848 18.0443 16.0713 17.5234C16.363 16.9974 16.5088 16.4661 16.5088 15.9297C16.5088 15.2786 16.3161 14.724 15.9307 14.2656C15.5505 13.8021 14.9958 13.3802 14.2666 13C13.5426 12.6198 12.6598 12.2344 11.6182 11.8438C11.6182 11.8125 11.6156 11.7812 11.6104 11.75C11.6104 11.7135 11.6077 11.6797 11.6025 11.6484C11.6025 11.6016 11.5973 11.5573 11.5869 11.5156C11.5817 11.4687 11.5739 11.4219 11.5635 11.375H14.8916C15.5999 11.375 16.139 11.1979 16.5088 10.8438C16.8786 10.4844 17.0635 9.96094 17.0635 9.27344C17.0635 8.64323 16.9359 8.02865 16.6807 7.42969C16.4255 6.82552 16.0843 6.28125 15.6572 5.79688C15.2301 5.3125 14.7536 4.92708 14.2275 4.64062C13.7067 4.34896 13.1781 4.20312 12.6416 4.20312C11.9958 4.20312 11.4411 4.39583 10.9775 4.78125C10.514 5.16146 10.0921 5.71615 9.71191 6.44531C9.33171 7.17448 8.94629 8.05729 8.55566 9.09375C8.52441 9.09375 8.49056 9.09635 8.4541 9.10156C8.42285 9.10156 8.3916 9.10417 8.36035 9.10938C8.31348 9.11458 8.2666 9.11979 8.21973 9.125C8.17806 9.13021 8.13639 9.13802 8.09473 9.14844V5.82812C8.09473 5.11458 7.91504 4.57292 7.55566 4.20312C7.2015 3.83333 6.68066 3.64844 5.99316 3.64844C5.36296 3.64844 4.74577 3.77604 4.1416 4.03125C3.54264 4.28646 3.00098 4.6276 2.5166 5.05469C2.03223 5.48177 1.64421 5.95833 1.35254 6.48438C1.06608 7.00521 0.922852 7.53385 0.922852 8.07031C0.922852 8.71615 1.11296 9.27083 1.49316 9.73438C1.87858 10.1979 2.43327 10.6198 3.15723 11C3.88639 11.375 4.76921 11.7604 5.80566 12.1562C5.81087 12.1927 5.81348 12.2292 5.81348 12.2656C5.81348 12.3021 5.81608 12.3359 5.82129 12.3672C5.8265 12.4089 5.83171 12.4505 5.83691 12.4922C5.84733 12.5339 5.85514 12.5781 5.86035 12.625H2.54004C1.83171 12.625 1.29264 12.8047 0.922852 13.1641C0.55306 13.5182 0.368164 14.0391 0.368164 14.7266ZM6.90723 12C6.90723 11.6667 6.98796 11.3646 7.14941 11.0937C7.31087 10.8177 7.52702 10.599 7.79785 10.4375C8.07389 10.2708 8.37858 10.1875 8.71191 10.1875C9.04525 10.1875 9.34993 10.2682 9.62598 10.4297C9.90202 10.5911 10.1208 10.8099 10.2822 11.0859C10.4437 11.362 10.5244 11.6667 10.5244 12C10.5244 12.3333 10.4437 12.638 10.2822 12.9141C10.1208 13.1849 9.90202 13.4036 9.62598 13.5703C9.34993 13.7318 9.04525 13.8125 8.71191 13.8125C8.37858 13.8125 8.07389 13.7318 7.79785 13.5703C7.52702 13.4036 7.31087 13.1849 7.14941 12.9141C6.98796 12.638 6.90723 12.3333 6.90723 12ZM7.6416 12C7.6416 12.2969 7.74316 12.5495 7.94629 12.7578C8.15462 12.9609 8.40983 13.0625 8.71191 13.0625C9.00879 13.0625 9.25879 12.9609 9.46191 12.7578C9.67025 12.5495 9.77441 12.2969 9.77441 12C9.77441 11.7031 9.67025 11.4505 9.46191 11.2422C9.25879 11.0339 9.00879 10.9297 8.71191 10.9297C8.40983 10.9297 8.15462 11.0339 7.94629 11.2422C7.74316 11.4505 7.6416 11.7031 7.6416 12Z"
		fill="currentColor"
	/>
</svg>
