<svg
	color="rgb(var(--foreground, 0, 0, 0))"
	viewBox="0 0 18 24"
	fill="none"
	xmlns="http://www.w3.org/2000/svg"
>
	<path
		d="M13.2119 4.14844C12.5244 4.14844 11.9281 4.35938 11.4229 4.78125C10.9176 5.20312 10.4671 5.81771 10.0713 6.625C9.68066 7.43229 9.31608 8.41146 8.97754 9.5625L10.8525 11.4297H15.4619C16.1807 11.4297 16.7301 11.2448 17.1104 10.875C17.4906 10.5 17.6807 9.96354 17.6807 9.26562C17.6807 8.64062 17.5531 8.02604 17.2979 7.42188C17.0426 6.8125 16.6989 6.26302 16.2666 5.77344C15.8395 5.27865 15.3604 4.88542 14.8291 4.59375C14.3031 4.29688 13.764 4.14844 13.2119 4.14844ZM5.35254 19.8359C6.03483 19.8359 6.62858 19.625 7.13379 19.2031C7.639 18.7865 8.08691 18.1797 8.47754 17.3828C8.86816 16.5807 9.23796 15.6068 9.58691 14.4609L7.68848 12.5703H3.11035C2.38118 12.5703 1.8265 12.7552 1.44629 13.125C1.06608 13.4896 0.875977 14.0234 0.875977 14.7266C0.881185 15.3516 1.01139 15.9688 1.2666 16.5781C1.52181 17.1823 1.86296 17.7292 2.29004 18.2188C2.71712 18.7135 3.19629 19.1068 3.72754 19.3984C4.25879 19.6901 4.80046 19.8359 5.35254 19.8359ZM6.56348 3.59375C6.09473 3.59375 5.62858 3.67188 5.16504 3.82812C4.7015 3.97917 4.26921 4.1849 3.86816 4.44531L8.71973 9.29688V5.82812C8.71973 5.10938 8.53223 4.55729 8.15723 4.17188C7.78743 3.78646 7.25618 3.59375 6.56348 3.59375ZM1.44629 8.07031C1.44629 8.82031 1.69629 9.46354 2.19629 10C2.69629 10.5365 3.41764 11.0156 4.36035 11.4375C5.30827 11.8542 6.44889 12.2604 7.78223 12.6562L1.79004 6.65625C1.68066 6.88542 1.59473 7.11979 1.53223 7.35938C1.47493 7.59375 1.44629 7.83073 1.44629 8.07031ZM17.126 15.9297C17.126 15.1797 16.8734 14.5365 16.3682 14C15.8682 13.4635 15.1416 12.987 14.1885 12.5703C13.2406 12.1484 12.0973 11.7396 10.7588 11.3438L16.7822 17.3672C16.8916 17.138 16.9749 16.9036 17.0322 16.6641C17.0947 16.4193 17.126 16.1745 17.126 15.9297ZM12.0166 20.4062C12.4854 20.401 12.9489 20.3255 13.4072 20.1797C13.8656 20.0339 14.2952 19.8307 14.6963 19.5703L9.85254 14.7266V18.1797C9.85254 18.8984 10.04 19.4479 10.415 19.8281C10.79 20.2135 11.3239 20.4062 12.0166 20.4062ZM16.0244 19.6016C16.139 19.7214 16.2796 19.7786 16.4463 19.7734C16.6182 19.7734 16.7614 19.7135 16.876 19.5938C16.9906 19.474 17.0479 19.3307 17.0479 19.1641C17.0479 19.0026 16.9906 18.862 16.876 18.7422L2.54004 4.41406C2.42546 4.29427 2.28223 4.23438 2.11035 4.23438C1.94368 4.23438 1.80046 4.29427 1.68066 4.41406C1.56608 4.52865 1.50879 4.67188 1.50879 4.84375C1.50879 5.01042 1.56608 5.15104 1.68066 5.26562L16.0244 19.6016Z"
		fill="currentColor"
	/>
</svg>
