<svg
	color="rgb(var(--foreground, 0, 0, 0))"
	viewBox="0 0 18 24"
	fill="none"
	xmlns="http://www.w3.org/2000/svg"
>
	<path
		d="M8.96191 14.9609C9.50879 14.9609 10.0062 14.8281 10.4541 14.5625C10.902 14.2969 11.2588 13.9401 11.5244 13.4922C11.7952 13.0443 11.9307 12.5469 11.9307 12C11.9307 11.4531 11.7952 10.9557 11.5244 10.5078C11.2588 10.0599 10.902 9.70312 10.4541 9.4375C10.0062 9.16667 9.50879 9.03125 8.96191 9.03125C8.41504 9.03125 7.91764 9.16667 7.46973 9.4375C7.02181 9.70312 6.66504 10.0599 6.39941 10.5078C6.13379 10.9557 6.00098 11.4531 6.00098 12C6.00098 12.5469 6.13379 13.0443 6.39941 13.4922C6.66504 13.9401 7.02181 14.2969 7.46973 14.5625C7.91764 14.8281 8.41504 14.9609 8.96191 14.9609ZM8.96191 13.7578C8.639 13.7578 8.34473 13.6797 8.0791 13.5234C7.81348 13.362 7.59993 13.1484 7.43848 12.8828C7.28223 12.6172 7.2041 12.3229 7.2041 12C7.2041 11.6771 7.28223 11.3828 7.43848 11.1172C7.59993 10.8464 7.81348 10.6328 8.0791 10.4766C8.34473 10.3151 8.639 10.2344 8.96191 10.2344C9.28483 10.2344 9.5791 10.3151 9.84473 10.4766C10.1156 10.6328 10.3291 10.8464 10.4854 11.1172C10.6468 11.3828 10.7275 11.6771 10.7275 12C10.7275 12.3229 10.6468 12.6172 10.4854 12.8828C10.3291 13.1484 10.1156 13.362 9.84473 13.5234C9.5791 13.6797 9.28483 13.7578 8.96191 13.7578ZM8.96191 13.1094C9.27441 13.1094 9.53743 13.0026 9.75098 12.7891C9.96973 12.5703 10.0791 12.3073 10.0791 12C10.0791 11.6927 9.96973 11.4297 9.75098 11.2109C9.53223 10.987 9.26921 10.875 8.96191 10.875C8.64941 10.875 8.38379 10.9844 8.16504 11.2031C7.9515 11.4219 7.84473 11.6875 7.84473 12C7.84473 12.3125 7.9515 12.5755 8.16504 12.7891C8.38379 13.0026 8.64941 13.1094 8.96191 13.1094ZM8.39941 9.60156V5.82812C8.39941 5.10938 8.21191 4.55729 7.83691 4.17187C7.46712 3.78646 6.93327 3.59375 6.23535 3.59375C5.61035 3.59375 4.99316 3.72135 4.38379 3.97656C3.77962 4.23177 3.23275 4.57552 2.74316 5.00781C2.25358 5.4349 1.86035 5.91406 1.56348 6.44531C1.27181 6.97656 1.12598 7.51823 1.12598 8.07031C1.12598 8.74219 1.3265 9.32812 1.72754 9.82812C2.13379 10.3229 2.71712 10.7682 3.47754 11.1641C4.24316 11.5547 5.16764 11.9271 6.25098 12.2812L6.75098 11.1484C5.79785 10.8307 4.99056 10.526 4.3291 10.2344C3.67285 9.9375 3.17285 9.61979 2.8291 9.28125C2.49056 8.9375 2.32129 8.53385 2.32129 8.07031C2.32129 7.67969 2.43587 7.29167 2.66504 6.90625C2.89941 6.51562 3.20671 6.16146 3.58691 5.84375C3.96712 5.52604 4.389 5.27083 4.85254 5.07812C5.31608 4.88542 5.77702 4.78906 6.23535 4.78906C6.59993 4.78906 6.85254 4.86458 6.99316 5.01562C7.13379 5.16667 7.2041 5.4375 7.2041 5.82812V9.94531L8.39941 9.60156ZM11.3604 11.4297H15.1416C15.8604 11.4297 16.4098 11.2448 16.79 10.875C17.1755 10.5052 17.3682 9.97135 17.3682 9.27344C17.3682 8.64844 17.2406 8.03385 16.9854 7.42969C16.7301 6.82031 16.3864 6.27083 15.9541 5.78125C15.527 5.28646 15.0479 4.89323 14.5166 4.60156C13.9854 4.30469 13.4437 4.15625 12.8916 4.15625C12.2197 4.15625 11.6338 4.35938 11.1338 4.76562C10.639 5.16667 10.1937 5.75 9.79785 6.51562C9.40723 7.28125 9.03483 8.20833 8.68066 9.29688L9.81348 9.79688C10.1312 8.83854 10.4359 8.02865 10.7275 7.36719C11.0244 6.70573 11.3421 6.20573 11.6807 5.86719C12.0244 5.52344 12.4281 5.35156 12.8916 5.35156C13.2822 5.35156 13.6702 5.46875 14.0557 5.70312C14.4463 5.93229 14.8005 6.23958 15.1182 6.625C15.4359 7.00521 15.6911 7.42708 15.8838 7.89062C16.0765 8.35417 16.1729 8.8151 16.1729 9.27344C16.1729 9.63802 16.0973 9.89062 15.9463 10.0312C15.7952 10.1667 15.527 10.2344 15.1416 10.2344H11.0166L11.3604 11.4297ZM9.53223 14.3984V18.1797C9.53223 18.8984 9.71712 19.4479 10.0869 19.8281C10.4567 20.2135 10.9906 20.4062 11.6885 20.4062C12.3135 20.4062 12.9281 20.2786 13.5322 20.0234C14.1416 19.7682 14.6911 19.4245 15.1807 18.9922C15.6755 18.5651 16.0687 18.0885 16.3604 17.5625C16.6572 17.0312 16.8057 16.487 16.8057 15.9297C16.8057 15.2578 16.6025 14.6745 16.1963 14.1797C15.7952 13.6797 15.2119 13.2344 14.4463 12.8438C13.6807 12.4479 12.7562 12.0729 11.6729 11.7188L11.1729 12.8516C12.126 13.1693 12.9333 13.4766 13.5947 13.7734C14.2562 14.0651 14.7562 14.3828 15.0947 14.7266C15.4385 15.0651 15.6104 15.4661 15.6104 15.9297C15.6104 16.3203 15.4932 16.7109 15.2588 17.1016C15.0296 17.487 14.7223 17.8385 14.3369 18.1562C13.9567 18.474 13.5348 18.7292 13.0713 18.9219C12.613 19.1146 12.152 19.2083 11.6885 19.2031C11.3239 19.2031 11.0713 19.1276 10.9307 18.9766C10.7952 18.8307 10.7275 18.5651 10.7275 18.1797V14.0547L9.53223 14.3984ZM6.56348 12.5625H2.78223C2.06868 12.5625 1.51921 12.75 1.13379 13.125C0.753581 13.4948 0.563477 14.0286 0.563477 14.7266C0.563477 15.3516 0.691081 15.9688 0.946289 16.5781C1.2015 17.1823 1.54264 17.7292 1.96973 18.2188C2.39681 18.7135 2.87598 19.1068 3.40723 19.3984C3.93848 19.6953 4.48014 19.8438 5.03223 19.8438C5.7041 19.8438 6.28743 19.6406 6.78223 19.2344C7.28223 18.8333 7.72754 18.25 8.11816 17.4844C8.514 16.7188 8.889 15.7943 9.24316 14.7109L8.11035 14.2109C7.79264 15.1641 7.48535 15.9714 7.18848 16.6328C6.89681 17.2891 6.5791 17.7865 6.23535 18.125C5.89681 18.4688 5.49577 18.6406 5.03223 18.6406C4.6416 18.6406 4.25358 18.526 3.86816 18.2969C3.48275 18.0677 3.12858 17.763 2.80566 17.3828C2.48796 16.9974 2.23275 16.5755 2.04004 16.1172C1.85254 15.6536 1.75879 15.1901 1.75879 14.7266C1.75879 14.362 1.83171 14.1094 1.97754 13.9688C2.12858 13.8281 2.39681 13.7578 2.78223 13.7578H6.90723L6.56348 12.5625Z"
		fill="currentColor"
	/>
</svg>
