<svg
	color="rgb(var(--foreground, 0, 0, 0))"
	viewBox="0 0 17 24"
	fill="none"
	xmlns="http://www.w3.org/2000/svg"
>
	<path
		d="M12.3994 4.15625C11.7171 4.15625 11.1234 4.36719 10.6182 4.78906C10.113 5.21094 9.66504 5.82552 9.27441 6.63281C8.88379 7.4349 8.514 8.41146 8.16504 9.5625L10.0322 11.4297H14.6494C15.3682 11.4297 15.9176 11.2448 16.2979 10.875C16.6833 10.5 16.876 9.96354 16.876 9.26562C16.876 8.64062 16.7484 8.02604 16.4932 7.42188C16.238 6.8125 15.8942 6.26302 15.4619 5.77344C15.0348 5.28385 14.5557 4.89323 14.0244 4.60156C13.4932 4.30469 12.9515 4.15625 12.3994 4.15625ZM12.3994 5.35156C12.79 5.35156 13.1781 5.46875 13.5635 5.70312C13.9541 5.93229 14.3083 6.23698 14.626 6.61719C14.9437 6.9974 15.1989 7.41927 15.3916 7.88281C15.5843 8.34635 15.6807 8.80729 15.6807 9.26562C15.6807 9.63021 15.6051 9.88281 15.4541 10.0234C15.3031 10.1641 15.0348 10.2344 14.6494 10.2344H9.22754C9.55046 9.17708 9.86035 8.28646 10.1572 7.5625C10.4593 6.83854 10.7874 6.28906 11.1416 5.91406C11.4958 5.53906 11.915 5.35156 12.3994 5.35156ZM4.54004 19.8359C5.22233 19.8359 5.81348 19.625 6.31348 19.2031C6.81868 18.7865 7.2666 18.1797 7.65723 17.3828C8.05306 16.5807 8.42546 15.6068 8.77441 14.4609L6.87598 12.5625H2.29004C1.5765 12.5625 1.02702 12.75 0.641602 13.125C0.256185 13.4948 0.0634766 14.0286 0.0634766 14.7266C0.0634766 15.3516 0.191081 15.9688 0.446289 16.5781C0.701497 17.1823 1.04264 17.7292 1.46973 18.2188C1.90202 18.7135 2.38379 19.1068 2.91504 19.3984C3.44629 19.6901 3.98796 19.8359 4.54004 19.8359ZM4.54004 18.6406C4.14941 18.6406 3.75879 18.526 3.36816 18.2969C2.98275 18.0677 2.63118 17.763 2.31348 17.3828C1.99577 16.9974 1.74056 16.5755 1.54785 16.1172C1.35514 15.6536 1.25879 15.1901 1.25879 14.7266C1.25879 14.362 1.33431 14.1094 1.48535 13.9688C1.63639 13.8281 1.90462 13.7578 2.29004 13.7578H7.71191C7.39421 14.8151 7.08431 15.7083 6.78223 16.4375C6.48535 17.1615 6.15723 17.7083 5.79785 18.0781C5.44368 18.4531 5.02441 18.6406 4.54004 18.6406ZM5.74316 3.59375C5.27441 3.59375 4.80827 3.67188 4.34473 3.82812C3.88639 3.97917 3.4541 4.1849 3.04785 4.44531L3.93066 5.32031C4.21191 5.15365 4.50618 5.02344 4.81348 4.92969C5.12598 4.83594 5.43587 4.78906 5.74316 4.78906C6.10775 4.78906 6.36035 4.86458 6.50098 5.01562C6.6416 5.16667 6.71191 5.4375 6.71191 5.82812V8.10156L7.90723 9.29688V5.82812C7.90723 5.10938 7.71973 4.55729 7.34473 4.17188C6.97493 3.78646 6.44108 3.59375 5.74316 3.59375ZM0.633789 8.07031C0.633789 8.82031 0.883789 9.46354 1.38379 10C1.88379 10.5365 2.60514 11.0156 3.54785 11.4375C4.49577 11.8542 5.63639 12.2604 6.96973 12.6562L4.87598 10.5625C3.87077 10.2396 3.11035 9.88802 2.59473 9.50781C2.08431 9.1224 1.8291 8.64323 1.8291 8.07031C1.8291 7.98698 1.83691 7.90885 1.85254 7.83594C1.86816 7.75781 1.8916 7.67969 1.92285 7.60156L0.977539 6.65625C0.868164 6.88542 0.782227 7.11979 0.719727 7.35938C0.662435 7.59375 0.633789 7.83073 0.633789 8.07031ZM16.3135 15.9297C16.3135 15.1797 16.0609 14.5365 15.5557 14C15.0505 13.4635 14.3239 12.987 13.376 12.5703C12.4281 12.1484 11.2848 11.7396 9.94629 11.3438L12.0322 13.4297C13.0531 13.7526 13.8213 14.1094 14.3369 14.5C14.8577 14.8854 15.1182 15.362 15.1182 15.9297C15.1182 16.013 15.1104 16.0964 15.0947 16.1797C15.0791 16.263 15.0557 16.3438 15.0244 16.4219L15.9697 17.3672C16.0791 17.138 16.1624 16.9036 16.2197 16.6641C16.2822 16.4193 16.3135 16.1745 16.3135 15.9297ZM11.2041 20.4062C11.6729 20.401 12.1364 20.3255 12.5947 20.1797C13.0531 20.0339 13.4827 19.8307 13.8838 19.5703L13.0088 18.6875C12.7275 18.8542 12.4333 18.9818 12.126 19.0703C11.8187 19.1641 11.5114 19.2109 11.2041 19.2109C10.8395 19.2109 10.5869 19.1354 10.4463 18.9844C10.3057 18.8333 10.2354 18.5651 10.2354 18.1797V15.9219L9.04004 14.7266V18.1797C9.04004 18.8984 9.22493 19.4479 9.59473 19.8281C9.96973 20.2135 10.5062 20.4062 11.2041 20.4062ZM15.2041 19.6016C15.3239 19.7214 15.4671 19.7786 15.6338 19.7734C15.8005 19.7734 15.9411 19.7135 16.0557 19.5938C16.1755 19.474 16.2354 19.3307 16.2354 19.1641C16.2354 19.0026 16.1755 18.862 16.0557 18.7422L1.72754 4.41406C1.61296 4.29427 1.46973 4.23438 1.29785 4.23438C1.13118 4.23438 0.987956 4.29427 0.868164 4.41406C0.753581 4.52865 0.696289 4.67188 0.696289 4.84375C0.696289 5.01042 0.753581 5.15104 0.868164 5.26562L15.2041 19.6016Z"
		fill="currentColor"
	/>
</svg>
