<svg
	color="rgb(var(--foreground, 0, 0, 0))"
	viewBox="0 0 19 24"
	fill="none"
	xmlns="http://www.w3.org/2000/svg"
>
	<path
		d="M8.72809 5.45703L4.70465 5.01953C4.35048 4.97786 4.05882 5.05859 3.82965 5.26172C3.60569 5.45964 3.49371 5.72526 3.49371 6.05859C3.49371 6.39714 3.60569 6.66797 3.82965 6.87109C4.05882 7.06901 4.35048 7.14974 4.70465 7.11328L8.72809 6.66797V5.45703ZM9.43903 7.51172C9.70986 7.51172 9.95465 7.44661 10.1734 7.31641C10.3922 7.1862 10.5666 7.01172 10.6968 6.79297C10.827 6.57422 10.8922 6.32943 10.8922 6.05859C10.8922 5.79297 10.827 5.55078 10.6968 5.33203C10.5666 5.11328 10.3922 4.9388 10.1734 4.80859C9.95465 4.67839 9.70986 4.61328 9.43903 4.61328C9.1734 4.61328 8.93121 4.67839 8.71246 4.80859C8.49371 4.9388 8.31923 5.11328 8.18903 5.33203C8.05882 5.55078 7.99371 5.79297 7.99371 6.05859C7.99371 6.32943 8.05882 6.57422 8.18903 6.79297C8.31923 7.01172 8.49371 7.1862 8.71246 7.31641C8.93121 7.44661 9.1734 7.51172 9.43903 7.51172ZM10.15 5.45703V6.66797L14.1812 7.11328C14.5302 7.14974 14.8166 7.06901 15.0406 6.87109C15.2698 6.66797 15.3843 6.39714 15.3843 6.05859C15.3843 5.72526 15.2698 5.45964 15.0406 5.26172C14.8166 5.05859 14.5302 4.97786 14.1812 5.01953L10.15 5.45703ZM8.75153 6.94922V8.80078H10.1343V6.94922H8.75153ZM7.25934 10.3008H11.6031V9.27734C11.6031 8.97005 11.5119 8.72786 11.3297 8.55078C11.1526 8.36849 10.9104 8.27734 10.6031 8.27734H8.25153C7.94423 8.27734 7.70205 8.36849 7.52496 8.55078C7.34788 8.72786 7.25934 8.97005 7.25934 9.27734V10.3008ZM9.43121 18.0898C9.86351 18.0898 10.2489 18.0326 10.5875 17.918C10.926 17.8086 11.2385 17.6549 11.525 17.457C11.8166 17.2539 12.1083 17.0195 12.4 16.7539C12.577 16.5768 12.7724 16.444 12.9859 16.3555C13.2047 16.2669 13.4156 16.2227 13.6187 16.2227C14.0041 16.2227 14.3323 16.3607 14.6031 16.6367C14.8739 16.9128 15.0093 17.3086 15.0093 17.8242V18.9102C15.0093 19.0768 15.0458 19.1966 15.1187 19.2695C15.1968 19.3477 15.3192 19.3867 15.4859 19.3867H18.3453C18.5119 19.3867 18.6343 19.3477 18.7125 19.2695C18.7906 19.1966 18.8297 19.0768 18.8297 18.9102V18.1836C18.8297 17.069 18.6812 16.1341 18.3843 15.3789C18.0927 14.6185 17.6968 14.0091 17.1968 13.5508C16.702 13.0872 16.15 12.7539 15.5406 12.5508C14.9312 12.3477 14.3088 12.2461 13.6734 12.2461H13.3375C13.2281 12.2461 13.1369 12.2201 13.064 12.168C12.9911 12.1107 12.939 12.0378 12.9078 11.9492L12.4312 10.6602C12.3583 10.4622 12.2802 10.332 12.1968 10.2695C12.1135 10.2018 11.9859 10.168 11.814 10.168H7.04059C6.86871 10.168 6.74111 10.2018 6.65778 10.2695C6.57444 10.332 6.49632 10.4622 6.4234 10.6602L5.95465 11.9492C5.91819 12.0378 5.86351 12.1107 5.79059 12.168C5.71767 12.2201 5.62913 12.2461 5.52496 12.2461H0.931213V16.1758H5.25934C5.49892 16.1758 5.69423 16.2044 5.84528 16.2617C5.99632 16.3138 6.15778 16.4388 6.32965 16.6367C6.58486 16.9128 6.86871 17.1602 7.18121 17.3789C7.49371 17.5977 7.83746 17.7695 8.21246 17.8945C8.58746 18.0247 8.99371 18.0898 9.43121 18.0898ZM0.829651 18.1445C1.00673 18.1445 1.15517 18.082 1.27496 17.957C1.39996 17.832 1.46246 17.6836 1.46246 17.5117V11.1289C1.46246 10.957 1.39996 10.8086 1.27496 10.6836C1.15517 10.5586 1.00673 10.4961 0.829651 10.4961C0.657776 10.4961 0.509338 10.5586 0.384338 10.6836C0.264547 10.8086 0.204651 10.957 0.204651 11.1289V17.5117C0.204651 17.6836 0.264547 17.832 0.384338 17.957C0.509338 18.082 0.657776 18.1445 0.829651 18.1445Z"
		fill="currentColor"
	/>
</svg>
