<svg
	color="rgb(var(--foreground, 0, 0, 0))"
	viewBox="0 0 20 24"
	fill="none"
	xmlns="http://www.w3.org/2000/svg"
>
	<path
		d="M8.86871 5.33984L4.84528 4.89453C4.49111 4.85807 4.19944 4.9388 3.97028 5.13672C3.74632 5.33464 3.63434 5.60286 3.63434 5.94141C3.63434 6.27995 3.74632 6.55078 3.97028 6.75391C4.19944 6.95182 4.49111 7.02995 4.84528 6.98828L8.86871 6.55078V5.33984ZM9.57965 7.38672C9.85048 7.38672 10.0953 7.32422 10.314 7.19922C10.5328 7.06901 10.7073 6.89453 10.8375 6.67578C10.9677 6.45182 11.0328 6.20703 11.0328 5.94141C11.0328 5.67578 10.9677 5.43359 10.8375 5.21484C10.7073 4.99609 10.5328 4.82161 10.314 4.69141C10.0953 4.5612 9.85048 4.49609 9.57965 4.49609C9.31403 4.49609 9.07184 4.5612 8.85309 4.69141C8.63434 4.82161 8.45986 4.99609 8.32965 5.21484C8.19944 5.43359 8.13434 5.67578 8.13434 5.94141C8.13434 6.20703 8.19944 6.45182 8.32965 6.67578C8.45986 6.89453 8.63434 7.06901 8.85309 7.19922C9.07184 7.32422 9.31403 7.38672 9.57965 7.38672ZM10.2906 5.33984V6.55078L14.3218 6.98828C14.6708 7.02995 14.9573 6.95182 15.1812 6.75391C15.4104 6.55078 15.525 6.27995 15.525 5.94141C15.525 5.60286 15.4104 5.33464 15.1812 5.13672C14.9573 4.9388 14.6708 4.85807 14.3218 4.89453L10.2906 5.33984ZM8.89215 6.83203V8.67578H10.275V6.83203H8.89215ZM10.8453 10.332H11.9078V9.16016C11.9078 8.82161 11.801 8.54557 11.5875 8.33203C11.3739 8.11328 11.0979 8.00391 10.7593 8.00391H8.38434C8.0458 8.00391 7.76715 8.11328 7.5484 8.33203C7.33486 8.54557 7.22809 8.82161 7.22809 9.16016V10.332H8.29059V9.27734C8.29059 9.03255 8.41298 8.91016 8.65778 8.91016H10.4859C10.7255 8.91016 10.8453 9.03255 10.8453 9.27734V10.332ZM9.57184 18.1992C10.025 18.1992 10.4312 18.1393 10.7906 18.0195C11.15 17.9049 11.4833 17.7409 11.7906 17.5273C12.0979 17.3138 12.4026 17.069 12.7047 16.793C12.8609 16.6419 13.0302 16.5273 13.2125 16.4492C13.4 16.3711 13.5823 16.332 13.7593 16.332C14.0823 16.332 14.3557 16.4492 14.5797 16.6836C14.8036 16.9128 14.9156 17.2513 14.9156 17.6992V18.793C14.9156 19.0065 14.9807 19.1784 15.1109 19.3086C15.2411 19.4388 15.413 19.5039 15.6265 19.5039H18.4859C18.6994 19.5039 18.8713 19.4362 19.0015 19.3008C19.1369 19.1706 19.2047 19.0013 19.2047 18.793V18.0586C19.2047 16.9128 19.0458 15.9466 18.7281 15.1602C18.4156 14.3685 17.9963 13.7331 17.4703 13.2539C16.9494 12.7747 16.3713 12.4284 15.7359 12.2148C15.1005 11.9961 14.4599 11.8867 13.814 11.8867H13.4781C13.3739 11.8867 13.3036 11.8398 13.2672 11.7461L12.7906 10.4648C12.6343 10.0273 12.3557 9.80859 11.9547 9.80859H7.18121C6.78538 9.80859 6.50673 10.0273 6.34528 10.4648L5.87653 11.7461C5.83486 11.8398 5.76455 11.8867 5.66559 11.8867H0.845276V13.0273H5.74371C6.11351 13.0273 6.37913 12.9544 6.54059 12.8086C6.70205 12.6628 6.83226 12.457 6.93121 12.1914L7.38434 10.9492H11.7593L12.2125 12.1914C12.3114 12.457 12.439 12.6628 12.5953 12.8086C12.7567 12.9544 13.025 13.0273 13.4 13.0273H13.8062C14.3791 13.0273 14.9208 13.1159 15.4312 13.293C15.9468 13.4701 16.4026 13.7539 16.7984 14.1445C17.1942 14.5352 17.5041 15.0534 17.7281 15.6992C17.9573 16.3398 18.0718 17.1263 18.0718 18.0586V18.3633H16.0562V17.6992C16.0562 17.1888 15.9885 16.7695 15.8531 16.4414C15.7177 16.1133 15.538 15.8581 15.314 15.6758C15.0953 15.4935 14.8557 15.3659 14.5953 15.293C14.3349 15.2148 14.0797 15.1758 13.8297 15.1758C13.439 15.1758 13.0901 15.2513 12.7828 15.4023C12.4755 15.5482 12.1838 15.7539 11.9078 16.0195C11.7411 16.1706 11.551 16.3268 11.3375 16.4883C11.1239 16.6497 10.8739 16.7852 10.5875 16.8945C10.301 17.0039 9.96246 17.0586 9.57184 17.0586C9.1708 17.0586 8.82184 17.0065 8.52496 16.9023C8.22809 16.793 7.96507 16.6497 7.7359 16.4727C7.51194 16.2956 7.30882 16.1055 7.12653 15.9023C6.96507 15.7096 6.80621 15.5586 6.64996 15.4492C6.49892 15.3398 6.32965 15.2643 6.14215 15.2227C5.95465 15.1758 5.72809 15.1523 5.46246 15.1523H0.845276V16.293H5.39996C5.61871 16.293 5.78538 16.3164 5.89996 16.3633C6.01455 16.4049 6.14476 16.5065 6.29059 16.668C6.55621 16.9596 6.85569 17.2227 7.18903 17.457C7.52236 17.6862 7.88694 17.8659 8.28278 17.9961C8.68382 18.1315 9.11351 18.1992 9.57184 18.1992ZM0.970276 18.0273C1.14736 18.0273 1.2958 17.9648 1.41559 17.8398C1.54059 17.7148 1.60309 17.5664 1.60309 17.3945V11.0117C1.60309 10.8398 1.54059 10.6914 1.41559 10.5664C1.2958 10.4414 1.14736 10.3789 0.970276 10.3789C0.798401 10.3789 0.649963 10.4414 0.524963 10.5664C0.405172 10.6914 0.345276 10.8398 0.345276 11.0117V17.3945C0.345276 17.5664 0.405172 17.7148 0.524963 17.8398C0.649963 17.9648 0.798401 18.0273 0.970276 18.0273Z"
		fill="currentColor"
	/>
</svg>
