<svg
	color="rgb(var(--foreground, 0, 0, 0))"
	viewBox="0 0 19 24"
	fill="none"
	xmlns="http://www.w3.org/2000/svg"
>
	<path
		d="M1.32965 7.55469H17.5328C17.7776 7.55469 17.9755 7.47917 18.1265 7.32812C18.2828 7.17188 18.3609 6.96875 18.3609 6.71875V4.98438C18.3609 4.74479 18.2828 4.54948 18.1265 4.39844C17.9755 4.24219 17.7776 4.16406 17.5328 4.16406H1.32965C1.08486 4.16406 0.884338 4.24219 0.728088 4.39844C0.577047 4.54948 0.501526 4.74479 0.501526 4.98438V6.71875C0.501526 6.96875 0.577047 7.17188 0.728088 7.32812C0.884338 7.47917 1.08486 7.55469 1.32965 7.55469ZM2.2984 19.1797H16.564V8.46094H2.2984V19.1797ZM4.88434 18.5781V11.0234C4.88434 10.6849 4.9833 10.4193 5.18121 10.2266C5.37913 10.0286 5.64476 9.92969 5.97809 9.92969H12.8843C13.2177 9.92969 13.4833 10.0286 13.6812 10.2266C13.8791 10.4193 13.9781 10.6849 13.9781 11.0234V18.5781H12.9937V11.3047C12.9937 11.0391 12.8635 10.9062 12.6031 10.9062H6.25934C5.99892 10.9062 5.86871 11.0391 5.86871 11.3047V18.5781H4.88434ZM9.34528 17.7812C8.74632 17.7812 8.26455 17.6224 7.89996 17.3047C7.53538 16.987 7.35309 16.5651 7.35309 16.0391C7.35309 15.737 7.38694 15.487 7.45465 15.2891C7.52757 15.0859 7.60048 14.8984 7.6734 14.7266C7.74632 14.5547 7.78278 14.362 7.78278 14.1484C7.78278 14.1016 7.78017 14.0495 7.77496 13.9922C7.77496 13.9349 7.77496 13.8906 7.77496 13.8594C7.77496 13.7552 7.82705 13.7031 7.93121 13.7031C8.0458 13.7031 8.16298 13.7474 8.28278 13.8359C8.40778 13.9245 8.50673 14.0391 8.57965 14.1797C8.59528 13.8724 8.54319 13.6016 8.4234 13.3672C8.30361 13.1276 8.16298 12.9062 8.00153 12.7031C7.91298 12.5885 7.89736 12.487 7.95465 12.3984C8.01715 12.3099 8.13434 12.2656 8.30621 12.2656C8.64476 12.2656 9.00413 12.3281 9.38434 12.4531C9.76455 12.5781 10.1213 12.7708 10.4547 13.0312C10.7932 13.2917 11.0666 13.6276 11.275 14.0391C11.4885 14.4453 11.5953 14.9349 11.5953 15.5078C11.5953 16.1901 11.3895 16.7396 10.9781 17.1562C10.5718 17.5729 10.0276 17.7812 9.34528 17.7812ZM9.4234 17.0625C9.72548 17.0625 9.94944 16.9688 10.0953 16.7812C10.2411 16.5938 10.314 16.3724 10.314 16.1172C10.314 15.7995 10.2203 15.5208 10.0328 15.2812C9.84528 15.0365 9.64736 14.875 9.43903 14.7969C9.48069 15.026 9.4833 15.2266 9.44684 15.3984C9.41038 15.5703 9.3583 15.7109 9.29059 15.8203C9.21246 15.6328 9.11611 15.5 9.00153 15.4219C8.97548 15.5833 8.90517 15.724 8.79059 15.8438C8.68121 15.9583 8.62653 16.125 8.62653 16.3438C8.62653 16.5625 8.69944 16.737 8.84528 16.8672C8.99111 16.9974 9.18382 17.0625 9.4234 17.0625ZM1.15778 19.8359H17.7047C17.8765 19.8359 18.025 19.7734 18.15 19.6484C18.275 19.5234 18.3375 19.375 18.3375 19.2031C18.3375 19.0312 18.275 18.8828 18.15 18.7578C18.025 18.638 17.8765 18.5781 17.7047 18.5781H1.15778C0.985901 18.5781 0.837463 18.638 0.712463 18.7578C0.587463 18.8828 0.524963 19.0312 0.524963 19.2031C0.524963 19.375 0.587463 19.5234 0.712463 19.6484C0.837463 19.7734 0.985901 19.8359 1.15778 19.8359Z"
		fill="currentColor"
	/>
</svg>
