<svg
	color="rgb(var(--foreground, 0, 0, 0))"
	viewBox="0 0 19 24"
	fill="none"
	xmlns="http://www.w3.org/2000/svg"
>
	<path
		d="M1.46875 8.41406H17.6719C17.9219 8.41406 18.1224 8.33854 18.2734 8.1875C18.4245 8.03125 18.5 7.82812 18.5 7.57812V4.98438C18.5 4.73958 18.4245 4.54167 18.2734 4.39062C18.1224 4.23958 17.9219 4.16406 17.6719 4.16406H1.46875C1.21875 4.16406 1.01823 4.23958 0.867188 4.39062C0.716146 4.54167 0.640625 4.73958 0.640625 4.98438V7.57812C0.640625 7.82812 0.716146 8.03125 0.867188 8.1875C1.01823 8.33854 1.21875 8.41406 1.46875 8.41406ZM2.10156 7.15625C1.96615 7.15625 1.89844 7.08594 1.89844 6.94531V5.63281C1.89844 5.49219 1.96615 5.42188 2.10156 5.42188H17.0391C17.1745 5.42188 17.2422 5.49219 17.2422 5.63281V6.94531C17.2422 7.08594 17.1745 7.15625 17.0391 7.15625H2.10156ZM2.4375 19.2031H3.69531V7.77344H2.4375V19.2031ZM15.4453 19.2031H16.7031V7.77344H15.4453V19.2031ZM5.02344 19.2031H6.00781V10.9922C6.00781 10.7266 6.13802 10.5938 6.39844 10.5938H12.7422C13.0026 10.5938 13.1328 10.7266 13.1328 10.9922V19.2031H14.1172V10.7109C14.1172 10.3724 14.0182 10.1068 13.8203 9.91406C13.6224 9.71615 13.3568 9.61719 13.0234 9.61719H6.11719C5.78385 9.61719 5.51823 9.71615 5.32031 9.91406C5.1224 10.1068 5.02344 10.3724 5.02344 10.7109V19.2031ZM1.29688 19.8359H17.8438C18.0156 19.8359 18.1641 19.7734 18.2891 19.6484C18.4141 19.5234 18.4766 19.375 18.4766 19.2031C18.4766 19.0312 18.4141 18.8828 18.2891 18.7578C18.1641 18.638 18.0156 18.5781 17.8438 18.5781H1.29688C1.125 18.5781 0.976562 18.638 0.851562 18.7578C0.726562 18.8828 0.664062 19.0312 0.664062 19.2031C0.664062 19.375 0.726562 19.5234 0.851562 19.6484C0.976562 19.7734 1.125 19.8359 1.29688 19.8359ZM9.44531 17.9766C10.2109 17.9766 10.8229 17.7422 11.2812 17.2734C11.7448 16.7995 11.9766 16.1797 11.9766 15.4141C11.9766 14.7734 11.8568 14.224 11.6172 13.7656C11.3776 13.3021 11.0677 12.9245 10.6875 12.6328C10.3125 12.3359 9.91146 12.1198 9.48438 11.9844C9.05729 11.8438 8.65625 11.7734 8.28125 11.7734C8.08854 11.7734 7.95573 11.8229 7.88281 11.9219C7.8099 12.0208 7.82552 12.138 7.92969 12.2734C8.10677 12.4974 8.26302 12.7422 8.39844 13.0078C8.53385 13.2682 8.59635 13.5729 8.58594 13.9219C8.5026 13.7604 8.39062 13.6302 8.25 13.5312C8.11458 13.4323 7.98438 13.3828 7.85938 13.3828C7.73958 13.3828 7.67969 13.4427 7.67969 13.5625C7.67969 13.599 7.67969 13.651 7.67969 13.7188C7.67969 13.7812 7.67969 13.8385 7.67969 13.8906C7.67969 14.1302 7.64062 14.3464 7.5625 14.5391C7.48438 14.7318 7.40365 14.9401 7.32031 15.1641C7.24219 15.388 7.20312 15.6719 7.20312 16.0156C7.20312 16.6094 7.40885 17.0859 7.82031 17.4453C8.23177 17.7995 8.77344 17.9766 9.44531 17.9766ZM9.52344 17.1719C9.25781 17.1719 9.04167 17.099 8.875 16.9531C8.71354 16.8021 8.63281 16.6042 8.63281 16.3594C8.63281 16.1094 8.69531 15.9193 8.82031 15.7891C8.94531 15.6536 9.02344 15.4974 9.05469 15.3203C9.1901 15.4089 9.29688 15.5573 9.375 15.7656C9.45833 15.6458 9.51823 15.4896 9.55469 15.2969C9.59635 15.099 9.59375 14.8698 9.54688 14.6094C9.78125 14.6927 10.0052 14.8724 10.2188 15.1484C10.4323 15.4193 10.5391 15.737 10.5391 16.1016C10.5391 16.388 10.4557 16.638 10.2891 16.8516C10.1224 17.0651 9.86719 17.1719 9.52344 17.1719Z"
		fill="currentColor"
	/>
</svg>
