<svg
	color="rgb(var(--foreground, 0, 0, 0))"
	viewBox="0 0 16 24"
	fill="none"
	xmlns="http://www.w3.org/2000/svg"
>
	<path
		d="M4.08691 20.1875H12.2979C13.0322 20.1875 13.5947 19.9974 13.9854 19.6172C14.3812 19.237 14.5791 18.6771 14.5791 17.9375V13.1406H14.6338C14.9775 13.0677 15.2406 12.8984 15.4229 12.6328C15.6104 12.3672 15.7041 12.0365 15.7041 11.6406V9.58594C15.7041 9.11198 15.5765 8.73438 15.3213 8.45312C15.0661 8.17188 14.6989 8.03125 14.2197 8.03125H12.6416C12.8499 7.82812 13.0114 7.58854 13.126 7.3125C13.2406 7.03125 13.2979 6.72917 13.2979 6.40625C13.2979 5.90104 13.1755 5.45312 12.9307 5.0625C12.6911 4.67188 12.3656 4.36719 11.9541 4.14844C11.5479 3.92448 11.0921 3.8125 10.5869 3.8125C10.04 3.8125 9.55306 3.95573 9.12598 4.24219C8.69889 4.52865 8.38639 4.9349 8.18848 5.46094C7.99056 4.9349 7.67806 4.52865 7.25098 4.24219C6.8291 3.95573 6.34212 3.8125 5.79004 3.8125C5.28483 3.8125 4.8265 3.92448 4.41504 4.14844C4.00879 4.36719 3.68327 4.67188 3.43848 5.0625C3.19889 5.45312 3.0791 5.90104 3.0791 6.40625C3.0791 6.72917 3.13639 7.03125 3.25098 7.3125C3.37077 7.58854 3.53483 7.82812 3.74316 8.03125H2.16504C1.70671 8.03125 1.34473 8.17188 1.0791 8.45312C0.813477 8.73438 0.680664 9.11198 0.680664 9.58594V11.6406C0.680664 12.0365 0.77181 12.3672 0.954102 12.6328C1.13639 12.8984 1.39941 13.0677 1.74316 13.1406H1.79785V17.9375C1.79785 18.6771 1.99316 19.237 2.38379 19.6172C2.77962 19.9974 3.34733 20.1875 4.08691 20.1875ZM7.49316 19.0156H4.07129C3.74837 19.0156 3.49837 18.9271 3.32129 18.75C3.14421 18.5729 3.05566 18.3229 3.05566 18V13.1953H7.49316V19.0156ZM8.88379 19.0156V13.1953H13.3213V18C13.3213 18.3229 13.2327 18.5729 13.0557 18.75C12.8838 18.9271 12.6338 19.0156 12.3057 19.0156H8.88379ZM7.49316 12.0156H2.48535C2.28743 12.0156 2.14681 11.974 2.06348 11.8906C1.98014 11.8021 1.93848 11.6589 1.93848 11.4609V9.75781C1.93848 9.5599 1.98014 9.41927 2.06348 9.33594C2.14681 9.2526 2.28743 9.21094 2.48535 9.21094H7.49316V12.0156ZM8.88379 12.0156V9.21094H13.9072C14.0999 9.21094 14.238 9.2526 14.3213 9.33594C14.4046 9.41927 14.4463 9.5599 14.4463 9.75781V11.4609C14.4463 11.6589 14.4046 11.8021 14.3213 11.8906C14.238 11.974 14.0999 12.0156 13.9072 12.0156H8.88379ZM7.54785 8.03125H6.3291C5.71452 8.03125 5.23535 7.88021 4.8916 7.57812C4.55306 7.27604 4.38379 6.90885 4.38379 6.47656C4.38379 6.04427 4.52441 5.71094 4.80566 5.47656C5.08691 5.23698 5.44108 5.11719 5.86816 5.11719C6.33691 5.11719 6.73275 5.28385 7.05566 5.61719C7.38379 5.94531 7.54785 6.39844 7.54785 6.97656V8.03125ZM8.8291 8.03125V6.97656C8.8291 6.39844 8.99316 5.94531 9.32129 5.61719C9.64941 5.28385 10.0452 5.11719 10.5088 5.11719C10.9411 5.11719 11.2952 5.23698 11.5713 5.47656C11.8525 5.71094 11.9932 6.04427 11.9932 6.47656C11.9932 6.90885 11.8213 7.27604 11.4775 7.57812C11.139 7.88021 10.6624 8.03125 10.0479 8.03125H8.8291Z"
		fill="currentColor"
	/>
</svg>
