<svg
	color="rgb(var(--foreground, 0, 0, 0))"
	viewBox="0 0 16 24"
	fill="none"
	xmlns="http://www.w3.org/2000/svg"
>
	<path
		d="M1.82129 18.2031C1.82129 18.8542 2.00358 19.3464 2.36816 19.6797C2.73275 20.0182 3.24056 20.1875 3.8916 20.1875H7.56348V13.1719H1.82129V18.2031ZM8.84473 20.1875H12.5244C13.1755 20.1875 13.6833 20.0182 14.0479 19.6797C14.4124 19.3464 14.5947 18.8542 14.5947 18.2031V13.1719H8.84473V20.1875ZM0.704102 11.1719C0.704102 11.5885 0.816081 11.888 1.04004 12.0703C1.26921 12.2474 1.59473 12.3359 2.0166 12.3359H7.56348V8.10938H6.34473C5.73014 8.10938 5.25098 7.94531 4.90723 7.61719C4.56868 7.28906 4.39941 6.90885 4.39941 6.47656C4.39941 6.04427 4.54004 5.71094 4.82129 5.47656C5.10254 5.23698 5.45671 5.11719 5.88379 5.11719C6.35254 5.11719 6.74837 5.28385 7.07129 5.61719C7.39941 5.94531 7.56348 6.39844 7.56348 6.97656V8.10938H8.84473V6.97656C8.84473 6.39844 9.00879 5.94531 9.33691 5.61719C9.66504 5.28385 10.0609 5.11719 10.5244 5.11719C10.9567 5.11719 11.3109 5.23698 11.5869 5.47656C11.8682 5.71094 12.0088 6.04427 12.0088 6.47656C12.0088 6.90885 11.8369 7.28906 11.4932 7.61719C11.1546 7.94531 10.6781 8.10938 10.0635 8.10938H8.84473V12.3359H14.3994C14.8213 12.3359 15.1442 12.2474 15.3682 12.0703C15.5973 11.888 15.7119 11.5885 15.7119 11.1719V9.27344C15.7119 8.85677 15.5973 8.5599 15.3682 8.38281C15.1442 8.20052 14.8213 8.10938 14.3994 8.10938H12.5869C12.8161 7.89583 12.9932 7.64583 13.1182 7.35938C13.2484 7.06771 13.3135 6.75 13.3135 6.40625C13.3135 5.90104 13.1911 5.45312 12.9463 5.0625C12.7067 4.67188 12.3812 4.36719 11.9697 4.14844C11.5635 3.92448 11.1077 3.8125 10.6025 3.8125C10.0557 3.8125 9.56868 3.95573 9.1416 4.24219C8.71452 4.52865 8.40202 4.9349 8.2041 5.46094C8.00618 4.9349 7.69368 4.52865 7.2666 4.24219C6.84473 3.95573 6.35775 3.8125 5.80566 3.8125C5.30046 3.8125 4.84212 3.92448 4.43066 4.14844C4.02441 4.36719 3.69889 4.67188 3.4541 5.0625C3.21452 5.45312 3.09473 5.90104 3.09473 6.40625C3.09473 6.75 3.15983 7.06771 3.29004 7.35938C3.42025 7.64583 3.59993 7.89583 3.8291 8.10938H2.0166C1.61556 8.10938 1.29525 8.20052 1.05566 8.38281C0.821289 8.5599 0.704102 8.85677 0.704102 9.27344V11.1719Z"
		fill="currentColor"
	/>
</svg>
