<svg
	color="rgb(var(--foreground, 0, 0, 0))"
	viewBox="0 0 15 24"
	fill="none"
	xmlns="http://www.w3.org/2000/svg"
>
	<path
		d="M8.04688 12.3166L14.2031 6.16036C14.3594 6.00932 14.4375 5.85046 14.4375 5.6838C14.4427 5.51713 14.3828 5.36609 14.2578 5.23067C14.138 5.09526 13.9714 4.99369 13.7578 4.92598C13.263 4.76453 12.75 4.64213 12.2188 4.5588C11.6875 4.47546 11.1224 4.42598 10.5234 4.41036C9.92448 4.38953 9.27604 4.39994 8.57812 4.44161L8.16406 4.00411C7.83073 3.64994 7.45052 3.47286 7.02344 3.47286C6.59635 3.46765 6.20573 3.63692 5.85156 3.98067C5.6276 4.21505 5.47656 4.47026 5.39844 4.7463C5.32031 5.02234 5.32031 5.29578 5.39844 5.56661C5.47656 5.83744 5.63542 6.07963 5.875 6.29317L6.3125 6.69161C6.27083 7.37911 6.25781 8.02234 6.27344 8.6213C6.28906 9.22026 6.33854 9.78796 6.42188 10.3244C6.50521 10.8557 6.625 11.3739 6.78125 11.8791C6.88542 12.2072 7.0599 12.426 7.30469 12.5354C7.55469 12.6395 7.80208 12.5666 8.04688 12.3166ZM6.21094 5.16817L7.03906 4.33223L5.64062 2.94942C5.52083 2.82963 5.38021 2.77234 5.21875 2.77755C5.0625 2.77755 4.92708 2.83484 4.8125 2.94942C4.70312 3.0588 4.64583 3.19421 4.64062 3.35567C4.64062 3.51713 4.69792 3.65515 4.8125 3.76973L6.21094 5.16817ZM11.5781 11.8244C11.9635 11.8244 12.3151 11.7281 12.6328 11.5354C12.9557 11.3427 13.2109 11.0874 13.3984 10.7697C13.5911 10.452 13.6875 10.1031 13.6875 9.72286C13.6875 9.19682 13.5104 8.74109 13.1562 8.35567L10.2109 11.301C10.4036 11.4729 10.6172 11.6031 10.8516 11.6916C11.0859 11.7802 11.3281 11.8244 11.5781 11.8244ZM1.47656 13.3479L7.40625 7.89473L6.54688 6.98848L0.625 12.4338L1.47656 13.3479ZM1.21875 13.9494C1.55729 13.9494 1.84375 13.8322 2.07812 13.5979C2.31771 13.3635 2.4375 13.0744 2.4375 12.7307C2.4375 12.3921 2.31771 12.1057 2.07812 11.8713C1.84375 11.6317 1.55729 11.5119 1.21875 11.5119C0.875 11.5119 0.585938 11.6317 0.351562 11.8713C0.117188 12.1057 0 12.3921 0 12.7307C0 13.0744 0.117188 13.3635 0.351562 13.5979C0.585938 13.8322 0.875 13.9494 1.21875 13.9494ZM4.39062 16.7229L5.28125 15.84L1.39844 11.9729L0.515625 12.8557L4.39062 16.7229ZM4.625 17.5354C4.96354 17.5354 5.25 17.4182 5.48438 17.1838C5.72396 16.9494 5.84375 16.6604 5.84375 16.3166C5.84375 15.9781 5.72396 15.6916 5.48438 15.4572C5.25 15.2177 4.96354 15.0979 4.625 15.0979C4.28125 15.0979 3.99219 15.2177 3.75781 15.4572C3.52344 15.6916 3.40625 15.9781 3.40625 16.3166C3.40625 16.6604 3.52344 16.9494 3.75781 17.1838C3.99219 17.4182 4.28125 17.5354 4.625 17.5354ZM3.99219 20.1213H5.25V16.3479H3.99219V20.1213ZM0.898438 21.2229H9.21094C9.35677 21.2229 9.47396 21.176 9.5625 21.0822C9.65104 20.9885 9.69531 20.8635 9.69531 20.7072C9.69531 20.4156 9.57812 20.176 9.34375 19.9885C9.10938 19.801 8.79427 19.7072 8.39844 19.7072H1.71094C1.3151 19.7072 1 19.801 0.765625 19.9885C0.53125 20.176 0.414062 20.4156 0.414062 20.7072C0.414062 20.8635 0.458333 20.9885 0.546875 21.0822C0.635417 21.176 0.752604 21.2229 0.898438 21.2229Z"
		fill="currentColor"
	/>
</svg>
