<svg
	color="rgb(var(--foreground, 0, 0, 0))"
	viewBox="0 0 16 24"
	fill="none"
	xmlns="http://www.w3.org/2000/svg"
>
	<path
		d="M9.09949 12.7619L15.1776 6.68374C15.4276 6.43374 15.5604 6.16551 15.576 5.87905C15.5969 5.58738 15.524 5.32176 15.3573 5.08217C15.1906 4.84259 14.951 4.67592 14.6385 4.58217C13.8417 4.32176 13.0162 4.15249 12.162 4.07436C11.3078 3.99103 10.399 3.97801 9.43542 4.0353L9.19324 3.77749C8.90678 3.4754 8.58386 3.27228 8.22449 3.16811C7.87032 3.05874 7.51355 3.05092 7.15417 3.14467C6.7948 3.23842 6.46147 3.43634 6.15417 3.73842C5.8573 4.04572 5.65938 4.38426 5.56042 4.75405C5.46667 5.11863 5.47188 5.48061 5.57605 5.83999C5.68542 6.19415 5.89115 6.50926 6.19324 6.7853L6.45105 7.02749C6.39897 7.98582 6.41199 8.88947 6.49011 9.73842C6.56824 10.5874 6.7323 11.4129 6.9823 12.215C7.08126 12.5275 7.25053 12.7697 7.49011 12.9415C7.7297 13.1134 7.99532 13.1889 8.28699 13.1681C8.57865 13.1473 8.84949 13.0119 9.09949 12.7619ZM8.32605 11.9806C8.26355 12.0431 8.20365 12.0639 8.14636 12.0431C8.09428 12.0171 8.03959 11.9129 7.9823 11.7306C7.76876 11.0483 7.62813 10.3165 7.56042 9.5353C7.49792 8.75405 7.50053 7.89728 7.56824 6.96499C7.58386 6.69936 7.48751 6.4728 7.27917 6.2853L6.93542 5.9728C6.71667 5.76967 6.6047 5.5379 6.59949 5.27749C6.59428 5.01186 6.70626 4.75665 6.93542 4.51186C7.17501 4.28269 7.42501 4.17072 7.68542 4.17592C7.95105 4.17592 8.18803 4.29051 8.39636 4.51967L8.70886 4.86342C8.90157 5.07697 9.14115 5.17072 9.42761 5.14467C10.3443 5.08738 11.1906 5.09259 11.9667 5.1603C12.7479 5.2228 13.4797 5.36342 14.162 5.58217C14.3339 5.63426 14.4302 5.68634 14.451 5.73842C14.4771 5.79051 14.4615 5.84519 14.4042 5.90249L8.32605 11.9806ZM11.7714 11.9728C12.2505 11.9728 12.688 11.8556 13.0839 11.6212C13.4797 11.3869 13.7948 11.0718 14.0292 10.6759C14.2688 10.2801 14.3885 9.84519 14.3885 9.37124C14.3885 9.03269 14.3234 8.70457 14.1932 8.38686C14.063 8.06915 13.8729 7.78269 13.6229 7.52749L13.0526 8.62124C13.1255 8.73061 13.1802 8.8504 13.2167 8.98061C13.2583 9.10561 13.2792 9.23582 13.2792 9.37124C13.2792 9.7879 13.1281 10.1421 12.826 10.4337C12.5292 10.7254 12.1776 10.8712 11.7714 10.8712C11.6359 10.8712 11.5031 10.853 11.3729 10.8165C11.2427 10.7749 11.1229 10.7202 11.0135 10.6525L10.0214 11.3087C10.2662 11.5275 10.5396 11.6942 10.8417 11.8087C11.1438 11.9181 11.4537 11.9728 11.7714 11.9728ZM6.21667 4.63686L7.02136 3.77749L6.06824 2.83217C5.95365 2.71238 5.81563 2.65509 5.65417 2.6603C5.49272 2.6603 5.3547 2.71759 5.24011 2.83217C5.13074 2.94155 5.07345 3.07697 5.06824 3.23842C5.06824 3.39988 5.12553 3.5379 5.24011 3.65249L6.21667 4.63686ZM2.13855 13.465L7.08386 8.91811L6.7323 7.54311L1.28699 12.5509L2.13855 13.465ZM1.88074 14.0665C2.21928 14.0665 2.50574 13.9494 2.74011 13.715C2.9797 13.4806 3.09949 13.1915 3.09949 12.8478C3.09949 12.5093 2.9797 12.2228 2.74011 11.9884C2.50574 11.7488 2.21928 11.629 1.88074 11.629C1.53699 11.629 1.24792 11.7488 1.01355 11.9884C0.779175 12.2228 0.661987 12.5093 0.661987 12.8478C0.661987 13.1915 0.779175 13.4806 1.01355 13.715C1.24792 13.9494 1.53699 14.0665 1.88074 14.0665ZM5.05261 16.84L5.94324 15.9494L2.06042 12.09L1.17761 12.9728L5.05261 16.84ZM5.28699 17.6525C5.63074 17.6525 5.9198 17.5405 6.15417 17.3165C6.38855 17.0874 6.50574 16.7931 6.50574 16.4337C6.50574 16.0952 6.38595 15.8087 6.14636 15.5744C5.91199 15.3348 5.62553 15.215 5.28699 15.215C4.94324 15.215 4.65417 15.3348 4.4198 15.5744C4.18542 15.8087 4.06824 16.0952 4.06824 16.4337C4.06824 16.7775 4.18542 17.0665 4.4198 17.3009C4.65417 17.5353 4.94324 17.6525 5.28699 17.6525ZM4.65417 20.2384H5.91199V16.465H4.65417V20.2384ZM1.56042 21.34H9.87292C10.0188 21.34 10.1359 21.2931 10.2245 21.1994C10.313 21.1056 10.3573 20.9806 10.3573 20.8244C10.3573 20.5327 10.2401 20.2931 10.0057 20.1056C9.77136 19.9181 9.45626 19.8244 9.06042 19.8244H2.37292C1.97709 19.8244 1.66199 19.9181 1.42761 20.1056C1.19324 20.2931 1.07605 20.5327 1.07605 20.8244C1.07605 20.9806 1.12032 21.1056 1.20886 21.1994C1.2974 21.2931 1.41459 21.34 1.56042 21.34Z"
		fill="currentColor"
	/>
</svg>
