<svg
	color="rgb(var(--foreground, 0, 0, 0))"
	viewBox="0 0 12 24"
	fill="none"
	xmlns="http://www.w3.org/2000/svg"
>
	<path
		d="M0.963379 7.72266C0.963379 8.32682 1.03109 8.86068 1.1665 9.32422C1.30192 9.78255 1.47119 10.2331 1.67432 10.6758C1.88265 11.1185 2.09619 11.6055 2.31494 12.1367C2.53369 12.668 2.729 13.2982 2.90088 14.0273C3.07796 14.7513 3.19775 15.6341 3.26025 16.6758C3.27067 16.8164 3.31494 16.9284 3.39307 17.0117C3.4764 17.0951 3.59359 17.1367 3.74463 17.1367H8.63525C8.7863 17.1367 8.90348 17.0951 8.98682 17.0117C9.07015 16.9284 9.11702 16.8164 9.12744 16.6758C9.18994 15.6341 9.30713 14.7513 9.479 14.0273C9.65609 13.2982 9.854 12.668 10.0728 12.1367C10.2915 11.6055 10.5024 11.1185 10.7056 10.6758C10.9139 10.2331 11.0832 9.78255 11.2134 9.32422C11.3488 8.86068 11.4165 8.32682 11.4165 7.72266C11.4165 7.05078 11.2837 6.42318 11.0181 5.83984C10.7524 5.25651 10.38 4.74609 9.90088 4.30859C9.42692 3.86589 8.87223 3.52214 8.23682 3.27734C7.6014 3.03255 6.91911 2.91016 6.18994 2.91016C5.46077 2.91016 4.77848 3.03255 4.14307 3.27734C3.51286 3.52214 2.95817 3.86589 2.479 4.30859C2.00505 4.74609 1.63265 5.25651 1.36182 5.83984C1.09619 6.42318 0.963379 7.05078 0.963379 7.72266ZM3.72119 18.8242H8.6665C8.7915 18.8242 8.89827 18.7799 8.98682 18.6914C9.07536 18.6029 9.11963 18.4935 9.11963 18.3633C9.11963 18.2383 9.07536 18.1315 8.98682 18.043C8.89827 17.9544 8.7915 17.9102 8.6665 17.9102H3.72119C3.59098 17.9102 3.48161 17.9544 3.39307 18.043C3.30452 18.1315 3.26025 18.2383 3.26025 18.3633C3.26025 18.4935 3.30452 18.6029 3.39307 18.6914C3.48161 18.7799 3.59098 18.8242 3.72119 18.8242ZM6.18994 21.0898C6.79411 21.0898 7.31755 20.9518 7.76025 20.6758C8.20817 20.4049 8.45036 20.0456 8.48682 19.5977H3.90088C3.92692 20.0456 4.1613 20.4049 4.604 20.6758C5.05192 20.9518 5.58057 21.0898 6.18994 21.0898Z"
		fill="currentColor"
	/>
</svg>
