<svg
	color="rgb(var(--foreground, 0, 0, 0))"
	viewBox="0 0 15 24"
	fill="none"
	xmlns="http://www.w3.org/2000/svg"
>
	<path
		d="M7.84406 2.91016C7.00551 2.91016 6.23208 3.07161 5.52374 3.39453C4.81541 3.71745 4.22166 4.15234 3.74249 4.69922L4.57843 5.53516C4.95343 5.08724 5.42478 4.73568 5.99249 4.48047C6.56541 4.22005 7.1826 4.08984 7.84406 4.08984C8.39093 4.08984 8.90656 4.18099 9.39093 4.36328C9.88051 4.54036 10.3128 4.79297 10.6878 5.12109C11.0628 5.44401 11.3571 5.82682 11.5706 6.26953C11.7842 6.71224 11.8909 7.19661 11.8909 7.72266C11.8909 8.08203 11.8571 8.40755 11.7894 8.69922C11.7217 8.98568 11.6279 9.27214 11.5081 9.55859C11.3935 9.83984 11.2633 10.1471 11.1175 10.4805C10.9769 10.8086 10.8284 11.1888 10.6722 11.6211L11.6331 12.5898C11.805 12.1107 11.9743 11.6784 12.1409 11.293C12.3076 10.9076 12.4612 10.5352 12.6019 10.1758C12.7425 9.81641 12.8545 9.44141 12.9378 9.05078C13.0263 8.65495 13.0706 8.21224 13.0706 7.72266C13.0706 7.05078 12.9352 6.42318 12.6644 5.83984C12.3987 5.25651 12.0263 4.74609 11.5472 4.30859C11.0732 3.86589 10.5185 3.52214 9.88312 3.27734C9.25291 3.03255 8.57322 2.91016 7.84406 2.91016ZM5.39874 17.1367H10.2816C10.4378 17.1367 10.5576 17.0977 10.6409 17.0195C10.7243 16.9362 10.7685 16.8216 10.7737 16.6758L10.8362 16.1758L10.0003 15.4023L9.92999 15.957H5.98468C5.90135 15.2799 5.80499 14.681 5.69562 14.1602C5.59145 13.6393 5.47947 13.1732 5.35968 12.7617C5.2451 12.3503 5.12791 11.9805 5.00812 11.6523C4.89353 11.3242 4.78676 11.0221 4.68781 10.7461C4.58885 10.4648 4.50291 10.1914 4.42999 9.92578C4.41437 9.8737 4.39874 9.82161 4.38312 9.76953C4.3727 9.71224 4.36489 9.65495 4.35968 9.59766L2.64874 7.88672C2.63833 8.05859 2.64093 8.2487 2.65656 8.45703C2.70864 8.94141 2.80239 9.38672 2.93781 9.79297C3.07843 10.1992 3.23989 10.6107 3.42218 11.0273C3.60968 11.4388 3.79978 11.8997 3.99249 12.4102C4.1852 12.9206 4.36228 13.5195 4.52374 14.207C4.69041 14.8945 4.81801 15.7174 4.90656 16.6758C4.92218 16.8164 4.96906 16.9284 5.04718 17.0117C5.13051 17.0951 5.2477 17.1367 5.39874 17.1367ZM5.36749 18.8242H10.3128C10.443 18.8242 10.5524 18.7799 10.6409 18.6914C10.7295 18.6029 10.7737 18.4935 10.7737 18.3633C10.7737 18.2383 10.7295 18.1315 10.6409 18.043C10.5524 17.9544 10.443 17.9102 10.3128 17.9102H5.36749C5.23728 17.9102 5.12791 17.9544 5.03937 18.043C4.95603 18.1315 4.91437 18.2383 4.91437 18.3633C4.91437 18.4935 4.95603 18.6029 5.03937 18.6914C5.12791 18.7799 5.23728 18.8242 5.36749 18.8242ZM7.84406 21.0898C8.44822 21.0898 8.97166 20.9518 9.41437 20.6758C9.85708 20.4049 10.0967 20.0456 10.1331 19.5977H5.54718C5.57843 20.0456 5.81541 20.4049 6.25812 20.6758C6.70603 20.9518 7.23468 21.0898 7.84406 21.0898ZM13.5003 17.4414C13.6201 17.5664 13.7607 17.6289 13.9222 17.6289C14.0888 17.6237 14.2321 17.5612 14.3519 17.4414C14.4665 17.3268 14.5237 17.1862 14.5237 17.0195C14.529 16.8529 14.4717 16.7096 14.3519 16.5898L1.46124 3.69922C1.34145 3.57943 1.19562 3.52214 1.02374 3.52734C0.857076 3.52734 0.716451 3.58464 0.601868 3.69922C0.492493 3.8138 0.437805 3.95703 0.437805 4.12891C0.437805 4.30078 0.492493 4.44141 0.601868 4.55078L13.5003 17.4414Z"
		fill="currentColor"
	/>
</svg>
