<svg
	color="rgb(var(--foreground, 0, 0, 0))"
	viewBox="0 0 15 24"
	fill="none"
	xmlns="http://www.w3.org/2000/svg"
>
	<path
		d="M7.93033 2.91016C7.09179 2.91016 6.31835 3.07161 5.61002 3.39453C4.90168 3.71745 4.30793 4.15234 3.82877 4.69922L11.7194 12.5898C11.8913 12.1107 12.0605 11.6784 12.2272 11.293C12.3939 10.9076 12.5475 10.5352 12.6881 10.1758C12.8288 9.81641 12.9407 9.44141 13.0241 9.05078C13.1126 8.65495 13.1569 8.21224 13.1569 7.72266C13.1569 7.05078 13.0215 6.42318 12.7506 5.83984C12.485 5.25651 12.1126 4.74609 11.6335 4.30859C11.1595 3.86589 10.6048 3.52214 9.96939 3.27734C9.33918 3.03255 8.6595 2.91016 7.93033 2.91016ZM5.48502 17.1367H10.3678C10.6647 17.1367 10.8288 16.9831 10.86 16.6758C10.8652 16.5664 10.873 16.4648 10.8835 16.3711C10.8991 16.2721 10.9147 16.1784 10.9303 16.0898L2.73502 7.88672C2.72981 8.01172 2.72981 8.13672 2.73502 8.26172C2.74022 8.38151 2.75064 8.4987 2.76627 8.61328C2.82356 9.07682 2.92252 9.50651 3.06314 9.90234C3.20377 10.2982 3.36522 10.7018 3.54752 11.1133C3.72981 11.5195 3.9147 11.9753 4.1022 12.4805C4.2897 12.9857 4.46158 13.5768 4.61783 14.2539C4.77929 14.931 4.90429 15.7383 4.99283 16.6758C5.00845 16.8164 5.05533 16.9284 5.13345 17.0117C5.21679 17.0951 5.33397 17.1367 5.48502 17.1367ZM5.45377 18.8242H10.3991C10.5293 18.8242 10.6387 18.7799 10.7272 18.6914C10.8157 18.6029 10.86 18.4935 10.86 18.3633C10.86 18.2383 10.8157 18.1315 10.7272 18.043C10.6387 17.9544 10.5293 17.9102 10.3991 17.9102H5.45377C5.32356 17.9102 5.21418 17.9544 5.12564 18.043C5.04231 18.1315 5.00064 18.2383 5.00064 18.3633C5.00064 18.4935 5.04231 18.6029 5.12564 18.6914C5.21418 18.7799 5.32356 18.8242 5.45377 18.8242ZM7.93033 21.0898C8.5345 21.0898 9.05793 20.9518 9.50064 20.6758C9.94335 20.4049 10.1829 20.0456 10.2194 19.5977H5.63345C5.6647 20.0456 5.90168 20.4049 6.34439 20.6758C6.79231 20.9518 7.32095 21.0898 7.93033 21.0898ZM13.5866 17.4414C13.7064 17.5664 13.847 17.6289 14.0085 17.6289C14.1751 17.6237 14.3183 17.5612 14.4381 17.4414C14.5527 17.3268 14.61 17.1862 14.61 17.0195C14.6152 16.8529 14.5579 16.7096 14.4381 16.5898L1.54752 3.69922C1.42772 3.57943 1.28189 3.52214 1.11002 3.52734C0.943349 3.52734 0.802724 3.58464 0.688141 3.69922C0.578766 3.8138 0.524078 3.95703 0.524078 4.12891C0.524078 4.30078 0.578766 4.44141 0.688141 4.55078L13.5866 17.4414Z"
		fill="currentColor"
	/>
</svg>
