<svg
	color="rgb(var(--foreground, 0, 0, 0))"
	viewBox="0 0 11 24"
	fill="none"
	xmlns="http://www.w3.org/2000/svg"
>
	<path
		d="M0.510254 7.72266C0.510254 8.32682 0.572754 8.86068 0.697754 9.32422C0.822754 9.78255 0.981608 10.2331 1.17432 10.6758C1.36702 11.1185 1.57015 11.6055 1.78369 12.1367C1.99723 12.668 2.19515 13.2982 2.37744 14.0273C2.56494 14.7513 2.70817 15.6341 2.80713 16.6758C2.82275 16.8164 2.86963 16.9284 2.94775 17.0117C3.02588 17.0951 3.14046 17.1367 3.2915 17.1367H8.18213C8.33317 17.1367 8.44775 17.0951 8.52588 17.0117C8.60921 16.9284 8.65869 16.8164 8.67432 16.6758C8.77327 15.6341 8.9139 14.7513 9.09619 14.0273C9.27848 13.2982 9.4764 12.668 9.68994 12.1367C9.90869 11.6055 10.1144 11.1185 10.3071 10.6758C10.4998 10.2331 10.6561 9.78255 10.7759 9.32422C10.9009 8.86068 10.9634 8.32682 10.9634 7.72266C10.9634 7.05078 10.8306 6.42318 10.5649 5.83984C10.2993 5.25651 9.92692 4.74609 9.44775 4.30859C8.9738 3.86589 8.41911 3.52214 7.78369 3.27734C7.14827 3.03255 6.46598 2.91016 5.73682 2.91016C5.00765 2.91016 4.32536 3.03255 3.68994 3.27734C3.05973 3.52214 2.50505 3.86589 2.02588 4.30859C1.55192 4.74609 1.17952 5.25651 0.908691 5.83984C0.643066 6.42318 0.510254 7.05078 0.510254 7.72266ZM1.68994 7.72266C1.68994 7.19661 1.79671 6.71224 2.01025 6.26953C2.2238 5.82682 2.51807 5.44401 2.89307 5.12109C3.26807 4.79297 3.69775 4.54036 4.18213 4.36328C4.67171 4.18099 5.18994 4.08984 5.73682 4.08984C6.2889 4.08984 6.80713 4.18099 7.2915 4.36328C7.78109 4.54036 8.21338 4.79297 8.58838 5.12109C8.96338 5.44401 9.25505 5.82682 9.46338 6.26953C9.67692 6.71224 9.78369 7.19661 9.78369 7.72266C9.78369 8.17057 9.73161 8.57161 9.62744 8.92578C9.52327 9.27995 9.38525 9.64453 9.21338 10.0195C9.04671 10.3945 8.86442 10.8346 8.6665 11.3398C8.46859 11.8451 8.27588 12.4674 8.08838 13.207C7.90088 13.9466 7.73682 14.8633 7.59619 15.957H3.88525C3.74463 14.8633 3.57796 13.9466 3.38525 13.207C3.19775 12.4674 3.00505 11.8451 2.80713 11.3398C2.60921 10.8346 2.42432 10.3945 2.25244 10.0195C2.08577 9.64453 1.95036 9.27995 1.84619 8.92578C1.74202 8.57161 1.68994 8.17057 1.68994 7.72266ZM3.26807 18.8242H8.21338C8.33838 18.8242 8.44515 18.7799 8.53369 18.6914C8.62223 18.6029 8.6665 18.4935 8.6665 18.3633C8.6665 18.2383 8.62223 18.1315 8.53369 18.043C8.44515 17.9544 8.33838 17.9102 8.21338 17.9102H3.26807C3.13786 17.9102 3.02848 17.9544 2.93994 18.043C2.8514 18.1315 2.80713 18.2383 2.80713 18.3633C2.80713 18.4935 2.8514 18.6029 2.93994 18.6914C3.02848 18.7799 3.13786 18.8242 3.26807 18.8242ZM5.73682 21.0898C6.34098 21.0898 6.86442 20.9518 7.30713 20.6758C7.75505 20.4049 7.99723 20.0456 8.03369 19.5977H3.44775C3.4738 20.0456 3.70817 20.4049 4.15088 20.6758C4.5988 20.9518 5.12744 21.0898 5.73682 21.0898Z"
		fill="currentColor"
	/>
</svg>
