<svg
	color="rgb(var(--foreground, 0, 0, 0))"
	viewBox="0 0 19 24"
	fill="none"
	xmlns="http://www.w3.org/2000/svg"
>
	<path
		d="M11.2359 3.89473L8.24371 12.1369C8.19163 12.2828 8.19684 12.426 8.25934 12.5666C8.32705 12.7072 8.43382 12.8036 8.57965 12.8557C8.72548 12.913 8.86871 12.9078 9.00934 12.84C9.14996 12.7723 9.24632 12.6682 9.2984 12.5275L12.2984 4.28536C12.3505 4.13432 12.3427 3.98848 12.275 3.84786C12.2125 3.70723 12.1083 3.61088 11.9625 3.5588C11.8166 3.50151 11.6708 3.50671 11.525 3.57442C11.3843 3.64213 11.288 3.7489 11.2359 3.89473ZM1.7359 17.1525C2.13173 17.2932 2.50413 17.2828 2.85309 17.1213C3.20726 16.9546 3.45465 16.6786 3.59528 16.2932L6.10309 9.44942L5.68903 9.70723C5.91819 10.2437 6.26194 10.7255 6.72028 11.1525C7.18382 11.5744 7.73851 11.8843 8.38434 12.0822L8.72028 11.1369C7.93903 10.8557 7.32965 10.4442 6.89215 9.90255C6.45465 9.36088 6.22548 8.72807 6.20465 8.00411L5.89996 7.89473C5.83226 7.86869 5.76455 7.8713 5.69684 7.90255C5.63434 7.9338 5.59007 7.98328 5.56403 8.05098L2.71246 15.8713C2.64996 16.0275 2.55361 16.1317 2.4234 16.1838C2.2984 16.2307 2.1734 16.2307 2.0484 16.1838C1.93382 16.1369 1.84788 16.0614 1.79059 15.9572C1.7333 15.8479 1.73069 15.7203 1.78278 15.5744L5.16559 6.29317C5.25934 6.01713 5.43642 5.81921 5.69684 5.69942C5.95726 5.57442 6.22548 5.5614 6.50153 5.66036L6.95465 5.82442C7.43382 5.26192 8.02236 4.90776 8.72028 4.76192C9.4234 4.61609 10.1734 4.6864 10.9703 4.97286L11.3062 4.03536C10.4364 3.71765 9.60048 3.6213 8.7984 3.7463C7.99632 3.86609 7.2958 4.18901 6.69684 4.71505L6.55621 4.66036C6.07705 4.48848 5.62392 4.52234 5.19684 4.76192C4.77496 5.00151 4.45986 5.40255 4.25153 5.96505L0.860901 15.2854C0.720276 15.676 0.733297 16.0484 0.899963 16.4025C1.06663 16.7567 1.34528 17.0067 1.7359 17.1525ZM2.32965 16.7932L1.51715 16.4963L0.173401 20.1916L0.985901 20.4807L2.32965 16.7932ZM11.7281 11.9182C11.8531 11.8088 11.9182 11.676 11.9234 11.5197C11.9338 11.3635 11.8869 11.2229 11.7828 11.0979C11.6682 10.9729 11.5328 10.9078 11.3765 10.9025C11.2203 10.8973 11.0797 10.9494 10.9547 11.0588C10.8349 11.1786 10.7724 11.3166 10.7672 11.4729C10.7619 11.6291 10.8166 11.7645 10.9312 11.8791C11.0406 11.9937 11.1708 12.0562 11.3218 12.0666C11.4781 12.077 11.6135 12.0275 11.7281 11.9182ZM13.1812 13.4963C13.301 13.3869 13.3635 13.2515 13.3687 13.09C13.3739 12.9286 13.3192 12.7854 13.2047 12.6604C13.1057 12.551 12.9755 12.4937 12.814 12.4885C12.6578 12.4833 12.5198 12.5354 12.4 12.6447C12.2906 12.7541 12.2307 12.8869 12.2203 13.0432C12.2099 13.1994 12.2567 13.3322 12.3609 13.4416C12.4807 13.5614 12.6187 13.6291 12.775 13.6447C12.9312 13.6552 13.0666 13.6057 13.1812 13.4963ZM14.6187 15.0588C14.7281 14.9494 14.788 14.8192 14.7984 14.6682C14.8088 14.5171 14.7619 14.3791 14.6578 14.2541C14.5484 14.1343 14.413 14.0744 14.2515 14.0744C14.0953 14.0692 13.9599 14.1239 13.8453 14.2385C13.7359 14.3479 13.6734 14.4807 13.6578 14.6369C13.6474 14.788 13.6942 14.9234 13.7984 15.0432C13.9078 15.163 14.0432 15.2229 14.2047 15.2229C14.3661 15.2229 14.5041 15.1682 14.6187 15.0588ZM12.8453 9.05098C12.9026 8.90515 12.8948 8.76192 12.8218 8.6213C12.7541 8.47546 12.6448 8.37651 12.4937 8.32442C12.3427 8.27234 12.1942 8.27755 12.0484 8.34005C11.9078 8.40255 11.8088 8.50932 11.7515 8.66036C11.6994 8.81661 11.7047 8.97026 11.7672 9.1213C11.8349 9.27234 11.9442 9.3739 12.0953 9.42598C12.2463 9.48328 12.3948 9.47546 12.5406 9.40255C12.6864 9.32963 12.788 9.21244 12.8453 9.05098ZM14.8453 9.8088C14.9026 9.65776 14.8948 9.51192 14.8218 9.3713C14.7541 9.22546 14.6448 9.12651 14.4937 9.07442C14.3427 9.01713 14.1994 9.01973 14.064 9.08223C13.9286 9.14473 13.8323 9.25411 13.775 9.41036C13.7229 9.55619 13.7281 9.70203 13.7906 9.84786C13.8531 9.98848 13.9599 10.0848 14.1109 10.1369C14.2619 10.1942 14.4078 10.1916 14.5484 10.1291C14.689 10.0614 14.788 9.95463 14.8453 9.8088ZM16.8609 10.5197C16.9182 10.3739 16.9104 10.2307 16.8375 10.09C16.7698 9.94421 16.663 9.84265 16.5172 9.78536C16.3609 9.73328 16.2099 9.74109 16.064 9.8088C15.9234 9.8713 15.8244 9.97546 15.7672 10.1213C15.7151 10.2723 15.7203 10.426 15.7828 10.5822C15.8505 10.7333 15.9599 10.8348 16.1109 10.8869C16.2619 10.9442 16.4104 10.9364 16.5562 10.8635C16.7073 10.7906 16.8088 10.676 16.8609 10.5197ZM13.8297 6.19161C13.7984 6.03536 13.7203 5.91296 13.5953 5.82442C13.4755 5.73067 13.3349 5.69421 13.1734 5.71505C13.0119 5.74109 12.8817 5.8114 12.7828 5.92598C12.6838 6.04057 12.6474 6.17859 12.6734 6.34005C12.6942 6.4963 12.7672 6.6239 12.8922 6.72286C13.0172 6.81661 13.1604 6.85567 13.3218 6.84005C13.4833 6.81921 13.6109 6.7463 13.7047 6.6213C13.8036 6.49109 13.8453 6.34786 13.8297 6.19161ZM15.939 5.91036C15.9234 5.7489 15.8505 5.6213 15.7203 5.52755C15.5901 5.4338 15.4468 5.39473 15.2906 5.41036C15.1343 5.44161 15.0067 5.51973 14.9078 5.64473C14.8088 5.76973 14.7698 5.91296 14.7906 6.07442C14.8114 6.22026 14.8869 6.34265 15.0172 6.44161C15.1474 6.53536 15.2906 6.57442 15.4468 6.5588C15.6031 6.53276 15.7307 6.45723 15.8297 6.33223C15.9286 6.20723 15.9651 6.06661 15.939 5.91036ZM18.0562 5.63692C18.025 5.47546 17.9494 5.34526 17.8297 5.2463C17.7099 5.14734 17.5718 5.10828 17.4156 5.12911C17.2541 5.14473 17.1265 5.21765 17.0328 5.34786C16.939 5.47807 16.9026 5.61869 16.9234 5.76973C16.9442 5.93119 17.0145 6.0614 17.1343 6.16036C17.2593 6.25411 17.4 6.29057 17.5562 6.26973C17.7177 6.25411 17.8453 6.1838 17.939 6.0588C18.038 5.92859 18.077 5.78796 18.0562 5.63692Z"
		fill="currentColor"
	/>
</svg>
