<svg
	color="rgb(var(--foreground, 0, 0, 0))"
	viewBox="0 0 14 24"
	fill="none"
	xmlns="http://www.w3.org/2000/svg"
>
	<path
		d="M9.22028 3.55078H7.10309C6.43642 3.55078 5.91038 3.74089 5.52496 4.12109C5.13955 4.5013 4.94684 5.01432 4.94684 5.66016V7.03516H6.12653V5.66016C6.12653 5.3737 6.21246 5.14974 6.38434 4.98828C6.56142 4.82161 6.80101 4.73828 7.10309 4.73828H9.22028C9.78278 4.73828 10.2698 4.86068 10.6812 5.10547C11.0979 5.35026 11.4208 5.69661 11.65 6.14453C11.8791 6.59245 11.9937 7.11849 11.9937 7.72266V19.8477C11.9937 20.0195 12.0484 20.1628 12.1578 20.2773C12.2672 20.3919 12.4078 20.4492 12.5797 20.4492C12.7515 20.4492 12.8922 20.3919 13.0015 20.2773C13.1161 20.1628 13.1734 20.0195 13.1734 19.8477V7.72266C13.1734 6.8737 13.0119 6.13932 12.689 5.51953C12.3661 4.89453 11.9078 4.41016 11.314 4.06641C10.7203 3.72266 10.0224 3.55078 9.22028 3.55078ZM0.501526 13.0977C0.501526 13.2383 0.551005 13.3581 0.649963 13.457C0.75413 13.556 0.876526 13.6055 1.01715 13.6055H10.0562C10.1968 13.6055 10.3166 13.556 10.4156 13.457C10.5145 13.3581 10.564 13.2383 10.564 13.0977C10.564 12.957 10.5145 12.8372 10.4156 12.7383C10.3218 12.6341 10.2073 12.582 10.0718 12.582H10.025C10.0041 12.0195 9.87913 11.4909 9.64996 10.9961C9.42601 10.5013 9.12132 10.0638 8.7359 9.68359C8.35048 9.29818 7.91038 8.99089 7.41559 8.76172V8.16016C7.41559 7.80078 7.33486 7.48047 7.1734 7.19922C7.01194 6.91276 6.79059 6.6888 6.50934 6.52734C6.22809 6.36589 5.90257 6.28516 5.53278 6.28516C5.16819 6.28516 4.84267 6.36589 4.55621 6.52734C4.27496 6.6888 4.05361 6.91276 3.89215 7.19922C3.73069 7.48047 3.64996 7.80078 3.64996 8.16016V8.76172C3.16038 8.99089 2.72288 9.29818 2.33746 9.68359C1.95205 10.0638 1.64476 10.5013 1.41559 10.9961C1.18642 11.4909 1.06142 12.0195 1.04059 12.582H1.00153C0.860901 12.582 0.741109 12.6341 0.642151 12.7383C0.548401 12.8372 0.501526 12.957 0.501526 13.0977ZM2.91559 15.7305C3.07705 15.7305 3.21246 15.6758 3.32184 15.5664C3.43121 15.4518 3.4859 15.3138 3.4859 15.1523C3.4859 14.9961 3.43121 14.8633 3.32184 14.7539C3.21246 14.6393 3.07705 14.582 2.91559 14.582C2.75934 14.582 2.62392 14.6393 2.50934 14.7539C2.39476 14.8633 2.33746 14.9961 2.33746 15.1523C2.33746 15.3138 2.39476 15.4518 2.50934 15.5664C2.62392 15.6758 2.75934 15.7305 2.91559 15.7305ZM2.91559 17.8711C3.07705 17.8711 3.21246 17.8138 3.32184 17.6992C3.43121 17.5898 3.4859 17.4544 3.4859 17.293C3.4859 17.1315 3.43121 16.9961 3.32184 16.8867C3.21246 16.7773 3.07705 16.7227 2.91559 16.7227C2.75934 16.7227 2.62392 16.7773 2.50934 16.8867C2.39476 16.9961 2.33746 17.1315 2.33746 17.293C2.33746 17.4544 2.39476 17.5898 2.50934 17.6992C2.62392 17.8138 2.75934 17.8711 2.91559 17.8711ZM2.91559 20.0117C3.07705 20.0117 3.21246 19.9544 3.32184 19.8398C3.43121 19.7253 3.4859 19.5898 3.4859 19.4336C3.4859 19.2721 3.43121 19.1367 3.32184 19.0273C3.21246 18.918 3.07705 18.8633 2.91559 18.8633C2.75934 18.8633 2.62392 18.918 2.50934 19.0273C2.39476 19.1367 2.33746 19.2721 2.33746 19.4336C2.33746 19.5898 2.39476 19.7253 2.50934 19.8398C2.62392 19.9544 2.75934 20.0117 2.91559 20.0117ZM5.52496 15.7305C5.68642 15.7305 5.82184 15.6758 5.93121 15.5664C6.04059 15.4518 6.09528 15.3138 6.09528 15.1523C6.09528 14.9961 6.04059 14.8633 5.93121 14.7539C5.82184 14.6393 5.68642 14.582 5.52496 14.582C5.36351 14.582 5.22548 14.6393 5.1109 14.7539C5.00153 14.8633 4.94684 14.9961 4.94684 15.1523C4.94684 15.3138 5.00153 15.4518 5.1109 15.5664C5.22548 15.6758 5.36351 15.7305 5.52496 15.7305ZM5.52496 17.8711C5.68642 17.8711 5.82184 17.8138 5.93121 17.6992C6.04059 17.5898 6.09528 17.4544 6.09528 17.293C6.09528 17.1315 6.04059 16.9961 5.93121 16.8867C5.82184 16.7773 5.68642 16.7227 5.52496 16.7227C5.36351 16.7227 5.22548 16.7773 5.1109 16.8867C5.00153 16.9961 4.94684 17.1315 4.94684 17.293C4.94684 17.4544 5.00153 17.5898 5.1109 17.6992C5.22548 17.8138 5.36351 17.8711 5.52496 17.8711ZM5.52496 20.0117C5.68642 20.0117 5.82184 19.9544 5.93121 19.8398C6.04059 19.7253 6.09528 19.5898 6.09528 19.4336C6.09528 19.2721 6.04059 19.1367 5.93121 19.0273C5.82184 18.918 5.68642 18.8633 5.52496 18.8633C5.36351 18.8633 5.22548 18.918 5.1109 19.0273C5.00153 19.1367 4.94684 19.2721 4.94684 19.4336C4.94684 19.5898 5.00153 19.7253 5.1109 19.8398C5.22548 19.9544 5.36351 20.0117 5.52496 20.0117ZM8.12653 15.7305C8.28798 15.7305 8.4234 15.6758 8.53278 15.5664C8.64215 15.4518 8.69684 15.3138 8.69684 15.1523C8.69684 14.9961 8.64215 14.8633 8.53278 14.7539C8.4234 14.6393 8.28798 14.582 8.12653 14.582C7.97028 14.582 7.83486 14.6393 7.72028 14.7539C7.60569 14.8633 7.5484 14.9961 7.5484 15.1523C7.5484 15.3138 7.60569 15.4518 7.72028 15.5664C7.83486 15.6758 7.97028 15.7305 8.12653 15.7305ZM8.12653 17.8711C8.28798 17.8711 8.4234 17.8138 8.53278 17.6992C8.64215 17.5898 8.69684 17.4544 8.69684 17.293C8.69684 17.1315 8.64215 16.9961 8.53278 16.8867C8.4234 16.7773 8.28798 16.7227 8.12653 16.7227C7.97028 16.7227 7.83486 16.7773 7.72028 16.8867C7.60569 16.9961 7.5484 17.1315 7.5484 17.293C7.5484 17.4544 7.60569 17.5898 7.72028 17.6992C7.83486 17.8138 7.97028 17.8711 8.12653 17.8711ZM8.12653 20.0117C8.28798 20.0117 8.4234 19.9544 8.53278 19.8398C8.64215 19.7253 8.69684 19.5898 8.69684 19.4336C8.69684 19.2721 8.64215 19.1367 8.53278 19.0273C8.4234 18.918 8.28798 18.8633 8.12653 18.8633C7.97028 18.8633 7.83486 18.918 7.72028 19.0273C7.60569 19.1367 7.5484 19.2721 7.5484 19.4336C7.5484 19.5898 7.60569 19.7253 7.72028 19.8398C7.83486 19.9544 7.97028 20.0117 8.12653 20.0117Z"
		fill="currentColor"
	/>
</svg>
