<svg
	color="rgb(var(--foreground, 0, 0, 0))"
	viewBox="0 0 14 24"
	fill="none"
	xmlns="http://www.w3.org/2000/svg"
>
	<path
		d="M9.5484 3.55078H7.43121C6.76455 3.55078 6.23851 3.74089 5.85309 4.12109C5.46767 4.5013 5.27496 5.01432 5.27496 5.66016V7.03516H6.45465V5.66016C6.45465 5.3737 6.54059 5.14974 6.71246 4.98828C6.88955 4.82161 7.12913 4.73828 7.43121 4.73828H9.5484C10.1109 4.73828 10.5979 4.86068 11.0093 5.10547C11.426 5.35026 11.7489 5.69661 11.9781 6.14453C12.2073 6.59245 12.3218 7.11849 12.3218 7.72266V19.8477C12.3218 20.0195 12.3765 20.1628 12.4859 20.2773C12.5953 20.3919 12.7359 20.4492 12.9078 20.4492C13.0797 20.4492 13.2203 20.3919 13.3297 20.2773C13.4442 20.1628 13.5015 20.0195 13.5015 19.8477V7.72266C13.5015 6.8737 13.3401 6.13932 13.0172 5.51953C12.6942 4.89453 12.2359 4.41016 11.6422 4.06641C11.0484 3.72266 10.3505 3.55078 9.5484 3.55078ZM5.8609 7.30859C6.11611 7.30859 6.32184 7.38932 6.47809 7.55078C6.63955 7.70703 6.72028 7.91016 6.72028 8.16016V9.49609C7.22028 9.6263 7.66559 9.83984 8.05621 10.1367C8.44684 10.4336 8.75413 10.8008 8.97809 11.2383C9.20205 11.6758 9.31403 12.1706 9.31403 12.7227H10.3531C10.3531 12.1445 10.2411 11.5977 10.0172 11.082C9.79319 10.5664 9.4859 10.1107 9.09528 9.71484C8.70465 9.3138 8.25413 8.99609 7.74371 8.76172V8.16016C7.74371 7.80078 7.66298 7.48047 7.50153 7.19922C7.34007 6.91276 7.11871 6.6888 6.83746 6.52734C6.55621 6.36589 6.23069 6.28516 5.8609 6.28516C5.49632 6.28516 5.1708 6.36589 4.88434 6.52734C4.60309 6.6888 4.38173 6.91276 4.22028 7.19922C4.05882 7.48047 3.97809 7.80078 3.97809 8.16016V8.76172C3.47288 8.99609 3.02236 9.3138 2.62653 9.71484C2.2359 10.1107 1.92861 10.5664 1.70465 11.082C1.48069 11.5977 1.36871 12.1445 1.36871 12.7227H2.41559C2.41559 12.1706 2.52496 11.6758 2.74371 11.2383C2.96767 10.8008 3.27496 10.4336 3.66559 10.1367C4.05621 9.83984 4.50153 9.6263 5.00153 9.49609V8.16016C5.00153 7.91016 5.08226 7.70703 5.24371 7.55078C5.40517 7.38932 5.6109 7.30859 5.8609 7.30859ZM1.34528 12.582C1.20465 12.582 1.08226 12.6341 0.978088 12.7383C0.87913 12.8372 0.829651 12.957 0.829651 13.0977C0.829651 13.2383 0.87913 13.3581 0.978088 13.457C1.08226 13.556 1.20465 13.6055 1.34528 13.6055H10.3843C10.525 13.6055 10.6448 13.556 10.7437 13.457C10.8427 13.3581 10.8922 13.2383 10.8922 13.0977C10.8922 12.957 10.8427 12.8372 10.7437 12.7383C10.6448 12.6341 10.525 12.582 10.3843 12.582H1.34528ZM3.24371 15.7305C3.40517 15.7305 3.54059 15.6758 3.64996 15.5664C3.75934 15.4518 3.81403 15.3138 3.81403 15.1523C3.81403 14.9961 3.75934 14.8633 3.64996 14.7539C3.54059 14.6393 3.40517 14.582 3.24371 14.582C3.08746 14.582 2.95205 14.6393 2.83746 14.7539C2.72288 14.8633 2.66559 14.9961 2.66559 15.1523C2.66559 15.3138 2.72288 15.4518 2.83746 15.5664C2.95205 15.6758 3.08746 15.7305 3.24371 15.7305ZM3.24371 17.8711C3.40517 17.8711 3.54059 17.8138 3.64996 17.6992C3.75934 17.5898 3.81403 17.4544 3.81403 17.293C3.81403 17.1315 3.75934 16.9961 3.64996 16.8867C3.54059 16.7773 3.40517 16.7227 3.24371 16.7227C3.08746 16.7227 2.95205 16.7773 2.83746 16.8867C2.72288 16.9961 2.66559 17.1315 2.66559 17.293C2.66559 17.4544 2.72288 17.5898 2.83746 17.6992C2.95205 17.8138 3.08746 17.8711 3.24371 17.8711ZM3.24371 20.0117C3.40517 20.0117 3.54059 19.9544 3.64996 19.8398C3.75934 19.7253 3.81403 19.5898 3.81403 19.4336C3.81403 19.2721 3.75934 19.1367 3.64996 19.0273C3.54059 18.918 3.40517 18.8633 3.24371 18.8633C3.08746 18.8633 2.95205 18.918 2.83746 19.0273C2.72288 19.1367 2.66559 19.2721 2.66559 19.4336C2.66559 19.5898 2.72288 19.7253 2.83746 19.8398C2.95205 19.9544 3.08746 20.0117 3.24371 20.0117ZM5.85309 15.7305C6.01455 15.7305 6.14996 15.6758 6.25934 15.5664C6.36871 15.4518 6.4234 15.3138 6.4234 15.1523C6.4234 14.9961 6.36871 14.8633 6.25934 14.7539C6.14996 14.6393 6.01455 14.582 5.85309 14.582C5.69163 14.582 5.55361 14.6393 5.43903 14.7539C5.32965 14.8633 5.27496 14.9961 5.27496 15.1523C5.27496 15.3138 5.32965 15.4518 5.43903 15.5664C5.55361 15.6758 5.69163 15.7305 5.85309 15.7305ZM5.85309 17.8711C6.01455 17.8711 6.14996 17.8138 6.25934 17.6992C6.36871 17.5898 6.4234 17.4544 6.4234 17.293C6.4234 17.1315 6.36871 16.9961 6.25934 16.8867C6.14996 16.7773 6.01455 16.7227 5.85309 16.7227C5.69163 16.7227 5.55361 16.7773 5.43903 16.8867C5.32965 16.9961 5.27496 17.1315 5.27496 17.293C5.27496 17.4544 5.32965 17.5898 5.43903 17.6992C5.55361 17.8138 5.69163 17.8711 5.85309 17.8711ZM5.85309 20.0117C6.01455 20.0117 6.14996 19.9544 6.25934 19.8398C6.36871 19.7253 6.4234 19.5898 6.4234 19.4336C6.4234 19.2721 6.36871 19.1367 6.25934 19.0273C6.14996 18.918 6.01455 18.8633 5.85309 18.8633C5.69163 18.8633 5.55361 18.918 5.43903 19.0273C5.32965 19.1367 5.27496 19.2721 5.27496 19.4336C5.27496 19.5898 5.32965 19.7253 5.43903 19.8398C5.55361 19.9544 5.69163 20.0117 5.85309 20.0117ZM8.45465 15.7305C8.61611 15.7305 8.75153 15.6758 8.8609 15.5664C8.97028 15.4518 9.02496 15.3138 9.02496 15.1523C9.02496 14.9961 8.97028 14.8633 8.8609 14.7539C8.75153 14.6393 8.61611 14.582 8.45465 14.582C8.2984 14.582 8.16298 14.6393 8.0484 14.7539C7.93382 14.8633 7.87653 14.9961 7.87653 15.1523C7.87653 15.3138 7.93382 15.4518 8.0484 15.5664C8.16298 15.6758 8.2984 15.7305 8.45465 15.7305ZM8.45465 17.8711C8.61611 17.8711 8.75153 17.8138 8.8609 17.6992C8.97028 17.5898 9.02496 17.4544 9.02496 17.293C9.02496 17.1315 8.97028 16.9961 8.8609 16.8867C8.75153 16.7773 8.61611 16.7227 8.45465 16.7227C8.2984 16.7227 8.16298 16.7773 8.0484 16.8867C7.93382 16.9961 7.87653 17.1315 7.87653 17.293C7.87653 17.4544 7.93382 17.5898 8.0484 17.6992C8.16298 17.8138 8.2984 17.8711 8.45465 17.8711ZM8.45465 20.0117C8.61611 20.0117 8.75153 19.9544 8.8609 19.8398C8.97028 19.7253 9.02496 19.5898 9.02496 19.4336C9.02496 19.2721 8.97028 19.1367 8.8609 19.0273C8.75153 18.918 8.61611 18.8633 8.45465 18.8633C8.2984 18.8633 8.16298 18.918 8.0484 19.0273C7.93382 19.1367 7.87653 19.2721 7.87653 19.4336C7.87653 19.5898 7.93382 19.7253 8.0484 19.8398C8.16298 19.9544 8.2984 20.0117 8.45465 20.0117Z"
		fill="currentColor"
	/>
</svg>
