<svg
	color="rgb(var(--foreground, 0, 0, 0))"
	viewBox="0 0 19 24"
	fill="none"
	xmlns="http://www.w3.org/2000/svg"
>
	<path
		d="M11.3663 3.88809L8.37415 12.1303C8.32206 12.2709 8.32727 12.4115 8.38977 12.5522C8.45748 12.6876 8.56165 12.7813 8.70227 12.8334C8.8481 12.8907 8.98873 12.8855 9.12415 12.8178C9.25956 12.7501 9.35331 12.6485 9.4054 12.5131L12.4132 4.27091C12.4653 4.12507 12.4575 3.98445 12.3898 3.84903C12.3273 3.70841 12.2231 3.61205 12.0773 3.55997C11.9366 3.50789 11.796 3.5157 11.6554 3.58341C11.5148 3.64591 11.4184 3.74747 11.3663 3.88809ZM7.92883 11.8334L10.8273 3.84903C10.0721 3.65632 9.3481 3.63549 8.6554 3.78653C7.96269 3.93236 7.35071 4.23966 6.81946 4.70841L6.67102 4.65372C6.18665 4.47664 5.73352 4.50789 5.31165 4.74747C4.89498 4.98184 4.58248 5.38549 4.37415 5.95841L0.960083 15.349C0.835083 15.698 0.840291 16.0157 0.975708 16.3022C1.11112 16.5886 1.35071 16.7996 1.69446 16.935C2.04862 17.0548 2.37154 17.0496 2.66321 16.9193C2.96008 16.7891 3.16842 16.5522 3.28821 16.2084L5.92102 8.95841L5.55383 9.18497C5.72571 9.74747 6.01217 10.2579 6.41321 10.7162C6.81946 11.1693 7.32467 11.5417 7.92883 11.8334ZM2.2179 16.7865L1.4054 16.4897L0.0616455 20.1772L0.874146 20.474L2.2179 16.7865ZM11.8507 11.9115C11.9757 11.7969 12.0408 11.6615 12.046 11.5053C12.0564 11.349 12.0096 11.211 11.9054 11.0912C11.7908 10.9662 11.6528 10.8985 11.4913 10.8881C11.3299 10.8777 11.1919 10.9298 11.0773 11.0443C10.9575 11.1693 10.895 11.31 10.8898 11.4662C10.8846 11.6173 10.9392 11.7527 11.0538 11.8725C11.1632 11.9818 11.2934 12.0443 11.4445 12.06C11.6007 12.0704 11.7361 12.0209 11.8507 11.9115ZM13.3038 13.4897C13.4236 13.3751 13.4861 13.2371 13.4913 13.0756C13.4965 12.9141 13.4419 12.7709 13.3273 12.6459C13.2283 12.5417 13.0981 12.4871 12.9366 12.4818C12.7804 12.4766 12.6424 12.5287 12.5226 12.6381C12.4132 12.7423 12.3533 12.8751 12.3429 13.0365C12.3325 13.1928 12.3794 13.3256 12.4835 13.435C12.6033 13.5548 12.7413 13.6199 12.8976 13.6303C13.0538 13.6407 13.1892 13.5938 13.3038 13.4897ZM14.7413 15.0522C14.8507 14.9428 14.9106 14.8126 14.921 14.6615C14.9314 14.5105 14.8846 14.3699 14.7804 14.2397C14.671 14.1199 14.5356 14.06 14.3741 14.06C14.2179 14.06 14.0825 14.1173 13.9679 14.2318C13.8585 14.336 13.796 14.4662 13.7804 14.6225C13.77 14.7735 13.8169 14.9089 13.921 15.0287C14.0304 15.1537 14.1658 15.2162 14.3273 15.2162C14.4887 15.2162 14.6267 15.1615 14.7413 15.0522ZM12.9679 9.04434C13.0252 8.89851 13.0174 8.75528 12.9445 8.61466C12.8767 8.46882 12.7674 8.36986 12.6163 8.31778C12.4653 8.2657 12.3169 8.27091 12.171 8.33341C12.0304 8.3907 11.9314 8.49747 11.8741 8.65372C11.8221 8.80476 11.8273 8.9558 11.8898 9.10684C11.9575 9.25789 12.0669 9.36205 12.2179 9.41934C12.3689 9.47143 12.5174 9.46361 12.6632 9.39591C12.809 9.32299 12.9106 9.2058 12.9679 9.04434ZM14.9679 9.79434C15.0252 9.64851 15.0174 9.50528 14.9445 9.36466C14.8767 9.21882 14.7674 9.11726 14.6163 9.05997C14.4653 9.00268 14.3221 9.00789 14.1866 9.07559C14.0512 9.13809 13.9549 9.24747 13.8976 9.40372C13.8455 9.54955 13.8507 9.69278 13.9132 9.83341C13.9757 9.97403 14.0825 10.073 14.2335 10.1303C14.3846 10.1824 14.5304 10.1772 14.671 10.1147C14.8116 10.0522 14.9106 9.94539 14.9679 9.79434ZM16.9835 10.5131C17.0408 10.3621 17.033 10.2162 16.9601 10.0756C16.8924 9.93497 16.7856 9.83601 16.6398 9.77872C16.4835 9.72664 16.3325 9.73184 16.1866 9.79434C16.046 9.85684 15.9471 9.96361 15.8898 10.1147C15.8377 10.2657 15.8429 10.4167 15.9054 10.5678C15.9731 10.7188 16.0825 10.823 16.2335 10.8803C16.3846 10.9324 16.533 10.9219 16.6788 10.849C16.8299 10.7761 16.9314 10.6641 16.9835 10.5131ZM13.9523 6.17716C13.921 6.02091 13.8429 5.89851 13.7179 5.80997C13.5981 5.72143 13.4575 5.68757 13.296 5.70841C13.1346 5.73445 13.0044 5.80476 12.9054 5.91934C12.8064 6.03393 12.77 6.17195 12.796 6.33341C12.8169 6.48966 12.8898 6.61726 13.0148 6.71622C13.1398 6.80997 13.283 6.84903 13.4445 6.83341C13.6059 6.80736 13.7335 6.73184 13.8273 6.60684C13.9262 6.48184 13.9679 6.33861 13.9523 6.17716ZM16.0616 5.90372C16.046 5.74226 15.9731 5.61466 15.8429 5.52091C15.7127 5.42195 15.5695 5.38289 15.4132 5.40372C15.257 5.42976 15.1294 5.50528 15.0304 5.63028C14.9314 5.75528 14.8924 5.90111 14.9132 6.06778C14.934 6.21361 15.0096 6.33601 15.1398 6.43497C15.27 6.52872 15.4132 6.56778 15.5695 6.55216C15.7257 6.52611 15.8533 6.45059 15.9523 6.32559C16.0512 6.20059 16.0877 6.05997 16.0616 5.90372ZM18.1788 5.63028C18.1476 5.46882 18.0721 5.33861 17.9523 5.23966C17.8325 5.1407 17.6945 5.10164 17.5382 5.12247C17.3767 5.13809 17.2491 5.21101 17.1554 5.34122C17.0616 5.47143 17.0252 5.61205 17.046 5.76309C17.0669 5.91934 17.1372 6.04695 17.257 6.14591C17.382 6.23966 17.5226 6.27611 17.6788 6.25528C17.8403 6.23966 17.9679 6.16934 18.0616 6.04434C18.1606 5.91414 18.1997 5.77611 18.1788 5.63028Z"
		fill="currentColor"
	/>
</svg>
