<svg
	color="rgb(var(--foreground, 0, 0, 0))"
	viewBox="0 0 17 24"
	fill="none"
	xmlns="http://www.w3.org/2000/svg"
>
	<path
		d="M2.89844 9.73828H4.21094V7.09766C4.21094 6.90495 4.26823 6.7513 4.38281 6.63672C4.5026 6.51693 4.65625 6.45703 4.84375 6.45703H11.875C12.0677 6.45703 12.2214 6.51693 12.3359 6.63672C12.4505 6.7513 12.5078 6.90495 12.5078 7.09766V9.73828H13.8203V7.08984C13.8203 6.5013 13.6458 6.02995 13.2969 5.67578C12.9531 5.32161 12.5026 5.14453 11.9453 5.14453H4.78125C4.21875 5.14453 3.76302 5.32161 3.41406 5.67578C3.07031 6.02995 2.89844 6.5013 2.89844 7.08984V9.73828ZM0.59375 15.3945C0.59375 15.957 0.763021 16.4102 1.10156 16.7539C1.44531 17.0924 1.89323 17.2617 2.44531 17.2617H14.2812C14.8333 17.2617 15.2786 17.0924 15.6172 16.7539C15.9609 16.4102 16.1328 15.957 16.1328 15.3945V10.6445C16.1328 10.082 15.9609 9.63151 15.6172 9.29297C15.2786 8.94922 14.8333 8.77734 14.2812 8.77734H13.3672C12.8151 8.77734 12.3672 8.94922 12.0234 9.29297C11.6849 9.63151 11.5156 10.082 11.5156 10.6445V12.6836H5.21094V10.6445C5.21094 10.082 5.03906 9.63151 4.69531 9.29297C4.35677 8.94922 3.91146 8.77734 3.35938 8.77734H2.44531C1.89323 8.77734 1.44531 8.94922 1.10156 9.29297C0.763021 9.63151 0.59375 10.082 0.59375 10.6445V15.3945ZM1.92188 15.3789V10.6602C1.92188 10.4883 1.97396 10.3503 2.07812 10.2461C2.1875 10.1419 2.33073 10.0898 2.50781 10.0898H3.29688C3.46875 10.0898 3.60938 10.1419 3.71875 10.2461C3.82812 10.3503 3.88281 10.4883 3.88281 10.6602V13.9961H12.8438V10.6602C12.8438 10.4883 12.8958 10.3503 13 10.2461C13.1094 10.1419 13.2526 10.0898 13.4297 10.0898H14.2188C14.3906 10.0898 14.5312 10.1419 14.6406 10.2461C14.75 10.3503 14.8047 10.4883 14.8047 10.6602V15.3789C14.8047 15.5508 14.75 15.6888 14.6406 15.793C14.5312 15.8971 14.3906 15.9492 14.2188 15.9492H2.50781C2.33073 15.9492 2.1875 15.8971 2.07812 15.793C1.97396 15.6888 1.92188 15.5508 1.92188 15.3789ZM3.4375 18.8555H3.92188C4.13021 18.8555 4.29688 18.793 4.42188 18.668C4.55208 18.543 4.61719 18.3763 4.61719 18.168V16.5117H2.74219V18.168C2.74219 18.3763 2.80469 18.543 2.92969 18.668C3.0599 18.793 3.22917 18.8555 3.4375 18.8555ZM12.8047 18.8555H13.2812C13.4948 18.8555 13.6641 18.793 13.7891 18.668C13.9141 18.543 13.9766 18.3763 13.9766 18.168V16.5117H12.1094V18.168C12.1094 18.3763 12.1719 18.543 12.2969 18.668C12.4219 18.793 12.5911 18.8555 12.8047 18.8555Z"
		fill="currentColor"
	/>
</svg>
