<svg
	color="rgb(var(--foreground, 0, 0, 0))"
	viewBox="0 0 16 24"
	fill="none"
	xmlns="http://www.w3.org/2000/svg"
>
	<path
		d="M4.63283 12.5977H11.1406V10.8086C11.1406 10.3503 11.2344 9.94141 11.4219 9.58203C11.6146 9.22266 11.8776 8.9388 12.211 8.73047C12.5443 8.52214 12.9297 8.41797 13.3672 8.41797H13.4531V6.83984C13.4531 6.32943 13.3021 5.92057 13 5.61328C12.6979 5.30078 12.3021 5.14453 11.8125 5.14453H3.96095C3.47137 5.14453 3.07293 5.30078 2.76564 5.61328C2.46356 5.92057 2.3125 6.32943 2.3125 6.83984V8.41797H2.39845C2.83595 8.41797 3.22137 8.52214 3.5547 8.73047C3.89324 8.9388 4.15627 9.22266 4.34377 9.58203C4.53647 9.94141 4.63283 10.3503 4.63283 10.8086V12.5977ZM0.132812 15.5586C0.132812 16.0482 0.28125 16.4414 0.578125 16.7383C0.875 17.0352 1.26042 17.1836 1.73438 17.1836H14.0391C14.513 17.1836 14.8985 17.0352 15.1953 16.7383C15.4922 16.4414 15.6406 16.0482 15.6406 15.5586V10.8086C15.6406 10.3242 15.4922 9.93359 15.1953 9.63672C14.8985 9.33464 14.513 9.18359 14.0391 9.18359H13.6485C13.1745 9.18359 12.7891 9.33464 12.4922 9.63672C12.1953 9.93359 12.0469 10.3242 12.0469 10.8086V13.5039H3.71877V10.8086C3.71877 10.3242 3.57033 9.93359 3.27345 9.63672C2.98179 9.33464 2.59635 9.18359 2.11719 9.18359H1.73438C1.26042 9.18359 0.875 9.33464 0.578125 9.63672C0.28125 9.93359 0.132812 10.3242 0.132812 10.8086V15.5586ZM2.89064 18.8555H3.38283C3.59116 18.8555 3.75783 18.793 3.88283 18.668C4.01304 18.543 4.07814 18.3763 4.07814 18.168V16.5117H2.20312V18.168C2.20312 18.3763 2.26564 18.543 2.39064 18.668C2.51564 18.793 2.68231 18.8555 2.89064 18.8555ZM12.3906 18.8555H12.875C13.0886 18.8555 13.2552 18.793 13.375 18.668C13.5 18.543 13.5625 18.3763 13.5625 18.168V16.5117H11.6953V18.168C11.6953 18.3763 11.7578 18.543 11.8828 18.668C12.0078 18.793 12.1771 18.8555 12.3906 18.8555Z"
		fill="currentColor"
	/>
</svg>
