<svg
	color="rgb(var(--foreground, 0, 0, 0))"
	viewBox="0 0 12 24"
	fill="none"
	xmlns="http://www.w3.org/2000/svg"
>
	<path
		d="M0.696838 3.82031H10.8765C11.0484 3.82031 11.1942 3.75781 11.314 3.63281C11.439 3.50781 11.5015 3.35938 11.5015 3.1875C11.5015 3.01562 11.439 2.86979 11.314 2.75C11.1942 2.625 11.0484 2.5625 10.8765 2.5625H0.696838C0.524963 2.5625 0.376526 2.625 0.251526 2.75C0.131734 2.86979 0.0718384 3.01562 0.0718384 3.1875C0.0718384 3.35938 0.131734 3.50781 0.251526 3.63281C0.376526 3.75781 0.524963 3.82031 0.696838 3.82031ZM5.79059 13.0312C6.58226 13.0312 7.30882 12.9844 7.97028 12.8906C8.63173 12.7969 9.20465 12.6641 9.68903 12.4922C10.1786 12.3151 10.5562 12.1094 10.8218 11.875C11.0875 11.6354 11.2203 11.3724 11.2203 11.0859C11.2203 10.8047 11.0849 10.5469 10.814 10.3125C10.5484 10.0729 10.1708 9.86719 9.68121 9.69531C9.19684 9.52344 8.62392 9.39062 7.96246 9.29688C7.30101 9.20312 6.57705 9.15625 5.79059 9.15625C5.00413 9.15625 4.28017 9.20312 3.61871 9.29688C2.95726 9.39062 2.38173 9.52344 1.89215 9.69531C1.40778 9.86719 1.03017 10.0729 0.759338 10.3125C0.488505 10.5469 0.353088 10.8047 0.353088 11.0859C0.353088 11.3724 0.488505 11.6354 0.759338 11.875C1.03017 12.1094 1.40778 12.3151 1.89215 12.4922C2.38173 12.6641 2.95726 12.7969 3.61871 12.8906C4.28017 12.9844 5.00413 13.0312 5.79059 13.0312ZM5.52496 16.75H6.0484C6.9234 16.75 7.71507 16.5885 8.4234 16.2656C9.13694 15.9375 9.72809 15.4688 10.1968 14.8594C10.6708 14.25 10.9833 13.5208 11.1343 12.6719C10.6031 13.0521 9.87653 13.3464 8.95465 13.5547C8.03798 13.7578 6.9833 13.8594 5.79059 13.8594C4.60309 13.8594 3.5458 13.7578 2.61871 13.5547C1.69684 13.3464 0.97288 13.0495 0.446838 12.6641C0.592672 13.5182 0.899963 14.25 1.36871 14.8594C1.83746 15.4688 2.42861 15.9375 3.14215 16.2656C3.85569 16.5885 4.64996 16.75 5.52496 16.75ZM5.79059 21.4375C6.21246 21.4375 6.66298 21.3984 7.14215 21.3203C7.62132 21.2422 8.06923 21.1224 8.4859 20.9609C8.90778 20.7995 9.24111 20.5964 9.4859 20.3516C9.58486 20.2474 9.63955 20.1302 9.64996 20C9.66559 19.875 9.65257 19.7422 9.6109 19.6016L8.84528 17.0469C8.41819 17.2344 7.96767 17.3776 7.49371 17.4766C7.01976 17.5703 6.54059 17.6172 6.05621 17.6172H5.49371C5.01455 17.6172 4.54059 17.5703 4.07184 17.4766C3.60309 17.3828 3.15517 17.2448 2.72809 17.0625L1.96246 19.6016C1.9208 19.7422 1.90517 19.875 1.91559 20C1.93121 20.1302 1.98851 20.2474 2.08746 20.3516C2.33746 20.5964 2.6708 20.7995 3.08746 20.9609C3.50934 21.1224 3.95726 21.2422 4.43121 21.3203C4.91038 21.3984 5.36351 21.4375 5.79059 21.4375ZM10.2984 9L10.6031 4.6875H0.970276L1.28278 9C1.84007 8.77083 2.50153 8.59635 3.26715 8.47656C4.03798 8.35156 4.87913 8.28906 5.79059 8.28906C6.70205 8.28906 7.54059 8.35156 8.30621 8.47656C9.07705 8.59635 9.74111 8.77083 10.2984 9Z"
		fill="currentColor"
	/>
</svg>
