<svg
	color="rgb(var(--foreground, 0, 0, 0))"
	viewBox="0 0 13 24"
	fill="none"
	xmlns="http://www.w3.org/2000/svg"
>
	<path
		d="M1.032 3.82031H11.3601C11.532 3.82031 11.6778 3.75781 11.7976 3.63281C11.9226 3.50781 11.9851 3.35938 11.9851 3.1875C11.9851 3.01562 11.9226 2.86979 11.7976 2.75C11.6778 2.625 11.532 2.5625 11.3601 2.5625H1.032C0.860123 2.5625 0.711686 2.625 0.586686 2.75C0.461686 2.86979 0.399186 3.01562 0.399186 3.1875C0.399186 3.35938 0.461686 3.50781 0.586686 3.63281C0.711686 3.75781 0.860123 3.82031 1.032 3.82031ZM1.657 9.77344L2.907 9.64062L2.49294 3.52344L1.22731 3.55469L1.657 9.77344ZM9.47731 9.64062L10.7351 9.77344L11.157 3.55469L9.89919 3.52344L9.47731 9.64062ZM6.19606 13.8125C7.35752 13.8125 8.37835 13.7031 9.25856 13.4844C10.144 13.2604 10.8341 12.9479 11.3289 12.5469C11.8237 12.1458 12.0711 11.6719 12.0711 11.125C12.0711 10.5833 11.8211 10.112 11.3211 9.71094C10.8263 9.30469 10.1362 8.99219 9.25075 8.77344C8.37054 8.54948 7.35231 8.4375 6.19606 8.4375C5.03981 8.4375 4.01898 8.54948 3.13356 8.77344C2.24814 8.99219 1.55544 9.30469 1.05544 9.71094C0.560644 10.112 0.313248 10.5833 0.313248 11.125C0.313248 11.6719 0.563248 12.1458 1.06325 12.5469C1.56325 12.9479 2.25335 13.2604 3.13356 13.4844C4.01898 13.7031 5.03981 13.8125 6.19606 13.8125ZM6.19606 12.5547C5.29502 12.5547 4.49814 12.4922 3.80544 12.3672C3.11273 12.237 2.56846 12.0651 2.17262 11.8516C1.782 11.6328 1.58669 11.3906 1.58669 11.125C1.58669 10.8594 1.782 10.6198 2.17262 10.4062C2.56846 10.1875 3.11273 10.0156 3.80544 9.89062C4.49814 9.76042 5.29502 9.69531 6.19606 9.69531C7.09189 9.69531 7.88616 9.76042 8.57887 9.89062C9.27679 10.0156 9.82106 10.1875 10.2117 10.4062C10.6075 10.6198 10.8054 10.8594 10.8054 11.125C10.8054 11.3906 10.6101 11.6328 10.2195 11.8516C9.82887 12.0651 9.28721 12.237 8.5945 12.3672C7.90179 12.4922 7.10231 12.5547 6.19606 12.5547ZM5.91481 16.8281H6.47731C7.57627 16.8281 8.55023 16.5859 9.39919 16.1016C10.2481 15.612 10.9096 14.9375 11.3836 14.0781C11.8575 13.2188 12.0867 12.2344 12.0711 11.125H10.8054C10.8211 12.0052 10.6466 12.7812 10.282 13.4531C9.92262 14.1198 9.41481 14.6406 8.75856 15.0156C8.10231 15.3854 7.34189 15.5703 6.47731 15.5703H5.91481C5.04502 15.5703 4.282 15.3854 3.62575 15.0156C2.9695 14.6406 2.46169 14.1198 2.10231 13.4531C1.74294 12.7865 1.57106 12.0104 1.58669 11.125H0.313248C0.297623 12.2396 0.52679 13.2266 1.00075 14.0859C1.47991 14.9401 2.14137 15.612 2.98512 16.1016C3.83408 16.5859 4.81064 16.8281 5.91481 16.8281ZM6.21169 21.4375C6.68564 21.4375 7.17262 21.3984 7.67262 21.3203C8.17262 21.2422 8.63356 21.1224 9.05544 20.9609C9.48252 20.7995 9.81846 20.5964 10.0632 20.3516C10.1622 20.2474 10.2169 20.1302 10.2273 20C10.2429 19.875 10.2325 19.7422 10.1961 19.6016L8.89919 15.3438L7.782 15.9844L9.07887 20.2734L9.14137 19.4766C8.88616 19.7005 8.48512 19.8724 7.93825 19.9922C7.39658 20.1172 6.82106 20.1797 6.21169 20.1797C5.5971 20.1797 5.01637 20.1172 4.4695 19.9922C3.92783 19.8724 3.532 19.7005 3.282 19.4766L3.33669 20.2734L4.64137 15.9844L3.52419 15.3438L2.22731 19.6016C2.18564 19.7422 2.17002 19.875 2.18044 20C2.19606 20.1302 2.25335 20.2474 2.35231 20.3516C2.60231 20.5964 2.93825 20.7995 3.36012 20.9609C3.78721 21.1224 4.24814 21.2422 4.74294 21.3203C5.24294 21.3984 5.73252 21.4375 6.21169 21.4375Z"
		fill="currentColor"
	/>
</svg>
