<svg
	color="rgb(var(--foreground, 0, 0, 0))"
	viewBox="0 0 15 24"
	fill="none"
	xmlns="http://www.w3.org/2000/svg"
>
	<path
		d="M2.60962 19.1914H12.0862C12.9039 19.1914 13.5159 18.9883 13.9221 18.582C14.3336 18.181 14.5393 17.5768 14.5393 16.7695V7.23047C14.5393 6.42318 14.3336 5.81901 13.9221 5.41797C13.5159 5.01172 12.9039 4.80859 12.0862 4.80859H2.60962C1.79191 4.80859 1.17733 5.01172 0.765869 5.41797C0.359619 5.81901 0.156494 6.42318 0.156494 7.23047V16.7695C0.156494 17.5768 0.359619 18.181 0.765869 18.582C1.17733 18.9883 1.79191 19.1914 2.60962 19.1914ZM5.94556 16.5039C5.77889 16.5039 5.63827 16.4518 5.52368 16.3477C5.4091 16.2383 5.35181 16.1003 5.35181 15.9336C5.35181 15.7773 5.4091 15.6445 5.52368 15.5352C5.63827 15.4206 5.77889 15.3633 5.94556 15.3633H6.93774V11.6836H6.07837C5.91691 11.6836 5.77889 11.6315 5.66431 11.5273C5.54972 11.418 5.49243 11.2799 5.49243 11.1133C5.49243 10.957 5.54972 10.8242 5.66431 10.7148C5.77889 10.6003 5.91691 10.543 6.07837 10.543H7.59399C7.80233 10.543 7.95858 10.6107 8.06274 10.7461C8.17212 10.8815 8.22681 11.0586 8.22681 11.2773V15.3633H9.21899C9.38566 15.3633 9.52629 15.4206 9.64087 15.5352C9.75545 15.6445 9.81274 15.7773 9.81274 15.9336C9.81274 16.1003 9.75545 16.2383 9.64087 16.3477C9.52629 16.4518 9.38566 16.5039 9.21899 16.5039H5.94556ZM7.28149 9.20703C6.98983 9.20703 6.73983 9.10547 6.53149 8.90234C6.32837 8.69401 6.22681 8.44401 6.22681 8.15234C6.22681 7.85547 6.32837 7.60547 6.53149 7.40234C6.73983 7.19401 6.98983 7.08984 7.28149 7.08984C7.57837 7.08984 7.82577 7.19401 8.02368 7.40234C8.22681 7.60547 8.32837 7.85547 8.32837 8.15234C8.32837 8.44401 8.22681 8.69401 8.02368 8.90234C7.82577 9.10547 7.57837 9.20703 7.28149 9.20703Z"
		fill="currentColor"
	/>
</svg>
