<svg
	color="rgb(var(--foreground, 0, 0, 0))"
	viewBox="0 0 16 24"
	fill="none"
	xmlns="http://www.w3.org/2000/svg"
>
	<path
		d="M3.22681 19.1914H12.7034C13.5211 19.1914 14.1331 18.9883 14.5393 18.582C14.9508 18.181 15.1565 17.5768 15.1565 16.7695V7.23047C15.1565 6.42318 14.9508 5.81901 14.5393 5.41797C14.1331 5.01172 13.5211 4.80859 12.7034 4.80859H3.22681C2.4091 4.80859 1.79452 5.01172 1.38306 5.41797C0.976807 5.81901 0.773682 6.42318 0.773682 7.23047V16.7695C0.773682 17.5768 0.976807 18.181 1.38306 18.582C1.79452 18.9883 2.4091 19.1914 3.22681 19.1914ZM3.24243 17.9336C2.85181 17.9336 2.55233 17.832 2.34399 17.6289C2.13566 17.4206 2.03149 17.1133 2.03149 16.707V7.29297C2.03149 6.88672 2.13566 6.58203 2.34399 6.37891C2.55233 6.17057 2.85181 6.06641 3.24243 6.06641H12.6877C13.0732 6.06641 13.37 6.17057 13.5784 6.37891C13.7919 6.58203 13.8987 6.88672 13.8987 7.29297V16.707C13.8987 17.1133 13.7919 17.4206 13.5784 17.6289C13.37 17.832 13.0732 17.9336 12.6877 17.9336H3.24243ZM6.60962 16.3555H9.78931C9.95076 16.3555 10.0862 16.3034 10.1956 16.1992C10.3049 16.0951 10.3596 15.9648 10.3596 15.8086C10.3596 15.6523 10.3049 15.5221 10.1956 15.418C10.0862 15.3138 9.95076 15.2617 9.78931 15.2617H8.82056V11.2852C8.82056 11.0716 8.76847 10.9023 8.66431 10.7773C8.56014 10.6471 8.4091 10.582 8.21118 10.582H6.74243C6.58097 10.582 6.44556 10.6341 6.33618 10.7383C6.22681 10.8424 6.17212 10.9727 6.17212 11.1289C6.17212 11.2852 6.22681 11.4154 6.33618 11.5195C6.44556 11.6237 6.58097 11.6758 6.74243 11.6758H7.57837V15.2617H6.60962C6.44816 15.2617 6.31274 15.3138 6.20337 15.418C6.09399 15.5221 6.03931 15.6523 6.03931 15.8086C6.03931 15.9648 6.09399 16.0951 6.20337 16.1992C6.31274 16.3034 6.44816 16.3555 6.60962 16.3555ZM7.90649 9.27734C8.19295 9.27734 8.43254 9.17839 8.62524 8.98047C8.82316 8.78255 8.92212 8.54297 8.92212 8.26172C8.92212 7.97526 8.82316 7.73307 8.62524 7.53516C8.43254 7.33724 8.19295 7.23828 7.90649 7.23828C7.62524 7.23828 7.38566 7.33724 7.18774 7.53516C6.98983 7.73307 6.89087 7.97526 6.89087 8.26172C6.89087 8.54297 6.98983 8.78255 7.18774 8.98047C7.38566 9.17839 7.62524 9.27734 7.90649 9.27734Z"
		fill="currentColor"
	/>
</svg>
