<svg
	color="rgb(var(--foreground, 0, 0, 0))"
	viewBox="0 0 18 24"
	fill="none"
	xmlns="http://www.w3.org/2000/svg"
>
	<path
		d="M5.32056 20.1055C5.47681 20.1055 5.61743 20.0638 5.74243 19.9805C5.87264 19.9023 6.03149 19.7773 6.21899 19.6055L9.03931 17.0273H14.3206C15.0966 17.0273 15.7502 16.8893 16.2815 16.6133C16.8127 16.3372 17.2138 15.9336 17.4846 15.4023C17.7607 14.8711 17.8987 14.2227 17.8987 13.457V7.47266C17.8987 6.70703 17.7607 6.05859 17.4846 5.52734C17.2138 4.99609 16.8127 4.59245 16.2815 4.31641C15.7502 4.03516 15.0966 3.89453 14.3206 3.89453H4.25806C3.48201 3.89453 2.82837 4.03516 2.29712 4.31641C1.76587 4.59245 1.36222 4.99609 1.08618 5.52734C0.815348 6.05859 0.679932 6.70703 0.679932 7.47266V13.457C0.679932 14.2227 0.815348 14.8711 1.08618 15.4023C1.36222 15.9336 1.76587 16.3372 2.29712 16.6133C2.82837 16.8893 3.48201 17.0273 4.25806 17.0273H4.62524V19.3008C4.62524 19.5456 4.68514 19.7409 4.80493 19.8867C4.92472 20.0326 5.0966 20.1055 5.32056 20.1055ZM7.99243 14.6523C7.83618 14.6523 7.70597 14.6029 7.60181 14.5039C7.49764 14.4049 7.44556 14.2773 7.44556 14.1211C7.44556 13.9753 7.49764 13.8503 7.60181 13.7461C7.70597 13.6419 7.83618 13.5898 7.99243 13.5898H8.91431V10.1836H8.11743C7.96639 10.1836 7.83618 10.1341 7.72681 10.0352C7.62264 9.9362 7.57056 9.8112 7.57056 9.66016C7.57056 9.51432 7.62264 9.38932 7.72681 9.28516C7.83618 9.18099 7.96639 9.12891 8.11743 9.12891H9.51587C9.70858 9.12891 9.85441 9.19141 9.95337 9.31641C10.0523 9.44141 10.1018 9.60547 10.1018 9.80859V13.5898H11.0237C11.1799 13.5898 11.3101 13.6419 11.4143 13.7461C11.5185 13.8503 11.5706 13.9753 11.5706 14.1211C11.5706 14.2773 11.5185 14.4049 11.4143 14.5039C11.3101 14.6029 11.1799 14.6523 11.0237 14.6523H7.99243ZM9.22681 7.89453C8.95597 7.89453 8.7242 7.80078 8.53149 7.61328C8.34399 7.42057 8.25024 7.1888 8.25024 6.91797C8.25024 6.64193 8.34399 6.41016 8.53149 6.22266C8.7242 6.02995 8.95597 5.93359 9.22681 5.93359C9.50285 5.93359 9.73201 6.02995 9.91431 6.22266C10.1018 6.41016 10.1956 6.64193 10.1956 6.91797C10.1956 7.1888 10.1018 7.42057 9.91431 7.61328C9.73201 7.80078 9.50285 7.89453 9.22681 7.89453Z"
		fill="currentColor"
	/>
</svg>
