<svg
	color="rgb(var(--foreground, 0, 0, 0))"
	viewBox="0 0 17 24"
	fill="none"
	xmlns="http://www.w3.org/2000/svg"
>
	<path
		d="M8.80493 19.9688C9.89347 19.9688 10.9169 19.7604 11.8752 19.3438C12.8388 18.9271 13.6877 18.3516 14.4221 17.6172C15.1565 16.8828 15.732 16.0365 16.1487 15.0781C16.5653 14.1146 16.7737 13.0885 16.7737 12C16.7737 10.9115 16.5653 9.88802 16.1487 8.92969C15.732 7.96615 15.1565 7.11719 14.4221 6.38281C13.6877 5.64844 12.8388 5.07292 11.8752 4.65625C10.9117 4.23958 9.88566 4.03125 8.79712 4.03125C7.70858 4.03125 6.68254 4.23958 5.71899 4.65625C4.76066 5.07292 3.91431 5.64844 3.17993 6.38281C2.45076 7.11719 1.87785 7.96615 1.46118 8.92969C1.04451 9.88802 0.836182 10.9115 0.836182 12C0.836182 13.0885 1.04451 14.1146 1.46118 15.0781C1.87785 16.0365 2.45337 16.8828 3.18774 17.6172C3.92212 18.3516 4.76847 18.9271 5.72681 19.3438C6.69035 19.7604 7.71639 19.9688 8.80493 19.9688ZM7.39868 16.5156C7.23202 16.5156 7.09139 16.4635 6.97681 16.3594C6.86222 16.25 6.80493 16.112 6.80493 15.9453C6.80493 15.7891 6.86222 15.6562 6.97681 15.5469C7.09139 15.4323 7.23202 15.375 7.39868 15.375H8.39087V11.6953H7.53149C7.37004 11.6953 7.23202 11.6432 7.11743 11.5391C7.00285 11.4297 6.94556 11.2917 6.94556 11.125C6.94556 10.9688 7.00285 10.8359 7.11743 10.7266C7.23202 10.612 7.37004 10.5547 7.53149 10.5547H9.04712C9.25545 10.5547 9.4117 10.6224 9.51587 10.7578C9.62524 10.8932 9.67993 11.0703 9.67993 11.2891V15.375H10.6721C10.8388 15.375 10.9794 15.4323 11.094 15.5469C11.2086 15.6562 11.2659 15.7891 11.2659 15.9453C11.2659 16.112 11.2086 16.25 11.094 16.3594C10.9794 16.4635 10.8388 16.5156 10.6721 16.5156H7.39868ZM8.73462 9.21875C8.44295 9.21875 8.19295 9.11719 7.98462 8.91406C7.78149 8.70573 7.67993 8.45573 7.67993 8.16406C7.67993 7.86719 7.78149 7.61719 7.98462 7.41406C8.19295 7.20573 8.44295 7.10156 8.73462 7.10156C9.03149 7.10156 9.27889 7.20573 9.47681 7.41406C9.67993 7.61719 9.78149 7.86719 9.78149 8.16406C9.78149 8.45573 9.67993 8.70573 9.47681 8.91406C9.27889 9.11719 9.03149 9.21875 8.73462 9.21875Z"
		fill="currentColor"
	/>
</svg>
