<svg
	color="rgb(var(--foreground, 0, 0, 0))"
	viewBox="0 0 17 24"
	fill="none"
	xmlns="http://www.w3.org/2000/svg"
>
	<path
		d="M8.86743 19.9688C9.95597 19.9688 10.9794 19.7604 11.9377 19.3438C12.9013 18.9271 13.7502 18.3516 14.4846 17.6172C15.219 16.8828 15.7945 16.0365 16.2112 15.0781C16.6278 14.1146 16.8362 13.0885 16.8362 12C16.8362 10.9115 16.6278 9.88802 16.2112 8.92969C15.7945 7.96615 15.219 7.11719 14.4846 6.38281C13.7502 5.64844 12.9013 5.07292 11.9377 4.65625C10.9742 4.23958 9.94816 4.03125 8.85962 4.03125C7.77108 4.03125 6.74504 4.23958 5.78149 4.65625C4.82316 5.07292 3.97681 5.64844 3.24243 6.38281C2.51326 7.11719 1.94035 7.96615 1.52368 8.92969C1.10701 9.88802 0.898682 10.9115 0.898682 12C0.898682 13.0885 1.10701 14.1146 1.52368 15.0781C1.94035 16.0365 2.51587 16.8828 3.25024 17.6172C3.98462 18.3516 4.83097 18.9271 5.78931 19.3438C6.75285 19.7604 7.77889 19.9688 8.86743 19.9688ZM8.86743 18.6406C7.94556 18.6406 7.08358 18.4688 6.28149 18.125C5.47941 17.7812 4.77368 17.3073 4.16431 16.7031C3.56014 16.0938 3.08618 15.388 2.74243 14.5859C2.40389 13.7839 2.23462 12.9219 2.23462 12C2.23462 11.0781 2.40389 10.2161 2.74243 9.41406C3.08618 8.61198 3.56014 7.90625 4.16431 7.29688C4.76847 6.6875 5.4716 6.21354 6.27368 5.875C7.07577 5.53125 7.93774 5.35938 8.85962 5.35938C9.78149 5.35938 10.6435 5.53125 11.4456 5.875C12.2528 6.21354 12.9586 6.6875 13.5627 7.29688C14.1721 7.90625 14.6487 8.61198 14.9924 9.41406C15.3362 10.2161 15.5081 11.0781 15.5081 12C15.5081 12.9219 15.3362 13.7839 14.9924 14.5859C14.6539 15.388 14.1799 16.0938 13.5706 16.7031C12.9612 17.3073 12.2555 17.7812 11.4534 18.125C10.6513 18.4688 9.78931 18.6406 8.86743 18.6406ZM7.50024 16.3672H10.6799C10.8414 16.3672 10.9768 16.3151 11.0862 16.2109C11.1956 16.1068 11.2502 15.9766 11.2502 15.8203C11.2502 15.6641 11.1956 15.5339 11.0862 15.4297C10.9768 15.3255 10.8414 15.2734 10.6799 15.2734H9.71118V11.2969C9.71118 11.0833 9.6591 10.9141 9.55493 10.7891C9.45076 10.6589 9.29972 10.5938 9.10181 10.5938H7.63306C7.4716 10.5938 7.33618 10.6458 7.22681 10.75C7.11743 10.8542 7.06274 10.9844 7.06274 11.1406C7.06274 11.2969 7.11743 11.4271 7.22681 11.5312C7.33618 11.6354 7.4716 11.6875 7.63306 11.6875H8.46899V15.2734H7.50024C7.33879 15.2734 7.20337 15.3255 7.09399 15.4297C6.98462 15.5339 6.92993 15.6641 6.92993 15.8203C6.92993 15.9766 6.98462 16.1068 7.09399 16.2109C7.20337 16.3151 7.33879 16.3672 7.50024 16.3672ZM8.79712 9.28906C9.08358 9.28906 9.32316 9.1901 9.51587 8.99219C9.71379 8.79427 9.81274 8.55469 9.81274 8.27344C9.81274 7.98698 9.71379 7.74479 9.51587 7.54688C9.32316 7.34896 9.08358 7.25 8.79712 7.25C8.51587 7.25 8.27629 7.34896 8.07837 7.54688C7.88045 7.74479 7.78149 7.98698 7.78149 8.27344C7.78149 8.55469 7.88045 8.79427 8.07837 8.99219C8.27629 9.1901 8.51587 9.28906 8.79712 9.28906Z"
		fill="currentColor"
	/>
</svg>
