<svg
	color="rgb(var(--foreground, 0, 0, 0))"
	viewBox="0 0 18 24"
	fill="none"
	xmlns="http://www.w3.org/2000/svg"
>
	<path
		d="M5.26587 20.082C5.45858 20.082 5.63566 20.0299 5.79712 19.9258C5.95858 19.8216 6.15649 19.6654 6.39087 19.457L9.08618 17.0586H14.1018C14.8778 17.0586 15.5315 16.9206 16.0627 16.6445C16.594 16.3633 16.995 15.957 17.2659 15.4258C17.5419 14.8945 17.6799 14.2461 17.6799 13.4805V7.49609C17.6799 6.73047 17.5419 6.08203 17.2659 5.55078C16.995 5.01953 16.594 4.61589 16.0627 4.33984C15.5315 4.05859 14.8778 3.91797 14.1018 3.91797H4.03931C3.26326 3.91797 2.60962 4.05859 2.07837 4.33984C1.54712 4.61589 1.14347 5.01953 0.867432 5.55078C0.596598 6.08203 0.461182 6.73047 0.461182 7.49609V13.4805C0.461182 14.2461 0.596598 14.8945 0.867432 15.4258C1.14347 15.957 1.54712 16.3633 2.07837 16.6445C2.60962 16.9206 3.26326 17.0586 4.03931 17.0586H4.41431V19.0898C4.41431 19.3919 4.48722 19.6315 4.63306 19.8086C4.7841 19.9909 4.99504 20.082 5.26587 20.082ZM5.58618 18.6523V16.3867C5.58618 16.1732 5.54191 16.0221 5.45337 15.9336C5.36483 15.8451 5.21379 15.8008 5.00024 15.8008H4.03931C3.24764 15.8008 2.6617 15.6055 2.28149 15.2148C1.90649 14.819 1.71899 14.2383 1.71899 13.4727V7.49609C1.71899 6.73568 1.90649 6.16016 2.28149 5.76953C2.6617 5.3737 3.24764 5.17578 4.03931 5.17578H14.1018C14.8883 5.17578 15.4716 5.3737 15.8518 5.76953C16.232 6.16016 16.4221 6.73568 16.4221 7.49609V13.4727C16.4221 14.2383 16.232 14.819 15.8518 15.2148C15.4716 15.6055 14.8883 15.8008 14.1018 15.8008H9.03931C8.82056 15.8008 8.64347 15.8242 8.50806 15.8711C8.37264 15.918 8.23202 16.0169 8.08618 16.168L5.58618 18.6523ZM7.81274 14.543H10.7581C10.9091 14.543 11.0341 14.4961 11.1331 14.4023C11.2372 14.3034 11.2893 14.181 11.2893 14.0352C11.2893 13.8893 11.2372 13.7695 11.1331 13.6758C11.0341 13.5768 10.9091 13.5273 10.7581 13.5273H9.85962V9.84766C9.85962 9.64974 9.81014 9.49349 9.71118 9.37891C9.61743 9.25911 9.47941 9.19922 9.29712 9.19922H7.93774C7.7867 9.19922 7.6591 9.2487 7.55493 9.34766C7.45597 9.44141 7.40649 9.55859 7.40649 9.69922C7.40649 9.84505 7.45597 9.96745 7.55493 10.0664C7.6591 10.1602 7.7867 10.207 7.93774 10.207H8.71118V13.5273H7.81274C7.6617 13.5273 7.5367 13.5768 7.43774 13.6758C7.33879 13.7695 7.28931 13.8893 7.28931 14.0352C7.28931 14.181 7.33879 14.3034 7.43774 14.4023C7.5367 14.4961 7.6617 14.543 7.81274 14.543ZM9.01587 7.98828C9.28149 7.98828 9.50285 7.89714 9.67993 7.71484C9.86222 7.53255 9.95337 7.3112 9.95337 7.05078C9.95337 6.78516 9.86222 6.5612 9.67993 6.37891C9.50285 6.19141 9.28149 6.09766 9.01587 6.09766C8.75545 6.09766 8.53149 6.19141 8.34399 6.37891C8.1617 6.5612 8.07056 6.78516 8.07056 7.05078C8.07056 7.3112 8.1617 7.53255 8.34399 7.71484C8.53149 7.89714 8.75545 7.98828 9.01587 7.98828Z"
		fill="currentColor"
	/>
</svg>
