<svg
	color="rgb(var(--foreground, 0, 0, 0))"
	viewBox="0 0 15 24"
	fill="none"
	xmlns="http://www.w3.org/2000/svg"
>
	<path
		d="M13.7266 5.81641C13.3255 5.41536 12.849 5.16276 12.2969 5.05859C11.7448 4.94922 11.1354 4.89453 10.4688 4.89453H4.57031C3.91406 4.89453 3.3099 4.94922 2.75781 5.05859C2.21094 5.16276 1.73698 5.41536 1.33594 5.81641C0.940104 6.21224 0.6875 6.68359 0.578125 7.23047C0.473958 7.77734 0.421875 8.37891 0.421875 9.03516V14.9414C0.421875 15.6081 0.473958 16.2174 0.578125 16.7695C0.682292 17.3164 0.934896 17.7878 1.33594 18.1836C1.73698 18.5846 2.21094 18.8372 2.75781 18.9414C3.3099 19.0508 3.91927 19.1055 4.58594 19.1055H10.4688C11.1354 19.1055 11.7448 19.0508 12.2969 18.9414C12.849 18.8372 13.3255 18.5846 13.7266 18.1836C14.1224 17.7878 14.3724 17.3164 14.4766 16.7695C14.5859 16.2174 14.6406 15.6081 14.6406 14.9414V9.05859C14.6406 8.39193 14.5859 7.78516 14.4766 7.23828C14.3724 6.6862 14.1224 6.21224 13.7266 5.81641ZM7.375 13.6758C6.94271 13.6758 6.72656 13.4622 6.72656 13.0352C6.72656 13.0195 6.72656 13.0039 6.72656 12.9883C6.72656 12.9674 6.72656 12.9492 6.72656 12.9336C6.72656 12.5326 6.82292 12.2122 7.01562 11.9727C7.20833 11.7331 7.44792 11.5117 7.73438 11.3086C8.08854 11.0638 8.35156 10.8555 8.52344 10.6836C8.69531 10.5065 8.78125 10.2799 8.78125 10.0039C8.78125 9.69661 8.66927 9.44922 8.44531 9.26172C8.22656 9.07422 7.9349 8.98047 7.57031 8.98047C7.39323 8.98047 7.22917 9.00911 7.07812 9.06641C6.92708 9.1237 6.78906 9.20703 6.66406 9.31641C6.53906 9.42578 6.42708 9.55859 6.32812 9.71484L6.1875 9.91016C6.11458 10.0039 6.03125 10.082 5.9375 10.1445C5.84375 10.2018 5.72917 10.2305 5.59375 10.2305C5.45833 10.2305 5.33073 10.1836 5.21094 10.0898C5.09115 9.99089 5.03125 9.85286 5.03125 9.67578C5.03125 9.60807 5.03646 9.54036 5.04688 9.47266C5.0625 9.40495 5.08073 9.33984 5.10156 9.27734C5.21615 8.90234 5.48958 8.57682 5.92188 8.30078C6.35938 8.02474 6.92708 7.88672 7.625 7.88672C8.08333 7.88672 8.50521 7.96484 8.89062 8.12109C9.28125 8.27734 9.59635 8.50911 9.83594 8.81641C10.0755 9.11849 10.1953 9.49349 10.1953 9.94141C10.1953 10.4258 10.0677 10.8086 9.8125 11.0898C9.5625 11.3711 9.24219 11.6393 8.85156 11.8945C8.57031 12.0768 8.36198 12.2513 8.22656 12.418C8.09115 12.5794 8.02344 12.7747 8.02344 13.0039C8.02344 13.0143 8.02344 13.0299 8.02344 13.0508C8.02344 13.0664 8.02344 13.082 8.02344 13.0977C8.02344 13.2591 7.96615 13.3971 7.85156 13.5117C7.73698 13.6211 7.57812 13.6758 7.375 13.6758ZM7.35156 16.0742C7.1224 16.0742 6.91927 15.9935 6.74219 15.832C6.57031 15.6706 6.48438 15.4727 6.48438 15.2383C6.48438 15.0091 6.57031 14.8112 6.74219 14.6445C6.91406 14.4779 7.11719 14.3945 7.35156 14.3945C7.59115 14.3945 7.79688 14.4779 7.96875 14.6445C8.14062 14.806 8.22656 15.0039 8.22656 15.2383C8.22656 15.4727 8.13802 15.6706 7.96094 15.832C7.78906 15.9935 7.58594 16.0742 7.35156 16.0742Z"
		fill="currentColor"
	/>
</svg>
