<svg
	color="rgb(var(--foreground, 0, 0, 0))"
	viewBox="0 0 17 24"
	fill="none"
	xmlns="http://www.w3.org/2000/svg"
>
	<path
		d="M8.04688 19.9688C9.13542 19.9688 10.1589 19.7604 11.1172 19.3438C12.0807 18.9271 12.9297 18.3516 13.6641 17.6172C14.3984 16.8828 14.974 16.0365 15.3906 15.0781C15.8073 14.1146 16.0156 13.0885 16.0156 12C16.0156 10.9115 15.8073 9.88802 15.3906 8.92969C14.974 7.96615 14.3984 7.11719 13.6641 6.38281C12.9297 5.64844 12.0807 5.07292 11.1172 4.65625C10.1536 4.23958 9.1276 4.03125 8.03906 4.03125C6.95052 4.03125 5.92448 4.23958 4.96094 4.65625C4.0026 5.07292 3.15625 5.64844 2.42188 6.38281C1.69271 7.11719 1.11979 7.96615 0.703125 8.92969C0.286458 9.88802 0.078125 10.9115 0.078125 12C0.078125 13.0885 0.286458 14.1146 0.703125 15.0781C1.11979 16.0365 1.69531 16.8828 2.42969 17.6172C3.16406 18.3516 4.01042 18.9271 4.96875 19.3438C5.93229 19.7604 6.95833 19.9688 8.04688 19.9688ZM7.89062 13.6719C7.45833 13.6719 7.24219 13.4583 7.24219 13.0312C7.24219 13.0156 7.24219 13 7.24219 12.9844C7.24219 12.9635 7.24219 12.9453 7.24219 12.9297C7.24219 12.5286 7.33854 12.2083 7.53125 11.9688C7.72396 11.7292 7.96354 11.5078 8.25 11.3047C8.60417 11.0599 8.86719 10.8516 9.03906 10.6797C9.21094 10.5026 9.29688 10.276 9.29688 10C9.29688 9.69271 9.1849 9.44531 8.96094 9.25781C8.74219 9.07031 8.45052 8.97656 8.08594 8.97656C7.90885 8.97656 7.74479 9.00521 7.59375 9.0625C7.44271 9.11979 7.30469 9.20312 7.17969 9.3125C7.05469 9.42188 6.94271 9.55469 6.84375 9.71094L6.70312 9.90625C6.63021 10 6.54688 10.0781 6.45312 10.1406C6.35938 10.1979 6.24479 10.2266 6.10938 10.2266C5.97396 10.2266 5.84635 10.1797 5.72656 10.0859C5.60677 9.98698 5.54688 9.84896 5.54688 9.67188C5.54688 9.60417 5.55208 9.53646 5.5625 9.46875C5.57812 9.40104 5.59635 9.33594 5.61719 9.27344C5.73177 8.89844 6.00521 8.57292 6.4375 8.29688C6.875 8.02083 7.44271 7.88281 8.14062 7.88281C8.59896 7.88281 9.02083 7.96094 9.40625 8.11719C9.79688 8.27344 10.112 8.50521 10.3516 8.8125C10.5911 9.11458 10.7109 9.48958 10.7109 9.9375C10.7109 10.4219 10.5833 10.8047 10.3281 11.0859C10.0781 11.3672 9.75781 11.6354 9.36719 11.8906C9.08594 12.0729 8.8776 12.2474 8.74219 12.4141C8.60677 12.5755 8.53906 12.7708 8.53906 13C8.53906 13.0104 8.53906 13.026 8.53906 13.0469C8.53906 13.0625 8.53906 13.0781 8.53906 13.0938C8.53906 13.2552 8.48177 13.3932 8.36719 13.5078C8.2526 13.6172 8.09375 13.6719 7.89062 13.6719ZM7.86719 16.0703C7.63802 16.0703 7.4349 15.9896 7.25781 15.8281C7.08594 15.6667 7 15.4688 7 15.2344C7 15.0052 7.08594 14.8073 7.25781 14.6406C7.42969 14.474 7.63281 14.3906 7.86719 14.3906C8.10677 14.3906 8.3125 14.474 8.48438 14.6406C8.65625 14.8021 8.74219 15 8.74219 15.2344C8.74219 15.4688 8.65365 15.6667 8.47656 15.8281C8.30469 15.9896 8.10156 16.0703 7.86719 16.0703Z"
		fill="currentColor"
	/>
</svg>
