<svg
	color="rgb(var(--foreground, 0, 0, 0))"
	viewBox="0 0 19 24"
	fill="none"
	xmlns="http://www.w3.org/2000/svg"
>
	<path
		d="M1.23457 13.7266L7.49238 19.9844C8.07051 20.5625 8.64603 20.8542 9.21894 20.8594C9.79186 20.8646 10.3648 20.5807 10.9377 20.0078L17.2268 13.7109C17.7997 13.1432 18.0835 12.5729 18.0783 12C18.0731 11.4219 17.7814 10.8438 17.2033 10.2656L10.9533 4.01563C10.3752 3.4375 9.79967 3.14584 9.22676 3.14063C8.65384 3.13542 8.08092 3.41927 7.50801 3.99219L1.21113 10.2813C0.638213 10.8594 0.354359 11.4349 0.359567 12.0078C0.364776 12.5755 0.656442 13.1484 1.23457 13.7266ZM9.05488 13.6719C8.62259 13.6719 8.40644 13.4583 8.40644 13.0313C8.40644 13.0156 8.40644 13 8.40644 12.9844C8.40644 12.9635 8.40644 12.9453 8.40644 12.9297C8.40644 12.5286 8.5028 12.2083 8.69551 11.9688C8.88821 11.7292 9.1278 11.5078 9.41426 11.3047C9.76842 11.0599 10.0314 10.8516 10.2033 10.6797C10.3752 10.5026 10.4611 10.276 10.4611 10C10.4611 9.69271 10.3492 9.44531 10.1252 9.25781C9.90644 9.07031 9.61478 8.97656 9.25019 8.97656C9.07311 8.97656 8.90905 9.00521 8.75801 9.0625C8.60696 9.11979 8.46894 9.20313 8.34394 9.3125C8.21894 9.42188 8.10696 9.55469 8.00801 9.71094L7.86738 9.90625C7.79446 10 7.71113 10.0781 7.61738 10.1406C7.52363 10.1979 7.40905 10.2266 7.27363 10.2266C7.13821 10.2266 7.01061 10.1797 6.89082 10.0859C6.77103 9.98698 6.71113 9.84896 6.71113 9.67188C6.71113 9.60417 6.71634 9.53646 6.72676 9.46875C6.74238 9.40104 6.76061 9.33594 6.78144 9.27344C6.89603 8.89844 7.16946 8.57292 7.60176 8.29688C8.03926 8.02084 8.60696 7.88281 9.30488 7.88281C9.76321 7.88281 10.1851 7.96094 10.5705 8.11719C10.9611 8.27344 11.2762 8.50521 11.5158 8.8125C11.7554 9.11459 11.8752 9.48959 11.8752 9.9375C11.8752 10.4219 11.7476 10.8047 11.4924 11.0859C11.2424 11.3672 10.9221 11.6354 10.5314 11.8906C10.2502 12.0729 10.0419 12.2474 9.90644 12.4141C9.77103 12.5755 9.70332 12.7708 9.70332 13C9.70332 13.0104 9.70332 13.026 9.70332 13.0469C9.70332 13.0625 9.70332 13.0781 9.70332 13.0938C9.70332 13.2552 9.64603 13.3932 9.53144 13.5078C9.41686 13.6172 9.25801 13.6719 9.05488 13.6719ZM9.03144 16.0703C8.80228 16.0703 8.59915 15.9896 8.42207 15.8281C8.25019 15.6667 8.16426 15.4688 8.16426 15.2344C8.16426 15.0052 8.25019 14.8073 8.42207 14.6406C8.59394 14.474 8.79707 14.3906 9.03144 14.3906C9.27103 14.3906 9.47676 14.474 9.64863 14.6406C9.82051 14.8021 9.90644 15 9.90644 15.2344C9.90644 15.4688 9.8179 15.6667 9.64082 15.8281C9.46894 15.9896 9.26582 16.0703 9.03144 16.0703Z"
		fill="currentColor"
	/>
</svg>
