<svg
	color="rgb(var(--foreground, 0, 0, 0))"
	viewBox="0 0 15 24"
	fill="none"
	xmlns="http://www.w3.org/2000/svg"
>
	<path
		d="M13.5078 5.75391C13.1068 5.35286 12.6302 5.10026 12.0781 4.99609C11.526 4.88672 10.9167 4.83203 10.25 4.83203H4.16406C3.50781 4.83203 2.90365 4.88672 2.35156 4.99609C1.80469 5.10026 1.33073 5.35286 0.929688 5.75391C0.533854 6.14974 0.28125 6.62109 0.171875 7.16797C0.0677083 7.71484 0.015625 8.31641 0.015625 8.97266V15.0039C0.015625 15.6706 0.0677083 16.2799 0.171875 16.832C0.276042 17.3789 0.528646 17.8503 0.929688 18.2461C1.33073 18.6471 1.80469 18.8997 2.35156 19.0039C2.90365 19.1133 3.51302 19.168 4.17969 19.168H10.25C10.9167 19.168 11.526 19.1133 12.0781 19.0039C12.6302 18.8997 13.1068 18.6471 13.5078 18.2461C13.9036 17.8503 14.1536 17.3789 14.2578 16.832C14.3672 16.2799 14.4219 15.6706 14.4219 15.0039V8.99609C14.4219 8.32943 14.3672 7.72266 14.2578 7.17578C14.1536 6.6237 13.9036 6.14974 13.5078 5.75391ZM13.1641 8.77734V15.2148C13.1641 15.6211 13.125 16.0169 13.0469 16.4023C12.974 16.7826 12.8203 17.0924 12.5859 17.332C12.3516 17.5664 12.0391 17.7201 11.6484 17.793C11.263 17.8711 10.8698 17.9102 10.4688 17.9102H3.96875C3.56771 17.9102 3.17188 17.8711 2.78125 17.793C2.39583 17.7201 2.08333 17.5664 1.84375 17.332C1.60938 17.0924 1.45573 16.7826 1.38281 16.4023C1.3099 16.0169 1.27344 15.6211 1.27344 15.2148V8.80078C1.27344 8.38932 1.3099 7.99089 1.38281 7.60547C1.45573 7.21484 1.60938 6.90234 1.84375 6.66797C2.07812 6.42839 2.39062 6.27214 2.78125 6.19922C3.17708 6.1263 3.58073 6.08984 3.99219 6.08984H10.4688C10.8698 6.08984 11.263 6.12891 11.6484 6.20703C12.0391 6.27995 12.3516 6.43359 12.5859 6.66797C12.8255 6.90755 12.9818 7.22005 13.0547 7.60547C13.1276 7.98568 13.1641 8.3763 13.1641 8.77734ZM7.07031 13.6055C7.26302 13.6055 7.41406 13.5508 7.52344 13.4414C7.63802 13.332 7.69531 13.2018 7.69531 13.0508C7.69531 13.0352 7.69531 13.0195 7.69531 13.0039C7.69531 12.9831 7.69531 12.9674 7.69531 12.957C7.69531 12.7383 7.76042 12.5508 7.89062 12.3945C8.02083 12.2331 8.22396 12.0612 8.5 11.8789C8.875 11.6289 9.1849 11.3685 9.42969 11.0977C9.67448 10.8268 9.79688 10.457 9.79688 9.98828C9.79688 9.55599 9.67969 9.19141 9.44531 8.89453C9.21615 8.59766 8.91406 8.3737 8.53906 8.22266C8.16406 8.06641 7.75521 7.98828 7.3125 7.98828C6.64062 7.98828 6.09115 8.1263 5.66406 8.40234C5.24219 8.67318 4.97656 8.98828 4.86719 9.34766C4.84635 9.41016 4.83073 9.47266 4.82031 9.53516C4.8099 9.59766 4.80469 9.66276 4.80469 9.73047C4.80469 9.90755 4.86198 10.043 4.97656 10.1367C5.09115 10.2253 5.21354 10.2695 5.34375 10.2695C5.47396 10.2695 5.58333 10.2409 5.67188 10.1836C5.76562 10.1263 5.84635 10.0508 5.91406 9.95703L6.05469 9.76953C6.14844 9.61849 6.25521 9.49089 6.375 9.38672C6.49479 9.27734 6.6276 9.19401 6.77344 9.13672C6.92448 9.07943 7.08594 9.05078 7.25781 9.05078C7.61719 9.05078 7.90365 9.14453 8.11719 9.33203C8.33073 9.51432 8.4375 9.75391 8.4375 10.0508C8.4375 10.3164 8.35417 10.5352 8.1875 10.707C8.02083 10.8737 7.76562 11.0768 7.42188 11.3164C7.14062 11.5091 6.90625 11.7227 6.71875 11.957C6.53646 12.1914 6.44531 12.5013 6.44531 12.8867C6.44531 12.9023 6.44531 12.9206 6.44531 12.9414C6.44531 12.957 6.44531 12.9727 6.44531 12.9883C6.44531 13.3997 6.65365 13.6055 7.07031 13.6055ZM7.04688 15.9336C7.27604 15.9336 7.47396 15.8555 7.64062 15.6992C7.80729 15.543 7.89062 15.3503 7.89062 15.1211C7.89062 14.8919 7.80729 14.6992 7.64062 14.543C7.47396 14.3867 7.27604 14.3086 7.04688 14.3086C6.81771 14.3086 6.61979 14.3893 6.45312 14.5508C6.29167 14.707 6.21094 14.8971 6.21094 15.1211C6.21094 15.3451 6.29427 15.5378 6.46094 15.6992C6.6276 15.8555 6.82292 15.9336 7.04688 15.9336Z"
		fill="currentColor"
	/>
</svg>
