<svg
	color="rgb(var(--foreground, 0, 0, 0))"
	viewBox="0 0 19 24"
	fill="none"
	xmlns="http://www.w3.org/2000/svg"
>
	<path
		d="M1.5157 13.7266L7.77351 19.9844C8.35163 20.5625 8.92715 20.8542 9.50007 20.8594C10.073 20.8646 10.6459 20.5807 11.2188 20.0078L17.5079 13.7109C18.0808 13.1432 18.3647 12.5729 18.3594 12C18.3542 11.4219 18.0626 10.8438 17.4844 10.2656L11.2344 4.01563C10.6563 3.4375 10.0808 3.14584 9.50788 3.14063C8.93497 3.13542 8.36205 3.41927 7.78913 3.99219L1.49226 10.2813C0.919341 10.8594 0.635487 11.4349 0.640695 12.0078C0.645904 12.5755 0.93757 13.1484 1.5157 13.7266ZM2.42195 12.8594C2.1459 12.5781 2.00528 12.2917 2.00007 12C1.99486 11.7083 2.13809 11.4193 2.42976 11.1328L8.63288 4.92969C8.91934 4.64323 9.2084 4.5 9.50007 4.5C9.79174 4.5 10.0782 4.64063 10.3594 4.92188L16.5782 11.1406C16.8542 11.4167 16.9949 11.7031 17.0001 12C17.0053 12.2917 16.862 12.5807 16.5704 12.8672L10.3673 19.0703C10.0756 19.3568 9.78393 19.5 9.49226 19.5C9.20059 19.5 8.91674 19.362 8.6407 19.0859L2.42195 12.8594ZM9.34382 13.6172C9.53653 13.6172 9.68757 13.5625 9.79695 13.4531C9.91153 13.3438 9.96882 13.2135 9.96882 13.0625C9.96882 13.0469 9.96882 13.0313 9.96882 13.0156C9.96882 12.9948 9.96882 12.9792 9.96882 12.9688C9.96882 12.75 10.0339 12.5625 10.1641 12.4063C10.2943 12.2448 10.4975 12.0729 10.7735 11.8906C11.1485 11.6406 11.4584 11.3802 11.7032 11.1094C11.948 10.8385 12.0704 10.4688 12.0704 10C12.0704 9.56771 11.9532 9.20313 11.7188 8.90625C11.4897 8.60938 11.1876 8.38542 10.8126 8.23438C10.4376 8.07813 10.0287 8 9.58601 8C8.91413 8 8.36465 8.13802 7.93757 8.41406C7.5157 8.6849 7.25007 9 7.1407 9.35938C7.11986 9.42188 7.10424 9.48438 7.09382 9.54688C7.0834 9.60938 7.0782 9.67448 7.0782 9.74219C7.0782 9.91927 7.13549 10.0547 7.25007 10.1484C7.36465 10.237 7.48705 10.2813 7.61726 10.2813C7.74747 10.2813 7.85684 10.2526 7.94538 10.1953C8.03913 10.138 8.11986 10.0625 8.18757 9.96875L8.3282 9.78125C8.42195 9.63021 8.52872 9.50261 8.64851 9.39844C8.7683 9.28906 8.90111 9.20573 9.04695 9.14844C9.19799 9.09115 9.35945 9.0625 9.53132 9.0625C9.8907 9.0625 10.1772 9.15625 10.3907 9.34375C10.6042 9.52604 10.711 9.76563 10.711 10.0625C10.711 10.3281 10.6277 10.5469 10.461 10.7188C10.2943 10.8854 10.0391 11.0885 9.69538 11.3281C9.41413 11.5208 9.17976 11.7344 8.99226 11.9688C8.80997 12.2031 8.71882 12.513 8.71882 12.8984C8.71882 12.9141 8.71882 12.9323 8.71882 12.9531C8.71882 12.9688 8.71882 12.9844 8.71882 13C8.71882 13.4115 8.92715 13.6172 9.34382 13.6172ZM9.32038 15.9453C9.54955 15.9453 9.74747 15.8672 9.91413 15.7109C10.0808 15.5547 10.1641 15.362 10.1641 15.1328C10.1641 14.9036 10.0808 14.7109 9.91413 14.5547C9.74747 14.3984 9.54955 14.3203 9.32038 14.3203C9.09122 14.3203 8.8933 14.401 8.72663 14.5625C8.56517 14.7188 8.48445 14.9089 8.48445 15.1328C8.48445 15.3568 8.56778 15.5495 8.73445 15.7109C8.90111 15.8672 9.09643 15.9453 9.32038 15.9453Z"
		fill="currentColor"
	/>
</svg>
