<svg
	color="rgb(var(--foreground, 0, 0, 0))"
	viewBox="0 0 18 24"
	fill="none"
	xmlns="http://www.w3.org/2000/svg"
>
	<path
		d="M5.50781 20.082C5.70052 20.082 5.8776 20.0299 6.03906 19.9258C6.20052 19.8216 6.39844 19.6654 6.63281 19.457L9.32812 17.0586H14.3438C15.1198 17.0586 15.7734 16.9206 16.3047 16.6445C16.8359 16.3633 17.237 15.957 17.5078 15.4258C17.7839 14.8945 17.9219 14.2461 17.9219 13.4805V7.49609C17.9219 6.73047 17.7839 6.08203 17.5078 5.55078C17.237 5.01953 16.8359 4.61589 16.3047 4.33984C15.7734 4.05859 15.1198 3.91797 14.3438 3.91797H4.28125C3.50521 3.91797 2.85156 4.05859 2.32031 4.33984C1.78906 4.61589 1.38542 5.01953 1.10938 5.55078C0.838542 6.08203 0.703125 6.73047 0.703125 7.49609V13.4805C0.703125 14.2461 0.838542 14.8945 1.10938 15.4258C1.38542 15.957 1.78906 16.3633 2.32031 16.6445C2.85156 16.9206 3.50521 17.0586 4.28125 17.0586H4.65625V19.0898C4.65625 19.3919 4.72917 19.6315 4.875 19.8086C5.02604 19.9909 5.23698 20.082 5.50781 20.082ZM5.82812 18.6523V16.3867C5.82812 16.1732 5.78385 16.0221 5.69531 15.9336C5.60677 15.8451 5.45573 15.8008 5.24219 15.8008H4.28125C3.48958 15.8008 2.90365 15.6055 2.52344 15.2148C2.14844 14.819 1.96094 14.2383 1.96094 13.4727V7.49609C1.96094 6.73568 2.14844 6.16016 2.52344 5.76953C2.90365 5.3737 3.48958 5.17578 4.28125 5.17578H14.3438C15.1302 5.17578 15.7135 5.3737 16.0938 5.76953C16.474 6.16016 16.6641 6.73568 16.6641 7.49609V13.4727C16.6641 14.2383 16.474 14.819 16.0938 15.2148C15.7135 15.6055 15.1302 15.8008 14.3438 15.8008H9.28125C9.0625 15.8008 8.88542 15.8242 8.75 15.8711C8.61458 15.918 8.47396 16.0169 8.32812 16.168L5.82812 18.6523ZM9.16406 12.1055C9.35677 12.1055 9.50781 12.0508 9.61719 11.9414C9.73177 11.832 9.78906 11.7018 9.78906 11.5508C9.78906 11.5352 9.78906 11.5195 9.78906 11.5039C9.78906 11.4831 9.78906 11.4674 9.78906 11.457C9.78906 11.2383 9.85417 11.0508 9.98438 10.8945C10.1146 10.7331 10.3177 10.5612 10.5938 10.3789C10.9688 10.1289 11.2786 9.86849 11.5234 9.59766C11.7682 9.32682 11.8906 8.95703 11.8906 8.48828C11.8906 8.05599 11.7734 7.69141 11.5391 7.39453C11.3099 7.09766 11.0078 6.8737 10.6328 6.72266C10.2578 6.56641 9.84896 6.48828 9.40625 6.48828C8.73438 6.48828 8.1849 6.6263 7.75781 6.90234C7.33594 7.17318 7.07031 7.48828 6.96094 7.84766C6.9401 7.91016 6.92448 7.97266 6.91406 8.03516C6.90365 8.09766 6.89844 8.16276 6.89844 8.23047C6.89844 8.40755 6.95573 8.54297 7.07031 8.63672C7.1849 8.72526 7.30729 8.76953 7.4375 8.76953C7.56771 8.76953 7.67708 8.74089 7.76562 8.68359C7.85938 8.6263 7.9401 8.55078 8.00781 8.45703L8.14844 8.26953C8.24219 8.11849 8.34896 7.99089 8.46875 7.88672C8.58854 7.77734 8.72135 7.69401 8.86719 7.63672C9.01823 7.57943 9.17969 7.55078 9.35156 7.55078C9.71094 7.55078 9.9974 7.64453 10.2109 7.83203C10.4245 8.01432 10.5312 8.25391 10.5312 8.55078C10.5312 8.81641 10.4479 9.03516 10.2812 9.20703C10.1146 9.3737 9.85938 9.57682 9.51562 9.81641C9.23438 10.0091 9 10.2227 8.8125 10.457C8.63021 10.6914 8.53906 11.0013 8.53906 11.3867C8.53906 11.4023 8.53906 11.4206 8.53906 11.4414C8.53906 11.457 8.53906 11.4727 8.53906 11.4883C8.53906 11.8997 8.7474 12.1055 9.16406 12.1055ZM9.14062 14.4336C9.36979 14.4336 9.56771 14.3555 9.73438 14.1992C9.90104 14.043 9.98438 13.8503 9.98438 13.6211C9.98438 13.3919 9.90104 13.1992 9.73438 13.043C9.56771 12.8867 9.36979 12.8086 9.14062 12.8086C8.91146 12.8086 8.71354 12.8893 8.54688 13.0508C8.38542 13.207 8.30469 13.3971 8.30469 13.6211C8.30469 13.8451 8.38802 14.0378 8.55469 14.1992C8.72135 14.3555 8.91667 14.4336 9.14062 14.4336Z"
		fill="currentColor"
	/>
</svg>
