<svg
	color="rgb(var(--foreground, 0, 0, 0))"
	viewBox="0 0 15 24"
	fill="none"
	xmlns="http://www.w3.org/2000/svg"
>
	<path
		d="M0.0783691 8.92578H1.33618V7.29297C1.33618 6.88672 1.44035 6.58203 1.64868 6.37891C1.85702 6.17057 2.15649 6.06641 2.54712 6.06641H4.16431V4.80859H2.53149C1.71379 4.80859 1.0992 5.01172 0.687744 5.41797C0.281494 5.81901 0.0783691 6.42318 0.0783691 7.23047V8.92578ZM5.23462 6.06641H9.30493V4.80859H5.23462V6.06641ZM13.2034 8.92578H14.4612V7.23047C14.4612 6.42318 14.2555 5.81901 13.844 5.41797C13.4377 5.01172 12.8258 4.80859 12.0081 4.80859H10.3752V6.06641H11.9924C12.3778 6.06641 12.6747 6.17057 12.8831 6.37891C13.0966 6.58203 13.2034 6.88672 13.2034 7.29297V8.92578ZM13.2034 14.0039H14.4612V9.99609H13.2034V14.0039ZM10.3752 19.1914H12.0081C12.8258 19.1914 13.4377 18.9883 13.844 18.582C14.2555 18.181 14.4612 17.5768 14.4612 16.7695V15.0742H13.2034V16.707C13.2034 17.1133 13.0966 17.4206 12.8831 17.6289C12.6747 17.832 12.3778 17.9336 11.9924 17.9336H10.3752V19.1914ZM5.23462 19.1914H9.30493V17.9336H5.23462V19.1914ZM2.53149 19.1914H4.16431V17.9336H2.54712C2.15649 17.9336 1.85702 17.832 1.64868 17.6289C1.44035 17.4206 1.33618 17.1133 1.33618 16.707V15.0742H0.0783691V16.7695C0.0783691 17.5768 0.281494 18.181 0.687744 18.582C1.0992 18.9883 1.71379 19.1914 2.53149 19.1914ZM0.0783691 14.0039H1.33618V9.99609H0.0783691V14.0039ZM7.12524 13.6055C7.31795 13.6055 7.46899 13.5508 7.57837 13.4414C7.69295 13.332 7.75024 13.2018 7.75024 13.0508C7.75024 13.0352 7.75024 13.0195 7.75024 13.0039C7.75024 12.9831 7.75024 12.9674 7.75024 12.957C7.75024 12.7383 7.81535 12.5508 7.94556 12.3945C8.07577 12.2331 8.27889 12.0612 8.55493 11.8789C8.92993 11.6289 9.23983 11.3685 9.48462 11.0977C9.72941 10.8268 9.85181 10.457 9.85181 9.98828C9.85181 9.55599 9.73462 9.19141 9.50024 8.89453C9.27108 8.59766 8.96899 8.3737 8.59399 8.22266C8.21899 8.06641 7.81014 7.98828 7.36743 7.98828C6.69556 7.98828 6.14608 8.1263 5.71899 8.40234C5.29712 8.67318 5.03149 8.98828 4.92212 9.34766C4.90129 9.41016 4.88566 9.47266 4.87524 9.53516C4.86483 9.59766 4.85962 9.66276 4.85962 9.73047C4.85962 9.90755 4.91691 10.043 5.03149 10.1367C5.14608 10.2253 5.26847 10.2695 5.39868 10.2695C5.52889 10.2695 5.63827 10.2409 5.72681 10.1836C5.82056 10.1263 5.90129 10.0508 5.96899 9.95703L6.10962 9.76953C6.20337 9.61849 6.31014 9.49089 6.42993 9.38672C6.54972 9.27734 6.68254 9.19401 6.82837 9.13672C6.97941 9.07943 7.14087 9.05078 7.31274 9.05078C7.67212 9.05078 7.95858 9.14453 8.17212 9.33203C8.38566 9.51432 8.49243 9.75391 8.49243 10.0508C8.49243 10.3164 8.4091 10.5352 8.24243 10.707C8.07577 10.8737 7.82056 11.0768 7.47681 11.3164C7.19556 11.5091 6.96118 11.7227 6.77368 11.957C6.59139 12.1914 6.50024 12.5013 6.50024 12.8867C6.50024 12.9023 6.50024 12.9206 6.50024 12.9414C6.50024 12.957 6.50024 12.9727 6.50024 12.9883C6.50024 13.3997 6.70858 13.6055 7.12524 13.6055ZM7.10181 15.9336C7.33097 15.9336 7.52889 15.8555 7.69556 15.6992C7.86222 15.543 7.94556 15.3503 7.94556 15.1211C7.94556 14.8919 7.86222 14.6992 7.69556 14.543C7.52889 14.3867 7.33097 14.3086 7.10181 14.3086C6.87264 14.3086 6.67472 14.3893 6.50806 14.5508C6.3466 14.707 6.26587 14.8971 6.26587 15.1211C6.26587 15.3451 6.3492 15.5378 6.51587 15.6992C6.68254 15.8555 6.87785 15.9336 7.10181 15.9336Z"
		fill="currentColor"
	/>
</svg>
