<svg
	color="rgb(var(--foreground, 0, 0, 0))"
	viewBox="0 0 19 24"
	fill="none"
	xmlns="http://www.w3.org/2000/svg"
>
	<path
		d="M5.5625 20.1055C5.71875 20.1055 5.85938 20.0638 5.98438 19.9805C6.11458 19.9023 6.27344 19.7773 6.46094 19.6055L9.28125 17.0273H14.5625C15.3385 17.0273 15.9922 16.8893 16.5234 16.6133C17.0547 16.3372 17.4557 15.9336 17.7266 15.4023C18.0026 14.8711 18.1406 14.2227 18.1406 13.457V7.47266C18.1406 6.70703 18.0026 6.05859 17.7266 5.52734C17.4557 4.99609 17.0547 4.59245 16.5234 4.31641C15.9922 4.03516 15.3385 3.89453 14.5625 3.89453H4.5C3.72396 3.89453 3.07031 4.03516 2.53906 4.31641C2.00781 4.59245 1.60417 4.99609 1.32812 5.52734C1.05729 6.05859 0.921875 6.70703 0.921875 7.47266V13.457C0.921875 14.2227 1.05729 14.8711 1.32812 15.4023C1.60417 15.9336 2.00781 16.3372 2.53906 16.6133C3.07031 16.8893 3.72396 17.0273 4.5 17.0273H4.86719V19.3008C4.86719 19.5456 4.92708 19.7409 5.04688 19.8867C5.16667 20.0326 5.33854 20.1055 5.5625 20.1055ZM9.375 12.1289C8.94271 12.1289 8.72656 11.9154 8.72656 11.4883C8.72656 11.4727 8.72656 11.457 8.72656 11.4414C8.72656 11.4206 8.72656 11.4023 8.72656 11.3867C8.72656 10.9857 8.82292 10.6654 9.01562 10.4258C9.20833 10.1862 9.44792 9.96484 9.73438 9.76172C10.0885 9.51693 10.3516 9.30859 10.5234 9.13672C10.6953 8.95964 10.7812 8.73307 10.7812 8.45703C10.7812 8.14974 10.6693 7.90234 10.4453 7.71484C10.2266 7.52734 9.9349 7.43359 9.57031 7.43359C9.39323 7.43359 9.22917 7.46224 9.07812 7.51953C8.92708 7.57682 8.78906 7.66016 8.66406 7.76953C8.53906 7.87891 8.42708 8.01172 8.32812 8.16797L8.1875 8.36328C8.11458 8.45703 8.03125 8.53516 7.9375 8.59766C7.84375 8.65495 7.72917 8.68359 7.59375 8.68359C7.45833 8.68359 7.33073 8.63672 7.21094 8.54297C7.09115 8.44401 7.03125 8.30599 7.03125 8.12891C7.03125 8.0612 7.03646 7.99349 7.04688 7.92578C7.0625 7.85807 7.08073 7.79297 7.10156 7.73047C7.21615 7.35547 7.48958 7.02995 7.92188 6.75391C8.35938 6.47786 8.92708 6.33984 9.625 6.33984C10.0833 6.33984 10.5052 6.41797 10.8906 6.57422C11.2812 6.73047 11.5964 6.96224 11.8359 7.26953C12.0755 7.57161 12.1953 7.94661 12.1953 8.39453C12.1953 8.87891 12.0677 9.26172 11.8125 9.54297C11.5625 9.82422 11.2422 10.0924 10.8516 10.3477C10.5703 10.5299 10.362 10.7044 10.2266 10.8711C10.0911 11.0326 10.0234 11.2279 10.0234 11.457C10.0234 11.4674 10.0234 11.4831 10.0234 11.5039C10.0234 11.5195 10.0234 11.5352 10.0234 11.5508C10.0234 11.7122 9.96615 11.8503 9.85156 11.9648C9.73698 12.0742 9.57812 12.1289 9.375 12.1289ZM9.35156 14.5273C9.1224 14.5273 8.91927 14.4466 8.74219 14.2852C8.57031 14.1237 8.48438 13.9258 8.48438 13.6914C8.48438 13.4622 8.57031 13.2643 8.74219 13.0977C8.91406 12.931 9.11719 12.8477 9.35156 12.8477C9.59115 12.8477 9.79688 12.931 9.96875 13.0977C10.1406 13.2591 10.2266 13.457 10.2266 13.6914C10.2266 13.9258 10.138 14.1237 9.96094 14.2852C9.78906 14.4466 9.58594 14.5273 9.35156 14.5273Z"
		fill="currentColor"
	/>
</svg>
