<svg
	color="rgb(var(--foreground, 0, 0, 0))"
	viewBox="0 0 17 24"
	fill="none"
	xmlns="http://www.w3.org/2000/svg"
>
	<path
		d="M8.10938 19.9688C9.19792 19.9688 10.2214 19.7604 11.1797 19.3438C12.1432 18.9271 12.9922 18.3516 13.7266 17.6172C14.4609 16.8828 15.0365 16.0365 15.4531 15.0781C15.8698 14.1146 16.0781 13.0885 16.0781 12C16.0781 10.9115 15.8698 9.88802 15.4531 8.92969C15.0365 7.96615 14.4609 7.11719 13.7266 6.38281C12.9922 5.64844 12.1432 5.07292 11.1797 4.65625C10.2161 4.23958 9.1901 4.03125 8.10156 4.03125C7.01302 4.03125 5.98698 4.23958 5.02344 4.65625C4.0651 5.07292 3.21875 5.64844 2.48438 6.38281C1.75521 7.11719 1.18229 7.96615 0.765625 8.92969C0.348958 9.88802 0.140625 10.9115 0.140625 12C0.140625 13.0885 0.348958 14.1146 0.765625 15.0781C1.18229 16.0365 1.75781 16.8828 2.49219 17.6172C3.22656 18.3516 4.07292 18.9271 5.03125 19.3438C5.99479 19.7604 7.02083 19.9688 8.10938 19.9688ZM8.10938 18.6406C7.1875 18.6406 6.32552 18.4688 5.52344 18.125C4.72135 17.7812 4.01562 17.3073 3.40625 16.7031C2.80208 16.0938 2.32812 15.388 1.98438 14.5859C1.64583 13.7839 1.47656 12.9219 1.47656 12C1.47656 11.0781 1.64583 10.2161 1.98438 9.41406C2.32812 8.61198 2.80208 7.90625 3.40625 7.29688C4.01042 6.6875 4.71354 6.21354 5.51562 5.875C6.31771 5.53125 7.17969 5.35938 8.10156 5.35938C9.02344 5.35938 9.88542 5.53125 10.6875 5.875C11.4948 6.21354 12.2005 6.6875 12.8047 7.29688C13.4141 7.90625 13.8906 8.61198 14.2344 9.41406C14.5781 10.2161 14.75 11.0781 14.75 12C14.75 12.9219 14.5781 13.7839 14.2344 14.5859C13.8958 15.388 13.4219 16.0938 12.8125 16.7031C12.2031 17.3073 11.4974 17.7812 10.6953 18.125C9.89323 18.4688 9.03125 18.6406 8.10938 18.6406ZM7.95312 13.6172C8.14583 13.6172 8.29688 13.5625 8.40625 13.4531C8.52083 13.3438 8.57812 13.2135 8.57812 13.0625C8.57812 13.0469 8.57812 13.0312 8.57812 13.0156C8.57812 12.9948 8.57812 12.9792 8.57812 12.9688C8.57812 12.75 8.64323 12.5625 8.77344 12.4062C8.90365 12.2448 9.10677 12.0729 9.38281 11.8906C9.75781 11.6406 10.0677 11.3802 10.3125 11.1094C10.5573 10.8385 10.6797 10.4688 10.6797 10C10.6797 9.56771 10.5625 9.20312 10.3281 8.90625C10.099 8.60938 9.79688 8.38542 9.42188 8.23438C9.04688 8.07812 8.63802 8 8.19531 8C7.52344 8 6.97396 8.13802 6.54688 8.41406C6.125 8.6849 5.85938 9 5.75 9.35938C5.72917 9.42188 5.71354 9.48438 5.70312 9.54688C5.69271 9.60938 5.6875 9.67448 5.6875 9.74219C5.6875 9.91927 5.74479 10.0547 5.85938 10.1484C5.97396 10.237 6.09635 10.2812 6.22656 10.2812C6.35677 10.2812 6.46615 10.2526 6.55469 10.1953C6.64844 10.138 6.72917 10.0625 6.79688 9.96875L6.9375 9.78125C7.03125 9.63021 7.13802 9.5026 7.25781 9.39844C7.3776 9.28906 7.51042 9.20573 7.65625 9.14844C7.80729 9.09115 7.96875 9.0625 8.14062 9.0625C8.5 9.0625 8.78646 9.15625 9 9.34375C9.21354 9.52604 9.32031 9.76562 9.32031 10.0625C9.32031 10.3281 9.23698 10.5469 9.07031 10.7188C8.90365 10.8854 8.64844 11.0885 8.30469 11.3281C8.02344 11.5208 7.78906 11.7344 7.60156 11.9688C7.41927 12.2031 7.32812 12.513 7.32812 12.8984C7.32812 12.9141 7.32812 12.9323 7.32812 12.9531C7.32812 12.9688 7.32812 12.9844 7.32812 13C7.32812 13.4115 7.53646 13.6172 7.95312 13.6172ZM7.92969 15.9453C8.15885 15.9453 8.35677 15.8672 8.52344 15.7109C8.6901 15.5547 8.77344 15.362 8.77344 15.1328C8.77344 14.9036 8.6901 14.7109 8.52344 14.5547C8.35677 14.3984 8.15885 14.3203 7.92969 14.3203C7.70052 14.3203 7.5026 14.401 7.33594 14.5625C7.17448 14.7188 7.09375 14.9089 7.09375 15.1328C7.09375 15.3568 7.17708 15.5495 7.34375 15.7109C7.51042 15.8672 7.70573 15.9453 7.92969 15.9453Z"
		fill="currentColor"
	/>
</svg>
