<svg
	color="rgb(var(--foreground, 0, 0, 0))"
	viewBox="0 0 19 24"
	fill="none"
	xmlns="http://www.w3.org/2000/svg"
>
	<path
		d="M5.60938 20.1055C5.76562 20.1055 5.90625 20.0638 6.03125 19.9805C6.16146 19.9023 6.32031 19.7773 6.50781 19.6055L9.32812 17.0273H14.6094C15.3854 17.0273 16.0391 16.8893 16.5703 16.6133C17.1016 16.3372 17.5026 15.9336 17.7734 15.4023C18.0495 14.8711 18.1875 14.2227 18.1875 13.457V7.47266C18.1875 6.70703 18.0495 6.05859 17.7734 5.52734C17.5026 4.99609 17.1016 4.59245 16.5703 4.31641C16.0391 4.03516 15.3854 3.89453 14.6094 3.89453H4.54688C3.77083 3.89453 3.11719 4.03516 2.58594 4.31641C2.05469 4.59245 1.65104 4.99609 1.375 5.52734C1.10417 6.05859 0.96875 6.70703 0.96875 7.47266V13.457C0.96875 14.2227 1.10417 14.8711 1.375 15.4023C1.65104 15.9336 2.05469 16.3372 2.58594 16.6133C3.11719 16.8893 3.77083 17.0273 4.54688 17.0273H4.91406V19.3008C4.91406 19.5456 4.97396 19.7409 5.09375 19.8867C5.21354 20.0326 5.38542 20.1055 5.60938 20.1055ZM9.58594 11.9102C9.16927 11.9102 8.95573 11.6966 8.94531 11.2695L8.84375 7.01172C8.83854 6.80859 8.90365 6.63932 9.03906 6.50391C9.17969 6.36849 9.35938 6.30078 9.57812 6.30078C9.79167 6.30078 9.96875 6.37109 10.1094 6.51172C10.2552 6.64714 10.3255 6.81641 10.3203 7.01953L10.2031 11.2695C10.1979 11.6966 9.99219 11.9102 9.58594 11.9102ZM9.58594 14.5273C9.35156 14.5273 9.14583 14.4466 8.96875 14.2852C8.79688 14.1237 8.71094 13.9258 8.71094 13.6914C8.71094 13.4622 8.79688 13.2643 8.96875 13.0977C9.14062 12.931 9.34635 12.8477 9.58594 12.8477C9.82031 12.8477 10.0234 12.931 10.1953 13.0977C10.3724 13.2591 10.4609 13.457 10.4609 13.6914C10.4609 13.9258 10.3724 14.1237 10.1953 14.2852C10.0234 14.4466 9.82031 14.5273 9.58594 14.5273Z"
		fill="currentColor"
	/>
</svg>
