<svg
	color="rgb(var(--foreground, 0, 0, 0))"
	viewBox="0 0 17 24"
	fill="none"
	xmlns="http://www.w3.org/2000/svg"
>
	<path
		d="M8.09375 19.9688C9.18229 19.9688 10.2057 19.7604 11.1641 19.3438C12.1276 18.9271 12.9766 18.3516 13.7109 17.6172C14.4453 16.8828 15.0208 16.0365 15.4375 15.0781C15.8542 14.1146 16.0625 13.0885 16.0625 12C16.0625 10.9115 15.8542 9.88802 15.4375 8.92969C15.0208 7.96615 14.4453 7.11719 13.7109 6.38281C12.9766 5.64844 12.1276 5.07292 11.1641 4.65625C10.2005 4.23958 9.17448 4.03125 8.08594 4.03125C6.9974 4.03125 5.97135 4.23958 5.00781 4.65625C4.04948 5.07292 3.20312 5.64844 2.46875 6.38281C1.73958 7.11719 1.16667 7.96615 0.75 8.92969C0.333333 9.88802 0.125 10.9115 0.125 12C0.125 13.0885 0.333333 14.1146 0.75 15.0781C1.16667 16.0365 1.74219 16.8828 2.47656 17.6172C3.21094 18.3516 4.05729 18.9271 5.01562 19.3438C5.97917 19.7604 7.00521 19.9688 8.09375 19.9688ZM8.09375 13.4531C7.67708 13.4531 7.46354 13.2396 7.45312 12.8125L7.35156 8.55469C7.34635 8.35156 7.41146 8.18229 7.54688 8.04688C7.6875 7.91146 7.86719 7.84375 8.08594 7.84375C8.29948 7.84375 8.47656 7.91406 8.61719 8.05469C8.76302 8.1901 8.83333 8.35938 8.82812 8.5625L8.71094 12.8125C8.70573 13.2396 8.5 13.4531 8.09375 13.4531ZM8.09375 16.0703C7.85938 16.0703 7.65365 15.9896 7.47656 15.8281C7.30469 15.6667 7.21875 15.4688 7.21875 15.2344C7.21875 15.0052 7.30469 14.8073 7.47656 14.6406C7.64844 14.474 7.85417 14.3906 8.09375 14.3906C8.32812 14.3906 8.53125 14.474 8.70312 14.6406C8.88021 14.8021 8.96875 15 8.96875 15.2344C8.96875 15.4688 8.88021 15.6667 8.70312 15.8281C8.53125 15.9896 8.32812 16.0703 8.09375 16.0703Z"
		fill="currentColor"
	/>
</svg>
