<svg
	color="rgb(var(--foreground, 0, 0, 0))"
	viewBox="0 0 15 24"
	fill="none"
	xmlns="http://www.w3.org/2000/svg"
>
	<path
		d="M2.51562 19.1914H11.9922C12.8099 19.1914 13.4219 18.9883 13.8281 18.582C14.2396 18.181 14.4453 17.5768 14.4453 16.7695V7.23047C14.4453 6.42318 14.2396 5.81901 13.8281 5.41797C13.4219 5.01172 12.8099 4.80859 11.9922 4.80859H2.51562C1.69792 4.80859 1.08333 5.01172 0.671875 5.41797C0.265625 5.81901 0.0625 6.42318 0.0625 7.23047V16.7695C0.0625 17.5768 0.265625 18.181 0.671875 18.582C1.08333 18.9883 1.69792 19.1914 2.51562 19.1914ZM2.53125 17.9336C2.14062 17.9336 1.84115 17.832 1.63281 17.6289C1.42448 17.4206 1.32031 17.1133 1.32031 16.707V7.29297C1.32031 6.88672 1.42448 6.58203 1.63281 6.37891C1.84115 6.17057 2.14062 6.06641 2.53125 6.06641H11.9766C12.362 6.06641 12.6589 6.17057 12.8672 6.37891C13.0807 6.58203 13.1875 6.88672 13.1875 7.29297V16.707C13.1875 17.1133 13.0807 17.4206 12.8672 17.6289C12.6589 17.832 12.362 17.9336 11.9766 17.9336H2.53125ZM7.25781 13.3945C7.64844 13.3945 7.84635 13.1888 7.85156 12.7773L7.96875 8.65234C7.97396 8.45443 7.90625 8.29036 7.76562 8.16016C7.63021 8.02474 7.45833 7.95703 7.25 7.95703C7.03646 7.95703 6.86198 8.02214 6.72656 8.15234C6.59635 8.28255 6.53385 8.44661 6.53906 8.64453L6.64062 12.7773C6.65104 13.1888 6.85677 13.3945 7.25781 13.3945ZM7.25781 15.9336C7.48177 15.9336 7.67708 15.8555 7.84375 15.6992C8.01562 15.543 8.10156 15.3503 8.10156 15.1211C8.10156 14.8919 8.01823 14.6992 7.85156 14.543C7.6849 14.3867 7.48698 14.3086 7.25781 14.3086C7.02865 14.3086 6.83073 14.3893 6.66406 14.5508C6.4974 14.707 6.41406 14.8971 6.41406 15.1211C6.41406 15.3451 6.4974 15.5378 6.66406 15.6992C6.83073 15.8555 7.02865 15.9336 7.25781 15.9336Z"
		fill="currentColor"
	/>
</svg>
