<svg
	color="rgb(var(--foreground, 0, 0, 0))"
	viewBox="0 0 18 24"
	fill="none"
	xmlns="http://www.w3.org/2000/svg"
>
	<path
		d="M5.55469 20.082C5.7474 20.082 5.92448 20.0299 6.08594 19.9258C6.2474 19.8216 6.44531 19.6654 6.67969 19.457L9.375 17.0586H14.3906C15.1667 17.0586 15.8203 16.9206 16.3516 16.6445C16.8828 16.3633 17.2839 15.957 17.5547 15.4258C17.8307 14.8945 17.9688 14.2461 17.9688 13.4805V7.49609C17.9688 6.73047 17.8307 6.08203 17.5547 5.55078C17.2839 5.01953 16.8828 4.61589 16.3516 4.33984C15.8203 4.05859 15.1667 3.91797 14.3906 3.91797H4.32812C3.55208 3.91797 2.89844 4.05859 2.36719 4.33984C1.83594 4.61589 1.43229 5.01953 1.15625 5.55078C0.885417 6.08203 0.75 6.73047 0.75 7.49609V13.4805C0.75 14.2461 0.885417 14.8945 1.15625 15.4258C1.43229 15.957 1.83594 16.3633 2.36719 16.6445C2.89844 16.9206 3.55208 17.0586 4.32812 17.0586H4.70312V19.0898C4.70312 19.3919 4.77604 19.6315 4.92188 19.8086C5.07292 19.9909 5.28385 20.082 5.55469 20.082ZM5.875 18.6523V16.3867C5.875 16.1732 5.83073 16.0221 5.74219 15.9336C5.65365 15.8451 5.5026 15.8008 5.28906 15.8008H4.32812C3.53646 15.8008 2.95052 15.6055 2.57031 15.2148C2.19531 14.819 2.00781 14.2383 2.00781 13.4727V7.49609C2.00781 6.73568 2.19531 6.16016 2.57031 5.76953C2.95052 5.3737 3.53646 5.17578 4.32812 5.17578H14.3906C15.1771 5.17578 15.7604 5.3737 16.1406 5.76953C16.5208 6.16016 16.7109 6.73568 16.7109 7.49609V13.4727C16.7109 14.2383 16.5208 14.819 16.1406 15.2148C15.7604 15.6055 15.1771 15.8008 14.3906 15.8008H9.32812C9.10938 15.8008 8.93229 15.8242 8.79688 15.8711C8.66146 15.918 8.52083 16.0169 8.375 16.168L5.875 18.6523ZM9.35938 11.8945C9.75 11.8945 9.94792 11.6888 9.95312 11.2773L10.0703 7.15234C10.0755 6.95443 10.0078 6.79036 9.86719 6.66016C9.73177 6.52474 9.5599 6.45703 9.35156 6.45703C9.13802 6.45703 8.96354 6.52214 8.82812 6.65234C8.69792 6.78255 8.63542 6.94661 8.64062 7.14453L8.74219 11.2773C8.7526 11.6888 8.95833 11.8945 9.35938 11.8945ZM9.35938 14.4336C9.58333 14.4336 9.77865 14.3555 9.94531 14.1992C10.1172 14.043 10.2031 13.8503 10.2031 13.6211C10.2031 13.3919 10.1198 13.1992 9.95312 13.043C9.78646 12.8867 9.58854 12.8086 9.35938 12.8086C9.13021 12.8086 8.93229 12.8893 8.76562 13.0508C8.59896 13.207 8.51562 13.3971 8.51562 13.6211C8.51562 13.8451 8.59896 14.0378 8.76562 14.1992C8.93229 14.3555 9.13021 14.4336 9.35938 14.4336Z"
		fill="currentColor"
	/>
</svg>
