<svg
	color="rgb(var(--foreground, 0, 0, 0))"
	viewBox="0 0 17 24"
	fill="none"
	xmlns="http://www.w3.org/2000/svg"
>
	<path
		d="M2.13281 19.4219H14.2422C14.6849 19.4219 15.0651 19.3281 15.3828 19.1406C15.7005 18.9531 15.9453 18.6979 16.1172 18.375C16.2891 18.0573 16.375 17.7005 16.375 17.3047C16.375 17.1224 16.349 16.9375 16.2969 16.75C16.2448 16.5625 16.1693 16.3828 16.0703 16.2109L10.0078 5.64844C9.80469 5.29427 9.53906 5.02865 9.21094 4.85156C8.88802 4.66927 8.54688 4.57812 8.1875 4.57812C7.82812 4.57812 7.48438 4.66927 7.15625 4.85156C6.82812 5.02865 6.5651 5.29427 6.36719 5.64844L0.304688 16.2109C0.101562 16.5599 0 16.9245 0 17.3047C0 17.7005 0.0859375 18.0573 0.257812 18.375C0.429688 18.6979 0.674479 18.9531 0.992188 19.1406C1.3099 19.3281 1.6901 19.4219 2.13281 19.4219ZM2.14062 18.1953C1.86979 18.1953 1.65625 18.1042 1.5 17.9219C1.34375 17.7448 1.26562 17.5365 1.26562 17.2969C1.26562 17.224 1.27344 17.1432 1.28906 17.0547C1.3099 16.9661 1.34115 16.8802 1.38281 16.7969L7.4375 6.24219C7.52083 6.09635 7.63021 5.99219 7.76562 5.92969C7.90104 5.86198 8.04167 5.82812 8.1875 5.82812C8.33333 5.82812 8.47135 5.86198 8.60156 5.92969C8.73698 5.99219 8.84635 6.09635 8.92969 6.24219L14.9844 16.8047C15.0677 16.9661 15.1094 17.1302 15.1094 17.2969C15.1094 17.5365 15.0286 17.7448 14.8672 17.9219C14.7109 18.1042 14.4974 18.1953 14.2266 18.1953H2.14062ZM8.1875 14.1484C8.57812 14.1484 8.77604 13.9427 8.78125 13.5312L8.89844 9.40625C8.90365 9.20833 8.83594 9.04427 8.69531 8.91406C8.5599 8.77865 8.38802 8.71094 8.17969 8.71094C7.96615 8.71094 7.79167 8.77604 7.65625 8.90625C7.52604 9.03646 7.46354 9.20052 7.46875 9.39844L7.57031 13.5312C7.58073 13.9427 7.78646 14.1484 8.1875 14.1484ZM8.1875 16.6875C8.41146 16.6875 8.60677 16.6094 8.77344 16.4531C8.94531 16.2969 9.03125 16.1042 9.03125 15.875C9.03125 15.6458 8.94792 15.4531 8.78125 15.2969C8.61458 15.1406 8.41667 15.0625 8.1875 15.0625C7.95833 15.0625 7.76042 15.1432 7.59375 15.3047C7.42708 15.4609 7.34375 15.651 7.34375 15.875C7.34375 16.099 7.42708 16.2917 7.59375 16.4531C7.76042 16.6094 7.95833 16.6875 8.1875 16.6875Z"
		fill="currentColor"
	/>
</svg>
