<svg
	color="rgb(var(--foreground, 0, 0, 0))"
	viewBox="0 0 17 24"
	fill="none"
	xmlns="http://www.w3.org/2000/svg"
>
	<path
		d="M6.53906 19.7266H11.2812C11.6094 19.7266 11.888 19.6927 12.1172 19.625C12.3516 19.5573 12.5573 19.4557 12.7344 19.3203C12.9115 19.1901 13.0859 19.0339 13.2578 18.8516L16.2891 15.5078C16.4609 15.3203 16.5938 15.1458 16.6875 14.9844C16.7812 14.8177 16.8464 14.6432 16.8828 14.4609C16.9193 14.2734 16.9375 14.0495 16.9375 13.7891V10.2188C16.9375 9.95833 16.9193 9.73438 16.8828 9.54688C16.8464 9.35938 16.7812 9.1849 16.6875 9.02344C16.5938 8.86198 16.4609 8.6875 16.2891 8.5L13.2578 5.15625C13.0859 4.96875 12.9115 4.8099 12.7344 4.67969C12.5573 4.54948 12.3516 4.45052 12.1172 4.38281C11.888 4.3099 11.6094 4.27344 11.2812 4.27344H6.53906C6.20573 4.27344 5.92448 4.3099 5.69531 4.38281C5.46615 4.45052 5.26302 4.54948 5.08594 4.67969C4.90885 4.8099 4.73438 4.96875 4.5625 5.15625L1.53125 8.5C1.35938 8.6875 1.22656 8.86198 1.13281 9.02344C1.03906 9.1849 0.973958 9.35938 0.9375 9.54688C0.901042 9.73438 0.882812 9.95833 0.882812 10.2188V13.7891C0.882812 14.0495 0.901042 14.2734 0.9375 14.4609C0.973958 14.6432 1.03906 14.8177 1.13281 14.9844C1.22656 15.1458 1.35938 15.3203 1.53125 15.5078L4.5625 18.8516C4.73438 19.0339 4.90885 19.1901 5.08594 19.3203C5.26302 19.4557 5.46615 19.5573 5.69531 19.625C5.92448 19.6927 6.20573 19.7266 6.53906 19.7266ZM8.91406 13.4531C8.4974 13.4531 8.28385 13.2396 8.27344 12.8125L8.17188 8.55469C8.16667 8.35156 8.23177 8.18229 8.36719 8.04688C8.50781 7.91146 8.6875 7.84375 8.90625 7.84375C9.11979 7.84375 9.29688 7.91406 9.4375 8.05469C9.58333 8.1901 9.65365 8.35938 9.64844 8.5625L9.53125 12.8125C9.52604 13.2396 9.32031 13.4531 8.91406 13.4531ZM8.91406 16.0703C8.67969 16.0703 8.47396 15.9896 8.29688 15.8281C8.125 15.6667 8.03906 15.4688 8.03906 15.2344C8.03906 15.0052 8.125 14.8073 8.29688 14.6406C8.46875 14.474 8.67448 14.3906 8.91406 14.3906C9.14844 14.3906 9.35156 14.474 9.52344 14.6406C9.70052 14.8021 9.78906 15 9.78906 15.2344C9.78906 15.4688 9.70052 15.6667 9.52344 15.8281C9.35156 15.9896 9.14844 16.0703 8.91406 16.0703Z"
		fill="currentColor"
	/>
</svg>
