<svg
	color="rgb(var(--foreground, 0, 0, 0))"
	viewBox="0 0 14 24"
	fill="none"
	xmlns="http://www.w3.org/2000/svg"
>
	<path
		d="M7.42969 19.8906C7.49219 19.8906 7.57031 19.8776 7.66406 19.8516C7.75781 19.8255 7.85417 19.7865 7.95312 19.7344C9.06771 19.1094 10.0052 18.5547 10.7656 18.0703C11.5312 17.5911 12.1458 17.125 12.6094 16.6719C13.0729 16.2188 13.4062 15.7292 13.6094 15.2031C13.8177 14.6719 13.9219 14.0495 13.9219 13.3359V7.35938C13.9219 6.94792 13.8359 6.65365 13.6641 6.47656C13.4922 6.29948 13.2396 6.14062 12.9062 6C12.724 5.92188 12.4714 5.82292 12.1484 5.70312C11.8255 5.57812 11.4688 5.44531 11.0781 5.30469C10.6927 5.15885 10.3047 5.01562 9.91406 4.875C9.52344 4.73438 9.16667 4.60677 8.84375 4.49219C8.52083 4.3776 8.26823 4.28906 8.08594 4.22656C7.98177 4.19531 7.8724 4.16927 7.75781 4.14844C7.64844 4.1224 7.53906 4.10938 7.42969 4.10938C7.32031 4.10938 7.21094 4.1224 7.10156 4.14844C6.99219 4.17448 6.88542 4.20052 6.78125 4.22656C6.59375 4.27865 6.33854 4.36198 6.01562 4.47656C5.69271 4.58594 5.33594 4.71354 4.94531 4.85938C4.5599 5 4.17188 5.14323 3.78125 5.28906C3.39062 5.4349 3.03385 5.57031 2.71094 5.69531C2.38802 5.82031 2.13542 5.92188 1.95312 6C1.625 6.13542 1.3724 6.29427 1.19531 6.47656C1.02344 6.65365 0.9375 6.94792 0.9375 7.35938V13.3359C0.9375 14.0495 1.04167 14.6693 1.25 15.1953C1.45833 15.7214 1.79427 16.2109 2.25781 16.6641C2.72135 17.1172 3.33333 17.5859 4.09375 18.0703C4.85938 18.5547 5.79688 19.1094 6.90625 19.7344C7.00521 19.7865 7.10156 19.8255 7.19531 19.8516C7.28906 19.8776 7.36719 19.8906 7.42969 19.8906ZM7.42969 18.4766C7.36719 18.4766 7.29948 18.4609 7.22656 18.4297C7.15365 18.4036 7.0599 18.3568 6.94531 18.2891C6.04427 17.7422 5.28646 17.2734 4.67188 16.8828C4.0625 16.487 3.57552 16.112 3.21094 15.7578C2.84635 15.3984 2.58333 15.0078 2.42188 14.5859C2.26042 14.1641 2.17969 13.651 2.17969 13.0469V7.60156C2.17969 7.47135 2.19531 7.375 2.22656 7.3125C2.26302 7.24479 2.33594 7.1901 2.44531 7.14844C2.67969 7.05469 2.95312 6.95052 3.26562 6.83594C3.57812 6.72135 3.90885 6.60156 4.25781 6.47656C4.60677 6.35156 4.95573 6.22917 5.30469 6.10938C5.65365 5.98438 5.98438 5.86458 6.29688 5.75C6.60938 5.63542 6.88281 5.53125 7.11719 5.4375C7.17969 5.41146 7.23698 5.39323 7.28906 5.38281C7.34115 5.3724 7.38802 5.36719 7.42969 5.36719C7.47135 5.36719 7.51823 5.3724 7.57031 5.38281C7.6224 5.39323 7.67969 5.41146 7.74219 5.4375C7.97656 5.53125 8.25 5.63802 8.5625 5.75781C8.875 5.8724 9.20312 5.99479 9.54688 6.125C9.89583 6.25 10.2422 6.375 10.5859 6.5C10.9349 6.625 11.2656 6.74479 11.5781 6.85938C11.8958 6.96875 12.1771 7.0651 12.4219 7.14844C12.526 7.1849 12.5938 7.23698 12.625 7.30469C12.6615 7.3724 12.6797 7.47135 12.6797 7.60156V13.0469C12.6797 13.651 12.599 14.1641 12.4375 14.5859C12.2812 15.0078 12.0182 15.3958 11.6484 15.75C11.2839 16.1042 10.7943 16.4792 10.1797 16.875C9.57031 17.2708 8.8151 17.7422 7.91406 18.2891C7.79948 18.3568 7.70573 18.4036 7.63281 18.4297C7.5599 18.4609 7.49219 18.4766 7.42969 18.4766ZM7.42969 13.0312C7.82031 13.0312 8.01823 12.8255 8.02344 12.4141L8.14062 8.28906C8.14583 8.09115 8.07812 7.92708 7.9375 7.79688C7.80208 7.66146 7.63021 7.59375 7.42188 7.59375C7.20833 7.59375 7.03385 7.65885 6.89844 7.78906C6.76823 7.91927 6.70573 8.08333 6.71094 8.28125L6.8125 12.4141C6.82292 12.8255 7.02865 13.0312 7.42969 13.0312ZM7.42969 15.5703C7.65365 15.5703 7.84896 15.4922 8.01562 15.3359C8.1875 15.1797 8.27344 14.987 8.27344 14.7578C8.27344 14.5286 8.1901 14.3359 8.02344 14.1797C7.85677 14.0234 7.65885 13.9453 7.42969 13.9453C7.20052 13.9453 7.0026 14.026 6.83594 14.1875C6.66927 14.3438 6.58594 14.5339 6.58594 14.7578C6.58594 14.9818 6.66927 15.1745 6.83594 15.3359C7.0026 15.4922 7.20052 15.5703 7.42969 15.5703Z"
		fill="currentColor"
	/>
</svg>
