<svg
	color="rgb(var(--foreground, 0, 0, 0))"
	viewBox="0 0 15 24"
	fill="none"
	xmlns="http://www.w3.org/2000/svg"
>
	<path
		d="M2.89844 19.1914H12.375C13.1927 19.1914 13.8047 18.9883 14.2109 18.582C14.6224 18.181 14.8281 17.5768 14.8281 16.7695V7.23047C14.8281 6.42318 14.6224 5.81901 14.2109 5.41797C13.8047 5.01172 13.1927 4.80859 12.375 4.80859H2.89844C2.08073 4.80859 1.46615 5.01172 1.05469 5.41797C0.648438 5.81901 0.445312 6.42318 0.445312 7.23047V16.7695C0.445312 17.5768 0.648438 18.181 1.05469 18.582C1.46615 18.9883 2.08073 19.1914 2.89844 19.1914ZM7.64062 13.4414C7.22396 13.4414 7.01042 13.2279 7 12.8008L6.89844 8.54297C6.89323 8.33984 6.95833 8.17057 7.09375 8.03516C7.23438 7.89974 7.41406 7.83203 7.63281 7.83203C7.84635 7.83203 8.02344 7.90234 8.16406 8.04297C8.3099 8.17839 8.38021 8.34766 8.375 8.55078L8.25781 12.8008C8.2526 13.2279 8.04688 13.4414 7.64062 13.4414ZM7.64062 16.0586C7.40625 16.0586 7.20052 15.9779 7.02344 15.8164C6.85156 15.6549 6.76562 15.457 6.76562 15.2227C6.76562 14.9935 6.85156 14.7956 7.02344 14.6289C7.19531 14.4622 7.40104 14.3789 7.64062 14.3789C7.875 14.3789 8.07812 14.4622 8.25 14.6289C8.42708 14.7904 8.51562 14.9883 8.51562 15.2227C8.51562 15.457 8.42708 15.6549 8.25 15.8164C8.07812 15.9779 7.875 16.0586 7.64062 16.0586Z"
		fill="currentColor"
	/>
</svg>
