<svg
	color="rgb(var(--foreground, 0, 0, 0))"
	viewBox="0 0 17 24"
	fill="none"
	xmlns="http://www.w3.org/2000/svg"
>
	<path
		d="M8.15625 19.9688C9.24479 19.9688 10.2682 19.7604 11.2266 19.3438C12.1901 18.9271 13.0391 18.3516 13.7734 17.6172C14.5078 16.8828 15.0833 16.0365 15.5 15.0781C15.9167 14.1146 16.125 13.0885 16.125 12C16.125 10.9115 15.9167 9.88802 15.5 8.92969C15.0833 7.96615 14.5078 7.11719 13.7734 6.38281C13.0391 5.64844 12.1901 5.07292 11.2266 4.65625C10.263 4.23958 9.23698 4.03125 8.14844 4.03125C7.0599 4.03125 6.03385 4.23958 5.07031 4.65625C4.11198 5.07292 3.26562 5.64844 2.53125 6.38281C1.80208 7.11719 1.22917 7.96615 0.8125 8.92969C0.395833 9.88802 0.1875 10.9115 0.1875 12C0.1875 13.0885 0.395833 14.1146 0.8125 15.0781C1.22917 16.0365 1.80469 16.8828 2.53906 17.6172C3.27344 18.3516 4.11979 18.9271 5.07812 19.3438C6.04167 19.7604 7.06771 19.9688 8.15625 19.9688ZM8.15625 18.6406C7.23438 18.6406 6.3724 18.4688 5.57031 18.125C4.76823 17.7812 4.0625 17.3073 3.45312 16.7031C2.84896 16.0938 2.375 15.388 2.03125 14.5859C1.69271 13.7839 1.52344 12.9219 1.52344 12C1.52344 11.0781 1.69271 10.2161 2.03125 9.41406C2.375 8.61198 2.84896 7.90625 3.45312 7.29688C4.05729 6.6875 4.76042 6.21354 5.5625 5.875C6.36458 5.53125 7.22656 5.35938 8.14844 5.35938C9.07031 5.35938 9.93229 5.53125 10.7344 5.875C11.5417 6.21354 12.2474 6.6875 12.8516 7.29688C13.4609 7.90625 13.9375 8.61198 14.2812 9.41406C14.625 10.2161 14.7969 11.0781 14.7969 12C14.7969 12.9219 14.625 13.7839 14.2812 14.5859C13.9427 15.388 13.4688 16.0938 12.8594 16.7031C12.25 17.3073 11.5443 17.7812 10.7422 18.125C9.9401 18.4688 9.07812 18.6406 8.15625 18.6406ZM8.14844 13.4062C8.53906 13.4062 8.73698 13.2005 8.74219 12.7891L8.85938 8.66406C8.86458 8.46615 8.79688 8.30208 8.65625 8.17188C8.52083 8.03646 8.34896 7.96875 8.14062 7.96875C7.92708 7.96875 7.7526 8.03385 7.61719 8.16406C7.48698 8.29427 7.42448 8.45833 7.42969 8.65625L7.53125 12.7891C7.54167 13.2005 7.7474 13.4062 8.14844 13.4062ZM8.14844 15.9453C8.3724 15.9453 8.56771 15.8672 8.73438 15.7109C8.90625 15.5547 8.99219 15.362 8.99219 15.1328C8.99219 14.9036 8.90885 14.7109 8.74219 14.5547C8.57552 14.3984 8.3776 14.3203 8.14844 14.3203C7.91927 14.3203 7.72135 14.401 7.55469 14.5625C7.38802 14.7188 7.30469 14.9089 7.30469 15.1328C7.30469 15.3568 7.38802 15.5495 7.55469 15.7109C7.72135 15.8672 7.91927 15.9453 8.14844 15.9453Z"
		fill="currentColor"
	/>
</svg>
