<svg
	color="rgb(var(--foreground, 0, 0, 0))"
	viewBox="0 0 17 24"
	fill="none"
	xmlns="http://www.w3.org/2000/svg"
>
	<path
		d="M2.50781 19.4219H14.6172C15.0599 19.4219 15.4401 19.3281 15.7578 19.1406C16.0755 18.9531 16.3203 18.6979 16.4922 18.375C16.6641 18.0573 16.75 17.7005 16.75 17.3047C16.75 17.1224 16.724 16.9375 16.6719 16.75C16.6198 16.5625 16.5443 16.3828 16.4453 16.2109L10.3828 5.64844C10.1797 5.29427 9.91406 5.02865 9.58594 4.85156C9.26302 4.66927 8.92188 4.57812 8.5625 4.57812C8.20312 4.57812 7.85938 4.66927 7.53125 4.85156C7.20312 5.02865 6.9401 5.29427 6.74219 5.64844L0.679688 16.2109C0.476562 16.5599 0.375 16.9245 0.375 17.3047C0.375 17.7005 0.460938 18.0573 0.632812 18.375C0.804688 18.6979 1.04948 18.9531 1.36719 19.1406C1.6849 19.3281 2.0651 19.4219 2.50781 19.4219ZM8.57031 14.1953C8.15365 14.1953 7.9401 13.9818 7.92969 13.5547L7.82812 9.29688C7.82292 9.09375 7.88802 8.92448 8.02344 8.78906C8.16406 8.65365 8.34375 8.58594 8.5625 8.58594C8.77604 8.58594 8.95312 8.65625 9.09375 8.79688C9.23958 8.93229 9.3099 9.10156 9.30469 9.30469L9.1875 13.5547C9.18229 13.9818 8.97656 14.1953 8.57031 14.1953ZM8.57031 16.8125C8.33594 16.8125 8.13021 16.7318 7.95312 16.5703C7.78125 16.4089 7.69531 16.2109 7.69531 15.9766C7.69531 15.7474 7.78125 15.5495 7.95312 15.3828C8.125 15.2161 8.33073 15.1328 8.57031 15.1328C8.80469 15.1328 9.00781 15.2161 9.17969 15.3828C9.35677 15.5443 9.44531 15.7422 9.44531 15.9766C9.44531 16.2109 9.35677 16.4089 9.17969 16.5703C9.00781 16.7318 8.80469 16.8125 8.57031 16.8125Z"
		fill="currentColor"
	/>
</svg>
