<svg
	color="rgb(var(--foreground, 0, 0, 0))"
	viewBox="0 0 17 24"
	fill="none"
	xmlns="http://www.w3.org/2000/svg"
>
	<path
		d="M6.48438 19.7266H11.2266C11.5547 19.7266 11.8333 19.6927 12.0625 19.625C12.2969 19.5573 12.5026 19.4557 12.6797 19.3203C12.8568 19.1901 13.0312 19.0339 13.2031 18.8516L16.2344 15.5078C16.4062 15.3203 16.5391 15.1458 16.6328 14.9844C16.7266 14.8177 16.7917 14.6432 16.8281 14.4609C16.8646 14.2734 16.8828 14.0495 16.8828 13.7891V10.2188C16.8828 9.95833 16.8646 9.73438 16.8281 9.54688C16.7917 9.35938 16.7266 9.1849 16.6328 9.02344C16.5391 8.86198 16.4062 8.6875 16.2344 8.5L13.2031 5.15625C13.0312 4.96875 12.8568 4.8099 12.6797 4.67969C12.5026 4.54948 12.2969 4.45052 12.0625 4.38281C11.8333 4.3099 11.5547 4.27344 11.2266 4.27344H6.48438C6.15104 4.27344 5.86979 4.3099 5.64062 4.38281C5.41146 4.45052 5.20833 4.54948 5.03125 4.67969C4.85417 4.8099 4.67969 4.96875 4.50781 5.15625L1.47656 8.5C1.30469 8.6875 1.17188 8.86198 1.07812 9.02344C0.984375 9.1849 0.919271 9.35938 0.882812 9.54688C0.846354 9.73438 0.828125 9.95833 0.828125 10.2188V13.7891C0.828125 14.0495 0.846354 14.2734 0.882812 14.4609C0.919271 14.6432 0.984375 14.8177 1.07812 14.9844C1.17188 15.1458 1.30469 15.3203 1.47656 15.5078L4.50781 18.8516C4.67969 19.0339 4.85417 19.1901 5.03125 19.3203C5.20833 19.4557 5.41146 19.5573 5.64062 19.625C5.86979 19.6927 6.15104 19.7266 6.48438 19.7266ZM6.90625 18.4766C6.64583 18.4766 6.4349 18.4557 6.27344 18.4141C6.11719 18.3724 5.97917 18.3047 5.85938 18.2109C5.73958 18.1172 5.60938 17.9922 5.46875 17.8359L2.64844 14.75C2.4974 14.5781 2.39583 14.4219 2.34375 14.2812C2.29688 14.1406 2.27344 13.9271 2.27344 13.6406V10.3672C2.27344 10.0807 2.29688 9.86719 2.34375 9.72656C2.39583 9.58594 2.4974 9.42969 2.64844 9.25781L5.46875 6.17188C5.60938 6.01562 5.73958 5.89062 5.85938 5.79688C5.97917 5.70312 6.11719 5.63542 6.27344 5.59375C6.4349 5.55208 6.64583 5.53125 6.90625 5.53125H10.8047C11.0651 5.53125 11.2734 5.55208 11.4297 5.59375C11.5859 5.63542 11.724 5.70312 11.8438 5.79688C11.9635 5.89062 12.0964 6.01562 12.2422 6.17188L15.0547 9.25781C15.2109 9.42969 15.3125 9.58594 15.3594 9.72656C15.4115 9.86719 15.4375 10.0807 15.4375 10.3672V13.6406C15.4375 13.9271 15.4115 14.1406 15.3594 14.2812C15.3125 14.4219 15.2109 14.5781 15.0547 14.75L12.2422 17.8359C12.0964 17.9922 11.9635 18.1172 11.8438 18.2109C11.724 18.3047 11.5859 18.3724 11.4297 18.4141C11.2734 18.4557 11.0651 18.4766 10.8047 18.4766H6.90625ZM8.85938 13.4062C9.25 13.4062 9.44792 13.2005 9.45312 12.7891L9.57031 8.66406C9.57552 8.46615 9.50781 8.30208 9.36719 8.17188C9.23177 8.03646 9.0599 7.96875 8.85156 7.96875C8.63802 7.96875 8.46354 8.03385 8.32812 8.16406C8.19792 8.29427 8.13542 8.45833 8.14062 8.65625L8.24219 12.7891C8.2526 13.2005 8.45833 13.4062 8.85938 13.4062ZM8.85938 15.9453C9.08333 15.9453 9.27865 15.8672 9.44531 15.7109C9.61719 15.5547 9.70312 15.362 9.70312 15.1328C9.70312 14.9036 9.61979 14.7109 9.45312 14.5547C9.28646 14.3984 9.08854 14.3203 8.85938 14.3203C8.63021 14.3203 8.43229 14.401 8.26562 14.5625C8.09896 14.7188 8.01562 14.9089 8.01562 15.1328C8.01562 15.3568 8.09896 15.5495 8.26562 15.7109C8.43229 15.8672 8.63021 15.9453 8.85938 15.9453Z"
		fill="currentColor"
	/>
</svg>
