<svg
	color="rgb(var(--foreground, 0, 0, 0))"
	viewBox="0 0 14 24"
	fill="none"
	xmlns="http://www.w3.org/2000/svg"
>
	<path
		d="M7.3125 19.7656C7.375 19.7656 7.45052 19.7526 7.53906 19.7266C7.63281 19.7057 7.72917 19.6693 7.82812 19.6172C8.94271 19.0339 9.875 18.5078 10.625 18.0391C11.3802 17.5703 11.9818 17.1068 12.4297 16.6484C12.8828 16.1901 13.2083 15.6979 13.4062 15.1719C13.6042 14.6406 13.7031 14.0234 13.7031 13.3203V7.42969C13.7031 7.02865 13.6172 6.73958 13.4453 6.5625C13.2786 6.38542 13.0312 6.22917 12.7031 6.09375C12.5208 6.01562 12.2708 5.91667 11.9531 5.79688C11.6354 5.67708 11.2839 5.54688 10.8984 5.40625C10.5182 5.26562 10.1354 5.125 9.75 4.98438C9.36979 4.84375 9.02083 4.71875 8.70312 4.60938C8.39062 4.49479 8.14323 4.40625 7.96094 4.34375C7.85677 4.3125 7.75 4.28646 7.64062 4.26562C7.53125 4.24479 7.42188 4.23438 7.3125 4.23438C7.20312 4.23438 7.09375 4.24479 6.98438 4.26562C6.88021 4.28646 6.77604 4.3125 6.67188 4.34375C6.48958 4.40625 6.23958 4.49479 5.92188 4.60938C5.60417 4.71875 5.2526 4.84375 4.86719 4.98438C4.48698 5.11979 4.10417 5.26042 3.71875 5.40625C3.33854 5.54688 2.98958 5.67969 2.67188 5.80469C2.35417 5.92448 2.10417 6.02083 1.92188 6.09375C1.59896 6.22396 1.35156 6.38021 1.17969 6.5625C1.00781 6.73958 0.921875 7.02865 0.921875 7.42969V13.3203C0.921875 14.0234 1.02344 14.6354 1.22656 15.1562C1.4349 15.6719 1.76562 16.1536 2.21875 16.6016C2.67708 17.0443 3.28125 17.5026 4.03125 17.9766C4.78646 18.4505 5.70833 18.9974 6.79688 19.6172C6.89583 19.6693 6.98958 19.7057 7.07812 19.7266C7.17188 19.7526 7.25 19.7656 7.3125 19.7656ZM7.3125 13.1641C6.89583 13.1641 6.68229 12.9505 6.67188 12.5234L6.57031 8.26562C6.5651 8.0625 6.63021 7.89323 6.76562 7.75781C6.90625 7.6224 7.08594 7.55469 7.30469 7.55469C7.51823 7.55469 7.69531 7.625 7.83594 7.76562C7.98177 7.90104 8.05208 8.07031 8.04688 8.27344L7.92969 12.5234C7.92448 12.9505 7.71875 13.1641 7.3125 13.1641ZM7.3125 15.7812C7.07812 15.7812 6.8724 15.7005 6.69531 15.5391C6.52344 15.3776 6.4375 15.1797 6.4375 14.9453C6.4375 14.7161 6.52344 14.5182 6.69531 14.3516C6.86719 14.1849 7.07292 14.1016 7.3125 14.1016C7.54688 14.1016 7.75 14.1849 7.92188 14.3516C8.09896 14.513 8.1875 14.7109 8.1875 14.9453C8.1875 15.1797 8.09896 15.3776 7.92188 15.5391C7.75 15.7005 7.54688 15.7812 7.3125 15.7812Z"
		fill="currentColor"
	/>
</svg>
