<svg
	color="rgb(var(--foreground, 0, 0, 0))"
	viewBox="0 0 18 24"
	fill="none"
	xmlns="http://www.w3.org/2000/svg"
>
	<path
		d="M9.26318 4.16406C9.49756 4.16406 9.69287 4.08594 9.84912 3.92969C10.0054 3.76823 10.0835 3.57031 10.0835 3.33594C10.0835 3.10677 10.0028 2.91146 9.84131 2.75C9.68506 2.58854 9.49235 2.50781 9.26318 2.50781C9.03923 2.50781 8.84391 2.58854 8.67725 2.75C8.51579 2.91146 8.43506 3.10677 8.43506 3.33594C8.43506 3.5651 8.51579 3.76042 8.67725 3.92188C8.8387 4.08333 9.03402 4.16406 9.26318 4.16406ZM5.52881 6.3125C5.76318 6.3125 5.9585 6.23438 6.11475 6.07812C6.2762 5.91667 6.35693 5.71875 6.35693 5.48438C6.35693 5.25521 6.2762 5.0599 6.11475 4.89844C5.95329 4.73698 5.75798 4.65625 5.52881 4.65625C5.30485 4.65625 5.10954 4.73958 4.94287 4.90625C4.78141 5.06771 4.70068 5.26042 4.70068 5.48438C4.70068 5.71354 4.78141 5.90885 4.94287 6.07031C5.10433 6.23177 5.29964 6.3125 5.52881 6.3125ZM12.9897 6.3125C13.2241 6.3125 13.4194 6.23438 13.5757 6.07812C13.7371 5.91667 13.8179 5.71875 13.8179 5.48438C13.8179 5.25521 13.7371 5.0599 13.5757 4.89844C13.4142 4.73698 13.2189 4.65625 12.9897 4.65625C12.7658 4.65625 12.5705 4.73958 12.4038 4.90625C12.2424 5.06771 12.1616 5.26042 12.1616 5.48438C12.1616 5.71354 12.2424 5.90885 12.4038 6.07031C12.5653 6.23177 12.7606 6.3125 12.9897 6.3125ZM1.80225 8.49219C2.03662 8.49219 2.23193 8.41406 2.38818 8.25781C2.54443 8.09635 2.62256 7.89844 2.62256 7.66406C2.62256 7.4349 2.54183 7.24219 2.38037 7.08594C2.22412 6.92448 2.03141 6.84375 1.80225 6.84375C1.57308 6.84375 1.37777 6.92448 1.21631 7.08594C1.05485 7.2474 0.974121 7.4401 0.974121 7.66406C0.974121 7.89323 1.05485 8.08854 1.21631 8.25C1.37777 8.41146 1.57308 8.49219 1.80225 8.49219ZM9.26318 8.78125C9.57048 8.78125 9.83089 8.67448 10.0444 8.46094C10.2632 8.24219 10.3726 7.97656 10.3726 7.66406C10.3726 7.36198 10.2632 7.10156 10.0444 6.88281C9.83089 6.66406 9.57048 6.55469 9.26318 6.55469C8.9611 6.55469 8.69808 6.66406 8.47412 6.88281C8.25537 7.10156 8.146 7.36198 8.146 7.66406C8.146 7.97135 8.25537 8.23438 8.47412 8.45312C8.69287 8.67188 8.95589 8.78125 9.26318 8.78125ZM16.6929 8.49219C16.9272 8.49219 17.1226 8.41406 17.2788 8.25781C17.4403 8.09635 17.521 7.89844 17.521 7.66406C17.521 7.4349 17.4403 7.24219 17.2788 7.08594C17.1174 6.92448 16.922 6.84375 16.6929 6.84375C16.4689 6.84375 16.2736 6.92448 16.1069 7.08594C15.9455 7.2474 15.8647 7.4401 15.8647 7.66406C15.8647 7.89323 15.9455 8.08854 16.1069 8.25C16.2684 8.41146 16.4637 8.49219 16.6929 8.49219ZM5.52881 10.9453C5.84131 10.9453 6.10433 10.8385 6.31787 10.625C6.53662 10.4062 6.646 10.1406 6.646 9.82812C6.646 9.52083 6.53662 9.25781 6.31787 9.03906C6.09912 8.82031 5.8361 8.71094 5.52881 8.71094C5.22673 8.71094 4.96631 8.82292 4.74756 9.04688C4.52881 9.26562 4.41943 9.52604 4.41943 9.82812C4.41943 10.1354 4.5262 10.3984 4.73975 10.6172C4.9585 10.8359 5.22152 10.9453 5.52881 10.9453ZM12.9897 10.9453C13.3022 10.9453 13.5653 10.8385 13.7788 10.625C13.9976 10.4062 14.1069 10.1406 14.1069 9.82812C14.1069 9.52083 13.9976 9.25781 13.7788 9.03906C13.5601 8.82031 13.297 8.71094 12.9897 8.71094C12.6877 8.71094 12.4272 8.82292 12.2085 9.04688C11.9897 9.26562 11.8804 9.52604 11.8804 9.82812C11.8804 10.1354 11.9871 10.3984 12.2007 10.6172C12.4194 10.8359 12.6825 10.9453 12.9897 10.9453ZM1.80225 12.8281C2.03141 12.8281 2.22412 12.7474 2.38037 12.5859C2.54183 12.4245 2.62256 12.2292 2.62256 12C2.62256 11.7708 2.54183 11.5755 2.38037 11.4141C2.22412 11.2526 2.03141 11.1719 1.80225 11.1719C1.57308 11.1719 1.37777 11.2526 1.21631 11.4141C1.05485 11.5755 0.974121 11.7708 0.974121 12C0.974121 12.2292 1.05485 12.4245 1.21631 12.5859C1.37777 12.7474 1.57308 12.8281 1.80225 12.8281ZM9.26318 13.3047C9.62256 13.3047 9.92985 13.1797 10.1851 12.9297C10.4403 12.6745 10.5679 12.3646 10.5679 12C10.5679 11.7604 10.508 11.5417 10.3882 11.3438C10.2684 11.1458 10.1095 10.9896 9.91162 10.875C9.71891 10.7552 9.50277 10.6953 9.26318 10.6953C9.0236 10.6953 8.80485 10.7552 8.60693 10.875C8.41423 10.9948 8.25798 11.1536 8.13818 11.3516C8.01839 11.5495 7.9585 11.7656 7.9585 12C7.9585 12.2396 8.01579 12.4583 8.13037 12.6562C8.25016 12.849 8.40902 13.0052 8.60693 13.125C8.80485 13.2448 9.0236 13.3047 9.26318 13.3047ZM16.6929 12.8281C16.9272 12.8281 17.1226 12.75 17.2788 12.5938C17.4403 12.4323 17.521 12.2344 17.521 12C17.521 11.7708 17.4403 11.5755 17.2788 11.4141C17.1174 11.2526 16.922 11.1719 16.6929 11.1719C16.4689 11.1719 16.2736 11.2552 16.1069 11.4219C15.9455 11.5833 15.8647 11.776 15.8647 12C15.8647 12.2292 15.9455 12.4245 16.1069 12.5859C16.2684 12.7474 16.4637 12.8281 16.6929 12.8281ZM5.52881 15.2891C5.84131 15.2891 6.10433 15.1823 6.31787 14.9688C6.53662 14.75 6.646 14.4844 6.646 14.1719C6.646 13.8646 6.53662 13.6016 6.31787 13.3828C6.09912 13.1641 5.8361 13.0547 5.52881 13.0547C5.22673 13.0547 4.96631 13.1667 4.74756 13.3906C4.52881 13.6094 4.41943 13.8698 4.41943 14.1719C4.41943 14.4792 4.5262 14.7422 4.73975 14.9609C4.9585 15.1797 5.22152 15.2891 5.52881 15.2891ZM12.9897 15.2891C13.3022 15.2891 13.5653 15.1823 13.7788 14.9688C13.9976 14.75 14.1069 14.4844 14.1069 14.1719C14.1069 13.8646 13.9976 13.6016 13.7788 13.3828C13.5601 13.1641 13.297 13.0547 12.9897 13.0547C12.6877 13.0547 12.4272 13.1667 12.2085 13.3906C11.9897 13.6094 11.8804 13.8698 11.8804 14.1719C11.8804 14.4792 11.9871 14.7422 12.2007 14.9609C12.4194 15.1797 12.6825 15.2891 12.9897 15.2891ZM1.80225 17.1562C2.03662 17.1562 2.23193 17.0781 2.38818 16.9219C2.54443 16.7604 2.62256 16.5625 2.62256 16.3281C2.62256 16.099 2.54183 15.9062 2.38037 15.75C2.22412 15.5885 2.03141 15.5078 1.80225 15.5078C1.57829 15.5078 1.38298 15.5885 1.21631 15.75C1.05485 15.9115 0.974121 16.1042 0.974121 16.3281C0.974121 16.5625 1.05225 16.7604 1.2085 16.9219C1.36995 17.0781 1.56787 17.1562 1.80225 17.1562ZM9.26318 17.4453C9.57048 17.4453 9.83089 17.3385 10.0444 17.125C10.2632 16.9062 10.3726 16.6406 10.3726 16.3281C10.3726 16.026 10.2632 15.7656 10.0444 15.5469C9.83089 15.3281 9.57048 15.2188 9.26318 15.2188C8.9611 15.2188 8.69808 15.3307 8.47412 15.5547C8.25537 15.7734 8.146 16.0312 8.146 16.3281C8.146 16.6354 8.25537 16.8984 8.47412 17.1172C8.69287 17.3359 8.95589 17.4453 9.26318 17.4453ZM16.6929 17.1562C16.9272 17.1562 17.1226 17.0781 17.2788 16.9219C17.4403 16.7656 17.521 16.5677 17.521 16.3281C17.521 16.099 17.4403 15.9062 17.2788 15.75C17.1174 15.5885 16.922 15.5078 16.6929 15.5078C16.4689 15.5078 16.2736 15.5885 16.1069 15.75C15.9455 15.9115 15.8647 16.1042 15.8647 16.3281C15.8647 16.5625 15.9455 16.7604 16.1069 16.9219C16.2684 17.0781 16.4637 17.1562 16.6929 17.1562ZM5.52881 19.3359C5.76318 19.3359 5.9585 19.2578 6.11475 19.1016C6.2762 18.9453 6.35693 18.75 6.35693 18.5156C6.35693 18.2865 6.2762 18.0911 6.11475 17.9297C5.95329 17.7682 5.75798 17.6875 5.52881 17.6875C5.30485 17.6875 5.10954 17.7682 4.94287 17.9297C4.78141 18.0911 4.70068 18.2865 4.70068 18.5156C4.70068 18.7448 4.78141 18.9375 4.94287 19.0938C5.10433 19.2552 5.29964 19.3359 5.52881 19.3359ZM12.9897 19.3359C13.2241 19.3359 13.4194 19.2578 13.5757 19.1016C13.7371 18.9453 13.8179 18.75 13.8179 18.5156C13.8179 18.2865 13.7371 18.0911 13.5757 17.9297C13.4142 17.7682 13.2189 17.6875 12.9897 17.6875C12.7658 17.6875 12.5705 17.7682 12.4038 17.9297C12.2424 18.0911 12.1616 18.2865 12.1616 18.5156C12.1616 18.7448 12.2424 18.9375 12.4038 19.0938C12.5653 19.2552 12.7606 19.3359 12.9897 19.3359ZM9.26318 21.4922C9.49756 21.4922 9.69287 21.4115 9.84912 21.25C10.0054 21.0938 10.0835 20.8984 10.0835 20.6641C10.0835 20.4349 10.0028 20.2396 9.84131 20.0781C9.68506 19.9167 9.49235 19.8359 9.26318 19.8359C9.03923 19.8359 8.84391 19.9167 8.67725 20.0781C8.51579 20.2448 8.43506 20.4401 8.43506 20.6641C8.43506 20.8932 8.51579 21.0885 8.67725 21.25C8.8387 21.4115 9.03402 21.4922 9.26318 21.4922Z"
		fill="currentColor"
	/>
</svg>
