<svg
	color="rgb(var(--foreground, 0, 0, 0))"
	viewBox="0 0 21 24"
	fill="none"
	xmlns="http://www.w3.org/2000/svg"
>
	<path
		d="M9.00537 4.36328C9.29704 4.36328 9.54183 4.26432 9.73975 4.06641C9.93766 3.86849 10.0366 3.6263 10.0366 3.33984C10.0366 3.05339 9.93506 2.8112 9.73193 2.61328C9.53402 2.41016 9.29183 2.30859 9.00537 2.30859C8.72933 2.30859 8.48975 2.41016 8.28662 2.61328C8.0835 2.81641 7.98193 3.05859 7.98193 3.33984C7.98193 3.62109 8.08089 3.86328 8.27881 4.06641C8.48193 4.26432 8.72412 4.36328 9.00537 4.36328ZM5.27881 6.51953C5.57048 6.51953 5.81266 6.42057 6.00537 6.22266C6.20329 6.02474 6.30225 5.77995 6.30225 5.48828C6.30225 5.20182 6.20329 4.95964 6.00537 4.76172C5.80745 4.5638 5.56527 4.46484 5.27881 4.46484C4.99756 4.46484 4.75537 4.56641 4.55225 4.76953C4.35433 4.96745 4.25537 5.20703 4.25537 5.48828C4.25537 5.77474 4.35433 6.01953 4.55225 6.22266C4.75016 6.42057 4.99235 6.51953 5.27881 6.51953ZM12.7397 6.51953C13.0314 6.51953 13.2736 6.42057 13.4663 6.22266C13.6642 6.02474 13.7632 5.77995 13.7632 5.48828C13.7632 5.20182 13.6642 4.95964 13.4663 4.76172C13.2684 4.5638 13.0262 4.46484 12.7397 4.46484C12.4585 4.46484 12.2163 4.56641 12.0132 4.76953C11.8153 4.96745 11.7163 5.20703 11.7163 5.48828C11.7163 5.77474 11.8153 6.01953 12.0132 6.22266C12.2111 6.42057 12.4533 6.51953 12.7397 6.51953ZM1.55225 8.69922C1.8387 8.69922 2.08089 8.60026 2.27881 8.40234C2.47673 8.20443 2.57568 7.95964 2.57568 7.66797C2.57568 7.38672 2.47412 7.14714 2.271 6.94922C2.07308 6.74609 1.8335 6.64453 1.55225 6.64453C1.271 6.64453 1.02881 6.74609 0.825684 6.94922C0.622559 7.14714 0.520996 7.38672 0.520996 7.66797C0.520996 7.95443 0.619954 8.19922 0.817871 8.40234C1.021 8.60026 1.26579 8.69922 1.55225 8.69922ZM9.00537 8.98828C9.37516 8.98828 9.68766 8.86068 9.94287 8.60547C10.1981 8.35026 10.3257 8.03776 10.3257 7.66797C10.3257 7.30859 10.1955 7.0013 9.93506 6.74609C9.67985 6.48568 9.36995 6.35547 9.00537 6.35547C8.771 6.35547 8.55225 6.41536 8.34912 6.53516C8.1512 6.65495 7.99235 6.81641 7.87256 7.01953C7.75277 7.21745 7.69287 7.43359 7.69287 7.66797C7.69287 8.03255 7.82048 8.34505 8.07568 8.60547C8.3361 8.86068 8.646 8.98828 9.00537 8.98828ZM16.4429 8.69922C16.7293 8.69922 16.9715 8.60026 17.1694 8.40234C17.3674 8.20443 17.4663 7.95964 17.4663 7.66797C17.4663 7.38151 17.3674 7.13932 17.1694 6.94141C16.9715 6.74349 16.7293 6.64453 16.4429 6.64453C16.1616 6.64453 15.9194 6.74609 15.7163 6.94922C15.5132 7.15234 15.4116 7.39193 15.4116 7.66797C15.4116 7.95443 15.5106 8.19922 15.7085 8.40234C15.9116 8.60026 16.1564 8.69922 16.4429 8.69922ZM5.27881 11.1445C5.6486 11.1445 5.9585 11.0169 6.2085 10.7617C6.4637 10.5065 6.59131 10.1966 6.59131 9.83203C6.59131 9.46745 6.4611 9.15755 6.20068 8.90234C5.94548 8.64714 5.63818 8.51953 5.27881 8.51953C5.03923 8.51953 4.82048 8.57943 4.62256 8.69922C4.42464 8.81901 4.26579 8.97786 4.146 9.17578C4.0262 9.3737 3.96631 9.59245 3.96631 9.83203C3.96631 10.1914 4.09391 10.5013 4.34912 10.7617C4.60433 11.0169 4.91423 11.1445 5.27881 11.1445ZM12.7397 11.1445C13.1095 11.1445 13.4194 11.0169 13.6694 10.7617C13.9246 10.5065 14.0522 10.1966 14.0522 9.83203C14.0522 9.46745 13.922 9.15755 13.6616 8.90234C13.4064 8.64714 13.0991 8.51953 12.7397 8.51953C12.5002 8.51953 12.2814 8.57943 12.0835 8.69922C11.8856 8.81901 11.7267 8.97786 11.6069 9.17578C11.4871 9.3737 11.4272 9.59245 11.4272 9.83203C11.4272 10.1914 11.5549 10.5013 11.8101 10.7617C12.0653 11.0169 12.3752 11.1445 12.7397 11.1445ZM1.55225 13.0273C1.8387 13.0273 2.08089 12.9284 2.27881 12.7305C2.47673 12.5326 2.57568 12.2904 2.57568 12.0039C2.57568 11.7174 2.47412 11.4753 2.271 11.2773C2.07308 11.0794 1.8335 10.9805 1.55225 10.9805C1.271 10.9805 1.02881 11.082 0.825684 11.2852C0.622559 11.4831 0.520996 11.7227 0.520996 12.0039C0.520996 12.2904 0.619954 12.5326 0.817871 12.7305C1.021 12.9284 1.26579 13.0273 1.55225 13.0273ZM9.00537 13.5039C9.28662 13.5039 9.53923 13.4388 9.76318 13.3086C9.99235 13.1732 10.1746 12.9909 10.3101 12.7617C10.4455 12.5326 10.5132 12.2799 10.5132 12.0039C10.5132 11.7279 10.4455 11.4779 10.3101 11.2539C10.1746 11.0247 9.99235 10.8424 9.76318 10.707C9.53402 10.5716 9.28141 10.5039 9.00537 10.5039C8.73454 10.5039 8.48454 10.5716 8.25537 10.707C8.03141 10.8424 7.84912 11.0247 7.7085 11.2539C7.57308 11.4831 7.50537 11.7331 7.50537 12.0039C7.50537 12.2799 7.57308 12.5326 7.7085 12.7617C7.84391 12.9857 8.0262 13.1654 8.25537 13.3008C8.48454 13.4362 8.73454 13.5039 9.00537 13.5039ZM17.3804 12.4102C17.4377 12.2695 17.4663 12.1341 17.4663 12.0039C17.4663 11.7174 17.3674 11.4753 17.1694 11.2773C16.9715 11.0794 16.7293 10.9805 16.4429 10.9805C16.1616 10.9805 15.9194 11.082 15.7163 11.2852C15.5132 11.4831 15.4116 11.7227 15.4116 12.0039C15.4116 12.1341 15.4403 12.2669 15.4976 12.4023C15.7996 12.2565 16.1147 12.1836 16.4429 12.1836C16.771 12.1836 17.0835 12.2591 17.3804 12.4102ZM5.27881 15.4883C5.64339 15.4883 5.95329 15.3607 6.2085 15.1055C6.4637 14.8503 6.59131 14.5404 6.59131 14.1758C6.59131 13.8112 6.4611 13.5013 6.20068 13.2461C5.94548 12.9857 5.63818 12.8555 5.27881 12.8555C5.03923 12.8555 4.82048 12.918 4.62256 13.043C4.42464 13.1628 4.26579 13.3216 4.146 13.5195C4.0262 13.7174 3.96631 13.9362 3.96631 14.1758C3.96631 14.5352 4.09391 14.8451 4.34912 15.1055C4.60954 15.3607 4.91943 15.4883 5.27881 15.4883ZM12.7397 15.4883C12.9481 15.4883 13.1408 15.4414 13.3179 15.3477L14.0366 14.0508V14.0117C14.0002 13.6888 13.8569 13.4154 13.6069 13.1914C13.3621 12.9674 13.0731 12.8555 12.7397 12.8555C12.3804 12.8555 12.0705 12.9857 11.8101 13.2461C11.5549 13.5065 11.4272 13.8164 11.4272 14.1758C11.4272 14.5352 11.5549 14.8451 11.8101 15.1055C12.0705 15.3607 12.3804 15.4883 12.7397 15.4883ZM1.55225 17.3633C1.8387 17.3633 2.08089 17.2643 2.27881 17.0664C2.47673 16.8685 2.57568 16.6237 2.57568 16.332C2.57568 16.0508 2.47412 15.8112 2.271 15.6133C2.07308 15.4102 1.8335 15.3086 1.55225 15.3086C1.271 15.3086 1.02881 15.4102 0.825684 15.6133C0.622559 15.8164 0.520996 16.056 0.520996 16.332C0.520996 16.6185 0.619954 16.8633 0.817871 17.0664C1.021 17.2643 1.26579 17.3633 1.55225 17.3633ZM9.00537 17.6523C9.37516 17.6523 9.68766 17.5247 9.94287 17.2695C10.1981 17.0143 10.3257 16.7018 10.3257 16.332C10.3257 15.9727 10.1955 15.6654 9.93506 15.4102C9.67985 15.1497 9.36995 15.0195 9.00537 15.0195C8.771 15.0195 8.55225 15.0794 8.34912 15.1992C8.1512 15.319 7.99235 15.4805 7.87256 15.6836C7.75277 15.8815 7.69287 16.0977 7.69287 16.332C7.69287 16.6966 7.82048 17.0091 8.07568 17.2695C8.3361 17.5247 8.646 17.6523 9.00537 17.6523ZM5.27881 19.543C5.57048 19.543 5.81266 19.444 6.00537 19.2461C6.20329 19.0482 6.30225 18.806 6.30225 18.5195C6.30225 18.2331 6.20329 17.9883 6.00537 17.7852C5.80745 17.5872 5.56527 17.4883 5.27881 17.4883C4.99756 17.4883 4.75537 17.5898 4.55225 17.793C4.35433 17.9961 4.25537 18.2383 4.25537 18.5195C4.25537 18.8008 4.35433 19.0404 4.55225 19.2383C4.75016 19.4414 4.99235 19.543 5.27881 19.543ZM9.00537 21.6914C9.29704 21.6914 9.54183 21.5924 9.73975 21.3945C9.93766 21.2018 10.0366 20.9596 10.0366 20.668C10.0366 20.3815 9.93506 20.1393 9.73193 19.9414C9.53402 19.7435 9.29183 19.6445 9.00537 19.6445C8.72933 19.6445 8.48975 19.7435 8.28662 19.9414C8.0835 20.1445 7.98193 20.3867 7.98193 20.668C7.98193 20.9544 8.08089 21.1966 8.27881 21.3945C8.48193 21.5924 8.72412 21.6914 9.00537 21.6914ZM13.0522 21.4023H19.8179C20.1408 21.4023 20.3986 21.3008 20.5913 21.0977C20.784 20.8997 20.8804 20.6523 20.8804 20.3555C20.8804 20.1732 20.8309 19.9987 20.7319 19.832L17.3413 13.7852C17.2424 13.6081 17.1095 13.4753 16.9429 13.3867C16.7814 13.2982 16.6147 13.2539 16.4429 13.2539C16.2606 13.2539 16.0861 13.2982 15.9194 13.3867C15.7528 13.4753 15.6226 13.6081 15.5288 13.7852L12.146 19.8398C12.047 20.0013 11.9976 20.1732 11.9976 20.3555C11.9976 20.6523 12.0913 20.8997 12.2788 21.0977C12.4715 21.3008 12.7293 21.4023 13.0522 21.4023ZM16.4351 20.2148C16.258 20.2148 16.1043 20.1497 15.9741 20.0195C15.8439 19.8893 15.7788 19.7331 15.7788 19.5508C15.7788 19.3737 15.8439 19.2201 15.9741 19.0898C16.1043 18.9596 16.258 18.8945 16.4351 18.8945C16.6226 18.8945 16.7788 18.9596 16.9038 19.0898C17.034 19.2201 17.0991 19.3737 17.0991 19.5508C17.0991 19.7331 17.034 19.8893 16.9038 20.0195C16.7736 20.1497 16.6174 20.2148 16.4351 20.2148ZM16.4429 18.3477C16.3022 18.3477 16.1877 18.306 16.0991 18.2227C16.0158 18.1393 15.9715 18.0299 15.9663 17.8945L15.9038 15.668C15.8986 15.5065 15.9455 15.3763 16.0444 15.2773C16.1434 15.1784 16.2762 15.1289 16.4429 15.1289C16.6043 15.1289 16.7345 15.1784 16.8335 15.2773C16.9325 15.3763 16.9793 15.5065 16.9741 15.668L16.9116 17.8945C16.9064 18.0299 16.8595 18.1393 16.771 18.2227C16.6877 18.306 16.5783 18.3477 16.4429 18.3477Z"
		fill="currentColor"
	/>
</svg>
