<svg
	color="rgb(var(--foreground, 0, 0, 0))"
	viewBox="0 0 17 24"
	fill="none"
	xmlns="http://www.w3.org/2000/svg"
>
	<path
		d="M8.91162 3.96875C9.09391 3.96875 9.24495 3.90885 9.36475 3.78906C9.48454 3.66927 9.54443 3.51823 9.54443 3.33594C9.54443 3.15885 9.48193 3.00781 9.35693 2.88281C9.23714 2.75781 9.0887 2.69531 8.91162 2.69531C8.73454 2.69531 8.5835 2.75781 8.4585 2.88281C8.3335 3.00781 8.271 3.15885 8.271 3.33594C8.271 3.51302 8.33089 3.66406 8.45068 3.78906C8.57568 3.90885 8.72933 3.96875 8.91162 3.96875ZM5.17725 6.125C5.35954 6.125 5.51058 6.0651 5.63037 5.94531C5.75537 5.82031 5.81787 5.66667 5.81787 5.48438C5.81787 5.30729 5.75537 5.15625 5.63037 5.03125C5.50537 4.90625 5.35433 4.84375 5.17725 4.84375C5.00537 4.84375 4.85433 4.90885 4.72412 5.03906C4.59912 5.16406 4.53662 5.3125 4.53662 5.48438C4.53662 5.66146 4.59912 5.8125 4.72412 5.9375C4.84912 6.0625 5.00016 6.125 5.17725 6.125ZM12.6382 6.125C12.8205 6.125 12.9715 6.0651 13.0913 5.94531C13.2163 5.82031 13.2788 5.66667 13.2788 5.48438C13.2788 5.30729 13.2163 5.15625 13.0913 5.03125C12.9663 4.90625 12.8153 4.84375 12.6382 4.84375C12.4663 4.84375 12.3153 4.90885 12.1851 5.03906C12.0601 5.16406 11.9976 5.3125 11.9976 5.48438C11.9976 5.66146 12.0601 5.8125 12.1851 5.9375C12.3101 6.0625 12.4611 6.125 12.6382 6.125ZM1.45068 8.30469C1.63298 8.30469 1.78402 8.24479 1.90381 8.125C2.0236 8.00521 2.0835 7.85156 2.0835 7.66406C2.0835 7.48698 2.021 7.33854 1.896 7.21875C1.7762 7.09375 1.62777 7.03125 1.45068 7.03125C1.2736 7.03125 1.12256 7.09375 0.997559 7.21875C0.872559 7.34375 0.810059 7.49219 0.810059 7.66406C0.810059 7.84635 0.869954 8 0.989746 8.125C1.11475 8.24479 1.26839 8.30469 1.45068 8.30469ZM8.91162 8.30469C9.09391 8.30469 9.24495 8.24479 9.36475 8.125C9.48454 8.00521 9.54443 7.85156 9.54443 7.66406C9.54443 7.48698 9.48193 7.33854 9.35693 7.21875C9.23714 7.09375 9.0887 7.03125 8.91162 7.03125C8.73454 7.03125 8.5835 7.09375 8.4585 7.21875C8.3335 7.34375 8.271 7.49219 8.271 7.66406C8.271 7.84635 8.33089 8 8.45068 8.125C8.57568 8.24479 8.72933 8.30469 8.91162 8.30469ZM16.3413 8.30469C16.5236 8.30469 16.6746 8.24479 16.7944 8.125C16.9142 8.00521 16.9741 7.85156 16.9741 7.66406C16.9741 7.48698 16.9116 7.33854 16.7866 7.21875C16.6668 7.09375 16.5184 7.03125 16.3413 7.03125C16.1642 7.03125 16.0132 7.09375 15.8882 7.21875C15.7632 7.34375 15.7007 7.49219 15.7007 7.66406C15.7007 7.84635 15.7632 8 15.8882 8.125C16.0132 8.24479 16.1642 8.30469 16.3413 8.30469ZM5.17725 10.4688C5.35954 10.4688 5.51058 10.4089 5.63037 10.2891C5.75537 10.1641 5.81787 10.0104 5.81787 9.82812C5.81787 9.65104 5.75537 9.5 5.63037 9.375C5.50537 9.25 5.35433 9.1875 5.17725 9.1875C5.00537 9.1875 4.85433 9.2526 4.72412 9.38281C4.59912 9.50781 4.53662 9.65625 4.53662 9.82812C4.53662 10.0052 4.59912 10.1562 4.72412 10.2812C4.84912 10.4062 5.00016 10.4688 5.17725 10.4688ZM12.6382 10.4688C12.8205 10.4688 12.9715 10.4089 13.0913 10.2891C13.2163 10.1641 13.2788 10.0104 13.2788 9.82812C13.2788 9.65104 13.2163 9.5 13.0913 9.375C12.9663 9.25 12.8153 9.1875 12.6382 9.1875C12.4663 9.1875 12.3153 9.2526 12.1851 9.38281C12.0601 9.50781 11.9976 9.65625 11.9976 9.82812C11.9976 10.0052 12.0601 10.1562 12.1851 10.2812C12.3101 10.4062 12.4611 10.4688 12.6382 10.4688ZM1.45068 12.6328C1.63298 12.6328 1.78402 12.5729 1.90381 12.4531C2.0236 12.3333 2.0835 12.1823 2.0835 12C2.0835 11.8229 2.021 11.6719 1.896 11.5469C1.7762 11.4219 1.62777 11.3594 1.45068 11.3594C1.2736 11.3594 1.12256 11.4219 0.997559 11.5469C0.872559 11.6719 0.810059 11.8229 0.810059 12C0.810059 12.1771 0.869954 12.3281 0.989746 12.4531C1.11475 12.5729 1.26839 12.6328 1.45068 12.6328ZM8.91162 12.6328C9.09391 12.6328 9.24495 12.5729 9.36475 12.4531C9.48454 12.3333 9.54443 12.1823 9.54443 12C9.54443 11.8229 9.48193 11.6719 9.35693 11.5469C9.23714 11.4219 9.0887 11.3594 8.91162 11.3594C8.73454 11.3594 8.5835 11.4219 8.4585 11.5469C8.3335 11.6719 8.271 11.8229 8.271 12C8.271 12.1771 8.33089 12.3281 8.45068 12.4531C8.57568 12.5729 8.72933 12.6328 8.91162 12.6328ZM16.3413 12.6328C16.5236 12.6328 16.6746 12.5729 16.7944 12.4531C16.9142 12.3333 16.9741 12.1823 16.9741 12C16.9741 11.8177 16.9116 11.6667 16.7866 11.5469C16.6668 11.4219 16.5184 11.3594 16.3413 11.3594C16.1642 11.3594 16.0132 11.4245 15.8882 11.5547C15.7632 11.6797 15.7007 11.8281 15.7007 12C15.7007 12.1771 15.7632 12.3281 15.8882 12.4531C16.0132 12.5729 16.1642 12.6328 16.3413 12.6328ZM5.17725 14.8047C5.35954 14.8047 5.51058 14.7448 5.63037 14.625C5.75537 14.5052 5.81787 14.3542 5.81787 14.1719C5.81787 13.9948 5.75537 13.8438 5.63037 13.7188C5.50537 13.5938 5.35433 13.5312 5.17725 13.5312C5.00537 13.5312 4.85433 13.5938 4.72412 13.7188C4.59912 13.8438 4.53662 13.9948 4.53662 14.1719C4.53662 14.349 4.59912 14.5 4.72412 14.625C4.84912 14.7448 5.00016 14.8047 5.17725 14.8047ZM12.6382 14.8047C12.8205 14.8047 12.9715 14.7448 13.0913 14.625C13.2163 14.5052 13.2788 14.3542 13.2788 14.1719C13.2788 13.9948 13.2163 13.8438 13.0913 13.7188C12.9663 13.5938 12.8153 13.5312 12.6382 13.5312C12.4663 13.5312 12.3153 13.5938 12.1851 13.7188C12.0601 13.8438 11.9976 13.9948 11.9976 14.1719C11.9976 14.349 12.0601 14.5 12.1851 14.625C12.3101 14.7448 12.4611 14.8047 12.6382 14.8047ZM1.45068 16.9688C1.63298 16.9688 1.78402 16.9089 1.90381 16.7891C2.0236 16.6693 2.0835 16.5156 2.0835 16.3281C2.0835 16.151 2.021 16.0026 1.896 15.8828C1.7762 15.7578 1.62777 15.6953 1.45068 15.6953C1.2736 15.6953 1.12256 15.7578 0.997559 15.8828C0.872559 16.0078 0.810059 16.1562 0.810059 16.3281C0.810059 16.5104 0.869954 16.6641 0.989746 16.7891C1.11475 16.9089 1.26839 16.9688 1.45068 16.9688ZM8.91162 16.9688C9.09391 16.9688 9.24495 16.9089 9.36475 16.7891C9.48454 16.6693 9.54443 16.5156 9.54443 16.3281C9.54443 16.151 9.48193 16.0026 9.35693 15.8828C9.23714 15.7578 9.0887 15.6953 8.91162 15.6953C8.73454 15.6953 8.5835 15.7578 8.4585 15.8828C8.3335 16.0078 8.271 16.1562 8.271 16.3281C8.271 16.5104 8.33089 16.6641 8.45068 16.7891C8.57568 16.9089 8.72933 16.9688 8.91162 16.9688ZM16.3413 16.9688C16.5236 16.9688 16.6746 16.9089 16.7944 16.7891C16.9142 16.6693 16.9741 16.5156 16.9741 16.3281C16.9741 16.151 16.9116 16.0026 16.7866 15.8828C16.6668 15.7578 16.5184 15.6953 16.3413 15.6953C16.1642 15.6953 16.0132 15.7578 15.8882 15.8828C15.7632 16.0078 15.7007 16.1562 15.7007 16.3281C15.7007 16.5104 15.7632 16.6641 15.8882 16.7891C16.0132 16.9089 16.1642 16.9688 16.3413 16.9688ZM5.17725 19.1484C5.35954 19.1484 5.51058 19.0885 5.63037 18.9688C5.75537 18.849 5.81787 18.6979 5.81787 18.5156C5.81787 18.3333 5.75537 18.1797 5.63037 18.0547C5.50537 17.9349 5.35433 17.875 5.17725 17.875C5.00537 17.875 4.85433 17.9375 4.72412 18.0625C4.59912 18.1875 4.53662 18.3385 4.53662 18.5156C4.53662 18.6927 4.59912 18.8411 4.72412 18.9609C4.84912 19.0859 5.00016 19.1484 5.17725 19.1484ZM12.6382 19.1484C12.8205 19.1484 12.9715 19.0885 13.0913 18.9688C13.2163 18.849 13.2788 18.6979 13.2788 18.5156C13.2788 18.3333 13.2163 18.1797 13.0913 18.0547C12.9663 17.9349 12.8153 17.875 12.6382 17.875C12.4663 17.875 12.3153 17.9375 12.1851 18.0625C12.0601 18.1875 11.9976 18.3385 11.9976 18.5156C11.9976 18.6927 12.0601 18.8411 12.1851 18.9609C12.3101 19.0859 12.4611 19.1484 12.6382 19.1484ZM8.91162 21.3047C9.09391 21.3047 9.24495 21.2422 9.36475 21.1172C9.48454 20.9974 9.54443 20.8464 9.54443 20.6641C9.54443 20.487 9.48193 20.3359 9.35693 20.2109C9.23714 20.0859 9.0887 20.0234 8.91162 20.0234C8.73454 20.0234 8.5835 20.0859 8.4585 20.2109C8.3335 20.3411 8.271 20.4922 8.271 20.6641C8.271 20.8411 8.33089 20.9922 8.45068 21.1172C8.57568 21.2422 8.72933 21.3047 8.91162 21.3047Z"
		fill="currentColor"
	/>
</svg>
