<svg
	color="rgb(var(--foreground, 0, 0, 0))"
	viewBox="0 0 20 24"
	fill="none"
	xmlns="http://www.w3.org/2000/svg"
>
	<path
		d="M4.84241 19.3789H15.0143C15.6757 19.3789 16.2877 19.2617 16.8502 19.0273C17.4179 18.7982 17.9127 18.4753 18.3346 18.0586C18.7617 17.6471 19.0924 17.168 19.3268 16.6211C19.5664 16.069 19.6862 15.4753 19.6862 14.8398C19.6862 14.1992 19.5638 13.6055 19.319 13.0586C19.0742 12.5065 18.7304 12.0273 18.2877 11.6211C17.845 11.2148 17.3242 10.8997 16.7252 10.6758C16.1315 10.4466 15.4778 10.332 14.7643 10.332C14.2434 9.30078 13.5247 8.49089 12.608 7.90234C11.6966 7.30859 10.6627 7.01172 9.50647 7.01172C8.74605 7.01172 8.0273 7.14974 7.35022 7.42578C6.67314 7.69661 6.06637 8.07943 5.52991 8.57422C4.99866 9.06901 4.56637 9.64974 4.23303 10.3164C3.8997 10.9779 3.69918 11.6992 3.63147 12.4805C3.11064 12.6263 2.6523 12.8633 2.25647 13.1914C1.86584 13.5195 1.56116 13.9154 1.34241 14.3789C1.12366 14.8372 1.01428 15.3424 1.01428 15.8945C1.01428 16.5404 1.16272 17.1263 1.45959 17.6523C1.76168 18.1784 2.19657 18.5977 2.76428 18.9102C3.3372 19.2227 4.02991 19.3789 4.84241 19.3789ZM4.82678 18.1211C4.29553 18.1211 3.8372 18.0299 3.45178 17.8477C3.07157 17.6654 2.77991 17.4128 2.57678 17.0898C2.37366 16.7617 2.27209 16.3763 2.27209 15.9336C2.27209 15.3711 2.44397 14.8945 2.78772 14.5039C3.13668 14.1133 3.62626 13.8346 4.25647 13.668C4.47522 13.6107 4.63147 13.5273 4.72522 13.418C4.81897 13.3034 4.87366 13.1315 4.88928 12.9023C4.93616 12.2409 5.0872 11.6289 5.34241 11.0664C5.59762 10.5039 5.93355 10.0143 6.35022 9.59766C6.76689 9.17578 7.24345 8.85026 7.77991 8.62109C8.31637 8.38672 8.89189 8.26953 9.50647 8.26953C10.1315 8.26953 10.707 8.38151 11.233 8.60547C11.7643 8.82943 12.2382 9.15495 12.6549 9.58203C13.0716 10.0039 13.4257 10.5143 13.7174 11.1133C13.8059 11.306 13.9153 11.4414 14.0455 11.5195C14.1757 11.5924 14.3606 11.6289 14.6002 11.6289C15.4179 11.6289 16.1106 11.7773 16.6783 12.0742C17.2461 12.3659 17.6783 12.7591 17.9752 13.2539C18.2773 13.7435 18.4283 14.2826 18.4283 14.8711C18.4283 15.4805 18.2799 16.0299 17.983 16.5195C17.6914 17.0091 17.2929 17.3971 16.7877 17.6836C16.2877 17.9753 15.7252 18.1211 15.1002 18.1211H4.82678ZM1.99866 11.7305C2.30074 11.7305 2.55595 11.6263 2.76428 11.418C2.97782 11.2044 3.08459 10.944 3.08459 10.6367C3.08459 10.3346 2.97782 10.0794 2.76428 9.87109C2.55595 9.65755 2.30074 9.55078 1.99866 9.55078C1.69657 9.55078 1.43876 9.65755 1.22522 9.87109C1.01168 10.0794 0.904907 10.3346 0.904907 10.6367C0.904907 10.944 1.01168 11.2044 1.22522 11.418C1.43876 11.6263 1.69657 11.7305 1.99866 11.7305ZM13.4518 6.67578C13.733 6.67578 13.9726 6.57682 14.1705 6.37891C14.3737 6.17578 14.4752 5.93359 14.4752 5.65234C14.4752 5.37109 14.3737 5.12891 14.1705 4.92578C13.9726 4.72266 13.733 4.62109 13.4518 4.62109C13.1705 4.62109 12.9283 4.72266 12.7252 4.92578C12.5273 5.12891 12.4283 5.37109 12.4283 5.65234C12.4283 5.93359 12.5273 6.17578 12.7252 6.37891C12.9283 6.57682 13.1705 6.67578 13.4518 6.67578ZM16.7408 9.37891C17.1627 9.37891 17.5221 9.23047 17.819 8.93359C18.1158 8.63672 18.2643 8.27214 18.2643 7.83984C18.2643 7.41797 18.1158 7.05859 17.819 6.76172C17.5221 6.45964 17.1627 6.30859 16.7408 6.30859C16.3086 6.30859 15.9414 6.45964 15.6393 6.76172C15.3424 7.05859 15.194 7.41797 15.194 7.83984C15.194 8.27214 15.3424 8.63672 15.6393 8.93359C15.9414 9.23047 16.3086 9.37891 16.7408 9.37891ZM7.77991 16.6836C8.29032 16.6836 8.69137 16.5299 8.98303 16.2227C9.2747 15.9102 9.42834 15.5534 9.44397 15.1523C9.44918 15.0169 9.41272 14.9076 9.33459 14.8242C9.26168 14.7357 9.16532 14.6914 9.04553 14.6914C8.82678 14.6914 8.68616 14.8242 8.62366 15.0898C8.58199 15.2878 8.49605 15.4753 8.36584 15.6523C8.24084 15.8242 8.04553 15.9102 7.77991 15.9102C7.51949 15.9102 7.31376 15.8294 7.16272 15.668C7.01689 15.5013 6.91272 15.2878 6.85022 15.0273C6.78772 14.7669 6.75647 14.4857 6.75647 14.1836C6.75647 13.9023 6.78772 13.6315 6.85022 13.3711C6.91793 13.1107 7.0247 12.8997 7.17053 12.7383C7.31637 12.5716 7.51689 12.4883 7.77209 12.4883C8.03772 12.4883 8.23043 12.5742 8.35022 12.7461C8.47522 12.918 8.55855 13.1029 8.60022 13.3008C8.66272 13.5664 8.80334 13.6992 9.02209 13.6992C9.14189 13.6992 9.23824 13.6576 9.31116 13.5742C9.38928 13.4909 9.42574 13.3789 9.42053 13.2383C9.40491 12.8424 9.25126 12.4909 8.95959 12.1836C8.66793 11.8711 8.26689 11.7148 7.75647 11.7148C7.32939 11.7148 6.97782 11.8268 6.70178 12.0508C6.43095 12.2695 6.22782 12.5664 6.09241 12.9414C5.9622 13.3164 5.89709 13.7305 5.89709 14.1836C5.89709 14.6315 5.95959 15.0456 6.08459 15.4258C6.20959 15.8008 6.41012 16.1055 6.68616 16.3398C6.9622 16.569 7.32678 16.6836 7.77991 16.6836ZM11.5612 16.6836C12.1237 16.6836 12.5716 16.4596 12.9049 16.0117C13.2382 15.5638 13.4049 14.9596 13.4049 14.1992C13.4049 13.4388 13.2382 12.8346 12.9049 12.3867C12.5716 11.9388 12.1211 11.7148 11.5533 11.7148C10.9856 11.7148 10.5325 11.9388 10.194 12.3867C9.86064 12.8346 9.69397 13.4388 9.69397 14.1992C9.69397 14.9596 9.86064 15.5638 10.194 16.0117C10.5325 16.4596 10.9882 16.6836 11.5612 16.6836ZM11.5612 15.9102C11.2487 15.9102 11.0013 15.7591 10.819 15.457C10.6419 15.1549 10.5533 14.7357 10.5533 14.1992C10.5533 13.6576 10.6419 13.2383 10.819 12.9414C11.0013 12.6393 11.2461 12.4883 11.5533 12.4883C11.8606 12.4883 12.1028 12.6393 12.2799 12.9414C12.4622 13.2383 12.5533 13.6576 12.5533 14.1992C12.5533 14.7357 12.4622 15.1549 12.2799 15.457C12.1028 15.7591 11.8632 15.9102 11.5612 15.9102ZM13.9283 16.9961H15.194C15.2721 16.9961 15.3372 16.9674 15.3893 16.9102C15.4466 16.8477 15.4752 16.7773 15.4752 16.6992C15.4752 16.6263 15.4466 16.5612 15.3893 16.5039C15.332 16.4466 15.2669 16.418 15.194 16.418H14.5924L14.8424 16.1523C14.9987 16.0013 15.1263 15.8529 15.2252 15.707C15.3242 15.556 15.3737 15.4023 15.3737 15.2461C15.3737 15.0273 15.2929 14.8477 15.1315 14.707C14.97 14.5612 14.7643 14.4883 14.5143 14.4883C14.2487 14.4883 14.0377 14.569 13.8815 14.7305C13.7304 14.8919 13.6549 15.056 13.6549 15.2227C13.6549 15.3216 13.6836 15.3997 13.7408 15.457C13.8033 15.5091 13.8737 15.5352 13.9518 15.5352C14.0455 15.5352 14.1158 15.5091 14.1627 15.457C14.2148 15.4049 14.2513 15.3503 14.2721 15.293C14.319 15.1419 14.4023 15.0664 14.5221 15.0664C14.6575 15.0664 14.7252 15.1315 14.7252 15.2617C14.7252 15.3503 14.6888 15.444 14.6158 15.543C14.5429 15.6367 14.4648 15.7279 14.3815 15.8164L13.7799 16.4336C13.7018 16.5117 13.6627 16.6055 13.6627 16.7148C13.6627 16.793 13.6888 16.8607 13.7408 16.918C13.7929 16.9701 13.8554 16.9961 13.9283 16.9961Z"
		fill="currentColor"
	/>
</svg>
