<svg
	color="rgb(var(--foreground, 0, 0, 0))"
	viewBox="0 0 20 24"
	fill="none"
	xmlns="http://www.w3.org/2000/svg"
>
	<path
		d="M4.62366 19.3789H14.7955C15.457 19.3789 16.069 19.2617 16.6315 19.0273C17.1992 18.7982 17.694 18.4753 18.1158 18.0586C18.5429 17.6471 18.8737 17.168 19.108 16.6211C19.3476 16.069 19.4674 15.4753 19.4674 14.8398C19.4674 14.1992 19.345 13.6055 19.1002 13.0586C18.8554 12.5065 18.5117 12.0273 18.069 11.6211C17.6263 11.2148 17.1054 10.8997 16.5065 10.6758C15.9127 10.4466 15.2591 10.332 14.5455 10.332C14.0247 9.30078 13.3059 8.49089 12.3893 7.90234C11.4778 7.30859 10.444 7.01172 9.28772 7.01172C8.5273 7.01172 7.80855 7.14974 7.13147 7.42578C6.45439 7.69661 5.84762 8.07943 5.31116 8.57422C4.77991 9.06901 4.34762 9.64974 4.01428 10.3164C3.68095 10.9779 3.48043 11.6992 3.41272 12.4805C2.89189 12.6263 2.43355 12.8633 2.03772 13.1914C1.64709 13.5195 1.34241 13.9154 1.12366 14.3789C0.904907 14.8372 0.795532 15.3424 0.795532 15.8945C0.795532 16.5404 0.94397 17.1263 1.24084 17.6523C1.54293 18.1784 1.97782 18.5977 2.54553 18.9102C3.11845 19.2227 3.81116 19.3789 4.62366 19.3789ZM7.38928 16.7617C6.92574 16.7617 6.55074 16.6445 6.26428 16.4102C5.98303 16.1706 5.7773 15.8555 5.64709 15.4648C5.51689 15.069 5.45178 14.6419 5.45178 14.1836C5.45178 13.7201 5.51949 13.2956 5.65491 12.9102C5.79032 12.5195 5.99866 12.2096 6.27991 11.9805C6.56116 11.7513 6.92314 11.6367 7.36584 11.6367C7.89189 11.6367 8.30595 11.7956 8.60803 12.1133C8.91532 12.431 9.07418 12.7956 9.08459 13.207C9.0898 13.3529 9.05334 13.4701 8.97522 13.5586C8.89709 13.6419 8.79553 13.6836 8.67053 13.6836C8.44657 13.6836 8.30074 13.5456 8.23303 13.2695C8.19137 13.0664 8.10543 12.8789 7.97522 12.707C7.85022 12.5299 7.6523 12.4414 7.38147 12.4414C7.12105 12.4414 6.91532 12.5273 6.76428 12.6992C6.61324 12.8659 6.50387 13.082 6.43616 13.3477C6.37366 13.6133 6.34241 13.8919 6.34241 14.1836C6.34241 14.4909 6.37366 14.7799 6.43616 15.0508C6.50387 15.3216 6.61324 15.5404 6.76428 15.707C6.91532 15.8737 7.12366 15.957 7.38928 15.957C7.66012 15.957 7.86064 15.8685 7.99084 15.6914C8.12626 15.5143 8.2148 15.3242 8.25647 15.1211C8.32418 14.8451 8.47001 14.707 8.69397 14.707C8.81897 14.707 8.92053 14.7513 8.99866 14.8398C9.07678 14.9284 9.11324 15.043 9.10803 15.1836C9.09762 15.5951 8.93876 15.9622 8.63147 16.2852C8.32939 16.6029 7.91532 16.7617 7.38928 16.7617ZM11.3658 16.7617C10.7773 16.7617 10.3086 16.5299 9.95959 16.0664C9.61584 15.6029 9.44397 14.9805 9.44397 14.1992C9.44397 13.4128 9.61584 12.7904 9.95959 12.332C10.3086 11.8685 10.7747 11.6367 11.358 11.6367C11.9466 11.6367 12.4127 11.8685 12.7565 12.332C13.1002 12.7904 13.2721 13.4128 13.2721 14.1992C13.2721 14.9805 13.1002 15.6029 12.7565 16.0664C12.4127 16.5299 11.9492 16.7617 11.3658 16.7617ZM13.8893 17.0664C13.8112 17.0664 13.7461 17.0404 13.694 16.9883C13.6419 16.931 13.6158 16.8607 13.6158 16.7773C13.6158 16.6628 13.6549 16.5664 13.733 16.4883L14.358 15.8555C14.4414 15.7617 14.5195 15.6654 14.5924 15.5664C14.6705 15.4674 14.7096 15.3737 14.7096 15.2852C14.7096 15.1497 14.6393 15.082 14.4987 15.082C14.3789 15.082 14.2955 15.1602 14.2487 15.3164C14.2226 15.3737 14.1836 15.431 14.1315 15.4883C14.0846 15.5404 14.0117 15.5664 13.9127 15.5664C13.8346 15.5664 13.7643 15.5378 13.7018 15.4805C13.6393 15.418 13.608 15.3372 13.608 15.2383C13.608 15.0664 13.6862 14.8971 13.8424 14.7305C14.0039 14.5638 14.22 14.4805 14.4908 14.4805C14.7513 14.4805 14.9648 14.556 15.1315 14.707C15.2981 14.8529 15.3815 15.0404 15.3815 15.2695C15.3815 15.431 15.3294 15.5872 15.2252 15.7383C15.1263 15.8893 14.9961 16.043 14.8346 16.1992L14.5768 16.4727H15.194C15.2721 16.4727 15.3398 16.5039 15.3971 16.5664C15.4544 16.6237 15.483 16.6888 15.483 16.7617C15.483 16.8451 15.4544 16.918 15.3971 16.9805C15.3398 17.0378 15.2721 17.0664 15.194 17.0664H13.8893ZM11.3658 15.957C11.6836 15.957 11.9336 15.8034 12.1158 15.4961C12.2981 15.1836 12.3893 14.7513 12.3893 14.1992C12.3893 13.6419 12.2955 13.2096 12.108 12.9023C11.9257 12.5951 11.6757 12.4414 11.358 12.4414C11.0403 12.4414 10.7903 12.5951 10.608 12.9023C10.4257 13.2096 10.3346 13.6419 10.3346 14.1992C10.3346 14.7513 10.4257 15.1836 10.608 15.4961C10.7955 15.8034 11.0481 15.957 11.3658 15.957ZM1.77991 11.7305C2.08199 11.7305 2.3372 11.6263 2.54553 11.418C2.75907 11.2044 2.86584 10.944 2.86584 10.6367C2.86584 10.3346 2.75907 10.0794 2.54553 9.87109C2.3372 9.65755 2.08199 9.55078 1.77991 9.55078C1.47782 9.55078 1.22001 9.65755 1.00647 9.87109C0.792928 10.0794 0.686157 10.3346 0.686157 10.6367C0.686157 10.944 0.792928 11.2044 1.00647 11.418C1.22001 11.6263 1.47782 11.7305 1.77991 11.7305ZM13.233 6.67578C13.5143 6.67578 13.7539 6.57682 13.9518 6.37891C14.1549 6.17578 14.2565 5.93359 14.2565 5.65234C14.2565 5.37109 14.1549 5.12891 13.9518 4.92578C13.7539 4.72266 13.5143 4.62109 13.233 4.62109C12.9518 4.62109 12.7096 4.72266 12.5065 4.92578C12.3086 5.12891 12.2096 5.37109 12.2096 5.65234C12.2096 5.93359 12.3086 6.17578 12.5065 6.37891C12.7096 6.57682 12.9518 6.67578 13.233 6.67578ZM16.5221 9.37891C16.944 9.37891 17.3033 9.23047 17.6002 8.93359C17.8971 8.63672 18.0455 8.27214 18.0455 7.83984C18.0455 7.41797 17.8971 7.05859 17.6002 6.76172C17.3033 6.45964 16.944 6.30859 16.5221 6.30859C16.0898 6.30859 15.7226 6.45964 15.4205 6.76172C15.1237 7.05859 14.9752 7.41797 14.9752 7.83984C14.9752 8.27214 15.1237 8.63672 15.4205 8.93359C15.7226 9.23047 16.0898 9.37891 16.5221 9.37891Z"
		fill="currentColor"
	/>
</svg>
