<svg
	color="rgb(var(--foreground, 0, 0, 0))"
	viewBox="0 0 20 24"
	fill="none"
	xmlns="http://www.w3.org/2000/svg"
>
	<path
		d="M4.27991 19.3789H14.4518C15.1132 19.3789 15.7252 19.2617 16.2877 19.0273C16.8554 18.7982 17.3502 18.4753 17.7721 18.0586C18.1992 17.6471 18.5299 17.168 18.7643 16.6211C19.0039 16.069 19.1237 15.4753 19.1237 14.8398C19.1237 14.1992 19.0013 13.6055 18.7565 13.0586C18.5117 12.5065 18.1679 12.0273 17.7252 11.6211C17.2825 11.2148 16.7617 10.8997 16.1627 10.6758C15.569 10.4466 14.9153 10.332 14.2018 10.332C13.6809 9.30078 12.9622 8.49089 12.0455 7.90234C11.1341 7.30859 10.1002 7.01172 8.94397 7.01172C8.18355 7.01172 7.4648 7.14974 6.78772 7.42578C6.11063 7.69661 5.50387 8.07943 4.96741 8.57422C4.43616 9.06901 4.00387 9.64974 3.67053 10.3164C3.3372 10.9779 3.13668 11.6992 3.06897 12.4805C2.54814 12.6263 2.0898 12.8633 1.69397 13.1914C1.30334 13.5195 0.998657 13.9154 0.779907 14.3789C0.561157 14.8372 0.451782 15.3424 0.451782 15.8945C0.451782 16.5404 0.60022 17.1263 0.897095 17.6523C1.19918 18.1784 1.63407 18.5977 2.20178 18.9102C2.7747 19.2227 3.46741 19.3789 4.27991 19.3789ZM4.26428 18.1211C3.73303 18.1211 3.2747 18.0299 2.88928 17.8477C2.50907 17.6654 2.21741 17.4128 2.01428 17.0898C1.81116 16.7617 1.70959 16.3763 1.70959 15.9336C1.70959 15.3711 1.88147 14.8945 2.22522 14.5039C2.57418 14.1133 3.06376 13.8346 3.69397 13.668C3.91272 13.6107 4.06897 13.5273 4.16272 13.418C4.25647 13.3034 4.31116 13.1315 4.32678 12.9023C4.37366 12.2409 4.5247 11.6289 4.77991 11.0664C5.03512 10.5039 5.37105 10.0143 5.78772 9.59766C6.20439 9.17578 6.68095 8.85026 7.21741 8.62109C7.75386 8.38672 8.32938 8.26953 8.94397 8.26953C9.56897 8.26953 10.1445 8.38151 10.6705 8.60547C11.2018 8.82943 11.6757 9.15495 12.0924 9.58203C12.5091 10.0039 12.8632 10.5143 13.1549 11.1133C13.2434 11.306 13.3528 11.4414 13.483 11.5195C13.6132 11.5924 13.7981 11.6289 14.0377 11.6289C14.8554 11.6289 15.5481 11.7773 16.1158 12.0742C16.6836 12.3659 17.1158 12.7591 17.4127 13.2539C17.7148 13.7435 17.8658 14.2826 17.8658 14.8711C17.8658 15.4805 17.7174 16.0299 17.4205 16.5195C17.1289 17.0091 16.7304 17.3971 16.2252 17.6836C15.7252 17.9753 15.1627 18.1211 14.5377 18.1211H4.26428ZM1.43616 11.7305C1.73824 11.7305 1.99345 11.6263 2.20178 11.418C2.41532 11.2044 2.52209 10.944 2.52209 10.6367C2.52209 10.3346 2.41532 10.0794 2.20178 9.87109C1.99345 9.65755 1.73824 9.55078 1.43616 9.55078C1.13407 9.55078 0.876261 9.65755 0.66272 9.87109C0.449178 10.0794 0.342407 10.3346 0.342407 10.6367C0.342407 10.944 0.449178 11.2044 0.66272 11.418C0.876261 11.6263 1.13407 11.7305 1.43616 11.7305ZM12.8893 6.67578C13.1705 6.67578 13.4101 6.57682 13.608 6.37891C13.8112 6.17578 13.9127 5.93359 13.9127 5.65234C13.9127 5.37109 13.8112 5.12891 13.608 4.92578C13.4101 4.72266 13.1705 4.62109 12.8893 4.62109C12.608 4.62109 12.3658 4.72266 12.1627 4.92578C11.9648 5.12891 11.8658 5.37109 11.8658 5.65234C11.8658 5.93359 11.9648 6.17578 12.1627 6.37891C12.3658 6.57682 12.608 6.67578 12.8893 6.67578ZM16.1783 9.37891C16.6002 9.37891 16.9596 9.23047 17.2565 8.93359C17.5533 8.63672 17.7018 8.27214 17.7018 7.83984C17.7018 7.41797 17.5533 7.05859 17.2565 6.76172C16.9596 6.45964 16.6002 6.30859 16.1783 6.30859C15.7461 6.30859 15.3789 6.45964 15.0768 6.76172C14.7799 7.05859 14.6315 7.41797 14.6315 7.83984C14.6315 8.27214 14.7799 8.63672 15.0768 8.93359C15.3789 9.23047 15.7461 9.37891 16.1783 9.37891ZM7.73303 16.6836C8.24345 16.6836 8.64449 16.5299 8.93616 16.2227C9.23303 15.9102 9.38928 15.5534 9.40491 15.1523C9.41011 15.0169 9.37366 14.9076 9.29553 14.8242C9.22261 14.7357 9.12366 14.6914 8.99866 14.6914C8.77991 14.6914 8.64188 14.8242 8.58459 15.0898C8.53772 15.2878 8.44918 15.4753 8.31897 15.6523C8.19397 15.8242 7.99866 15.9102 7.73303 15.9102C7.47782 15.9102 7.2747 15.8294 7.12366 15.668C6.97782 15.5013 6.87366 15.2878 6.81116 15.0273C6.74866 14.7669 6.71741 14.4857 6.71741 14.1836C6.71741 13.9023 6.74866 13.6315 6.81116 13.3711C6.87366 13.1107 6.97782 12.8997 7.12366 12.7383C7.2747 12.5716 7.47522 12.4883 7.72522 12.4883C7.99084 12.4883 8.18355 12.5742 8.30334 12.7461C8.42834 12.918 8.51428 13.1029 8.56116 13.3008C8.61845 13.5664 8.75647 13.6992 8.97522 13.6992C9.10022 13.6992 9.19918 13.6576 9.27209 13.5742C9.35022 13.4909 9.38668 13.3789 9.38147 13.2383C9.36584 12.8424 9.20959 12.4909 8.91272 12.1836C8.62105 11.8711 8.22001 11.7148 7.70959 11.7148C7.28251 11.7148 6.93095 11.8268 6.65491 12.0508C6.38407 12.2695 6.18355 12.5664 6.05334 12.9414C5.92314 13.3164 5.85803 13.7305 5.85803 14.1836C5.85803 14.6315 5.92053 15.0456 6.04553 15.4258C6.17053 15.8008 6.37105 16.1055 6.64709 16.3398C6.92314 16.569 7.28511 16.6836 7.73303 16.6836ZM11.5143 16.6836C12.082 16.6836 12.5325 16.4596 12.8658 16.0117C13.1992 15.5638 13.3658 14.9596 13.3658 14.1992C13.3658 13.4388 13.1992 12.8346 12.8658 12.3867C12.5325 11.9388 12.082 11.7148 11.5143 11.7148C10.9414 11.7148 10.4856 11.9388 10.1471 12.3867C9.81376 12.8346 9.64709 13.4388 9.64709 14.1992C9.64709 14.9596 9.81376 15.5638 10.1471 16.0117C10.4856 16.4596 10.9414 16.6836 11.5143 16.6836ZM11.5143 15.9102C11.207 15.9102 10.9622 15.7591 10.7799 15.457C10.6028 15.1549 10.5143 14.7357 10.5143 14.1992C10.5143 13.6576 10.6028 13.2383 10.7799 12.9414C10.9622 12.6393 11.207 12.4883 11.5143 12.4883C11.8216 12.4883 12.0638 12.6393 12.2408 12.9414C12.4179 13.2383 12.5065 13.6576 12.5065 14.1992C12.5065 14.7357 12.4179 15.1549 12.2408 15.457C12.0638 15.7591 11.8216 15.9102 11.5143 15.9102Z"
		fill="currentColor"
	/>
</svg>
