<svg
	color="rgb(var(--foreground, 0, 0, 0))"
	viewBox="0 0 19 24"
	fill="none"
	xmlns="http://www.w3.org/2000/svg"
>
	<path
		d="M4.06116 19.3789H14.233C14.8945 19.3789 15.5065 19.2617 16.069 19.0273C16.6367 18.7982 17.1315 18.4753 17.5533 18.0586C17.9804 17.6471 18.3112 17.168 18.5455 16.6211C18.7851 16.069 18.9049 15.4753 18.9049 14.8398C18.9049 14.1992 18.7825 13.6055 18.5377 13.0586C18.2929 12.5065 17.9492 12.0273 17.5065 11.6211C17.0638 11.2148 16.5429 10.8997 15.944 10.6758C15.3502 10.4466 14.6966 10.332 13.983 10.332C13.4622 9.30078 12.7435 8.49089 11.8268 7.90234C10.9153 7.30859 9.88147 7.01172 8.72522 7.01172C7.9648 7.01172 7.24605 7.14974 6.56897 7.42578C5.89189 7.69661 5.28512 8.07943 4.74866 8.57422C4.21741 9.06901 3.78512 9.64974 3.45178 10.3164C3.11845 10.9779 2.91793 11.6992 2.85022 12.4805C2.32939 12.6263 1.87105 12.8633 1.47522 13.1914C1.08459 13.5195 0.779907 13.9154 0.561157 14.3789C0.342407 14.8372 0.233032 15.3424 0.233032 15.8945C0.233032 16.5404 0.38147 17.1263 0.678345 17.6523C0.980428 18.1784 1.41532 18.5977 1.98303 18.9102C2.55595 19.2227 3.24866 19.3789 4.06116 19.3789ZM7.44397 16.7617C6.98043 16.7617 6.60543 16.6445 6.31897 16.4102C6.03772 16.1706 5.83199 15.8555 5.70178 15.4648C5.57157 15.069 5.50647 14.6419 5.50647 14.1836C5.50647 13.7201 5.57418 13.2956 5.70959 12.9102C5.84501 12.5195 6.05334 12.2096 6.33459 11.9805C6.62105 11.7513 6.98303 11.6367 7.42053 11.6367C7.94657 11.6367 8.36064 11.7956 8.66272 12.1133C8.97001 12.431 9.13147 12.7956 9.14709 13.207C9.14709 13.3529 9.10803 13.4701 9.02991 13.5586C8.95178 13.6419 8.85022 13.6836 8.72522 13.6836C8.50126 13.6836 8.35543 13.5456 8.28772 13.2695C8.24605 13.0664 8.16012 12.8789 8.02991 12.707C7.90491 12.5299 7.70699 12.4414 7.43616 12.4414C7.18095 12.4414 6.97782 12.5273 6.82678 12.6992C6.67574 12.8659 6.56637 13.082 6.49866 13.3477C6.43095 13.6133 6.39709 13.8919 6.39709 14.1836C6.39709 14.4909 6.42834 14.7799 6.49084 15.0508C6.55855 15.3216 6.66793 15.5404 6.81897 15.707C6.97001 15.8737 7.17834 15.957 7.44397 15.957C7.7148 15.957 7.91532 15.8685 8.04553 15.6914C8.18095 15.5143 8.26949 15.3242 8.31116 15.1211C8.37887 14.8451 8.5247 14.707 8.74866 14.707C8.87366 14.707 8.97522 14.7513 9.05334 14.8398C9.13147 14.9284 9.17053 15.043 9.17053 15.1836C9.15491 15.5951 8.99345 15.9622 8.68616 16.2852C8.38407 16.6029 7.97001 16.7617 7.44397 16.7617ZM11.4205 16.7617C10.832 16.7617 10.3632 16.5299 10.0143 16.0664C9.67053 15.6029 9.49866 14.9805 9.49866 14.1992C9.49866 13.4128 9.67053 12.7904 10.0143 12.332C10.3632 11.8685 10.832 11.6367 11.4205 11.6367C12.0039 11.6367 12.4674 11.8685 12.8112 12.332C13.1601 12.7904 13.3346 13.4128 13.3346 14.1992C13.3346 14.9805 13.1627 15.6029 12.819 16.0664C12.4752 16.5299 12.0091 16.7617 11.4205 16.7617ZM11.4205 15.957C11.7382 15.957 11.9882 15.8034 12.1705 15.4961C12.3528 15.1836 12.444 14.7513 12.444 14.1992C12.444 13.6419 12.3528 13.2096 12.1705 12.9023C11.9882 12.5951 11.7382 12.4414 11.4205 12.4414C11.1028 12.4414 10.8502 12.5951 10.6627 12.9023C10.4804 13.2096 10.3893 13.6419 10.3893 14.1992C10.3893 14.7513 10.4804 15.1836 10.6627 15.4961C10.8502 15.8034 11.1028 15.957 11.4205 15.957ZM1.21741 11.7305C1.51949 11.7305 1.7747 11.6263 1.98303 11.418C2.19657 11.2044 2.30334 10.944 2.30334 10.6367C2.30334 10.3346 2.19657 10.0794 1.98303 9.87109C1.7747 9.65755 1.51949 9.55078 1.21741 9.55078C0.915324 9.55078 0.657511 9.65755 0.44397 9.87109C0.230428 10.0794 0.123657 10.3346 0.123657 10.6367C0.123657 10.944 0.230428 11.2044 0.44397 11.418C0.657511 11.6263 0.915324 11.7305 1.21741 11.7305ZM12.6705 6.67578C12.9518 6.67578 13.1914 6.57682 13.3893 6.37891C13.5924 6.17578 13.694 5.93359 13.694 5.65234C13.694 5.37109 13.5924 5.12891 13.3893 4.92578C13.1914 4.72266 12.9518 4.62109 12.6705 4.62109C12.3893 4.62109 12.1471 4.72266 11.944 4.92578C11.7461 5.12891 11.6471 5.37109 11.6471 5.65234C11.6471 5.93359 11.7461 6.17578 11.944 6.37891C12.1471 6.57682 12.3893 6.67578 12.6705 6.67578ZM15.9596 9.37891C16.3815 9.37891 16.7408 9.23047 17.0377 8.93359C17.3346 8.63672 17.483 8.27214 17.483 7.83984C17.483 7.41797 17.3346 7.05859 17.0377 6.76172C16.7408 6.45964 16.3815 6.30859 15.9596 6.30859C15.5273 6.30859 15.1601 6.45964 14.858 6.76172C14.5612 7.05859 14.4127 7.41797 14.4127 7.83984C14.4127 8.27214 14.5612 8.63672 14.858 8.93359C15.1601 9.23047 15.5273 9.37891 15.9596 9.37891Z"
		fill="currentColor"
	/>
</svg>
