<svg
	color="rgb(var(--foreground, 0, 0, 0))"
	viewBox="0 0 21 24"
	fill="none"
	xmlns="http://www.w3.org/2000/svg"
>
	<path
		d="M3.62512 15.6997H12.0782C12.8335 15.6997 13.5131 15.5278 14.1173 15.1841C14.7215 14.8351 15.2006 14.3664 15.5548 13.7778C15.9142 13.1893 16.0939 12.5278 16.0939 11.7935C16.0939 11.0643 15.9116 10.4107 15.547 9.83253C15.1876 9.2492 14.698 8.78826 14.0782 8.44972C13.4585 8.11118 12.7579 7.9341 11.9767 7.91847C11.5184 7.06431 10.8986 6.39243 10.1173 5.90285C9.34127 5.40805 8.46887 5.16066 7.50012 5.16066C6.85429 5.16066 6.24231 5.27785 5.66418 5.51222C5.09127 5.74139 4.57825 6.06431 4.12512 6.48097C3.672 6.89243 3.30221 7.37681 3.01575 7.9341C2.7345 8.48618 2.56002 9.08253 2.49231 9.72316C1.84127 9.92628 1.31523 10.2935 0.914185 10.8247C0.513143 11.3508 0.312622 11.968 0.312622 12.6763C0.312622 13.2648 0.450643 13.7883 0.726685 14.2466C1.00273 14.6997 1.38814 15.0565 1.88293 15.3169C2.38293 15.5721 2.96366 15.6997 3.62512 15.6997ZM3.59387 14.4497C3.15116 14.4497 2.77877 14.3742 2.47668 14.2232C2.1746 14.0669 1.94543 13.8586 1.78918 13.5982C1.63814 13.3325 1.56262 13.0357 1.56262 12.7075C1.56262 12.2961 1.69023 11.9211 1.94543 11.5825C2.20064 11.244 2.61731 10.9992 3.19543 10.8482C3.38293 10.7961 3.51575 10.7206 3.59387 10.6216C3.67721 10.5226 3.72668 10.3768 3.74231 10.1841C3.78918 9.63201 3.91679 9.12681 4.12512 8.66847C4.33866 8.21014 4.61471 7.8117 4.95325 7.47316C5.297 7.13462 5.68502 6.8742 6.11731 6.69191C6.55481 6.50441 7.01575 6.41066 7.50012 6.41066C8.00533 6.41066 8.47148 6.50181 8.89856 6.6841C9.32564 6.86118 9.70846 7.1216 10.047 7.46535C10.3855 7.80389 10.6772 8.21795 10.922 8.70753C11.0053 8.8742 11.1017 8.99139 11.2111 9.0591C11.3256 9.1216 11.4819 9.15285 11.6798 9.15285C12.3517 9.15285 12.922 9.27524 13.3907 9.52003C13.8647 9.76483 14.2241 10.0903 14.4689 10.4966C14.7137 10.8976 14.8361 11.3403 14.8361 11.8247C14.8361 12.3091 14.7163 12.7518 14.4767 13.1528C14.2371 13.5487 13.909 13.8638 13.4923 14.0982C13.0809 14.3325 12.6173 14.4497 12.1017 14.4497H3.59387ZM15.4064 11.7153C15.9897 11.7518 16.5288 11.7232 17.0236 11.6294C17.5184 11.5357 17.9663 11.395 18.3673 11.2075C18.7736 11.0148 19.1303 10.7883 19.4376 10.5278C19.7501 10.2622 20.0157 9.97576 20.2345 9.66847C20.4585 9.35597 20.6329 9.03566 20.7579 8.70753C20.8881 8.39503 20.8829 8.11899 20.7423 7.87941C20.6017 7.63462 20.3777 7.51222 20.0704 7.51222C19.8361 7.51222 19.6017 7.54608 19.3673 7.61378C19.1329 7.68149 18.8074 7.71535 18.3907 7.71535C17.7241 7.71535 17.1642 7.59816 16.7111 7.36378C16.2631 7.12941 15.922 6.79608 15.6876 6.36378C15.4585 5.92628 15.3439 5.40545 15.3439 4.80128C15.3439 4.50441 15.3673 4.2492 15.4142 4.03566C15.4611 3.81691 15.5053 3.62681 15.547 3.46535C15.5939 3.29868 15.6173 3.14243 15.6173 2.9966C15.6173 2.67368 15.4949 2.44191 15.2501 2.30128C15.0105 2.16066 14.7189 2.15024 14.3751 2.27003C13.9637 2.40545 13.573 2.61378 13.2032 2.89503C12.8335 3.17108 12.5079 3.50701 12.2267 3.90285C11.9454 4.29347 11.7215 4.73097 11.5548 5.21535C11.3934 5.69451 11.3126 6.20233 11.3126 6.73878C11.3126 7.08774 11.3439 7.42889 11.4064 7.76222C11.4689 8.09556 11.5626 8.41587 11.6876 8.72316L12.9845 8.69972C12.6355 8.1216 12.4611 7.46014 12.4611 6.71535C12.4611 6.33514 12.5105 5.98097 12.6095 5.65285C12.7137 5.31951 12.8543 5.01483 13.0314 4.73878C13.2137 4.45753 13.4194 4.21014 13.6486 3.9966C13.8829 3.78306 14.1277 3.60597 14.3829 3.46535L14.4689 3.52785C14.4064 3.71535 14.3491 3.9393 14.297 4.19972C14.2449 4.45493 14.2189 4.73358 14.2189 5.03566C14.2189 5.78045 14.3855 6.43931 14.7189 7.01222C15.0574 7.57993 15.521 8.02524 16.1095 8.34816C16.698 8.66587 17.3699 8.82472 18.1251 8.82472C18.4012 8.82472 18.6616 8.80389 18.9064 8.76222C19.1564 8.71535 19.3725 8.66326 19.5548 8.60597L19.6095 8.66066C19.4793 8.91066 19.2918 9.15806 19.047 9.40285C18.8074 9.64243 18.5131 9.85858 18.1642 10.0513C17.8152 10.244 17.409 10.3898 16.9454 10.4888C16.4871 10.5877 15.9741 10.6164 15.4064 10.5747V11.7153ZM3.49231 19.3638L4.50793 17.606C4.58085 17.4862 4.59908 17.3664 4.56262 17.2466C4.53137 17.1216 4.45846 17.0252 4.34387 16.9575C4.22408 16.8898 4.10429 16.8742 3.9845 16.9107C3.86471 16.9419 3.76835 17.0174 3.69543 17.1372L2.672 18.9107C2.60429 19.0252 2.58606 19.1424 2.61731 19.2622C2.64856 19.382 2.72408 19.4784 2.84387 19.5513C2.96366 19.6138 3.08346 19.6268 3.20325 19.5903C3.32825 19.5591 3.4246 19.4836 3.49231 19.3638ZM5.93762 21.5669L6.95325 19.8013C7.02616 19.6867 7.04439 19.5669 7.00793 19.4419C6.97668 19.3169 6.90377 19.2206 6.78918 19.1528C6.66939 19.0851 6.5496 19.0669 6.42981 19.0982C6.31002 19.1346 6.21366 19.2127 6.14075 19.3325L5.11731 21.1138C5.0496 21.2232 5.03137 21.3377 5.06262 21.4575C5.09387 21.5825 5.16939 21.6789 5.28918 21.7466C5.40898 21.8143 5.52877 21.8299 5.64856 21.7935C5.77356 21.757 5.86991 21.6815 5.93762 21.5669ZM9.71106 19.356L10.7267 17.5982C10.7944 17.4784 10.8126 17.3586 10.7814 17.2388C10.7501 17.1138 10.6746 17.0174 10.5548 16.9497C10.4402 16.882 10.3204 16.8664 10.1954 16.9028C10.0756 16.9341 9.98189 17.0096 9.91418 17.1294L8.89075 18.9028C8.82304 19.0174 8.80481 19.1346 8.83606 19.2544C8.86731 19.3742 8.94283 19.4706 9.06262 19.5435C9.17721 19.606 9.297 19.619 9.422 19.5825C9.547 19.5513 9.64335 19.4758 9.71106 19.356ZM12.1486 21.5591L13.172 19.7935C13.2397 19.6789 13.2579 19.5591 13.2267 19.4341C13.1954 19.3091 13.1199 19.2127 13.0001 19.145C12.8803 19.0773 12.7605 19.0591 12.6407 19.0903C12.521 19.1268 12.4246 19.2049 12.3517 19.3247L11.3282 21.106C11.2657 21.2153 11.2501 21.3299 11.2814 21.4497C11.3126 21.5747 11.3881 21.6711 11.5079 21.7388C11.6225 21.8065 11.7423 21.8221 11.8673 21.7857C11.9923 21.7492 12.0861 21.6737 12.1486 21.5591Z"
		fill="currentColor"
	/>
</svg>
