<svg
	color="rgb(var(--foreground, 0, 0, 0))"
	viewBox="0 0 19 24"
	fill="none"
	xmlns="http://www.w3.org/2000/svg"
>
	<path
		d="M4.04688 14.2383H13.7422C14.3828 14.2383 14.974 14.1263 15.5156 13.9023C16.0625 13.6784 16.5365 13.3659 16.9375 12.9648C17.3438 12.5638 17.6562 12.1003 17.875 11.5742C18.099 11.0482 18.2109 10.4857 18.2109 9.88672C18.2109 9.26172 18.0911 8.6888 17.8516 8.16797C17.6172 7.64193 17.2865 7.1862 16.8594 6.80078C16.4375 6.41016 15.9427 6.10807 15.375 5.89453C14.8073 5.68099 14.1927 5.57422 13.5312 5.57422C13.2083 4.93359 12.7943 4.3763 12.2891 3.90234C11.7891 3.42318 11.2188 3.05339 10.5781 2.79297C9.9375 2.53255 9.23958 2.40234 8.48438 2.40234C7.75 2.40234 7.05729 2.53776 6.40625 2.80859C5.76042 3.07422 5.18229 3.44401 4.67188 3.91797C4.16146 4.39193 3.7474 4.94401 3.42969 5.57422C3.11719 6.20443 2.92969 6.88151 2.86719 7.60547C2.39323 7.74089 1.96875 7.96484 1.59375 8.27734C1.21875 8.58464 0.921875 8.95964 0.703125 9.40234C0.484375 9.84505 0.375 10.3424 0.375 10.8945C0.375 11.5091 0.518229 12.0716 0.804688 12.582C1.09635 13.0872 1.51562 13.4909 2.0625 13.793C2.60938 14.0898 3.27083 14.2383 4.04688 14.2383ZM4.03125 12.9883C3.49479 12.9883 3.04948 12.8971 2.69531 12.7148C2.34115 12.5326 2.07292 12.2878 1.89062 11.9805C1.71354 11.668 1.625 11.319 1.625 10.9336C1.625 10.4648 1.77083 10.0378 2.0625 9.65234C2.35417 9.26172 2.83333 8.97786 3.5 8.80078C3.71875 8.74349 3.8724 8.65755 3.96094 8.54297C4.04948 8.42839 4.10417 8.26172 4.125 8.04297C4.16667 7.40234 4.3099 6.81641 4.55469 6.28516C4.80469 5.7487 5.1276 5.28516 5.52344 4.89453C5.91927 4.4987 6.36979 4.19401 6.875 3.98047C7.38542 3.76172 7.92188 3.65234 8.48438 3.65234C9.36458 3.65234 10.1432 3.88672 10.8203 4.35547C11.4974 4.81901 12.0469 5.48307 12.4688 6.34766C12.5573 6.54036 12.6667 6.67578 12.7969 6.75391C12.9271 6.82682 13.1094 6.86328 13.3438 6.86328C14.1146 6.86328 14.7682 7.00391 15.3047 7.28516C15.8464 7.5612 16.2578 7.93099 16.5391 8.39453C16.8203 8.85807 16.9609 9.36589 16.9609 9.91797C16.9609 10.4857 16.8229 11.0013 16.5469 11.4648C16.2708 11.9284 15.8958 12.2982 15.4219 12.5742C14.9479 12.8503 14.4141 12.9883 13.8203 12.9883H4.03125ZM5.05469 17.0508L5.57812 16.1289C5.64583 16.0143 5.66406 15.8945 5.63281 15.7695C5.60156 15.6445 5.52865 15.5456 5.41406 15.4727C5.29427 15.4049 5.17188 15.3893 5.04688 15.4258C4.92708 15.4622 4.83333 15.5378 4.76562 15.6523L4.23438 16.5977C4.17188 16.707 4.15365 16.8242 4.17969 16.9492C4.21094 17.069 4.28646 17.1628 4.40625 17.2305C4.52604 17.2982 4.64583 17.3138 4.76562 17.2773C4.89062 17.2409 4.98698 17.1654 5.05469 17.0508ZM8.46094 18.2461L9.67969 16.1367C9.7474 16.0169 9.76562 15.8971 9.73438 15.7773C9.70312 15.6523 9.63021 15.556 9.51562 15.4883C9.39583 15.4206 9.27344 15.4049 9.14844 15.4414C9.02865 15.4727 8.9349 15.5482 8.86719 15.668L7.64062 17.793C7.57812 17.9023 7.5625 18.0169 7.59375 18.1367C7.625 18.2617 7.70052 18.3581 7.82031 18.4258C7.9349 18.4935 8.05469 18.5091 8.17969 18.4727C8.30469 18.4362 8.39844 18.3607 8.46094 18.2461ZM13.2422 17.082L13.7656 16.1602C13.8333 16.0404 13.8516 15.9206 13.8203 15.8008C13.7891 15.6758 13.7161 15.5768 13.6016 15.5039C13.4818 15.4362 13.3594 15.4206 13.2344 15.457C13.1146 15.4935 13.0208 15.569 12.9531 15.6836L12.4219 16.6289C12.3594 16.7383 12.3411 16.8555 12.3672 16.9805C12.3984 17.1003 12.474 17.194 12.5938 17.2617C12.7083 17.3242 12.8281 17.3372 12.9531 17.3008C13.0781 17.2695 13.1745 17.1966 13.2422 17.082ZM3.60938 20.4023C3.68229 20.4023 3.73958 20.3737 3.78125 20.3164C3.82812 20.2643 3.84896 20.2018 3.84375 20.1289L3.78906 19.3789L4.41406 19.8008C4.47135 19.8424 4.53646 19.8555 4.60938 19.8398C4.68229 19.8242 4.73698 19.7878 4.77344 19.7305C4.8151 19.6732 4.82552 19.6055 4.80469 19.5273C4.78385 19.4544 4.73438 19.3997 4.65625 19.3633L3.98438 19.0352L4.66406 18.6992C4.73698 18.668 4.78125 18.6159 4.79688 18.543C4.81771 18.4701 4.8125 18.4023 4.78125 18.3398C4.75 18.2773 4.69531 18.2409 4.61719 18.2305C4.53906 18.2201 4.47135 18.2331 4.41406 18.2695L3.78906 18.6992L3.85156 17.9492C3.85677 17.8711 3.83594 17.806 3.78906 17.7539C3.74219 17.7018 3.68229 17.6758 3.60938 17.6758C3.52604 17.6758 3.46094 17.7018 3.41406 17.7539C3.3724 17.806 3.35156 17.8711 3.35156 17.9492L3.40625 18.6992L2.77344 18.2695C2.72135 18.2331 2.65885 18.2201 2.58594 18.2305C2.51302 18.2409 2.45833 18.2773 2.42188 18.3398C2.38542 18.4023 2.375 18.4674 2.39062 18.5352C2.41146 18.6081 2.45833 18.6628 2.53125 18.6992L3.20312 19.0352L2.53125 19.3633C2.45833 19.3997 2.41146 19.4544 2.39062 19.5273C2.36979 19.6003 2.3776 19.668 2.41406 19.7305C2.44531 19.793 2.5 19.8294 2.57812 19.8398C2.65625 19.8555 2.72135 19.8451 2.77344 19.8086L3.40625 19.3867L3.35938 20.1289C3.35938 20.2018 3.38021 20.2643 3.42188 20.3164C3.46354 20.3737 3.52604 20.4023 3.60938 20.4023ZM7.33594 21.5977C7.40885 21.5977 7.46615 21.569 7.50781 21.5117C7.55469 21.4596 7.57552 21.3971 7.57031 21.3242L7.52344 20.582L8.14062 20.9961C8.19792 21.0378 8.26302 21.0508 8.33594 21.0352C8.40885 21.0247 8.46615 20.9883 8.50781 20.9258C8.54427 20.8685 8.55208 20.8008 8.53125 20.7227C8.51042 20.6497 8.46354 20.5951 8.39062 20.5586L7.71875 20.2383L8.39844 19.9023C8.46615 19.8659 8.51042 19.8112 8.53125 19.7383C8.55208 19.6654 8.54688 19.5977 8.51562 19.5352C8.47917 19.4727 8.42188 19.4362 8.34375 19.4258C8.26562 19.4154 8.19792 19.4284 8.14062 19.4648L7.52344 19.9023L7.57812 19.1445C7.58854 19.0716 7.56771 19.0065 7.51562 18.9492C7.46875 18.8971 7.40885 18.8711 7.33594 18.8711C7.25781 18.8711 7.19531 18.8971 7.14844 18.9492C7.10156 19.0065 7.08073 19.0716 7.08594 19.1445L7.13281 19.9023L6.50781 19.4648C6.45052 19.4284 6.38542 19.4154 6.3125 19.4258C6.24479 19.4362 6.1901 19.4727 6.14844 19.5352C6.11719 19.5977 6.10938 19.6628 6.125 19.7305C6.14062 19.8034 6.1849 19.8607 6.25781 19.9023L6.9375 20.2383L6.25781 20.5664C6.1849 20.5977 6.13802 20.6497 6.11719 20.7227C6.10156 20.7956 6.10938 20.8633 6.14062 20.9258C6.17708 20.9935 6.23177 21.0326 6.30469 21.043C6.38281 21.0534 6.45052 21.0404 6.50781 21.0039L7.13281 20.582L7.09375 21.3242C7.08854 21.3971 7.10677 21.4596 7.14844 21.5117C7.19531 21.569 7.25781 21.5977 7.33594 21.5977ZM11.7969 20.4336C11.8646 20.4336 11.9219 20.4049 11.9688 20.3477C12.0156 20.2904 12.0365 20.2253 12.0312 20.1523L11.9766 19.4102L12.6016 19.832C12.6589 19.8737 12.724 19.8867 12.7969 19.8711C12.8698 19.8555 12.9245 19.819 12.9609 19.7617C13.0026 19.7044 13.013 19.6367 12.9922 19.5586C12.9714 19.4857 12.9219 19.431 12.8438 19.3945L12.1719 19.0664L12.8516 18.7305C12.9245 18.694 12.9688 18.6393 12.9844 18.5664C13.0052 18.4987 13 18.4336 12.9688 18.3711C12.9375 18.3086 12.8828 18.2721 12.8047 18.2617C12.7266 18.2513 12.6589 18.2643 12.6016 18.3008L11.9766 18.7305L12.0391 17.9805C12.0443 17.9023 12.0208 17.8346 11.9688 17.7773C11.9219 17.7253 11.8646 17.6992 11.7969 17.6992C11.7135 17.6992 11.6484 17.7253 11.6016 17.7773C11.5599 17.8346 11.5391 17.9023 11.5391 17.9805L11.5938 18.7305L10.9609 18.3008C10.9036 18.2643 10.8385 18.2487 10.7656 18.2539C10.6979 18.2643 10.6458 18.3034 10.6094 18.3711C10.5729 18.4336 10.5625 18.4987 10.5781 18.5664C10.599 18.6393 10.6458 18.694 10.7188 18.7305L11.3906 19.0664L10.7188 19.3945C10.6406 19.431 10.5911 19.4857 10.5703 19.5586C10.5547 19.6315 10.5651 19.6992 10.6016 19.7617C10.6328 19.8242 10.6849 19.8607 10.7578 19.8711C10.8359 19.8867 10.9036 19.8737 10.9609 19.832L11.5938 19.418L11.5469 20.1523C11.5469 20.2253 11.5677 20.2904 11.6094 20.3477C11.651 20.4049 11.7135 20.4336 11.7969 20.4336Z"
		fill="currentColor"
	/>
</svg>
