<svg
	color="rgb(var(--foreground, 0, 0, 0))"
	viewBox="0 0 24 24"
	fill="none"
	xmlns="http://www.w3.org/2000/svg"
>
	<path
		d="M3.70312 19.8945H12.1562C12.9115 19.8945 13.5911 19.7201 14.1953 19.3711C14.7995 19.0273 15.2786 18.5612 15.6328 17.9727C15.9922 17.3789 16.1719 16.7148 16.1719 15.9805C16.1719 15.2513 15.9896 14.5977 15.625 14.0195C15.2656 13.4414 14.776 12.9831 14.1562 12.6445C13.5365 12.3008 12.8359 12.1237 12.0547 12.1133C11.5964 11.2591 10.9766 10.5872 10.1953 10.0977C9.41927 9.60286 8.54688 9.35547 7.57812 9.35547C6.93229 9.35547 6.32031 9.47266 5.74219 9.70703C5.16927 9.9362 4.65625 10.2591 4.20312 10.6758C3.75 11.0872 3.38021 11.5716 3.09375 12.1289C2.8125 12.681 2.63802 13.2773 2.57031 13.918C1.91927 14.1211 1.39323 14.4883 0.992188 15.0195C0.591146 15.5456 0.390625 16.1628 0.390625 16.8711C0.390625 17.4596 0.528646 17.9805 0.804688 18.4336C1.08073 18.8867 1.46615 19.2435 1.96094 19.5039C2.46094 19.7643 3.04167 19.8945 3.70312 19.8945ZM3.67188 18.6445C3.22917 18.6445 2.85677 18.5664 2.55469 18.4102C2.2526 18.2591 2.02344 18.0534 1.86719 17.793C1.71615 17.5273 1.64062 17.2305 1.64062 16.9023C1.64062 16.4909 1.76823 16.1159 2.02344 15.7773C2.27865 15.4388 2.69531 15.1914 3.27344 15.0352C3.46094 14.9883 3.59375 14.9154 3.67188 14.8164C3.75521 14.7174 3.80469 14.569 3.82031 14.3711C3.86719 13.8242 3.99479 13.3216 4.20312 12.8633C4.41667 12.4049 4.69271 12.0065 5.03125 11.668C5.375 11.3294 5.76302 11.069 6.19531 10.8867C6.63281 10.6992 7.09375 10.6055 7.57812 10.6055C8.08333 10.6055 8.54948 10.6966 8.97656 10.8789C9.40365 11.056 9.78646 11.3164 10.125 11.6602C10.4635 11.9987 10.7552 12.4102 11 12.8945C11.0833 13.0664 11.1797 13.1862 11.2891 13.2539C11.4036 13.3164 11.5599 13.3477 11.7578 13.3477C12.4297 13.3477 13 13.4701 13.4688 13.7148C13.9427 13.9544 14.3021 14.2773 14.5469 14.6836C14.7917 15.0898 14.9141 15.5352 14.9141 16.0195C14.9141 16.5039 14.7943 16.9466 14.5547 17.3477C14.3151 17.7435 13.987 18.0586 13.5703 18.293C13.1589 18.5273 12.6953 18.6445 12.1797 18.6445H3.67188ZM15.0078 9.48047C15.5182 9.48047 15.9766 9.60286 16.3828 9.84766C16.7943 10.0872 17.1198 10.4128 17.3594 10.8242C17.6042 11.2357 17.7266 11.6966 17.7266 12.207C17.7266 12.6185 17.6432 13.0039 17.4766 13.3633C17.3151 13.7174 17.0911 14.0247 16.8047 14.2852C16.5182 14.5404 16.1875 14.7279 15.8125 14.8477L15.8203 16.0273C16.4089 15.8919 16.9323 15.6419 17.3906 15.2773C17.849 14.9076 18.2083 14.4596 18.4688 13.9336C18.7344 13.4023 18.8672 12.8268 18.8672 12.207C18.8672 11.4935 18.6953 10.8451 18.3516 10.2617C18.0078 9.67318 17.5417 9.20443 16.9531 8.85547C16.3698 8.50651 15.7214 8.33203 15.0078 8.33203C14.2891 8.33203 13.638 8.50651 13.0547 8.85547C12.4714 9.20443 12.0052 9.67318 11.6562 10.2617C11.3125 10.8451 11.1406 11.4935 11.1406 12.207C11.1406 12.2591 11.1432 12.3086 11.1484 12.3555C11.1536 12.4023 11.1562 12.4466 11.1562 12.4883L12.3359 12.6055C12.3203 12.543 12.3073 12.4779 12.2969 12.4102C12.2917 12.3424 12.2891 12.2747 12.2891 12.207C12.2891 11.6966 12.4089 11.2357 12.6484 10.8242C12.8932 10.4128 13.2188 10.0872 13.625 9.84766C14.0365 9.60286 14.4974 9.48047 15.0078 9.48047ZM10.4766 8.59766C10.6068 8.72786 10.763 8.79297 10.9453 8.79297C11.1276 8.78776 11.2786 8.72266 11.3984 8.59766C11.5182 8.47266 11.5781 8.32161 11.5781 8.14453C11.5833 7.96745 11.5234 7.81641 11.3984 7.69141L10.1953 6.48828C10.0703 6.36328 9.91927 6.30078 9.74219 6.30078C9.5651 6.30078 9.41406 6.36328 9.28906 6.48828C9.16406 6.61328 9.09896 6.76693 9.09375 6.94922C9.09375 7.1263 9.15885 7.27734 9.28906 7.40234L10.4766 8.59766ZM15.0078 7.09766C15.1849 7.09766 15.3359 7.03255 15.4609 6.90234C15.5911 6.77214 15.6562 6.62109 15.6562 6.44922V4.75391C15.6562 4.57682 15.5911 4.42578 15.4609 4.30078C15.3359 4.17057 15.1849 4.10547 15.0078 4.10547C14.8307 4.10547 14.6771 4.17057 14.5469 4.30078C14.4219 4.42578 14.3594 4.57682 14.3594 4.75391V6.44922C14.3594 6.62109 14.4219 6.77214 14.5469 6.90234C14.6771 7.03255 14.8307 7.09766 15.0078 7.09766ZM18.6172 8.59766C18.737 8.72266 18.888 8.78776 19.0703 8.79297C19.2578 8.79297 19.4141 8.72786 19.5391 8.59766L20.7344 7.40234C20.8594 7.27734 20.9219 7.1263 20.9219 6.94922C20.9219 6.76693 20.8594 6.61328 20.7344 6.48828C20.6094 6.36328 20.4583 6.30078 20.2812 6.30078C20.1042 6.30078 19.9531 6.36328 19.8281 6.48828L18.6172 7.69141C18.4922 7.81641 18.4297 7.96745 18.4297 8.14453C18.4349 8.32161 18.4974 8.47266 18.6172 8.59766ZM20.7578 12.8555H22.4531C22.6302 12.8555 22.7812 12.793 22.9062 12.668C23.0312 12.543 23.0938 12.3893 23.0938 12.207C23.0938 12.0299 23.0312 11.8789 22.9062 11.7539C22.7812 11.6237 22.6302 11.5586 22.4531 11.5586H20.7578C20.5859 11.5586 20.4349 11.6237 20.3047 11.7539C20.1745 11.8789 20.1094 12.0299 20.1094 12.207C20.1094 12.3893 20.1745 12.543 20.3047 12.668C20.4349 12.793 20.5859 12.8555 20.7578 12.8555ZM19.8281 17.9414C19.9531 18.0664 20.1042 18.1263 20.2812 18.1211C20.4583 18.1211 20.6094 18.0586 20.7344 17.9336C20.8594 17.8086 20.9219 17.6576 20.9219 17.4805C20.9219 17.2982 20.8594 17.1471 20.7344 17.0273L19.5234 15.832C19.3984 15.707 19.2474 15.6445 19.0703 15.6445C18.8932 15.6445 18.7422 15.707 18.6172 15.832C18.4922 15.957 18.4297 16.1107 18.4297 16.293C18.4297 16.4701 18.4922 16.6211 18.6172 16.7461L19.8281 17.9414Z"
		fill="currentColor"
	/>
</svg>
