<svg
	color="rgb(var(--foreground, 0, 0, 0))"
	viewBox="0 0 19 24"
	fill="none"
	xmlns="http://www.w3.org/2000/svg"
>
	<path
		d="M3.86719 15.1914H13.5625C14.2031 15.1914 14.7943 15.0794 15.3359 14.8555C15.8828 14.6315 16.3568 14.319 16.7578 13.918C17.1641 13.5169 17.4766 13.0534 17.6953 12.5273C17.9193 12.0013 18.0312 11.4388 18.0312 10.8398C18.0312 10.2148 17.9115 9.64193 17.6719 9.12109C17.4375 8.59505 17.1068 8.13932 16.6797 7.75391C16.2578 7.36328 15.763 7.0612 15.1953 6.84766C14.6276 6.63411 14.013 6.52734 13.3516 6.52734C13.0286 5.88672 12.6146 5.32943 12.1094 4.85547C11.6094 4.3763 11.0391 4.00651 10.3984 3.74609C9.75781 3.48568 9.0599 3.35547 8.30469 3.35547C7.57031 3.35547 6.8776 3.49089 6.22656 3.76172C5.58073 4.02734 5.0026 4.39714 4.49219 4.87109C3.98177 5.34505 3.56771 5.89714 3.25 6.52734C2.9375 7.15755 2.75 7.83464 2.6875 8.55859C2.21354 8.69401 1.78906 8.91797 1.41406 9.23047C1.03906 9.53776 0.742188 9.91276 0.523438 10.3555C0.304688 10.7982 0.195312 11.2956 0.195312 11.8477C0.195312 12.4622 0.338542 13.0247 0.625 13.5352C0.916667 14.0404 1.33594 14.444 1.88281 14.7461C2.42969 15.043 3.09115 15.1914 3.86719 15.1914ZM14.2734 17.0039H4.10938C3.97396 17.0039 3.85677 17.0508 3.75781 17.1445C3.66406 17.2383 3.61719 17.3555 3.61719 17.4961C3.61719 17.6367 3.66406 17.7539 3.75781 17.8477C3.85677 17.9414 3.97396 17.9883 4.10938 17.9883H14.2734C14.4141 17.9883 14.5312 17.9414 14.625 17.8477C14.7188 17.7539 14.7656 17.6367 14.7656 17.4961C14.7656 17.3555 14.7188 17.2383 14.625 17.1445C14.5312 17.0508 14.4141 17.0039 14.2734 17.0039ZM14.2734 19.6523H4.10938C3.97396 19.6523 3.85677 19.6992 3.75781 19.793C3.66406 19.8867 3.61719 20.0039 3.61719 20.1445C3.61719 20.2852 3.66406 20.4023 3.75781 20.4961C3.85677 20.5951 3.97396 20.6445 4.10938 20.6445H14.2734C14.4141 20.6445 14.5312 20.5951 14.625 20.4961C14.7188 20.4023 14.7656 20.2852 14.7656 20.1445C14.7656 20.0039 14.7188 19.8867 14.625 19.793C14.5312 19.6992 14.4141 19.6523 14.2734 19.6523Z"
		fill="currentColor"
	/>
</svg>
