<svg
	color="rgb(var(--foreground, 0, 0, 0))"
	viewBox="0 0 18 24"
	fill="none"
	xmlns="http://www.w3.org/2000/svg"
>
	<path
		d="M3.6875 14.8594H13.3828C14.0234 14.8594 14.6146 14.7474 15.1562 14.5234C15.7031 14.2995 16.1771 13.987 16.5781 13.5859C16.9844 13.1849 17.2969 12.7214 17.5156 12.1953C17.7396 11.6693 17.8516 11.1068 17.8516 10.5078C17.8516 9.88281 17.7318 9.3099 17.4922 8.78906C17.2578 8.26302 16.9271 7.80729 16.5 7.42188C16.0781 7.03125 15.5833 6.72917 15.0156 6.51562C14.4479 6.30208 13.8333 6.19531 13.1719 6.19531C12.849 5.55469 12.4349 4.9974 11.9297 4.52344C11.4297 4.04427 10.8594 3.67448 10.2188 3.41406C9.57812 3.15365 8.88021 3.02344 8.125 3.02344C7.39062 3.02344 6.69792 3.15885 6.04688 3.42969C5.40104 3.69531 4.82292 4.0651 4.3125 4.53906C3.80208 5.01302 3.38802 5.5651 3.07031 6.19531C2.75781 6.82552 2.57031 7.5026 2.50781 8.22656C2.03385 8.36198 1.60938 8.58594 1.23438 8.89844C0.859375 9.20573 0.5625 9.58073 0.34375 10.0234C0.125 10.4661 0.015625 10.9635 0.015625 11.5156C0.015625 12.1302 0.158854 12.6927 0.445312 13.2031C0.736979 13.7083 1.15625 14.112 1.70312 14.4141C2.25 14.7109 2.91146 14.8594 3.6875 14.8594ZM3.67188 13.6094C3.13542 13.6094 2.6901 13.5182 2.33594 13.3359C1.98177 13.1536 1.71354 12.9089 1.53125 12.6016C1.35417 12.2891 1.26562 11.9401 1.26562 11.5547C1.26562 11.0859 1.41146 10.6589 1.70312 10.2734C1.99479 9.88281 2.47396 9.59896 3.14062 9.42188C3.35938 9.36458 3.51302 9.27865 3.60156 9.16406C3.6901 9.04948 3.74479 8.88281 3.76562 8.66406C3.80729 8.02344 3.95052 7.4375 4.19531 6.90625C4.44531 6.36979 4.76823 5.90625 5.16406 5.51562C5.5599 5.11979 6.01042 4.8151 6.51562 4.60156C7.02604 4.38281 7.5625 4.27344 8.125 4.27344C9.00521 4.27344 9.78385 4.50781 10.4609 4.97656C11.138 5.4401 11.6875 6.10417 12.1094 6.96875C12.1979 7.16146 12.3073 7.29688 12.4375 7.375C12.5677 7.44792 12.75 7.48438 12.9844 7.48438C13.7552 7.48438 14.4089 7.625 14.9453 7.90625C15.487 8.18229 15.8984 8.55208 16.1797 9.01562C16.4609 9.47917 16.6016 9.98698 16.6016 10.5391C16.6016 11.1068 16.4635 11.6224 16.1875 12.0859C15.9115 12.5495 15.5365 12.9193 15.0625 13.1953C14.5885 13.4714 14.0547 13.6094 13.4609 13.6094H3.67188ZM3.89062 18.5156L4.90625 16.75C4.97917 16.6302 4.9974 16.5104 4.96094 16.3906C4.92969 16.2656 4.85677 16.1693 4.74219 16.1016C4.6224 16.0339 4.5026 16.0182 4.38281 16.0547C4.26302 16.0859 4.16667 16.1615 4.09375 16.2812L3.07031 18.0625C3.0026 18.1719 2.98438 18.2865 3.01562 18.4062C3.04688 18.5312 3.125 18.6276 3.25 18.6953C3.36458 18.7578 3.48438 18.7708 3.60938 18.7344C3.73438 18.7031 3.82812 18.6302 3.89062 18.5156ZM5.71094 20.7422L8.01562 16.7422C8.08333 16.6276 8.10156 16.5104 8.07031 16.3906C8.03906 16.2708 7.96875 16.1771 7.85938 16.1094C7.74479 16.0417 7.625 16.0234 7.5 16.0547C7.375 16.0859 7.27865 16.1615 7.21094 16.2812L4.92188 20.2656C4.85417 20.3854 4.83594 20.5052 4.86719 20.625C4.89844 20.75 4.97135 20.8464 5.08594 20.9141C5.20052 20.9766 5.3151 20.9922 5.42969 20.9609C5.54948 20.9297 5.64323 20.8568 5.71094 20.7422ZM10.1094 18.5078L11.125 16.7422C11.1979 16.6224 11.2161 16.5026 11.1797 16.3828C11.1484 16.2578 11.0729 16.1615 10.9531 16.0938C10.8385 16.026 10.7188 16.0104 10.5938 16.0469C10.474 16.0781 10.3802 16.1536 10.3125 16.2734L9.28906 18.0547C9.22135 18.1641 9.20312 18.2786 9.23438 18.3984C9.26562 18.5234 9.34115 18.6198 9.46094 18.6875C9.57552 18.75 9.69531 18.763 9.82031 18.7266C9.94531 18.6953 10.0417 18.6224 10.1094 18.5078ZM11.9219 20.7344L14.2344 16.7344C14.3021 16.6198 14.3203 16.5026 14.2891 16.3828C14.2578 16.263 14.1849 16.1693 14.0703 16.1016C13.9609 16.0339 13.8438 16.0156 13.7188 16.0469C13.5938 16.0781 13.4974 16.1536 13.4297 16.2734L11.1328 20.2578C11.0651 20.3776 11.0469 20.4974 11.0781 20.6172C11.1094 20.7422 11.1823 20.8385 11.2969 20.9062C11.4115 20.9688 11.526 20.9844 11.6406 20.9531C11.7604 20.9219 11.8542 20.849 11.9219 20.7344Z"
		fill="currentColor"
	/>
</svg>
