<svg
	color="rgb(var(--foreground, 0, 0, 0))"
	viewBox="0 0 18 24"
	fill="none"
	xmlns="http://www.w3.org/2000/svg"
>
	<path
		d="M3.70312 14.75H13.3984C14.0391 14.75 14.6302 14.638 15.1719 14.4141C15.7188 14.1901 16.1927 13.8776 16.5938 13.4766C17 13.0755 17.3125 12.612 17.5312 12.0859C17.7552 11.5599 17.8672 10.9974 17.8672 10.3984C17.8672 9.77344 17.7474 9.20052 17.5078 8.67969C17.2734 8.15365 16.9427 7.69792 16.5156 7.3125C16.0938 6.92188 15.599 6.61979 15.0312 6.40625C14.4635 6.19271 13.849 6.08594 13.1875 6.08594C12.8646 5.44531 12.4505 4.88802 11.9453 4.41406C11.4453 3.9349 10.875 3.5651 10.2344 3.30469C9.59375 3.04427 8.89583 2.91406 8.14062 2.91406C7.40625 2.91406 6.71354 3.04948 6.0625 3.32031C5.41667 3.58594 4.83854 3.95573 4.32812 4.42969C3.81771 4.90365 3.40365 5.45573 3.08594 6.08594C2.77344 6.71615 2.58594 7.39323 2.52344 8.11719C2.04948 8.2526 1.625 8.47656 1.25 8.78906C0.875 9.09635 0.578125 9.47135 0.359375 9.91406C0.140625 10.3568 0.03125 10.8542 0.03125 11.4062C0.03125 12.0208 0.174479 12.5833 0.460938 13.0938C0.752604 13.599 1.17188 14.0026 1.71875 14.3047C2.26562 14.6016 2.92708 14.75 3.70312 14.75ZM3.6875 13.5C3.15104 13.5 2.70573 13.4089 2.35156 13.2266C1.9974 13.0443 1.72917 12.7995 1.54688 12.4922C1.36979 12.1797 1.28125 11.8307 1.28125 11.4453C1.28125 10.9766 1.42708 10.5495 1.71875 10.1641C2.01042 9.77344 2.48958 9.48958 3.15625 9.3125C3.375 9.25521 3.52865 9.16927 3.61719 9.05469C3.70573 8.9401 3.76042 8.77344 3.78125 8.55469C3.82292 7.91406 3.96615 7.32812 4.21094 6.79688C4.46094 6.26042 4.78385 5.79688 5.17969 5.40625C5.57552 5.01042 6.02604 4.70573 6.53125 4.49219C7.04167 4.27344 7.57812 4.16406 8.14062 4.16406C9.02083 4.16406 9.79948 4.39844 10.4766 4.86719C11.1536 5.33073 11.7031 5.99479 12.125 6.85938C12.2135 7.05208 12.3229 7.1875 12.4531 7.26562C12.5833 7.33854 12.7656 7.375 13 7.375C13.7708 7.375 14.4245 7.51562 14.9609 7.79688C15.5026 8.07292 15.9141 8.44271 16.1953 8.90625C16.4766 9.36979 16.6172 9.8776 16.6172 10.4297C16.6172 10.9974 16.4792 11.513 16.2031 11.9766C15.9271 12.4401 15.5521 12.8099 15.0781 13.0859C14.6042 13.362 14.0703 13.5 13.4766 13.5H3.6875ZM4.71094 17.5625L5.23438 16.6406C5.30208 16.526 5.32031 16.4062 5.28906 16.2812C5.25781 16.1562 5.1849 16.0573 5.07031 15.9844C4.95052 15.9167 4.82812 15.901 4.70312 15.9375C4.58333 15.974 4.48958 16.0495 4.42188 16.1641L3.89062 17.1094C3.82812 17.2188 3.8099 17.3359 3.83594 17.4609C3.86719 17.5807 3.94271 17.6745 4.0625 17.7422C4.18229 17.8099 4.30208 17.8255 4.42188 17.7891C4.54688 17.7526 4.64323 17.6771 4.71094 17.5625ZM8.11719 18.7578L9.33594 16.6484C9.40365 16.5286 9.42188 16.4089 9.39062 16.2891C9.35938 16.1641 9.28646 16.0677 9.17188 16C9.05208 15.9323 8.92969 15.9167 8.80469 15.9531C8.6849 15.9844 8.59115 16.0599 8.52344 16.1797L7.29688 18.3047C7.23438 18.4141 7.21875 18.5286 7.25 18.6484C7.28125 18.7734 7.35677 18.8698 7.47656 18.9375C7.59115 19.0052 7.71094 19.0208 7.83594 18.9844C7.96094 18.9479 8.05469 18.8724 8.11719 18.7578ZM12.8984 17.5938L13.4219 16.6719C13.4896 16.5521 13.5078 16.4323 13.4766 16.3125C13.4453 16.1875 13.3724 16.0885 13.2578 16.0156C13.138 15.9479 13.0156 15.9323 12.8906 15.9688C12.7708 16.0052 12.6771 16.0807 12.6094 16.1953L12.0781 17.1406C12.0156 17.25 11.9974 17.3672 12.0234 17.4922C12.0547 17.612 12.1302 17.7057 12.25 17.7734C12.3646 17.8359 12.4844 17.849 12.6094 17.8125C12.7344 17.7812 12.8307 17.7083 12.8984 17.5938ZM3.32812 19.8906C3.55729 19.8906 3.75521 19.8047 3.92188 19.6328C4.08854 19.4661 4.17188 19.2656 4.17188 19.0312C4.17188 18.8073 4.08854 18.612 3.92188 18.4453C3.75521 18.2786 3.55729 18.1953 3.32812 18.1953C3.09375 18.1953 2.89323 18.2786 2.72656 18.4453C2.5599 18.612 2.47656 18.8073 2.47656 19.0312C2.47656 19.2656 2.5599 19.4661 2.72656 19.6328C2.89323 19.8047 3.09375 19.8906 3.32812 19.8906ZM6.73438 21.0859C6.96875 21.0859 7.16927 21 7.33594 20.8281C7.5026 20.6615 7.58594 20.4609 7.58594 20.2266C7.58594 20.0026 7.5026 19.8073 7.33594 19.6406C7.16927 19.474 6.96875 19.3906 6.73438 19.3906C6.50521 19.3906 6.30729 19.474 6.14062 19.6406C5.97396 19.8073 5.89062 20.0026 5.89062 20.2266C5.89062 20.4609 5.97396 20.6615 6.14062 20.8281C6.30729 21 6.50521 21.0859 6.73438 21.0859ZM11.5156 19.9219C11.7448 19.9219 11.9427 19.8359 12.1094 19.6641C12.276 19.4974 12.3594 19.2969 12.3594 19.0625C12.3594 18.8333 12.276 18.6354 12.1094 18.4688C11.9427 18.3021 11.7448 18.2188 11.5156 18.2188C11.2812 18.2188 11.0807 18.3021 10.9141 18.4688C10.7474 18.6354 10.6641 18.8333 10.6641 19.0625C10.6641 19.2969 10.7474 19.4974 10.9141 19.6641C11.0807 19.8359 11.2812 19.9219 11.5156 19.9219Z"
		fill="currentColor"
	/>
</svg>
