<svg
	color="rgb(var(--foreground, 0, 0, 0))"
	viewBox="0 0 19 24"
	fill="none"
	xmlns="http://www.w3.org/2000/svg"
>
	<path
		d="M4.22656 14.4585H13.9219C14.5625 14.4585 15.1536 14.3465 15.6953 14.1226C16.2422 13.8986 16.7161 13.5861 17.1172 13.1851C17.5234 12.784 17.8359 12.3205 18.0547 11.7944C18.2786 11.2684 18.3906 10.7059 18.3906 10.1069C18.3906 9.48193 18.2708 8.90902 18.0312 8.38818C17.7969 7.86214 17.4661 7.40641 17.0391 7.021C16.6172 6.63037 16.1224 6.32829 15.5547 6.11475C14.987 5.9012 14.3724 5.79443 13.7109 5.79443C13.388 5.15381 12.974 4.59652 12.4688 4.12256C11.9688 3.64339 11.3984 3.2736 10.7578 3.01318C10.1172 2.75277 9.41927 2.62256 8.66406 2.62256C7.92969 2.62256 7.23698 2.75798 6.58594 3.02881C5.9401 3.29443 5.36198 3.66423 4.85156 4.13818C4.34115 4.61214 3.92708 5.16423 3.60938 5.79443C3.29688 6.42464 3.10938 7.10173 3.04688 7.82568C2.57292 7.9611 2.14844 8.18506 1.77344 8.49756C1.39844 8.80485 1.10156 9.17985 0.882812 9.62256C0.664062 10.0653 0.554688 10.5627 0.554688 11.1147C0.554688 11.7293 0.697917 12.2918 0.984375 12.8022C1.27604 13.3075 1.69531 13.7111 2.24219 14.0132C2.78906 14.3101 3.45052 14.4585 4.22656 14.4585ZM11.3516 17.3569H9.57812L9.5625 17.7085L10.5156 15.8804C10.5625 15.7918 10.5703 15.7189 10.5391 15.6616C10.5078 15.6043 10.4505 15.5757 10.3672 15.5757H8.67188C8.5625 15.5757 8.48177 15.5965 8.42969 15.6382C8.3776 15.6799 8.33333 15.7397 8.29688 15.8179L7.23438 18.2397C7.19271 18.3387 7.1901 18.4142 7.22656 18.4663C7.26823 18.5236 7.33854 18.5522 7.4375 18.5522H8.88281L8.98438 18.0913L7.72656 21.146C7.67969 21.2606 7.69792 21.3335 7.78125 21.3647C7.85938 21.396 7.9401 21.37 8.02344 21.2866L11.4766 17.7476C11.5599 17.659 11.5885 17.5705 11.5625 17.4819C11.5365 17.3986 11.4661 17.3569 11.3516 17.3569ZM2.59375 18.2944C2.70833 18.3621 2.82812 18.3778 2.95312 18.3413C3.07812 18.3049 3.17448 18.2293 3.24219 18.1147L4.25781 16.3569C4.32552 16.2371 4.34375 16.1174 4.3125 15.9976C4.28125 15.8726 4.20573 15.7736 4.08594 15.7007C3.97135 15.633 3.85156 15.6174 3.72656 15.6538C3.60677 15.6851 3.51302 15.7606 3.44531 15.8804L2.42188 17.6616C2.35417 17.771 2.33594 17.8856 2.36719 18.0054C2.39844 18.1304 2.47396 18.2267 2.59375 18.2944ZM4.10938 20.4819C4.22396 20.5444 4.34375 20.5575 4.46875 20.521C4.59375 20.4897 4.6901 20.4168 4.75781 20.3022L5.77344 18.5366C5.84115 18.4168 5.85938 18.2944 5.82812 18.1694C5.79688 18.0496 5.72135 17.9559 5.60156 17.8882C5.48177 17.8205 5.36198 17.8022 5.24219 17.8335C5.1224 17.87 5.02865 17.9481 4.96094 18.0679L3.92969 19.8413C3.86719 19.9559 3.85156 20.0731 3.88281 20.1929C3.91406 20.3127 3.98958 20.409 4.10938 20.4819ZM13.4531 18.2944C13.5677 18.3621 13.6875 18.3778 13.8125 18.3413C13.9375 18.3049 14.0339 18.2293 14.1016 18.1147L15.1172 16.3569C15.1901 16.2371 15.2083 16.1174 15.1719 15.9976C15.1406 15.8726 15.0677 15.7736 14.9531 15.7007C14.8333 15.633 14.7135 15.6174 14.5938 15.6538C14.474 15.6851 14.3776 15.7606 14.3047 15.8804L13.2812 17.6616C13.2135 17.771 13.1953 17.8856 13.2266 18.0054C13.2578 18.1304 13.3333 18.2267 13.4531 18.2944ZM14.9688 20.4819C15.0833 20.5444 15.2031 20.5575 15.3281 20.521C15.4531 20.4897 15.5495 20.4168 15.6172 20.3022L16.6328 18.5366C16.7057 18.4168 16.724 18.2944 16.6875 18.1694C16.6562 18.0496 16.5833 17.9559 16.4688 17.8882C16.349 17.8205 16.2266 17.8022 16.1016 17.8335C15.9818 17.87 15.888 17.9481 15.8203 18.0679L14.7969 19.8413C14.7292 19.9559 14.7109 20.0731 14.7422 20.1929C14.7734 20.3127 14.849 20.409 14.9688 20.4819Z"
		fill="currentColor"
	/>
</svg>
