<svg
	color="rgb(var(--foreground, 0, 0, 0))"
	viewBox="0 0 19 24"
	fill="none"
	xmlns="http://www.w3.org/2000/svg"
>
	<path
		d="M4.39062 14.4585H14.0859C14.7266 14.4585 15.3177 14.3465 15.8594 14.1226C16.4062 13.8986 16.8802 13.5861 17.2812 13.1851C17.6875 12.784 18 12.3205 18.2188 11.7944C18.4427 11.2684 18.5547 10.7059 18.5547 10.1069C18.5547 9.48193 18.4349 8.90902 18.1953 8.38818C17.9609 7.86214 17.6302 7.40641 17.2031 7.021C16.7812 6.63037 16.2865 6.32829 15.7188 6.11475C15.151 5.9012 14.5365 5.79443 13.875 5.79443C13.5521 5.15381 13.138 4.59652 12.6328 4.12256C12.1328 3.64339 11.5625 3.2736 10.9219 3.01318C10.2812 2.75277 9.58333 2.62256 8.82812 2.62256C8.09375 2.62256 7.40104 2.75798 6.75 3.02881C6.10417 3.29443 5.52604 3.66423 5.01562 4.13818C4.50521 4.61214 4.09115 5.16423 3.77344 5.79443C3.46094 6.42464 3.27344 7.10173 3.21094 7.82568C2.73698 7.9611 2.3125 8.18506 1.9375 8.49756C1.5625 8.80485 1.26562 9.17985 1.04688 9.62256C0.828125 10.0653 0.71875 10.5627 0.71875 11.1147C0.71875 11.7293 0.861979 12.2918 1.14844 12.8022C1.4401 13.3075 1.85938 13.7111 2.40625 14.0132C2.95312 14.3101 3.61458 14.4585 4.39062 14.4585ZM4.375 13.2085C3.83854 13.2085 3.39323 13.1174 3.03906 12.9351C2.6849 12.7528 2.41667 12.508 2.23438 12.2007C2.05729 11.8882 1.96875 11.5392 1.96875 11.1538C1.96875 10.6851 2.11458 10.258 2.40625 9.87256C2.69792 9.48193 3.17708 9.19808 3.84375 9.021C4.0625 8.9637 4.21615 8.87777 4.30469 8.76318C4.39323 8.6486 4.44792 8.48193 4.46875 8.26318C4.51042 7.62256 4.65365 7.03662 4.89844 6.50537C5.14844 5.96891 5.47135 5.50537 5.86719 5.11475C6.26302 4.71891 6.71354 4.41423 7.21875 4.20068C7.72917 3.98193 8.26562 3.87256 8.82812 3.87256C9.70833 3.87256 10.487 4.10693 11.1641 4.57568C11.8411 5.03923 12.3906 5.70329 12.8125 6.56787C12.901 6.76058 13.0104 6.896 13.1406 6.97412C13.2708 7.04704 13.4531 7.0835 13.6875 7.0835C14.4583 7.0835 15.112 7.22412 15.6484 7.50537C16.1901 7.78141 16.6016 8.1512 16.8828 8.61475C17.1641 9.07829 17.3047 9.5861 17.3047 10.1382C17.3047 10.7059 17.1667 11.2215 16.8906 11.6851C16.6146 12.1486 16.2396 12.5184 15.7656 12.7944C15.2917 13.0705 14.7578 13.2085 14.1641 13.2085H4.375ZM11.5156 17.3569H9.74219L9.72656 17.7085L10.6797 15.8804C10.7266 15.7918 10.7344 15.7189 10.7031 15.6616C10.6719 15.6043 10.6146 15.5757 10.5312 15.5757H8.83594C8.72656 15.5757 8.64583 15.5965 8.59375 15.6382C8.54167 15.6799 8.4974 15.7397 8.46094 15.8179L7.39844 18.2397C7.35677 18.3387 7.35417 18.4142 7.39062 18.4663C7.43229 18.5236 7.5026 18.5522 7.60156 18.5522H9.04688L9.14844 18.0913L7.89062 21.146C7.84375 21.2606 7.86198 21.3335 7.94531 21.3647C8.02344 21.396 8.10417 21.37 8.1875 21.2866L11.6406 17.7476C11.724 17.659 11.7526 17.5705 11.7266 17.4819C11.7005 17.3986 11.6302 17.3569 11.5156 17.3569ZM2.75781 18.2944C2.8724 18.3621 2.99219 18.3778 3.11719 18.3413C3.24219 18.3049 3.33854 18.2293 3.40625 18.1147L4.42188 16.3569C4.48958 16.2371 4.50781 16.1174 4.47656 15.9976C4.44531 15.8726 4.36979 15.7736 4.25 15.7007C4.13542 15.633 4.01562 15.6174 3.89062 15.6538C3.77083 15.6851 3.67708 15.7606 3.60938 15.8804L2.58594 17.6616C2.51823 17.771 2.5 17.8856 2.53125 18.0054C2.5625 18.1304 2.63802 18.2267 2.75781 18.2944ZM4.27344 20.4819C4.38802 20.5444 4.50781 20.5575 4.63281 20.521C4.75781 20.4897 4.85417 20.4168 4.92188 20.3022L5.9375 18.5366C6.00521 18.4168 6.02344 18.2944 5.99219 18.1694C5.96094 18.0496 5.88542 17.9559 5.76562 17.8882C5.64583 17.8205 5.52604 17.8022 5.40625 17.8335C5.28646 17.87 5.19271 17.9481 5.125 18.0679L4.09375 19.8413C4.03125 19.9559 4.01562 20.0731 4.04688 20.1929C4.07812 20.3127 4.15365 20.409 4.27344 20.4819ZM13.6172 18.2944C13.7318 18.3621 13.8516 18.3778 13.9766 18.3413C14.1016 18.3049 14.1979 18.2293 14.2656 18.1147L15.2812 16.3569C15.3542 16.2371 15.3724 16.1174 15.3359 15.9976C15.3047 15.8726 15.2318 15.7736 15.1172 15.7007C14.9974 15.633 14.8776 15.6174 14.7578 15.6538C14.638 15.6851 14.5417 15.7606 14.4688 15.8804L13.4453 17.6616C13.3776 17.771 13.3594 17.8856 13.3906 18.0054C13.4219 18.1304 13.4974 18.2267 13.6172 18.2944ZM15.1328 20.4819C15.2474 20.5444 15.3672 20.5575 15.4922 20.521C15.6172 20.4897 15.7135 20.4168 15.7812 20.3022L16.7969 18.5366C16.8698 18.4168 16.888 18.2944 16.8516 18.1694C16.8203 18.0496 16.7474 17.9559 16.6328 17.8882C16.513 17.8205 16.3906 17.8022 16.2656 17.8335C16.1458 17.87 16.0521 17.9481 15.9844 18.0679L14.9609 19.8413C14.8932 19.9559 14.875 20.0731 14.9062 20.1929C14.9375 20.3127 15.013 20.409 15.1328 20.4819Z"
		fill="currentColor"
	/>
</svg>
