<svg
	color="rgb(var(--foreground, 0, 0, 0))"
	viewBox="0 0 23 24"
	fill="none"
	xmlns="http://www.w3.org/2000/svg"
>
	<path
		d="M3.35156 19.8672H11.8047C12.5495 19.8672 13.2188 19.6953 13.8125 19.3516C14.4115 19.013 14.8854 18.5521 15.2344 17.9688C15.5833 17.3854 15.7578 16.7318 15.7578 16.0078C15.7578 15.2891 15.5781 14.6458 15.2188 14.0781C14.8594 13.5052 14.3698 13.0521 13.75 12.7188C13.1354 12.3802 12.4401 12.2083 11.6641 12.2031C11.362 11.6354 10.987 11.1458 10.5391 10.7344C10.0964 10.3177 9.59375 10 9.03125 9.78125C8.46875 9.55729 7.86458 9.44531 7.21875 9.44531C6.58333 9.44531 5.97917 9.5599 5.40625 9.78906C4.83854 10.0182 4.33073 10.3411 3.88281 10.7578C3.4349 11.1693 3.07031 11.651 2.78906 12.2031C2.50781 12.7552 2.33594 13.3516 2.27344 13.9922C1.6224 14.1849 1.09635 14.5417 0.695312 15.0625C0.294271 15.5833 0.09375 16.1953 0.09375 16.8984C0.09375 17.4766 0.229167 17.9896 0.5 18.4375C0.770833 18.8854 1.15104 19.2344 1.64062 19.4844C2.13021 19.7396 2.70052 19.8672 3.35156 19.8672ZM16.6562 15.5859C17.2292 15.1953 17.6797 14.7135 18.0078 14.1406C18.3411 13.5625 18.5078 12.9271 18.5078 12.2344C18.5078 11.5208 18.3359 10.8724 17.9922 10.2891C17.6484 9.70052 17.1823 9.23177 16.5938 8.88281C16.0104 8.53385 15.362 8.35938 14.6484 8.35938C13.9401 8.35938 13.2943 8.53385 12.7109 8.88281C12.1328 9.23177 11.6823 9.6875 11.3594 10.25C11.5208 10.4219 11.6719 10.6016 11.8125 10.7891C11.9531 10.9766 12.0833 11.1849 12.2031 11.4141C13.0625 11.4818 13.8125 11.6979 14.4531 12.0625C15.0938 12.4219 15.6016 12.9036 15.9766 13.5078C16.3568 14.1068 16.5833 14.7995 16.6562 15.5859ZM10.1172 8.625C10.2474 8.75521 10.4036 8.82031 10.5859 8.82031C10.7682 8.8151 10.9193 8.75 11.0391 8.625C11.1589 8.5 11.2188 8.34896 11.2188 8.17188C11.224 7.99479 11.1641 7.84375 11.0391 7.71875L9.83594 6.51562C9.71094 6.39062 9.5599 6.32812 9.38281 6.32812C9.20573 6.32812 9.05469 6.39062 8.92969 6.51562C8.80469 6.64062 8.73958 6.79427 8.73438 6.97656C8.73438 7.15365 8.79948 7.30469 8.92969 7.42969L10.1172 8.625ZM14.6484 7.125C14.8255 7.125 14.9766 7.0599 15.1016 6.92969C15.2318 6.79948 15.2969 6.64844 15.2969 6.47656V4.78125C15.2969 4.60417 15.2318 4.45312 15.1016 4.32812C14.9766 4.19792 14.8255 4.13281 14.6484 4.13281C14.4714 4.13281 14.3177 4.19792 14.1875 4.32812C14.0625 4.45312 14 4.60417 14 4.78125V6.47656C14 6.64844 14.0625 6.79948 14.1875 6.92969C14.3177 7.0599 14.4714 7.125 14.6484 7.125ZM20.3984 12.8828H22.0938C22.2708 12.8828 22.4219 12.8203 22.5469 12.6953C22.6719 12.5703 22.7344 12.4167 22.7344 12.2344C22.7344 12.0573 22.6719 11.9062 22.5469 11.7812C22.4219 11.651 22.2708 11.5859 22.0938 11.5859H20.3984C20.2266 11.5859 20.0755 11.651 19.9453 11.7812C19.8151 11.9062 19.75 12.0573 19.75 12.2344C19.75 12.4167 19.8151 12.5703 19.9453 12.6953C20.0755 12.8203 20.2266 12.8828 20.3984 12.8828ZM18.2578 8.625C18.3776 8.75 18.5286 8.8151 18.7109 8.82031C18.8984 8.82031 19.0547 8.75521 19.1797 8.625L20.375 7.42969C20.5 7.30469 20.5625 7.15365 20.5625 6.97656C20.5625 6.79427 20.5 6.64062 20.375 6.51562C20.25 6.39062 20.099 6.32812 19.9219 6.32812C19.7448 6.32812 19.5938 6.39062 19.4688 6.51562L18.2578 7.71875C18.1328 7.84375 18.0703 7.99479 18.0703 8.17188C18.0755 8.34896 18.138 8.5 18.2578 8.625ZM19.4688 17.9688C19.5938 18.0938 19.7448 18.1536 19.9219 18.1484C20.099 18.1484 20.25 18.0859 20.375 17.9609C20.5 17.8359 20.5625 17.6849 20.5625 17.5078C20.5625 17.3255 20.5 17.1745 20.375 17.0547L19.1641 15.8594C19.0391 15.7344 18.888 15.6719 18.7109 15.6719C18.5339 15.6719 18.3828 15.7344 18.2578 15.8594C18.1328 15.9844 18.0703 16.138 18.0703 16.3203C18.0703 16.4974 18.1328 16.6484 18.2578 16.7734L19.4688 17.9688Z"
		fill="currentColor"
	/>
</svg>
