<svg
	color="rgb(var(--foreground, 0, 0, 0))"
	viewBox="0 0 19 24"
	fill="none"
	xmlns="http://www.w3.org/2000/svg"
>
	<path
		d="M4.19531 14.861H13.8906C14.5312 14.861 15.1224 14.749 15.6641 14.525C16.2109 14.3011 16.6849 13.9886 17.0859 13.5875C17.4922 13.1865 17.8047 12.7229 18.0234 12.1969C18.2474 11.6709 18.3594 11.1084 18.3594 10.5094C18.3594 9.8844 18.2396 9.31148 18 8.79065C17.7656 8.26461 17.4349 7.80888 17.0078 7.42346C16.5859 7.03284 16.0911 6.73075 15.5234 6.51721C14.9557 6.30367 14.3411 6.1969 13.6797 6.1969C13.3568 5.55627 12.9427 4.99898 12.4375 4.52502C11.9375 4.04586 11.3672 3.67607 10.7266 3.41565C10.0859 3.15523 9.38802 3.02502 8.63281 3.02502C7.89844 3.02502 7.20573 3.16044 6.55469 3.43127C5.90885 3.6969 5.33073 4.06669 4.82031 4.54065C4.3099 5.01461 3.89583 5.56669 3.57812 6.1969C3.26562 6.82711 3.07812 7.50419 3.01562 8.22815C2.54167 8.36357 2.11719 8.58752 1.74219 8.90002C1.36719 9.20732 1.07031 9.58232 0.851562 10.025C0.632812 10.4677 0.523438 10.9651 0.523438 11.5172C0.523438 12.1318 0.666667 12.6943 0.953125 13.2047C1.24479 13.7099 1.66406 14.1136 2.21094 14.4156C2.75781 14.7125 3.41927 14.861 4.19531 14.861ZM2.79688 20.736L5.09375 16.7594C5.16146 16.6344 5.17969 16.512 5.14844 16.3922C5.11719 16.2724 5.04167 16.1787 4.92188 16.111C4.80208 16.0433 4.68229 16.025 4.5625 16.0563C4.44271 16.0875 4.34896 16.1656 4.28125 16.2906L1.97656 20.2828C1.91406 20.3922 1.89583 20.5068 1.92188 20.6266C1.95312 20.7516 2.02865 20.8479 2.14844 20.9156C2.26823 20.9781 2.38802 20.9912 2.50781 20.9547C2.63281 20.9235 2.72917 20.8505 2.79688 20.736ZM5.91406 20.736L8.20312 16.7594C8.27604 16.6344 8.29427 16.512 8.25781 16.3922C8.22656 16.2724 8.15365 16.1787 8.03906 16.111C7.91927 16.0433 7.79948 16.025 7.67969 16.0563C7.5599 16.0875 7.46354 16.1656 7.39062 16.2906L5.09375 20.2828C5.03125 20.3922 5.01302 20.5068 5.03906 20.6266C5.07031 20.7516 5.14583 20.8479 5.26562 20.9156C5.38021 20.9781 5.5 20.9912 5.625 20.9547C5.75 20.9235 5.84635 20.8505 5.91406 20.736ZM9.02344 20.736L11.3125 16.7594C11.3854 16.6344 11.4036 16.512 11.3672 16.3922C11.3359 16.2724 11.263 16.1787 11.1484 16.111C11.0286 16.0433 10.9089 16.025 10.7891 16.0563C10.6693 16.0875 10.5729 16.1656 10.5 16.2906L8.20312 20.2828C8.14062 20.3922 8.1224 20.5068 8.14844 20.6266C8.17969 20.7516 8.25521 20.8479 8.375 20.9156C8.48958 20.9781 8.60938 20.9912 8.73438 20.9547C8.85938 20.9235 8.95573 20.8505 9.02344 20.736ZM12.1094 20.7438L14.4219 16.7438C14.4896 16.6292 14.5078 16.5094 14.4766 16.3844C14.4453 16.2594 14.3698 16.1683 14.25 16.111C14.1354 16.0485 14.0156 16.0328 13.8906 16.0641C13.7708 16.0901 13.6797 16.163 13.6172 16.2828L11.3203 20.2672C11.2526 20.387 11.2318 20.5068 11.2578 20.6266C11.2891 20.7516 11.362 20.8479 11.4766 20.9156C11.5859 20.9781 11.7031 20.9912 11.8281 20.9547C11.9531 20.9235 12.0469 20.8531 12.1094 20.7438Z"
		fill="currentColor"
	/>
</svg>
