<svg
	color="rgb(var(--foreground, 0, 0, 0))"
	viewBox="0 0 24 24"
	fill="none"
	xmlns="http://www.w3.org/2000/svg"
>
	<path
		d="M4.04688 16.842H12.5C13.2552 16.842 13.9349 16.6702 14.5391 16.3264C15.1432 15.9775 15.6224 15.5087 15.9766 14.9202C16.3359 14.3264 16.5156 13.6624 16.5156 12.928C16.5156 12.1988 16.3333 11.5452 15.9688 10.967C15.6094 10.3837 15.1198 9.92277 14.5 9.58423C13.8802 9.24569 13.1797 9.07121 12.3984 9.06079C11.9401 8.20142 11.3203 7.52694 10.5391 7.03735C9.76302 6.54256 8.89062 6.29517 7.92188 6.29517C7.27604 6.29517 6.66406 6.41235 6.08594 6.64673C5.51302 6.8811 5 7.20662 4.54688 7.62329C4.09375 8.03475 3.72396 8.51652 3.4375 9.0686C3.15625 9.62069 2.98177 10.217 2.91406 10.8577C2.26302 11.0608 1.73698 11.428 1.33594 11.9592C0.934896 12.4853 0.734375 13.1051 0.734375 13.8186C0.734375 14.4019 0.872396 14.9228 1.14844 15.3811C1.42448 15.8342 1.8099 16.191 2.30469 16.4514C2.80469 16.7118 3.38542 16.842 4.04688 16.842ZM4.01562 15.592C3.57292 15.592 3.20052 15.5139 2.89844 15.3577C2.59635 15.2014 2.36719 14.9931 2.21094 14.7327C2.0599 14.467 1.98438 14.1728 1.98438 13.8499C1.98438 13.4332 2.11198 13.0556 2.36719 12.717C2.6224 12.3785 3.03906 12.1337 3.61719 11.9827C3.80469 11.9358 3.9375 11.8629 4.01562 11.7639C4.09896 11.665 4.14844 11.5165 4.16406 11.3186C4.21094 10.7717 4.33854 10.2691 4.54688 9.81079C4.76042 9.34725 5.03646 8.94881 5.375 8.61548C5.71875 8.27694 6.10677 8.01652 6.53906 7.83423C6.97656 7.64673 7.4375 7.55298 7.92188 7.55298C8.42708 7.55298 8.89323 7.64412 9.32031 7.82642C9.7474 8.0035 10.1302 8.26392 10.4688 8.60767C10.8073 8.94621 11.099 9.35767 11.3438 9.84204C11.4271 10.0087 11.5234 10.1259 11.6328 10.1936C11.7474 10.2613 11.9036 10.2952 12.1016 10.2952C12.7734 10.2952 13.3438 10.4176 13.8125 10.6624C14.2865 10.9019 14.6458 11.2249 14.8906 11.6311C15.1354 12.0374 15.2578 12.4827 15.2578 12.967C15.2578 13.4514 15.138 13.8915 14.8984 14.2874C14.6589 14.6832 14.3307 15.0009 13.9141 15.2405C13.5026 15.4749 13.0391 15.592 12.5234 15.592H4.01562ZM15.3516 5.27954C14.6328 5.27954 13.9818 5.45402 13.3984 5.80298C12.8151 6.14673 12.349 6.61287 12 7.20142C11.6562 7.78475 11.4844 8.43579 11.4844 9.15454C11.4844 9.20142 11.487 9.2509 11.4922 9.30298C11.4974 9.34985 11.5 9.39412 11.5 9.43579L12.6797 9.55298C12.6641 9.48527 12.651 9.42017 12.6406 9.35767C12.6354 9.28996 12.6328 9.22225 12.6328 9.15454C12.6328 8.64412 12.7526 8.18319 12.9922 7.77173C13.237 7.36027 13.5625 7.03475 13.9688 6.79517C14.3802 6.55037 14.8411 6.42798 15.3516 6.42798C15.862 6.42798 16.3203 6.55037 16.7266 6.79517C17.138 7.03475 17.4635 7.36027 17.7031 7.77173C17.9479 8.18319 18.0703 8.64412 18.0703 9.15454C18.0703 9.566 17.987 9.94881 17.8203 10.303C17.6589 10.6571 17.4349 10.9644 17.1484 11.2249C16.862 11.4801 16.5312 11.6676 16.1562 11.7874L16.1641 12.967C16.7526 12.8368 17.276 12.5894 17.7344 12.2249C18.1927 11.8551 18.5521 11.4071 18.8125 10.8811C19.0781 10.3499 19.2109 9.77433 19.2109 9.15454C19.2109 8.43579 19.0391 7.78475 18.6953 7.20142C18.3516 6.61287 17.8854 6.14673 17.2969 5.80298C16.7135 5.45402 16.0651 5.27954 15.3516 5.27954ZM10.8203 5.54517C10.9505 5.67537 11.1068 5.74048 11.2891 5.74048C11.4714 5.73527 11.6224 5.67017 11.7422 5.54517C11.862 5.42017 11.9219 5.26912 11.9219 5.09204C11.9271 4.91496 11.8672 4.76392 11.7422 4.63892L10.5391 3.42798C10.4141 3.30298 10.263 3.24048 10.0859 3.24048C9.90885 3.24048 9.75781 3.30298 9.63281 3.42798C9.50781 3.55298 9.44271 3.70662 9.4375 3.88892C9.4375 4.066 9.5026 4.21965 9.63281 4.34985L10.8203 5.54517ZM15.3516 4.03735C15.5286 4.03735 15.6797 3.97485 15.8047 3.84985C15.9349 3.71965 16 3.566 16 3.38892V1.70142C16 1.52433 15.9349 1.37329 15.8047 1.24829C15.6797 1.11808 15.5286 1.05298 15.3516 1.05298C15.1745 1.05298 15.0208 1.11808 14.8906 1.24829C14.7656 1.37329 14.7031 1.52433 14.7031 1.70142V3.38892C14.7031 3.566 14.7656 3.71965 14.8906 3.84985C15.0208 3.97485 15.1745 4.03735 15.3516 4.03735ZM18.9609 5.54517C19.0807 5.67017 19.2318 5.73527 19.4141 5.74048C19.6016 5.74048 19.7578 5.67537 19.8828 5.54517L21.0781 4.34985C21.2031 4.21965 21.2656 4.066 21.2656 3.88892C21.2656 3.70662 21.2031 3.55298 21.0781 3.42798C20.9531 3.30298 20.8021 3.24048 20.625 3.24048C20.4479 3.24048 20.2969 3.30298 20.1719 3.42798L18.9609 4.63892C18.8359 4.76392 18.7734 4.91496 18.7734 5.09204C18.7786 5.26912 18.8411 5.42017 18.9609 5.54517ZM21.1016 9.80298H22.7969C22.974 9.80298 23.125 9.74048 23.25 9.61548C23.375 9.48527 23.4375 9.33162 23.4375 9.15454C23.4375 8.97746 23.375 8.82642 23.25 8.70142C23.125 8.57121 22.974 8.5061 22.7969 8.5061H21.1016C20.9297 8.5061 20.7786 8.57121 20.6484 8.70142C20.5182 8.82642 20.4531 8.97746 20.4531 9.15454C20.4531 9.33162 20.5182 9.48527 20.6484 9.61548C20.7786 9.74048 20.9297 9.80298 21.1016 9.80298ZM20.1719 14.8889C20.2969 15.0139 20.4479 15.0764 20.625 15.0764C20.8021 15.0712 20.9531 15.0061 21.0781 14.8811C21.2031 14.7561 21.2656 14.6051 21.2656 14.428C21.2656 14.2457 21.2031 14.0946 21.0781 13.9749L19.8672 12.7717C19.7422 12.6519 19.5911 12.592 19.4141 12.592C19.237 12.5868 19.0859 12.6467 18.9609 12.7717C18.8359 12.8967 18.7734 13.0504 18.7734 13.2327C18.7734 13.4097 18.8359 13.5608 18.9609 13.6858L20.1719 14.8889ZM3.91406 20.5061L4.92969 18.7405C5.0026 18.6207 5.02083 18.4983 4.98438 18.3733C4.95312 18.2535 4.88021 18.1597 4.76562 18.092C4.64583 18.0243 4.52604 18.0061 4.40625 18.0374C4.28646 18.0738 4.1901 18.1519 4.11719 18.2717L3.09375 20.053C3.02604 20.1624 3.00781 20.2769 3.03906 20.3967C3.07031 20.5217 3.14583 20.6181 3.26562 20.6858C3.38542 20.7483 3.50521 20.7613 3.625 20.7249C3.75 20.6936 3.84635 20.6207 3.91406 20.5061ZM6.35938 22.7014L7.375 20.9436C7.44792 20.8238 7.46615 20.7014 7.42969 20.5764C7.39844 20.4566 7.32552 20.3629 7.21094 20.2952C7.09115 20.2275 6.97135 20.2092 6.85156 20.2405C6.73177 20.2769 6.63542 20.3551 6.5625 20.4749L5.53906 22.2483C5.47135 22.3629 5.45312 22.4801 5.48438 22.5999C5.51562 22.7196 5.59115 22.8134 5.71094 22.8811C5.83073 22.9488 5.95052 22.9644 6.07031 22.928C6.19531 22.8967 6.29167 22.8212 6.35938 22.7014ZM10.1328 20.4983L11.1484 18.7327C11.2161 18.6129 11.2344 18.4905 11.2031 18.3655C11.1719 18.2457 11.0964 18.1519 10.9766 18.0842C10.862 18.0165 10.7422 17.9983 10.6172 18.0295C10.4974 18.066 10.4036 18.1441 10.3359 18.2639L9.3125 20.0452C9.24479 20.1545 9.22656 20.2691 9.25781 20.3889C9.28906 20.5139 9.36458 20.6103 9.48438 20.678C9.59896 20.7405 9.71875 20.7535 9.84375 20.717C9.96875 20.6858 10.0651 20.6129 10.1328 20.4983ZM12.5703 22.6936L13.5938 20.9358C13.6615 20.816 13.6797 20.6936 13.6484 20.5686C13.6172 20.4488 13.5417 20.3551 13.4219 20.2874C13.3021 20.2196 13.1823 20.2014 13.0625 20.2327C12.9427 20.2691 12.8464 20.3472 12.7734 20.467L11.75 22.2405C11.6875 22.3551 11.6719 22.4722 11.7031 22.592C11.7344 22.7118 11.8099 22.8056 11.9297 22.8733C12.0443 22.941 12.1641 22.9566 12.2891 22.9202C12.4141 22.8889 12.5078 22.8134 12.5703 22.6936Z"
		fill="currentColor"
	/>
</svg>
