<svg
	color="rgb(var(--foreground, 0, 0, 0))"
	viewBox="0 0 21 24"
	fill="none"
	xmlns="http://www.w3.org/2000/svg"
>
	<path
		d="M3.65649 15.4708H12.1096C12.8648 15.4708 13.5445 15.299 14.1487 14.9552C14.7528 14.6063 15.232 14.1375 15.5862 13.549C15.9456 12.9604 16.1252 12.299 16.1252 11.5646C16.1252 10.8354 15.943 10.1818 15.5784 9.60365C15.219 9.02032 14.7294 8.55938 14.1096 8.22084C13.4898 7.8823 12.7893 7.70521 12.0081 7.68959C11.5497 6.83542 10.9299 6.16355 10.1487 5.67396C9.37264 5.17917 8.50024 4.93178 7.53149 4.93178C6.88566 4.93178 6.27368 5.04896 5.69556 5.28334C5.12264 5.51251 4.60962 5.83542 4.15649 6.25209C3.70337 6.66355 3.33358 7.14792 3.04712 7.70521C2.76587 8.2573 2.59139 8.85365 2.52368 9.49428C1.87264 9.6974 1.3466 10.0646 0.945557 10.5958C0.544515 11.1219 0.343994 11.7391 0.343994 12.4474C0.343994 13.0359 0.482015 13.5594 0.758057 14.0177C1.0341 14.4708 1.41951 14.8276 1.91431 15.088C2.41431 15.3432 2.99504 15.4708 3.65649 15.4708ZM3.62524 14.2208C3.18254 14.2208 2.81014 14.1453 2.50806 13.9943C2.20597 13.838 1.97681 13.6297 1.82056 13.3693C1.66951 13.1037 1.59399 12.8068 1.59399 12.4787C1.59399 12.0672 1.7216 11.6922 1.97681 11.3537C2.23201 11.0151 2.64868 10.7703 3.22681 10.6193C3.41431 10.5672 3.54712 10.4917 3.62524 10.3927C3.70858 10.2938 3.75806 10.1479 3.77368 9.95521C3.82056 9.40313 3.94816 8.89792 4.15649 8.43959C4.37004 7.98126 4.64608 7.58282 4.98462 7.24428C5.32837 6.90574 5.71639 6.64532 6.14868 6.46303C6.58618 6.27553 7.04712 6.18178 7.53149 6.18178C8.0367 6.18178 8.50285 6.27292 8.92993 6.45521C9.35701 6.6323 9.73983 6.89271 10.0784 7.23646C10.4169 7.57501 10.7086 7.98907 10.9534 8.47865C11.0367 8.64532 11.1331 8.76251 11.2424 8.83021C11.357 8.89271 11.5133 8.92396 11.7112 8.92396C12.3831 8.92396 12.9534 9.04636 13.4221 9.29115C13.8961 9.53594 14.2555 9.86146 14.5002 10.2677C14.745 10.6688 14.8674 11.1115 14.8674 11.5958C14.8674 12.0802 14.7476 12.5229 14.5081 12.924C14.2685 13.3198 13.9403 13.6349 13.5237 13.8693C13.1122 14.1037 12.6487 14.2208 12.1331 14.2208H3.62524ZM15.4377 11.4865C16.0211 11.5229 16.5601 11.4943 17.0549 11.4005C17.5497 11.3068 17.9976 11.1662 18.3987 10.9787C18.8049 10.7859 19.1617 10.5594 19.469 10.299C19.7815 10.0333 20.0471 9.74688 20.2659 9.43959C20.4898 9.12709 20.6643 8.80678 20.7893 8.47865C20.9195 8.16615 20.9143 7.89011 20.7737 7.65053C20.6331 7.40574 20.4091 7.28334 20.1018 7.28334C19.8674 7.28334 19.6331 7.31719 19.3987 7.3849C19.1643 7.45261 18.8388 7.48646 18.4221 7.48646C17.7555 7.48646 17.1956 7.36928 16.7424 7.1349C16.2945 6.90053 15.9534 6.56719 15.719 6.1349C15.4898 5.6974 15.3752 5.17657 15.3752 4.5724C15.3752 4.27553 15.3987 4.02032 15.4456 3.80678C15.4924 3.58803 15.5367 3.39792 15.5784 3.23646C15.6252 3.0698 15.6487 2.91355 15.6487 2.76771C15.6487 2.4448 15.5263 2.21303 15.2815 2.0724C15.0419 1.93178 14.7502 1.92136 14.4065 2.04115C13.995 2.17657 13.6044 2.3849 13.2346 2.66615C12.8648 2.94219 12.5393 3.27813 12.2581 3.67396C11.9768 4.06459 11.7528 4.50209 11.5862 4.98646C11.4247 5.46563 11.344 5.97344 11.344 6.5099C11.344 6.85886 11.3752 7.20001 11.4377 7.53334C11.5002 7.86667 11.594 8.18699 11.719 8.49428L13.0159 8.47084C12.6669 7.89271 12.4924 7.23126 12.4924 6.48646C12.4924 6.10626 12.5419 5.75209 12.6409 5.42396C12.745 5.09063 12.8857 4.78594 13.0627 4.5099C13.245 4.22865 13.4508 3.98126 13.6799 3.76771C13.9143 3.55417 14.1591 3.37709 14.4143 3.23646L14.5002 3.29896C14.4377 3.48646 14.3805 3.71042 14.3284 3.97084C14.2763 4.22605 14.2502 4.50469 14.2502 4.80678C14.2502 5.55157 14.4169 6.21042 14.7502 6.78334C15.0888 7.35105 15.5523 7.79636 16.1409 8.11928C16.7294 8.43699 17.4013 8.59584 18.1565 8.59584C18.4325 8.59584 18.693 8.57501 18.9377 8.53334C19.1877 8.48646 19.4039 8.43438 19.5862 8.37709L19.6409 8.43178C19.5107 8.68178 19.3232 8.92917 19.0784 9.17396C18.8388 9.41355 18.5445 9.62969 18.1956 9.8224C17.8466 10.0151 17.4403 10.1609 16.9768 10.2599C16.5185 10.3589 16.0055 10.3875 15.4377 10.3458V11.4865ZM10.1252 18.2365H8.41431L8.39868 18.5646L9.28931 16.8771C9.33097 16.7938 9.33618 16.7234 9.30493 16.6662C9.27889 16.6089 9.2216 16.5802 9.13306 16.5802H7.50024C7.39608 16.5802 7.32056 16.601 7.27368 16.6427C7.22681 16.6844 7.18514 16.7417 7.14868 16.8146L6.14868 19.088C6.10701 19.1818 6.10441 19.2547 6.14087 19.3068C6.18254 19.3641 6.25285 19.3927 6.35181 19.3927H7.75024L7.84399 18.9396L6.65649 21.8146C6.60962 21.924 6.62524 21.9943 6.70337 22.0255C6.78149 22.062 6.85962 22.0359 6.93774 21.9474L10.2424 18.6115C10.3206 18.5281 10.3466 18.4448 10.3206 18.3615C10.2997 18.2781 10.2346 18.2365 10.1252 18.2365Z"
		fill="currentColor"
	/>
</svg>
