<svg
	color="rgb(var(--foreground, 0, 0, 0))"
	viewBox="0 0 24 24"
	fill="none"
	xmlns="http://www.w3.org/2000/svg"
>
	<path
		d="M3.67188 16.7516H12.125C12.8646 16.7516 13.5312 16.5823 14.125 16.2438C14.7188 15.9 15.1901 15.4391 15.5391 14.861C15.888 14.2828 16.0625 13.6318 16.0625 12.9078C16.0625 12.1891 15.8828 11.5459 15.5234 10.9781C15.1693 10.4104 14.6823 9.95992 14.0625 9.62659C13.4479 9.29325 12.7526 9.12398 11.9766 9.11877C11.6693 8.53544 11.2891 8.03805 10.8359 7.62659C10.388 7.21513 9.88542 6.90263 9.32812 6.68909C8.77083 6.47034 8.17708 6.36096 7.54688 6.36096C6.91146 6.36096 6.3099 6.47555 5.74219 6.70471C5.17448 6.93388 4.66406 7.25419 4.21094 7.66565C3.76302 8.07711 3.39844 8.55888 3.11719 9.11096C2.84115 9.66305 2.67448 10.2594 2.61719 10.9C1.95052 11.0979 1.41927 11.4599 1.02344 11.986C0.632812 12.5068 0.4375 13.111 0.4375 13.7985C0.4375 14.3818 0.572917 14.8948 0.84375 15.3375C1.11458 15.7802 1.49219 16.1266 1.97656 16.3766C2.46615 16.6266 3.03125 16.7516 3.67188 16.7516ZM16.9609 12.5016C17.5339 12.111 17.9844 11.6266 18.3125 11.0485C18.6458 10.4703 18.8125 9.83752 18.8125 9.15002C18.8125 8.43648 18.6406 7.78805 18.2969 7.20471C17.9531 6.61617 17.487 6.14742 16.8984 5.79846C16.3151 5.4495 15.6667 5.27502 14.9531 5.27502C14.2448 5.27502 13.599 5.4495 13.0156 5.79846C12.4375 6.14742 11.987 6.60315 11.6641 7.16565C11.8255 7.33752 11.9766 7.51721 12.1172 7.70471C12.2578 7.89221 12.388 8.09794 12.5078 8.3219C13.3672 8.39482 14.1172 8.61357 14.7578 8.97815C15.3984 9.33752 15.9062 9.8193 16.2812 10.4235C16.6615 11.0224 16.888 11.7151 16.9609 12.5016ZM10.4219 5.54065C10.5521 5.67086 10.7083 5.73596 10.8906 5.73596C11.0729 5.73075 11.224 5.66565 11.3438 5.54065C11.4635 5.41565 11.5234 5.26461 11.5234 5.08752C11.5286 4.91044 11.4688 4.7594 11.3438 4.6344L10.1406 3.43127C10.0156 3.30627 9.86458 3.24377 9.6875 3.24377C9.51042 3.24377 9.35938 3.30627 9.23438 3.43127C9.10938 3.55627 9.04427 3.70992 9.03906 3.89221C9.03906 4.0693 9.10417 4.22034 9.23438 4.34534L10.4219 5.54065ZM14.9531 4.03284C15.1302 4.03284 15.2812 3.97034 15.4062 3.84534C15.5365 3.71513 15.6016 3.56148 15.6016 3.3844V1.6969C15.6016 1.51982 15.5365 1.36877 15.4062 1.24377C15.2812 1.11357 15.1302 1.04846 14.9531 1.04846C14.776 1.04846 14.6224 1.11357 14.4922 1.24377C14.3672 1.36877 14.3047 1.51982 14.3047 1.6969V3.3844C14.3047 3.56148 14.3672 3.71513 14.4922 3.84534C14.6224 3.97034 14.776 4.03284 14.9531 4.03284ZM18.5625 5.54065C18.6823 5.66565 18.8333 5.73075 19.0156 5.73596C19.2031 5.73596 19.3594 5.67086 19.4844 5.54065L20.6797 4.34534C20.8047 4.22034 20.8672 4.0693 20.8672 3.89221C20.8672 3.70992 20.8047 3.55627 20.6797 3.43127C20.5547 3.30627 20.4036 3.24377 20.2266 3.24377C20.0495 3.24377 19.8984 3.30627 19.7734 3.43127L18.5625 4.6344C18.4375 4.7594 18.375 4.91044 18.375 5.08752C18.3802 5.26461 18.4427 5.41565 18.5625 5.54065ZM20.7031 9.79846H22.3984C22.5755 9.79846 22.7266 9.73596 22.8516 9.61096C22.9766 9.48596 23.0391 9.33232 23.0391 9.15002C23.0391 8.97294 22.9766 8.8219 22.8516 8.6969C22.7266 8.56669 22.5755 8.50159 22.3984 8.50159H20.7031C20.5312 8.50159 20.3802 8.56669 20.25 8.6969C20.1198 8.8219 20.0547 8.97294 20.0547 9.15002C20.0547 9.33232 20.1198 9.48596 20.25 9.61096C20.3802 9.73596 20.5312 9.79846 20.7031 9.79846ZM19.7734 14.8844C19.8984 15.0094 20.0495 15.0719 20.2266 15.0719C20.4036 15.0667 20.5547 15.0016 20.6797 14.8766C20.8047 14.7516 20.8672 14.6005 20.8672 14.4235C20.8672 14.2412 20.8047 14.0901 20.6797 13.9703L19.4688 12.775C19.3438 12.65 19.1927 12.5875 19.0156 12.5875C18.8385 12.5875 18.6875 12.65 18.5625 12.775C18.4375 12.8948 18.375 13.0459 18.375 13.2281C18.375 13.4104 18.4375 13.5641 18.5625 13.6891L19.7734 14.8844ZM3.59375 20.5094L4.60938 18.7516C4.68229 18.6318 4.70052 18.5094 4.66406 18.3844C4.63281 18.2646 4.5599 18.1683 4.44531 18.0953C4.32552 18.0276 4.20573 18.0094 4.08594 18.0406C3.96615 18.0771 3.86979 18.1552 3.79688 18.275L2.77344 20.0563C2.70573 20.1656 2.6875 20.2802 2.71875 20.4C2.75 20.525 2.82552 20.6214 2.94531 20.6891C3.0651 20.7568 3.1849 20.7724 3.30469 20.736C3.42969 20.6995 3.52604 20.624 3.59375 20.5094ZM6.03906 22.7125L7.05469 20.9469C7.1276 20.8271 7.14583 20.7047 7.10938 20.5797C7.07812 20.4599 7.00521 20.3662 6.89062 20.2985C6.77083 20.2308 6.65104 20.2125 6.53125 20.2438C6.41146 20.2802 6.3151 20.3584 6.24219 20.4781L5.21875 22.2516C5.15104 22.3662 5.13281 22.4834 5.16406 22.6031C5.19531 22.7229 5.27083 22.8193 5.39062 22.8922C5.51042 22.9547 5.63021 22.9677 5.75 22.9313C5.875 22.9 5.97135 22.8271 6.03906 22.7125ZM9.8125 20.5016L10.8281 18.7438C10.8958 18.624 10.9141 18.5016 10.8828 18.3766C10.8516 18.2568 10.776 18.1604 10.6562 18.0875C10.5417 18.0198 10.4219 18.0016 10.2969 18.0328C10.1771 18.0693 10.0833 18.1474 10.0156 18.2672L8.99219 20.0485C8.92448 20.1578 8.90625 20.2724 8.9375 20.3922C8.96875 20.5172 9.04427 20.6136 9.16406 20.6813C9.27865 20.749 9.39844 20.7646 9.52344 20.7281C9.64844 20.6917 9.74479 20.6162 9.8125 20.5016ZM12.25 22.7047L13.2734 20.9391C13.3411 20.8193 13.3594 20.6969 13.3281 20.5719C13.2969 20.4521 13.2214 20.3584 13.1016 20.2906C12.9818 20.2229 12.862 20.2047 12.7422 20.236C12.6224 20.2724 12.526 20.3505 12.4531 20.4703L11.4297 22.2438C11.3672 22.3584 11.3516 22.4755 11.3828 22.5953C11.4141 22.7151 11.4896 22.8115 11.6094 22.8844C11.724 22.9469 11.8438 22.9599 11.9688 22.9235C12.0938 22.8922 12.1875 22.8193 12.25 22.7047Z"
		fill="currentColor"
	/>
</svg>
