<svg
	color="rgb(var(--foreground, 0, 0, 0))"
	viewBox="0 0 19 24"
	fill="none"
	xmlns="http://www.w3.org/2000/svg"
>
	<path
		d="M3.82812 18.1836H14C14.6562 18.1836 15.2682 18.0664 15.8359 17.832C16.4036 17.6029 16.8984 17.2826 17.3203 16.8711C17.7474 16.4596 18.0781 15.9779 18.3125 15.4258C18.5521 14.8737 18.6719 14.2799 18.6719 13.6445C18.6719 13.0039 18.5495 12.4102 18.3047 11.8633C18.0599 11.3112 17.7161 10.832 17.2734 10.4258C16.8307 10.0195 16.3099 9.70443 15.7109 9.48047C15.112 9.2513 14.4583 9.13672 13.75 9.13672C13.2292 8.10547 12.5104 7.29557 11.5938 6.70703C10.6771 6.11328 9.64062 5.81641 8.48438 5.81641C7.72917 5.81641 7.01302 5.95443 6.33594 6.23047C5.65885 6.5013 5.05208 6.88411 4.51562 7.37891C3.98438 7.8737 3.55208 8.45443 3.21875 9.12109C2.88542 9.78255 2.6849 10.5039 2.61719 11.2852C2.09635 11.431 1.63802 11.668 1.24219 11.9961C0.851562 12.3242 0.546875 12.7201 0.328125 13.1836C0.109375 13.6419 0 14.1497 0 14.707C0 15.3477 0.148438 15.931 0.445312 16.457C0.747396 16.9831 1.18229 17.4023 1.75 17.7148C2.32292 18.0273 3.01562 18.1836 3.82812 18.1836ZM3.8125 16.9258C3.27604 16.9258 2.81771 16.8346 2.4375 16.6523C2.05729 16.4701 1.76562 16.2174 1.5625 15.8945C1.35938 15.5664 1.25781 15.1836 1.25781 14.7461C1.25781 14.1836 1.42969 13.707 1.77344 13.3164C2.11719 12.9206 2.60677 12.6393 3.24219 12.4727C3.46094 12.4154 3.61719 12.332 3.71094 12.2227C3.80469 12.1081 3.85938 11.9362 3.875 11.707C3.92188 11.0456 4.07292 10.4336 4.32812 9.87109C4.58333 9.30859 4.91927 8.81901 5.33594 8.40234C5.7526 7.98047 6.22917 7.65495 6.76562 7.42578C7.30208 7.19141 7.875 7.07422 8.48438 7.07422C9.11458 7.07422 9.69271 7.1862 10.2188 7.41016C10.7448 7.63411 11.2161 7.95964 11.6328 8.38672C12.0495 8.80859 12.4036 9.31901 12.6953 9.91797C12.7891 10.1107 12.901 10.2461 13.0312 10.3242C13.1615 10.3971 13.3464 10.4336 13.5859 10.4336C14.3984 10.4336 15.0885 10.582 15.6562 10.8789C16.2292 11.1706 16.6641 11.5638 16.9609 12.0586C17.2578 12.5482 17.4062 13.0872 17.4062 13.6758C17.4062 14.2852 17.2578 14.8346 16.9609 15.3242C16.6693 15.8138 16.2734 16.2044 15.7734 16.4961C15.2734 16.7826 14.7109 16.9258 14.0859 16.9258H3.8125Z"
		fill="currentColor"
	/>
</svg>
