<svg
	color="rgb(var(--foreground, 0, 0, 0))"
	viewBox="0 0 22 24"
	fill="none"
	xmlns="http://www.w3.org/2000/svg"
>
	<path
		d="M4.12512 18.6057H12.5782C13.3178 18.6057 13.9845 18.4338 14.5782 18.0901C15.172 17.7515 15.6434 17.2932 15.9923 16.7151C16.3413 16.137 16.5157 15.4859 16.5157 14.762C16.5157 14.0432 16.3361 13.4 15.9767 12.8323C15.6225 12.2594 15.1355 11.8088 14.5157 11.4807C13.9012 11.1474 13.2059 10.9781 12.4298 10.9729C12.1225 10.3896 11.7423 9.89217 11.2892 9.48071C10.8413 9.06925 10.3387 8.75415 9.78137 8.5354C9.22408 8.31665 8.63033 8.20728 8.00012 8.20728C7.36471 8.20728 6.76054 8.32446 6.18762 8.55884C5.61991 8.788 5.1121 9.10832 4.66418 9.51978C4.21627 9.93123 3.85168 10.413 3.57043 10.9651C3.29439 11.5172 3.12512 12.1135 3.06262 12.7542C2.40116 12.9521 1.87252 13.314 1.47668 13.8401C1.08085 14.3609 0.882935 14.9651 0.882935 15.6526C0.882935 16.2359 1.01835 16.7489 1.28918 17.1917C1.56523 17.6344 1.94543 17.9807 2.42981 18.2307C2.91939 18.4807 3.4845 18.6057 4.12512 18.6057ZM17.422 14.6135C18.0314 14.5042 18.5756 14.314 19.0548 14.0432C19.5392 13.7672 19.948 13.4495 20.2814 13.0901C20.6199 12.7255 20.8751 12.3531 21.047 11.9729C21.2241 11.5927 21.3126 11.2411 21.3126 10.9182C21.3126 10.7672 21.2788 10.6422 21.2111 10.5432C21.1486 10.4443 21.0548 10.3948 20.9298 10.3948C20.7996 10.3948 20.646 10.4364 20.4689 10.5198C20.2918 10.6031 20.0756 10.6864 19.8204 10.7698C19.5652 10.8531 19.2579 10.8948 18.8986 10.8948C18.2631 10.8948 17.7111 10.775 17.2423 10.5354C16.7788 10.2906 16.4194 9.95207 16.1642 9.51978C15.9142 9.08228 15.7892 8.57446 15.7892 7.99634C15.7892 7.65259 15.8335 7.34009 15.922 7.05884C16.0157 6.77759 16.1069 6.53019 16.1954 6.31665C16.2892 6.10311 16.3361 5.92863 16.3361 5.79321C16.3361 5.67342 16.2944 5.57707 16.2111 5.50415C16.1329 5.42603 16.0157 5.38957 15.8595 5.39478C15.5001 5.4104 15.1251 5.51717 14.7345 5.71509C14.3491 5.913 13.9793 6.18123 13.6251 6.51978C13.2762 6.85832 12.9715 7.25155 12.7111 7.69946C12.4559 8.14738 12.2762 8.63175 12.172 9.15259C12.2918 9.26717 12.409 9.40259 12.5236 9.55884C12.6381 9.70988 12.7449 9.88696 12.8439 10.0901C13.5001 10.1422 14.1043 10.2958 14.6564 10.551C15.2085 10.8062 15.6902 11.1396 16.1017 11.551C16.5131 11.9625 16.8335 12.4312 17.0626 12.9573C17.2918 13.4781 17.4116 14.0302 17.422 14.6135Z"
		fill="currentColor"
	/>
</svg>
