<svg
	color="rgb(var(--foreground, 0, 0, 0))"
	viewBox="0 0 19 24"
	fill="none"
	xmlns="http://www.w3.org/2000/svg"
>
	<path
		d="M3.85156 14.8694H13.5469C14.1875 14.8694 14.7786 14.7574 15.3203 14.5334C15.8672 14.3095 16.3411 13.997 16.7422 13.5959C17.1484 13.1949 17.4609 12.7314 17.6797 12.2053C17.9036 11.6793 18.0156 11.1168 18.0156 10.5178C18.0156 9.89282 17.8958 9.31991 17.6562 8.79907C17.4219 8.27303 17.0911 7.8173 16.6641 7.43188C16.2422 7.04126 15.7474 6.73918 15.1797 6.52563C14.612 6.31209 13.9974 6.20532 13.3359 6.20532C13.013 5.5647 12.599 5.00741 12.0938 4.53345C11.5938 4.05428 11.0234 3.68449 10.3828 3.42407C9.74219 3.16366 9.04427 3.03345 8.28906 3.03345C7.55469 3.03345 6.86198 3.16886 6.21094 3.4397C5.5651 3.70532 4.98698 4.07511 4.47656 4.54907C3.96615 5.02303 3.55208 5.57511 3.23438 6.20532C2.92188 6.83553 2.73438 7.51261 2.67188 8.23657C2.19792 8.37199 1.77344 8.59595 1.39844 8.90845C1.02344 9.21574 0.726562 9.59074 0.507812 10.0334C0.289062 10.4762 0.179688 10.9736 0.179688 11.5256C0.179688 12.1402 0.322917 12.7027 0.609375 13.2131C0.901042 13.7183 1.32031 14.122 1.86719 14.4241C2.41406 14.7209 3.07552 14.8694 3.85156 14.8694ZM4.05469 18.5256L5.07031 16.76C5.14323 16.6402 5.16146 16.5204 5.125 16.4006C5.09375 16.2756 5.02083 16.1793 4.90625 16.1116C4.78646 16.0439 4.66667 16.0282 4.54688 16.0647C4.42708 16.0959 4.33073 16.1715 4.25781 16.2913L3.23438 18.0725C3.16667 18.1819 3.14844 18.2965 3.17969 18.4163C3.21094 18.5413 3.28906 18.6376 3.41406 18.7053C3.52865 18.7678 3.64844 18.7808 3.77344 18.7444C3.89844 18.7131 3.99219 18.6402 4.05469 18.5256ZM6.5 20.7209L7.51562 18.9631C7.58854 18.8433 7.60677 18.7209 7.57031 18.5959C7.53906 18.4762 7.46615 18.3824 7.35156 18.3147C7.23177 18.247 7.11198 18.2288 6.99219 18.26C6.8724 18.2965 6.77604 18.3746 6.70312 18.4944L5.67969 20.2678C5.61198 20.3824 5.59375 20.4996 5.625 20.6194C5.65625 20.7392 5.73177 20.8329 5.85156 20.9006C5.97135 20.9683 6.09115 20.984 6.21094 20.9475C6.33594 20.9163 6.43229 20.8407 6.5 20.7209ZM10.2734 18.5178L11.2891 16.7522C11.362 16.6324 11.3802 16.5126 11.3438 16.3928C11.3125 16.2678 11.237 16.1715 11.1172 16.1038C11.0026 16.0361 10.8828 16.0204 10.7578 16.0569C10.638 16.0881 10.5443 16.1637 10.4766 16.2834L9.45312 18.0647C9.38542 18.1741 9.36719 18.2887 9.39844 18.4084C9.42969 18.5334 9.50521 18.6298 9.625 18.6975C9.73958 18.76 9.85938 18.773 9.98438 18.7366C10.1094 18.7053 10.2057 18.6324 10.2734 18.5178ZM12.7188 20.7131L13.7344 18.9553C13.8021 18.8355 13.8203 18.7131 13.7891 18.5881C13.7578 18.4683 13.6823 18.3746 13.5625 18.3069C13.4427 18.2392 13.3229 18.2209 13.2031 18.2522C13.0833 18.2887 12.9896 18.3668 12.9219 18.4866L11.8906 20.26C11.8281 20.3746 11.8125 20.4918 11.8438 20.6116C11.875 20.7314 11.9505 20.8251 12.0703 20.8928C12.1849 20.9605 12.3047 20.9762 12.4297 20.9397C12.5547 20.9084 12.651 20.8329 12.7188 20.7131Z"
		fill="currentColor"
	/>
</svg>
