<svg
	color="rgb(var(--foreground, 0, 0, 0))"
	viewBox="0 0 19 24"
	fill="none"
	xmlns="http://www.w3.org/2000/svg"
>
	<path
		d="M3.88281 14.2383H13.5781C14.2188 14.2383 14.8099 14.1263 15.3516 13.9023C15.8984 13.6784 16.3724 13.3659 16.7734 12.9648C17.1797 12.5638 17.4922 12.1003 17.7109 11.5742C17.9349 11.0482 18.0469 10.4857 18.0469 9.88672C18.0469 9.26172 17.9271 8.6888 17.6875 8.16797C17.4531 7.64193 17.1224 7.1862 16.6953 6.80078C16.2734 6.41016 15.7786 6.10807 15.2109 5.89453C14.6432 5.68099 14.0286 5.57422 13.3672 5.57422C13.0443 4.93359 12.6302 4.3763 12.125 3.90234C11.625 3.42318 11.0547 3.05339 10.4141 2.79297C9.77344 2.53255 9.07552 2.40234 8.32031 2.40234C7.58594 2.40234 6.89323 2.53776 6.24219 2.80859C5.59635 3.07422 5.01823 3.44401 4.50781 3.91797C3.9974 4.39193 3.58333 4.94401 3.26562 5.57422C2.95312 6.20443 2.76562 6.88151 2.70312 7.60547C2.22917 7.74089 1.80469 7.96484 1.42969 8.27734C1.05469 8.58464 0.757812 8.95964 0.539062 9.40234C0.320312 9.84505 0.210938 10.3424 0.210938 10.8945C0.210938 11.5091 0.354167 12.0716 0.640625 12.582C0.932292 13.0872 1.35156 13.4909 1.89844 13.793C2.44531 14.0898 3.10677 14.2383 3.88281 14.2383ZM4.89062 17.0508L5.41406 16.1289C5.48177 16.0143 5.5 15.8945 5.46875 15.7695C5.4375 15.6445 5.36458 15.5456 5.25 15.4727C5.13021 15.4049 5.00781 15.3893 4.88281 15.4258C4.76302 15.4622 4.66927 15.5378 4.60156 15.6523L4.07031 16.5977C4.00781 16.707 3.98958 16.8242 4.01562 16.9492C4.04688 17.069 4.1224 17.1628 4.24219 17.2305C4.36198 17.2982 4.48177 17.3138 4.60156 17.2773C4.72656 17.2409 4.82292 17.1654 4.89062 17.0508ZM8.29688 18.2461L9.51562 16.1367C9.58333 16.0169 9.60156 15.8971 9.57031 15.7773C9.53906 15.6523 9.46615 15.556 9.35156 15.4883C9.23177 15.4206 9.10938 15.4049 8.98438 15.4414C8.86458 15.4727 8.77083 15.5482 8.70312 15.668L7.47656 17.793C7.41406 17.9023 7.39844 18.0169 7.42969 18.1367C7.46094 18.2617 7.53646 18.3581 7.65625 18.4258C7.77083 18.4935 7.89062 18.5091 8.01562 18.4727C8.14062 18.4362 8.23438 18.3607 8.29688 18.2461ZM13.0781 17.082L13.6016 16.1602C13.6693 16.0404 13.6875 15.9206 13.6562 15.8008C13.625 15.6758 13.5521 15.5768 13.4375 15.5039C13.3177 15.4362 13.1953 15.4206 13.0703 15.457C12.9505 15.4935 12.8568 15.569 12.7891 15.6836L12.2578 16.6289C12.1953 16.7383 12.1771 16.8555 12.2031 16.9805C12.2344 17.1003 12.3099 17.194 12.4297 17.2617C12.5443 17.3242 12.6641 17.3372 12.7891 17.3008C12.9141 17.2695 13.0104 17.1966 13.0781 17.082ZM3.44531 20.4023C3.51823 20.4023 3.57552 20.3737 3.61719 20.3164C3.66406 20.2643 3.6849 20.2018 3.67969 20.1289L3.625 19.3789L4.25 19.8008C4.30729 19.8424 4.3724 19.8555 4.44531 19.8398C4.51823 19.8242 4.57292 19.7878 4.60938 19.7305C4.65104 19.6732 4.66146 19.6055 4.64062 19.5273C4.61979 19.4544 4.57031 19.3997 4.49219 19.3633L3.82031 19.0352L4.5 18.6992C4.57292 18.668 4.61719 18.6159 4.63281 18.543C4.65365 18.4701 4.64844 18.4023 4.61719 18.3398C4.58594 18.2773 4.53125 18.2409 4.45312 18.2305C4.375 18.2201 4.30729 18.2331 4.25 18.2695L3.625 18.6992L3.6875 17.9492C3.69271 17.8711 3.67188 17.806 3.625 17.7539C3.57812 17.7018 3.51823 17.6758 3.44531 17.6758C3.36198 17.6758 3.29688 17.7018 3.25 17.7539C3.20833 17.806 3.1875 17.8711 3.1875 17.9492L3.24219 18.6992L2.60938 18.2695C2.55729 18.2331 2.49479 18.2201 2.42188 18.2305C2.34896 18.2409 2.29427 18.2773 2.25781 18.3398C2.22135 18.4023 2.21094 18.4674 2.22656 18.5352C2.2474 18.6081 2.29427 18.6628 2.36719 18.6992L3.03906 19.0352L2.36719 19.3633C2.29427 19.3997 2.2474 19.4544 2.22656 19.5273C2.20573 19.6003 2.21354 19.668 2.25 19.7305C2.28125 19.793 2.33594 19.8294 2.41406 19.8398C2.49219 19.8555 2.55729 19.8451 2.60938 19.8086L3.24219 19.3867L3.19531 20.1289C3.19531 20.2018 3.21615 20.2643 3.25781 20.3164C3.29948 20.3737 3.36198 20.4023 3.44531 20.4023ZM7.17188 21.5977C7.24479 21.5977 7.30208 21.569 7.34375 21.5117C7.39062 21.4596 7.41146 21.3971 7.40625 21.3242L7.35938 20.582L7.97656 20.9961C8.03385 21.0378 8.09896 21.0508 8.17188 21.0352C8.24479 21.0247 8.30208 20.9883 8.34375 20.9258C8.38021 20.8685 8.38802 20.8008 8.36719 20.7227C8.34635 20.6497 8.29948 20.5951 8.22656 20.5586L7.55469 20.2383L8.23438 19.9023C8.30208 19.8659 8.34635 19.8112 8.36719 19.7383C8.38802 19.6654 8.38281 19.5977 8.35156 19.5352C8.3151 19.4727 8.25781 19.4362 8.17969 19.4258C8.10156 19.4154 8.03385 19.4284 7.97656 19.4648L7.35938 19.9023L7.41406 19.1445C7.42448 19.0716 7.40365 19.0065 7.35156 18.9492C7.30469 18.8971 7.24479 18.8711 7.17188 18.8711C7.09375 18.8711 7.03125 18.8971 6.98438 18.9492C6.9375 19.0065 6.91667 19.0716 6.92188 19.1445L6.96875 19.9023L6.34375 19.4648C6.28646 19.4284 6.22135 19.4154 6.14844 19.4258C6.08073 19.4362 6.02604 19.4727 5.98438 19.5352C5.95312 19.5977 5.94531 19.6628 5.96094 19.7305C5.97656 19.8034 6.02083 19.8607 6.09375 19.9023L6.77344 20.2383L6.09375 20.5664C6.02083 20.5977 5.97396 20.6497 5.95312 20.7227C5.9375 20.7956 5.94531 20.8633 5.97656 20.9258C6.01302 20.9935 6.06771 21.0326 6.14062 21.043C6.21875 21.0534 6.28646 21.0404 6.34375 21.0039L6.96875 20.582L6.92969 21.3242C6.92448 21.3971 6.94271 21.4596 6.98438 21.5117C7.03125 21.569 7.09375 21.5977 7.17188 21.5977ZM11.6328 20.4336C11.7005 20.4336 11.7578 20.4049 11.8047 20.3477C11.8516 20.2904 11.8724 20.2253 11.8672 20.1523L11.8125 19.4102L12.4375 19.832C12.4948 19.8737 12.5599 19.8867 12.6328 19.8711C12.7057 19.8555 12.7604 19.819 12.7969 19.7617C12.8385 19.7044 12.849 19.6367 12.8281 19.5586C12.8073 19.4857 12.7578 19.431 12.6797 19.3945L12.0078 19.0664L12.6875 18.7305C12.7604 18.694 12.8047 18.6393 12.8203 18.5664C12.8411 18.4987 12.8359 18.4336 12.8047 18.3711C12.7734 18.3086 12.7188 18.2721 12.6406 18.2617C12.5625 18.2513 12.4948 18.2643 12.4375 18.3008L11.8125 18.7305L11.875 17.9805C11.8802 17.9023 11.8568 17.8346 11.8047 17.7773C11.7578 17.7253 11.7005 17.6992 11.6328 17.6992C11.5495 17.6992 11.4844 17.7253 11.4375 17.7773C11.3958 17.8346 11.375 17.9023 11.375 17.9805L11.4297 18.7305L10.7969 18.3008C10.7396 18.2643 10.6745 18.2487 10.6016 18.2539C10.5339 18.2643 10.4818 18.3034 10.4453 18.3711C10.4089 18.4336 10.3984 18.4987 10.4141 18.5664C10.4349 18.6393 10.4818 18.694 10.5547 18.7305L11.2266 19.0664L10.5547 19.3945C10.4766 19.431 10.4271 19.4857 10.4062 19.5586C10.3906 19.6315 10.401 19.6992 10.4375 19.7617C10.4688 19.8242 10.5208 19.8607 10.5938 19.8711C10.6719 19.8867 10.7396 19.8737 10.7969 19.832L11.4297 19.418L11.3828 20.1523C11.3828 20.2253 11.4036 20.2904 11.4453 20.3477C11.487 20.4049 11.5495 20.4336 11.6328 20.4336Z"
		fill="currentColor"
	/>
</svg>
