<svg
	color="rgb(var(--foreground, 0, 0, 0))"
	viewBox="0 0 24 24"
	fill="none"
	xmlns="http://www.w3.org/2000/svg"
>
	<path
		d="M3.98438 16.521H12.4375C13.1719 16.521 13.8359 16.3517 14.4297 16.0132C15.0234 15.6694 15.4948 15.2085 15.8438 14.6304C16.1927 14.0522 16.3672 13.4012 16.3672 12.6772C16.3672 11.9585 16.1875 11.3153 15.8281 10.7476C15.474 10.1799 14.9896 9.72933 14.375 9.396C13.7604 9.06266 13.0625 8.89339 12.2812 8.88818C11.9792 8.30485 11.6016 7.80745 11.1484 7.396C10.7005 6.98454 10.1953 6.67204 9.63281 6.4585C9.07552 6.23975 8.48177 6.13037 7.85156 6.13037C7.21615 6.13037 6.61458 6.24495 6.04688 6.47412C5.47917 6.70329 4.97135 7.0236 4.52344 7.43506C4.07552 7.84652 3.71094 8.32829 3.42969 8.88037C3.14844 9.43245 2.97917 10.0288 2.92188 10.6694C2.25521 10.8674 1.72396 11.2293 1.32812 11.7554C0.9375 12.2762 0.742188 12.8804 0.742188 13.5679C0.742188 14.1512 0.877604 14.6642 1.14844 15.1069C1.42448 15.5496 1.80469 15.896 2.28906 16.146C2.77865 16.396 3.34375 16.521 3.98438 16.521ZM17.2656 12.271C17.8385 11.8804 18.2891 11.396 18.6172 10.8179C18.9505 10.2397 19.1172 9.60693 19.1172 8.91943C19.1172 8.20589 18.9453 7.55745 18.6016 6.97412C18.2578 6.38558 17.7917 5.91683 17.2031 5.56787C16.6198 5.21891 15.9714 5.04443 15.2578 5.04443C14.5495 5.04443 13.9036 5.21891 13.3203 5.56787C12.7422 5.91683 12.2917 6.37256 11.9688 6.93506C12.1302 7.10693 12.2812 7.28662 12.4219 7.47412C12.5625 7.66162 12.6927 7.86735 12.8125 8.09131C13.6719 8.16423 14.4219 8.38298 15.0625 8.74756C15.7031 9.10693 16.2109 9.5887 16.5859 10.1929C16.9661 10.7918 17.1927 11.4845 17.2656 12.271ZM10.7266 5.31006C10.8568 5.44027 11.013 5.50537 11.1953 5.50537C11.3776 5.50016 11.5286 5.43506 11.6484 5.31006C11.7682 5.18506 11.8281 5.03402 11.8281 4.85693C11.8333 4.67985 11.7734 4.52881 11.6484 4.40381L10.4453 3.20068C10.3203 3.07568 10.1693 3.01318 9.99219 3.01318C9.8151 3.01318 9.66406 3.07568 9.53906 3.20068C9.41406 3.32568 9.34896 3.47933 9.34375 3.66162C9.34375 3.8387 9.40885 3.98975 9.53906 4.11475L10.7266 5.31006ZM15.2578 3.80225C15.4349 3.80225 15.5859 3.73975 15.7109 3.61475C15.8411 3.48454 15.9062 3.33089 15.9062 3.15381V1.46631C15.9062 1.28923 15.8411 1.13818 15.7109 1.01318C15.5859 0.882975 15.4349 0.817871 15.2578 0.817871C15.0807 0.817871 14.9271 0.882975 14.7969 1.01318C14.6719 1.13818 14.6094 1.28923 14.6094 1.46631V3.15381C14.6094 3.33089 14.6719 3.48454 14.7969 3.61475C14.9271 3.73975 15.0807 3.80225 15.2578 3.80225ZM18.8672 5.31006C18.987 5.43506 19.138 5.50016 19.3203 5.50537C19.5078 5.50537 19.6641 5.44027 19.7891 5.31006L20.9844 4.11475C21.1094 3.98975 21.1719 3.8387 21.1719 3.66162C21.1719 3.47933 21.1094 3.32568 20.9844 3.20068C20.8594 3.07568 20.7083 3.01318 20.5312 3.01318C20.3542 3.01318 20.2031 3.07568 20.0781 3.20068L18.8672 4.40381C18.7422 4.52881 18.6797 4.67985 18.6797 4.85693C18.6849 5.03402 18.7474 5.18506 18.8672 5.31006ZM21.0078 9.56787H22.7031C22.8802 9.56787 23.0312 9.50537 23.1562 9.38037C23.2812 9.25537 23.3438 9.10173 23.3438 8.91943C23.3438 8.74235 23.2812 8.59131 23.1562 8.46631C23.0312 8.3361 22.8802 8.271 22.7031 8.271H21.0078C20.8359 8.271 20.6849 8.3361 20.5547 8.46631C20.4245 8.59131 20.3594 8.74235 20.3594 8.91943C20.3594 9.10173 20.4245 9.25537 20.5547 9.38037C20.6849 9.50537 20.8359 9.56787 21.0078 9.56787ZM20.0781 14.6538C20.2031 14.7788 20.3542 14.8413 20.5312 14.8413C20.7083 14.8361 20.8594 14.771 20.9844 14.646C21.1094 14.521 21.1719 14.37 21.1719 14.1929C21.1719 14.0106 21.1094 13.8595 20.9844 13.7397L19.7734 12.5444C19.6484 12.4194 19.4974 12.3569 19.3203 12.3569C19.1432 12.3569 18.9922 12.4194 18.8672 12.5444C18.7422 12.6642 18.6797 12.8153 18.6797 12.9976C18.6797 13.1799 18.7422 13.3335 18.8672 13.4585L20.0781 14.6538ZM10.5 19.3726H8.78906L8.77344 19.7085L9.66406 18.021C9.71094 17.9325 9.71875 17.8595 9.6875 17.8022C9.65625 17.7502 9.59896 17.7241 9.51562 17.7241H7.88281C7.77344 17.7241 7.69531 17.7424 7.64844 17.7788C7.60156 17.8205 7.5599 17.8804 7.52344 17.9585L6.52344 20.2319C6.48698 20.3257 6.48698 20.3986 6.52344 20.4507C6.5599 20.508 6.6276 20.5366 6.72656 20.5366H8.125L8.22656 20.0757L7.03125 22.9507C6.98438 23.0653 7.0026 23.1382 7.08594 23.1694C7.16406 23.2007 7.23958 23.1746 7.3125 23.0913L10.6172 19.7476C10.7005 19.6694 10.7292 19.5861 10.7031 19.4976C10.6771 19.4142 10.6094 19.3726 10.5 19.3726Z"
		fill="currentColor"
	/>
</svg>
