<svg
	color="rgb(var(--foreground, 0, 0, 0))"
	viewBox="0 0 19 24"
	fill="none"
	xmlns="http://www.w3.org/2000/svg"
>
	<path
		d="M4.35938 14.861H14.0547C14.6953 14.861 15.2865 14.749 15.8281 14.525C16.375 14.3011 16.849 13.9886 17.25 13.5875C17.6562 13.1865 17.9688 12.7229 18.1875 12.1969C18.4115 11.6709 18.5234 11.1084 18.5234 10.5094C18.5234 9.8844 18.4036 9.31148 18.1641 8.79065C17.9297 8.26461 17.599 7.80888 17.1719 7.42346C16.75 7.03284 16.2552 6.73075 15.6875 6.51721C15.1198 6.30367 14.5052 6.1969 13.8438 6.1969C13.5208 5.55627 13.1068 4.99898 12.6016 4.52502C12.1016 4.04586 11.5312 3.67607 10.8906 3.41565C10.25 3.15523 9.55208 3.02502 8.79688 3.02502C8.0625 3.02502 7.36979 3.16044 6.71875 3.43127C6.07292 3.6969 5.49479 4.06669 4.98438 4.54065C4.47396 5.01461 4.0599 5.56669 3.74219 6.1969C3.42969 6.82711 3.24219 7.50419 3.17969 8.22815C2.70573 8.36357 2.28125 8.58752 1.90625 8.90002C1.53125 9.20732 1.23438 9.58232 1.01562 10.025C0.796875 10.4677 0.6875 10.9651 0.6875 11.5172C0.6875 12.1318 0.830729 12.6943 1.11719 13.2047C1.40885 13.7099 1.82812 14.1136 2.375 14.4156C2.92188 14.7125 3.58333 14.861 4.35938 14.861ZM4.34375 13.611C3.80729 13.611 3.36198 13.5198 3.00781 13.3375C2.65365 13.1552 2.38542 12.9104 2.20312 12.6031C2.02604 12.2906 1.9375 11.9417 1.9375 11.5563C1.9375 11.0875 2.08333 10.6604 2.375 10.275C2.66667 9.8844 3.14583 9.60055 3.8125 9.42346C4.03125 9.36617 4.1849 9.28023 4.27344 9.16565C4.36198 9.05107 4.41667 8.8844 4.4375 8.66565C4.47917 8.02502 4.6224 7.43909 4.86719 6.90784C5.11719 6.37138 5.4401 5.90784 5.83594 5.51721C6.23177 5.12138 6.68229 4.81669 7.1875 4.60315C7.69792 4.3844 8.23438 4.27502 8.79688 4.27502C9.67708 4.27502 10.4557 4.5094 11.1328 4.97815C11.8099 5.44169 12.3594 6.10575 12.7812 6.97034C12.8698 7.16305 12.9792 7.29846 13.1094 7.37659C13.2396 7.4495 13.4219 7.48596 13.6562 7.48596C14.4271 7.48596 15.0807 7.62659 15.6172 7.90784C16.1589 8.18388 16.5703 8.55367 16.8516 9.01721C17.1328 9.48075 17.2734 9.98857 17.2734 10.5406C17.2734 11.1084 17.1354 11.624 16.8594 12.0875C16.5833 12.5511 16.2083 12.9209 15.7344 13.1969C15.2604 13.4729 14.7266 13.611 14.1328 13.611H4.34375ZM2.96094 20.736L5.25781 16.7594C5.32552 16.6344 5.34375 16.512 5.3125 16.3922C5.28125 16.2724 5.20573 16.1787 5.08594 16.111C4.96615 16.0433 4.84635 16.025 4.72656 16.0563C4.60677 16.0875 4.51302 16.1656 4.44531 16.2906L2.14062 20.2828C2.07812 20.3922 2.0599 20.5068 2.08594 20.6266C2.11719 20.7516 2.19271 20.8479 2.3125 20.9156C2.43229 20.9781 2.55208 20.9912 2.67188 20.9547C2.79688 20.9235 2.89323 20.8505 2.96094 20.736ZM6.07812 20.736L8.36719 16.7594C8.4401 16.6344 8.45833 16.512 8.42188 16.3922C8.39062 16.2724 8.31771 16.1787 8.20312 16.111C8.08333 16.0433 7.96354 16.025 7.84375 16.0563C7.72396 16.0875 7.6276 16.1656 7.55469 16.2906L5.25781 20.2828C5.19531 20.3922 5.17708 20.5068 5.20312 20.6266C5.23438 20.7516 5.3099 20.8479 5.42969 20.9156C5.54427 20.9781 5.66406 20.9912 5.78906 20.9547C5.91406 20.9235 6.01042 20.8505 6.07812 20.736ZM9.1875 20.736L11.4766 16.7594C11.5495 16.6344 11.5677 16.512 11.5312 16.3922C11.5 16.2724 11.4271 16.1787 11.3125 16.111C11.1927 16.0433 11.0729 16.025 10.9531 16.0563C10.8333 16.0875 10.737 16.1656 10.6641 16.2906L8.36719 20.2828C8.30469 20.3922 8.28646 20.5068 8.3125 20.6266C8.34375 20.7516 8.41927 20.8479 8.53906 20.9156C8.65365 20.9781 8.77344 20.9912 8.89844 20.9547C9.02344 20.9235 9.11979 20.8505 9.1875 20.736ZM12.2734 20.7438L14.5859 16.7438C14.6536 16.6292 14.6719 16.5094 14.6406 16.3844C14.6094 16.2594 14.5339 16.1683 14.4141 16.111C14.2995 16.0485 14.1797 16.0328 14.0547 16.0641C13.9349 16.0901 13.8438 16.163 13.7812 16.2828L11.4844 20.2672C11.4167 20.387 11.3958 20.5068 11.4219 20.6266C11.4531 20.7516 11.526 20.8479 11.6406 20.9156C11.75 20.9781 11.8672 20.9912 11.9922 20.9547C12.1172 20.9235 12.2109 20.8531 12.2734 20.7438Z"
		fill="currentColor"
	/>
</svg>
