<svg
	color="rgb(var(--foreground, 0, 0, 0))"
	viewBox="0 0 19 24"
	fill="none"
	xmlns="http://www.w3.org/2000/svg"
>
	<path
		d="M4.21094 14.5H13.9062C14.5469 14.5 15.138 14.388 15.6797 14.1641C16.2266 13.9401 16.7005 13.6276 17.1016 13.2266C17.5078 12.8255 17.8203 12.362 18.0391 11.8359C18.263 11.3099 18.375 10.7474 18.375 10.1484C18.375 9.52344 18.2552 8.95052 18.0156 8.42969C17.7812 7.90365 17.4505 7.44792 17.0234 7.0625C16.6016 6.67188 16.1068 6.36979 15.5391 6.15625C14.9714 5.94271 14.3568 5.83594 13.6953 5.83594C13.3724 5.19531 12.9583 4.63802 12.4531 4.16406C11.9531 3.6849 11.3828 3.3151 10.7422 3.05469C10.1016 2.79427 9.40365 2.66406 8.64844 2.66406C7.91406 2.66406 7.22135 2.79948 6.57031 3.07031C5.92448 3.33594 5.34635 3.70573 4.83594 4.17969C4.32552 4.65365 3.91146 5.20573 3.59375 5.83594C3.28125 6.46615 3.09375 7.14323 3.03125 7.86719C2.55729 8.0026 2.13281 8.22656 1.75781 8.53906C1.38281 8.84635 1.08594 9.22135 0.867188 9.66406C0.648438 10.1068 0.539062 10.6042 0.539062 11.1562C0.539062 11.7708 0.682292 12.3333 0.96875 12.8438C1.26042 13.349 1.67969 13.7526 2.22656 14.0547C2.77344 14.3516 3.4349 14.5 4.21094 14.5ZM4.65625 18.3984C4.72917 18.3984 4.78646 18.3698 4.82812 18.3125C4.875 18.2604 4.89583 18.1979 4.89062 18.125L4.84375 17.375L5.46094 17.7969C5.51823 17.8385 5.58333 17.8516 5.65625 17.8359C5.72917 17.8203 5.78646 17.7839 5.82812 17.7266C5.86458 17.6693 5.8724 17.6016 5.85156 17.5234C5.83073 17.4505 5.78125 17.3958 5.70312 17.3594L5.03906 17.0312L5.71094 16.6953C5.78385 16.6641 5.82812 16.612 5.84375 16.5391C5.86458 16.4661 5.86198 16.3984 5.83594 16.3359C5.79948 16.2734 5.74219 16.237 5.66406 16.2266C5.58594 16.2161 5.51823 16.2292 5.46094 16.2656L4.84375 16.6953L4.89844 15.9453C4.90885 15.8672 4.88802 15.8021 4.83594 15.75C4.78906 15.6979 4.72917 15.6719 4.65625 15.6719C4.57292 15.6719 4.50781 15.6979 4.46094 15.75C4.41927 15.8021 4.40104 15.8672 4.40625 15.9453L4.45312 16.6953L3.82812 16.2656C3.77083 16.2292 3.70573 16.2161 3.63281 16.2266C3.5599 16.237 3.50521 16.2734 3.46875 16.3359C3.4375 16.3984 3.42969 16.4661 3.44531 16.5391C3.46094 16.6068 3.50521 16.6589 3.57812 16.6953L4.25 17.0312L3.57812 17.3594C3.50521 17.3958 3.45833 17.4505 3.4375 17.5234C3.41667 17.5964 3.42448 17.6641 3.46094 17.7266C3.4974 17.7891 3.55208 17.8255 3.625 17.8359C3.70312 17.8516 3.77083 17.8411 3.82812 17.8047L4.45312 17.3828L4.41406 18.125C4.40885 18.1979 4.42708 18.2604 4.46875 18.3125C4.51042 18.3698 4.57292 18.3984 4.65625 18.3984ZM8.98438 18.3984C9.05729 18.3984 9.11458 18.3698 9.15625 18.3125C9.20312 18.2604 9.22396 18.1979 9.21875 18.125L9.17188 17.375L9.78906 17.7969C9.84635 17.8385 9.91146 17.8516 9.98438 17.8359C10.0573 17.8203 10.1146 17.7839 10.1562 17.7266C10.1927 17.6693 10.2005 17.6016 10.1797 17.5234C10.1589 17.4505 10.1094 17.3958 10.0312 17.3594L9.35938 17.0312L10.0391 16.6953C10.112 16.6641 10.1562 16.612 10.1719 16.5391C10.1927 16.4661 10.1901 16.3984 10.1641 16.3359C10.1276 16.2734 10.0703 16.237 9.99219 16.2266C9.91406 16.2161 9.84635 16.2292 9.78906 16.2656L9.17188 16.6953L9.22656 15.9453C9.23698 15.8672 9.21615 15.8021 9.16406 15.75C9.11719 15.6979 9.05729 15.6719 8.98438 15.6719C8.90104 15.6719 8.83594 15.6979 8.78906 15.75C8.7474 15.8021 8.72917 15.8672 8.73438 15.9453L8.78125 16.6953L8.14844 16.2656C8.09635 16.2292 8.03385 16.2161 7.96094 16.2266C7.88802 16.237 7.83333 16.2734 7.79688 16.3359C7.76042 16.3984 7.75 16.4661 7.76562 16.5391C7.78646 16.6068 7.83333 16.6589 7.90625 16.6953L8.57812 17.0312L7.90625 17.3594C7.83333 17.3958 7.78646 17.4505 7.76562 17.5234C7.74479 17.5964 7.7526 17.6641 7.78906 17.7266C7.82552 17.7891 7.88021 17.8255 7.95312 17.8359C8.03125 17.8516 8.09635 17.8411 8.14844 17.8047L8.78125 17.3828L8.74219 18.125C8.73698 18.1979 8.75521 18.2604 8.79688 18.3125C8.83854 18.3698 8.90104 18.3984 8.98438 18.3984ZM13.3125 18.3984C13.3854 18.3984 13.4427 18.3698 13.4844 18.3125C13.5312 18.2604 13.5521 18.1979 13.5469 18.125L13.4922 17.375L14.1172 17.7969C14.1745 17.8385 14.2396 17.8516 14.3125 17.8359C14.3854 17.8203 14.4427 17.7839 14.4844 17.7266C14.5208 17.6693 14.5286 17.6016 14.5078 17.5234C14.487 17.4505 14.4375 17.3958 14.3594 17.3594L13.6875 17.0312L14.3672 16.6953C14.4401 16.6641 14.4844 16.612 14.5 16.5391C14.5208 16.4661 14.5182 16.3984 14.4922 16.3359C14.4557 16.2734 14.3984 16.237 14.3203 16.2266C14.2422 16.2161 14.1745 16.2292 14.1172 16.2656L13.4922 16.6953L13.5547 15.9453C13.5651 15.8672 13.5443 15.8021 13.4922 15.75C13.4453 15.6979 13.3854 15.6719 13.3125 15.6719C13.2292 15.6719 13.1641 15.6979 13.1172 15.75C13.0755 15.8021 13.0573 15.8672 13.0625 15.9453L13.1094 16.6953L12.4766 16.2656C12.4245 16.2292 12.362 16.2161 12.2891 16.2266C12.2161 16.237 12.1615 16.2734 12.125 16.3359C12.0885 16.3984 12.0781 16.4661 12.0938 16.5391C12.1146 16.6068 12.1615 16.6589 12.2344 16.6953L12.9062 17.0312L12.2344 17.3594C12.1615 17.3958 12.1146 17.4505 12.0938 17.5234C12.0729 17.5964 12.0807 17.6641 12.1172 17.7266C12.1536 17.7891 12.2083 17.8255 12.2812 17.8359C12.3594 17.8516 12.4245 17.8411 12.4766 17.8047L13.1094 17.3828L13.0703 18.125C13.0651 18.1979 13.0833 18.2604 13.125 18.3125C13.1667 18.3698 13.2292 18.3984 13.3125 18.3984ZM2.96094 21.3359C3.03385 21.3359 3.09115 21.3073 3.13281 21.25C3.17969 21.1927 3.20052 21.1276 3.19531 21.0547L3.14844 20.3125L3.76562 20.7344C3.82292 20.7708 3.88802 20.7812 3.96094 20.7656C4.03385 20.7552 4.09115 20.7188 4.13281 20.6562C4.16927 20.599 4.17708 20.5312 4.15625 20.4531C4.13542 20.3802 4.08594 20.3255 4.00781 20.2891L3.34375 19.9688L4.01562 19.6328C4.08854 19.5964 4.13281 19.5417 4.14844 19.4688C4.16927 19.3958 4.16667 19.3307 4.14062 19.2734C4.10417 19.2109 4.04688 19.1719 3.96875 19.1562C3.89062 19.1458 3.82292 19.1589 3.76562 19.1953L3.14844 19.6328L3.20312 18.875C3.21354 18.8021 3.19271 18.737 3.14062 18.6797C3.09375 18.6276 3.03385 18.6016 2.96094 18.6016C2.8776 18.6016 2.8125 18.6276 2.76562 18.6797C2.72396 18.737 2.70573 18.8021 2.71094 18.875L2.75781 19.6328L2.13281 19.1953C2.07552 19.1589 2.01042 19.1458 1.9375 19.1562C1.86458 19.1667 1.8099 19.2057 1.77344 19.2734C1.74219 19.3307 1.73438 19.3932 1.75 19.4609C1.76562 19.5339 1.8099 19.5911 1.88281 19.6328L2.55469 19.9688L1.88281 20.2969C1.8099 20.3281 1.76302 20.3802 1.74219 20.4531C1.72135 20.526 1.72917 20.5938 1.76562 20.6562C1.80208 20.724 1.85677 20.763 1.92969 20.7734C2.00781 20.7839 2.07552 20.7708 2.13281 20.7344L2.75781 20.3125L2.71875 21.0547C2.71354 21.1276 2.73177 21.1927 2.77344 21.25C2.8151 21.3073 2.8776 21.3359 2.96094 21.3359ZM7.28906 21.3359C7.36198 21.3359 7.41927 21.3073 7.46094 21.25C7.50781 21.1927 7.52865 21.1276 7.52344 21.0547L7.47656 20.3125L8.09375 20.7344C8.15104 20.7708 8.21615 20.7812 8.28906 20.7656C8.36198 20.7552 8.41927 20.7188 8.46094 20.6562C8.4974 20.599 8.50521 20.5312 8.48438 20.4531C8.46354 20.3802 8.41406 20.3255 8.33594 20.2891L7.66406 19.9688L8.34375 19.6328C8.41667 19.5964 8.46094 19.5417 8.47656 19.4688C8.4974 19.3958 8.49479 19.3307 8.46875 19.2734C8.43229 19.2109 8.375 19.1719 8.29688 19.1562C8.21875 19.1458 8.15104 19.1589 8.09375 19.1953L7.47656 19.6328L7.53125 18.875C7.54167 18.8021 7.52083 18.737 7.46875 18.6797C7.42188 18.6276 7.36198 18.6016 7.28906 18.6016C7.20573 18.6016 7.14062 18.6276 7.09375 18.6797C7.05208 18.737 7.03385 18.8021 7.03906 18.875L7.08594 19.6328L6.45312 19.1953C6.40104 19.1589 6.33854 19.1458 6.26562 19.1562C6.19271 19.1667 6.13802 19.2057 6.10156 19.2734C6.07031 19.3307 6.0625 19.3932 6.07812 19.4609C6.09375 19.5339 6.13802 19.5911 6.21094 19.6328L6.88281 19.9688L6.21094 20.2969C6.13802 20.3281 6.09115 20.3802 6.07031 20.4531C6.04948 20.526 6.05729 20.5938 6.09375 20.6562C6.13021 20.724 6.1849 20.763 6.25781 20.7734C6.33594 20.7839 6.40104 20.7708 6.45312 20.7344L7.08594 20.3125L7.04688 21.0547C7.04167 21.1276 7.0599 21.1927 7.10156 21.25C7.14323 21.3073 7.20573 21.3359 7.28906 21.3359ZM11.6172 21.3359C11.6901 21.3359 11.7474 21.3073 11.7891 21.25C11.8359 21.1927 11.8568 21.1276 11.8516 21.0547L11.7969 20.3125L12.4219 20.7344C12.4792 20.7708 12.5443 20.7812 12.6172 20.7656C12.6901 20.7552 12.7474 20.7188 12.7891 20.6562C12.8255 20.599 12.8333 20.5312 12.8125 20.4531C12.7917 20.3802 12.7422 20.3255 12.6641 20.2891L11.9922 19.9688L12.6719 19.6328C12.7448 19.5964 12.7891 19.5417 12.8047 19.4688C12.8255 19.3958 12.8229 19.3307 12.7969 19.2734C12.7604 19.2109 12.7031 19.1719 12.625 19.1562C12.5469 19.1458 12.4792 19.1589 12.4219 19.1953L11.7969 19.6328L11.8594 18.875C11.8698 18.8021 11.849 18.737 11.7969 18.6797C11.75 18.6276 11.6901 18.6016 11.6172 18.6016C11.5339 18.6016 11.4688 18.6276 11.4219 18.6797C11.3802 18.737 11.362 18.8021 11.3672 18.875L11.4141 19.6328L10.7812 19.1953C10.7292 19.1589 10.6667 19.1458 10.5938 19.1562C10.5208 19.1667 10.4661 19.2057 10.4297 19.2734C10.3932 19.3307 10.3828 19.3932 10.3984 19.4609C10.4193 19.5339 10.4661 19.5911 10.5391 19.6328L11.2109 19.9688L10.5391 20.2969C10.4661 20.3281 10.4193 20.3802 10.3984 20.4531C10.3776 20.526 10.3854 20.5938 10.4219 20.6562C10.4583 20.724 10.513 20.763 10.5859 20.7734C10.6641 20.7839 10.7292 20.7708 10.7812 20.7344L11.4141 20.3125L11.375 21.0547C11.3698 21.1276 11.388 21.1927 11.4297 21.25C11.4714 21.3073 11.5339 21.3359 11.6172 21.3359Z"
		fill="currentColor"
	/>
</svg>
