<svg
	color="rgb(var(--foreground, 0, 0, 0))"
	viewBox="0 0 19 24"
	fill="none"
	xmlns="http://www.w3.org/2000/svg"
>
	<path
		d="M4.55469 14.4585H14.25C14.8906 14.4585 15.4818 14.3465 16.0234 14.1226C16.5703 13.8986 17.0443 13.5861 17.4453 13.1851C17.8516 12.784 18.1641 12.3205 18.3828 11.7944C18.6068 11.2684 18.7188 10.7059 18.7188 10.1069C18.7188 9.48193 18.599 8.90902 18.3594 8.38818C18.125 7.86214 17.7943 7.40641 17.3672 7.021C16.9453 6.63037 16.4505 6.32829 15.8828 6.11475C15.3151 5.9012 14.7005 5.79443 14.0391 5.79443C13.7161 5.15381 13.3021 4.59652 12.7969 4.12256C12.2969 3.64339 11.7266 3.2736 11.0859 3.01318C10.4453 2.75277 9.7474 2.62256 8.99219 2.62256C8.25781 2.62256 7.5651 2.75798 6.91406 3.02881C6.26823 3.29443 5.6901 3.66423 5.17969 4.13818C4.66927 4.61214 4.25521 5.16423 3.9375 5.79443C3.625 6.42464 3.4375 7.10173 3.375 7.82568C2.90104 7.9611 2.47656 8.18506 2.10156 8.49756C1.72656 8.80485 1.42969 9.17985 1.21094 9.62256C0.992188 10.0653 0.882812 10.5627 0.882812 11.1147C0.882812 11.7293 1.02604 12.2918 1.3125 12.8022C1.60417 13.3075 2.02344 13.7111 2.57031 14.0132C3.11719 14.3101 3.77865 14.4585 4.55469 14.4585ZM11.6797 17.3569H9.90625L9.89062 17.7085L10.8438 15.8804C10.8906 15.7918 10.8984 15.7189 10.8672 15.6616C10.8359 15.6043 10.7786 15.5757 10.6953 15.5757H9C8.89062 15.5757 8.8099 15.5965 8.75781 15.6382C8.70573 15.6799 8.66146 15.7397 8.625 15.8179L7.5625 18.2397C7.52083 18.3387 7.51823 18.4142 7.55469 18.4663C7.59635 18.5236 7.66667 18.5522 7.76562 18.5522H9.21094L9.3125 18.0913L8.05469 21.146C8.00781 21.2606 8.02604 21.3335 8.10938 21.3647C8.1875 21.396 8.26823 21.37 8.35156 21.2866L11.8047 17.7476C11.888 17.659 11.9167 17.5705 11.8906 17.4819C11.8646 17.3986 11.7943 17.3569 11.6797 17.3569Z"
		fill="currentColor"
	/>
</svg>
