<svg
	color="rgb(var(--foreground, 0, 0, 0))"
	viewBox="0 0 21 24"
	fill="none"
	xmlns="http://www.w3.org/2000/svg"
>
	<path
		d="M3.65625 18.7561H12.1094C12.8646 18.7561 13.5443 18.5816 14.1484 18.2327C14.7526 17.8889 15.2318 17.4228 15.5859 16.8342C15.9453 16.2405 16.125 15.5764 16.125 14.8421C16.125 14.1129 15.9427 13.4592 15.5781 12.8811C15.2188 12.303 14.7292 11.8447 14.1094 11.5061C13.4896 11.1624 12.7891 10.9853 12.0078 10.9749C11.5495 10.1207 10.9297 9.44883 10.1484 8.95924C9.3724 8.46445 8.5 8.21706 7.53125 8.21706C6.88542 8.21706 6.27344 8.33424 5.69531 8.56862C5.1224 8.79778 4.60938 9.1207 4.15625 9.53737C3.70312 9.94883 3.33333 10.4332 3.04688 10.9905C2.76562 11.5426 2.59115 12.1389 2.52344 12.7796C1.8724 12.9827 1.34635 13.3499 0.945312 13.8811C0.544271 14.4072 0.34375 15.0243 0.34375 15.7327C0.34375 16.3212 0.481771 16.8421 0.757812 17.2952C1.03385 17.7483 1.41927 18.1051 1.91406 18.3655C2.41406 18.6259 2.99479 18.7561 3.65625 18.7561ZM3.625 17.5061C3.18229 17.5061 2.8099 17.4306 2.50781 17.2796C2.20573 17.1233 1.97656 16.915 1.82031 16.6546C1.66927 16.3889 1.59375 16.0921 1.59375 15.7639C1.59375 15.3525 1.72135 14.9775 1.97656 14.6389C2.23177 14.3004 2.64844 14.053 3.22656 13.8967C3.41406 13.8499 3.54688 13.777 3.625 13.678C3.70833 13.579 3.75781 13.4306 3.77344 13.2327C3.82031 12.6858 3.94792 12.1832 4.15625 11.7249C4.36979 11.2665 4.64583 10.8681 4.98438 10.5296C5.32812 10.191 5.71615 9.9306 6.14844 9.74831C6.58594 9.56081 7.04688 9.46706 7.53125 9.46706C8.03646 9.46706 8.5026 9.5582 8.92969 9.74049C9.35677 9.91758 9.73958 10.178 10.0781 10.5217C10.4167 10.8603 10.7083 11.2717 10.9531 11.7561C11.0365 11.928 11.1328 12.0478 11.2422 12.1155C11.3568 12.178 11.513 12.2092 11.7109 12.2092C12.3828 12.2092 12.9531 12.3316 13.4219 12.5764C13.8958 12.816 14.2552 13.1389 14.5 13.5452C14.7448 13.9514 14.8672 14.3967 14.8672 14.8811C14.8672 15.3655 14.7474 15.8082 14.5078 16.2092C14.2682 16.6051 13.9401 16.9202 13.5234 17.1546C13.112 17.3889 12.6484 17.5061 12.1328 17.5061H3.625ZM15.4375 14.7717C16.0208 14.8082 16.5599 14.7796 17.0547 14.6858C17.5495 14.5921 17.9974 14.4514 18.3984 14.2639C18.8047 14.0712 19.1615 13.8421 19.4688 13.5764C19.7812 13.3108 20.0469 13.0243 20.2656 12.7171C20.4896 12.4046 20.6641 12.0868 20.7891 11.7639C20.9193 11.4462 20.9141 11.1676 20.7734 10.928C20.6328 10.6884 20.4089 10.5686 20.1016 10.5686C19.8672 10.5686 19.6328 10.6025 19.3984 10.6702C19.1641 10.7379 18.8385 10.7717 18.4219 10.7717C17.7552 10.7717 17.1953 10.6546 16.7422 10.4202C16.2943 10.1858 15.9531 9.84987 15.7188 9.41237C15.4896 8.97487 15.375 8.45403 15.375 7.84987C15.375 7.5582 15.3984 7.3056 15.4453 7.09206C15.4922 6.87331 15.5365 6.6806 15.5781 6.51393C15.625 6.34726 15.6484 6.19101 15.6484 6.04518C15.6484 5.72747 15.526 5.49831 15.2812 5.35768C15.0417 5.21706 14.75 5.20664 14.4062 5.32643C13.9948 5.46185 13.6042 5.67018 13.2344 5.95143C12.8646 6.22747 12.5391 6.56341 12.2578 6.95924C11.9766 7.34987 11.7526 7.78476 11.5859 8.26393C11.4245 8.7431 11.3438 9.25351 11.3438 9.79518C11.3438 10.1441 11.375 10.4853 11.4375 10.8186C11.5 11.152 11.5938 11.4723 11.7188 11.7796L13.0156 11.7561C12.6667 11.178 12.4922 10.5165 12.4922 9.77174C12.4922 9.39153 12.5417 9.03476 12.6406 8.70143C12.7448 8.3681 12.8854 8.06341 13.0625 7.78737C13.2448 7.51133 13.4505 7.26653 13.6797 7.05299C13.9141 6.83945 14.1589 6.66237 14.4141 6.52174L14.5 6.58424C14.4375 6.77174 14.3802 6.9931 14.3281 7.24831C14.276 7.50351 14.25 7.78216 14.25 8.08424C14.25 8.83424 14.4167 9.4931 14.75 10.0608C15.0885 10.6285 15.5521 11.0738 16.1406 11.3967C16.7292 11.7145 17.401 11.8733 18.1562 11.8733C18.4323 11.8733 18.6927 11.8525 18.9375 11.8108C19.1875 11.7691 19.4036 11.7197 19.5859 11.6624L19.6406 11.7171C19.5104 11.9671 19.3229 12.2145 19.0781 12.4592C18.8385 12.6988 18.5443 12.915 18.1953 13.1077C17.8464 13.3004 17.4401 13.4462 16.9766 13.5452C16.5182 13.6441 16.0052 13.6702 15.4375 13.6233V14.7717Z"
		fill="currentColor"
	/>
</svg>
