<svg
	color="rgb(var(--foreground, 0, 0, 0))"
	viewBox="0 0 19 24"
	fill="none"
	xmlns="http://www.w3.org/2000/svg"
>
	<path
		d="M4.53906 14.75H14.2344C14.875 14.75 15.4661 14.638 16.0078 14.4141C16.5547 14.1901 17.0286 13.8776 17.4297 13.4766C17.8359 13.0755 18.1484 12.612 18.3672 12.0859C18.5911 11.5599 18.7031 10.9974 18.7031 10.3984C18.7031 9.77344 18.5833 9.20052 18.3438 8.67969C18.1094 8.15365 17.7786 7.69792 17.3516 7.3125C16.9297 6.92188 16.4349 6.61979 15.8672 6.40625C15.2995 6.19271 14.6849 6.08594 14.0234 6.08594C13.7005 5.44531 13.2865 4.88802 12.7812 4.41406C12.2812 3.9349 11.7109 3.5651 11.0703 3.30469C10.4297 3.04427 9.73177 2.91406 8.97656 2.91406C8.24219 2.91406 7.54948 3.04948 6.89844 3.32031C6.2526 3.58594 5.67448 3.95573 5.16406 4.42969C4.65365 4.90365 4.23958 5.45573 3.92188 6.08594C3.60938 6.71615 3.42188 7.39323 3.35938 8.11719C2.88542 8.2526 2.46094 8.47656 2.08594 8.78906C1.71094 9.09635 1.41406 9.47135 1.19531 9.91406C0.976562 10.3568 0.867188 10.8542 0.867188 11.4062C0.867188 12.0208 1.01042 12.5833 1.29688 13.0938C1.58854 13.599 2.00781 14.0026 2.55469 14.3047C3.10156 14.6016 3.76302 14.75 4.53906 14.75ZM5.54688 17.5625L6.07031 16.6406C6.13802 16.526 6.15625 16.4062 6.125 16.2812C6.09375 16.1562 6.02083 16.0573 5.90625 15.9844C5.78646 15.9167 5.66406 15.901 5.53906 15.9375C5.41927 15.974 5.32552 16.0495 5.25781 16.1641L4.72656 17.1094C4.66406 17.2188 4.64583 17.3359 4.67188 17.4609C4.70312 17.5807 4.77865 17.6745 4.89844 17.7422C5.01823 17.8099 5.13802 17.8255 5.25781 17.7891C5.38281 17.7526 5.47917 17.6771 5.54688 17.5625ZM8.95312 18.7578L10.1719 16.6484C10.2396 16.5286 10.2578 16.4089 10.2266 16.2891C10.1953 16.1641 10.1224 16.0677 10.0078 16C9.88802 15.9323 9.76562 15.9167 9.64062 15.9531C9.52083 15.9844 9.42708 16.0599 9.35938 16.1797L8.13281 18.3047C8.07031 18.4141 8.05469 18.5286 8.08594 18.6484C8.11719 18.7734 8.19271 18.8698 8.3125 18.9375C8.42708 19.0052 8.54688 19.0208 8.67188 18.9844C8.79688 18.9479 8.89062 18.8724 8.95312 18.7578ZM13.7344 17.5938L14.2578 16.6719C14.3255 16.5521 14.3438 16.4323 14.3125 16.3125C14.2812 16.1875 14.2083 16.0885 14.0938 16.0156C13.974 15.9479 13.8516 15.9323 13.7266 15.9688C13.6068 16.0052 13.513 16.0807 13.4453 16.1953L12.9141 17.1406C12.8516 17.25 12.8333 17.3672 12.8594 17.4922C12.8906 17.612 12.9661 17.7057 13.0859 17.7734C13.2005 17.8359 13.3203 17.849 13.4453 17.8125C13.5703 17.7812 13.6667 17.7083 13.7344 17.5938ZM4.16406 19.8906C4.39323 19.8906 4.59115 19.8047 4.75781 19.6328C4.92448 19.4661 5.00781 19.2656 5.00781 19.0312C5.00781 18.8073 4.92448 18.612 4.75781 18.4453C4.59115 18.2786 4.39323 18.1953 4.16406 18.1953C3.92969 18.1953 3.72917 18.2786 3.5625 18.4453C3.39583 18.612 3.3125 18.8073 3.3125 19.0312C3.3125 19.2656 3.39583 19.4661 3.5625 19.6328C3.72917 19.8047 3.92969 19.8906 4.16406 19.8906ZM7.57031 21.0859C7.80469 21.0859 8.00521 21 8.17188 20.8281C8.33854 20.6615 8.42188 20.4609 8.42188 20.2266C8.42188 20.0026 8.33854 19.8073 8.17188 19.6406C8.00521 19.474 7.80469 19.3906 7.57031 19.3906C7.34115 19.3906 7.14323 19.474 6.97656 19.6406C6.8099 19.8073 6.72656 20.0026 6.72656 20.2266C6.72656 20.4609 6.8099 20.6615 6.97656 20.8281C7.14323 21 7.34115 21.0859 7.57031 21.0859ZM12.3516 19.9219C12.5807 19.9219 12.7786 19.8359 12.9453 19.6641C13.112 19.4974 13.1953 19.2969 13.1953 19.0625C13.1953 18.8333 13.112 18.6354 12.9453 18.4688C12.7786 18.3021 12.5807 18.2188 12.3516 18.2188C12.1172 18.2188 11.9167 18.3021 11.75 18.4688C11.5833 18.6354 11.5 18.8333 11.5 19.0625C11.5 19.2969 11.5833 19.4974 11.75 19.6641C11.9167 19.8359 12.1172 19.9219 12.3516 19.9219Z"
		fill="currentColor"
	/>
</svg>
