<svg
	color="rgb(var(--foreground, 0, 0, 0))"
	viewBox="0 0 18 24"
	fill="none"
	xmlns="http://www.w3.org/2000/svg"
>
	<path
		d="M3.71875 14.4585H13.4141C14.0547 14.4585 14.6458 14.3465 15.1875 14.1226C15.7344 13.8986 16.2083 13.5861 16.6094 13.1851C17.0156 12.784 17.3281 12.3205 17.5469 11.7944C17.7708 11.2684 17.8828 10.7059 17.8828 10.1069C17.8828 9.48193 17.763 8.90902 17.5234 8.38818C17.2891 7.86214 16.9583 7.40641 16.5312 7.021C16.1094 6.63037 15.6146 6.32829 15.0469 6.11475C14.4792 5.9012 13.8646 5.79443 13.2031 5.79443C12.8802 5.15381 12.4661 4.59652 11.9609 4.12256C11.4609 3.64339 10.8906 3.2736 10.25 3.01318C9.60938 2.75277 8.91146 2.62256 8.15625 2.62256C7.42188 2.62256 6.72917 2.75798 6.07812 3.02881C5.43229 3.29443 4.85417 3.66423 4.34375 4.13818C3.83333 4.61214 3.41927 5.16423 3.10156 5.79443C2.78906 6.42464 2.60156 7.10173 2.53906 7.82568C2.0651 7.9611 1.64062 8.18506 1.26562 8.49756C0.890625 8.80485 0.59375 9.17985 0.375 9.62256C0.15625 10.0653 0.046875 10.5627 0.046875 11.1147C0.046875 11.7293 0.190104 12.2918 0.476562 12.8022C0.768229 13.3075 1.1875 13.7111 1.73438 14.0132C2.28125 14.3101 2.94271 14.4585 3.71875 14.4585ZM3.70312 13.2085C3.16667 13.2085 2.72135 13.1174 2.36719 12.9351C2.01302 12.7528 1.74479 12.508 1.5625 12.2007C1.38542 11.8882 1.29688 11.5392 1.29688 11.1538C1.29688 10.6851 1.44271 10.258 1.73438 9.87256C2.02604 9.48193 2.50521 9.19808 3.17188 9.021C3.39062 8.9637 3.54427 8.87777 3.63281 8.76318C3.72135 8.6486 3.77604 8.48193 3.79688 8.26318C3.83854 7.62256 3.98177 7.03662 4.22656 6.50537C4.47656 5.96891 4.79948 5.50537 5.19531 5.11475C5.59115 4.71891 6.04167 4.41423 6.54688 4.20068C7.05729 3.98193 7.59375 3.87256 8.15625 3.87256C9.03646 3.87256 9.8151 4.10693 10.4922 4.57568C11.1693 5.03923 11.7188 5.70329 12.1406 6.56787C12.2292 6.76058 12.3385 6.896 12.4688 6.97412C12.599 7.04704 12.7812 7.0835 13.0156 7.0835C13.7865 7.0835 14.4401 7.22412 14.9766 7.50537C15.5182 7.78141 15.9297 8.1512 16.2109 8.61475C16.4922 9.07829 16.6328 9.5861 16.6328 10.1382C16.6328 10.7059 16.4948 11.2215 16.2188 11.6851C15.9427 12.1486 15.5677 12.5184 15.0938 12.7944C14.6198 13.0705 14.0859 13.2085 13.4922 13.2085H3.70312ZM10.8438 17.3569H9.07031L9.05469 17.7085L10.0078 15.8804C10.0547 15.7918 10.0625 15.7189 10.0312 15.6616C10 15.6043 9.94271 15.5757 9.85938 15.5757H8.16406C8.05469 15.5757 7.97396 15.5965 7.92188 15.6382C7.86979 15.6799 7.82552 15.7397 7.78906 15.8179L6.72656 18.2397C6.6849 18.3387 6.68229 18.4142 6.71875 18.4663C6.76042 18.5236 6.83073 18.5522 6.92969 18.5522H8.375L8.47656 18.0913L7.21875 21.146C7.17188 21.2606 7.1901 21.3335 7.27344 21.3647C7.35156 21.396 7.43229 21.37 7.51562 21.2866L10.9688 17.7476C11.0521 17.659 11.0807 17.5705 11.0547 17.4819C11.0286 17.3986 10.9583 17.3569 10.8438 17.3569Z"
		fill="currentColor"
	/>
</svg>
