<svg
	color="rgb(var(--foreground, 0, 0, 0))"
	viewBox="0 0 12 24"
	fill="none"
	xmlns="http://www.w3.org/2000/svg"
>
	<path
		d="M6.10022 19.9102C9.35022 19.9102 11.5143 17.793 11.5143 14.6211C11.5143 13.0586 10.9049 11.5039 10.444 10.4648C9.60803 8.58203 8.29553 6.51172 7.15491 4.74609C6.88147 4.33203 6.56116 4.08984 6.10022 4.08984C5.63928 4.08984 5.31897 4.33203 5.04553 4.74609C3.90491 6.51172 2.59241 8.58203 1.75647 10.4648C1.30334 11.5039 0.686157 13.0586 0.686157 14.6211C0.686157 17.793 2.85022 19.9102 6.10022 19.9102ZM6.10022 18.6289C3.61584 18.6289 1.96741 17.0273 1.96741 14.6211C1.96741 13.3398 2.45959 12.0977 2.89709 11.082C3.77209 9.02734 4.92834 7.33984 6.02209 5.69141C6.07678 5.61328 6.13928 5.61328 6.18616 5.69141C7.27209 7.33984 8.43616 9.02734 9.29553 11.0742C9.74084 12.0977 10.2408 13.3398 10.2408 14.6211C10.2408 17.0273 8.58459 18.6289 6.10022 18.6289Z"
		fill="currentColor"
	/>
</svg>
