<svg
	color="rgb(var(--foreground, 0, 0, 0))"
	viewBox="0 0 18 24"
	fill="none"
	xmlns="http://www.w3.org/2000/svg"
>
	<path
		d="M14.3033 18.8281C14.9283 18.8281 15.496 18.6797 16.0064 18.3828C16.5221 18.0859 16.9309 17.6875 17.233 17.1875C17.5351 16.6927 17.6861 16.138 17.6861 15.5234C17.6861 15.0182 17.582 14.5234 17.3736 14.0391C17.1705 13.5547 16.9622 13.112 16.7486 12.7109L15.0064 9.46875C14.9127 9.29167 14.8137 9.16406 14.7096 9.08594C14.6106 9.00781 14.4752 8.96875 14.3033 8.96875C14.1262 8.96875 13.9856 9.00781 13.8814 9.08594C13.7825 9.16406 13.6861 9.29167 13.5924 9.46875L11.8658 12.7109C11.6471 13.112 11.4361 13.5547 11.233 14.0391C11.0299 14.5234 10.9283 15.0182 10.9283 15.5234C10.9283 16.138 11.0794 16.6927 11.3814 17.1875C11.6835 17.6875 12.0898 18.0859 12.6002 18.3828C13.1106 18.6797 13.6783 18.8281 14.3033 18.8281ZM14.3033 17.7969C13.871 17.7969 13.4752 17.6953 13.1158 17.4922C12.7616 17.2891 12.4804 17.0182 12.2721 16.6797C12.0637 16.3359 11.9596 15.9505 11.9596 15.5234C11.9596 15.138 12.0429 14.7552 12.2096 14.375C12.3762 13.9896 12.5663 13.5964 12.7799 13.1953L14.233 10.5C14.2538 10.4583 14.2799 10.4375 14.3111 10.4375C14.3424 10.4375 14.3684 10.4583 14.3892 10.5L15.8189 13.1953C16.0325 13.5964 16.2252 13.9896 16.3971 14.375C16.5689 14.7552 16.6549 15.138 16.6549 15.5234C16.6549 15.9505 16.5481 16.3359 16.3346 16.6797C16.1262 17.0182 15.845 17.2891 15.4908 17.4922C15.1366 17.6953 14.7408 17.7969 14.3033 17.7969ZM4.0455 9.375C4.73821 9.375 5.37623 9.27604 5.95956 9.07812C6.5481 8.88021 7.108 8.63542 7.63925 8.34375C8.1705 8.05208 8.69654 7.76042 9.21737 7.46875C9.74342 7.17188 10.2877 6.92448 10.8502 6.72656C11.4127 6.52865 12.0221 6.42969 12.6783 6.42969C13.0585 6.42969 13.4283 6.47656 13.7877 6.57031C14.1471 6.66406 14.5247 6.82552 14.9205 7.05469C15.0872 7.14844 15.2434 7.17188 15.3892 7.125C15.5351 7.07812 15.6497 6.9974 15.733 6.88281C15.8267 6.74219 15.8606 6.58073 15.8346 6.39844C15.8085 6.21094 15.6861 6.05208 15.4674 5.92188C15.0299 5.66667 14.5794 5.47917 14.1158 5.35938C13.6575 5.23438 13.1783 5.17188 12.6783 5.17188C11.97 5.17188 11.3189 5.27083 10.7252 5.46875C10.1314 5.66667 9.56633 5.91406 9.02987 6.21094C8.49862 6.5026 7.97258 6.79427 7.45175 7.08594C6.93612 7.3776 6.39967 7.6224 5.84237 7.82031C5.28508 8.01823 4.68612 8.11719 4.0455 8.11719C3.66008 8.11719 3.28769 8.07031 2.92831 7.97656C2.56894 7.88281 2.19133 7.72135 1.7955 7.49219C1.62883 7.39844 1.47258 7.375 1.32675 7.42188C1.18092 7.46875 1.06633 7.55208 0.982999 7.67188C0.894457 7.8125 0.863207 7.97656 0.889249 8.16406C0.915291 8.34635 1.03508 8.5 1.24862 8.625C1.69133 8.88021 2.14185 9.07031 2.60019 9.19531C3.05852 9.3151 3.54029 9.375 4.0455 9.375ZM4.05331 13.5703C4.6731 13.5703 5.24862 13.4896 5.77987 13.3281C6.31112 13.1615 6.81894 12.9557 7.30331 12.7109C7.78769 12.4609 8.26164 12.2031 8.72519 11.9375C9.19394 11.6667 9.6705 11.4219 10.1549 11.2031C10.6445 10.9844 11.1601 10.8281 11.7017 10.7344C11.8215 10.5052 11.9439 10.2786 12.0689 10.0547C12.1939 9.82552 12.3163 9.59635 12.4361 9.36719C11.7434 9.39844 11.108 9.51823 10.5299 9.72656C9.95175 9.9349 9.40487 10.1823 8.88925 10.4688C8.37883 10.7552 7.87102 11.0391 7.36581 11.3203C6.86581 11.6016 6.34498 11.8385 5.80331 12.0312C5.26685 12.2188 4.68352 12.3125 4.05331 12.3125C3.66789 12.3125 3.2955 12.2656 2.93612 12.1719C2.58196 12.0729 2.20435 11.9089 1.80331 11.6797C1.63664 11.5859 1.48039 11.5625 1.33456 11.6094C1.18873 11.6562 1.07675 11.7396 0.998624 11.8594C0.904874 12 0.87102 12.1641 0.897061 12.3516C0.923103 12.5339 1.04289 12.6875 1.25644 12.8125C1.69914 13.0677 2.14967 13.2578 2.608 13.3828C3.07154 13.5078 3.55331 13.5703 4.05331 13.5703ZM4.0455 17.7578C4.63404 17.7578 5.18352 17.6823 5.69394 17.5312C6.20956 17.3802 6.69914 17.1875 7.16269 16.9531C7.62623 16.7188 8.08196 16.474 8.52987 16.2188C8.97779 15.9635 9.43352 15.7292 9.89706 15.5156C9.87623 15.3438 9.88664 15.1224 9.92831 14.8516C9.96998 14.5755 10.0247 14.3229 10.0924 14.0938C9.57154 14.3021 9.07154 14.5443 8.59237 14.8203C8.11842 15.0911 7.64185 15.3542 7.16269 15.6094C6.68873 15.8646 6.19654 16.0781 5.68612 16.25C5.17571 16.4167 4.62883 16.5 4.0455 16.5C3.66008 16.5 3.28769 16.4531 2.92831 16.3594C2.56894 16.2604 2.19133 16.0964 1.7955 15.8672C1.62883 15.7734 1.47258 15.75 1.32675 15.7969C1.18092 15.8438 1.06633 15.9271 0.982999 16.0469C0.894457 16.1875 0.863207 16.3516 0.889249 16.5391C0.915291 16.7214 1.03508 16.875 1.24862 17C1.69133 17.2552 2.14185 17.4453 2.60019 17.5703C3.05852 17.6953 3.54029 17.7578 4.0455 17.7578Z"
		fill="currentColor"
	/>
</svg>
