<svg
	color="rgb(var(--foreground, 0, 0, 0))"
	viewBox="0 0 18 24"
	fill="none"
	xmlns="http://www.w3.org/2000/svg"
>
	<path
		d="M13.8903 18.8242C14.5153 18.8242 15.0831 18.6758 15.5935 18.3789C16.1039 18.0872 16.5101 17.6914 16.8122 17.1914C17.1143 16.6966 17.2653 16.1419 17.2653 15.5273C17.2653 15.0221 17.1612 14.5247 16.9528 14.0352C16.7497 13.5456 16.5362 13.0951 16.3122 12.6836L14.5388 9.37891C14.3982 9.10807 14.182 8.97266 13.8903 8.97266C13.5987 8.97266 13.3799 9.10807 13.2341 9.37891L11.4685 12.6836C11.2445 13.0951 11.031 13.5456 10.8278 14.0352C10.6247 14.5247 10.5232 15.0221 10.5232 15.5273C10.5232 16.1419 10.6742 16.6966 10.9763 17.1914C11.2784 17.6914 11.682 18.0872 12.1872 18.3789C12.6976 18.6758 13.2653 18.8242 13.8903 18.8242ZM3.63253 9.37891C4.32524 9.37891 4.96326 9.27995 5.5466 9.08203C6.13514 8.88411 6.69503 8.63932 7.22628 8.34766C7.75753 8.05599 8.28358 7.76432 8.80441 7.47266C9.33045 7.17578 9.87472 6.92839 10.4372 6.73047C10.9997 6.53255 11.6091 6.43359 12.2653 6.43359C12.6456 6.43359 13.0153 6.48047 13.3747 6.57422C13.7341 6.66797 14.1117 6.82943 14.5075 7.05859C14.6742 7.15234 14.8305 7.17578 14.9763 7.12891C15.1221 7.08203 15.2367 7.0013 15.32 6.88672C15.4138 6.74609 15.4476 6.58464 15.4216 6.40234C15.3956 6.21484 15.2732 6.05599 15.0544 5.92578C14.6169 5.67057 14.1664 5.48307 13.7028 5.36328C13.2445 5.23828 12.7653 5.17578 12.2653 5.17578C11.557 5.17578 10.906 5.27474 10.3122 5.47266C9.71847 5.67057 9.15337 5.91797 8.61691 6.21484C8.08566 6.50651 7.55962 6.79818 7.03878 7.08984C6.52316 7.38151 5.9867 7.6263 5.42941 7.82422C4.87212 8.02214 4.27316 8.12109 3.63253 8.12109C3.24712 8.12109 2.87472 8.07422 2.51535 7.98047C2.15597 7.88672 1.77837 7.72526 1.38254 7.49609C1.21587 7.40234 1.05962 7.37891 0.913785 7.42578C0.767952 7.47266 0.653368 7.55599 0.570035 7.67578C0.481493 7.81641 0.450243 7.98047 0.476285 8.16797C0.502327 8.35026 0.622118 8.50391 0.83566 8.62891C1.27837 8.88411 1.72889 9.07422 2.18722 9.19922C2.64556 9.31901 3.12733 9.37891 3.63253 9.37891ZM3.64035 13.5742C4.26014 13.5742 4.83566 13.4935 5.36691 13.332C5.89816 13.1654 6.40597 12.9596 6.89035 12.7148C7.37472 12.4648 7.84868 12.207 8.31222 11.9414C8.78097 11.6706 9.25753 11.4258 9.74191 11.207C10.2315 10.9883 10.7471 10.832 11.2888 10.7383C11.4086 10.5091 11.531 10.2826 11.656 10.0586C11.781 9.82943 11.9034 9.60026 12.0232 9.37109C11.3305 9.40234 10.695 9.52214 10.1169 9.73047C9.53878 9.9388 8.99191 10.1862 8.47628 10.4727C7.96587 10.7591 7.45806 11.043 6.95285 11.3242C6.45285 11.6055 5.93201 11.8424 5.39035 12.0352C4.85389 12.2227 4.27056 12.3164 3.64035 12.3164C3.25493 12.3164 2.88253 12.2695 2.52316 12.1758C2.16899 12.0768 1.79139 11.9128 1.39035 11.6836C1.22368 11.5898 1.06743 11.5664 0.921598 11.6133C0.775764 11.6602 0.663785 11.7435 0.58566 11.8633C0.49191 12.0039 0.458056 12.168 0.484098 12.3555C0.510139 12.5378 0.629931 12.6914 0.843473 12.8164C1.28618 13.0716 1.7367 13.2617 2.19504 13.3867C2.65858 13.5117 3.14035 13.5742 3.64035 13.5742ZM3.63253 17.7617C4.22108 17.7617 4.77056 17.6862 5.28097 17.5352C5.7966 17.3841 6.28618 17.1914 6.74972 16.957C7.21326 16.7227 7.66899 16.4779 8.11691 16.2227C8.56483 15.9674 9.02056 15.7331 9.4841 15.5195C9.46326 15.3477 9.47368 15.1263 9.51535 14.8555C9.55701 14.5794 9.6117 14.3268 9.67941 14.0977C9.15858 14.306 8.65858 14.5482 8.17941 14.8242C7.70545 15.0951 7.22889 15.3581 6.74972 15.6133C6.27576 15.8685 5.78358 16.082 5.27316 16.2539C4.76274 16.4206 4.21587 16.5039 3.63253 16.5039C3.24712 16.5039 2.87472 16.457 2.51535 16.3633C2.15597 16.2643 1.77837 16.1003 1.38254 15.8711C1.21587 15.7773 1.05962 15.7539 0.913785 15.8008C0.767952 15.8477 0.653368 15.931 0.570035 16.0508C0.481493 16.1914 0.450243 16.3555 0.476285 16.543C0.502327 16.7253 0.622118 16.8789 0.83566 17.0039C1.27837 17.2591 1.72889 17.4492 2.18722 17.5742C2.64556 17.6992 3.12733 17.7617 3.63253 17.7617Z"
		fill="currentColor"
	/>
</svg>
