<svg
	color="rgb(var(--foreground, 0, 0, 0))"
	viewBox="0 0 14 24"
	fill="none"
	xmlns="http://www.w3.org/2000/svg"
>
	<path
		d="M7.0626 19.8984C7.23448 19.8984 7.36729 19.8438 7.46104 19.7344C7.56 19.6302 7.60948 19.4922 7.60948 19.3203V17.625L8.95323 18.3906C9.09385 18.4688 9.23187 18.4974 9.36729 18.4766C9.50792 18.4557 9.61989 18.375 9.70323 18.2344C9.77094 18.1146 9.78396 17.987 9.74229 17.8516C9.70062 17.7161 9.60687 17.6068 9.46104 17.5234L7.60948 16.4688V15.4766L7.45323 12.6875L9.80479 14.2109L10.672 14.7031L10.6564 16.8359C10.6511 17.0078 10.6954 17.1484 10.7892 17.2578C10.8881 17.362 11.0053 17.4141 11.1407 17.4141C11.3074 17.4141 11.4324 17.3594 11.5157 17.25C11.6043 17.1406 11.6485 17.0026 11.6485 16.8359L11.6564 15.2734L13.1329 16.1328C13.284 16.2214 13.4272 16.25 13.5626 16.2188C13.7032 16.1823 13.8126 16.0938 13.8907 15.9531C13.9741 15.8073 13.9949 15.6641 13.9532 15.5234C13.9168 15.3776 13.8256 15.2656 13.6798 15.1875L12.2032 14.3359L13.547 13.5469C13.6876 13.4583 13.784 13.3516 13.836 13.2266C13.8881 13.1016 13.8725 12.9688 13.7892 12.8281C13.711 12.7031 13.6017 12.6276 13.461 12.6016C13.3256 12.5703 13.1876 12.5964 13.047 12.6797L11.211 13.7578L10.3439 13.2656L7.82042 12L10.3517 10.7344L11.2032 10.2344L13.0392 11.3125C13.185 11.3958 13.3282 11.4245 13.4689 11.3984C13.6147 11.3672 13.7241 11.2917 13.797 11.1719C13.8751 11.0312 13.8881 10.8984 13.836 10.7734C13.784 10.6432 13.6876 10.5339 13.547 10.4453L12.2032 9.66406L13.6798 8.8125C13.8308 8.72396 13.9246 8.61198 13.961 8.47656C14.0027 8.34115 13.9819 8.19792 13.8985 8.04688C13.8152 7.90625 13.7032 7.82031 13.5626 7.78906C13.4272 7.7526 13.2866 7.77865 13.1407 7.86719L11.6564 8.71094L11.6407 7.15625C11.6407 6.98958 11.5991 6.85417 11.5157 6.75C11.4324 6.64062 11.31 6.58594 11.1485 6.58594C11.0027 6.58594 10.8829 6.64062 10.7892 6.75C10.6954 6.85417 10.6511 6.98958 10.6564 7.15625L10.6642 9.28125L9.80479 9.78125L7.45323 11.3125L7.60948 8.51562V7.52344L9.46104 6.47656C9.60687 6.38802 9.70062 6.27865 9.74229 6.14844C9.78396 6.01302 9.77094 5.88281 9.70323 5.75781C9.61989 5.61719 9.50792 5.53646 9.36729 5.51562C9.23187 5.49479 9.09385 5.52604 8.95323 5.60938L7.60948 6.375V4.67188C7.60948 4.50521 7.56 4.36979 7.46104 4.26562C7.36729 4.15625 7.23448 4.10156 7.0626 4.10156C6.90114 4.10156 6.77094 4.15625 6.67198 4.26562C6.57302 4.36979 6.52354 4.50521 6.52354 4.67188V6.375L5.15635 5.60938C5.01052 5.52604 4.8725 5.49479 4.74229 5.51562C4.61208 5.53646 4.50271 5.61719 4.41417 5.75781C4.34646 5.88281 4.33344 6.01302 4.3751 6.14844C4.42198 6.27865 4.51833 6.38542 4.66417 6.46875L6.52354 7.52344V8.51562L6.67198 11.3125L4.32042 9.78125L3.45323 9.28125L3.46885 7.15625C3.47406 6.98958 3.42979 6.85417 3.33604 6.75C3.24229 6.64062 3.1251 6.58594 2.98448 6.58594C2.8126 6.58594 2.685 6.64062 2.60167 6.75C2.51833 6.85417 2.47667 6.98958 2.47667 7.15625L2.46885 8.71094L0.984478 7.86719C0.843853 7.78385 0.700623 7.75781 0.55479 7.78906C0.414165 7.82031 0.30479 7.90625 0.226665 8.04688C0.138123 8.19792 0.114686 8.34375 0.156353 8.48438C0.203228 8.61979 0.299582 8.72917 0.445415 8.8125L1.91417 9.66406L0.578228 10.4453C0.437603 10.5339 0.341248 10.6406 0.289165 10.7656C0.237082 10.8854 0.250103 11.0208 0.328228 11.1719C0.395936 11.2969 0.500103 11.3724 0.640728 11.3984C0.786561 11.4245 0.934998 11.3958 1.08604 11.3125L2.91417 10.2422L3.77354 10.7344L6.29698 12L3.77354 13.2656L2.91417 13.7656L1.07823 12.6797C0.932394 12.5964 0.789165 12.5703 0.64854 12.6016C0.513123 12.6276 0.411561 12.7005 0.343853 12.8203C0.260519 12.9714 0.24229 13.1094 0.289165 13.2344C0.341248 13.3542 0.437603 13.4583 0.578228 13.5469L1.92198 14.3359L0.445415 15.1875C0.299582 15.2708 0.205832 15.3828 0.164165 15.5234C0.122498 15.6641 0.143332 15.8047 0.226665 15.9453C0.309998 16.0964 0.421978 16.1875 0.562603 16.2188C0.703228 16.2448 0.843853 16.2161 0.984478 16.1328L2.46885 15.2891L2.47667 16.8359C2.47667 17.0026 2.51833 17.1406 2.60167 17.25C2.685 17.3594 2.81 17.4141 2.97667 17.4141C3.11729 17.4141 3.23448 17.362 3.32823 17.2578C3.42719 17.1484 3.47406 17.0078 3.46885 16.8359L3.46104 14.7031L4.32042 14.2188L6.67198 12.6875L6.52354 15.4766V16.4688L4.66417 17.5234C4.51833 17.6068 4.42198 17.7161 4.3751 17.8516C4.33344 17.987 4.34646 18.1146 4.41417 18.2344C4.50271 18.375 4.61208 18.4557 4.74229 18.4766C4.8725 18.4974 5.01052 18.4688 5.15635 18.3906L6.52354 17.6172V19.3203C6.52354 19.4922 6.57302 19.6302 6.67198 19.7344C6.77094 19.8438 6.90114 19.8984 7.0626 19.8984Z"
		fill="currentColor"
	/>
</svg>
