<svg
	color="rgb(var(--foreground, 0, 0, 0))"
	viewBox="0 0 16 24"
	fill="none"
	xmlns="http://www.w3.org/2000/svg"
>
	<path
		d="M8.271 10.4997C9.46891 10.4997 10.534 10.4294 11.4663 10.2888C12.3986 10.1482 13.1877 9.95024 13.8335 9.69503C14.4793 9.43461 14.9689 9.12992 15.3022 8.78097C15.6408 8.43201 15.8101 8.0518 15.8101 7.64034C15.8101 7.13513 15.5835 6.70024 15.1304 6.33565C14.6772 5.96586 14.0522 5.68461 13.2554 5.4919C12.4585 5.29399 11.5392 5.19503 10.4976 5.19503C9.32568 5.19503 8.27881 5.29919 7.35693 5.50753C6.44027 5.71065 5.63558 5.97367 4.94287 6.29659C4.75537 6.39034 4.63558 6.51794 4.5835 6.6794C4.53662 6.83565 4.54964 6.98149 4.62256 7.1169C4.69548 7.26794 4.81527 7.3643 4.98193 7.40597C5.15381 7.44242 5.31787 7.4268 5.47412 7.35909C6.09912 7.09867 6.81527 6.86169 7.62256 6.64815C8.42985 6.43461 9.36475 6.32784 10.4272 6.32784C11.3022 6.32784 12.0496 6.39034 12.6694 6.51534C13.2892 6.63513 13.7632 6.79399 14.0913 6.9919C14.4194 7.18982 14.5835 7.40336 14.5835 7.63253C14.5835 7.83044 14.4403 8.03097 14.1538 8.23409C13.8674 8.43201 13.4481 8.6143 12.896 8.78097C12.3491 8.94242 11.6825 9.07524 10.896 9.1794C10.1095 9.27836 9.21631 9.32784 8.21631 9.32784C6.25798 9.32784 4.76579 9.13774 3.73975 8.75753C2.7137 8.37732 2.20068 7.81742 2.20068 7.07784C2.20068 6.64555 2.42725 6.21065 2.88037 5.77315C3.3387 5.33565 4.13298 4.93461 5.26318 4.57003C5.45589 4.50753 5.5887 4.40597 5.66162 4.26534C5.73975 4.12472 5.75277 3.97628 5.70068 3.82003C5.64339 3.65857 5.54443 3.54919 5.40381 3.4919C5.26318 3.43461 5.0861 3.43982 4.87256 3.50753C3.99756 3.76794 3.271 4.08826 2.69287 4.46847C2.11995 4.84347 1.69027 5.25753 1.40381 5.71065C1.12256 6.15857 0.981934 6.62472 0.981934 7.10909C0.981934 8.21847 1.59912 9.06222 2.8335 9.64034C4.06787 10.2133 5.88037 10.4997 8.271 10.4997ZM8.50537 13.0778C9.72933 13.0778 10.883 12.9841 11.9663 12.7966C13.0549 12.6091 13.9976 12.3513 14.7944 12.0232C14.9455 11.9607 15.0496 11.8617 15.1069 11.7263C15.1694 11.5909 15.1642 11.4528 15.0913 11.3122C15.0236 11.182 14.922 11.1039 14.7866 11.0778C14.6512 11.0466 14.495 11.0648 14.3179 11.1325C13.5939 11.4086 12.7267 11.6325 11.7163 11.8044C10.7111 11.9763 9.64079 12.0622 8.50537 12.0622C7.94808 12.0622 7.37256 12.0388 6.77881 11.9919C6.18506 11.945 5.59912 11.8747 5.021 11.781C4.44808 11.682 3.91162 11.5596 3.41162 11.4138C3.23454 11.3617 3.07829 11.3617 2.94287 11.4138C2.81266 11.4659 2.72673 11.5674 2.68506 11.7185C2.64339 11.8643 2.65641 11.9997 2.72412 12.1247C2.79704 12.2497 2.92464 12.3383 3.10693 12.3903C3.64339 12.5414 4.21631 12.669 4.82568 12.7732C5.44027 12.8721 6.06006 12.9476 6.68506 12.9997C7.31527 13.0518 7.92204 13.0778 8.50537 13.0778ZM9.03662 15.6247C10.0575 15.6143 11.047 15.5362 12.0054 15.3903C12.9637 15.2393 13.883 15.0127 14.7632 14.7107C14.9715 14.6429 15.0991 14.5388 15.146 14.3982C15.1929 14.2575 15.1903 14.1247 15.1382 13.9997C15.0861 13.8643 14.9924 13.7784 14.8569 13.7419C14.7215 13.7002 14.5522 13.7107 14.3491 13.7732C13.4845 14.0544 12.6147 14.2627 11.7397 14.3982C10.8647 14.5336 9.9637 14.6013 9.03662 14.6013C8.64079 14.6013 8.24756 14.5909 7.85693 14.57C7.46631 14.544 7.10954 14.5075 6.78662 14.4607C6.59391 14.4346 6.44027 14.458 6.32568 14.531C6.21631 14.5987 6.1486 14.7028 6.12256 14.8435C6.09652 14.9841 6.12256 15.1143 6.20068 15.2341C6.27881 15.3487 6.41943 15.4242 6.62256 15.4607C6.92464 15.5127 7.28141 15.5544 7.69287 15.5857C8.10433 15.6117 8.55225 15.6247 9.03662 15.6247ZM8.32568 18.0232C8.79964 18.0804 9.29704 18.1117 9.81787 18.1169C10.3439 18.1221 10.87 18.0961 11.396 18.0388C11.9272 17.9815 12.4377 17.8851 12.9272 17.7497C13.1043 17.7028 13.2241 17.6117 13.2866 17.4763C13.3543 17.3409 13.3674 17.2054 13.3257 17.07C13.2788 16.9242 13.1903 16.8252 13.0601 16.7732C12.9299 16.7211 12.771 16.7185 12.5835 16.7653C11.9481 16.932 11.2788 17.0388 10.5757 17.0857C9.87256 17.1325 9.17985 17.1143 8.49756 17.031C8.31006 17.0101 8.15381 17.0388 8.02881 17.1169C7.90902 17.195 7.84131 17.307 7.82568 17.4528C7.81006 17.5935 7.84131 17.7185 7.91943 17.8278C7.99756 17.9372 8.13298 18.0023 8.32568 18.0232ZM7.79443 20.4997C8.03923 20.5362 8.29964 20.5518 8.57568 20.5466C8.85173 20.5466 9.11735 20.531 9.37256 20.4997C9.54964 20.4789 9.67985 20.4164 9.76318 20.3122C9.84652 20.208 9.88298 20.083 9.87256 19.9372C9.85693 19.807 9.79704 19.7028 9.69287 19.6247C9.59391 19.5466 9.44808 19.5179 9.25537 19.5388C8.79704 19.5961 8.3387 19.5987 7.88037 19.5466C7.70329 19.5205 7.56266 19.5466 7.4585 19.6247C7.35433 19.708 7.29183 19.8122 7.271 19.9372C7.25537 20.0726 7.28923 20.195 7.37256 20.3044C7.4611 20.4138 7.60173 20.4789 7.79443 20.4997Z"
		fill="currentColor"
	/>
</svg>
