<svg
	color="rgb(var(--foreground, 0, 0, 0))"
	viewBox="0 0 19 24"
	fill="none"
	xmlns="http://www.w3.org/2000/svg"
>
	<path
		d="M4.03125 15.1914H13.7266C14.3672 15.1914 14.9583 15.0794 15.5 14.8555C16.0469 14.6315 16.5208 14.319 16.9219 13.918C17.3281 13.5169 17.6406 13.0534 17.8594 12.5273C18.0833 12.0013 18.1953 11.4388 18.1953 10.8398C18.1953 10.2148 18.0755 9.64193 17.8359 9.12109C17.6016 8.59505 17.2708 8.13932 16.8438 7.75391C16.4219 7.36328 15.9271 7.0612 15.3594 6.84766C14.7917 6.63411 14.1771 6.52734 13.5156 6.52734C13.1927 5.88672 12.7786 5.32943 12.2734 4.85547C11.7734 4.3763 11.2031 4.00651 10.5625 3.74609C9.92188 3.48568 9.22396 3.35547 8.46875 3.35547C7.73438 3.35547 7.04167 3.49089 6.39062 3.76172C5.74479 4.02734 5.16667 4.39714 4.65625 4.87109C4.14583 5.34505 3.73177 5.89714 3.41406 6.52734C3.10156 7.15755 2.91406 7.83464 2.85156 8.55859C2.3776 8.69401 1.95312 8.91797 1.57812 9.23047C1.20312 9.53776 0.90625 9.91276 0.6875 10.3555C0.46875 10.7982 0.359375 11.2956 0.359375 11.8477C0.359375 12.4622 0.502604 13.0247 0.789062 13.5352C1.08073 14.0404 1.5 14.444 2.04688 14.7461C2.59375 15.043 3.25521 15.1914 4.03125 15.1914ZM4.01562 13.9414C3.47917 13.9414 3.03385 13.8503 2.67969 13.668C2.32552 13.4857 2.05729 13.2409 1.875 12.9336C1.69792 12.6211 1.60938 12.2721 1.60938 11.8867C1.60938 11.418 1.75521 10.9909 2.04688 10.6055C2.33854 10.2148 2.81771 9.93099 3.48438 9.75391C3.70312 9.69661 3.85677 9.61068 3.94531 9.49609C4.03385 9.38151 4.08854 9.21484 4.10938 8.99609C4.15104 8.35547 4.29427 7.76953 4.53906 7.23828C4.78906 6.70182 5.11198 6.23828 5.50781 5.84766C5.90365 5.45182 6.35417 5.14714 6.85938 4.93359C7.36979 4.71484 7.90625 4.60547 8.46875 4.60547C9.34896 4.60547 10.1276 4.83984 10.8047 5.30859C11.4818 5.77214 12.0312 6.4362 12.4531 7.30078C12.5417 7.49349 12.651 7.62891 12.7812 7.70703C12.9115 7.77995 13.0938 7.81641 13.3281 7.81641C14.099 7.81641 14.7526 7.95703 15.2891 8.23828C15.8307 8.51432 16.2422 8.88411 16.5234 9.34766C16.8047 9.8112 16.9453 10.319 16.9453 10.8711C16.9453 11.4388 16.8073 11.9544 16.5312 12.418C16.2552 12.8815 15.8802 13.2513 15.4062 13.5273C14.9323 13.8034 14.3984 13.9414 13.8047 13.9414H4.01562ZM14.4375 17.0039H4.27344C4.13802 17.0039 4.02083 17.0508 3.92188 17.1445C3.82812 17.2383 3.78125 17.3555 3.78125 17.4961C3.78125 17.6367 3.82812 17.7539 3.92188 17.8477C4.02083 17.9414 4.13802 17.9883 4.27344 17.9883H14.4375C14.5781 17.9883 14.6953 17.9414 14.7891 17.8477C14.8828 17.7539 14.9297 17.6367 14.9297 17.4961C14.9297 17.3555 14.8828 17.2383 14.7891 17.1445C14.6953 17.0508 14.5781 17.0039 14.4375 17.0039ZM14.4375 19.6523H4.27344C4.13802 19.6523 4.02083 19.6992 3.92188 19.793C3.82812 19.8867 3.78125 20.0039 3.78125 20.1445C3.78125 20.2852 3.82812 20.4023 3.92188 20.4961C4.02083 20.5951 4.13802 20.6445 4.27344 20.6445H14.4375C14.5781 20.6445 14.6953 20.5951 14.7891 20.4961C14.8828 20.4023 14.9297 20.2852 14.9297 20.1445C14.9297 20.0039 14.8828 19.8867 14.7891 19.793C14.6953 19.6992 14.5781 19.6523 14.4375 19.6523Z"
		fill="currentColor"
	/>
</svg>
