<svg
	color="rgb(var(--foreground, 0, 0, 0))"
	viewBox="0 0 19 24"
	fill="none"
	xmlns="http://www.w3.org/2000/svg"
>
	<path
		d="M4.375 14.5H14.0703C14.7109 14.5 15.3021 14.388 15.8438 14.1641C16.3906 13.9401 16.8646 13.6276 17.2656 13.2266C17.6719 12.8255 17.9844 12.362 18.2031 11.8359C18.4271 11.3099 18.5391 10.7474 18.5391 10.1484C18.5391 9.52344 18.4193 8.95052 18.1797 8.42969C17.9453 7.90365 17.6146 7.44792 17.1875 7.0625C16.7656 6.67188 16.2708 6.36979 15.7031 6.15625C15.1354 5.94271 14.5208 5.83594 13.8594 5.83594C13.5365 5.19531 13.1224 4.63802 12.6172 4.16406C12.1172 3.6849 11.5469 3.3151 10.9062 3.05469C10.2656 2.79427 9.56771 2.66406 8.8125 2.66406C8.07812 2.66406 7.38542 2.79948 6.73438 3.07031C6.08854 3.33594 5.51042 3.70573 5 4.17969C4.48958 4.65365 4.07552 5.20573 3.75781 5.83594C3.44531 6.46615 3.25781 7.14323 3.19531 7.86719C2.72135 8.0026 2.29688 8.22656 1.92188 8.53906C1.54688 8.84635 1.25 9.22135 1.03125 9.66406C0.8125 10.1068 0.703125 10.6042 0.703125 11.1562C0.703125 11.7708 0.846354 12.3333 1.13281 12.8438C1.42448 13.349 1.84375 13.7526 2.39062 14.0547C2.9375 14.3516 3.59896 14.5 4.375 14.5ZM4.35938 13.25C3.82292 13.25 3.3776 13.1589 3.02344 12.9766C2.66927 12.7943 2.40104 12.5495 2.21875 12.2422C2.04167 11.9297 1.95312 11.5807 1.95312 11.1953C1.95312 10.7266 2.09896 10.2995 2.39062 9.91406C2.68229 9.52344 3.16146 9.23958 3.82812 9.0625C4.04688 9.00521 4.20052 8.91927 4.28906 8.80469C4.3776 8.6901 4.43229 8.52344 4.45312 8.30469C4.49479 7.66406 4.63802 7.07812 4.88281 6.54688C5.13281 6.01042 5.45573 5.54688 5.85156 5.15625C6.2474 4.76042 6.69792 4.45573 7.20312 4.24219C7.71354 4.02344 8.25 3.91406 8.8125 3.91406C9.69271 3.91406 10.4714 4.14844 11.1484 4.61719C11.8255 5.08073 12.375 5.74479 12.7969 6.60938C12.8854 6.80208 12.9948 6.9375 13.125 7.01562C13.2552 7.08854 13.4375 7.125 13.6719 7.125C14.4427 7.125 15.0964 7.26562 15.6328 7.54688C16.1745 7.82292 16.5859 8.19271 16.8672 8.65625C17.1484 9.11979 17.2891 9.6276 17.2891 10.1797C17.2891 10.7474 17.151 11.263 16.875 11.7266C16.599 12.1901 16.224 12.5599 15.75 12.8359C15.276 13.112 14.7422 13.25 14.1484 13.25H4.35938ZM4.82031 18.3984C4.89323 18.3984 4.95052 18.3698 4.99219 18.3125C5.03906 18.2604 5.0599 18.1979 5.05469 18.125L5.00781 17.375L5.625 17.7969C5.68229 17.8385 5.7474 17.8516 5.82031 17.8359C5.89323 17.8203 5.95052 17.7839 5.99219 17.7266C6.02865 17.6693 6.03646 17.6016 6.01562 17.5234C5.99479 17.4505 5.94531 17.3958 5.86719 17.3594L5.20312 17.0312L5.875 16.6953C5.94792 16.6641 5.99219 16.612 6.00781 16.5391C6.02865 16.4661 6.02604 16.3984 6 16.3359C5.96354 16.2734 5.90625 16.237 5.82812 16.2266C5.75 16.2161 5.68229 16.2292 5.625 16.2656L5.00781 16.6953L5.0625 15.9453C5.07292 15.8672 5.05208 15.8021 5 15.75C4.95312 15.6979 4.89323 15.6719 4.82031 15.6719C4.73698 15.6719 4.67188 15.6979 4.625 15.75C4.58333 15.8021 4.5651 15.8672 4.57031 15.9453L4.61719 16.6953L3.99219 16.2656C3.9349 16.2292 3.86979 16.2161 3.79688 16.2266C3.72396 16.237 3.66927 16.2734 3.63281 16.3359C3.60156 16.3984 3.59375 16.4661 3.60938 16.5391C3.625 16.6068 3.66927 16.6589 3.74219 16.6953L4.41406 17.0312L3.74219 17.3594C3.66927 17.3958 3.6224 17.4505 3.60156 17.5234C3.58073 17.5964 3.58854 17.6641 3.625 17.7266C3.66146 17.7891 3.71615 17.8255 3.78906 17.8359C3.86719 17.8516 3.9349 17.8411 3.99219 17.8047L4.61719 17.3828L4.57812 18.125C4.57292 18.1979 4.59115 18.2604 4.63281 18.3125C4.67448 18.3698 4.73698 18.3984 4.82031 18.3984ZM9.14844 18.3984C9.22135 18.3984 9.27865 18.3698 9.32031 18.3125C9.36719 18.2604 9.38802 18.1979 9.38281 18.125L9.33594 17.375L9.95312 17.7969C10.0104 17.8385 10.0755 17.8516 10.1484 17.8359C10.2214 17.8203 10.2786 17.7839 10.3203 17.7266C10.3568 17.6693 10.3646 17.6016 10.3438 17.5234C10.3229 17.4505 10.2734 17.3958 10.1953 17.3594L9.52344 17.0312L10.2031 16.6953C10.276 16.6641 10.3203 16.612 10.3359 16.5391C10.3568 16.4661 10.3542 16.3984 10.3281 16.3359C10.2917 16.2734 10.2344 16.237 10.1562 16.2266C10.0781 16.2161 10.0104 16.2292 9.95312 16.2656L9.33594 16.6953L9.39062 15.9453C9.40104 15.8672 9.38021 15.8021 9.32812 15.75C9.28125 15.6979 9.22135 15.6719 9.14844 15.6719C9.0651 15.6719 9 15.6979 8.95312 15.75C8.91146 15.8021 8.89323 15.8672 8.89844 15.9453L8.94531 16.6953L8.3125 16.2656C8.26042 16.2292 8.19792 16.2161 8.125 16.2266C8.05208 16.237 7.9974 16.2734 7.96094 16.3359C7.92448 16.3984 7.91406 16.4661 7.92969 16.5391C7.95052 16.6068 7.9974 16.6589 8.07031 16.6953L8.74219 17.0312L8.07031 17.3594C7.9974 17.3958 7.95052 17.4505 7.92969 17.5234C7.90885 17.5964 7.91667 17.6641 7.95312 17.7266C7.98958 17.7891 8.04427 17.8255 8.11719 17.8359C8.19531 17.8516 8.26042 17.8411 8.3125 17.8047L8.94531 17.3828L8.90625 18.125C8.90104 18.1979 8.91927 18.2604 8.96094 18.3125C9.0026 18.3698 9.0651 18.3984 9.14844 18.3984ZM13.4766 18.3984C13.5495 18.3984 13.6068 18.3698 13.6484 18.3125C13.6953 18.2604 13.7161 18.1979 13.7109 18.125L13.6562 17.375L14.2812 17.7969C14.3385 17.8385 14.4036 17.8516 14.4766 17.8359C14.5495 17.8203 14.6068 17.7839 14.6484 17.7266C14.6849 17.6693 14.6927 17.6016 14.6719 17.5234C14.651 17.4505 14.6016 17.3958 14.5234 17.3594L13.8516 17.0312L14.5312 16.6953C14.6042 16.6641 14.6484 16.612 14.6641 16.5391C14.6849 16.4661 14.6823 16.3984 14.6562 16.3359C14.6198 16.2734 14.5625 16.237 14.4844 16.2266C14.4062 16.2161 14.3385 16.2292 14.2812 16.2656L13.6562 16.6953L13.7188 15.9453C13.7292 15.8672 13.7083 15.8021 13.6562 15.75C13.6094 15.6979 13.5495 15.6719 13.4766 15.6719C13.3932 15.6719 13.3281 15.6979 13.2812 15.75C13.2396 15.8021 13.2214 15.8672 13.2266 15.9453L13.2734 16.6953L12.6406 16.2656C12.5885 16.2292 12.526 16.2161 12.4531 16.2266C12.3802 16.237 12.3255 16.2734 12.2891 16.3359C12.2526 16.3984 12.2422 16.4661 12.2578 16.5391C12.2786 16.6068 12.3255 16.6589 12.3984 16.6953L13.0703 17.0312L12.3984 17.3594C12.3255 17.3958 12.2786 17.4505 12.2578 17.5234C12.237 17.5964 12.2448 17.6641 12.2812 17.7266C12.3177 17.7891 12.3724 17.8255 12.4453 17.8359C12.5234 17.8516 12.5885 17.8411 12.6406 17.8047L13.2734 17.3828L13.2344 18.125C13.2292 18.1979 13.2474 18.2604 13.2891 18.3125C13.3307 18.3698 13.3932 18.3984 13.4766 18.3984ZM3.125 21.3359C3.19792 21.3359 3.25521 21.3073 3.29688 21.25C3.34375 21.1927 3.36458 21.1276 3.35938 21.0547L3.3125 20.3125L3.92969 20.7344C3.98698 20.7708 4.05208 20.7812 4.125 20.7656C4.19792 20.7552 4.25521 20.7188 4.29688 20.6562C4.33333 20.599 4.34115 20.5312 4.32031 20.4531C4.29948 20.3802 4.25 20.3255 4.17188 20.2891L3.50781 19.9688L4.17969 19.6328C4.2526 19.5964 4.29688 19.5417 4.3125 19.4688C4.33333 19.3958 4.33073 19.3307 4.30469 19.2734C4.26823 19.2109 4.21094 19.1719 4.13281 19.1562C4.05469 19.1458 3.98698 19.1589 3.92969 19.1953L3.3125 19.6328L3.36719 18.875C3.3776 18.8021 3.35677 18.737 3.30469 18.6797C3.25781 18.6276 3.19792 18.6016 3.125 18.6016C3.04167 18.6016 2.97656 18.6276 2.92969 18.6797C2.88802 18.737 2.86979 18.8021 2.875 18.875L2.92188 19.6328L2.29688 19.1953C2.23958 19.1589 2.17448 19.1458 2.10156 19.1562C2.02865 19.1667 1.97396 19.2057 1.9375 19.2734C1.90625 19.3307 1.89844 19.3932 1.91406 19.4609C1.92969 19.5339 1.97396 19.5911 2.04688 19.6328L2.71875 19.9688L2.04688 20.2969C1.97396 20.3281 1.92708 20.3802 1.90625 20.4531C1.88542 20.526 1.89323 20.5938 1.92969 20.6562C1.96615 20.724 2.02083 20.763 2.09375 20.7734C2.17188 20.7839 2.23958 20.7708 2.29688 20.7344L2.92188 20.3125L2.88281 21.0547C2.8776 21.1276 2.89583 21.1927 2.9375 21.25C2.97917 21.3073 3.04167 21.3359 3.125 21.3359ZM7.45312 21.3359C7.52604 21.3359 7.58333 21.3073 7.625 21.25C7.67188 21.1927 7.69271 21.1276 7.6875 21.0547L7.64062 20.3125L8.25781 20.7344C8.3151 20.7708 8.38021 20.7812 8.45312 20.7656C8.52604 20.7552 8.58333 20.7188 8.625 20.6562C8.66146 20.599 8.66927 20.5312 8.64844 20.4531C8.6276 20.3802 8.57812 20.3255 8.5 20.2891L7.82812 19.9688L8.50781 19.6328C8.58073 19.5964 8.625 19.5417 8.64062 19.4688C8.66146 19.3958 8.65885 19.3307 8.63281 19.2734C8.59635 19.2109 8.53906 19.1719 8.46094 19.1562C8.38281 19.1458 8.3151 19.1589 8.25781 19.1953L7.64062 19.6328L7.69531 18.875C7.70573 18.8021 7.6849 18.737 7.63281 18.6797C7.58594 18.6276 7.52604 18.6016 7.45312 18.6016C7.36979 18.6016 7.30469 18.6276 7.25781 18.6797C7.21615 18.737 7.19792 18.8021 7.20312 18.875L7.25 19.6328L6.61719 19.1953C6.5651 19.1589 6.5026 19.1458 6.42969 19.1562C6.35677 19.1667 6.30208 19.2057 6.26562 19.2734C6.23438 19.3307 6.22656 19.3932 6.24219 19.4609C6.25781 19.5339 6.30208 19.5911 6.375 19.6328L7.04688 19.9688L6.375 20.2969C6.30208 20.3281 6.25521 20.3802 6.23438 20.4531C6.21354 20.526 6.22135 20.5938 6.25781 20.6562C6.29427 20.724 6.34896 20.763 6.42188 20.7734C6.5 20.7839 6.5651 20.7708 6.61719 20.7344L7.25 20.3125L7.21094 21.0547C7.20573 21.1276 7.22396 21.1927 7.26562 21.25C7.30729 21.3073 7.36979 21.3359 7.45312 21.3359ZM11.7812 21.3359C11.8542 21.3359 11.9115 21.3073 11.9531 21.25C12 21.1927 12.0208 21.1276 12.0156 21.0547L11.9609 20.3125L12.5859 20.7344C12.6432 20.7708 12.7083 20.7812 12.7812 20.7656C12.8542 20.7552 12.9115 20.7188 12.9531 20.6562C12.9896 20.599 12.9974 20.5312 12.9766 20.4531C12.9557 20.3802 12.9062 20.3255 12.8281 20.2891L12.1562 19.9688L12.8359 19.6328C12.9089 19.5964 12.9531 19.5417 12.9688 19.4688C12.9896 19.3958 12.987 19.3307 12.9609 19.2734C12.9245 19.2109 12.8672 19.1719 12.7891 19.1562C12.7109 19.1458 12.6432 19.1589 12.5859 19.1953L11.9609 19.6328L12.0234 18.875C12.0339 18.8021 12.013 18.737 11.9609 18.6797C11.9141 18.6276 11.8542 18.6016 11.7812 18.6016C11.6979 18.6016 11.6328 18.6276 11.5859 18.6797C11.5443 18.737 11.526 18.8021 11.5312 18.875L11.5781 19.6328L10.9453 19.1953C10.8932 19.1589 10.8307 19.1458 10.7578 19.1562C10.6849 19.1667 10.6302 19.2057 10.5938 19.2734C10.5573 19.3307 10.5469 19.3932 10.5625 19.4609C10.5833 19.5339 10.6302 19.5911 10.7031 19.6328L11.375 19.9688L10.7031 20.2969C10.6302 20.3281 10.5833 20.3802 10.5625 20.4531C10.5417 20.526 10.5495 20.5938 10.5859 20.6562C10.6224 20.724 10.6771 20.763 10.75 20.7734C10.8281 20.7839 10.8932 20.7708 10.9453 20.7344L11.5781 20.3125L11.5391 21.0547C11.5339 21.1276 11.5521 21.1927 11.5938 21.25C11.6354 21.3073 11.6979 21.3359 11.7812 21.3359Z"
		fill="currentColor"
	/>
</svg>
