<svg
	color="rgb(var(--foreground, 0, 0, 0))"
	viewBox="0 0 19 24"
	fill="none"
	xmlns="http://www.w3.org/2000/svg"
>
	<path
		d="M4.52344 14.8594H14.2188C14.8594 14.8594 15.4505 14.7474 15.9922 14.5234C16.5391 14.2995 17.013 13.987 17.4141 13.5859C17.8203 13.1849 18.1328 12.7214 18.3516 12.1953C18.5755 11.6693 18.6875 11.1068 18.6875 10.5078C18.6875 9.88281 18.5677 9.3099 18.3281 8.78906C18.0938 8.26302 17.763 7.80729 17.3359 7.42188C16.9141 7.03125 16.4193 6.72917 15.8516 6.51562C15.2839 6.30208 14.6693 6.19531 14.0078 6.19531C13.6849 5.55469 13.2708 4.9974 12.7656 4.52344C12.2656 4.04427 11.6953 3.67448 11.0547 3.41406C10.4141 3.15365 9.71615 3.02344 8.96094 3.02344C8.22656 3.02344 7.53385 3.15885 6.88281 3.42969C6.23698 3.69531 5.65885 4.0651 5.14844 4.53906C4.63802 5.01302 4.22396 5.5651 3.90625 6.19531C3.59375 6.82552 3.40625 7.5026 3.34375 8.22656C2.86979 8.36198 2.44531 8.58594 2.07031 8.89844C1.69531 9.20573 1.39844 9.58073 1.17969 10.0234C0.960938 10.4661 0.851562 10.9635 0.851562 11.5156C0.851562 12.1302 0.994792 12.6927 1.28125 13.2031C1.57292 13.7083 1.99219 14.112 2.53906 14.4141C3.08594 14.7109 3.7474 14.8594 4.52344 14.8594ZM4.72656 18.5156L5.74219 16.75C5.8151 16.6302 5.83333 16.5104 5.79688 16.3906C5.76562 16.2656 5.69271 16.1693 5.57812 16.1016C5.45833 16.0339 5.33854 16.0182 5.21875 16.0547C5.09896 16.0859 5.0026 16.1615 4.92969 16.2812L3.90625 18.0625C3.83854 18.1719 3.82031 18.2865 3.85156 18.4062C3.88281 18.5312 3.96094 18.6276 4.08594 18.6953C4.20052 18.7578 4.32031 18.7708 4.44531 18.7344C4.57031 18.7031 4.66406 18.6302 4.72656 18.5156ZM6.54688 20.7422L8.85156 16.7422C8.91927 16.6276 8.9375 16.5104 8.90625 16.3906C8.875 16.2708 8.80469 16.1771 8.69531 16.1094C8.58073 16.0417 8.46094 16.0234 8.33594 16.0547C8.21094 16.0859 8.11458 16.1615 8.04688 16.2812L5.75781 20.2656C5.6901 20.3854 5.67188 20.5052 5.70312 20.625C5.73438 20.75 5.80729 20.8464 5.92188 20.9141C6.03646 20.9766 6.15104 20.9922 6.26562 20.9609C6.38542 20.9297 6.47917 20.8568 6.54688 20.7422ZM10.9453 18.5078L11.9609 16.7422C12.0339 16.6224 12.0521 16.5026 12.0156 16.3828C11.9844 16.2578 11.9089 16.1615 11.7891 16.0938C11.6745 16.026 11.5547 16.0104 11.4297 16.0469C11.3099 16.0781 11.2161 16.1536 11.1484 16.2734L10.125 18.0547C10.0573 18.1641 10.0391 18.2786 10.0703 18.3984C10.1016 18.5234 10.1771 18.6198 10.2969 18.6875C10.4115 18.75 10.5312 18.763 10.6562 18.7266C10.7812 18.6953 10.8776 18.6224 10.9453 18.5078ZM12.7578 20.7344L15.0703 16.7344C15.138 16.6198 15.1562 16.5026 15.125 16.3828C15.0938 16.263 15.0208 16.1693 14.9062 16.1016C14.7969 16.0339 14.6797 16.0156 14.5547 16.0469C14.4297 16.0781 14.3333 16.1536 14.2656 16.2734L11.9688 20.2578C11.901 20.3776 11.8828 20.4974 11.9141 20.6172C11.9453 20.7422 12.0182 20.8385 12.1328 20.9062C12.2474 20.9688 12.362 20.9844 12.4766 20.9531C12.5964 20.9219 12.6901 20.849 12.7578 20.7344Z"
		fill="currentColor"
	/>
</svg>
