<svg
	color="rgb(var(--foreground, 0, 0, 0))"
	viewBox="0 0 20 24"
	fill="none"
	xmlns="http://www.w3.org/2000/svg"
>
	<path
		d="M6.13318 18.8594H15.5472C16.2504 18.8594 16.8623 18.7135 17.3832 18.4219C17.9092 18.1302 18.3181 17.737 18.6097 17.2422C18.9014 16.7474 19.0472 16.1927 19.0472 15.5781C19.042 15.0677 18.9327 14.5938 18.7191 14.1562C18.5056 13.7135 18.2087 13.3385 17.8285 13.0312C17.4535 12.7188 17.0186 12.4974 16.5238 12.3672C16.4613 11.7266 16.2556 11.151 15.9066 10.6406C15.5629 10.125 15.1202 9.71615 14.5785 9.41406C14.0368 9.11198 13.4457 8.96094 12.8051 8.96094C12.1957 8.96094 11.6254 9.09896 11.0941 9.375C10.5629 9.64583 10.1176 10.0208 9.75818 10.5C9.61755 10.4688 9.46912 10.4427 9.31287 10.4219C9.16182 10.3958 9.01078 10.3828 8.85974 10.3828C8.35974 10.388 7.8936 10.5 7.4613 10.7188C7.03422 10.9375 6.67485 11.237 6.38318 11.6172C6.09151 11.9922 5.8962 12.4219 5.79724 12.9062C5.27641 12.9635 4.80766 13.1302 4.39099 13.4062C3.97432 13.6771 3.6462 14.0286 3.40662 14.4609C3.16703 14.888 3.04724 15.3594 3.04724 15.875C3.04724 16.4479 3.18005 16.9609 3.44568 17.4141C3.7113 17.862 4.07589 18.2135 4.53943 18.4688C5.00818 18.7292 5.53943 18.8594 6.13318 18.8594ZM6.13318 17.6797C5.56547 17.6797 5.10453 17.513 4.75037 17.1797C4.40141 16.8464 4.22693 16.4115 4.22693 15.875C4.22693 15.5365 4.31026 15.2318 4.47693 14.9609C4.6436 14.6849 4.86755 14.4661 5.1488 14.3047C5.43005 14.138 5.74776 14.0521 6.10193 14.0469C6.37276 14.0365 6.56807 13.9844 6.68787 13.8906C6.81287 13.7969 6.88578 13.6354 6.90662 13.4062C6.94828 12.8698 7.15141 12.4297 7.51599 12.0859C7.88578 11.737 8.3337 11.5625 8.85974 11.5625C9.01078 11.5625 9.14099 11.5755 9.25037 11.6016C9.36495 11.6276 9.50297 11.6719 9.66443 11.7344C9.87797 11.8177 10.0498 11.8411 10.1801 11.8047C10.3103 11.763 10.4196 11.6562 10.5082 11.4844C10.7113 11.0781 11.0186 10.7552 11.4301 10.5156C11.8467 10.2708 12.3051 10.1458 12.8051 10.1406C13.2738 10.1406 13.7009 10.2578 14.0863 10.4922C14.4769 10.7266 14.7868 11.0391 15.016 11.4297C15.2452 11.8203 15.3597 12.2526 15.3597 12.7266C15.3597 12.9974 15.4066 13.1875 15.5004 13.2969C15.5993 13.401 15.7816 13.4688 16.0472 13.5C16.391 13.5417 16.6983 13.6615 16.9691 13.8594C17.2452 14.0521 17.4639 14.2995 17.6254 14.6016C17.7868 14.8984 17.8676 15.224 17.8676 15.5781C17.8676 16 17.7686 16.3698 17.5707 16.6875C17.378 17 17.1071 17.2448 16.7582 17.4219C16.4144 17.5938 16.0108 17.6797 15.5472 17.6797H6.13318ZM0.375366 11.7656C0.375366 12.349 0.5212 12.888 0.812866 13.3828C1.10974 13.8724 1.5238 14.2656 2.05505 14.5625C2.59151 14.8594 3.22172 15.0078 3.94568 15.0078H4.0238L4.39099 13.8281H4.10974C3.59412 13.8281 3.1436 13.7396 2.75818 13.5625C2.37797 13.3802 2.0811 13.1354 1.86755 12.8281C1.65922 12.5156 1.55505 12.1615 1.55505 11.7656C1.55505 11.401 1.63578 11.0677 1.79724 10.7656C1.96391 10.4583 2.18526 10.2057 2.4613 10.0078C2.74255 9.8099 3.04985 9.69271 3.38318 9.65625C3.62276 9.625 3.79203 9.55208 3.89099 9.4375C3.98995 9.31771 4.03943 9.13281 4.03943 8.88281C4.03422 8.42448 4.1488 8 4.38318 7.60938C4.61755 7.21875 4.93266 6.90625 5.32849 6.67188C5.72432 6.4375 6.15922 6.32031 6.63318 6.32031C7.11235 6.32552 7.54203 6.44271 7.92224 6.67188C8.30766 6.90104 8.63057 7.22656 8.89099 7.64844C8.98474 7.80469 9.10193 7.90365 9.24255 7.94531C9.38839 7.98177 9.56026 7.96875 9.75818 7.90625C9.86755 7.86979 9.99776 7.83854 10.1488 7.8125C10.2998 7.78125 10.4613 7.76562 10.6332 7.76562C11.1123 7.76562 11.5264 7.92969 11.8754 8.25781C12.2243 8.58073 12.4066 8.98177 12.4222 9.46094H13.6254C13.6149 8.92448 13.4769 8.4401 13.2113 8.00781C12.9509 7.57031 12.6019 7.22396 12.1644 6.96875C11.7321 6.71354 11.2504 6.58594 10.7191 6.58594C10.5212 6.58594 10.3363 6.59635 10.1644 6.61719C9.99255 6.63802 9.8337 6.66927 9.68787 6.71094C9.23995 6.17448 8.76599 5.77865 8.26599 5.52344C7.7712 5.26823 7.22693 5.14062 6.63318 5.14062C5.98735 5.14583 5.39099 5.29948 4.84412 5.60156C4.30245 5.90365 3.85453 6.3125 3.50037 6.82812C3.15141 7.34375 2.94047 7.92188 2.86755 8.5625C2.37797 8.6875 1.94568 8.90885 1.57068 9.22656C1.19568 9.53906 0.901408 9.91406 0.687866 10.3516C0.479533 10.7891 0.375366 11.2604 0.375366 11.7656Z"
		fill="currentColor"
	/>
</svg>
