<svg
	color="rgb(var(--foreground, 0, 0, 0))"
	viewBox="0 0 20 24"
	fill="none"
	xmlns="http://www.w3.org/2000/svg"
>
	<path
		d="M4.5 18.1797H14.6797C15.3359 18.1797 15.9453 18.0625 16.5078 17.8281C17.0755 17.599 17.5703 17.2786 17.9922 16.8672C18.4193 16.4557 18.75 15.974 18.9844 15.4219C19.224 14.8698 19.3438 14.276 19.3438 13.6406C19.3438 12.9948 19.2188 12.3984 18.9688 11.8516C18.724 11.3047 18.3802 10.8281 17.9375 10.4219C17.4948 10.0156 16.974 9.70052 16.375 9.47656C15.7812 9.2526 15.1328 9.14323 14.4297 9.14844C13.9141 8.11198 13.1953 7.29948 12.2734 6.71094C11.3568 6.11719 10.3177 5.82031 9.15625 5.82031C8.39583 5.82031 7.67448 5.96094 6.99219 6.24219C6.3151 6.51823 5.71094 6.90365 5.17969 7.39844C4.64844 7.89323 4.21615 8.47135 3.88281 9.13281C3.55469 9.79427 3.35938 10.5104 3.29688 11.2812C2.78125 11.4271 2.32552 11.6641 1.92969 11.9922C1.53385 12.3203 1.22396 12.7161 1 13.1797C0.78125 13.6432 0.671875 14.151 0.671875 14.7031C0.671875 15.3802 0.830729 15.9818 1.14844 16.5078C1.46615 17.0286 1.91146 17.4375 2.48438 17.7344C3.05729 18.0312 3.72917 18.1797 4.5 18.1797Z"
		fill="currentColor"
	/>
</svg>
