<svg
	color="rgb(var(--foreground, 0, 0, 0))"
	viewBox="0 0 20 24"
	fill="none"
	xmlns="http://www.w3.org/2000/svg"
>
	<path
		d="M6.05505 18.8125H15.766C16.417 18.8125 16.9899 18.6719 17.4847 18.3906C17.9795 18.1094 18.3649 17.7318 18.641 17.2578C18.917 16.7786 19.0551 16.2474 19.0551 15.6641C19.0551 15.1484 18.9431 14.6745 18.7191 14.2422C18.4952 13.8047 18.1905 13.4375 17.8051 13.1406C17.4196 12.8438 16.9847 12.6458 16.5004 12.5469C16.4587 11.9115 16.2738 11.3333 15.9457 10.8125C15.6176 10.2865 15.1853 9.86979 14.6488 9.5625C14.1176 9.25 13.529 9.09375 12.8832 9.09375C12.2478 9.09375 11.6644 9.24219 11.1332 9.53906C10.6019 9.83073 10.1696 10.224 9.8363 10.7188C9.50818 10.6094 9.17745 10.5547 8.84412 10.5547C8.34412 10.5547 7.88318 10.6667 7.4613 10.8906C7.04464 11.1094 6.69568 11.4115 6.41443 11.7969C6.13839 12.1823 5.96391 12.6198 5.89099 13.1094C5.37016 13.125 4.8988 13.263 4.47693 13.5234C4.06026 13.7839 3.72693 14.1276 3.47693 14.5547C3.23214 14.9766 3.10974 15.4427 3.10974 15.9531C3.10974 16.4844 3.23214 16.9661 3.47693 17.3984C3.72172 17.8307 4.06547 18.1745 4.50818 18.4297C4.95089 18.6849 5.46651 18.8125 6.05505 18.8125ZM2.34412 14.7422C2.48474 14.2578 2.68787 13.8359 2.95349 13.4766C3.21912 13.112 3.53682 12.8151 3.90662 12.5859C4.28162 12.3568 4.70089 12.1979 5.16443 12.1094C5.35714 11.5052 5.6436 11.0052 6.0238 10.6094C6.40401 10.2083 6.84672 9.90885 7.35193 9.71094C7.85714 9.51302 8.3988 9.41406 8.97693 9.41406C9.07068 9.41406 9.16182 9.41927 9.25037 9.42969C9.34412 9.4401 9.43266 9.45052 9.51599 9.46094C9.85974 8.96094 10.2894 8.58854 10.8051 8.34375C11.3207 8.09896 11.9118 7.97656 12.5785 7.97656C12.4431 7.6224 12.1774 7.3125 11.7816 7.04688C11.391 6.77604 10.8832 6.64062 10.2582 6.64062C10.0759 6.64062 9.90401 6.65625 9.74255 6.6875C9.5863 6.71875 9.42745 6.76042 9.26599 6.8125C8.92224 6.3125 8.48735 5.91667 7.9613 5.625C7.44047 5.33333 6.86755 5.1875 6.24255 5.1875C5.60193 5.1875 5.01078 5.34375 4.46912 5.65625C3.93266 5.96354 3.49516 6.3776 3.15662 6.89844C2.82328 7.41927 2.63839 7.9974 2.60193 8.63281C2.11235 8.73698 1.67485 8.9401 1.28943 9.24219C0.904012 9.53906 0.599325 9.90365 0.375366 10.3359C0.156616 10.7682 0.0472412 11.2396 0.0472412 11.75C0.0472412 12.4375 0.247762 13.0547 0.648804 13.6016C1.04985 14.1432 1.61495 14.5234 2.34412 14.7422Z"
		fill="currentColor"
	/>
</svg>
