<svg
	color="rgb(var(--foreground, 0, 0, 0))"
	viewBox="0 0 19 24"
	fill="none"
	xmlns="http://www.w3.org/2000/svg"
>
	<path
		d="M4.01562 14.8694H13.7109C14.3516 14.8694 14.9427 14.7574 15.4844 14.5334C16.0312 14.3095 16.5052 13.997 16.9062 13.5959C17.3125 13.1949 17.625 12.7314 17.8438 12.2053C18.0677 11.6793 18.1797 11.1168 18.1797 10.5178C18.1797 9.89282 18.0599 9.31991 17.8203 8.79907C17.5859 8.27303 17.2552 7.8173 16.8281 7.43188C16.4062 7.04126 15.9115 6.73918 15.3438 6.52563C14.776 6.31209 14.1615 6.20532 13.5 6.20532C13.1771 5.5647 12.763 5.00741 12.2578 4.53345C11.7578 4.05428 11.1875 3.68449 10.5469 3.42407C9.90625 3.16366 9.20833 3.03345 8.45312 3.03345C7.71875 3.03345 7.02604 3.16886 6.375 3.4397C5.72917 3.70532 5.15104 4.07511 4.64062 4.54907C4.13021 5.02303 3.71615 5.57511 3.39844 6.20532C3.08594 6.83553 2.89844 7.51261 2.83594 8.23657C2.36198 8.37199 1.9375 8.59595 1.5625 8.90845C1.1875 9.21574 0.890625 9.59074 0.671875 10.0334C0.453125 10.4762 0.34375 10.9736 0.34375 11.5256C0.34375 12.1402 0.486979 12.7027 0.773438 13.2131C1.0651 13.7183 1.48438 14.122 2.03125 14.4241C2.57812 14.7209 3.23958 14.8694 4.01562 14.8694ZM4 13.6194C3.46354 13.6194 3.01823 13.5282 2.66406 13.3459C2.3099 13.1637 2.04167 12.9189 1.85938 12.6116C1.68229 12.2991 1.59375 11.9501 1.59375 11.5647C1.59375 11.0959 1.73958 10.6689 2.03125 10.2834C2.32292 9.89282 2.80208 9.60897 3.46875 9.43188C3.6875 9.37459 3.84115 9.28866 3.92969 9.17407C4.01823 9.05949 4.07292 8.89282 4.09375 8.67407C4.13542 8.03345 4.27865 7.44751 4.52344 6.91626C4.77344 6.3798 5.09635 5.91626 5.49219 5.52563C5.88802 5.1298 6.33854 4.82511 6.84375 4.61157C7.35417 4.39282 7.89062 4.28345 8.45312 4.28345C9.33333 4.28345 10.112 4.51782 10.7891 4.98657C11.4661 5.45011 12.0156 6.11418 12.4375 6.97876C12.526 7.17147 12.6354 7.30688 12.7656 7.38501C12.8958 7.45793 13.0781 7.49438 13.3125 7.49438C14.0833 7.49438 14.737 7.63501 15.2734 7.91626C15.8151 8.1923 16.2266 8.56209 16.5078 9.02563C16.7891 9.48918 16.9297 9.99699 16.9297 10.5491C16.9297 11.1168 16.7917 11.6324 16.5156 12.0959C16.2396 12.5595 15.8646 12.9293 15.3906 13.2053C14.9167 13.4814 14.3828 13.6194 13.7891 13.6194H4ZM4.21875 18.5256L5.23438 16.76C5.30729 16.6402 5.32552 16.5204 5.28906 16.4006C5.25781 16.2756 5.1849 16.1793 5.07031 16.1116C4.95052 16.0439 4.83073 16.0282 4.71094 16.0647C4.59115 16.0959 4.49479 16.1715 4.42188 16.2913L3.39844 18.0725C3.33073 18.1819 3.3125 18.2965 3.34375 18.4163C3.375 18.5413 3.45312 18.6376 3.57812 18.7053C3.69271 18.7678 3.8125 18.7808 3.9375 18.7444C4.0625 18.7131 4.15625 18.6402 4.21875 18.5256ZM6.66406 20.7209L7.67969 18.9631C7.7526 18.8433 7.77083 18.7209 7.73438 18.5959C7.70312 18.4762 7.63021 18.3824 7.51562 18.3147C7.39583 18.247 7.27604 18.2288 7.15625 18.26C7.03646 18.2965 6.9401 18.3746 6.86719 18.4944L5.84375 20.2678C5.77604 20.3824 5.75781 20.4996 5.78906 20.6194C5.82031 20.7392 5.89583 20.8329 6.01562 20.9006C6.13542 20.9683 6.25521 20.984 6.375 20.9475C6.5 20.9163 6.59635 20.8407 6.66406 20.7209ZM10.4375 18.5178L11.4531 16.7522C11.526 16.6324 11.5443 16.5126 11.5078 16.3928C11.4766 16.2678 11.401 16.1715 11.2812 16.1038C11.1667 16.0361 11.0469 16.0204 10.9219 16.0569C10.8021 16.0881 10.7083 16.1637 10.6406 16.2834L9.61719 18.0647C9.54948 18.1741 9.53125 18.2887 9.5625 18.4084C9.59375 18.5334 9.66927 18.6298 9.78906 18.6975C9.90365 18.76 10.0234 18.773 10.1484 18.7366C10.2734 18.7053 10.3698 18.6324 10.4375 18.5178ZM12.8828 20.7131L13.8984 18.9553C13.9661 18.8355 13.9844 18.7131 13.9531 18.5881C13.9219 18.4683 13.8464 18.3746 13.7266 18.3069C13.6068 18.2392 13.487 18.2209 13.3672 18.2522C13.2474 18.2887 13.1536 18.3668 13.0859 18.4866L12.0547 20.26C11.9922 20.3746 11.9766 20.4918 12.0078 20.6116C12.0391 20.7314 12.1146 20.8251 12.2344 20.8928C12.349 20.9605 12.4688 20.9762 12.5938 20.9397C12.7188 20.9084 12.8151 20.8329 12.8828 20.7131Z"
		fill="currentColor"
	/>
</svg>
