<svg
	color="rgb(var(--foreground, 0, 0, 0))"
	viewBox="0 0 23 24"
	fill="none"
	xmlns="http://www.w3.org/2000/svg"
>
	<path
		d="M3.35156 16.6108H11.8047C12.5599 16.6108 13.2396 16.439 13.8438 16.0952C14.4479 15.7463 14.9271 15.2775 15.2812 14.689C15.6406 14.0952 15.8203 13.4312 15.8203 12.6968C15.8203 11.9676 15.638 11.314 15.2734 10.7358C14.9141 10.1525 14.4245 9.69157 13.8047 9.35303C13.1849 9.01449 12.4844 8.84001 11.7031 8.82959C11.2448 7.97021 10.625 7.29574 9.84375 6.80615C9.06771 6.31136 8.19531 6.06396 7.22656 6.06396C6.58073 6.06396 5.96875 6.18115 5.39062 6.41553C4.81771 6.6499 4.30469 6.97542 3.85156 7.39209C3.39844 7.80355 3.02865 8.28532 2.74219 8.8374C2.46094 9.38949 2.28646 9.98584 2.21875 10.6265C1.56771 10.8296 1.04167 11.1968 0.640625 11.728C0.239583 12.2541 0.0390625 12.8739 0.0390625 13.5874C0.0390625 14.1707 0.177083 14.6916 0.453125 15.1499C0.729167 15.603 1.11458 15.9598 1.60938 16.2202C2.10938 16.4806 2.6901 16.6108 3.35156 16.6108ZM3.32031 15.3608C2.8776 15.3608 2.50521 15.2827 2.20312 15.1265C1.90104 14.9702 1.67188 14.7619 1.51562 14.5015C1.36458 14.2358 1.28906 13.9416 1.28906 13.6187C1.28906 13.202 1.41667 12.8244 1.67188 12.4858C1.92708 12.1473 2.34375 11.9025 2.92188 11.7515C3.10938 11.7046 3.24219 11.6317 3.32031 11.5327C3.40365 11.4338 3.45312 11.2853 3.46875 11.0874C3.51562 10.5405 3.64323 10.0379 3.85156 9.57959C4.0651 9.11605 4.34115 8.71761 4.67969 8.38428C5.02344 8.04574 5.41146 7.78532 5.84375 7.60303C6.28125 7.41553 6.74219 7.32178 7.22656 7.32178C7.73177 7.32178 8.19792 7.41292 8.625 7.59521C9.05208 7.7723 9.4349 8.03271 9.77344 8.37646C10.112 8.71501 10.4036 9.12646 10.6484 9.61084C10.7318 9.77751 10.8281 9.89469 10.9375 9.9624C11.0521 10.0301 11.2083 10.064 11.4062 10.064C12.0781 10.064 12.6484 10.1864 13.1172 10.4312C13.5911 10.6707 13.9505 10.9937 14.1953 11.3999C14.4401 11.8062 14.5625 12.2515 14.5625 12.7358C14.5625 13.2202 14.4427 13.6603 14.2031 14.0562C13.9635 14.452 13.6354 14.7697 13.2188 15.0093C12.8073 15.2437 12.3438 15.3608 11.8281 15.3608H3.32031ZM14.6562 5.04834C13.9375 5.04834 13.2865 5.22282 12.7031 5.57178C12.1198 5.91553 11.6536 6.38167 11.3047 6.97021C10.9609 7.55355 10.7891 8.20459 10.7891 8.92334C10.7891 8.97021 10.7917 9.01709 10.7969 9.06396C10.8021 9.11084 10.8047 9.15511 10.8047 9.19678L11.9844 9.31396C11.9688 9.25146 11.9557 9.18896 11.9453 9.12646C11.9401 9.05876 11.9375 8.99105 11.9375 8.92334C11.9375 8.41292 12.0573 7.95199 12.2969 7.54053C12.5417 7.12907 12.8672 6.80355 13.2734 6.56396C13.6849 6.31917 14.1458 6.19678 14.6562 6.19678C15.1667 6.19678 15.625 6.31917 16.0312 6.56396C16.4427 6.80355 16.7682 7.12907 17.0078 7.54053C17.2526 7.95199 17.375 8.41292 17.375 8.92334C17.375 9.3348 17.2917 9.71761 17.125 10.0718C16.9635 10.4259 16.7396 10.7332 16.4531 10.9937C16.1667 11.2489 15.8359 11.4364 15.4609 11.5562L15.4688 12.7358C16.0573 12.6056 16.5807 12.3582 17.0391 11.9937C17.4974 11.6239 17.8568 11.1759 18.1172 10.6499C18.3828 10.1187 18.5156 9.54313 18.5156 8.92334C18.5156 8.20459 18.3438 7.55355 18 6.97021C17.6562 6.38167 17.1901 5.91553 16.6016 5.57178C16.0182 5.22282 15.3698 5.04834 14.6562 5.04834ZM10.125 5.31396C10.2552 5.44417 10.4115 5.50928 10.5938 5.50928C10.776 5.50407 10.9271 5.43896 11.0469 5.31396C11.1667 5.18896 11.2266 5.03792 11.2266 4.86084C11.2318 4.68376 11.1719 4.53271 11.0469 4.40771L9.84375 3.19678C9.71875 3.07178 9.56771 3.00928 9.39062 3.00928C9.21354 3.00928 9.0625 3.07178 8.9375 3.19678C8.8125 3.32178 8.7474 3.47542 8.74219 3.65771C8.74219 3.8348 8.80729 3.98844 8.9375 4.11865L10.125 5.31396ZM14.6562 3.80615C14.8333 3.80615 14.9844 3.74365 15.1094 3.61865C15.2396 3.48844 15.3047 3.3348 15.3047 3.15771V1.47021C15.3047 1.29313 15.2396 1.14209 15.1094 1.01709C14.9844 0.886882 14.8333 0.821777 14.6562 0.821777C14.4792 0.821777 14.3255 0.886882 14.1953 1.01709C14.0703 1.14209 14.0078 1.29313 14.0078 1.47021V3.15771C14.0078 3.3348 14.0703 3.48844 14.1953 3.61865C14.3255 3.74365 14.4792 3.80615 14.6562 3.80615ZM18.2656 5.31396C18.3854 5.43896 18.5365 5.50407 18.7188 5.50928C18.9062 5.50928 19.0625 5.44417 19.1875 5.31396L20.3828 4.11865C20.5078 3.98844 20.5703 3.8348 20.5703 3.65771C20.5703 3.47542 20.5078 3.32178 20.3828 3.19678C20.2578 3.07178 20.1068 3.00928 19.9297 3.00928C19.7526 3.00928 19.6016 3.07178 19.4766 3.19678L18.2656 4.40771C18.1406 4.53271 18.0781 4.68376 18.0781 4.86084C18.0833 5.03792 18.1458 5.18896 18.2656 5.31396ZM20.4062 9.57178H22.1016C22.2786 9.57178 22.4297 9.50928 22.5547 9.38428C22.6797 9.25407 22.7422 9.10042 22.7422 8.92334C22.7422 8.74626 22.6797 8.59521 22.5547 8.47021C22.4297 8.34001 22.2786 8.2749 22.1016 8.2749H20.4062C20.2344 8.2749 20.0833 8.34001 19.9531 8.47021C19.8229 8.59521 19.7578 8.74626 19.7578 8.92334C19.7578 9.10042 19.8229 9.25407 19.9531 9.38428C20.0833 9.50928 20.2344 9.57178 20.4062 9.57178ZM19.4766 14.6577C19.6016 14.7827 19.7526 14.8452 19.9297 14.8452C20.1068 14.84 20.2578 14.7749 20.3828 14.6499C20.5078 14.5249 20.5703 14.3739 20.5703 14.1968C20.5703 14.0145 20.5078 13.8634 20.3828 13.7437L19.1719 12.5405C19.0469 12.4207 18.8958 12.3608 18.7188 12.3608C18.5417 12.3556 18.3906 12.4155 18.2656 12.5405C18.1406 12.6655 18.0781 12.8192 18.0781 13.0015C18.0781 13.1785 18.1406 13.3296 18.2656 13.4546L19.4766 14.6577ZM9.82031 19.3687H8.10938L8.09375 19.7046L8.98438 18.0093C9.02604 17.9259 9.03125 17.8556 9 17.7983C8.97396 17.7463 8.91667 17.7202 8.82812 17.7202H7.19531C7.09115 17.7202 7.01562 17.7384 6.96875 17.7749C6.92188 17.8166 6.88021 17.8765 6.84375 17.9546L5.84375 20.228C5.80208 20.3166 5.79948 20.3869 5.83594 20.439C5.8776 20.4963 5.94792 20.5249 6.04688 20.5249H7.44531L7.53906 20.0718L6.35156 22.9468C6.30469 23.0562 6.32031 23.1291 6.39844 23.1655C6.47656 23.1968 6.55469 23.1707 6.63281 23.0874L9.9375 19.7437C10.0156 19.6603 10.0417 19.577 10.0156 19.4937C9.99479 19.4103 9.92969 19.3687 9.82031 19.3687Z"
		fill="currentColor"
	/>
</svg>
