<svg
	color="rgb(var(--foreground, 0, 0, 0))"
	viewBox="0 0 22 24"
	fill="none"
	xmlns="http://www.w3.org/2000/svg"
>
	<path
		d="M4.09399 15.4945H12.5471C13.2815 15.4945 13.9456 15.3253 14.5393 14.9867C15.1331 14.6482 15.6044 14.1899 15.9534 13.6117C16.3023 13.0284 16.4768 12.3774 16.4768 11.6586C16.4768 10.9399 16.2971 10.2966 15.9377 9.72891C15.5836 9.156 15.0992 8.70287 14.4846 8.36954C13.87 8.03621 13.1721 7.86694 12.3909 7.86173C12.0888 7.2836 11.7112 6.78881 11.2581 6.37735C10.8101 5.96069 10.3049 5.64558 9.74243 5.43204C9.18514 5.21329 8.59139 5.10391 7.96118 5.10391C7.32576 5.10391 6.7242 5.2185 6.15649 5.44766C5.58879 5.67683 5.08097 5.99714 4.63306 6.4086C4.18514 6.82006 3.82056 7.30183 3.53931 7.85391C3.25806 8.406 3.08879 9.00235 3.03149 9.64298C2.36483 9.84089 1.83358 10.2029 1.43774 10.7289C1.04712 11.2497 0.851807 11.8539 0.851807 12.5414C0.851807 13.1247 0.987223 13.6404 1.25806 14.0883C1.5341 14.531 1.91431 14.8774 2.39868 15.1274C2.88826 15.3721 3.45337 15.4945 4.09399 15.4945ZM17.4534 11.5258C18.0627 11.4216 18.607 11.2315 19.0862 10.9555C19.5653 10.6794 19.9716 10.3617 20.3049 10.0024C20.6435 9.63777 20.9013 9.26537 21.0784 8.88516C21.2555 8.50496 21.344 8.156 21.344 7.83829C21.344 7.68725 21.3101 7.56225 21.2424 7.46329C21.1747 7.35912 21.0784 7.30704 20.9534 7.30704C20.8284 7.30704 20.6773 7.34871 20.5002 7.43204C20.3232 7.51537 20.107 7.59871 19.8518 7.68204C19.5966 7.76537 19.2893 7.80704 18.9299 7.80704C18.2945 7.80704 17.7424 7.68725 17.2737 7.44766C16.8101 7.20808 16.4508 6.87214 16.1956 6.43985C15.9403 6.00235 15.8127 5.49194 15.8127 4.9086C15.8127 4.56485 15.8596 4.25235 15.9534 3.9711C16.0471 3.68985 16.1383 3.44506 16.2268 3.23673C16.3206 3.02319 16.3674 2.8461 16.3674 2.70548C16.3674 2.58569 16.3258 2.48933 16.2424 2.41641C16.1643 2.3435 16.0471 2.30964 15.8909 2.31485C15.5263 2.33048 15.1513 2.43725 14.7659 2.63516C14.3805 2.82787 14.0107 3.0935 13.6565 3.43204C13.3075 3.77058 13.0028 4.16641 12.7424 4.61954C12.4872 5.06746 12.3075 5.54923 12.2034 6.06485C12.3232 6.17944 12.4403 6.31485 12.5549 6.4711C12.6695 6.62214 12.7737 6.80183 12.8674 7.01016C13.5289 7.06225 14.1357 7.21589 14.6877 7.4711C15.2398 7.72631 15.719 8.05964 16.1252 8.4711C16.5367 8.88256 16.857 9.34871 17.0862 9.86954C17.3206 10.3904 17.443 10.9425 17.4534 11.5258ZM3.92993 19.2367L4.95337 17.4789C5.02108 17.3591 5.0367 17.2393 5.00024 17.1195C4.96899 16.9945 4.89608 16.8982 4.78149 16.8305C4.6617 16.7628 4.54191 16.7471 4.42212 16.7836C4.30233 16.8149 4.20597 16.8904 4.13306 17.0102L3.10962 18.7836C3.04712 18.8982 3.03149 19.0154 3.06274 19.1352C3.09399 19.255 3.16951 19.3513 3.28931 19.4242C3.40389 19.4867 3.52368 19.4997 3.64868 19.4633C3.77368 19.432 3.86743 19.3565 3.92993 19.2367ZM6.37524 21.4399L7.39087 19.6742C7.46379 19.5596 7.48201 19.4399 7.44556 19.3149C7.41431 19.1899 7.34139 19.0935 7.22681 19.0258C7.10701 18.9581 6.98722 18.9399 6.86743 18.9711C6.74764 19.0076 6.65129 19.0857 6.57837 19.2055L5.55493 20.9867C5.48722 21.0961 5.46899 21.2107 5.50024 21.3305C5.53149 21.4555 5.60962 21.5518 5.73462 21.6195C5.8492 21.6872 5.96899 21.7029 6.09399 21.6664C6.21899 21.63 6.31274 21.5544 6.37524 21.4399ZM10.1487 19.2289L11.1643 17.4711C11.2372 17.3513 11.2555 17.2315 11.219 17.1117C11.1877 16.9867 11.1148 16.8904 11.0002 16.8227C10.8805 16.755 10.7607 16.7393 10.6409 16.7758C10.5211 16.807 10.4247 16.8826 10.3518 17.0024L9.32837 18.7758C9.26066 18.8904 9.24243 19.0076 9.27368 19.1274C9.30493 19.2471 9.38045 19.3435 9.50024 19.4164C9.62004 19.4789 9.73983 19.4919 9.85962 19.4555C9.98462 19.4242 10.081 19.3487 10.1487 19.2289ZM12.594 21.432L13.6096 19.6664C13.6825 19.5518 13.7008 19.432 13.6643 19.307C13.6331 19.182 13.5575 19.0857 13.4377 19.018C13.3232 18.9503 13.2034 18.932 13.0784 18.9633C12.9586 18.9997 12.8648 19.0779 12.7971 19.1977L11.7737 20.9789C11.706 21.0883 11.6877 21.2029 11.719 21.3227C11.7502 21.4477 11.8258 21.544 11.9456 21.6117C12.0601 21.6794 12.1799 21.6951 12.3049 21.6586C12.4299 21.6221 12.5263 21.5466 12.594 21.432Z"
		fill="currentColor"
	/>
</svg>
