<svg
	color="rgb(var(--foreground, 0, 0, 0))"
	viewBox="0 0 22 24"
	fill="none"
	xmlns="http://www.w3.org/2000/svg"
>
	<path
		d="M4.12537 15.2596H12.5785C13.3129 15.2596 13.9769 15.0903 14.5707 14.7517C15.1644 14.408 15.6358 13.9471 15.9847 13.3689C16.3337 12.7908 16.5082 12.1398 16.5082 11.4158C16.5082 10.7023 16.3285 10.0616 15.9691 9.49393C15.6149 8.92101 15.1306 8.46789 14.516 8.13455C13.9014 7.80122 13.2035 7.63195 12.4222 7.62674C12.1202 7.04341 11.7426 6.54601 11.2894 6.13455C10.8415 5.7231 10.3363 5.4106 9.7738 5.19705C9.21651 4.9783 8.62276 4.86893 7.99255 4.86893C7.35714 4.86893 6.75557 4.98351 6.18787 5.21268C5.62016 5.44185 5.11235 5.76216 4.66443 6.17362C4.21651 6.58507 3.85193 7.06685 3.57068 7.61893C3.28943 8.17101 3.12016 8.76737 3.06287 9.40799C2.3962 9.60591 1.86495 9.96789 1.46912 10.4939C1.07849 11.0148 0.883179 11.6189 0.883179 12.3064C0.883179 12.8898 1.0186 13.4028 1.28943 13.8455C1.56547 14.2882 1.94568 14.6346 2.43005 14.8846C2.91964 15.1346 3.48474 15.2596 4.12537 15.2596ZM17.4847 11.2908C18.0941 11.1814 18.6384 10.9913 19.1176 10.7205C19.5967 10.4444 20.003 10.1267 20.3363 9.76737C20.6748 9.40278 20.9327 9.03039 21.1097 8.65018C21.2868 8.26997 21.3754 7.91841 21.3754 7.59549C21.3754 7.44445 21.3415 7.31945 21.2738 7.22049C21.2061 7.12153 21.1097 7.07205 20.9847 7.07205C20.8597 7.07205 20.7087 7.11372 20.5316 7.19705C20.3545 7.28039 20.1384 7.36372 19.8832 7.44705C19.628 7.53039 19.3207 7.57205 18.9613 7.57205C18.3259 7.57205 17.7738 7.45226 17.3051 7.21268C16.8415 6.96789 16.4821 6.62935 16.2269 6.19705C15.9717 5.76476 15.8441 5.25695 15.8441 4.67362C15.8441 4.32987 15.891 4.01737 15.9847 3.73612C16.0785 3.45487 16.1696 3.21007 16.2582 3.00174C16.3519 2.7882 16.3988 2.61112 16.3988 2.47049C16.3988 2.3507 16.3571 2.25435 16.2738 2.18143C16.1957 2.10851 16.0785 2.07466 15.9222 2.07987C15.5577 2.09028 15.1827 2.19445 14.7972 2.39237C14.4118 2.59028 14.042 2.85851 13.6879 3.19705C13.3389 3.5356 13.0342 3.92882 12.7738 4.37674C12.5186 4.82466 12.3389 5.30903 12.2347 5.82987C12.3545 5.94445 12.4717 6.07987 12.5863 6.23612C12.7009 6.38716 12.8051 6.56685 12.8988 6.77518C13.5603 6.82205 14.167 6.9757 14.7191 7.23612C15.2712 7.49132 15.7504 7.82466 16.1566 8.23612C16.5681 8.64237 16.8884 9.10851 17.1176 9.63455C17.3519 10.1554 17.4743 10.7075 17.4847 11.2908ZM10.641 18.1111H8.93005L8.91443 18.4471L9.80505 16.7596C9.85193 16.671 9.85974 16.6007 9.82849 16.5486C9.79724 16.4913 9.73995 16.4627 9.65662 16.4627H8.0238C7.91443 16.4627 7.8363 16.4835 7.78943 16.5252C7.74255 16.5616 7.70089 16.6189 7.66443 16.6971L6.66443 18.9705C6.62797 19.0642 6.62797 19.1372 6.66443 19.1892C6.70089 19.2465 6.7686 19.2752 6.86755 19.2752H8.26599L8.36755 18.8142L7.17224 21.6892C7.12537 21.8038 7.1436 21.8767 7.22693 21.908C7.30505 21.9392 7.38057 21.9132 7.45349 21.8299L10.7582 18.4861C10.8415 18.408 10.8702 18.3247 10.8441 18.2361C10.8181 18.1528 10.7504 18.1111 10.641 18.1111Z"
		fill="currentColor"
	/>
</svg>
