<svg
	color="rgb(var(--foreground, 0, 0, 0))"
	viewBox="0 0 17 24"
	fill="none"
	xmlns="http://www.w3.org/2000/svg"
>
	<path
		d="M0.808203 10.4297C1.9332 10.0651 3.06602 9.88281 4.20664 9.88281C4.68581 9.88281 5.13112 9.90365 5.54258 9.94531C5.95924 9.98177 6.3681 10.0208 6.76914 10.0625C7.17539 10.099 7.60508 10.1172 8.0582 10.1172C8.52695 10.1172 8.9306 10.0208 9.26914 9.82812C9.61289 9.63542 9.87591 9.3724 10.0582 9.03906C10.2457 8.70573 10.3395 8.33333 10.3395 7.92188C10.3395 7.49479 10.2405 7.11719 10.0426 6.78906C9.84987 6.46094 9.58685 6.20312 9.25352 6.01562C8.92539 5.82812 8.56081 5.73438 8.15977 5.73438C7.71185 5.73438 7.3082 5.85938 6.94883 6.10938C6.58945 6.35938 6.32643 6.66927 6.15977 7.03906C6.09727 7.16927 6.07904 7.30208 6.10508 7.4375C6.13633 7.56771 6.21966 7.66667 6.35508 7.73438C6.48008 7.79688 6.61029 7.80729 6.7457 7.76562C6.88112 7.72396 6.99049 7.625 7.07383 7.46875C7.16237 7.27083 7.30299 7.10417 7.4957 6.96875C7.69362 6.82812 7.91497 6.75781 8.15977 6.75781C8.48268 6.75781 8.75612 6.86458 8.98008 7.07812C9.20404 7.28646 9.31602 7.56771 9.31602 7.92188C9.31602 8.27604 9.20143 8.5625 8.97227 8.78125C8.7431 8.99479 8.43841 9.10156 8.0582 9.10156C7.62591 9.10156 7.20924 9.08333 6.8082 9.04688C6.41237 9.00521 6.00352 8.96615 5.58164 8.92969C5.15977 8.88802 4.70143 8.86719 4.20664 8.86719C3.56602 8.86719 2.9306 8.92188 2.30039 9.03125C1.67018 9.13542 1.06862 9.27865 0.495703 9.46094C0.329036 9.50781 0.214453 9.59375 0.151953 9.71875C0.0894531 9.83854 0.0790365 9.96615 0.120703 10.1016C0.157161 10.237 0.235286 10.3385 0.355078 10.4062C0.480078 10.474 0.63112 10.4818 0.808203 10.4297ZM13.027 14.0859C13.6363 14.0859 14.1728 13.9688 14.6363 13.7344C15.1051 13.4948 15.4723 13.1667 15.7379 12.75C16.0035 12.3333 16.1363 11.8542 16.1363 11.3125C16.1363 10.7812 16.0113 10.3099 15.7613 9.89844C15.5165 9.48177 15.1858 9.15625 14.7691 8.92188C14.3525 8.68229 13.8915 8.5625 13.3863 8.5625C12.9124 8.5625 12.4879 8.66406 12.1129 8.86719C11.7379 9.0651 11.4306 9.33594 11.191 9.67969C10.9514 10.0234 10.8004 10.4089 10.7379 10.8359C10.7118 10.9974 10.7379 11.138 10.816 11.2578C10.8993 11.3724 11.0113 11.4401 11.152 11.4609C11.2978 11.4818 11.4254 11.4479 11.5348 11.3594C11.6493 11.2708 11.7223 11.1354 11.7535 10.9531C11.8004 10.6823 11.8993 10.4453 12.0504 10.2422C12.2066 10.0339 12.3993 9.8724 12.6285 9.75781C12.8577 9.63802 13.1103 9.57812 13.3863 9.57812C13.704 9.57812 13.9931 9.65104 14.2535 9.79688C14.5191 9.94271 14.7275 10.1484 14.8785 10.4141C15.0348 10.6745 15.1129 10.974 15.1129 11.3125C15.1129 11.8333 14.9228 12.2578 14.5426 12.5859C14.1676 12.9089 13.6624 13.0703 13.027 13.0703C12.4332 13.0703 11.8238 13.0026 11.1988 12.8672C10.5738 12.7266 9.92799 12.5677 9.26133 12.3906C8.59987 12.2135 7.90977 12.0573 7.19102 11.9219C6.47747 11.7812 5.73008 11.7109 4.94883 11.7109C4.14154 11.7109 3.3681 11.776 2.62852 11.9062C1.89414 12.0312 1.1832 12.2135 0.495703 12.4531C0.334245 12.5104 0.219661 12.6016 0.151953 12.7266C0.0894531 12.8464 0.0790365 12.974 0.120703 13.1094C0.157161 13.2448 0.237891 13.3464 0.362891 13.4141C0.487891 13.4818 0.636328 13.487 0.808203 13.4297C1.44362 13.1849 2.09987 13.0078 2.77695 12.8984C3.45404 12.7891 4.17799 12.7344 4.94883 12.7344C5.72487 12.7344 6.45924 12.8021 7.15195 12.9375C7.84987 13.0729 8.52174 13.2318 9.16758 13.4141C9.81341 13.5911 10.454 13.7474 11.0895 13.8828C11.7249 14.0182 12.3707 14.0859 13.027 14.0859ZM8.06602 19.5938C8.46706 19.5938 8.82904 19.5 9.15195 19.3125C9.47487 19.1302 9.73008 18.8776 9.91758 18.5547C10.1051 18.2318 10.1988 17.8568 10.1988 17.4297C10.1988 16.5078 9.74049 15.7995 8.82383 15.3047C7.90716 14.8047 6.58164 14.5547 4.84727 14.5547C4.12331 14.5547 3.38112 14.6198 2.6207 14.75C1.86549 14.8802 1.15716 15.0599 0.495703 15.2891C0.334245 15.3464 0.219661 15.4375 0.151953 15.5625C0.0894531 15.6875 0.0790365 15.8151 0.120703 15.9453C0.157161 16.0807 0.237891 16.1823 0.362891 16.25C0.487891 16.3177 0.636328 16.3229 0.808203 16.2656C1.42799 16.0417 2.07904 15.8724 2.76133 15.7578C3.44883 15.638 4.14414 15.5781 4.84727 15.5781C6.26393 15.5781 7.33945 15.7448 8.07383 16.0781C8.81341 16.4062 9.1832 16.8568 9.1832 17.4297C9.1832 17.7891 9.07383 18.0703 8.85508 18.2734C8.63633 18.4766 8.37331 18.5781 8.06602 18.5781C7.75872 18.5781 7.51133 18.4818 7.32383 18.2891C7.14154 18.0964 7.02174 17.8359 6.96445 17.5078C6.94362 17.362 6.88112 17.2396 6.77695 17.1406C6.67799 17.0365 6.54258 16.9896 6.3707 17C6.19362 17.0156 6.06862 17.0859 5.9957 17.2109C5.92279 17.3359 5.89935 17.4792 5.92539 17.6406C5.9931 18.1823 6.21706 18.6432 6.59727 19.0234C6.97747 19.4036 7.46706 19.5938 8.06602 19.5938ZM13.7066 7.23438C13.79 7.23438 13.8577 7.20312 13.9098 7.14062C13.9671 7.07292 13.9931 6.99479 13.9879 6.90625L13.941 6.25781L14.4879 6.625C14.5504 6.66667 14.6233 6.67969 14.7066 6.66406C14.7952 6.64844 14.8629 6.60677 14.9098 6.53906C14.9618 6.46094 14.9723 6.38021 14.941 6.29688C14.915 6.20833 14.8577 6.14583 14.7691 6.10938L14.191 5.82031L14.7848 5.52344C14.8577 5.48698 14.9072 5.42708 14.9332 5.34375C14.9645 5.26042 14.9592 5.17969 14.9176 5.10156C14.8811 5.02865 14.816 4.98438 14.7223 4.96875C14.6337 4.94792 14.553 4.96354 14.4801 5.01562L13.941 5.38281L13.9957 4.74219C14.0009 4.65365 13.9749 4.57552 13.9176 4.50781C13.8603 4.4401 13.79 4.40625 13.7066 4.40625C13.6129 4.40625 13.5374 4.4375 13.4801 4.5C13.4228 4.5625 13.3967 4.64062 13.402 4.73438L13.4488 5.39062L12.8941 5.01562C12.8212 4.96875 12.7431 4.95312 12.6598 4.96875C12.5816 4.97917 12.5217 5.02344 12.4801 5.10156C12.4332 5.17969 12.4228 5.26042 12.4488 5.34375C12.4749 5.42188 12.527 5.48177 12.6051 5.52344L13.191 5.82031L12.6129 6.10938C12.5296 6.14062 12.4723 6.20052 12.441 6.28906C12.415 6.3724 12.4254 6.45573 12.4723 6.53906C12.5087 6.60677 12.5686 6.65104 12.652 6.67188C12.7405 6.6875 12.8212 6.67188 12.8941 6.625L13.4488 6.25781L13.4098 6.90625C13.4098 7 13.4358 7.07812 13.4879 7.14062C13.5452 7.20312 13.6181 7.23438 13.7066 7.23438ZM13.7066 18.4375C13.79 18.4375 13.8577 18.4062 13.9098 18.3438C13.9671 18.2812 13.9931 18.2057 13.9879 18.1172L13.941 17.4688L14.4879 17.8359C14.5504 17.8776 14.6233 17.8906 14.7066 17.875C14.7952 17.8594 14.8629 17.8151 14.9098 17.7422C14.9618 17.6693 14.9723 17.5885 14.941 17.5C14.915 17.4115 14.8577 17.3516 14.7691 17.3203L14.191 17.0234L14.7848 16.7266C14.8577 16.6901 14.9072 16.6328 14.9332 16.5547C14.9645 16.4714 14.9592 16.388 14.9176 16.3047C14.8811 16.237 14.816 16.1953 14.7223 16.1797C14.6337 16.1589 14.553 16.1719 14.4801 16.2188L13.941 16.5859L13.9957 15.9453C14.0009 15.8568 13.9749 15.7812 13.9176 15.7188C13.8603 15.651 13.79 15.6172 13.7066 15.6172C13.6129 15.6172 13.5374 15.6484 13.4801 15.7109C13.4228 15.7734 13.3967 15.849 13.402 15.9375L13.4488 16.5938L12.8941 16.2188C12.8212 16.1719 12.7431 16.1562 12.6598 16.1719C12.5816 16.1875 12.5217 16.2318 12.4801 16.3047C12.4332 16.388 12.4228 16.4714 12.4488 16.5547C12.4749 16.6328 12.527 16.6901 12.6051 16.7266L13.191 17.0234L12.6129 17.3125C12.5296 17.349 12.4723 17.4089 12.441 17.4922C12.415 17.5755 12.4254 17.6589 12.4723 17.7422C12.5087 17.8151 12.5686 17.8594 12.652 17.875C12.7405 17.8906 12.8212 17.875 12.8941 17.8281L13.4488 17.4609L13.4098 18.1172C13.4098 18.2057 13.4358 18.2812 13.4879 18.3438C13.5452 18.4062 13.6181 18.4375 13.7066 18.4375Z"
		fill="currentColor"
	/>
</svg>
