<svg
	color="rgb(var(--foreground, 0, 0, 0))"
	viewBox="0 0 17 24"
	fill="none"
	xmlns="http://www.w3.org/2000/svg"
>
	<path
		d="M0.767554 9.76562C1.89255 9.40104 3.02537 9.21875 4.16599 9.21875C4.64516 9.21875 5.09047 9.23958 5.50193 9.28125C5.9186 9.31771 6.32745 9.35677 6.72849 9.39844C7.13474 9.4349 7.56443 9.45312 8.01755 9.45312C8.4863 9.45312 8.88995 9.35677 9.22849 9.16406C9.57224 8.97135 9.83526 8.70833 10.0176 8.375C10.2051 8.04167 10.2988 7.66927 10.2988 7.25781C10.2988 6.83073 10.1998 6.45312 10.0019 6.125C9.80922 5.79688 9.5462 5.53906 9.21287 5.35156C8.88474 5.16406 8.52016 5.07031 8.11912 5.07031C7.6712 5.07031 7.26755 5.19531 6.90818 5.44531C6.5488 5.69531 6.28578 6.00521 6.11912 6.375C6.05662 6.50521 6.03839 6.63802 6.06443 6.77344C6.09568 6.90365 6.17901 7.0026 6.31443 7.07031C6.43943 7.13281 6.56964 7.14323 6.70505 7.10156C6.84047 7.0599 6.94985 6.96094 7.03318 6.80469C7.12172 6.60677 7.26235 6.4401 7.45505 6.30469C7.65297 6.16406 7.87432 6.09375 8.11912 6.09375C8.44203 6.09375 8.71547 6.20052 8.93943 6.41406C9.16339 6.6224 9.27537 6.90365 9.27537 7.25781C9.27537 7.61198 9.16078 7.89844 8.93162 8.11719C8.70245 8.33073 8.39776 8.4375 8.01755 8.4375C7.58526 8.4375 7.1686 8.41927 6.76755 8.38281C6.37172 8.34115 5.96287 8.30208 5.54099 8.26562C5.11912 8.22396 4.66078 8.20312 4.16599 8.20312C3.52537 8.20312 2.88995 8.25781 2.25974 8.36719C1.62953 8.47135 1.02797 8.61458 0.455054 8.79688C0.288387 8.84375 0.173804 8.92969 0.111304 9.05469C0.0488037 9.17448 0.038387 9.30208 0.0800537 9.4375C0.116512 9.57292 0.194637 9.67448 0.314429 9.74219C0.439429 9.8099 0.59047 9.81771 0.767554 9.76562ZM12.9863 13.4219C13.5957 13.4219 14.1321 13.3047 14.5957 13.0703C15.0644 12.8307 15.4316 12.5026 15.6972 12.0859C15.9629 11.6693 16.0957 11.1901 16.0957 10.6484C16.0957 10.1172 15.9707 9.64583 15.7207 9.23438C15.4759 8.81771 15.1452 8.49219 14.7285 8.25781C14.3118 8.01823 13.8509 7.89844 13.3457 7.89844C12.8717 7.89844 12.4472 8 12.0722 8.20312C11.6972 8.40104 11.3899 8.67188 11.1504 9.01562C10.9108 9.35938 10.7597 9.74479 10.6972 10.1719C10.6712 10.3333 10.6972 10.474 10.7754 10.5938C10.8587 10.7083 10.9707 10.776 11.1113 10.7969C11.2571 10.8177 11.3847 10.7839 11.4941 10.6953C11.6087 10.6068 11.6816 10.4714 11.7129 10.2891C11.7597 10.0182 11.8587 9.78125 12.0097 9.57812C12.166 9.36979 12.3587 9.20833 12.5879 9.09375C12.817 8.97396 13.0696 8.91406 13.3457 8.91406C13.6634 8.91406 13.9524 8.98698 14.2129 9.13281C14.4785 9.27865 14.6868 9.48438 14.8379 9.75C14.9941 10.0104 15.0722 10.3099 15.0722 10.6484C15.0722 11.1693 14.8821 11.5938 14.5019 11.9219C14.1269 12.2448 13.6217 12.4062 12.9863 12.4062C12.3926 12.4062 11.7832 12.3385 11.1582 12.2031C10.5332 12.0625 9.88735 11.9036 9.22068 11.7266C8.55922 11.5495 7.86912 11.3932 7.15037 11.2578C6.43682 11.1172 5.68943 11.0469 4.90818 11.0469C4.10089 11.0469 3.32745 11.112 2.58787 11.2422C1.85349 11.3672 1.14255 11.5495 0.455054 11.7891C0.293595 11.8464 0.179012 11.9375 0.111304 12.0625C0.0488037 12.1823 0.038387 12.3099 0.0800537 12.4453C0.116512 12.5807 0.197241 12.6823 0.322241 12.75C0.447241 12.8177 0.595679 12.8229 0.767554 12.7656C1.40297 12.5208 2.05922 12.3438 2.7363 12.2344C3.41339 12.125 4.13735 12.0703 4.90818 12.0703C5.68422 12.0703 6.4186 12.138 7.1113 12.2734C7.80922 12.4089 8.4811 12.5677 9.12693 12.75C9.77276 12.9271 10.4134 13.0833 11.0488 13.2188C11.6842 13.3542 12.3301 13.4219 12.9863 13.4219ZM8.02537 18.9297C8.42641 18.9297 8.78839 18.8359 9.1113 18.6484C9.43422 18.4661 9.68943 18.2135 9.87693 17.8906C10.0644 17.5677 10.1582 17.1927 10.1582 16.7656C10.1582 15.8438 9.69985 15.1354 8.78318 14.6406C7.86651 14.1406 6.54099 13.8906 4.80662 13.8906C4.08266 13.8906 3.34047 13.9557 2.58005 14.0859C1.82485 14.2161 1.11651 14.3958 0.455054 14.625C0.293595 14.6823 0.179012 14.7734 0.111304 14.8984C0.0488037 15.0234 0.038387 15.151 0.0800537 15.2812C0.116512 15.4167 0.197241 15.5182 0.322241 15.5859C0.447241 15.6536 0.595679 15.6589 0.767554 15.6016C1.38735 15.3776 2.03839 15.2083 2.72068 15.0938C3.40818 14.974 4.10349 14.9141 4.80662 14.9141C6.22328 14.9141 7.2988 15.0807 8.03318 15.4141C8.77276 15.7422 9.14255 16.1927 9.14255 16.7656C9.14255 17.125 9.03318 17.4062 8.81443 17.6094C8.59568 17.8125 8.33266 17.9141 8.02537 17.9141C7.71807 17.9141 7.47068 17.8177 7.28318 17.625C7.10089 17.4323 6.9811 17.1719 6.9238 16.8438C6.90297 16.6979 6.84047 16.5755 6.7363 16.4766C6.63735 16.3724 6.50193 16.3255 6.33005 16.3359C6.15297 16.3516 6.02797 16.4219 5.95505 16.5469C5.88214 16.6719 5.8587 16.8151 5.88474 16.9766C5.95245 17.5182 6.17641 17.9792 6.55662 18.3594C6.93682 18.7396 7.42641 18.9297 8.02537 18.9297Z"
		fill="currentColor"
	/>
</svg>
