<svg
	viewBox="0 0 21 24"
	fill="none"
	xmlns="http://www.w3.org/2000/svg"
	color="#A4C439"
>
	<path
		d="M1.97418 7.76289C1.15628 7.76249 0.493366 8.42702 0.493164 9.24431L0.494173 15.4469C0.49404 15.6415 0.532272 15.8342 0.606681 16.014C0.68109 16.1939 0.790217 16.3573 0.927822 16.4949C1.06543 16.6325 1.22881 16.7417 1.40863 16.8161C1.58845 16.8905 1.78118 16.9288 1.9758 16.9287C2.17039 16.9289 2.36311 16.8907 2.54292 16.8163C2.72273 16.7419 2.88609 16.6328 3.02365 16.4952C3.16121 16.3575 3.27026 16.1941 3.34456 16.0143C3.41885 15.8344 3.45693 15.6417 3.45661 15.4471V9.24351C3.45618 8.85064 3.2998 8.47401 3.02184 8.19638C2.74387 7.91876 2.36705 7.76284 1.97418 7.76289ZM13.9194 2.19278L14.9532 0.304933C14.9795 0.257042 14.9858 0.200663 14.9707 0.148156C14.9555 0.0956487 14.9201 0.0512998 14.8723 0.024833C14.8244 -0.00107946 14.7682 -0.00698646 14.7159 0.00840137C14.6637 0.0237892 14.6196 0.0592222 14.5934 0.106966L13.5491 2.01459C12.6704 1.6235 11.6871 1.40434 10.6466 1.40535C9.60892 1.40434 8.62595 1.62289 7.75094 2.01177L6.70541 0.108984C6.69264 0.0852326 6.67529 0.06425 6.65436 0.0472514C6.63343 0.0302527 6.60934 0.0175761 6.58347 0.00995571C6.55761 0.00233529 6.53049 -7.73916e-05 6.50368 0.00285739C6.47688 0.00579217 6.45093 0.0140161 6.42732 0.0270528C6.40349 0.0397894 6.38244 0.0571503 6.3654 0.0781198C6.34837 0.0990892 6.33568 0.123246 6.32809 0.149177C6.3205 0.175109 6.31815 0.202293 6.32119 0.229141C6.32423 0.255989 6.3326 0.281961 6.3458 0.305538L7.38003 2.19218C5.34789 3.24013 3.97484 5.23594 3.97605 7.52739L17.3187 7.52578C17.3191 5.23513 15.9485 3.24336 13.9194 2.19278ZM7.6119 5.11022C7.46351 5.11014 7.32123 5.05111 7.21636 4.94613C7.11149 4.84115 7.05263 4.69881 7.05271 4.55042C7.05279 4.40204 7.11181 4.25976 7.21679 4.15489C7.32177 4.05002 7.46411 3.99115 7.6125 3.99123C7.7609 3.9915 7.90316 4.05056 8.00811 4.15547C8.11307 4.26039 8.17218 4.40262 8.1725 4.55103C8.17223 4.6995 8.11304 4.84179 8.00792 4.94664C7.9028 5.05149 7.76037 5.11033 7.6119 5.11022ZM13.6873 5.10921C13.6139 5.10926 13.5411 5.09484 13.4732 5.06676C13.4054 5.03867 13.3437 4.99749 13.2917 4.94556C13.2398 4.89362 13.1986 4.83196 13.1705 4.76409C13.1423 4.69622 13.1279 4.62348 13.1279 4.55002C13.1287 4.40176 13.1879 4.25978 13.2926 4.15484C13.3974 4.04991 13.5393 3.99048 13.6875 3.98942C13.8357 3.99064 13.9773 4.05019 14.0819 4.15516C14.1864 4.26014 14.2453 4.40208 14.2459 4.55022C14.246 4.62362 14.2316 4.69631 14.2036 4.76414C14.1755 4.83197 14.1344 4.8936 14.0825 4.94552C14.0306 4.99744 13.969 5.03862 13.9012 5.0667C13.8334 5.09479 13.7607 5.10924 13.6873 5.10921ZM4.03053 8.04279L4.03275 17.6556C4.03251 17.8632 4.07323 18.0688 4.15258 18.2607C4.23192 18.4525 4.34834 18.6268 4.49515 18.7736C4.64197 18.9204 4.8163 19.0368 5.00816 19.1161C5.20002 19.1955 5.40565 19.2361 5.61326 19.2359L6.68946 19.2363L6.69067 22.5184C6.69047 23.3357 7.3548 24 8.17088 24C8.98939 24 9.65251 23.3351 9.65271 22.5174L9.6519 19.2361L11.6515 19.2355L11.6524 22.5174C11.6524 23.3341 12.3169 23.9998 13.1332 23.9982C13.9517 23.9988 14.6152 23.3339 14.615 22.5162L14.614 19.2351L15.694 19.2343C15.9017 19.2343 16.1073 19.1934 16.2991 19.114C16.4909 19.0346 16.6653 18.9181 16.8121 18.7713C16.9589 18.6245 17.0754 18.4502 17.1549 18.2584C17.2344 18.0666 17.2753 17.861 17.2753 17.6534L17.2735 8.04057L4.03053 8.04279ZM20.8071 9.24209C20.8071 9.04756 20.7688 8.85493 20.6943 8.67521C20.6199 8.49548 20.5108 8.33219 20.3732 8.19465C20.2356 8.05712 20.0723 7.94804 19.8926 7.87364C19.7128 7.79925 19.5202 7.761 19.3256 7.76108C18.5077 7.76027 17.845 8.4244 17.845 9.2427L17.8462 15.4457C17.8461 15.6402 17.8843 15.8328 17.9587 16.0126C18.0331 16.1923 18.1422 16.3556 18.2797 16.4932C18.4173 16.6307 18.5806 16.7398 18.7603 16.8142C18.9401 16.8886 19.1327 16.9268 19.3273 16.9267C19.5218 16.9267 19.7145 16.8884 19.8942 16.8139C20.0739 16.7394 20.2372 16.6303 20.3748 16.4927C20.5123 16.355 20.6213 16.1917 20.6957 16.0119C20.77 15.8321 20.8082 15.6394 20.8081 15.4449L20.8071 9.24209Z"
		fill="currentColor"
	/>
</svg>
