<svg
	viewBox="0 0 20 24"
	fill="none"
	xmlns="http://www.w3.org/2000/svg"
	color="#000"
>
	<path
		d="M16.5156 12.7505C16.5492 16.3823 19.702 17.5911 19.7368 17.6065C19.7101 17.6915 19.2331 19.329 18.076 21.0199C17.0757 22.4819 16.0373 23.9385 14.402 23.969C12.7951 23.9984 12.2783 23.0159 10.441 23.0159C8.60419 23.0159 8.03024 23.9385 6.50892 23.9984C4.93022 24.0583 3.72804 22.4172 2.71943 20.9608C0.658552 17.9811 -0.916473 12.5409 1.19831 8.86867C2.24884 7.04501 4.12658 5.89036 6.16447 5.86061C7.71458 5.83105 9.17775 6.90341 10.1253 6.90341C11.0723 6.90341 12.8504 5.61372 14.7196 5.80304C15.5022 5.83569 17.6987 6.11909 19.1091 8.18383C18.9957 8.25434 16.4884 9.71404 16.5156 12.7505M13.4956 3.83199C14.3336 2.81758 14.8977 1.40502 14.7439 0C13.5358 0.048489 12.0749 0.804995 11.2085 1.81902C10.4319 2.71674 9.75189 4.15402 9.93522 5.53123C11.2819 5.63555 12.6574 4.84697 13.4956 3.83199"
		fill="currentColor"
	/>
</svg>
