<svg
	viewBox="0 0 64 24"
	fill="none"
	xmlns="http://www.w3.org/2000/svg"
	color="#000305"
>
	<path
		d="M44.9852 5.29193V5.36646H45.1392C45.1406 5.29307 45.1558 5.22059 45.184 5.1528V5.01863C45.1194 5.01863 45.0548 5.12298 44.9951 5.30683L44.9852 5.29193ZM43.5243 1.77391V1.63975H43.3057V1.77391H43.5243ZM39.2809 9.72422C38.961 9.17667 38.5682 8.67518 38.1132 8.23354C38.1132 8.07453 38.3616 7.84099 38.9032 7.52795L40.4237 6.20621C40.8444 5.56613 41.0658 4.81563 41.0597 4.04969V3.82112C41.0001 3.1354 40.5032 2.58385 39.5691 2.16149C39.0125 1.78716 38.0187 1.58013 36.5877 1.54037C34.9776 1.75095 33.4042 2.18233 31.9119 2.82236C31.3322 3.23478 30.73 3.61466 30.1082 3.96025V4.07453C30.1731 4.06206 30.2343 4.03486 30.2871 3.99503C30.3027 3.9912 30.319 3.99102 30.3347 3.99452C30.3503 3.99802 30.365 4.00509 30.3775 4.01519C30.39 4.02529 30.4 4.03815 30.4067 4.05275C30.4135 4.06735 30.4167 4.08331 30.4163 4.09938L30.4858 4.04969H30.5405V4.09938C30.1666 4.48203 29.7459 4.81593 29.2883 5.09317L29.3529 5.21242H29.2982L29.1591 5.16273C29.1591 5.20249 29.1045 5.2323 28.9902 5.24224V5.29193L29.1243 5.46087C29.0574 5.45918 28.9915 5.44396 28.9305 5.41615C28.7069 5.4474 28.5021 5.55861 28.3541 5.72919L28.4336 5.38634C28.6888 4.32194 28.8813 3.24348 29.01 2.15652L28.9951 2.06211C28.7897 1.92591 28.6069 1.75823 28.4535 1.56522C28.4589 1.48415 28.4589 1.40281 28.4535 1.32174V1.27205H28.3989C27.786 2.18965 26.6084 3.75487 24.8659 5.9677C23.5409 7.5412 22.8552 8.41574 22.8088 8.5913C22.2672 9.1528 22.0088 9.49068 22.0336 9.58509C21.8895 9.6795 21.8299 9.76895 21.8548 9.87329C21.8466 9.87634 21.8379 9.87757 21.8293 9.87691C21.8206 9.87624 21.8122 9.87369 21.8046 9.86943C21.797 9.86517 21.7905 9.8593 21.7854 9.85225C21.7803 9.84519 21.7769 9.83711 21.7753 9.82857C21.6618 10.0133 21.5115 10.1727 21.3337 10.2967C21.1558 10.4206 20.9543 10.5066 20.7417 10.5491L20.2448 10.6584C20.2292 10.6607 20.2142 10.6663 20.2009 10.6747C20.1875 10.6831 20.176 10.6942 20.1671 10.7072C20.1582 10.7203 20.1522 10.7351 20.1493 10.7506C20.1464 10.7662 20.1468 10.7821 20.1504 10.7975V10.8571L20.3293 10.8174V10.8671L19.9218 11.0261L19.2014 11.195H18.8237C18.7691 11.2497 19.1268 11.195 18.9877 11.2248L18.4908 11.3342C18.2026 11.3988 18.0486 11.3739 17.9939 11.2596H17.9392C17.9482 11.2989 17.9482 11.3396 17.9392 11.3789L17.9094 11.2646L17.5318 11.354C17.555 11.2182 17.0697 10.6054 16.0759 9.51553C16.0759 9.30186 16.4088 8.99379 17.1293 8.5913L19.1566 6.80745C19.6105 6.22443 19.8804 5.28861 19.9666 4L19.9368 3.6969C19.8573 2.78758 19.2014 2.05714 17.9492 1.49068C17.2187 0.993789 15.902 0.730436 14.0038 0.690685C11.8859 0.967967 9.81512 1.52955 7.84731 2.36025C7.08591 2.90388 6.29279 3.40166 5.47216 3.85093V4.00994C5.55736 3.99541 5.6386 3.96325 5.71067 3.91553C5.73052 3.9102 5.75132 3.9095 5.77149 3.91349C5.79165 3.91748 5.81062 3.92605 5.82695 3.93853C5.84327 3.95101 5.85651 3.96708 5.86564 3.9855C5.87477 4.00391 5.87955 4.02417 5.87961 4.04472L6.03862 3.95528H6.138V4.04969C5.63564 4.54195 5.07884 4.97538 4.47837 5.34161L4.56781 5.48075H4.49825L4.3293 5.42112C4.3293 5.46584 4.25477 5.50062 4.09079 5.51553V5.6L4.27464 5.80373C4.18944 5.80298 4.10514 5.78612 4.0262 5.75404C3.80489 5.80081 3.59626 5.8947 3.41448 6.02932C3.23271 6.16393 3.08206 6.33612 2.97278 6.53416L3.06222 6.67329C3.21524 6.50649 3.39286 6.36406 3.58893 6.25093V6.4795C3.50465 6.49724 3.424 6.52916 3.35042 6.57391L3.53924 6.86211C3.89872 6.4818 4.30435 6.14795 4.74669 5.86832C4.96533 5.92298 5.07961 5.99255 5.08458 6.06708H5.25353C6.32843 5.24596 7.52563 4.59873 8.80135 4.14907V4.30808C8.58272 4.63934 8.43531 4.80497 8.35911 4.80497C8.36445 4.91249 8.40455 5.01538 8.4734 5.09814C8.49328 5.2969 7.9616 6.63851 6.87837 9.12298C4.45353 14.8505 2.40632 19.0957 0.736755 21.8584C0.75222 21.9396 0.786231 22.0161 0.836134 22.082C1.11372 22.0366 1.37915 21.9351 1.61626 21.7839H1.7057V21.9429H1.85974L2.01874 21.8534C2.01874 21.8981 2.0734 21.923 2.18272 21.913V22.072C2.16219 22.3263 2.07287 22.5702 1.92433 22.7776C1.68712 23.1276 1.51228 23.5159 1.40756 23.9255V24H1.5616C2.16677 23.3429 2.67843 22.6056 3.0821 21.8087C4.62438 21.3973 6.12231 20.8347 7.55415 20.1292C8.40343 20.1055 9.22521 19.8229 9.90943 19.3193V19.2348L9.52185 19.3491H9.43241V19.2646C9.98949 19.2265 10.5295 19.0562 11.0076 18.7677C12.485 17.6282 13.6014 16.8215 14.3566 16.3478C15.9069 15.2083 16.914 14.0986 17.3777 13.0186L17.6361 12.959C17.7603 12.9659 17.8847 12.9659 18.0088 12.959C18.0088 12.9193 18.0088 12.8944 18.0585 12.8845C18.4063 12.8497 18.2374 12.8845 18.461 12.8547L19.0423 12.7205H19.1417L19.097 12.7503C19.1676 12.7639 19.2401 12.7639 19.3107 12.7503L19.3504 12.9193L16.697 17.1379L16.0759 17.8186L15.7877 18.7826H15.8423L16.1305 18.6634L16.0361 19.036L16.0659 19.1453L16.1455 19.2447C16.1107 19.2447 16.0958 19.2795 16.1057 19.3193V19.3789L16.225 19.3491C16.4005 19.1967 16.4751 19.0576 16.4486 18.9317C16.5718 18.9634 16.6995 18.9735 16.8262 18.9615V19.0211C16.7119 19.0509 16.6523 19.1404 16.6423 19.2994V19.359H16.7069C17.6709 18.3056 20.0312 14.713 21.9243 12.2683C21.8647 12.0033 22.8585 11.6356 24.9057 11.1652H24.9703C25.0432 11.4965 24.8775 12.27 24.4734 13.4857C24.3152 13.8769 24.197 14.2831 24.1206 14.6981C23.9207 15.2167 23.7677 15.7522 23.6635 16.2981L22.9827 18.6286C22.5093 19.8618 22.15 21.1359 21.9094 22.4348C21.975 22.4214 22.0426 22.4214 22.1082 22.4348L22.2125 22.3453C22.2141 22.3539 22.2176 22.362 22.2227 22.369C22.2278 22.3761 22.2343 22.3819 22.2419 22.3862C22.2495 22.3905 22.2579 22.393 22.2665 22.3937C22.2752 22.3943 22.2839 22.3931 22.292 22.3901L22.2523 22.2211H22.5653C22.6597 22.2211 22.7343 22.082 22.8038 21.8683C22.8038 21.5503 22.8535 21.3714 22.9976 21.3416C23.0709 20.9446 23.191 20.5576 23.3554 20.1888C23.4317 19.7423 23.5671 19.3078 23.7579 18.8969C24.0312 17.9031 24.2548 17.4062 24.3591 17.3764L24.3889 17.4957L24.1902 17.9925C23.9315 19.2347 23.5794 20.4556 23.1368 21.6447L23.2411 22.087H23.3057C24.167 20.2352 25.4059 16.5681 27.0225 11.0857C27.046 10.8666 27.1196 10.6558 27.2376 10.4697C27.3557 10.2835 27.515 10.1271 27.7032 10.0124L27.6088 9.91304V9.86335C27.7603 9.83996 27.898 9.76224 27.9964 9.64472C27.9964 9.60497 27.8274 9.54037 27.4995 9.46087L28.3045 5.98261C28.3934 5.88682 28.4975 5.80625 28.6125 5.7441V5.91801C28.5476 5.93049 28.4864 5.95768 28.4336 5.99752L28.5877 6.21615C28.8578 5.92767 29.1614 5.67245 29.492 5.4559C29.661 5.50062 29.7405 5.56025 29.7504 5.61491H29.8697C30.6879 4.99475 31.5983 4.50683 32.5678 4.16895V4.28323C32.4055 4.52837 32.2945 4.65259 32.2349 4.6559C32.2414 4.73533 32.267 4.81203 32.3094 4.8795C31.9904 5.92936 31.59 6.95275 31.1119 7.94037C29.7602 11.2765 28.1933 14.5215 26.4212 17.6547C26.4366 17.7165 26.4654 17.7742 26.5057 17.8236C26.7152 17.79 26.9151 17.7121 27.092 17.595H27.1467V17.7093H27.2759L27.3902 17.6497C27.3902 17.6828 27.4316 17.6961 27.5144 17.6894V17.8137C27.4972 18.004 27.4284 18.1861 27.3156 18.3404C27.1186 18.6122 26.9752 18.9191 26.8933 19.2447V19.3043H27.0125C27.4721 18.8056 27.8601 18.2454 28.1653 17.6398C29.3301 17.326 30.4617 16.8999 31.5442 16.3677C32.1927 16.3509 32.8204 16.1359 33.343 15.7516V15.6919L33.0399 15.7814H32.9753V15.7217C33.3975 15.6908 33.8064 15.5596 34.1678 15.3391C35.2858 14.4795 36.1554 13.8484 36.7119 13.5006C38.5007 12.1988 39.3305 10.9516 39.2312 9.74907L39.2809 9.72422ZM38.9728 9.80373L39.0125 10.2708C38.9579 10.3851 38.8982 10.4447 38.8436 10.4497L38.774 9.65466C38.9032 9.69938 38.9678 9.74907 38.9728 9.80373V9.80373ZM3.91191 6.03727H3.83241V5.89317L4.15042 5.86832V5.94286C4.0669 5.95791 3.98739 5.99005 3.91688 6.03727H3.91191ZM2.35166 21.6398C2.19786 21.5625 2.02664 21.5266 1.85477 21.5354V21.3068C1.85477 21.2174 1.89452 21.1578 2.0088 21.1379C2.12309 21.118 2.17278 21.2025 2.17775 21.3516C2.30841 21.1717 2.45654 21.0053 2.61999 20.8547L2.78893 20.9242C2.73427 21.3863 2.59017 21.6248 2.3616 21.6398H2.35166ZM19.0225 4.19876C18.943 4.19876 18.784 3.96025 18.5604 3.47826V3.33416C18.7094 3.33416 18.8635 3.56273 19.0225 4.05466V4.19876ZM18.7989 2.46957L18.7343 2.6236L16.4684 1.6795C17.979 1.72919 18.7558 1.99255 18.7989 2.46957V2.46957ZM9.24359 10.6832L8.92558 10.713V10.5689L9.24359 10.5391V10.6832ZM8.9852 5.75404H9.06471V5.98261C8.99017 5.98261 8.89576 6.09689 8.77154 6.31056V6.15155C8.91564 5.98261 8.99017 5.84845 8.98023 5.75901L8.9852 5.75404ZM8.31439 7.33913L8.34421 7.64224H8.26471L8.23489 7.33913H8.31439ZM7.9616 7.90559H8.11564C8.11564 8.15404 8.03117 8.2882 7.90694 8.29814H7.82744C7.90761 8.18594 7.95415 8.05322 7.9616 7.91553V7.90559ZM7.69825 8.69068H7.78769V8.76522L7.64359 9.00373H7.48955V8.92919C7.52069 8.93158 7.55196 8.92659 7.58082 8.91463C7.60967 8.90267 7.6353 8.88408 7.65563 8.86037C7.67595 8.83665 7.69041 8.80848 7.69781 8.77813C7.70522 8.74779 7.70536 8.71613 7.69825 8.68572V8.69068ZM7.43986 9.40124L7.39514 9.77888H7.31564L7.28085 9.40621H7.43986V9.40124ZM4.83613 16.7801C4.73179 17.277 4.62247 17.5602 4.50818 17.5702V17.4957C4.49991 17.3581 4.52602 17.2207 4.58414 17.0958C4.64226 16.9709 4.73057 16.8624 4.8411 16.7801H4.83613ZM4.33924 17.8137V17.8882C4.34485 17.9089 4.34543 17.9306 4.34092 17.9516C4.33641 17.9725 4.32695 17.9921 4.31332 18.0086C4.2997 18.0252 4.28231 18.0382 4.26261 18.0466C4.24292 18.0551 4.22148 18.0587 4.20011 18.0571V17.9627C4.20011 17.8733 4.24649 17.817 4.33924 17.7938V17.8137ZM4.22495 19.9503H4.46346V20.0348C4.37826 20.0493 4.29702 20.0815 4.22495 20.1292H4.07092C4.07092 20.0497 4.11067 19.9901 4.21005 19.9602L4.22495 19.9503ZM11.0771 17.8335C10.2354 18.1983 9.43575 18.6531 8.69203 19.1901C7.22785 19.6969 6.50239 20.0149 6.51564 20.1441C5.63793 20.4693 4.78013 20.846 3.94669 21.2721C3.7992 21.2698 3.65438 21.2324 3.52433 21.1627C3.51504 21.0326 3.54335 20.9025 3.6059 20.788C3.66845 20.6734 3.7626 20.5793 3.87713 20.5168C4.09937 20.4979 4.32285 20.5337 4.52806 20.6211C4.9316 20.4402 5.35294 20.302 5.7852 20.2087V20.0497L5.28831 20.0894C5.72718 19.8234 6.19583 19.6099 6.68458 19.4534H6.92309V19.528C6.51067 19.5627 6.2821 19.687 6.23241 19.9006C6.23241 20 6.297 20.0398 6.40135 20.0298C6.70943 19.836 6.86346 19.7217 6.85849 19.687C7.44483 19.5743 9.06967 18.7246 11.733 17.1379V17.282C11.733 17.3516 11.5094 17.5453 11.0523 17.8783L11.0771 17.8335ZM6.99266 19.1752C7.36856 19.145 7.72118 18.9811 7.98644 18.713C8.09576 18.713 8.15539 18.7478 8.16036 18.8422C7.77221 18.9453 7.40429 19.1133 7.07216 19.3391H6.99266V19.1851V19.1752ZM13.5914 14.1217L11.5492 15.7416C10.7673 16.2961 9.94705 16.7942 9.09452 17.2323C6.6763 18.5573 5.17402 19.248 4.58769 19.3043H4.49825C4.57112 19.0327 5.64773 16.8282 7.72806 12.6907C9.21969 12.4506 10.6743 12.0198 12.056 11.4087L12.5529 11.3689C12.944 11.2991 13.3456 11.314 13.7304 11.4125C14.1153 11.5111 14.4746 11.6911 14.784 11.9404L14.8138 12.2435C14.4461 13.3019 14.0386 13.923 13.6014 14.1068L13.5914 14.1217ZM9.61626 11.8758L9.94421 11.846V11.9205L9.61626 11.9503V11.8758ZM14.2324 11.0957H14.4709C14.6945 11.2 14.8088 11.2944 14.8187 11.3789V11.4534C14.6996 11.455 14.5821 11.425 14.4783 11.3666C14.3744 11.3081 14.2879 11.2232 14.2274 11.1205L14.2324 11.0957ZM14.8833 7.37888C14.3399 7.8797 13.7395 8.31498 13.0945 8.67578C12.7815 8.70559 11.6038 9.17267 9.58148 10.0472C9.48165 10.0098 9.37405 9.9978 9.26843 10.0124V9.86832C9.27943 9.46838 9.41685 9.0822 9.66098 8.76522C9.81999 7.93044 9.98893 7.45342 10.1579 7.33913L11.8473 3.53789C11.8274 3.30269 12.1885 3.12215 12.9305 2.99627H13.1691V3.21491C13.8945 3.10559 14.3517 3.04099 14.5256 3.02609C15.8672 2.9118 16.5678 3.18509 16.6225 3.83603H16.7765L16.7417 3.45342H16.9107C17.0699 3.51183 17.2127 3.60783 17.3269 3.73328C17.4411 3.85872 17.5233 4.00988 17.5666 4.17391C17.551 4.46993 17.4293 4.75043 17.2237 4.96398C17.1194 4.96398 17.0597 4.89938 17.0548 4.75031H16.8858L16.851 5.21242C16.172 6.2294 15.6751 6.7528 15.3604 6.78261C15.0821 7.16522 14.9132 7.35901 14.8635 7.35901L14.8833 7.37888ZM15.9218 10.0422C15.8267 9.96617 15.7105 9.92109 15.5889 9.91304V9.68447H15.743L16.0809 9.88323C16.0865 9.90391 16.087 9.92564 16.0825 9.94659C16.078 9.96754 16.0686 9.98711 16.0549 10.0036C16.0413 10.0202 16.0239 10.0332 16.0042 10.0417C15.9845 10.0501 15.9631 10.0537 15.9417 10.0522L15.9218 10.0422ZM16.9951 11.3143C17.1442 11.3739 17.2336 11.4385 17.2486 11.4981H17.1293L17.02 11.5876L16.9902 11.2795L16.9951 11.3143ZM17.0697 11.9503V11.8907L17.2635 11.846V11.9056L17.0697 11.9503ZM17.5368 12.4969C17.7355 12.4621 17.8349 12.4522 18.2026 12.3677V12.4273L17.497 12.5913C17.4986 12.5599 17.4986 12.5283 17.497 12.4969H17.5368ZM18.2225 12.7901C17.9842 12.7951 17.7473 12.8285 17.5169 12.8894V12.8298L18.1082 12.641L18.3914 12.5764L18.4212 12.6857C18.292 12.7155 18.3864 12.7155 18.2374 12.7901H18.2225ZM18.8486 12.641C18.8319 12.6455 18.8145 12.6465 18.7975 12.6442C18.7804 12.6418 18.764 12.6361 18.7492 12.6273C18.7343 12.6185 18.7214 12.6068 18.7112 12.593C18.701 12.5791 18.6936 12.5633 18.6895 12.5466L18.8684 12.5068C18.8844 12.5005 18.9017 12.4981 18.9188 12.4997C18.9359 12.5014 18.9524 12.507 18.9669 12.5162C18.9814 12.5254 18.9936 12.5379 19.0024 12.5527C19.0112 12.5675 19.0163 12.5841 19.0175 12.6012L18.8486 12.641V12.641ZM20.5479 10.7925V10.7329L20.8411 10.6634L20.8709 10.7727H20.5628L20.5479 10.7925ZM22.3566 21.8932C22.3691 21.8325 22.3691 21.77 22.3566 21.7093H22.4212C22.4362 21.703 22.4524 21.7003 22.4685 21.7014C22.4847 21.7025 22.5004 21.7073 22.5144 21.7155C22.5284 21.7237 22.5403 21.735 22.5491 21.7486C22.558 21.7622 22.5635 21.7777 22.5653 21.7938V21.8534L22.3268 21.9081L22.3566 21.8932ZM23.6237 11.2696H23.4945C23.3236 11.3408 23.1475 11.3989 22.9678 11.4435L22.8486 11.4733C22.8329 11.4786 22.8163 11.4806 22.7999 11.4791C22.7834 11.4777 22.7675 11.4728 22.753 11.4649C22.7385 11.457 22.7258 11.4461 22.7158 11.433C22.7057 11.4199 22.6985 11.4049 22.6945 11.3888L23.5293 11.1752L23.8076 11.046L23.902 11.1503C23.7973 11.1649 23.6981 11.2059 23.6138 11.2696H23.6237ZM24.2746 11.0609V11.0012C24.3362 10.9817 24.3912 10.9456 24.4336 10.8969L25.02 10.7627V10.8224C24.7602 10.88 24.5059 10.9598 24.2597 11.0609H24.2746ZM24.3691 9.84348C24.3063 9.86654 24.2488 9.90203 24.2001 9.94783C24.2001 9.90807 24.1057 9.90807 23.9517 9.94783C23.9218 9.83354 24.3691 9.66957 25.2883 9.45093L25.4175 9.42112L25.4473 9.53043C24.8014 9.71925 24.4535 9.82857 24.3691 9.83851V9.84348ZM25.9889 8.09441C25.9243 8.82981 25.6659 9.2472 25.2088 9.35155V9.29193L24.8014 9.45093L24.6225 9.49068C24.5413 9.51388 24.4552 9.51388 24.374 9.49068L24.3392 9.32671C24.8783 8.47794 25.469 7.66315 26.1082 6.88696H26.2473C26.2652 7.29629 26.1833 7.70384 26.0088 8.07453L25.9889 8.09441ZM28.856 5.63975H28.7964V5.52547H29.0349V5.58509C28.9724 5.60241 28.9123 5.62745 28.856 5.65963V5.63975ZM27.6734 17.4957C27.5587 17.4354 27.4302 17.4062 27.3007 17.4112V17.2373C27.3007 17.1776 27.3372 17.1362 27.41 17.113C27.4895 17.113 27.5343 17.1578 27.5442 17.282C27.6388 17.141 27.7506 17.0125 27.8771 16.8994L28.0013 16.9689C27.9566 17.3217 27.8473 17.5056 27.6833 17.5205L27.6734 17.4957ZM40.3293 4.25838C40.2697 4.25838 40.1554 4.0795 39.9715 3.70186V3.58758C40.0858 3.58758 40.21 3.75652 40.3293 4.12919V4.25838V4.25838ZM40.1604 2.93665L40.1057 3.0559L38.3914 2.34037C39.5343 2.37516 40.1256 2.57888 40.1604 2.93665V2.93665ZM32.9007 9.1677H32.6622V9.05342H32.9007V9.1677ZM32.702 5.42112H32.7666V5.59503C32.7069 5.59503 32.6324 5.67785 32.543 5.84348V5.72919C32.6268 5.64622 32.6809 5.53794 32.697 5.42112H32.702ZM32.2051 6.6236V6.85217H32.1405V6.6236H32.2051ZM31.9318 7.0559H32.051C32.051 7.25135 31.9997 7.35238 31.897 7.35901H31.8274C31.8862 7.26825 31.9204 7.16382 31.9268 7.0559H31.9318ZM31.738 7.64721H31.7927V7.70683L31.6883 7.89068H31.5691V7.83106C31.6933 7.83106 31.7479 7.75652 31.738 7.64224V7.64721ZM31.5442 8.18385L31.5045 8.48199H31.4498V8.18882H31.5691L31.5442 8.18385ZM29.5566 13.7988C29.4771 14.1863 29.3943 14.3851 29.3082 14.395V14.3453C29.3041 14.2407 29.3249 14.1365 29.369 14.0415C29.413 13.9465 29.4791 13.8633 29.5616 13.7988H29.5566ZM29.1939 14.5838V14.6335C29.1989 14.6499 29.1997 14.6672 29.1964 14.684C29.1931 14.7008 29.1857 14.7164 29.1749 14.7297C29.1641 14.7429 29.1502 14.7533 29.1345 14.76C29.1187 14.7666 29.1016 14.7692 29.0846 14.7677V14.7081C29.0846 14.6484 29.121 14.607 29.1939 14.5838V14.5838ZM29.0895 16.2137H29.2734V16.2733C29.21 16.2854 29.1494 16.309 29.0945 16.3429H28.9753C28.9753 16.2766 29.0117 16.2352 29.0846 16.2186L29.0895 16.2137ZM34.2871 14.6087C33.651 14.8907 33.0436 15.2335 32.4734 15.6323C31.3604 16.0199 30.8138 16.2634 30.8187 16.3578C30.1562 16.6034 29.509 16.8888 28.8809 17.2124C28.7694 17.2076 28.6605 17.177 28.5628 17.123C28.5518 17.0227 28.5716 16.9215 28.6196 16.8327C28.6675 16.744 28.7413 16.6719 28.8312 16.6261C29.0004 16.6101 29.171 16.6357 29.3281 16.7006C29.6374 16.5682 29.9585 16.465 30.2871 16.3925V16.2783L29.9144 16.313C30.248 16.106 30.6049 15.9392 30.9777 15.8161H31.1616V15.8658C30.8486 15.8957 30.6647 15.9851 30.6349 16.154C30.6344 16.1701 30.6377 16.1861 30.6444 16.2007C30.6511 16.2153 30.6611 16.2281 30.6736 16.2382C30.6861 16.2483 30.7008 16.2554 30.7165 16.2589C30.7322 16.2624 30.7485 16.2622 30.7641 16.2584C30.9976 16.1043 31.1069 16.0199 31.1069 15.9901C31.5508 15.9106 32.7831 15.2646 34.8038 14.0522V14.1665C34.8038 14.2112 34.6349 14.3602 34.3069 14.6137L34.2871 14.6087ZM31.1864 15.6025C31.4797 15.5915 31.7596 15.4771 31.9765 15.2795C32.056 15.2795 32.1007 15.3093 32.1057 15.3838C31.8143 15.4586 31.5361 15.5776 31.2809 15.7366H31.2163V15.6273L31.1864 15.6025ZM36.1951 11.7565L34.6548 12.9988C34.0591 13.425 33.433 13.807 32.7815 14.1416C30.9496 15.1354 29.8084 15.6588 29.3579 15.7118H29.2933C29.3496 15.5031 30.1695 13.8302 31.7529 10.6932C32.8854 10.5025 33.9891 10.1685 35.0374 9.69938L35.41 9.6646C35.7069 9.61191 36.0116 9.62416 36.3033 9.7005C36.5949 9.77685 36.8665 9.91547 37.0995 10.1068V10.3354C36.8163 11.1304 36.5132 11.5975 36.1802 11.7416L36.1951 11.7565ZM33.1691 10.077H33.4076V10.1366H33.1691V10.077ZM36.6722 9.48075H36.856C37.025 9.56522 37.1144 9.63975 37.1194 9.69938V9.74907C37.028 9.75253 36.9374 9.73071 36.8576 9.68599C36.7778 9.64128 36.7119 9.57541 36.6672 9.49565L36.6722 9.48075ZM37.1691 6.66335C36.7688 7.04507 36.3252 7.3786 35.8473 7.65714C34.9315 7.92916 34.0391 8.2748 33.179 8.69068C33.101 8.66271 33.0182 8.65088 32.9355 8.6559V8.54162C32.9429 8.23791 33.0455 7.94419 33.2287 7.70186C33.3479 7.06087 33.4821 6.70808 33.6212 6.6236L34.9132 3.73665C34.9132 3.5677 35.1715 3.42857 35.7281 3.31925H35.9119V3.49317C36.4585 3.40373 36.8014 3.35238 36.9405 3.33913C37.9343 3.24969 38.4908 3.45342 38.5355 3.95528H38.6548V3.67702H38.774C38.9009 3.72269 39.0136 3.80088 39.1008 3.90378C39.188 4.00668 39.2467 4.13067 39.2709 4.26335C39.2632 4.48769 39.177 4.70222 39.0274 4.86957C38.9479 4.86957 38.9032 4.82485 38.8933 4.70062H38.774L38.7392 5.04845C38.2423 5.82857 37.8498 6.23603 37.6163 6.25093C37.4076 6.53416 37.2784 6.67826 37.2187 6.68323L37.1691 6.66335ZM37.7107 8.5913V8.41739H37.8299L38.0883 8.5764C38.0905 8.59195 38.0892 8.60779 38.0847 8.62282C38.0802 8.63786 38.0725 8.65174 38.0621 8.66353C38.0517 8.67531 38.0389 8.68473 38.0246 8.69113C38.0102 8.69753 37.9947 8.70077 37.979 8.70062C37.9054 8.64455 37.8177 8.61013 37.7256 8.60124L37.7107 8.5913ZM16.1504 19.8311L16.0312 19.8609L15.9268 19.9503C15.9286 19.9664 15.9342 19.9819 15.943 19.9955C15.9519 20.0091 15.9637 20.0204 15.9777 20.0286C15.9917 20.0368 16.0074 20.0416 16.0236 20.0427C16.0398 20.0438 16.056 20.0411 16.0709 20.0348C16.1504 20.0348 16.1802 19.9702 16.1653 19.8957V19.836L16.1504 19.8311ZM15.6933 18.9168V18.9764C15.7728 18.9764 15.8026 18.9118 15.7877 18.8373V18.7776C15.7717 18.7792 15.7563 18.7843 15.7425 18.7925C15.7287 18.8006 15.7169 18.8118 15.7078 18.8251C15.6988 18.8383 15.6929 18.8534 15.6903 18.8693C15.6878 18.8851 15.6888 18.9014 15.6933 18.9168V18.9168ZM18.9728 12.7602L19.0622 12.7056H19.0175C19.0038 12.7091 18.992 12.7178 18.9846 12.7299C18.9772 12.7419 18.9747 12.7564 18.9777 12.7702L18.9728 12.7602ZM18.9728 11.1652L19.1119 11.1304L19.0573 11.0062L18.9181 11.041L18.9479 11.1602L18.9728 11.1652ZM51.6933 15.841L51.3802 15.8062L51.3256 15.9255V15.9752L53.1989 15.8161V15.7019L51.7082 15.8311L51.6933 15.841ZM53.4076 15.6969V15.8112V15.6969ZM61.2734 14.6683V14.7826L61.4771 14.8174V14.7031L61.2734 14.6683ZM60.9852 14.6683C60.373 14.8388 59.7422 14.9339 59.1069 14.9516V15.0658H59.3057L59.4597 15.0062C60.851 14.8522 61.015 14.9068 61.0001 14.7528V14.6981L60.9852 14.6683ZM52.538 12.6211L52.4138 12.5814C52.3436 12.7402 52.2935 12.9071 52.2647 13.0783V13.1279C52.3641 13.1279 52.4486 12.959 52.533 12.6311L52.538 12.6211ZM50.8436 11.7068V11.6472H50.779L50.6647 11.7217L50.7293 11.8311C50.8187 11.8311 50.8585 11.7814 50.8486 11.7019L50.8436 11.7068ZM54.5256 15.513V15.3988H54.4908V15.513H54.5256ZM62.1628 13.7888H62.2523C62.302 13.7888 62.3268 13.7441 62.3218 13.6696L62.2722 13.5602C62.0186 13.5588 61.7689 13.6221 61.5467 13.7441V13.6845L61.1641 13.7193C61.1641 13.605 61.1243 13.5453 61.0697 13.5503H60.8709C60.6374 13.5503 60.5281 13.5503 60.4138 13.6497C60.4138 13.6099 60.4138 13.5901 60.374 13.5901H60.1504L60.0212 13.6646C60.0212 13.6248 60.0212 13.605 59.9815 13.605L59.902 13.6745V13.6149H59.5194V13.7292L59.6784 13.7689H59.8274C59.8784 13.7988 59.9378 13.811 59.9964 13.8037L60.1256 13.7391V13.7888C59.7237 13.8934 59.3153 13.9714 58.9032 14.0224C58.8682 13.9929 58.8247 13.9755 58.779 13.9727C58.7659 13.972 58.7531 13.9688 58.7413 13.9632C58.7295 13.9576 58.7189 13.9498 58.7101 13.9401C58.7014 13.9304 58.6946 13.9191 58.6902 13.9067C58.6858 13.8944 58.6839 13.8814 58.6846 13.8683L58.943 13.8335C59 13.8517 59.0581 13.8667 59.1169 13.8783C59.3256 13.7739 59.3355 13.7342 59.4448 13.7242V13.6099C59.0088 13.6901 58.5665 13.7317 58.1231 13.7342H58.0833V13.6199C59.2312 13.4807 58.8486 13.5602 59.2411 13.4509C59.2411 13.4907 59.2411 13.5106 59.2809 13.5106C59.3233 13.4668 59.3794 13.4387 59.4399 13.4311H59.5194C59.9497 13.4504 60.3804 13.4035 60.7964 13.2919V13.3416L60.9256 13.277H61.0448C61.0448 13.1627 61.2138 13.1429 61.2734 13.1379V13.0137C59.8771 13.2969 59.5094 13.2174 59.1218 13.3267V13.277C58.9591 13.3147 58.7916 13.3281 58.625 13.3168C58.5805 13.3302 58.5409 13.3561 58.5107 13.3913C58.5107 13.3516 58.5107 13.3317 58.4659 13.3317L57.2784 13.5255C57.2784 13.4907 57.2784 13.4758 57.2336 13.4807C56.819 13.6022 56.3926 13.6788 55.9616 13.7093C55.9062 13.7194 55.8536 13.7414 55.8076 13.7739C55.8076 13.7391 55.8076 13.7242 55.743 13.7292L55.2461 13.7689L54.9082 13.8534C54.9082 13.8186 54.9082 13.8037 54.8436 13.8087C54.6813 13.8557 54.5149 13.8873 54.3467 13.9031C54.2622 13.9031 54.3864 13.9031 54.3467 13.8534L54.2423 13.913H53.6659C52.7715 14.0224 52.8709 14.0373 52.7715 14.0422H52.4386C52.4403 14.0493 52.4402 14.0567 52.4384 14.0638C52.4366 14.0708 52.4331 14.0773 52.4282 14.0827C52.4233 14.0881 52.4172 14.0922 52.4103 14.0947C52.4035 14.0971 52.3961 14.0979 52.3889 14.0969C52.0113 14.0472 51.8125 13.9876 51.8125 13.918C51.8622 13.5569 51.95 13.3714 52.0759 13.3615H52.1405L52.0858 13.4807H52.1504C52.2697 13.4162 52.3243 13.3565 52.3194 13.3019V13.1776H52.2001V13.0634C52.189 12.9838 52.2011 12.9027 52.2349 12.8298L52.5082 12.3876V12.5019H52.6374V12.3876L52.5628 12.2832C52.6269 12.2179 52.7077 12.1714 52.7964 12.1491V12.0894H52.6225V11.9155C52.8463 11.5148 53.0135 11.0851 53.1194 10.6385L53.2436 10.6882C53.3231 10.6882 53.3579 10.6385 53.3529 10.554H53.2336V10.5043C53.2251 10.4206 53.2406 10.3361 53.2784 10.2609C53.3633 10.185 53.4305 10.0914 53.4752 9.98659C53.5198 9.88181 53.5409 9.76848 53.5368 9.65466C53.5715 9.65466 53.5914 9.65466 53.5964 9.70932C53.7604 9.61491 53.8846 9.37143 53.974 8.96398C54.4569 7.95948 54.8671 6.92162 55.2013 5.85839C56.22 3.11553 56.1951 2.82733 56.3194 2.1764H56.2001C56.2092 2.25858 56.1936 2.34159 56.1554 2.41491C56.0945 2.38709 56.0285 2.37188 55.9616 2.37019V2.3205C55.9666 2.01167 56.0731 1.71306 56.2647 1.47081H56.3194L56.4237 1.86832H56.543C56.5628 1.7007 56.5944 1.53466 56.6374 1.37143C56.6374 1.3118 56.5877 1.27205 56.4933 1.26708L56.379 1.34162V0.695653H56.3194C56.2391 0.631669 56.1831 0.542304 56.1604 0.442238L55.4995 0.506833C55.4871 0.434994 55.4618 0.365981 55.425 0.303106C55.425 0.243479 55.5691 0.183851 55.8722 0.124224L56.0063 0.173914L56.1305 0.0993793C56.1305 0.139131 56.1604 0.159007 56.2051 0.154038L56.3293 0.079503C56.3293 0.119255 56.3591 0.139131 56.4038 0.134162H56.4635V0H55.738L55.6138 0.084473V0.00993812C52.5065 0.265011 50.7426 0.412422 50.3218 0.452174H49.6659C49.6659 0.501863 49.6262 0.531677 49.5318 0.541615L49.3976 0.481988L48.8709 0.571429C48.6924 0.587401 48.5128 0.587401 48.3343 0.571429C48.2617 0.629248 48.1734 0.663877 48.0809 0.670809L49.3976 0.571429C49.3021 0.636257 49.19 0.672458 49.0746 0.675777C48.9844 0.688048 48.8925 0.672445 48.8113 0.631056C48.4857 0.7313 48.1537 0.809327 47.8175 0.864597L47.6833 0.814908L45.5169 1.14783C45.4252 1.10594 45.3237 1.09045 45.2237 1.10311C45.0285 1.12867 44.8357 1.17022 44.6473 1.22733L43.5989 1.6646L43.6784 1.79379C43.7545 1.78013 43.8271 1.75141 43.892 1.70932L44.2647 1.7441L44.22 2.09193C44.0729 2.14424 43.9412 2.23259 43.837 2.3489C43.7329 2.46522 43.6595 2.60579 43.6237 2.75777C43.1268 2.98634 42.8535 3.14534 42.8535 3.25466V3.31429H42.933L43.0722 3.23975L43.2361 3.43354V3.70186C43.2361 3.78468 42.3732 5.60663 40.6473 9.1677C39.1566 12.5963 38.3616 14.4696 38.2871 14.8075C37.7902 14.9516 37.4771 15.1602 37.3877 15.4385C37.3877 15.5279 37.5517 15.5876 37.8448 15.6075V15.7416L37.7107 15.9652V16.2335C37.7107 16.3727 38.085 16.4787 38.8337 16.5516C38.8337 16.5068 38.8337 16.477 38.9032 16.472C38.8982 16.8078 38.8514 17.1416 38.7641 17.4658H38.933C39.1576 17.2267 39.3093 16.9285 39.3703 16.6062H39.4299C39.5045 16.6062 39.584 16.6857 39.6734 16.8646C39.5806 16.901 39.2494 17.6381 38.6796 19.0758L38.7591 19.205H38.8386C39.5177 17.4824 39.945 16.53 40.1206 16.3478C41.015 16.2683 42.5604 16.1027 44.7566 15.8509L44.8958 15.7665C44.8952 15.7769 44.8973 15.7873 44.9017 15.7968C44.9061 15.8063 44.9127 15.8146 44.921 15.8209C44.9293 15.8273 44.9391 15.8315 44.9494 15.8333C44.9597 15.8351 44.9703 15.8343 44.9802 15.8311H45.1243L45.2635 15.7466C45.263 15.757 45.265 15.7674 45.2694 15.7769C45.2738 15.7864 45.2804 15.7947 45.2887 15.8011C45.2971 15.8074 45.3068 15.8117 45.3171 15.8134C45.3274 15.8152 45.338 15.8144 45.3479 15.8112L47.0125 15.6671C47.4548 15.6323 47.6585 15.4981 47.6436 15.2696C47.6436 15.2099 47.897 15.1404 48.4237 15.0658C48.5017 15.065 48.5792 15.0784 48.6523 15.1056C48.6523 15.0658 48.9107 15.0211 49.4374 14.9764C49.4374 14.6981 49.5368 14.5491 49.6958 14.5342V14.4C49.5264 14.4196 49.3598 14.4579 49.1989 14.5143C48.9764 14.5115 48.7548 14.4848 48.538 14.4348C48.4728 14.4762 48.4003 14.5049 48.3243 14.5193L47.1368 14.4845L46.9976 14.559C46.9976 14.5159 46.9695 14.4977 46.9132 14.5043H46.8486L46.6995 14.5789C46.6995 14.5391 46.5753 14.5043 46.3318 14.4745L46.1827 14.564H45.8945V14.4894C47.3852 14.3271 48.1206 14.1251 48.1007 13.8832C48.1204 13.8785 48.1409 13.8785 48.1606 13.8832C48.1803 13.8878 48.1987 13.8971 48.2141 13.9101C48.2296 13.9232 48.2418 13.9397 48.2497 13.9583C48.2576 13.977 48.2611 13.9972 48.2597 14.0174L48.697 13.9081V13.7739L45.1293 13.8733C45.1293 13.918 45.1293 13.9478 45.0597 13.9528L44.6225 13.918C44.5221 13.9239 44.4256 13.9584 44.3442 14.0174L44.1703 13.9876C43.8343 14.0084 43.5014 14.0634 43.1765 14.1516C42.8458 14.1255 42.5135 14.1255 42.1827 14.1516L41.3827 14.2211L41.01 14.1814C41.01 13.9429 41.4523 12.7851 42.3964 10.7031C42.5362 10.2081 42.7995 9.75668 43.1616 9.3913C43.2409 9.39241 43.319 9.41108 43.3902 9.44596L43.902 9.25217L44.1951 9.2969C44.7827 9.23254 45.3592 9.09051 45.9094 8.87453C46.0347 8.85669 46.1623 8.8686 46.2821 8.90932L46.7194 8.80497L48.0163 8.69565C48.6273 8.63765 49.2303 8.51438 49.815 8.32795V8.19379C49.5765 8.19379 49.4473 8.19379 49.4423 8.0795C49.4423 7.90062 49.2535 7.82609 48.9156 7.85093V7.71677L49.2734 7.61242L50.2076 7.53292V7.39876H49.6312V7.25466L49.9939 7.21988C50.0933 7.21988 50.133 7.16522 50.1231 7.07081C49.6262 7.07081 49.3927 7.07081 49.3877 6.99627C45.9989 7.16191 44.2995 7.19337 44.2895 7.09068C44.2127 7.10737 44.14 7.13949 44.0759 7.18509L43.9318 7.03106C44.8295 5.12298 45.3562 4.16232 45.5119 4.14907C45.5028 4.27503 45.4655 4.39731 45.4026 4.50683V4.54658H45.5467C45.9045 3.69689 46.2026 3.25466 46.456 3.23478C47.5194 3.14037 46.3069 3.07081 48.5877 2.73789C48.6502 2.77227 48.7201 2.79103 48.7914 2.79255C49.6858 2.61035 50.9314 2.42153 52.5281 2.22609V2.09193L51.6784 2.17143V2.03727C51.7709 2.03034 51.8592 1.99571 51.9318 1.93789V2.01242C52.0025 1.99551 52.0687 1.96328 52.1256 1.91801C52.2397 1.89902 52.3569 1.9128 52.4635 1.95777C52.6981 1.89212 52.9372 1.84395 53.179 1.81367L53.7107 1.76398C53.8399 1.6795 53.8995 1.60497 53.8945 1.5354V1.47578C53.7382 1.48769 53.581 1.47765 53.4274 1.44596C53.4254 1.42833 53.4268 1.41045 53.4317 1.39338C53.4366 1.37631 53.4448 1.36038 53.4559 1.34652C53.467 1.33265 53.4807 1.32112 53.4963 1.3126C53.5119 1.30409 53.529 1.29875 53.5467 1.29689L54.5405 1.20249L54.9927 1.0882C54.9927 1.13789 55.0225 1.15776 55.0572 1.15776C55.128 1.14085 55.1941 1.10863 55.251 1.06336H55.3256C55.2453 1.23845 55.1789 1.41954 55.1268 1.60497H54.9976C54.9908 1.52091 54.9654 1.43942 54.9231 1.36646H54.8336C53.6312 4.7205 53.0945 6.28075 51.9815 8.85466C51.7777 9.51056 51.6088 9.87826 51.4597 9.95776C51.4593 9.97383 51.4625 9.98979 51.4692 10.0044C51.476 10.019 51.486 10.0319 51.4985 10.042C51.511 10.0521 51.5257 10.0591 51.5413 10.0626C51.557 10.0661 51.5733 10.0659 51.5889 10.0621C51.6146 10.3978 51.5346 10.7331 51.3604 11.0211C50.8635 12.5118 50.5057 13.3118 50.3268 13.4609L50.4411 14.1615C50.4432 14.177 50.442 14.1929 50.4375 14.2079C50.433 14.2229 50.4252 14.2368 50.4149 14.2486C50.4045 14.2604 50.3917 14.2698 50.3774 14.2762C50.363 14.2826 50.3475 14.2859 50.3318 14.2857H50.2125C50.2125 14.0919 50.1231 13.9975 49.9989 14.0124H49.9343C49.7676 14.2751 49.6466 14.564 49.5765 14.8671H49.6958C49.7648 14.8329 49.8226 14.7796 49.8622 14.7135C49.9018 14.6475 49.9217 14.5714 49.9194 14.4944H50.1579L50.297 14.5441C50.2031 14.6655 50.1493 14.8131 50.143 14.9665L50.2076 15.0758L50.0486 15.4484V15.5081C50.2092 15.5016 50.3677 15.5469 50.5007 15.6373C50.6312 15.6143 50.754 15.5597 50.8585 15.4783H52.4088L52.856 15.3242C53.2257 15.3324 53.5956 15.3208 53.9641 15.2894H54.1579L54.2622 15.2199V15.2795C54.567 15.2448 54.8753 15.2566 55.1765 15.3143V15.3739H54.9032V15.4882C54.983 15.483 55.0593 15.4535 55.1218 15.4037C55.1914 15.4037 55.2312 15.4385 55.2361 15.518C55.109 15.5315 54.9839 15.5598 54.8635 15.6025L54.7442 15.5627C54.5554 15.6124 54.5951 15.6273 54.4659 15.6373L54.2771 15.6025C54.2786 15.6091 54.2786 15.616 54.2771 15.6227C54.2755 15.6293 54.2725 15.6355 54.2681 15.6408C54.2638 15.646 54.2584 15.6502 54.2522 15.6531C54.246 15.6559 54.2392 15.6573 54.2324 15.6571C54.2315 15.672 54.2339 15.6868 54.2395 15.7006C54.245 15.7143 54.2536 15.7266 54.2646 15.7367C54.2756 15.7467 54.2886 15.7541 54.3028 15.7584C54.317 15.7627 54.332 15.7637 54.3467 15.7615H54.5405L55.5343 15.672L55.9169 15.5876C55.9169 15.6224 55.9169 15.6373 55.9666 15.6323L56.1504 15.5627L56.4982 15.5329C56.7666 15.5329 56.7616 15.4932 57.3479 15.3988C57.3479 15.364 57.3479 15.3491 57.3827 15.3441V15.3938C57.775 15.3462 58.1635 15.2715 58.5455 15.1702V15.2C58.784 15.1453 58.6498 15.1602 58.7144 15.1106C58.7144 15.1503 58.7144 15.1702 58.7541 15.1702H58.9231V15.046H58.5057C58.3812 15.0693 58.2546 15.0793 58.1281 15.0758L57.2784 15.1205V15.0609L57.7753 14.9963H57.9442L58.0436 14.9267V14.9814C58.7094 14.9267 58.9479 15.0907 62.0187 14.4348C62.1877 14.4348 62.1728 14.2807 62.2771 13.9925C62.2202 13.9975 62.1632 13.9853 62.1132 13.9578C61.8246 14.0278 61.5302 14.0711 61.2336 14.087C61.1939 14.087 61.1591 14.0522 61.1442 13.9826V13.9329H61.6411C61.8172 13.9142 61.987 13.8565 62.138 13.764C62.138 13.8037 62.0386 13.8286 62.0982 13.8236L62.1628 13.7888ZM39.3653 14.1565H39.1467C39.2195 13.8117 39.3364 13.4777 39.4945 13.1627H39.6386C39.5932 13.5049 39.5013 13.8393 39.3653 14.1565ZM39.6287 13.1031V13.0435C39.6287 12.9689 39.6684 12.9193 39.7728 12.8944V12.9938C39.7728 13.0832 39.733 13.1329 39.6287 13.1429V13.1031ZM42.5206 15.3391V15.3988L42.1579 15.4335V15.3739L42.5206 15.3391ZM42.0833 15.3043C42.0833 15.3789 41.979 15.4634 41.7355 15.5429L41.2933 15.5081H41.1492V15.3739L42.0982 15.2845L42.0833 15.3043ZM45.01 1.83354H44.7914V1.75901C44.7914 1.68447 44.8262 1.63478 44.9206 1.60994H45.0001L45.1492 1.66957C45.1522 1.68854 45.1509 1.70795 45.1454 1.72637C45.1399 1.74479 45.1304 1.76175 45.1176 1.77603C45.1047 1.79031 45.0888 1.80155 45.0711 1.80892C45.0534 1.81628 45.0342 1.8196 45.015 1.81863L45.01 1.83354ZM48.3194 1.18758H48.374V1.32174H48.1753C48.1732 1.3041 48.1746 1.28623 48.1795 1.26916C48.1844 1.25209 48.1927 1.23616 48.2037 1.22229C48.2148 1.20843 48.2286 1.1969 48.2442 1.18838C48.2597 1.17986 48.2769 1.17452 48.2945 1.17267L48.3194 1.18758ZM47.4846 1.48075L47.1566 1.44596V1.38634C47.4419 1.36732 47.7239 1.31393 47.9964 1.22733C47.9964 1.27702 48.0461 1.29689 48.1305 1.28696V1.42112H48.0014C47.9111 1.43339 47.8192 1.41779 47.738 1.3764C47.6624 1.42787 47.5754 1.46026 47.4846 1.47081V1.48075ZM47.8771 2.70311V2.64348L48.4088 2.59379V2.65342L47.8771 2.70311ZM48.4486 2.24099V2.16149H48.7069V2.23602H48.4486V2.24099ZM48.5082 1.33168H48.4386L48.4982 1.18758L49.0896 1.13292V1.20745C48.8911 1.23076 48.695 1.27065 48.5032 1.32671L48.5082 1.33168ZM48.8113 2.6087V2.47454H49.0697C49.1591 2.47454 49.2055 2.51594 49.2088 2.59876L48.8212 2.63354L48.8113 2.6087ZM50.3815 0.47205L50.0486 0.566461H49.9889C49.7825 0.587045 49.5746 0.588707 49.3678 0.571429C49.8001 0.541616 50.2125 0.511803 50.3616 0.486958L50.3815 0.47205ZM50.0237 1.96273V2.02236L49.5666 2.06211V2.00249L50.0237 1.96273ZM50.774 2.3205C50.774 2.26584 50.6796 2.22609 50.5007 2.21118L50.0436 2.34037H49.6908C49.6113 2.28572 49.5715 2.24596 49.5666 2.22112H49.974L50.8883 2.07205H51.3554V2.14658C51.156 2.16385 50.9593 2.20386 50.7691 2.26584L50.774 2.3205ZM55.4895 1.06832H55.5939C55.7526 0.910409 55.9397 0.78396 56.1454 0.695653C56.0436 1.29991 55.7731 1.86312 55.3653 2.3205L55.1069 2.16149C55.2598 1.80305 55.3876 1.43447 55.4895 1.05839V1.06832ZM54.6945 2.43478H54.7591C54.6697 2.60373 54.5902 2.6882 54.5256 2.69317V2.51925C54.591 2.50828 54.6525 2.48093 54.7045 2.43975L54.6945 2.43478ZM54.1976 3.66211C54.2374 3.35012 54.361 3.05475 54.5554 2.80745V2.86708C54.4908 3.32919 54.3864 3.57764 54.2523 3.59255V3.88571C54.1613 3.99004 54.1056 4.12049 54.0933 4.25838H54.0287L53.9939 3.8559C54.0684 3.8559 54.1281 3.78137 54.1678 3.66211H54.1976ZM53.9989 4.32795C53.9797 4.49945 53.9345 4.66701 53.8647 4.82485H53.8001V4.65093C53.8895 4.44721 53.9641 4.34286 54.0138 4.34286L53.9989 4.32795ZM50.2622 15.1702V15.1205H50.3815V15.2944C50.3169 15.2944 50.2722 15.2596 50.2523 15.1801L50.2622 15.1702ZM55.5989 15.3093C55.5989 15.2696 55.5989 15.2497 55.5343 15.2547L55.2312 15.2845V15.2248H55.261L55.9715 15.1652V15.2248C55.841 15.215 55.7107 15.2462 55.5989 15.3143V15.3093ZM55.2411 15.1602C55.2709 15.1602 55.2411 15.1901 55.2411 15.195C55.2411 15.2 55.2063 15.195 55.2411 15.1602ZM55.2759 14.3255L54.8784 14.3602V14.3006L55.2411 14.2658L55.5541 14.1863C55.5541 14.2211 55.5541 14.236 55.6187 14.2311C55.9914 14.1665 55.9566 14.1466 56.1156 14.1317C56.1753 14.1317 56.215 14.1665 56.22 14.236L55.261 14.3205L55.2759 14.3255ZM56.6672 14.2062C56.5381 14.18 56.4062 14.17 56.2746 14.1764V14.1267L56.6324 14.0919V14.1416C56.5976 14.1416 56.7318 14.1416 56.6672 14.2012V14.2062ZM56.697 14.1416V14.0919H56.8908V14.1416H56.697ZM57.1293 14.1068V14.0571C57.1809 14.0436 57.2286 14.0181 57.2684 13.9826C57.2875 13.9798 57.3069 13.981 57.3255 13.9861C57.344 13.9912 57.3614 14.0002 57.3763 14.0123C57.3912 14.0244 57.4035 14.0396 57.4123 14.0567C57.4211 14.0738 57.4263 14.0926 57.4274 14.1118L57.1293 14.1068ZM57.6809 14.0373V13.9876H57.9194V14.0472H57.6809V14.0373ZM58.0088 14.0075C58.0088 13.9379 58.0088 13.8981 58.0933 13.8882L58.1728 13.9925C58.1713 13.9867 58.1711 13.9806 58.172 13.9746C58.173 13.9686 58.1752 13.9629 58.1785 13.9578C58.1817 13.9527 58.186 13.9483 58.191 13.9448C58.196 13.9414 58.2016 13.9391 58.2076 13.9379L58.2672 14.0472L58.0088 14.0124V14.0075ZM62.6349 13.4311C62.6697 13.4311 62.6895 13.3863 62.6001 13.3714C62.5107 13.3565 62.6448 13.4311 62.5554 13.436V13.4907L62.6051 13.4559L62.5554 13.4957L62.456 13.6199L62.6498 13.5503V13.436L62.6349 13.4311ZM62.9728 13.6944H62.938V13.8087H63.2113C63.2113 13.7342 63.0274 13.7093 62.9678 13.7093L62.9728 13.6944Z"
		fill="currentColor"
	/>
</svg>
