<svg viewBox="0 0 22 24" fill="none" xmlns="http://www.w3.org/2000/svg">
	<path
		d="M21.665 6.07276L21.7232 6.03395C21.6068 5.82053 21.4322 5.62652 21.2576 5.52951L11.8865 0.135812C11.7313 0.0388036 11.5179 0 11.2851 0C11.0522 0 10.8388 0.0582053 10.6836 0.135812L1.37076 5.54891C1.04093 5.74293 0.808105 6.22797 0.808105 6.5966V17.4034C0.808105 17.6168 0.846909 17.8496 0.982721 18.0631L0.943918 18.0825C1.04093 18.2377 1.17674 18.3735 1.31255 18.4511L10.6642 23.8642C10.8194 23.9612 11.0328 24 11.2657 24C11.4985 24 11.7119 23.9418 11.8671 23.8642L21.18 18.4511C21.5098 18.2571 21.7426 17.772 21.7426 17.4034V6.5772C21.762 6.42199 21.7426 6.24737 21.665 6.07276Z"
		fill="#03599C"
	/>
	<path
		d="M15.4176 14.3379C14.6028 15.7736 13.0506 16.7437 11.2851 16.7437C8.66582 16.7437 6.53163 14.6095 6.53163 11.9903C6.53163 9.37106 8.66582 7.23686 11.2851 7.23686C13.0506 7.23686 14.6028 8.20695 15.4176 9.66209L17.9399 8.20695C16.6206 5.89814 14.1371 4.3266 11.2851 4.3266C7.05548 4.3266 3.62136 7.76071 3.62136 11.9903C3.62136 16.2199 7.05548 19.654 11.2851 19.654C14.1177 19.654 16.6012 18.1019 17.9205 15.8124L15.4176 14.3379Z"
		fill="white"
	/>
</svg>
