<svg viewBox="0 0 22 24" fill="none" xmlns="http://www.w3.org/2000/svg">
	<path
		d="M21.6065 6.07276L21.6647 6.03395C21.5483 5.82053 21.3737 5.62652 21.1991 5.52951L11.828 0.135812C11.6728 0.0388036 11.4594 0 11.2266 0C10.9938 0 10.7804 0.0582053 10.6251 0.135812L1.31229 5.54891C0.982455 5.74293 0.749634 6.22797 0.749634 6.5966V17.4034C0.749634 17.6168 0.788437 17.8496 0.92425 18.0631L0.885446 18.0825C0.982455 18.2377 1.11827 18.3735 1.25408 18.4511L10.6057 23.8642C10.761 23.9612 10.9744 24 11.2072 24C11.44 24 11.6534 23.9418 11.8086 23.8642L21.1215 18.4511C21.4513 18.2571 21.6842 17.772 21.6842 17.4034V6.5772C21.7036 6.42199 21.6842 6.24737 21.6065 6.07276Z"
		fill="#9C033A"
	/>
	<path
		d="M15.3592 14.3379C14.5443 15.7736 12.9922 16.7437 11.2266 16.7437C8.60735 16.7437 6.47316 14.6095 6.47316 11.9903C6.47316 9.37106 8.60735 7.23686 11.2266 7.23686C12.9922 7.23686 14.5443 8.20695 15.3592 9.66209L17.8814 8.20695C16.5621 5.89814 14.0787 4.3266 11.2266 4.3266C6.99701 4.3266 3.56289 7.76071 3.56289 11.9903C3.56289 16.2199 6.99701 19.654 11.2266 19.654C14.0593 19.654 16.5427 18.1019 17.862 15.8124L15.3592 14.3379Z"
		fill="white"
	/>
	<path
		d="M14.7383 11.5635H15.7472V10.5352H16.6009V11.5635H17.6292V12.4171H16.6009V13.426H15.7472V12.4171H14.7383V11.5635ZM18.3276 11.5635H19.3365V10.5352H20.1902V11.5635H21.2185V12.4171H20.1902V13.426H19.3365V12.4171H18.3276V11.5635Z"
		fill="white"
	/>
</svg>
