<svg
	viewBox="0 0 25 24"
	fill="none"
	xmlns="http://www.w3.org/2000/svg"
	color="#000"
>
	<path
		d="M23.9582 7.48616L12.9894 0.173672C12.615 -0.0569524 12.2155 -0.0588274 11.8378 0.173672L0.869088 7.48616C0.587838 7.67366 0.413651 8.00854 0.413651 8.34323V15.6557C0.413651 15.9906 0.587838 16.3255 0.869088 16.5128L11.8378 23.8264C12.2121 24.0568 12.6118 24.0589 12.9894 23.8264L23.9582 16.5128C24.2394 16.3255 24.4136 15.9906 24.4136 15.6559V8.34341C24.4136 8.00854 24.2394 7.67366 23.9582 7.48616V7.48616ZM13.4451 2.95917L21.5207 8.34323L17.9181 10.7541L13.4449 7.76723V2.95954L13.4451 2.95917ZM11.3824 2.95917V7.76741L6.90902 10.7539L3.3064 8.34341L11.3824 2.95917V2.95917ZM2.47615 10.2717L5.06102 11.9995L2.47615 13.7273V10.2717V10.2717ZM11.3824 21.0398L3.3064 15.6557L6.90902 13.245L11.3824 16.2317V21.0398V21.0398ZM12.4136 14.437L8.77089 11.9995L12.4136 9.56198L16.0564 11.9995L12.4136 14.437ZM13.4449 21.0398V16.2317L17.9181 13.245L21.5207 15.6557L13.4451 21.0398H13.4449ZM22.3511 13.7273L19.7663 11.9995L22.3511 10.2718V13.7273Z"
		fill="currentColor"
	/>
</svg>
