<svg viewBox="0 0 22 24" fill="none" xmlns="http://www.w3.org/2000/svg">
	<path
		d="M21.5481 6.07276L21.6063 6.03395C21.4899 5.82053 21.3153 5.62652 21.1406 5.52951L11.7696 0.135812C11.6144 0.0388036 11.4009 0 11.1681 0C10.9353 0 10.7219 0.0582053 10.5667 0.135812L1.25381 5.54891C0.923983 5.74293 0.691162 6.22797 0.691162 6.5966V17.4034C0.691162 17.6168 0.729966 17.8496 0.865778 18.0631L0.826975 18.0825C0.923983 18.2377 1.0598 18.3735 1.19561 18.4511L10.5473 23.8642C10.7025 23.9612 10.9159 24 11.1487 24C11.3815 24 11.595 23.9418 11.7502 23.8642L21.063 18.4511C21.3929 18.2571 21.6257 17.772 21.6257 17.4034V6.5772C21.6451 6.42199 21.6257 6.24737 21.5481 6.07276Z"
		fill="#68217A"
	/>
	<path
		d="M15.3007 14.3379C14.4858 15.7736 12.9337 16.7437 11.1681 16.7437C8.54888 16.7437 6.41469 14.6095 6.41469 11.9903C6.41469 9.37106 8.54888 7.23686 11.1681 7.23686C12.9337 7.23686 14.4858 8.20695 15.3007 9.66209L17.8229 8.20695C16.5036 5.89814 14.0202 4.3266 11.1681 4.3266C6.93853 4.3266 3.50442 7.76071 3.50442 11.9903C3.50442 16.2199 6.93853 19.654 11.1681 19.654C14.0008 19.654 16.4842 18.1019 17.8035 15.8124L15.3007 14.3379ZM17.5707 12.4171L17.7453 11.5829H16.9304V10.671H17.9199L18.1528 9.46807H19.1034L18.8706 10.6516H19.6079L19.8407 9.46807H20.772L20.5392 10.6516H21.0048V11.5635H20.3646L20.1899 12.3977H21.0048V13.3096H20.0153L19.7825 14.4737H18.8318L19.0646 13.3096H18.3274L18.0946 14.4737H17.1633L17.3961 13.3096H16.9304V12.3977H17.5707V12.4171ZM18.502 12.4171H19.2393L19.4139 11.5829H18.6766L18.502 12.4171Z"
		fill="white"
	/>
</svg>
