<svg
	viewBox="0 0 38 24"
	fill="none"
	xmlns="http://www.w3.org/2000/svg"
	color="#019BC6"
>
	<path
		d="M37.0293 8.38806C35.7457 7.64179 34.0442 7.55224 32.6114 7.97015C32.4323 6.41791 31.4173 5.07463 30.2233 4.1194L29.7457 3.73134L29.3278 4.20895C28.5218 5.13433 28.283 6.68657 28.4024 7.8806C28.492 8.74627 28.7606 9.64179 29.2979 10.3582C28.88 10.597 28.4323 10.9254 28.0144 11.0746C27.1785 11.3731 26.2532 11.6716 25.3576 11.6716H23.3576V7.46269H19.477V0H14.9994V3.58209H7.53674V7.46269H3.65615V11.6418H0.312863L0.253162 12.0896C0.103908 14 0.342714 15.8507 1.14868 17.6119L1.47704 18.2687L1.50689 18.3284C3.8651 22.3284 7.9845 24 12.492 24C21.2084 24 28.4024 20.0896 31.686 11.8806C33.895 12 36.1636 11.3433 37.2382 9.22388L37.5069 8.68657L37.0293 8.38806V8.38806ZM8.13376 4.47761H11.1188V7.76119H8.13376V4.47761ZM12.0442 17.6716C12.0442 18.1791 11.6263 18.597 11.1188 18.597C10.6114 18.597 10.1935 18.1791 10.1935 17.6716C10.1935 17.1642 10.6114 16.7463 11.1188 16.7463C11.6263 16.7761 12.0442 17.1642 12.0442 17.6716ZM8.13376 8.35821H11.1188V11.6418H8.13376V8.35821ZM4.25316 8.35821H7.53674V11.6418H4.25316V8.35821ZM12.5218 23.3433C7.8054 23.3134 5.26809 21.7313 3.17853 19.6418C3.8054 19.6716 4.40242 19.7015 4.93973 19.7015C5.41734 19.7015 5.89495 19.7015 6.34271 19.6716C7.50689 19.6119 8.52182 19.4627 9.35764 19.2239C10.0442 20.806 11.2979 22.2687 13.5367 23.3433H12.5218ZM14.9994 11.6418H11.7158V8.35821H14.9994V11.6418ZM14.9994 7.76119H11.7158V4.47761H14.9994V7.76119ZM18.88 11.6418H15.5964V8.35821H18.88V11.6418ZM18.88 7.76119H15.5964V4.47761H18.88V7.76119ZM18.88 3.8806H15.5964V0.597015H18.88V3.8806ZM22.7606 11.6418H19.477V8.35821H22.7606V11.6418ZM11.3576 17.0746C11.2979 17.0448 11.2084 17.0149 11.1188 17.0149C10.7606 17.0149 10.4621 17.3134 10.4621 17.6716C10.4621 18.0298 10.7606 18.3284 11.1188 18.3284C11.477 18.3284 11.7756 18.0298 11.7756 17.6716C11.7756 17.5821 11.7457 17.4925 11.7158 17.4328C11.6561 17.5224 11.5964 17.5821 11.477 17.5821C11.3278 17.5821 11.2084 17.4627 11.2084 17.3134C11.2382 17.194 11.2979 17.1045 11.3576 17.0746V17.0746Z"
		fill="currentColor"
	/>
</svg>
