<svg viewBox="0 0 28 24" fill="none" xmlns="http://www.w3.org/2000/svg">
	<path
		d="M8.76029 8.73327L13.9299 5.74152C14.0618 5.67553 14.2158 5.67553 14.3478 5.74152L19.5394 8.73327C19.6714 8.79927 19.7594 8.95325 19.7594 9.08524V15.0687C19.7594 15.2227 19.6714 15.3547 19.5394 15.4427L14.3698 18.4345C14.2378 18.5005 14.0838 18.5005 13.9519 18.4345L8.76029 15.4427C8.6283 15.3767 8.5403 15.2227 8.5403 15.0687V9.08524C8.5403 8.95325 8.6283 8.79927 8.76029 8.73327Z"
		fill="#8080F2"
	/>
	<path
		d="M27.6127 11.461L21.4312 0.681943C21.2112 0.285976 20.7933 0 20.3313 0H7.96835C7.52839 0 7.11042 0.285976 6.86844 0.681943L0.686959 11.439C0.466977 11.835 0.466977 12.319 0.686959 12.7149L6.86844 23.4061C7.08843 23.802 7.50639 24 7.96835 24H20.3533C20.7933 24 21.2112 23.802 21.4532 23.428L27.6347 12.7369C27.8547 12.297 27.8547 11.835 27.6127 11.461ZM22.4871 16.6306C22.4871 16.7846 22.3991 16.9386 22.2452 17.0046L14.3698 21.5582C14.2378 21.6462 14.0618 21.6462 13.9299 21.5582L6.03251 17.0266C5.90052 16.9386 5.79053 16.8066 5.79053 16.6526V7.52337C5.79053 7.36939 5.87853 7.2154 6.03251 7.1494L13.9299 2.59578C14.0618 2.50779 14.2378 2.50779 14.3698 2.59578L22.2672 7.1494C22.3991 7.2374 22.5091 7.36939 22.5091 7.52337V16.6306H22.4871Z"
		fill="#4B32C3"
	/>
</svg>
