<svg
	viewBox="0 0 43 24"
	fill="none"
	xmlns="http://www.w3.org/2000/svg"
	color="#000"
>
	<path
		d="M42.1464 23.3641C40.6424 23.7466 39.7123 23.3805 38.8779 22.1272C37.0045 19.3205 34.9365 16.6423 32.9411 13.9147C32.6839 13.5618 32.4167 13.2155 32.0836 12.7769C29.7221 15.9629 27.3639 18.9973 25.1508 22.1536C24.3592 23.2816 23.5281 23.773 22.0505 23.3739L30.9292 11.4576L22.664 0.695615C24.0855 0.418567 25.0683 0.56039 25.9391 1.83349C27.8619 4.64354 29.9826 7.31837 32.0968 10.1482C34.2241 7.32827 36.3185 4.65014 38.2974 1.86647C39.0922 0.738491 39.9465 0.309727 41.3746 0.725299C40.2928 2.16001 39.2341 3.57163 38.1687 4.97336C36.7307 6.86322 35.3191 8.77617 33.8283 10.6265C33.2973 11.2861 33.3831 11.7149 33.858 12.3382C36.6153 15.9629 39.3396 19.6239 42.1464 23.3641ZM0.806892 11.2597C1.04436 10.0691 1.20267 8.85533 1.53249 7.68777C3.5114 0.619757 11.6249 -2.31893 17.1989 2.06106C20.4641 4.63035 21.2754 8.25176 21.1138 12.3349H2.70995C2.4329 19.6602 7.7067 24.0831 14.4284 21.8271C16.7866 21.0355 18.1751 19.1885 18.8711 16.8798C19.224 15.7222 19.8077 15.5408 20.8961 15.8706C20.3388 18.7598 19.0755 21.1741 16.437 22.6846C12.4792 24.9472 6.82938 24.215 3.85771 21.0718C2.10308 19.2248 1.35769 16.926 1.02787 14.4425C0.978397 14.0467 0.876154 13.6575 0.796997 13.265C0.803593 12.5966 0.806892 11.9281 0.806892 11.2597V11.2597ZM2.74293 10.7683H19.3757C19.2668 5.47139 15.9687 1.70816 11.46 1.67518C6.51275 1.6356 2.95731 5.30978 2.74293 10.7683V10.7683Z"
		fill="currentColor"
	/>
</svg>
