<svg
	viewBox="0 0 25 24"
	fill="none"
	xmlns="http://www.w3.org/2000/svg"
	color="#F34F29"
>
	<path
		d="M24.0602 10.931L13.5811 0.452588C12.9781 -0.150863 11.9993 -0.150863 11.3953 0.452588L9.21972 2.62874L11.9799 5.38894C12.6216 5.17239 13.357 5.31765 13.8682 5.82889C14.1119 6.07275 14.282 6.38025 14.3591 6.71623C14.4362 7.05221 14.4171 7.40311 14.3042 7.72879L16.9644 10.3894C17.608 10.1675 18.3508 10.3109 18.8645 10.8257C19.5831 11.5438 19.5831 12.7079 18.8645 13.4264C18.6937 13.5973 18.4909 13.7328 18.2677 13.8253C18.0445 13.9178 17.8053 13.9654 17.5637 13.9654C17.3222 13.9654 17.0829 13.9178 16.8598 13.8253C16.6366 13.7328 16.4338 13.5973 16.263 13.4264C16.0064 13.1696 15.8315 12.8427 15.7603 12.4868C15.6891 12.1309 15.7248 11.7618 15.8628 11.4261L13.3821 8.9452L13.3817 15.4742C13.5617 15.5629 13.726 15.6802 13.8682 15.8218C14.5867 16.5399 14.5867 17.7036 13.8682 18.4232C13.1498 19.1413 11.9853 19.1413 11.2675 18.4232C10.5493 17.7038 10.4903 16.54 11.2084 15.8218C11.386 15.6444 11.5611 15.5103 11.7512 15.4206V8.83112C11.5611 8.74138 11.3862 8.6083 11.2082 8.42977C10.6643 7.88602 10.5626 7.0875 10.8417 6.41903L8.13564 3.6978L0.957731 10.8826C0.35409 11.4866 0.357892 12.4653 0.961533 13.069L11.4423 23.5474C12.0455 24.1509 13.025 24.1509 13.6292 23.5474L24.0594 13.1176C24.663 12.5138 24.6636 11.5345 24.0602 10.931V10.931Z"
		fill="currentColor"
	/>
</svg>
