<svg
	viewBox="0 0 26 24"
	fill="none"
	xmlns="http://www.w3.org/2000/svg"
	color="#181616"
>
	<path
		fill-rule="evenodd"
		clip-rule="evenodd"
		d="M12.8163 0C6.02194 0 0.512451 5.50827 0.512451 12.3038C0.512451 17.7402 4.03787 22.3519 8.92655 23.9791C9.54125 24.0932 9.767 23.7122 9.767 23.3872C9.767 23.0938 9.75559 22.1246 9.75029 21.0965C6.32736 21.8407 5.60508 19.6448 5.60508 19.6448C5.04539 18.2226 4.23896 17.8445 4.23896 17.8445C3.12244 17.0808 4.32311 17.0967 4.32311 17.0967C5.55842 17.1833 6.20919 18.3646 6.20919 18.3646C7.30656 20.2452 9.0875 19.7016 9.78961 19.3874C9.90004 18.5922 10.2189 18.0492 10.5708 17.742C7.83793 17.4313 4.96491 16.3761 4.96491 11.6616C4.96491 10.3183 5.44575 9.22072 6.23282 8.35888C6.10487 8.04919 5.68373 6.79778 6.35181 5.10302C6.35181 5.10302 7.3848 4.77234 9.73603 6.36421C10.7177 6.09139 11.7704 5.95427 12.8163 5.94958C13.8615 5.95427 14.9148 6.09098 15.8983 6.3638C18.2467 4.77193 19.2785 5.10261 19.2785 5.10261C19.9482 6.79717 19.527 8.04878 19.3993 8.35847C20.1882 9.22032 20.6656 10.3179 20.6656 11.6612C20.6656 16.3869 17.7872 17.4272 15.0475 17.732C15.489 18.1138 15.8822 18.8628 15.8822 20.0105C15.8822 21.6568 15.868 22.9817 15.868 23.387C15.868 23.7144 16.0896 24.098 16.7131 23.9772C21.5989 22.3485 25.1203 17.7381 25.1203 12.3038C25.1201 5.50868 19.6112 0 12.8163 0Z"
		fill="currentColor"
	/>
	<path
		d="M5.17253 17.6654C5.14543 17.7265 5.04926 17.7448 4.96165 17.7031C4.872 17.6631 4.82208 17.5798 4.85102 17.5185C4.8775 17.4553 4.97387 17.438 5.06291 17.4802C5.15256 17.5203 5.2035 17.6045 5.17232 17.6656L5.17253 17.6654ZM5.67089 18.2214C5.61241 18.2758 5.49771 18.2505 5.41987 18.1644C5.33919 18.0788 5.32411 17.9641 5.38381 17.9089C5.44453 17.8547 5.55577 17.8803 5.63646 17.9659C5.71673 18.0527 5.73262 18.1664 5.67109 18.2216L5.67089 18.2214ZM6.15621 18.9298C6.08083 18.9824 5.95736 18.9333 5.88116 18.8239C5.80577 18.7143 5.80577 18.5828 5.88319 18.5305C5.95919 18.4779 6.08083 18.5254 6.15825 18.6338C6.23323 18.7448 6.23323 18.8764 6.15621 18.9298ZM6.82063 19.6146C6.75339 19.689 6.60955 19.669 6.50441 19.5678C6.39704 19.4685 6.36709 19.3273 6.43453 19.2532C6.50299 19.1786 6.64744 19.1994 6.75319 19.3C6.86056 19.3991 6.89296 19.5405 6.82104 19.6144L6.82063 19.6146ZM7.73748 20.0121C7.70753 20.1085 7.56939 20.1523 7.42983 20.1111C7.29067 20.069 7.1996 19.9563 7.22812 19.8589C7.25664 19.7617 7.3958 19.7163 7.53618 19.7601C7.67534 19.8021 7.76642 19.9141 7.73748 20.0121ZM8.7446 20.0857C8.74806 20.1871 8.62989 20.2711 8.48381 20.2731C8.3365 20.2766 8.21731 20.1943 8.21588 20.0944C8.21588 19.992 8.33161 19.909 8.47871 19.9062C8.6248 19.9035 8.7448 19.985 8.7448 20.0855L8.7446 20.0857ZM9.68142 19.9263C9.69895 20.0252 9.59728 20.1268 9.45201 20.1539C9.30938 20.1804 9.17695 20.1189 9.15861 20.0209C9.14109 19.9194 9.24459 19.8178 9.38721 19.7915C9.53269 19.7664 9.66309 19.8259 9.68142 19.9263Z"
		fill="currentColor"
	/>
</svg>
