<svg
	viewBox="0 0 65 24"
	fill="none"
	xmlns="http://www.w3.org/2000/svg"
	color="#00ACD7"
>
	<path
		fill-rule="evenodd"
		clip-rule="evenodd"
		d="M4.96834 7.26712C4.84294 7.26712 4.81197 7.20416 4.87442 7.11075L5.53137 6.26595C5.5933 6.17203 5.75018 6.10958 5.87507 6.10958H17.0412C17.1666 6.10958 17.1975 6.20351 17.1351 6.29743L16.6035 7.11075C16.5411 7.20416 16.3847 7.29808 16.2908 7.29808L4.96834 7.26712ZM0.245318 10.1442C0.12043 10.1442 0.0889506 10.0823 0.151394 9.98781L0.808345 9.14353C0.870789 9.04961 1.02716 8.98716 1.15256 8.98716H15.4145C15.5394 8.98716 15.6024 9.08109 15.5709 9.17501L15.3206 9.92537C15.2896 10.0508 15.1642 10.1132 15.0393 10.1132L0.245318 10.1442ZM7.81392 13.0218C7.68904 13.0218 7.65807 12.9278 7.72052 12.8339L8.15814 12.0521C8.2211 11.9581 8.34599 11.8647 8.47139 11.8647H14.7261C14.8515 11.8647 14.9139 11.9581 14.9139 12.0836L14.852 12.8339C14.852 12.9593 14.7266 13.0532 14.6327 13.0532L7.81392 13.0218ZM40.2796 6.70409C38.3087 7.20467 36.9638 7.57985 35.025 8.07992C34.5554 8.20532 34.5244 8.23629 34.1177 7.76718C33.6486 7.23564 33.3044 6.89142 32.648 6.57869C30.6771 5.60952 28.7692 5.89077 26.9868 7.04831C24.8601 8.42413 23.7655 10.4569 23.7964 12.9903C23.8274 15.4927 25.548 17.5569 28.0189 17.9011C30.1456 18.1824 31.9286 17.4315 33.3359 15.8369C33.6172 15.4927 33.8675 15.1175 34.1802 14.6794H28.1438C27.4873 14.6794 27.331 14.2727 27.5498 13.7411C27.9564 12.7715 28.7068 11.1453 29.1444 10.332C29.2389 10.1442 29.4577 9.83144 29.9268 9.83144H41.3112C41.2492 10.6762 41.2492 11.5205 41.1238 12.3653C40.7796 14.6169 39.9353 16.6812 38.559 18.4951C36.3069 21.4666 33.3674 23.3116 29.645 23.8122C26.5801 24.2188 23.734 23.6243 21.2321 21.7479C18.9176 19.9964 17.6042 17.6818 17.26 14.8048C16.8533 11.3956 17.854 8.33021 19.9182 5.64048C22.1388 2.73194 25.0789 0.886496 28.6758 0.229545C31.6159 -0.302001 34.4305 0.0422127 36.9638 1.76226C38.6214 2.85683 39.8099 4.35806 40.5918 6.17203C40.7796 6.4538 40.6553 6.61068 40.2796 6.70409Z"
		fill="currentColor"
	/>
	<path
		d="M50.6318 24C47.7857 23.937 45.1894 23.1242 43.0002 21.2473C41.1548 19.6527 39.9978 17.6194 39.6226 15.2109C39.0595 11.6769 40.0287 8.54903 42.1559 5.76589C44.439 2.76291 47.1912 1.19924 50.9136 0.542288C54.1034 -0.0202222 57.1063 0.292513 59.827 2.13744C62.2979 3.82652 63.8301 6.10959 64.2368 9.11206C64.7683 13.3345 63.5489 16.7751 60.6398 19.7151C58.5756 21.8103 56.0422 23.1242 53.1337 23.7182C52.2894 23.8746 51.4446 23.9061 50.6318 24ZM58.0755 11.3642C58.0445 10.9575 58.0445 10.6448 57.9816 10.332C57.4191 7.23565 54.5725 5.48412 51.6015 6.17255C48.6924 6.82899 46.816 8.67443 46.1281 11.6145C45.5651 14.0539 46.7536 16.5248 49.0051 17.5255C50.7257 18.2763 52.4457 18.1824 54.1033 17.3381C56.5743 16.0557 57.9191 14.0539 58.0755 11.3642Z"
		fill="currentColor"
	/>
</svg>
