<svg viewBox="0 0 31 24" fill="none" xmlns="http://www.w3.org/2000/svg">
	<path
		d="M19.9258 6.64174H20.0283L19.9771 6.59046L23.5667 3.00086V2.92394C20.5411 0.257384 16.3618 -0.665655 12.4902 0.488144C8.61855 1.64194 5.64432 4.71874 4.56744 8.61602C4.61872 8.59038 4.69564 8.56474 4.77256 8.56474C6.10584 7.69298 7.69552 7.18018 9.36211 7.18018C9.92619 7.18018 10.4646 7.23146 11.0031 7.33402C11.0287 7.30838 11.0544 7.30838 11.08 7.30838C13.3876 4.77002 17.2849 4.46234 19.9514 6.64174H19.9258Z"
		fill="#EA4535"
	/>
	<path
		d="M26.9768 8.56474C26.3871 6.38534 25.1563 4.41106 23.4385 2.8983L19.7719 6.53918C21.3103 7.79554 22.2077 9.69289 22.1565 11.6672V12.3082C26.4896 12.3082 26.4896 18.7694 22.1565 18.7694H15.6439V23.8974H15.6183L15.6439 23.9487H22.1565C25.8999 23.9744 29.2075 21.5642 30.31 18.0259C31.4125 14.4876 30.0536 10.6416 26.9768 8.56474Z"
		fill="#557EBF"
	/>
	<path
		d="M9.25955 23.9744H16.0029V18.7951H9.25955C8.77239 18.7951 8.31087 18.6925 7.875 18.513L3.97772 22.2565V22.3078C5.51612 23.4103 7.3622 24 9.28519 24L9.25955 23.9744Z"
		fill="#36A852"
	/>
	<path
		d="M9.56723 7.05198C5.74688 7.07762 2.3624 9.43649 1.13168 12.8979C-0.0990354 16.3849 1.13168 20.2053 4.1572 22.4616L8.15704 18.6412C5.952 17.6926 5.4392 14.9234 7.13144 13.3081C8.82367 11.6672 11.6954 12.18 12.6953 14.2824L16.6951 10.4621C15.0029 8.33398 12.362 7.07762 9.56723 7.10326V7.05198Z"
		fill="#F9BC15"
	/>
</svg>
