<svg
	viewBox="0 0 22 24"
	fill="none"
	xmlns="http://www.w3.org/2000/svg"
	color="#E434AA"
>
	<path
		d="M2.30264 18.2919L1.42164 17.783L11.2371 0.78333L12.1176 1.29201L2.30264 18.2919Z"
		fill="currentColor"
	/>
	<path
		d="M1.21941 16.4251H20.8496V17.4421H1.21941V16.4251Z"
		fill="currentColor"
	/>
	<path
		d="M11.427 22.6655L1.60858 16.9968L2.11727 16.1154L11.9358 21.7849L11.427 22.6655ZM19.9564 7.89051L10.138 2.22108L10.6467 1.34065L20.4653 7.00913L19.9564 7.89051Z"
		fill="currentColor"
	/>
	<path
		d="M2.11956 7.88668L1.61069 7.00549L11.43 1.33682L11.9387 2.21744L2.11956 7.88668Z"
		fill="currentColor"
	/>
	<path
		d="M19.7754 18.2919L9.96065 1.29201L10.8413 0.78333L20.6568 17.783L19.7754 18.2919ZM1.99813 6.33057H3.01568V17.6694H1.99832L1.99813 6.33057Z"
		fill="currentColor"
	/>
	<path
		d="M19.0602 6.33057H20.0776V17.6694H19.0602V6.33057Z"
		fill="currentColor"
	/>
	<path
		d="M11.2542 22.2351L10.8099 21.4652L19.3491 16.5345L19.7934 17.3044L11.2542 22.2351Z"
		fill="currentColor"
	/>
	<path
		d="M21.4257 18C20.8378 19.0235 19.5262 19.3728 18.5029 18.7849C17.4794 18.1961 17.1301 16.8846 17.7181 15.8611C18.3068 14.8376 19.6183 14.4883 20.6418 15.0764C21.6713 15.6711 22.0206 16.9765 21.4257 18ZM4.35194 8.13892C3.7632 9.16241 2.45166 9.51175 1.42817 8.92358C0.404673 8.33485 0.0553362 7.02349 0.6435 6C1.23224 4.97651 2.54359 4.62717 3.56708 5.21514C4.59058 5.81001 4.93991 7.11542 4.35194 8.13892ZM0.650203 18C0.0612735 16.9765 0.410801 15.6711 1.4341 15.0762C2.4576 14.4883 3.76301 14.8376 4.35788 15.8611C4.94585 16.8846 4.59651 18.19 3.57302 18.7849C2.54359 19.3728 1.23818 19.0235 0.650203 18ZM17.724 8.13892C17.136 7.11542 17.4854 5.81001 18.5089 5.21514C19.5324 4.62717 20.8378 4.97651 21.4324 6C22.0204 7.02349 21.6713 8.32891 20.6478 8.92377C19.6243 9.51175 18.3127 9.16241 17.724 8.13892ZM11.038 24C10.757 24.0003 10.4788 23.9451 10.2191 23.8377C9.95953 23.7303 9.72363 23.5728 9.52497 23.3741C9.3263 23.1754 9.16876 22.9395 9.06136 22.6799C8.95396 22.4203 8.8988 22.142 8.89905 21.8611C8.8988 21.5801 8.95396 21.3019 9.06136 21.0423C9.16876 20.7826 9.3263 20.5467 9.52497 20.3481C9.72363 20.1494 9.95953 19.9919 10.2191 19.8845C10.4788 19.7771 10.757 19.7219 11.038 19.7222C11.3189 19.7219 11.5972 19.7771 11.8568 19.8845C12.1164 19.9919 12.3523 20.1494 12.551 20.3481C12.7496 20.5467 12.9072 20.7826 13.0146 21.0423C13.122 21.3019 13.1771 21.5801 13.1769 21.8611C13.1769 23.038 12.2208 24 11.038 24ZM11.038 4.27784C10.757 4.27809 10.4788 4.22293 10.2191 4.11553C9.95953 4.00813 9.72363 3.85059 9.52497 3.65192C9.3263 3.45326 9.16876 3.21736 9.06136 2.95774C8.95396 2.69813 8.8988 2.41988 8.89905 2.13892C8.8988 1.85796 8.95396 1.57971 9.06136 1.32009C9.16876 1.06047 9.3263 0.82458 9.52497 0.625913C9.72363 0.427246 9.95953 0.269705 10.2191 0.162303C10.4788 0.0549017 10.757 -0.000251053 11.038 8.59076e-07C11.3189 -0.000251053 11.5972 0.0549017 11.8568 0.162303C12.1164 0.269705 12.3523 0.427246 12.551 0.625913C12.7496 0.82458 12.9072 1.06047 13.0146 1.32009C13.122 1.57971 13.1771 1.85796 13.1769 2.13892C13.1771 2.41988 13.122 2.69813 13.0146 2.95774C12.9072 3.21736 12.7496 3.45326 12.551 3.65192C12.3523 3.85059 12.1164 4.00813 11.8568 4.11553C11.5972 4.22293 11.3189 4.27809 11.038 4.27784Z"
		fill="currentColor"
	/>
</svg>
