<svg viewBox="0 0 22 24" fill="none" xmlns="http://www.w3.org/2000/svg">
	<path
		d="M1.92592 21.6009L0 0H21.1622L19.2342 21.5977L10.5682 24L1.92592 21.6009Z"
		fill="#E44D26"
	/>
	<path
		d="M10.5811 22.1638L17.5837 20.2223L19.2313 1.76615H10.5811V22.1638Z"
		fill="#F16529"
	/>
	<path
		d="M10.5811 9.77763H7.07538L6.83322 7.0646H10.5811V4.41547H3.93789L4.65244 12.427H10.5811V9.77763ZM10.5811 16.658L10.5694 16.6613L7.61899 15.8644L7.43054 13.7517H4.77082L5.14196 17.9114L10.569 19.4178L10.5811 19.4146V16.658Z"
		fill="#EBEBEB"
	/>
	<path
		d="M10.5719 9.77763V12.427H13.8341L13.5267 15.8628L10.5719 16.6603V19.4167L16.0031 17.9114L16.6655 10.4891L16.73 9.77763H10.5719ZM10.5719 4.41547V7.0646H16.9712L17.2085 4.41547H10.5719Z"
		fill="white"
	/>
</svg>
