<svg viewBox="0 0 23 24" fill="none" xmlns="http://www.w3.org/2000/svg">
	<path
		d="M12.8174 1.25383L19.922 5.37718C20.7544 5.86114 21.2771 6.77099 21.2771 7.73891V16.1985C21.2771 17.2826 20.6963 18.2699 19.7671 18.7926L12.7206 22.7611C11.7914 23.2837 10.6493 23.2837 9.72009 22.7417L3.23501 19.0055C2.20902 18.4248 1.58955 17.3407 1.58955 16.1598V8.14544C1.58955 6.96457 2.20902 5.86114 3.21565 5.24167L9.56522 1.31191C10.5525 0.692436 11.8108 0.673077 12.8174 1.25383Z"
		fill="#FF4088"
	/>
	<path
		d="M11.2301 24C10.5525 24 9.89434 23.8258 9.29422 23.4773L2.80915 19.7411C1.53149 19.0055 0.737793 17.6311 0.737793 16.1598V8.14544C0.737793 6.65484 1.49277 5.3191 2.75107 4.52541L9.12 0.595644C10.3783 -0.178693 11.9463 -0.198052 13.224 0.537569L20.3285 4.66092C21.432 5.29975 22.1095 6.48061 22.1095 7.73891V16.1985C22.1095 17.573 21.3739 18.8507 20.1737 19.5282L13.1272 23.4967C12.5464 23.8258 11.8883 24 11.2301 24ZM11.2301 1.67972C10.8042 1.67972 10.3783 1.79587 10.0105 2.02817L3.6222 5.95793C2.84786 6.42254 2.40262 7.25495 2.40262 8.14544V16.1792C2.40262 17.0503 2.86722 17.8634 3.6222 18.3086L10.1073 22.0448C10.7848 22.432 11.6172 22.432 12.2948 22.0642L19.3413 18.0957C20.0188 17.7085 20.4253 17.0116 20.4253 16.2373V7.75827C20.4253 7.08072 20.0575 6.46125 19.4768 6.1128L12.3916 1.98945C12.0431 1.77651 11.6366 1.67972 11.2301 1.67972Z"
		fill="#FF4088"
	/>
	<path
		d="M6.5065 18.3667V5.51269H9.19732V10.1974H13.6498V5.51269H16.3406V18.3667H13.6498V12.7527H9.19732V18.3667H6.5065Z"
		fill="white"
	/>
</svg>
