<svg
	viewBox="0 0 25 24"
	fill="none"
	xmlns="http://www.w3.org/2000/svg"
	color="#FAA625"
>
	<path
		fill-rule="evenodd"
		clip-rule="evenodd"
		d="M9.09344 12.9523H12.0212C11.5172 11.2381 11.0209 9.6533 10.5325 8.04264C10.0586 9.65901 9.57782 11.2381 9.09344 12.9523ZM23.5995 0H0.50643C0.0900503 0 0.149669 0.0906663 0.149669 0.492379V23.615C0.149669 24.0163 0.0900504 23.9999 0.477097 23.9999H23.6288C24.0157 23.9999 24.1496 24.0163 24.1496 23.6148V0.521712C24.1496 0.0906663 24.0159 0 23.5995 0ZM14.6826 18.0952C14.3708 18.0952 14.0578 18.0698 13.7475 18.0921C13.5237 18.1089 13.4489 18.0148 13.3892 17.8205C13.1009 16.8813 12.7944 15.9424 12.5058 15.0034C12.4477 14.8144 12.3647 14.7455 12.1599 14.7479C11.1079 14.7601 10.0553 14.759 9.00316 14.7466C8.78164 14.7439 8.67973 14.803 8.61649 15.0228C8.34868 15.9569 8.05573 16.8834 7.78507 17.8165C7.7264 18.0188 7.63726 18.0895 7.4224 18.0839C6.7904 18.0681 6.15746 18.0778 5.46546 18.0778C5.64812 17.4978 5.81384 16.9615 5.98527 16.4274C7.03555 13.1512 8.08945 9.87501 9.13211 6.59674C9.20487 6.36855 9.30601 6.29826 9.5403 6.3034C10.2805 6.31978 11.0212 6.30759 11.7618 6.3034C11.9003 6.30245 11.9948 6.31064 12.0454 6.46797C13.2845 10.2996 14.5279 14.1548 15.7702 17.986C15.7755 18.0034 15.7721 18.0952 15.7749 18.0952H14.6826V18.0952ZM18.6258 18.0952H16.3401V9.52377H18.6258V18.0952ZM17.4163 8.3674C16.7182 8.36644 16.2184 7.88587 16.2136 7.21121C16.209 6.53845 16.7292 6.03807 17.4338 6.03731C18.1439 6.03655 18.6443 6.52055 18.6498 7.21273C18.6547 7.88797 18.1418 8.36854 17.4163 8.3674V8.3674Z"
		fill="currentColor"
	/>
</svg>
