<svg viewBox="0 0 25 24" fill="none" xmlns="http://www.w3.org/2000/svg">
	<path d="M0.194946 0H24.1948V24H0.194946V0Z" fill="#F0DB4F" />
	<path
		d="M22.2306 18.2759C22.0548 17.181 21.3409 16.2614 19.226 15.4038C18.4914 15.0662 17.6724 14.8245 17.4283 14.2677C17.3417 13.9437 17.3302 13.7612 17.385 13.5651C17.5424 12.9286 18.3022 12.7302 18.9043 12.9127C19.2922 13.0426 19.6593 13.3415 19.8808 13.8183C20.9164 13.1477 20.9143 13.1521 21.6374 12.6912C21.3727 12.2808 21.2314 12.0914 21.0581 11.9157C20.4352 11.22 19.5865 10.8617 18.2291 10.8891L17.5221 10.9805C16.8445 11.1518 16.1988 11.5074 15.8202 11.9842C14.6841 13.2733 15.0081 15.5294 16.3906 16.4579C17.7525 17.4801 19.7533 17.7127 20.0088 18.6686C20.2575 19.8388 19.1488 20.2176 18.0468 20.083C17.2347 19.9141 16.783 19.5014 16.2947 18.7508C15.3959 19.2709 15.3959 19.2709 14.4719 19.8024C14.691 20.2815 14.9212 20.4983 15.2886 20.9134C17.0271 22.6768 21.3775 22.5901 22.1578 19.921C22.1894 19.8294 22.3995 19.2182 22.2306 18.2759ZM13.242 11.0304H10.9972L10.988 16.834C10.988 18.0683 11.0518 19.1998 10.8511 19.5466C10.5227 20.2287 9.67167 20.1442 9.28383 20.0119C8.88909 19.8179 8.68836 19.542 8.45581 19.1521C8.39197 19.0401 8.34404 18.9535 8.32793 18.9467L6.50279 20.0644C6.80628 20.6873 7.25336 21.228 7.82602 21.5792C8.68146 22.0926 9.83118 22.25 11.0336 21.9739C11.8162 21.746 12.4914 21.2738 12.845 20.5551C13.3561 19.6128 13.2464 18.4722 13.2418 17.2108C13.2533 15.1527 13.242 13.095 13.242 11.0304Z"
		fill="#323330"
	/>
</svg>
