<svg
	viewBox="0 0 19 24"
	fill="none"
	xmlns="http://www.w3.org/2000/svg"
	color="#EA2D2E"
>
	<path
		d="M6.19501 18.5601C2.50502 19.591 8.44011 21.7208 13.1387 19.7077C12.3691 19.4086 11.8171 19.0634 11.8171 19.0634C9.72195 19.4595 8.75004 19.4907 6.84814 19.2734C5.27847 19.0936 6.19501 18.5601 6.19501 18.5601V18.5601ZM12.5761 16.549C9.79905 17.0833 8.19497 17.0662 6.16328 16.8566C4.59227 16.6941 5.62071 15.9328 5.62071 15.9328C1.55676 17.2817 7.88311 18.8123 13.5631 17.151C12.9593 16.9383 12.5761 16.549 12.5761 16.549V16.549ZM14.7524 4.90242C14.7526 4.90242 6.53667 6.95371 10.4604 11.4754C11.6187 12.8088 10.1567 14.0076 10.1567 14.0076C10.1567 14.0076 13.0962 12.4904 11.7465 10.5897C10.4854 8.81793 9.51872 7.93773 14.7524 4.90242ZM16.6747 20.5037C16.6747 20.5037 17.3532 21.0632 15.9272 21.4956C13.2158 22.317 4.63995 22.5646 2.25796 21.5285C1.40237 21.1559 3.00761 20.6393 3.51269 20.5302C4.03931 20.4162 4.34002 20.437 4.34002 20.437C3.38791 19.7666 -1.81502 21.754 1.69789 22.3241C11.2768 23.8768 19.159 21.6248 16.6747 20.5037V20.5037ZM13.3825 14.6717C13.843 14.3575 14.479 14.0847 14.479 14.0847C14.479 14.0847 12.6671 14.4087 10.8619 14.5604C8.65198 14.7457 6.28153 14.7822 5.09159 14.623C2.27449 14.2464 6.63607 13.2103 6.63607 13.2103C6.63607 13.2103 4.94181 13.0957 2.85918 14.1032C0.395857 15.2942 8.95231 15.8372 13.3825 14.6717ZM14.4609 17.5836C14.4402 17.6393 14.371 17.702 14.371 17.702C20.3837 16.1214 18.173 12.1303 15.2981 13.1405C15.0458 13.2297 14.9135 13.4371 14.9135 13.4371C14.9135 13.4371 15.0729 13.3729 15.4284 13.2987C16.8818 12.9959 18.964 15.2443 14.4609 17.5836ZM9.37971 13.1668C8.4926 11.1617 5.48439 9.40742 9.38106 6.33C14.2398 2.49485 11.7467 0 11.7467 0C12.7523 3.96223 8.1992 5.15909 6.5557 7.62665C5.43651 9.30802 7.10501 11.1148 9.37971 13.1668V13.1668ZM14.6236 23.1162C10.9346 23.8107 6.3842 23.7298 3.68612 23.2843C3.68612 23.2843 4.23869 23.7419 7.07886 23.9247C11.4002 24.201 18.0381 23.7709 18.195 21.726C18.1951 21.726 17.8931 22.5012 14.6236 23.1162Z"
		fill="currentColor"
	/>
</svg>
