<svg
	viewBox="0 0 25 24"
	fill="none"
	xmlns="http://www.w3.org/2000/svg"
	color="#99425B"
>
	<path
		d="M23.4406 11.8192C23.4406 10.374 22.3456 9.1578 20.8756 8.81078L24.1679 0H7.85212L11.1519 8.83858C9.72814 9.2136 8.67862 10.4085 8.67862 11.8265C8.67862 12.8685 9.25317 13.7925 10.1259 14.3622C9.78168 14.8069 9.38318 15.217 8.9317 15.6059C8.0819 16.3289 7.13948 16.8845 6.12153 17.2529C5.20278 16.69 4.80485 15.6963 5.16445 14.8067C6.5655 14.4178 7.58439 13.2296 7.58439 11.8331C7.58439 10.1171 6.04525 8.72698 4.16116 8.72698C2.26993 8.72698 0.731729 10.1237 0.731729 11.8402C0.731729 12.6881 1.11407 13.466 1.72695 14.0215C1.67321 14.1192 1.61985 14.216 1.56612 14.3203C1.0532 15.2796 0.471135 16.3635 0.248681 17.5797C-0.195287 20.0111 0.532009 21.9641 2.28533 23.0687C3.27322 23.6874 4.36088 24 5.53233 24C7.54531 24 9.59004 23.0826 11.5651 22.1929C12.9742 21.5611 14.4288 20.9005 15.8606 20.5813C16.3892 20.4631 16.9402 20.3934 17.5223 20.3171C18.7009 20.1644 19.9185 20.0045 21.0135 19.4277C22.2921 18.7539 23.1648 17.6279 23.4179 16.3357C23.6086 15.3418 23.4179 14.3415 22.9275 13.466C23.2625 12.9822 23.4414 12.4076 23.4404 11.8192H23.4406ZM21.9479 11.8192C21.9479 12.7849 21.0825 13.5702 20.0183 13.5702C18.9541 13.5702 18.0887 12.7849 18.0887 11.8192C18.0887 11.5063 18.1806 11.2078 18.3413 10.9508C18.4023 10.8531 18.4794 10.7563 18.5554 10.6727C18.6361 10.5867 18.726 10.5099 18.8236 10.4437L18.8316 10.4363C18.8925 10.3946 18.9615 10.3527 19.0304 10.3116C19.0304 10.3116 19.0379 10.3116 19.0379 10.3043C19.0686 10.2904 19.0994 10.2697 19.1304 10.2558C19.1377 10.2558 19.145 10.2485 19.1529 10.2485C19.1839 10.2353 19.2221 10.2214 19.26 10.2073C19.2962 10.1947 19.332 10.1808 19.3673 10.1656C19.3748 10.1656 19.3827 10.1581 19.39 10.1581C19.4208 10.1517 19.4516 10.1376 19.4819 10.131C19.49 10.131 19.5054 10.1237 19.5127 10.1237C19.5509 10.1171 19.5817 10.1098 19.6198 10.103H19.6279L19.7425 10.0818C19.7504 10.0818 19.765 10.0818 19.7731 10.0752C19.8039 10.0752 19.8342 10.0679 19.865 10.0679H19.9031C19.9413 10.0679 19.9802 10.0613 20.0256 10.0613H20.1254C20.1555 10.0613 20.1791 10.0613 20.2092 10.0679H20.2246C20.2862 10.0754 20.3471 10.0818 20.4087 10.0959C21.2814 10.2624 21.9479 10.9714 21.9479 11.8192V11.8192ZM9.98779 1.3894H22.0315L19.2675 8.78955C19.1529 8.81078 19.0377 8.84516 18.9233 8.87973L16.0141 3.495L13.0967 8.84497C12.9815 8.81059 12.859 8.78936 12.7371 8.76869L9.98779 1.3894ZM15.4621 11.2142C15.3169 10.5609 14.9492 9.97753 14.4288 9.54672L16.0141 6.64261L17.614 9.60909C17.1392 10.0399 16.7948 10.5889 16.6569 11.2142H15.4621ZM11.6267 10.1169C11.6648 10.1094 11.6956 10.103 11.7338 10.0957H11.7565C11.7873 10.0891 11.8183 10.0891 11.8484 10.0816H11.8792C11.91 10.0816 11.9328 10.075 11.9636 10.075H12.2623C12.2924 10.075 12.3158 10.0816 12.3386 10.0816C12.354 10.0816 12.3613 10.0816 12.3767 10.0891C12.4075 10.0957 12.4303 10.0957 12.4613 10.103C12.4684 10.103 12.4765 10.103 12.4919 10.1096C12.5302 10.1169 12.5684 10.1235 12.599 10.1308H12.6065C12.6373 10.1374 12.6681 10.144 12.6982 10.1581C12.7063 10.1581 12.7136 10.1654 12.729 10.1654C12.7517 10.172 12.7826 10.1793 12.8053 10.1932C12.8134 10.1932 12.8207 10.1998 12.8288 10.1998C12.8588 10.2139 12.8898 10.2212 12.9206 10.2351H12.928C12.9661 10.2483 12.9969 10.2622 13.0277 10.2836H13.0353C13.0659 10.2975 13.0967 10.318 13.1275 10.3319C13.135 10.3319 13.135 10.3394 13.1422 10.3394C13.173 10.3525 13.1959 10.3738 13.2267 10.3877L13.2348 10.3943C13.3265 10.4568 13.4108 10.5265 13.4944 10.5962L13.5025 10.6028C13.579 10.6791 13.6553 10.7627 13.7169 10.8531C13.9159 11.1311 14.031 11.4579 14.031 11.8122C14.031 12.7781 13.1656 13.5627 12.1015 13.5627C11.0373 13.5627 10.1719 12.7781 10.1719 11.8122C10.164 10.9991 10.7842 10.3114 11.6267 10.1169V10.1169ZM4.09221 10.0677C5.15656 10.0677 6.02177 10.8531 6.02177 11.8188C6.02177 12.7847 5.15656 13.5699 4.09221 13.5699C3.02804 13.5699 2.16265 12.7847 2.16265 11.8188C2.16265 10.8531 3.02804 10.0677 4.09221 10.0677V10.0677ZM21.9016 16.0926C21.7335 16.9813 21.1279 17.76 20.24 18.2252C19.4054 18.6634 18.3794 18.802 17.2998 18.9409C16.7106 19.0172 16.0904 19.1008 15.493 19.2328C13.9005 19.5874 12.3694 20.2824 10.884 20.9488C8.98525 21.8038 7.19303 22.6097 5.53233 22.6097C4.66694 22.6097 3.89343 22.3874 3.1588 21.922C1.47443 20.8659 1.55804 18.8858 1.75776 17.8017C1.94113 16.7868 2.45424 15.835 2.94443 14.9249C2.97449 14.8691 2.99797 14.8206 3.02804 14.7648C3.19694 14.8206 3.37299 14.8625 3.55655 14.8903C3.2659 16.3633 4.09221 17.8848 5.7003 18.6356L5.99152 18.7742L6.30509 18.6699C7.64526 18.2391 8.88548 17.5376 9.98046 16.5995C10.6007 16.0711 11.1292 15.5017 11.5731 14.883C11.7492 14.911 11.9254 14.9183 12.1015 14.9183C13.6942 14.9183 15.0336 13.9244 15.4167 12.5902H16.7025C17.0856 13.9312 18.4256 14.9181 20.0183 14.9181C20.6539 14.9181 21.2433 14.7584 21.7481 14.4875C21.9479 15.0085 22.0087 15.5501 21.9016 16.0926V16.0926Z"
		fill="currentColor"
	/>
</svg>
