<svg viewBox="0 0 27 24" fill="none" xmlns="http://www.w3.org/2000/svg">
	<path
		d="M12.3836 18.1246C12.3836 21.3841 9.74688 24 6.50812 24C3.24861 24 0.63269 21.3633 0.63269 18.1246C0.63269 14.8858 3.26937 12.2491 6.50812 12.2491C9.74688 12.2284 12.3836 14.8651 12.3836 18.1246Z"
		fill="#CB3C33"
	/>
	<path
		d="M26.522 18.1246C26.522 21.3841 23.8853 24 20.6465 24C17.4078 24 14.7711 21.3633 14.7711 18.1246C14.7711 14.8858 17.4078 12.2491 20.6465 12.2491C23.8853 12.2491 26.522 14.8651 26.522 18.1246Z"
		fill="#9558B2"
	/>
	<path
		d="M19.4631 5.87543C19.4631 9.11419 16.8265 11.7509 13.5877 11.7509C10.3282 11.7509 7.71227 9.11419 7.71227 5.87543C7.71227 2.63668 10.3282 0 13.5669 0C16.8265 0 19.4631 2.63668 19.4631 5.87543Z"
		fill="#389826"
	/>
</svg>
