<svg
	viewBox="0 0 65 24"
	fill="none"
	xmlns="http://www.w3.org/2000/svg"
	color="#000"
>
	<path
		d="M14.388 11.4783H13.7619C13.501 14.1391 13.1358 17.3739 8.54448 17.3739H6.45753C5.25753 17.3739 5.20535 17.2174 5.20535 16.3304V2.50435C5.20535 1.61739 5.20535 1.25217 7.65753 1.25217H8.49231V0.469566C7.501 0.52174 5.20535 0.521739 4.1097 0.521739C3.11839 0.521739 1.08361 0.52174 0.196655 0.469566V1.25217H0.770568C2.75318 1.25217 2.80535 1.51304 2.80535 2.45217V16.0696C2.80535 17.0087 2.75318 17.2696 0.770568 17.2696H0.196655V18.0522H13.6575L14.388 11.4783Z"
		fill="currentColor"
	/>
	<path
		d="M13.9184 0.417391C13.814 0.104347 13.7619 0 13.4488 0C13.1358 0 13.0314 0.104347 12.9271 0.417391L8.75318 11.0087C8.59666 11.4261 8.28361 12.2609 6.66622 12.2609V12.887H10.6836V12.2609C9.901 12.2609 9.37927 11.8957 9.37927 11.3739C9.37927 11.2696 9.37927 11.2174 9.43144 11.0087L10.3184 8.76522H15.4836L16.5271 11.4261C16.5793 11.5304 16.6314 11.6348 16.6314 11.7391C16.6314 12.2609 15.6401 12.2609 15.1706 12.2609V12.887H20.2836V12.2609H19.9184C18.7184 12.2609 18.5619 12.1043 18.4054 11.5826L13.9184 0.417391ZM12.9271 2.29565L15.2227 8.1913H10.5793L12.9271 2.29565Z"
		fill="currentColor"
	/>
	<path
		d="M34.7358 0.626087H18.9271L18.4575 6.41739H19.0836C19.4488 2.24348 19.814 1.35652 23.7793 1.35652C24.2488 1.35652 24.9271 1.35652 25.188 1.4087C25.7097 1.51304 25.7097 1.77391 25.7097 2.4V16.0174C25.7097 16.9043 25.7097 17.2696 22.9967 17.2696H21.9532V18.0522C22.9967 18 25.6575 18 26.8575 18C28.0575 18 30.7184 18 31.814 18.0522V17.2696H30.7706C28.0575 17.2696 28.0575 16.9043 28.0575 16.0174V2.45217C28.0575 1.93044 28.0575 1.56522 28.5271 1.46087C28.788 1.4087 29.5184 1.4087 29.988 1.4087C33.901 1.4087 34.2662 2.24348 34.6314 6.46957H35.2575L34.7358 0.626087Z"
		fill="currentColor"
	/>
	<path
		d="M48.6662 17.3217H48.0401C47.414 21.287 46.788 23.2174 42.3532 23.2174H38.9097C37.7097 23.2174 37.6575 23.0609 37.6575 22.1739V15.2348H39.9532C42.4575 15.2348 42.7706 16.0696 42.7706 18.2609H43.3967V11.4261H42.7706C42.7706 13.6174 42.5097 14.4522 39.9532 14.4522H37.6575V8.1913C37.6575 7.35652 37.7097 7.14783 38.9097 7.14783H42.2488C46.2141 7.14783 46.8923 8.55652 47.3097 12.2087H47.9358L47.2054 6.36522H32.6488V7.14783H33.2227C35.2054 7.14783 35.2575 7.4087 35.2575 8.34783V21.913C35.2575 22.8522 35.2054 23.113 33.2227 23.113H32.6488V24H47.5706L48.6662 17.3217Z"
		fill="currentColor"
	/>
	<path
		d="M56.4923 8.13913L60.0401 2.92174C60.5619 2.08696 61.4488 1.25217 63.7967 1.25217V0.469566H57.588V1.25217C58.6314 1.25217 59.2054 1.82609 59.2054 2.45217C59.2054 2.71304 59.1532 2.76522 58.9967 3.02609L56.0227 7.4087L52.6836 2.4C52.6314 2.34783 52.5271 2.13913 52.5271 2.03478C52.5271 1.72174 53.101 1.30435 54.1967 1.25217V0.469566C53.3097 0.52174 51.4314 0.521739 50.4401 0.521739C49.6575 0.521739 48.0401 0.52174 47.0488 0.469566V1.25217H47.5184C48.9271 1.25217 49.4488 1.40869 49.9184 2.13913L54.6662 9.33913L50.4401 15.6C50.0749 16.1217 49.2923 17.3217 46.6836 17.3217V18.1043H52.8923V17.3217C51.6923 17.3217 51.2749 16.5913 51.2749 16.1217C51.2749 15.913 51.3271 15.8087 51.5358 15.4957L55.188 10.0696L59.3097 16.2783C59.3619 16.3826 59.4141 16.487 59.4141 16.5391C59.4141 16.8522 58.8401 17.2696 57.7445 17.3217V18.1043C58.6314 18.0522 60.5619 18.0522 61.501 18.0522C62.5967 18.0522 63.7967 18.0522 64.8923 18.1043V17.3217H64.4227C63.0662 17.3217 62.5445 17.2174 61.9706 16.3826L56.4923 8.13913Z"
		fill="currentColor"
	/>
</svg>
