<svg
	viewBox="0 0 39 24"
	fill="none"
	xmlns="http://www.w3.org/2000/svg"
	color="#000"
>
	<path
		d="M3.77765 0.000302463C2.0115 0.000302463 0.564331 1.4732 0.564331 3.23268V20.7676C0.564331 22.5271 2.0115 24 3.77734 24H35.2816C37.0475 24 38.4947 22.5271 38.4947 20.7676V3.23299C38.4947 1.4735 37.0472 0.000605503 35.2816 0.000605503H4.6698L4.66919 0L3.77765 0.000302463ZM3.77553 2.88829H35.2816C35.4708 2.88829 35.6073 3.0163 35.6073 3.23329V20.7676C35.6073 20.9846 35.4702 21.1126 35.2816 21.1126H3.77734C3.58881 21.1126 3.45172 20.9846 3.45172 20.7676V3.23268C3.45172 3.0163 3.5882 2.8892 3.77553 2.88829Z"
		fill="currentColor"
	/>
	<path
		d="M6.43201 18.083V5.91731H9.97246L13.5123 10.3902L17.051 5.91731H20.5905V18.083H17.051V11.1056L13.512 15.5784L9.97186 11.1056V18.083H6.43201ZM28.5554 18.083L23.2458 12.179H26.7856V5.91731H30.3258V12.1787H33.8659L28.5554 18.083Z"
		fill="currentColor"
	/>
</svg>
