<svg viewBox="0 0 11 24" fill="none" xmlns="http://www.w3.org/2000/svg">
	<path
		fill-rule="evenodd"
		clip-rule="evenodd"
		d="M10.2905 7.83111C10.6063 8.74468 10.8337 9.67733 10.9085 10.644C11.0014 11.8433 10.9589 13.0341 10.706 14.2137C10.6992 14.2461 10.6846 14.2766 10.6738 14.3081C10.5945 14.3083 10.5136 14.2985 10.4361 14.3105C9.78107 14.4134 9.12664 14.52 8.47221 14.6261C7.79575 14.7357 7.1183 14.8409 6.44301 14.958C6.20375 14.9993 5.90762 14.9499 5.81101 15.2809C5.80826 15.29 5.78071 15.2915 5.76477 15.2966L5.79744 13.319L5.76418 8.54713L6.07939 8.49302C6.59491 8.40861 7.11043 8.32302 7.62633 8.24097C8.242 8.14318 8.85826 8.04814 9.47432 7.95271C9.74605 7.91041 10.0182 7.87164 10.2905 7.83111Z"
		fill="#439934"
	/>
	<path
		fill-rule="evenodd"
		clip-rule="evenodd"
		d="M5.1139 21.0618C4.78137 20.7759 4.43724 20.5026 4.11848 20.2019C2.40331 18.5841 1.14876 16.6801 0.530928 14.3844C0.360729 13.7526 0.247198 13.1106 0.210797 12.4578C0.185218 12.0009 0.148226 11.5399 0.180495 11.0853C0.26648 9.87644 0.441205 8.67915 0.795769 7.51471L0.815248 7.48756C0.849682 7.5334 0.899265 7.57394 0.916777 7.62569C1.26288 8.64491 1.60643 9.66492 1.9482 10.6855C3.02213 13.8927 4.09467 17.1007 5.17037 20.3072C5.19142 20.3697 5.24593 20.4211 5.28508 20.4776L5.1139 21.0618Z"
		fill="#45A538"
	/>
	<path
		fill-rule="evenodd"
		clip-rule="evenodd"
		d="M10.2905 7.83111C10.0182 7.87164 9.74605 7.91041 9.47432 7.95271C8.85826 8.04814 8.242 8.14318 7.62633 8.24097C7.11043 8.32302 6.59491 8.40861 6.07939 8.49302L5.76418 8.54713L5.76164 8.34111C5.75121 8.17209 5.7333 8.00327 5.73134 7.83425C5.71776 6.75639 5.7093 5.67853 5.69592 4.60067C5.68765 3.92597 5.67526 3.25148 5.66149 2.57698C5.65303 2.15787 5.64397 1.73858 5.62509 1.32006C5.61485 1.09516 5.57865 0.871447 5.56389 0.646548C5.55563 0.517276 5.56704 0.38702 5.5696 0.257157C5.73035 0.56863 5.88757 0.882465 6.05285 1.19158C6.31395 1.68033 6.7299 2.04041 7.10434 2.43334C8.58458 3.98618 9.63547 5.79168 10.2905 7.83111Z"
		fill="#46A037"
	/>
	<path
		fill-rule="evenodd"
		clip-rule="evenodd"
		d="M5.76477 15.2966C5.78071 15.2915 5.80826 15.29 5.81101 15.2809C5.90762 14.9499 6.20375 14.9993 6.44301 14.958C7.1183 14.8409 7.79575 14.7357 8.47221 14.6261C9.12664 14.52 9.78107 14.4134 10.4361 14.3105C10.5136 14.2985 10.5945 14.3083 10.6738 14.3081C10.5514 14.7449 10.4548 15.191 10.2995 15.6158C10.1232 16.0977 9.90995 16.5679 9.68348 17.0289C9.34443 17.7165 8.92481 18.3614 8.43345 18.9499C8.05587 19.404 7.63499 19.8237 7.21314 20.2383C6.97997 20.4675 6.7051 20.6543 6.44931 20.8603L6.383 20.815L6.14413 20.6108L5.897 20.0691C5.72819 19.4372 5.6361 18.7873 5.62271 18.1333L5.62724 18.023L5.66088 17.5456C5.6721 17.3827 5.68705 17.22 5.69394 17.0567C5.71932 16.4699 5.74156 15.8834 5.76477 15.2966Z"
		fill="#409433"
	/>
	<path
		fill-rule="evenodd"
		clip-rule="evenodd"
		d="M5.76477 15.2966C5.74156 15.8834 5.71932 16.4699 5.69394 17.0567C5.68705 17.22 5.6721 17.3827 5.66088 17.5456L5.51078 17.6027C5.17648 16.6185 4.84198 15.6447 4.51477 14.6684C3.97367 13.0532 3.43907 11.4354 2.89877 9.81978C2.46237 8.51574 2.02293 7.21271 1.58046 5.91071C1.5598 5.84972 1.50038 5.8021 1.45906 5.74819L2.42241 3.97694C2.45546 4.0344 2.49914 4.08811 2.52 4.1499C2.96616 5.46861 3.41006 6.7881 3.85168 8.10835C4.42544 9.82607 4.99565 11.5452 5.56902 13.2631C5.59184 13.3318 5.62962 13.3951 5.66563 13.4721L5.79744 13.319L5.76477 15.2966Z"
		fill="#4FAA41"
	/>
	<path
		fill-rule="evenodd"
		clip-rule="evenodd"
		d="M1.45906 5.74819C1.50038 5.8021 1.5598 5.84972 1.58046 5.91071C2.02293 7.21271 2.46237 8.51574 2.89877 9.81978C3.43907 11.4354 3.97367 13.0532 4.51477 14.6684C4.84198 15.6447 5.17648 16.6185 5.51078 17.6027L5.66088 17.5456L5.62724 18.023L5.59735 18.1333C5.54501 18.6559 5.50094 19.1797 5.43719 19.7011C5.40512 19.9624 5.33683 20.2188 5.28508 20.4776C5.24593 20.4211 5.19142 20.3697 5.17037 20.3072C4.09467 17.1007 3.02213 13.8927 1.9482 10.6855C1.60643 9.66492 1.26288 8.64491 0.916777 7.62569C0.899265 7.57394 0.849682 7.5334 0.815248 7.48756L1.45906 5.74819Z"
		fill="#4AA73C"
	/>
	<path
		fill-rule="evenodd"
		clip-rule="evenodd"
		d="M5.79744 13.319L5.66563 13.4721C5.62962 13.3951 5.59184 13.3318 5.56902 13.2631C4.99565 11.5452 4.42544 9.82607 3.85168 8.10835C3.41006 6.7881 2.96616 5.46861 2.52 4.1499C2.49914 4.08811 2.45546 4.0344 2.42241 3.97694L3.6136 2.40993C3.65119 2.46011 3.7047 2.50477 3.72418 2.56124C4.05494 3.52951 4.38274 4.49895 4.70858 5.46899C5.01297 6.37488 5.31284 7.28215 5.62077 8.18686C5.64143 8.24746 5.71363 8.28995 5.76164 8.34111L5.76418 8.54713C5.77559 10.1374 5.78642 11.7284 5.79744 13.319Z"
		fill="#57AE47"
	/>
	<path
		fill-rule="evenodd"
		clip-rule="evenodd"
		d="M5.76164 8.34111C5.71363 8.28995 5.64143 8.24746 5.62077 8.18686C5.31284 7.28215 5.01297 6.37488 4.70858 5.46899C4.38274 4.49895 4.05494 3.52951 3.72418 2.56124C3.7047 2.50477 3.65119 2.46011 3.6136 2.40993C4.00103 2.03058 4.37682 1.63725 4.77979 1.27541C5.13809 0.953901 5.42615 0.609174 5.43933 0.101135C5.43992 0.080082 5.45094 0.0590285 5.46786 0L5.5696 0.257157C5.56704 0.38702 5.55563 0.517276 5.56389 0.646548C5.57865 0.871447 5.61485 1.09516 5.62509 1.32006C5.64397 1.73858 5.65303 2.15787 5.66149 2.57698C5.67526 3.25148 5.68765 3.92597 5.69592 4.60067C5.7093 5.67853 5.71776 6.75639 5.73134 7.83425C5.7333 8.00327 5.75121 8.17209 5.76164 8.34111Z"
		fill="#60B24F"
	/>
	<path
		fill-rule="evenodd"
		clip-rule="evenodd"
		d="M5.28508 20.4776C5.33683 20.2188 5.40512 19.9624 5.43719 19.7011C5.50094 19.1797 5.54501 18.6559 5.59735 18.1333L5.60994 18.1312L5.62271 18.1333C5.6361 18.7873 5.72819 19.4372 5.897 20.0691C5.86237 20.1147 5.81359 20.1555 5.79529 20.207C5.65224 20.6104 5.51746 21.0169 5.37363 21.4203C5.35395 21.4754 5.29925 21.5183 5.26069 21.5667L5.1139 21.0618L5.28508 20.4776Z"
		fill="#A9AA88"
	/>
	<path
		fill-rule="evenodd"
		clip-rule="evenodd"
		d="M5.26069 21.5667C5.29925 21.5183 5.35395 21.4754 5.37363 21.4203C5.51746 21.0169 5.65224 20.6104 5.79529 20.207C5.81359 20.1555 5.86237 20.1147 5.897 20.0691L6.14413 20.6108C6.09533 20.68 6.02826 20.7428 6.00111 20.8199L5.52809 22.2089C5.50862 22.2646 5.44211 22.3039 5.39764 22.3509L5.26069 21.5667Z"
		fill="#B6B598"
	/>
	<path
		fill-rule="evenodd"
		clip-rule="evenodd"
		d="M5.39764 22.3509C5.44211 22.3039 5.50862 22.2646 5.52809 22.2089L6.00111 20.8199C6.02826 20.7428 6.09533 20.68 6.14413 20.6108L6.383 20.815C6.2675 20.9291 6.20374 21.061 6.2423 21.2276L6.1697 21.4653C6.13664 21.506 6.08883 21.5415 6.0725 21.5881C5.90742 22.0609 5.74981 22.5363 5.58355 23.0091C5.56249 23.0691 5.50405 23.1161 5.46273 23.1689C5.44129 22.896 5.41948 22.6238 5.39764 22.3509Z"
		fill="#C2C1A7"
	/>
	<path
		fill-rule="evenodd"
		clip-rule="evenodd"
		d="M5.46273 23.1689C5.50405 23.1161 5.56249 23.0691 5.58355 23.0091C5.74981 22.5363 5.90742 22.0609 6.0725 21.5881C6.08883 21.5415 6.13664 21.506 6.1697 21.4653L6.06977 22.5564C6.04301 22.5872 6.00425 22.6142 5.99146 22.6502C5.87832 22.9678 5.77168 23.2877 5.65814 23.6053C5.63473 23.6708 5.58987 23.7287 5.55484 23.7899C5.52376 23.7491 5.46807 23.7098 5.46551 23.6673C5.45548 23.5018 5.46214 23.3351 5.46273 23.1689Z"
		fill="#CECDB7"
	/>
	<path
		fill-rule="evenodd"
		clip-rule="evenodd"
		d="M5.55484 23.7899C5.58987 23.7287 5.63473 23.6708 5.65814 23.6053C5.77168 23.2877 5.87832 22.9678 5.99146 22.6502C6.00425 22.6142 6.04301 22.5872 6.06977 22.5564L6.07193 23.2726L5.83227 23.8873L5.55484 23.7899Z"
		fill="#DBDAC7"
	/>
	<path
		fill-rule="evenodd"
		clip-rule="evenodd"
		d="M5.83227 23.8873L6.07193 23.2726L6.12129 24L5.83227 23.8873Z"
		fill="#EBE9DC"
	/>
	<path
		fill-rule="evenodd"
		clip-rule="evenodd"
		d="M6.2423 21.2276C6.20374 21.061 6.2675 20.9291 6.383 20.815L6.44931 20.8603L6.2423 21.2276Z"
		fill="#CECDB7"
	/>
	<path
		fill-rule="evenodd"
		clip-rule="evenodd"
		d="M5.62271 18.1333L5.60994 18.1312L5.59735 18.1333L5.62724 18.023L5.62271 18.1333Z"
		fill="#4FAA41"
	/>
</svg>
