<svg
	viewBox="0 0 25 24"
	fill="none"
	xmlns="http://www.w3.org/2000/svg"
	color="#DF234F"
>
	<path
		d="M14.6254 0C14.456 0 14.2866 0.0376471 14.136 0.0941176C14.456 0.301176 14.6254 0.583529 14.7195 0.903529C14.7195 0.941176 14.7383 0.978823 14.7383 1.01647C14.7383 1.05412 14.7572 1.09176 14.7572 1.12941C14.776 1.67529 14.6066 1.75059 14.4936 2.07059C14.3054 2.48471 14.3619 2.93647 14.5878 3.29412C14.6066 3.33176 14.6254 3.38824 14.663 3.42588C14.4183 1.84471 15.736 1.61882 15.9807 1.12941C15.9995 0.696471 15.6419 0.414118 15.3595 0.207059C15.0772 0.037647 14.8513 0 14.6254 0ZM16.6019 0.338824C16.583 0.489412 16.6019 0.451765 16.583 0.527059C16.583 0.583529 16.583 0.64 16.5642 0.696471C16.5454 0.752941 16.5454 0.790588 16.5266 0.847059C16.5078 0.903529 16.4889 0.941176 16.4701 0.997647C16.4513 1.03529 16.4325 1.07294 16.4136 1.12941C16.3948 1.14824 16.376 1.18588 16.3572 1.20471C16.3383 1.22353 16.3383 1.24235 16.3195 1.26118C16.2819 1.29882 16.263 1.35529 16.2254 1.39294L16.1125 1.50588C16.0748 1.54353 16.0372 1.58118 15.9995 1.6C15.8678 1.69412 15.7172 1.76941 15.5854 1.86353C15.5478 1.90118 15.4913 1.92 15.4536 1.95765C15.416 1.99529 15.3783 2.01412 15.3407 2.05176L15.2278 2.16471C15.1901 2.20235 15.1525 2.24 15.1336 2.29647C15.096 2.33412 15.0772 2.39059 15.0395 2.42824C15.0207 2.48471 15.0019 2.52235 14.9642 2.57882C14.9454 2.63529 14.9266 2.67294 14.9078 2.72941C14.8889 2.78588 14.8701 2.84235 14.8701 2.88C14.8701 2.89882 14.8701 2.93647 14.8513 2.95529C14.8513 2.97412 14.8513 3.01176 14.8325 3.03059V3.29412C14.8325 3.35059 14.8325 3.38824 14.8513 3.44471C14.8513 3.50118 14.8701 3.53882 14.8889 3.59529C14.9078 3.65176 14.9266 3.68941 14.9454 3.74588C14.9642 3.78353 14.983 3.80235 14.983 3.84L13.5525 3.29412C13.3078 3.21882 13.0819 3.16235 12.8372 3.10588C12.7054 3.06824 12.5736 3.04941 12.4419 3.01176C12.0654 2.93647 11.6889 2.88 11.3125 2.84235H11.2748C10.8983 2.80471 10.5407 2.78588 10.1642 2.78588C9.88187 2.78588 9.61834 2.80471 9.35481 2.82353C8.97834 2.84235 8.60187 2.89882 8.2254 2.95529L7.94305 3.01176C7.75481 3.04941 7.56658 3.08706 7.37834 3.14353C7.28422 3.16235 7.19011 3.2 7.09599 3.21882C7.00187 3.25647 6.90775 3.29412 6.83246 3.33176C6.75716 3.36941 6.70069 3.38824 6.6254 3.42588C6.60658 3.42588 6.60658 3.42588 6.58775 3.44471C6.53128 3.48235 6.47481 3.50118 6.41834 3.53882C6.39952 3.53882 6.38069 3.55765 6.38069 3.55765C6.3054 3.59529 6.24893 3.63294 6.19246 3.65177C6.15481 3.67059 6.09834 3.68941 6.06069 3.70824C6.04187 3.72706 6.02305 3.72706 6.00422 3.74588C5.94775 3.78353 5.89128 3.80235 5.83481 3.84C5.77834 3.87765 5.72187 3.89647 5.68422 3.93412C5.64658 3.97177 5.59011 3.99059 5.55246 4.02824C5.55246 4.02824 5.53364 4.02824 5.53364 4.04706C5.49599 4.06588 5.45834 4.10353 5.42069 4.14118L5.40187 4.16C5.36422 4.17882 5.3454 4.21647 5.30775 4.23529C5.28893 4.23529 5.28893 4.25412 5.27011 4.25412C5.23246 4.27294 5.21364 4.31059 5.17599 4.32941C5.17599 4.34824 5.15716 4.34824 5.15716 4.34824L5.04422 4.46118L5.0254 4.48L4.91246 4.59294C4.91246 4.59294 4.91246 4.61176 4.89364 4.61176L4.79952 4.70588C4.78069 4.72471 4.76187 4.72471 4.76187 4.74353L4.64893 4.85647C4.64893 4.87529 4.63011 4.87529 4.63011 4.89412L4.47952 5.04471L4.46069 5.06353C4.36658 5.17647 4.25364 5.27059 4.14069 5.36471C4.02775 5.45882 3.91481 5.55294 3.78305 5.64706C3.65128 5.74118 3.53834 5.81647 3.40658 5.89177C3.27481 5.96706 3.14305 6.02353 3.01128 6.08C2.87952 6.13647 2.74775 6.19294 2.61599 6.23059C2.35246 6.28706 2.08893 6.4 1.86305 6.41882C1.86305 6.32471 1.80658 6.34353 1.75011 6.34353C1.69364 6.36235 1.63716 6.36235 1.59952 6.38118C1.54305 6.4 1.5054 6.41882 1.44893 6.43765C1.39246 6.45647 1.35481 6.47529 1.29834 6.51294C1.26069 6.55059 1.20422 6.56941 1.16658 6.60706C1.12893 6.64471 1.07246 6.68235 1.03481 6.72C0.997165 6.75765 0.940694 6.79529 0.903047 6.83294C0.8654 6.87059 0.827753 6.90824 0.790106 6.96471C0.752459 7.02118 0.714812 7.05882 0.695988 7.11529C0.658341 7.15294 0.639518 7.20941 0.601871 7.26588C0.583047 7.32235 0.5454 7.37882 0.526576 7.43529L0.470106 7.60471C0.451282 7.66118 0.451282 7.69882 0.432459 7.75529V7.77412C0.413635 7.83059 0.413635 7.90588 0.413635 7.94353C0.432459 7.92471 0.432459 7.96235 0.432459 8V8.07529C0.432459 8.11294 0.451282 8.15059 0.451282 8.18824C0.470106 8.22588 0.470106 8.26353 0.488929 8.30118C0.507753 8.33882 0.526576 8.37647 0.564223 8.41412C0.583047 8.45177 0.620694 8.48941 0.639518 8.52706C0.677165 8.56471 0.714812 8.60235 0.752459 8.62118C0.790106 8.65882 0.827753 8.69647 0.8654 8.71529C1.01599 8.84706 1.05364 8.88471 1.24187 8.99765C1.27952 9.01647 1.29834 9.03529 1.33599 9.05412H1.35481V9.09176C1.35481 9.14824 1.37364 9.18588 1.39246 9.24235C1.41128 9.29882 1.43011 9.35529 1.44893 9.39294L1.5054 9.50588C1.5054 9.52471 1.52422 9.52471 1.52422 9.54353C1.54305 9.6 1.58069 9.63765 1.59952 9.67529C1.63716 9.71294 1.65599 9.76941 1.69364 9.80706L1.80658 9.92L1.91952 10.0329H1.93834C1.97599 10.0706 2.01364 10.0894 2.05128 10.1271C2.08893 10.1647 2.1454 10.1835 2.18305 10.2024C2.22069 10.2212 2.27716 10.2588 2.33364 10.2776C2.37128 10.2965 2.40893 10.3153 2.4654 10.3153C2.4654 10.3153 2.48422 10.3153 2.48422 10.3341C2.50305 10.3341 2.54069 10.3529 2.55952 10.3529C2.54069 10.6918 2.54069 11.0118 2.57834 11.1247C2.63481 11.2565 2.91716 10.8612 3.18069 10.4282C3.14305 10.8612 3.12422 11.3694 3.18069 11.52C3.25599 11.6706 3.61364 11.1812 3.95246 10.6541C8.35716 9.63765 12.3854 12.6871 12.8183 16.9976C12.743 16.32 11.9148 15.9435 11.5195 16.0376C11.3313 16.4894 11.0113 17.0918 10.503 17.4494C10.5407 17.0353 10.5219 16.6212 10.4466 16.2071C10.3148 16.7718 10.0513 17.3176 9.67481 17.7694C9.09128 17.8071 8.48893 17.5247 8.18775 17.0918C8.16893 17.0729 8.15011 17.0353 8.13128 17.0165C8.11246 16.9788 8.09363 16.9224 8.07481 16.8847C8.05599 16.8471 8.03716 16.7906 8.03716 16.7529V16.6212V16.5271C8.03716 16.4894 8.05599 16.4329 8.07481 16.3953C8.09363 16.3576 8.09363 16.3012 8.11246 16.2635C8.13128 16.2259 8.15011 16.1694 8.18775 16.1318C8.30069 15.8306 8.30069 15.5859 8.09364 15.4541L7.98069 15.3976C7.96187 15.3976 7.92422 15.3788 7.9054 15.3788C7.88658 15.3788 7.86775 15.36 7.84893 15.36C7.81128 15.3412 7.75481 15.3412 7.71716 15.3224C7.67952 15.3035 7.62305 15.3035 7.5854 15.3035C7.54775 15.3035 7.49128 15.2847 7.45363 15.2847H7.35952C7.30305 15.2847 7.2654 15.2847 7.22775 15.3035C7.19011 15.3035 7.13364 15.3224 7.09599 15.3224C7.05834 15.3412 7.00187 15.3412 6.96422 15.36C6.92658 15.3788 6.88893 15.3976 6.83246 15.4165L6.71952 15.4729C5.27011 16.4141 6.13599 18.6353 7.11481 19.2753C6.73834 19.3506 6.36187 19.4259 6.24893 19.5012L6.23011 19.52C6.49364 19.6894 6.77599 19.8212 7.07716 19.9341C7.47246 20.0659 7.9054 20.1788 8.09364 20.2353C8.60187 20.3482 9.12893 20.3859 9.65599 20.3482C12.4042 20.16 14.663 18.0518 15.0772 15.3035C15.096 15.36 15.096 15.4165 15.1148 15.4729C15.1336 15.5859 15.1525 15.6988 15.1713 15.8306C15.1901 15.8871 15.1901 15.9435 15.1901 16V16.0188C15.1901 16.0753 15.2089 16.1318 15.2089 16.1882C15.2089 16.2635 15.2278 16.32 15.2278 16.3953V17.1859C15.2278 17.2424 15.2089 17.28 15.2089 17.3365V17.3929C15.2089 17.4494 15.1901 17.5059 15.1901 17.5812C15.1713 17.6376 15.1713 17.6941 15.1525 17.7506V17.7694C15.1336 17.8259 15.1336 17.8824 15.1148 17.9388V17.9576C15.096 18.0141 15.096 18.0706 15.0772 18.1271V18.1459L15.0207 18.3153V18.3341C15.0019 18.3906 14.983 18.4659 14.9642 18.5224C14.9454 18.5788 14.9266 18.6353 14.8889 18.7106C14.8701 18.7671 14.8513 18.8424 14.8136 18.8988C14.7948 18.9553 14.7572 19.0118 14.7383 19.0871C14.7195 19.1435 14.6819 19.2 14.663 19.2565C14.663 19.2753 14.6442 19.2941 14.6442 19.2941C14.6442 19.2941 14.6442 19.3129 14.6254 19.3129C14.2301 20.1224 13.6278 20.8376 12.8748 21.4024C12.8183 21.44 12.7807 21.4776 12.7242 21.5153C12.7054 21.5341 12.6866 21.5341 12.6866 21.5529C12.6489 21.5906 12.5925 21.6094 12.5548 21.6471L12.5736 21.6847C12.6678 21.6659 12.743 21.6659 12.8372 21.6471C13.0066 21.6282 13.1572 21.5906 13.3266 21.5529C13.3642 21.5529 13.4207 21.5341 13.4583 21.5153C13.496 21.5153 13.5148 21.4965 13.5525 21.4965C13.5901 21.4965 13.6466 21.4776 13.6842 21.4776C13.7219 21.4588 13.7595 21.4588 13.7972 21.44C14.4183 21.2894 15.0207 21.0824 15.6042 20.8376C14.6066 22.1929 13.2889 23.2847 11.7454 24C12.4607 23.9435 13.176 23.8306 13.8725 23.6235C16.376 22.8894 18.4842 21.1953 19.7454 18.9176C19.4819 20.3482 18.9172 21.7224 18.0701 22.9271C18.6725 22.5318 19.2183 22.0612 19.7266 21.5529C21.1195 20.1035 22.0419 18.24 22.343 16.2635C22.5501 17.2424 22.6254 18.2588 22.5313 19.2565C27.0301 12.9882 22.9078 6.49412 21.176 4.78118C21.176 4.76235 21.1572 4.76235 21.1572 4.74353C21.1572 4.81882 21.1572 4.89412 21.1383 4.96941C21.1195 5.12 21.1007 5.25176 21.0819 5.38353C21.0442 5.51529 21.0066 5.66588 20.9689 5.79765C20.9313 5.92941 20.8748 6.06118 20.8183 6.19294C20.7619 6.32471 20.7054 6.45647 20.6301 6.56941C20.5548 6.68235 20.4795 6.81412 20.4042 6.92706C20.3289 7.04 20.2348 7.15294 20.1407 7.26588C20.0466 7.37882 19.9525 7.47294 19.8395 7.58588C19.783 7.64235 19.7266 7.69882 19.6513 7.73647C19.5948 7.77412 19.5572 7.81176 19.5007 7.86824C19.3878 7.96235 19.2748 8.03765 19.143 8.11294C19.0301 8.18824 18.8983 8.26353 18.7666 8.32L18.3713 8.48941C18.2395 8.54588 18.1078 8.58353 17.976 8.62118C17.8442 8.65882 17.6936 8.69647 17.5619 8.71529C17.4113 8.73412 17.2795 8.75294 17.1478 8.77177C17.0536 8.77177 16.9407 8.79059 16.8466 8.79059C16.696 8.79059 16.5642 8.77177 16.4325 8.77177C16.2819 8.75294 16.1501 8.73412 16.0183 8.71529C15.8678 8.69647 15.736 8.65882 15.6042 8.60235C15.736 8.58353 15.8866 8.58353 16.0183 8.54588C16.1689 8.52706 16.3007 8.48941 16.4325 8.45177C16.5642 8.41412 16.7148 8.37647 16.8278 8.32L17.223 8.15059C17.3548 8.09412 17.4678 8.01882 17.5995 7.94353C17.7125 7.86824 17.8442 7.77412 17.9572 7.69882C18.0701 7.60471 18.183 7.51059 18.2772 7.41647C18.3901 7.32235 18.4842 7.20941 18.5783 7.11529C18.6725 7.00235 18.7666 6.88941 18.8419 6.77647C18.8607 6.75765 18.8607 6.73882 18.8795 6.72C18.936 6.62588 19.0113 6.51294 19.0678 6.41882C19.143 6.28706 19.1995 6.17412 19.256 6.04235C19.3125 5.91059 19.3689 5.77882 19.4066 5.64706L19.5195 5.25177C19.5383 5.10118 19.576 4.96941 19.576 4.83765C19.5948 4.68706 19.5948 4.55529 19.5948 4.42353C19.5948 4.32941 19.5948 4.21647 19.576 4.12235C19.5572 3.97177 19.5383 3.84 19.5195 3.70824C19.5007 3.55765 19.463 3.42588 19.4254 3.29412C19.3878 3.16235 19.3313 3.03059 19.2936 2.89882C19.2372 2.76706 19.1807 2.63529 19.1242 2.52235C19.0489 2.39059 18.9925 2.27765 18.9172 2.14588C18.8419 2.03294 18.7478 1.92 18.6725 1.80706C18.5783 1.69412 18.4842 1.6 18.3901 1.48706C18.3336 1.43059 18.2772 1.37412 18.2207 1.33647C17.9383 1.11059 17.656 0.922353 17.3548 0.734118C17.3172 0.715294 17.2795 0.696471 17.223 0.677647C16.9783 0.470588 16.7901 0.414118 16.6019 0.338824V0.338824Z"
		fill="currentColor"
	/>
</svg>
