<svg
	viewBox="0 0 22 24"
	fill="none"
	xmlns="http://www.w3.org/2000/svg"
	color="#83CD29"
>
	<path
		d="M20.4183 5.31787L11.6568 0.235794C11.1048 -0.0785981 10.3818 -0.0785981 9.82544 0.235794L0.995461 5.31787C0.426022 5.64556 0.0387878 6.26145 0.0387878 6.9202V17.0709C0.0387878 17.7296 0.43416 18.3457 1.0038 18.6752L3.33177 20.0026C4.44862 20.5528 4.75805 20.5528 5.26615 20.5528C6.92029 20.5528 7.77931 19.5527 7.77931 17.8082V7.78696C7.77951 7.64545 7.86783 7.43486 7.72869 7.43486H6.61284C6.47152 7.43486 6.19167 7.64545 6.19167 7.78677V17.808C6.19167 18.5813 5.47396 19.3508 4.16677 18.6972L1.7608 17.3053C1.67704 17.2596 1.62663 17.1677 1.62663 17.0709V6.9202C1.62663 6.82453 1.71852 6.72847 1.80347 6.67945L10.6116 1.6061C10.6549 1.58313 10.7031 1.57111 10.752 1.57111C10.801 1.57111 10.8492 1.58313 10.8925 1.6061L19.6182 6.67825C19.7018 6.72847 19.6885 6.82156 19.6885 6.9202V17.0709C19.6885 17.1677 19.7068 17.262 19.6244 17.3086L10.8649 22.385C10.7899 22.43 10.6922 22.43 10.6098 22.385L8.36363 21.0454C8.29595 21.0061 8.21438 20.992 8.14927 21.0284C7.52505 21.3822 7.40914 21.4293 6.82363 21.6323C6.67933 21.6825 6.46656 21.7697 6.90461 22.0152L9.84171 23.7527C10.1221 23.9147 10.4402 24 10.764 24C11.0891 24.0005 11.4086 23.9152 11.6902 23.7527L20.4185 18.6752C20.9883 18.3433 21.2763 17.7296 21.2763 17.0709V6.9202C21.2761 6.26145 20.9881 5.64715 20.4183 5.31787V5.31787ZM13.4812 15.4624C11.1537 15.4624 10.6412 14.8203 10.4703 13.663C10.4501 13.5383 10.3445 13.3893 10.2174 13.3893H9.08015C8.93942 13.3893 8.82609 13.56 8.82609 13.7001C8.82609 15.1819 9.63192 16.9774 13.4812 16.9774C16.2675 16.9774 17.8653 15.8947 17.8653 13.9785C17.8653 12.0787 16.5817 11.5801 13.8794 11.2225C11.1479 10.8614 10.8704 10.679 10.8704 10.0391C10.8704 9.51156 11.1054 8.80794 13.1279 8.80794C14.9349 8.80794 15.601 9.19577 15.8751 10.4138C15.8987 10.5284 16.0033 10.6105 16.1214 10.6105H17.2635C17.3337 10.6105 17.4006 10.5822 17.4498 10.5319C17.4977 10.478 17.5227 10.4103 17.5165 10.3376C17.3393 8.2399 15.946 7.26238 13.1277 7.26238C10.6205 7.26238 9.1252 8.32107 9.1252 10.0957C9.1252 12.0205 10.6132 12.5525 13.0198 12.7904C15.8987 13.0727 16.1226 13.4935 16.1226 14.0597C16.1226 15.0434 15.3331 15.4624 13.4812 15.4624Z"
		fill="currentColor"
	/>
</svg>
