<svg viewBox="0 0 33 24" fill="none" xmlns="http://www.w3.org/2000/svg">
	<path
		d="M10.6476 23.1553L10.5772 23.0147C10.4365 22.7331 10.4365 22.4515 10.507 22.0995H2.90578L14.167 2.11134L18.8826 10.6277L20.4308 9.50142L15.7152 0.985095C15.645 0.844438 15.0819 0 14.167 0C13.7446 0 13.1112 0.140657 12.6186 1.05555L1.21666 21.2551C1.14621 21.4664 0.653535 22.3813 1.07575 23.1553C1.35732 23.5778 1.77978 24 2.76513 24H12.337C11.3517 24 10.859 23.5775 10.6476 23.1553Z"
		fill="#00C58E"
	/>
	<path
		d="M32.3249 21.3245L23.1753 4.85527C23.0346 4.71461 22.5419 3.79947 21.6268 3.79947C21.2046 3.79947 20.5713 4.01058 20.0786 4.85527L18.8821 6.82596V10.6267L21.6271 5.91107L30.7062 22.0988H27.2575C27.3152 22.4339 27.2659 22.7786 27.1166 23.0841L27.0462 23.1546C26.624 23.9286 25.5682 23.999 25.4275 23.999H30.7765C30.9876 23.999 31.9729 23.9288 32.4656 23.1546C32.6767 22.8026 32.8176 22.1692 32.3249 21.3245Z"
		fill="#108775"
	/>
	<path
		d="M27.3287 23.1553V23.0849L27.3992 22.9442C27.4694 22.6626 27.5399 22.3811 27.4694 22.0995L27.1881 21.2551L20.0094 8.72718L18.9536 6.82695H18.8831L17.8273 8.72718L10.6486 21.2548L10.3673 22.0995C10.2991 22.4574 10.3485 22.8278 10.508 23.1553C10.7895 23.5775 11.2117 24 12.1971 24H25.5697C25.7808 24 26.8366 23.9295 27.3292 23.1553H27.3287ZM18.8829 10.6274L25.4285 22.0995H12.3375L18.8829 10.6274Z"
		fill="#2F495E"
	/>
</svg>
