<svg
	viewBox="0 0 25 24"
	fill="none"
	xmlns="http://www.w3.org/2000/svg"
	color="#80B5E2"
>
	<path
		fill-rule="evenodd"
		clip-rule="evenodd"
		d="M9.54815 7.75158C8.84544 7.57504 8.14177 7.63172 7.39918 7.74738C7.39918 9.04611 7.3965 10.3099 7.40624 11.5739C7.40662 11.6386 7.50376 11.7512 7.56674 11.7598C8.37652 11.8692 9.18191 11.878 9.9392 11.5088C10.7226 11.1271 11.1217 10.329 11.0183 9.39193C10.9244 8.53864 10.4192 7.97048 9.54815 7.75158V7.75158ZM24.1967 12.0165V0.436093C24.1967 0.0360707 24.2011 0 23.8127 0H0.622654C0.244961 0 0.149536 0.0362616 0.149536 0.417199V23.6072C0.149536 23.9924 0.19763 23.9929 0.571124 23.9929C8.31106 23.9931 16.0741 23.9912 23.814 24C24.1142 24.0004 24.1948 23.9204 24.194 23.6261C24.1837 19.7563 24.1967 15.886 24.1967 12.0165V12.0165ZM10.7135 13.1311C9.65293 13.5093 8.54695 13.5305 7.40185 13.4418V17.7491H5.30249V17.4815C5.30249 13.8754 5.28589 10.2697 5.27578 6.66373C5.27463 6.36429 5.32215 6.21962 5.65958 6.18527C7.24974 6.02266 8.83093 5.83983 10.4121 6.21065C12.1118 6.60896 13.0919 7.73268 13.1663 9.28525C13.2585 11.2079 12.4136 12.5247 10.7135 13.1311V13.1311ZM19.1701 15.5652C19.0891 16.6666 18.4681 17.3897 17.4495 17.7393C16.0865 18.2073 14.7309 18.0987 13.3987 17.5693C13.1806 17.4825 13.1384 17.3725 13.2104 17.1502C13.3415 16.7444 13.4375 16.3272 13.5386 15.9505C14.1018 16.1158 14.6374 16.3221 15.1922 16.4196C15.584 16.4885 16.0075 16.4481 16.4058 16.3856C16.7629 16.3295 17.0197 16.0872 17.0783 15.7039C17.1379 15.3144 17.0205 14.977 16.6766 14.7697C16.4033 14.6052 16.1021 14.4874 15.8134 14.3495C15.349 14.1275 14.8542 13.9534 14.4259 13.6758C12.7405 12.5828 13.2892 10.5491 14.4139 9.78318C15.0156 9.37361 15.6815 9.19192 16.3943 9.16692C17.2327 9.13753 18.04 9.2822 18.833 9.66752L18.4141 11.1541C18.082 11.0365 17.7728 10.8838 17.4465 10.8231C17.0593 10.751 16.6531 10.7107 16.2623 10.7426C15.7382 10.7855 15.4313 11.1472 15.4313 11.5957C15.4313 11.8613 15.5321 12.0862 15.7536 12.215C16.0716 12.3999 16.409 12.5524 16.7434 12.7072C17.1052 12.8746 17.4873 13.0032 17.8356 13.1942C18.7651 13.7038 19.2489 14.492 19.1701 15.5652Z"
		fill="currentColor"
	/>
</svg>
