<svg viewBox="0 0 25 24" fill="none" xmlns="http://www.w3.org/2000/svg">
	<path
		d="M14.783 24C13.9275 24 13.3704 23.6691 13.0321 23.3496C12.5213 22.8677 12.3188 22.2469 12.1977 21.8761L12.1454 21.7213C11.9017 21.0635 11.819 20.1163 11.7701 18.8966C11.7626 18.7135 11.7575 18.5248 11.7518 18.3248C11.7477 18.1784 11.7426 17.9949 11.7352 17.8029C11.427 17.9499 11.0998 18.0532 10.7631 18.1101C10.16 18.2131 9.51154 18.1798 8.83549 18.0108C8.35847 17.8915 7.86285 17.6442 7.58036 17.2624C6.75699 17.9835 5.97163 17.8858 5.54379 17.743C4.78899 17.4912 4.11352 16.7838 3.47861 15.5808C3.02628 14.7238 2.58884 13.6071 2.17823 12.2617C1.4632 9.91873 1.00891 7.45098 0.96855 6.64074C0.841607 4.10482 1.52432 2.29118 2.99729 1.25076C5.32085 -0.390492 8.84137 0.574706 10.1249 1.01293C10.9873 0.493211 12.0018 0.240305 13.1482 0.258524C13.7639 0.268514 14.3503 0.322583 14.8949 0.419749C15.463 0.241088 16.5851 -0.0153443 17.8696 0.000719459C20.2363 0.028929 22.1974 0.951225 23.5407 2.66789C24.4994 3.89266 24.0254 6.46463 23.6577 7.88882C23.1401 9.89209 22.2333 12.0227 21.1194 13.8775C21.4218 13.8796 21.8601 13.8434 22.483 13.7147C23.7121 13.461 24.0716 14.12 24.1691 14.415C24.56 15.5986 22.8611 16.4931 22.3312 16.7392C21.6522 17.0544 20.5452 17.2464 19.6386 17.2048L19.599 17.2023L19.3608 17.1813L19.3373 17.38L19.3146 17.5741C19.2536 19.9247 18.9179 21.4133 18.2269 22.397C17.5027 23.4282 16.4961 23.7171 15.6095 23.9071C15.307 23.9718 15.0322 24 14.783 24V24ZM12.9827 15.4449C13.5349 15.8868 13.5833 16.7184 13.6266 18.2725C13.6321 18.4664 13.6372 18.65 13.644 18.8214C13.6648 19.3405 13.7136 20.5561 13.904 21.0697C13.9308 21.1424 13.9549 21.2161 13.9804 21.2942C14.1926 21.9438 14.2989 22.2696 15.2163 22.0735C15.9864 21.9084 16.3823 21.7603 16.6922 21.3191C17.1426 20.6777 17.3945 19.3875 17.4408 17.4844L18.3778 17.5071L17.4472 17.3954L17.4747 17.1631C17.5638 16.3971 17.6281 15.8439 18.1399 15.478C18.5507 15.1845 19.0187 15.2129 19.3915 15.2801C18.9819 14.9706 18.8687 14.6076 18.8385 14.4587L18.7604 14.0738L18.98 13.748C20.2449 11.8713 21.2879 9.56474 21.8419 7.41964C22.4111 5.21557 22.2376 4.04507 22.064 3.8237C19.7663 0.887753 15.7819 2.09998 15.3658 2.2375L15.2955 2.27551L14.9429 2.34113L14.7622 2.30372C14.2643 2.20028 13.711 2.14308 13.1181 2.13348C12.1864 2.11781 11.4347 2.338 10.8184 2.80561L10.3907 3.12983L9.89452 2.9255C8.83431 2.49198 5.72029 1.62042 4.07709 2.78426C3.16498 3.43034 2.74947 4.69624 2.84194 6.5469C2.8725 7.15792 3.28761 9.4709 3.97248 11.7141C4.91887 14.8143 5.77887 15.8441 6.13795 15.9638C6.20064 15.985 6.36324 15.8586 6.52505 15.6643C7.19973 14.8555 7.89836 14.067 8.62 13.2998L9.16264 12.7287L9.81871 13.1646C10.0832 13.3403 10.3749 13.44 10.6744 13.4588L12.2391 12.1244L12.0124 14.4375C12.0073 14.4895 12.0048 14.5602 12.0251 14.6914L12.0933 15.1299L11.7975 15.4605L11.7634 15.4989L12.623 15.8956L12.9827 15.4449V15.4449Z"
		fill="black"
	/>
	<path
		d="M22.6725 14.6329C19.9446 15.1957 19.7571 14.272 19.7571 14.272C22.6374 9.99828 23.8414 4.57303 22.8024 3.24542C19.9677 -0.376378 15.0606 1.33637 14.9787 1.38084L14.9523 1.38554C14.4134 1.27369 13.8102 1.20708 13.1322 1.19611C11.8978 1.17593 10.9616 1.51974 10.2511 2.05846C10.2511 2.05846 1.4975 -1.54766 1.90458 6.59373C1.99117 8.32588 4.38702 19.6992 7.2448 16.2639C8.28934 15.0078 9.29842 13.9457 9.29842 13.9457C9.79973 14.2785 10.3998 14.4485 11.0288 14.3874L11.0778 14.3459C11.0625 14.5018 11.0696 14.6544 11.0974 14.835C10.3612 15.6576 10.5775 15.802 9.10566 16.1049C7.61643 16.4116 8.49131 16.958 9.06256 17.1008C9.75487 17.274 11.3569 17.5193 12.4393 16.0042L12.396 16.177C12.6845 16.4081 12.8871 17.6799 12.8532 18.8328C12.8191 19.9856 12.7964 20.7773 13.0238 21.3955C13.2511 22.0138 13.4775 23.4047 15.4123 22.9901C17.0288 22.6438 17.8665 21.746 17.9832 20.2485C18.0659 19.1838 18.253 19.3413 18.2649 18.3894L18.4152 17.9389C18.5884 16.4957 18.4426 16.0302 19.4388 16.2467L19.6807 16.2679C20.4138 16.3012 21.3731 16.1499 21.9363 15.8882C23.1489 15.3258 23.8681 14.3862 22.6725 14.6329V14.6329Z"
		fill="#336791"
	/>
	<path
		d="M14.8808 23.4223C13.2681 23.4223 12.7572 22.1452 12.5482 21.6229C12.2422 20.8576 12.1762 17.8873 12.2443 15.4515C12.2454 15.4104 12.2545 15.37 12.2712 15.3324C12.2879 15.2949 12.3119 15.261 12.3418 15.2328C12.3716 15.2046 12.4068 15.1826 12.4452 15.168C12.4836 15.1534 12.5245 15.1466 12.5656 15.1479C12.6066 15.149 12.6471 15.1582 12.6845 15.1749C12.722 15.1917 12.7558 15.2156 12.784 15.2455C12.8122 15.2753 12.8343 15.3104 12.8489 15.3487C12.8635 15.3871 12.8704 15.4279 12.8693 15.469C12.7907 18.2784 12.9022 20.8243 13.1286 21.3908C13.482 22.2741 14.018 23.0467 15.5333 22.7221C16.9718 22.4136 17.5105 21.8682 17.7505 20.4771C17.9346 19.4097 18.2988 16.3728 18.3437 15.7736C18.3467 15.7326 18.3577 15.6927 18.3762 15.656C18.3947 15.6193 18.4202 15.5867 18.4513 15.5599C18.4824 15.5331 18.5185 15.5127 18.5576 15.4999C18.5966 15.4871 18.6377 15.4821 18.6787 15.4852C18.7613 15.4915 18.8381 15.5303 18.8921 15.5931C18.9462 15.6559 18.9731 15.7376 18.967 15.8202C18.9202 16.4441 18.5578 19.4751 18.3666 20.5835C18.0833 22.2265 17.3509 22.9717 15.6644 23.3333C15.3778 23.3947 15.1174 23.4221 14.8808 23.4223ZM6.13658 17.1846C5.99562 17.1842 5.85566 17.161 5.72206 17.1161C4.67458 16.7666 3.67687 15.0607 2.75653 12.0452C2.05599 9.74986 1.61208 7.35401 1.5731 6.5753C1.45771 4.26682 2.05207 2.63361 3.34011 1.7213C5.88818 -0.0841094 10.1747 1.63511 10.3559 1.70916C10.4326 1.74051 10.4938 1.80108 10.5259 1.87753C10.558 1.95398 10.5584 2.04006 10.5271 2.11682C10.4957 2.19359 10.4352 2.25475 10.3587 2.28686C10.2823 2.31897 10.1962 2.3194 10.1194 2.28804C10.0781 2.27119 5.96772 0.62446 3.70018 2.23221C2.59883 3.01306 2.09321 4.4639 2.19723 6.54416C2.22995 7.20023 2.64467 9.53848 3.35422 11.8626C4.17582 14.5547 5.11085 16.2533 5.91972 16.5231C6.04666 16.5654 6.43298 16.6941 6.98522 16.03C7.62923 15.2566 8.29738 14.5035 8.98869 13.7721C9.04653 13.7144 9.12466 13.6816 9.20636 13.6808C9.28805 13.68 9.36682 13.7112 9.42581 13.7677C9.4848 13.8242 9.51931 13.9016 9.52197 13.9833C9.52463 14.0649 9.49522 14.1444 9.44004 14.2046C9.43064 14.2144 8.49051 15.1972 7.46596 16.4298C6.98071 17.0134 6.51565 17.1846 6.13658 17.1846ZM19.7377 14.5508C19.681 14.5507 19.6254 14.5352 19.5769 14.506C19.5283 14.4768 19.4886 14.4349 19.462 14.3849C19.4354 14.3348 19.4229 14.2785 19.4259 14.2219C19.4288 14.1653 19.4471 14.1106 19.4787 14.0636C22.3904 9.743 23.4124 4.52247 22.5371 3.40388C21.4354 1.99615 19.8797 1.26094 17.9131 1.21843C16.457 1.18708 15.2996 1.5589 15.1104 1.62374L15.0628 1.64314C14.8725 1.70289 14.7266 1.59867 14.6715 1.47682C14.6402 1.40701 14.6354 1.32812 14.6582 1.25504C14.6809 1.18197 14.7297 1.11975 14.7952 1.08012C14.8042 1.07483 14.8328 1.06269 14.8792 1.04564C15.2007 0.927908 16.3757 0.575289 17.831 0.59194C20.0071 0.615056 21.8046 1.45409 23.029 3.01875C23.6083 3.75905 23.6097 5.46455 23.0327 7.6982C22.4446 9.97554 21.338 12.4229 19.9969 14.4131C19.9369 14.5026 19.8382 14.5508 19.7377 14.5508ZM19.8866 16.5509C19.3894 16.5509 18.9437 16.4808 18.6769 16.3209C18.4026 16.1566 18.3503 15.9332 18.3435 15.8147C18.2687 14.5002 18.9939 14.2714 19.3637 14.167C19.3122 14.089 19.2389 13.9974 19.1631 13.9027C18.9474 13.6332 18.652 13.2641 18.4244 12.7121C18.3887 12.6259 18.2771 12.4255 18.1478 12.1933C17.4467 10.936 15.9878 8.31979 16.925 6.98003C17.3587 6.36001 18.2224 6.11592 19.495 6.25207C19.1206 5.11154 17.3379 1.54382 13.1079 1.47447C11.8357 1.45331 10.7923 1.84452 10.0083 2.63615C8.25308 4.40885 8.31655 7.61632 8.31753 7.64844C8.31861 7.68948 8.3116 7.73032 8.2969 7.76864C8.28219 7.80697 8.26008 7.84202 8.23183 7.8718C8.20358 7.90157 8.16974 7.9255 8.13225 7.9422C8.09475 7.9589 8.05433 7.96805 8.0133 7.96913C7.97227 7.97021 7.93142 7.9632 7.8931 7.94849C7.85478 7.93379 7.81973 7.91168 7.78995 7.88343C7.76017 7.85518 7.73625 7.82134 7.71955 7.78385C7.70285 7.74635 7.69369 7.70593 7.69261 7.6649C7.6887 7.52248 7.62326 4.15653 9.56424 2.19616C10.4726 1.27876 11.6684 0.825844 13.1183 0.849548C15.8244 0.894018 17.5663 2.26982 18.5509 3.41603C19.6243 4.66528 20.1505 6.04324 20.1938 6.50321C20.2261 6.84525 19.9806 6.91362 19.9311 6.92381L19.8182 6.92636C18.5694 6.72634 17.7681 6.86524 17.4369 7.33853C16.724 8.3574 18.1041 10.8322 18.6934 11.8891C18.8438 12.1586 18.9523 12.3536 19.0021 12.4738C19.1956 12.9432 19.4482 13.2586 19.6509 13.5121C19.8294 13.735 19.9839 13.9284 20.0392 14.1553C20.0649 14.2003 20.429 14.739 22.59 14.293C23.1317 14.1813 23.4565 14.2767 23.5558 14.577C23.7511 15.1677 22.6552 15.8566 22.0485 16.1383C21.5049 16.3911 20.6373 16.5509 19.8866 16.5509ZM18.9666 15.7632C19.0352 15.8323 19.3782 15.9517 20.0886 15.9211C20.7201 15.8941 21.3862 15.7567 21.7858 15.5712C22.2969 15.3338 22.6382 15.0683 22.8149 14.8871L22.7169 14.9052C21.3353 15.1904 20.3579 15.1524 19.8121 14.7921C19.7755 14.7679 19.7402 14.7417 19.7064 14.7136C19.6472 14.7369 19.5925 14.7522 19.5536 14.7631C19.244 14.8499 18.9239 14.9398 18.9666 15.7632ZM10.0411 17.5096C9.69784 17.5096 9.3366 17.4628 8.96772 17.3706C8.58552 17.275 7.94121 16.9872 7.951 16.5145C7.96217 15.9842 8.73343 15.8251 9.02375 15.7654C10.0726 15.5493 10.141 15.4627 10.4687 15.0464C10.5643 14.9251 10.6832 14.7741 10.8454 14.5931C11.0862 14.3235 11.3493 14.187 11.6275 14.187C11.8212 14.187 11.9801 14.2526 12.0851 14.2963C12.4197 14.435 12.6988 14.7704 12.8136 15.1714C12.9173 15.5332 12.8677 15.8815 12.6745 16.1521C12.0404 17.0401 11.1297 17.5096 10.0411 17.5096ZM8.62627 16.5413C8.7205 16.6142 8.90935 16.7115 9.11955 16.764C9.43906 16.844 9.74897 16.8845 10.0413 16.8845C10.9318 16.8845 11.6468 16.5158 12.1662 15.7887C12.2745 15.637 12.242 15.4445 12.213 15.3432C12.1523 15.131 12.0014 14.9381 11.8461 14.8736C11.7618 14.8387 11.6919 14.8121 11.6277 14.8121C11.5932 14.8121 11.4882 14.8121 11.3115 15.0098C11.1895 15.1469 11.0723 15.2882 10.96 15.4333C10.5518 15.9517 10.3647 16.1276 9.15011 16.3777C8.85371 16.4385 8.70169 16.5004 8.62627 16.5413ZM11.0298 15.0995C10.9551 15.0994 10.883 15.0726 10.8264 15.0239C10.7699 14.9753 10.7325 14.908 10.7212 14.8342C10.7135 14.7824 10.7082 14.7301 10.7056 14.6777C9.90941 14.6628 9.14129 14.3212 8.5581 13.7127C7.82073 12.9434 7.48516 11.8775 7.63757 10.7885C7.8031 9.60587 7.7412 8.56192 7.70789 8.00106C7.69869 7.84513 7.69203 7.73248 7.69242 7.65452C7.693 7.55559 7.69496 7.29328 8.57181 6.84878C8.88368 6.69069 9.50899 6.41486 10.1921 6.34414C11.3238 6.22719 12.0698 6.73124 12.2931 7.76363C12.8959 10.5509 12.3409 11.7837 11.9356 12.684C11.8602 12.8517 11.7889 13.01 11.7319 13.1634L11.6815 13.2986C11.4674 13.8728 11.2823 14.3688 11.3391 14.7392C11.3453 14.7798 11.3435 14.8212 11.3337 14.8611C11.324 14.9009 11.3064 14.9385 11.2822 14.9716C11.2579 15.0047 11.2273 15.0327 11.1922 15.0539C11.1571 15.0752 11.1181 15.0894 11.0776 15.0956L11.0298 15.0995ZM8.31949 7.7411L8.33164 7.96423C8.36612 8.54684 8.43037 9.63095 8.25641 10.8753C8.13084 11.7735 8.4051 12.6502 9.00925 13.2802C9.48666 13.7781 10.1149 14.053 10.7606 14.053H10.7739C10.8462 13.7484 10.9663 13.4267 11.0956 13.0802L11.1455 12.9458C11.21 12.7726 11.2854 12.6049 11.3653 12.4274C11.7554 11.5608 12.241 10.4819 11.6817 7.89586C11.571 7.38359 11.3025 7.08719 10.8611 6.98944C9.95447 6.78923 8.60335 7.47115 8.31949 7.7411ZM10.206 7.60848C10.1903 7.71897 10.4084 8.01399 10.6928 8.05337C10.9767 8.09314 11.2196 7.86237 11.2351 7.75188C11.2505 7.64139 11.0327 7.51954 10.7483 7.47997C10.464 7.4404 10.2211 7.49799 10.206 7.60848ZM10.7581 8.16209L10.6783 8.15661C10.502 8.13212 10.3237 8.02104 10.2017 7.85923C10.1588 7.80242 10.0889 7.69232 10.1028 7.59398C10.1226 7.4498 10.2985 7.36341 10.5729 7.36341C10.6342 7.36341 10.6981 7.36791 10.7624 7.37693C10.9124 7.39769 11.0517 7.44099 11.1546 7.49838C11.3328 7.5979 11.3459 7.70898 11.3379 7.76637C11.316 7.92564 11.0627 8.16209 10.7581 8.16209ZM10.3096 7.62689C10.3185 7.69507 10.4873 7.91996 10.7071 7.95032L10.7582 7.95385C10.9612 7.95385 11.1128 7.79419 11.1307 7.74189C11.1118 7.70623 10.9814 7.61769 10.734 7.58321C10.6807 7.57557 10.6269 7.5717 10.5731 7.57165C10.4141 7.57165 10.3296 7.6075 10.3096 7.62689ZM18.8518 7.383C18.8673 7.49349 18.6495 7.78851 18.3652 7.82808C18.0812 7.86765 17.8381 7.63708 17.8224 7.52659C17.8075 7.41611 18.0253 7.29406 18.3094 7.25468C18.5935 7.21492 18.8362 7.27271 18.8518 7.383ZM18.2996 7.8845C18.0261 7.8845 17.7901 7.67175 17.7707 7.53365C17.7481 7.36791 18.021 7.24195 18.302 7.20297C18.3639 7.19435 18.4252 7.19004 18.4841 7.19004C18.7267 7.19004 18.8873 7.26115 18.9034 7.37595C18.9137 7.45019 18.8567 7.56479 18.7586 7.66823C18.6938 7.73621 18.5576 7.85394 18.3721 7.8796L18.2996 7.8845ZM18.4843 7.29426C18.4303 7.29426 18.3738 7.29837 18.3166 7.30621C18.0344 7.34558 17.8659 7.45881 17.8741 7.51954C17.8835 7.58634 18.0637 7.78048 18.2998 7.78048L18.358 7.77637C18.5122 7.75501 18.6279 7.65432 18.6832 7.59633C18.77 7.50524 18.8044 7.41944 18.8003 7.39025C18.7948 7.35146 18.6906 7.29426 18.4843 7.29426ZM19.2611 13.7282C19.2044 13.7282 19.1489 13.7129 19.1003 13.6837C19.0517 13.6546 19.012 13.6128 18.9854 13.5629C18.9587 13.5129 18.9462 13.4566 18.949 13.4C18.9519 13.3435 18.9701 13.2888 19.0017 13.2418C19.6674 12.2476 19.5455 11.2338 19.4278 10.2533C19.3774 9.83566 19.3257 9.4037 19.339 8.98918C19.3528 8.56271 19.407 8.21087 19.4593 7.87059C19.5214 7.46743 19.5802 7.0866 19.5559 6.63447C19.5537 6.59349 19.5596 6.55247 19.5732 6.51376C19.5869 6.47505 19.608 6.43941 19.6354 6.40887C19.6628 6.37832 19.696 6.35348 19.733 6.33575C19.77 6.31803 19.8101 6.30776 19.8511 6.30555C19.8921 6.30334 19.9331 6.30922 19.9718 6.32286C20.0105 6.3365 20.0462 6.35763 20.0767 6.38504C20.1073 6.41245 20.1321 6.44562 20.1498 6.48263C20.1676 6.51965 20.1778 6.55979 20.18 6.60077C20.2079 7.11755 20.1415 7.54853 20.0772 7.9656C20.0276 8.28747 19.9763 8.6203 19.964 9.00916C19.952 9.37628 19.9988 9.76612 20.0484 10.1787C20.1738 11.2213 20.3158 12.4029 19.5212 13.5895C19.4926 13.6322 19.4539 13.6672 19.4085 13.6914C19.3631 13.7156 19.3125 13.7283 19.2611 13.7282Z"
		fill="white"
	/>
</svg>
