<svg
	viewBox="0 0 33 24"
	fill="none"
	xmlns="http://www.w3.org/2000/svg"
	color="#000"
>
	<path
		d="M16.4539 0C7.85952 0 0.892334 4.66603 0.892334 10.4221C0.892334 15.4708 6.25279 19.6807 13.3698 20.639V17.5191C9.58879 16.3301 7.00753 13.9465 7.00753 11.1994C7.00753 7.26456 12.3031 4.07444 18.8357 4.07444C25.3682 4.07444 30.1891 6.25671 30.1891 11.1994C30.1891 13.7491 28.907 15.564 26.769 16.7238C27.0617 16.9446 27.3087 17.2276 27.4751 17.5551L27.5694 17.7144C30.3194 15.8348 32.0154 13.2616 32.0154 10.4218C32.0154 4.66602 25.0482 0 16.4539 0ZM21.3411 18.207C20.706 18.2695 20.0471 18.3067 19.3682 18.3193L19.3687 20.6608C20.393 20.532 21.4066 20.3295 22.4018 20.0549L22.2799 19.8261C22.1146 19.5178 21.9524 19.2078 21.7856 18.9004C21.6471 18.6633 21.4988 18.4318 21.3411 18.207Z"
		fill="currentColor"
	/>
	<path
		fill-rule="evenodd"
		clip-rule="evenodd"
		d="M24.5918 16.1422C24.5918 16.1422 25.5338 16.4264 26.0808 16.7031C26.2705 16.7994 26.5992 16.991 26.8361 17.2429C26.9752 17.3902 27.0915 17.5573 27.1813 17.7389L30.8932 23.9976L24.8938 24L22.0886 18.7319C22.0886 18.7319 21.514 17.7448 21.1605 17.4586C20.8655 17.2198 20.7398 17.1349 20.4483 17.1349H19.023L19.0239 23.9964L13.715 23.9985V6.47141H24.3759C24.3759 6.47141 29.2316 6.55894 29.2316 11.1785C29.2316 15.7981 24.592 16.1419 24.592 16.1419L24.5918 16.1422ZM22.2826 10.2733L19.0687 10.2711L19.0672 13.2514L22.2826 13.2504C22.2826 13.2504 23.7717 13.2458 23.7717 11.7344C23.7717 10.1928 22.2826 10.2733 22.2826 10.2733Z"
		fill="currentColor"
	/>
</svg>
