<svg
	viewBox="0 0 28 24"
	fill="none"
	xmlns="http://www.w3.org/2000/svg"
	color="#61DAFB"
>
	<path
		d="M13.6005 14.4472C14.9521 14.4472 16.0477 13.3516 16.0477 12C16.0477 10.6484 14.9521 9.55277 13.6005 9.55277C12.2489 9.55277 11.1533 10.6484 11.1533 12C11.1533 13.3516 12.2489 14.4472 13.6005 14.4472Z"
		fill="currentColor"
	/>
	<path
		d="M22.8957 7.96422C22.4234 7.79249 21.9297 7.62075 21.4145 7.47048C21.5433 6.95528 21.6506 6.44007 21.7365 5.94633C22.1873 3.1127 21.6935 1.11628 20.3197 0.34347C19.9118 0.107334 19.461 0 18.9458 0C17.4431 0 15.5325 1.11628 13.6005 2.9839C11.6685 1.11628 9.75794 0 8.25525 0C7.74005 0 7.28924 0.107334 6.88137 0.34347C5.50749 1.13775 5.01375 3.13417 5.46456 5.94633C5.55042 6.44007 5.65776 6.95528 5.78656 7.47048C5.27135 7.62075 4.77762 7.77102 4.30534 7.96422C1.62198 8.99463 0.162231 10.4114 0.162231 12C0.162231 13.5886 1.64345 15.0054 4.30534 16.0358C4.77762 16.2075 5.27135 16.3792 5.78656 16.5295C5.65776 17.0447 5.55042 17.5599 5.46456 18.0537C5.01375 20.8873 5.50749 22.8837 6.88137 23.6565C7.28924 23.8927 7.74005 24 8.25525 24C9.7794 24 11.69 22.8837 13.6005 21.0161C15.5325 22.8837 17.4431 24 18.9458 24C19.461 24 19.9118 23.8927 20.3197 23.6565C21.6935 22.8623 22.1873 20.8658 21.7365 18.0537C21.6506 17.5599 21.5433 17.0447 21.4145 16.5295C21.9297 16.3792 22.4234 16.229 22.8957 16.0358C25.579 15.0054 27.0388 13.5886 27.0388 12C27.0388 10.4114 25.579 8.99463 22.8957 7.96422ZM19.7186 1.41682C20.5987 1.93202 20.8993 3.52057 20.5343 5.7746C20.4699 6.2254 20.3626 6.69767 20.2338 7.19141C19.1175 6.93381 17.9368 6.76207 16.6917 6.65474C15.9619 5.62433 15.2105 4.70125 14.4592 3.86404C16.0477 2.29696 17.6578 1.22361 18.9672 1.22361C19.2463 1.22361 19.5039 1.28801 19.7186 1.41682ZM17.3143 14.1467C16.9279 14.8336 16.4771 15.5206 16.0048 16.2075C15.2105 16.2719 14.4163 16.2934 13.6005 16.2934C12.7633 16.2934 11.969 16.2719 11.1962 16.2075C10.7239 15.5206 10.2946 14.8336 9.90821 14.1467C9.50033 13.4383 9.11393 12.7084 8.77046 12C9.11393 11.2916 9.50033 10.5617 9.90821 9.85331C10.2946 9.16637 10.7454 8.47943 11.2177 7.79249C12.012 7.72809 12.8062 7.70662 13.622 7.70662C14.4592 7.70662 15.2535 7.72809 16.0263 7.79249C16.4985 8.47943 16.9279 9.16637 17.3143 9.85331C17.7222 10.5617 18.1086 11.2916 18.452 12C18.0871 12.7084 17.7222 13.4168 17.3143 14.1467ZM19.096 13.4383C19.418 14.1896 19.6756 14.9195 19.9118 15.6494C19.1819 15.8211 18.4091 15.9499 17.5934 16.0572C17.851 15.6494 18.13 15.22 18.3662 14.7692C18.6238 14.3184 18.8599 13.8676 19.096 13.4383ZM13.6005 19.2558C13.0853 18.6977 12.5916 18.0966 12.1193 17.4741C12.613 17.4955 13.1068 17.517 13.6005 17.517C14.0943 17.517 14.588 17.4955 15.0817 17.4741C14.6095 18.0966 14.1157 18.6977 13.6005 19.2558ZM9.60767 16.0358C8.79193 15.9284 8.01912 15.7996 7.28924 15.6279C7.52538 14.9195 7.78298 14.1682 8.10499 13.4168C8.34112 13.8462 8.57726 14.297 8.83486 14.7263C9.09246 15.1986 9.35007 15.6064 9.60767 16.0358ZM8.10499 10.5617C7.78298 9.81037 7.52538 9.0805 7.28924 8.35063C8.01912 8.17889 8.79193 8.05009 9.60767 7.94275C9.35007 8.35063 9.071 8.77996 8.83486 9.23077C8.57726 9.68157 8.34112 10.1324 8.10499 10.5617ZM13.6005 4.74419C14.1157 5.30233 14.6095 5.9034 15.0817 6.52594C14.588 6.50447 14.0943 6.48301 13.6005 6.48301C13.1068 6.48301 12.613 6.50447 12.1193 6.52594C12.5916 5.9034 13.0853 5.30233 13.6005 4.74419ZM18.3662 9.25224L17.5934 7.96422C18.4091 8.07156 19.1819 8.20036 19.9118 8.37209C19.6756 9.0805 19.418 9.83184 19.096 10.5832C18.8599 10.1324 18.6238 9.68157 18.3662 9.25224ZM6.6667 5.7746C6.30177 3.52057 6.6023 1.93202 7.48245 1.41682C7.69711 1.28801 7.95472 1.22361 8.23379 1.22361C9.5218 1.22361 11.1318 2.27549 12.7418 3.86404C11.9905 4.67979 11.2392 5.62433 10.5093 6.65474C9.2642 6.76207 8.08352 6.95528 6.96724 7.19141C6.83844 6.69767 6.75257 6.2254 6.6667 5.7746ZM1.36438 12C1.36438 10.9911 2.58799 9.91771 4.73468 9.12343C5.16402 8.9517 5.63629 8.80143 6.10856 8.67263C6.45203 9.74598 6.88137 10.8837 7.39658 12.0215C6.88137 13.1592 6.43057 14.2755 6.10856 15.3488C3.14613 14.4902 1.36438 13.2021 1.36438 12ZM7.48245 22.5832C6.6023 22.068 6.30177 20.4794 6.6667 18.2254C6.7311 17.7746 6.83844 17.3023 6.96724 16.8086C8.08352 17.0662 9.2642 17.2379 10.5093 17.3453C11.2392 18.3757 11.9905 19.2987 12.7418 20.136C11.1533 21.703 9.54327 22.7764 8.23379 22.7764C7.95472 22.7764 7.69711 22.712 7.48245 22.5832ZM20.5343 18.2254C20.8993 20.4794 20.5987 22.068 19.7186 22.5832C19.5039 22.712 19.2463 22.7764 18.9672 22.7764C17.6792 22.7764 16.0692 21.7245 14.4592 20.136C15.2105 19.3202 15.9619 18.3757 16.6917 17.3453C17.9368 17.2379 19.1175 17.0447 20.2338 16.8086C20.3626 17.3023 20.4485 17.7746 20.5343 18.2254ZM22.4663 14.8766C22.037 15.0483 21.5647 15.1986 21.0925 15.3274C20.749 14.254 20.3197 13.1163 19.8044 11.9785C20.3197 10.8408 20.7705 9.72451 21.0925 8.65116C24.0549 9.50984 25.8366 10.7979 25.8366 12C25.8366 13.0089 24.5916 14.0823 22.4663 14.8766Z"
		fill="currentColor"
	/>
</svg>
