<svg
	viewBox="0 0 29 24"
	fill="none"
	xmlns="http://www.w3.org/2000/svg"
	color="#D82C20"
>
	<path
		d="M1.4315 9.48138C2.92598 10.1952 11.1791 13.5187 12.4728 14.1433C13.7666 14.7678 14.7034 14.7678 16.354 13.9202C18.0046 13.0503 25.767 9.88288 27.2615 9.10218C28.0199 8.70068 28.3545 8.3884 28.3545 8.12073V5.33251C28.3545 5.04254 27.9753 4.79718 27.2392 4.52951C25.7893 3.99417 18.0716 0.938289 16.5994 0.380646C15.1272 -0.154691 14.525 -0.132385 12.7851 0.492174C11.0453 1.11673 2.85906 4.32876 1.38689 4.90871C0.673104 5.19868 0.271601 5.44404 0.271601 5.73402H0.22699V8.56684C0.271601 8.83451 0.69541 9.12449 1.4315 9.48138V9.48138ZM14.9041 9.88288L10.3761 8.0092L16.8671 7.00544L14.9041 9.88288V9.88288ZM24.741 5.42174L20.9044 6.93853L20.4806 7.09467L16.644 5.57788L20.9044 3.90495L24.741 5.42174V5.42174ZM13.4543 2.63352L12.8297 1.47363L14.7926 2.23202L16.644 1.62977L16.1533 2.83427L18.0269 3.54806L15.5956 3.79342L15.0603 5.10946L14.1904 3.65959L11.3798 3.41422L13.4543 2.63352V2.63352ZM8.61394 4.26184C10.5322 4.26184 12.0936 4.86409 12.0936 5.60018C12.0936 6.33627 10.5322 6.93853 8.61394 6.93853C6.69565 6.93853 5.13425 6.33627 5.13425 5.60018C5.13425 4.86409 6.69565 4.26184 8.61394 4.26184V4.26184ZM27.2615 11.0651C25.767 11.8458 18.0269 15.0355 16.3763 15.8831C14.7257 16.753 13.8112 16.7307 12.5174 16.1062C11.2237 15.4816 2.92598 12.1581 1.4538 11.4443C0.69541 11.0874 0.271601 10.7974 0.271601 10.5074V13.3403C0.271601 13.6302 0.69541 13.9202 1.4315 14.2771C2.92598 14.9909 11.1791 18.3144 12.4728 18.939C13.7666 19.5636 14.7034 19.5636 16.354 18.7159C18.0046 17.846 25.767 14.6786 27.2615 13.8979C28.0199 13.4964 28.3545 13.1841 28.3545 12.9165V10.1282C28.3545 10.3736 27.9976 10.6859 27.2615 11.0651V11.0651ZM27.2615 15.6824C25.767 16.4631 18.0269 19.6528 16.3763 20.5004C14.7257 21.3703 13.8112 21.348 12.5174 20.7235C11.2237 20.0989 2.92598 16.7753 1.4538 16.0616C0.69541 15.727 0.271601 15.4147 0.271601 15.1247V17.9575C0.271601 18.2475 0.69541 18.5375 1.4315 18.8944C2.92598 19.6082 11.1791 22.9317 12.4728 23.5563C13.7666 24.1808 14.7034 24.1808 16.354 23.3332C18.0046 22.4633 25.767 19.2959 27.2615 18.5152C28.0199 18.1137 28.3545 17.8014 28.3545 17.5337V14.7455C28.3545 15.0132 27.9976 15.3032 27.2615 15.6824Z"
		fill="currentColor"
	/>
</svg>
