<svg
	viewBox="0 0 26 24"
	fill="none"
	xmlns="http://www.w3.org/2000/svg"
	color="#764ABC"
>
	<path
		d="M17.8701 16.7617C16.0926 20.3957 12.98 22.8407 8.86218 23.6445C8.2308 23.7992 7.58265 23.8748 6.93262 23.8697C4.56264 23.8697 2.39016 22.8822 1.33552 21.2646C-0.0805472 19.1099 -0.562443 14.5418 4.10642 11.1626C4.20122 11.6781 4.39477 12.3851 4.52314 12.8038C3.60661 13.4847 2.85641 14.3646 2.32893 15.3772C1.45994 17.0836 1.55671 18.788 2.58568 20.3641C3.29667 21.4266 4.42242 22.0724 5.87008 22.2699C7.67825 22.4988 9.5126 22.1533 11.1137 21.2824C13.6239 19.9631 15.2967 18.3871 16.3908 16.2324C16.0814 15.9127 15.8983 15.4917 15.8753 15.0474C15.8588 14.5706 16.0321 14.1067 16.3572 13.7576C16.6823 13.4084 17.1326 13.2025 17.6094 13.185H17.6765C18.1402 13.1827 18.5871 13.3587 18.9247 13.6767C19.2622 13.9946 19.4646 14.4302 19.49 14.8932C19.5154 15.3562 19.3618 15.8113 19.061 16.1642C18.7602 16.5172 18.3352 16.741 17.874 16.7893L17.8701 16.7617ZM23.5324 12.7722C25.9438 15.5056 26.009 18.7228 25.0768 20.5892C24.2078 22.2936 21.9168 24 18.8358 24C17.3976 23.9707 15.9827 23.6304 14.6884 23.0026C15.1407 22.6807 15.7825 22.1652 16.136 21.8433C17.1342 22.2757 18.2083 22.5053 19.296 22.5188C21.2908 22.5188 22.8016 21.5866 23.7022 19.8822C24.2809 18.7564 24.3145 17.4371 23.7674 16.0862C23.0961 14.3865 21.9016 12.9444 20.3566 11.9684C18.3296 10.602 15.94 9.87357 13.4955 9.87689H12.9168C12.7819 10.1886 12.5624 10.4563 12.2831 10.6497C12.0039 10.843 11.6761 10.9544 11.3368 10.971H11.2756C10.8064 10.9653 10.3579 10.7768 10.0254 10.4457C9.69289 10.1145 9.50257 9.66684 9.49485 9.19765C9.48714 8.72845 9.66264 8.27473 9.98408 7.93285C10.3055 7.59098 10.7476 7.38788 11.2164 7.36669H11.2815C11.6082 7.36693 11.9285 7.4572 12.2072 7.62757C12.486 7.79794 12.7123 8.04183 12.8615 8.33246H13.377C17.485 8.33246 21.0913 9.90849 23.5324 12.7722V12.7722ZM7.18937 17.3147C7.15555 16.9867 7.235 16.6571 7.41452 16.3805C5.61333 13.26 4.64954 9.30415 6.1288 5.18631C7.18937 2.09151 9.85954 0 12.7549 0C15.8437 0 19.061 2.70375 19.4461 7.91376C18.9642 7.75379 18.2611 7.51876 17.8385 7.43186C17.7338 5.72745 16.294 1.48124 12.8832 1.54444C11.6607 1.57801 9.85954 2.15668 8.93328 3.34562C7.78752 4.76489 7.12098 6.51073 7.02939 8.33246C6.81229 10.8304 7.39834 13.3324 8.7022 15.474C8.77418 15.4477 8.85091 15.4369 8.92735 15.4424H8.99055C9.46826 15.4338 9.92983 15.6152 10.2737 15.9469C10.6176 16.2786 10.8157 16.7333 10.8243 17.211C10.833 17.6887 10.6515 18.1503 10.3198 18.4942C9.98814 18.8381 9.53343 19.0361 9.05573 19.0448H8.99055C8.52452 19.0431 8.0771 18.8617 7.74154 18.5383C7.40599 18.2148 7.20819 17.7744 7.18937 17.3088V17.3147Z"
		fill="currentColor"
	/>
</svg>
