<svg viewBox="0 0 48 24" fill="none" xmlns="http://www.w3.org/2000/svg">
	<path
		d="M23.9289 9.65347C19.5881 9.65347 15.6442 10.1753 12.7244 11.0258V18.2905C15.6442 19.141 19.5881 19.6628 23.9289 19.6628C28.8971 19.6628 33.3449 18.9793 36.3326 17.9018V11.4147C33.3449 10.3371 28.8971 9.65347 23.9289 9.65347Z"
		fill="#F34F29"
	/>
	<path
		d="M36.5267 16.2288C36.3996 15.8772 36.3741 15.4323 36.4819 15.0033C36.6748 14.2353 37.2212 13.8096 37.7024 14.0525C37.8218 14.1128 37.9258 14.2085 38.012 14.3301C38.0199 14.3301 38.0278 14.3301 38.0356 14.3306C38.0356 14.3306 39.5048 16.0819 38.1448 18.1561C38.1153 18.2738 35.621 21.1806 35.0436 21.2732C34.6656 21.3337 35.5346 18.3053 36.5267 16.2288Z"
		fill="#F34F29"
	/>
	<path
		d="M12.4225 15.8852C12.5973 15.5676 12.6585 15.1337 12.5615 14.684C12.3879 13.8788 11.7731 13.3283 11.1883 13.4544C11.0433 13.4857 10.9138 13.5557 10.8036 13.6555C10.7943 13.6536 10.785 13.6518 10.7757 13.6505C10.7757 13.6505 8.91942 15.0339 10.3781 17.4074C10.4047 17.5307 13.1433 20.9965 13.818 21.2249C14.2596 21.3743 13.4471 18.1736 12.4225 15.8852Z"
		fill="#F34F29"
	/>
	<path
		d="M10.2831 16.4522C10.6447 16.0412 11.5233 15.5434 11.456 14.926C11.3356 13.8204 10.4187 13.0133 9.40821 13.1235C9.15762 13.1508 8.92483 13.2321 8.71823 13.3555C8.70296 13.352 8.68773 13.3485 8.67246 13.3458C8.67246 13.3458 5.255 15.0234 7.20288 18.38C7.22125 18.5494 11.0891 23.5134 12.1754 23.8914C12.8863 24.1388 11.5188 19.6493 10.2831 16.4522Z"
		fill="#F34F29"
	/>
	<path
		d="M38.0478 16.3024C37.6293 15.9495 36.5255 15.6291 36.5005 15.0084C36.4559 13.8972 37.2429 12.9632 38.2586 12.9223C38.5105 12.9122 38.7527 12.958 38.9753 13.0495C38.9899 13.0438 39.0045 13.0381 39.0191 13.0331C39.0191 13.0331 42.6474 14.1857 41.2185 17.7939C41.2255 17.9641 38.1363 23.4466 37.118 23.9815C36.4516 24.3315 37.2996 19.6473 38.0478 16.3024Z"
		fill="#F34F29"
	/>
	<path
		d="M39.3527 13.6059C39.3237 13.5048 39.2948 13.4039 39.2649 13.3038L40.2768 11.8379C40.38 11.6888 40.4011 11.495 40.3338 11.3249C40.2665 11.1558 40.1198 11.0344 39.946 11.0047L38.2349 10.7144C38.1687 10.5791 38.0992 10.4459 38.0295 10.3137L38.7483 8.66807C38.8223 8.50031 38.8066 8.30549 38.7086 8.15336C38.611 8.00048 38.4452 7.91118 38.2684 7.91814L36.532 7.98122C36.4421 7.86416 36.3508 7.74814 36.2576 7.63428L36.6567 5.87034C36.6971 5.69118 36.646 5.50371 36.5213 5.37358C36.3973 5.24391 36.217 5.19026 36.0456 5.23234L34.3542 5.64811C34.2447 5.55132 34.1333 5.45576 34.0207 5.3621L34.0817 3.55121C34.0882 3.36789 34.0027 3.19368 33.856 3.09201C33.7094 2.98965 33.5231 2.97418 33.3628 3.05026L31.7849 3.80039C31.6578 3.72751 31.5301 3.65529 31.4009 3.58548L31.1221 1.80093C31.0939 1.62012 30.9775 1.46658 30.8146 1.39644C30.6522 1.32597 30.4661 1.34872 30.3235 1.45606L28.9168 2.51155C28.7783 2.46555 28.6391 2.42146 28.4982 2.37928L27.8919 0.68704C27.8302 0.514604 27.688 0.387907 27.5147 0.352292C27.342 0.316941 27.1642 0.376761 27.0444 0.510647L25.8603 1.83536C25.7171 1.81887 25.5739 1.80383 25.4301 1.79147L24.5159 0.25102C24.4232 0.0949733 24.2597 0 24.0834 0C23.9075 0 23.7436 0.0949733 23.6517 0.25102L22.7372 1.79147C22.5935 1.80383 22.4496 1.81887 22.3066 1.83536L21.1224 0.510647C21.0025 0.376761 20.8241 0.316941 20.6519 0.352292C20.4786 0.388302 20.3362 0.514604 20.2749 0.68704L19.6681 2.37928C19.5276 2.42146 19.3884 2.46591 19.2496 2.51155L17.8433 1.45606C17.7003 1.34836 17.5142 1.32564 17.3514 1.39644C17.1892 1.46658 17.0724 1.62012 17.0443 1.80093L16.7653 3.58548C16.6362 3.65529 16.5084 3.72708 16.381 3.80039L14.8033 3.05023C14.6431 2.97385 14.4561 2.98962 14.3102 3.09198C14.1636 3.19364 14.078 3.36786 14.0846 3.55118L14.1451 5.36207C14.0328 5.45573 13.9217 5.55129 13.8117 5.64808L12.1207 5.23231C11.9488 5.19059 11.7688 5.24388 11.6444 5.37355C11.5193 5.50367 11.4686 5.69115 11.5088 5.87031L11.9071 7.63424C11.8147 7.74857 11.7233 7.86412 11.6337 7.98119L9.89725 7.91811C9.72201 7.91293 9.55476 8.00045 9.45682 8.15333C9.35874 8.30545 9.34387 8.50028 9.41688 8.66803L10.1362 10.3137C10.0664 10.4458 9.99694 10.5791 9.93017 10.7143L8.21926 11.0047C8.04544 11.034 7.89889 11.1553 7.83129 11.3249C7.76411 11.495 7.78594 11.6887 7.8885 11.8379L8.90056 13.3037C8.89278 13.3296 8.88556 13.3557 8.87781 13.3817L8.32172 13.9723L9.81692 16.0845C9.81692 16.0845 24.1669 22.704 37.4778 16.1965C38.9983 15.9237 39.3527 13.6059 39.3527 13.6059Z"
		fill="#F34F29"
	/>
	<path
		d="M9.75931 16.1477C9.75931 16.1477 5.23442 15.9847 4.42959 11.5058L6.32893 10.6673C6.32893 10.6673 5.87015 13.8647 9.84475 14.2955L9.75931 16.1477Z"
		fill="#F34F29"
	/>
	<path
		d="M4.62838 8.48294C4.62838 8.48294 3.80511 6.84154 2.45827 4.74794C1.03947 5.44748 0.334031 7.36063 0.866706 9.2876C1.45521 11.4165 3.33169 12.7555 5.05797 12.2783C6.78424 11.8011 7.7066 9.68844 7.11806 7.55955C6.85725 6.61582 6.34307 5.82764 5.70128 5.28378C5.38879 6.96699 4.62838 8.48294 4.62838 8.48294Z"
		fill="#F34F29"
	/>
	<path
		d="M38.2799 16.1477C38.2799 16.1477 42.8048 15.9847 43.6097 11.5058L41.7103 10.6673C41.7103 10.6673 42.1691 13.8646 38.1945 14.2955L38.2799 16.1477Z"
		fill="#F34F29"
	/>
	<path
		d="M43.4109 8.48294C43.4109 8.48294 44.2342 6.84154 45.581 4.74794C46.9998 5.44745 47.7053 7.36063 47.1725 9.2876C46.584 11.4165 44.7076 12.7555 42.9813 12.2782C41.255 11.8011 40.3327 9.68844 40.9212 7.55955C41.182 6.61582 41.6962 5.82764 42.338 5.28378C42.6504 6.96699 43.4109 8.48294 43.4109 8.48294Z"
		fill="#F34F29"
	/>
	<path
		d="M26.6622 12.225C26.6622 12.225 28.2504 10.486 29.8386 12.225C29.8386 12.225 31.0866 14.5438 29.8386 15.7031C29.8386 15.7031 27.7967 17.3263 26.6622 15.7031C26.6622 15.7031 25.3008 14.4277 26.6622 12.225Z"
		fill="black"
	/>
	<path
		d="M28.6223 13.364C28.6223 14.0163 28.2378 14.5452 27.7635 14.5452C27.2893 14.5452 26.9048 14.0163 26.9048 13.364C26.9048 12.7116 27.2893 12.1827 27.7635 12.1827C28.2378 12.1827 28.6223 12.7116 28.6223 13.364Z"
		fill="white"
	/>
	<path
		d="M19.4958 11.6832C19.4958 11.6832 22.2803 10.4504 23.0402 13.2021C23.0402 13.2021 23.8363 16.4095 20.7536 16.5905C20.7536 16.5905 16.8227 15.8334 19.4958 11.6832Z"
		fill="black"
	/>
	<path
		d="M21.1154 13.3639C21.1154 14.0426 20.7154 14.593 20.2219 14.593C19.7286 14.593 19.3285 14.0426 19.3285 13.3639C19.3285 12.6852 19.7286 12.1349 20.2219 12.1349C20.7154 12.1349 21.1154 12.6852 21.1154 13.3639Z"
		fill="white"
	/>
	<path
		d="M22.8754 16.3829C22.9104 18.3337 25.0355 18.6425 25.0355 18.6425C26.7443 18.4468 27.1373 17.2892 27.1725 16.3733L22.8754 16.3829Z"
		fill="black"
	/>
</svg>
