<svg
	viewBox="0 0 33 24"
	fill="none"
	xmlns="http://www.w3.org/2000/svg"
	color="#CB6699"
>
	<path
		fill-rule="evenodd"
		clip-rule="evenodd"
		d="M0.633667 10.0077C0.633667 10.1874 0.686573 10.306 0.716221 10.4212C0.909444 11.1709 1.32477 11.8142 1.81754 12.401C2.51938 13.2373 3.37891 13.9105 4.2594 14.5436C5.02309 15.0926 5.80237 15.6293 6.56913 16.1742C6.70076 16.2678 6.82523 16.3754 6.9681 16.4901C6.84516 16.5566 6.74293 16.6151 6.63661 16.669C5.62474 17.1823 4.65122 17.7576 3.75386 18.4546C3.21304 18.8747 2.69011 19.3212 2.32079 19.9048C1.72655 20.8433 1.5162 21.8431 1.95913 22.9107C2.08846 23.2225 2.28577 23.4919 2.56411 23.691C2.65433 23.7554 2.75554 23.8193 2.8611 23.8443C3.13151 23.908 3.40703 23.9496 3.68076 24L4.45595 23.9995C5.31318 23.9231 6.09349 23.6294 6.79865 23.1428C7.90073 22.3821 8.64321 21.3624 8.96243 20.0535C9.19451 19.1022 9.20396 18.1499 8.93049 17.203C8.90431 17.1152 8.87412 17.0287 8.84001 16.9438C8.80678 16.8587 8.76768 16.7759 8.72167 16.6698L10.4791 15.6592L10.5054 15.6817C10.4735 15.7862 10.4395 15.8905 10.4106 15.9961C10.2018 16.7587 10.063 17.5347 10.1128 18.3263C10.166 19.1697 10.4014 19.9592 10.8952 20.6638C11.2944 21.2338 12.2457 21.255 12.67 20.683C12.8205 20.4798 12.9664 20.2674 13.0761 20.0407C13.3626 19.449 13.6279 18.8469 13.9016 18.2488L13.9494 18.1394C13.9297 18.4226 13.9067 18.6713 13.8963 18.9202C13.8799 19.309 13.9026 19.6954 14.0356 20.0653C14.1493 20.3817 14.3428 20.6181 14.7052 20.6598C14.9531 20.6881 15.1507 20.5746 15.3329 20.4307C15.6152 20.2076 15.8492 19.9295 16.0207 19.6131C16.5066 18.7209 17.0055 17.834 17.4458 16.9193C17.9222 15.9299 18.3388 14.9116 18.7813 13.9054L18.8544 13.727C18.9589 14.1377 19.0317 14.54 19.1659 14.9208C19.3218 15.3627 19.5148 15.7942 19.7249 16.2136C19.8243 16.4117 19.8128 16.5402 19.6751 16.7064C19.0984 17.4015 18.5318 18.1052 17.9647 18.808C17.8392 18.9632 17.7142 19.1211 17.6097 19.2906C17.5462 19.3976 17.5046 19.5161 17.487 19.6392C17.4694 19.7526 17.4964 19.8683 17.5623 19.9623C17.6282 20.0562 17.7279 20.1209 17.8405 20.143C18.0677 20.1919 18.3007 20.2085 18.5326 20.1923C19.3241 20.134 20.0428 19.8562 20.6782 19.3854C21.5015 18.7756 21.7657 17.9434 21.5664 16.9571C21.5125 16.6895 21.4171 16.4293 21.3243 16.1714C21.2827 16.0551 21.2799 15.9736 21.3558 15.8652C22.0139 14.9254 22.5762 13.9284 23.0991 12.9084C23.1198 12.8682 23.141 12.8281 23.1773 12.7852C23.3468 13.6669 23.6019 14.5168 24.0589 15.2879C23.8258 15.5125 23.595 15.7162 23.3862 15.9406C22.9264 16.4349 22.5276 16.9717 22.3196 17.6262C22.2301 17.9084 22.1614 18.1951 22.2013 18.4965C22.2631 18.9645 22.6465 19.2686 23.1068 19.162C24.0918 18.934 24.9422 18.4699 25.5635 17.6477C25.9816 17.0941 26.0197 16.4766 25.8446 15.8297C25.7966 15.6539 25.7396 15.4808 25.6782 15.2792C25.9213 15.2038 26.1582 15.1133 26.4033 15.0573C27.6759 14.767 28.9347 14.8176 30.161 15.2771C30.8769 15.5455 31.4552 15.9945 31.7982 16.701C32.2171 17.5646 31.9856 18.384 31.1715 18.9299C31.0956 18.9808 31.0087 19.0209 30.9459 19.0846C30.9257 19.1079 30.9107 19.1352 30.9016 19.1647C30.8926 19.1942 30.8898 19.2252 30.8935 19.2558C30.8988 19.2873 30.9819 19.3266 31.0297 19.3261C31.2973 19.3241 31.5143 19.1837 31.7226 19.0396C32.2445 18.6785 32.6253 18.1926 32.7074 17.5529L32.7235 17.5048L32.7038 17.0882C32.6959 17.0642 32.7097 17.0404 32.7079 17.0223C32.5969 16.0906 32.0993 15.3681 31.3755 14.8017C30.5372 14.1462 29.5473 13.8763 28.5004 13.8336C27.6514 13.797 26.8034 13.9275 26.0046 14.2177C25.7754 14.3008 25.5482 14.3992 25.3176 14.492C25.2867 14.436 25.2535 14.3823 25.2261 14.3269C24.9894 13.8423 24.7027 13.3791 24.6393 12.8235C24.5943 12.4289 24.5391 12.0348 24.6329 11.6445C24.7231 11.269 24.8407 10.9 24.9514 10.5296C25.0084 10.3389 24.9682 10.2321 24.7863 10.1462C24.7228 10.1146 24.6552 10.0924 24.5854 10.0803C24.1381 10.0154 23.6969 10.0524 23.2637 10.1784C23.1104 10.2232 22.9989 10.309 22.9649 10.4788C22.9455 10.5761 22.9059 10.6694 22.8783 10.7655C22.7651 11.165 22.6848 11.5721 22.5018 11.9527C22.0433 12.9073 21.5199 13.8259 20.9842 14.7378C20.9261 14.8362 20.8651 14.9328 20.792 15.0522C20.6038 14.6586 20.4032 14.3054 20.3424 13.8913C20.2736 13.4231 20.2194 12.9556 20.336 12.491C20.4226 12.1444 20.5359 11.8042 20.6401 11.4622C20.6895 11.2997 20.6667 11.2143 20.5195 11.1287C20.4451 11.0855 20.361 11.0472 20.2772 11.0347C19.8186 10.9648 19.35 11.0031 18.9088 11.1466C18.77 11.1916 18.6972 11.2813 18.6548 11.4244C18.53 11.8466 18.4237 12.2791 18.2486 12.6806C17.5396 14.3061 16.8102 15.9232 16.0815 17.5401C15.9294 17.8777 15.7513 18.2036 15.5798 18.5323C15.5364 18.6156 15.473 18.6889 15.4188 18.7671C15.3753 18.7158 15.3585 18.6805 15.3587 18.6452C15.36 18.4374 15.3352 18.2235 15.3748 18.0226C15.4965 17.415 15.6309 16.8101 15.7781 16.2082C15.8983 15.7108 16.0381 15.2181 16.1712 14.724C16.216 14.5587 16.2167 14.404 16.0979 14.265C15.8983 14.0322 15.4811 13.981 15.2337 14.1605L15.1243 14.2223L15.1456 14.046C15.1977 13.668 15.2082 13.2912 15.1044 12.9188C14.9751 12.4547 14.6438 12.1876 14.1623 12.2024C13.9379 12.2093 13.7023 12.2477 13.4945 12.3294C12.6206 12.6719 11.9487 13.2784 11.3767 14.0081C11.3237 14.0759 11.258 14.1327 11.1832 14.1753C10.4438 14.5852 9.7021 14.9901 8.96065 15.3965L8.13536 15.8486C7.91402 15.6375 7.71288 15.4185 7.48464 15.2326C6.78766 14.6642 6.07943 14.1099 5.37759 13.5478C4.7555 13.0497 4.15283 12.5309 3.69175 11.8712C3.34875 11.3805 3.12767 10.8435 3.10646 10.2367C3.07962 9.46357 3.29891 8.75713 3.69252 8.09951C4.19602 7.25812 4.88278 6.58286 5.63778 5.97125C6.43648 5.32461 7.30036 4.77562 8.19568 4.27441C9.4483 3.57334 10.7367 2.95278 12.1182 2.54308C13.5346 2.12289 14.9718 1.88239 16.4542 2.05005C17.0369 2.11599 17.6028 2.24941 18.1224 2.53439C18.5203 2.7524 18.8467 3.03789 18.9985 3.48414C19.1483 3.92324 19.1437 4.36821 19.0399 4.81421C18.8291 5.71745 18.3345 6.46197 17.7122 7.12726C16.6913 8.21784 15.4461 8.96032 14.0442 9.45079C13.2382 9.73316 12.3996 9.91206 11.5484 9.98317C10.851 10.0417 10.168 9.97985 9.5076 9.7373C9.07029 9.57654 8.68947 9.33066 8.38328 8.97387C8.32858 8.90997 8.25855 8.84071 8.15657 8.90051C8.05664 8.9593 8.039 9.05438 8.07249 9.15073C8.12846 9.31073 8.18009 9.47737 8.26724 9.6205C8.48628 9.9796 8.80576 10.24 9.15745 10.4634C9.83296 10.8931 10.588 11.0375 11.3708 11.0709C12.5588 11.1223 13.7179 10.9449 14.8606 10.6262C16.492 10.1713 17.9105 9.36772 19.0481 8.10002C19.9953 7.04445 20.6718 5.85317 20.8168 4.41473C20.8875 3.71264 20.8122 3.02486 20.4835 2.38436C20.1269 1.69044 19.56 1.17442 18.8822 0.818896C17.8952 0.301336 16.8299 0 15.7303 0H14.6288C13.2972 0 12.0098 0.381589 10.7584 0.836787C9.81123 1.18157 8.88244 1.58846 7.98073 2.03881C6.01707 3.02 4.18835 4.20311 2.68628 5.82991C1.93792 6.64037 1.30432 7.53466 0.939859 8.58768C0.829856 8.90206 0.735094 9.22158 0.655903 9.5451M7.77115 18.7495C7.68604 19.8892 7.1695 20.8131 6.3253 21.5615C5.85043 21.9822 5.30577 22.2817 4.67141 22.387C4.44138 22.4251 4.20599 22.4343 3.98286 22.3389C3.66466 22.203 3.59335 21.9206 3.58721 21.6197C3.57776 21.1403 3.74568 20.7068 3.97596 20.2943C4.27653 19.7565 4.71716 19.3466 5.18769 18.9637C5.92889 18.3602 6.73296 17.8496 7.55646 17.3676L7.61857 17.342C7.74585 17.8123 7.80642 18.2767 7.77115 18.7495V18.7495ZM14.2012 13.7965C14.1411 14.1605 14.066 14.5247 13.9596 14.8774C13.5921 16.0983 13.12 17.2814 12.6096 18.4487C12.5153 18.6647 12.3781 18.8617 12.2587 19.0664C12.2384 19.0979 12.2141 19.1266 12.1864 19.1518C12.0387 19.2977 11.8986 19.2901 11.824 19.0991C11.7371 18.8773 11.6837 18.6399 11.6376 18.405C11.6067 18.2473 11.6141 18.0817 11.6044 17.9201C11.6144 16.7715 11.9648 15.7277 12.5593 14.756C12.8044 14.3552 13.0712 13.9734 13.4789 13.7198C13.6057 13.641 13.7429 13.5803 13.8865 13.5394C14.1038 13.4783 14.2372 13.5788 14.2012 13.7965V13.7965ZM18.588 19.3857L20.1648 17.5447C20.2304 18.2284 19.0683 19.5932 18.588 19.3857ZM23.6238 18.1468C23.5124 18.2107 23.391 18.2567 23.2768 18.3158C23.1722 18.37 23.1377 18.3153 23.1347 18.2253C23.1331 18.163 23.1411 18.1009 23.1584 18.041C23.3713 17.2901 23.7631 16.6491 24.3461 16.1277L24.387 16.1067C24.6643 16.8825 24.3438 17.7343 23.6238 18.1468Z"
		fill="currentColor"
	/>
</svg>
