<svg
	viewBox="0 0 25 24"
	fill="none"
	xmlns="http://www.w3.org/2000/svg"
	color="#010101"
>
	<path
		d="M12.7235 0C6.10803 0 0.723511 5.38452 0.723511 12C0.723511 18.6155 6.10803 24 12.7235 24C19.339 24 24.7235 18.6155 24.7235 12C24.7235 5.38452 19.3392 0 12.7235 0ZM12.7235 2.00388C18.2561 2.00388 22.7198 6.46743 22.7198 12C22.7198 17.5328 18.2561 21.9963 12.7235 21.9963C7.19094 21.9963 2.7272 17.5328 2.7272 12C2.7272 6.46743 7.19094 2.00388 12.7235 2.00388Z"
		fill="currentColor"
	/>
	<path
		fill-rule="evenodd"
		clip-rule="evenodd"
		d="M9.80354 11.393C12.4313 9.24629 15.0017 7.02493 17.6868 4.94092C16.2785 7.10505 14.83 9.24047 13.4217 11.4044C12.2139 11.41 11.0058 11.41 9.80354 11.393ZM12.0249 12.5894C13.2386 12.5894 14.4465 12.5894 15.6544 12.6067C13.0095 14.7421 10.4505 16.9805 7.75988 19.0587C9.16817 16.8946 10.6166 14.7535 12.0249 12.5894Z"
		fill="currentColor"
	/>
</svg>
