<svg viewBox="0 0 25 24" fill="none" xmlns="http://www.w3.org/2000/svg">
	<path
		d="M22.4848 3.17551C19.8064 -0.0142278 14.5157 -0.959599 10.6919 1.06802L3.97395 4.6305C3.06514 5.10469 2.28533 5.73131 1.68421 6.47062C1.08309 7.20993 0.674154 8.04542 0.483467 8.92367C0.398506 9.31779 0.355268 9.71975 0.354468 10.1229C0.358593 11.2162 0.680716 12.2925 1.29328 13.2598C0.718966 13.9858 0.326905 14.801 0.140906 15.6564C-0.0496138 16.5504 -0.02293 17.4771 0.218718 18.3586C0.460592 19.2461 0.91284 20.0844 1.54921 20.8246C4.22745 24.0142 9.52993 24.9595 13.342 22.9321L20.0529 19.3694C20.9612 18.8947 21.7401 18.2673 22.3397 17.5273C22.9391 16.7872 23.346 15.951 23.5341 15.0723C23.6203 14.6773 23.6636 14.2766 23.6631 13.875C23.6614 12.7837 23.3434 11.7092 22.7359 10.742C23.31 10.0166 23.7021 9.20211 23.8884 8.34749C23.9717 7.95205 24.0141 7.55155 24.0152 7.15012C24.0156 5.72606 23.4804 4.33763 22.4848 3.17926V3.17551Z"
		fill="#FF3E00"
	/>
	<path
		d="M10.0352 21.125C9.59399 21.2196 9.14401 21.2673 8.69274 21.2675C7.83119 21.2677 6.98238 21.0941 6.21907 20.7612C5.45595 20.4286 4.80101 19.9469 4.31051 19.3574C3.71164 18.6607 3.38989 17.8254 3.39045 16.9687C3.39081 16.7272 3.41594 16.4864 3.46545 16.25C3.50576 16.0722 3.55999 15.8977 3.62764 15.7284L3.75439 15.4081L4.09695 15.6249C4.89251 16.1107 5.78144 16.4806 6.72569 16.7188L6.97469 16.7812L6.95125 16.9882V17.0956C6.95069 17.3546 7.04763 17.6075 7.22819 17.8183C7.37406 17.9979 7.57056 18.1453 7.80044 18.2473C8.03588 18.3505 8.29015 18.404 8.54725 18.4042C8.68297 18.4046 8.81834 18.3903 8.95093 18.3613C9.09481 18.3299 9.23381 18.2793 9.36418 18.2109L16.0748 14.6308C16.276 14.5246 16.4417 14.3778 16.5563 14.204C16.6706 14.0302 16.7303 13.835 16.7295 13.6366C16.7276 13.3777 16.6283 13.1257 16.4455 12.9159C16.2973 12.7385 16.0997 12.5938 15.8697 12.4937C15.6341 12.3926 15.3803 12.3409 15.124 12.3418C14.9882 12.3414 14.8529 12.3558 14.7203 12.3849C14.5771 12.4155 14.4388 12.4661 14.3097 12.5351L11.7512 13.8945C11.3207 14.12 10.8621 14.2875 10.3875 14.3925C9.9488 14.4866 9.49787 14.5346 9.04487 14.535C8.1835 14.535 7.33506 14.3613 6.57194 14.0291C5.80882 13.6968 5.1537 13.2157 4.66264 12.627C4.06451 11.9298 3.74277 11.0947 3.74258 10.2382C3.74295 9.99729 3.76808 9.75692 3.81758 9.51954C3.93251 8.99155 4.17776 8.48923 4.53832 8.04449C4.8987 7.59955 5.36632 7.22193 5.91138 6.93562L12.6291 3.37501C13.0506 3.15188 13.5103 2.98313 13.9928 2.87495C14.4315 2.78138 14.8825 2.73432 15.3353 2.73432C16.1987 2.73245 17.0498 2.90495 17.8155 3.23701C18.5813 3.56888 19.2386 4.05075 19.7316 4.64063C20.3261 5.33944 20.6438 6.17512 20.64 7.03124C20.6396 7.27343 20.6144 7.51493 20.5648 7.75199C20.5246 7.92978 20.4704 8.10413 20.4028 8.27342L20.2761 8.59367L19.9335 8.3848C19.1385 7.89824 18.2494 7.5283 17.3048 7.29093L17.0558 7.22662L17.0792 7.01943V6.91218C17.0792 6.65249 16.9825 6.39937 16.8023 6.18749C16.6543 6.01031 16.4573 5.86575 16.2274 5.76562C15.9923 5.6645 15.739 5.61262 15.483 5.61319C15.3486 5.61561 15.2149 5.63265 15.0842 5.664C14.94 5.69408 14.8009 5.74472 14.6712 5.81437L7.95344 9.37498C7.79407 9.45766 7.65316 9.57184 7.53925 9.7106C7.43302 9.84014 7.35865 9.99279 7.32213 10.1563C7.30559 10.2242 7.29536 10.2935 7.29156 10.3633C7.29138 10.6217 7.38812 10.8737 7.5685 11.084C7.71625 11.2612 7.9135 11.406 8.14318 11.5059C8.37829 11.607 8.63163 11.6588 8.88756 11.6582C9.02329 11.6586 9.15866 11.6441 9.29124 11.615C9.43537 11.5847 9.57449 11.5341 9.70449 11.4648L12.2676 10.0976C12.698 9.87165 13.1566 9.70417 13.6313 9.59961C14.0725 9.50514 14.5225 9.45738 14.9738 9.45711C15.8355 9.45711 16.6843 9.63054 17.4478 9.96279C18.2113 10.295 18.867 10.7764 19.3584 11.3653C19.9566 12.0622 20.2783 12.8973 20.2785 13.754C20.2791 13.9976 20.2532 14.2408 20.2011 14.4804C20.0869 15.0086 19.8416 15.5111 19.4813 15.956C19.1207 16.4008 18.6529 16.7782 18.1073 17.0643L11.4014 20.6249C10.9703 20.8516 10.5109 21.0197 10.0354 21.125H10.0352Z"
		fill="white"
	/>
</svg>
