<svg viewBox="0 0 26 24" fill="none" xmlns="http://www.w3.org/2000/svg">
	<path
		d="M25.8547 5.9627C25.8546 5.43239 25.8012 4.90345 25.6954 4.3838C25.5896 3.85184 25.4098 3.33734 25.1611 2.85532C24.9012 2.38844 24.5782 1.9596 24.2012 1.58091C23.8124 1.20048 23.3608 0.890087 22.8663 0.663418C22.3783 0.417349 21.8564 0.245404 21.3177 0.153252C20.7833 0.0504117 20.1965 0.0504117 19.6622 0H6.48053C6.06934 0.00669543 5.65907 0.041053 5.2525 0.10284C4.84903 0.150338 4.45408 0.253485 4.07891 0.409343C3.97204 0.459755 3.81274 0.512183 3.70587 0.562595C3.35092 0.752859 3.01352 0.974192 2.69763 1.224C2.59076 1.32684 2.48389 1.37725 2.37701 1.47807C1.98402 1.84258 1.65901 2.27411 1.41718 2.75248C1.15308 3.22772 0.97235 3.74469 0.882812 4.28096C0.803347 4.80426 0.75018 5.33122 0.723511 5.85986V18.0373C0.723677 18.5676 0.777044 19.0966 0.882812 19.6162C0.988632 20.1482 1.1685 20.6627 1.41718 21.1447C1.67706 21.6116 2.00004 22.0404 2.37701 22.4191C2.76582 22.7995 3.21743 23.1099 3.71192 23.3366C4.19991 23.5827 4.72186 23.7546 5.26056 23.8467C5.79493 23.9496 6.38172 23.9496 6.91608 24H19.6642C20.2196 23.9996 20.7737 23.9483 21.3197 23.8467C21.8584 23.7546 22.3804 23.5827 22.8684 23.3366C23.3523 23.0917 23.8012 22.7831 24.2033 22.4191C24.5963 22.0546 24.9213 21.623 25.1631 21.1447C25.4272 20.6694 25.6079 20.1525 25.6975 19.6162C25.7769 19.0929 25.8301 18.5659 25.8568 18.0373V5.9627H25.8547Z"
		fill="#F05138"
	/>
	<path
		d="M17.5207 18.5535C15.2804 19.7896 12.2012 19.9167 9.10193 18.6483C6.68544 17.6678 4.6193 15.9838 3.1715 13.8148C3.84434 14.3299 4.57943 14.7581 5.35937 15.0892C8.5595 16.5209 11.7576 16.4221 14.01 15.0892C10.8038 12.738 8.0816 9.68106 6.05303 7.18467C5.65272 6.76279 5.29539 6.30211 4.98632 5.80944C7.43835 7.94892 11.3382 10.649 12.7255 11.4132C10.7447 9.38361 8.92441 7.20331 7.28106 4.89195C10.0128 7.5466 13.0187 9.90363 16.2483 11.9234C16.3915 12 16.5024 12.0645 16.5911 12.125C16.6858 11.8939 16.7672 11.6576 16.8351 11.4172C17.5832 8.81801 16.7282 5.86389 14.861 3.41791C19.1843 5.91228 21.7553 10.5986 20.6785 14.5226C20.6502 14.6295 20.62 14.7242 20.5877 14.8352L20.626 14.8795C22.7615 17.4263 22.1747 20.1223 21.9065 19.6182C20.747 17.4445 18.6035 18.1159 17.5207 18.5535Z"
		fill="#FEFEFE"
	/>
</svg>
