<svg
	viewBox="0 0 41 24"
	fill="none"
	xmlns="http://www.w3.org/2000/svg"
	color="#38B2AC"
>
	<path
		d="M20.8578 0C15.5241 0 12.1918 2.66576 10.8573 7.99948C12.8568 5.3334 15.191 4.33366 17.8571 5.00026C19.3793 5.37966 20.4672 6.48346 21.672 7.70665C23.6327 9.69644 25.9022 12 30.8584 12C36.1918 12 39.5244 9.33392 40.8589 3.99896C38.8591 6.6666 36.5252 7.66634 33.8588 6.99974C32.3369 6.62003 31.2503 5.51654 30.044 4.29335C28.0845 2.30356 25.8156 0 20.8578 0V0ZM10.8573 12C5.52393 12 2.19126 14.6661 0.856812 20.001C2.85629 17.3334 5.19016 16.3337 7.85655 17.0003C9.37882 17.38 10.4667 18.4835 11.6714 19.7067C13.6322 21.6964 15.9017 24 20.8578 24C26.1913 24 29.5239 21.3342 30.8584 16.0005C28.8586 18.6666 26.5247 19.6663 23.8583 18.9997C22.3364 18.6203 21.2497 17.5165 20.0434 16.2933C18.084 14.3036 15.8151 12 10.8573 12Z"
		fill="currentColor"
	/>
</svg>
