<svg viewBox="0 0 25 24" fill="none" xmlns="http://www.w3.org/2000/svg">
	<path d="M4.2594 8.75328H23.396V22.8979H4.2594V8.75328Z" fill="white" />
	<path
		d="M0.194763 24H24.1948V0H0.194763V24ZM19.5349 11.04C20.1098 11.1734 20.6322 11.474 21.0364 11.904C21.2589 12.1356 21.4523 12.3935 21.6124 12.672C21.6124 12.7027 20.5756 13.4035 19.9439 13.7952C19.9208 13.8106 19.8287 13.7107 19.7269 13.559C19.6116 13.3601 19.4478 13.1935 19.2507 13.075C19.0536 12.9565 18.8297 12.8899 18.5999 12.8813C17.8722 12.8314 17.4037 13.2134 17.4076 13.8413C17.4015 13.9976 17.4373 14.1527 17.5112 14.2906C17.6706 14.6227 17.9682 14.8205 18.9013 15.2237C20.6197 15.9629 21.3551 16.4506 21.812 17.1437C22.3228 17.9117 22.436 19.152 22.0904 20.0698C21.7064 21.0682 20.7656 21.7459 19.4351 21.9706C18.8274 22.0402 18.2134 22.0337 17.6072 21.9514C16.6783 21.7982 15.8226 21.3522 15.165 20.6784C14.9442 20.4346 14.5141 19.799 14.541 19.753C14.6111 19.7009 14.6849 19.6541 14.7618 19.6128L15.6508 19.1213L16.34 18.7219L16.484 18.935C16.7271 19.2827 17.0363 19.5789 17.3941 19.8067C18.1621 20.2099 19.2104 20.1542 19.7288 19.6877C19.9029 19.5167 20.0115 19.2901 20.0357 19.0474C20.0599 18.8046 19.9982 18.561 19.8613 18.359C19.6693 18.0922 19.2853 17.8675 18.212 17.399C16.9736 16.8653 16.4399 16.535 15.9522 16.009C15.6478 15.6618 15.423 15.2522 15.2936 14.809C15.1972 14.3025 15.1829 13.7839 15.2514 13.273C15.5068 12.0768 16.4034 11.2416 17.7128 10.9939C18.3193 10.9189 18.9335 10.9357 19.5349 11.0438V11.04ZM13.9016 12.0461V13.0291H10.7855V21.9053H8.57556V13.0272H5.45172V12.0672C5.44199 11.7361 5.44968 11.4048 5.47476 11.0746C5.49012 11.0573 7.39476 11.0573 9.69876 11.0573H13.8901L13.9016 12.0461Z"
		fill="#007ACC"
	/>
</svg>
