<svg viewBox="0 0 23 24" fill="none" xmlns="http://www.w3.org/2000/svg">
	<path
		d="M21.8265 18.4952L12.1027 24V19.7124L18.1522 16.381L21.8265 18.4952ZM22.4932 17.8933V6.39048L18.9351 8.44762V15.84L22.4913 17.8914L22.4932 17.8933ZM1.52555 18.4952L11.2398 23.9962V19.7124L5.18841 16.381L1.52555 18.4952ZM0.858887 17.8933V6.39048L4.41698 8.44762V15.84L0.858887 17.8933ZM1.27603 5.64571L11.2494 0V4.14476L4.85889 7.65905L4.80746 7.68762L1.27603 5.64571ZM22.0722 5.64571L12.1027 0V4.14476L18.4932 7.65714L18.5446 7.68571L22.076 5.64571H22.0722Z"
		fill="#8ED6FB"
	/>
	<path
		d="M11.2494 18.7371L5.27032 15.4476V8.93714L11.2494 12.381V18.7371ZM12.1027 18.7371L18.0817 15.4514V8.93714L12.1027 12.381V18.7371ZM5.67603 8.19048L11.676 4.88762L17.676 8.19048L11.676 11.6495L5.67603 8.19048Z"
		fill="#1C78C0"
	/>
</svg>
