<svg
	color="rgb(var(--foreground, 0, 0, 0))"
	viewBox="0 0 11 24"
	fill="none"
	xmlns="http://www.w3.org/2000/svg"
>
	<path
		d="M4.25781 20.6797C4.82031 20.6797 5.34635 20.5729 5.83594 20.3594C6.33073 20.151 6.76302 19.8594 7.13281 19.4844C7.50781 19.1094 7.79948 18.6745 8.00781 18.1797C8.22135 17.6901 8.32812 17.1641 8.32812 16.6016C8.32812 16.0078 8.20833 15.4531 7.96875 14.9375C7.72917 14.4219 7.375 13.9531 6.90625 13.5312C6.82292 13.4531 6.76823 13.3828 6.74219 13.3203C6.71615 13.2578 6.70312 13.1693 6.70312 13.0547V5.99219C6.70312 5.46615 6.59896 5.0026 6.39062 4.60156C6.1875 4.20052 5.90104 3.88802 5.53125 3.66406C5.16667 3.4349 4.74219 3.32031 4.25781 3.32031C3.76823 3.32031 3.33854 3.4349 2.96875 3.66406C2.59896 3.88802 2.3099 4.20052 2.10156 4.60156C1.89323 5.0026 1.78906 5.46615 1.78906 5.99219V13.0547C1.78906 13.1693 1.77604 13.2578 1.75 13.3203C1.72396 13.3828 1.66927 13.4531 1.58594 13.5312C1.1224 13.9531 0.768229 14.4219 0.523438 14.9375C0.283854 15.4531 0.164062 16.0078 0.164062 16.6016C0.164062 17.1641 0.268229 17.6901 0.476562 18.1797C0.690104 18.6745 0.984375 19.1094 1.35938 19.4844C1.73438 19.8594 2.16927 20.151 2.66406 20.3594C3.15885 20.5729 3.6901 20.6797 4.25781 20.6797ZM4.25781 19.5469C3.71094 19.5469 3.21354 19.4141 2.76562 19.1484C2.32292 18.8828 1.96875 18.526 1.70312 18.0781C1.44271 17.6354 1.3125 17.1432 1.3125 16.6016C1.3125 16.112 1.42448 15.6562 1.64844 15.2344C1.8724 14.8125 2.1901 14.4635 2.60156 14.1875C2.72135 14.1042 2.80729 14.0182 2.85938 13.9297C2.91146 13.8411 2.9375 13.7161 2.9375 13.5547V6.03906C2.9375 5.57031 3.0599 5.19271 3.30469 4.90625C3.54948 4.61458 3.86719 4.46875 4.25781 4.46875C4.63802 4.46875 4.95052 4.61458 5.19531 4.90625C5.4401 5.19271 5.5625 5.57031 5.5625 6.03906V13.5547C5.5625 13.7161 5.58594 13.8411 5.63281 13.9297C5.6849 14.0182 5.77344 14.1042 5.89844 14.1875C6.3099 14.4635 6.6276 14.8125 6.85156 15.2344C7.07552 15.6562 7.1875 16.112 7.1875 16.6016C7.1875 17.1432 7.05469 17.6354 6.78906 18.0781C6.52344 18.526 6.16927 18.8828 5.72656 19.1484C5.28385 19.4141 4.79427 19.5469 4.25781 19.5469ZM4.25 18.4922C4.59896 18.4922 4.91406 18.4062 5.19531 18.2344C5.48177 18.0677 5.71094 17.8411 5.88281 17.5547C6.05469 17.263 6.14062 16.9427 6.14062 16.5938C6.14062 16.2292 6.04688 15.9036 5.85938 15.6172C5.67188 15.3255 5.42708 15.0964 5.125 14.9297C5 14.862 4.91146 14.7917 4.85938 14.7188C4.8125 14.6458 4.78906 14.513 4.78906 14.3203V10.1406C4.78906 9.95312 4.73698 9.80469 4.63281 9.69531C4.52865 9.58073 4.40104 9.52344 4.25 9.52344C4.09896 9.52344 3.97135 9.58073 3.86719 9.69531C3.76302 9.80469 3.71094 9.95312 3.71094 10.1406V14.3203C3.71094 14.513 3.6849 14.6458 3.63281 14.7188C3.58594 14.7917 3.5 14.862 3.375 14.9297C3.07292 15.0964 2.82812 15.3255 2.64062 15.6172C2.45312 15.9036 2.35938 16.2292 2.35938 16.5938C2.35938 16.9427 2.44271 17.263 2.60938 17.5547C2.78125 17.8411 3.01042 18.0677 3.29688 18.2344C3.58333 18.4062 3.90104 18.4922 4.25 18.4922ZM8.17188 6.1875H9.86719C10.0078 6.1875 10.1198 6.14323 10.2031 6.05469C10.2865 5.96094 10.3281 5.85417 10.3281 5.73438C10.3281 5.61458 10.2865 5.51042 10.2031 5.42188C10.1198 5.32812 10.0078 5.28125 9.86719 5.28125H8.17188C8.03646 5.28125 7.92448 5.32812 7.83594 5.42188C7.7526 5.51042 7.71094 5.61458 7.71094 5.73438C7.71094 5.85417 7.7526 5.96094 7.83594 6.05469C7.92448 6.14323 8.03646 6.1875 8.17188 6.1875ZM8.17188 8.38281H9.86719C10.0078 8.38281 10.1198 8.33854 10.2031 8.25C10.2865 8.15625 10.3281 8.04948 10.3281 7.92969C10.3281 7.8099 10.2865 7.70573 10.2031 7.61719C10.1198 7.52344 10.0078 7.47656 9.86719 7.47656H8.17188C8.03646 7.47656 7.92448 7.52344 7.83594 7.61719C7.7526 7.70573 7.71094 7.8099 7.71094 7.92969C7.71094 8.04948 7.7526 8.15625 7.83594 8.25C7.92448 8.33854 8.03646 8.38281 8.17188 8.38281ZM8.17188 10.5781H9.86719C10.0078 10.5781 10.1198 10.5339 10.2031 10.4453C10.2865 10.3516 10.3281 10.2448 10.3281 10.125C10.3281 10 10.2865 9.89323 10.2031 9.80469C10.1198 9.71094 10.0078 9.66406 9.86719 9.66406H8.17188C8.03646 9.66406 7.92448 9.71094 7.83594 9.80469C7.7526 9.89323 7.71094 10 7.71094 10.125C7.71094 10.2448 7.7526 10.3516 7.83594 10.4453C7.92448 10.5339 8.03646 10.5781 8.17188 10.5781ZM8.17188 12.7734H9.86719C10.0078 12.7734 10.1198 12.7292 10.2031 12.6406C10.2865 12.5469 10.3281 12.4401 10.3281 12.3203C10.3281 12.1953 10.2865 12.0885 10.2031 12C10.1198 11.9062 10.0078 11.8594 9.86719 11.8594H8.17188C8.03646 11.8594 7.92448 11.9062 7.83594 12C7.7526 12.0885 7.71094 12.1953 7.71094 12.3203C7.71094 12.4401 7.7526 12.5469 7.83594 12.6406C7.92448 12.7292 8.03646 12.7734 8.17188 12.7734Z"
		fill="currentColor"
	/>
</svg>
