<svg
	color="rgb(var(--foreground, 0, 0, 0))"
	viewBox="0 0 14 24"
	fill="none"
	xmlns="http://www.w3.org/2000/svg"
>
	<path
		d="M6.28125 3.32031C5.64583 3.32031 5.10938 3.50781 4.67188 3.88281C4.23958 4.25781 3.97396 4.75781 3.875 5.38281L3.86719 5.89844L4.96094 6.99219V6.03906C4.96094 5.57031 5.08073 5.19271 5.32031 4.90625C5.5651 4.61458 5.88542 4.46875 6.28125 4.46875C6.66146 4.46875 6.97396 4.61458 7.21875 4.90625C7.46354 5.19271 7.58594 5.57031 7.58594 6.03906V9.61719L8.72656 10.7656V6.03906C8.72656 5.4974 8.6224 5.02344 8.41406 4.61719C8.21094 4.20573 7.92448 3.88802 7.55469 3.66406C7.1901 3.4349 6.76562 3.32031 6.28125 3.32031ZM6.28125 20.6797C6.95833 20.6797 7.58333 20.526 8.15625 20.2188C8.72917 19.9167 9.20312 19.5052 9.57812 18.9844C9.95833 18.4635 10.1953 17.8776 10.2891 17.2266C10.3047 17.138 10.3125 17.0495 10.3125 16.9609C10.3177 16.8724 10.3177 16.7839 10.3125 16.6953L8.88281 15.2656C8.99219 15.4688 9.07292 15.6823 9.125 15.9062C9.18229 16.1302 9.21094 16.362 9.21094 16.6016C9.21094 17.1432 9.07812 17.6354 8.8125 18.0781C8.54688 18.526 8.19271 18.8828 7.75 19.1484C7.30729 19.4141 6.81771 19.5469 6.28125 19.5469C5.73438 19.5469 5.23698 19.4141 4.78906 19.1484C4.34635 18.8828 3.99219 18.526 3.72656 18.0781C3.46615 17.6354 3.33594 17.1432 3.33594 16.6016C3.33594 16.112 3.44792 15.6562 3.67188 15.2344C3.89583 14.8125 4.21354 14.4635 4.625 14.1875C4.74479 14.1042 4.83073 14.0182 4.88281 13.9297C4.9349 13.8411 4.96094 13.7161 4.96094 13.5547V11.2812L3.8125 10.1328V13.0547C3.8125 13.1693 3.79948 13.2578 3.77344 13.3203C3.7474 13.3828 3.69271 13.4531 3.60938 13.5312C3.14583 13.9531 2.79167 14.4219 2.54688 14.9375C2.30729 15.4531 2.1875 16.0078 2.1875 16.6016C2.1875 17.1641 2.29167 17.6901 2.5 18.1797C2.71354 18.6745 3.00781 19.1094 3.38281 19.4844C3.75781 19.8594 4.19271 20.151 4.6875 20.3594C5.18229 20.5729 5.71354 20.6797 6.28125 20.6797ZM6.27344 18.4922C6.6224 18.4922 6.9375 18.4062 7.21875 18.2344C7.50521 18.0677 7.73438 17.8411 7.90625 17.5547C8.07812 17.263 8.16406 16.9427 8.16406 16.5938C8.16406 16.2292 8.07031 15.9036 7.88281 15.6172C7.69531 15.3255 7.45052 15.0964 7.14844 14.9297C7.02344 14.862 6.9349 14.7917 6.88281 14.7188C6.83594 14.6458 6.8125 14.513 6.8125 14.3203V13.125L5.73438 12.0469V14.3203C5.73438 14.513 5.70833 14.6458 5.65625 14.7188C5.60938 14.7917 5.52344 14.862 5.39844 14.9297C5.09635 15.0964 4.85156 15.3255 4.66406 15.6172C4.47656 15.9036 4.38281 16.2292 4.38281 16.5938C4.38281 16.9427 4.46615 17.263 4.63281 17.5547C4.80469 17.8411 5.03385 18.0677 5.32031 18.2344C5.60677 18.4062 5.92448 18.4922 6.27344 18.4922ZM10.1953 6.1875H11.8906C12.0312 6.1875 12.1432 6.14323 12.2266 6.05469C12.3099 5.96094 12.3516 5.85417 12.3516 5.73438C12.3516 5.61458 12.3099 5.51042 12.2266 5.42188C12.1432 5.32812 12.0312 5.28125 11.8906 5.28125H10.1953C10.0599 5.28125 9.94792 5.32812 9.85938 5.42188C9.77604 5.51042 9.73438 5.61458 9.73438 5.73438C9.73438 5.85417 9.77604 5.96094 9.85938 6.05469C9.94792 6.14323 10.0599 6.1875 10.1953 6.1875ZM10.1953 8.38281H11.8906C12.0312 8.38281 12.1432 8.33854 12.2266 8.25C12.3099 8.15625 12.3516 8.04948 12.3516 7.92969C12.3516 7.8099 12.3099 7.70573 12.2266 7.61719C12.1432 7.52344 12.0312 7.47656 11.8906 7.47656H10.1953C10.0599 7.47656 9.94792 7.52344 9.85938 7.61719C9.77604 7.70573 9.73438 7.8099 9.73438 7.92969C9.73438 8.04948 9.77604 8.15625 9.85938 8.25C9.94792 8.33854 10.0599 8.38281 10.1953 8.38281ZM10.1953 10.5781H11.8906C12.0312 10.5781 12.1432 10.5339 12.2266 10.4453C12.3099 10.3516 12.3516 10.2448 12.3516 10.125C12.3516 10 12.3099 9.89323 12.2266 9.80469C12.1432 9.71094 12.0312 9.66406 11.8906 9.66406H10.1953C10.0599 9.66406 9.94792 9.71094 9.85938 9.80469C9.77604 9.89323 9.73438 10 9.73438 10.125C9.73438 10.2448 9.77604 10.3516 9.85938 10.4453C9.94792 10.5339 10.0599 10.5781 10.1953 10.5781ZM12.9453 17.9688C13.0599 18.0885 13.2005 18.1484 13.3672 18.1484C13.5391 18.1484 13.6823 18.0885 13.7969 17.9688C13.9115 17.849 13.9688 17.7083 13.9688 17.5469C13.9688 17.3802 13.9115 17.237 13.7969 17.1172L1.52344 4.85156C1.40885 4.73177 1.26562 4.67188 1.09375 4.67188C0.927083 4.67188 0.783854 4.73177 0.664062 4.85156C0.549479 4.96615 0.492188 5.10938 0.492188 5.28125C0.492188 5.44792 0.549479 5.58854 0.664062 5.70312L12.9453 17.9688Z"
		fill="currentColor"
	/>
</svg>
