<svg
	color="rgb(var(--foreground, 0, 0, 0))"
	viewBox="0 0 11 24"
	fill="none"
	xmlns="http://www.w3.org/2000/svg"
>
	<path
		d="M4.42188 20.6797C4.98438 20.6797 5.51042 20.5729 6 20.3594C6.49479 20.151 6.92708 19.8594 7.29688 19.4844C7.67188 19.1094 7.96354 18.6745 8.17188 18.1797C8.38542 17.6901 8.49219 17.1641 8.49219 16.6016C8.49219 16.0078 8.3724 15.4531 8.13281 14.9375C7.89323 14.4219 7.53906 13.9531 7.07031 13.5312C6.98698 13.4531 6.93229 13.3828 6.90625 13.3203C6.88021 13.2578 6.86719 13.1693 6.86719 13.0547V5.99219C6.86719 5.46615 6.76302 5.0026 6.55469 4.60156C6.35156 4.20052 6.0651 3.88802 5.69531 3.66406C5.33073 3.4349 4.90625 3.32031 4.42188 3.32031C3.93229 3.32031 3.5026 3.4349 3.13281 3.66406C2.76302 3.88802 2.47396 4.20052 2.26562 4.60156C2.05729 5.0026 1.95312 5.46615 1.95312 5.99219V13.0547C1.95312 13.1693 1.9401 13.2578 1.91406 13.3203C1.88802 13.3828 1.83333 13.4531 1.75 13.5312C1.28646 13.9531 0.932292 14.4219 0.6875 14.9375C0.447917 15.4531 0.328125 16.0078 0.328125 16.6016C0.328125 17.1641 0.432292 17.6901 0.640625 18.1797C0.854167 18.6745 1.14844 19.1094 1.52344 19.4844C1.89844 19.8594 2.33333 20.151 2.82812 20.3594C3.32292 20.5729 3.85417 20.6797 4.42188 20.6797ZM4.42188 19.5469C3.875 19.5469 3.3776 19.4141 2.92969 19.1484C2.48698 18.8828 2.13281 18.526 1.86719 18.0781C1.60677 17.6354 1.47656 17.1432 1.47656 16.6016C1.47656 16.112 1.58854 15.6562 1.8125 15.2344C2.03646 14.8125 2.35417 14.4635 2.76562 14.1875C2.88542 14.1042 2.97135 14.0182 3.02344 13.9297C3.07552 13.8411 3.10156 13.7161 3.10156 13.5547V6.03906C3.10156 5.57031 3.22396 5.19271 3.46875 4.90625C3.71354 4.61458 4.03125 4.46875 4.42188 4.46875C4.80208 4.46875 5.11458 4.61458 5.35938 4.90625C5.60417 5.19271 5.72656 5.57031 5.72656 6.03906V13.5547C5.72656 13.7161 5.75 13.8411 5.79688 13.9297C5.84896 14.0182 5.9375 14.1042 6.0625 14.1875C6.47396 14.4635 6.79167 14.8125 7.01562 15.2344C7.23958 15.6562 7.35156 16.112 7.35156 16.6016C7.35156 17.1432 7.21875 17.6354 6.95312 18.0781C6.6875 18.526 6.33333 18.8828 5.89062 19.1484C5.44792 19.4141 4.95833 19.5469 4.42188 19.5469ZM4.41406 18.4922C4.76302 18.4922 5.07812 18.4062 5.35938 18.2344C5.64583 18.0677 5.875 17.8411 6.04688 17.5547C6.21875 17.263 6.30469 16.9427 6.30469 16.5938C6.30469 16.2292 6.21094 15.9036 6.02344 15.6172C5.83594 15.3255 5.59115 15.0964 5.28906 14.9297C5.16406 14.862 5.07552 14.7917 5.02344 14.7188C4.97656 14.6458 4.95312 14.513 4.95312 14.3203V12.875C4.95312 12.6875 4.90104 12.5391 4.79688 12.4297C4.69271 12.3151 4.5651 12.2578 4.41406 12.2578C4.26302 12.2578 4.13542 12.3151 4.03125 12.4297C3.92708 12.5391 3.875 12.6875 3.875 12.875V14.3203C3.875 14.513 3.84896 14.6458 3.79688 14.7188C3.75 14.7917 3.66406 14.862 3.53906 14.9297C3.23698 15.0964 2.99219 15.3255 2.80469 15.6172C2.61719 15.9036 2.52344 16.2292 2.52344 16.5938C2.52344 16.9427 2.60677 17.263 2.77344 17.5547C2.94531 17.8411 3.17448 18.0677 3.46094 18.2344C3.7474 18.4062 4.0651 18.4922 4.41406 18.4922ZM8.33594 6.1875H10.0312C10.1719 6.1875 10.2839 6.14323 10.3672 6.05469C10.4505 5.96094 10.4922 5.85417 10.4922 5.73438C10.4922 5.61458 10.4505 5.51042 10.3672 5.42188C10.2839 5.32812 10.1719 5.28125 10.0312 5.28125H8.33594C8.20052 5.28125 8.08854 5.32812 8 5.42188C7.91667 5.51042 7.875 5.61458 7.875 5.73438C7.875 5.85417 7.91667 5.96094 8 6.05469C8.08854 6.14323 8.20052 6.1875 8.33594 6.1875ZM8.33594 8.38281H10.0312C10.1719 8.38281 10.2839 8.33854 10.3672 8.25C10.4505 8.15625 10.4922 8.04948 10.4922 7.92969C10.4922 7.8099 10.4505 7.70573 10.3672 7.61719C10.2839 7.52344 10.1719 7.47656 10.0312 7.47656H8.33594C8.20052 7.47656 8.08854 7.52344 8 7.61719C7.91667 7.70573 7.875 7.8099 7.875 7.92969C7.875 8.04948 7.91667 8.15625 8 8.25C8.08854 8.33854 8.20052 8.38281 8.33594 8.38281ZM8.33594 10.5781H10.0312C10.1719 10.5781 10.2839 10.5339 10.3672 10.4453C10.4505 10.3516 10.4922 10.2448 10.4922 10.125C10.4922 10 10.4505 9.89323 10.3672 9.80469C10.2839 9.71094 10.1719 9.66406 10.0312 9.66406H8.33594C8.20052 9.66406 8.08854 9.71094 8 9.80469C7.91667 9.89323 7.875 10 7.875 10.125C7.875 10.2448 7.91667 10.3516 8 10.4453C8.08854 10.5339 8.20052 10.5781 8.33594 10.5781ZM8.33594 12.7734H10.0312C10.1719 12.7734 10.2839 12.7292 10.3672 12.6406C10.4505 12.5469 10.4922 12.4401 10.4922 12.3203C10.4922 12.1953 10.4505 12.0885 10.3672 12C10.2839 11.9062 10.1719 11.8594 10.0312 11.8594H8.33594C8.20052 11.8594 8.08854 11.9062 8 12C7.91667 12.0885 7.875 12.1953 7.875 12.3203C7.875 12.4401 7.91667 12.5469 8 12.6406C8.08854 12.7292 8.20052 12.7734 8.33594 12.7734Z"
		fill="currentColor"
	/>
</svg>
