<svg
	color="rgb(var(--foreground, 0, 0, 0))"
	viewBox="0 0 17 24"
	fill="none"
	xmlns="http://www.w3.org/2000/svg"
>
	<path
		d="M4.94531 22.0625C5.50781 22.0625 6.03385 21.9557 6.52344 21.7422C7.01823 21.5339 7.45052 21.2422 7.82031 20.8672C8.19531 20.4922 8.48698 20.0573 8.69531 19.5625C8.90885 19.0729 9.01562 18.5469 9.01562 17.9844C9.01562 17.3906 8.89583 16.8359 8.65625 16.3203C8.41667 15.8047 8.0625 15.3359 7.59375 14.9141C7.51042 14.8359 7.45573 14.7656 7.42969 14.7031C7.40365 14.6406 7.39062 14.5521 7.39062 14.4375L7.39844 7.375C7.39844 6.84375 7.29427 6.3776 7.08594 5.97656C6.88281 5.57552 6.59635 5.26302 6.22656 5.03906C5.85677 4.8151 5.42969 4.70312 4.94531 4.70312C4.45573 4.70312 4.02344 4.8151 3.64844 5.03906C3.27865 5.26302 2.98958 5.57552 2.78125 5.97656C2.57292 6.3776 2.46875 6.84375 2.46875 7.375L2.47656 14.4375C2.47656 14.5521 2.46354 14.6406 2.4375 14.7031C2.41146 14.7656 2.35677 14.8359 2.27344 14.9141C1.8099 15.3359 1.45573 15.8047 1.21094 16.3203C0.971354 16.8359 0.851562 17.3906 0.851562 17.9844C0.851562 18.5469 0.955729 19.0729 1.16406 19.5625C1.3776 20.0573 1.67188 20.4922 2.04688 20.8672C2.42188 21.2422 2.85677 21.5339 3.35156 21.7422C3.84635 21.9557 4.3776 22.0625 4.94531 22.0625ZM4.94531 20.9297C4.39844 20.9297 3.90104 20.7969 3.45312 20.5312C3.01042 20.2656 2.65625 19.9089 2.39062 19.4609C2.13021 19.013 2 18.5208 2 17.9844C2 17.4948 2.11198 17.0391 2.33594 16.6172C2.5599 16.1953 2.8776 15.8464 3.28906 15.5703C3.40885 15.487 3.49479 15.401 3.54688 15.3125C3.59896 15.224 3.625 15.099 3.625 14.9375V7.42188C3.625 6.95312 3.7474 6.57552 3.99219 6.28906C4.23698 5.9974 4.55469 5.85156 4.94531 5.85156C5.32552 5.85156 5.63802 5.9974 5.88281 6.28906C6.1276 6.57552 6.25 6.95312 6.25 7.42188V14.9375C6.25 15.099 6.27344 15.224 6.32031 15.3125C6.3724 15.401 6.46094 15.487 6.58594 15.5703C6.9974 15.8464 7.3151 16.1953 7.53906 16.6172C7.76302 17.0391 7.875 17.4948 7.875 17.9844C7.875 18.5208 7.74219 19.013 7.47656 19.4609C7.21094 19.9089 6.85677 20.2656 6.41406 20.5312C5.97135 20.7969 5.48177 20.9297 4.94531 20.9297ZM4.9375 19.875C5.28646 19.875 5.60156 19.7891 5.88281 19.6172C6.16927 19.4453 6.39844 19.2161 6.57031 18.9297C6.74219 18.6432 6.82812 18.3255 6.82812 17.9766C6.82812 17.612 6.73438 17.2865 6.54688 17C6.35938 16.7083 6.11458 16.4792 5.8125 16.3125C5.6875 16.2448 5.59896 16.1745 5.54688 16.1016C5.5 16.0234 5.47656 15.8906 5.47656 15.7031V8.08594C5.47656 7.89844 5.42448 7.75 5.32031 7.64062C5.21615 7.52604 5.08854 7.46875 4.9375 7.46875C4.78646 7.46875 4.65885 7.52604 4.55469 7.64062C4.45052 7.75 4.39844 7.89844 4.39844 8.08594V15.7031C4.39844 15.8906 4.3724 16.0234 4.32031 16.1016C4.27344 16.1745 4.1875 16.2448 4.0625 16.3125C3.76042 16.4792 3.51562 16.7083 3.32812 17C3.14062 17.2865 3.04688 17.612 3.04688 17.9766C3.04688 18.3255 3.13021 18.6432 3.29688 18.9297C3.46875 19.2161 3.69792 19.4453 3.98438 19.6172C4.27083 19.7891 4.58854 19.875 4.9375 19.875ZM8.66406 13.9062C9.3776 13.9062 10.026 13.7344 10.6094 13.3906C11.1979 13.0417 11.6641 12.5755 12.0078 11.9922C12.3516 11.4036 12.5234 10.7526 12.5234 10.0391C12.5234 9.32031 12.3516 8.66927 12.0078 8.08594C11.6641 7.4974 11.1979 7.03125 10.6094 6.6875C10.026 6.33854 9.3776 6.16406 8.66406 6.16406C8.3099 6.16406 7.96615 6.21094 7.63281 6.30469C7.30469 6.39844 6.99219 6.53646 6.69531 6.71875L7.32031 7.69531C7.51823 7.57031 7.73177 7.47396 7.96094 7.40625C8.1901 7.33854 8.42448 7.30469 8.66406 7.30469C9.17448 7.30469 9.63281 7.42708 10.0391 7.67188C10.4505 7.91146 10.776 8.23698 11.0156 8.64844C11.2604 9.0599 11.3828 9.52344 11.3828 10.0391C11.3828 10.5495 11.2604 11.0104 11.0156 11.4219C10.776 11.8333 10.4505 12.1615 10.0391 12.4062C9.63281 12.6458 9.17448 12.7656 8.66406 12.7656C8.35156 12.7656 8.04948 12.7135 7.75781 12.6094C7.47135 12.5052 7.20833 12.3594 6.96875 12.1719V13.5078C7.22917 13.638 7.5 13.737 7.78125 13.8047C8.06771 13.8724 8.36198 13.9062 8.66406 13.9062ZM8.66406 4.92188C8.84115 4.92188 8.99219 4.85677 9.11719 4.72656C9.2474 4.59635 9.3125 4.44531 9.3125 4.27344V2.58594C9.3125 2.40885 9.2474 2.25781 9.11719 2.13281C8.99219 2.0026 8.84115 1.9375 8.66406 1.9375C8.48698 1.9375 8.33333 2.0026 8.20312 2.13281C8.07812 2.25781 8.01562 2.40885 8.01562 2.58594V4.27344C8.01562 4.44531 8.07812 4.59635 8.20312 4.72656C8.33333 4.85677 8.48698 4.92188 8.66406 4.92188ZM12.2734 6.42969C12.3932 6.55469 12.5443 6.61979 12.7266 6.625C12.9089 6.625 13.0651 6.5599 13.1953 6.42969L14.3828 5.22656C14.513 5.10156 14.5755 4.95052 14.5703 4.77344C14.5703 4.59115 14.5078 4.4375 14.3828 4.3125C14.263 4.1875 14.112 4.125 13.9297 4.125C13.7526 4.125 13.6016 4.1875 13.4766 4.3125L12.2734 5.52344C12.1484 5.64844 12.0859 5.79948 12.0859 5.97656C12.0911 6.15365 12.1536 6.30469 12.2734 6.42969ZM14.4062 10.6875H16.0938C16.2708 10.6875 16.4219 10.625 16.5469 10.5C16.6719 10.3698 16.7344 10.2161 16.7344 10.0391C16.7344 9.85677 16.6719 9.70312 16.5469 9.57812C16.4219 9.45312 16.2708 9.39062 16.0938 9.39062H14.4062C14.2344 9.39062 14.0833 9.45312 13.9531 9.57812C13.8229 9.70312 13.7578 9.85677 13.7578 10.0391C13.7578 10.2161 13.8229 10.3698 13.9531 10.5C14.0833 10.625 14.2344 10.6875 14.4062 10.6875ZM13.4766 15.7734C13.6016 15.8984 13.7526 15.9609 13.9297 15.9609C14.112 15.9557 14.263 15.8906 14.3828 15.7656C14.5078 15.6406 14.5703 15.4896 14.5703 15.3125C14.5755 15.1302 14.513 14.9792 14.3828 14.8594L13.1797 13.6562C13.0547 13.5365 12.9036 13.4766 12.7266 13.4766C12.5495 13.4714 12.3984 13.5312 12.2734 13.6562C12.1484 13.7812 12.0859 13.9349 12.0859 14.1172C12.0859 14.2943 12.1484 14.4453 12.2734 14.5703L13.4766 15.7734Z"
		fill="currentColor"
	/>
</svg>
