<svg
	color="rgb(var(--foreground, 0, 0, 0))"
	viewBox="0 0 11 24"
	fill="none"
	xmlns="http://www.w3.org/2000/svg"
>
	<path
		d="M4.09375 20.6797C4.65625 20.6797 5.18229 20.5729 5.67188 20.3594C6.16667 20.151 6.59896 19.8594 6.96875 19.4844C7.34375 19.1094 7.63542 18.6745 7.84375 18.1797C8.05729 17.6901 8.16406 17.1641 8.16406 16.6016C8.16406 16.0078 8.04427 15.4531 7.80469 14.9375C7.5651 14.4219 7.21094 13.9531 6.74219 13.5312C6.65885 13.4531 6.60417 13.3828 6.57812 13.3203C6.55208 13.2578 6.53906 13.1693 6.53906 13.0547L6.54688 5.99219C6.54688 5.46615 6.44271 5.0026 6.23438 4.60156C6.03125 4.20052 5.74479 3.88802 5.375 3.66406C5.00521 3.4349 4.57812 3.32031 4.09375 3.32031C3.60417 3.32031 3.17188 3.4349 2.79688 3.66406C2.42708 3.88802 2.13802 4.20052 1.92969 4.60156C1.72135 5.0026 1.61719 5.46615 1.61719 5.99219L1.625 13.0547C1.625 13.1693 1.61198 13.2578 1.58594 13.3203C1.5599 13.3828 1.50521 13.4531 1.42188 13.5312C0.958333 13.9531 0.604167 14.4219 0.359375 14.9375C0.119792 15.4531 0 16.0078 0 16.6016C0 17.1641 0.104167 17.6901 0.3125 18.1797C0.526042 18.6745 0.820312 19.1094 1.19531 19.4844C1.57031 19.8594 2.00521 20.151 2.5 20.3594C2.99479 20.5729 3.52604 20.6797 4.09375 20.6797ZM4.09375 19.5469C3.54688 19.5469 3.04948 19.4141 2.60156 19.1484C2.15885 18.8828 1.80469 18.526 1.53906 18.0781C1.27865 17.6354 1.14844 17.1432 1.14844 16.6016C1.14844 16.112 1.26042 15.6562 1.48438 15.2344C1.70833 14.8125 2.02604 14.4635 2.4375 14.1875C2.55729 14.1042 2.64323 14.0182 2.69531 13.9297C2.7474 13.8411 2.77344 13.7161 2.77344 13.5547V6.03906C2.77344 5.57031 2.89583 5.19271 3.14062 4.90625C3.38542 4.61458 3.70312 4.46875 4.09375 4.46875C4.47396 4.46875 4.78646 4.61458 5.03125 4.90625C5.27604 5.19271 5.39844 5.57031 5.39844 6.03906V13.5547C5.39844 13.7161 5.42188 13.8411 5.46875 13.9297C5.52083 14.0182 5.60938 14.1042 5.73438 14.1875C6.14583 14.4635 6.46354 14.8125 6.6875 15.2344C6.91146 15.6562 7.02344 16.112 7.02344 16.6016C7.02344 17.1432 6.89062 17.6354 6.625 18.0781C6.35938 18.526 6.00521 18.8828 5.5625 19.1484C5.11979 19.4141 4.63021 19.5469 4.09375 19.5469ZM4.08594 18.4922C4.4349 18.4922 4.75 18.4062 5.03125 18.2344C5.31771 18.0677 5.54688 17.8411 5.71875 17.5547C5.89062 17.263 5.97656 16.9427 5.97656 16.5938C5.97656 16.2292 5.88281 15.9036 5.69531 15.6172C5.50781 15.3255 5.26302 15.0964 4.96094 14.9297C4.83594 14.862 4.7474 14.7917 4.69531 14.7188C4.64844 14.6458 4.625 14.513 4.625 14.3203V5.85938C4.625 5.67188 4.57292 5.52344 4.46875 5.41406C4.36458 5.29948 4.23698 5.24219 4.08594 5.24219C3.9349 5.24219 3.80729 5.29948 3.70312 5.41406C3.59896 5.52344 3.54688 5.67188 3.54688 5.85938V14.3203C3.54688 14.513 3.52083 14.6458 3.46875 14.7188C3.42188 14.7917 3.33594 14.862 3.21094 14.9297C2.90885 15.0964 2.66406 15.3255 2.47656 15.6172C2.28906 15.9036 2.19531 16.2292 2.19531 16.5938C2.19531 16.9427 2.27865 17.263 2.44531 17.5547C2.61719 17.8411 2.84635 18.0677 3.13281 18.2344C3.41927 18.4062 3.73698 18.4922 4.08594 18.4922ZM8.00781 6.1875H9.70312C9.84375 6.1875 9.95573 6.14323 10.0391 6.05469C10.1224 5.96094 10.1641 5.85417 10.1641 5.73438C10.1641 5.61458 10.1224 5.51042 10.0391 5.42188C9.95573 5.32812 9.84375 5.28125 9.70312 5.28125H8.00781C7.8724 5.28125 7.76042 5.32812 7.67188 5.42188C7.58854 5.51042 7.54688 5.61458 7.54688 5.73438C7.54688 5.85417 7.58854 5.96094 7.67188 6.05469C7.76042 6.14323 7.8724 6.1875 8.00781 6.1875ZM8.00781 8.38281H9.70312C9.84375 8.38281 9.95573 8.33854 10.0391 8.25C10.1224 8.15625 10.1641 8.04948 10.1641 7.92969C10.1641 7.8099 10.1224 7.70573 10.0391 7.61719C9.95573 7.52344 9.84375 7.47656 9.70312 7.47656H8.00781C7.8724 7.47656 7.76042 7.52344 7.67188 7.61719C7.58854 7.70573 7.54688 7.8099 7.54688 7.92969C7.54688 8.04948 7.58854 8.15625 7.67188 8.25C7.76042 8.33854 7.8724 8.38281 8.00781 8.38281ZM8.00781 10.5781H9.70312C9.84375 10.5781 9.95573 10.5339 10.0391 10.4453C10.1224 10.3516 10.1641 10.2448 10.1641 10.125C10.1641 10 10.1224 9.89323 10.0391 9.80469C9.95573 9.71094 9.84375 9.66406 9.70312 9.66406H8.00781C7.8724 9.66406 7.76042 9.71094 7.67188 9.80469C7.58854 9.89323 7.54688 10 7.54688 10.125C7.54688 10.2448 7.58854 10.3516 7.67188 10.4453C7.76042 10.5339 7.8724 10.5781 8.00781 10.5781ZM8.00781 12.7734H9.70312C9.84375 12.7734 9.95573 12.7292 10.0391 12.6406C10.1224 12.5469 10.1641 12.4401 10.1641 12.3203C10.1641 12.1953 10.1224 12.0885 10.0391 12C9.95573 11.9062 9.84375 11.8594 9.70312 11.8594H8.00781C7.8724 11.8594 7.76042 11.9062 7.67188 12C7.58854 12.0885 7.54688 12.1953 7.54688 12.3203C7.54688 12.4401 7.58854 12.5469 7.67188 12.6406C7.76042 12.7292 7.8724 12.7734 8.00781 12.7734Z"
		fill="currentColor"
	/>
</svg>
