<svg
	color="rgb(var(--foreground, 0, 0, 0))"
	viewBox="0 0 17 24"
	fill="none"
	xmlns="http://www.w3.org/2000/svg"
>
	<path
		d="M5.0625 22.0625C5.625 22.0625 6.15104 21.9557 6.64062 21.7422C7.13542 21.5339 7.56771 21.2422 7.9375 20.8672C8.3125 20.4922 8.60417 20.0573 8.8125 19.5625C9.02604 19.0729 9.13281 18.5469 9.13281 17.9844C9.13281 17.3906 9.01302 16.8359 8.77344 16.3203C8.53385 15.8047 8.17969 15.3359 7.71094 14.9141C7.6276 14.8359 7.57292 14.7656 7.54688 14.7031C7.52083 14.6406 7.50781 14.5521 7.50781 14.4375L7.51562 7.375C7.51562 6.84375 7.41146 6.3776 7.20312 5.97656C7 5.57552 6.71354 5.26302 6.34375 5.03906C5.97396 4.8151 5.54688 4.70312 5.0625 4.70312C4.57292 4.70312 4.14062 4.8151 3.76562 5.03906C3.39583 5.26302 3.10677 5.57552 2.89844 5.97656C2.6901 6.3776 2.58594 6.84375 2.58594 7.375L2.59375 14.4375C2.59375 14.5521 2.58073 14.6406 2.55469 14.7031C2.52865 14.7656 2.47396 14.8359 2.39062 14.9141C1.92708 15.3359 1.57292 15.8047 1.32812 16.3203C1.08854 16.8359 0.96875 17.3906 0.96875 17.9844C0.96875 18.5469 1.07292 19.0729 1.28125 19.5625C1.49479 20.0573 1.78906 20.4922 2.16406 20.8672C2.53906 21.2422 2.97396 21.5339 3.46875 21.7422C3.96354 21.9557 4.49479 22.0625 5.0625 22.0625ZM5.0625 20.9297C4.51562 20.9297 4.01823 20.7969 3.57031 20.5312C3.1276 20.2656 2.77344 19.9089 2.50781 19.4609C2.2474 19.013 2.11719 18.5208 2.11719 17.9844C2.11719 17.4948 2.22917 17.0391 2.45312 16.6172C2.67708 16.1953 2.99479 15.8464 3.40625 15.5703C3.52604 15.487 3.61198 15.401 3.66406 15.3125C3.71615 15.224 3.74219 15.099 3.74219 14.9375V7.42188C3.74219 6.95312 3.86458 6.57552 4.10938 6.28906C4.35417 5.9974 4.67188 5.85156 5.0625 5.85156C5.44271 5.85156 5.75521 5.9974 6 6.28906C6.24479 6.57552 6.36719 6.95312 6.36719 7.42188V14.9375C6.36719 15.099 6.39062 15.224 6.4375 15.3125C6.48958 15.401 6.57812 15.487 6.70312 15.5703C7.11458 15.8464 7.43229 16.1953 7.65625 16.6172C7.88021 17.0391 7.99219 17.4948 7.99219 17.9844C7.99219 18.5208 7.85938 19.013 7.59375 19.4609C7.32812 19.9089 6.97396 20.2656 6.53125 20.5312C6.08854 20.7969 5.59896 20.9297 5.0625 20.9297ZM5.05469 19.875C5.40365 19.875 5.71875 19.7891 6 19.6172C6.28646 19.4453 6.51562 19.2161 6.6875 18.9297C6.85938 18.6432 6.94531 18.3255 6.94531 17.9766C6.94531 17.612 6.85156 17.2865 6.66406 17C6.47656 16.7083 6.23177 16.4792 5.92969 16.3125C5.80469 16.2448 5.71615 16.1745 5.66406 16.1016C5.61719 16.0234 5.59375 15.8906 5.59375 15.7031V8.08594C5.59375 7.89844 5.54167 7.75 5.4375 7.64062C5.33333 7.52604 5.20573 7.46875 5.05469 7.46875C4.90365 7.46875 4.77604 7.52604 4.67188 7.64062C4.56771 7.75 4.51562 7.89844 4.51562 8.08594V15.7031C4.51562 15.8906 4.48958 16.0234 4.4375 16.1016C4.39062 16.1745 4.30469 16.2448 4.17969 16.3125C3.8776 16.4792 3.63281 16.7083 3.44531 17C3.25781 17.2865 3.16406 17.612 3.16406 17.9766C3.16406 18.3255 3.2474 18.6432 3.41406 18.9297C3.58594 19.2161 3.8151 19.4453 4.10156 19.6172C4.38802 19.7891 4.70573 19.875 5.05469 19.875ZM8.78125 4.92188C8.95833 4.92188 9.10938 4.85677 9.23438 4.72656C9.36458 4.59635 9.42969 4.44531 9.42969 4.27344V2.58594C9.42969 2.40885 9.36458 2.25781 9.23438 2.13281C9.10938 2.0026 8.95833 1.9375 8.78125 1.9375C8.60417 1.9375 8.45052 2.0026 8.32031 2.13281C8.19531 2.25781 8.13281 2.40885 8.13281 2.58594V4.27344C8.13281 4.44531 8.19531 4.59635 8.32031 4.72656C8.45052 4.85677 8.60417 4.92188 8.78125 4.92188ZM12.3906 6.42969C12.5104 6.55469 12.6615 6.61979 12.8438 6.625C13.026 6.625 13.1823 6.5599 13.3125 6.42969L14.5 5.22656C14.6302 5.10156 14.6927 4.95052 14.6875 4.77344C14.6875 4.59115 14.625 4.4375 14.5 4.3125C14.3802 4.1875 14.2292 4.125 14.0469 4.125C13.8698 4.125 13.7188 4.1875 13.5938 4.3125L12.3906 5.52344C12.2656 5.64844 12.2031 5.79948 12.2031 5.97656C12.2083 6.15365 12.2708 6.30469 12.3906 6.42969ZM14.5234 10.6875H16.2109C16.388 10.6875 16.5391 10.625 16.6641 10.5C16.7891 10.3698 16.8516 10.2161 16.8516 10.0391C16.8516 9.85677 16.7891 9.70312 16.6641 9.57812C16.5391 9.45312 16.388 9.39062 16.2109 9.39062H14.5234C14.3516 9.39062 14.2005 9.45312 14.0703 9.57812C13.9401 9.70312 13.875 9.85677 13.875 10.0391C13.875 10.2161 13.9401 10.3698 14.0703 10.5C14.2005 10.625 14.3516 10.6875 14.5234 10.6875ZM13.5938 15.7734C13.7188 15.8984 13.8698 15.9609 14.0469 15.9609C14.2292 15.9557 14.3802 15.8906 14.5 15.7656C14.625 15.6406 14.6875 15.4896 14.6875 15.3125C14.6927 15.1302 14.6302 14.9792 14.5 14.8594L13.2969 13.6562C13.1719 13.5365 13.0208 13.4766 12.8438 13.4766C12.6667 13.4714 12.5156 13.5312 12.3906 13.6562C12.2656 13.7812 12.2031 13.9349 12.2031 14.1172C12.2031 14.2943 12.2656 14.4453 12.3906 14.5703L13.5938 15.7734ZM8.78125 13.9062C9.31771 13.9062 9.81771 13.8073 10.2812 13.6094C10.75 13.4115 11.1615 13.1354 11.5156 12.7812C11.8698 12.4271 12.1458 12.0156 12.3438 11.5469C12.5417 11.0781 12.6406 10.5755 12.6406 10.0391C12.6406 9.32031 12.4688 8.66927 12.125 8.08594C11.7812 7.4974 11.3151 7.03125 10.7266 6.6875C10.1432 6.33854 9.49479 6.16406 8.78125 6.16406C8.69271 6.16406 8.60677 6.16927 8.52344 6.17969C8.4401 6.1901 8.35417 6.20573 8.26562 6.22656C8.32292 6.40885 8.36458 6.60156 8.39062 6.80469C8.41667 7.0026 8.42969 7.20833 8.42969 7.42188L8.42188 13.8672C8.47917 13.8828 8.53646 13.8932 8.59375 13.8984C8.65625 13.9036 8.71875 13.9062 8.78125 13.9062Z"
		fill="currentColor"
	/>
</svg>
