<svg
	color="rgb(var(--foreground, 0, 0, 0))"
	viewBox="0 0 20 24"
	fill="none"
	xmlns="http://www.w3.org/2000/svg"
>
	<path
		d="M2.68149 11.8018L16.0643 15.4033C16.5643 15.5387 17.0487 15.5856 17.5174 15.5439C17.9862 15.5023 18.382 15.3747 18.7049 15.1611C19.0331 14.9424 19.231 14.6377 19.2987 14.2471C19.356 13.8929 19.2778 13.557 19.0643 13.2393C18.856 12.9215 18.5591 12.6481 18.1737 12.4189C17.7883 12.1846 17.3638 12.0231 16.9002 11.9346L12.0331 10.9658C11.8664 10.9346 11.7258 10.8825 11.6112 10.8096C11.4966 10.7314 11.382 10.6064 11.2674 10.4346L7.13462 4.48926C6.9992 4.30176 6.82212 4.17936 6.60337 4.12207L6.04868 3.98145C5.94972 3.9554 5.86899 3.98145 5.80649 4.05957C5.74399 4.13249 5.72837 4.22884 5.75962 4.34863L7.25962 10.7002L7.7518 10.1221L3.65024 9.31738L4.96274 10.1299L1.80649 6.44238C1.66066 6.27572 1.46014 6.21842 1.20493 6.27051L0.908053 6.33301C0.803886 6.35384 0.728365 6.40072 0.68149 6.47363C0.634615 6.54655 0.621595 6.62988 0.642428 6.72363L1.47055 10.7705C1.52784 11.0309 1.65805 11.2471 1.86118 11.4189C2.06951 11.5856 2.34295 11.7132 2.68149 11.8018ZM1.54087 20.0283H18.4002C18.5721 20.0283 18.7179 19.9658 18.8377 19.8408C18.9627 19.7158 19.0252 19.5674 19.0252 19.3955C19.0252 19.2236 18.9627 19.0752 18.8377 18.9502C18.7179 18.8304 18.5721 18.7705 18.4002 18.7705H1.54087C1.36899 18.7705 1.22055 18.8304 1.09555 18.9502C0.975761 19.0752 0.915865 19.2236 0.915865 19.3955C0.915865 19.5674 0.975761 19.7158 1.09555 19.8408C1.22055 19.9658 1.36899 20.0283 1.54087 20.0283Z"
		fill="currentColor"
	/>
</svg>
