<svg
	color="rgb(var(--foreground, 0, 0, 0))"
	viewBox="0 0 27 24"
	fill="none"
	xmlns="http://www.w3.org/2000/svg"
>
	<path
		d="M5.86389 19.8477C6.55139 19.8477 7.19462 19.7174 7.79358 19.457C8.39254 19.2018 8.91858 18.8451 9.3717 18.3867C9.83004 17.9336 10.1868 17.4076 10.442 16.8086C10.7024 16.2044 10.8326 15.5612 10.8326 14.8789C10.8326 14.1914 10.705 13.5482 10.4498 12.9492C10.1946 12.3451 9.83785 11.8164 9.37952 11.3633C8.92639 10.9049 8.39775 10.5482 7.79358 10.293C7.19462 10.0378 6.55139 9.91016 5.86389 9.91016C5.17639 9.91016 4.53056 10.0378 3.92639 10.293C3.32743 10.5482 2.79879 10.9049 2.34045 11.3633C1.88733 11.8164 1.53056 12.3451 1.27014 12.9492C1.01493 13.5482 0.887329 14.1914 0.887329 14.8789C0.887329 15.5664 1.01493 16.2096 1.27014 16.8086C1.53056 17.4076 1.88733 17.9336 2.34045 18.3867C2.79879 18.8451 3.32743 19.2018 3.92639 19.457C4.53056 19.7174 5.17639 19.8477 5.86389 19.8477ZM5.86389 18.6211C5.34306 18.6211 4.85608 18.5247 4.40295 18.332C3.95504 18.1393 3.5592 17.8737 3.21545 17.5352C2.8717 17.1914 2.60347 16.793 2.41077 16.3398C2.21806 15.8867 2.1217 15.3997 2.1217 14.8789C2.1217 14.3581 2.21806 13.8737 2.41077 13.4258C2.60347 12.9727 2.8717 12.5742 3.21545 12.2305C3.5592 11.8867 3.95764 11.6185 4.41077 11.4258C4.86389 11.2331 5.34827 11.1367 5.86389 11.1367C6.37952 11.1367 6.86389 11.2331 7.31702 11.4258C7.77014 11.6185 8.16858 11.8867 8.51233 12.2305C8.85608 12.5742 9.12431 12.9727 9.31702 13.4258C9.50972 13.8789 9.60608 14.3633 9.60608 14.8789C9.60608 15.3945 9.50972 15.8789 9.31702 16.332C9.12431 16.7852 8.85608 17.1836 8.51233 17.5273C8.16858 17.8711 7.77014 18.1393 7.31702 18.332C6.86389 18.5247 6.37952 18.6211 5.86389 18.6211ZM21.2467 19.8477C21.9342 19.8477 22.5774 19.7174 23.1764 19.457C23.7753 19.2018 24.3014 18.8451 24.7545 18.3867C25.2128 17.9336 25.5696 17.4076 25.8248 16.8086C26.0852 16.2096 26.2155 15.5664 26.2155 14.8789C26.2155 14.1914 26.0852 13.5482 25.8248 12.9492C25.5696 12.3451 25.2128 11.8164 24.7545 11.3633C24.3014 10.9102 23.7753 10.556 23.1764 10.3008C22.5774 10.0404 21.9342 9.91016 21.2467 9.91016C20.5592 9.91016 19.9134 10.0404 19.3092 10.3008C18.7102 10.556 18.1816 10.9102 17.7233 11.3633C17.2649 11.8164 16.9056 12.3451 16.6451 12.9492C16.3899 13.5482 16.2623 14.1914 16.2623 14.8789C16.2623 15.5664 16.3899 16.2122 16.6451 16.8164C16.9056 17.4154 17.2649 17.9414 17.7233 18.3945C18.1816 18.8529 18.7102 19.2096 19.3092 19.4648C19.9134 19.7201 20.5592 19.8477 21.2467 19.8477ZM21.2467 18.6211C20.554 18.6211 19.9238 18.4544 19.3561 18.1211C18.7884 17.7878 18.3352 17.3372 17.9967 16.7695C17.6634 16.2018 17.4967 15.5716 17.4967 14.8789C17.4967 14.3633 17.5931 13.8789 17.7858 13.4258C17.9837 12.9727 18.2519 12.5742 18.5905 12.2305C18.9342 11.8867 19.3326 11.6185 19.7858 11.4258C20.2441 11.2331 20.7311 11.1367 21.2467 11.1367C21.7623 11.1367 22.2467 11.2357 22.6998 11.4336C23.153 11.6263 23.5488 11.8945 23.8873 12.2383C24.2311 12.582 24.4993 12.9805 24.692 13.4336C24.8899 13.8815 24.9889 14.3633 24.9889 14.8789C24.9889 15.3945 24.8899 15.8789 24.692 16.332C24.4993 16.7852 24.2311 17.1836 23.8873 17.5273C23.5488 17.8711 23.153 18.1393 22.6998 18.332C22.2467 18.5247 21.7623 18.6211 21.2467 18.6211ZM14.2076 4.76172C14.2076 4.92839 14.2675 5.07161 14.3873 5.19141C14.5071 5.30599 14.6503 5.36328 14.817 5.36328H16.8405C16.8873 5.36328 16.9212 5.38151 16.942 5.41797L20.6608 15.1055L21.7936 14.7148L17.903 4.67578C17.7675 4.32682 17.4837 4.15234 17.0514 4.15234H14.817C14.6503 4.15234 14.5071 4.21224 14.3873 4.33203C14.2675 4.44661 14.2076 4.58984 14.2076 4.76172ZM19.0905 9.50391V8.37891L10.8014 9.59766V10.7227L19.0905 9.50391ZM12.6842 15.5898V14.4648H5.94202V15.5898H12.6842ZM13.5436 16.543C13.8457 16.543 14.1191 16.4701 14.3639 16.3242C14.6139 16.1732 14.8118 15.9753 14.9576 15.7305C15.1087 15.4857 15.1842 15.2122 15.1842 14.9102C15.1842 14.6081 15.1087 14.3346 14.9576 14.0898C14.8118 13.8398 14.6139 13.6419 14.3639 13.4961C14.1191 13.3503 13.8457 13.2773 13.5436 13.2773C13.2415 13.2773 12.9655 13.3503 12.7155 13.4961C12.4707 13.6419 12.2727 13.8398 12.1217 14.0898C11.9759 14.3346 11.903 14.6081 11.903 14.9102C11.8977 15.207 11.9681 15.4805 12.1139 15.7305C12.2597 15.9753 12.4576 16.1732 12.7076 16.3242C12.9576 16.4701 13.2363 16.543 13.5436 16.543ZM13.5514 15.4727C13.3899 15.4727 13.2545 15.418 13.1451 15.3086C13.0358 15.1992 12.9811 15.069 12.9811 14.918C12.9811 14.7617 13.0358 14.6289 13.1451 14.5195C13.2545 14.4049 13.3899 14.3477 13.5514 14.3477C13.7076 14.3477 13.8378 14.4023 13.942 14.5117C14.0514 14.6211 14.1061 14.7565 14.1061 14.918C14.1061 15.069 14.0514 15.1992 13.942 15.3086C13.8378 15.418 13.7076 15.4727 13.5514 15.4727ZM5.86389 15.8945C6.14514 15.8945 6.38472 15.7956 6.58264 15.5977C6.78577 15.3997 6.88733 15.1602 6.88733 14.8789C6.88733 14.5924 6.78837 14.3503 6.59045 14.1523C6.39254 13.9544 6.15035 13.8555 5.86389 13.8555C5.57743 13.8555 5.33525 13.9544 5.13733 14.1523C4.94462 14.3451 4.84827 14.5872 4.84827 14.8789C4.84306 15.1602 4.93941 15.3997 5.13733 15.5977C5.33525 15.7956 5.57743 15.8945 5.86389 15.8945ZM21.2467 15.9023C21.528 15.9023 21.7675 15.8034 21.9655 15.6055C22.1634 15.4023 22.2623 15.1602 22.2623 14.8789C22.2623 14.5924 22.1634 14.3529 21.9655 14.1602C21.7727 13.9622 21.5332 13.8633 21.2467 13.8633C20.9655 13.8633 20.7259 13.9596 20.528 14.1523C20.33 14.3451 20.2285 14.5872 20.2233 14.8789C20.2181 15.1602 20.3144 15.4023 20.5123 15.6055C20.7155 15.8034 20.9602 15.9023 21.2467 15.9023ZM13.278 13.6836L14.2858 14.2539L19.1451 9.04297L17.7311 8.99609L13.278 13.6836ZM5.40295 14.4883L6.40295 15.0586L11.0514 10.3086L10.0905 9.62109L5.40295 14.4883ZM12.4576 14.4102L13.4576 13.6914L10.0123 7.16016L8.84045 7.41016L12.4576 14.4102ZM7.37952 7.00391C7.37952 7.17057 7.43681 7.3138 7.55139 7.43359C7.67118 7.54818 7.81702 7.60547 7.98889 7.60547H11.0592C11.2311 7.60547 11.3743 7.54818 11.4889 7.43359C11.6087 7.3138 11.6686 7.17057 11.6686 7.00391C11.6686 6.83724 11.6087 6.69401 11.4889 6.57422C11.3691 6.45443 11.2259 6.39453 11.0592 6.39453H7.98889C7.82222 6.39453 7.679 6.45443 7.5592 6.57422C7.43941 6.69401 7.37952 6.83724 7.37952 7.00391Z"
		fill="currentColor"
	/>
</svg>
