<svg
	color="rgb(var(--foreground, 0, 0, 0))"
	viewBox="0 0 18 24"
	fill="none"
	xmlns="http://www.w3.org/2000/svg"
>
	<path
		d="M2.92981 21.0352H3.85168C4.14335 21.0352 4.38814 20.9362 4.58606 20.7383C4.78918 20.5404 4.89075 20.2956 4.89075 20.0039V18.707C5.66679 18.7591 6.42981 18.7982 7.17981 18.8242C7.93502 18.8555 8.65637 18.8711 9.34387 18.8711C10.0314 18.8711 10.7501 18.8581 11.5001 18.832C12.2553 18.806 13.0236 18.7643 13.8048 18.707V20.0039C13.8048 20.2956 13.9038 20.5404 14.1017 20.7383C14.2996 20.9362 14.5444 21.0352 14.8361 21.0352H15.7579C16.0496 21.0352 16.2944 20.9336 16.4923 20.7305C16.6954 20.5326 16.797 20.2904 16.797 20.0039V4.97266C16.797 4.46745 16.6538 4.07161 16.3673 3.78516C16.0809 3.4987 15.6746 3.32422 15.1486 3.26172C14.3152 3.16797 13.3907 3.09505 12.3751 3.04297C11.3595 2.99089 10.3491 2.96484 9.34387 2.96484C8.34387 2.96484 7.33606 2.99089 6.32043 3.04297C5.31002 3.08984 4.38554 3.16276 3.547 3.26172C3.01575 3.32422 2.60689 3.4987 2.32043 3.78516C2.03918 4.07161 1.89856 4.46745 1.89856 4.97266V20.0039C1.89856 20.2904 1.99752 20.5326 2.19543 20.7305C2.39335 20.9336 2.63814 21.0352 2.92981 21.0352ZM4.16418 13.5352C3.64856 13.457 3.39075 13.1471 3.39075 12.6055V5.66797C3.39075 5.04818 3.68762 4.70703 4.28137 4.64453C4.82304 4.58724 5.37512 4.54036 5.93762 4.50391C6.50012 4.46224 7.06523 4.43359 7.63293 4.41797C8.20585 4.39714 8.77877 4.38672 9.35168 4.38672C9.92981 4.38672 10.5027 4.39714 11.0704 4.41797C11.6434 4.43359 12.2085 4.46224 12.7657 4.50391C13.3282 4.54036 13.8803 4.58724 14.422 4.64453C15.0105 4.70703 15.3048 5.04818 15.3048 5.66797V12.6055C15.3048 13.1471 15.047 13.457 14.5314 13.5352C13.9897 13.6133 13.4324 13.681 12.8595 13.7383C12.2866 13.7904 11.7059 13.8294 11.1173 13.8555C10.5288 13.8815 9.93502 13.8945 9.33606 13.8945C8.74231 13.8945 8.14856 13.8815 7.55481 13.8555C6.96627 13.8294 6.38814 13.7904 5.82043 13.7383C5.25273 13.681 4.70064 13.6133 4.16418 13.5352ZM4.64856 17.0195C4.3621 17.0195 4.12252 16.9232 3.92981 16.7305C3.7371 16.5378 3.64075 16.2982 3.64075 16.0117C3.64075 15.7253 3.7371 15.4857 3.92981 15.293C4.12252 15.1003 4.3621 15.0039 4.64856 15.0039C4.93502 15.0039 5.1746 15.1003 5.36731 15.293C5.56002 15.4857 5.65637 15.7253 5.65637 16.0117C5.65637 16.2982 5.56002 16.5378 5.36731 16.7305C5.1746 16.9232 4.93502 17.0195 4.64856 17.0195ZM7.64075 16.6758C7.43762 16.6758 7.27096 16.6133 7.14075 16.4883C7.01575 16.3581 6.95325 16.194 6.95325 15.9961C6.95325 15.793 7.01575 15.6289 7.14075 15.5039C7.27096 15.3789 7.43762 15.3164 7.64075 15.3164H11.0392C11.2371 15.3164 11.3986 15.3789 11.5236 15.5039C11.6538 15.6289 11.7189 15.793 11.7189 15.9961C11.7189 16.194 11.6538 16.3581 11.5236 16.4883C11.3986 16.6133 11.2371 16.6758 11.0392 16.6758H7.64075ZM14.0392 17.0195C13.7527 17.0195 13.5131 16.9232 13.3204 16.7305C13.1329 16.5378 13.0392 16.2982 13.0392 16.0117C13.0392 15.7253 13.1329 15.4857 13.3204 15.293C13.5131 15.1003 13.7527 15.0039 14.0392 15.0039C14.3309 15.0039 14.573 15.1003 14.7657 15.293C14.9585 15.4857 15.0548 15.7253 15.0548 16.0117C15.0548 16.2982 14.9585 16.5378 14.7657 16.7305C14.573 16.9232 14.3309 17.0195 14.0392 17.0195ZM2.40637 10.2773V5.85547H1.547C1.32825 5.85547 1.14856 5.91797 1.00793 6.04297C0.872518 6.16797 0.80481 6.33464 0.80481 6.54297V9.59766C0.80481 9.80599 0.872518 9.97266 1.00793 10.0977C1.14856 10.2174 1.32825 10.2773 1.547 10.2773H2.40637ZM16.2814 10.2773H17.1407C17.3595 10.2773 17.5366 10.2174 17.672 10.0977C17.8126 9.97266 17.8829 9.80599 17.8829 9.59766V6.54297C17.8829 6.33464 17.8126 6.16797 17.672 6.04297C17.5366 5.91797 17.3595 5.85547 17.1407 5.85547H16.2814V10.2773Z"
		fill="currentColor"
	/>
</svg>
