<svg
	color="rgb(var(--foreground, 0, 0, 0))"
	viewBox="0 0 18 24"
	fill="none"
	xmlns="http://www.w3.org/2000/svg"
>
	<path
		d="M1.50793 16.9492C1.50793 17.4284 1.64075 17.8138 1.90637 18.1055V20.082C1.90637 20.3685 2.00533 20.6107 2.20325 20.8086C2.40116 21.0117 2.64596 21.1133 2.93762 21.1133H3.8595C4.15116 21.1133 4.39596 21.0143 4.59387 20.8164C4.797 20.6185 4.89856 20.3737 4.89856 20.082V18.8242C5.53918 18.8659 6.21106 18.8971 6.91418 18.918C7.62252 18.944 8.35429 18.957 9.1095 18.957C9.86471 18.957 10.5939 18.944 11.297 18.918C12.0053 18.8971 12.6824 18.8659 13.3282 18.8242V20.082C13.3282 20.3737 13.4272 20.6185 13.6251 20.8164C13.823 21.0143 14.0678 21.1133 14.3595 21.1133H15.2814C15.573 21.1133 15.8178 21.0117 16.0157 20.8086C16.2189 20.6107 16.3204 20.3685 16.3204 20.082V18.1055C16.5861 17.8138 16.7189 17.4284 16.7189 16.9492V4.89453C16.7189 4.38932 16.5756 3.99349 16.2892 3.70703C16.0027 3.42057 15.5939 3.24609 15.0626 3.18359C14.2501 3.08984 13.323 3.01693 12.2814 2.96484C11.2397 2.91276 10.1824 2.88672 9.1095 2.88672C8.03137 2.88672 6.97148 2.91276 5.92981 2.96484C4.89335 3.01693 3.96887 3.08984 3.15637 3.18359C2.62512 3.24609 2.21627 3.42057 1.92981 3.70703C1.64856 3.99349 1.50793 4.38932 1.50793 4.89453V16.9492ZM9.1095 17.9336C7.95846 17.9336 6.90377 17.9102 5.94543 17.8633C4.9871 17.8164 4.14856 17.7487 3.42981 17.6602C3.09648 17.6185 2.8621 17.5143 2.72668 17.3477C2.59648 17.1758 2.53137 16.9388 2.53137 16.6367V5.20703C2.53137 4.91016 2.60689 4.67578 2.75793 4.50391C2.91418 4.32682 3.13814 4.22005 3.42981 4.18359C4.13293 4.09505 4.97929 4.02734 5.96887 3.98047C6.96366 3.93359 8.01054 3.91016 9.1095 3.91016C10.198 3.91016 11.2371 3.93359 12.2267 3.98047C13.2215 4.02734 14.0756 4.09505 14.7892 4.18359C15.1225 4.22526 15.3569 4.33203 15.4923 4.50391C15.6277 4.67057 15.6954 4.90495 15.6954 5.20703V16.6367C15.6954 16.9388 15.6277 17.1758 15.4923 17.3477C15.3569 17.5143 15.1225 17.6185 14.7892 17.6602C14.06 17.7487 13.2137 17.8164 12.2501 17.8633C11.2918 17.9102 10.2449 17.9336 9.1095 17.9336ZM4.05481 13.5508C4.81523 13.6706 5.62512 13.7617 6.4845 13.8242C7.34387 13.8815 8.21627 13.9102 9.10168 13.9102C9.99231 13.9102 10.8673 13.8815 11.7267 13.8242C12.5913 13.7617 13.4064 13.6706 14.172 13.5508C14.6564 13.4727 14.8986 13.1784 14.8986 12.668V5.94922C14.8986 5.36589 14.6225 5.04557 14.0704 4.98828C13.2996 4.91016 12.4949 4.85286 11.6564 4.81641C10.823 4.77474 9.97668 4.75651 9.11731 4.76172C8.26314 4.76172 7.41679 4.77995 6.57825 4.81641C5.74491 4.85286 4.94023 4.91016 4.16418 4.98828C3.60689 5.04557 3.32825 5.36589 3.32825 5.94922V12.668C3.32825 13.1784 3.57043 13.4727 4.05481 13.5508ZM2.01575 10.3555V5.77734H1.15637C0.937622 5.77734 0.757935 5.83984 0.61731 5.96484C0.481893 6.08984 0.414185 6.25651 0.414185 6.46484V9.67578C0.414185 9.88411 0.481893 10.0508 0.61731 10.1758C0.757935 10.2956 0.937622 10.3555 1.15637 10.3555H2.01575ZM16.2032 10.3555H17.0626C17.2814 10.3555 17.4585 10.2956 17.5939 10.1758C17.7345 10.0508 17.8048 9.88411 17.8048 9.67578V6.46484C17.8048 6.25651 17.7345 6.08984 17.5939 5.96484C17.4585 5.83984 17.2814 5.77734 17.0626 5.77734H16.2032V10.3555ZM4.64856 16.7227C4.91418 16.7227 5.13814 16.6315 5.32043 16.4492C5.50273 16.2669 5.59387 16.043 5.59387 15.7773C5.59387 15.5065 5.50273 15.2826 5.32043 15.1055C5.13814 14.9232 4.91418 14.832 4.64856 14.832C4.37773 14.832 4.15116 14.9232 3.96887 15.1055C3.79179 15.2826 3.70325 15.5065 3.70325 15.7773C3.70325 16.043 3.79179 16.2669 3.96887 16.4492C4.15116 16.6315 4.37773 16.7227 4.64856 16.7227ZM7.25012 16.4414H10.9611C11.159 16.4414 11.3204 16.3789 11.4454 16.2539C11.5756 16.1237 11.6407 15.9596 11.6407 15.7617C11.6407 15.5586 11.5756 15.3945 11.4454 15.2695C11.3204 15.1445 11.159 15.082 10.9611 15.082H7.25012C7.047 15.082 6.88033 15.1445 6.75012 15.2695C6.62512 15.3945 6.56262 15.5586 6.56262 15.7617C6.56262 15.9596 6.62512 16.1237 6.75012 16.2539C6.88033 16.3789 7.047 16.4414 7.25012 16.4414ZM13.5704 16.7227C13.8413 16.7227 14.0678 16.6315 14.2501 16.4492C14.4324 16.2669 14.5236 16.043 14.5236 15.7773C14.5236 15.5065 14.4324 15.2826 14.2501 15.1055C14.0678 14.9232 13.8413 14.832 13.5704 14.832C13.3048 14.832 13.0809 14.9232 12.8986 15.1055C12.7215 15.2826 12.6329 15.5065 12.6329 15.7773C12.6329 16.043 12.7215 16.2669 12.8986 16.4492C13.0809 16.6315 13.3048 16.7227 13.5704 16.7227Z"
		fill="currentColor"
	/>
</svg>
