<svg
	color="rgb(var(--foreground, 0, 0, 0))"
	viewBox="0 0 19 24"
	fill="none"
	xmlns="http://www.w3.org/2000/svg"
>
	<path
		d="M9.625 17.0977C10.2812 17.0977 10.974 17.0898 11.7031 17.0742C12.4323 17.0586 13.1484 17.0378 13.8516 17.0117C14.5547 16.9805 15.1979 16.9466 15.7812 16.9102C16.3698 16.8737 16.849 16.8346 17.2188 16.793C17.75 16.7305 18.1562 16.556 18.4375 16.2695C18.724 15.9831 18.8672 15.5898 18.8672 15.0898V13.7148C18.8672 13.2721 18.8359 12.8867 18.7734 12.5586C18.7109 12.2253 18.6068 11.9154 18.4609 11.6289C18.3151 11.3372 18.1224 11.0352 17.8828 10.7227L17.2188 9.87109C17.125 9.40234 17.0104 8.9388 16.875 8.48047C16.7448 8.02214 16.612 7.61068 16.4766 7.24609C16.3464 6.88151 16.237 6.60286 16.1484 6.41016C15.9401 5.96745 15.638 5.61589 15.2422 5.35547C14.8516 5.09505 14.3984 4.93099 13.8828 4.86328C13.7057 4.83724 13.4089 4.81641 12.9922 4.80078C12.5807 4.78516 12.0833 4.77474 11.5 4.76953C10.9219 4.75911 10.2969 4.75391 9.625 4.75391C8.95312 4.75391 8.32552 4.75911 7.74219 4.76953C7.16406 4.77995 6.66667 4.79297 6.25 4.80859C5.83854 4.82422 5.54688 4.84245 5.375 4.86328C4.85417 4.92578 4.39844 5.08984 4.00781 5.35547C3.61719 5.61589 3.31771 5.96745 3.10938 6.41016C3.01562 6.60286 2.90365 6.88151 2.77344 7.24609C2.64323 7.61068 2.51042 8.02214 2.375 8.48047C2.23958 8.9388 2.125 9.40234 2.03125 9.87109L1.375 10.7227C1.13021 11.0352 0.934896 11.3372 0.789062 11.6289C0.648438 11.9154 0.544271 12.2253 0.476562 12.5586C0.414062 12.8867 0.382812 13.2721 0.382812 13.7148V15.0898C0.382812 15.5898 0.526042 15.9831 0.8125 16.2695C1.09896 16.556 1.50521 16.7305 2.03125 16.793C2.40104 16.8346 2.8776 16.8737 3.46094 16.9102C4.04948 16.9466 4.69531 16.9805 5.39844 17.0117C6.10156 17.0378 6.81771 17.0586 7.54688 17.0742C8.27604 17.0898 8.96875 17.0977 9.625 17.0977ZM9.625 16.0742C8.96354 16.0742 8.27083 16.0664 7.54688 16.0508C6.82292 16.0352 6.11979 16.0169 5.4375 15.9961C4.76042 15.9701 4.14844 15.9414 3.60156 15.9102C3.05469 15.8737 2.6224 15.8346 2.30469 15.793C1.97656 15.7513 1.74479 15.6471 1.60938 15.4805C1.47396 15.3086 1.40625 15.0742 1.40625 14.7773V13.7148C1.40625 13.3555 1.42969 13.0508 1.47656 12.8008C1.52344 12.5456 1.60156 12.306 1.71094 12.082C1.82552 11.8581 1.98438 11.6133 2.1875 11.3477L2.98438 10.3008C3.03646 10.0195 3.10417 9.71745 3.1875 9.39453C3.27083 9.07161 3.36198 8.7513 3.46094 8.43359C3.5599 8.11589 3.65885 7.82161 3.75781 7.55078C3.86198 7.27995 3.95573 7.05339 4.03906 6.87109C4.16406 6.60026 4.34896 6.38411 4.59375 6.22266C4.83854 6.05599 5.13802 5.95182 5.49219 5.91016C5.65885 5.88932 5.9375 5.86849 6.32812 5.84766C6.71875 5.82682 7.19531 5.8112 7.75781 5.80078C8.32031 5.78516 8.94271 5.77734 9.625 5.77734C10.3125 5.77734 10.9375 5.78516 11.5 5.80078C12.0677 5.8112 12.5443 5.82682 12.9297 5.84766C13.3203 5.86849 13.5911 5.88932 13.7422 5.91016C14.112 5.95703 14.4167 6.0638 14.6562 6.23047C14.901 6.39193 15.0885 6.60547 15.2188 6.87109C15.3021 7.05339 15.3932 7.27995 15.4922 7.55078C15.5911 7.82161 15.6901 8.11589 15.7891 8.43359C15.888 8.7513 15.9792 9.07161 16.0625 9.39453C16.1458 9.71745 16.2135 10.0195 16.2656 10.3008L17.0703 11.3477C17.2734 11.6133 17.4297 11.8581 17.5391 12.082C17.6536 12.306 17.7318 12.5456 17.7734 12.8008C17.8203 13.0508 17.8438 13.3555 17.8438 13.7148V14.7773C17.8438 15.0742 17.776 15.3086 17.6406 15.4805C17.5104 15.6523 17.2786 15.7565 16.9453 15.793C16.6328 15.8346 16.2031 15.8711 15.6562 15.9023C15.1094 15.9336 14.4948 15.9622 13.8125 15.9883C13.1302 16.0143 12.4271 16.0352 11.7031 16.0508C10.9844 16.0664 10.2917 16.0742 9.625 16.0742ZM1.82031 19.2461H2.73438C3.03125 19.2461 3.27865 19.1471 3.47656 18.9492C3.67448 18.7513 3.77344 18.5065 3.77344 18.2148V16.3555L0.78125 15.9258V18.2148C0.78125 18.5065 0.880208 18.7513 1.07812 18.9492C1.27604 19.1471 1.52344 19.2461 1.82031 19.2461ZM16.5156 19.2461H17.4375C17.7292 19.2461 17.974 19.1471 18.1719 18.9492C18.3698 18.7513 18.4688 18.5065 18.4688 18.2148V15.9258L15.4844 16.3555V18.2148C15.4844 18.5065 15.5833 18.7513 15.7812 18.9492C15.9792 19.1471 16.224 19.2461 16.5156 19.2461ZM7.15625 11.3945C7.15625 11.4622 7.18229 11.5195 7.23438 11.5664C7.28646 11.6133 7.34635 11.6367 7.41406 11.6367H9.35938L8.32031 14.4102C8.27344 14.5352 8.27604 14.6367 8.32812 14.7148C8.38542 14.7878 8.46094 14.8268 8.55469 14.832C8.64844 14.832 8.73698 14.7826 8.82031 14.6836L11.9375 10.7539C12.0052 10.681 12.0391 10.6055 12.0391 10.5273C12.0391 10.4544 12.013 10.3945 11.9609 10.3477C11.9089 10.3008 11.8464 10.2773 11.7734 10.2773H9.84375L10.8672 7.51172C10.9141 7.38672 10.9115 7.28776 10.8594 7.21484C10.8073 7.13672 10.7344 7.09766 10.6406 7.09766C10.5469 7.09245 10.4609 7.13932 10.3828 7.23828L7.25 11.168C7.1875 11.2513 7.15625 11.3268 7.15625 11.3945Z"
		fill="currentColor"
	/>
</svg>
