<svg
	color="rgb(var(--foreground, 0, 0, 0))"
	viewBox="0 0 20 24"
	fill="none"
	xmlns="http://www.w3.org/2000/svg"
>
	<path
		d="M4.125 9.21484C4.18229 8.93359 4.26042 8.63411 4.35938 8.31641C4.45833 7.9987 4.5599 7.70443 4.66406 7.43359C4.76823 7.15755 4.86198 6.94401 4.94531 6.79297C5.04948 6.61068 5.16667 6.47526 5.29688 6.38672C5.42708 6.29818 5.59635 6.23828 5.80469 6.20703C6.10156 6.16536 6.59635 6.13411 7.28906 6.11328C7.98177 6.08724 8.93229 6.07422 10.1406 6.07422C11.349 6.07422 12.2995 6.08464 12.9922 6.10547C13.6901 6.1263 14.1849 6.16016 14.4766 6.20703C14.6901 6.23828 14.8594 6.29818 14.9844 6.38672C15.1094 6.47526 15.2266 6.61068 15.3359 6.79297C15.4245 6.9388 15.5182 7.14974 15.6172 7.42578C15.7214 7.69661 15.8203 7.99349 15.9141 8.31641C16.013 8.63411 16.0964 8.93359 16.1641 9.21484C16.2005 9.36068 16.1875 9.46484 16.125 9.52734C16.0677 9.58464 15.9635 9.60807 15.8125 9.59766C15.3802 9.57161 14.9036 9.54557 14.3828 9.51953C13.8672 9.49349 13.2656 9.47266 12.5781 9.45703C11.8958 9.44141 11.0833 9.43359 10.1406 9.43359C9.19792 9.43359 8.38281 9.44141 7.69531 9.45703C7.01302 9.47266 6.41406 9.49349 5.89844 9.51953C5.38281 9.54557 4.90885 9.57161 4.47656 9.59766C4.32552 9.60807 4.21875 9.58464 4.15625 9.52734C4.09896 9.46484 4.08854 9.36068 4.125 9.21484ZM4.50781 14.9883C4.14844 14.9883 3.84896 14.8685 3.60938 14.6289C3.36979 14.3841 3.25 14.0846 3.25 13.7305C3.25 13.3711 3.36979 13.0716 3.60938 12.832C3.84896 12.5924 4.14844 12.4727 4.50781 12.4727C4.86719 12.4727 5.16667 12.5924 5.40625 12.832C5.64583 13.0716 5.76562 13.3711 5.76562 13.7305C5.76562 14.0846 5.64583 14.3841 5.40625 14.6289C5.16667 14.8685 4.86719 14.9883 4.50781 14.9883ZM8.07812 14.6758C7.80729 14.6758 7.58854 14.5924 7.42188 14.4258C7.25521 14.2591 7.17188 14.0404 7.17188 13.7695C7.17188 13.5039 7.25521 13.2878 7.42188 13.1211C7.58854 12.9544 7.80729 12.8711 8.07812 12.8711H12.2109C12.4766 12.8711 12.6927 12.9544 12.8594 13.1211C13.026 13.2878 13.1094 13.5039 13.1094 13.7695C13.1094 14.0404 13.026 14.2591 12.8594 14.4258C12.6927 14.5924 12.4766 14.6758 12.2109 14.6758H8.07812ZM15.7734 14.9883C15.4193 14.9883 15.1224 14.8685 14.8828 14.6289C14.6432 14.3841 14.5234 14.0846 14.5234 13.7305C14.5234 13.3711 14.6432 13.0716 14.8828 12.832C15.1224 12.5924 15.4193 12.4727 15.7734 12.4727C16.1328 12.4727 16.4323 12.5924 16.6719 12.832C16.9115 13.0716 17.0312 13.3711 17.0312 13.7305C17.0312 14.0846 16.9115 14.3841 16.6719 14.6289C16.4323 14.8685 16.1328 14.9883 15.7734 14.9883ZM10.1406 17.0977C10.7969 17.0977 11.4896 17.0898 12.2188 17.0742C12.9479 17.0586 13.6641 17.0378 14.3672 17.0117C15.0703 16.9805 15.7135 16.9466 16.2969 16.9102C16.8854 16.8737 17.3646 16.8346 17.7344 16.793C18.2656 16.7305 18.6719 16.556 18.9531 16.2695C19.2396 15.9831 19.3828 15.5898 19.3828 15.0898V13.7148C19.3828 13.2721 19.3516 12.8867 19.2891 12.5586C19.2266 12.2253 19.1224 11.9154 18.9766 11.6289C18.8307 11.3372 18.638 11.0352 18.3984 10.7227L17.7344 9.87109C17.6406 9.40234 17.526 8.9388 17.3906 8.48047C17.2604 8.02214 17.1276 7.61068 16.9922 7.24609C16.862 6.88151 16.7526 6.60286 16.6641 6.41016C16.4557 5.96745 16.1536 5.61589 15.7578 5.35547C15.3672 5.09505 14.9141 4.93099 14.3984 4.86328C14.2214 4.83724 13.9245 4.81641 13.5078 4.80078C13.0964 4.78516 12.599 4.77474 12.0156 4.76953C11.4375 4.75911 10.8125 4.75391 10.1406 4.75391C9.46875 4.75391 8.84115 4.75911 8.25781 4.76953C7.67969 4.77995 7.18229 4.79297 6.76562 4.80859C6.35417 4.82422 6.0625 4.84245 5.89062 4.86328C5.36979 4.92578 4.91406 5.08984 4.52344 5.35547C4.13281 5.61589 3.83333 5.96745 3.625 6.41016C3.53125 6.60286 3.41927 6.88151 3.28906 7.24609C3.15885 7.61068 3.02604 8.02214 2.89062 8.48047C2.75521 8.9388 2.64062 9.40234 2.54688 9.87109L1.89062 10.7227C1.64583 11.0352 1.45052 11.3372 1.30469 11.6289C1.16406 11.9154 1.0599 12.2253 0.992188 12.5586C0.929688 12.8867 0.898438 13.2721 0.898438 13.7148V15.0898C0.898438 15.5898 1.04167 15.9831 1.32812 16.2695C1.61458 16.556 2.02083 16.7305 2.54688 16.793C2.91667 16.8346 3.39323 16.8737 3.97656 16.9102C4.5651 16.9466 5.21094 16.9805 5.91406 17.0117C6.61719 17.0378 7.33333 17.0586 8.0625 17.0742C8.79167 17.0898 9.48438 17.0977 10.1406 17.0977ZM1.9375 19.2461H2.85156C3.14323 19.2461 3.38802 19.1471 3.58594 18.9492C3.78906 18.7513 3.89062 18.5065 3.89062 18.2148V16.2695L0.898438 14.8477V18.2148C0.898438 18.5065 0.997396 18.7513 1.19531 18.9492C1.39323 19.1471 1.64062 19.2461 1.9375 19.2461ZM17.4297 19.2461H18.3516C18.6432 19.2461 18.888 19.1471 19.0859 18.9492C19.2839 18.7513 19.3828 18.5065 19.3828 18.2148V14.8477L16.3984 16.2695V18.2148C16.3984 18.5065 16.4974 18.7513 16.6953 18.9492C16.8932 19.1471 17.138 19.2461 17.4297 19.2461Z"
		fill="currentColor"
	/>
</svg>
