<svg
	color="rgb(var(--foreground, 0, 0, 0))"
	viewBox="0 0 20 24"
	fill="none"
	xmlns="http://www.w3.org/2000/svg"
>
	<path
		d="M10.1094 17.0977C10.7656 17.0977 11.4583 17.0898 12.1875 17.0742C12.9167 17.0586 13.6328 17.0378 14.3359 17.0117C15.0391 16.9805 15.6823 16.9466 16.2656 16.9102C16.8542 16.8737 17.3333 16.8346 17.7031 16.793C18.2344 16.7305 18.6406 16.556 18.9219 16.2695C19.2083 15.9831 19.3516 15.5898 19.3516 15.0898V13.7148C19.3516 13.2721 19.3203 12.8867 19.2578 12.5586C19.1953 12.2253 19.0911 11.9154 18.9453 11.6289C18.7995 11.3372 18.6068 11.0352 18.3672 10.7227L17.7031 9.87109C17.6094 9.40234 17.4948 8.9388 17.3594 8.48047C17.2292 8.02214 17.0964 7.61068 16.9609 7.24609C16.8307 6.88151 16.7214 6.60286 16.6328 6.41016C16.4245 5.96745 16.1224 5.61589 15.7266 5.35547C15.3359 5.09505 14.8828 4.93099 14.3672 4.86328C14.1901 4.83724 13.8932 4.81641 13.4766 4.80078C13.0651 4.78516 12.5677 4.77474 11.9844 4.76953C11.4062 4.75911 10.7812 4.75391 10.1094 4.75391C9.4375 4.75391 8.8099 4.75911 8.22656 4.76953C7.64844 4.77995 7.15104 4.79297 6.73438 4.80859C6.32292 4.82422 6.03125 4.84245 5.85938 4.86328C5.33854 4.92578 4.88281 5.08984 4.49219 5.35547C4.10156 5.61589 3.80208 5.96745 3.59375 6.41016C3.5 6.60286 3.38802 6.88151 3.25781 7.24609C3.1276 7.61068 2.99479 8.02214 2.85938 8.48047C2.72396 8.9388 2.60938 9.40234 2.51562 9.87109L1.85938 10.7227C1.61458 11.0352 1.41927 11.3372 1.27344 11.6289C1.13281 11.9154 1.02865 12.2253 0.960938 12.5586C0.898438 12.8867 0.867188 13.2721 0.867188 13.7148V15.0898C0.867188 15.5898 1.01042 15.9831 1.29688 16.2695C1.58333 16.556 1.98958 16.7305 2.51562 16.793C2.88542 16.8346 3.36198 16.8737 3.94531 16.9102C4.53385 16.9466 5.17969 16.9805 5.88281 17.0117C6.58594 17.0378 7.30208 17.0586 8.03125 17.0742C8.76042 17.0898 9.45312 17.0977 10.1094 17.0977ZM1.90625 19.2461H2.82031C3.11198 19.2461 3.35677 19.1471 3.55469 18.9492C3.75781 18.7513 3.85938 18.5065 3.85938 18.2148V16.2695L0.867188 14.8477V18.2148C0.867188 18.5065 0.966146 18.7513 1.16406 18.9492C1.36198 19.1471 1.60938 19.2461 1.90625 19.2461ZM17.3984 19.2461H18.3203C18.612 19.2461 18.8568 19.1471 19.0547 18.9492C19.2526 18.7513 19.3516 18.5065 19.3516 18.2148V14.8477L16.3672 16.2695V18.2148C16.3672 18.5065 16.4661 18.7513 16.6641 18.9492C16.862 19.1471 17.1068 19.2461 17.3984 19.2461ZM7.5625 11.4258C7.5625 11.3477 7.59635 11.2695 7.66406 11.1914L10.8906 7.13672C10.9687 7.03255 11.0573 6.98307 11.1562 6.98828C11.2552 6.98828 11.3307 7.02734 11.3828 7.10547C11.4401 7.18359 11.4427 7.28776 11.3906 7.41797L10.3359 10.2695H12.3281C12.401 10.2695 12.4635 10.2956 12.5156 10.3477C12.5729 10.3945 12.6016 10.4544 12.6016 10.5273C12.6016 10.6107 12.5651 10.6888 12.4922 10.7617L9.28125 14.8164C9.19792 14.9154 9.10677 14.9648 9.00781 14.9648C8.90885 14.9596 8.83073 14.918 8.77344 14.8398C8.72135 14.7617 8.71875 14.6602 8.76562 14.5352L9.83594 11.6758H7.82812C7.76042 11.6758 7.69792 11.6523 7.64062 11.6055C7.58854 11.5534 7.5625 11.4935 7.5625 11.4258Z"
		fill="currentColor"
	/>
</svg>
