<svg
	color="rgb(var(--foreground, 0, 0, 0))"
	viewBox="0 0 19 24"
	fill="none"
	xmlns="http://www.w3.org/2000/svg"
>
	<path
		d="M4.07812 9.66797C4.04687 9.80859 4.05989 9.90755 4.11718 9.96484C4.17448 10.0221 4.27864 10.0456 4.42968 10.0352C4.84635 10.0039 5.29948 9.97786 5.78906 9.95703C6.27864 9.93099 6.83593 9.91276 7.46093 9.90234C8.09114 9.88672 8.82291 9.87891 9.65625 9.87891C10.4896 9.87891 11.2187 9.88672 11.8437 9.90234C12.474 9.91276 13.0339 9.93099 13.5234 9.95703C14.0182 9.97786 14.474 10.0039 14.8906 10.0352C15.0365 10.0456 15.138 10.0221 15.1953 9.96484C15.2526 9.90755 15.2656 9.80859 15.2344 9.66797C15.1719 9.39193 15.0937 9.10026 15 8.79297C14.9062 8.48568 14.8099 8.20182 14.7109 7.94141C14.612 7.67578 14.5208 7.47266 14.4375 7.33203C14.3385 7.15495 14.224 7.02474 14.0937 6.94141C13.9687 6.85807 13.8047 6.80078 13.6016 6.76953C13.3203 6.72786 12.8542 6.69661 12.2031 6.67578C11.5521 6.64974 10.7031 6.63672 9.65625 6.63672C8.60937 6.63672 7.76041 6.64974 7.10937 6.67578C6.45833 6.69661 5.99218 6.72786 5.71093 6.76953C5.50781 6.80078 5.34114 6.85807 5.21093 6.94141C5.08593 7.02474 4.97395 7.15495 4.875 7.33203C4.79166 7.47266 4.70052 7.67578 4.60156 7.94141C4.5026 8.20182 4.40625 8.48568 4.3125 8.79297C4.22395 9.10026 4.14583 9.39193 4.07812 9.66797ZM4.02343 14.9883C4.38281 14.9883 4.68229 14.8685 4.92187 14.6289C5.16145 14.3841 5.28125 14.0846 5.28125 13.7305C5.28125 13.3711 5.16145 13.0716 4.92187 12.832C4.68229 12.5924 4.38281 12.4727 4.02343 12.4727C3.66406 12.4727 3.36458 12.5924 3.125 12.832C2.88541 13.0716 2.76562 13.3711 2.76562 13.7305C2.76562 14.0846 2.88541 14.3841 3.125 14.6289C3.36458 14.8685 3.66406 14.9883 4.02343 14.9883ZM7.59375 14.6758H11.7266C11.9922 14.6758 12.2083 14.5924 12.375 14.4258C12.5417 14.2591 12.625 14.0404 12.625 13.7695C12.625 13.5039 12.5417 13.2878 12.375 13.1211C12.2083 12.9544 11.9922 12.8711 11.7266 12.8711H7.59375C7.32291 12.8711 7.10416 12.9544 6.9375 13.1211C6.77083 13.2878 6.6875 13.5039 6.6875 13.7695C6.6875 14.0404 6.77083 14.2591 6.9375 14.4258C7.10416 14.5924 7.32291 14.6758 7.59375 14.6758ZM15.2891 14.9883C15.6484 14.9883 15.9479 14.8685 16.1875 14.6289C16.4271 14.3841 16.5469 14.0846 16.5469 13.7305C16.5469 13.3711 16.4271 13.0716 16.1875 12.832C15.9479 12.5924 15.6484 12.4727 15.2891 12.4727C14.9349 12.4727 14.638 12.5924 14.3984 12.832C14.1589 13.0716 14.0391 13.3711 14.0391 13.7305C14.0391 14.0846 14.1589 14.3841 14.3984 14.6289C14.638 14.8685 14.9349 14.9883 15.2891 14.9883ZM9.65625 17.0977C10.3125 17.0977 11.0052 17.0898 11.7344 17.0742C12.4635 17.0586 13.1797 17.0378 13.8828 17.0117C14.5859 16.9805 15.2292 16.9466 15.8125 16.9102C16.401 16.8737 16.8802 16.8346 17.25 16.793C17.7812 16.7305 18.1875 16.556 18.4687 16.2695C18.7552 15.9831 18.8984 15.5898 18.8984 15.0898V13.7148C18.8984 13.2721 18.8672 12.8867 18.8047 12.5586C18.7422 12.2253 18.638 11.9154 18.4922 11.6289C18.3464 11.3372 18.1536 11.0352 17.9141 10.7227L17.25 9.87109C17.1562 9.40234 17.0417 8.9388 16.9062 8.48047C16.776 8.02214 16.6432 7.61068 16.5078 7.24609C16.3776 6.88151 16.2682 6.60286 16.1797 6.41016C15.9714 5.96745 15.6693 5.61589 15.2734 5.35547C14.8828 5.09505 14.4297 4.93099 13.9141 4.86328C13.737 4.83724 13.4401 4.81641 13.0234 4.80078C12.612 4.78516 12.1146 4.77474 11.5312 4.76953C10.9531 4.75911 10.3281 4.75391 9.65625 4.75391C8.98437 4.75391 8.35677 4.75911 7.77343 4.76953C7.19531 4.77995 6.69791 4.79297 6.28125 4.80859C5.86979 4.82422 5.57812 4.84245 5.40625 4.86328C4.88541 4.92578 4.42968 5.08984 4.03906 5.35547C3.64843 5.61589 3.34895 5.96745 3.14062 6.41016C3.04687 6.60286 2.93489 6.88151 2.80468 7.24609C2.67448 7.61068 2.54166 8.02214 2.40625 8.48047C2.27083 8.9388 2.15625 9.40234 2.0625 9.87109L1.40625 10.7227C1.16146 11.0352 0.966146 11.3372 0.820312 11.6289C0.679688 11.9154 0.575521 12.2253 0.507812 12.5586C0.445312 12.8867 0.414062 13.2721 0.414062 13.7148V15.0898C0.414062 15.5898 0.557292 15.9831 0.84375 16.2695C1.13021 16.556 1.53645 16.7305 2.0625 16.793C2.43229 16.8346 2.90885 16.8737 3.49218 16.9102C4.08073 16.9466 4.72656 16.9805 5.42968 17.0117C6.13281 17.0378 6.84895 17.0586 7.57812 17.0742C8.30729 17.0898 9 17.0977 9.65625 17.0977ZM9.65625 16.0742C8.99479 16.0742 8.30208 16.0664 7.57812 16.0508C6.85416 16.0352 6.15104 16.0169 5.46875 15.9961C4.79166 15.9701 4.17968 15.9414 3.63281 15.9102C3.08593 15.8737 2.65364 15.8346 2.33593 15.793C2.00781 15.7513 1.77604 15.6471 1.64062 15.4805C1.50521 15.3086 1.4375 15.0742 1.4375 14.7773V13.7148C1.4375 13.3555 1.46094 13.0508 1.50781 12.8008C1.55469 12.5456 1.63281 12.306 1.74219 12.082C1.85677 11.8581 2.01562 11.6133 2.21875 11.3477L3.01562 10.3008C3.0677 10.0195 3.13541 9.71745 3.21875 9.39453C3.30208 9.07161 3.39323 8.7513 3.49218 8.43359C3.59114 8.11589 3.6901 7.82161 3.78906 7.55078C3.89323 7.27995 3.98698 7.05339 4.07031 6.87109C4.19531 6.60026 4.3802 6.38411 4.625 6.22266C4.86979 6.05599 5.16927 5.95182 5.52343 5.91016C5.6901 5.88932 5.96875 5.86849 6.35937 5.84766C6.75 5.82682 7.22656 5.8112 7.78906 5.80078C8.35156 5.78516 8.97395 5.77734 9.65625 5.77734C10.3437 5.77734 10.9687 5.78516 11.5312 5.80078C12.099 5.8112 12.5755 5.82682 12.9609 5.84766C13.3516 5.86849 13.6224 5.88932 13.7734 5.91016C14.1432 5.95703 14.4479 6.0638 14.6875 6.23047C14.9323 6.39193 15.1198 6.60547 15.25 6.87109C15.3333 7.05339 15.4245 7.27995 15.5234 7.55078C15.6224 7.82161 15.7214 8.11589 15.8203 8.43359C15.9193 8.7513 16.0104 9.07161 16.0937 9.39453C16.1771 9.71745 16.2448 10.0195 16.2969 10.3008L17.1016 11.3477C17.3047 11.6133 17.4609 11.8581 17.5703 12.082C17.6849 12.306 17.763 12.5456 17.8047 12.8008C17.8516 13.0508 17.875 13.3555 17.875 13.7148V14.7773C17.875 15.0742 17.8073 15.3086 17.6719 15.4805C17.5417 15.6523 17.3099 15.7565 16.9766 15.793C16.6641 15.8346 16.2344 15.8711 15.6875 15.9023C15.1406 15.9336 14.526 15.9622 13.8437 15.9883C13.1615 16.0143 12.4583 16.0352 11.7344 16.0508C11.0156 16.0664 10.3229 16.0742 9.65625 16.0742ZM1.85156 19.2461H2.76562C3.0625 19.2461 3.30989 19.1471 3.50781 18.9492C3.70573 18.7513 3.80468 18.5065 3.80468 18.2148V16.3555L0.8125 15.9258V18.2148C0.8125 18.5065 0.911458 18.7513 1.10938 18.9492C1.30729 19.1471 1.55469 19.2461 1.85156 19.2461ZM16.5469 19.2461H17.4687C17.7604 19.2461 18.0052 19.1471 18.2031 18.9492C18.401 18.7513 18.5 18.5065 18.5 18.2148V15.9258L15.5156 16.3555V18.2148C15.5156 18.5065 15.6146 18.7513 15.8125 18.9492C16.0104 19.1471 16.2552 19.2461 16.5469 19.2461Z"
		fill="currentColor"
	/>
</svg>
