<svg
	color="rgb(var(--foreground, 0, 0, 0))"
	viewBox="0 0 26 24"
	fill="none"
	xmlns="http://www.w3.org/2000/svg"
>
	<path
		d="M7.74219 17.0742V16.0508C7.0026 16.0404 6.27604 16.0221 5.5625 15.9961C4.84896 15.9648 4.20312 15.9336 3.625 15.9023C3.05208 15.8659 2.60156 15.8294 2.27344 15.793C1.94531 15.7565 1.71354 15.6523 1.57812 15.4805C1.44271 15.3086 1.375 15.0742 1.375 14.7773V13.7148C1.375 13.3555 1.39844 13.0508 1.44531 12.8008C1.49219 12.5456 1.57031 12.306 1.67969 12.082C1.79427 11.8581 1.95312 11.6133 2.15625 11.3477L2.95312 10.3008C3.00521 10.0195 3.07292 9.71745 3.15625 9.39453C3.23958 9.07161 3.33073 8.7513 3.42969 8.43359C3.52865 8.11589 3.6276 7.82161 3.72656 7.55078C3.83073 7.27995 3.92448 7.05339 4.00781 6.87109C4.13281 6.60026 4.31771 6.38411 4.5625 6.22266C4.80729 6.05599 5.10677 5.95182 5.46094 5.91016C5.6276 5.88932 5.90625 5.86849 6.29688 5.84766C6.6875 5.82682 7.16406 5.8112 7.72656 5.80078C8.28906 5.78516 8.91146 5.77734 9.59375 5.77734C10.1562 5.77734 10.6797 5.78255 11.1641 5.79297C11.6536 5.80339 12.0859 5.81641 12.4609 5.83203L12.8828 4.80078C12.4818 4.78516 11.9974 4.77474 11.4297 4.76953C10.862 4.75911 10.25 4.75391 9.59375 4.75391C8.92188 4.75391 8.29427 4.75911 7.71094 4.76953C7.13281 4.77995 6.63542 4.79297 6.21875 4.80859C5.80729 4.82422 5.51562 4.84245 5.34375 4.86328C4.82292 4.92578 4.36719 5.08984 3.97656 5.35547C3.58594 5.61589 3.28646 5.96745 3.07812 6.41016C2.98438 6.60286 2.8724 6.88151 2.74219 7.24609C2.61198 7.61068 2.47917 8.02214 2.34375 8.48047C2.20833 8.9388 2.09375 9.40234 2 9.87109L1.34375 10.7227C1.09896 11.0352 0.903646 11.3372 0.757812 11.6289C0.617188 11.9154 0.513021 12.2253 0.445312 12.5586C0.382812 12.8867 0.351562 13.2721 0.351562 13.7148V14.9336C0.351562 15.4909 0.492188 15.9258 0.773438 16.2383C1.05469 16.5456 1.46354 16.7305 2 16.793C2.29167 16.8294 2.64844 16.8633 3.07031 16.8945C3.49219 16.9258 3.95833 16.9544 4.46875 16.9805C4.97917 17.0013 5.51302 17.0195 6.07031 17.0352C6.6276 17.0508 7.1849 17.0638 7.74219 17.0742ZM9.14844 9.87891L9.96094 6.63672C9.90365 6.63672 9.84375 6.63672 9.78125 6.63672C9.71875 6.63672 9.65625 6.63672 9.59375 6.63672C8.54688 6.63672 7.69792 6.64974 7.04688 6.67578C6.39583 6.69661 5.92969 6.72786 5.64844 6.76953C5.44531 6.80078 5.27865 6.85807 5.14844 6.94141C5.02344 7.02474 4.91146 7.15495 4.8125 7.33203C4.72917 7.47266 4.63802 7.67578 4.53906 7.94141C4.4401 8.20182 4.34375 8.48568 4.25 8.79297C4.15625 9.10026 4.07812 9.39193 4.01562 9.66797C3.98438 9.80859 3.9974 9.90755 4.05469 9.96484C4.11198 10.0221 4.21615 10.0456 4.36719 10.0352C4.60156 10.0195 4.84635 10.0039 5.10156 9.98828C5.35677 9.97266 5.6276 9.95964 5.91406 9.94922C6.20573 9.93359 6.51562 9.92318 6.84375 9.91797C7.17188 9.90755 7.52604 9.89974 7.90625 9.89453C8.29167 9.88411 8.70573 9.87891 9.14844 9.87891ZM1.78906 19.2461H2.70312C3 19.2461 3.2474 19.1471 3.44531 18.9492C3.64323 18.7513 3.74219 18.5065 3.74219 18.2148V16.3789L0.75 15.9336V18.2148C0.75 18.5065 0.848958 18.7513 1.04688 18.9492C1.24479 19.1471 1.49219 19.2461 1.78906 19.2461ZM3.96094 14.9883C4.32031 14.9883 4.61979 14.8685 4.85938 14.6289C5.09896 14.3841 5.21875 14.0846 5.21875 13.7305C5.21875 13.3711 5.09896 13.0716 4.85938 12.832C4.61979 12.5924 4.32031 12.4727 3.96094 12.4727C3.60156 12.4727 3.30208 12.5924 3.0625 12.832C2.82292 13.0716 2.70312 13.3711 2.70312 13.7305C2.70312 14.0846 2.82292 14.3841 3.0625 14.6289C3.30208 14.8685 3.60156 14.9883 3.96094 14.9883ZM16.0625 17.0977C16.7188 17.0977 17.4115 17.0898 18.1406 17.0742C18.8698 17.0586 19.5859 17.0378 20.2891 17.0117C20.9922 16.9805 21.6354 16.9466 22.2188 16.9102C22.8073 16.8737 23.2865 16.8346 23.6563 16.793C24.1823 16.7305 24.5885 16.556 24.875 16.2695C25.1615 15.9831 25.3047 15.5898 25.3047 15.0898V13.7148C25.3047 13.2721 25.2708 12.8867 25.2031 12.5586C25.1406 12.2253 25.0365 11.9154 24.8906 11.6289C24.75 11.3372 24.5573 11.0352 24.3125 10.7227L23.6563 9.87109C23.5573 9.40234 23.4401 8.9388 23.3047 8.48047C23.1745 8.02214 23.0417 7.61068 22.9063 7.24609C22.776 6.88151 22.6667 6.60286 22.5781 6.41016C22.3698 5.96745 22.0703 5.61589 21.6797 5.35547C21.2891 5.09505 20.8333 4.93099 20.3125 4.86328C20.1406 4.83724 19.8464 4.81641 19.4297 4.80078C19.0182 4.78516 18.5208 4.77474 17.9375 4.76953C17.3594 4.75911 16.7344 4.75391 16.0625 4.75391C15.3854 4.75391 14.7578 4.75911 14.1797 4.76953C13.6016 4.77995 13.1042 4.79297 12.6875 4.80859C12.276 4.82422 11.9818 4.84245 11.8047 4.86328C11.2891 4.92578 10.8333 5.08984 10.4375 5.35547C10.0469 5.61589 9.7474 5.96745 9.53906 6.41016C9.45052 6.60286 9.33854 6.88151 9.20312 7.24609C9.07292 7.61068 8.9401 8.02214 8.80469 8.48047C8.67448 8.9388 8.5625 9.40234 8.46875 9.87109L7.80469 10.7227C7.5651 11.0352 7.3724 11.3372 7.22656 11.6289C7.08073 11.9154 6.97396 12.2253 6.90625 12.5586C6.84375 12.8867 6.8125 13.2721 6.8125 13.7148V15.0898C6.8125 15.5898 6.95573 15.9831 7.24219 16.2695C7.52865 16.556 7.9375 16.7305 8.46875 16.793C8.83854 16.8346 9.31511 16.8737 9.89844 16.9102C10.487 16.9466 11.1328 16.9805 11.8359 17.0117C12.5391 17.0378 13.2552 17.0586 13.9844 17.0742C14.7135 17.0898 15.4063 17.0977 16.0625 17.0977ZM16.0625 16.0742C15.3958 16.0742 14.7005 16.0664 13.9766 16.0508C13.2578 16.0352 12.5573 16.0169 11.875 15.9961C11.1927 15.9701 10.5781 15.9414 10.0313 15.9102C9.48438 15.8737 9.05469 15.8346 8.74219 15.793C8.40885 15.7513 8.17448 15.6471 8.03906 15.4805C7.90365 15.3086 7.83594 15.0742 7.83594 14.7773V13.7148C7.83594 13.3555 7.85938 13.0508 7.90625 12.8008C7.95312 12.5456 8.03125 12.306 8.14062 12.082C8.25521 11.8581 8.41406 11.6133 8.61719 11.3477L9.42188 10.3008C9.47396 10.0195 9.54167 9.71745 9.625 9.39453C9.70833 9.07161 9.79948 8.7513 9.89844 8.43359C9.9974 8.11589 10.0964 7.82161 10.1953 7.55078C10.2943 7.27995 10.3854 7.05339 10.4688 6.87109C10.5938 6.60026 10.7786 6.38411 11.0234 6.22266C11.2682 6.05599 11.5703 5.95182 11.9297 5.91016C12.0964 5.88932 12.3724 5.86849 12.7578 5.84766C13.1484 5.82682 13.625 5.8112 14.1875 5.80078C14.75 5.78516 15.375 5.77734 16.0625 5.77734C16.7448 5.77734 17.3672 5.78516 17.9297 5.80078C18.4974 5.8112 18.9766 5.82682 19.3672 5.84766C19.7578 5.86849 20.0286 5.88932 20.1797 5.91016C20.5443 5.95703 20.849 6.0638 21.0938 6.23047C21.3385 6.39193 21.5234 6.60547 21.6484 6.87109C21.737 7.05339 21.8307 7.27995 21.9297 7.55078C22.0286 7.82161 22.1276 8.11589 22.2266 8.43359C22.3255 8.7513 22.4167 9.07161 22.5 9.39453C22.5833 9.71745 22.651 10.0195 22.7031 10.3008L23.5 11.3477C23.7031 11.6133 23.8594 11.8581 23.9688 12.082C24.0833 12.306 24.1641 12.5456 24.2109 12.8008C24.2578 13.0508 24.2813 13.3555 24.2813 13.7148V14.7773C24.2813 15.0742 24.2135 15.3086 24.0781 15.4805C23.9427 15.6523 23.7083 15.7565 23.375 15.793C23.0625 15.8346 22.6328 15.8711 22.0859 15.9023C21.5391 15.9336 20.9245 15.9622 20.2422 15.9883C19.5651 16.0143 18.8646 16.0352 18.1406 16.0508C17.4167 16.0664 16.724 16.0742 16.0625 16.0742ZM10.4844 9.66797C10.4531 9.80859 10.4661 9.90755 10.5234 9.96484C10.5807 10.0221 10.6823 10.0456 10.8281 10.0352C11.2448 10.0039 11.6979 9.97786 12.1875 9.95703C12.6771 9.93099 13.237 9.91276 13.8672 9.90234C14.4974 9.88672 15.2292 9.87891 16.0625 9.87891C16.8958 9.87891 17.625 9.88672 18.25 9.90234C18.8802 9.91276 19.4401 9.93099 19.9297 9.95703C20.4193 9.97786 20.8724 10.0039 21.2891 10.0352C21.4349 10.0456 21.5365 10.0221 21.5938 9.96484C21.651 9.90755 21.6641 9.80859 21.6328 9.66797C21.5703 9.39193 21.4922 9.10026 21.3984 8.79297C21.3099 8.48568 21.2161 8.20182 21.1172 7.94141C21.0182 7.67578 20.9271 7.47266 20.8438 7.33203C20.7396 7.15495 20.625 7.02474 20.5 6.94141C20.375 6.85807 20.2109 6.80078 20.0078 6.76953C19.7214 6.72786 19.2526 6.69661 18.6016 6.67578C17.9557 6.64974 17.1094 6.63672 16.0625 6.63672C15.0104 6.63672 14.1589 6.64974 13.5078 6.67578C12.862 6.69661 12.3984 6.72786 12.1172 6.76953C11.9141 6.80078 11.7474 6.85807 11.6172 6.94141C11.4922 7.02474 11.3776 7.15495 11.2734 7.33203C11.1953 7.47266 11.1068 7.67578 11.0078 7.94141C10.9089 8.20182 10.8125 8.48568 10.7188 8.79297C10.625 9.10026 10.5469 9.39193 10.4844 9.66797ZM8.25 19.2461H9.17188C9.46354 19.2461 9.70834 19.1471 9.90625 18.9492C10.1042 18.7513 10.2031 18.5065 10.2031 18.2148V16.3555L7.21875 15.9258V18.2148C7.21875 18.5065 7.31771 18.7513 7.51562 18.9492C7.71354 19.1471 7.95833 19.2461 8.25 19.2461ZM22.9531 19.2461H23.8672C24.1589 19.2461 24.4036 19.1471 24.6016 18.9492C24.8047 18.7513 24.9063 18.5065 24.9063 18.2148V15.9258L21.9141 16.3555V18.2148C21.9141 18.5065 22.013 18.7513 22.2109 18.9492C22.4089 19.1471 22.6563 19.2461 22.9531 19.2461ZM10.4297 14.9883C10.7839 14.9883 11.0807 14.8685 11.3203 14.6289C11.5599 14.3841 11.6797 14.0846 11.6797 13.7305C11.6797 13.3711 11.5599 13.0716 11.3203 12.832C11.0807 12.5924 10.7839 12.4727 10.4297 12.4727C10.0703 12.4727 9.77083 12.5924 9.53125 12.832C9.29167 13.0716 9.17188 13.3711 9.17188 13.7305C9.17188 14.0846 9.29167 14.3841 9.53125 14.6289C9.77083 14.8685 10.0703 14.9883 10.4297 14.9883ZM13.9922 14.6758H18.125C18.3906 14.6758 18.6068 14.5924 18.7734 14.4258C18.9453 14.2591 19.0313 14.0404 19.0313 13.7695C19.0313 13.5039 18.9453 13.2878 18.7734 13.1211C18.6068 12.9544 18.3906 12.8711 18.125 12.8711H13.9922C13.7266 12.8711 13.5078 12.9544 13.3359 13.1211C13.1693 13.2878 13.0859 13.5039 13.0859 13.7695C13.0859 14.0404 13.1693 14.2591 13.3359 14.4258C13.5078 14.5924 13.7266 14.6758 13.9922 14.6758ZM21.6953 14.9883C22.0495 14.9883 22.3464 14.8685 22.5859 14.6289C22.8307 14.3841 22.9531 14.0846 22.9531 13.7305C22.9531 13.3711 22.8307 13.0716 22.5859 12.832C22.3464 12.5924 22.0495 12.4727 21.6953 12.4727C21.3359 12.4727 21.0365 12.5924 20.7969 12.832C20.5573 13.0716 20.4375 13.3711 20.4375 13.7305C20.4375 14.0846 20.5573 14.3841 20.7969 14.6289C21.0365 14.8685 21.3359 14.9883 21.6953 14.9883Z"
		fill="currentColor"
	/>
</svg>
