<svg
	color="rgb(var(--foreground, 0, 0, 0))"
	viewBox="0 0 26 24"
	fill="none"
	xmlns="http://www.w3.org/2000/svg"
>
	<path
		d="M15.9609 17.1055C16.6172 17.1055 17.3099 17.0977 18.0391 17.082C18.7682 17.0664 19.4818 17.0456 20.1797 17.0195C20.8828 16.9883 21.5286 16.9544 22.1172 16.918C22.7057 16.8815 23.1849 16.8424 23.5547 16.8008C24.0807 16.7383 24.487 16.5638 24.7734 16.2773C25.0599 15.9909 25.2031 15.5977 25.2031 15.0977V13.7227C25.2031 13.2799 25.1693 12.8945 25.1016 12.5664C25.0391 12.2331 24.9349 11.9232 24.7891 11.6367C24.6432 11.3451 24.4505 11.043 24.2109 10.7305L23.5547 9.87891C23.4557 9.41016 23.3385 8.94661 23.2031 8.48828C23.0729 8.02995 22.9401 7.61849 22.8047 7.25391C22.6745 6.88932 22.5651 6.61068 22.4766 6.41797C22.2682 5.97526 21.9688 5.6237 21.5781 5.36328C21.1875 5.10286 20.7318 4.9388 20.2109 4.87109C20.0391 4.84505 19.7448 4.82422 19.3281 4.80859C18.9167 4.79297 18.4193 4.78255 17.8359 4.77734C17.2578 4.76693 16.6328 4.76172 15.9609 4.76172C15.2839 4.76172 14.6536 4.76693 14.0703 4.77734C13.4922 4.78776 12.9974 4.80078 12.5859 4.81641C12.1745 4.83203 11.8802 4.85026 11.7031 4.87109C11.1823 4.93359 10.7266 5.09766 10.3359 5.36328C9.94531 5.6237 9.64583 5.97526 9.4375 6.41797C9.34896 6.61068 9.23698 6.88932 9.10156 7.25391C8.97135 7.61849 8.83854 8.02995 8.70312 8.48828C8.57292 8.94661 8.45833 9.41016 8.35938 9.87891L7.70312 10.7305C7.46354 11.043 7.27083 11.3451 7.125 11.6367C6.97917 11.9232 6.8724 12.2331 6.80469 12.5664C6.74219 12.8945 6.71094 13.2799 6.71094 13.7227V15.0977C6.71094 15.5977 6.85417 15.9909 7.14062 16.2773C7.42708 16.5638 7.83333 16.7383 8.35938 16.8008C8.73438 16.8424 9.21354 16.8815 9.79688 16.918C10.3854 16.9544 11.0286 16.9883 11.7266 17.0195C12.4297 17.0456 13.1458 17.0664 13.875 17.082C14.6042 17.0977 15.2995 17.1055 15.9609 17.1055ZM9.9375 9.22266C10 8.94141 10.0781 8.64193 10.1719 8.32422C10.2708 8.00651 10.3724 7.71224 10.4766 7.44141C10.5807 7.16536 10.6745 6.95182 10.7578 6.80078C10.8672 6.61849 10.9844 6.48307 11.1094 6.39453C11.2396 6.30599 11.4115 6.24609 11.625 6.21484C11.9167 6.17318 12.4089 6.14193 13.1016 6.12109C13.7995 6.09505 14.7526 6.08203 15.9609 6.08203C17.1693 6.08203 18.1198 6.09245 18.8125 6.11328C19.5052 6.13411 20 6.16797 20.2969 6.21484C20.5052 6.24609 20.6719 6.30599 20.7969 6.39453C20.9271 6.48307 21.0469 6.61849 21.1562 6.80078C21.2448 6.94661 21.3385 7.15755 21.4375 7.43359C21.5417 7.70443 21.6406 8.0013 21.7344 8.32422C21.8281 8.64193 21.9089 8.94141 21.9766 9.22266C22.013 9.36849 22 9.47266 21.9375 9.53516C21.8802 9.59245 21.776 9.61589 21.625 9.60547C21.1927 9.57943 20.7188 9.55339 20.2031 9.52734C19.6875 9.5013 19.0859 9.48047 18.3984 9.46484C17.7109 9.44922 16.8984 9.44141 15.9609 9.44141C15.0182 9.44141 14.2031 9.44922 13.5156 9.46484C12.8281 9.48047 12.2266 9.5013 11.7109 9.52734C11.1953 9.55339 10.7214 9.57943 10.2891 9.60547C10.138 9.61589 10.0339 9.59245 9.97656 9.53516C9.91927 9.47266 9.90625 9.36849 9.9375 9.22266ZM10.3203 14.9961C9.96615 14.9961 9.66927 14.8763 9.42969 14.6367C9.1901 14.3919 9.07031 14.0924 9.07031 13.7383C9.07031 13.3789 9.1901 13.0794 9.42969 12.8398C9.66927 12.6003 9.96615 12.4805 10.3203 12.4805C10.6797 12.4805 10.9792 12.6003 11.2188 12.8398C11.4583 13.0794 11.5781 13.3789 11.5781 13.7383C11.5781 14.0924 11.4583 14.3919 11.2188 14.6367C10.9792 14.8763 10.6797 14.9961 10.3203 14.9961ZM13.8906 14.6836C13.625 14.6836 13.4062 14.6003 13.2344 14.4336C13.0677 14.2669 12.9844 14.0482 12.9844 13.7773C12.9844 13.5117 13.0677 13.2956 13.2344 13.1289C13.4062 12.9622 13.625 12.8789 13.8906 12.8789H18.0234C18.2891 12.8789 18.5052 12.9622 18.6719 13.1289C18.8438 13.2956 18.9297 13.5117 18.9297 13.7773C18.9297 14.0482 18.8438 14.2669 18.6719 14.4336C18.5052 14.6003 18.2891 14.6836 18.0234 14.6836H13.8906ZM21.5938 14.9961C21.2344 14.9961 20.9349 14.8763 20.6953 14.6367C20.4557 14.3919 20.3359 14.0924 20.3359 13.7383C20.3359 13.3789 20.4557 13.0794 20.6953 12.8398C20.9349 12.6003 21.2344 12.4805 21.5938 12.4805C21.9479 12.4805 22.2448 12.6003 22.4844 12.8398C22.724 13.0794 22.8438 13.3789 22.8438 13.7383C22.8438 14.0924 22.724 14.3919 22.4844 14.6367C22.2448 14.8763 21.9479 14.9961 21.5938 14.9961ZM7.75 19.2539H8.67188C8.96354 19.2539 9.20833 19.1549 9.40625 18.957C9.60417 18.7591 9.70312 18.5143 9.70312 18.2227V16.2773L6.71094 14.8555V18.2227C6.71094 18.5143 6.8099 18.7591 7.00781 18.957C7.21094 19.1549 7.45833 19.2539 7.75 19.2539ZM23.2422 19.2539H24.1641C24.4557 19.2539 24.7005 19.1549 24.8984 18.957C25.1016 18.7591 25.2031 18.5143 25.2031 18.2227V14.8555L22.2109 16.2773V18.2227C22.2109 18.5143 22.3099 18.7591 22.5078 18.957C22.7057 19.1549 22.9505 19.2539 23.2422 19.2539ZM3.53125 9.29297C3.59375 9.01172 3.67188 8.71224 3.76562 8.39453C3.86458 8.07682 3.96615 7.78255 4.07031 7.51172C4.17448 7.23568 4.26823 7.02214 4.35156 6.87109C4.45573 6.6888 4.57292 6.55339 4.70312 6.46484C4.83333 6.3763 5.0026 6.31641 5.21094 6.28516C5.46094 6.2487 5.84635 6.22005 6.36719 6.19922C6.89323 6.17839 7.59635 6.16276 8.47656 6.15234C8.57031 5.87109 8.68229 5.61849 8.8125 5.39453C8.94792 5.16536 9.13021 4.94922 9.35938 4.74609C8.26562 4.75651 7.36979 4.77214 6.67188 4.79297C5.97917 4.8138 5.51562 4.83724 5.28125 4.86328C4.76042 4.92057 4.30469 5.08464 3.91406 5.35547C3.52344 5.62109 3.22396 5.97526 3.01562 6.41797C2.92188 6.60547 2.8099 6.88411 2.67969 7.25391C2.54948 7.61849 2.41667 8.02995 2.28125 8.48828C2.15104 8.94661 2.03906 9.41016 1.94531 9.87891L1.29688 10.7305C1.05729 11.043 0.864583 11.3451 0.71875 11.6367C0.572917 11.9284 0.466146 12.2409 0.398438 12.5742C0.335938 12.9023 0.304688 13.2878 0.304688 13.7305L0.3125 15.1055C0.317708 15.6055 0.460938 15.9987 0.742188 16.2852C1.02865 16.5664 1.4349 16.7383 1.96094 16.8008C2.36198 16.8477 2.88802 16.8919 3.53906 16.9336C4.1901 16.9701 4.89062 17.0013 5.64062 17.0273V13.7305C5.64062 13.2878 5.67188 12.9023 5.73438 12.5742C5.80208 12.2409 5.90885 11.9284 6.05469 11.6367C6.20052 11.3451 6.39062 11.043 6.625 10.7305L7.28125 9.87891L7.39062 9.52734C6.875 9.53776 6.40885 9.55078 5.99219 9.56641C5.58073 9.58203 5.20312 9.60026 4.85938 9.62109C4.51562 9.63672 4.1901 9.65495 3.88281 9.67578C3.73177 9.6862 3.625 9.66276 3.5625 9.60547C3.50521 9.54297 3.49479 9.4388 3.53125 9.29297ZM3.25 14.5742C2.92188 14.5742 2.64844 14.4648 2.42969 14.2461C2.21094 14.0221 2.10156 13.7487 2.10156 13.4258C2.10156 13.0977 2.21094 12.8242 2.42969 12.6055C2.64844 12.3867 2.92188 12.2773 3.25 12.2773C3.57292 12.2773 3.84375 12.3867 4.0625 12.6055C4.28125 12.8242 4.39062 13.0977 4.39062 13.4258C4.39062 13.7487 4.28125 14.0221 4.0625 14.2461C3.84375 14.4648 3.57292 14.5742 3.25 14.5742ZM1.35938 19.2539H2.27344C2.57031 19.2539 2.8151 19.1549 3.00781 18.957C3.20573 18.7591 3.30469 18.5143 3.30469 18.2227V16.043L0.3125 14.6289V18.2305C0.3125 18.5221 0.411458 18.7643 0.609375 18.957C0.8125 19.1549 1.0625 19.2539 1.35938 19.2539Z"
		fill="currentColor"
	/>
</svg>
