<svg
	color="rgb(var(--foreground, 0, 0, 0))"
	viewBox="0 0 21 24"
	fill="none"
	xmlns="http://www.w3.org/2000/svg"
>
	<path
		d="M4.70752 13.7134L18.106 10.1431C18.606 10.0077 19.0487 9.80456 19.4341 9.53373C19.8195 9.26289 20.0981 8.953 20.27 8.60404C20.4419 8.24987 20.4601 7.88789 20.3247 7.5181C20.1997 7.17956 19.9653 6.92696 19.6216 6.76029C19.283 6.58841 18.8898 6.49987 18.4419 6.49466C17.994 6.48425 17.5461 6.55456 17.0981 6.7056L12.4028 8.31498C12.2414 8.36706 12.0903 8.3905 11.9497 8.38529C11.8143 8.37487 11.6528 8.32539 11.4653 8.23685L4.91846 5.1431C4.69971 5.04414 4.48096 5.02591 4.26221 5.08841L3.72314 5.25248C3.62939 5.28373 3.5721 5.34623 3.55127 5.43998C3.53044 5.53373 3.56169 5.62487 3.64502 5.71341L8.12158 10.4634L8.27002 9.72123L4.31689 11.0806L5.84814 11.1275L1.27002 9.50248C1.16585 9.46602 1.06429 9.45821 0.965332 9.47904C0.871582 9.49987 0.772624 9.55716 0.668457 9.65091L0.441895 9.86185C0.36377 9.92956 0.322103 10.0077 0.316895 10.0962C0.316895 10.1848 0.348145 10.2629 0.410645 10.3306L3.15283 13.4087C3.33512 13.6119 3.55648 13.7369 3.81689 13.7837C4.08252 13.8254 4.37939 13.802 4.70752 13.7134ZM1.84814 18.9478H18.7075C18.8794 18.9478 19.0278 18.8853 19.1528 18.7603C19.2778 18.6353 19.3403 18.4869 19.3403 18.315C19.3403 18.1431 19.2778 17.9947 19.1528 17.8697C19.0278 17.7499 18.8794 17.69 18.7075 17.69H1.84814C1.67627 17.69 1.52783 17.7499 1.40283 17.8697C1.28304 17.9947 1.22314 18.1431 1.22314 18.315C1.22314 18.4869 1.28304 18.6353 1.40283 18.7603C1.52783 18.8853 1.67627 18.9478 1.84814 18.9478Z"
		fill="currentColor"
	/>
</svg>
