<svg
	color="rgb(var(--foreground, 0, 0, 0))"
	viewBox="0 0 17 24"
	fill="none"
	xmlns="http://www.w3.org/2000/svg"
>
	<path
		d="M1.61731 20.4453C1.61731 20.7318 1.71627 20.974 1.91418 21.1719C2.1121 21.375 2.35689 21.4766 2.64856 21.4766H3.57043C3.8621 21.4766 4.10689 21.3776 4.30481 21.1797C4.50793 20.9818 4.6095 20.737 4.6095 20.4453V19.1484C5.38033 19.2005 6.09387 19.2396 6.75012 19.2656C7.41158 19.2969 8.05741 19.3125 8.68762 19.3125C9.32304 19.3125 9.96627 19.2995 10.6173 19.2734C11.2736 19.2474 11.9897 19.2057 12.7657 19.1484V20.4453C12.7657 20.737 12.8647 20.9818 13.0626 21.1797C13.2605 21.3776 13.5053 21.4766 13.797 21.4766H14.7189C15.0105 21.4766 15.2553 21.375 15.4532 21.1719C15.6564 20.974 15.7579 20.7318 15.7579 20.4453V4.51562C15.7579 4.01562 15.6147 3.6224 15.3282 3.33594C15.0418 3.04948 14.6329 2.875 14.1017 2.8125C13.2788 2.71875 12.4038 2.64844 11.4767 2.60156C10.5548 2.54948 9.62512 2.52344 8.68762 2.52344C7.75533 2.52344 6.82825 2.54948 5.90637 2.60156C4.9845 2.64844 4.10429 2.71875 3.26575 2.8125C2.7345 2.875 2.32564 3.04948 2.03918 3.33594C1.75793 3.6224 1.61731 4.01562 1.61731 4.51562V20.4453ZM3.047 8.8125V5.14844C3.047 4.59115 3.30481 4.28125 3.82043 4.21875C4.63293 4.13021 5.44283 4.0625 6.25012 4.01562C7.06262 3.96875 7.87512 3.94531 8.68762 3.94531C9.49491 3.94531 10.3048 3.96875 11.1173 4.01562C11.9298 4.0625 12.7423 4.13021 13.5548 4.21875C14.0704 4.28125 14.3282 4.59115 14.3282 5.14844V8.8125H3.047ZM3.047 9.95312H14.3282V13.4531C14.3282 14.0104 14.0704 14.3177 13.5548 14.375C12.7736 14.4635 11.9715 14.5312 11.1486 14.5781C10.3309 14.625 9.51054 14.6484 8.68762 14.6484C7.86471 14.6484 7.04439 14.6276 6.22668 14.5859C5.40898 14.5391 4.60689 14.4688 3.82043 14.375C3.30481 14.3177 3.047 14.0104 3.047 13.4531V9.95312ZM4.50012 17.6875C4.2345 17.6875 4.01054 17.5964 3.82825 17.4141C3.65116 17.2318 3.56262 17.0104 3.56262 16.75C3.56262 16.4844 3.65116 16.263 3.82825 16.0859C4.01054 15.9036 4.2345 15.8125 4.50012 15.8125C4.76575 15.8125 4.9871 15.9036 5.16418 16.0859C5.34648 16.263 5.43762 16.4844 5.43762 16.75C5.43762 17.0104 5.34648 17.2318 5.16418 17.4141C4.9871 17.5964 4.76575 17.6875 4.50012 17.6875ZM7.32825 17.3984C7.14075 17.3984 6.9845 17.3359 6.8595 17.2109C6.7345 17.0859 6.672 16.9297 6.672 16.7422C6.672 16.5495 6.73189 16.3932 6.85168 16.2734C6.97668 16.1484 7.13554 16.0859 7.32825 16.0859H10.0392C10.2319 16.0859 10.3907 16.1484 10.5157 16.2734C10.6407 16.3932 10.7032 16.5495 10.7032 16.7422C10.7032 16.9297 10.6407 17.0859 10.5157 17.2109C10.3907 17.3359 10.2319 17.3984 10.0392 17.3984H7.32825ZM12.8751 17.6875C12.6095 17.6875 12.3855 17.5964 12.2032 17.4141C12.0262 17.2318 11.9376 17.0104 11.9376 16.75C11.9376 16.4844 12.0262 16.263 12.2032 16.0859C12.3855 15.9036 12.6095 15.8125 12.8751 15.8125C13.1355 15.8125 13.3569 15.9036 13.5392 16.0859C13.7215 16.263 13.8126 16.4844 13.8126 16.75C13.8126 17.0104 13.7215 17.2318 13.5392 17.4141C13.3569 17.5964 13.1355 17.6875 12.8751 17.6875ZM2.12512 11.7656V7.73438H1.26575C1.047 7.73438 0.86731 7.79688 0.726685 7.92188C0.591268 8.04688 0.52356 8.21354 0.52356 8.42188V11.0859C0.52356 11.2891 0.591268 11.4531 0.726685 11.5781C0.86731 11.7031 1.047 11.7656 1.26575 11.7656H2.12512ZM15.2501 11.7656H16.1095C16.3282 11.7656 16.5053 11.7031 16.6407 11.5781C16.7814 11.4531 16.8517 11.2891 16.8517 11.0859V8.42188C16.8517 8.21354 16.7814 8.04688 16.6407 7.92188C16.5053 7.79688 16.3282 7.73438 16.1095 7.73438H15.2501V11.7656Z"
		fill="currentColor"
	/>
</svg>
