<svg
	color="rgb(var(--foreground, 0, 0, 0))"
	viewBox="0 0 18 24"
	fill="none"
	xmlns="http://www.w3.org/2000/svg"
>
	<path
		d="M9.20325 19.2812C9.80221 19.2812 10.4298 19.2682 11.0861 19.2422C11.7423 19.2214 12.3881 19.1875 13.0236 19.1406C13.6642 19.099 14.2501 19.0469 14.7814 18.9844C15.3126 18.9219 15.7189 18.7474 16.0001 18.4609C16.2866 18.1745 16.4298 17.7786 16.4298 17.2734V4.5625C16.4298 4.0625 16.2866 3.66927 16.0001 3.38281C15.7189 3.09635 15.3126 2.92188 14.7814 2.85938C14.2501 2.79688 13.6642 2.74479 13.0236 2.70312C12.3881 2.65625 11.7423 2.6224 11.0861 2.60156C10.4298 2.57552 9.80221 2.5625 9.20325 2.5625C8.60429 2.5625 7.97408 2.57552 7.31262 2.60156C6.65637 2.6224 6.01054 2.65625 5.37512 2.70312C4.73971 2.74479 4.15637 2.79688 3.62512 2.85938C3.09387 2.92188 2.68502 3.09635 2.39856 3.38281C2.11731 3.66927 1.97668 4.0625 1.97668 4.5625V17.2734C1.97668 17.7786 2.11731 18.1745 2.39856 18.4609C2.68502 18.7474 3.09387 18.9219 3.62512 18.9844C4.15637 19.0469 4.73971 19.099 5.37512 19.1406C6.01054 19.1875 6.65637 19.2214 7.31262 19.2422C7.97408 19.2682 8.60429 19.2812 9.20325 19.2812ZM9.20325 18.2578C8.57825 18.2578 7.94283 18.2448 7.297 18.2188C6.65637 18.1979 6.04179 18.1667 5.45325 18.125C4.86991 18.0885 4.35168 18.0417 3.89856 17.9844C3.56523 17.9427 3.33085 17.8385 3.19543 17.6719C3.06523 17.5 3.00012 17.263 3.00012 16.9609V4.875C3.00012 4.57812 3.06523 4.34635 3.19543 4.17969C3.33085 4.00781 3.56523 3.90104 3.89856 3.85938C4.35168 3.80208 4.86991 3.7526 5.45325 3.71094C6.04179 3.66927 6.65637 3.63802 7.297 3.61719C7.94283 3.59635 8.57825 3.58594 9.20325 3.58594C9.81783 3.58594 10.4428 3.59896 11.0782 3.625C11.7189 3.64583 12.3335 3.67708 12.922 3.71875C13.5157 3.75521 14.0444 3.80208 14.5079 3.85938C14.8361 3.89583 15.0678 4 15.2032 4.17188C15.3387 4.34375 15.4064 4.57812 15.4064 4.875V16.9609C15.4064 17.263 15.3387 17.5 15.2032 17.6719C15.0678 17.8385 14.8361 17.9427 14.5079 17.9844C14.0444 18.0417 13.5157 18.0885 12.922 18.125C12.3335 18.1667 11.7189 18.1979 11.0782 18.2188C10.4428 18.2448 9.81783 18.2578 9.20325 18.2578ZM3.40637 21.4375H4.32825C4.61991 21.4375 4.86471 21.3385 5.06262 21.1406C5.26575 20.9427 5.36731 20.6979 5.36731 20.4062V18.7188L2.37512 18.2656V20.4062C2.37512 20.6927 2.47408 20.9349 2.672 21.1328C2.86991 21.3359 3.11471 21.4375 3.40637 21.4375ZM14.0782 21.4375H14.9923C15.2892 21.4375 15.5366 21.3359 15.7345 21.1328C15.9324 20.9349 16.0314 20.6927 16.0314 20.4062V18.2656L13.0392 18.7188V20.4062C13.0392 20.6979 13.1381 20.9427 13.3361 21.1406C13.5392 21.3385 13.7866 21.4375 14.0782 21.4375ZM2.4845 11.8828V7.85156H1.62512C1.40637 7.85156 1.22668 7.91406 1.08606 8.03906C0.950643 8.16406 0.882935 8.33073 0.882935 8.53906V11.2031C0.882935 11.4062 0.950643 11.5703 1.08606 11.6953C1.22668 11.8203 1.40637 11.8828 1.62512 11.8828H2.4845ZM15.922 11.8828H16.7814C17.0001 11.8828 17.1772 11.8203 17.3126 11.6953C17.4532 11.5703 17.5236 11.4062 17.5236 11.2031V8.53906C17.5236 8.33073 17.4532 8.16406 17.3126 8.03906C17.1772 7.91406 17.0001 7.85156 16.7814 7.85156H15.922V11.8828ZM3.80481 8.89844H14.6017V5.70312C14.6017 5.11458 14.2996 4.78646 13.6954 4.71875C13.0184 4.64583 12.297 4.59115 11.5314 4.55469C10.771 4.51823 9.99491 4.5 9.20325 4.5C8.41158 4.5 7.63293 4.51823 6.86731 4.55469C6.10689 4.59115 5.39075 4.64583 4.71887 4.71875C4.1095 4.79167 3.80481 5.11979 3.80481 5.70312V8.89844ZM3.80481 9.96094V13.0703C3.80481 13.5703 4.047 13.862 4.53137 13.9453C5.12512 14.0495 5.82564 14.1276 6.63293 14.1797C7.44543 14.2318 8.29179 14.2604 9.172 14.2656C10.0522 14.2656 10.9012 14.2396 11.7189 14.1875C12.5418 14.1354 13.2605 14.0547 13.8751 13.9453C14.0887 13.9089 14.2631 13.8203 14.3986 13.6797C14.534 13.5339 14.6017 13.3307 14.6017 13.0703V9.96094H3.80481ZM5.01575 17.0469C5.26575 17.0469 5.47408 16.9609 5.64075 16.7891C5.81262 16.6172 5.89856 16.4089 5.89856 16.1641C5.89856 15.9141 5.81262 15.7057 5.64075 15.5391C5.47408 15.3672 5.26575 15.2812 5.01575 15.2812C4.76575 15.2812 4.55481 15.3672 4.38293 15.5391C4.21627 15.7057 4.13293 15.9141 4.13293 16.1641C4.13293 16.4089 4.21627 16.6172 4.38293 16.7891C4.55481 16.9609 4.76575 17.0469 5.01575 17.0469ZM7.68762 16.8125H10.7032C10.8907 16.8125 11.047 16.75 11.172 16.625C11.297 16.5 11.3595 16.3438 11.3595 16.1562C11.3595 15.9635 11.297 15.8073 11.172 15.6875C11.0522 15.5625 10.896 15.5 10.7032 15.5H7.68762C7.49491 15.5 7.33606 15.5625 7.21106 15.6875C7.09127 15.8073 7.03137 15.9635 7.03137 16.1562C7.03137 16.3438 7.09387 16.5 7.21887 16.625C7.34387 16.75 7.50012 16.8125 7.68762 16.8125ZM13.3907 17.0469C13.6355 17.0469 13.8439 16.9609 14.0157 16.7891C14.1876 16.6172 14.2736 16.4089 14.2736 16.1641C14.2736 15.9141 14.1876 15.7057 14.0157 15.5391C13.8439 15.3672 13.6355 15.2812 13.3907 15.2812C13.1407 15.2812 12.9298 15.3672 12.7579 15.5391C12.5913 15.7057 12.5079 15.9141 12.5079 16.1641C12.5079 16.4089 12.5913 16.6172 12.7579 16.7891C12.9298 16.9609 13.1407 17.0469 13.3907 17.0469Z"
		fill="currentColor"
	/>
</svg>
