<svg
	color="rgb(var(--foreground, 0, 0, 0))"
	viewBox="0 0 19 24"
	fill="none"
	xmlns="http://www.w3.org/2000/svg"
>
	<path
		d="M1.69786 21.1914H1.73692C2.2265 21.1914 2.63536 21.1367 2.96348 21.0273C3.29161 20.9232 3.57025 20.793 3.79942 20.6367C4.03379 20.4805 4.24213 20.3216 4.42442 20.1602C4.60671 20.0039 4.79161 19.8711 4.97911 19.7617C5.17181 19.6576 5.39577 19.6055 5.65098 19.6055C5.89577 19.6055 6.11452 19.6576 6.30723 19.7617C6.49994 19.8711 6.69004 20.0039 6.87754 20.1602C7.06504 20.3216 7.26817 20.4805 7.48692 20.6367C7.71088 20.793 7.97129 20.9232 8.26817 21.0273C8.57025 21.1367 8.93484 21.1914 9.36192 21.1914C9.78379 21.1914 10.1432 21.1367 10.44 21.0273C10.7421 20.9232 11.0025 20.793 11.2213 20.6367C11.4453 20.4805 11.651 20.3216 11.8385 20.1602C12.026 20.0039 12.2161 19.8711 12.4088 19.7617C12.6015 19.6576 12.8203 19.6055 13.065 19.6055C13.3203 19.6055 13.5416 19.6576 13.7291 19.7617C13.9218 19.8711 14.1093 20.0039 14.2916 20.1602C14.4739 20.3216 14.6796 20.4805 14.9088 20.6367C15.1432 20.793 15.4244 20.9232 15.7525 21.0273C16.0807 21.1367 16.4895 21.1914 16.9791 21.1914H17.0182C17.1692 21.1914 17.2968 21.1367 17.401 21.0273C17.5104 20.9232 17.565 20.7956 17.565 20.6445C17.565 20.4935 17.5104 20.3633 17.401 20.2539C17.2968 20.1445 17.1692 20.0898 17.0182 20.0898H16.9791C16.5572 20.0898 16.2083 20.0143 15.9322 19.8633C15.6562 19.7122 15.3697 19.5326 15.0729 19.3242C14.8229 19.1419 14.5338 18.9596 14.2057 18.7773C13.8828 18.5951 13.5025 18.5039 13.065 18.5039C12.6171 18.5039 12.2265 18.6003 11.8932 18.793C11.565 18.9857 11.2734 19.1758 11.0182 19.3633C10.7525 19.5716 10.4973 19.7435 10.2525 19.8789C10.0078 20.0195 9.71088 20.0898 9.36192 20.0898C9.00775 20.0898 8.70827 20.0195 8.46348 19.8789C8.21869 19.7435 7.96348 19.5716 7.69786 19.3633C7.44265 19.1758 7.14838 18.9857 6.81504 18.793C6.48692 18.6003 6.0989 18.5039 5.65098 18.5039C5.21348 18.5039 4.83067 18.5951 4.50254 18.7773C4.17963 18.9596 3.89317 19.1419 3.64317 19.3242C3.34629 19.5326 3.05983 19.7122 2.78379 19.8633C2.50775 20.0143 2.15879 20.0898 1.73692 20.0898H1.69786C1.54681 20.0898 1.41661 20.1445 1.30723 20.2539C1.20306 20.3633 1.15098 20.4935 1.15098 20.6445C1.15098 20.7956 1.20306 20.9232 1.30723 21.0273C1.41661 21.1367 1.54681 21.1914 1.69786 21.1914ZM3.69004 19.918L4.76036 19.6055L2.01817 15.8789C1.92963 15.7643 1.90879 15.6523 1.95567 15.543C2.00254 15.4336 2.10411 15.3789 2.26036 15.3789H16.4557C16.6171 15.3789 16.7187 15.4336 16.7604 15.543C16.8072 15.6523 16.7864 15.7669 16.6979 15.8867L13.9557 19.5977L15.0338 19.9102L17.69 16.3867C17.9296 16.0742 18.0442 15.7643 18.0338 15.457C18.0286 15.1445 17.9114 14.8867 17.6822 14.6836C17.4583 14.4753 17.1406 14.3711 16.7291 14.3711H1.98692C1.57546 14.3711 1.25775 14.4753 1.03379 14.6836C0.809835 14.8867 0.692647 15.1445 0.682231 15.457C0.671814 15.7643 0.786397 16.0742 1.02598 16.3867L3.69004 19.918ZM5.26036 6.52734C5.23431 6.63151 5.24473 6.70443 5.29161 6.74609C5.33848 6.78776 5.41661 6.80599 5.52598 6.80078C5.82806 6.77995 6.15879 6.76172 6.51817 6.74609C6.87754 6.72526 7.2864 6.70964 7.74473 6.69922C8.20827 6.6888 8.74473 6.68359 9.35411 6.68359C9.96348 6.68359 10.4973 6.6888 10.9557 6.69922C11.4192 6.70964 11.8307 6.72526 12.19 6.74609C12.5494 6.76172 12.8801 6.77995 13.1822 6.80078C13.2916 6.80599 13.3697 6.78776 13.4166 6.74609C13.4635 6.70443 13.4739 6.63151 13.4479 6.52734C13.3801 6.22005 13.289 5.89714 13.1744 5.55859C13.0598 5.21484 12.9557 4.96484 12.8619 4.80859C12.789 4.67318 12.7031 4.57682 12.6041 4.51953C12.5104 4.45703 12.3906 4.41276 12.2447 4.38672C12.0416 4.36068 11.7031 4.33984 11.2291 4.32422C10.7604 4.30339 10.1354 4.29297 9.35411 4.29297C8.57286 4.29297 7.94525 4.30339 7.47129 4.32422C7.00254 4.33984 6.66661 4.36068 6.46348 4.38672C6.31765 4.41276 6.19525 4.45703 6.09629 4.51953C6.00254 4.57682 5.91661 4.67318 5.83848 4.80859C5.74994 4.96484 5.64838 5.21484 5.53379 5.55859C5.41921 5.89714 5.32806 6.22005 5.26036 6.52734ZM5.22911 10.418C5.49473 10.418 5.71608 10.332 5.89317 10.1602C6.07025 9.98307 6.15879 9.76172 6.15879 9.49609C6.15879 9.23047 6.07025 9.01172 5.89317 8.83984C5.71608 8.66276 5.49473 8.57422 5.22911 8.57422C4.96869 8.57422 4.74994 8.66276 4.57286 8.83984C4.39577 9.01172 4.30723 9.23047 4.30723 9.49609C4.30723 9.76172 4.39577 9.98307 4.57286 10.1602C4.74994 10.332 4.96869 10.418 5.22911 10.418ZM7.84629 10.1992H10.8619C11.0598 10.1992 11.2213 10.1367 11.3463 10.0117C11.4713 9.88672 11.5338 9.72526 11.5338 9.52734C11.5338 9.32943 11.4713 9.17057 11.3463 9.05078C11.2213 8.92578 11.0598 8.86328 10.8619 8.86328H7.84629C7.64838 8.86328 7.48692 8.92578 7.36192 9.05078C7.23692 9.17057 7.17442 9.32943 7.17442 9.52734C7.17442 9.72526 7.23692 9.88672 7.36192 10.0117C7.48692 10.1367 7.64838 10.1992 7.84629 10.1992ZM13.4713 10.418C13.7369 10.418 13.9583 10.332 14.1354 10.1602C14.3124 9.98307 14.401 9.76172 14.401 9.49609C14.401 9.23047 14.3124 9.01172 14.1354 8.83984C13.9583 8.66276 13.7369 8.57422 13.4713 8.57422C13.2109 8.57422 12.9921 8.66276 12.815 8.83984C12.638 9.01172 12.5494 9.23047 12.5494 9.49609C12.5494 9.76172 12.638 9.98307 12.815 10.1602C12.9921 10.332 13.2109 10.418 13.4713 10.418ZM9.35411 12.082C9.83327 12.082 10.3385 12.0768 10.8697 12.0664C11.4062 12.056 11.9322 12.0404 12.4479 12.0195C12.9635 11.9987 13.4348 11.9753 13.8619 11.9492C14.2942 11.9232 14.6484 11.8945 14.9244 11.8633C15.3463 11.8164 15.6718 11.6758 15.901 11.4414C16.1301 11.2018 16.2447 10.8867 16.2447 10.4961V9.48047C16.2447 8.98047 16.1874 8.56641 16.0729 8.23828C15.9583 7.90495 15.7656 7.56641 15.4947 7.22266L15.026 6.62891C14.9531 6.27995 14.8671 5.9388 14.7682 5.60547C14.6744 5.27214 14.5781 4.97266 14.4791 4.70703C14.3854 4.44141 14.3046 4.23568 14.2369 4.08984C13.914 3.40755 13.3307 3.00651 12.4869 2.88672C12.3567 2.87109 12.1406 2.85807 11.8385 2.84766C11.5416 2.83724 11.1796 2.82943 10.7525 2.82422C10.3255 2.8138 9.85931 2.80859 9.35411 2.80859C8.85411 2.80859 8.39056 2.8138 7.96348 2.82422C7.54161 2.82943 7.17963 2.83724 6.87754 2.84766C6.57546 2.85807 6.35931 2.87109 6.22911 2.88672C5.82286 2.9388 5.46869 3.06901 5.16661 3.27734C4.86452 3.48047 4.63015 3.7513 4.46348 4.08984C4.36973 4.30339 4.24213 4.64974 4.08067 5.12891C3.91921 5.60807 3.78379 6.10807 3.67442 6.62891L3.22129 7.22266C2.95046 7.56641 2.75775 7.90495 2.64317 8.23828C2.52858 8.56641 2.47129 8.98047 2.47129 9.48047V10.4961C2.47129 10.8867 2.58327 11.2018 2.80723 11.4414C3.0364 11.6758 3.36192 11.8164 3.78379 11.8633C4.05463 11.8945 4.40619 11.9232 4.83848 11.9492C5.27077 11.9753 5.74213 11.9987 6.25254 12.0195C6.76817 12.0404 7.29161 12.056 7.82286 12.0664C8.35931 12.0768 8.86973 12.082 9.35411 12.082ZM9.35411 11.082C8.86973 11.082 8.36192 11.0794 7.83067 11.0742C7.30463 11.0638 6.79161 11.0508 6.29161 11.0352C5.79681 11.0143 5.3489 10.9935 4.94786 10.9727C4.55202 10.9466 4.23952 10.918 4.01036 10.8867C3.81244 10.8607 3.67181 10.8008 3.58848 10.707C3.51036 10.6133 3.47129 10.4674 3.47129 10.2695V9.48047C3.47129 9.10547 3.50515 8.80859 3.57286 8.58984C3.64577 8.36589 3.79161 8.11328 4.01036 7.83203L4.61973 7.04297C4.66661 6.76693 4.73431 6.46745 4.82286 6.14453C4.9114 5.82161 5.00515 5.51693 5.10411 5.23047C5.20827 4.9388 5.29942 4.70703 5.37754 4.53516C5.46088 4.35286 5.58327 4.20964 5.74473 4.10547C5.90619 3.99609 6.10671 3.92839 6.34629 3.90234C6.52858 3.88151 6.88796 3.86068 7.42442 3.83984C7.96088 3.8138 8.60411 3.80078 9.35411 3.80078C10.1041 3.80078 10.7499 3.8138 11.2916 3.83984C11.8333 3.86068 12.1848 3.88151 12.3463 3.90234C12.5911 3.93359 12.7942 4.0013 12.9557 4.10547C13.1171 4.20964 13.2421 4.35286 13.3307 4.53516C13.414 4.71224 13.5051 4.94661 13.6041 5.23828C13.7083 5.52474 13.8046 5.82943 13.8932 6.15234C13.9817 6.47526 14.0468 6.77214 14.0885 7.04297L14.6979 7.83203C14.9114 8.11328 15.0546 8.36589 15.1275 8.58984C15.2057 8.8138 15.2447 9.11068 15.2447 9.48047V10.2695C15.2447 10.4727 15.2031 10.6211 15.1197 10.7148C15.0364 10.8034 14.8932 10.8607 14.69 10.8867C14.4609 10.9128 14.1458 10.9388 13.7447 10.9648C13.3489 10.9909 12.901 11.0117 12.401 11.0273C11.9062 11.043 11.3958 11.056 10.8697 11.0664C10.3437 11.0768 9.83848 11.082 9.35411 11.082ZM3.64317 13.5352H4.31504C4.53379 13.5352 4.71608 13.4622 4.86192 13.3164C5.01296 13.1706 5.08848 12.9909 5.08848 12.7773V11.4102L2.87754 11.0898V12.7773C2.87754 12.9909 2.95046 13.1706 3.09629 13.3164C3.24733 13.4622 3.42963 13.5352 3.64317 13.5352ZM14.3932 13.5352H15.065C15.2786 13.5352 15.4583 13.4622 15.6041 13.3164C15.7551 13.1706 15.8307 12.9909 15.8307 12.7773V11.0898L13.6197 11.4102L13.6275 12.7773C13.6275 12.9909 13.7005 13.1706 13.8463 13.3164C13.9921 13.4622 14.1744 13.5352 14.3932 13.5352Z"
		fill="currentColor"
	/>
</svg>
