<svg
	color="rgb(var(--foreground, 0, 0, 0))"
	viewBox="0 0 18 24"
	fill="none"
	xmlns="http://www.w3.org/2000/svg"
>
	<path
		d="M1.0507 21.1836H1.08976C1.57935 21.1836 1.9882 21.1289 2.31632 21.0195C2.64966 20.9154 2.93091 20.7852 3.16007 20.6289C3.38924 20.4727 3.59497 20.3138 3.77726 20.1523C3.95955 19.9961 4.14445 19.8633 4.33195 19.7539C4.52466 19.6497 4.74862 19.5977 5.00382 19.5977C5.24862 19.5977 5.46737 19.6497 5.66007 19.7539C5.85278 19.8633 6.04289 19.9961 6.23039 20.1523C6.41789 20.3138 6.62101 20.4727 6.83976 20.6289C7.06372 20.7852 7.32414 20.9154 7.62101 21.0195C7.9231 21.1289 8.28768 21.1836 8.71476 21.1836C9.13664 21.1836 9.49862 21.1289 9.8007 21.0195C10.1028 20.9154 10.3632 20.7852 10.582 20.6289C10.8007 20.4727 11.0038 20.3138 11.1913 20.1523C11.3788 19.9961 11.5689 19.8633 11.7616 19.7539C11.9543 19.6497 12.1731 19.5977 12.4179 19.5977C12.6731 19.5977 12.8945 19.6497 13.082 19.7539C13.2747 19.8633 13.4622 19.9961 13.6445 20.1523C13.8267 20.3138 14.0325 20.4727 14.2616 20.6289C14.496 20.7852 14.7773 20.9154 15.1054 21.0195C15.4335 21.1289 15.8424 21.1836 16.3319 21.1836H16.371C16.5221 21.1836 16.6497 21.1289 16.7538 21.0195C16.8632 20.9154 16.9179 20.7878 16.9179 20.6367C16.9179 20.4857 16.8632 20.3555 16.7538 20.2461C16.6497 20.1367 16.5221 20.082 16.371 20.082H16.3319C15.9101 20.082 15.5611 20.0065 15.2851 19.8555C15.009 19.7044 14.7226 19.5247 14.4257 19.3164C14.1757 19.1341 13.8866 18.9518 13.5585 18.7695C13.2356 18.5872 12.8554 18.4961 12.4179 18.4961C11.9752 18.4961 11.5872 18.5924 11.2538 18.7852C10.9205 18.9779 10.6288 19.168 10.3788 19.3555C10.108 19.5638 9.85018 19.7357 9.60539 19.8711C9.3606 20.0117 9.06372 20.082 8.71476 20.082C8.3606 20.082 8.06112 20.0117 7.81632 19.8711C7.57153 19.7357 7.31632 19.5638 7.0507 19.3555C6.79549 19.168 6.50122 18.9779 6.16789 18.7852C5.83976 18.5924 5.45174 18.4961 5.00382 18.4961C4.57153 18.4961 4.19132 18.5872 3.8632 18.7695C3.54028 18.9518 3.25122 19.1341 2.99601 19.3164C2.69914 19.5247 2.41268 19.7044 2.13664 19.8555C1.8606 20.0065 1.51164 20.082 1.08976 20.082H1.0507C0.899658 20.082 0.76945 20.1367 0.660075 20.2461C0.555908 20.3555 0.503825 20.4857 0.503825 20.6367C0.503825 20.7878 0.555908 20.9154 0.660075 21.0195C0.76945 21.1289 0.899658 21.1836 1.0507 21.1836ZM0.378825 16.3789L2.08976 18.6523C2.13143 18.6263 2.1757 18.5951 2.22257 18.5586C2.26945 18.5273 2.31893 18.4935 2.37101 18.457C2.81893 18.1341 3.24601 17.8815 3.65226 17.6992C4.06372 17.5221 4.51424 17.4336 5.00382 17.4336C5.50903 17.4336 5.96737 17.5273 6.37882 17.7148C6.79549 17.9023 7.23299 18.1654 7.69132 18.5039C7.96737 18.7174 8.16528 18.8555 8.28508 18.918C8.41008 18.9857 8.5533 19.0195 8.71476 19.0195C8.8606 19.0195 8.9908 18.9883 9.10539 18.9258C9.22518 18.8685 9.40226 18.7539 9.63664 18.582C10.1158 18.2122 10.5689 17.9284 10.996 17.7305C11.4283 17.5326 11.9023 17.4336 12.4179 17.4336C12.9075 17.4336 13.358 17.5221 13.7695 17.6992C14.1809 17.8815 14.608 18.1341 15.0507 18.457C15.1028 18.4935 15.1523 18.5273 15.1991 18.5586C15.246 18.5951 15.2929 18.6263 15.3398 18.6523L17.0429 16.3789C17.2825 16.0664 17.3971 15.7565 17.3866 15.4492C17.3814 15.1367 17.2642 14.8789 17.0351 14.6758C16.8111 14.4674 16.4934 14.3633 16.0819 14.3633H1.33976C0.928304 14.3633 0.610596 14.4674 0.386637 14.6758C0.162679 14.8789 0.0454915 15.1367 0.0350749 15.4492C0.0246582 15.7565 0.139242 16.0664 0.378825 16.3789ZM4.30851 6.08203C4.37622 5.76953 4.46997 5.4388 4.58976 5.08984C4.70955 4.73568 4.81632 4.47526 4.91007 4.30859C4.9882 4.17318 5.07414 4.07422 5.16789 4.01172C5.26164 3.94401 5.38664 3.89974 5.54289 3.87891C5.76164 3.84766 6.12362 3.82422 6.62882 3.80859C7.13924 3.79297 7.83455 3.78516 8.71476 3.78516C9.59497 3.78516 10.2877 3.79297 10.7929 3.80859C11.2981 3.81901 11.6601 3.84245 11.8788 3.87891C12.0351 3.89974 12.1601 3.94401 12.2538 4.01172C12.3476 4.07422 12.4335 4.17318 12.5116 4.30859C12.6106 4.47005 12.7174 4.72786 12.832 5.08203C12.9465 5.4362 13.0403 5.76953 13.1132 6.08203C13.1392 6.1862 13.1288 6.26172 13.082 6.30859C13.0403 6.35026 12.9648 6.36849 12.8554 6.36328C12.5377 6.34245 12.1887 6.32422 11.8085 6.30859C11.4335 6.28776 10.996 6.27214 10.496 6.26172C9.99601 6.24609 9.40226 6.23828 8.71476 6.23828C8.02205 6.23828 7.4257 6.24609 6.9257 6.26172C6.4257 6.27214 5.9856 6.28776 5.60539 6.30859C5.23039 6.32422 4.88403 6.34245 4.56632 6.36328C4.45695 6.36849 4.38143 6.35026 4.33976 6.30859C4.2981 6.26172 4.28768 6.1862 4.30851 6.08203ZM4.58976 10.293C4.32935 10.293 4.1106 10.207 3.93351 10.0352C3.76164 9.85807 3.6757 9.63932 3.6757 9.37891C3.6757 9.11849 3.76164 8.90234 3.93351 8.73047C4.1106 8.55339 4.32935 8.46484 4.58976 8.46484C4.85018 8.46484 5.06632 8.55339 5.2382 8.73047C5.41528 8.90234 5.50382 9.11849 5.50382 9.37891C5.50382 9.63932 5.41528 9.85807 5.2382 10.0352C5.06632 10.207 4.85018 10.293 4.58976 10.293ZM7.19914 10.0742C7.00643 10.0742 6.84757 10.0143 6.72257 9.89453C6.60278 9.76953 6.54289 9.60807 6.54289 9.41016C6.54289 9.21745 6.60278 9.0612 6.72257 8.94141C6.84757 8.81641 7.00643 8.75391 7.19914 8.75391H10.2226C10.4153 8.75391 10.5715 8.81641 10.6913 8.94141C10.8163 9.0612 10.8788 9.21745 10.8788 9.41016C10.8788 9.60807 10.8163 9.76953 10.6913 9.89453C10.5715 10.0143 10.4153 10.0742 10.2226 10.0742H7.19914ZM12.832 10.293C12.5715 10.293 12.3528 10.207 12.1757 10.0352C12.0038 9.85807 11.9179 9.63932 11.9179 9.37891C11.9179 9.11849 12.0038 8.90234 12.1757 8.73047C12.3528 8.55339 12.5715 8.46484 12.832 8.46484C13.0924 8.46484 13.3085 8.55339 13.4804 8.73047C13.6575 8.90234 13.746 9.11849 13.746 9.37891C13.746 9.63932 13.6575 9.85807 13.4804 10.0352C13.3085 10.207 13.0924 10.293 12.832 10.293ZM8.71476 11.8398C9.19393 11.8398 9.69914 11.8346 10.2304 11.8242C10.7616 11.8086 11.2851 11.793 11.8007 11.7773C12.3163 11.7565 12.7877 11.7331 13.2148 11.707C13.6418 11.681 13.9908 11.6523 14.2616 11.6211C14.6471 11.5742 14.9439 11.4466 15.1523 11.2383C15.3606 11.0299 15.4648 10.7409 15.4648 10.3711V9.36328C15.4648 8.88411 15.4101 8.48568 15.3007 8.16797C15.1913 7.85026 15.0064 7.52214 14.746 7.18359L14.2616 6.55859C14.1575 6.04297 14.0247 5.54557 13.8632 5.06641C13.7017 4.58203 13.5715 4.23568 13.4726 4.02734C13.3215 3.70443 13.1028 3.44922 12.8163 3.26172C12.5299 3.06901 12.1965 2.94922 11.8163 2.90234C11.6913 2.88151 11.4778 2.86589 11.1757 2.85547C10.8736 2.84505 10.509 2.83724 10.082 2.83203C9.66008 2.82161 9.20435 2.81641 8.71476 2.81641C8.21997 2.81641 7.75903 2.82161 7.33195 2.83203C6.91007 2.83724 6.5481 2.84766 6.24601 2.86328C5.94393 2.8737 5.73039 2.88672 5.60539 2.90234C5.22518 2.94401 4.89185 3.0612 4.60539 3.25391C4.31893 3.44661 4.10018 3.70443 3.94914 4.02734C3.85018 4.23568 3.71997 4.58203 3.55851 5.06641C3.39705 5.54557 3.26424 6.04297 3.16007 6.55859L2.68351 7.18359C2.41789 7.52214 2.23039 7.85026 2.12101 8.16797C2.01164 8.48568 1.95695 8.88411 1.95695 9.36328V10.3711C1.95695 10.7409 2.06112 11.0299 2.26945 11.2383C2.47778 11.4466 2.77466 11.5742 3.16007 11.6211C3.43091 11.6523 3.77987 11.681 4.20695 11.707C4.63924 11.7331 5.1106 11.7565 5.62101 11.7773C6.13664 11.793 6.66007 11.8086 7.19132 11.8242C7.72257 11.8346 8.23039 11.8398 8.71476 11.8398ZM2.71476 13.4102H3.38664C3.60018 13.4102 3.77987 13.3372 3.9257 13.1914C4.07153 13.0456 4.14445 12.8685 4.14445 12.6602V11.2383L1.95695 10.1914V12.6602C1.95695 12.8685 2.02987 13.0456 2.1757 13.1914C2.32153 13.3372 2.50122 13.4102 2.71476 13.4102ZM14.0351 13.4102H14.707C14.9205 13.4102 15.1002 13.3372 15.246 13.1914C15.3918 13.0456 15.4648 12.8685 15.4648 12.6602V10.1914L13.2851 11.2383V12.6602C13.2851 12.8685 13.3554 13.0456 13.496 13.1914C13.6418 13.3372 13.8215 13.4102 14.0351 13.4102Z"
		fill="currentColor"
	/>
</svg>
