<svg
	color="rgb(var(--foreground, 0, 0, 0))"
	viewBox="0 0 18 24"
	fill="none"
	xmlns="http://www.w3.org/2000/svg"
>
	<path
		d="M13.125 20.1289V5.26953C13.125 4.62891 12.9531 4.13932 12.6094 3.80078C12.2708 3.45703 11.7812 3.28516 11.1406 3.28516H4.05469C3.41406 3.28516 2.92448 3.45703 2.58594 3.80078C2.2526 4.13932 2.08594 4.62891 2.08594 5.26953V20.1289H3.33594L3.34375 5.28516C3.34375 4.79036 3.58854 4.54297 4.07812 4.54297H11.1172C11.362 4.54297 11.5469 4.60547 11.6719 4.73047C11.7969 4.85547 11.8594 5.04036 11.8594 5.28516V20.1289H13.125ZM0.851562 20.0742C0.851562 20.2513 0.911458 20.4023 1.03125 20.5273C1.15104 20.6523 1.29688 20.7148 1.46875 20.7148H13.7266C13.8984 20.7148 14.0443 20.6523 14.1641 20.5273C14.2891 20.4023 14.3516 20.2513 14.3516 20.0742C14.3516 19.9076 14.2891 19.7617 14.1641 19.6367C14.0443 19.5169 13.8984 19.457 13.7266 19.457H1.46875C1.30208 19.457 1.15625 19.5169 1.03125 19.6367C0.911458 19.7565 0.851562 19.9023 0.851562 20.0742ZM5.10156 11.8867H10.0938C10.3542 11.8867 10.5651 11.8138 10.7266 11.668C10.8932 11.5221 10.9766 11.332 10.9766 11.0977V6.36328C10.9766 6.1237 10.8932 5.93099 10.7266 5.78516C10.5651 5.63411 10.3542 5.55859 10.0938 5.55859H5.10156C4.84635 5.55859 4.63802 5.63411 4.47656 5.78516C4.3151 5.93099 4.23438 6.1237 4.23438 6.36328V11.0977C4.23438 11.332 4.3125 11.5221 4.46875 11.668C4.63021 11.8138 4.84115 11.8867 5.10156 11.8867ZM12.5234 13.5742H13.2031C13.3802 13.5742 13.5208 13.6263 13.625 13.7305C13.7292 13.8294 13.7812 13.9753 13.7812 14.168V16.7539C13.7812 17.3112 13.9401 17.7461 14.2578 18.0586C14.5755 18.3763 15.0104 18.5352 15.5625 18.5352C16.1198 18.5352 16.5547 18.3763 16.8672 18.0586C17.1797 17.7461 17.3359 17.3112 17.3359 16.7539V7.18359C17.3359 6.94922 17.3047 6.73828 17.2422 6.55078C17.1849 6.36328 17.099 6.17839 16.9844 5.99609L15.9141 4.26172C15.8151 4.10547 15.6927 4.01693 15.5469 3.99609C15.4062 3.97005 15.2734 3.99609 15.1484 4.07422C15.0286 4.14714 14.9453 4.25391 14.8984 4.39453C14.8516 4.52995 14.8776 4.67839 14.9766 4.83984L15.8984 6.32422C15.987 6.47005 15.9818 6.61849 15.8828 6.76953L14.8594 8.19922C14.5365 8.64714 14.5573 9.08464 14.9219 9.51172L16.2344 11.0352V16.7539C16.2344 16.9674 16.1745 17.1341 16.0547 17.2539C15.9349 17.3737 15.7708 17.4336 15.5625 17.4336C15.3542 17.4336 15.1901 17.3737 15.0703 17.2539C14.9505 17.1341 14.8906 16.9674 14.8906 16.7539V14.168C14.8906 13.6263 14.7396 13.2096 14.4375 12.918C14.1406 12.6211 13.7292 12.4727 13.2031 12.4727H12.5234V13.5742Z"
		fill="currentColor"
	/>
</svg>
