<svg
	color="rgb(var(--foreground, 0, 0, 0))"
	viewBox="0 0 17 24"
	fill="none"
	xmlns="http://www.w3.org/2000/svg"
>
	<path
		d="M11.8125 20.1289V5.26953C11.8125 4.62891 11.6406 4.13932 11.2969 3.80078C10.9583 3.45703 10.4714 3.28516 9.83594 3.28516H3.53906C2.89844 3.28516 2.40885 3.45703 2.07031 3.80078C1.73698 4.13932 1.57031 4.62891 1.57031 5.26953V20.1289H11.8125ZM3.79688 11.4414C3.51042 11.4414 3.28646 11.3685 3.125 11.2227C2.96354 11.0716 2.88281 10.8659 2.88281 10.6055V5.44922C2.88281 5.1888 2.96354 4.98307 3.125 4.83203C3.28646 4.68099 3.51042 4.60547 3.79688 4.60547H9.57812C9.86458 4.60547 10.0885 4.68099 10.25 4.83203C10.4167 4.98307 10.5 5.1888 10.5 5.44922V10.6055C10.5 10.8659 10.4167 11.0716 10.25 11.2227C10.0885 11.3685 9.86458 11.4414 9.57812 11.4414H3.79688ZM0.335938 20.0742C0.335938 20.2513 0.395833 20.4023 0.515625 20.5273C0.635417 20.6523 0.78125 20.7148 0.953125 20.7148H12.4141C12.5859 20.7148 12.7344 20.6523 12.8594 20.5273C12.9844 20.4023 13.0469 20.2513 13.0469 20.0742C13.0469 19.9076 12.9844 19.7617 12.8594 19.6367C12.7344 19.5169 12.5859 19.457 12.4141 19.457H0.953125C0.786458 19.457 0.640625 19.5169 0.515625 19.6367C0.395833 19.7565 0.335938 19.9023 0.335938 20.0742ZM11.2109 13.5742H11.8906C12.0677 13.5742 12.2083 13.6263 12.3125 13.7305C12.4219 13.8294 12.4766 13.9753 12.4766 14.168V16.7539C12.4766 17.3112 12.6328 17.7461 12.9453 18.0586C13.263 18.3763 13.7005 18.5352 14.2578 18.5352C14.8099 18.5352 15.2422 18.3763 15.5547 18.0586C15.8672 17.7461 16.0234 17.3112 16.0234 16.7539V7.18359C16.0234 6.94922 15.9922 6.73828 15.9297 6.55078C15.8724 6.36328 15.7865 6.17839 15.6719 5.99609L14.6016 4.26172C14.5026 4.10547 14.3802 4.01693 14.2344 3.99609C14.0938 3.97005 13.9609 3.99609 13.8359 4.07422C13.7161 4.14714 13.6328 4.25391 13.5859 4.39453C13.5443 4.52995 13.5729 4.67839 13.6719 4.83984L14.5859 6.32422C14.6745 6.47005 14.6693 6.61849 14.5703 6.76953L13.5469 8.19922C13.224 8.64714 13.2448 9.08464 13.6094 9.51172L14.9219 11.0352V16.7539C14.9219 16.9674 14.862 17.1341 14.7422 17.2539C14.6224 17.3737 14.4609 17.4336 14.2578 17.4336C14.0443 17.4336 13.8776 17.3737 13.7578 17.2539C13.638 17.1341 13.5781 16.9674 13.5781 16.7539V14.168C13.5781 13.6263 13.4271 13.2096 13.125 12.918C12.8281 12.6211 12.4167 12.4727 11.8906 12.4727H11.2109V13.5742Z"
		fill="currentColor"
	/>
</svg>
