<svg
	color="rgb(var(--foreground, 0, 0, 0))"
	viewBox="0 0 18 24"
	fill="none"
	xmlns="http://www.w3.org/2000/svg"
>
	<path
		d="M17.6328 12C17.6328 11.6979 17.5078 11.4297 17.2578 11.1953C17.0078 10.9557 16.6745 10.7682 16.2578 10.6328C15.8411 10.4922 15.3854 10.4219 14.8906 10.4219H11.7422C11.5234 10.4219 11.3568 10.3984 11.2422 10.3516C11.1328 10.2995 11.013 10.2005 10.8828 10.0547L5.63281 4.32812C5.46094 4.14062 5.26042 4.04688 5.03125 4.04688H4.125C4.02604 4.04688 3.95052 4.08594 3.89844 4.16406C3.85156 4.24219 3.85417 4.33594 3.90625 4.44531L6.60938 10.4219L2.64062 10.875L1.22656 8.28125C1.1224 8.09375 0.945312 8 0.695312 8H0.359375C0.260417 8 0.179688 8.03125 0.117188 8.09375C0.0546875 8.15104 0.0234375 8.23177 0.0234375 8.33594V15.6641C0.0234375 15.763 0.0546875 15.8438 0.117188 15.9062C0.179688 15.9635 0.260417 15.9922 0.359375 15.9922H0.695312C0.945312 15.9922 1.1224 15.901 1.22656 15.7188L2.64062 13.125L6.60938 13.5781L3.90625 19.5547C3.85417 19.6641 3.85156 19.7578 3.89844 19.8359C3.95052 19.9141 4.02604 19.9531 4.125 19.9531H5.03125C5.26042 19.9531 5.46094 19.8594 5.63281 19.6719L10.8828 13.9375C11.013 13.7917 11.1328 13.6953 11.2422 13.6484C11.3568 13.6016 11.5234 13.5781 11.7422 13.5781H14.8906C15.3854 13.5781 15.8411 13.5104 16.2578 13.375C16.6745 13.2344 17.0078 13.0469 17.2578 12.8125C17.5078 12.5729 17.6328 12.3021 17.6328 12Z"
		fill="currentColor"
	/>
</svg>
