<svg
	color="rgb(var(--foreground, 0, 0, 0))"
	viewBox="0 0 19 24"
	fill="none"
	xmlns="http://www.w3.org/2000/svg"
>
	<path
		d="M0.315454 17.9375L0.987329 20.2422C1.04983 20.4401 1.12014 20.612 1.19827 20.7578C1.2816 20.9089 1.37795 21.0365 1.48733 21.1406L2.51077 20.4766C2.37535 20.4245 2.26077 20.3411 2.16702 20.2266C2.07327 20.112 2.00035 19.9661 1.94827 19.7891L1.42483 17.8516C1.404 17.7891 1.404 17.7396 1.42483 17.7031C1.45087 17.6615 1.49775 17.6406 1.56545 17.6406H16.7295C16.7972 17.6406 16.8389 17.6641 16.8545 17.7109C16.8701 17.7526 16.8545 17.7995 16.8076 17.8516L15.1201 19.7812C14.9847 19.9271 14.8493 20.0599 14.7139 20.1797C14.5837 20.2995 14.4014 20.3932 14.167 20.4609L15.1201 21.1641C15.3233 21.0234 15.5108 20.8568 15.6826 20.6641C15.8597 20.4714 16.0472 20.2604 16.2451 20.0312L17.9326 18.0938C18.1201 17.8802 18.2061 17.6562 18.1905 17.4219C18.1748 17.1823 18.0785 16.9818 17.9014 16.8203C17.7243 16.6589 17.4847 16.5781 17.1826 16.5781H1.29983C0.877954 16.5781 0.578475 16.7083 0.401392 16.9688C0.229517 17.224 0.200871 17.5469 0.315454 17.9375ZM7.74514 17.2344H8.79983V2.54688C8.79983 2.40104 8.74775 2.27604 8.64358 2.17188C8.54462 2.06771 8.42223 2.01562 8.27639 2.01562C8.13056 2.01562 8.00556 2.06771 7.90139 2.17188C7.79722 2.27604 7.74514 2.40104 7.74514 2.54688V17.2344ZM8.3467 14.5469H11.5576C12.3441 14.5469 13.0082 14.4193 13.5498 14.1641C14.0967 13.9089 14.5108 13.5469 14.792 13.0781C15.0785 12.6042 15.2217 12.0443 15.2217 11.3984C15.2217 10.737 15.0941 10.0651 14.8389 9.38281C14.5889 8.70052 14.2451 8.03385 13.8076 7.38281C13.3701 6.72656 12.8675 6.10417 12.2998 5.51562C11.7321 4.92708 11.128 4.39323 10.4873 3.91406C9.85191 3.42969 9.21389 3.02083 8.57327 2.6875L8.04202 3.60156C8.57327 3.83073 9.12275 4.14583 9.69045 4.54688C10.2582 4.94792 10.8076 5.40625 11.3389 5.92188C11.8701 6.4375 12.3493 6.99219 12.7764 7.58594C13.2035 8.17448 13.542 8.78125 13.792 9.40625C14.042 10.026 14.167 10.6354 14.167 11.2344C14.167 11.6875 14.0629 12.0833 13.8545 12.4219C13.6514 12.7552 13.3571 13.0156 12.9717 13.2031C12.5863 13.3906 12.1201 13.4844 11.5733 13.4844H8.3467V14.5469ZM9.00295 4.09375C9.52379 4.83854 9.91181 5.60156 10.167 6.38281C10.4222 7.16406 10.5629 7.92969 10.5889 8.67969C10.6149 9.42969 10.5394 10.1302 10.3623 10.7812C10.1852 11.4271 9.92223 11.9922 9.57327 12.4766C9.22431 12.9609 8.80243 13.3281 8.30764 13.5781L8.52639 14.5C9.19827 14.1927 9.76337 13.7656 10.2217 13.2188C10.68 12.6667 11.0238 12.0339 11.253 11.3203C11.4873 10.6016 11.5967 9.83073 11.5811 9.00781C11.5707 8.1849 11.4274 7.34375 11.1514 6.48438C10.8806 5.61979 10.4665 4.77083 9.9092 3.9375L9.00295 4.09375ZM2.19827 14.5469H8.15139V13.4844H3.21389C3.16702 13.4844 3.13577 13.4661 3.12014 13.4297C3.10972 13.3932 3.12275 13.362 3.1592 13.3359C3.69566 12.9349 4.2165 12.4401 4.7217 11.8516C5.23212 11.263 5.70868 10.6198 6.15139 9.92188C6.59931 9.22396 7.00035 8.5026 7.35452 7.75781C7.70868 7.00781 8.00295 6.27083 8.23733 5.54688C8.4717 4.81771 8.62795 4.13542 8.70608 3.5L7.74514 2.83594C7.76077 3.36198 7.67743 3.96875 7.49514 4.65625C7.31806 5.34375 7.05504 6.06771 6.70608 6.82812C6.35712 7.58854 5.93525 8.34896 5.44045 9.10938C4.94566 9.86979 4.38837 10.5911 3.76858 11.2734C3.154 11.9557 2.48733 12.5573 1.76858 13.0781C1.57587 13.2135 1.45347 13.3672 1.40139 13.5391C1.34931 13.7057 1.35191 13.8672 1.4092 14.0234C1.4665 14.1745 1.56285 14.2995 1.69827 14.3984C1.83889 14.4974 2.00556 14.5469 2.19827 14.5469ZM8.51858 21.9844C8.94566 21.9844 9.30764 21.9297 9.60452 21.8203C9.9066 21.7161 10.167 21.5833 10.3858 21.4219C10.6097 21.2656 10.8129 21.1094 10.9951 20.9531C11.1826 20.7969 11.3727 20.6641 11.5655 20.5547C11.7582 20.4505 11.9795 20.3984 12.2295 20.3984C12.4847 20.3984 12.7061 20.4505 12.8936 20.5547C13.0811 20.6641 13.266 20.7969 13.4483 20.9531C13.6358 21.1094 13.8441 21.2656 14.0733 21.4219C14.3024 21.5833 14.5811 21.7161 14.9092 21.8203C15.2425 21.9297 15.6514 21.9844 16.1358 21.9844H16.9326C17.0837 21.9844 17.2113 21.9297 17.3155 21.8203C17.4248 21.7109 17.4795 21.5807 17.4795 21.4297C17.4795 21.2786 17.4248 21.1484 17.3155 21.0391C17.2113 20.9349 17.0837 20.8828 16.9326 20.8828H16.1358C15.7191 20.8828 15.3701 20.8073 15.0889 20.6562C14.8129 20.5052 14.529 20.3255 14.2373 20.1172C13.9821 19.9297 13.6905 19.7448 13.3623 19.5625C13.0394 19.3854 12.6618 19.2969 12.2295 19.2969C11.7816 19.2969 11.391 19.3906 11.0576 19.5781C10.7295 19.7708 10.4379 19.9635 10.1826 20.1562C9.91181 20.3594 9.654 20.5312 9.4092 20.6719C9.16441 20.8125 8.86754 20.8828 8.51858 20.8828C8.16962 20.8828 7.87275 20.8125 7.62795 20.6719C7.38316 20.5312 7.12535 20.3594 6.85452 20.1562C6.59931 19.9635 6.30504 19.7708 5.9717 19.5781C5.64358 19.3906 5.25556 19.2969 4.80764 19.2969C4.37535 19.2969 3.99514 19.3854 3.66702 19.5625C3.3441 19.7448 3.05504 19.9297 2.79983 20.1172C2.50816 20.3255 2.22431 20.5052 1.94827 20.6562C1.67222 20.8073 1.32327 20.8828 0.901392 20.8828H0.862329C0.711287 20.8828 0.581079 20.9349 0.471704 21.0391C0.362329 21.1484 0.307642 21.2786 0.307642 21.4297C0.307642 21.5807 0.362329 21.7109 0.471704 21.8203C0.581079 21.9297 0.711287 21.9844 0.862329 21.9844H0.901392C1.38577 21.9844 1.79202 21.9297 2.12014 21.8203C2.45347 21.7161 2.73472 21.5833 2.96389 21.4219C3.19306 21.2656 3.39879 21.1094 3.58108 20.9531C3.76858 20.7969 3.95608 20.6641 4.14358 20.5547C4.33629 20.4505 4.55764 20.3984 4.80764 20.3984C5.05764 20.3984 5.279 20.4505 5.4717 20.5547C5.66441 20.6641 5.85191 20.7969 6.0342 20.9531C6.2217 21.1094 6.42483 21.2656 6.64358 21.4219C6.86754 21.5833 7.12795 21.7161 7.42483 21.8203C7.72691 21.9297 8.0915 21.9844 8.51858 21.9844Z"
		fill="currentColor"
	/>
</svg>
