<svg
	color="rgb(var(--foreground, 0, 0, 0))"
	viewBox="0 0 19 24"
	fill="none"
	xmlns="http://www.w3.org/2000/svg"
>
	<path
		d="M2.14382 14.5469H7.6907V17.2344H8.74539V14.5469H11.5032C12.2897 14.5469 12.9537 14.4193 13.4954 14.1641C14.0423 13.9089 14.4563 13.5469 14.7376 13.0781C15.024 12.6042 15.1673 12.0443 15.1673 11.3984C15.1673 10.7526 15.0475 10.099 14.8079 9.4375C14.5683 8.77083 14.2376 8.11719 13.8157 7.47656C13.399 6.83594 12.9173 6.22656 12.3704 5.64844C11.8235 5.0651 11.2402 4.53125 10.6204 4.04688C10.0058 3.5625 9.3808 3.14844 8.74539 2.80469V2.54688C8.74539 2.40104 8.6933 2.27604 8.58914 2.17188C8.49018 2.06771 8.36778 2.01562 8.22195 2.01562C8.07612 2.01562 7.95111 2.06771 7.84695 2.17188C7.74278 2.27604 7.6907 2.40104 7.6907 2.54688V3.02344C7.6907 3.5599 7.59695 4.16927 7.40945 4.85156C7.22195 5.52865 6.95111 6.23958 6.59695 6.98438C6.24799 7.72917 5.82611 8.47396 5.33132 9.21875C4.84174 9.95833 4.29226 10.6589 3.68289 11.3203C3.07351 11.9818 2.41726 12.5677 1.71414 13.0781C1.52143 13.2135 1.39903 13.3672 1.34695 13.5391C1.29486 13.7057 1.29747 13.8672 1.35476 14.0234C1.41205 14.1745 1.50841 14.2995 1.64382 14.3984C1.78445 14.4974 1.95111 14.5469 2.14382 14.5469ZM8.74539 13.2422V3.99219C9.05789 4.35156 9.32612 4.73438 9.55007 5.14062C9.77924 5.54688 9.96674 5.96615 10.1126 6.39844C10.2584 6.83073 10.3652 7.26562 10.4329 7.70312C10.5058 8.13542 10.5423 8.55729 10.5423 8.96875C10.5423 9.57812 10.4693 10.1562 10.3235 10.7031C10.1829 11.25 9.97976 11.7396 9.71414 12.1719C9.44851 12.6042 9.12559 12.9609 8.74539 13.2422ZM0.261011 17.9375L0.807886 19.7891C0.818302 19.8151 0.826115 19.8411 0.831323 19.8672C0.836532 19.8932 0.844344 19.9167 0.854761 19.9375C1.08393 19.9271 1.30007 19.8776 1.5032 19.7891C1.70632 19.7057 1.94591 19.5677 2.22195 19.375C2.39382 19.25 2.60216 19.1094 2.84695 18.9531C3.09174 18.8021 3.37299 18.6693 3.6907 18.5547C4.00841 18.4401 4.36257 18.3828 4.7532 18.3828C5.09695 18.3828 5.41466 18.4271 5.70632 18.5156C5.99799 18.6094 6.26361 18.7266 6.5032 18.8672C6.74799 19.0078 6.96934 19.151 7.16726 19.2969C7.54747 19.5833 7.81309 19.7656 7.96414 19.8438C8.11518 19.9271 8.28184 19.9688 8.46414 19.9688C8.64643 19.9688 8.81309 19.9271 8.96414 19.8438C9.11518 19.7656 9.3808 19.5833 9.76101 19.2969C9.95893 19.151 10.1777 19.0078 10.4173 18.8672C10.6621 18.7318 10.9303 18.6172 11.2219 18.5234C11.5136 18.4297 11.8313 18.3828 12.1751 18.3828C12.5657 18.3828 12.9199 18.4401 13.2376 18.5547C13.5553 18.6693 13.8365 18.8021 14.0813 18.9531C14.3261 19.1094 14.5371 19.25 14.7141 19.375C14.985 19.5677 15.2324 19.7083 15.4563 19.7969C15.6855 19.8906 15.9459 19.9401 16.2376 19.9453L17.8782 18.0938C18.0657 17.8802 18.1516 17.6562 18.136 17.4219C18.1204 17.1823 18.024 16.9818 17.8469 16.8203C17.6699 16.6589 17.4303 16.5781 17.1282 16.5781H1.24539C0.823511 16.5781 0.524032 16.7083 0.346948 16.9688C0.175073 17.224 0.146427 17.5469 0.261011 17.9375ZM0.253198 21.4297C0.253198 21.5807 0.307886 21.7109 0.417261 21.8203C0.526636 21.9297 0.656844 21.9844 0.807886 21.9844H0.846948C1.33132 21.9844 1.73757 21.9297 2.0657 21.8203C2.39903 21.7161 2.68028 21.5833 2.90945 21.4219C3.13861 21.2656 3.34434 21.1094 3.52664 20.9531C3.71414 20.7969 3.90164 20.6641 4.08914 20.5547C4.28184 20.4505 4.5032 20.3984 4.7532 20.3984C5.0032 20.3984 5.22455 20.4505 5.41726 20.5547C5.60997 20.6641 5.79747 20.7969 5.97976 20.9531C6.16726 21.1094 6.37039 21.2656 6.58914 21.4219C6.81309 21.5833 7.07351 21.7161 7.37039 21.8203C7.67247 21.9297 8.03705 21.9844 8.46414 21.9844C8.89122 21.9844 9.2532 21.9297 9.55007 21.8203C9.85216 21.7161 10.1126 21.5833 10.3313 21.4219C10.5553 21.2656 10.7584 21.1094 10.9407 20.9531C11.1282 20.7969 11.3183 20.6641 11.511 20.5547C11.7037 20.4505 11.9251 20.3984 12.1751 20.3984C12.4303 20.3984 12.6516 20.4505 12.8391 20.5547C13.0266 20.6641 13.2115 20.7969 13.3938 20.9531C13.5813 21.1094 13.7897 21.2656 14.0188 21.4219C14.248 21.5833 14.5266 21.7161 14.8548 21.8203C15.1881 21.9297 15.5969 21.9844 16.0813 21.9844H16.8782C17.0292 21.9844 17.1568 21.9297 17.261 21.8203C17.3704 21.7109 17.4251 21.5807 17.4251 21.4297C17.4251 21.2786 17.3704 21.1484 17.261 21.0391C17.1568 20.9349 17.0292 20.8828 16.8782 20.8828H16.0813C15.6647 20.8828 15.3157 20.8073 15.0344 20.6562C14.7584 20.5052 14.4746 20.3255 14.1829 20.1172C13.9277 19.9297 13.636 19.7448 13.3079 19.5625C12.985 19.3854 12.6074 19.2969 12.1751 19.2969C11.7272 19.2969 11.3365 19.3906 11.0032 19.5781C10.6751 19.7708 10.3834 19.9635 10.1282 20.1562C9.85737 20.3594 9.59955 20.5312 9.35476 20.6719C9.10997 20.8125 8.81309 20.8828 8.46414 20.8828C8.11518 20.8828 7.8183 20.8125 7.57351 20.6719C7.32872 20.5312 7.07091 20.3594 6.80007 20.1562C6.54486 19.9635 6.25059 19.7708 5.91726 19.5781C5.58914 19.3906 5.20111 19.2969 4.7532 19.2969C4.32091 19.2969 3.9407 19.3854 3.61257 19.5625C3.28966 19.7448 3.00059 19.9297 2.74539 20.1172C2.45372 20.3255 2.16986 20.5052 1.89382 20.6562C1.61778 20.8073 1.26882 20.8828 0.846948 20.8828H0.807886C0.656844 20.8828 0.526636 20.9349 0.417261 21.0391C0.307886 21.1484 0.253198 21.2786 0.253198 21.4297Z"
		fill="currentColor"
	/>
</svg>
