<svg
	color="rgb(var(--foreground, 0, 0, 0))"
	viewBox="0 0 21 24"
	fill="none"
	xmlns="http://www.w3.org/2000/svg"
>
	<path
		d="M3.11389 19.8398C3.64514 19.8398 4.12952 19.7096 4.56702 19.4492C5.00452 19.1888 5.35347 18.8398 5.61389 18.4023C5.87431 17.9648 6.00452 17.4805 6.00452 16.9492C6.00452 16.4128 5.87431 15.9258 5.61389 15.4883C5.35347 15.0508 5.00452 14.7018 4.56702 14.4414C4.12952 14.181 3.64514 14.0508 3.11389 14.0508C2.57743 14.0508 2.09045 14.181 1.65295 14.4414C1.21545 14.7018 0.866496 15.0508 0.606079 15.4883C0.345662 15.9258 0.215454 16.4128 0.215454 16.9492C0.215454 17.4805 0.345662 17.9648 0.606079 18.4023C0.866496 18.8398 1.21545 19.1888 1.65295 19.4492C2.09045 19.7096 2.57743 19.8398 3.11389 19.8398ZM3.11389 18.7852C2.77014 18.7852 2.45764 18.7018 2.17639 18.5352C1.90035 18.3737 1.679 18.1523 1.51233 17.8711C1.35087 17.5951 1.27014 17.2878 1.27014 16.9492C1.27014 16.6055 1.35087 16.2956 1.51233 16.0195C1.679 15.7435 1.90035 15.5221 2.17639 15.3555C2.45764 15.1888 2.77014 15.1055 3.11389 15.1055C3.45243 15.1055 3.75972 15.1888 4.03577 15.3555C4.31702 15.5221 4.53837 15.7435 4.69983 16.0195C4.8665 16.2956 4.94983 16.6055 4.94983 16.9492C4.94983 17.2878 4.8665 17.5951 4.69983 17.8711C4.53316 18.1523 4.31181 18.3737 4.03577 18.5352C3.75972 18.7018 3.45243 18.7852 3.11389 18.7852ZM3.11389 17.7695C3.33785 17.7695 3.53056 17.6888 3.69202 17.5273C3.85347 17.3659 3.9342 17.1732 3.9342 16.9492C3.9342 16.7201 3.85347 16.5247 3.69202 16.3633C3.53577 16.2018 3.34306 16.1211 3.11389 16.1211C2.87952 16.1211 2.6842 16.2018 2.52795 16.3633C2.3717 16.5195 2.29097 16.7148 2.28577 16.9492C2.28056 17.1732 2.35608 17.3659 2.51233 17.5273C2.67379 17.6888 2.87431 17.7695 3.11389 17.7695ZM17.3483 19.8398C17.8795 19.8398 18.3639 19.7096 18.8014 19.4492C19.2441 19.1888 19.5957 18.8398 19.8561 18.4023C20.1165 17.9648 20.2467 17.4805 20.2467 16.9492C20.2467 16.4128 20.1165 15.9258 19.8561 15.4883C19.5957 15.0508 19.2441 14.7018 18.8014 14.4414C18.3639 14.181 17.8795 14.0508 17.3483 14.0508C16.817 14.0508 16.3326 14.181 15.8951 14.4414C15.4576 14.7018 15.1061 15.0508 14.8405 15.4883C14.58 15.9258 14.4498 16.4128 14.4498 16.9492C14.4498 17.4805 14.58 17.9648 14.8405 18.4023C15.1061 18.8398 15.4576 19.1888 15.8951 19.4492C16.3326 19.7096 16.817 19.8398 17.3483 19.8398ZM17.3483 18.7852C17.0097 18.7852 16.6998 18.7018 16.4186 18.5352C16.1425 18.3737 15.9212 18.1523 15.7545 17.8711C15.5878 17.5951 15.5045 17.2878 15.5045 16.9492C15.5045 16.6055 15.5878 16.2956 15.7545 16.0195C15.9212 15.7435 16.1425 15.5221 16.4186 15.3555C16.6998 15.1888 17.0097 15.1055 17.3483 15.1055C17.6868 15.1055 17.9941 15.1888 18.2701 15.3555C18.5514 15.5221 18.7753 15.7435 18.942 16.0195C19.1087 16.2956 19.192 16.6055 19.192 16.9492C19.192 17.2878 19.1087 17.5951 18.942 17.8711C18.7753 18.1523 18.5514 18.3737 18.2701 18.5352C17.9941 18.7018 17.6868 18.7852 17.3483 18.7852ZM17.3483 17.7695C17.5774 17.7695 17.7727 17.6888 17.9342 17.5273C18.0957 17.3659 18.1764 17.1732 18.1764 16.9492C18.1764 16.7201 18.0957 16.5247 17.9342 16.3633C17.7727 16.2018 17.5774 16.1211 17.3483 16.1211C17.1191 16.1211 16.9238 16.2018 16.7623 16.3633C16.6061 16.5195 16.5253 16.7148 16.5201 16.9492C16.5201 17.1732 16.5983 17.3659 16.7545 17.5273C16.916 17.6888 17.1139 17.7695 17.3483 17.7695ZM3.34827 17.5352H11.5436C11.653 17.5352 11.7519 17.5247 11.8405 17.5039C11.929 17.4779 12.0149 17.4362 12.0983 17.3789C12.1816 17.3164 12.2701 17.2331 12.3639 17.1289L16.2233 12.8945L15.8405 11.4414L11.5514 16.2617C11.5149 16.2982 11.4837 16.3242 11.4576 16.3398C11.4368 16.3503 11.403 16.3555 11.3561 16.3555H3.34827V17.5352ZM11.1451 4.75391C11.1451 4.91536 11.2024 5.05339 11.317 5.16797C11.4316 5.28255 11.5722 5.33984 11.7389 5.33984H13.7623C13.83 5.33984 13.8691 5.36589 13.8795 5.41797L16.7233 17.1602L17.8483 16.8711L14.8092 4.66797C14.7675 4.5013 14.679 4.3763 14.5436 4.29297C14.4134 4.20443 14.2259 4.16016 13.9811 4.16016H11.7389C11.5722 4.16016 11.4316 4.21745 11.317 4.33203C11.2024 4.44661 11.1451 4.58724 11.1451 4.75391Z"
		fill="currentColor"
	/>
</svg>
