<svg
	color="rgb(var(--foreground, 0, 0, 0))"
	viewBox="0 0 17 24"
	fill="none"
	xmlns="http://www.w3.org/2000/svg"
>
	<path
		d="M1.59375 16.8477L7.74219 20.332C7.96094 20.457 8.17448 20.5195 8.38281 20.5195C8.59635 20.5195 8.8151 20.457 9.03906 20.332L15.1797 16.8477C15.5391 16.6393 15.8099 16.4049 15.9922 16.1445C16.1797 15.8789 16.2734 15.4674 16.2734 14.9102V8.72266C16.2734 8.31641 16.1953 7.98047 16.0391 7.71484C15.888 7.44922 15.6484 7.22005 15.3203 7.02734L9.78906 3.88672C9.32031 3.61589 8.85417 3.48047 8.39062 3.48047C7.92708 3.48047 7.45833 3.61589 6.98438 3.88672L1.46094 7.02734C1.1276 7.22005 0.882812 7.44922 0.726562 7.71484C0.575521 7.98047 0.5 8.31641 0.5 8.72266V14.9102C0.5 15.4674 0.59375 15.8789 0.78125 16.1445C0.96875 16.4049 1.23958 16.6393 1.59375 16.8477ZM2.29688 15.8164C2.06771 15.6862 1.90885 15.5508 1.82031 15.4102C1.73177 15.2643 1.6875 15.0846 1.6875 14.8711V8.97266L7.77344 12.4492V18.9336L2.29688 15.8164ZM14.4844 15.8164L9 18.9336V12.4492L15.0859 8.97266V14.8711C15.0859 15.0846 15.0417 15.2643 14.9531 15.4102C14.8646 15.5508 14.7083 15.6862 14.4844 15.8164ZM8.39062 11.3555L2.35938 7.94141L4.77344 6.55859L10.8047 9.98828L8.39062 11.3555ZM12.0625 9.27734L6.00781 5.85547L7.50781 5.00391C8.10156 4.66536 8.6901 4.66536 9.27344 5.00391L14.4219 7.94141L12.0625 9.27734Z"
		fill="currentColor"
	/>
</svg>
