<svg
	color="rgb(var(--foreground, 0, 0, 0))"
	viewBox="0 0 17 24"
	fill="none"
	xmlns="http://www.w3.org/2000/svg"
>
	<path
		d="M8.43537 21.6328C8.86245 21.6328 9.22443 21.5781 9.52131 21.4688C9.82339 21.3646 10.0838 21.2318 10.3026 21.0703C10.5265 20.9141 10.7296 20.7578 10.9119 20.6016C11.0994 20.4453 11.2895 20.3125 11.4822 20.2031C11.675 20.099 11.8963 20.0469 12.1463 20.0469C12.4015 20.0469 12.6229 20.099 12.8104 20.2031C12.9979 20.3125 13.1828 20.4453 13.3651 20.6016C13.5526 20.7578 13.7609 20.9141 13.9901 21.0703C14.2192 21.2318 14.4979 21.3646 14.826 21.4688C15.1593 21.5781 15.5682 21.6328 16.0526 21.6328H16.0916C16.2479 21.6328 16.3781 21.5781 16.4822 21.4688C16.5916 21.3646 16.6463 21.2344 16.6463 21.0781C16.6463 20.9271 16.5916 20.7969 16.4822 20.6875C16.3781 20.5833 16.2479 20.5312 16.0916 20.5312H16.0526C15.6359 20.5312 15.2869 20.4557 15.0057 20.3047C14.7296 20.1536 14.4458 19.974 14.1541 19.7656C13.8989 19.5781 13.6072 19.3932 13.2791 19.2109C12.9562 19.0339 12.5786 18.9453 12.1463 18.9453C11.6984 18.9453 11.3078 19.0391 10.9744 19.2266C10.6463 19.4193 10.3546 19.612 10.0994 19.8047C9.8286 20.0078 9.57079 20.1797 9.32599 20.3203C9.0812 20.4609 8.78433 20.5312 8.43537 20.5312C8.08641 20.5312 7.78954 20.4609 7.54474 20.3203C7.29995 20.1797 7.04214 20.0078 6.77131 19.8047C6.5161 19.612 6.22183 19.4193 5.88849 19.2266C5.56037 19.0391 5.17235 18.9453 4.72443 18.9453C4.29214 18.9453 3.91193 19.0339 3.58381 19.2109C3.26089 19.3932 2.97183 19.5781 2.71662 19.7656C2.42495 19.974 2.1411 20.1536 1.86506 20.3047C1.58902 20.4557 1.24006 20.5312 0.818182 20.5312H0.779119C0.628078 20.5312 0.497869 20.5833 0.388494 20.6875C0.279119 20.7969 0.224432 20.9271 0.224432 21.0781C0.224432 21.2344 0.279119 21.3646 0.388494 21.4688C0.497869 21.5781 0.628078 21.6328 0.779119 21.6328H0.818182C1.30777 21.6328 1.71662 21.5781 2.04474 21.4688C2.37287 21.3646 2.65152 21.2318 2.88068 21.0703C3.10985 20.9141 3.31558 20.7578 3.49787 20.6016C3.68537 20.4453 3.87287 20.3125 4.06037 20.2031C4.25308 20.099 4.47443 20.0469 4.72443 20.0469C4.97443 20.0469 5.19579 20.099 5.38849 20.2031C5.5812 20.3125 5.7687 20.4453 5.95099 20.6016C6.13849 20.7578 6.34162 20.9141 6.56037 21.0703C6.78433 21.2318 7.04474 21.3646 7.34162 21.4688C7.6437 21.5781 8.00829 21.6328 8.43537 21.6328ZM8.43537 19.6172C8.61766 19.6172 8.77652 19.5807 8.91193 19.5078C9.05256 19.4401 9.2661 19.2943 9.55256 19.0703C9.72443 18.9453 9.93537 18.8021 10.1854 18.6406C10.4354 18.4792 10.7244 18.3359 11.0526 18.2109C11.3807 18.0911 11.7453 18.0312 12.1463 18.0312C12.5005 18.0312 12.8312 18.0807 13.1385 18.1797C13.4458 18.2786 13.7661 18.4297 14.0994 18.6328L16.326 14.6875C16.6593 14.1042 16.7583 13.6016 16.6229 13.1797C16.4875 12.7526 16.1307 12.4062 15.5526 12.1406L9.87287 9.53125C9.7062 9.45312 9.50568 9.36719 9.27131 9.27344C9.03693 9.17969 8.75829 9.13281 8.43537 9.13281C8.11245 9.13281 7.83381 9.17969 7.59943 9.27344C7.36506 9.36719 7.16454 9.45312 6.99787 9.53125L1.31818 12.1406C0.740057 12.4062 0.383286 12.7526 0.247869 13.1797C0.117661 13.6016 0.216619 14.1042 0.544744 14.6875L2.77131 18.6328C3.10464 18.4297 3.42495 18.2786 3.73224 18.1797C4.03954 18.0807 4.37027 18.0312 4.72443 18.0312C5.12547 18.0312 5.49006 18.0911 5.81818 18.2109C6.14631 18.3359 6.43537 18.4792 6.68537 18.6406C6.94058 18.8021 7.15152 18.9453 7.31818 19.0703C7.60985 19.2943 7.82339 19.4401 7.95881 19.5078C8.09943 19.5807 8.25829 19.6172 8.43537 19.6172ZM8.43537 8.07031C8.78954 8.07031 9.09943 8.11198 9.36506 8.19531C9.63589 8.27344 9.9536 8.39583 10.3182 8.5625L14.4119 10.4453L13.7401 5.46094C13.6828 5.03906 13.5239 4.69271 13.2635 4.42188C13.0083 4.14583 12.6697 4.00781 12.2479 4.00781H4.63849C4.21662 4.00781 3.87808 4.15104 3.62287 4.4375C3.37287 4.72396 3.21402 5.11719 3.14631 5.61719L2.47443 10.4375L6.55256 8.5625C6.91714 8.39583 7.23485 8.27344 7.50568 8.19531C7.77652 8.11198 8.08641 8.07031 8.43537 8.07031ZM4.99006 7.24219C4.78172 7.24219 4.67756 7.13542 4.67756 6.92188V5.67188C4.67756 5.45833 4.78172 5.35156 4.99006 5.35156H7.41193C7.67235 5.35156 7.80256 5.45833 7.80256 5.67188V6.92188C7.80256 7.13542 7.67235 7.24219 7.41193 7.24219H4.99006ZM9.38068 7.24219C9.17756 7.24219 9.07599 7.13542 9.07599 6.92188V5.67188C9.07599 5.45833 9.17756 5.35156 9.38068 5.35156H11.8104C12.0708 5.35156 12.201 5.45833 12.201 5.67188V6.92188C12.201 7.13542 12.0708 7.24219 11.8104 7.24219H9.38068ZM5.19318 4.24219H11.6854V3.57812C11.6854 3.19792 11.5786 2.90104 11.3651 2.6875C11.1567 2.47396 10.8625 2.36719 10.4822 2.36719H6.39631C6.0161 2.36719 5.71922 2.47396 5.50568 2.6875C5.29735 2.90104 5.19318 3.19792 5.19318 3.57812V4.24219Z"
		fill="currentColor"
	/>
</svg>
