<svg
	color="rgb(var(--foreground, 0, 0, 0))"
	viewBox="0 0 18 24"
	fill="none"
	xmlns="http://www.w3.org/2000/svg"
>
	<path
		d="M8.94623 21.7109C9.37332 21.7109 9.7353 21.6562 10.0322 21.5469C10.3343 21.4427 10.5947 21.3099 10.8134 21.1484C11.0374 20.9922 11.2405 20.8359 11.4228 20.6797C11.6103 20.5234 11.8004 20.3906 11.9931 20.2812C12.1858 20.1771 12.4072 20.125 12.6572 20.125C12.9124 20.125 13.1337 20.1771 13.3212 20.2812C13.5087 20.3906 13.6936 20.5234 13.8759 20.6797C14.0634 20.8359 14.2718 20.9922 14.5009 21.1484C14.7301 21.3099 15.0087 21.4427 15.3369 21.5469C15.6702 21.6562 16.079 21.7109 16.5634 21.7109H16.6025C16.7587 21.7109 16.8889 21.6562 16.9931 21.5469C17.1025 21.4427 17.1572 21.3125 17.1572 21.1562C17.1572 21.0052 17.1025 20.875 16.9931 20.7656C16.8889 20.6615 16.7587 20.6094 16.6025 20.6094H16.5634C16.1468 20.6094 15.7978 20.5339 15.5165 20.3828C15.2405 20.2318 14.9567 20.0521 14.665 19.8438C14.4098 19.6562 14.1181 19.4714 13.79 19.2891C13.4671 19.112 13.0895 19.0234 12.6572 19.0234C12.2093 19.0234 11.8186 19.1172 11.4853 19.3047C11.1572 19.4974 10.8655 19.6901 10.6103 19.8828C10.3395 20.0859 10.0817 20.2578 9.83686 20.3984C9.59207 20.5391 9.29519 20.6094 8.94623 20.6094C8.59728 20.6094 8.3004 20.5391 8.05561 20.3984C7.81082 20.2578 7.553 20.0859 7.28217 19.8828C7.02696 19.6901 6.73269 19.4974 6.39936 19.3047C6.07123 19.1172 5.68321 19.0234 5.2353 19.0234C4.803 19.0234 4.4228 19.112 4.09467 19.2891C3.77175 19.4714 3.48269 19.6562 3.22748 19.8438C2.93582 20.0521 2.65196 20.2318 2.37592 20.3828C2.09988 20.5339 1.75092 20.6094 1.32905 20.6094H1.28998C1.13894 20.6094 1.00873 20.6615 0.899359 20.7656C0.789984 20.875 0.735296 21.0052 0.735296 21.1562C0.735296 21.3125 0.789984 21.4427 0.899359 21.5469C1.00873 21.6562 1.13894 21.7109 1.28998 21.7109H1.32905C1.81863 21.7109 2.22748 21.6562 2.55561 21.5469C2.88373 21.4427 3.16238 21.3099 3.39155 21.1484C3.62071 20.9922 3.82644 20.8359 4.00873 20.6797C4.19623 20.5234 4.38373 20.3906 4.57123 20.2812C4.76394 20.1771 4.9853 20.125 5.2353 20.125C5.4853 20.125 5.70665 20.1771 5.89936 20.2812C6.09207 20.3906 6.27957 20.5234 6.46186 20.6797C6.64936 20.8359 6.85248 20.9922 7.07123 21.1484C7.29519 21.3099 7.55561 21.4427 7.85248 21.5469C8.15457 21.6562 8.51915 21.7109 8.94623 21.7109ZM1.05561 14.7656L3.9228 19.8281L4.86811 19.1953L2.03998 14.2812C1.87332 13.9844 1.81603 13.7578 1.86811 13.6016C1.92019 13.4401 2.053 13.3125 2.26655 13.2188L7.95405 10.6094C8.14155 10.5208 8.30821 10.4505 8.45405 10.3984C8.59988 10.3411 8.76394 10.3125 8.94623 10.3125C9.12853 10.3125 9.29259 10.3411 9.43842 10.3984C9.58425 10.4505 9.75353 10.5208 9.94623 10.6094L15.6259 13.2188C15.8447 13.3125 15.9775 13.4401 16.0244 13.6016C16.0764 13.7578 16.0192 13.9844 15.8525 14.2812L13.0244 19.1953L14.0244 19.75L16.8369 14.7656C17.1702 14.1823 17.2692 13.6771 17.1337 13.25C16.9983 12.8229 16.6415 12.4792 16.0634 12.2188L10.3837 9.60938C10.2171 9.53125 10.0165 9.44531 9.78217 9.35156C9.5478 9.25781 9.26915 9.21094 8.94623 9.21094C8.62332 9.21094 8.34467 9.25781 8.1103 9.35156C7.87592 9.44531 7.6754 9.53125 7.50873 9.60938L1.82905 12.2188C1.25092 12.4792 0.89415 12.8229 0.758734 13.25C0.628525 13.6771 0.727484 14.1823 1.05561 14.7656ZM2.61811 12.0859L3.80561 11.5312L4.64155 5.67188C4.66238 5.51562 4.71707 5.39583 4.80561 5.3125C4.89415 5.22917 5.00873 5.1875 5.14936 5.1875H12.7587C12.9098 5.1875 13.0296 5.22396 13.1181 5.29688C13.2067 5.36458 13.2613 5.46094 13.2822 5.58594L14.1025 11.5703L15.29 12.0859L14.3915 5.51562C14.329 5.0625 14.1546 4.71094 13.8681 4.46094C13.5817 4.21094 13.2119 4.08594 12.7587 4.08594H5.14936C4.70665 4.08594 4.34207 4.22656 4.05561 4.50781C3.77436 4.78385 3.59728 5.17188 3.52436 5.67188L2.61811 12.0859ZM5.72748 8.03125H8.14936C8.26915 8.03125 8.3629 8.0026 8.43061 7.94531C8.50353 7.88281 8.53998 7.80469 8.53998 7.71094V6.46094C8.53998 6.36719 8.50353 6.29167 8.43061 6.23438C8.3629 6.17188 8.26915 6.14062 8.14936 6.14062H5.72748C5.63373 6.14062 5.55821 6.17188 5.50092 6.23438C5.44363 6.29167 5.41498 6.36719 5.41498 6.46094V7.71094C5.41498 7.80469 5.44363 7.88281 5.50092 7.94531C5.55821 8.0026 5.63373 8.03125 5.72748 8.03125ZM9.66498 8.03125H12.0947C12.2145 8.03125 12.3082 8.0026 12.3759 7.94531C12.4488 7.88281 12.4853 7.80469 12.4853 7.71094V6.46094C12.4853 6.36719 12.4488 6.29167 12.3759 6.23438C12.3082 6.17188 12.2145 6.14062 12.0947 6.14062H9.66498C9.57644 6.14062 9.50353 6.17188 9.44623 6.23438C9.38894 6.29167 9.3603 6.36719 9.3603 6.46094V7.71094C9.3603 7.80469 9.38894 7.88281 9.44623 7.94531C9.50353 8.0026 9.57644 8.03125 9.66498 8.03125ZM5.5478 4.94531H6.64936V3.65625C6.64936 3.47917 6.7353 3.39062 6.90717 3.39062H10.9931C11.165 3.39062 11.2509 3.47917 11.2509 3.65625V4.94531H12.3525V3.57812C12.3525 3.1875 12.2353 2.875 12.0009 2.64062C11.7718 2.40625 11.4619 2.28906 11.0712 2.28906H6.82905C6.43842 2.28906 6.12592 2.40625 5.89155 2.64062C5.66238 2.875 5.5478 3.1875 5.5478 3.57812V4.94531Z"
		fill="currentColor"
	/>
</svg>
