<svg
	color="rgb(var(--foreground, 0, 0, 0))"
	viewBox="0 0 16 24"
	fill="none"
	xmlns="http://www.w3.org/2000/svg"
>
	<path
		d="M3.7345 18.6953H12.1564C12.7553 18.6953 13.271 18.5677 13.7032 18.3125C14.1355 18.0625 14.4663 17.7135 14.6954 17.2656C14.9246 16.8125 15.0392 16.2943 15.0392 15.7109V10.9375C15.0392 10.2396 15.0105 9.54688 14.9532 8.85938C14.9012 8.16667 14.8282 7.51302 14.7345 6.89844C14.6407 6.28385 14.534 5.73958 14.4142 5.26562C14.284 4.71354 14.073 4.22917 13.7814 3.8125C13.4949 3.39583 13.1407 3.0625 12.7189 2.8125C12.3022 2.5625 11.8361 2.40885 11.3204 2.35156C11.0652 2.32552 10.6251 2.29427 10.0001 2.25781C9.37512 2.21615 8.69023 2.19531 7.94543 2.19531C7.11731 2.19531 6.41158 2.21615 5.82825 2.25781C5.24491 2.29427 4.82564 2.32552 4.57043 2.35156C4.0496 2.40885 3.57825 2.5625 3.15637 2.8125C2.73971 3.0625 2.38814 3.39583 2.10168 3.8125C1.81523 4.22917 1.60689 4.71354 1.47668 5.26562C1.35689 5.73958 1.25012 6.27865 1.15637 6.88281C1.06262 7.48698 0.987101 8.1276 0.92981 8.80469C0.877726 9.48177 0.851685 10.1693 0.851685 10.8672V15.7109C0.851685 16.2943 0.966268 16.8125 1.19543 17.2656C1.4246 17.7135 1.75273 18.0625 2.17981 18.3125C2.6121 18.5677 3.13033 18.6953 3.7345 18.6953ZM3.89856 17.6719C3.43502 17.6719 3.05221 17.5885 2.75012 17.4219C2.45325 17.2552 2.23189 17.0234 2.08606 16.7266C1.94543 16.4297 1.87512 16.0911 1.87512 15.7109V10.8672C1.87512 10.362 1.89075 9.86198 1.922 9.36719C1.95325 8.86719 1.99491 8.38802 2.047 7.92969C2.10429 7.46615 2.16679 7.02865 2.2345 6.61719C2.30741 6.20573 2.38554 5.83073 2.46887 5.49219C2.56783 5.08073 2.71887 4.72396 2.922 4.42188C3.13033 4.11979 3.38033 3.88021 3.672 3.70312C3.96887 3.52083 4.30221 3.41146 4.672 3.375C4.93762 3.34375 5.35168 3.3099 5.91418 3.27344C6.47668 3.23698 7.15377 3.21875 7.94543 3.21875C8.65377 3.21875 9.30741 3.23698 9.90637 3.27344C10.5105 3.3099 10.9454 3.34375 11.2111 3.375C11.5809 3.41146 11.9142 3.52083 12.2111 3.70312C12.5079 3.88021 12.7579 4.11979 12.9611 4.42188C13.1694 4.72396 13.323 5.08073 13.422 5.49219C13.5001 5.83073 13.5756 6.20833 13.6486 6.625C13.7215 7.04167 13.784 7.48698 13.8361 7.96094C13.8934 8.4349 13.9376 8.92448 13.9689 9.42969C14.0001 9.92969 14.0157 10.4323 14.0157 10.9375V15.7109C14.0157 16.0911 13.9428 16.4297 13.797 16.7266C13.6564 17.0234 13.435 17.2552 13.1329 17.4219C12.8361 17.5885 12.4532 17.6719 11.9845 17.6719H3.89856ZM5.94543 5.27344H9.93762C10.0835 5.27344 10.2006 5.22917 10.2892 5.14062C10.3777 5.05208 10.422 4.9349 10.422 4.78906C10.422 4.64844 10.3777 4.53646 10.2892 4.45312C10.2006 4.36458 10.0835 4.32031 9.93762 4.32031H5.94543C5.7996 4.32031 5.68241 4.36458 5.59387 4.45312C5.51054 4.53646 5.46887 4.64844 5.46887 4.78906C5.46887 4.9349 5.51054 5.05208 5.59387 5.14062C5.68241 5.22917 5.7996 5.27344 5.94543 5.27344ZM7.94543 13.2109C8.9246 13.2057 9.78137 13.1849 10.5157 13.1484C11.2553 13.112 11.8361 13.0677 12.2579 13.0156C12.4923 12.9844 12.659 12.8984 12.7579 12.7578C12.8569 12.612 12.9064 12.4297 12.9064 12.2109V10.4141C12.9064 9.88802 12.8907 9.40104 12.8595 8.95312C12.8282 8.50521 12.7892 8.11458 12.7423 7.78125C12.6954 7.44792 12.6512 7.1901 12.6095 7.00781C12.5678 6.83594 12.4923 6.69271 12.3829 6.57812C12.2788 6.46354 12.1381 6.39583 11.9611 6.375C11.6746 6.33854 11.3621 6.3099 11.0236 6.28906C10.6902 6.26302 10.2788 6.24219 9.78918 6.22656C9.2996 6.21094 8.68502 6.20312 7.94543 6.20312C7.20064 6.20312 6.58346 6.21094 6.09387 6.22656C5.60429 6.24219 5.19023 6.26302 4.85168 6.28906C4.51314 6.3099 4.19543 6.33854 3.89856 6.375C3.73189 6.39583 3.59648 6.46354 3.49231 6.57812C3.38814 6.69271 3.31523 6.83594 3.27356 7.00781C3.23189 7.1901 3.18762 7.44792 3.14075 7.78125C3.09387 8.11458 3.05481 8.50521 3.02356 8.95312C2.99231 9.40104 2.97668 9.88802 2.97668 10.4141V12.2109C2.97668 12.4297 3.02616 12.612 3.12512 12.7578C3.22408 12.8984 3.39075 12.9844 3.62512 13.0156C4.047 13.0677 4.62512 13.112 5.3595 13.1484C6.09908 13.1849 6.96106 13.2057 7.94543 13.2109ZM4.31262 16.4531C4.61991 16.4531 4.87512 16.3516 5.07825 16.1484C5.28658 15.9453 5.39075 15.6875 5.39075 15.375C5.39075 15.0677 5.28918 14.8151 5.08606 14.6172C4.88293 14.4141 4.62512 14.3125 4.31262 14.3125C4.00533 14.3125 3.75012 14.4141 3.547 14.6172C3.34908 14.8151 3.25012 15.0677 3.25012 15.375C3.25012 15.6875 3.34908 15.9453 3.547 16.1484C3.75012 16.3516 4.00533 16.4531 4.31262 16.4531ZM11.5626 16.4609C11.8647 16.4609 12.1199 16.3568 12.3282 16.1484C12.5366 15.9401 12.6407 15.6823 12.6407 15.375C12.6407 15.0729 12.5366 14.8203 12.3282 14.6172C12.1251 14.4089 11.8699 14.3047 11.5626 14.3047C11.2553 14.3047 10.9975 14.4089 10.7892 14.6172C10.5809 14.8203 10.4767 15.0729 10.4767 15.375C10.4767 15.6823 10.5809 15.9401 10.7892 16.1484C10.9975 16.3568 11.2553 16.4609 11.5626 16.4609ZM2.56262 21.8047H3.00012C3.19283 21.8047 3.34387 21.7161 3.45325 21.5391L5.672 17.9609H4.17981L2.21106 21.125C2.14335 21.2344 2.11471 21.3411 2.12512 21.4453C2.14075 21.5495 2.18502 21.6354 2.25793 21.7031C2.33606 21.7708 2.43762 21.8047 2.56262 21.8047ZM3.25012 20.8203H12.6642V19.6484H3.25012V20.8203ZM12.922 21.8047H13.3595C13.4793 21.8047 13.5756 21.7682 13.6486 21.6953C13.7215 21.6276 13.7631 21.5417 13.7736 21.4375C13.784 21.3385 13.7553 21.2344 13.6876 21.125L11.7345 17.9609H10.2423L12.4611 21.5391C12.5704 21.7161 12.7241 21.8047 12.922 21.8047Z"
		fill="currentColor"
	/>
</svg>
