<svg
	color="rgb(var(--foreground, 0, 0, 0))"
	viewBox="0 0 14 24"
	fill="none"
	xmlns="http://www.w3.org/2000/svg"
>
	<path
		d="M2.22668 18.2383H10.9923C11.4559 18.2383 11.8491 18.1393 12.172 17.9414C12.5001 17.7487 12.7501 17.4805 12.922 17.1367C13.0939 16.793 13.1798 16.3971 13.1798 15.9492V10.3477C13.1798 9.65495 13.1512 8.97786 13.0939 8.31641C13.0418 7.64974 12.9715 7.02995 12.8829 6.45703C12.7944 5.87891 12.698 5.3763 12.5939 4.94922C12.4897 4.50651 12.3204 4.10807 12.0861 3.75391C11.8517 3.39974 11.5574 3.11068 11.2032 2.88672C10.8543 2.66276 10.4506 2.52734 9.99231 2.48047C9.74231 2.45443 9.31262 2.42318 8.70325 2.38672C8.09908 2.34505 7.40116 2.32422 6.6095 2.32422C5.81783 2.32422 5.11731 2.34505 4.50793 2.38672C3.90377 2.42318 3.47668 2.45443 3.22668 2.48047C2.76314 2.52734 2.35429 2.66276 2.00012 2.88672C1.65116 3.11068 1.3595 3.39974 1.12512 3.75391C0.895955 4.10807 0.729289 4.50651 0.625122 4.94922C0.515747 5.3763 0.416789 5.87891 0.328247 6.45703C0.239705 7.02995 0.169393 7.64974 0.11731 8.31641C0.0652262 8.97786 0.0391846 9.65495 0.0391846 10.3477V15.9492C0.0391846 16.3971 0.125122 16.793 0.296997 17.1367C0.468872 17.4805 0.716268 17.7487 1.03918 17.9414C1.36731 18.1393 1.76314 18.2383 2.22668 18.2383ZM4.6095 4.75391C4.46366 4.75391 4.34648 4.70964 4.25793 4.62109C4.1746 4.53255 4.13293 4.41536 4.13293 4.26953C4.13293 4.12891 4.1746 4.01693 4.25793 3.93359C4.34648 3.84505 4.46366 3.80078 4.6095 3.80078H8.60168C8.74752 3.80078 8.86471 3.84505 8.95325 3.93359C9.04179 4.01693 9.08606 4.12891 9.08606 4.26953C9.08606 4.41536 9.04179 4.53255 8.95325 4.62109C8.86471 4.70964 8.74752 4.75391 8.60168 4.75391H4.6095ZM6.6095 13.082C5.70325 13.0768 4.8621 13.056 4.08606 13.0195C3.31002 12.9831 2.71106 12.9388 2.28918 12.8867C2.05481 12.8555 1.88814 12.7695 1.78918 12.6289C1.69023 12.4831 1.64075 12.3008 1.64075 12.082V10.2852C1.64075 9.75911 1.65637 9.27214 1.68762 8.82422C1.71887 8.3763 1.75793 7.98568 1.80481 7.65234C1.85168 7.31901 1.89596 7.0612 1.93762 6.87891C1.97929 6.70703 2.05221 6.5638 2.15637 6.44922C2.26054 6.33464 2.39596 6.26693 2.56262 6.24609C3.00533 6.19401 3.53137 6.15495 4.14075 6.12891C4.75012 6.09766 5.57304 6.07943 6.6095 6.07422C7.64596 6.06901 8.46627 6.08464 9.07043 6.12109C9.6746 6.15234 10.1928 6.19401 10.6251 6.24609C10.8022 6.26693 10.9428 6.33464 11.047 6.44922C11.1564 6.5638 11.2319 6.70703 11.2736 6.87891C11.3152 7.0612 11.3595 7.31901 11.4064 7.65234C11.4532 7.98568 11.4923 8.3763 11.5236 8.82422C11.5548 9.27214 11.5704 9.75911 11.5704 10.2852V12.082C11.5704 12.306 11.521 12.4909 11.422 12.6367C11.323 12.7773 11.1564 12.8607 10.922 12.8867C10.2918 12.9544 9.58866 13.0039 8.81262 13.0352C8.03658 13.0664 7.30221 13.082 6.6095 13.082ZM2.97668 16.5977C2.66939 16.5977 2.41418 16.4987 2.21106 16.3008C2.01314 16.0977 1.91418 15.8398 1.91418 15.5273C1.91418 15.2148 2.01314 14.9596 2.21106 14.7617C2.41418 14.5586 2.66939 14.457 2.97668 14.457C3.28918 14.457 3.547 14.5586 3.75012 14.7617C3.95325 14.9596 4.05481 15.2148 4.05481 15.5273C4.05481 15.8398 3.95064 16.0977 3.74231 16.3008C3.53918 16.4987 3.28398 16.5977 2.97668 16.5977ZM10.2267 16.6055C9.91939 16.6055 9.66158 16.5039 9.45325 16.3008C9.24491 16.0924 9.14075 15.8346 9.14075 15.5273C9.14075 15.2201 9.24491 14.9648 9.45325 14.7617C9.66158 14.5534 9.91939 14.4492 10.2267 14.4492C10.534 14.4492 10.7892 14.5534 10.9923 14.7617C11.2006 14.9648 11.3048 15.2201 11.3048 15.5273C11.3048 15.8346 11.2006 16.0924 10.9923 16.3008C10.784 16.5039 10.5288 16.6055 10.2267 16.6055ZM1.22668 21.6758H1.66418C1.8621 21.6758 2.01314 21.5872 2.11731 21.4102L4.33606 17.832H2.84387L0.875122 20.9961C0.807414 21.1055 0.778768 21.2122 0.789185 21.3164C0.80481 21.4206 0.84908 21.5065 0.921997 21.5742C1.00012 21.6419 1.10168 21.6758 1.22668 21.6758ZM1.91418 20.6914H11.3282V19.5195H1.91418V20.6914ZM11.5861 21.6758H12.0236C12.1434 21.6758 12.2397 21.6393 12.3126 21.5664C12.3855 21.4987 12.4272 21.4128 12.4376 21.3086C12.448 21.2096 12.4194 21.1055 12.3517 20.9961L10.3986 17.832H8.90637L11.1251 21.4102C11.2345 21.5872 11.3881 21.6758 11.5861 21.6758Z"
		fill="currentColor"
	/>
</svg>
