<svg
	color="rgb(var(--foreground, 0, 0, 0))"
	viewBox="0 0 19 24"
	fill="none"
	xmlns="http://www.w3.org/2000/svg"
>
	<path
		d="M0.17981 21.8398C0.17981 22.0117 0.239705 22.1576 0.359497 22.2773C0.484497 22.4023 0.632935 22.4648 0.80481 22.4648C0.981893 22.4648 1.13033 22.4023 1.25012 22.2773C1.37512 22.1576 1.43762 22.0117 1.43762 21.8398V9.59766C1.43762 8.11849 1.73189 6.8737 2.32043 5.86328C2.91418 4.85286 3.78658 4.08984 4.93762 3.57422C6.08866 3.05339 7.50533 2.79297 9.18762 2.79297C10.8647 2.79297 12.2788 3.05339 13.4298 3.57422C14.5809 4.08984 15.4506 4.85286 16.0392 5.86328C16.6329 6.8737 16.9298 8.11849 16.9298 9.59766V21.8398C16.9298 22.0117 16.9923 22.1576 17.1173 22.2773C17.2423 22.4023 17.3907 22.4648 17.5626 22.4648C17.7345 22.4648 17.8803 22.4023 18.0001 22.2773C18.1251 22.1576 18.1876 22.0117 18.1876 21.8398V9.59766C18.1876 7.84766 17.8439 6.3737 17.1564 5.17578C16.4741 3.97786 15.4637 3.07161 14.1251 2.45703C12.7866 1.84245 11.1407 1.53516 9.18762 1.53516C7.22929 1.53516 5.58085 1.84245 4.24231 2.45703C2.90377 3.07161 1.89075 3.97786 1.20325 5.17578C0.520955 6.3737 0.17981 7.84766 0.17981 9.59766V21.8398ZM5.52356 18.8789H12.8439C13.2501 18.8789 13.5939 18.793 13.8751 18.6211C14.1616 18.4492 14.3803 18.2122 14.5314 17.9102C14.6824 17.6081 14.7579 17.2643 14.7579 16.8789V12.1992C14.7579 11.6159 14.7345 11.0456 14.6876 10.4883C14.6407 9.93099 14.5809 9.41276 14.5079 8.93359C14.435 8.44922 14.3543 8.02734 14.2657 7.66797C14.1251 7.0638 13.8569 6.57682 13.4611 6.20703C13.0652 5.83203 12.5861 5.61068 12.0236 5.54297C11.8152 5.51693 11.4532 5.48828 10.9376 5.45703C10.4272 5.42057 9.84387 5.40234 9.18762 5.40234C8.52616 5.40234 7.94023 5.42057 7.42981 5.45703C6.91939 5.48828 6.55741 5.51693 6.34387 5.54297C5.78137 5.61068 5.30221 5.83203 4.90637 6.20703C4.51575 6.57682 4.24752 7.0638 4.10168 7.66797C4.01314 8.02734 3.93241 8.44922 3.8595 8.93359C3.78658 9.41276 3.72668 9.93099 3.67981 10.4883C3.63293 11.0456 3.6095 11.6159 3.6095 12.1992V16.8789C3.6095 17.2643 3.68502 17.6081 3.83606 17.9102C3.9871 18.2122 4.20585 18.4492 4.49231 18.6211C4.77877 18.793 5.12252 18.8789 5.52356 18.8789ZM9.18762 14.4102C8.43241 14.4049 7.73189 14.3893 7.08606 14.3633C6.44023 14.332 5.94283 14.293 5.59387 14.2461C5.43241 14.2253 5.31262 14.168 5.2345 14.0742C5.15637 13.9753 5.11731 13.8346 5.11731 13.6523V12.1445C5.11731 11.4935 5.14335 10.918 5.19543 10.418C5.25273 9.91797 5.30741 9.54818 5.3595 9.30859C5.41158 9.03255 5.56523 8.87891 5.82043 8.84766C6.18502 8.80078 6.61991 8.76693 7.12512 8.74609C7.63554 8.72005 8.32304 8.70703 9.18762 8.70703C10.047 8.70703 10.7293 8.72005 11.2345 8.74609C11.7397 8.76693 12.1694 8.79818 12.5236 8.83984C12.7892 8.8763 12.9506 9.03255 13.0079 9.30859C13.0548 9.54818 13.1069 9.91797 13.1642 10.418C13.2215 10.918 13.2501 11.4935 13.2501 12.1445V13.6523C13.2501 13.8398 13.2111 13.9805 13.1329 14.0742C13.0548 14.168 12.935 14.2253 12.7736 14.2461C12.2527 14.319 11.6694 14.3633 11.0236 14.3789C10.3829 14.3945 9.77096 14.4049 9.18762 14.4102ZM7.55481 7.60547C7.41418 7.60547 7.2996 7.5638 7.21106 7.48047C7.12773 7.39193 7.08606 7.27734 7.08606 7.13672C7.08606 6.99609 7.12773 6.88411 7.21106 6.80078C7.2996 6.71224 7.41418 6.66797 7.55481 6.66797H10.8126C10.9532 6.66797 11.0652 6.71224 11.1486 6.80078C11.2371 6.88411 11.2814 6.99609 11.2814 7.13672C11.2814 7.27734 11.2371 7.39193 11.1486 7.48047C11.0652 7.5638 10.9532 7.60547 10.8126 7.60547H7.55481ZM6.14856 17.4805C5.87252 17.4805 5.64596 17.3919 5.46887 17.2148C5.29179 17.0326 5.20325 16.8008 5.20325 16.5195C5.20325 16.2487 5.29179 16.0247 5.46887 15.8477C5.64596 15.6654 5.87252 15.5742 6.14856 15.5742C6.42981 15.5742 6.65898 15.6654 6.83606 15.8477C7.01835 16.0247 7.1095 16.2487 7.1095 16.5195C7.1095 16.8008 7.01575 17.0326 6.82825 17.2148C6.64596 17.3919 6.41939 17.4805 6.14856 17.4805ZM12.2111 17.4805C11.935 17.4805 11.7059 17.3919 11.5236 17.2148C11.3465 17.0326 11.2579 16.8008 11.2579 16.5195C11.2579 16.2487 11.3465 16.0247 11.5236 15.8477C11.7059 15.6654 11.935 15.5742 12.2111 15.5742C12.4871 15.5742 12.7137 15.6654 12.8907 15.8477C13.073 16.0247 13.1642 16.2487 13.1642 16.5195C13.1642 16.8008 13.073 17.0326 12.8907 17.2148C12.7085 17.3919 12.4819 17.4805 12.2111 17.4805ZM4.67981 21.6992H5.047C5.21887 21.6992 5.3595 21.6185 5.46887 21.457L7.35168 18.418H6.01575L4.3595 21.082C4.27096 21.2279 4.26054 21.3659 4.32825 21.4961C4.39596 21.6315 4.51314 21.6992 4.67981 21.6992ZM5.22668 20.8711H13.1564V19.8242H5.22668V20.8711ZM13.3517 21.6992H13.7111C13.8725 21.6992 13.9871 21.6315 14.0548 21.4961C14.1277 21.3607 14.1199 21.2227 14.0314 21.082L12.3751 18.418H11.0392L12.922 21.457C13.021 21.6185 13.1642 21.6992 13.3517 21.6992Z"
		fill="currentColor"
	/>
</svg>
