<svg
	color="rgb(var(--foreground, 0, 0, 0))"
	viewBox="0 0 17 24"
	fill="none"
	xmlns="http://www.w3.org/2000/svg"
>
	<path
		d="M1.34387 17.3711H15.8048V6.64453C15.8048 6.17057 15.6694 5.79557 15.3986 5.51953C15.1277 5.23828 14.7319 5.06641 14.2111 5.00391C13.7059 4.94141 13.1434 4.88932 12.5236 4.84766C11.9038 4.80078 11.2553 4.76693 10.5782 4.74609C9.90637 4.72526 9.2371 4.71484 8.57043 4.71484C7.89856 4.71484 7.22668 4.72526 6.55481 4.74609C5.88293 4.76693 5.2371 4.80078 4.61731 4.84766C3.99752 4.88932 3.43241 4.94141 2.922 5.00391C2.40637 5.06641 2.01314 5.23828 1.74231 5.51953C1.47668 5.79557 1.34387 6.17057 1.34387 6.64453V17.3711ZM2.93762 12.332V8.43359C2.93762 8.01693 3.08085 7.66276 3.36731 7.37109C3.65898 7.07943 4.01835 6.93359 4.44543 6.93359C4.86731 6.93359 5.22148 7.07943 5.50793 7.37109C5.7996 7.66276 5.94543 8.01693 5.94543 8.43359V12.332C5.94543 12.457 5.90637 12.556 5.82825 12.6289C5.75533 12.7018 5.65377 12.7383 5.52356 12.7383H3.3595C3.22929 12.7383 3.12512 12.7018 3.047 12.6289C2.97408 12.556 2.93762 12.457 2.93762 12.332ZM6.88293 12.332V8.20703C6.88293 7.70182 7.03658 7.29557 7.34387 6.98828C7.65116 6.68099 8.06002 6.52734 8.57043 6.52734C9.07564 6.52734 9.48189 6.68099 9.78918 6.98828C10.1017 7.29557 10.2579 7.70182 10.2579 8.20703V12.332C10.2579 12.457 10.2189 12.556 10.1407 12.6289C10.0678 12.7018 9.96627 12.7383 9.83606 12.7383H7.297C7.16679 12.7383 7.06523 12.7018 6.99231 12.6289C6.91939 12.556 6.88293 12.457 6.88293 12.332ZM11.1876 12.332V8.43359C11.1876 8.01693 11.3335 7.66276 11.6251 7.37109C11.9168 7.07943 12.2762 6.93359 12.7032 6.93359C13.1199 6.93359 13.4741 7.07943 13.7657 7.37109C14.0574 7.66276 14.2032 8.01693 14.2032 8.43359V12.332C14.2032 12.457 14.1642 12.556 14.0861 12.6289C14.0079 12.7018 13.9064 12.7383 13.7814 12.7383H11.6173C11.4871 12.7383 11.3829 12.7018 11.3048 12.6289C11.2267 12.556 11.1876 12.457 11.1876 12.332ZM8.57043 16.4648C8.20585 16.4648 7.90377 16.3477 7.66418 16.1133C7.42981 15.8737 7.31262 15.5768 7.31262 15.2227C7.31262 14.8581 7.42981 14.5534 7.66418 14.3086C7.90377 14.0586 8.20585 13.9336 8.57043 13.9336C8.9246 13.9336 9.22408 14.0586 9.46887 14.3086C9.71887 14.5534 9.84387 14.8581 9.84387 15.2227C9.84387 15.5768 9.71887 15.8737 9.46887 16.1133C9.22408 16.3477 8.9246 16.4648 8.57043 16.4648ZM0.445435 17.8711C0.445435 18.043 0.50533 18.1914 0.625122 18.3164C0.750122 18.4414 0.89856 18.5039 1.07043 18.5039H16.0782C16.2501 18.5039 16.396 18.4414 16.5157 18.3164C16.6407 18.1914 16.7032 18.043 16.7032 17.8711C16.7032 17.6992 16.6407 17.5534 16.5157 17.4336C16.396 17.3086 16.2501 17.2461 16.0782 17.2461H1.07043C0.89856 17.2461 0.750122 17.3086 0.625122 17.4336C0.50533 17.5534 0.445435 17.6992 0.445435 17.8711ZM3.53137 3.33984C3.53137 3.51693 3.59648 3.67578 3.72668 3.81641C3.85689 3.95182 4.01314 4.00651 4.19543 3.98047C4.77356 3.90755 5.44543 3.85547 6.21106 3.82422C6.98189 3.79297 7.76835 3.77734 8.57043 3.77734C9.37252 3.77734 10.1564 3.79297 10.922 3.82422C11.6928 3.85547 12.3699 3.90755 12.9532 3.98047C13.1355 4.00651 13.2892 3.95182 13.4142 3.81641C13.5444 3.67578 13.6095 3.51693 13.6095 3.33984C13.6095 3.16276 13.547 3.01693 13.422 2.90234C13.297 2.78255 13.1407 2.70964 12.9532 2.68359C12.3647 2.61068 11.6824 2.55859 10.9064 2.52734C10.1355 2.49089 9.35689 2.47266 8.57043 2.47266C7.78398 2.47266 7.00533 2.49089 6.2345 2.52734C5.46366 2.55859 4.78137 2.61068 4.18762 2.68359C4.00533 2.70964 3.84908 2.78255 3.71887 2.90234C3.59387 3.01693 3.53137 3.16276 3.53137 3.33984ZM4.422 3.13672V5.27734H5.44543V3.13672H4.422ZM11.7032 3.13672V5.27734H12.7267V3.13672H11.7032ZM3.047 21.5273H3.4845C3.67721 21.5273 3.82825 21.4414 3.93762 21.2695L6.15637 17.6836H4.66418L2.69543 20.8477C2.62773 20.957 2.59908 21.0638 2.6095 21.168C2.62512 21.2721 2.66939 21.3581 2.74231 21.4258C2.82043 21.4935 2.922 21.5273 3.047 21.5273ZM13.3907 21.5273H13.8282C13.948 21.5273 14.0444 21.4935 14.1173 21.4258C14.1954 21.3581 14.2397 21.2721 14.2501 21.168C14.2657 21.0638 14.2397 20.957 14.172 20.8477L12.2032 17.6836H10.7111L12.9298 21.2695C13.0392 21.4414 13.1928 21.5273 13.3907 21.5273Z"
		fill="currentColor"
	/>
</svg>
