<svg
	color="rgb(var(--foreground, 0, 0, 0))"
	viewBox="0 0 17 24"
	fill="none"
	xmlns="http://www.w3.org/2000/svg"
>
	<path
		d="M1.08606 17.3711H2.09387V6.94922C2.09387 6.66797 2.16158 6.44922 2.297 6.29297C2.43762 6.13151 2.65377 6.03255 2.94543 5.99609C3.59127 5.90755 4.38554 5.84245 5.32825 5.80078C6.27616 5.75911 7.27096 5.73828 8.31262 5.73828C9.35429 5.73828 10.3465 5.75911 11.2892 5.80078C12.2371 5.84245 13.0366 5.90755 13.6876 5.99609C13.9845 6.03255 14.198 6.1263 14.3282 6.27734C14.4637 6.42318 14.5314 6.64714 14.5314 6.94922V17.3711H15.547V6.64453C15.547 6.17057 15.4116 5.79557 15.1407 5.51953C14.8699 5.23828 14.4741 5.06641 13.9532 5.00391C13.448 4.94141 12.8855 4.88932 12.2657 4.84766C11.646 4.80078 10.9975 4.76693 10.3204 4.74609C9.64856 4.72526 8.97929 4.71484 8.31262 4.71484C7.64075 4.71484 6.96887 4.72526 6.297 4.74609C5.62512 4.76693 4.97929 4.80078 4.3595 4.84766C3.73971 4.88932 3.1746 4.94141 2.66418 5.00391C2.14856 5.06641 1.75533 5.23828 1.4845 5.51953C1.21887 5.79557 1.08606 6.17057 1.08606 6.64453V17.3711ZM0.187622 17.8711C0.187622 18.043 0.247518 18.1914 0.36731 18.3164C0.49231 18.4414 0.640747 18.5039 0.812622 18.5039H15.8204C15.9923 18.5039 16.1381 18.4414 16.2579 18.3164C16.3829 18.1914 16.4454 18.043 16.4454 17.8711C16.4454 17.6992 16.3829 17.5534 16.2579 17.4336C16.1381 17.3086 15.9923 17.2461 15.8204 17.2461H0.812622C0.640747 17.2461 0.49231 17.3086 0.36731 17.4336C0.247518 17.5534 0.187622 17.6992 0.187622 17.8711ZM3.27356 3.33984C3.27356 3.51693 3.33866 3.67578 3.46887 3.81641C3.59908 3.95182 3.75533 4.00651 3.93762 3.98047C4.51575 3.90755 5.18762 3.85547 5.95325 3.82422C6.72408 3.79297 7.51054 3.77734 8.31262 3.77734C9.11471 3.77734 9.89856 3.79297 10.6642 3.82422C11.435 3.85547 12.1121 3.90755 12.6954 3.98047C12.8777 4.00651 13.0314 3.95182 13.1564 3.81641C13.2866 3.67578 13.3517 3.51693 13.3517 3.33984C13.3517 3.16276 13.2892 3.01693 13.1642 2.90234C13.0392 2.78255 12.8829 2.70964 12.6954 2.68359C12.1069 2.61068 11.4246 2.55859 10.6486 2.52734C9.87773 2.49089 9.09908 2.47266 8.31262 2.47266C7.52616 2.47266 6.74752 2.49089 5.97668 2.52734C5.20585 2.55859 4.52356 2.61068 3.92981 2.68359C3.74752 2.70964 3.59127 2.78255 3.46106 2.90234C3.33606 3.01693 3.27356 3.16276 3.27356 3.33984ZM4.16418 3.13672V5.27734H5.18762V3.13672H4.16418ZM11.4454 3.13672V5.27734H12.4689V3.13672H11.4454ZM8.31262 16.3555C8.66679 16.3555 8.96627 16.2383 9.21106 16.0039C9.46106 15.7643 9.58606 15.4674 9.58606 15.1133C9.58606 14.7487 9.46106 14.444 9.21106 14.1992C8.96627 13.9492 8.66679 13.8242 8.31262 13.8242C7.94804 13.8242 7.64596 13.9492 7.40637 14.1992C7.172 14.444 7.05481 14.7487 7.05481 15.1133C7.05481 15.4674 7.172 15.7643 7.40637 16.0039C7.64596 16.2383 7.94804 16.3555 8.31262 16.3555ZM2.92981 12.3086C2.92981 12.4284 2.96627 12.5247 3.03918 12.5977C3.1121 12.6654 3.21106 12.6992 3.33606 12.6992H5.43762C5.56262 12.6992 5.66158 12.6654 5.7345 12.5977C5.80741 12.5247 5.84387 12.4284 5.84387 12.3086V8.48828C5.84387 8.07682 5.70325 7.73307 5.422 7.45703C5.14075 7.17578 4.797 7.03516 4.39075 7.03516C3.97929 7.03516 3.63293 7.17578 3.35168 7.45703C3.07043 7.73307 2.92981 8.07682 2.92981 8.48828V12.3086ZM6.672 12.3086C6.672 12.4284 6.70846 12.5247 6.78137 12.5977C6.85429 12.6654 6.95325 12.6992 7.07825 12.6992H9.53918C9.66939 12.6992 9.77096 12.6654 9.84387 12.5977C9.91679 12.5247 9.95325 12.4284 9.95325 12.3086V8.30859C9.95325 7.81901 9.80221 7.42578 9.50012 7.12891C9.19804 6.82682 8.80221 6.67578 8.31262 6.67578C7.81783 6.67578 7.41939 6.82682 7.11731 7.12891C6.82043 7.42578 6.672 7.81901 6.672 8.30859V12.3086ZM10.7736 12.3086C10.7736 12.4284 10.81 12.5247 10.8829 12.5977C10.9611 12.6654 11.0626 12.6992 11.1876 12.6992H13.2892C13.4142 12.6992 13.5131 12.6654 13.5861 12.5977C13.659 12.5247 13.6954 12.4284 13.6954 12.3086V8.48828C13.6954 8.07682 13.5548 7.73307 13.2736 7.45703C12.9923 7.17578 12.6486 7.03516 12.2423 7.03516C11.8256 7.03516 11.4767 7.17578 11.1954 7.45703C10.9142 7.73307 10.7736 8.07682 10.7736 8.48828V12.3086ZM2.78918 21.5273H3.22668C3.41939 21.5273 3.57043 21.4414 3.67981 21.2695L5.89856 17.6836H4.40637L2.43762 20.8477C2.36991 20.957 2.34127 21.0638 2.35168 21.168C2.36731 21.2721 2.41158 21.3581 2.4845 21.4258C2.56262 21.4935 2.66418 21.5273 2.78918 21.5273ZM13.1329 21.5273H13.5704C13.6902 21.5273 13.7866 21.4935 13.8595 21.4258C13.9376 21.3581 13.9819 21.2721 13.9923 21.168C14.0079 21.0638 13.9819 20.957 13.9142 20.8477L11.9454 17.6836H10.4532L12.672 21.2695C12.7814 21.4414 12.935 21.5273 13.1329 21.5273Z"
		fill="currentColor"
	/>
</svg>
