<svg
	color="rgb(var(--foreground, 0, 0, 0))"
	viewBox="0 0 23 24"
	fill="none"
	xmlns="http://www.w3.org/2000/svg"
>
	<path
		d="M14.7858 15.8984V5.91406C14.7858 5.22135 14.6061 4.69531 14.2467 4.33594C13.8873 3.97135 13.3587 3.78906 12.6608 3.78906H2.26233C1.56441 3.78906 1.03577 3.96875 0.676392 4.32812C0.317017 4.6875 0.137329 5.21615 0.137329 5.91406V16.1641C0.137329 16.6276 0.218058 17.0182 0.379517 17.3359C0.540975 17.6484 0.777954 17.8828 1.09045 18.0391C1.40816 18.2005 1.79879 18.2812 2.26233 18.2812H2.79358C2.77795 18.1771 2.77014 18.0703 2.77014 17.9609C2.77014 17.5234 2.85087 17.1146 3.01233 16.7344C3.179 16.349 3.40556 16.013 3.69202 15.7266C3.98368 15.4349 4.31962 15.2083 4.69983 15.0469C5.08525 14.8802 5.4967 14.7969 5.9342 14.7969C6.3665 14.7969 6.77275 14.8802 7.15295 15.0469C7.53837 15.2083 7.87431 15.4349 8.16077 15.7266C8.45243 16.013 8.679 16.349 8.84045 16.7344C9.00712 17.1146 9.09045 17.5234 9.09045 17.9609C9.09045 18.0703 9.08264 18.1771 9.06702 18.2812H14.0436C14.028 18.1719 14.0201 18.0625 14.0201 17.9531C14.0201 17.5521 14.0852 17.1771 14.2155 16.8281C14.3457 16.474 14.5358 16.1641 14.7858 15.8984ZM15.8561 8.10156V15.125C16.0436 15.0208 16.2467 14.9401 16.4655 14.8828C16.6842 14.8203 16.9108 14.7891 17.1451 14.7891C17.5826 14.7891 17.9915 14.8724 18.3717 15.0391C18.7571 15.2005 19.0957 15.4271 19.3873 15.7188C19.6842 16.0052 19.916 16.3411 20.0826 16.7266C20.2545 17.1068 20.3405 17.5156 20.3405 17.9531C20.3405 18.0625 20.3326 18.1719 20.317 18.2812H20.7936C21.4811 18.2812 22.0019 18.099 22.3561 17.7344C22.7102 17.375 22.8873 16.8516 22.8873 16.1641V13.4062C22.8873 13.0208 22.8483 12.7188 22.7701 12.5C22.6972 12.276 22.5514 12.0417 22.3326 11.7969L19.6764 8.79688C19.442 8.54167 19.1894 8.36198 18.9186 8.25781C18.6477 8.15365 18.3196 8.10156 17.9342 8.10156H15.8561ZM17.8795 13.0859C17.6608 13.0859 17.4863 13.0234 17.3561 12.8984C17.2311 12.7682 17.1686 12.5938 17.1686 12.375V9.54688H17.8561C18.0332 9.54688 18.1894 9.57031 18.3248 9.61719C18.4602 9.66406 18.6035 9.77344 18.7545 9.94531L21.1373 12.6172C21.1998 12.6849 21.2519 12.7578 21.2936 12.8359C21.3352 12.9141 21.3639 12.9974 21.3795 13.0859H17.8795ZM5.9342 20.2109C6.35087 20.2109 6.72847 20.1094 7.06702 19.9062C7.40556 19.7031 7.67639 19.4297 7.87952 19.0859C8.08264 18.7474 8.1842 18.3724 8.1842 17.9609C8.1842 17.5443 8.08264 17.1667 7.87952 16.8281C7.67639 16.4844 7.40295 16.2135 7.0592 16.0156C6.72066 15.8125 6.34566 15.7109 5.9342 15.7109C5.51754 15.7109 5.13733 15.8125 4.79358 16.0156C4.45504 16.2135 4.1842 16.4844 3.98108 16.8281C3.78316 17.1667 3.6842 17.5443 3.6842 17.9609C3.6842 18.3724 3.78316 18.7474 3.98108 19.0859C4.1842 19.4297 4.45504 19.7031 4.79358 19.9062C5.13733 20.1094 5.51754 20.2109 5.9342 20.2109ZM17.1764 20.2109C17.5931 20.2109 17.9707 20.1094 18.3092 19.9062C18.653 19.7031 18.9238 19.4297 19.1217 19.0859C19.3248 18.7474 19.4264 18.3698 19.4264 17.9531C19.4264 17.5365 19.3248 17.1589 19.1217 16.8203C18.9186 16.4766 18.6477 16.2057 18.3092 16.0078C17.9707 15.8047 17.5931 15.7031 17.1764 15.7031C16.7649 15.7031 16.3873 15.8047 16.0436 16.0078C15.705 16.2057 15.4342 16.4766 15.2311 16.8203C15.028 17.1589 14.9264 17.5365 14.9264 17.9531C14.9264 18.3646 15.028 18.7422 15.2311 19.0859C15.4342 19.4297 15.705 19.7031 16.0436 19.9062C16.3873 20.1094 16.7649 20.2109 17.1764 20.2109Z"
		fill="currentColor"
	/>
</svg>
