<svg
	color="rgb(var(--foreground, 0, 0, 0))"
	viewBox="0 0 24 24"
	fill="none"
	xmlns="http://www.w3.org/2000/svg"
>
	<path
		d="M2.51233 18.1562H4.22327V16.8984H2.52795C2.23629 16.8984 2.01493 16.8255 1.86389 16.6797C1.71806 16.5286 1.64514 16.3073 1.64514 16.0156V5.8125C1.64514 5.51562 1.71806 5.29427 1.86389 5.14844C2.01493 4.9974 2.23629 4.92188 2.52795 4.92188H13.9576C14.2493 4.92188 14.4707 4.9974 14.6217 5.14844C14.7727 5.29427 14.8483 5.51562 14.8483 5.8125V17.2656L16.1061 16.8125V5.78906C16.1061 5.09635 15.9264 4.57031 15.567 4.21094C15.2076 3.84635 14.679 3.66406 13.9811 3.66406H2.51233C1.81441 3.66406 1.28577 3.84375 0.926392 4.20312C0.567017 4.5625 0.387329 5.09115 0.387329 5.78906V16.0391C0.387329 16.7318 0.567017 17.2578 0.926392 17.6172C1.28577 17.9766 1.81441 18.1562 2.51233 18.1562ZM8.26233 18.1562H15.3873V16.8984H8.26233V18.1562ZM15.4186 9.23438H18.1061C18.304 9.23438 18.4785 9.26042 18.6295 9.3125C18.7858 9.36458 18.9446 9.47917 19.1061 9.65625L21.5592 12.4141C21.6634 12.5339 21.7415 12.6693 21.7936 12.8203C21.8509 12.9714 21.8795 13.1172 21.8795 13.2578V16.0156C21.8795 16.3073 21.804 16.5286 21.653 16.6797C21.5019 16.8255 21.2806 16.8984 20.9889 16.8984H19.7311V18.1562H21.0123C21.7102 18.1562 22.2389 17.9766 22.5983 17.6172C22.9576 17.2578 23.1373 16.7318 23.1373 16.0391V13.2812C23.1373 12.8958 23.0983 12.5938 23.0201 12.375C22.9472 12.151 22.8014 11.9167 22.5826 11.6719L19.9264 8.67188C19.692 8.41667 19.4394 8.23698 19.1686 8.13281C18.8977 8.02865 18.5696 7.97656 18.1842 7.97656H15.4186V9.23438ZM17.567 13.3516H20.9733C20.9733 13.2578 20.955 13.1797 20.9186 13.1172C20.8873 13.0547 20.8431 12.9922 20.7858 12.9297L18.4576 10.3125C18.3743 10.224 18.2806 10.1536 18.1764 10.1016C18.0774 10.0443 17.9733 10.0156 17.8639 10.0156H16.8951V12.6875C16.8951 12.8906 16.955 13.0521 17.0748 13.1719C17.1946 13.2917 17.3587 13.3516 17.567 13.3516ZM6.1842 20.3359C6.67379 20.3359 7.1191 20.2161 7.52014 19.9766C7.92639 19.737 8.24931 19.4141 8.48889 19.0078C8.72847 18.6068 8.84827 18.1589 8.84827 17.6641C8.84827 17.1745 8.72847 16.7292 8.48889 16.3281C8.24931 15.9219 7.92639 15.599 7.52014 15.3594C7.1191 15.1198 6.67379 15 6.1842 15C5.68941 15 5.23889 15.1198 4.83264 15.3594C4.4316 15.599 4.10868 15.9219 3.86389 16.3281C3.62431 16.7292 3.50452 17.1745 3.50452 17.6641C3.50452 18.1589 3.62431 18.6068 3.86389 19.0078C4.10868 19.4141 4.4316 19.737 4.83264 19.9766C5.23889 20.2161 5.68941 20.3359 6.1842 20.3359ZM6.1842 19.2734C5.88733 19.2734 5.6165 19.2005 5.3717 19.0547C5.12691 18.9141 4.9316 18.7214 4.78577 18.4766C4.63993 18.2318 4.56702 17.9609 4.56702 17.6641C4.56702 17.3672 4.63993 17.099 4.78577 16.8594C4.9316 16.6146 5.12691 16.4193 5.3717 16.2734C5.6165 16.1276 5.88733 16.0547 6.1842 16.0547C6.47587 16.0547 6.7441 16.1276 6.98889 16.2734C7.23368 16.4193 7.42639 16.6146 7.56702 16.8594C7.71285 17.099 7.78577 17.3672 7.78577 17.6641C7.78577 17.9609 7.71285 18.2318 7.56702 18.4766C7.42639 18.7214 7.23368 18.9141 6.98889 19.0547C6.7441 19.2005 6.47587 19.2734 6.1842 19.2734ZM17.442 20.3359C17.9316 20.3359 18.3769 20.2161 18.778 19.9766C19.1842 19.737 19.5071 19.4141 19.7467 19.0078C19.9863 18.6068 20.1061 18.1589 20.1061 17.6641C20.1061 17.1745 19.9863 16.7292 19.7467 16.3281C19.5071 15.9219 19.1842 15.599 18.778 15.3594C18.3769 15.1198 17.9316 15 17.442 15C16.9524 15 16.5045 15.1198 16.0983 15.3594C15.692 15.599 15.3691 15.9219 15.1295 16.3281C14.8899 16.7292 14.7701 17.1745 14.7701 17.6641C14.7701 18.1589 14.8899 18.6068 15.1295 19.0078C15.3691 19.4141 15.692 19.737 16.0983 19.9766C16.5045 20.2161 16.9524 20.3359 17.442 20.3359ZM17.442 19.2734C17.1451 19.2734 16.8743 19.2005 16.6295 19.0547C16.3899 18.9141 16.1972 18.7214 16.0514 18.4766C15.9056 18.2318 15.8326 17.9609 15.8326 17.6641C15.8326 17.3672 15.9056 17.099 16.0514 16.8594C16.1972 16.6146 16.3899 16.4193 16.6295 16.2734C16.8743 16.1276 17.1451 16.0547 17.442 16.0547C17.7337 16.0547 17.9993 16.1276 18.2389 16.2734C18.4837 16.4193 18.679 16.6146 18.8248 16.8594C18.9707 17.099 19.0436 17.3672 19.0436 17.6641C19.0436 17.9609 18.9707 18.2318 18.8248 18.4766C18.6842 18.7214 18.4915 18.9141 18.2467 19.0547C18.0071 19.2005 17.7389 19.2734 17.442 19.2734Z"
		fill="currentColor"
	/>
</svg>
