<svg
	color="rgb(var(--foreground, 0, 0, 0))"
	viewBox="0 0 17 24"
	fill="none"
	xmlns="http://www.w3.org/2000/svg"
>
	<path
		d="M8.82031 13.7344C9.13802 13.7344 9.42708 13.6562 9.6875 13.5C9.95312 13.3438 10.1641 13.1354 10.3203 12.875C10.4766 12.6094 10.5547 12.3177 10.5547 12C10.5547 11.6823 10.4766 11.3932 10.3203 11.1328C10.1641 10.8672 9.95312 10.6562 9.6875 10.5C9.42708 10.3438 9.13802 10.2656 8.82031 10.2656C8.5026 10.2656 8.21094 10.3438 7.94531 10.5C7.6849 10.6562 7.47656 10.8672 7.32031 11.1328C7.16406 11.3932 7.08594 11.6823 7.08594 12C7.08594 12.3177 7.16406 12.6094 7.32031 12.875C7.47656 13.1354 7.6849 13.3438 7.94531 13.5C8.21094 13.6562 8.5026 13.7344 8.82031 13.7344ZM8.82031 12.75C8.61198 12.75 8.4349 12.6771 8.28906 12.5312C8.14323 12.3854 8.07031 12.2083 8.07031 12C8.07031 11.7917 8.14323 11.6146 8.28906 11.4688C8.4349 11.3229 8.61198 11.25 8.82031 11.25C9.02865 11.25 9.20573 11.3229 9.35156 11.4688C9.4974 11.6146 9.57031 11.7917 9.57031 12C9.57031 12.2083 9.4974 12.3854 9.35156 12.5312C9.20573 12.6771 9.02865 12.75 8.82031 12.75ZM8.46875 13.2656L7.57812 12.375L6.42969 13.5234C6.3099 13.6484 6.25 13.7995 6.25 13.9766C6.25 14.1484 6.3099 14.2943 6.42969 14.4141C6.54948 14.5339 6.69531 14.5938 6.86719 14.5938C7.04427 14.5938 7.19531 14.5339 7.32031 14.4141L8.46875 13.2656ZM9.21094 10.75L10.1016 11.625L12.8672 8.85938C12.9922 8.73958 13.0547 8.59375 13.0547 8.42188C13.0547 8.24479 12.9922 8.09375 12.8672 7.96875C12.7474 7.84896 12.599 7.78906 12.4219 7.78906C12.25 7.78906 12.1042 7.84896 11.9844 7.96875L9.21094 10.75ZM8.84375 19.9687C9.93229 19.9687 10.9557 19.7604 11.9141 19.3437C12.8776 18.9271 13.7266 18.3516 14.4609 17.6172C15.1953 16.8828 15.7708 16.0365 16.1875 15.0781C16.6042 14.1146 16.8125 13.0885 16.8125 12C16.8125 10.9115 16.6042 9.88802 16.1875 8.92969C15.7708 7.96615 15.1953 7.11719 14.4609 6.38281C13.7266 5.64844 12.8776 5.07292 11.9141 4.65625C10.9505 4.23958 9.92448 4.03125 8.83594 4.03125C7.7474 4.03125 6.72135 4.23958 5.75781 4.65625C4.79948 5.07292 3.95312 5.64844 3.21875 6.38281C2.48958 7.11719 1.91667 7.96615 1.5 8.92969C1.08333 9.88802 0.875 10.9115 0.875 12C0.875 13.0885 1.08333 14.1146 1.5 15.0781C1.91667 16.0365 2.49219 16.8828 3.22656 17.6172C3.96094 18.3516 4.80729 18.9271 5.76562 19.3437C6.72917 19.7604 7.75521 19.9687 8.84375 19.9687ZM8.84375 18.6406C7.92188 18.6406 7.0599 18.4688 6.25781 18.125C5.45573 17.7812 4.75 17.3073 4.14062 16.7031C3.53646 16.0938 3.0625 15.388 2.71875 14.5859C2.38021 13.7839 2.21094 12.9219 2.21094 12C2.21094 11.0781 2.38021 10.2161 2.71875 9.41406C3.0625 8.61198 3.53646 7.90625 4.14062 7.29688C4.74479 6.6875 5.44792 6.21354 6.25 5.875C7.05208 5.53125 7.91406 5.35938 8.83594 5.35938C9.75781 5.35938 10.6198 5.53125 11.4219 5.875C12.2292 6.21354 12.9349 6.6875 13.5391 7.29688C14.1484 7.90625 14.625 8.61198 14.9688 9.41406C15.3125 10.2161 15.4844 11.0781 15.4844 12C15.4844 12.9219 15.3125 13.7839 14.9688 14.5859C14.6302 15.388 14.1562 16.0938 13.5469 16.7031C12.9375 17.3073 12.2318 17.7812 11.4297 18.125C10.6276 18.4688 9.76562 18.6406 8.84375 18.6406Z"
		fill="currentColor"
	/>
</svg>
