<svg
	color="rgb(var(--foreground, 0, 0, 0))"
	viewBox="0 0 16 24"
	fill="none"
	xmlns="http://www.w3.org/2000/svg"
>
	<path
		d="M7.96094 16.75C8.3099 16.75 8.60417 16.6276 8.84375 16.3828C9.08333 16.138 9.20312 15.8438 9.20312 15.5C9.20312 15.25 9.13542 15.0234 9 14.8203C8.86458 14.6172 8.6901 14.4688 8.47656 14.375V10.7188C8.47656 10.5677 8.42448 10.4427 8.32031 10.3438C8.22135 10.2396 8.10156 10.1875 7.96094 10.1875C7.82552 10.1875 7.70573 10.2396 7.60156 10.3438C7.5026 10.4427 7.45312 10.5677 7.45312 10.7188V14.375C7.23438 14.4688 7.05729 14.6172 6.92188 14.8203C6.78646 15.0234 6.71875 15.25 6.71875 15.5C6.71875 15.8438 6.83854 16.138 7.07812 16.3828C7.32292 16.6276 7.61719 16.75 7.96094 16.75ZM3.99219 10.7188C4.20573 10.7188 4.38542 10.6432 4.53125 10.4922C4.68229 10.3411 4.75781 10.1589 4.75781 9.94531C4.75781 9.73698 4.68229 9.55729 4.53125 9.40625C4.38542 9.25521 4.20573 9.17969 3.99219 9.17969C3.78385 9.17969 3.60417 9.25521 3.45312 9.40625C3.30208 9.55729 3.22656 9.73698 3.22656 9.94531C3.22656 10.1589 3.30208 10.3411 3.45312 10.4922C3.60417 10.6432 3.78385 10.7188 3.99219 10.7188ZM5.72656 9.07031C5.9401 9.07031 6.11979 8.99479 6.26562 8.84375C6.41667 8.69271 6.49219 8.51042 6.49219 8.29688C6.49219 8.08854 6.41667 7.90885 6.26562 7.75781C6.11979 7.60677 5.9401 7.53125 5.72656 7.53125C5.51823 7.53125 5.33854 7.60677 5.1875 7.75781C5.03646 7.90885 4.96094 8.08854 4.96094 8.29688C4.96094 8.51042 5.03646 8.69271 5.1875 8.84375C5.33854 8.99479 5.51823 9.07031 5.72656 9.07031ZM7.96094 8.375C8.16927 8.375 8.34896 8.29948 8.5 8.14844C8.65104 7.9974 8.72656 7.81771 8.72656 7.60938C8.72656 7.39583 8.65104 7.21354 8.5 7.0625C8.34896 6.91146 8.16927 6.83594 7.96094 6.83594C7.7474 6.83594 7.5651 6.91146 7.41406 7.0625C7.26823 7.21354 7.19531 7.39583 7.19531 7.60938C7.19531 7.81771 7.26823 7.9974 7.41406 8.14844C7.5651 8.29948 7.7474 8.375 7.96094 8.375ZM10.1953 9.07031C10.4089 9.07031 10.5885 8.99479 10.7344 8.84375C10.8854 8.6875 10.9609 8.5026 10.9609 8.28906C10.9609 8.08073 10.8854 7.90104 10.7344 7.75C10.5885 7.59896 10.4089 7.52344 10.1953 7.52344C9.98177 7.52344 9.79948 7.59896 9.64844 7.75C9.5026 7.90104 9.42969 8.08073 9.42969 8.28906C9.42969 8.5026 9.5026 8.6875 9.64844 8.84375C9.79948 8.99479 9.98177 9.07031 10.1953 9.07031ZM11.9297 10.7188C12.1432 10.7188 12.3229 10.6432 12.4688 10.4922C12.6198 10.3411 12.6953 10.1589 12.6953 9.94531C12.6953 9.73698 12.6198 9.55729 12.4688 9.40625C12.3229 9.25521 12.1432 9.17969 11.9297 9.17969C11.7214 9.17969 11.5417 9.25521 11.3906 9.40625C11.2396 9.55729 11.1641 9.73698 11.1641 9.94531C11.1641 10.1589 11.2396 10.3411 11.3906 10.4922C11.5417 10.6432 11.7214 10.7188 11.9297 10.7188ZM7.96875 19.9687C9.05729 19.9687 10.0807 19.7604 11.0391 19.3437C12.0026 18.9271 12.8516 18.3516 13.5859 17.6172C14.3203 16.8828 14.8958 16.0365 15.3125 15.0781C15.7292 14.1146 15.9375 13.0885 15.9375 12C15.9375 10.9115 15.7292 9.88802 15.3125 8.92969C14.8958 7.96615 14.3203 7.11719 13.5859 6.38281C12.8516 5.64844 12.0026 5.07292 11.0391 4.65625C10.0755 4.23958 9.04948 4.03125 7.96094 4.03125C6.8724 4.03125 5.84635 4.23958 4.88281 4.65625C3.92448 5.07292 3.07812 5.64844 2.34375 6.38281C1.61458 7.11719 1.04167 7.96615 0.625 8.92969C0.208333 9.88802 0 10.9115 0 12C0 13.0885 0.208333 14.1146 0.625 15.0781C1.04167 16.0365 1.61719 16.8828 2.35156 17.6172C3.08594 18.3516 3.93229 18.9271 4.89062 19.3437C5.85417 19.7604 6.88021 19.9687 7.96875 19.9687ZM7.96875 18.6406C7.04688 18.6406 6.1849 18.4688 5.38281 18.125C4.58073 17.7812 3.875 17.3073 3.26562 16.7031C2.66146 16.0938 2.1875 15.388 1.84375 14.5859C1.50521 13.7839 1.33594 12.9219 1.33594 12C1.33594 11.0781 1.50521 10.2161 1.84375 9.41406C2.1875 8.61198 2.66146 7.90625 3.26562 7.29688C3.86979 6.6875 4.57292 6.21354 5.375 5.875C6.17708 5.53125 7.03906 5.35938 7.96094 5.35938C8.88281 5.35938 9.74479 5.53125 10.5469 5.875C11.3542 6.21354 12.0599 6.6875 12.6641 7.29688C13.2734 7.90625 13.75 8.61198 14.0938 9.41406C14.4375 10.2161 14.6094 11.0781 14.6094 12C14.6094 12.9219 14.4375 13.7839 14.0938 14.5859C13.7552 15.388 13.2812 16.0938 12.6719 16.7031C12.0625 17.3073 11.3568 17.7812 10.5547 18.125C9.7526 18.4688 8.89062 18.6406 7.96875 18.6406Z"
		fill="currentColor"
	/>
</svg>
