<svg
	color="rgb(var(--foreground, 0, 0, 0))"
	viewBox="0 0 17 24"
	fill="none"
	xmlns="http://www.w3.org/2000/svg"
>
	<path
		d="M0.140625 18.6055C0.140625 18.9805 0.390625 19.2227 0.765625 19.2227H16.3047C16.6484 19.2227 16.9375 18.9492 16.9375 18.5977C16.9375 18.2539 16.6484 17.9727 16.3047 17.9727H1.61719C1.45312 17.9727 1.39844 17.918 1.39844 17.7539V12.1367H11.4453V13.9727C11.4453 14.3711 11.8203 14.5039 12.1797 14.293L16.2188 11.8711C16.5469 11.6758 16.5312 11.2617 16.2109 11.0664L12.1719 8.64453C11.8125 8.44141 11.4453 8.57422 11.4453 8.96484V10.8008H1.39844V5.40234C1.39844 5.06641 1.11719 4.77734 0.773438 4.77734C0.421875 4.77734 0.140625 5.06641 0.140625 5.40234V18.6055Z"
		fill="currentColor"
	/>
</svg>
