<svg
	color="rgb(var(--foreground, 0, 0, 0))"
	viewBox="0 0 18 24"
	fill="none"
	xmlns="http://www.w3.org/2000/svg"
>
	<path
		d="M0.546875 18.6055C0.546875 18.9805 0.796875 19.2227 1.17188 19.2227H16.7109C17.0547 19.2227 17.3438 18.9492 17.3438 18.5977C17.3438 18.2539 17.0547 17.9727 16.7109 17.9727H2.02344C1.85938 17.9727 1.80469 17.918 1.80469 17.7539V14.293L5.08594 10.9492C5.15625 10.8789 5.22656 10.8398 5.29688 10.8398C5.36719 10.8398 5.4375 10.8789 5.50781 10.9492L8.38281 13.8945C8.71875 14.2461 9.07031 14.4102 9.4375 14.4102C9.8125 14.4102 10.1484 14.2461 10.5 13.8945L13.6875 10.6914L14.9688 11.9805C15.25 12.2617 15.6172 12.0898 15.7188 11.6914L16.875 7.11328C16.9688 6.75391 16.6562 6.45703 16.3047 6.55078L11.7344 7.69922C11.3359 7.80859 11.1641 8.16797 11.4453 8.44922L12.7344 9.73828L9.65625 12.8555C9.58594 12.9258 9.50781 12.9648 9.4375 12.9648C9.375 12.9648 9.29688 12.9258 9.22656 12.8555L6.35156 9.91016C6.00781 9.55859 5.66406 9.39453 5.29688 9.39453C4.92969 9.39453 4.60156 9.55078 4.24219 9.91016L1.80469 12.3789V5.40234C1.80469 5.06641 1.52344 4.77734 1.17969 4.77734C0.828125 4.77734 0.546875 5.06641 0.546875 5.40234V18.6055Z"
		fill="currentColor"
	/>
</svg>
