<svg
	color="rgb(var(--foreground, 0, 0, 0))"
	viewBox="0 0 18 24"
	fill="none"
	xmlns="http://www.w3.org/2000/svg"
>
	<path
		d="M0.34375 18.6055C0.34375 18.9805 0.59375 19.2227 0.96875 19.2227H16.5078C16.8516 19.2227 17.1406 18.9492 17.1406 18.5977C17.1406 18.2539 16.8516 17.9727 16.5078 17.9727H1.82031C1.65625 17.9727 1.60156 17.918 1.60156 17.7539V9.12891L4.03906 11.5977C4.39844 11.957 4.72656 12.1133 5.09375 12.1133C5.46094 12.1133 5.80469 11.9492 6.14844 11.5977L9.02344 8.65234C9.09375 8.58203 9.17188 8.54297 9.23438 8.54297C9.30469 8.54297 9.38281 8.58203 9.45312 8.65234L12.5312 11.7695L11.2422 13.0586C10.9609 13.3398 11.1328 13.6992 11.5312 13.8008L16.1016 14.957C16.4531 15.0508 16.7656 14.7539 16.6719 14.3945L15.5156 9.81641C15.4141 9.41797 15.0469 9.24609 14.7656 9.52734L13.4844 10.8164L10.2969 7.61328C9.94531 7.26172 9.60938 7.09766 9.23438 7.09766C8.86719 7.09766 8.51562 7.26172 8.17969 7.61328L5.30469 10.5586C5.23438 10.6289 5.16406 10.668 5.09375 10.668C5.02344 10.668 4.95312 10.6289 4.88281 10.5586L1.60156 7.21484V5.40234C1.60156 5.06641 1.32031 4.77734 0.976562 4.77734C0.625 4.77734 0.34375 5.06641 0.34375 5.40234V18.6055Z"
		fill="currentColor"
	/>
</svg>
