<svg
	color="rgb(var(--foreground, 0, 0, 0))"
	viewBox="0 0 18 24"
	fill="none"
	xmlns="http://www.w3.org/2000/svg"
>
	<path
		d="M0.75 18.6055C0.75 18.793 0.807292 18.9414 0.921875 19.0508C1.03646 19.1654 1.1875 19.2227 1.375 19.2227H16.9141C17.086 19.2227 17.2344 19.1628 17.3594 19.043C17.4844 18.9232 17.5469 18.7747 17.5469 18.5977C17.5469 18.4258 17.4844 18.2773 17.3594 18.1523C17.2344 18.0326 17.086 17.9727 16.9141 17.9727H2.22656C2.08073 17.9727 2.00781 17.8997 2.00781 17.7539V5.40234C2.00781 5.23568 1.94531 5.08984 1.82031 4.96484C1.70052 4.83984 1.55469 4.77734 1.38281 4.77734C1.20573 4.77734 1.05469 4.83984 0.929688 4.96484C0.809896 5.08984 0.75 5.23568 0.75 5.40234V18.6055ZM1.57031 13.7461L6.59377 10.8398L10.211 13.9414L16.6406 10.1133L16.1485 9.31641L10.2735 12.8164L6.67189 9.73047L1.57031 12.6758V13.7461ZM6.4922 11.8945C6.74741 11.8945 6.97918 11.832 7.18752 11.707C7.40106 11.582 7.57033 11.4154 7.69533 11.207C7.82033 10.9935 7.88283 10.7591 7.88283 10.5039C7.88283 10.2487 7.82033 10.0169 7.69533 9.80859C7.57033 9.59505 7.40106 9.42839 7.18752 9.30859C6.97918 9.18359 6.74741 9.12109 6.4922 9.12109C6.23699 9.12109 6.00262 9.18359 5.78908 9.30859C5.58074 9.42839 5.41408 9.59505 5.28908 9.80859C5.16408 10.0169 5.10158 10.2487 5.10158 10.5039C5.10158 10.7591 5.16408 10.9935 5.28908 11.207C5.41408 11.4154 5.58074 11.582 5.78908 11.707C6.00262 11.832 6.23699 11.8945 6.4922 11.8945ZM10.1797 14.7617C10.4349 14.7617 10.6667 14.6992 10.875 14.5742C11.0886 14.4492 11.2552 14.2826 11.375 14.0742C11.5 13.8607 11.5625 13.6263 11.5625 13.3711C11.5625 13.1159 11.5 12.8841 11.375 12.6758C11.2552 12.4622 11.0886 12.2956 10.875 12.1758C10.6667 12.0508 10.4349 11.9883 10.1797 11.9883C9.92449 11.9883 9.69012 12.0508 9.47658 12.1758C9.26824 12.2956 9.10158 12.4622 8.97658 12.6758C8.85158 12.8841 8.78908 13.1159 8.78908 13.3711C8.78908 13.6263 8.85158 13.8607 8.97658 14.0742C9.10158 14.2826 9.26824 14.4492 9.47658 14.5742C9.69012 14.6992 9.92449 14.7617 10.1797 14.7617ZM16.0703 11.207C16.3255 11.207 16.5573 11.1445 16.7656 11.0195C16.9792 10.8945 17.1485 10.7279 17.2735 10.5195C17.3985 10.306 17.461 10.0716 17.461 9.81641C17.461 9.5612 17.3985 9.32943 17.2735 9.12109C17.1485 8.90755 16.9792 8.73828 16.7656 8.61328C16.5573 8.48828 16.3255 8.42578 16.0703 8.42578C15.8151 8.42578 15.5807 8.48828 15.3672 8.61328C15.1589 8.73828 14.9922 8.90755 14.8672 9.12109C14.7422 9.32943 14.6797 9.5612 14.6797 9.81641C14.6797 10.0716 14.7422 10.306 14.8672 10.5195C14.9922 10.7279 15.1589 10.8945 15.3672 11.0195C15.5807 11.1445 15.8151 11.207 16.0703 11.207Z"
		fill="currentColor"
	/>
</svg>
