<svg
	color="rgb(var(--foreground, 0, 0, 0))"
	viewBox="0 0 17 24"
	fill="none"
	xmlns="http://www.w3.org/2000/svg"
>
	<path
		d="M5.74219 15.9141C5.95573 15.9141 6.13542 15.8385 6.28125 15.6875C6.43229 15.5312 6.50781 15.349 6.50781 15.1406C6.50781 14.9323 6.43229 14.7526 6.28125 14.6016C6.13542 14.4505 5.95573 14.375 5.74219 14.375C5.53385 14.375 5.35417 14.4505 5.20312 14.6016C5.05208 14.7526 4.97656 14.9323 4.97656 15.1406C4.97656 15.349 5.05208 15.5312 5.20312 15.6875C5.35417 15.8385 5.53385 15.9141 5.74219 15.9141ZM4.39844 12.7656C4.61198 12.7656 4.79427 12.6901 4.94531 12.5391C5.09635 12.388 5.17188 12.2083 5.17188 12C5.17188 11.7865 5.09635 11.6068 4.94531 11.4609C4.79427 11.3099 4.61198 11.2344 4.39844 11.2344C4.1901 11.2344 4.01042 11.3099 3.85938 11.4609C3.70833 11.6068 3.63281 11.7865 3.63281 12C3.63281 12.2083 3.70833 12.388 3.85938 12.5391C4.01042 12.6901 4.1901 12.7656 4.39844 12.7656ZM5.72656 9.625C5.9401 9.625 6.11979 9.54948 6.26562 9.39844C6.41667 9.2474 6.49219 9.06771 6.49219 8.85938C6.49219 8.64583 6.41667 8.46615 6.26562 8.32031C6.11979 8.16927 5.9401 8.09375 5.72656 8.09375C5.51823 8.09375 5.33854 8.16927 5.1875 8.32031C5.03646 8.46615 4.96094 8.64583 4.96094 8.85938C4.96094 9.06771 5.03646 9.2474 5.1875 9.39844C5.33854 9.54948 5.51823 9.625 5.72656 9.625ZM8.89844 8.25C9.10677 8.25 9.28646 8.17448 9.4375 8.02344C9.58854 7.8724 9.66406 7.69271 9.66406 7.48438C9.66406 7.27083 9.58854 7.08854 9.4375 6.9375C9.28646 6.78646 9.10677 6.71094 8.89844 6.71094C8.6849 6.71094 8.5026 6.78646 8.35156 6.9375C8.20573 7.08854 8.13281 7.27083 8.13281 7.48438C8.13281 7.69271 8.20573 7.8724 8.35156 8.02344C8.5026 8.17448 8.6849 8.25 8.89844 8.25ZM13.3984 12.7656C13.6068 12.7656 13.7865 12.6901 13.9375 12.5391C14.0885 12.388 14.1641 12.2083 14.1641 12C14.1641 11.7865 14.0885 11.6068 13.9375 11.4609C13.7865 11.3099 13.6068 11.2344 13.3984 11.2344C13.1849 11.2344 13.0026 11.3099 12.8516 11.4609C12.7057 11.6068 12.6328 11.7865 12.6328 12C12.6328 12.2083 12.7057 12.388 12.8516 12.5391C13.0026 12.6901 13.1849 12.7656 13.3984 12.7656ZM12.0547 15.9141C12.263 15.9141 12.4427 15.8385 12.5938 15.6875C12.7448 15.5312 12.8203 15.349 12.8203 15.1406C12.8203 14.9323 12.7448 14.7526 12.5938 14.6016C12.4427 14.4505 12.263 14.375 12.0547 14.375C11.8464 14.375 11.6667 14.4505 11.5156 14.6016C11.3646 14.7526 11.2891 14.9323 11.2891 15.1406C11.2891 15.349 11.3646 15.5312 11.5156 15.6875C11.6667 15.8385 11.8464 15.9141 12.0547 15.9141ZM7.65625 13.2031C7.86979 13.4115 8.09896 13.5365 8.34375 13.5781C8.58854 13.6198 8.82812 13.5859 9.0625 13.4766C9.29688 13.3672 9.5026 13.1901 9.67969 12.9453L12.7344 8.67969C12.8281 8.54948 12.8542 8.42708 12.8125 8.3125C12.7708 8.19792 12.6927 8.1224 12.5781 8.08594C12.4635 8.04427 12.3411 8.06771 12.2109 8.15625L7.90625 11.1719C7.66146 11.3438 7.48438 11.5495 7.375 11.7891C7.26562 12.0234 7.23177 12.2656 7.27344 12.5156C7.32031 12.7604 7.44792 12.9896 7.65625 13.2031ZM8.90625 19.9687C9.99479 19.9687 11.0182 19.7604 11.9766 19.3437C12.9401 18.9271 13.7891 18.3516 14.5234 17.6172C15.2578 16.8828 15.8333 16.0365 16.25 15.0781C16.6667 14.1146 16.875 13.0885 16.875 12C16.875 10.9115 16.6667 9.88802 16.25 8.92969C15.8333 7.96615 15.2578 7.11719 14.5234 6.38281C13.7891 5.64844 12.9401 5.07292 11.9766 4.65625C11.013 4.23958 9.98698 4.03125 8.89844 4.03125C7.8099 4.03125 6.78385 4.23958 5.82031 4.65625C4.86198 5.07292 4.01562 5.64844 3.28125 6.38281C2.55208 7.11719 1.97917 7.96615 1.5625 8.92969C1.14583 9.88802 0.9375 10.9115 0.9375 12C0.9375 13.0885 1.14583 14.1146 1.5625 15.0781C1.97917 16.0365 2.55469 16.8828 3.28906 17.6172C4.02344 18.3516 4.86979 18.9271 5.82812 19.3437C6.79167 19.7604 7.81771 19.9687 8.90625 19.9687ZM8.90625 18.6406C7.98438 18.6406 7.1224 18.4688 6.32031 18.125C5.51823 17.7812 4.8125 17.3073 4.20312 16.7031C3.59896 16.0938 3.125 15.388 2.78125 14.5859C2.44271 13.7839 2.27344 12.9219 2.27344 12C2.27344 11.0781 2.44271 10.2161 2.78125 9.41406C3.125 8.61198 3.59896 7.90625 4.20312 7.29688C4.80729 6.6875 5.51042 6.21354 6.3125 5.875C7.11458 5.53125 7.97656 5.35938 8.89844 5.35938C9.82031 5.35938 10.6823 5.53125 11.4844 5.875C12.2917 6.21354 12.9974 6.6875 13.6016 7.29688C14.2109 7.90625 14.6875 8.61198 15.0312 9.41406C15.375 10.2161 15.5469 11.0781 15.5469 12C15.5469 12.9219 15.375 13.7839 15.0312 14.5859C14.6927 15.388 14.2188 16.0938 13.6094 16.7031C13 17.3073 12.2943 17.7812 11.4922 18.125C10.6901 18.4688 9.82812 18.6406 8.90625 18.6406Z"
		fill="currentColor"
	/>
</svg>
