<svg
	color="rgb(var(--foreground, 0, 0, 0))"
	viewBox="0 0 23 24"
	fill="none"
	xmlns="http://www.w3.org/2000/svg"
>
	<path
		d="M5.26801 10.4297C5.26801 10.237 5.3253 10.0833 5.43988 9.96875C5.55446 9.85417 5.71332 9.79688 5.91644 9.79688H7.32269V8.42969C7.32269 8.23177 7.37738 8.07552 7.48676 7.96094C7.59613 7.84635 7.74717 7.78906 7.93988 7.78906C8.13259 7.78906 8.28363 7.84635 8.39301 7.96094C8.50238 8.07552 8.55707 8.23177 8.55707 8.42969V9.79688H9.87738C10.0961 9.79688 10.2654 9.85417 10.3852 9.96875C10.5102 10.0833 10.5727 10.237 10.5727 10.4297C10.5727 10.6328 10.5102 10.7943 10.3852 10.9141C10.2654 11.0286 10.0961 11.0859 9.87738 11.0859H8.55707V12.4531C8.55707 12.651 8.50238 12.8099 8.39301 12.9297C8.28363 13.0443 8.13259 13.1016 7.93988 13.1016C7.74717 13.1016 7.59613 13.0443 7.48676 12.9297C7.37738 12.8099 7.32269 12.651 7.32269 12.4531V11.0859H5.91644C5.71332 11.0859 5.55446 11.0286 5.43988 10.9141C5.3253 10.7943 5.26801 10.6328 5.26801 10.4297ZM12.9477 11.5234C12.9477 11.2057 13.0571 10.9375 13.2758 10.7188C13.4946 10.5 13.7602 10.3906 14.0727 10.3906C14.3904 10.3906 14.656 10.5 14.8696 10.7188C15.0883 10.9375 15.1977 11.2057 15.1977 11.5234C15.1977 11.8411 15.0883 12.1094 14.8696 12.3281C14.656 12.5417 14.3904 12.6484 14.0727 12.6484C13.7602 12.6484 13.4946 12.5417 13.2758 12.3281C13.0571 12.1094 12.9477 11.8411 12.9477 11.5234ZM15.2524 9.21094C15.2524 8.89323 15.3592 8.625 15.5727 8.40625C15.7914 8.1875 16.0571 8.07812 16.3696 8.07812C16.6873 8.07812 16.9529 8.1875 17.1664 8.40625C17.3852 8.625 17.4946 8.89323 17.4946 9.21094C17.4946 9.52865 17.3852 9.79427 17.1664 10.0078C16.9529 10.2214 16.6873 10.3281 16.3696 10.3281C16.0571 10.3281 15.7914 10.2214 15.5727 10.0078C15.3592 9.79427 15.2524 9.52865 15.2524 9.21094ZM3.29144 19.0781C3.8279 19.0781 4.28884 18.9792 4.67426 18.7812C5.06488 18.5833 5.42426 18.2812 5.75238 17.875L7.16644 16.1641C7.27061 16.0391 7.37998 15.9479 7.49457 15.8906C7.60915 15.8333 7.72373 15.8047 7.83832 15.8047H15.3461C15.4607 15.8047 15.5753 15.8333 15.6899 15.8906C15.8045 15.9479 15.9138 16.0391 16.018 16.1641L17.4321 17.875C17.7602 18.2812 18.117 18.5833 18.5024 18.7812C18.893 18.9792 19.3565 19.0781 19.893 19.0781C20.4868 19.0781 21.0076 18.9531 21.4555 18.7031C21.9034 18.4583 22.2498 18.1094 22.4946 17.6562C22.7446 17.2031 22.8696 16.6719 22.8696 16.0625C22.8696 15.6719 22.8253 15.2526 22.7368 14.8047C22.6534 14.3568 22.5362 13.8802 22.3852 13.375C22.2289 12.8385 22.0362 12.2552 21.8071 11.625C21.5779 10.9948 21.3305 10.3594 21.0649 9.71875C20.8045 9.07292 20.5414 8.46875 20.2758 7.90625C20.0519 7.4375 19.8409 7.04688 19.643 6.73438C19.4451 6.42188 19.1925 6.16667 18.8852 5.96875C18.5831 5.77083 18.156 5.60938 17.6039 5.48438C16.8696 5.31771 15.9972 5.18229 14.9868 5.07812C13.9763 4.97396 12.8461 4.92188 11.5961 4.92188C10.3461 4.92188 9.21332 4.97396 8.19769 5.07812C7.18728 5.18229 6.31488 5.31771 5.58051 5.48438C5.02842 5.60938 4.59873 5.77083 4.29144 5.96875C3.98936 6.16667 3.73936 6.42188 3.54144 6.73438C3.34353 7.04688 3.13259 7.4375 2.90863 7.90625C2.64301 8.46875 2.37738 9.07292 2.11176 9.71875C1.85134 10.3594 1.60655 10.9948 1.37738 11.625C1.14821 12.2552 0.955505 12.8385 0.799255 13.375C0.648214 13.8802 0.528422 14.3568 0.43988 14.8047C0.356547 15.2526 0.31488 15.6719 0.31488 16.0625C0.31488 16.6719 0.437276 17.2031 0.682068 17.6562C0.932068 18.1094 1.28103 18.4583 1.72894 18.7031C2.17686 18.9531 2.69769 19.0781 3.29144 19.0781Z"
		fill="currentColor"
	/>
</svg>
