<svg
	color="rgb(var(--foreground, 0, 0, 0))"
	viewBox="0 0 24 24"
	fill="none"
	xmlns="http://www.w3.org/2000/svg"
>
	<path
		d="M5.71332 10.4297C5.71332 10.6328 5.77061 10.7943 5.8852 10.9141C5.99978 11.0286 6.15863 11.0859 6.36176 11.0859H7.76799V12.4531C7.76799 12.651 7.82268 12.8099 7.93206 12.9297C8.04143 13.0443 8.19247 13.1016 8.38518 13.1016C8.57789 13.1016 8.72893 13.0443 8.83831 12.9297C8.94768 12.8099 9.00237 12.651 9.00237 12.4531V11.0859H10.3227C10.5414 11.0859 10.7107 11.0286 10.8305 10.9141C10.9555 10.7943 11.018 10.6328 11.018 10.4297C11.018 10.237 10.9555 10.0833 10.8305 9.96875C10.7107 9.85417 10.5414 9.79688 10.3227 9.79688H9.00237V8.42969C9.00237 8.23177 8.94768 8.07552 8.83831 7.96094C8.72893 7.84635 8.57789 7.78906 8.38518 7.78906C8.19247 7.78906 8.04143 7.84635 7.93206 7.96094C7.82268 8.07552 7.76799 8.23177 7.76799 8.42969V9.79688H6.36176C6.15863 9.79688 5.99978 9.85417 5.8852 9.96875C5.77061 10.0833 5.71332 10.237 5.71332 10.4297ZM16.893 10.3281C17.2107 10.3281 17.4763 10.2214 17.6899 10.0078C17.9086 9.79427 18.018 9.52865 18.018 9.21094C18.018 8.89323 17.9086 8.625 17.6899 8.40625C17.4763 8.1875 17.2107 8.07812 16.893 8.07812C16.5805 8.07812 16.3149 8.1875 16.0961 8.40625C15.8774 8.625 15.768 8.89323 15.768 9.21094C15.768 9.52865 15.8774 9.79427 16.0961 10.0078C16.3149 10.2214 16.5805 10.3281 16.893 10.3281ZM14.5961 12.6484C14.9138 12.6484 15.1794 12.5417 15.393 12.3281C15.6117 12.1094 15.7211 11.8411 15.7211 11.5234C15.7211 11.2057 15.6117 10.9375 15.393 10.7188C15.1794 10.5 14.9138 10.3906 14.5961 10.3906C14.2836 10.3906 14.018 10.5 13.7992 10.7188C13.5805 10.9375 13.4711 11.2057 13.4711 11.5234C13.4711 11.8411 13.5805 12.1094 13.7992 12.3281C14.018 12.5417 14.2836 12.6484 14.5961 12.6484ZM0.760193 16.0625C0.760193 16.6719 0.882589 17.2031 1.12738 17.6562C1.37738 18.1094 1.72634 18.4583 2.17426 18.7031C2.62218 18.9531 3.14301 19.0781 3.73676 19.0781C4.18988 19.0781 4.62999 18.9792 5.05707 18.7812C5.48936 18.5833 5.86957 18.2812 6.1977 17.875L7.61174 16.1641C7.71591 16.0391 7.82529 15.9479 7.93987 15.8906C8.05445 15.8333 8.16904 15.8047 8.28362 15.8047H15.7914C15.906 15.8047 16.0206 15.8333 16.1352 15.8906C16.2498 15.9479 16.3591 16.0391 16.4633 16.1641L17.8774 17.875C18.2055 18.2812 18.5831 18.5833 19.0102 18.7812C19.4425 18.9792 19.8852 19.0781 20.3383 19.0781C20.9321 19.0781 21.4529 18.9531 21.9008 18.7031C22.3487 18.4583 22.6951 18.1094 22.9399 17.6562C23.1899 17.2031 23.3149 16.6719 23.3149 16.0625C23.3149 15.6719 23.2706 15.2526 23.1821 14.8047C23.0987 14.3568 22.9815 13.8802 22.8305 13.375C22.6742 12.8385 22.4815 12.2552 22.2524 11.625C22.0232 10.9948 21.7758 10.3594 21.5102 9.71875C21.2498 9.07292 20.9867 8.46875 20.7211 7.90625C20.4972 7.4375 20.2862 7.04688 20.0883 6.73438C19.8904 6.42188 19.6378 6.16667 19.3305 5.96875C19.0284 5.77083 18.6013 5.60938 18.0492 5.48438C17.3149 5.31771 16.4425 5.18229 15.4321 5.07812C14.4216 4.97396 13.2914 4.92188 12.0414 4.92188C10.7914 4.92188 9.65862 4.97396 8.64299 5.07812C7.63258 5.18229 6.7602 5.31771 6.02582 5.48438C5.47374 5.60938 5.04405 5.77083 4.73676 5.96875C4.43468 6.16667 4.18468 6.42188 3.98676 6.73438C3.78884 7.04688 3.57791 7.4375 3.35395 7.90625C3.08832 8.46875 2.8227 9.07292 2.55707 9.71875C2.29666 10.3594 2.05186 10.9948 1.8227 11.625C1.59353 12.2552 1.40082 12.8385 1.24457 13.375C1.09353 13.8802 0.973735 14.3568 0.885193 14.8047C0.80186 15.2526 0.760193 15.6719 0.760193 16.0625ZM1.95551 16.1094C1.95551 15.8646 1.98416 15.5859 2.04145 15.2734C2.09874 14.9609 2.18988 14.5938 2.31488 14.1719C2.49197 13.5729 2.70291 12.9323 2.9477 12.25C3.19249 11.5625 3.45291 10.8802 3.72895 10.2031C4.00499 9.52604 4.27322 8.89844 4.53363 8.32031C4.65863 8.04427 4.77843 7.80208 4.89301 7.59375C5.0128 7.38542 5.16645 7.21094 5.35395 7.07031C5.54145 6.92969 5.80447 6.82031 6.14301 6.74219C6.85134 6.57552 7.70289 6.4401 8.69768 6.33594C9.69247 6.23177 10.8071 6.17969 12.0414 6.17969C13.2706 6.17969 14.3826 6.23177 15.3774 6.33594C16.3722 6.4401 17.2237 6.57552 17.9321 6.74219C18.2706 6.82031 18.531 6.92969 18.7133 7.07031C18.9008 7.21094 19.0518 7.38542 19.1664 7.59375C19.2862 7.80208 19.4112 8.04427 19.5414 8.32031C19.8123 8.89844 20.0831 9.52604 20.3539 10.2031C20.6248 10.8802 20.88 11.5625 21.1196 12.25C21.3643 12.9323 21.5779 13.5729 21.7602 14.1719C21.8852 14.5938 21.9763 14.9609 22.0336 15.2734C22.0909 15.5859 22.1196 15.8646 22.1196 16.1094C22.1196 16.651 21.9503 17.0807 21.6117 17.3984C21.2784 17.7109 20.8591 17.8672 20.3539 17.8672C19.7498 17.8672 19.2081 17.5781 18.7289 17L17.2602 15.2266C17.0727 14.9974 16.88 14.8281 16.6821 14.7188C16.4841 14.6042 16.2055 14.5469 15.8461 14.5469H8.22893C7.86956 14.5469 7.59091 14.6042 7.39299 14.7188C7.19508 14.8281 7.00238 14.9974 6.81488 15.2266L5.34613 17C5.11697 17.276 4.86176 17.4896 4.58051 17.6406C4.30447 17.7917 4.01801 17.8672 3.72113 17.8672C3.21593 17.8672 2.79405 17.7109 2.45551 17.3984C2.12218 17.0807 1.95551 16.651 1.95551 16.1094Z"
		fill="currentColor"
	/>
</svg>
