<svg
	color="rgb(var(--foreground, 0, 0, 0))"
	viewBox="0 0 17 24"
	fill="none"
	xmlns="http://www.w3.org/2000/svg"
>
	<path
		d="M6.73676 19.6641C7.0753 19.763 7.41905 19.8385 7.76801 19.8906C8.12217 19.9427 8.47894 19.9688 8.83832 19.9688C9.92686 19.9688 10.9503 19.7604 11.9086 19.3438C12.8722 18.9271 13.7211 18.3516 14.4555 17.6172C15.1899 16.8828 15.7654 16.0365 16.1821 15.0781C16.5987 14.1146 16.8071 13.0885 16.8071 12C16.8071 11.6406 16.781 11.2891 16.7289 10.9453C16.6821 10.6016 16.6118 10.2656 16.518 9.9375L12.3618 11.2812C12.4138 11.5156 12.4399 11.7552 12.4399 12C12.4399 12.6667 12.2784 13.2734 11.9555 13.8203C11.6326 14.362 11.1977 14.7969 10.6508 15.125C10.1092 15.4479 9.50759 15.6094 8.84613 15.6094C8.5753 15.6094 8.32009 15.5807 8.08051 15.5234L6.73676 19.6641ZM16.2993 9.29688C16.1899 9 16.0649 8.71094 15.9243 8.42969C15.7836 8.14323 15.6248 7.86979 15.4477 7.60938L11.9477 10.2031C11.9894 10.276 12.0258 10.349 12.0571 10.4219C12.0935 10.4948 12.1248 10.5703 12.1508 10.6484L16.2993 9.29688ZM15.0493 7.07031C14.6118 6.50781 14.1013 6.01302 13.518 5.58594C12.9347 5.15365 12.3019 4.8151 11.6196 4.57031L10.268 8.73438C10.518 8.83333 10.7498 8.96094 10.9633 9.11719C11.1821 9.27344 11.3748 9.45573 11.5414 9.66406L15.0493 7.07031ZM10.9868 4.35156C10.643 4.2474 10.2914 4.16927 9.93207 4.11719C9.57269 4.0599 9.20551 4.03125 8.83051 4.03125C7.74196 4.03125 6.71592 4.23958 5.75238 4.65625C4.79405 5.07292 3.94769 5.64844 3.21332 6.38281C2.48415 7.11719 1.91123 7.96615 1.49457 8.92969C1.0779 9.88802 0.869568 10.9115 0.869568 12C0.869568 12.375 0.898214 12.7474 0.955505 13.1172C1.0128 13.4818 1.09353 13.8359 1.19769 14.1797L5.34613 12.8281C5.27842 12.5625 5.24457 12.2865 5.24457 12C5.24457 11.3438 5.40863 10.7448 5.73676 10.2031C6.06488 9.66146 6.50238 9.22917 7.04926 8.90625C7.59613 8.58333 8.19769 8.42188 8.85394 8.42188C8.98936 8.42188 9.11957 8.42969 9.24457 8.44531C9.37478 8.46094 9.50238 8.48438 9.62738 8.51562L10.9868 4.35156ZM1.42426 14.8125C1.53363 15.1042 1.65863 15.388 1.79926 15.6641C1.94509 15.9401 2.10394 16.2083 2.27582 16.4688L5.77582 13.8828C5.7029 13.7578 5.63519 13.6172 5.57269 13.4609L1.42426 14.8125ZM2.68988 17.0078C3.12738 17.5599 3.63519 18.0443 4.21332 18.4609C4.79665 18.8828 5.42426 19.2109 6.09613 19.4453L7.43988 15.3125C7.2003 15.2188 6.97373 15.0964 6.76019 14.9453C6.54665 14.7943 6.35915 14.6198 6.19769 14.4219L2.68988 17.0078ZM8.84613 14.8125C9.36176 14.8125 9.83051 14.6875 10.2524 14.4375C10.6795 14.1823 11.018 13.8411 11.268 13.4141C11.518 12.987 11.643 12.5156 11.643 12C11.643 11.4896 11.5154 11.026 11.2602 10.6094C11.0102 10.1875 10.6717 9.85156 10.2446 9.60156C9.82269 9.34635 9.35655 9.21875 8.84613 9.21875C8.33571 9.21875 7.86696 9.34635 7.43988 9.60156C7.0128 9.85156 6.67165 10.1875 6.41644 10.6094C6.16644 11.0312 6.04144 11.4948 6.04144 12C6.04144 12.5208 6.16644 12.9948 6.41644 13.4219C6.67165 13.8438 7.01019 14.1823 7.43207 14.4375C7.85915 14.6875 8.33051 14.8125 8.84613 14.8125ZM8.84613 13.9141C8.49717 13.9141 8.17686 13.8281 7.88519 13.6562C7.59873 13.4844 7.36957 13.2552 7.19769 12.9688C7.02582 12.6823 6.93988 12.3646 6.93988 12.0156C6.93988 11.6667 7.02582 11.349 7.19769 11.0625C7.36957 10.776 7.59873 10.5469 7.88519 10.375C8.17686 10.2031 8.49717 10.1172 8.84613 10.1172C9.18988 10.1172 9.50498 10.2031 9.79144 10.375C10.0831 10.5469 10.3149 10.776 10.4868 11.0625C10.6586 11.349 10.7446 11.6641 10.7446 12.0078C10.7446 12.3568 10.6586 12.6771 10.4868 12.9688C10.3149 13.2552 10.0831 13.4844 9.79144 13.6562C9.50498 13.8281 9.18988 13.9141 8.84613 13.9141ZM8.84613 13.0469C9.12738 13.0521 9.36696 12.9531 9.56488 12.75C9.76801 12.5417 9.86957 12.2943 9.86957 12.0078C9.86957 11.7266 9.76801 11.487 9.56488 11.2891C9.36696 11.0859 9.12998 10.9844 8.85394 10.9844C8.56228 10.9844 8.31488 11.0859 8.11176 11.2891C7.91384 11.4922 7.81488 11.7318 7.81488 12.0078C7.81488 12.2943 7.91384 12.5391 8.11176 12.7422C8.31488 12.9401 8.55967 13.0417 8.84613 13.0469Z"
		fill="currentColor"
	/>
</svg>
