<svg
	color="rgb(var(--foreground, 0, 0, 0))"
	viewBox="0 0 17 24"
	fill="none"
	xmlns="http://www.w3.org/2000/svg"
>
	<path
		d="M8.90865 15.6094C9.5701 15.6094 10.1717 15.4479 10.7133 15.125C11.2602 14.7969 11.6951 14.362 12.018 13.8203C12.3409 13.2734 12.5024 12.6667 12.5024 12C12.5024 11.3438 12.3383 10.7448 12.0102 10.2031C11.6873 9.66146 11.255 9.22917 10.7133 8.90625C10.1717 8.58333 9.57271 8.42188 8.91646 8.42188C8.26021 8.42188 7.65865 8.58333 7.11177 8.90625C6.5649 9.22917 6.1274 9.66146 5.79927 10.2031C5.47115 10.7448 5.30708 11.3438 5.30708 12C5.30708 12.6667 5.46854 13.2734 5.79146 13.8203C6.11958 14.3672 6.55448 14.8047 7.09615 15.1328C7.64302 15.4557 8.24719 15.6146 8.90865 15.6094ZM8.90865 14.8125C8.39302 14.8125 7.92167 14.6875 7.49458 14.4375C7.07271 14.1823 6.73417 13.8438 6.47896 13.4219C6.22896 12.9948 6.10396 12.5208 6.10396 12C6.10396 11.4948 6.22896 11.0312 6.47896 10.6094C6.73417 10.1875 7.07531 9.85156 7.5024 9.60156C7.92948 9.34635 8.39823 9.21875 8.90865 9.21875C9.41906 9.21875 9.88521 9.34635 10.3071 9.60156C10.7342 9.85156 11.0727 10.1875 11.3227 10.6094C11.5779 11.026 11.7055 11.4896 11.7055 12C11.7055 12.5156 11.5805 12.987 11.3305 13.4141C11.0805 13.8411 10.742 14.1823 10.3149 14.4375C9.89302 14.6875 9.42427 14.8125 8.90865 14.8125ZM8.90865 13.9141C9.2524 13.9141 9.5675 13.8281 9.85396 13.6562C10.1456 13.4844 10.3774 13.2552 10.5493 12.9688C10.7211 12.6771 10.8071 12.3568 10.8071 12.0078C10.8071 11.6641 10.7211 11.349 10.5493 11.0625C10.3774 10.776 10.1456 10.5469 9.85396 10.375C9.5675 10.2031 9.2524 10.1172 8.90865 10.1172C8.55969 10.1172 8.23937 10.2031 7.94771 10.375C7.66125 10.5469 7.43208 10.776 7.26021 11.0625C7.08833 11.349 7.0024 11.6667 7.0024 12.0156C7.0024 12.3646 7.08833 12.6823 7.26021 12.9688C7.43208 13.2552 7.66125 13.4844 7.94771 13.6562C8.23937 13.8281 8.55969 13.9141 8.90865 13.9141ZM8.90865 13.0469C8.62219 13.0417 8.3774 12.9401 8.17427 12.7422C7.97635 12.5391 7.8774 12.2943 7.8774 12.0078C7.8774 11.7318 7.97635 11.4922 8.17427 11.2891C8.3774 11.0859 8.62479 10.9844 8.91646 10.9844C9.1925 10.9844 9.42948 11.0859 9.6274 11.2891C9.83052 11.487 9.93208 11.7266 9.93208 12.0078C9.93208 12.2943 9.83052 12.5417 9.6274 12.75C9.42948 12.9531 9.1899 13.0521 8.90865 13.0469ZM6.02583 13.3281L5.84615 12.6797L1.51801 14.0859L1.72894 14.7266L6.02583 13.3281ZM6.47115 14.2656L6.04927 13.7344L2.53363 16.3203L2.93988 16.8672L6.47115 14.2656ZM8.2524 15.2109L7.63521 14.9375L6.23677 19.2344L6.8774 19.4531L8.2524 15.2109ZM9.5649 8.88281L10.2133 9.07812L11.5727 4.89062L10.9321 4.67188L9.5649 8.88281ZM11.3149 9.88281L11.7368 10.4062L15.2758 7.78906L14.8696 7.25781L11.3149 9.88281ZM11.7915 10.7891L12.0258 11.4141L16.2915 10.0391L16.0805 9.39062L11.7915 10.7891ZM8.90083 19.9688C9.98937 19.9688 11.0128 19.7604 11.9711 19.3438C12.9347 18.9271 13.7836 18.3516 14.518 17.6172C15.2524 16.8828 15.8279 16.0365 16.2446 15.0781C16.6612 14.1146 16.8696 13.0885 16.8696 12C16.8696 10.9115 16.6612 9.88802 16.2446 8.92969C15.8279 7.96615 15.2524 7.11719 14.518 6.38281C13.7836 5.64844 12.9347 5.07292 11.9711 4.65625C11.0076 4.23958 9.98156 4.03125 8.89302 4.03125C7.80448 4.03125 6.77844 4.23958 5.8149 4.65625C4.85656 5.07292 4.01019 5.64844 3.27582 6.38281C2.54665 7.11719 1.97373 7.96615 1.55707 8.92969C1.1404 9.88802 0.932068 10.9115 0.932068 12C0.932068 13.0885 1.1404 14.1146 1.55707 15.0781C1.97373 16.0365 2.54926 16.8828 3.28363 17.6172C4.01801 18.3516 4.86437 18.9271 5.82271 19.3438C6.78625 19.7604 7.81229 19.9688 8.90083 19.9688ZM8.90083 18.6406C7.97896 18.6406 7.11698 18.4688 6.3149 18.125C5.51281 17.7812 4.80707 17.3073 4.19769 16.7031C3.59353 16.0938 3.11957 15.388 2.77582 14.5859C2.43728 13.7839 2.26801 12.9219 2.26801 12C2.26801 11.0781 2.43728 10.2161 2.77582 9.41406C3.11957 8.61198 3.59353 7.90625 4.19769 7.29688C4.80186 6.6875 5.505 6.21354 6.30708 5.875C7.10917 5.53125 7.97115 5.35938 8.89302 5.35938C9.8149 5.35938 10.6769 5.53125 11.479 5.875C12.2862 6.21354 12.992 6.6875 13.5961 7.29688C14.2055 7.90625 14.6821 8.61198 15.0258 9.41406C15.3696 10.2161 15.5415 11.0781 15.5415 12C15.5415 12.9219 15.3696 13.7839 15.0258 14.5859C14.6873 15.388 14.2133 16.0938 13.604 16.7031C12.9946 17.3073 12.2889 17.7812 11.4868 18.125C10.6847 18.4688 9.82271 18.6406 8.90083 18.6406Z"
		fill="currentColor"
	/>
</svg>
