<svg
	color="rgb(var(--foreground, 0, 0, 0))"
	viewBox="0 0 20 24"
	fill="none"
	xmlns="http://www.w3.org/2000/svg"
>
	<path
		d="M2.45551 19.1953H17.7055C18.1899 19.1953 18.5753 19.0521 18.8618 18.7656C19.1482 18.4844 19.2914 18.1068 19.2914 17.6328V6.35938C19.2914 5.89062 19.1482 5.51562 18.8618 5.23438C18.5753 4.94792 18.1899 4.80469 17.7055 4.80469H2.45551C1.97634 4.80469 1.59092 4.94792 1.29926 5.23438C1.0128 5.51562 0.869568 5.89062 0.869568 6.35938V17.6328C0.869568 18.1068 1.0128 18.4844 1.29926 18.7656C1.59092 19.0521 1.97634 19.1953 2.45551 19.1953ZM2.46332 17.9375C2.18728 17.9375 2.04926 17.8021 2.04926 17.5312V16.6484C2.04926 16.5391 2.08311 16.4505 2.15082 16.3828C2.22373 16.3099 2.31748 16.2734 2.43207 16.2734H3.43988C3.55446 16.2734 3.64561 16.3099 3.71332 16.3828C3.78103 16.4505 3.81488 16.5391 3.81488 16.6484V17.5547C3.81488 17.6641 3.78103 17.7552 3.71332 17.8281C3.64561 17.901 3.55446 17.9375 3.43988 17.9375H2.46332ZM2.43207 15.3516C2.31748 15.3516 2.22373 15.3151 2.15082 15.2422C2.08311 15.1641 2.04926 15.0755 2.04926 14.9766V14.0859C2.04926 13.9714 2.08311 13.8802 2.15082 13.8125C2.22373 13.7396 2.31748 13.7031 2.43207 13.7031H3.43988C3.55446 13.7031 3.64561 13.7396 3.71332 13.8125C3.78103 13.8802 3.81488 13.9714 3.81488 14.0859V14.9766C3.81488 15.0755 3.78103 15.1641 3.71332 15.2422C3.64561 15.3151 3.55446 15.3516 3.43988 15.3516H2.43207ZM2.43207 12.8203C2.31748 12.8203 2.22373 12.7839 2.15082 12.7109C2.08311 12.638 2.04926 12.5521 2.04926 12.4531V11.5625C2.04926 11.4479 2.08311 11.3568 2.15082 11.2891C2.22373 11.2161 2.31748 11.1797 2.43207 11.1797H3.43988C3.55446 11.1797 3.64561 11.2161 3.71332 11.2891C3.78103 11.3568 3.81488 11.4479 3.81488 11.5625V12.4531C3.81488 12.5521 3.78103 12.638 3.71332 12.7109C3.64561 12.7839 3.55446 12.8203 3.43988 12.8203H2.43207ZM2.43207 10.3125C2.31748 10.3125 2.22373 10.276 2.15082 10.2031C2.08311 10.1302 2.04926 10.0443 2.04926 9.94531V9.04688C2.04926 8.93229 2.08311 8.84115 2.15082 8.77344C2.22373 8.70052 2.31748 8.66406 2.43207 8.66406H3.43988C3.55446 8.66406 3.64561 8.70052 3.71332 8.77344C3.78103 8.84115 3.81488 8.93229 3.81488 9.04688V9.94531C3.81488 10.0443 3.78103 10.1302 3.71332 10.2031C3.64561 10.276 3.55446 10.3125 3.43988 10.3125H2.43207ZM2.43207 7.72656C2.31748 7.72656 2.22373 7.6901 2.15082 7.61719C2.08311 7.54427 2.04926 7.45833 2.04926 7.35938V6.47656C2.04926 6.20052 2.18728 6.0625 2.46332 6.0625H3.43988C3.55446 6.0625 3.64561 6.09896 3.71332 6.17188C3.78103 6.23958 3.81488 6.33073 3.81488 6.44531V7.35938C3.81488 7.45833 3.78103 7.54427 3.71332 7.61719C3.64561 7.6901 3.55446 7.72656 3.43988 7.72656H2.43207ZM5.29144 17.9375C5.17165 17.9375 5.0779 17.9036 5.01019 17.8359C4.94769 17.7734 4.91644 17.6823 4.91644 17.5625V13.0078C4.91644 12.8932 4.94769 12.8047 5.01019 12.7422C5.0779 12.6745 5.17165 12.6406 5.29144 12.6406H14.8774C14.992 12.6406 15.0805 12.6745 15.143 12.7422C15.2107 12.8047 15.2446 12.8932 15.2446 13.0078V17.5625C15.2446 17.6823 15.2107 17.7734 15.143 17.8359C15.0805 17.9036 14.992 17.9375 14.8774 17.9375H5.29144ZM5.29144 11.375C5.17165 11.375 5.0779 11.3438 5.01019 11.2812C4.94769 11.2135 4.91644 11.1224 4.91644 11.0078V6.42188C4.91644 6.30729 4.94769 6.21875 5.01019 6.15625C5.0779 6.09375 5.17165 6.0625 5.29144 6.0625H14.8774C14.992 6.0625 15.0805 6.09375 15.143 6.15625C15.2107 6.21875 15.2446 6.30729 15.2446 6.42188V11.0078C15.2446 11.1224 15.2107 11.2135 15.143 11.2812C15.0805 11.3438 14.992 11.375 14.8774 11.375H5.29144ZM16.7211 17.9375C16.6118 17.9375 16.5206 17.901 16.4477 17.8281C16.38 17.7552 16.3461 17.6641 16.3461 17.5547V16.6484C16.3461 16.5391 16.38 16.4505 16.4477 16.3828C16.5206 16.3099 16.6118 16.2734 16.7211 16.2734H17.7289C17.8435 16.2734 17.9347 16.3099 18.0024 16.3828C18.0753 16.4505 18.1118 16.5391 18.1118 16.6484V17.5312C18.1118 17.8021 17.9737 17.9375 17.6977 17.9375H16.7211ZM16.7211 15.3516C16.6118 15.3516 16.5206 15.3151 16.4477 15.2422C16.38 15.1641 16.3461 15.0755 16.3461 14.9766V14.0859C16.3461 13.9714 16.38 13.8802 16.4477 13.8125C16.5206 13.7396 16.6118 13.7031 16.7211 13.7031H17.7289C17.8487 13.7031 17.9425 13.7396 18.0102 13.8125C18.0779 13.8802 18.1118 13.9714 18.1118 14.0859V14.9766C18.1118 15.0755 18.0753 15.1641 18.0024 15.2422C17.9347 15.3151 17.8435 15.3516 17.7289 15.3516H16.7211ZM16.7211 12.8203C16.6118 12.8203 16.5206 12.7839 16.4477 12.7109C16.38 12.638 16.3461 12.5521 16.3461 12.4531V11.5625C16.3461 11.4479 16.38 11.3568 16.4477 11.2891C16.5206 11.2161 16.6118 11.1797 16.7211 11.1797H17.7289C17.8487 11.1797 17.9425 11.2161 18.0102 11.2891C18.0779 11.3568 18.1118 11.4479 18.1118 11.5625V12.4531C18.1118 12.5521 18.0753 12.638 18.0024 12.7109C17.9347 12.7839 17.8435 12.8203 17.7289 12.8203H16.7211ZM16.7211 10.3125C16.6118 10.3125 16.5206 10.276 16.4477 10.2031C16.38 10.1302 16.3461 10.0443 16.3461 9.94531V9.04688C16.3461 8.93229 16.38 8.84115 16.4477 8.77344C16.5206 8.70052 16.6118 8.66406 16.7211 8.66406H17.7289C17.8487 8.66406 17.9425 8.70052 18.0102 8.77344C18.0779 8.84115 18.1118 8.93229 18.1118 9.04688V9.94531C18.1118 10.0443 18.0753 10.1302 18.0024 10.2031C17.9347 10.276 17.8435 10.3125 17.7289 10.3125H16.7211ZM16.7211 7.72656C16.6118 7.72656 16.5206 7.6901 16.4477 7.61719C16.38 7.54427 16.3461 7.45833 16.3461 7.35938V6.44531C16.3461 6.33073 16.38 6.23958 16.4477 6.17188C16.5206 6.09896 16.6118 6.0625 16.7211 6.0625H17.6977C17.9737 6.0625 18.1118 6.20052 18.1118 6.47656V7.35938C18.1118 7.45833 18.0753 7.54427 18.0024 7.61719C17.9347 7.6901 17.8435 7.72656 17.7289 7.72656H16.7211Z"
		fill="currentColor"
	/>
</svg>
