<svg
	color="rgb(var(--foreground, 0, 0, 0))"
	viewBox="0 0 27 24"
	fill="none"
	xmlns="http://www.w3.org/2000/svg"
>
	<path
		d="M9.43785 18.4817C10.7243 18.1327 11.7556 17.5832 12.5316 16.8332C13.3076 16.078 13.8102 15.1587 14.0394 14.0754C14.2738 12.9869 14.2113 11.7707 13.8519 10.427L12.3832 4.95822C12.1852 4.21863 11.8467 3.71603 11.3675 3.4504C10.8884 3.17957 10.2738 3.14572 9.52378 3.34884L1.7816 5.40353C1.02639 5.60145 0.510764 5.93738 0.234722 6.41134C-0.0361111 6.8853 -0.0725694 7.49728 0.125347 8.24728L1.57847 13.716C1.93264 15.0546 2.48212 16.1379 3.22691 16.966C3.9717 17.7889 4.87014 18.3332 5.92222 18.5988C6.97951 18.8645 8.15139 18.8254 9.43785 18.4817ZM9.10191 17.2395C8.08108 17.5103 7.14878 17.5389 6.30503 17.3254C5.46649 17.1067 4.75035 16.6639 4.1566 15.9973C3.56285 15.3306 3.12274 14.4582 2.83628 13.3801L1.38316 7.96603C1.28941 7.61707 1.30503 7.33322 1.43003 7.11447C1.55503 6.89572 1.78941 6.73686 2.13316 6.6379L9.83628 4.5754C10.18 4.48165 10.4639 4.50249 10.6878 4.6379C10.9118 4.76811 11.0681 5.0077 11.1566 5.35665L12.6019 10.7707C12.8936 11.8541 12.9483 12.8332 12.766 13.7082C12.5837 14.578 12.1826 15.315 11.5628 15.9192C10.9483 16.5233 10.128 16.9634 9.10191 17.2395ZM8.68003 15.6379C9.50295 15.4087 10.1618 15.0051 10.6566 14.427C11.1514 13.8436 11.4118 13.1639 11.4378 12.3879C11.4431 12.19 11.3753 12.0598 11.2347 11.9973C11.0941 11.9348 10.9405 11.9686 10.7738 12.0988C10.2425 12.4738 9.7217 12.7499 9.21128 12.927C8.70608 13.0988 8.32066 13.2212 8.05503 13.2942C7.78941 13.3671 7.39097 13.4556 6.85972 13.5598C6.33368 13.6639 5.74253 13.6848 5.08628 13.6223C4.87795 13.5962 4.72691 13.6457 4.63316 13.7707C4.54462 13.8957 4.55503 14.0363 4.66441 14.1926C5.07587 14.854 5.64097 15.315 6.35972 15.5754C7.07847 15.8306 7.85191 15.8514 8.68003 15.6379ZM4.85972 10.6613C5.14097 10.5884 5.35972 10.5884 5.51597 10.6613C5.67222 10.7291 5.81024 10.7473 5.93003 10.716C6.01337 10.6952 6.07066 10.6353 6.10191 10.5363C6.13316 10.4374 6.13056 10.3176 6.0941 10.177C6.01076 9.82801 5.80764 9.56238 5.48472 9.38009C5.16701 9.1978 4.83628 9.15874 4.49253 9.2629C4.14358 9.35145 3.87535 9.55197 3.68785 9.86447C3.50035 10.177 3.45608 10.5051 3.55503 10.8488C3.5967 10.9947 3.6566 11.1041 3.73472 11.177C3.81285 11.2447 3.89358 11.2681 3.97691 11.2473C4.09149 11.2108 4.19826 11.1223 4.29722 10.9817C4.39618 10.841 4.58368 10.7343 4.85972 10.6613ZM9.48472 9.40353C9.76597 9.33061 9.98472 9.33061 10.141 9.40353C10.2972 9.47124 10.4352 9.49207 10.555 9.46603C10.6384 9.43999 10.6957 9.37749 10.7269 9.27853C10.7634 9.17957 10.7608 9.05978 10.7191 8.91915C10.6358 8.5702 10.4352 8.30718 10.1175 8.13009C9.79983 7.9478 9.4691 7.90874 9.12535 8.0129C8.77118 8.09624 8.50035 8.29676 8.31285 8.61447C8.12535 8.92697 8.08108 9.25249 8.18003 9.59103C8.2217 9.73686 8.2816 9.84624 8.35972 9.91915C8.43785 9.99207 8.51858 10.0155 8.60191 9.98947C8.7217 9.95301 8.82847 9.86447 8.92222 9.72384C9.02118 9.58322 9.20868 9.47645 9.48472 9.40353ZM16.9457 20.4973C18.2269 20.8358 19.3936 20.8723 20.4457 20.6067C21.4978 20.341 22.3936 19.7942 23.1332 18.966C23.878 18.1431 24.43 17.0624 24.7894 15.7238L26.2582 10.2629C26.4561 9.52332 26.4144 8.91655 26.1332 8.44259C25.8571 7.96343 25.3415 7.62228 24.5863 7.41915L16.8519 5.34884C16.1019 5.15093 15.4899 5.18738 15.016 5.45822C14.542 5.72905 14.2035 6.23686 14.0003 6.98165L13.3597 9.3254L13.891 12.341L15.2269 7.36447C15.3207 7.01551 15.4769 6.77853 15.6957 6.65353C15.9144 6.52332 16.1957 6.50509 16.5394 6.59884L24.2425 8.65353C24.5863 8.74728 24.8207 8.90613 24.9457 9.13009C25.0707 9.35405 25.0863 9.64311 24.9925 9.99728L23.5394 15.4035C23.253 16.4869 22.8129 17.3593 22.2191 18.0207C21.6254 18.6874 20.9092 19.1275 20.0707 19.341C19.2321 19.5546 18.2972 19.5259 17.266 19.2551C16.0733 18.927 15.1514 18.3697 14.5003 17.5832C13.8545 16.7968 13.5342 15.8332 13.5394 14.6926L12.4769 16.6223C12.7738 17.5754 13.3024 18.3801 14.0628 19.0363C14.8233 19.6926 15.7842 20.1796 16.9457 20.4973ZM16.6957 12.2473C16.9821 12.3254 17.2556 12.2915 17.516 12.1457C17.7816 11.9947 17.9535 11.7733 18.0316 11.4817C18.1097 11.19 18.0733 10.9139 17.9222 10.6535C17.7712 10.3879 17.5472 10.2134 17.2504 10.1301C16.9639 10.052 16.6905 10.091 16.43 10.2473C16.1696 10.3983 15.9977 10.6197 15.9144 10.9113C15.8363 11.203 15.8727 11.4791 16.0238 11.7395C16.18 11.9999 16.404 12.1692 16.6957 12.2473ZM21.2816 13.4738C21.5733 13.5468 21.8493 13.5077 22.1097 13.3567C22.3702 13.2056 22.5394 12.9843 22.6175 12.6926C22.6957 12.4009 22.6592 12.1249 22.5082 11.8645C22.3571 11.6041 22.1358 11.4348 21.8441 11.3567C21.5524 11.2785 21.2764 11.315 21.016 11.466C20.7556 11.6119 20.5889 11.8306 20.516 12.1223C20.4327 12.4139 20.4665 12.6926 20.6175 12.9582C20.7686 13.2186 20.9899 13.3905 21.2816 13.4738ZM17.9925 16.466C18.4248 16.5806 18.8259 16.7447 19.1957 16.9582C19.5707 17.1665 19.9613 17.453 20.3675 17.8176C20.5238 17.9582 20.68 17.9921 20.8363 17.9192C20.9925 17.8514 21.0655 17.7134 21.055 17.5051C21.029 16.8176 20.7816 16.2108 20.3129 15.6848C19.8441 15.1535 19.2347 14.7915 18.4847 14.5988C17.7347 14.3957 17.0238 14.4061 16.3519 14.6301C15.6852 14.854 15.167 15.2551 14.7972 15.8332C14.6878 15.9999 14.6826 16.1561 14.7816 16.302C14.8858 16.4478 15.042 16.4973 15.2503 16.4504C15.7712 16.3358 16.2503 16.2811 16.6878 16.2863C17.1253 16.2863 17.5603 16.3462 17.9925 16.466Z"
		fill="currentColor"
	/>
</svg>
