<svg
	color="rgb(var(--foreground, 0, 0, 0))"
	viewBox="0 0 27 24"
	fill="none"
	xmlns="http://www.w3.org/2000/svg"
>
	<path
		d="M9.80947 18.4731C11.0959 18.1294 12.1272 17.5799 12.9032 16.8247C13.6845 16.0695 14.1897 15.1502 14.4188 14.0669C14.6532 12.9835 14.5881 11.77 14.2235 10.4263L12.7626 4.9575C12.5647 4.22313 12.2235 3.72313 11.7392 3.4575C11.26 3.18667 10.648 3.15021 9.90322 3.34813L2.16102 5.40281C1.41102 5.60594 0.897997 5.94448 0.621956 6.41844C0.345914 6.88719 0.306851 7.49656 0.504768 8.24656L1.95789 13.7075C2.31727 15.046 2.86675 16.1294 3.60633 16.9575C4.35112 17.7804 5.24956 18.3247 6.30164 18.5903C7.35373 18.8559 8.52301 18.8169 9.80947 18.4731ZM9.07508 15.6763C8.25737 15.8846 7.48133 15.8611 6.74696 15.6059C6.01258 15.3455 5.43706 14.882 5.02039 14.2153C4.93706 14.0903 4.92404 13.9809 4.98133 13.8872C5.04383 13.7882 5.15321 13.744 5.30946 13.7544C5.82508 13.796 6.36935 13.7804 6.94227 13.7075C7.51518 13.6346 8.0256 13.5382 8.47352 13.4184C8.91102 13.3039 9.3928 13.1372 9.91885 12.9184C10.4449 12.6997 10.9241 12.4393 11.3563 12.1372C11.4866 12.0434 11.6037 12.0252 11.7079 12.0825C11.8121 12.1346 11.8616 12.2414 11.8563 12.4028C11.8251 13.1841 11.5595 13.869 11.0595 14.4575C10.5595 15.0408 9.898 15.4471 9.07508 15.6763ZM5.13758 10.5434C4.93966 10.6007 4.79123 10.6736 4.69227 10.7622C4.59331 10.8507 4.50998 10.9341 4.44227 11.0122C4.37977 11.0851 4.30685 11.1268 4.22352 11.1372C4.16102 11.1476 4.09852 11.1242 4.03602 11.0669C3.97352 11.0044 3.92664 10.9158 3.89539 10.8013C3.80164 10.4679 3.84331 10.1502 4.02039 9.84813C4.20268 9.54083 4.4631 9.34552 4.80164 9.26219C5.14018 9.17885 5.4605 9.22313 5.76258 9.395C6.06466 9.56688 6.25998 9.81427 6.34852 10.1372C6.38498 10.257 6.39018 10.3585 6.36414 10.4419C6.3381 10.5252 6.29383 10.5773 6.23133 10.5981C6.13758 10.6346 6.03862 10.6372 5.93446 10.6059C5.8355 10.5695 5.72091 10.5382 5.59071 10.5122C5.46571 10.4861 5.31466 10.4966 5.13758 10.5434ZM9.90322 9.25438C9.71051 9.31167 9.56208 9.38458 9.45791 9.47313C9.35895 9.56167 9.2756 9.6424 9.20789 9.71531C9.14539 9.78823 9.07248 9.8299 8.98914 9.84031C8.93185 9.85594 8.87196 9.8325 8.80946 9.77C8.74696 9.7075 8.69748 9.62156 8.66102 9.51219C8.56727 9.18406 8.61154 8.86635 8.79383 8.55906C8.97612 8.25177 9.23395 8.05646 9.56728 7.97313C9.91103 7.88458 10.2313 7.92885 10.5282 8.10594C10.8303 8.27781 11.0256 8.52521 11.1142 8.84813C11.1506 8.96792 11.1558 9.06948 11.1298 9.15281C11.1037 9.23615 11.0595 9.28823 10.997 9.30906C10.9032 9.34552 10.8043 9.34813 10.7001 9.31688C10.6011 9.28042 10.4866 9.24917 10.3563 9.22313C10.2313 9.19708 10.0803 9.2075 9.90322 9.25438ZM24.9657 7.42625L17.2313 5.35594C16.5438 5.16844 15.9631 5.17885 15.4892 5.38719C15.0204 5.59552 14.6871 6.00438 14.4892 6.61375L14.3954 6.94969L15.2548 10.1528C15.6871 11.7518 15.7366 13.2075 15.4032 14.52C15.0751 15.8325 14.411 16.9263 13.411 17.8013C13.7912 18.4367 14.3147 18.9835 14.9813 19.4419C15.648 19.9002 16.4319 20.2492 17.3329 20.4888C18.609 20.8325 19.7704 20.869 20.8173 20.5981C21.8694 20.3325 22.7652 19.7856 23.5048 18.9575C24.2496 18.1346 24.8017 17.0539 25.161 15.7153L26.6376 10.2622C26.8355 9.5226 26.7938 8.91583 26.5126 8.44188C26.2313 7.96792 25.7157 7.62938 24.9657 7.42625ZM17.0907 12.1606C16.8251 12.0929 16.622 11.9393 16.4813 11.6997C16.3407 11.4601 16.3069 11.2023 16.3798 10.9263C16.4527 10.6606 16.609 10.4575 16.8485 10.3169C17.0881 10.1763 17.3433 10.1424 17.6142 10.2153C17.885 10.2882 18.0907 10.4471 18.2313 10.6919C18.372 10.9367 18.4058 11.1919 18.3329 11.4575C18.26 11.7283 18.1011 11.9315 17.8563 12.0669C17.6168 12.2023 17.3616 12.2335 17.0907 12.1606ZM21.6767 13.3872C21.411 13.3143 21.2079 13.158 21.0673 12.9184C20.9319 12.6736 20.9006 12.4158 20.9735 12.145C21.0412 11.8742 21.1949 11.671 21.4345 11.5356C21.6741 11.4002 21.9293 11.369 22.2001 11.4419C22.4761 11.5096 22.6819 11.6658 22.8173 11.9106C22.9579 12.1502 22.9918 12.4054 22.9188 12.6763C22.8459 12.9419 22.6897 13.145 22.4501 13.2856C22.2105 13.4263 21.9527 13.4601 21.6767 13.3872ZM18.3876 16.3872C17.9813 16.2726 17.5725 16.2153 17.161 16.2153C16.7496 16.2101 16.2938 16.2622 15.7938 16.3716C15.6376 16.408 15.5204 16.3742 15.4423 16.27C15.3694 16.1658 15.3746 16.0513 15.4579 15.9263C15.6819 15.5721 15.9709 15.2908 16.3251 15.0825C16.6845 14.8742 17.0777 14.744 17.5048 14.6919C17.9319 14.6398 18.3668 14.6763 18.8095 14.8013C19.4918 14.9731 20.0465 15.3013 20.4735 15.7856C20.9058 16.2648 21.1324 16.8169 21.1532 17.4419C21.1636 17.5981 21.109 17.7023 20.9892 17.7544C20.8746 17.8065 20.76 17.7804 20.6454 17.6763C20.2548 17.3221 19.8824 17.046 19.5282 16.8481C19.1793 16.645 18.7991 16.4914 18.3876 16.3872Z"
		fill="currentColor"
	/>
</svg>
