<svg
	color="rgb(var(--foreground, 0, 0, 0))"
	viewBox="0 0 20 24"
	fill="none"
	xmlns="http://www.w3.org/2000/svg"
>
	<path
		d="M0.611755 15.6055C0.611755 15.7878 0.648214 15.9388 0.72113 16.0586C0.794047 16.1732 0.90863 16.2669 1.06488 16.3398C1.50238 16.5534 1.85915 16.806 2.13519 17.0977C2.41644 17.3841 2.68988 17.793 2.95551 18.3242C3.12217 18.6159 3.36436 18.7617 3.68207 18.7617H16.8618C17.1795 18.7617 17.419 18.6159 17.5805 18.3242C17.8513 17.793 18.1248 17.3841 18.4008 17.0977C18.6821 16.806 19.0414 16.5534 19.4789 16.3398C19.6352 16.2669 19.7498 16.1732 19.8227 16.0586C19.8956 15.9388 19.9321 15.7878 19.9321 15.6055V8.40234C19.9321 8.22005 19.8956 8.07161 19.8227 7.95703C19.7498 7.83724 19.6352 7.74089 19.4789 7.66797C19.0414 7.44922 18.6821 7.19661 18.4008 6.91016C18.1248 6.61849 17.8513 6.20964 17.5805 5.68359C17.419 5.38672 17.1795 5.23828 16.8618 5.23828H3.68207C3.36436 5.23828 3.12217 5.38672 2.95551 5.68359C2.68988 6.20964 2.41644 6.61849 2.13519 6.91016C1.85915 7.19661 1.50238 7.44922 1.06488 7.66797C0.90863 7.74089 0.794047 7.83724 0.72113 7.95703C0.648214 8.07161 0.611755 8.22005 0.611755 8.40234V15.6055ZM3.82269 15.5664V8.44141C3.82269 8.22786 3.8878 8.05599 4.01801 7.92578C4.14821 7.79557 4.32009 7.73047 4.53363 7.73047H16.0024C16.2159 7.73047 16.3878 7.79557 16.518 7.92578C16.6482 8.05599 16.7133 8.22786 16.7133 8.44141V15.5664C16.7133 15.7852 16.6482 15.9596 16.518 16.0898C16.3878 16.2148 16.2159 16.2773 16.0024 16.2773H4.53363C4.32009 16.2773 4.14821 16.2148 4.01801 16.0898C3.8878 15.9596 3.82269 15.7852 3.82269 15.5664ZM4.81488 10.2617H5.86176V8.70703H4.98676C4.87217 8.70703 4.81488 8.76693 4.81488 8.88672V10.2617ZM4.81488 12.7773H5.86176V11.2383H4.81488V12.7773ZM4.81488 15.1211C4.81488 15.2409 4.87217 15.3008 4.98676 15.3008H5.86176V13.7539H4.81488V15.1211ZM14.6821 10.2617H15.7289V8.88672C15.7289 8.76693 15.6717 8.70703 15.5571 8.70703H14.6821V10.2617ZM14.6821 12.7773H15.7289V11.2383H14.6821V12.7773ZM14.6821 15.3008H15.5571C15.6717 15.3008 15.7289 15.2409 15.7289 15.1211V13.7539H14.6821V15.3008ZM6.84613 15.3008H13.6977V8.70703H6.84613V15.3008Z"
		fill="currentColor"
	/>
</svg>
