<svg
	color="rgb(var(--foreground, 0, 0, 0))"
	viewBox="0 0 20 24"
	fill="none"
	xmlns="http://www.w3.org/2000/svg"
>
	<path
		d="M0.291443 15.6055C0.291443 15.7878 0.327901 15.9388 0.400818 16.0586C0.473735 16.1732 0.588318 16.2669 0.744568 16.3398C1.18207 16.5534 1.53884 16.806 1.81488 17.0977C2.09613 17.3841 2.36957 17.793 2.63519 18.3242C2.80186 18.6159 3.04405 18.7617 3.36176 18.7617H16.5414C16.8592 18.7617 17.0987 18.6159 17.2602 18.3242C17.531 17.793 17.8045 17.3841 18.0805 17.0977C18.3618 16.806 18.7211 16.5534 19.1586 16.3398C19.3149 16.2669 19.4295 16.1732 19.5024 16.0586C19.5753 15.9388 19.6118 15.7878 19.6118 15.6055V8.40234C19.6118 8.22005 19.5753 8.07161 19.5024 7.95703C19.4295 7.83724 19.3149 7.74089 19.1586 7.66797C18.7211 7.44922 18.3618 7.19661 18.0805 6.91016C17.8045 6.61849 17.531 6.20964 17.2602 5.68359C17.0987 5.38672 16.8592 5.23828 16.5414 5.23828H3.36176C3.04405 5.23828 2.80186 5.38672 2.63519 5.68359C2.36957 6.20964 2.09613 6.61849 1.81488 6.91016C1.53884 7.19661 1.18207 7.44922 0.744568 7.66797C0.588318 7.74089 0.473735 7.83724 0.400818 7.95703C0.327901 8.07161 0.291443 8.22005 0.291443 8.40234V15.6055ZM1.54926 15.4258V8.58203C2.02321 8.38411 2.42165 8.12109 2.74457 7.79297C3.06748 7.45964 3.35134 7.02734 3.59613 6.49609H16.3071C16.5519 7.02734 16.8357 7.45964 17.1586 7.79297C17.4815 8.12109 17.88 8.38411 18.3539 8.58203V15.4258C17.88 15.6237 17.4815 15.8893 17.1586 16.2227C16.8357 16.5508 16.5519 16.9779 16.3071 17.5039H3.59613C3.35134 16.9779 3.06748 16.5508 2.74457 16.2227C2.42165 15.8893 2.02321 15.6237 1.54926 15.4258ZM3.69769 15.457C3.69769 15.6654 3.76019 15.832 3.88519 15.957C4.0154 16.082 4.18207 16.1445 4.38519 16.1445H15.5102C15.7185 16.1445 15.8852 16.082 16.0102 15.957C16.1352 15.832 16.1977 15.6654 16.1977 15.457V8.55078C16.1977 8.34766 16.1352 8.18359 16.0102 8.05859C15.8852 7.92839 15.7185 7.86328 15.5102 7.86328H4.38519C4.18207 7.86328 4.0154 7.92839 3.88519 8.05859C3.76019 8.18359 3.69769 8.34766 3.69769 8.55078V15.457ZM4.64301 15.0273V13.6992H5.67426V15.1992H4.82269C4.7029 15.1992 4.64301 15.1419 4.64301 15.0273ZM4.64301 12.7539V11.2617H5.67426V12.7539H4.64301ZM4.64301 10.3164V8.98047C4.64301 8.86589 4.7029 8.80859 4.82269 8.80859H5.67426V10.3164H4.64301ZM14.2289 10.3164V8.80859H15.0805C15.1951 8.80859 15.2524 8.86589 15.2524 8.98047V10.3164H14.2289ZM14.2289 12.7539V11.2617H15.2524V12.7539H14.2289ZM14.2289 15.1992V13.6992H15.2524V15.0273C15.2524 15.1419 15.1951 15.1992 15.0805 15.1992H14.2289ZM6.61957 15.1992V8.80859H13.2836V15.1992H6.61957Z"
		fill="currentColor"
	/>
</svg>
