<svg
	color="rgb(var(--foreground, 0, 0, 0))"
	viewBox="0 0 16 24"
	fill="none"
	xmlns="http://www.w3.org/2000/svg"
>
	<path
		d="M7.92968 11.5469L15.2891 7.36719C15.1745 7.26302 15.0312 7.16146 14.8594 7.0625L9.34375 3.92188C8.85937 3.64062 8.38802 3.5 7.92968 3.5C7.46614 3.5 6.99218 3.64062 6.50781 3.92188L1 7.0625C0.822917 7.16146 0.677083 7.26302 0.5625 7.36719L7.92968 11.5469ZM7.39062 20.5V12.4844L0.0625 8.29688C0.0208333 8.45312 0 8.65104 0 8.89062V14.9766C0 15.5443 0.0963542 15.9635 0.289062 16.2344C0.481771 16.5 0.757812 16.737 1.11719 16.9453L7.24218 20.4297C7.26823 20.4453 7.29166 20.4583 7.3125 20.4688C7.33854 20.4844 7.36458 20.4948 7.39062 20.5ZM8.46093 20.5C8.48698 20.4948 8.51302 20.4844 8.53906 20.4688C8.5651 20.4583 8.59114 20.4453 8.61718 20.4297L14.7344 16.9453C15.099 16.737 15.375 16.5 15.5625 16.2344C15.7552 15.9635 15.8516 15.5443 15.8516 14.9766V8.89062C15.8516 8.65104 15.8307 8.45312 15.7891 8.29688L8.46093 12.4844V20.5Z"
		fill="currentColor"
	/>
</svg>
