<svg
	color="rgb(var(--foreground, 0, 0, 0))"
	viewBox="0 0 17 24"
	fill="none"
	xmlns="http://www.w3.org/2000/svg"
>
	<path
		d="M1.82031 16.8496L7.96875 20.334C8.40104 20.5788 8.83333 20.5788 9.26562 20.334L15.4062 16.8496C15.7656 16.6465 16.0365 16.4121 16.2188 16.1465C16.4062 15.8809 16.5 15.4694 16.5 14.9121V8.72461C16.5 8.31836 16.4219 7.98242 16.2656 7.7168C16.1146 7.44596 15.875 7.2168 15.5469 7.0293L10.0156 3.88867C9.54688 3.61784 9.08073 3.48242 8.61719 3.48242C8.15365 3.48242 7.6849 3.61784 7.21094 3.88867L1.6875 7.0293C1.35417 7.2168 1.10938 7.44596 0.953125 7.7168C0.802083 7.98242 0.726562 8.31836 0.726562 8.72461V14.9121C0.726562 15.4694 0.820312 15.8809 1.00781 16.1465C1.19531 16.4121 1.46615 16.6465 1.82031 16.8496ZM2.52344 15.8184C2.29427 15.6934 2.13542 15.5579 2.04688 15.4121C1.95833 15.2663 1.91406 15.0866 1.91406 14.873V8.97461L8 12.4512V18.9355L2.52344 15.8184ZM14.7109 15.8184L9.22656 18.9355V12.4512L15.3125 8.97461V14.873C15.3125 15.0866 15.2682 15.2663 15.1797 15.4121C15.0911 15.5579 14.9349 15.6934 14.7109 15.8184ZM8.61719 11.3574L2.58594 7.94336L7.73438 5.00586C8.32812 4.66732 8.91667 4.66732 9.5 5.00586L14.6484 7.94336L8.61719 11.3574Z"
		fill="currentColor"
	/>
</svg>
