<svg
	color="rgb(var(--foreground, 0, 0, 0))"
	viewBox="0 0 17 24"
	fill="none"
	xmlns="http://www.w3.org/2000/svg"
>
	<path
		d="M8.39087 19.9688C9.47941 19.9688 10.5028 19.7604 11.4612 19.3438C12.4247 18.9271 13.2737 18.3516 14.0081 17.6172C14.7424 16.8828 15.318 16.0365 15.7346 15.0781C16.1513 14.1146 16.3596 13.0885 16.3596 12C16.3596 10.9115 16.1513 9.88802 15.7346 8.92969C15.318 7.96615 14.7424 7.11719 14.0081 6.38281C13.2737 5.64844 12.4247 5.07292 11.4612 4.65625C10.4976 4.23958 9.4716 4.03125 8.38306 4.03125C7.29452 4.03125 6.26847 4.23958 5.30493 4.65625C4.3466 5.07292 3.50024 5.64844 2.76587 6.38281C2.0367 7.11719 1.46379 7.96615 1.04712 8.92969C0.630452 9.88802 0.422119 10.9115 0.422119 12C0.422119 13.0885 0.630452 14.1146 1.04712 15.0781C1.46379 16.0365 2.03931 16.8828 2.77368 17.6172C3.50806 18.3516 4.35441 18.9271 5.31274 19.3438C6.27629 19.7604 7.30233 19.9688 8.39087 19.9688Z"
		fill="currentColor"
	/>
</svg>
