<svg
	color="rgb(var(--foreground, 0, 0, 0))"
	viewBox="0 0 17 24"
	fill="none"
	xmlns="http://www.w3.org/2000/svg"
>
	<path
		d="M8.45337 19.9688C9.54191 19.9688 10.5653 19.7604 11.5237 19.3438C12.4872 18.9271 13.3362 18.3516 14.0706 17.6172C14.8049 16.8828 15.3805 16.0365 15.7971 15.0781C16.2138 14.1146 16.4221 13.0885 16.4221 12C16.4221 10.9115 16.2138 9.88802 15.7971 8.92969C15.3805 7.96615 14.8049 7.11719 14.0706 6.38281C13.3362 5.64844 12.4872 5.07292 11.5237 4.65625C10.5601 4.23958 9.5341 4.03125 8.44556 4.03125C7.35702 4.03125 6.33097 4.23958 5.36743 4.65625C4.4091 5.07292 3.56274 5.64844 2.82837 6.38281C2.0992 7.11719 1.52629 7.96615 1.10962 8.92969C0.692952 9.88802 0.484619 10.9115 0.484619 12C0.484619 13.0885 0.692952 14.1146 1.10962 15.0781C1.52629 16.0365 2.10181 16.8828 2.83618 17.6172C3.57056 18.3516 4.41691 18.9271 5.37524 19.3438C6.33879 19.7604 7.36483 19.9688 8.45337 19.9688ZM8.45337 18.6406C7.53149 18.6406 6.66952 18.4688 5.86743 18.125C5.06535 17.7812 4.35962 17.3073 3.75024 16.7031C3.14608 16.0938 2.67212 15.388 2.32837 14.5859C1.98983 13.7839 1.82056 12.9219 1.82056 12C1.82056 11.0781 1.98983 10.2161 2.32837 9.41406C2.67212 8.61198 3.14608 7.90625 3.75024 7.29688C4.35441 6.6875 5.05754 6.21354 5.85962 5.875C6.6617 5.53125 7.52368 5.35938 8.44556 5.35938C9.36743 5.35938 10.2294 5.53125 11.0315 5.875C11.8388 6.21354 12.5445 6.6875 13.1487 7.29688C13.7581 7.90625 14.2346 8.61198 14.5784 9.41406C14.9221 10.2161 15.094 11.0781 15.094 12C15.094 12.9219 14.9221 13.7839 14.5784 14.5859C14.2398 15.388 13.7659 16.0938 13.1565 16.7031C12.5471 17.3073 11.8414 17.7812 11.0393 18.125C10.2372 18.4688 9.37524 18.6406 8.45337 18.6406Z"
		fill="currentColor"
	/>
</svg>
