<svg
	color="rgb(var(--foreground, 0, 0, 0))"
	viewBox="0 0 19 24"
	fill="none"
	xmlns="http://www.w3.org/2000/svg"
>
	<path
		d="M1.75019 13.7266L8.00801 19.9844C8.58613 20.5625 9.16165 20.8542 9.73457 20.8594C10.3075 20.8646 10.8804 20.5807 11.4533 20.0078L17.7424 13.7109C18.3153 13.1432 18.5992 12.5729 18.5939 12C18.5887 11.4219 18.2971 10.8438 17.7189 10.2656L11.4689 4.01563C10.8908 3.43751 10.3153 3.14584 9.74238 3.14063C9.16946 3.13543 8.59655 3.41928 8.02363 3.9922L1.72675 10.2813C1.15384 10.8594 0.869984 11.4349 0.875192 12.0078C0.880401 12.5755 1.17207 13.1484 1.75019 13.7266ZM2.65644 12.8594C2.3804 12.5781 2.23978 12.2917 2.23457 12C2.22936 11.7083 2.37259 11.4193 2.66425 11.1328L8.86738 4.9297C9.15384 4.64324 9.4429 4.50001 9.73457 4.50001C10.0262 4.50001 10.3127 4.64063 10.5939 4.92188L16.8127 11.1406C17.0887 11.4167 17.2294 11.7031 17.2346 12C17.2398 12.2917 17.0965 12.5807 16.8049 12.8672L10.6018 19.0703C10.3101 19.3568 10.0184 19.5 9.72676 19.5C9.43509 19.5 9.15123 19.362 8.87519 19.0859L2.65644 12.8594Z"
		fill="currentColor"
	/>
</svg>
