<svg
	color="rgb(var(--foreground, 0, 0, 0))"
	viewBox="0 0 17 24"
	fill="none"
	xmlns="http://www.w3.org/2000/svg"
>
	<path
		d="M14.9047 19.3887C15.139 19.6309 15.5297 19.6309 15.7562 19.3887C15.9828 19.1543 15.9906 18.7793 15.7562 18.5371L1.66248 4.45117C1.4281 4.2168 1.03748 4.2168 0.803101 4.45117C0.576538 4.67773 0.576538 5.07617 0.803101 5.30273L14.9047 19.3887ZM14.2718 15.7715C15.9281 13.9512 16.8734 12.0293 16.8734 10.0996C16.8734 7.33398 14.975 5.38086 12.4437 5.38086C10.9984 5.38086 9.82653 6.06836 9.1156 7.12305C8.42028 6.07617 7.23278 5.38086 5.78747 5.38086C5.21716 5.38086 4.6781 5.48242 4.18591 5.66992L5.23279 6.7168C5.39685 6.66211 5.58435 6.63867 5.77185 6.63867C7.2406 6.63867 8.08435 7.55273 8.58435 8.33398C8.79528 8.64648 8.9281 8.73242 9.1156 8.73242C9.3031 8.73242 9.42028 8.63867 9.64685 8.33398C10.1859 7.56836 10.9984 6.63867 12.4593 6.63867C14.2718 6.63867 15.6156 8.02148 15.6156 10.0996C15.6156 11.6777 14.7093 13.3262 13.35 14.8496L14.2718 15.7715ZM12.0375 17.8418L11.139 16.9434C10.5531 17.4199 9.91247 17.8887 9.27966 18.3105C9.20153 18.3652 9.14685 18.4043 9.1156 18.4043C9.08435 18.4043 9.02966 18.3652 8.95935 18.3105C5.68591 16.1387 2.6156 13.0059 2.6156 10.0996C2.6156 9.57617 2.71716 9.09961 2.89685 8.70117L1.9281 7.72461C1.56091 8.4043 1.35779 9.20898 1.35779 10.0996C1.35779 13.4277 4.14685 16.7012 8.5531 19.5137C8.71716 19.6152 8.95153 19.7246 9.1156 19.7246C9.27966 19.7246 9.51403 19.6152 9.68591 19.5137C10.5218 18.9746 11.3187 18.4121 12.0375 17.8418Z"
		fill="currentColor"
	/>
</svg>
