<svg
	color="rgb(var(--foreground, 0, 0, 0))"
	viewBox="0 0 17 24"
	fill="none"
	xmlns="http://www.w3.org/2000/svg"
>
	<path
		d="M0.601929 9.54688C0.601929 12.875 3.39099 16.1484 7.79724 18.9609C7.9613 19.0625 8.19568 19.1719 8.35974 19.1719C8.5238 19.1719 8.75818 19.0625 8.93005 18.9609C13.3285 16.1484 16.1176 12.875 16.1176 9.54688C16.1176 6.78125 14.2191 4.82812 11.6879 4.82812C10.2426 4.82812 9.07068 5.51562 8.35974 6.57031C7.66443 5.52344 6.47693 4.82812 5.03162 4.82812C2.50037 4.82812 0.601929 6.78125 0.601929 9.54688ZM1.85974 9.54688C1.85974 7.46875 3.20349 6.08594 5.01599 6.08594C6.48474 6.08594 7.32849 7 7.82849 7.78125C8.03943 8.09375 8.17224 8.17969 8.35974 8.17969C8.54724 8.17969 8.66443 8.08594 8.89099 7.78125C9.43005 7.01562 10.2426 6.08594 11.7035 6.08594C13.516 6.08594 14.8597 7.46875 14.8597 9.54688C14.8597 12.4531 11.7894 15.5859 8.5238 17.7578C8.44568 17.8125 8.39099 17.8516 8.35974 17.8516C8.32849 17.8516 8.2738 17.8125 8.20349 17.7578C4.93005 15.5859 1.85974 12.4531 1.85974 9.54688Z"
		fill="currentColor"
	/>
</svg>
