<svg
	color="rgb(var(--foreground, 0, 0, 0))"
	viewBox="0 0 18 24"
	fill="none"
	xmlns="http://www.w3.org/2000/svg"
>
	<path
		d="M15.1449 19.3887C15.3793 19.6309 15.7699 19.6309 15.9965 19.3887C16.223 19.1543 16.2308 18.7793 15.9965 18.5371L1.90271 4.45117C1.66833 4.2168 1.27771 4.2168 1.04333 4.45117C0.816772 4.67773 0.816772 5.07617 1.04333 5.30273L15.1449 19.3887ZM14.5043 15.7793C16.1683 13.9512 17.1137 12.0371 17.1137 10.0996C17.1137 7.33398 15.2152 5.38086 12.7621 5.38086C11.2387 5.38086 10.0668 6.22461 9.35584 7.51367C8.66053 6.23242 7.47302 5.38086 5.94958 5.38086C5.40271 5.38086 4.87927 5.47461 4.41052 5.66211L14.5043 15.7793ZM12.2699 17.8418L2.16052 7.72461C1.80115 8.4043 1.59802 9.20898 1.59802 10.0996C1.59802 13.4277 4.38709 16.7012 8.79334 19.5137C8.9574 19.6152 9.19178 19.7246 9.35584 19.7246C9.5199 19.7246 9.75428 19.6152 9.92615 19.5137C10.7621 18.9746 11.5512 18.4121 12.2699 17.8418Z"
		fill="currentColor"
	/>
</svg>
