<svg
	color="rgb(var(--foreground, 0, 0, 0))"
	viewBox="0 0 17 24"
	fill="none"
	xmlns="http://www.w3.org/2000/svg"
>
	<path
		d="M1.53955 16.9825L6.96924 20.0606C7.8859 20.5867 8.80518 20.5867 9.72705 20.0606L15.1567 16.9825C15.5213 16.7742 15.7974 16.5372 15.9849 16.2716C16.1776 16.0007 16.2739 15.5815 16.2739 15.0138V8.93563C16.2739 8.38354 16.1802 7.9799 15.9927 7.72469C15.8052 7.46948 15.5448 7.24552 15.2114 7.05282L9.76611 3.95907C9.28174 3.67782 8.80518 3.53979 8.33643 3.545C7.87288 3.55021 7.40413 3.68823 6.93018 3.95907L1.49268 7.05282C1.15934 7.24552 0.896322 7.46948 0.703613 7.72469C0.516113 7.9799 0.422363 8.38354 0.422363 8.93563V15.0138C0.422363 15.5815 0.518717 16.0007 0.711426 16.2716C0.904134 16.5372 1.18018 16.7742 1.53955 16.9825ZM2.28174 15.8966C2.05778 15.7716 1.90153 15.6414 1.81299 15.5059C1.72965 15.3653 1.68799 15.1882 1.68799 14.9747V8.99813C1.68799 8.80021 1.72965 8.63875 1.81299 8.51375C1.89632 8.38354 2.03695 8.26115 2.23486 8.14657L7.48486 5.14657C7.77653 4.97469 8.06299 4.88875 8.34424 4.88875C8.62549 4.88354 8.91716 4.96948 9.21924 5.14657L14.4614 8.14657C14.6593 8.26115 14.8 8.38354 14.8833 8.51375C14.9666 8.63875 15.0083 8.80021 15.0083 8.99813V14.9747C15.0083 15.1882 14.964 15.3653 14.8755 15.5059C14.7922 15.6414 14.6411 15.7716 14.4224 15.8966L9.21924 18.8497C8.90674 19.032 8.61247 19.1205 8.33643 19.1153C8.06559 19.1101 7.78174 19.0216 7.48486 18.8497L2.28174 15.8966Z"
		fill="currentColor"
	/>
</svg>
