<svg
	color="rgb(var(--foreground, 0, 0, 0))"
	viewBox="0 0 17 24"
	fill="none"
	xmlns="http://www.w3.org/2000/svg"
>
	<path
		d="M1.36768 16.9512L6.79736 20.0293C7.70882 20.5449 8.61768 20.5449 9.52393 20.0293L14.9536 16.9512C15.313 16.7428 15.5838 16.5085 15.7661 16.248C15.9536 15.9824 16.0474 15.571 16.0474 15.0137V8.93555C16.0474 8.39388 15.9562 7.99805 15.7739 7.74805C15.5916 7.49805 15.3364 7.27669 15.0083 7.08398L9.56299 3.99023C9.09424 3.7194 8.62809 3.58398 8.16455 3.58398C7.70101 3.58398 7.23226 3.7194 6.7583 3.99023L1.3208 7.08398C0.987467 7.27669 0.729655 7.49805 0.547363 7.74805C0.365072 7.99805 0.273926 8.39388 0.273926 8.93555V15.0137C0.273926 15.571 0.367676 15.9824 0.555176 16.248C0.742676 16.5085 1.01351 16.7428 1.36768 16.9512Z"
		fill="currentColor"
	/>
</svg>
