<svg
	color="rgb(var(--foreground, 0, 0, 0))"
	viewBox="0 0 17 24"
	fill="none"
	xmlns="http://www.w3.org/2000/svg"
>
	<path
		d="M6.02393 19.7266H10.7661C11.0942 19.7266 11.3729 19.6927 11.6021 19.625C11.8364 19.5573 12.0422 19.4557 12.2192 19.3203C12.3963 19.1901 12.5708 19.0339 12.7427 18.8516L15.7739 15.5078C15.9458 15.3203 16.0786 15.1458 16.1724 14.9844C16.2661 14.8177 16.3312 14.6432 16.3677 14.4609C16.4041 14.2734 16.4224 14.0495 16.4224 13.7891V10.2188C16.4224 9.95833 16.4041 9.73438 16.3677 9.54688C16.3312 9.35938 16.2661 9.1849 16.1724 9.02344C16.0786 8.86198 15.9458 8.6875 15.7739 8.5L12.7427 5.15625C12.5708 4.96875 12.3963 4.8099 12.2192 4.67969C12.0422 4.54948 11.8364 4.45052 11.6021 4.38281C11.3729 4.3099 11.0942 4.27344 10.7661 4.27344H6.02393C5.69059 4.27344 5.40934 4.3099 5.18018 4.38281C4.95101 4.45052 4.74788 4.54948 4.5708 4.67969C4.39372 4.8099 4.21924 4.96875 4.04736 5.15625L1.01611 8.5C0.844238 8.6875 0.711426 8.86198 0.617676 9.02344C0.523926 9.1849 0.458822 9.35938 0.422363 9.54688C0.385905 9.73438 0.367676 9.95833 0.367676 10.2188V13.7891C0.367676 14.0495 0.385905 14.2734 0.422363 14.4609C0.458822 14.6432 0.523926 14.8177 0.617676 14.9844C0.711426 15.1458 0.844238 15.3203 1.01611 15.5078L4.04736 18.8516C4.21924 19.0339 4.39372 19.1901 4.5708 19.3203C4.74788 19.4557 4.95101 19.5573 5.18018 19.625C5.40934 19.6927 5.69059 19.7266 6.02393 19.7266Z"
		fill="currentColor"
	/>
</svg>
