<svg
	color="rgb(var(--foreground, 0, 0, 0))"
	viewBox="0 0 17 24"
	fill="none"
	xmlns="http://www.w3.org/2000/svg"
>
	<path
		d="M5.96924 19.7266H10.7114C11.0396 19.7266 11.3182 19.6927 11.5474 19.625C11.7817 19.5573 11.9875 19.4557 12.1646 19.3203C12.3416 19.1901 12.5161 19.0339 12.688 18.8516L15.7192 15.5078C15.8911 15.3203 16.0239 15.1458 16.1177 14.9844C16.2114 14.8177 16.2765 14.6432 16.313 14.4609C16.3494 14.2734 16.3677 14.0495 16.3677 13.7891V10.2188C16.3677 9.95833 16.3494 9.73438 16.313 9.54688C16.2765 9.35938 16.2114 9.1849 16.1177 9.02344C16.0239 8.86198 15.8911 8.6875 15.7192 8.5L12.688 5.15625C12.5161 4.96875 12.3416 4.8099 12.1646 4.67969C11.9875 4.54948 11.7817 4.45052 11.5474 4.38281C11.3182 4.3099 11.0396 4.27344 10.7114 4.27344H5.96924C5.6359 4.27344 5.35465 4.3099 5.12549 4.38281C4.89632 4.45052 4.6932 4.54948 4.51611 4.67969C4.33903 4.8099 4.16455 4.96875 3.99268 5.15625L0.961426 8.5C0.789551 8.6875 0.656738 8.86198 0.562988 9.02344C0.469238 9.1849 0.404134 9.35938 0.367676 9.54688C0.331217 9.73438 0.312988 9.95833 0.312988 10.2188V13.7891C0.312988 14.0495 0.331217 14.2734 0.367676 14.4609C0.404134 14.6432 0.469238 14.8177 0.562988 14.9844C0.656738 15.1458 0.789551 15.3203 0.961426 15.5078L3.99268 18.8516C4.16455 19.0339 4.33903 19.1901 4.51611 19.3203C4.6932 19.4557 4.89632 19.5573 5.12549 19.625C5.35465 19.6927 5.6359 19.7266 5.96924 19.7266ZM6.39111 18.4766C6.1307 18.4766 5.91976 18.4557 5.7583 18.4141C5.60205 18.3724 5.46403 18.3047 5.34424 18.2109C5.22445 18.1172 5.09424 17.9922 4.95361 17.8359L2.1333 14.75C1.98226 14.5781 1.8807 14.4219 1.82861 14.2812C1.78174 14.1406 1.7583 13.9271 1.7583 13.6406V10.3672C1.7583 10.0807 1.78174 9.86719 1.82861 9.72656C1.8807 9.58594 1.98226 9.42969 2.1333 9.25781L4.95361 6.17188C5.09424 6.01563 5.22445 5.89063 5.34424 5.79688C5.46403 5.70313 5.60205 5.63542 5.7583 5.59375C5.91976 5.55208 6.1307 5.53125 6.39111 5.53125H10.2896C10.55 5.53125 10.7583 5.55208 10.9146 5.59375C11.0708 5.63542 11.2088 5.70313 11.3286 5.79688C11.4484 5.89063 11.5812 6.01563 11.7271 6.17188L14.5396 9.25781C14.6958 9.42969 14.7974 9.58594 14.8442 9.72656C14.8963 9.86719 14.9224 10.0807 14.9224 10.3672V13.6406C14.9224 13.9271 14.8963 14.1406 14.8442 14.2812C14.7974 14.4219 14.6958 14.5781 14.5396 14.75L11.7271 17.8359C11.5812 17.9922 11.4484 18.1172 11.3286 18.2109C11.2088 18.3047 11.0708 18.3724 10.9146 18.4141C10.7583 18.4557 10.55 18.4766 10.2896 18.4766H6.39111Z"
		fill="currentColor"
	/>
</svg>
