<svg
	color="rgb(var(--foreground, 0, 0, 0))"
	viewBox="0 0 17 24"
	fill="none"
	xmlns="http://www.w3.org/2000/svg"
>
	<path
		d="M0.195417 11.4102L2.5001 18.5742C2.67719 19.1315 2.95845 19.5508 3.34387 19.832C3.72929 20.1185 4.21887 20.2617 4.81262 20.2617H12.2033C12.797 20.2617 13.2866 20.1185 13.672 19.832C14.0574 19.5508 14.3387 19.1315 14.5158 18.5742L16.8048 11.4414C16.9923 10.8633 17.0132 10.3451 16.8673 9.88672C16.7267 9.42839 16.422 9.02734 15.9533 8.68359L9.96887 4.28516C9.47929 3.92057 8.99231 3.73828 8.50793 3.73828C8.02356 3.73828 7.53658 3.92057 7.04699 4.28516L1.0626 8.68359C0.593854 9.02734 0.286562 9.42839 0.140729 9.88672C0.000104055 10.3398 0.0183332 10.8477 0.195417 11.4102ZM1.38292 11.0273C1.28917 10.7305 1.27354 10.4805 1.33604 10.2773C1.40375 10.0742 1.56521 9.87891 1.82042 9.69141L7.79699 5.28516C8.06262 5.09245 8.2996 4.99609 8.50793 4.99609C8.71626 4.99609 8.95064 5.09245 9.21106 5.28516L15.1876 9.69141C15.4428 9.87891 15.6043 10.0768 15.672 10.2852C15.7397 10.4883 15.7241 10.7435 15.6251 11.0508L13.3361 18.1914C13.2371 18.4883 13.1017 18.6966 12.9298 18.8164C12.7579 18.9414 12.5158 19.0039 12.2033 19.0039H4.81262C4.49491 19.0039 4.25012 18.9414 4.07824 18.8164C3.90637 18.6966 3.77356 18.4883 3.67981 18.1914L1.38292 11.0273Z"
		fill="currentColor"
	/>
</svg>
