<svg
	color="rgb(var(--foreground, 0, 0, 0))"
	viewBox="0 0 18 24"
	fill="none"
	xmlns="http://www.w3.org/2000/svg"
>
	<path
		d="M1.11094 11.4102L3.41563 18.5742C3.59271 19.1315 3.87396 19.5508 4.25938 19.832C4.6448 20.1185 5.13438 20.2617 5.72813 20.2617H13.1187C13.7125 20.2617 14.2021 20.1185 14.5875 19.832C14.9729 19.5508 15.2542 19.1315 15.4312 18.5742L17.7203 11.4414C17.9078 10.8633 17.9286 10.3451 17.7828 9.88672C17.6422 9.42839 17.3375 9.02734 16.8687 8.68359L10.8844 4.28516C10.3948 3.92057 9.9078 3.73828 9.42343 3.73828C8.93905 3.73828 8.45209 3.92057 7.9625 4.28516L1.97813 8.68359C1.50938 9.02734 1.20209 9.42839 1.05626 9.88672C0.915631 10.3398 0.933861 10.8477 1.11094 11.4102Z"
		fill="currentColor"
	/>
</svg>
