<svg
	color="rgb(var(--foreground, 0, 0, 0))"
	viewBox="0 0 14 24"
	fill="none"
	xmlns="http://www.w3.org/2000/svg"
>
	<path
		d="M6.95667 20C7.17021 20 7.34989 19.9271 7.49573 19.7813C7.64156 19.6354 7.82385 19.4141 8.0426 19.1172L12.7067 12.8906C12.8108 12.7448 12.8916 12.599 12.9489 12.4531C13.0114 12.3073 13.0426 12.1562 13.0426 12C13.0426 11.8438 13.0114 11.6927 12.9489 11.5469C12.8916 11.3958 12.8108 11.25 12.7067 11.1094L8.0426 4.875C7.82385 4.58333 7.64156 4.36458 7.49573 4.21875C7.34989 4.07292 7.17021 4 6.95667 4C6.74312 4 6.56344 4.07292 6.4176 4.21875C6.27698 4.36458 6.09729 4.58333 5.87854 4.875L1.21448 11.1094C1.1051 11.25 1.02177 11.3958 0.964478 11.5469C0.907186 11.6927 0.87854 11.8438 0.87854 12C0.87854 12.1562 0.907186 12.3073 0.964478 12.4531C1.02177 12.599 1.1051 12.7448 1.21448 12.8906L5.87854 19.1172C6.09729 19.4141 6.27698 19.6354 6.4176 19.7813C6.56344 19.9271 6.74312 20 6.95667 20ZM6.95667 18.3516C6.94104 18.3516 6.92542 18.3438 6.90979 18.3281C6.89937 18.3177 6.88896 18.3047 6.87854 18.2891L2.36292 12.2109C2.31083 12.1432 2.28479 12.0729 2.28479 12C2.28479 11.9271 2.31083 11.8568 2.36292 11.7891L6.87854 5.70312C6.88896 5.6875 6.89937 5.67448 6.90979 5.66406C6.92542 5.65365 6.94104 5.64844 6.95667 5.64844C6.9775 5.64844 6.99312 5.65365 7.00354 5.66406C7.01396 5.67448 7.02437 5.6875 7.03479 5.70312L11.5582 11.7891C11.6103 11.8568 11.6364 11.9271 11.6364 12C11.6364 12.0729 11.6103 12.1432 11.5582 12.2109L7.03479 18.2891C7.02437 18.3047 7.01396 18.3177 7.00354 18.3281C6.99312 18.3438 6.9775 18.3516 6.95667 18.3516Z"
		fill="currentColor"
	/>
</svg>
