<svg
	color="rgb(var(--foreground, 0, 0, 0))"
	viewBox="0 0 13 24"
	fill="none"
	xmlns="http://www.w3.org/2000/svg"
>
	<path
		d="M6.12073 20C6.33427 20 6.51396 19.9271 6.65979 19.7813C6.80562 19.6354 6.98792 19.4141 7.20667 19.1172L11.8707 12.8906C11.9749 12.7448 12.0556 12.599 12.1129 12.4531C12.1754 12.3073 12.2067 12.1562 12.2067 12C12.2067 11.8438 12.1754 11.6927 12.1129 11.5469C12.0556 11.3958 11.9749 11.25 11.8707 11.1094L7.20667 4.875C6.98792 4.58333 6.80562 4.36458 6.65979 4.21875C6.51396 4.07292 6.33427 4 6.12073 4C5.90719 4 5.7275 4.07292 5.58167 4.21875C5.44104 4.36458 5.26135 4.58333 5.0426 4.875L0.37854 11.1094C0.269165 11.25 0.185832 11.3958 0.12854 11.5469C0.0712484 11.6927 0.0426025 11.8438 0.0426025 12C0.0426025 12.1562 0.0712484 12.3073 0.12854 12.4531C0.185832 12.599 0.269165 12.7448 0.37854 12.8906L5.0426 19.1172C5.26135 19.4141 5.44104 19.6354 5.58167 19.7813C5.7275 19.9271 5.90719 20 6.12073 20Z"
		fill="currentColor"
	/>
</svg>
