<svg
	color="rgb(var(--foreground, 0, 0, 0))"
	viewBox="0 0 19 24"
	fill="none"
	xmlns="http://www.w3.org/2000/svg"
>
	<path
		d="M4.88281 18.7773H6.57812C6.73438 18.7773 6.86458 18.832 6.96875 18.9414L8.17188 20.1367C8.66667 20.6315 9.14844 20.8763 9.61719 20.8711C10.0859 20.8711 10.5651 20.6263 11.0547 20.1367L12.2578 18.9414C12.3672 18.832 12.5 18.7773 12.6562 18.7773H14.3438C15.0417 18.7773 15.5573 18.6107 15.8906 18.2773C16.224 17.9492 16.3906 17.4336 16.3906 16.7305V15.043C16.3906 14.8867 16.4453 14.7539 16.5547 14.6445L17.75 13.4414C18.2448 12.9518 18.4896 12.4726 18.4844 12.0039C18.4844 11.5351 18.2396 11.0534 17.75 10.5586L16.5547 9.35546C16.4453 9.24608 16.3906 9.11587 16.3906 8.96483V7.26952C16.3906 6.57681 16.224 6.06379 15.8906 5.73046C15.5625 5.39192 15.0469 5.22265 14.3438 5.22265H12.6562C12.5 5.22265 12.3672 5.17056 12.2578 5.0664L11.0547 3.87108C10.5651 3.37108 10.0859 3.12369 9.61719 3.1289C9.14844 3.1289 8.66667 3.37629 8.17188 3.87108L6.96875 5.0664C6.86458 5.17056 6.73438 5.22265 6.57812 5.22265H4.88281C4.1849 5.22265 3.66927 5.38931 3.33594 5.72265C3.0026 6.05077 2.83594 6.5664 2.83594 7.26952V8.96483C2.83594 9.11587 2.78385 9.24608 2.67969 9.35546L1.48438 10.5586C0.989583 11.0534 0.742188 11.5351 0.742188 12.0039C0.742188 12.4726 0.989583 12.9518 1.48438 13.4414L2.67969 14.6445C2.78385 14.7539 2.83594 14.8867 2.83594 15.043V16.7305C2.83594 17.4284 3.0026 17.944 3.33594 18.2773C3.66927 18.6107 4.1849 18.7773 4.88281 18.7773Z"
		fill="currentColor"
	/>
</svg>
