<svg
	color="rgb(var(--foreground, 0, 0, 0))"
	viewBox="0 0 18 24"
	fill="none"
	xmlns="http://www.w3.org/2000/svg"
>
	<path
		d="M4.14062 18.7773H5.82812C5.98958 18.7773 6.1224 18.832 6.22656 18.9414L7.42969 20.1367C7.92448 20.6315 8.40365 20.8763 8.86719 20.8711C9.33594 20.8711 9.81771 20.6263 10.3125 20.1367L11.5156 18.9414C11.625 18.832 11.7578 18.7773 11.9141 18.7773H13.6016C14.2995 18.7773 14.8151 18.6106 15.1484 18.2773C15.4818 17.9492 15.6484 17.4336 15.6484 16.7304V15.0429C15.6484 14.8867 15.7031 14.7539 15.8125 14.6445L17 13.4414C17.5 12.9518 17.7474 12.4726 17.7422 12.0039C17.7422 11.5351 17.4948 11.0534 17 10.5586L15.8125 9.35544C15.7031 9.24606 15.6484 9.11585 15.6484 8.96481V7.2695C15.6484 6.57679 15.4818 6.06377 15.1484 5.73044C14.8203 5.3919 14.3047 5.22263 13.6016 5.22263H11.9141C11.7578 5.22263 11.625 5.17054 11.5156 5.06638L10.3125 3.87106C9.81771 3.37627 9.33594 3.12888 8.86719 3.12888C8.40365 3.12888 7.92448 3.37627 7.42969 3.87106L6.22656 5.06638C6.1224 5.17054 5.98958 5.22263 5.82812 5.22263H4.14062C3.44271 5.22263 2.92708 5.38929 2.59375 5.72263C2.26042 6.05075 2.09375 6.56638 2.09375 7.2695V8.96481C2.09375 9.11585 2.04167 9.24606 1.9375 9.35544L0.742188 10.5586C0.247396 11.0534 0 11.5351 0 12.0039C0 12.4726 0.247396 12.9518 0.742188 13.4414L1.9375 14.6445C2.04167 14.7539 2.09375 14.8867 2.09375 15.0429V16.7304C2.09375 17.4284 2.26042 17.944 2.59375 18.2773C2.92708 18.6106 3.44271 18.7773 4.14062 18.7773ZM4.14062 17.5351C3.79167 17.5351 3.57031 17.4883 3.47656 17.3945C3.38281 17.3008 3.33594 17.0794 3.33594 16.7304V14.6289C3.33594 14.3997 3.25521 14.2044 3.09375 14.0429L1.61719 12.5742C1.36719 12.3242 1.24219 12.1341 1.24219 12.0039C1.24219 11.8737 1.36719 11.6836 1.61719 11.4336L3.09375 9.96481C3.25521 9.79815 3.33594 9.60023 3.33594 9.37106V7.2695C3.33594 6.92054 3.38021 6.69919 3.46875 6.60544C3.5625 6.51169 3.78646 6.46481 4.14062 6.46481H6.24219C6.48177 6.46481 6.67969 6.38408 6.83594 6.22263L8.30469 4.74606C8.55469 4.50127 8.74219 4.37888 8.86719 4.37888C8.9974 4.37888 9.1875 4.50127 9.4375 4.74606L10.9141 6.22263C11.0703 6.38408 11.2656 6.46481 11.5 6.46481H13.6016C13.9505 6.46481 14.1719 6.51429 14.2656 6.61325C14.3594 6.707 14.4062 6.92575 14.4062 7.2695V9.37106C14.4062 9.60023 14.4896 9.79815 14.6562 9.96481L16.1328 11.4336C16.3776 11.6836 16.5 11.8737 16.5 12.0039C16.5 12.1341 16.3776 12.3242 16.1328 12.5742L14.6562 14.0429C14.4896 14.2044 14.4062 14.3997 14.4062 14.6289V16.7304C14.4062 17.0794 14.3594 17.3008 14.2656 17.3945C14.1719 17.4883 13.9505 17.5351 13.6016 17.5351H11.5C11.2656 17.5351 11.0703 17.6185 10.9141 17.7851L9.4375 19.2617C9.1875 19.5065 8.9974 19.6289 8.86719 19.6289C8.74219 19.6289 8.55469 19.5065 8.30469 19.2617L6.83594 17.7851C6.67969 17.6185 6.48177 17.5351 6.24219 17.5351H4.14062Z"
		fill="currentColor"
	/>
</svg>
