<svg
	color="rgb(var(--foreground, 0, 0, 0))"
	viewBox="0 0 15 24"
	fill="none"
	xmlns="http://www.w3.org/2000/svg"
>
	<path
		d="M2.81274 19.1914H12.2893C13.107 19.1914 13.719 18.9883 14.1252 18.582C14.5367 18.181 14.7424 17.5768 14.7424 16.7695V7.23047C14.7424 6.42318 14.5367 5.81901 14.1252 5.41797C13.719 5.01172 13.107 4.80859 12.2893 4.80859H2.81274C1.99504 4.80859 1.38045 5.01172 0.968994 5.41797C0.562744 5.81901 0.359619 6.42318 0.359619 7.23047V16.7695C0.359619 17.5768 0.562744 18.181 0.968994 18.582C1.38045 18.9883 1.99504 19.1914 2.81274 19.1914ZM2.82837 17.9336C2.43774 17.9336 2.13827 17.832 1.92993 17.6289C1.7216 17.4206 1.61743 17.1133 1.61743 16.707V7.29297C1.61743 6.88672 1.7216 6.58203 1.92993 6.37891C2.13827 6.17057 2.43774 6.06641 2.82837 6.06641H12.2737C12.6591 6.06641 12.956 6.17057 13.1643 6.37891C13.3778 6.58203 13.4846 6.88672 13.4846 7.29297V16.707C13.4846 17.1133 13.3778 17.4206 13.1643 17.6289C12.956 17.832 12.6591 17.9336 12.2737 17.9336H2.82837Z"
		fill="currentColor"
	/>
</svg>
