<svg
	color="rgb(var(--foreground, 0, 0, 0))"
	viewBox="0 0 18 24"
	fill="none"
	xmlns="http://www.w3.org/2000/svg"
>
	<path
		d="M3.53051 20.1471C3.85082 20.3971 4.25707 20.3112 4.74144 19.9596L8.87426 16.9205L13.0149 19.9596C13.4993 20.3112 13.8977 20.3971 14.2258 20.1471C14.5461 19.9049 14.6164 19.5065 14.4211 18.9362L12.7883 14.0768L16.9602 11.0768C17.4446 10.733 17.6399 10.3737 17.5149 9.98303C17.3899 9.60803 17.0227 9.42053 16.4211 9.42834L11.3039 9.45959L9.74926 4.57678C9.56176 3.99866 9.28051 3.70959 8.87426 3.70959C8.47582 3.70959 8.19457 3.99866 8.00707 4.57678L6.45238 9.45959L1.33519 9.42834C0.733631 9.42053 0.366443 9.60803 0.241443 9.98303C0.108631 10.3737 0.311756 10.733 0.796131 11.0768L4.96801 14.0768L3.33519 18.9362C3.13988 19.5065 3.21019 19.9049 3.53051 20.1471Z"
		fill="currentColor"
	/>
</svg>
