<svg
	color="rgb(var(--foreground, 0, 0, 0))"
	viewBox="0 0 18 24"
	fill="none"
	xmlns="http://www.w3.org/2000/svg"
>
	<path
		d="M7.00258 7.88147L13.0573 13.9205L17.0104 11.0768C17.4948 10.733 17.6901 10.3737 17.5651 9.98303C17.4401 9.60803 17.0729 9.42053 16.4713 9.42834L11.3541 9.45959L9.79946 4.57678C9.61196 3.99866 9.33071 3.70959 8.92446 3.70959C8.52602 3.70959 8.24477 3.99866 8.05727 4.57678L7.00258 7.88147ZM15.6823 19.5612C15.9166 19.7955 16.3073 19.7955 16.5338 19.5612C16.7604 19.319 16.7682 18.944 16.5338 18.7096L3.88539 6.10022C3.65102 5.86584 3.26039 5.85803 3.02602 6.10022C2.79946 6.32678 2.79946 6.71741 3.02602 6.95178L15.6823 19.5612ZM4.20571 9.44397L1.38539 9.42834C0.783832 9.42053 0.416644 9.60803 0.291644 9.98303C0.158832 10.3737 0.361957 10.733 0.846332 11.0768L5.01821 14.0768L3.38539 18.9362C3.19008 19.5065 3.26039 19.9049 3.58071 20.1471C3.90102 20.3971 4.30727 20.3112 4.79164 19.9596L8.92446 16.9205L13.0651 19.9596C13.5495 20.3112 13.9479 20.3971 14.276 20.1471C14.3932 20.0612 14.4713 19.9518 14.4323 19.6315L4.20571 9.44397Z"
		fill="currentColor"
	/>
</svg>
