<svg
	color="rgb(var(--foreground, 0, 0, 0))"
	viewBox="0 0 19 24"
	fill="none"
	xmlns="http://www.w3.org/2000/svg"
>
	<path
		d="M13.7072 13.9205L17.6604 11.0768C18.1447 10.733 18.34 10.3737 18.215 9.98303C18.09 9.60803 17.7229 9.42053 17.1213 9.42834L12.0041 9.45959L10.4494 4.57678C10.2619 3.99866 9.98067 3.70959 9.57442 3.70959C9.17598 3.70959 8.89473 3.99866 8.70723 4.57678L7.65255 7.88928L8.58223 8.81897L9.53536 5.67053C9.54317 5.62366 9.55879 5.60803 9.57442 5.60803C9.59786 5.60803 9.61348 5.62366 9.62129 5.67053L10.9807 10.194C11.0822 10.5143 11.2854 10.6471 11.6057 10.6393L16.3322 10.5533C16.3791 10.5533 16.3947 10.5533 16.4025 10.5768C16.4104 10.6002 16.3947 10.6158 16.3635 10.6393L12.8479 13.069L13.7072 13.9205ZM16.3322 19.5612C16.5666 19.7955 16.9572 19.7955 17.1838 19.5612C17.4104 19.319 17.4182 18.944 17.1838 18.7096L4.53536 6.10022C4.30098 5.86584 3.91036 5.85803 3.67598 6.10022C3.44942 6.32678 3.44942 6.71741 3.67598 6.95178L16.3322 19.5612ZM4.23067 20.1471C4.55098 20.3971 4.95723 20.3112 5.44161 19.9596L9.57442 16.9205L13.715 19.9596C14.1994 20.3112 14.59 20.3893 14.926 20.1471C15.0197 20.0768 15.09 19.983 15.2072 19.8112L9.97286 15.7174C9.72286 15.5221 9.43379 15.5221 9.18379 15.7174L5.42598 18.5846C5.39473 18.608 5.3713 18.6237 5.35567 18.6002C5.34005 18.5846 5.34786 18.5768 5.35567 18.5299L6.91036 14.0612C7.01973 13.7565 6.95723 13.5143 6.6838 13.3268L2.79317 10.6393C2.75411 10.6158 2.7463 10.6002 2.75411 10.5768C2.76192 10.5533 2.77755 10.5533 2.82442 10.5533L6.02755 10.608L4.85567 9.44397L2.03536 9.42834C1.4338 9.42053 1.06661 9.60803 0.941608 9.98303C0.808795 10.3737 1.01192 10.733 1.4963 11.0768L5.66817 14.0768L4.03536 18.9362C3.84005 19.5065 3.91036 19.9049 4.23067 20.1471Z"
		fill="currentColor"
	/>
</svg>
