<svg
	color="rgb(var(--foreground, 0, 0, 0))"
	viewBox="0 0 18 24"
	fill="none"
	xmlns="http://www.w3.org/2000/svg"
>
	<path
		d="M3.88057 20.1471C4.20088 20.3971 4.60713 20.3112 5.09151 19.9596L9.22432 16.9205L13.3649 19.9596C13.8493 20.3112 14.2478 20.3971 14.5759 20.1471C14.8962 19.9049 14.9665 19.5065 14.7712 18.9362L13.1384 14.0768L17.3103 11.0768C17.7946 10.733 17.9899 10.3737 17.8649 9.98303C17.7399 9.60803 17.3728 9.42053 16.7712 9.42834L11.654 9.45959L10.0993 4.57678C9.91182 3.99866 9.63057 3.70959 9.22432 3.70959C8.82588 3.70959 8.54463 3.99866 8.35713 4.57678L6.80244 9.45959L1.68526 9.42834C1.0837 9.42053 0.71651 9.60803 0.59151 9.98303C0.458698 10.3737 0.661823 10.733 1.1462 11.0768L5.31807 14.0768L3.68526 18.9362C3.48994 19.5065 3.56026 19.9049 3.88057 20.1471ZM9.22432 15.5768V5.60803C9.24776 5.60803 9.26338 5.62366 9.27119 5.67053L10.6306 10.194C10.7321 10.5143 10.9353 10.6471 11.2556 10.6393L15.9821 10.5533C16.029 10.5533 16.0446 10.5533 16.0524 10.5768C16.0603 10.6002 16.0446 10.6158 16.0134 10.6393L12.1228 13.3268C11.8493 13.5143 11.7868 13.7565 11.8962 14.0612L13.4509 18.5299C13.4587 18.5768 13.4665 18.5846 13.4509 18.6002C13.4353 18.6237 13.4118 18.608 13.3806 18.5846L9.62276 15.7174C9.49776 15.6237 9.36494 15.569 9.22432 15.5768Z"
		fill="currentColor"
	/>
</svg>
