<svg
	color="rgb(var(--foreground, 0, 0, 0))"
	viewBox="0 0 19 24"
	fill="none"
	xmlns="http://www.w3.org/2000/svg"
>
	<path
		d="M4.18044 20.1471C4.50075 20.3971 4.907 20.3112 5.39138 19.9596L9.52419 16.9205L13.6648 19.9596C14.1492 20.3112 14.5476 20.3971 14.8758 20.1471C15.1961 19.9049 15.2664 19.5065 15.0711 18.9362L13.4383 14.0768L17.6101 11.0768C18.0945 10.733 18.2898 10.3737 18.1648 9.98303C18.0398 9.60803 17.6726 9.42053 17.0711 9.42834L11.9539 9.45959L10.3992 4.57678C10.2117 3.99866 9.93044 3.70959 9.52419 3.70959C9.12575 3.70959 8.8445 3.99866 8.657 4.57678L7.10231 9.45959L1.98513 9.42834C1.38356 9.42053 1.01638 9.60803 0.891376 9.98303C0.758563 10.3737 0.961688 10.733 1.44606 11.0768L5.61794 14.0768L3.98513 18.9362C3.78981 19.5065 3.86013 19.9049 4.18044 20.1471ZM5.30544 18.6002C5.28981 18.5846 5.29763 18.5768 5.30544 18.5299L6.86013 14.0612C6.9695 13.7565 6.907 13.5143 6.63356 13.3268L2.74294 10.6393C2.70388 10.6158 2.69606 10.6002 2.70388 10.5768C2.71169 10.5533 2.72731 10.5533 2.77419 10.5533L7.50075 10.6393C7.82106 10.6471 8.02419 10.5143 8.12575 10.194L9.48513 5.67053C9.49294 5.62366 9.50856 5.60803 9.52419 5.60803C9.54763 5.60803 9.56325 5.62366 9.57106 5.67053L10.9304 10.194C11.032 10.5143 11.2351 10.6471 11.5554 10.6393L16.282 10.5533C16.3289 10.5533 16.3445 10.5533 16.3523 10.5768C16.3601 10.6002 16.3445 10.6158 16.3133 10.6393L12.4226 13.3268C12.1492 13.5143 12.0867 13.7565 12.1961 14.0612L13.7508 18.5299C13.7586 18.5768 13.7664 18.5846 13.7508 18.6002C13.7351 18.6237 13.7117 18.608 13.6804 18.5846L9.92263 15.7174C9.67263 15.5221 9.38356 15.5221 9.13356 15.7174L5.37575 18.5846C5.3445 18.608 5.32106 18.6237 5.30544 18.6002Z"
		fill="currentColor"
	/>
</svg>
