<svg
	color="rgb(var(--foreground, 0, 0, 0))"
	viewBox="0 0 17 24"
	fill="none"
	xmlns="http://www.w3.org/2000/svg"
>
	<path
		d="M2.63293 19.4219H14.7423C15.185 19.4219 15.5652 19.3281 15.8829 19.1406C16.2006 18.9531 16.4454 18.6979 16.6173 18.375C16.7892 18.0573 16.8751 17.7005 16.8751 17.3047C16.8751 17.1224 16.8491 16.9375 16.797 16.75C16.7449 16.5625 16.6694 16.3828 16.5704 16.2109L10.5079 5.64844C10.3048 5.29427 10.0392 5.02865 9.71106 4.85156C9.38814 4.66927 9.047 4.57812 8.68762 4.57812C8.32825 4.57812 7.9845 4.66927 7.65637 4.85156C7.32825 5.02865 7.06523 5.29427 6.86731 5.64844L0.80481 16.2109C0.601685 16.5599 0.500122 16.9245 0.500122 17.3047C0.500122 17.7005 0.58606 18.0573 0.757935 18.375C0.92981 18.6979 1.1746 18.9531 1.49231 19.1406C1.81002 19.3281 2.19023 19.4219 2.63293 19.4219Z"
		fill="currentColor"
	/>
</svg>
