<svg
	color="rgb(var(--foreground, 0, 0, 0))"
	viewBox="0 0 17 24"
	fill="none"
	xmlns="http://www.w3.org/2000/svg"
>
	<path
		d="M2.25793 19.4219H14.3673C14.81 19.4219 15.1902 19.3281 15.5079 19.1406C15.8256 18.9531 16.0704 18.6979 16.2423 18.375C16.4142 18.0573 16.5001 17.7005 16.5001 17.3047C16.5001 17.1224 16.4741 16.9375 16.422 16.75C16.3699 16.5625 16.2944 16.3828 16.1954 16.2109L10.1329 5.64844C9.92981 5.29427 9.66418 5.02865 9.33606 4.85156C9.01314 4.66927 8.672 4.57812 8.31262 4.57812C7.95325 4.57812 7.6095 4.66927 7.28137 4.85156C6.95325 5.02865 6.69023 5.29427 6.49231 5.64844L0.42981 16.2109C0.226685 16.5599 0.125122 16.9245 0.125122 17.3047C0.125122 17.7005 0.21106 18.0573 0.382935 18.375C0.55481 18.6979 0.799601 18.9531 1.11731 19.1406C1.43502 19.3281 1.81523 19.4219 2.25793 19.4219ZM2.26575 18.1953C1.99491 18.1953 1.78137 18.1042 1.62512 17.9219C1.46887 17.7448 1.39075 17.5365 1.39075 17.2969C1.39075 17.224 1.39856 17.1432 1.41418 17.0547C1.43502 16.9661 1.46627 16.8802 1.50793 16.7969L7.56262 6.24219C7.64596 6.09635 7.75533 5.99219 7.89075 5.92969C8.02616 5.86198 8.16679 5.82812 8.31262 5.82812C8.45846 5.82812 8.59648 5.86198 8.72668 5.92969C8.8621 5.99219 8.97148 6.09635 9.05481 6.24219L15.1095 16.8047C15.1928 16.9661 15.2345 17.1302 15.2345 17.2969C15.2345 17.5365 15.1538 17.7448 14.9923 17.9219C14.8361 18.1042 14.6225 18.1953 14.3517 18.1953H2.26575Z"
		fill="currentColor"
	/>
</svg>
