<svg
	color="rgb(var(--foreground, 0, 0, 0))"
	viewBox="0 0 18 24"
	fill="none"
	xmlns="http://www.w3.org/2000/svg"
>
	<path
		d="M0.8125 5.29006C0.729167 5.6911 0.669271 6.126 0.632812 6.59475C0.601562 7.0635 0.585938 7.47235 0.585938 7.82131C0.585938 9.28485 0.791667 10.6104 1.20312 11.7979C1.61979 12.9854 2.21354 14.0062 2.98438 14.8604C3.76042 15.7145 4.6875 16.3734 5.76562 16.8369C6.84375 17.2953 8.04688 17.5244 9.375 17.5244C10.0573 17.5244 10.6693 17.4541 11.2109 17.3135C11.7578 17.1729 12.237 16.9932 12.6484 16.7744C13.0599 16.5557 13.4089 16.3239 13.6953 16.0791C13.987 15.8291 14.2188 15.5974 14.3906 15.3838C14.5677 15.1651 14.6901 14.9906 14.7578 14.8604L13.7812 14.8369C14.1198 15.1911 14.4036 15.5609 14.6328 15.9463C14.8672 16.3265 15.0703 16.7406 15.2422 17.1885C15.4193 17.6312 15.5938 18.1208 15.7656 18.6572C15.8281 18.8447 15.9167 18.975 16.0312 19.0479C16.151 19.126 16.2786 19.1651 16.4141 19.1651C16.7005 19.1651 16.9453 19.0531 17.1484 18.8291C17.3516 18.6052 17.4531 18.3213 17.4531 17.9776C17.4531 17.7067 17.3698 17.3994 17.2031 17.0557C17.0417 16.7119 16.8333 16.363 16.5781 16.0088C16.3281 15.6494 16.0677 15.3187 15.7969 15.0166C15.5312 14.7093 15.2995 14.4593 15.1016 14.2666C14.5286 13.7406 13.9167 13.3343 13.2656 13.0479C12.6198 12.7614 11.9609 12.5427 11.2891 12.3916C10.6224 12.2406 9.96875 12.1104 9.32812 12.001C8.69271 11.8916 8.09635 11.7536 7.53906 11.5869C6.98698 11.4151 6.5026 11.1677 6.08594 10.8447C5.66927 10.5218 5.34896 10.0713 5.125 9.49318C5.07292 9.35777 5.09896 9.2536 5.20312 9.18068C5.3125 9.10256 5.43229 9.1286 5.5625 9.25881C6.01042 9.70673 6.47917 10.0375 6.96875 10.251C7.45833 10.4593 7.96354 10.6052 8.48438 10.6885C9.00521 10.7666 9.53646 10.8265 10.0781 10.8682C10.6198 10.9099 11.1693 10.9828 11.7266 11.0869C12.2839 11.1911 12.8438 11.3708 13.4062 11.626C13.974 11.8812 14.5391 12.2692 15.1016 12.7901C15.2318 12.9046 15.362 12.9411 15.4922 12.8994C15.6276 12.8526 15.7057 12.7588 15.7266 12.6182C15.7474 12.5088 15.763 12.3708 15.7734 12.2041C15.7839 12.0322 15.7891 11.8604 15.7891 11.6885C15.7891 10.4177 15.5156 9.36558 14.9688 8.53225C14.4219 7.6937 13.6667 7.0687 12.7031 6.65725C11.7448 6.24579 10.6432 6.04006 9.39844 6.04006C8.98177 6.04006 8.54948 6.0661 8.10156 6.11818C7.65365 6.16506 7.21094 6.21454 6.77344 6.26662C6.33594 6.3187 5.92448 6.34475 5.53906 6.34475C5.1224 6.34475 4.69271 6.32131 4.25 6.27443C3.80729 6.22235 3.3724 6.10516 2.94531 5.92287C2.51823 5.73537 2.11719 5.4411 1.74219 5.04006C1.58073 4.87339 1.40104 4.80829 1.20312 4.84475C1.00521 4.876 0.875 5.02443 0.8125 5.29006Z"
		fill="currentColor"
	/>
</svg>
