<svg
	color="rgb(var(--foreground, 0, 0, 0))"
	viewBox="0 0 17 24"
	fill="none"
	xmlns="http://www.w3.org/2000/svg"
>
	<path
		d="M0.03125 7.96056C0.03125 9.4189 0.239583 10.7418 0.65625 11.9293C1.07292 13.1116 1.66927 14.1272 2.44531 14.9762C3.22656 15.8251 4.16146 16.4788 5.25 16.9371C6.33854 17.3903 7.55469 17.6168 8.89844 17.6168C9.83594 17.6168 10.6953 17.4736 11.4766 17.1871C12.2578 16.9007 12.9323 16.497 13.5 15.9762C14.0729 15.4554 14.5156 14.8382 14.8281 14.1246C15.1458 13.4111 15.3047 12.6272 15.3047 11.7731C15.3047 10.9501 15.1458 10.1949 14.8281 9.50744C14.5156 8.81473 14.0729 8.21577 13.5 7.71056C12.9323 7.20015 12.2578 6.80692 11.4766 6.53088C10.7005 6.24963 9.85156 6.109 8.92969 6.109C8.28906 6.109 7.64062 6.1689 6.98438 6.28869C6.33333 6.40848 5.65104 6.46838 4.9375 6.46838C4.33333 6.46838 3.77344 6.36681 3.25781 6.16369C2.74219 5.96056 2.26823 5.61421 1.83594 5.12463C1.6849 4.94754 1.5 4.83035 1.28125 4.77306C1.0625 4.71577 0.856771 4.73921 0.664062 4.84338C0.471354 4.94754 0.338542 5.14806 0.265625 5.44494C0.203125 5.70015 0.153646 5.99702 0.117188 6.33556C0.0859375 6.6741 0.0625 6.99442 0.046875 7.2965C0.0364583 7.59858 0.03125 7.81994 0.03125 7.96056ZM1.21094 7.96056C1.21094 7.70015 1.21354 7.43452 1.21875 7.16369C1.22917 6.89285 1.2526 6.65327 1.28906 6.44494C1.30469 6.34077 1.35156 6.32515 1.42969 6.39806C1.86719 6.7991 2.40365 7.109 3.03906 7.32775C3.67448 7.54129 4.30729 7.64806 4.9375 7.64806C5.35938 7.64806 5.76042 7.62723 6.14062 7.58556C6.52604 7.53869 6.89062 7.49181 7.23438 7.44494C7.54688 7.40327 7.84115 7.36681 8.11719 7.33556C8.39323 7.30431 8.66406 7.28869 8.92969 7.28869C9.94531 7.28869 10.8438 7.4814 11.625 7.86681C12.4062 8.24702 13.0182 8.77567 13.4609 9.45275C13.9036 10.1246 14.125 10.8981 14.125 11.7731C14.125 12.6897 13.9036 13.4996 13.4609 14.2028C13.0182 14.9007 12.4036 15.4475 11.6172 15.8434C10.8359 16.2392 9.92969 16.4371 8.89844 16.4371C7.72135 16.4371 6.65885 16.2392 5.71094 15.8434C4.76823 15.4475 3.96094 14.8798 3.28906 14.1403C2.61719 13.4007 2.10156 12.51 1.74219 11.4684C1.38802 10.4267 1.21094 9.25744 1.21094 7.96056ZM4.60156 9.78088C4.76302 10.2861 5.02604 10.7028 5.39062 11.0309C5.76042 11.3538 6.20312 11.6194 6.71875 11.8278C7.23438 12.0361 7.79948 12.2158 8.41406 12.3668C9.07552 12.5231 9.65625 12.6793 10.1562 12.8356C10.6562 12.9918 11.0938 13.1611 11.4688 13.3434C11.849 13.5257 12.1875 13.7392 12.4844 13.984C12.7865 14.2236 13.0703 14.51 13.3359 14.8434C13.6276 15.2028 13.8568 15.5856 14.0234 15.9918C14.1953 16.3981 14.3438 16.8304 14.4688 17.2887C14.5938 17.747 14.737 18.234 14.8984 18.7496C14.9609 18.9371 15.0495 19.0673 15.1641 19.1403C15.2839 19.2184 15.4115 19.2574 15.5469 19.2574C15.8333 19.2574 16.0781 19.1403 16.2812 18.9059C16.4844 18.6715 16.5859 18.3929 16.5859 18.0699C16.5859 17.7991 16.5182 17.4892 16.3828 17.1403C16.2526 16.7913 16.0807 16.4293 15.8672 16.0543C15.6589 15.6793 15.4349 15.3147 15.1953 14.9606C14.9609 14.6012 14.7422 14.2835 14.5391 14.0074C14.013 13.3095 13.2865 12.7496 12.3594 12.3278C11.4323 11.9059 10.25 11.5778 8.8125 11.3434C8.31771 11.26 7.84375 11.1533 7.39062 11.0231C6.94271 10.8876 6.52604 10.7028 6.14062 10.4684C5.76042 10.234 5.41927 9.9215 5.11719 9.53088C5.03385 9.41629 4.94531 9.3616 4.85156 9.36681C4.75781 9.36681 4.68229 9.40588 4.625 9.484C4.56771 9.56213 4.5599 9.66108 4.60156 9.78088Z"
		fill="currentColor"
	/>
</svg>
