<svg
	color="rgb(var(--foreground, 0, 0, 0))"
	viewBox="0 0 16 24"
	fill="none"
	xmlns="http://www.w3.org/2000/svg"
>
	<path
		d="M3.5625 19.1914H12.1328C12.9036 19.1914 13.4896 18.9935 13.8906 18.5977C14.2917 18.207 14.4922 17.6289 14.4922 16.8633V9.38672H1.20312V16.8633C1.20312 17.6341 1.40365 18.2148 1.80469 18.6055C2.20573 18.9961 2.79167 19.1914 3.5625 19.1914ZM5.27344 12.207C5.10677 12.207 4.97135 12.1549 4.86719 12.0508C4.76823 11.9466 4.71875 11.8086 4.71875 11.6367V11.3945C4.71875 11.2227 4.76823 11.0872 4.86719 10.9883C4.97135 10.8841 5.10677 10.832 5.27344 10.832H10.4297C10.5964 10.832 10.7318 10.8841 10.8359 10.9883C10.9401 11.0872 10.9922 11.2227 10.9922 11.3945V11.6367C10.9922 11.8086 10.9401 11.9466 10.8359 12.0508C10.7318 12.1549 10.5964 12.207 10.4297 12.207H5.27344ZM1.36719 8.31641H14.3281C14.7708 8.31641 15.1016 8.19401 15.3203 7.94922C15.5443 7.69922 15.6562 7.35547 15.6562 6.91797V6.20703C15.6562 5.76953 15.5443 5.42839 15.3203 5.18359C15.1016 4.93359 14.7708 4.80859 14.3281 4.80859H1.36719C0.950521 4.80859 0.625 4.93359 0.390625 5.18359C0.15625 5.42839 0.0390625 5.76953 0.0390625 6.20703V6.91797C0.0390625 7.35547 0.148438 7.69922 0.367188 7.94922C0.591146 8.19401 0.924479 8.31641 1.36719 8.31641Z"
		fill="currentColor"
	/>
</svg>
