<svg
	color="rgb(var(--foreground, 0, 0, 0))"
	viewBox="0 0 17 24"
	fill="none"
	xmlns="http://www.w3.org/2000/svg"
>
	<path
		d="M3.94531 19.1914H12.5156C13.2865 19.1914 13.8724 18.9935 14.2734 18.5977C14.6745 18.207 14.875 17.6289 14.875 16.8633V8.51953H13.6172V16.9258C13.6172 17.2747 13.5208 17.543 13.3281 17.7305C13.1406 17.918 12.875 18.0117 12.5312 18.0117H3.92969C3.58073 18.0117 3.3125 17.918 3.125 17.7305C2.9375 17.543 2.84375 17.2747 2.84375 16.9258V8.51953H1.58594V16.8633C1.58594 17.6341 1.78646 18.2148 2.1875 18.6055C2.58854 18.9961 3.17448 19.1914 3.94531 19.1914ZM5.65625 12.2539H10.8125C10.9792 12.2539 11.1146 12.2018 11.2188 12.0977C11.3229 11.9935 11.375 11.8555 11.375 11.6836V11.4336C11.375 11.2617 11.3229 11.1263 11.2188 11.0273C11.1146 10.9232 10.9792 10.8711 10.8125 10.8711H5.65625C5.48958 10.8711 5.35417 10.9232 5.25 11.0273C5.15104 11.1263 5.10156 11.2617 5.10156 11.4336V11.6836C5.10156 11.8555 5.15104 11.9935 5.25 12.0977C5.35417 12.2018 5.48958 12.2539 5.65625 12.2539ZM1.90625 9.10547H14.5547C15.0339 9.10547 15.401 8.96484 15.6562 8.68359C15.9115 8.40234 16.0391 8.02474 16.0391 7.55078V6.36328C16.0391 5.88411 15.9115 5.50651 15.6562 5.23047C15.401 4.94922 15.0339 4.80859 14.5547 4.80859H1.90625C1.44792 4.80859 1.08594 4.94922 0.820312 5.23047C0.554688 5.50651 0.421875 5.88411 0.421875 6.36328V7.55078C0.421875 8.02474 0.549479 8.40234 0.804688 8.68359C1.0599 8.96484 1.42708 9.10547 1.90625 9.10547ZM2.22656 7.92578C2.02865 7.92578 1.88802 7.88151 1.80469 7.79297C1.72135 7.70443 1.67969 7.5638 1.67969 7.37109V6.54297C1.67969 6.34505 1.72135 6.20443 1.80469 6.12109C1.88802 6.03255 2.02865 5.98828 2.22656 5.98828H14.2422C14.4401 5.98828 14.5781 6.03255 14.6562 6.12109C14.7396 6.20443 14.7812 6.34505 14.7812 6.54297V7.37109C14.7812 7.5638 14.7396 7.70443 14.6562 7.79297C14.5781 7.88151 14.4401 7.92578 14.2422 7.92578H2.22656Z"
		fill="currentColor"
	/>
</svg>
