<svg
	color="rgb(var(--foreground, 0, 0, 0))"
	viewBox="0 0 16 24"
	fill="none"
	xmlns="http://www.w3.org/2000/svg"
>
	<path
		d="M13.3047 14.6758V5.86328C13.3047 5.11849 13.1198 4.55859 12.75 4.18359C12.3802 3.80859 11.8281 3.62109 11.0938 3.62109H4.98438C4.08333 3.62109 3.46875 3.92057 3.14062 4.51953L13.3047 14.6758ZM2.77344 8.41797V19.4258C2.77344 19.7279 2.84635 19.9622 2.99219 20.1289C3.13802 20.2956 3.34115 20.3789 3.60156 20.3789C3.78906 20.3789 3.96615 20.3138 4.13281 20.1836C4.29948 20.0586 4.5599 19.8242 4.91406 19.4805L7.96875 16.4727C8.01562 16.4206 8.0625 16.4206 8.10938 16.4727L11.1641 19.4805C11.5182 19.819 11.776 20.0534 11.9375 20.1836C12.1042 20.3138 12.2839 20.3789 12.4766 20.3789C12.737 20.3789 12.9401 20.2956 13.0859 20.1289C13.2318 19.9622 13.3047 19.7279 13.3047 19.4258V18.9648L2.77344 8.41797ZM14.7266 19.0352C14.8411 19.1549 14.9818 19.2148 15.1484 19.2148C15.3203 19.2148 15.4635 19.1549 15.5781 19.0352C15.6927 18.9154 15.75 18.7721 15.75 18.6055C15.75 18.444 15.6927 18.3034 15.5781 18.1836L1.76562 4.36328C1.64583 4.2487 1.5026 4.19141 1.33594 4.19141C1.16927 4.1862 1.02604 4.24349 0.90625 4.36328C0.791667 4.47786 0.734375 4.62109 0.734375 4.79297C0.734375 4.95964 0.791667 5.10026 0.90625 5.21484L14.7266 19.0352Z"
		fill="currentColor"
	/>
</svg>
