<svg
	color="rgb(var(--foreground, 0, 0, 0))"
	viewBox="0 0 12 24"
	fill="none"
	xmlns="http://www.w3.org/2000/svg"
>
	<path
		d="M1.48438 20.3789C1.67188 20.3789 1.84896 20.3138 2.01562 20.1836C2.18229 20.0586 2.44271 19.8242 2.79688 19.4805L5.85156 16.4727C5.89844 16.4206 5.94531 16.4206 5.99219 16.4727L9.04688 19.4805C9.40104 19.819 9.65885 20.0534 9.82031 20.1836C9.98698 20.3138 10.1667 20.3789 10.3594 20.3789C10.6198 20.3789 10.8229 20.2956 10.9688 20.1289C11.1146 19.9622 11.1875 19.7279 11.1875 19.4258V5.86328C11.1875 5.11849 11.0026 4.55859 10.6328 4.18359C10.263 3.80859 9.71094 3.62109 8.97656 3.62109H2.86719C2.13281 3.62109 1.58073 3.80859 1.21094 4.18359C0.841146 4.55859 0.65625 5.11849 0.65625 5.86328V19.4258C0.65625 19.7279 0.729167 19.9622 0.875 20.1289C1.02083 20.2956 1.22396 20.3789 1.48438 20.3789ZM2.125 18.2695C2.06771 18.3216 2.01302 18.3398 1.96094 18.3242C1.91406 18.3138 1.89062 18.2695 1.89062 18.1914V5.87891C1.89062 5.54036 1.97656 5.28516 2.14844 5.11328C2.32552 4.94141 2.58594 4.85547 2.92969 4.85547H8.92188C9.26042 4.85547 9.51562 4.94141 9.6875 5.11328C9.86458 5.28516 9.95312 5.54036 9.95312 5.87891V18.1914C9.95312 18.2695 9.92708 18.3138 9.875 18.3242C9.82812 18.3398 9.77604 18.3216 9.71875 18.2695L6.33594 14.9883C6.21094 14.8685 6.07292 14.8086 5.92188 14.8086C5.77083 14.8086 5.63281 14.8685 5.50781 14.9883L2.125 18.2695Z"
		fill="currentColor"
	/>
</svg>
