<svg
	color="rgb(var(--foreground, 0, 0, 0))"
	viewBox="0 0 11 24"
	fill="none"
	xmlns="http://www.w3.org/2000/svg"
>
	<path
		d="M1.01562 20.3789C1.20312 20.3789 1.38021 20.3138 1.54688 20.1836C1.71354 20.0586 1.97396 19.8242 2.32812 19.4805L5.38281 16.4727C5.42969 16.4206 5.47656 16.4206 5.52344 16.4727L8.57812 19.4805C8.93229 19.819 9.1901 20.0534 9.35156 20.1836C9.51823 20.3138 9.69792 20.3789 9.89062 20.3789C10.151 20.3789 10.3542 20.2956 10.5 20.1289C10.6458 19.9622 10.7188 19.7279 10.7188 19.4258V5.86328C10.7188 5.11849 10.5339 4.55859 10.1641 4.18359C9.79427 3.80859 9.24219 3.62109 8.50781 3.62109H2.39844C1.66406 3.62109 1.11198 3.80859 0.742188 4.18359C0.372396 4.55859 0.1875 5.11849 0.1875 5.86328V19.4258C0.1875 19.7279 0.260417 19.9622 0.40625 20.1289C0.552083 20.2956 0.755208 20.3789 1.01562 20.3789Z"
		fill="currentColor"
	/>
</svg>
