<svg
	color="rgb(var(--foreground, 0, 0, 0))"
	viewBox="0 0 16 24"
	fill="none"
	xmlns="http://www.w3.org/2000/svg"
>
	<path
		d="M13.2891 14.6758V5.86328C13.2891 5.11849 13.1042 4.55859 12.7344 4.18359C12.3646 3.80859 11.8125 3.62109 11.0781 3.62109H4.96875C4.06771 3.62109 3.45573 3.91797 3.13281 4.51172L4.09375 5.46484C4.20833 5.05859 4.52083 4.85547 5.03125 4.85547H11.0234C11.362 4.85547 11.6172 4.94141 11.7891 5.11328C11.9661 5.28516 12.0547 5.54036 12.0547 5.87891V13.4414L13.2891 14.6758ZM3.58594 20.3789C3.77344 20.3789 3.95052 20.3138 4.11719 20.1836C4.28385 20.0586 4.54427 19.8242 4.89844 19.4805L7.95312 16.4727C8 16.4206 8.04688 16.4206 8.09375 16.4727L11.1484 19.4805C11.5026 19.819 11.7604 20.0534 11.9219 20.1836C12.0885 20.3138 12.2682 20.3789 12.4609 20.3789C12.7214 20.3789 12.9245 20.3008 13.0703 20.1445C13.2161 19.9935 13.2839 19.8034 13.2734 19.5742V19.168L11.8828 17.7773V18.2539C11.8776 18.2695 11.8672 18.2773 11.8516 18.2773C11.8411 18.2826 11.8255 18.2747 11.8047 18.2539L8.4375 14.9883C8.3125 14.8685 8.17448 14.8086 8.02344 14.8086C7.8724 14.8086 7.73438 14.8685 7.60938 14.9883L4.22656 18.2695C4.16927 18.3216 4.11458 18.3398 4.0625 18.3242C4.01562 18.3138 3.99219 18.2695 3.99219 18.1914V9.72266L2.75781 8.48828V19.4258C2.75781 19.7279 2.83073 19.9622 2.97656 20.1289C3.1224 20.2956 3.32552 20.3789 3.58594 20.3789ZM14.7109 19.0352C14.8255 19.1549 14.9661 19.2148 15.1328 19.2148C15.3047 19.2148 15.4479 19.1549 15.5625 19.0352C15.6771 18.9154 15.7344 18.7721 15.7344 18.6055C15.7344 18.444 15.6771 18.3034 15.5625 18.1836L1.75 4.36328C1.63021 4.2487 1.48698 4.19141 1.32031 4.19141C1.15365 4.1862 1.01042 4.24349 0.890625 4.36328C0.776042 4.47786 0.71875 4.62109 0.71875 4.79297C0.71875 4.95964 0.776042 5.10026 0.890625 5.21484L14.7109 19.0352Z"
		fill="currentColor"
	/>
</svg>
