<svg
	color="rgb(var(--foreground, 0, 0, 0))"
	viewBox="0 0 18 24"
	fill="none"
	xmlns="http://www.w3.org/2000/svg"
>
	<path
		d="M9.09375 11.8203C10.1042 11.8203 11.0911 11.7708 12.0547 11.6719C13.0234 11.5677 13.9818 11.3984 14.9297 11.1641C15.8828 10.9297 16.8359 10.6146 17.7891 10.2188V9.58594C17.7891 8.78385 17.5885 8.1875 17.1875 7.79688C16.7865 7.40104 16.1823 7.20312 15.375 7.20312H13.0547V6.58594C13.0547 5.85156 12.8646 5.3099 12.4844 4.96094C12.1094 4.60677 11.5703 4.42969 10.8672 4.42969H7.3125C6.64583 4.42969 6.11458 4.60677 5.71875 4.96094C5.32812 5.3099 5.13281 5.85156 5.13281 6.58594V7.20312H2.80469C2.0026 7.20312 1.39844 7.40104 0.992188 7.79688C0.591146 8.1875 0.390625 8.78385 0.390625 9.58594V10.2188C1.34896 10.6146 2.30208 10.9297 3.25 11.1641C4.19792 11.3984 5.15365 11.5677 6.11719 11.6719C7.08594 11.7708 8.07812 11.8203 9.09375 11.8203ZM6.34375 7.20312V6.5C6.34375 6.20312 6.42708 5.97396 6.59375 5.8125C6.76042 5.65104 6.99479 5.57031 7.29688 5.57031H10.8828C11.1901 5.57031 11.4271 5.65104 11.5938 5.8125C11.7604 5.97396 11.8438 6.20312 11.8438 6.5V7.20312H6.34375ZM2.80469 19.5703H15.375C16.1823 19.5703 16.7865 19.3724 17.1875 18.9766C17.5885 18.5807 17.7891 17.9844 17.7891 17.1875V11.5C17.0286 11.776 16.2786 12.0078 15.5391 12.1953C14.8047 12.3828 14.0729 12.5339 13.3438 12.6484C12.6198 12.7578 11.8958 12.8385 11.1719 12.8906V13.5234C11.1719 14.0911 10.8828 14.375 10.3047 14.375H7.875C7.30208 14.375 7.01562 14.0911 7.01562 13.5234V12.8906C6.28646 12.8385 5.55729 12.7578 4.82812 12.6484C4.10417 12.5339 3.3724 12.3828 2.63281 12.1953C1.89844 12.0078 1.15104 11.776 0.390625 11.5V17.1875C0.390625 17.9844 0.591146 18.5807 0.992188 18.9766C1.39844 19.3724 2.0026 19.5703 2.80469 19.5703Z"
		fill="currentColor"
	/>
</svg>
