<svg
	color="rgb(var(--foreground, 0, 0, 0))"
	viewBox="0 0 19 24"
	fill="none"
	xmlns="http://www.w3.org/2000/svg"
>
	<path
		d="M3.40625 19.5703H15.9766C16.7839 19.5703 17.388 19.3724 17.7891 18.9766C18.1901 18.5807 18.3906 17.9844 18.3906 17.1875V9.58594C18.3906 8.78385 18.1901 8.1875 17.7891 7.79688C17.388 7.40104 16.7839 7.20312 15.9766 7.20312H3.40625C2.60417 7.20312 2 7.40104 1.59375 7.79688C1.19271 8.1875 0.992188 8.78385 0.992188 9.58594V17.1875C0.992188 17.9844 1.19271 18.5807 1.59375 18.9766C2 19.3724 2.60417 19.5703 3.40625 19.5703ZM3.42188 18.3203C3.04167 18.3203 2.75 18.2214 2.54688 18.0234C2.34896 17.8255 2.25 17.526 2.25 17.125V9.64844C2.25 9.2474 2.34896 8.94792 2.54688 8.75C2.75 8.55208 3.04167 8.45312 3.42188 8.45312H15.9609C16.3464 8.45312 16.638 8.55208 16.8359 8.75C17.0339 8.94792 17.1328 9.2474 17.1328 9.64844V17.125C17.1328 17.526 17.0339 17.8255 16.8359 18.0234C16.638 18.2214 16.3464 18.3203 15.9609 18.3203H3.42188ZM1.64062 11.7422C2.84896 12.1589 4.13021 12.4714 5.48438 12.6797C6.84375 12.888 8.2474 12.9922 9.69531 12.9922C11.1432 12.9922 12.5443 12.888 13.8984 12.6797C15.2526 12.4714 16.5339 12.1589 17.7422 11.7422V10.4062C16.5599 10.8646 15.2917 11.2083 13.9375 11.4375C12.5833 11.6667 11.1693 11.7812 9.69531 11.7812C8.21615 11.7812 6.79948 11.6667 5.44531 11.4375C4.09115 11.2083 2.82292 10.8646 1.64062 10.4062V11.7422ZM8.47656 14.3984H10.9062C11.4844 14.3984 11.7734 14.1146 11.7734 13.5469V12.3516H7.61719V13.5469C7.61719 14.1146 7.90365 14.3984 8.47656 14.3984ZM5.73438 7.88281H6.94531V6.5C6.94531 6.20312 7.02865 5.97396 7.19531 5.8125C7.36198 5.65104 7.59635 5.57031 7.89844 5.57031H11.4844C11.7917 5.57031 12.0286 5.65104 12.1953 5.8125C12.362 5.97396 12.4453 6.20312 12.4453 6.5V7.86719H13.6562V6.58594C13.6562 5.85156 13.4661 5.3099 13.0859 4.96094C12.7109 4.60677 12.1719 4.42969 11.4688 4.42969H7.91406C7.2474 4.42969 6.71615 4.60677 6.32031 4.96094C5.92969 5.3099 5.73438 5.85156 5.73438 6.58594V7.88281Z"
		fill="currentColor"
	/>
</svg>
