<svg
	color="rgb(var(--foreground, 0, 0, 0))"
	viewBox="0 0 16 24"
	fill="none"
	xmlns="http://www.w3.org/2000/svg"
>
	<path
		d="M2.875 19.1914H13.5469C14.3646 19.1914 14.9766 18.9883 15.3828 18.582C15.7891 18.181 15.9922 17.5768 15.9922 16.7695V7.23047C15.9922 6.42318 15.7891 5.81901 15.3828 5.41797C14.9766 5.01172 14.3646 4.80859 13.5469 4.80859H2.875C2.05729 4.80859 1.44271 5.01172 1.03125 5.41797C0.625 5.81901 0.421875 6.42318 0.421875 7.23047V16.7695C0.421875 17.5768 0.625 18.181 1.03125 18.582C1.44271 18.9883 2.05729 19.1914 2.875 19.1914ZM2.75781 17.9336C2.41406 17.9336 2.14844 17.8398 1.96094 17.6523C1.77344 17.4701 1.67969 17.1992 1.67969 16.8398V9.47266C1.67969 9.11328 1.77344 8.84245 1.96094 8.66016C2.14844 8.47266 2.41406 8.37891 2.75781 8.37891H13.6484C13.9974 8.37891 14.2656 8.47266 14.4531 8.66016C14.6406 8.84245 14.7344 9.11328 14.7344 9.47266V16.8398C14.7344 17.1992 14.6406 17.4701 14.4531 17.6523C14.2656 17.8398 13.9974 17.9336 13.6484 17.9336H2.75781ZM6.6875 11.1914H7.14844C7.28385 11.1914 7.3776 11.1654 7.42969 11.1133C7.48698 11.0612 7.51562 10.9674 7.51562 10.832V10.3711C7.51562 10.2357 7.48698 10.1445 7.42969 10.0977C7.3776 10.0456 7.28385 10.0195 7.14844 10.0195H6.6875C6.55208 10.0195 6.45573 10.0456 6.39844 10.0977C6.34635 10.1445 6.32031 10.2357 6.32031 10.3711V10.832C6.32031 10.9674 6.34635 11.0612 6.39844 11.1133C6.45573 11.1654 6.55208 11.1914 6.6875 11.1914ZM9.28125 11.1914H9.74219C9.88281 11.1914 9.97917 11.1654 10.0312 11.1133C10.0833 11.0612 10.1094 10.9674 10.1094 10.832V10.3711C10.1094 10.2357 10.0833 10.1445 10.0312 10.0977C9.97917 10.0456 9.88281 10.0195 9.74219 10.0195H9.28125C9.14583 10.0195 9.05208 10.0456 9 10.0977C8.94792 10.1445 8.92188 10.2357 8.92188 10.3711V10.832C8.92188 10.9674 8.94792 11.0612 9 11.1133C9.05208 11.1654 9.14583 11.1914 9.28125 11.1914ZM11.8828 11.1914H12.3359C12.4766 11.1914 12.5729 11.1654 12.625 11.1133C12.6771 11.0612 12.7031 10.9674 12.7031 10.832V10.3711C12.7031 10.2357 12.6771 10.1445 12.625 10.0977C12.5729 10.0456 12.4766 10.0195 12.3359 10.0195H11.8828C11.7422 10.0195 11.6458 10.0456 11.5938 10.0977C11.5417 10.1445 11.5156 10.2357 11.5156 10.3711V10.832C11.5156 10.9674 11.5417 11.0612 11.5938 11.1133C11.6458 11.1654 11.7422 11.1914 11.8828 11.1914ZM4.09375 13.7461H4.55469C4.6901 13.7461 4.78385 13.7201 4.83594 13.668C4.88802 13.6159 4.91406 13.5221 4.91406 13.3867V12.9336C4.91406 12.793 4.88802 12.6992 4.83594 12.6523C4.78385 12.6003 4.6901 12.5742 4.55469 12.5742H4.09375C3.95312 12.5742 3.85677 12.6003 3.80469 12.6523C3.7526 12.6992 3.72656 12.793 3.72656 12.9336V13.3867C3.72656 13.5221 3.7526 13.6159 3.80469 13.668C3.85677 13.7201 3.95312 13.7461 4.09375 13.7461ZM6.6875 13.7461H7.14844C7.28385 13.7461 7.3776 13.7201 7.42969 13.668C7.48698 13.6159 7.51562 13.5221 7.51562 13.3867V12.9336C7.51562 12.793 7.48698 12.6992 7.42969 12.6523C7.3776 12.6003 7.28385 12.5742 7.14844 12.5742H6.6875C6.55208 12.5742 6.45573 12.6003 6.39844 12.6523C6.34635 12.6992 6.32031 12.793 6.32031 12.9336V13.3867C6.32031 13.5221 6.34635 13.6159 6.39844 13.668C6.45573 13.7201 6.55208 13.7461 6.6875 13.7461ZM9.28125 13.7461H9.74219C9.88281 13.7461 9.97917 13.7201 10.0312 13.668C10.0833 13.6159 10.1094 13.5221 10.1094 13.3867V12.9336C10.1094 12.793 10.0833 12.6992 10.0312 12.6523C9.97917 12.6003 9.88281 12.5742 9.74219 12.5742H9.28125C9.14583 12.5742 9.05208 12.6003 9 12.6523C8.94792 12.6992 8.92188 12.793 8.92188 12.9336V13.3867C8.92188 13.5221 8.94792 13.6159 9 13.668C9.05208 13.7201 9.14583 13.7461 9.28125 13.7461ZM11.8828 13.7461H12.3359C12.4766 13.7461 12.5729 13.7201 12.625 13.668C12.6771 13.6159 12.7031 13.5221 12.7031 13.3867V12.9336C12.7031 12.793 12.6771 12.6992 12.625 12.6523C12.5729 12.6003 12.4766 12.5742 12.3359 12.5742H11.8828C11.7422 12.5742 11.6458 12.6003 11.5938 12.6523C11.5417 12.6992 11.5156 12.793 11.5156 12.9336V13.3867C11.5156 13.5221 11.5417 13.6159 11.5938 13.668C11.6458 13.7201 11.7422 13.7461 11.8828 13.7461ZM4.09375 16.3008H4.55469C4.6901 16.3008 4.78385 16.2773 4.83594 16.2305C4.88802 16.1784 4.91406 16.082 4.91406 15.9414V15.4883C4.91406 15.3477 4.88802 15.2539 4.83594 15.207C4.78385 15.1549 4.6901 15.1289 4.55469 15.1289H4.09375C3.95312 15.1289 3.85677 15.1549 3.80469 15.207C3.7526 15.2539 3.72656 15.3477 3.72656 15.4883V15.9414C3.72656 16.082 3.7526 16.1784 3.80469 16.2305C3.85677 16.2773 3.95312 16.3008 4.09375 16.3008ZM6.6875 16.3008H7.14844C7.28385 16.3008 7.3776 16.2773 7.42969 16.2305C7.48698 16.1784 7.51562 16.082 7.51562 15.9414V15.4883C7.51562 15.3477 7.48698 15.2539 7.42969 15.207C7.3776 15.1549 7.28385 15.1289 7.14844 15.1289H6.6875C6.55208 15.1289 6.45573 15.1549 6.39844 15.207C6.34635 15.2539 6.32031 15.3477 6.32031 15.4883V15.9414C6.32031 16.082 6.34635 16.1784 6.39844 16.2305C6.45573 16.2773 6.55208 16.3008 6.6875 16.3008ZM9.28125 16.3008H9.74219C9.88281 16.3008 9.97917 16.2773 10.0312 16.2305C10.0833 16.1784 10.1094 16.082 10.1094 15.9414V15.4883C10.1094 15.3477 10.0833 15.2539 10.0312 15.207C9.97917 15.1549 9.88281 15.1289 9.74219 15.1289H9.28125C9.14583 15.1289 9.05208 15.1549 9 15.207C8.94792 15.2539 8.92188 15.3477 8.92188 15.4883V15.9414C8.92188 16.082 8.94792 16.1784 9 16.2305C9.05208 16.2773 9.14583 16.3008 9.28125 16.3008Z"
		fill="currentColor"
	/>
</svg>
