<svg
	color="rgb(var(--foreground, 0, 0, 0))"
	viewBox="0 0 18 24"
	fill="none"
	xmlns="http://www.w3.org/2000/svg"
>
	<path
		d="M0.695312 7.48438C0.695312 7.71875 0.768229 7.90625 0.914062 8.04688C1.0599 8.1875 1.2526 8.25781 1.49219 8.25781H2.46094V5.73438C2.46094 5.48438 2.3724 5.27865 2.19531 5.11719C2.01823 4.95573 1.8125 4.875 1.57812 4.875C1.34375 4.86979 1.13802 4.95052 0.960938 5.11719C0.783854 5.27865 0.695312 5.48438 0.695312 5.73438V7.48438ZM2.71875 3.70312C3.02083 3.875 3.22917 4.08854 3.34375 4.34375C3.46354 4.59375 3.52344 4.92708 3.52344 5.34375V18.2578C3.52344 18.8099 3.66927 19.237 3.96094 19.5391C4.2526 19.8411 4.63802 19.9922 5.11719 19.9922C5.5651 19.9922 5.92448 19.8464 6.19531 19.5547C6.46615 19.263 6.60156 18.8516 6.60156 18.3203V16.1641C6.60156 15.6328 6.72656 15.2318 6.97656 14.9609C7.22656 14.6901 7.61979 14.5547 8.15625 14.5547H15.6797V6.15625C15.6797 5.33854 15.4766 4.72656 15.0703 4.32031C14.6693 3.90885 14.0651 3.70312 13.2578 3.70312H2.71875ZM6.53906 7.78125C6.53906 7.64583 6.58594 7.53385 6.67969 7.44531C6.77344 7.35156 6.89062 7.30469 7.03125 7.30469H12.4062C12.5469 7.30469 12.6615 7.35156 12.75 7.44531C12.8438 7.53385 12.8906 7.64583 12.8906 7.78125C12.8906 7.91667 12.8438 8.03125 12.75 8.125C12.6615 8.21875 12.5469 8.26562 12.4062 8.26562H7.03125C6.89062 8.26562 6.77344 8.21875 6.67969 8.125C6.58594 8.03125 6.53906 7.91667 6.53906 7.78125ZM6.53906 10.5234C6.53906 10.3828 6.58594 10.2656 6.67969 10.1719C6.77344 10.0781 6.89062 10.0312 7.03125 10.0312H9.83594C9.97656 10.0312 10.0911 10.0781 10.1797 10.1719C10.2734 10.2656 10.3203 10.3828 10.3203 10.5234C10.3203 10.6536 10.2734 10.7656 10.1797 10.8594C10.0911 10.9479 9.97656 10.9922 9.83594 10.9922H7.03125C6.89062 10.9922 6.77344 10.9479 6.67969 10.8594C6.58594 10.7656 6.53906 10.6536 6.53906 10.5234ZM6.92188 20.2969H14.8203C15.3151 20.2969 15.7474 20.1901 16.1172 19.9766C16.487 19.7682 16.7734 19.4714 16.9766 19.0859C17.1797 18.7057 17.2812 18.2578 17.2812 17.7422V16.3984C17.2812 16.1641 17.2083 15.9766 17.0625 15.8359C16.9219 15.6901 16.7292 15.6172 16.4844 15.6172H8.46875C8.22396 15.6172 8.02865 15.6901 7.88281 15.8359C7.73698 15.9766 7.66406 16.1641 7.66406 16.3984V17.9297C7.66406 18.3776 7.61719 18.7995 7.52344 19.1953C7.4349 19.5911 7.23438 19.9583 6.92188 20.2969Z"
		fill="currentColor"
	/>
</svg>
