<svg
	color="rgb(var(--foreground, 0, 0, 0))"
	viewBox="0 0 17 24"
	fill="none"
	xmlns="http://www.w3.org/2000/svg"
>
	<path
		d="M0.03125 7.48438C0.03125 7.71875 0.104167 7.90625 0.25 8.04688C0.395833 8.1875 0.588542 8.25781 0.828125 8.25781H2.85938V17.8438C2.85938 18.6615 3.0625 19.2734 3.46875 19.6797C3.875 20.0911 4.48698 20.2969 5.30469 20.2969H14.2344C14.7292 20.2969 15.1615 20.1901 15.5312 19.9766C15.901 19.7682 16.1875 19.4714 16.3906 19.0859C16.5938 18.7057 16.6953 18.2578 16.6953 17.7422V15.6172C16.6953 15.3828 16.6224 15.1953 16.4766 15.0547C16.3359 14.9141 16.1432 14.8438 15.8984 14.8438H15.25V6.15625C15.25 5.33854 15.0469 4.72656 14.6406 4.32031C14.2396 3.90885 13.6354 3.70312 12.8281 3.70312H2.07812C1.46875 3.70312 0.973958 3.89583 0.59375 4.28125C0.21875 4.66667 0.03125 5.1849 0.03125 5.83594V7.48438ZM4.11719 17.8516V5.83594C4.11719 5.67448 4.10938 5.52083 4.09375 5.375C4.07812 5.22917 4.05469 5.09115 4.02344 4.96094H12.7578C13.1641 4.96094 13.4714 5.0651 13.6797 5.27344C13.888 5.48177 13.9922 5.78125 13.9922 6.17188V14.8438H7.28125C7.03646 14.8438 6.84115 14.9141 6.69531 15.0547C6.54948 15.1953 6.47656 15.3828 6.47656 15.6172V17.8516C6.47656 18.2057 6.36458 18.4922 6.14062 18.7109C5.92188 18.9297 5.64323 19.0391 5.30469 19.0391C4.95573 19.0391 4.66927 18.9271 4.44531 18.7031C4.22656 18.4792 4.11719 18.1953 4.11719 17.8516ZM1.28906 7V5.83594C1.28906 5.5651 1.36198 5.35156 1.50781 5.19531C1.65885 5.03906 1.84896 4.96094 2.07812 4.96094C2.3125 4.96094 2.5 5.03906 2.64062 5.19531C2.78646 5.35156 2.85938 5.5651 2.85938 5.83594V7H1.28906ZM7.42969 19.0391C7.63281 18.6797 7.73438 18.2552 7.73438 17.7656V16.1016H15.4375V17.7422C15.4375 18.1276 15.3255 18.4401 15.1016 18.6797C14.8828 18.9193 14.5938 19.0391 14.2344 19.0391H7.42969ZM6.36719 10.9922H9.17188C9.3125 10.9922 9.42708 10.9479 9.51562 10.8594C9.60938 10.7656 9.65625 10.6536 9.65625 10.5234C9.65625 10.3828 9.60938 10.2656 9.51562 10.1719C9.42708 10.0781 9.3125 10.0312 9.17188 10.0312H6.36719C6.22656 10.0312 6.10938 10.0781 6.01562 10.1719C5.92188 10.2656 5.875 10.3828 5.875 10.5234C5.875 10.6536 5.92188 10.7656 6.01562 10.8594C6.10938 10.9479 6.22656 10.9922 6.36719 10.9922ZM6.36719 8.26562H11.7422C11.8828 8.26562 11.9974 8.21875 12.0859 8.125C12.1797 8.03125 12.2266 7.91667 12.2266 7.78125C12.2266 7.64583 12.1797 7.53385 12.0859 7.44531C11.9974 7.35156 11.8828 7.30469 11.7422 7.30469H6.36719C6.22656 7.30469 6.10938 7.35156 6.01562 7.44531C5.92188 7.53385 5.875 7.64583 5.875 7.78125C5.875 7.91667 5.92188 8.03125 6.01562 8.125C6.10938 8.21875 6.22656 8.26562 6.36719 8.26562Z"
		fill="currentColor"
	/>
</svg>
