<svg
	color="rgb(var(--foreground, 0, 0, 0))"
	viewBox="0 0 19 24"
	fill="none"
	xmlns="http://www.w3.org/2000/svg"
>
	<path
		d="M3.53906 18.5391H15.3281C15.9375 18.5391 16.474 18.4089 16.9375 18.1484C17.4062 17.888 17.7708 17.5286 18.0312 17.0703C18.2917 16.6068 18.4219 16.0729 18.4219 15.4688C18.4219 14.8646 18.2917 14.3307 18.0312 13.8672C17.7708 13.4036 17.4062 13.0417 16.9375 12.7812C16.474 12.5208 15.9375 12.3906 15.3281 12.3906H3.53906C2.92969 12.3906 2.39062 12.5208 1.92188 12.7812C1.45833 13.0417 1.09635 13.4036 0.835938 13.8672C0.575521 14.3307 0.445312 14.8646 0.445312 15.4688C0.445312 16.0729 0.575521 16.6068 0.835938 17.0703C1.09635 17.5286 1.45833 17.888 1.92188 18.1484C2.39062 18.4089 2.92969 18.5391 3.53906 18.5391ZM3.53906 11.3203H15.3281C16.0521 11.3203 16.7135 11.474 17.3125 11.7812L15.4453 7.27344C15.2005 6.6849 14.8307 6.23698 14.3359 5.92969C13.8464 5.61719 13.263 5.46094 12.5859 5.46094H6.28125C5.60938 5.46094 5.02604 5.61719 4.53125 5.92969C4.03646 6.23698 3.66667 6.6849 3.42188 7.27344L1.54688 11.7812C1.83854 11.6354 2.15104 11.5234 2.48438 11.4453C2.81771 11.362 3.16927 11.3203 3.53906 11.3203ZM14.2031 15.4688C14.2031 15.2031 14.3021 14.9714 14.5 14.7734C14.7031 14.5703 14.9427 14.4688 15.2188 14.4688C15.4844 14.4688 15.7161 14.5703 15.9141 14.7734C16.1172 14.9714 16.2188 15.2031 16.2188 15.4688C16.2188 15.75 16.1172 15.987 15.9141 16.1797C15.7161 16.3724 15.4844 16.4688 15.2188 16.4688C14.9427 16.474 14.7031 16.3802 14.5 16.1875C14.3021 15.9896 14.2031 15.75 14.2031 15.4688Z"
		fill="currentColor"
	/>
</svg>
