<svg
	color="rgb(var(--foreground, 0, 0, 0))"
	viewBox="0 0 19 24"
	fill="none"
	xmlns="http://www.w3.org/2000/svg"
>
	<path
		d="M0 15.1445C0 15.806 0.158854 16.4049 0.476562 16.9414C0.794271 17.4727 1.23177 17.8919 1.78906 18.1992C2.34635 18.5117 2.98698 18.668 3.71094 18.668H14.7344C15.4583 18.668 16.099 18.5117 16.6562 18.1992C17.2135 17.8919 17.651 17.4727 17.9688 16.9414C18.2865 16.4049 18.4453 15.806 18.4453 15.1445C18.4453 14.8529 18.4062 14.5742 18.3281 14.3086C18.2552 14.043 18.1693 13.7878 18.0703 13.543L15.4375 7.22266C15.1771 6.59766 14.7891 6.1263 14.2734 5.80859C13.763 5.49089 13.1589 5.33203 12.4609 5.33203H5.98438C5.28646 5.33203 4.67969 5.49089 4.16406 5.80859C3.65365 6.1263 3.26823 6.59766 3.00781 7.22266L0.367188 13.543C0.268229 13.7878 0.182292 14.043 0.109375 14.3086C0.0364583 14.5742 0 14.8529 0 15.1445ZM1.25781 15.1445C1.25781 14.7174 1.35938 14.332 1.5625 13.9883C1.76562 13.6445 2.05208 13.3737 2.42188 13.1758C2.79167 12.9779 3.22135 12.8789 3.71094 12.8789H14.7344C15.2292 12.8789 15.6589 12.9779 16.0234 13.1758C16.3932 13.3737 16.6797 13.6445 16.8828 13.9883C17.0859 14.332 17.1875 14.7174 17.1875 15.1445C17.1875 15.6289 17.0859 16.0404 16.8828 16.3789C16.6797 16.7122 16.3932 16.9674 16.0234 17.1445C15.6589 17.3216 15.2292 17.4102 14.7344 17.4102H3.71094C3.22135 17.4102 2.79167 17.3112 2.42188 17.1133C2.05208 16.9154 1.76562 16.6471 1.5625 16.3086C1.35938 15.9648 1.25781 15.5768 1.25781 15.1445ZM2.52344 11.8242L4.22656 7.54297C4.3724 7.17318 4.60156 6.89453 4.91406 6.70703C5.22656 6.51953 5.60417 6.42578 6.04688 6.42578H12.3984C12.8411 6.42578 13.2188 6.51953 13.5312 6.70703C13.8438 6.89453 14.0729 7.17318 14.2188 7.54297L15.9219 11.8242C15.7396 11.7565 15.5495 11.707 15.3516 11.6758C15.1536 11.6393 14.9479 11.6211 14.7344 11.6211H3.71094C3.4974 11.6211 3.29167 11.6393 3.09375 11.6758C2.89583 11.707 2.70573 11.7565 2.52344 11.8242ZM13.75 15.1445C13.75 15.4206 13.8464 15.6523 14.0391 15.8398C14.2318 16.0221 14.4635 16.1133 14.7344 16.1133C14.9948 16.1133 15.2214 16.0195 15.4141 15.832C15.6068 15.6445 15.7031 15.4154 15.7031 15.1445C15.7031 14.8841 15.6068 14.6576 15.4141 14.4648C15.2214 14.2721 14.9948 14.1758 14.7344 14.1758C14.4635 14.1758 14.2318 14.2721 14.0391 14.4648C13.8464 14.6576 13.75 14.8841 13.75 15.1445Z"
		fill="currentColor"
	/>
</svg>
