<svg
	color="rgb(var(--foreground, 0, 0, 0))"
	viewBox="0 0 14 24"
	fill="none"
	xmlns="http://www.w3.org/2000/svg"
>
	<path
		d="M3.17188 20.375H11.4688C12.276 20.375 12.8802 20.1693 13.2812 19.7578C13.6875 19.3516 13.8906 18.7422 13.8906 17.9297V6.07812C13.8906 5.26042 13.6875 4.64844 13.2812 4.24219C12.8802 3.83073 12.276 3.625 11.4688 3.625H9.14844C8.85677 3.625 8.71094 3.78125 8.71094 4.09375C8.71094 4.5 8.58333 4.83333 8.32812 5.09375C8.07292 5.34896 7.73698 5.47656 7.32031 5.47656C6.90365 5.47656 6.5651 5.34896 6.30469 5.09375C6.04948 4.83333 5.92188 4.5 5.92188 4.09375C5.92188 3.78125 5.77604 3.625 5.48438 3.625H3.17188C2.36458 3.625 1.75781 3.83073 1.35156 4.24219C0.950521 4.64844 0.75 5.26042 0.75 6.07812V17.9297C0.75 18.7422 0.950521 19.3516 1.35156 19.7578C1.75781 20.1693 2.36458 20.375 3.17188 20.375ZM3.23438 19.1172C2.82812 19.1172 2.52083 19.0104 2.3125 18.7969C2.10938 18.5885 2.00781 18.2917 2.00781 17.9062V6.10156C2.00781 5.71094 2.10938 5.41146 2.3125 5.20312C2.52083 4.98958 2.82812 4.88281 3.23438 4.88281H5.46094L4.73438 4.4375C4.80208 5.11979 5.07031 5.66667 5.53906 6.07812C6.01302 6.48958 6.60677 6.69531 7.32031 6.69531C8.03385 6.69531 8.625 6.48958 9.09375 6.07812C9.56771 5.66667 9.84115 5.11979 9.91406 4.4375L9.17969 4.88281H11.4062C11.8125 4.88281 12.1172 4.98958 12.3203 5.20312C12.5286 5.41146 12.6328 5.71094 12.6328 6.10156V17.9062C12.6328 18.2917 12.5286 18.5885 12.3203 18.7969C12.1172 19.0104 11.8125 19.1172 11.4062 19.1172H3.23438ZM4.35938 9.44531H10.2891C10.4245 9.44531 10.5365 9.39844 10.625 9.30469C10.7188 9.21094 10.7656 9.09375 10.7656 8.95312C10.7656 8.81771 10.7188 8.70573 10.625 8.61719C10.5365 8.52344 10.4245 8.47656 10.2891 8.47656H4.35938C4.21875 8.47656 4.10156 8.52344 4.00781 8.61719C3.91927 8.70573 3.875 8.81771 3.875 8.95312C3.875 9.09375 3.91927 9.21094 4.00781 9.30469C4.10156 9.39844 4.21875 9.44531 4.35938 9.44531ZM4.35938 12.2188H7.16406C7.30469 12.2188 7.41927 12.1745 7.50781 12.0859C7.60156 11.9922 7.64844 11.8776 7.64844 11.7422C7.64844 11.6068 7.60156 11.4922 7.50781 11.3984C7.41927 11.3047 7.30469 11.2578 7.16406 11.2578H4.35938C4.21875 11.2578 4.10156 11.3047 4.00781 11.3984C3.91927 11.4922 3.875 11.6068 3.875 11.7422C3.875 11.8776 3.91927 11.9922 4.00781 12.0859C4.10156 12.1745 4.21875 12.2188 4.35938 12.2188Z"
		fill="currentColor"
	/>
</svg>
