<svg
	color="rgb(var(--foreground, 0, 0, 0))"
	viewBox="0 0 15 24"
	fill="none"
	xmlns="http://www.w3.org/2000/svg"
>
	<path
		d="M3.3125 20.375H11.6094C12.4167 20.375 13.0208 20.1693 13.4219 19.7578C13.8281 19.3516 14.0312 18.7422 14.0312 17.9297V6.07812C14.0312 5.26042 13.8281 4.64844 13.4219 4.24219C13.0208 3.83073 12.4167 3.625 11.6094 3.625H9.625C9.48958 3.625 9.38021 3.66927 9.29688 3.75781C9.21875 3.84115 9.17969 3.95312 9.17969 4.09375C9.17969 4.10938 9.17969 4.1276 9.17969 4.14844C9.17969 4.16927 9.17969 4.1875 9.17969 4.20312C9.17969 4.70833 9.02083 5.10677 8.70312 5.39844C8.39062 5.6849 7.97656 5.82812 7.46094 5.82812C6.94531 5.82812 6.52865 5.6849 6.21094 5.39844C5.89844 5.10677 5.74219 4.70833 5.74219 4.20312C5.74219 4.1875 5.74219 4.16927 5.74219 4.14844C5.74219 4.1276 5.74219 4.10938 5.74219 4.09375C5.74219 3.95312 5.70052 3.84115 5.61719 3.75781C5.53906 3.66927 5.43229 3.625 5.29688 3.625H3.3125C2.50521 3.625 1.89844 3.83073 1.49219 4.24219C1.09115 4.64844 0.890625 5.26042 0.890625 6.07812V17.9297C0.890625 18.7422 1.09115 19.3516 1.49219 19.7578C1.89844 20.1693 2.50521 20.375 3.3125 20.375ZM4.5 9.44531C4.35938 9.44531 4.24219 9.39844 4.14844 9.30469C4.0599 9.21094 4.01562 9.09375 4.01562 8.95312C4.01562 8.81771 4.0599 8.70573 4.14844 8.61719C4.24219 8.52344 4.35938 8.47656 4.5 8.47656H10.4297C10.5651 8.47656 10.6771 8.52344 10.7656 8.61719C10.8594 8.70573 10.9062 8.81771 10.9062 8.95312C10.9062 9.09375 10.8594 9.21094 10.7656 9.30469C10.6771 9.39844 10.5651 9.44531 10.4297 9.44531H4.5ZM4.5 12.2188C4.35938 12.2188 4.24219 12.1745 4.14844 12.0859C4.0599 11.9922 4.01562 11.8776 4.01562 11.7422C4.01562 11.6068 4.0599 11.4922 4.14844 11.3984C4.24219 11.3047 4.35938 11.2578 4.5 11.2578H7.30469C7.44531 11.2578 7.5599 11.3047 7.64844 11.3984C7.74219 11.4922 7.78906 11.6068 7.78906 11.7422C7.78906 11.8776 7.74219 11.9922 7.64844 12.0859C7.5599 12.1745 7.44531 12.2188 7.30469 12.2188H4.5Z"
		fill="currentColor"
	/>
</svg>
