<svg
	color="rgb(var(--foreground, 0, 0, 0))"
	viewBox="0 0 16 24"
	fill="none"
	xmlns="http://www.w3.org/2000/svg"
>
	<path
		d="M2.73438 19.1914H13.4062C14.224 19.1914 14.8359 18.9883 15.2422 18.582C15.6484 18.181 15.8516 17.5768 15.8516 16.7695V7.23047C15.8516 6.42318 15.6484 5.81901 15.2422 5.41797C14.8359 5.01172 14.224 4.80859 13.4062 4.80859H2.73438C1.91667 4.80859 1.30208 5.01172 0.890625 5.41797C0.484375 5.81901 0.28125 6.42318 0.28125 7.23047V16.7695C0.28125 17.5768 0.484375 18.181 0.890625 18.582C1.30208 18.9883 1.91667 19.1914 2.73438 19.1914ZM2.61719 17.9336C2.27344 17.9336 2.00781 17.8398 1.82031 17.6523C1.63281 17.4701 1.53906 17.1992 1.53906 16.8398V9.47266C1.53906 9.11328 1.63281 8.84245 1.82031 8.66016C2.00781 8.47266 2.27344 8.37891 2.61719 8.37891H13.5078C13.8568 8.37891 14.125 8.47266 14.3125 8.66016C14.5 8.84245 14.5938 9.11328 14.5938 9.47266V16.8398C14.5938 17.1992 14.5 17.4701 14.3125 17.6523C14.125 17.8398 13.8568 17.9336 13.5078 17.9336H2.61719Z"
		fill="currentColor"
	/>
</svg>
