<svg
	color="rgb(var(--foreground, 0, 0, 0))"
	viewBox="0 0 17 24"
	fill="none"
	xmlns="http://www.w3.org/2000/svg"
>
	<path
		d="M3.30469 19.1914H13.9766C14.7943 19.1914 15.4062 18.9883 15.8125 18.582C16.2188 18.181 16.4219 17.5768 16.4219 16.7695V7.23047C16.4219 6.42318 16.2188 5.81901 15.8125 5.41797C15.4062 5.01172 14.7943 4.80859 13.9766 4.80859H3.30469C2.48698 4.80859 1.8724 5.01172 1.46094 5.41797C1.05469 5.81901 0.851562 6.42318 0.851562 7.23047V16.7695C0.851562 17.5768 1.05469 18.181 1.46094 18.582C1.8724 18.9883 2.48698 19.1914 3.30469 19.1914ZM3.1875 17.9336C2.84375 17.9336 2.57812 17.8398 2.39062 17.6523C2.20312 17.4701 2.10938 17.1992 2.10938 16.8398V9.47266C2.10938 9.11328 2.20312 8.84245 2.39062 8.66016C2.57812 8.47266 2.84375 8.37891 3.1875 8.37891H14.0781C14.4271 8.37891 14.6953 8.47266 14.8828 8.66016C15.0703 8.84245 15.1641 9.11328 15.1641 9.47266V16.8398C15.1641 17.1992 15.0703 17.4701 14.8828 17.6523C14.6953 17.8398 14.4271 17.9336 14.0781 17.9336H3.1875ZM4.54688 11.2852H12.75C12.8906 11.2852 13.0052 11.2383 13.0938 11.1445C13.1875 11.0508 13.2344 10.9336 13.2344 10.793C13.2344 10.6628 13.1875 10.5534 13.0938 10.4648C13.0052 10.3711 12.8906 10.3242 12.75 10.3242H4.54688C4.40625 10.3242 4.28906 10.3711 4.19531 10.4648C4.10156 10.5534 4.05469 10.6628 4.05469 10.793C4.05469 10.9336 4.10156 11.0508 4.19531 11.1445C4.28906 11.2383 4.40625 11.2852 4.54688 11.2852ZM4.54688 13.6367H12.75C12.8906 13.6367 13.0052 13.5924 13.0938 13.5039C13.1875 13.4102 13.2344 13.2982 13.2344 13.168C13.2344 13.0326 13.1875 12.918 13.0938 12.8242C13.0052 12.7253 12.8906 12.6758 12.75 12.6758H4.54688C4.40625 12.6758 4.28906 12.7253 4.19531 12.8242C4.10156 12.918 4.05469 13.0326 4.05469 13.168C4.05469 13.2982 4.10156 13.4102 4.19531 13.5039C4.28906 13.5924 4.40625 13.6367 4.54688 13.6367ZM4.54688 15.9961H9.75781C9.89844 15.9961 10.013 15.9518 10.1016 15.8633C10.1953 15.7695 10.2422 15.6549 10.2422 15.5195C10.2422 15.3841 10.1953 15.2695 10.1016 15.1758C10.013 15.082 9.89844 15.0352 9.75781 15.0352H4.54688C4.40625 15.0352 4.28906 15.082 4.19531 15.1758C4.10156 15.2695 4.05469 15.3841 4.05469 15.5195C4.05469 15.6549 4.10156 15.7695 4.19531 15.8633C4.28906 15.9518 4.40625 15.9961 4.54688 15.9961Z"
		fill="currentColor"
	/>
</svg>
