<svg
	color="rgb(var(--foreground, 0, 0, 0))"
	viewBox="0 0 16 24"
	fill="none"
	xmlns="http://www.w3.org/2000/svg"
>
	<path
		d="M8.09277 3.77734C6.93652 3.77734 6.13184 4.58203 5.83496 5.60547C5.4209 5.74609 5.06152 5.94141 4.75684 6.19141L15.2646 16.7148C15.3975 16.5664 15.46 16.3711 15.46 16.1445C15.46 15.3633 14.6709 14.6602 13.9912 13.9648C13.4756 13.4258 13.335 12.3164 13.2803 11.418C13.2178 8.41797 12.4287 6.35547 10.3506 5.60547C10.0537 4.58203 9.24121 3.77734 8.09277 3.77734ZM0.889648 5.36328L14.9287 19.3789C15.1631 19.6211 15.5459 19.6211 15.7803 19.3789C16.0068 19.1445 16.0146 18.7695 15.7803 18.5273L1.74902 4.51172C1.51465 4.27734 1.13184 4.27734 0.889648 4.51172C0.663086 4.73828 0.663086 5.13672 0.889648 5.36328ZM1.89746 17.0898H11.3271L3.17871 8.93359C3.00684 9.67578 2.9209 10.4961 2.90527 11.418C2.84277 12.3164 2.70996 13.4258 2.19434 13.9648C1.51465 14.6602 0.717773 15.3633 0.717773 16.1445C0.717773 16.7148 1.16309 17.0898 1.89746 17.0898ZM8.09277 20.2227C9.41309 20.2227 10.3818 19.2539 10.4912 18.1602H5.69434C5.7959 19.2539 6.76465 20.2227 8.09277 20.2227Z"
		fill="currentColor"
	/>
</svg>
