<svg
	color="rgb(var(--foreground, 0, 0, 0))"
	viewBox="0 0 16 24"
	fill="none"
	xmlns="http://www.w3.org/2000/svg"
>
	<path
		d="M2.15527 17.0898H14.5381C15.2725 17.0898 15.7178 16.7148 15.7178 16.1445C15.7178 15.3633 14.9209 14.6602 14.249 13.9648C13.7334 13.4258 13.5928 12.3164 13.5303 11.418C13.4756 8.41797 12.6787 6.35547 10.6006 5.60547C10.3037 4.58203 9.49902 3.77734 8.34277 3.77734C7.19434 3.77734 6.38184 4.58203 6.09277 5.60547C4.01465 6.35547 3.21777 8.41797 3.16309 11.418C3.10059 12.3164 2.95996 13.4258 2.44434 13.9648C1.76465 14.6602 0.975586 15.3633 0.975586 16.1445C0.975586 16.7148 1.41309 17.0898 2.15527 17.0898ZM8.34277 20.2227C9.6709 20.2227 10.6396 19.2539 10.7412 18.1602H5.95215C6.05371 19.2539 7.02246 20.2227 8.34277 20.2227Z"
		fill="currentColor"
	/>
</svg>
