<svg
	color="rgb(var(--foreground, 0, 0, 0))"
	viewBox="0 0 29 24"
	fill="none"
	xmlns="http://www.w3.org/2000/svg"
>
	<path
		d="M7.51562 16.2969C7.51562 16.8672 7.95312 17.2422 8.69531 17.2422H11.9922C12.0547 18.75 13.2344 20.0703 14.8828 20.0703C16.5391 20.0703 17.7188 18.7578 17.7812 17.2422H21.0781C21.8125 17.2422 22.2578 16.8672 22.2578 16.2969C22.2578 15.5156 21.4609 14.8125 20.7891 14.1172C20.2734 13.5781 20.1328 12.4688 20.0703 11.5703C20.0156 8.49219 19.2188 6.50781 17.1406 5.75781C16.875 4.73438 16.0391 3.92969 14.8828 3.92969C13.7344 3.92969 12.8906 4.73438 12.6328 5.75781C10.5547 6.50781 9.75781 8.49219 9.70312 11.5703C9.64062 12.4688 9.5 13.5781 8.98438 14.1172C8.30469 14.8125 7.51562 15.5156 7.51562 16.2969ZM9.03125 16.0625V15.9688C9.17188 15.7422 9.64062 15.2812 10.0469 14.8281C10.6094 14.2031 10.875 13.1953 10.9453 11.6719C11.0078 8.25781 12.0234 7.17188 13.3594 6.80469C13.5547 6.75781 13.6641 6.66406 13.6719 6.46094C13.6953 5.64844 14.1641 5.07812 14.8828 5.07812C15.6094 5.07812 16.0703 5.64844 16.1016 6.46094C16.1094 6.66406 16.2109 6.75781 16.4141 6.80469C17.75 7.17188 18.7656 8.25781 18.8281 11.6719C18.8984 13.1953 19.1641 14.2031 19.7188 14.8281C20.1328 15.2812 20.5938 15.7422 20.7344 15.9688V16.0625H9.03125ZM25.8047 17.3438C26.0547 17.6328 26.4922 17.6328 26.7891 17.3047C28.0859 15.8906 28.8203 14.0234 28.8203 12C28.8203 9.97656 28.0859 8.10156 26.7891 6.69531C26.4922 6.36719 26.0547 6.35938 25.8047 6.65625C25.5547 6.9375 25.6328 7.30469 25.9141 7.625C26.9609 8.78906 27.5469 10.3203 27.5469 12C27.5469 13.6797 26.9609 15.2109 25.9141 16.375C25.6328 16.6953 25.5547 17.0625 25.8047 17.3438ZM3.96875 17.3438C4.21875 17.0625 4.14062 16.6953 3.85938 16.375C2.8125 15.2109 2.22656 13.6797 2.22656 12C2.22656 10.3203 2.8125 8.78906 3.85938 7.625C4.14062 7.30469 4.21875 6.9375 3.96875 6.65625C3.71875 6.35938 3.28125 6.36719 2.98438 6.69531C1.6875 8.10156 0.953125 9.97656 0.953125 12C0.953125 14.0234 1.6875 15.8906 2.98438 17.3047C3.28125 17.6328 3.71875 17.6328 3.96875 17.3438ZM6.15625 15.1172C6.40625 14.8359 6.30469 14.4844 6.05469 14.1484C5.58594 13.5625 5.35938 12.8125 5.35938 12C5.35938 11.1875 5.58594 10.4297 6.05469 9.85156C6.30469 9.51562 6.40625 9.16406 6.15625 8.88281C5.89844 8.58594 5.42969 8.58594 5.15625 8.9375C4.47656 9.78125 4.08594 10.8516 4.08594 12C4.08594 13.1484 4.47656 14.2188 5.15625 15.0625C5.42969 15.4141 5.89844 15.4062 6.15625 15.1172ZM23.6094 15.1172C23.875 15.4062 24.3359 15.4141 24.6172 15.0625C25.2969 14.2188 25.6875 13.1484 25.6875 12C25.6875 10.8516 25.2969 9.78125 24.6172 8.9375C24.3359 8.58594 23.875 8.58594 23.6094 8.88281C23.3672 9.16406 23.4688 9.51562 23.7188 9.85156C24.1797 10.4297 24.4141 11.1875 24.4141 12C24.4141 12.8125 24.1797 13.5625 23.7188 14.1484C23.4688 14.4844 23.3672 14.8359 23.6094 15.1172ZM13.2109 17.2422H16.5625C16.5078 18.3047 15.8281 18.9688 14.8828 18.9688C13.9453 18.9688 13.2656 18.3047 13.2109 17.2422Z"
		fill="currentColor"
	/>
</svg>
