<svg
	color="rgb(var(--foreground, 0, 0, 0))"
	viewBox="0 0 29 24"
	fill="none"
	xmlns="http://www.w3.org/2000/svg"
>
	<path
		d="M8.5625 17.0898H20.9453C21.6797 17.0898 22.125 16.7148 22.125 16.1445C22.125 15.3633 21.3281 14.6602 20.6562 13.9648C20.1406 13.4258 20 12.3164 19.9375 11.418C19.8828 8.41797 19.0859 6.35547 17.0078 5.60547C16.7109 4.58203 15.9062 3.77734 14.75 3.77734C13.6016 3.77734 12.7891 4.58203 12.5 5.60547C10.4219 6.35547 9.625 8.41797 9.57031 11.418C9.50781 12.3164 9.36719 13.4258 8.85156 13.9648C8.17188 14.6602 7.38281 15.3633 7.38281 16.1445C7.38281 16.7148 7.82031 17.0898 8.5625 17.0898ZM25.6719 17.3398C25.9219 17.6289 26.3594 17.6289 26.6562 17.3008C27.9531 15.8867 28.6875 14.0195 28.6875 11.9961C28.6875 9.97266 27.9531 8.09766 26.6562 6.69141C26.3594 6.36328 25.9219 6.35547 25.6719 6.65234C25.4219 6.93359 25.5 7.30078 25.7812 7.62109C26.8281 8.78516 27.4141 10.3164 27.4141 11.9961C27.4141 13.6758 26.8281 15.207 25.7812 16.3711C25.5 16.6914 25.4219 17.0586 25.6719 17.3398ZM3.83594 17.3398C4.08594 17.0586 4.00781 16.6914 3.72656 16.3711C2.67969 15.207 2.09375 13.6758 2.09375 11.9961C2.09375 10.3164 2.67969 8.78516 3.72656 7.62109C4.00781 7.30078 4.08594 6.93359 3.83594 6.65234C3.58594 6.35547 3.14844 6.36328 2.85156 6.69141C1.55469 8.09766 0.820312 9.97266 0.820312 11.9961C0.820312 14.0195 1.55469 15.8867 2.85156 17.3008C3.14844 17.6289 3.58594 17.6289 3.83594 17.3398ZM6.02344 15.1133C6.27344 14.832 6.17188 14.4805 5.92188 14.1445C5.45312 13.5586 5.22656 12.8086 5.22656 11.9961C5.22656 11.1836 5.45312 10.4258 5.92188 9.84766C6.17188 9.51172 6.27344 9.16016 6.02344 8.87891C5.76562 8.58203 5.29688 8.58203 5.02344 8.93359C4.34375 9.77734 3.95312 10.8477 3.95312 11.9961C3.95312 13.1445 4.34375 14.2148 5.02344 15.0586C5.29688 15.4102 5.76562 15.4023 6.02344 15.1133ZM23.4766 15.1133C23.7422 15.4023 24.2031 15.4102 24.4844 15.0586C25.1641 14.2148 25.5547 13.1445 25.5547 11.9961C25.5547 10.8477 25.1641 9.77734 24.4844 8.93359C24.2031 8.58203 23.7422 8.58203 23.4766 8.87891C23.2344 9.16016 23.3359 9.51172 23.5859 9.84766C24.0469 10.4258 24.2812 11.1836 24.2812 11.9961C24.2812 12.8086 24.0469 13.5586 23.5859 14.1445C23.3359 14.4805 23.2344 14.832 23.4766 15.1133ZM14.75 20.2227C16.0781 20.2227 17.0469 19.2539 17.1484 18.1602H12.3594C12.4609 19.2539 13.4297 20.2227 14.75 20.2227Z"
		fill="currentColor"
	/>
</svg>
