<svg
	color="rgb(var(--foreground, 0, 0, 0))"
	viewBox="0 0 16 24"
	fill="none"
	xmlns="http://www.w3.org/2000/svg"
>
	<path
		d="M4.7793 6.35156L5.67773 7.25C5.95898 7.03906 6.27148 6.89844 6.60742 6.80469C6.80273 6.75781 6.9043 6.66406 6.91211 6.46094C6.94336 5.64844 7.4043 5.07812 8.13086 5.07812C8.84961 5.07812 9.31836 5.64844 9.3418 6.46094C9.34961 6.66406 9.45898 6.75781 9.6543 6.80469C11.0137 7.17969 12.0527 8.30469 12.0996 11.875C12.1387 12.8281 12.2168 13.4141 12.4902 13.9375L15.2637 16.7969C15.3965 16.6484 15.4668 16.4453 15.4668 16.2266C15.4668 15.6016 14.8184 15.0156 14.2559 14.4453C13.6152 13.7266 13.3809 12.9609 13.3418 11.8438C13.3027 8.52344 12.4746 6.51562 10.3887 5.75781C10.123 4.73438 9.2793 3.92969 8.13086 3.92969C6.97461 3.92969 6.13867 4.73438 5.87305 5.75781C5.45117 5.89844 5.0918 6.10156 4.7793 6.35156ZM0.912109 5.51562L14.9512 19.5312C15.1855 19.7734 15.5684 19.7734 15.8027 19.5312C16.0293 19.2969 16.0371 18.9219 15.8027 18.6797L1.77148 4.66406C1.53711 4.42969 1.1543 4.42969 0.912109 4.66406C0.685547 4.89062 0.685547 5.28906 0.912109 5.51562ZM8.13086 20.0703C9.7168 20.0703 10.8652 18.8594 11.0059 17.4141H11.5137L10.1621 16.0625H2.2793V15.9688C2.41992 15.7422 2.88086 15.2812 3.29492 14.8281C3.84961 14.2031 4.12305 13.1953 4.18555 11.6719C4.20117 11.125 4.24023 10.6406 4.30273 10.2031L3.20898 9.10938C3.03711 9.82031 2.95898 10.6484 2.94336 11.5703C2.88086 12.4688 2.74805 13.5781 2.23242 14.1172C1.55273 14.8125 0.755859 15.5156 0.755859 16.2969C0.755859 16.875 1.19336 17.2422 1.94336 17.2422H5.23242C5.29492 18.75 6.47461 20.0703 8.13086 20.0703ZM8.13086 18.9688C7.18555 18.9688 6.51367 18.3047 6.45117 17.2422H9.80273C9.74805 18.3047 9.06836 18.9688 8.13086 18.9688Z"
		fill="currentColor"
	/>
</svg>
