<svg
	color="rgb(var(--foreground, 0, 0, 0))"
	viewBox="0 0 16 24"
	fill="none"
	xmlns="http://www.w3.org/2000/svg"
>
	<path
		d="M8.15753 20.1016C9.18878 20.1016 10.1549 19.9063 11.056 19.5156C11.9622 19.1302 12.7565 18.5964 13.4388 17.9141C14.1263 17.2266 14.6627 16.4323 15.0482 15.5313C15.4336 14.6302 15.6263 13.6641 15.6263 12.6328C15.6263 11.6016 15.4336 10.6354 15.0482 9.73438C14.6627 8.82812 14.1263 8.03385 13.4388 7.35156C12.7565 6.66406 11.9622 6.1276 11.056 5.74219C10.1549 5.35156 9.18878 5.15625 8.15753 5.15625C7.12628 5.15625 6.16014 5.35156 5.25909 5.74219C4.35805 6.1276 3.56378 6.66406 2.87628 7.35156C2.19399 8.03385 1.65753 8.82812 1.26691 9.73438C0.88149 10.6354 0.688782 11.6016 0.688782 12.6328C0.688782 13.6641 0.88149 14.6302 1.26691 15.5313C1.65753 16.4323 2.19399 17.2266 2.87628 17.9141C3.56378 18.5964 4.35805 19.1302 5.25909 19.5156C6.16014 19.9063 7.12628 20.1016 8.15753 20.1016ZM8.15753 18.7656C7.30857 18.7656 6.5143 18.6068 5.77472 18.2891C5.03514 17.9714 4.38409 17.5313 3.82159 16.9688C3.25909 16.4063 2.81899 15.7552 2.50128 15.0156C2.18357 14.2708 2.02472 13.4766 2.02472 12.6328C2.02472 11.7839 2.18357 10.9896 2.50128 10.25C2.81899 9.51042 3.25909 8.85938 3.82159 8.29688C4.38409 7.73438 5.03514 7.29427 5.77472 6.97656C6.5143 6.65885 7.30857 6.5 8.15753 6.5C9.00128 6.5 9.79295 6.65885 10.5325 6.97656C11.2773 7.29427 11.931 7.73438 12.4935 8.29688C13.056 8.85938 13.4961 9.51042 13.8138 10.25C14.1315 10.9896 14.2903 11.7839 14.2903 12.6328C14.2903 13.4766 14.1315 14.2708 13.8138 15.0156C13.4961 15.7552 13.056 16.4063 12.4935 16.9688C11.931 17.5313 11.2773 17.9714 10.5325 18.2891C9.79295 18.6068 9.00128 18.7656 8.15753 18.7656ZM1.74347 7.16406C1.80076 7.16406 1.85284 7.15885 1.89972 7.14844C1.94659 7.13281 1.99868 7.10417 2.05597 7.0625L4.67316 5.08594C4.80337 4.98698 4.86847 4.86979 4.86847 4.73438C4.86847 4.58333 4.79816 4.44271 4.65753 4.3125C4.50649 4.17708 4.31118 4.07552 4.07159 4.00781C3.83201 3.9349 3.59503 3.89844 3.36066 3.89844C2.95441 3.89844 2.58462 3.9974 2.25128 4.19531C1.91795 4.39323 1.65232 4.65885 1.45441 4.99219C1.2617 5.32031 1.16534 5.6875 1.16534 6.09375C1.16534 6.23958 1.17576 6.38021 1.19659 6.51562C1.22264 6.65104 1.25649 6.76302 1.29816 6.85156C1.33982 6.95052 1.39972 7.02865 1.47784 7.08594C1.55597 7.13802 1.64451 7.16406 1.74347 7.16406ZM14.5716 7.16406C14.6706 7.16406 14.7591 7.13542 14.8372 7.07812C14.9153 7.02083 14.9778 6.94531 15.0247 6.85156C15.0664 6.76823 15.0976 6.65885 15.1185 6.52344C15.1393 6.38281 15.1497 6.23958 15.1497 6.09375C15.1497 5.6875 15.0508 5.32031 14.8528 4.99219C14.6601 4.65885 14.3971 4.39323 14.0638 4.19531C13.7304 3.9974 13.3607 3.89844 12.9544 3.89844C12.72 3.89844 12.4831 3.9349 12.2435 4.00781C12.0039 4.07552 11.8086 4.17708 11.6575 4.3125C11.5169 4.44271 11.4466 4.58333 11.4466 4.73438C11.4466 4.86979 11.5143 4.98698 11.6497 5.08594L14.2591 7.0625C14.3164 7.10417 14.3685 7.13281 14.4153 7.14844C14.4622 7.15885 14.5143 7.16406 14.5716 7.16406ZM1.62628 19.875C1.74087 19.9948 1.88149 20.0547 2.04816 20.0547C2.22003 20.0547 2.36587 19.9922 2.48566 19.8672L3.96222 18.3984L3.11847 17.5625L1.63409 19.0313C1.5143 19.151 1.45441 19.2943 1.45441 19.4609C1.45441 19.6276 1.5117 19.7656 1.62628 19.875ZM14.6888 19.875C14.8034 19.7656 14.8607 19.6276 14.8607 19.4609C14.8659 19.2943 14.806 19.151 14.681 19.0313L13.1966 17.5625L12.3607 18.3984L13.8294 19.8672C13.9492 19.9922 14.0924 20.0547 14.2591 20.0547C14.431 20.0547 14.5742 19.9948 14.6888 19.875ZM4.60284 13.4922H8.14972C8.30597 13.4922 8.43618 13.4401 8.54034 13.3359C8.64451 13.2318 8.69659 13.1042 8.69659 12.9531V8.21875C8.69659 8.0625 8.64451 7.93229 8.54034 7.82812C8.43618 7.72396 8.30597 7.67188 8.14972 7.67188C7.99868 7.67188 7.87107 7.72396 7.76691 7.82812C7.66274 7.93229 7.61066 8.0625 7.61066 8.21875V12.4063H4.60284C4.4518 12.4063 4.3242 12.4583 4.22003 12.5625C4.11587 12.6667 4.06378 12.7969 4.06378 12.9531C4.06378 13.1042 4.11587 13.2318 4.22003 13.3359C4.3242 13.4401 4.4518 13.4922 4.60284 13.4922Z"
		fill="currentColor"
	/>
</svg>
