<svg
	color="rgb(var(--foreground, 0, 0, 0))"
	viewBox="0 0 16 24"
	fill="none"
	xmlns="http://www.w3.org/2000/svg"
>
	<path
		d="M8.09503 20.1016C9.12628 20.1016 10.0924 19.9063 10.9935 19.5156C11.8997 19.1302 12.694 18.5964 13.3763 17.9141C14.0638 17.2266 14.6002 16.4323 14.9857 15.5313C15.3711 14.6302 15.5638 13.6641 15.5638 12.6328C15.5638 11.6016 15.3711 10.6354 14.9857 9.73438C14.6002 8.82812 14.0638 8.03385 13.3763 7.35156C12.694 6.66406 11.8997 6.1276 10.9935 5.74219C10.0924 5.35156 9.12628 5.15625 8.09503 5.15625C7.06378 5.15625 6.09764 5.35156 5.19659 5.74219C4.29555 6.1276 3.50128 6.66406 2.81378 7.35156C2.13149 8.03385 1.59503 8.82812 1.20441 9.73438C0.81899 10.6354 0.626282 11.6016 0.626282 12.6328C0.626282 13.6641 0.81899 14.6302 1.20441 15.5313C1.59503 16.4323 2.13149 17.2266 2.81378 17.9141C3.50128 18.5964 4.29555 19.1302 5.19659 19.5156C6.09764 19.9063 7.06378 20.1016 8.09503 20.1016ZM4.54034 13.4922C4.3893 13.4922 4.2617 13.4401 4.15753 13.3359C4.05337 13.2318 4.00128 13.1042 4.00128 12.9531C4.00128 12.7969 4.05337 12.6667 4.15753 12.5625C4.2617 12.4583 4.3893 12.4063 4.54034 12.4063H7.54816V8.21875C7.54816 8.0625 7.60024 7.93229 7.70441 7.82812C7.80857 7.72396 7.93618 7.67188 8.08722 7.67188C8.24347 7.67188 8.37368 7.72396 8.47784 7.82812C8.58201 7.93229 8.63409 8.0625 8.63409 8.21875V12.9531C8.63409 13.1042 8.58201 13.2318 8.47784 13.3359C8.37368 13.4401 8.24347 13.4922 8.08722 13.4922H4.54034ZM1.68097 7.16406C1.73826 7.16406 1.79034 7.15885 1.83722 7.14844C1.88409 7.13281 1.93618 7.10417 1.99347 7.0625L4.61066 5.08594C4.74087 4.98698 4.80597 4.86979 4.80597 4.73438C4.80597 4.58333 4.73566 4.44271 4.59503 4.3125C4.44399 4.17708 4.24868 4.07552 4.00909 4.00781C3.76951 3.9349 3.53253 3.89844 3.29816 3.89844C2.89191 3.89844 2.52212 3.9974 2.18878 4.19531C1.85545 4.39323 1.58982 4.65885 1.39191 4.99219C1.1992 5.32031 1.10284 5.6875 1.10284 6.09375C1.10284 6.23958 1.11326 6.38021 1.13409 6.51562C1.16014 6.65104 1.19399 6.76302 1.23566 6.85156C1.27732 6.95052 1.33722 7.02865 1.41534 7.08594C1.49347 7.13802 1.58201 7.16406 1.68097 7.16406ZM14.5091 7.16406C14.6081 7.16406 14.6966 7.13542 14.7747 7.07812C14.8528 7.02083 14.9153 6.94531 14.9622 6.85156C15.0039 6.76823 15.0351 6.65885 15.056 6.52344C15.0768 6.38281 15.0872 6.23958 15.0872 6.09375C15.0872 5.6875 14.9883 5.32031 14.7903 4.99219C14.5976 4.65885 14.3346 4.39323 14.0013 4.19531C13.6679 3.9974 13.2982 3.89844 12.8919 3.89844C12.6575 3.89844 12.4206 3.9349 12.181 4.00781C11.9414 4.07552 11.7461 4.17708 11.595 4.3125C11.4544 4.44271 11.3841 4.58333 11.3841 4.73438C11.3841 4.86979 11.4518 4.98698 11.5872 5.08594L14.1966 7.0625C14.2539 7.10417 14.306 7.13281 14.3528 7.14844C14.3997 7.15885 14.4518 7.16406 14.5091 7.16406ZM1.56378 19.875C1.67837 19.9948 1.81899 20.0547 1.98566 20.0547C2.15753 20.0547 2.30337 19.9922 2.42316 19.8672L3.89972 18.3984L3.05597 17.5625L1.57159 19.0313C1.4518 19.151 1.39191 19.2943 1.39191 19.4609C1.39191 19.6276 1.4492 19.7656 1.56378 19.875ZM14.6263 19.875C14.7409 19.7656 14.7982 19.6276 14.7982 19.4609C14.8034 19.2943 14.7435 19.151 14.6185 19.0313L13.1341 17.5625L12.2982 18.3984L13.7669 19.8672C13.8867 19.9922 14.0299 20.0547 14.1966 20.0547C14.3685 20.0547 14.5117 19.9948 14.6263 19.875Z"
		fill="currentColor"
	/>
</svg>
