<svg
	color="rgb(var(--foreground, 0, 0, 0))"
	viewBox="0 0 17 24"
	fill="none"
	xmlns="http://www.w3.org/2000/svg"
>
	<path
		d="M4.69659 12.8438H8.77472C8.93097 12.8438 9.06118 12.7917 9.16534 12.6875C9.26951 12.5833 9.32159 12.4531 9.32159 12.2969V7.03125C9.32159 6.88021 9.26951 6.7526 9.16534 6.64844C9.06118 6.54427 8.93097 6.49219 8.77472 6.49219C8.62368 6.49219 8.49607 6.54427 8.39191 6.64844C8.28774 6.7526 8.23566 6.88021 8.23566 7.03125V11.7578H4.69659C4.54034 11.7578 4.41014 11.8099 4.30597 11.9141C4.2018 12.0182 4.14972 12.1458 4.14972 12.2969C4.14972 12.4531 4.2018 12.5833 4.30597 12.6875C4.41014 12.7917 4.54034 12.8438 4.69659 12.8438ZM8.78253 19.9688C9.87107 19.9688 10.8945 19.7604 11.8528 19.3438C12.8164 18.9271 13.6653 18.3516 14.3997 17.6172C15.1341 16.8828 15.7096 16.0365 16.1263 15.0781C16.5429 14.1146 16.7513 13.0885 16.7513 12C16.7513 10.9115 16.5429 9.88802 16.1263 8.92969C15.7096 7.96615 15.1341 7.11719 14.3997 6.38281C13.6653 5.64844 12.8164 5.07292 11.8528 4.65625C10.8893 4.23958 9.86326 4.03125 8.77472 4.03125C7.68618 4.03125 6.66014 4.23958 5.69659 4.65625C4.73826 5.07292 3.89191 5.64844 3.15753 6.38281C2.42837 7.11719 1.85545 7.96615 1.43878 8.92969C1.02212 9.88802 0.813782 10.9115 0.813782 12C0.813782 13.0885 1.02212 14.1146 1.43878 15.0781C1.85545 16.0365 2.43097 16.8828 3.16534 17.6172C3.89972 18.3516 4.74607 18.9271 5.70441 19.3438C6.66795 19.7604 7.69399 19.9688 8.78253 19.9688ZM8.78253 18.6406C7.86066 18.6406 6.99868 18.4688 6.19659 18.125C5.39451 17.7813 4.68878 17.3073 4.07941 16.7031C3.47524 16.0938 3.00128 15.388 2.65753 14.5859C2.31899 13.7839 2.14972 12.9219 2.14972 12C2.14972 11.0781 2.31899 10.2161 2.65753 9.41406C3.00128 8.61198 3.47524 7.90625 4.07941 7.29688C4.68357 6.6875 5.3867 6.21354 6.18878 5.875C6.99087 5.53125 7.85284 5.35938 8.77472 5.35938C9.69659 5.35938 10.5586 5.53125 11.3607 5.875C12.1679 6.21354 12.8737 6.6875 13.4778 7.29688C14.0872 7.90625 14.5638 8.61198 14.9075 9.41406C15.2513 10.2161 15.4232 11.0781 15.4232 12C15.4232 12.9219 15.2513 13.7839 14.9075 14.5859C14.569 15.388 14.095 16.0938 13.4857 16.7031C12.8763 17.3073 12.1706 17.7813 11.3685 18.125C10.5664 18.4688 9.70441 18.6406 8.78253 18.6406Z"
		fill="currentColor"
	/>
</svg>
