<svg
	color="rgb(var(--foreground, 0, 0, 0))"
	viewBox="0 0 17 24"
	fill="none"
	xmlns="http://www.w3.org/2000/svg"
>
	<path
		d="M4.63409 12.8438C4.47784 12.8438 4.34764 12.7917 4.24347 12.6875C4.1393 12.5833 4.08722 12.4531 4.08722 12.2969C4.08722 12.1458 4.1393 12.0182 4.24347 11.9141C4.34764 11.8099 4.47784 11.7578 4.63409 11.7578H8.17316V7.03125C8.17316 6.88021 8.22524 6.7526 8.32941 6.64844C8.43357 6.54427 8.56118 6.49219 8.71222 6.49219C8.86847 6.49219 8.99868 6.54427 9.10284 6.64844C9.20701 6.7526 9.25909 6.88021 9.25909 7.03125V12.2969C9.25909 12.4531 9.20701 12.5833 9.10284 12.6875C8.99868 12.7917 8.86847 12.8438 8.71222 12.8438H4.63409ZM8.72003 19.9688C9.80857 19.9688 10.832 19.7604 11.7903 19.3438C12.7539 18.9271 13.6028 18.3516 14.3372 17.6172C15.0716 16.8828 15.6471 16.0365 16.0638 15.0781C16.4804 14.1146 16.6888 13.0885 16.6888 12C16.6888 10.9115 16.4804 9.88802 16.0638 8.92969C15.6471 7.96615 15.0716 7.11719 14.3372 6.38281C13.6028 5.64844 12.7539 5.07292 11.7903 4.65625C10.8268 4.23958 9.80076 4.03125 8.71222 4.03125C7.62368 4.03125 6.59764 4.23958 5.63409 4.65625C4.67576 5.07292 3.82941 5.64844 3.09503 6.38281C2.36587 7.11719 1.79295 7.96615 1.37628 8.92969C0.959615 9.88802 0.751282 10.9115 0.751282 12C0.751282 13.0885 0.959615 14.1146 1.37628 15.0781C1.79295 16.0365 2.36847 16.8828 3.10284 17.6172C3.83722 18.3516 4.68357 18.9271 5.64191 19.3438C6.60545 19.7604 7.63149 19.9688 8.72003 19.9688Z"
		fill="currentColor"
	/>
</svg>
