<svg
	color="rgb(var(--foreground, 0, 0, 0))"
	viewBox="0 0 20 24"
	fill="none"
	xmlns="http://www.w3.org/2000/svg"
>
	<path
		d="M1.69348 13.2136C1.91743 13.6043 2.19348 13.8412 2.5216 13.9246C2.85493 14.0079 3.21431 13.9402 3.59973 13.7214L13.7638 7.85425C14.1492 7.6303 14.3888 7.35425 14.4825 7.02613C14.5815 6.6928 14.5164 6.33082 14.2872 5.94019L13.2247 4.11207C12.9956 3.71623 12.7169 3.47925 12.3888 3.40113C12.0607 3.3178 11.7065 3.38811 11.3263 3.61207L1.1466 9.48707C0.761184 9.70582 0.521601 9.97925 0.427851 10.3074C0.334101 10.6303 0.401809 10.9897 0.630976 11.3855L1.69348 13.2136ZM10.9435 6.65113C10.8549 6.5053 10.8341 6.34905 10.881 6.18238C10.9279 6.01571 11.0242 5.88811 11.17 5.79957C11.3211 5.71103 11.4799 5.69019 11.6466 5.73707C11.8133 5.78394 11.9409 5.8829 12.0294 6.03394C12.1127 6.17978 12.131 6.33603 12.0841 6.50269C12.0424 6.66936 11.9461 6.79696 11.795 6.8855C11.644 6.97405 11.4851 6.99488 11.3185 6.948C11.1518 6.90113 11.0268 6.80217 10.9435 6.65113ZM8.92785 7.81519C8.84452 7.66936 8.82368 7.51311 8.86535 7.34644C8.91223 7.17978 9.00858 7.05217 9.15441 6.96363C9.30545 6.87509 9.46431 6.85425 9.63098 6.90113C9.79764 6.948 9.92525 7.04436 10.0138 7.19019C10.0971 7.34123 10.1154 7.50009 10.0685 7.66675C10.0268 7.83342 9.93045 7.96103 9.77941 8.04957C9.62837 8.1329 9.46952 8.15373 9.30285 8.11207C9.14139 8.06519 9.01639 7.96623 8.92785 7.81519ZM6.91223 8.97925C6.82889 8.82821 6.80806 8.66936 6.84973 8.50269C6.8966 8.33603 6.99556 8.20842 7.1466 8.11988C7.29764 8.03655 7.4565 8.01832 7.62316 8.06519C7.78983 8.10686 7.91483 8.20321 7.99816 8.35425C8.0867 8.5053 8.10754 8.66415 8.06066 8.83082C8.019 8.99748 7.92264 9.12248 7.7716 9.20582C7.62056 9.29436 7.4617 9.31519 7.29504 9.26832C7.12837 9.22144 7.00077 9.12509 6.91223 8.97925ZM4.90441 10.1355C4.82108 9.98446 4.80025 9.82821 4.84191 9.66675C4.88879 9.50009 4.98775 9.37509 5.13879 9.29175C5.28462 9.20321 5.44087 9.17978 5.60754 9.22144C5.77941 9.26311 5.90962 9.35946 5.99816 9.5105C6.0815 9.66155 6.09973 9.8204 6.05285 9.98707C6.00598 10.1537 5.90962 10.2787 5.76379 10.3621C5.61275 10.4506 5.45389 10.474 5.28723 10.4324C5.12056 10.3855 4.99295 10.2865 4.90441 10.1355ZM2.88879 11.2996C2.80545 11.1485 2.78462 10.9923 2.82629 10.8308C2.87316 10.6642 2.97212 10.5365 3.12316 10.448C3.2742 10.3647 3.43306 10.3438 3.59973 10.3855C3.76639 10.4272 3.89139 10.5235 3.97473 10.6746C4.06327 10.8256 4.0841 10.9845 4.03723 11.1511C3.99035 11.3126 3.894 11.4376 3.74816 11.5261C3.59712 11.6147 3.43827 11.6381 3.2716 11.5964C3.10493 11.5496 2.97733 11.4506 2.88879 11.2996ZM12.5685 3.99488L13.006 4.74488L14.3263 3.98707C14.4357 3.92457 14.5034 3.83863 14.5294 3.72925C14.5607 3.61467 14.545 3.50269 14.4825 3.39332C14.4252 3.28915 14.3393 3.22144 14.2247 3.19019C14.1101 3.15373 13.9982 3.16675 13.8888 3.22925L12.5685 3.99488ZM13.631 5.823L14.0685 6.58082L15.381 5.823C15.5008 5.7553 15.5737 5.66936 15.5997 5.56519C15.6258 5.45582 15.6049 5.34123 15.5372 5.22144C15.4747 5.11207 15.3862 5.04436 15.2716 5.01832C15.1622 4.98707 15.0529 5.00269 14.9435 5.06519L13.631 5.823ZM6.98254 19.8621C7.2065 20.2475 7.48514 20.4819 7.81848 20.5652C8.15702 20.6537 8.519 20.5886 8.90441 20.3699L19.0685 14.5027C19.4487 14.2787 19.6831 14.0001 19.7716 13.6668C19.8654 13.3334 19.8029 12.974 19.5841 12.5886L18.5216 10.7605C18.2976 10.3647 18.0216 10.1277 17.6935 10.0496C17.3654 9.96623 17.0086 10.0365 16.6232 10.2605L6.44348 16.1355C6.05806 16.3543 5.81848 16.6277 5.72473 16.9558C5.63618 17.2787 5.70389 17.6381 5.92785 18.0339L6.98254 19.8621ZM16.2404 13.2996C16.1518 13.1485 16.1284 12.9923 16.17 12.8308C16.2169 12.6642 16.3159 12.5392 16.4669 12.4558C16.618 12.3673 16.7742 12.3438 16.9357 12.3855C17.1023 12.4272 17.2299 12.5235 17.3185 12.6746C17.407 12.8256 17.4279 12.9845 17.381 13.1511C17.3393 13.3178 17.243 13.4428 17.0919 13.5261C16.9409 13.6147 16.782 13.6381 16.6154 13.5964C16.4487 13.5496 16.3237 13.4506 16.2404 13.2996ZM14.2247 14.4636C14.1362 14.3126 14.1154 14.1563 14.1622 13.9949C14.2091 13.8282 14.3081 13.7032 14.4591 13.6199C14.6049 13.5313 14.7612 13.5079 14.9279 13.5496C15.0945 13.5912 15.2221 13.6876 15.3107 13.8386C15.3992 13.9897 15.42 14.1485 15.3732 14.3152C15.3263 14.4819 15.2299 14.6069 15.0841 14.6902C14.9331 14.7787 14.7716 14.8022 14.5997 14.7605C14.4331 14.7188 14.3081 14.6199 14.2247 14.4636ZM12.2169 15.6277C12.1284 15.4767 12.1075 15.3178 12.1544 15.1511C12.2013 14.9845 12.2976 14.8595 12.4435 14.7761C12.5945 14.6876 12.7534 14.6668 12.92 14.7136C13.0867 14.7553 13.2143 14.8517 13.3029 15.0027C13.3862 15.1485 13.4044 15.3074 13.3575 15.4793C13.3159 15.6459 13.2195 15.7709 13.0685 15.8543C12.9226 15.9428 12.7664 15.9636 12.5997 15.9168C12.4331 15.8699 12.3055 15.7735 12.2169 15.6277ZM10.2013 16.7839C10.118 16.6381 10.0971 16.4819 10.1388 16.3152C10.1857 16.1485 10.2846 16.0209 10.4357 15.9324C10.5867 15.8438 10.743 15.823 10.9044 15.8699C11.0711 15.9168 11.1987 16.0157 11.2872 16.1668C11.3758 16.3126 11.3966 16.4688 11.3497 16.6355C11.3029 16.8022 11.2065 16.9298 11.0607 17.0183C10.9096 17.1069 10.7508 17.1277 10.5841 17.0808C10.4174 17.0339 10.2898 16.935 10.2013 16.7839ZM8.18566 17.948C8.10233 17.8022 8.0815 17.6459 8.12316 17.4793C8.17004 17.3074 8.269 17.1772 8.42004 17.0886C8.56587 17.0053 8.72212 16.9871 8.88879 17.0339C9.06066 17.0808 9.18827 17.1772 9.2716 17.323C9.36014 17.474 9.38098 17.6329 9.3341 17.7996C9.29243 17.9662 9.19608 18.0938 9.04504 18.1824C8.894 18.2657 8.73514 18.2839 8.56848 18.2371C8.40181 18.1954 8.2742 18.099 8.18566 17.948ZM7.6466 19.9949L7.2091 19.2293L5.88098 19.9949C5.7716 20.0574 5.70389 20.1433 5.67785 20.2527C5.65181 20.3673 5.67004 20.4793 5.73254 20.5886C5.80545 20.7084 5.894 20.7839 5.99816 20.8152C6.10233 20.8464 6.2117 20.8282 6.32629 20.7605L7.6466 19.9949ZM6.59191 18.1589L6.15441 17.4011L4.8341 18.1589C4.72473 18.2214 4.65441 18.31 4.62316 18.4246C4.59712 18.5444 4.61535 18.6563 4.67785 18.7605C4.74035 18.8699 4.82629 18.9376 4.93566 18.9636C5.05025 18.9949 5.15962 18.9793 5.26379 18.9168L6.59191 18.1589ZM4.43566 14.1121H8.42785L15.5372 10.0027H11.545L4.43566 14.1121Z"
		fill="currentColor"
	/>
</svg>
