<svg
	color="rgb(var(--foreground, 0, 0, 0))"
	viewBox="0 0 19 24"
	fill="none"
	xmlns="http://www.w3.org/2000/svg"
>
	<path
		d="M0.759577 9.4292C0.37416 9.65316 0.134577 9.9318 0.0408266 10.2651C-0.0529234 10.5985 0.0147849 10.9604 0.243952 11.3511L1.36895 13.3042C1.53041 13.5802 1.72051 13.7756 1.93926 13.8901C2.16322 13.9995 2.41062 14.0542 2.68145 14.0542H8.40801L4.93926 16.062C4.55385 16.286 4.31687 16.5646 4.22833 16.8979C4.13979 17.2261 4.20489 17.5828 4.42364 17.9683L5.54864 19.9292C5.77781 20.3198 6.05645 20.5568 6.38458 20.6401C6.71791 20.7287 7.07729 20.661 7.4627 20.437L17.6346 14.5776C18.0148 14.3537 18.2518 14.075 18.3455 13.7417C18.4393 13.4084 18.3742 13.0464 18.1502 12.6558L17.0174 10.7026C16.8663 10.437 16.6815 10.2469 16.4627 10.1323C16.2492 10.0125 16.0096 9.95264 15.744 9.95264H9.97051L13.4471 7.94482C13.8325 7.72087 14.0695 7.44482 14.158 7.1167C14.2466 6.78337 14.1815 6.42399 13.9627 6.03857L12.8377 4.07764C12.6085 3.6818 12.3273 3.44222 11.994 3.35889C11.6658 3.27555 11.3117 3.34587 10.9315 3.56982L0.759577 9.4292ZM1.3377 10.2573L11.3611 4.47607C11.4913 4.39795 11.6111 4.37712 11.7205 4.41357C11.8351 4.44482 11.9341 4.53076 12.0174 4.67139L13.0565 6.45264C13.1346 6.58805 13.1554 6.71566 13.119 6.83545C13.0877 6.95003 13.0044 7.04639 12.869 7.12451L2.86114 12.8979C2.73093 12.9761 2.60593 12.9995 2.48614 12.9683C2.36635 12.937 2.26739 12.8511 2.18926 12.7104L1.16583 10.9448C1.0877 10.8042 1.06166 10.674 1.0877 10.5542C1.11895 10.4344 1.20228 10.3354 1.3377 10.2573ZM4.63458 13.0464L8.22833 10.9604H13.7361L10.1502 13.0464H4.63458ZM5.51739 16.8823L15.5252 11.1011C15.6554 11.0229 15.7804 11.0021 15.9002 11.0386C16.02 11.0698 16.119 11.1532 16.1971 11.2886L17.2205 13.062C17.2986 13.2026 17.3247 13.3328 17.2986 13.4526C17.2726 13.5724 17.1893 13.6714 17.0486 13.7495L7.03301 19.5229C6.8976 19.6011 6.7726 19.6245 6.65801 19.5933C6.54864 19.562 6.45229 19.4761 6.36895 19.3354L5.3377 17.5464C5.25437 17.4162 5.22833 17.2938 5.25958 17.1792C5.29604 17.0594 5.38197 16.9604 5.51739 16.8823ZM12.2127 4.01514L12.6502 4.78076L13.9705 4.01514C14.0747 3.95264 14.1424 3.8667 14.1736 3.75732C14.2101 3.64274 14.1945 3.53076 14.1268 3.42139C14.0695 3.31722 13.9835 3.24951 13.869 3.21826C13.7544 3.18701 13.6424 3.20264 13.533 3.26514L12.2127 4.01514ZM13.2674 5.84326L13.7127 6.60889L15.0174 5.85107C15.1372 5.78337 15.2101 5.69743 15.2361 5.59326C15.2674 5.48389 15.2466 5.3693 15.1736 5.24951C15.1163 5.13493 15.0304 5.06462 14.9158 5.03857C14.8012 5.00732 14.6893 5.02295 14.5799 5.08545L13.2674 5.84326ZM10.4861 6.73389C10.5643 6.87972 10.6815 6.97607 10.8377 7.02295C10.9992 7.06462 11.1528 7.04639 11.2986 6.96826C11.4445 6.87972 11.5382 6.75472 11.5799 6.59326C11.6268 6.4318 11.6085 6.27816 11.5252 6.13232C11.4367 5.98649 11.3117 5.89274 11.1502 5.85107C10.994 5.80941 10.8455 5.82764 10.7049 5.90576C10.5591 5.99951 10.4653 6.12712 10.4236 6.28857C10.382 6.44482 10.4028 6.59326 10.4861 6.73389ZM8.54083 7.85889C8.61895 8.00472 8.73614 8.10107 8.89239 8.14795C9.04864 8.18962 9.19968 8.17139 9.34551 8.09326C9.49656 8.00472 9.59551 7.88232 9.64239 7.72607C9.68926 7.56462 9.66583 7.41357 9.57208 7.27295C9.49395 7.12191 9.37416 7.02555 9.2127 6.98389C9.05124 6.94222 8.8976 6.96305 8.75176 7.04639C8.60593 7.13493 8.51218 7.25732 8.47051 7.41357C8.43406 7.56462 8.45749 7.71305 8.54083 7.85889ZM6.57989 8.99951C6.66322 9.14014 6.78562 9.23128 6.94708 9.27295C7.11374 9.31462 7.26739 9.29639 7.40801 9.21826C7.54864 9.12972 7.63979 9.00472 7.68145 8.84326C7.72833 8.6818 7.7101 8.53337 7.62676 8.39795C7.54343 8.24691 7.42104 8.15055 7.25958 8.10889C7.09812 8.06722 6.94968 8.08545 6.81426 8.16357C6.66322 8.25212 6.56426 8.37712 6.51739 8.53857C6.47572 8.69482 6.49656 8.84847 6.57989 8.99951ZM4.62676 10.1245C4.71531 10.2651 4.84031 10.3563 5.00176 10.3979C5.16322 10.4396 5.31687 10.4214 5.4627 10.3433C5.60854 10.2599 5.70229 10.1375 5.74395 9.97607C5.78562 9.80941 5.75958 9.65837 5.66583 9.52295C5.59291 9.37191 5.47572 9.27555 5.31426 9.23389C5.15281 9.18701 4.99916 9.20785 4.85333 9.29639C4.7127 9.37451 4.61895 9.49691 4.57208 9.66357C4.5252 9.82503 4.54343 9.97868 4.62676 10.1245ZM2.68145 11.2495C2.76478 11.3953 2.88458 11.4891 3.04083 11.5308C3.20228 11.5672 3.36114 11.5464 3.51739 11.4683C3.65281 11.3797 3.74135 11.2573 3.78301 11.1011C3.82468 10.9396 3.80645 10.7886 3.72833 10.6479C3.64499 10.4969 3.5226 10.4006 3.36114 10.3589C3.20489 10.3172 3.05385 10.3354 2.90801 10.4136C2.75697 10.4969 2.66062 10.6219 2.61895 10.7886C2.57728 10.95 2.59812 11.1037 2.68145 11.2495ZM6.17364 19.9917L5.73614 19.2183L4.41583 19.9917C4.31166 20.0542 4.24135 20.1401 4.20489 20.2495C4.17364 20.3641 4.19187 20.4761 4.25958 20.5854C4.31687 20.6896 4.40281 20.7547 4.51739 20.7808C4.63718 20.812 4.74916 20.799 4.85333 20.7417L6.17364 19.9917ZM5.12676 18.1636L4.67364 17.3979L3.36895 18.1479C3.24916 18.2157 3.17364 18.3042 3.14239 18.4136C3.11635 18.5229 3.13978 18.6375 3.2127 18.7573C3.26999 18.8667 3.35593 18.937 3.47051 18.9683C3.5851 18.9995 3.69708 18.9839 3.80645 18.9214L5.12676 18.1636ZM14.658 13.3589C14.7413 13.5099 14.8611 13.6063 15.0174 13.6479C15.1788 13.6896 15.3325 13.6688 15.4783 13.5854C15.6294 13.5073 15.7257 13.3875 15.7674 13.2261C15.8091 13.0594 15.7882 12.9032 15.7049 12.7573C15.6216 12.6115 15.4992 12.5177 15.3377 12.4761C15.1815 12.4344 15.0252 12.4552 14.869 12.5386C14.7335 12.6219 14.645 12.7443 14.6033 12.9058C14.5617 13.0672 14.5799 13.2183 14.658 13.3589ZM12.7283 14.4839C12.796 14.6349 12.9106 14.7313 13.0721 14.7729C13.2335 14.8146 13.3898 14.7938 13.5408 14.7104C13.6815 14.6323 13.7726 14.5125 13.8143 14.3511C13.8611 14.1844 13.8429 14.0282 13.7596 13.8823C13.671 13.7417 13.546 13.6506 13.3846 13.6089C13.2231 13.562 13.0721 13.5802 12.9315 13.6636C12.7856 13.7469 12.6893 13.8719 12.6424 14.0386C12.6007 14.2 12.6294 14.3485 12.7283 14.4839ZM10.7596 15.6089C10.8481 15.7547 10.9731 15.8511 11.1346 15.8979C11.296 15.9396 11.4419 15.9188 11.5721 15.8354C11.7231 15.7521 11.8195 15.6297 11.8611 15.4683C11.908 15.3068 11.8898 15.1532 11.8065 15.0073C11.7231 14.8667 11.5981 14.7756 11.4315 14.7339C11.27 14.6922 11.119 14.7104 10.9783 14.7886C10.8377 14.8771 10.744 15.0021 10.6971 15.1636C10.6554 15.3198 10.6762 15.4683 10.7596 15.6089ZM8.81426 16.7261C8.89239 16.8823 9.01218 16.9813 9.17364 17.0229C9.34031 17.0646 9.49395 17.0438 9.63458 16.9604C9.78562 16.8719 9.87937 16.7495 9.91583 16.5933C9.95749 16.437 9.93406 16.2886 9.84551 16.1479C9.76739 16.0021 9.6502 15.9084 9.49395 15.8667C9.3377 15.8198 9.18666 15.8354 9.04083 15.9136C8.88979 16.0021 8.79083 16.1271 8.74395 16.2886C8.69708 16.4448 8.72051 16.5907 8.81426 16.7261ZM6.86114 17.8745C6.94968 18.0151 7.07208 18.1063 7.22833 18.1479C7.38979 18.1948 7.54083 18.1792 7.68145 18.1011C7.83249 18.0073 7.92624 17.8797 7.9627 17.7183C8.00437 17.562 7.98354 17.411 7.9002 17.2651C7.82208 17.1193 7.70229 17.0256 7.54083 16.9839C7.38458 16.9422 7.23354 16.9604 7.0877 17.0386C6.94187 17.1271 6.84551 17.2521 6.79864 17.4136C6.75697 17.575 6.77781 17.7287 6.86114 17.8745Z"
		fill="currentColor"
	/>
</svg>
