<svg
	color="rgb(var(--foreground, 0, 0, 0))"
	viewBox="0 0 17 24"
	fill="none"
	xmlns="http://www.w3.org/2000/svg"
>
	<path
		d="M8.53253 20.7578C12.8919 20.7578 16.5013 17.1406 16.5013 12.7891C16.5013 10.9688 15.8685 9.28125 14.8138 7.92969L15.4232 7.3125C15.6028 7.13281 15.7044 6.89062 15.7044 6.67969C15.7044 6.24219 15.3528 5.89062 14.8997 5.89062C14.6341 5.89062 14.4466 5.96875 14.2591 6.14844L13.6653 6.72656C12.4778 5.71094 10.9857 5.03906 9.36066 4.86719V4.10156C9.36066 3.63281 8.99347 3.24219 8.52472 3.24219C8.07159 3.24219 7.68878 3.63281 7.68878 4.10156V4.86719C3.71222 5.28906 0.563782 8.71875 0.563782 12.7891C0.563782 17.1406 4.18097 20.7578 8.53253 20.7578ZM8.53253 19.4297C4.84503 19.4297 1.89972 16.4766 1.89972 12.7891C1.89972 9.10156 4.83722 6.14844 8.52472 6.14844C12.2122 6.14844 15.1653 9.10156 15.1732 12.7891C15.181 16.4766 12.22 19.4297 8.53253 19.4297ZM8.53253 14.0547C9.22784 14.0547 9.79034 13.4922 9.79034 12.7969C9.79034 12.3047 9.50909 11.875 9.07159 11.6641V7.78125C9.07159 7.47656 8.82941 7.24219 8.52472 7.24219C8.22003 7.24219 7.98566 7.47656 7.98566 7.78125V11.6562C7.55597 11.8828 7.27472 12.3047 7.27472 12.7969C7.27472 13.4922 7.82941 14.0547 8.53253 14.0547Z"
		fill="currentColor"
	/>
</svg>
