<svg
	color="rgb(var(--foreground, 0, 0, 0))"
	viewBox="0 0 17 24"
	fill="none"
	xmlns="http://www.w3.org/2000/svg"
>
	<path
		d="M8.47003 20.7578C12.8294 20.7578 16.4388 17.1406 16.4388 12.7891C16.4388 10.9688 15.806 9.28125 14.7513 7.92969L15.3607 7.3125C15.5403 7.13281 15.6419 6.89062 15.6419 6.67969C15.6419 6.24219 15.2903 5.89062 14.8372 5.89062C14.5716 5.89062 14.3841 5.96875 14.1966 6.14844L13.6028 6.72656C12.4153 5.71094 10.9232 5.03906 9.29816 4.86719V4.10156C9.29816 3.63281 8.93097 3.24219 8.46222 3.24219C8.00909 3.24219 7.62628 3.63281 7.62628 4.10156V4.86719C3.64972 5.28906 0.501282 8.71875 0.501282 12.7891C0.501282 17.1406 4.11847 20.7578 8.47003 20.7578ZM8.47003 14.0547C7.76691 14.0547 7.21222 13.4922 7.21222 12.7969C7.21222 12.3047 7.49347 11.8828 7.92316 11.6562V7.78125C7.92316 7.47656 8.15753 7.24219 8.46222 7.24219C8.76691 7.24219 9.00909 7.47656 9.00909 7.78125V11.6641C9.44659 11.875 9.72784 12.3047 9.72784 12.7969C9.72784 13.4922 9.16534 14.0547 8.47003 14.0547Z"
		fill="currentColor"
	/>
</svg>
