<svg
	color="rgb(var(--foreground, 0, 0, 0))"
	viewBox="0 0 17 24"
	fill="none"
	xmlns="http://www.w3.org/2000/svg"
>
	<path
		d="M8.78127 19.9688C9.86981 19.9688 10.8932 19.7604 11.8516 19.3438C12.8151 18.9271 13.6641 18.3516 14.3985 17.6172C15.1328 16.8828 15.7083 16.0365 16.125 15.0781C16.5417 14.1146 16.75 13.0885 16.75 12C16.75 10.9115 16.5417 9.88802 16.125 8.92969C15.7083 7.96615 15.1328 7.11719 14.3985 6.38281C13.6693 5.64844 12.8229 5.07292 11.8594 4.65625C10.9011 4.23958 9.87762 4.03125 8.78908 4.03125C8.58074 4.03125 8.42449 4.09115 8.32033 4.21094C8.22137 4.32552 8.17189 4.48438 8.17189 4.6875V7.71094C8.17189 7.88281 8.22397 8.02865 8.32814 8.14844C8.43752 8.26302 8.57554 8.32031 8.7422 8.32031C8.91408 8.32031 9.0521 8.26302 9.15627 8.14844C9.26564 8.02865 9.32033 7.88281 9.32033 7.71094V4.67188L8.77345 5.35938C9.70054 5.35938 10.5651 5.53125 11.3672 5.875C12.1693 6.21354 12.8724 6.6875 13.4766 7.29688C14.086 7.90104 14.5599 8.60677 14.8985 9.41406C15.2422 10.2161 15.4141 11.0781 15.4141 12C15.4141 12.9219 15.2422 13.7839 14.8985 14.5859C14.5599 15.388 14.086 16.0938 13.4766 16.7031C12.8724 17.3073 12.1693 17.7812 11.3672 18.125C10.5651 18.4688 9.70314 18.6406 8.78127 18.6406C7.85939 18.6406 6.99481 18.4688 6.18752 18.125C5.38543 17.7812 4.67969 17.3073 4.07031 16.7031C3.46615 16.0938 2.99219 15.388 2.64844 14.5859C2.3099 13.7839 2.14062 12.9219 2.14062 12C2.14583 11.1771 2.28646 10.401 2.5625 9.67188C2.83854 8.9375 3.22396 8.28385 3.71875 7.71094C3.83333 7.5599 3.89323 7.39844 3.89844 7.22656C3.90365 7.05469 3.84115 6.90104 3.71094 6.76562C3.58073 6.63021 3.41927 6.57031 3.22656 6.58594C3.03906 6.59635 2.875 6.6875 2.73438 6.85938C2.14062 7.55729 1.67188 8.34635 1.32812 9.22656C0.984375 10.1016 0.8125 11.026 0.8125 12C0.8125 13.0885 1.02083 14.1146 1.4375 15.0781C1.85417 16.0365 2.42969 16.8828 3.16406 17.6172C3.89844 18.3516 4.74479 18.9271 5.70312 19.3438C6.66667 19.7604 7.69272 19.9688 8.78127 19.9688ZM10.0313 13.125C10.2396 12.9062 10.3646 12.6745 10.4063 12.4297C10.4479 12.1797 10.4141 11.9375 10.3047 11.7031C10.2005 11.4688 10.0261 11.2656 9.78127 11.0938L5.64844 8.20312C5.51823 8.11458 5.39583 8.09115 5.28125 8.13281C5.16667 8.17448 5.08854 8.2526 5.04688 8.36719C5.01042 8.47656 5.03646 8.59635 5.125 8.72656L8.00783 12.8594C8.1797 13.1094 8.38283 13.2891 8.6172 13.3984C8.85158 13.5026 9.09377 13.5339 9.34377 13.4922C9.59377 13.4505 9.82293 13.3281 10.0313 13.125Z"
		fill="currentColor"
	/>
</svg>
