<svg
	color="rgb(var(--foreground, 0, 0, 0))"
	viewBox="0 0 20 24"
	fill="none"
	xmlns="http://www.w3.org/2000/svg"
>
	<path
		d="M2.49438 19.4492H16.7756C17.5881 19.4492 18.2001 19.2461 18.6116 18.8398C19.023 18.4388 19.2288 17.8346 19.2288 17.0273V8.84766C19.2288 8.04557 19.023 7.44401 18.6116 7.04297C18.2001 6.63672 17.5881 6.43359 16.7756 6.43359H14.5413C14.3329 6.43359 14.1663 6.41797 14.0413 6.38672C13.9163 6.35547 13.8043 6.30339 13.7053 6.23047C13.6116 6.15234 13.5048 6.04818 13.385 5.91797L12.76 5.21484C12.5673 5.0013 12.3538 4.83724 12.1194 4.72266C11.885 4.60807 11.5673 4.55078 11.1663 4.55078H8.04907C7.64803 4.55078 7.33032 4.60807 7.09595 4.72266C6.86678 4.83724 6.65324 5.0013 6.45532 5.21484L5.83032 5.91797C5.65845 6.11068 5.49959 6.24609 5.35376 6.32422C5.20793 6.39714 4.98136 6.43359 4.67407 6.43359H2.49438C1.67668 6.43359 1.06209 6.63672 0.650635 7.04297C0.244385 7.44401 0.0412598 8.04557 0.0412598 8.84766V17.0273C0.0412598 17.8346 0.244385 18.4388 0.650635 18.8398C1.06209 19.2461 1.67668 19.4492 2.49438 19.4492ZM9.63501 17.1445C9.04126 17.1445 8.48657 17.0352 7.97095 16.8164C7.45532 16.5977 7.0022 16.293 6.61157 15.9023C6.22616 15.5117 5.92147 15.0586 5.69751 14.543C5.47876 14.0273 5.36938 13.4701 5.36938 12.8711C5.36938 12.2773 5.47876 11.7227 5.69751 11.207C5.92147 10.6914 6.22616 10.2383 6.61157 9.84766C7.0022 9.45703 7.45532 9.15234 7.97095 8.93359C8.48657 8.71484 9.04126 8.60547 9.63501 8.60547C10.4215 8.60547 11.1376 8.79557 11.7834 9.17578C12.4293 9.55599 12.9423 10.069 13.3225 10.7148C13.7027 11.3607 13.8928 12.0794 13.8928 12.8711C13.8928 13.4701 13.7834 14.0273 13.5647 14.543C13.3459 15.0586 13.0413 15.5117 12.6506 15.9023C12.26 16.293 11.8069 16.5977 11.2913 16.8164C10.7756 17.0352 10.2236 17.1445 9.63501 17.1445ZM9.63501 15.957C10.2027 15.957 10.7183 15.819 11.1819 15.543C11.6506 15.2669 12.023 14.8971 12.2991 14.4336C12.5751 13.9648 12.7131 13.444 12.7131 12.8711C12.7131 12.3034 12.5751 11.7878 12.2991 11.3242C12.023 10.8555 11.6506 10.4831 11.1819 10.207C10.7183 9.92578 10.2027 9.78516 9.63501 9.78516C9.0673 9.78516 8.54907 9.92578 8.08032 10.207C7.61678 10.4831 7.24438 10.8555 6.96313 11.3242C6.68709 11.7878 6.54907 12.3034 6.54907 12.8711C6.54907 13.444 6.68709 13.9648 6.96313 14.4336C7.24438 14.8971 7.61678 15.2669 8.08032 15.543C8.54907 15.819 9.0673 15.957 9.63501 15.957ZM14.4163 9.99609C14.4163 9.73047 14.5152 9.4987 14.7131 9.30078C14.9163 9.09766 15.1558 8.99609 15.4319 8.99609C15.6975 8.99609 15.9293 9.09766 16.1272 9.30078C16.3303 9.4987 16.4319 9.73047 16.4319 9.99609C16.4319 10.2773 16.3303 10.5143 16.1272 10.707C15.9293 10.8997 15.6975 10.9961 15.4319 10.9961C15.1558 11.0013 14.9163 10.9076 14.7131 10.7148C14.5152 10.5169 14.4163 10.2773 14.4163 9.99609Z"
		fill="currentColor"
	/>
</svg>
