<svg
	color="rgb(var(--foreground, 0, 0, 0))"
	viewBox="0 0 21 24"
	fill="none"
	xmlns="http://www.w3.org/2000/svg"
>
	<path
		d="M3.30688 19.4492H17.5881C18.4006 19.4492 19.0126 19.2461 19.4241 18.8398C19.8355 18.4388 20.0413 17.8346 20.0413 17.0273V8.84766C20.0413 8.04557 19.8355 7.44401 19.4241 7.04297C19.0126 6.63672 18.4006 6.43359 17.5881 6.43359H15.3538C15.1454 6.43359 14.9788 6.41797 14.8538 6.38672C14.7288 6.35547 14.6168 6.30339 14.5178 6.23047C14.4241 6.15234 14.3173 6.04818 14.1975 5.91797L13.5725 5.21484C13.3798 5.0013 13.1663 4.83724 12.9319 4.72266C12.6975 4.60807 12.3798 4.55078 11.9788 4.55078H8.86157C8.46053 4.55078 8.14282 4.60807 7.90845 4.72266C7.67928 4.83724 7.46574 5.0013 7.26782 5.21484L6.64282 5.91797C6.47095 6.11068 6.31209 6.24609 6.16626 6.32422C6.02043 6.39714 5.79386 6.43359 5.48657 6.43359H3.30688C2.48918 6.43359 1.87459 6.63672 1.46313 7.04297C1.05688 7.44401 0.85376 8.04557 0.85376 8.84766V17.0273C0.85376 17.8346 1.05688 18.4388 1.46313 18.8398C1.87459 19.2461 2.48918 19.4492 3.30688 19.4492ZM3.32251 18.1914C2.93709 18.1914 2.63761 18.0898 2.42407 17.8867C2.21574 17.6784 2.11157 17.3711 2.11157 16.9648V8.91797C2.11157 8.51172 2.21574 8.20703 2.42407 8.00391C2.63761 7.79557 2.93709 7.69141 3.32251 7.69141H5.79907C6.15324 7.69141 6.43709 7.65234 6.65063 7.57422C6.86938 7.49089 7.07772 7.33984 7.27563 7.12109L7.88501 6.43359C8.10897 6.18359 8.30688 6.01693 8.47876 5.93359C8.65063 5.85026 8.90845 5.80859 9.2522 5.80859H11.5881C11.9319 5.80859 12.1897 5.85026 12.3616 5.93359C12.5334 6.01693 12.7314 6.18359 12.9553 6.43359L13.5647 7.12109C13.7626 7.33984 13.9683 7.49089 14.1819 7.57422C14.4006 7.65234 14.6871 7.69141 15.0413 7.69141H17.5647C17.9501 7.69141 18.2496 7.79557 18.4631 8.00391C18.6767 8.20703 18.7834 8.51172 18.7834 8.91797V16.9648C18.7834 17.3711 18.6767 17.6784 18.4631 17.8867C18.2496 18.0898 17.9501 18.1914 17.5647 18.1914H3.32251ZM10.4475 17.0664C11.0361 17.0664 11.5881 16.957 12.1038 16.7383C12.6194 16.5195 13.0725 16.2148 13.4631 15.8242C13.8538 15.4336 14.1584 14.9805 14.3772 14.4648C14.5959 13.9492 14.7053 13.3919 14.7053 12.793C14.7053 12.0013 14.5152 11.2826 14.135 10.6367C13.7548 9.99089 13.2418 9.47786 12.5959 9.09766C11.9501 8.71745 11.234 8.52734 10.4475 8.52734C9.85376 8.52734 9.29907 8.63672 8.78345 8.85547C8.26782 9.07422 7.8147 9.37891 7.42407 9.76953C7.03866 10.1602 6.73397 10.6133 6.51001 11.1289C6.29126 11.6445 6.18188 12.1992 6.18188 12.793C6.18188 13.3919 6.29126 13.9492 6.51001 14.4648C6.73397 14.9805 7.03866 15.4336 7.42407 15.8242C7.8147 16.2148 8.26782 16.5195 8.78345 16.7383C9.29907 16.957 9.85376 17.0664 10.4475 17.0664ZM10.4475 15.8789C9.8798 15.8789 9.36157 15.7409 8.89282 15.4648C8.42928 15.1888 8.05688 14.819 7.77563 14.3555C7.49959 13.8867 7.36157 13.3659 7.36157 12.793C7.36157 12.2253 7.49959 11.7096 7.77563 11.2461C8.05688 10.7773 8.42928 10.4049 8.89282 10.1289C9.36157 9.84766 9.8798 9.70703 10.4475 9.70703C11.0152 9.70703 11.5308 9.84766 11.9944 10.1289C12.4631 10.4049 12.8355 10.7773 13.1116 11.2461C13.3876 11.7096 13.5256 12.2253 13.5256 12.793C13.5256 13.3659 13.3876 13.8867 13.1116 14.3555C12.8355 14.819 12.4631 15.1888 11.9944 15.4648C11.5308 15.7409 11.0152 15.8789 10.4475 15.8789ZM15.0256 9.91797C15.0256 10.194 15.122 10.4258 15.3147 10.6133C15.5074 10.7956 15.7392 10.8867 16.01 10.8867C16.2704 10.8867 16.497 10.793 16.6897 10.6055C16.8824 10.418 16.9788 10.1888 16.9788 9.91797C16.9788 9.65755 16.8824 9.43099 16.6897 9.23828C16.497 9.04557 16.2704 8.94922 16.01 8.94922C15.7392 8.94922 15.5074 9.04557 15.3147 9.23828C15.122 9.43099 15.0256 9.65755 15.0256 9.91797Z"
		fill="currentColor"
	/>
</svg>
