<svg
	color="rgb(var(--foreground, 0, 0, 0))"
	viewBox="0 0 20 24"
	fill="none"
	xmlns="http://www.w3.org/2000/svg"
>
	<path
		d="M2.39062 17.0977H17.4141C17.9766 17.0977 18.4167 16.9388 18.7344 16.6211C19.0573 16.2982 19.2188 15.8555 19.2188 15.293V5.92578C19.2188 5.36328 19.0573 4.92318 18.7344 4.60547C18.4167 4.28776 17.9766 4.12891 17.4141 4.12891H2.39062C1.83333 4.12891 1.39323 4.28776 1.07031 4.60547C0.752604 4.92318 0.59375 5.36328 0.59375 5.92578V15.293C0.59375 15.8555 0.752604 16.2982 1.07031 16.6211C1.39323 16.9388 1.83333 17.0977 2.39062 17.0977ZM2.41406 15.8398C2.24219 15.8398 2.10417 15.7904 2 15.6914C1.90104 15.5872 1.85156 15.4492 1.85156 15.2773V5.94922C1.85156 5.77214 1.90104 5.63411 2 5.53516C2.10417 5.4362 2.24219 5.38672 2.41406 5.38672H17.3984C17.5703 5.38672 17.7057 5.4362 17.8047 5.53516C17.9089 5.63411 17.9609 5.77214 17.9609 5.94922V15.2773C17.9609 15.4492 17.9089 15.5872 17.8047 15.6914C17.7057 15.7904 17.5703 15.8398 17.3984 15.8398H2.41406ZM7.4375 18.957H12.375V16.9961H7.4375V18.957ZM7.39062 19.8711H12.4219C12.5938 19.8711 12.7396 19.8086 12.8594 19.6836C12.9844 19.5638 13.0469 19.4154 13.0469 19.2383C13.0469 19.0612 12.9844 18.9102 12.8594 18.7852C12.7396 18.6654 12.5938 18.6055 12.4219 18.6055H7.39062C7.21875 18.6055 7.07031 18.6654 6.94531 18.7852C6.82031 18.9102 6.75781 19.0612 6.75781 19.2383C6.75781 19.4154 6.82031 19.5638 6.94531 19.6836C7.07031 19.8086 7.21875 19.8711 7.39062 19.8711Z"
		fill="currentColor"
	/>
</svg>
