<svg
	color="rgb(var(--foreground, 0, 0, 0))"
	viewBox="0 0 16 24"
	fill="none"
	xmlns="http://www.w3.org/2000/svg"
>
	<path
		d="M3.99841 3.04407C2.31091 3.04407 0.771851 5.61438 0.771851 7.60657C0.771851 8.55969 1.09216 10.4347 1.84216 11.9425H6.16248C6.90466 10.4347 7.23279 8.55969 7.23279 7.60657C7.23279 5.61438 5.69373 3.04407 3.99841 3.04407ZM13.4906 8.17688C11.8969 7.59875 9.58435 9.48157 8.89685 11.3566C8.57654 12.255 8.23279 14.13 8.41248 15.8019L12.475 17.2784C13.6937 16.1144 14.639 14.4738 14.9672 13.5597C15.6469 11.6925 15.0844 8.76282 13.4906 8.17688ZM4.00623 16.5363C5.22498 16.5363 5.88123 15.3253 5.88123 13.6066C5.88123 13.4425 5.8656 13.2003 5.83435 13.0128H2.1781C2.14685 13.2003 2.13123 13.4425 2.13123 13.6066C2.13123 15.3253 2.78748 16.5363 4.00623 16.5363ZM8.88123 20.8566C10.0297 21.2706 11.0609 20.3566 11.6469 18.7472C11.7015 18.5909 11.764 18.3566 11.8109 18.1691L8.37341 16.9113C8.27966 17.0831 8.1781 17.3019 8.12341 17.4581C7.53748 19.0753 7.7406 20.4347 8.88123 20.8566Z"
		fill="currentColor"
	/>
</svg>
