<svg
	color="rgb(var(--foreground, 0, 0, 0))"
	viewBox="0 0 16 24"
	fill="none"
	xmlns="http://www.w3.org/2000/svg"
>
	<path
		d="M4.44812 6.73047L5.33875 5.83984L2.89343 3.40234C2.77364 3.27734 2.6252 3.21484 2.44812 3.21484C2.27625 3.21484 2.12781 3.27734 2.00281 3.40234C1.88302 3.52214 1.82312 3.67057 1.82312 3.84766C1.82312 4.01953 1.88302 4.16797 2.00281 4.29297L4.44812 6.73047ZM14.4716 15.8555L13.5966 14.957C12.9768 15.5872 12.245 16.082 11.4012 16.4414C10.5627 16.7956 9.66166 16.9727 8.69812 16.9727C7.73458 16.9727 6.83614 16.7982 6.00281 16.4492C5.16947 16.0951 4.4377 15.6055 3.8075 14.9805C3.1825 14.3503 2.69291 13.6185 2.33875 12.7852C1.98979 11.9518 1.81531 11.0534 1.81531 10.0898C1.81531 9.1263 1.99239 8.22786 2.34656 7.39453C2.70593 6.55599 3.19552 5.82682 3.81531 5.20703L2.90125 4.34766C2.17208 5.07682 1.59916 5.9362 1.1825 6.92578C0.765828 7.91016 0.557495 8.96484 0.557495 10.0898C0.557495 11.2253 0.765828 12.2852 1.1825 13.2695C1.60437 14.2539 2.1851 15.1185 2.92468 15.8633C3.66947 16.6081 4.53406 17.1888 5.51843 17.6055C6.50281 18.0221 7.5627 18.2305 8.69812 18.2305C9.83354 18.2305 10.896 18.0195 11.8856 17.5977C12.8752 17.1706 13.7372 16.5898 14.4716 15.8555ZM12.87 13.3789L11.9403 14.2227L14.6903 16.9727C14.8101 17.0977 14.9559 17.1602 15.1278 17.1602C15.3049 17.1602 15.4533 17.0977 15.5731 16.9727C15.6981 16.8529 15.7606 16.707 15.7606 16.5352C15.7606 16.3581 15.6981 16.207 15.5731 16.082L12.87 13.3789ZM8.06531 17.9023V19.9805H9.32312V17.9023H8.06531ZM5.89343 20.7852H11.5184C11.6903 20.7852 11.8361 20.7227 11.9559 20.5977C12.0809 20.4779 12.1434 20.332 12.1434 20.1602C12.1434 19.9883 12.0809 19.8398 11.9559 19.7148C11.8361 19.5898 11.6903 19.5273 11.5184 19.5273H5.89343C5.72156 19.5273 5.57312 19.5898 5.44812 19.7148C5.32312 19.8398 5.26062 19.9883 5.26062 20.1602C5.26062 20.332 5.32312 20.4779 5.44812 20.5977C5.57312 20.7227 5.72156 20.7852 5.89343 20.7852ZM8.69812 15.832C9.48979 15.832 10.232 15.6836 10.9247 15.3867C11.6174 15.0898 12.2268 14.6784 12.7528 14.1523C13.2788 13.6263 13.6903 13.0169 13.9872 12.3242C14.2841 11.6263 14.4325 10.8815 14.4325 10.0898C14.4325 9.29818 14.2841 8.55599 13.9872 7.86328C13.6903 7.17057 13.2788 6.5612 12.7528 6.03516C12.2268 5.50911 11.6174 5.09766 10.9247 4.80078C10.232 4.50391 9.48979 4.35547 8.69812 4.35547C7.90645 4.35547 7.16166 4.50391 6.46375 4.80078C5.77104 5.09766 5.16166 5.50911 4.63562 6.03516C4.11479 6.5612 3.70333 7.17057 3.40125 7.86328C3.10437 8.55599 2.95593 9.29818 2.95593 10.0898C2.95593 10.8815 3.10437 11.6263 3.40125 12.3242C3.70333 13.0169 4.11479 13.6263 4.63562 14.1523C5.16166 14.6784 5.77104 15.0898 6.46375 15.3867C7.16166 15.6836 7.90645 15.832 8.69812 15.832Z"
		fill="currentColor"
	/>
</svg>
