<svg
	color="rgb(var(--foreground, 0, 0, 0))"
	viewBox="0 0 16 24"
	fill="none"
	xmlns="http://www.w3.org/2000/svg"
>
	<path
		d="M4.245 6.73047L5.13562 5.83984L2.69031 3.40234C2.57052 3.27734 2.42208 3.21484 2.245 3.21484C2.07312 3.21484 1.92468 3.27734 1.79968 3.40234C1.67989 3.52214 1.62 3.67057 1.62 3.84766C1.62 4.01953 1.67989 4.16797 1.79968 4.29297L4.245 6.73047ZM14.2684 15.8555L13.3934 14.957C12.7736 15.5872 12.0419 16.082 11.1981 16.4414C10.3596 16.7956 9.45854 16.9727 8.495 16.9727C7.53145 16.9727 6.63302 16.7982 5.79968 16.4492C4.96635 16.0951 4.23458 15.6055 3.60437 14.9805C2.97937 14.3503 2.48979 13.6185 2.13562 12.7852C1.78666 11.9518 1.61218 11.0534 1.61218 10.0898C1.61218 9.1263 1.78927 8.22786 2.14343 7.39453C2.50281 6.55599 2.99239 5.82682 3.61218 5.20703L2.69812 4.34766C1.96895 5.07682 1.39604 5.9362 0.97937 6.92578C0.562703 7.91016 0.35437 8.96484 0.35437 10.0898C0.35437 11.2253 0.562703 12.2852 0.97937 13.2695C1.40125 14.2539 1.98197 15.1185 2.72156 15.8633C3.46635 16.6081 4.33093 17.1888 5.31531 17.6055C6.29968 18.0221 7.35958 18.2305 8.495 18.2305C9.63041 18.2305 10.6929 18.0195 11.6825 17.5977C12.6721 17.1706 13.5341 16.5898 14.2684 15.8555ZM12.6669 13.3789L11.7372 14.2227L14.4872 16.9727C14.607 17.0977 14.7528 17.1602 14.9247 17.1602C15.1018 17.1602 15.2502 17.0977 15.37 16.9727C15.495 16.8529 15.5575 16.707 15.5575 16.5352C15.5575 16.3581 15.495 16.207 15.37 16.082L12.6669 13.3789ZM7.86218 17.9023V19.9805H9.12V17.9023H7.86218ZM5.69031 20.7852H11.3153C11.4872 20.7852 11.633 20.7227 11.7528 20.5977C11.8778 20.4779 11.9403 20.332 11.9403 20.1602C11.9403 19.9883 11.8778 19.8398 11.7528 19.7148C11.633 19.5898 11.4872 19.5273 11.3153 19.5273H5.69031C5.51843 19.5273 5.37 19.5898 5.245 19.7148C5.12 19.8398 5.0575 19.9883 5.0575 20.1602C5.0575 20.332 5.12 20.4779 5.245 20.5977C5.37 20.7227 5.51843 20.7852 5.69031 20.7852ZM8.495 15.832C9.28666 15.832 10.0288 15.6836 10.7216 15.3867C11.4143 15.0898 12.0236 14.6784 12.5497 14.1523C13.0757 13.6263 13.4872 13.0169 13.7841 12.3242C14.0809 11.6263 14.2294 10.8815 14.2294 10.0898C14.2294 9.29818 14.0809 8.55599 13.7841 7.86328C13.4872 7.17057 13.0757 6.5612 12.5497 6.03516C12.0236 5.50911 11.4143 5.09766 10.7216 4.80078C10.0288 4.50391 9.28666 4.35547 8.495 4.35547C7.70333 4.35547 6.95854 4.50391 6.26062 4.80078C5.56791 5.09766 4.95854 5.50911 4.4325 6.03516C3.91166 6.5612 3.5002 7.17057 3.19812 7.86328C2.90125 8.55599 2.75281 9.29818 2.75281 10.0898C2.75281 10.8815 2.90125 11.6263 3.19812 12.3242C3.5002 13.0169 3.91166 13.6263 4.4325 14.1523C4.95854 14.6784 5.56791 15.0898 6.26062 15.3867C6.95854 15.6836 7.70333 15.832 8.495 15.832ZM8.495 14.6523C7.82312 14.6523 7.20854 14.543 6.65125 14.3242C6.09395 14.1003 5.61218 13.7852 5.20593 13.3789C4.80489 12.9727 4.49239 12.4909 4.26843 11.9336C4.04447 11.3763 3.9325 10.7617 3.9325 10.0898C3.9325 9.42318 4.04447 8.8112 4.26843 8.25391C4.49239 7.69661 4.80489 7.21484 5.20593 6.80859C5.61218 6.40234 6.09395 6.08984 6.65125 5.87109C7.20854 5.64714 7.82312 5.53516 8.495 5.53516C9.16166 5.53516 9.77364 5.64714 10.3309 5.87109C10.8882 6.08984 11.37 6.40234 11.7762 6.80859C12.1825 7.21484 12.495 7.69661 12.7137 8.25391C12.9377 8.8112 13.0497 9.42318 13.0497 10.0898C13.0497 10.7617 12.9377 11.3763 12.7137 11.9336C12.495 12.4909 12.1825 12.9727 11.7762 13.3789C11.37 13.7852 10.8882 14.1003 10.3309 14.3242C9.77364 14.543 9.16166 14.6523 8.495 14.6523Z"
		fill="currentColor"
	/>
</svg>
