<svg
	color="rgb(var(--foreground, 0, 0, 0))"
	viewBox="0 0 17 24"
	fill="none"
	xmlns="http://www.w3.org/2000/svg"
>
	<path
		d="M0.585938 12.3278C0.585938 13.1143 0.658854 13.9163 0.804688 14.7341C0.950521 15.5466 1.15885 16.3408 1.42969 17.1169C1.70573 17.8929 2.03385 18.6169 2.41406 19.2887C2.50781 19.4554 2.63802 19.5596 2.80469 19.6012C2.97656 19.6481 3.15104 19.6221 3.32812 19.5231C3.49479 19.4346 3.59635 19.3044 3.63281 19.1325C3.67448 18.9658 3.64583 18.7913 3.54688 18.6091C3.02604 17.6559 2.6224 16.6351 2.33594 15.5466C2.05469 14.4528 1.91406 13.3799 1.91406 12.3278C1.91406 11.2445 2.07031 10.2601 2.38281 9.37468C2.70052 8.48926 3.15104 7.72885 3.73438 7.09343C4.31771 6.4528 5.01562 5.96062 5.82812 5.61687C6.64062 5.27312 7.54427 5.10124 8.53906 5.10124C9.52865 5.10124 10.4297 5.27312 11.2422 5.61687C12.0547 5.96062 12.7526 6.4528 13.3359 7.09343C13.9245 7.72885 14.375 8.48926 14.6875 9.37468C15.0052 10.2601 15.1641 11.2445 15.1641 12.3278C15.1641 13.3799 15.0208 14.4528 14.7344 15.5466C14.4479 16.6351 14.0443 17.6559 13.5234 18.6091C13.4245 18.7913 13.3932 18.9658 13.4297 19.1325C13.4714 19.3044 13.5755 19.4346 13.7422 19.5231C13.9193 19.6221 14.0911 19.6481 14.2578 19.6012C14.4297 19.5596 14.5625 19.4554 14.6562 19.2887C15.0365 18.6169 15.3646 17.8929 15.6406 17.1169C15.9167 16.3408 16.1276 15.5466 16.2734 14.7341C16.4193 13.9163 16.4922 13.1143 16.4922 12.3278C16.4922 11.0413 16.3021 9.87468 15.9219 8.8278C15.5469 7.77572 15.0078 6.87468 14.3047 6.12468C13.6068 5.36947 12.7682 4.78874 11.7891 4.38249C10.8151 3.97624 9.73177 3.77312 8.53906 3.77312C7.34115 3.77312 6.2526 3.97624 5.27344 4.38249C4.29948 4.78874 3.46354 5.36947 2.76562 6.12468C2.06771 6.87468 1.52865 7.77572 1.14844 8.8278C0.773438 9.87468 0.585938 11.0413 0.585938 12.3278ZM3.03125 19.0934C3.16146 19.5413 3.40104 19.8617 3.75 20.0544C4.10417 20.2471 4.50781 20.2783 4.96094 20.1481C5.41406 20.0179 5.73698 19.7731 5.92969 19.4137C6.1224 19.0596 6.15104 18.6585 6.01562 18.2106L4.89844 14.3981C4.76823 13.9502 4.52604 13.6325 4.17188 13.445C3.82292 13.2523 3.42188 13.2184 2.96875 13.3434C2.51562 13.4736 2.19271 13.7184 2 14.0778C1.80729 14.432 1.77865 14.8356 1.91406 15.2887L3.03125 19.0934ZM14.0391 19.0934L15.1562 15.2887C15.2917 14.8304 15.263 14.4242 15.0703 14.07C14.8776 13.7158 14.5547 13.4736 14.1016 13.3434C13.6484 13.2184 13.2448 13.2523 12.8906 13.445C12.5417 13.6325 12.3021 13.9502 12.1719 14.3981L11.0547 18.2106C10.9193 18.6637 10.9479 19.0674 11.1406 19.4216C11.3385 19.7757 11.6615 20.0179 12.1094 20.1481C12.5625 20.2783 12.9635 20.2471 13.3125 20.0544C13.6667 19.8617 13.9089 19.5413 14.0391 19.0934Z"
		fill="currentColor"
	/>
</svg>
