<svg
	color="rgb(var(--foreground, 0, 0, 0))"
	viewBox="0 0 21 24"
	fill="none"
	xmlns="http://www.w3.org/2000/svg"
>
	<path
		d="M3.38281 18.1719H18.1406C18.9531 18.1719 19.5651 17.9688 19.9766 17.5625C20.388 17.1562 20.5938 16.5521 20.5938 15.75V8.24219C20.5938 7.4401 20.388 6.83854 19.9766 6.4375C19.5651 6.03125 18.9531 5.82812 18.1406 5.82812H3.38281C2.5651 5.82812 1.95052 6.03125 1.53906 6.4375C1.13281 6.83854 0.929688 7.4401 0.929688 8.24219V15.75C0.929688 16.5573 1.13281 17.1641 1.53906 17.5703C1.95052 17.9714 2.5651 18.1719 3.38281 18.1719ZM3.89062 10.125C3.65625 10.125 3.53906 10.0052 3.53906 9.76562V9.02344C3.53906 8.78385 3.65625 8.66406 3.89062 8.66406H4.63281C4.8776 8.66406 5 8.78385 5 9.02344V9.76562C5 10.0052 4.8776 10.125 4.63281 10.125H3.89062ZM6.48438 10.125C6.24479 10.125 6.125 10.0052 6.125 9.76562V9.02344C6.125 8.78385 6.24479 8.66406 6.48438 8.66406H7.22656C7.46615 8.66406 7.58594 8.78385 7.58594 9.02344V9.76562C7.58594 10.0052 7.46615 10.125 7.22656 10.125H6.48438ZM9.07812 10.125C8.83854 10.125 8.71875 10.0052 8.71875 9.76562V9.02344C8.71875 8.78385 8.83854 8.66406 9.07812 8.66406H9.8125C10.0573 8.66406 10.1797 8.78385 10.1797 9.02344V9.76562C10.1797 10.0052 10.0573 10.125 9.8125 10.125H9.07812ZM11.6719 10.125C11.4323 10.125 11.3125 10.0052 11.3125 9.76562V9.02344C11.3125 8.78385 11.4323 8.66406 11.6719 8.66406H12.4141C12.6536 8.66406 12.7734 8.78385 12.7734 9.02344V9.76562C12.7734 10.0052 12.6536 10.125 12.4141 10.125H11.6719ZM14.2656 10.125C14.0208 10.125 13.8984 10.0052 13.8984 9.76562V9.02344C13.8984 8.78385 14.0208 8.66406 14.2656 8.66406H15.0078C15.2422 8.66406 15.3594 8.78385 15.3594 9.02344V9.76562C15.3594 10.0052 15.2422 10.125 15.0078 10.125H14.2656ZM16.8594 10.125C16.6146 10.125 16.4922 10.0052 16.4922 9.76562V9.02344C16.4922 8.78385 16.6146 8.66406 16.8594 8.66406H17.5938C17.8333 8.66406 17.9531 8.78385 17.9531 9.02344V9.76562C17.9531 10.0052 17.8333 10.125 17.5938 10.125H16.8594ZM3.89062 12.7188C3.65625 12.7188 3.53906 12.599 3.53906 12.3594V11.6172C3.53906 11.3776 3.65625 11.2578 3.89062 11.2578H4.63281C4.8776 11.2578 5 11.3776 5 11.6172V12.3594C5 12.599 4.8776 12.7188 4.63281 12.7188H3.89062ZM6.48438 12.7188C6.24479 12.7188 6.125 12.599 6.125 12.3594V11.6172C6.125 11.3776 6.24479 11.2578 6.48438 11.2578H7.22656C7.46615 11.2578 7.58594 11.3776 7.58594 11.6172V12.3594C7.58594 12.599 7.46615 12.7188 7.22656 12.7188H6.48438ZM9.07812 12.7188C8.83854 12.7188 8.71875 12.599 8.71875 12.3594V11.6172C8.71875 11.3776 8.83854 11.2578 9.07812 11.2578H9.8125C10.0573 11.2578 10.1797 11.3776 10.1797 11.6172V12.3594C10.1797 12.599 10.0573 12.7188 9.8125 12.7188H9.07812ZM11.6719 12.7188C11.4323 12.7188 11.3125 12.599 11.3125 12.3594V11.6172C11.3125 11.3776 11.4323 11.2578 11.6719 11.2578H12.4141C12.6536 11.2578 12.7734 11.3776 12.7734 11.6172V12.3594C12.7734 12.599 12.6536 12.7188 12.4141 12.7188H11.6719ZM14.2656 12.7188C14.0208 12.7188 13.8984 12.599 13.8984 12.3594V11.6172C13.8984 11.3776 14.0208 11.2578 14.2656 11.2578H15.0078C15.2422 11.2578 15.3594 11.3776 15.3594 11.6172V12.3594C15.3594 12.599 15.2422 12.7188 15.0078 12.7188H14.2656ZM16.8594 12.7188C16.6146 12.7188 16.4922 12.599 16.4922 12.3594V11.6172C16.4922 11.3776 16.6146 11.2578 16.8594 11.2578H17.5938C17.8333 11.2578 17.9531 11.3776 17.9531 11.6172V12.3594C17.9531 12.599 17.8333 12.7188 17.5938 12.7188H16.8594ZM3.89062 15.3125C3.65625 15.3125 3.53906 15.1927 3.53906 14.9531V14.2109C3.53906 13.9714 3.65625 13.8516 3.89062 13.8516H4.63281C4.8776 13.8516 5 13.9714 5 14.2109V14.9531C5 15.1927 4.8776 15.3125 4.63281 15.3125H3.89062ZM6.57031 15.3125C6.27344 15.3125 6.125 15.1641 6.125 14.8672V14.2891C6.125 13.9974 6.27344 13.8516 6.57031 13.8516H14.9219C15.2135 13.8516 15.3594 13.9974 15.3594 14.2891V14.8672C15.3594 15.1641 15.2135 15.3125 14.9219 15.3125H6.57031ZM16.8594 15.3125C16.6146 15.3125 16.4922 15.1927 16.4922 14.9531V14.2109C16.4922 13.9714 16.6146 13.8516 16.8594 13.8516H17.5938C17.8333 13.8516 17.9531 13.9714 17.9531 14.2109V14.9531C17.9531 15.1927 17.8333 15.3125 17.5938 15.3125H16.8594Z"
		fill="currentColor"
	/>
</svg>
