<svg
	color="rgb(var(--foreground, 0, 0, 0))"
	viewBox="0 0 20 24"
	fill="none"
	xmlns="http://www.w3.org/2000/svg"
>
	<path
		d="M2.71875 18.1719H17.4766C18.2891 18.1719 18.901 17.9688 19.3125 17.5625C19.724 17.1562 19.9297 16.5521 19.9297 15.75V8.24219C19.9297 7.4401 19.724 6.83854 19.3125 6.4375C18.901 6.03125 18.2891 5.82812 17.4766 5.82812H2.71875C1.90104 5.82812 1.28646 6.03125 0.875 6.4375C0.46875 6.83854 0.265625 7.4401 0.265625 8.24219V15.75C0.265625 16.5573 0.46875 17.1641 0.875 17.5703C1.28646 17.9714 1.90104 18.1719 2.71875 18.1719ZM2.73438 16.9141C2.34375 16.9141 2.04427 16.8099 1.83594 16.6016C1.6276 16.3932 1.52344 16.0859 1.52344 15.6797V8.3125C1.52344 7.90625 1.6276 7.60156 1.83594 7.39844C2.04427 7.1901 2.34375 7.08594 2.73438 7.08594H17.4531C17.8385 7.08594 18.138 7.1901 18.3516 7.39844C18.5651 7.60156 18.6719 7.90625 18.6719 8.3125V15.6797C18.6719 16.0859 18.5651 16.3932 18.3516 16.6016C18.138 16.8099 17.8385 16.9141 17.4531 16.9141H2.73438ZM3.4375 10.1797H4.15625C4.39062 10.1797 4.50781 10.0651 4.50781 9.83594V9.11719C4.50781 8.88281 4.39062 8.76562 4.15625 8.76562H3.4375C3.20833 8.76562 3.09375 8.88281 3.09375 9.11719V9.83594C3.09375 10.0651 3.20833 10.1797 3.4375 10.1797ZM5.95312 10.1797H6.67188C6.90104 10.1797 7.01562 10.0651 7.01562 9.83594V9.11719C7.01562 8.88281 6.90104 8.76562 6.67188 8.76562H5.95312C5.71875 8.76562 5.60156 8.88281 5.60156 9.11719V9.83594C5.60156 10.0651 5.71875 10.1797 5.95312 10.1797ZM8.46875 10.1797H9.17969C9.41406 10.1797 9.53125 10.0651 9.53125 9.83594V9.11719C9.53125 8.88281 9.41406 8.76562 9.17969 8.76562H8.46875C8.23438 8.76562 8.11719 8.88281 8.11719 9.11719V9.83594C8.11719 10.0651 8.23438 10.1797 8.46875 10.1797ZM10.9766 10.1797H11.6953C11.9297 10.1797 12.0469 10.0651 12.0469 9.83594V9.11719C12.0469 8.88281 11.9297 8.76562 11.6953 8.76562H10.9766C10.7474 8.76562 10.6328 8.88281 10.6328 9.11719V9.83594C10.6328 10.0651 10.7474 10.1797 10.9766 10.1797ZM13.4922 10.1797H14.2109C14.4401 10.1797 14.5547 10.0651 14.5547 9.83594V9.11719C14.5547 8.88281 14.4401 8.76562 14.2109 8.76562H13.4922C13.2578 8.76562 13.1406 8.88281 13.1406 9.11719V9.83594C13.1406 10.0651 13.2578 10.1797 13.4922 10.1797ZM16.0078 10.1797H16.7188C16.9531 10.1797 17.0703 10.0651 17.0703 9.83594V9.11719C17.0703 8.88281 16.9531 8.76562 16.7188 8.76562H16.0078C15.7734 8.76562 15.6562 8.88281 15.6562 9.11719V9.83594C15.6562 10.0651 15.7734 10.1797 16.0078 10.1797ZM3.4375 12.6953H4.15625C4.39062 12.6953 4.50781 12.5781 4.50781 12.3438V11.6328C4.50781 11.3984 4.39062 11.2812 4.15625 11.2812H3.4375C3.20833 11.2812 3.09375 11.3984 3.09375 11.6328V12.3438C3.09375 12.5781 3.20833 12.6953 3.4375 12.6953ZM5.95312 12.6953H6.67188C6.90104 12.6953 7.01562 12.5781 7.01562 12.3438V11.6328C7.01562 11.3984 6.90104 11.2812 6.67188 11.2812H5.95312C5.71875 11.2812 5.60156 11.3984 5.60156 11.6328V12.3438C5.60156 12.5781 5.71875 12.6953 5.95312 12.6953ZM8.46875 12.6953H9.17969C9.41406 12.6953 9.53125 12.5781 9.53125 12.3438V11.6328C9.53125 11.3984 9.41406 11.2812 9.17969 11.2812H8.46875C8.23438 11.2812 8.11719 11.3984 8.11719 11.6328V12.3438C8.11719 12.5781 8.23438 12.6953 8.46875 12.6953ZM10.9766 12.6953H11.6953C11.9297 12.6953 12.0469 12.5781 12.0469 12.3438V11.6328C12.0469 11.3984 11.9297 11.2812 11.6953 11.2812H10.9766C10.7474 11.2812 10.6328 11.3984 10.6328 11.6328V12.3438C10.6328 12.5781 10.7474 12.6953 10.9766 12.6953ZM13.4922 12.6953H14.2109C14.4401 12.6953 14.5547 12.5781 14.5547 12.3438V11.6328C14.5547 11.3984 14.4401 11.2812 14.2109 11.2812H13.4922C13.2578 11.2812 13.1406 11.3984 13.1406 11.6328V12.3438C13.1406 12.5781 13.2578 12.6953 13.4922 12.6953ZM16.0078 12.6953H16.7188C16.9531 12.6953 17.0703 12.5781 17.0703 12.3438V11.6328C17.0703 11.3984 16.9531 11.2812 16.7188 11.2812H16.0078C15.7734 11.2812 15.6562 11.3984 15.6562 11.6328V12.3438C15.6562 12.5781 15.7734 12.6953 16.0078 12.6953ZM3.4375 15.2109H4.15625C4.39062 15.2109 4.50781 15.0938 4.50781 14.8594V14.1406C4.50781 13.9115 4.39062 13.7969 4.15625 13.7969H3.4375C3.20833 13.7969 3.09375 13.9115 3.09375 14.1406V14.8594C3.09375 15.0938 3.20833 15.2109 3.4375 15.2109ZM6.03125 15.2109H14.1328C14.4141 15.2109 14.5547 15.0677 14.5547 14.7812V14.2188C14.5547 13.9375 14.4141 13.7969 14.1328 13.7969H6.03125C5.74479 13.7969 5.60156 13.9375 5.60156 14.2188V14.7812C5.60156 15.0677 5.74479 15.2109 6.03125 15.2109ZM16.0078 15.2109H16.7188C16.9531 15.2109 17.0703 15.0938 17.0703 14.8594V14.1406C17.0703 13.9115 16.9531 13.7969 16.7188 13.7969H16.0078C15.7734 13.7969 15.6562 13.9115 15.6562 14.1406V14.8594C15.6562 15.0938 15.7734 15.2109 16.0078 15.2109Z"
		fill="currentColor"
	/>
</svg>
