<svg
	color="rgb(var(--foreground, 0, 0, 0))"
	viewBox="0 0 23 24"
	fill="none"
	xmlns="http://www.w3.org/2000/svg"
>
	<path
		d="M0.21875 17.4648C0.21875 17.7096 0.304688 17.918 0.476562 18.0898C0.648438 18.2669 0.856771 18.3555 1.10156 18.3555H21.8672C22.112 18.3555 22.3203 18.2669 22.4922 18.0898C22.6641 17.918 22.75 17.7096 22.75 17.4648C22.75 17.2201 22.6641 17.0117 22.4922 16.8398C22.3203 16.6628 22.112 16.5742 21.8672 16.5742H20.1562V7.30078C20.1562 6.75391 20.013 6.34245 19.7266 6.06641C19.4453 5.78516 19.0312 5.64453 18.4844 5.64453H4.48438C3.96875 5.64453 3.5599 5.78516 3.25781 6.06641C2.96094 6.34245 2.8125 6.75391 2.8125 7.30078V16.5742H1.10156C0.856771 16.5742 0.648438 16.6628 0.476562 16.8398C0.304688 17.0117 0.21875 17.2201 0.21875 17.4648ZM4.07031 16.5742V7.65234C4.07031 7.40234 4.13281 7.21484 4.25781 7.08984C4.38281 6.96484 4.57031 6.90234 4.82031 6.90234H18.1484C18.3984 6.90234 18.5859 6.96484 18.7109 7.08984C18.8359 7.21484 18.8984 7.40234 18.8984 7.65234V16.5742H4.07031Z"
		fill="currentColor"
	/>
</svg>
