<svg
	color="rgb(var(--foreground, 0, 0, 0))"
	viewBox="0 0 20 24"
	fill="none"
	xmlns="http://www.w3.org/2000/svg"
>
	<path
		d="M2.00781 17.1562H17.5234C18.1849 17.1562 18.6849 16.987 19.0234 16.6484C19.362 16.3099 19.5312 15.8099 19.5312 15.1484V6.19531C19.5312 5.53906 19.362 5.04167 19.0234 4.70312C18.6849 4.36458 18.1849 4.19531 17.5234 4.19531H2.00781C1.34635 4.19531 0.846354 4.36458 0.507812 4.70312C0.169271 5.04167 0 5.53906 0 6.19531V15.1484C0 15.8099 0.169271 16.3099 0.507812 16.6484C0.846354 16.987 1.34635 17.1562 2.00781 17.1562ZM2.03125 15.8984C1.77604 15.8984 1.58333 15.8359 1.45312 15.7109C1.32292 15.5807 1.25781 15.388 1.25781 15.1328V6.21875C1.25781 5.96354 1.32292 5.77344 1.45312 5.64844C1.58333 5.51823 1.77604 5.45312 2.03125 5.45312H17.5C17.7604 5.45312 17.9531 5.51823 18.0781 5.64844C18.2083 5.77344 18.2734 5.96354 18.2734 6.21875V15.1328C18.2734 15.388 18.2083 15.5807 18.0781 15.7109C17.9531 15.8359 17.7604 15.8984 17.5 15.8984H2.03125ZM2.66406 19.8047H17.0547C17.2266 19.8047 17.375 19.7422 17.5 19.6172C17.625 19.4974 17.6875 19.349 17.6875 19.1719C17.6875 19 17.625 18.8516 17.5 18.7266C17.375 18.6016 17.2266 18.5391 17.0547 18.5391H2.66406C2.49219 18.5391 2.34375 18.6016 2.21875 18.7266C2.09375 18.8516 2.03125 19 2.03125 19.1719C2.03125 19.349 2.09375 19.4974 2.21875 19.6172C2.34375 19.7422 2.49219 19.8047 2.66406 19.8047Z"
		fill="currentColor"
	/>
</svg>
