<svg
	color="rgb(var(--foreground, 0, 0, 0))"
	viewBox="0 0 9 24"
	fill="none"
	xmlns="http://www.w3.org/2000/svg"
>
	<path
		d="M6.99872 3.49851C6.54559 3.56883 6.02997 3.84226 5.70184 4.16258C5.37372 4.48289 5.11591 5.02195 5.06122 5.47508C5.04559 5.63133 5.13153 5.72508 5.28778 5.71726C5.76434 5.69383 6.29559 5.44383 6.62372 5.07664C6.93622 4.74851 7.19403 4.22508 7.26434 3.75633C7.27997 3.57664 7.18622 3.47508 6.99872 3.49851ZM2.96747 4.28758C2.70184 4.68601 2.54559 5.25633 2.57684 5.70945C2.58466 6.18601 2.81903 6.72508 3.16278 7.06883C3.27997 7.1782 3.41278 7.16258 3.49872 7.03758C3.75653 6.63914 3.91278 6.06883 3.87372 5.6157C3.84247 5.17039 3.63153 4.63914 3.33466 4.27195C3.20966 4.13133 3.06903 4.14695 2.96747 4.28758ZM5.27216 6.69383C4.81122 6.77976 4.30341 7.07664 4.01434 7.43601C3.92059 7.54539 3.94403 7.6782 4.06903 7.76414C4.48309 8.00633 5.06903 8.08445 5.52997 7.95945C5.99091 7.85789 6.49872 7.5532 6.79559 7.20945C6.91278 7.06883 6.88153 6.9282 6.71747 6.85789C6.30341 6.67039 5.73309 6.60008 5.27216 6.69383ZM1.23309 6.89695C1.02997 7.32664 0.951845 7.90476 1.03778 8.35789C1.12372 8.83445 1.42841 9.33445 1.81903 9.6157C1.93622 9.70945 2.06122 9.67039 2.13934 9.52976C2.34247 9.12351 2.41278 8.54539 2.31122 8.08445C2.21747 7.63133 1.92059 7.13133 1.59247 6.81883C1.46747 6.70945 1.31903 6.7407 1.23309 6.89695ZM3.85809 8.94383C3.41278 9.10008 2.95184 9.45164 2.70184 9.85789C2.61591 9.98289 2.66278 10.1157 2.80341 10.1782C3.24872 10.3579 3.83466 10.3579 4.27997 10.1782C4.73309 10.0063 5.20184 9.63133 5.42841 9.23289C5.52216 9.09226 5.47528 8.95945 5.30341 8.90476C4.85809 8.77976 4.27997 8.78758 3.85809 8.94383ZM0.264345 10.5454C0.21747 11.0063 0.34247 11.5766 0.59247 11.9829C0.826845 12.4048 1.28778 12.772 1.74091 12.897C1.88153 12.9438 2.00653 12.8657 2.02216 12.7095C2.06903 12.2641 1.93622 11.6938 1.68622 11.2876C1.43622 10.897 0.990907 10.522 0.576845 10.3579C0.412782 10.2876 0.27997 10.3579 0.264345 10.5454ZM3.42841 11.5688C3.06122 11.8657 2.75653 12.3657 2.66278 12.8266C2.63934 12.9673 2.71747 13.0766 2.86591 13.0845C3.35028 13.1001 3.90497 12.8891 4.25653 12.5766C4.60809 12.272 4.92059 11.7641 5.02216 11.311C5.04559 11.1391 4.95184 11.022 4.77997 11.0298C4.31122 11.0688 3.77216 11.272 3.42841 11.5688ZM4.73309 13.397C4.30341 13.5454 3.84247 13.8891 3.57684 14.2563C3.29559 14.6235 3.13153 15.1782 3.14716 15.6626C3.16278 15.811 3.26434 15.8891 3.42059 15.8657C3.88934 15.7563 4.38153 15.4204 4.63153 15.0141C4.88934 14.6157 5.06122 14.061 5.02997 13.6001C5.02997 13.4126 4.91278 13.3345 4.73309 13.397ZM0.256532 14.0688C0.319032 14.522 0.59247 15.0532 0.928407 15.3813C1.25653 15.7251 1.79559 15.9595 2.27997 15.9751C2.43622 15.9829 2.52216 15.8813 2.49872 15.7251C2.42059 15.2485 2.14716 14.7407 1.81122 14.436C1.47528 14.1157 0.959657 13.8657 0.506532 13.811C0.319032 13.7876 0.225282 13.8891 0.256532 14.0688ZM5.79559 14.9673C5.45966 15.272 5.17059 15.772 5.08466 16.2173C4.98309 16.686 5.05341 17.272 5.26434 17.6704C5.32684 17.8188 5.45184 17.8423 5.58466 17.7485C5.95966 17.4751 6.26434 16.9673 6.34247 16.4829C6.43622 16.0376 6.35809 15.4516 6.14716 15.0298C6.07684 14.8579 5.92841 14.8345 5.79559 14.9673ZM7.38934 16.5688C7.13934 16.9516 6.99872 17.5141 7.01434 17.9673C7.04559 18.4438 7.26434 18.9907 7.56903 19.3266C7.67059 19.4438 7.79559 19.4438 7.89716 19.3188C8.20184 18.9595 8.36591 18.3891 8.31903 17.9048C8.28778 17.4516 8.06122 16.9126 7.74872 16.5532C7.63153 16.4126 7.49091 16.4204 7.38934 16.5688ZM3.54559 17.0923C3.11591 16.936 2.52997 16.9204 2.09247 17.0532C1.92059 17.1079 1.87372 17.2407 1.96747 17.397C2.22528 17.7954 2.68622 18.1626 3.11591 18.3188C3.55341 18.4985 4.14716 18.4985 4.59247 18.311C4.74091 18.2563 4.77997 18.1391 4.69403 17.9985C4.44403 17.6001 3.98309 17.2407 3.54559 17.0923ZM5.74872 19.2095C5.29559 19.1704 4.73309 19.2954 4.35028 19.5298C4.18622 19.6235 4.16278 19.772 4.30341 19.897C4.65497 20.2173 5.19403 20.4595 5.65497 20.4907C6.13153 20.5532 6.70184 20.4048 7.08466 20.1157C7.20966 20.0298 7.21747 19.897 7.10028 19.7876C6.75653 19.4673 6.21747 19.2407 5.74872 19.2095Z"
		fill="currentColor"
	/>
</svg>
