<svg
	color="rgb(var(--foreground, 0, 0, 0))"
	viewBox="0 0 9 24"
	fill="none"
	xmlns="http://www.w3.org/2000/svg"
>
	<path
		d="M1.65513 3.49851C1.46763 3.47508 1.37388 3.57664 1.3895 3.75633C1.45982 4.22508 1.71763 4.74851 2.03013 5.07664C2.35825 5.44383 2.8895 5.69383 3.36607 5.71726C3.52232 5.72508 3.60825 5.63133 3.59263 5.47508C3.53794 5.02195 3.28013 4.48289 2.94419 4.16258C2.62388 3.84226 2.10825 3.56883 1.65513 3.49851ZM5.68638 4.28758C5.58482 4.14695 5.43638 4.13133 5.31919 4.27195C5.02232 4.63914 4.80357 5.17039 4.78013 5.6157C4.73325 6.06883 4.8895 6.63914 5.15513 7.03758C5.24107 7.16258 5.37388 7.1782 5.49107 7.06883C5.83482 6.72508 6.06919 6.18601 6.077 5.70945C6.10825 5.25633 5.952 4.68601 5.68638 4.28758ZM3.37388 6.69383C2.92075 6.60008 2.35044 6.67039 1.93638 6.85789C1.77232 6.9282 1.73325 7.06883 1.85044 7.20945C2.15513 7.5532 2.66294 7.85789 3.11607 7.95945C3.58482 8.08445 4.17075 8.00633 4.577 7.76414C4.70982 7.6782 4.73325 7.54539 4.6395 7.43601C4.34263 7.07664 3.84263 6.77976 3.37388 6.69383ZM7.41294 6.89695C7.33482 6.7407 7.18638 6.70945 7.05357 6.81883C6.73325 7.13133 6.43638 7.63133 6.34263 8.08445C6.24107 8.54539 6.30357 9.12351 6.5145 9.52976C6.58482 9.67039 6.71763 9.70945 6.83482 9.6157C7.21763 9.33445 7.52232 8.83445 7.60825 8.35789C7.702 7.90476 7.62388 7.32664 7.41294 6.89695ZM4.79575 8.94383C4.37388 8.78758 3.79575 8.77976 3.35044 8.90476C3.17857 8.95945 3.13169 9.09226 3.21763 9.23289C3.452 9.63133 3.91294 10.0063 4.37388 10.1782C4.81138 10.3579 5.40513 10.3579 5.85044 10.1782C5.99107 10.1157 6.03013 9.98289 5.952 9.85789C5.702 9.45164 5.24107 9.10008 4.79575 8.94383ZM8.3895 10.5454C8.36607 10.3579 8.24107 10.2876 8.077 10.3579C7.65513 10.522 7.20982 10.897 6.96763 11.2876C6.71763 11.6938 6.577 12.2641 6.63169 12.7095C6.64732 12.8657 6.7645 12.9438 6.91294 12.897C7.36607 12.772 7.827 12.4048 8.06138 11.9829C8.31138 11.5766 8.43638 11.0063 8.3895 10.5454ZM5.21763 11.5688C4.88169 11.272 4.34263 11.0688 3.87388 11.0298C3.69419 11.022 3.60825 11.1391 3.63169 11.311C3.73325 11.7641 4.03794 12.272 4.39732 12.5766C4.74107 12.8891 5.30357 13.1001 5.78794 13.0845C5.92857 13.0766 6.0145 12.9673 5.99107 12.8266C5.89732 12.3657 5.59263 11.8657 5.21763 11.5688ZM3.91294 13.397C3.74107 13.3345 3.62388 13.4126 3.62388 13.6001C3.59263 14.061 3.75669 14.6157 4.02232 15.0141C4.27232 15.4204 4.7645 15.7563 5.23325 15.8657C5.38169 15.8891 5.49107 15.811 5.49888 15.6626C5.52232 15.1782 5.35044 14.6235 5.077 14.2563C4.81138 13.8891 4.35044 13.5454 3.91294 13.397ZM8.39732 14.0688C8.42857 13.8891 8.33482 13.7876 8.14732 13.811C7.69419 13.8657 7.17857 14.1157 6.84263 14.436C6.50669 14.7407 6.23325 15.2485 6.15513 15.7251C6.13169 15.8813 6.21763 15.9829 6.37388 15.9751C6.85825 15.9595 7.39732 15.7251 7.72544 15.3813C8.06138 15.0532 8.33482 14.522 8.39732 14.0688ZM2.85825 14.9673C2.71763 14.8345 2.577 14.8579 2.50669 15.0298C2.29575 15.4516 2.21763 16.0376 2.30357 16.4829C2.3895 16.9673 2.69419 17.4751 3.06919 17.7485C3.19419 17.8423 3.327 17.8188 3.3895 17.6704C3.60044 17.272 3.66294 16.686 3.56919 16.2173C3.47544 15.772 3.19419 15.272 2.85825 14.9673ZM1.2645 16.5688C1.16294 16.4204 1.02232 16.4126 0.905129 16.5532C0.592629 16.9126 0.366066 17.4516 0.334816 17.9048C0.287941 18.3891 0.452004 18.9595 0.756691 19.3188C0.858254 19.4438 0.983254 19.4438 1.08482 19.3266C1.3895 18.9907 1.60825 18.4438 1.63169 17.9673C1.65513 17.5141 1.50669 16.9516 1.2645 16.5688ZM5.10825 17.0923C4.67075 17.2407 4.20982 17.6001 3.95982 17.9985C3.87388 18.1391 3.91294 18.2563 4.06138 18.311C4.50669 18.4985 5.10044 18.4985 5.53794 18.3188C5.96763 18.1626 6.42857 17.7954 6.68638 17.397C6.78013 17.2407 6.73325 17.1079 6.56138 17.0532C6.12388 16.9204 5.53794 16.936 5.10825 17.0923ZM2.90513 19.2095C2.43638 19.2407 1.89732 19.4673 1.55357 19.7876C1.43638 19.897 1.44419 20.0298 1.56919 20.1157C1.952 20.4048 2.52232 20.5532 2.99888 20.4907C3.452 20.4595 3.99107 20.2173 4.35044 19.897C4.49107 19.772 4.46763 19.6235 4.30357 19.5298C3.92075 19.2954 3.35825 19.1704 2.90513 19.2095Z"
		fill="currentColor"
	/>
</svg>
