<svg
	color="rgb(var(--foreground, 0, 0, 0))"
	viewBox="0 0 17 24"
	fill="none"
	xmlns="http://www.w3.org/2000/svg"
>
	<path
		d="M8.58044 14.8906C8.04399 14.8906 7.55701 14.7604 7.11951 14.5C6.68201 14.2396 6.33305 13.8906 6.07263 13.4531C5.81222 13.0156 5.68201 12.5286 5.68201 11.9922C5.68201 11.4557 5.81222 10.9688 6.07263 10.5312C6.33305 10.0938 6.68201 9.74479 7.11951 9.48438C7.55701 9.22396 8.04399 9.09375 8.58044 9.09375C9.11169 9.09375 9.59607 9.22396 10.0336 9.48438C10.4763 9.74479 10.8252 10.0938 11.0804 10.5312C11.3409 10.9688 11.4711 11.4557 11.4711 11.9922C11.4711 12.5286 11.3409 13.0156 11.0804 13.4531C10.8252 13.8906 10.4763 14.2396 10.0336 14.5C9.59607 14.7604 9.11169 14.8906 8.58044 14.8906ZM3.21326 8.07812C3.60909 7.51562 4.08565 7.03385 4.64294 6.63281L6.18982 8.17969C5.59086 8.5599 5.11169 9.03906 4.75232 9.61719L3.21326 8.07812ZM13.932 8.08594L12.3851 9.625C12.031 9.04688 11.5544 8.56771 10.9554 8.1875L12.5023 6.64062C13.0596 7.04167 13.5362 7.52344 13.932 8.08594ZM13.932 15.8828C13.5362 16.4453 13.0622 16.9271 12.5101 17.3281L10.9554 15.7812C11.5544 15.401 12.0336 14.9219 12.3929 14.3438L13.932 15.8828ZM3.22107 15.8906L4.76013 14.3516C5.11951 14.9297 5.59607 15.4089 6.18982 15.7891L4.64294 17.3359C4.09086 16.9349 3.6169 16.4531 3.22107 15.8906ZM8.57263 19.9688C9.66117 19.9688 10.6846 19.7604 11.6429 19.3438C12.6065 18.9271 13.4554 18.3516 14.1898 17.6172C14.9242 16.8828 15.4997 16.0365 15.9164 15.0781C16.333 14.1146 16.5414 13.0885 16.5414 12C16.5414 10.9115 16.333 9.88802 15.9164 8.92969C15.4997 7.96615 14.9242 7.11719 14.1898 6.38281C13.4554 5.64844 12.6065 5.07292 11.6429 4.65625C10.6794 4.23958 9.65336 4.03125 8.56482 4.03125C7.47628 4.03125 6.45024 4.23958 5.48669 4.65625C4.52836 5.07292 3.68201 5.64844 2.94763 6.38281C2.21847 7.11719 1.64555 7.96615 1.22888 8.92969C0.812215 9.88802 0.603882 10.9115 0.603882 12C0.603882 13.0885 0.812215 14.1146 1.22888 15.0781C1.64555 16.0365 2.22107 16.8828 2.95544 17.6172C3.68982 18.3516 4.53617 18.9271 5.49451 19.3438C6.45805 19.7604 7.48409 19.9688 8.57263 19.9688Z"
		fill="currentColor"
	/>
</svg>
