<svg
	color="rgb(var(--foreground, 0, 0, 0))"
	viewBox="0 0 17 24"
	fill="none"
	xmlns="http://www.w3.org/2000/svg"
>
	<path
		d="M8.63513 16.1797C9.21326 16.1797 9.75232 16.0703 10.2523 15.8516C10.7575 15.6328 11.2028 15.3333 11.5883 14.9531C11.9737 14.5677 12.2732 14.125 12.4867 13.625C12.7054 13.1198 12.8148 12.5781 12.8148 12C12.8148 11.4219 12.7054 10.8802 12.4867 10.375C12.2732 9.86979 11.9737 9.42708 11.5883 9.04688C11.2028 8.66146 10.7575 8.36198 10.2523 8.14844C9.75232 7.92969 9.21326 7.82031 8.63513 7.82031C8.05701 7.82031 7.51534 7.92969 7.01013 8.14844C6.50492 8.36198 6.05961 8.66146 5.67419 9.04688C5.29399 9.42708 4.99451 9.86979 4.77576 10.375C4.56222 10.8802 4.45544 11.4219 4.45544 12C4.45544 12.7708 4.64294 13.4714 5.01794 14.1016C5.39815 14.7318 5.90336 15.237 6.53357 15.6172C7.16378 15.9922 7.8643 16.1797 8.63513 16.1797ZM8.63513 14.8594C8.10909 14.8594 7.62992 14.7318 7.19763 14.4766C6.76534 14.2161 6.41899 13.8698 6.15857 13.4375C5.90336 13.0052 5.77576 12.526 5.77576 12C5.77576 11.474 5.90336 10.9948 6.15857 10.5625C6.41899 10.1302 6.76534 9.78646 7.19763 9.53125C7.62992 9.27083 8.10909 9.14062 8.63513 9.14062C9.16117 9.14062 9.64034 9.27083 10.0726 9.53125C10.5049 9.78646 10.8487 10.1302 11.1039 10.5625C11.3643 10.9948 11.4945 11.474 11.4945 12C11.4945 12.526 11.3643 13.0052 11.1039 13.4375C10.8487 13.8698 10.5049 14.2161 10.0726 14.4766C9.64034 14.7318 9.16117 14.8594 8.63513 14.8594ZM2.40857 16.6016L4.08826 18.2812L7.18982 15.1797L5.51013 13.5L2.40857 16.6016ZM2.33044 7.39062L5.51013 10.5703L7.18982 8.89062L4.01013 5.71094L2.33044 7.39062ZM14.9554 7.40625L13.2758 5.72656L10.1117 8.89062L11.7914 10.5703L14.9554 7.40625ZM14.8851 16.5859L11.7992 13.5L10.1117 15.1875L13.1976 18.2734L14.8851 16.5859ZM8.63513 19.9688C9.72367 19.9688 10.7471 19.7604 11.7054 19.3438C12.669 18.9271 13.5179 18.3516 14.2523 17.6172C14.9867 16.8828 15.5622 16.0365 15.9789 15.0781C16.3955 14.1146 16.6039 13.0885 16.6039 12C16.6039 10.9115 16.3955 9.88802 15.9789 8.92969C15.5622 7.96615 14.9867 7.11719 14.2523 6.38281C13.5179 5.64844 12.669 5.07292 11.7054 4.65625C10.7419 4.23958 9.71586 4.03125 8.62732 4.03125C7.53878 4.03125 6.51274 4.23958 5.54919 4.65625C4.59086 5.07292 3.74451 5.64844 3.01013 6.38281C2.28097 7.11719 1.70805 7.96615 1.29138 8.92969C0.874715 9.88802 0.666382 10.9115 0.666382 12C0.666382 13.0885 0.874715 14.1146 1.29138 15.0781C1.70805 16.0365 2.28357 16.8828 3.01794 17.6172C3.75232 18.3516 4.59867 18.9271 5.55701 19.3438C6.52055 19.7604 7.54659 19.9688 8.63513 19.9688ZM8.63513 18.6406C7.71326 18.6406 6.85128 18.4688 6.04919 18.125C5.24711 17.7812 4.54138 17.3073 3.93201 16.7031C3.32784 16.0938 2.85388 15.388 2.51013 14.5859C2.17159 13.7839 2.00232 12.9219 2.00232 12C2.00232 11.0781 2.17159 10.2161 2.51013 9.41406C2.85388 8.61198 3.32784 7.90625 3.93201 7.29688C4.53617 6.6875 5.2393 6.21354 6.04138 5.875C6.84347 5.53125 7.70544 5.35938 8.62732 5.35938C9.54919 5.35938 10.4112 5.53125 11.2133 5.875C12.0205 6.21354 12.7263 6.6875 13.3304 7.29688C13.9398 7.90625 14.4164 8.61198 14.7601 9.41406C15.1039 10.2161 15.2758 11.0781 15.2758 12C15.2758 12.9219 15.1039 13.7839 14.7601 14.5859C14.4216 15.388 13.9476 16.0938 13.3383 16.7031C12.7289 17.3073 12.0232 17.7812 11.2211 18.125C10.419 18.4688 9.55701 18.6406 8.63513 18.6406Z"
		fill="currentColor"
	/>
</svg>
