<svg
	color="rgb(var(--foreground, 0, 0, 0))"
	viewBox="0 0 21 24"
	fill="none"
	xmlns="http://www.w3.org/2000/svg"
>
	<path
		d="M2.53906 17.1562H18.0547C18.7161 17.1562 19.2161 16.987 19.5547 16.6484C19.8932 16.3099 20.0625 15.8099 20.0625 15.1484V6.19531C20.0625 5.53906 19.8932 5.04167 19.5547 4.70312C19.2161 4.36458 18.7161 4.19531 18.0547 4.19531H2.53906C1.8776 4.19531 1.3776 4.36458 1.03906 4.70312C0.700521 5.04167 0.53125 5.53906 0.53125 6.19531V15.1484C0.53125 15.8099 0.700521 16.3099 1.03906 16.6484C1.3776 16.987 1.8776 17.1562 2.53906 17.1562ZM2.5625 15.8984C2.30729 15.8984 2.11458 15.8359 1.98438 15.7109C1.85417 15.5807 1.78906 15.388 1.78906 15.1328V6.21875C1.78906 5.96354 1.85417 5.77344 1.98438 5.64844C2.11458 5.51823 2.30729 5.45312 2.5625 5.45312H18.0312C18.2917 5.45312 18.4844 5.51823 18.6094 5.64844C18.7396 5.77344 18.8047 5.96354 18.8047 6.21875V15.1328C18.8047 15.388 18.7396 15.5807 18.6094 15.7109C18.4844 15.8359 18.2917 15.8984 18.0312 15.8984H2.5625ZM6.36719 19.8047H14.2266C14.3984 19.8047 14.5469 19.7422 14.6719 19.6172C14.7969 19.4974 14.8594 19.349 14.8594 19.1719C14.8594 19 14.7969 18.8516 14.6719 18.7266C14.5469 18.6016 14.3984 18.5391 14.2266 18.5391H6.36719C6.19531 18.5391 6.04688 18.6016 5.92188 18.7266C5.79688 18.8516 5.73438 19 5.73438 19.1719C5.73438 19.349 5.79688 19.4974 5.92188 19.6172C6.04688 19.7422 6.19531 19.8047 6.36719 19.8047Z"
		fill="currentColor"
	/>
</svg>
