<svg
	color="rgb(var(--foreground, 0, 0, 0))"
	viewBox="0 0 18 24"
	fill="none"
	xmlns="http://www.w3.org/2000/svg"
>
	<path
		d="M16.1781 18.9062C17.1312 18.9062 17.7719 18.2578 17.7719 17.3203V5.25781C17.7719 4.3125 17.1312 3.66406 16.1781 3.66406C15.2406 3.66406 14.5922 4.3125 14.5922 5.25781V17.3203C14.5922 18.2578 15.2406 18.9062 16.1781 18.9062ZM6.39685 15.0547C8.60779 15.2969 11.3734 15.9453 13.5219 17V5.625C11.35 6.6875 8.41248 7.35938 6.39685 7.57812V15.0547ZM3.64685 15.0469H5.32654V7.57812H3.64685C1.51404 7.57812 0.373413 8.6875 0.373413 10.7422V11.8828C0.373413 13.9297 1.51404 15.0469 3.64685 15.0469ZM6.75623 20.3359C7.72498 20.3359 8.43591 19.6562 8.18591 18.4531L7.74841 16.3516C7.15466 16.25 6.27185 16.1797 4.29529 16.125C4.15466 16.125 3.91248 16.1094 3.66248 16.1094L4.97498 18.9766C5.3656 19.8281 5.84998 20.3359 6.75623 20.3359Z"
		fill="currentColor"
	/>
</svg>
