<svg
	color="rgb(var(--foreground, 0, 0, 0))"
	viewBox="0 0 19 24"
	fill="none"
	xmlns="http://www.w3.org/2000/svg"
>
	<path
		d="M0.974976 11.9657C0.974976 13.7938 1.88123 14.8719 3.59998 15.0829L5.31091 18.8719C5.95154 20.3016 7.06091 20.3876 7.81873 20.1532C8.58435 19.911 9.0531 19.2001 8.84998 18.161L8.3031 15.3173C10.4437 15.7157 12.6156 16.4735 14.5687 17.6063C14.7797 18.4501 15.4828 18.9813 16.4359 18.9813C17.6 18.9813 18.3734 18.2079 18.3734 17.0516V5.67664C18.3734 4.52039 17.6 3.74695 16.4359 3.74695C15.4594 3.74695 14.7484 4.30945 14.5531 5.19226C12.2562 6.55164 9.32654 7.41101 7.00623 7.66101H4.24841C2.10779 7.66101 0.974976 8.76257 0.974976 10.8173V11.9657ZM15.7719 17.0516V5.67664C15.7719 5.27039 16.0297 5.00476 16.4359 5.00476C16.8422 5.00476 17.1156 5.27039 17.1156 5.67664V17.0516C17.1156 17.4579 16.8422 17.7235 16.4359 17.7235C16.0297 17.7235 15.7719 17.4579 15.7719 17.0516ZM7.17029 13.8876V8.88757C9.81873 8.58289 12.3422 7.83289 14.5062 6.59851V16.1844C12.2875 14.9188 9.79529 14.1923 7.17029 13.8876ZM4.24841 13.8641C2.81873 13.8641 2.23279 13.3094 2.23279 11.9657V10.8173C2.23279 9.4657 2.81873 8.91882 4.24841 8.91882H5.90466V13.8641H4.24841ZM6.5531 18.6454L4.90466 15.1219H6.95935C6.99841 15.1219 7.03748 15.1298 7.07654 15.1298L7.70935 18.3485C7.77185 18.7001 7.59216 18.9266 7.34216 19.0126C7.07654 19.1063 6.73279 19.0204 6.5531 18.6454Z"
		fill="currentColor"
	/>
</svg>
