<svg
	color="rgb(var(--foreground, 0, 0, 0))"
	viewBox="0 0 12 24"
	fill="none"
	xmlns="http://www.w3.org/2000/svg"
>
	<path
		d="M5.83594 20.5625C7.63281 20.5625 8.99479 20.0365 9.92188 18.9844C10.849 17.9375 11.3125 16.3984 11.3125 14.3672C11.3125 13.1224 11.2891 11.9635 11.2422 10.8906C11.1953 9.81771 11.138 8.90365 11.0703 8.14844C10.9193 6.48698 10.4323 5.28646 9.60938 4.54688C8.79167 3.80729 7.53385 3.4375 5.83594 3.4375C4.13802 3.4375 2.8776 3.80729 2.05469 4.54688C1.23698 5.28646 0.752604 6.48698 0.601562 8.14844C0.533854 8.90365 0.476562 9.81771 0.429688 10.8906C0.388021 11.9635 0.367188 13.1224 0.367188 14.3672C0.367188 16.3984 0.828125 17.9375 1.75 18.9844C2.67708 20.0365 4.03906 20.5625 5.83594 20.5625ZM5.83594 19.3047C4.45052 19.3047 3.40104 18.888 2.6875 18.0547C1.97917 17.2214 1.625 15.9922 1.625 14.3672C1.625 13.1953 1.64583 12.0807 1.6875 11.0234C1.72917 9.96615 1.78646 9.04688 1.85938 8.26562C1.9375 7.38021 2.11198 6.67708 2.38281 6.15625C2.65885 5.63542 3.07292 5.26302 3.625 5.03906C4.18229 4.8099 4.91927 4.69531 5.83594 4.69531C6.7526 4.69531 7.48698 4.8099 8.03906 5.03906C8.59635 5.26302 9.01302 5.63542 9.28906 6.15625C9.5651 6.67708 9.74219 7.38021 9.82031 8.26562C9.89323 9.04688 9.95052 9.96615 9.99219 11.0234C10.0339 12.0807 10.0547 13.1953 10.0547 14.3672C10.0547 15.9922 9.69792 17.2214 8.98438 18.0547C8.27604 18.888 7.22656 19.3047 5.83594 19.3047ZM1.3125 9.28125H10.375V8.25781H1.3125V9.28125ZM5.33594 8.76562L6.35938 8.77344V4.24219L5.33594 4.23438V8.76562Z"
		fill="currentColor"
	/>
</svg>
