<svg
	color="rgb(var(--foreground, 0, 0, 0))"
	viewBox="0 0 12 24"
	fill="none"
	xmlns="http://www.w3.org/2000/svg"
>
	<path
		d="M0.53125 8.28906H5.25781V3.44531C4.23698 3.49219 3.39844 3.6875 2.74219 4.03125C2.08594 4.36979 1.58073 4.88802 1.22656 5.58594C0.872396 6.28385 0.640625 7.1849 0.53125 8.28906ZM6.3125 8.28906H11.0312C10.9219 7.1901 10.6927 6.29427 10.3438 5.60156C9.99479 4.90365 9.49219 4.38281 8.83594 4.03906C8.1849 3.6901 7.34375 3.49219 6.3125 3.44531V8.28906ZM5.78125 20.5547C7.57812 20.5547 8.9401 20.0286 9.86719 18.9766C10.7943 17.9297 11.2578 16.3906 11.2578 14.3594C11.2578 13.4167 11.2448 12.5208 11.2188 11.6719C11.1927 10.8177 11.1562 10.0443 11.1094 9.35156H0.453125C0.411458 10.0443 0.377604 10.8177 0.351562 11.6719C0.325521 12.5208 0.3125 13.4167 0.3125 14.3594C0.3125 16.3906 0.773438 17.9297 1.69531 18.9766C2.6224 20.0286 3.98438 20.5547 5.78125 20.5547Z"
		fill="currentColor"
	/>
</svg>
