<svg
	color="rgb(var(--foreground, 0, 0, 0))"
	viewBox="0 0 16 24"
	fill="none"
	xmlns="http://www.w3.org/2000/svg"
>
	<path
		d="M7.96094 19.9397C8.15885 19.9397 8.32552 19.872 8.46094 19.7366C8.60156 19.6012 8.67188 19.4345 8.67188 19.2366V13.4397L11.0078 11.2835C11.4505 11.346 11.8984 11.2861 12.3516 11.1038C12.8099 10.9215 13.2448 10.6246 13.6562 10.2132L9.35938 5.9085C8.94792 6.31996 8.65365 6.74964 8.47656 7.19756C8.30469 7.64548 8.25 8.096 8.3125 8.54912L1.04688 16.3694C0.901042 16.5309 0.822917 16.7132 0.8125 16.9163C0.802083 17.1194 0.888021 17.3147 1.07031 17.5022L0.0703125 18.7913C0.0234375 18.8538 0 18.9267 0 19.0101C0 19.0934 0.0364583 19.1689 0.109375 19.2366L0.335938 19.471C0.403646 19.5335 0.476562 19.5674 0.554688 19.5726C0.638021 19.5778 0.716146 19.5543 0.789062 19.5022L2.07812 18.4944C2.25521 18.6767 2.44531 18.7627 2.64844 18.7522C2.85677 18.7418 3.03906 18.6637 3.19531 18.5179L7.25 14.7679V19.2366C7.25 19.4345 7.31771 19.6012 7.45312 19.7366C7.59375 19.872 7.76302 19.9397 7.96094 19.9397ZM1.85156 17.0101L8.74219 9.69756C8.80469 9.81214 8.875 9.92412 8.95312 10.0335C9.03646 10.1377 9.1276 10.2418 9.22656 10.346C9.32031 10.445 9.41927 10.5387 9.52344 10.6272C9.6276 10.7106 9.73177 10.7835 9.83594 10.846L2.57031 17.7288L1.85156 17.0101ZM10.1406 5.11944L14.4453 9.42412C14.9036 8.971 15.2135 8.48662 15.375 7.971C15.5417 7.45537 15.5547 6.94235 15.4141 6.43194C15.2786 5.92152 14.9922 5.44756 14.5547 5.01006C14.1172 4.57777 13.6432 4.29391 13.1328 4.1585C12.6276 4.01787 12.1172 4.02829 11.6016 4.18975C11.0859 4.35121 10.599 4.6611 10.1406 5.11944Z"
		fill="currentColor"
	/>
</svg>
