<svg
	color="rgb(var(--foreground, 0, 0, 0))"
	viewBox="0 0 19 24"
	fill="none"
	xmlns="http://www.w3.org/2000/svg"
>
	<path
		d="M2.92188 18.0938H4.46875V16.9141H2.90625C2.55729 16.9141 2.29427 16.8255 2.11719 16.6484C1.94531 16.4714 1.85938 16.2109 1.85938 15.8672V8.42969C1.85938 8.08594 1.94531 7.82552 2.11719 7.64844C2.29427 7.47135 2.55729 7.38281 2.90625 7.38281H15.9375C16.2812 7.38281 16.5417 7.47135 16.7188 7.64844C16.8958 7.82552 16.9844 8.08594 16.9844 8.42969V15.8672C16.9844 16.2109 16.8958 16.4714 16.7188 16.6484C16.5417 16.8255 16.2812 16.9141 15.9375 16.9141H14.4766V18.0938H15.9219C16.6823 18.0938 17.2578 17.901 17.6484 17.5156C18.0443 17.1354 18.2422 16.5651 18.2422 15.8047V8.49219C18.2422 7.73177 18.0443 7.16146 17.6484 6.78125C17.2578 6.39583 16.6823 6.20312 15.9219 6.20312H2.92188C2.19792 6.20312 1.6276 6.39583 1.21094 6.78125C0.799479 7.16146 0.59375 7.73177 0.59375 8.49219V15.8047C0.59375 16.5651 0.791667 17.1354 1.1875 17.5156C1.58333 17.901 2.16146 18.0938 2.92188 18.0938ZM5.23438 20.4141H13.6016C14.0964 20.4141 14.4688 20.2943 14.7188 20.0547C14.9688 19.8151 15.0938 19.4375 15.0938 18.9219V12.5469C15.0938 12.026 14.9688 11.6484 14.7188 11.4141C14.4688 11.1745 14.0964 11.0547 13.6016 11.0547H5.23438C4.76042 11.0547 4.39323 11.1745 4.13281 11.4141C3.8724 11.6484 3.74219 12.026 3.74219 12.5469V18.9219C3.74219 19.4375 3.86719 19.8151 4.11719 20.0547C4.36719 20.2943 4.73958 20.4141 5.23438 20.4141ZM5.625 19.2344C5.41667 19.2344 5.26042 19.1823 5.15625 19.0781C5.05208 18.9792 5 18.8229 5 18.6094V12.8516C5 12.6432 5.05208 12.4896 5.15625 12.3906C5.26042 12.2865 5.41667 12.2344 5.625 12.2344H13.2188C13.4271 12.2344 13.5807 12.2865 13.6797 12.3906C13.7839 12.4896 13.8359 12.6432 13.8359 12.8516V18.6094C13.8359 18.8229 13.7839 18.9792 13.6797 19.0781C13.5807 19.1823 13.4271 19.2344 13.2188 19.2344H5.625ZM3.6875 6.90625H4.89844V5.70312C4.89844 5.375 4.97917 5.13021 5.14062 4.96875C5.30729 4.80729 5.55469 4.72656 5.88281 4.72656H12.9531C13.2812 4.72656 13.526 4.80729 13.6875 4.96875C13.8542 5.13021 13.9375 5.375 13.9375 5.70312V6.89062H15.1484V5.78906C15.1484 5.02865 14.9609 4.47135 14.5859 4.11719C14.2161 3.76302 13.6667 3.58594 12.9375 3.58594H5.89844C5.21094 3.58594 4.66927 3.76302 4.27344 4.11719C3.88281 4.47135 3.6875 5.02865 3.6875 5.78906V6.90625ZM6.71094 14.8516H12.1484C12.2839 14.8516 12.3958 14.8047 12.4844 14.7109C12.5781 14.6172 12.625 14.5 12.625 14.3594C12.625 14.2292 12.5781 14.1198 12.4844 14.0312C12.3958 13.9375 12.2839 13.8906 12.1484 13.8906H6.71094C6.57031 13.8906 6.45312 13.9375 6.35938 14.0312C6.26562 14.1198 6.21875 14.2292 6.21875 14.3594C6.21875 14.5 6.26562 14.6172 6.35938 14.7109C6.45312 14.8047 6.57031 14.8516 6.71094 14.8516ZM6.71094 17.5781H12.1484C12.2839 17.5781 12.3958 17.5339 12.4844 17.4453C12.5781 17.3516 12.625 17.237 12.625 17.1016C12.625 16.9661 12.5781 16.8516 12.4844 16.7578C12.3958 16.6641 12.2839 16.6172 12.1484 16.6172H6.71094C6.57031 16.6172 6.45312 16.6641 6.35938 16.7578C6.26562 16.8516 6.21875 16.9661 6.21875 17.1016C6.21875 17.237 6.26562 17.3516 6.35938 17.4453C6.45312 17.5339 6.57031 17.5781 6.71094 17.5781ZM13.2031 9.23438C13.2031 9.51042 13.2995 9.74219 13.4922 9.92969C13.6849 10.112 13.9167 10.2031 14.1875 10.2031C14.4479 10.2031 14.6745 10.1094 14.8672 9.92188C15.0599 9.73438 15.1562 9.50521 15.1562 9.23438C15.1562 8.97396 15.0599 8.7474 14.8672 8.55469C14.6745 8.36198 14.4479 8.26562 14.1875 8.26562C13.9167 8.26562 13.6849 8.36198 13.4922 8.55469C13.2995 8.7474 13.2031 8.97396 13.2031 9.23438Z"
		fill="currentColor"
	/>
</svg>
