<svg
	color="rgb(var(--foreground, 0, 0, 0))"
	viewBox="0 0 18 24"
	fill="none"
	xmlns="http://www.w3.org/2000/svg"
>
	<path
		d="M2.5625 17.3984H2.74219V13.0625C2.74219 12.5 2.90365 12.0599 3.22656 11.7422C3.54948 11.4193 3.98958 11.2578 4.54688 11.2578H13.4922C14.0547 11.2578 14.4948 11.4193 14.8125 11.7422C15.1354 12.0599 15.2969 12.5 15.2969 13.0625V17.3984H15.4688C16.2292 17.3984 16.8073 17.2083 17.2031 16.8281C17.599 16.4427 17.7969 15.8698 17.7969 15.1094V8.75C17.7969 7.98958 17.599 7.41667 17.2031 7.03125C16.8073 6.64583 16.2292 6.45312 15.4688 6.45312H2.5625C1.84375 6.45312 1.27604 6.64583 0.859375 7.03125C0.447917 7.41667 0.242188 7.98958 0.242188 8.75V15.1094C0.242188 15.8698 0.440104 16.4427 0.835938 16.8281C1.23177 17.2083 1.80729 17.3984 2.5625 17.3984ZM3.33594 5.41406H14.7031V5.28125C14.7031 4.89583 14.6094 4.58073 14.4219 4.33594C14.2396 4.08594 13.9844 3.90365 13.6562 3.78906C13.3333 3.66927 12.9609 3.60938 12.5391 3.60938H5.5C5.09896 3.60938 4.73438 3.66927 4.40625 3.78906C4.07812 3.90365 3.81771 4.08594 3.625 4.33594C3.43229 4.58073 3.33594 4.89583 3.33594 5.28125V5.41406ZM3.8125 19.3359C3.8125 19.6536 3.90885 19.9089 4.10156 20.1016C4.29427 20.2943 4.54688 20.3906 4.85938 20.3906H13.1797C13.4922 20.3906 13.7448 20.2943 13.9375 20.1016C14.1302 19.9089 14.2266 19.6536 14.2266 19.3359V13.0625C14.2266 12.8438 14.1589 12.6667 14.0234 12.5312C13.888 12.3958 13.7109 12.3281 13.4922 12.3281H4.54688C4.32812 12.3281 4.15104 12.3958 4.01562 12.5312C3.88021 12.6667 3.8125 12.8438 3.8125 13.0625V19.3359ZM6.47656 15.4609C6.33073 15.4609 6.20833 15.4115 6.10938 15.3125C6.01562 15.2135 5.96875 15.0911 5.96875 14.9453C5.96875 14.8099 6.01562 14.6953 6.10938 14.6016C6.20833 14.5078 6.33073 14.4609 6.47656 14.4609H11.5781C11.724 14.4609 11.8438 14.5078 11.9375 14.6016C12.0312 14.6953 12.0781 14.8099 12.0781 14.9453C12.0781 15.0911 12.0312 15.2135 11.9375 15.3125C11.8438 15.4115 11.724 15.4609 11.5781 15.4609H6.47656ZM6.47656 18.2578C6.33073 18.2578 6.20833 18.2083 6.10938 18.1094C6.01562 18.0156 5.96875 17.901 5.96875 17.7656C5.96875 17.6198 6.01562 17.5 6.10938 17.4062C6.20833 17.3073 6.33073 17.2578 6.47656 17.2578H11.5781C11.724 17.2578 11.8438 17.3073 11.9375 17.4062C12.0312 17.5 12.0781 17.6198 12.0781 17.7656C12.0781 17.901 12.0312 18.0156 11.9375 18.1094C11.8438 18.2083 11.724 18.2578 11.5781 18.2578H6.47656ZM12.8203 9.03125C12.8203 8.76562 12.9193 8.53385 13.1172 8.33594C13.3203 8.13281 13.5599 8.03125 13.8359 8.03125C14.1016 8.03125 14.3333 8.13281 14.5312 8.33594C14.7344 8.53385 14.8359 8.76562 14.8359 9.03125C14.8359 9.3125 14.7344 9.54948 14.5312 9.74219C14.3333 9.9349 14.1016 10.0312 13.8359 10.0312C13.5599 10.0365 13.3203 9.94271 13.1172 9.75C12.9193 9.55208 12.8203 9.3125 12.8203 9.03125Z"
		fill="currentColor"
	/>
</svg>
