<svg
	color="rgb(var(--foreground, 0, 0, 0))"
	viewBox="0 0 19 24"
	fill="none"
	xmlns="http://www.w3.org/2000/svg"
>
	<path
		d="M14.8622 11.9727C15.1955 11.9674 15.4819 11.8477 15.7215 11.6133C15.9611 11.3789 16.0809 11.0951 16.0809 10.7617C16.0809 10.4284 15.9611 10.1419 15.7215 9.90234C15.4819 9.66276 15.1955 9.54036 14.8622 9.53516C14.5236 9.52995 14.2345 9.64974 13.995 9.89453C13.7554 10.1393 13.6356 10.4284 13.6356 10.7617C13.6356 11.0951 13.7554 11.3815 13.995 11.6211C14.2345 11.8607 14.5236 11.9779 14.8622 11.9727ZM14.8622 15.5273C15.1955 15.5273 15.4819 15.4076 15.7215 15.168C15.9611 14.9232 16.0809 14.6341 16.0809 14.3008C16.0809 13.9622 15.9611 13.6758 15.7215 13.4414C15.4819 13.2018 15.1955 13.082 14.8622 13.082C14.5236 13.082 14.2345 13.2018 13.995 13.4414C13.7554 13.6758 13.6356 13.9622 13.6356 14.3008C13.6356 14.6341 13.7554 14.9232 13.995 15.168C14.2345 15.4076 14.5236 15.5273 14.8622 15.5273ZM7.88559 10.4492C8.04184 10.4492 8.17465 10.3919 8.28403 10.2773C8.3934 10.1628 8.44809 10.0221 8.44809 9.85547C8.44809 9.69922 8.3934 9.56641 8.28403 9.45703C8.17465 9.34245 8.04184 9.28516 7.88559 9.28516C7.72934 9.28516 7.59392 9.34245 7.47934 9.45703C7.36996 9.56641 7.31528 9.69922 7.31528 9.85547C7.31528 10.0221 7.36996 10.1628 7.47934 10.2773C7.59392 10.3919 7.72934 10.4492 7.88559 10.4492ZM9.81528 10.9961C9.97674 10.9961 10.1122 10.9388 10.2215 10.8242C10.3309 10.7096 10.3856 10.5742 10.3856 10.418C10.3856 10.2565 10.3309 10.1211 10.2215 10.0117C10.1122 9.89714 9.97674 9.83984 9.81528 9.83984C9.65903 9.83984 9.52621 9.89714 9.41684 10.0117C9.31267 10.1211 9.26059 10.2565 9.26059 10.418C9.26059 10.5742 9.31267 10.7096 9.41684 10.8242C9.52621 10.9388 9.65903 10.9961 9.81528 10.9961ZM11.2762 12.3867C11.4325 12.3867 11.5679 12.332 11.6825 12.2227C11.797 12.1133 11.8543 11.9805 11.8543 11.8242C11.8543 11.6628 11.797 11.5247 11.6825 11.4102C11.5679 11.2904 11.4325 11.2305 11.2762 11.2305C11.12 11.2305 10.9872 11.2904 10.8778 11.4102C10.7684 11.5247 10.7137 11.6628 10.7137 11.8242C10.7137 11.9805 10.7684 12.1133 10.8778 12.2227C10.9872 12.332 11.12 12.3867 11.2762 12.3867ZM11.7684 14.2617C11.9247 14.2617 12.0575 14.207 12.1668 14.0977C12.2762 13.9831 12.3309 13.8477 12.3309 13.6914C12.3309 13.5299 12.2762 13.3945 12.1668 13.2852C12.0575 13.1758 11.9247 13.1211 11.7684 13.1211C11.6069 13.1211 11.4715 13.1758 11.3622 13.2852C11.2528 13.3945 11.1981 13.5299 11.1981 13.6914C11.1981 13.8477 11.2528 13.9831 11.3622 14.0977C11.4715 14.207 11.6069 14.2617 11.7684 14.2617ZM11.2762 16.1445C11.4325 16.1445 11.5679 16.0872 11.6825 15.9727C11.797 15.8581 11.8543 15.7201 11.8543 15.5586C11.8543 15.3971 11.797 15.2617 11.6825 15.1523C11.5679 15.043 11.4325 14.9883 11.2762 14.9883C11.12 14.9883 10.9872 15.043 10.8778 15.1523C10.7684 15.2617 10.7137 15.3971 10.7137 15.5586C10.7137 15.7201 10.7684 15.8581 10.8778 15.9727C10.9872 16.0872 11.12 16.1445 11.2762 16.1445ZM9.81528 17.582C9.97674 17.582 10.1122 17.5273 10.2215 17.418C10.3309 17.3034 10.3856 17.1654 10.3856 17.0039C10.3856 16.8477 10.3309 16.7122 10.2215 16.5977C10.1122 16.4831 9.97674 16.4258 9.81528 16.4258C9.65903 16.4258 9.52621 16.4831 9.41684 16.5977C9.31267 16.7122 9.26059 16.8477 9.26059 17.0039C9.26059 17.1654 9.31267 17.3034 9.41684 17.418C9.52621 17.5273 9.65903 17.582 9.81528 17.582ZM7.88559 18.1758C8.04184 18.1758 8.17465 18.1211 8.28403 18.0117C8.3934 17.8971 8.44809 17.7617 8.44809 17.6055C8.44809 17.444 8.3934 17.306 8.28403 17.1914C8.17465 17.0716 8.04184 17.0117 7.88559 17.0117C7.72934 17.0117 7.59392 17.0716 7.47934 17.1914C7.36996 17.306 7.31528 17.444 7.31528 17.6055C7.31528 17.7617 7.36996 17.8971 7.47934 18.0117C7.59392 18.1211 7.72934 18.1758 7.88559 18.1758ZM5.94809 17.582C6.10434 17.582 6.23455 17.5273 6.33871 17.418C6.44809 17.3034 6.50278 17.1654 6.50278 17.0039C6.50278 16.8477 6.44809 16.7122 6.33871 16.5977C6.23455 16.4831 6.10434 16.4258 5.94809 16.4258C5.78663 16.4258 5.65121 16.4831 5.54184 16.5977C5.43246 16.7122 5.37778 16.8477 5.37778 17.0039C5.37778 17.1654 5.43246 17.3034 5.54184 17.418C5.65121 17.5273 5.78663 17.582 5.94809 17.582ZM4.49496 16.1445C4.65121 16.1445 4.78142 16.0872 4.88559 15.9727C4.99496 15.8581 5.04965 15.7201 5.04965 15.5586C5.04965 15.3971 4.99496 15.2617 4.88559 15.1523C4.78142 15.043 4.65121 14.9883 4.49496 14.9883C4.33351 14.9883 4.19549 15.043 4.0809 15.1523C3.96632 15.2617 3.90903 15.3971 3.90903 15.5586C3.90903 15.7201 3.96632 15.8581 4.0809 15.9727C4.19549 16.0872 4.33351 16.1445 4.49496 16.1445ZM4.00278 14.2617C4.15903 14.2617 4.29184 14.207 4.40121 14.0977C4.51059 13.9831 4.56528 13.8477 4.56528 13.6914C4.56528 13.5299 4.51059 13.3945 4.40121 13.2852C4.29184 13.1758 4.15903 13.1211 4.00278 13.1211C3.84653 13.1211 3.71111 13.1758 3.59653 13.2852C3.48715 13.3945 3.43246 13.5299 3.43246 13.6914C3.43246 13.8477 3.48715 13.9831 3.59653 14.0977C3.71111 14.207 3.84653 14.2617 4.00278 14.2617ZM4.49496 12.3867C4.65121 12.3867 4.78142 12.332 4.88559 12.2227C4.99496 12.1133 5.04965 11.9805 5.04965 11.8242C5.04965 11.6628 4.99496 11.5247 4.88559 11.4102C4.78142 11.2904 4.65121 11.2305 4.49496 11.2305C4.33351 11.2305 4.19549 11.2904 4.0809 11.4102C3.96632 11.5247 3.90903 11.6628 3.90903 11.8242C3.90903 11.9805 3.96632 12.1133 4.0809 12.2227C4.19549 12.332 4.33351 12.3867 4.49496 12.3867ZM5.94809 10.9961C6.10434 10.9961 6.23455 10.9388 6.33871 10.8242C6.44809 10.7096 6.50278 10.5742 6.50278 10.418C6.50278 10.2565 6.44809 10.1211 6.33871 10.0117C6.23455 9.89714 6.10434 9.83984 5.94809 9.83984C5.78663 9.83984 5.65121 9.89714 5.54184 10.0117C5.43246 10.1211 5.37778 10.2565 5.37778 10.418C5.37778 10.5742 5.43246 10.7096 5.54184 10.8242C5.65121 10.9388 5.78663 10.9961 5.94809 10.9961ZM7.88559 12.4336C8.04184 12.4336 8.17465 12.3789 8.28403 12.2695C8.3934 12.1549 8.44809 12.0195 8.44809 11.8633C8.44809 11.7018 8.3934 11.5638 8.28403 11.4492C8.17465 11.3346 8.04184 11.2773 7.88559 11.2773C7.72934 11.2773 7.59392 11.3346 7.47934 11.4492C7.36996 11.5638 7.31528 11.7018 7.31528 11.8633C7.31528 12.0195 7.36996 12.1549 7.47934 12.2695C7.59392 12.3789 7.72934 12.4336 7.88559 12.4336ZM9.69809 13.2148C9.85434 13.2148 9.98715 13.1602 10.0965 13.0508C10.2059 12.9362 10.2606 12.8008 10.2606 12.6445C10.2606 12.4883 10.2059 12.3555 10.0965 12.2461C9.98715 12.1315 9.85434 12.0742 9.69809 12.0742C9.54184 12.0742 9.40642 12.1315 9.29184 12.2461C9.17726 12.3555 9.11996 12.4883 9.11996 12.6445C9.11996 12.8008 9.17726 12.9362 9.29184 13.0508C9.40642 13.1602 9.54184 13.2148 9.69809 13.2148ZM9.69809 15.3867C9.85434 15.3867 9.98715 15.332 10.0965 15.2227C10.2059 15.1133 10.2606 14.9805 10.2606 14.8242C10.2606 14.6576 10.2059 14.5195 10.0965 14.4102C9.98715 14.2956 9.85434 14.2383 9.69809 14.2383C9.54184 14.2383 9.40642 14.2956 9.29184 14.4102C9.17726 14.5195 9.11996 14.6576 9.11996 14.8242C9.11996 14.9805 9.17726 15.1133 9.29184 15.2227C9.40642 15.332 9.54184 15.3867 9.69809 15.3867ZM7.88559 16.1836C8.04184 16.1836 8.17465 16.1263 8.28403 16.0117C8.3934 15.8919 8.44809 15.7539 8.44809 15.5977C8.44809 15.4414 8.3934 15.3086 8.28403 15.1992C8.17465 15.0846 8.04184 15.0273 7.88559 15.0273C7.72934 15.0273 7.59392 15.0846 7.47934 15.1992C7.36996 15.3086 7.31528 15.4414 7.31528 15.5977C7.31528 15.7539 7.36996 15.8919 7.47934 16.0117C7.59392 16.1263 7.72934 16.1836 7.88559 16.1836ZM6.06528 15.3867C6.22153 15.3867 6.35694 15.332 6.47153 15.2227C6.58611 15.1133 6.6434 14.9805 6.6434 14.8242C6.6434 14.6576 6.58611 14.5195 6.47153 14.4102C6.35694 14.2956 6.22153 14.2383 6.06528 14.2383C5.90903 14.2383 5.77621 14.2956 5.66684 14.4102C5.55746 14.5195 5.50278 14.6576 5.50278 14.8242C5.50278 14.9805 5.55746 15.1133 5.66684 15.2227C5.77621 15.332 5.90903 15.3867 6.06528 15.3867ZM6.06528 13.2148C6.22153 13.2148 6.35694 13.1602 6.47153 13.0508C6.58611 12.9362 6.6434 12.8008 6.6434 12.6445C6.6434 12.4883 6.58611 12.3555 6.47153 12.2461C6.35694 12.1315 6.22153 12.0742 6.06528 12.0742C5.90903 12.0742 5.77621 12.1315 5.66684 12.2461C5.55746 12.3555 5.50278 12.4883 5.50278 12.6445C5.50278 12.8008 5.55746 12.9362 5.66684 13.0508C5.77621 13.1602 5.90903 13.2148 6.06528 13.2148ZM7.88559 14.3008C8.04184 14.3008 8.17465 14.2461 8.28403 14.1367C8.3934 14.0221 8.44809 13.8867 8.44809 13.7305C8.44809 13.5742 8.3934 13.4414 8.28403 13.332C8.17465 13.2174 8.04184 13.1602 7.88559 13.1602C7.72934 13.1602 7.59392 13.2174 7.47934 13.332C7.36996 13.4414 7.31528 13.5742 7.31528 13.7305C7.31528 13.8867 7.36996 14.0221 7.47934 14.1367C7.59392 14.2461 7.72934 14.3008 7.88559 14.3008ZM15.4325 7.80859L15.8153 6.60547L5.03403 3.10547C4.87257 3.05339 4.71371 3.06641 4.55746 3.14453C4.40121 3.22266 4.29705 3.34505 4.24496 3.51172C4.19288 3.67318 4.2059 3.83203 4.28403 3.98828C4.36215 4.14453 4.48455 4.2513 4.65121 4.30859L15.4325 7.80859ZM2.96371 20.9258H16.4793C17.3023 20.9258 17.9168 20.7227 18.3231 20.3164C18.7293 19.9154 18.9325 19.3138 18.9325 18.5117V8.96484C18.9325 8.16276 18.7293 7.55859 18.3231 7.15234C17.9168 6.74609 17.3023 6.54297 16.4793 6.54297H2.96371C2.14601 6.54297 1.53142 6.74609 1.11996 7.15234C0.713715 7.55339 0.51059 8.15755 0.51059 8.96484V18.5117C0.51059 19.3138 0.713715 19.9154 1.11996 20.3164C1.53142 20.7227 2.14601 20.9258 2.96371 20.9258ZM2.97934 19.668C2.58871 19.668 2.28924 19.5664 2.0809 19.3633C1.87257 19.1549 1.7684 18.8477 1.7684 18.4414V9.03516C1.7684 8.62891 1.87257 8.32161 2.0809 8.11328C2.28924 7.90495 2.58871 7.80078 2.97934 7.80078H16.4637C16.8491 7.80078 17.146 7.90495 17.3543 8.11328C17.5679 8.32161 17.6747 8.62891 17.6747 9.03516V18.4414C17.6747 18.8477 17.5679 19.1549 17.3543 19.3633C17.146 19.5664 16.8491 19.668 16.4637 19.668H2.97934Z"
		fill="currentColor"
	/>
</svg>
