<svg
	color="rgb(var(--foreground, 0, 0, 0))"
	viewBox="0 0 20 24"
	fill="none"
	xmlns="http://www.w3.org/2000/svg"
>
	<path
		d="M15.4403 11.918C15.0913 11.9232 14.7918 11.8034 14.5418 11.5586C14.297 11.3086 14.1747 11.0117 14.1747 10.668C14.1747 10.3242 14.297 10.0273 14.5418 9.77734C14.7918 9.52214 15.0913 9.39714 15.4403 9.40234C15.784 9.40755 16.0783 9.53516 16.3231 9.78516C16.5731 10.0299 16.6981 10.3242 16.6981 10.668C16.6981 11.0117 16.5731 11.306 16.3231 11.5508C16.0783 11.7904 15.784 11.9128 15.4403 11.918ZM15.4403 15.5898C15.0913 15.5898 14.7918 15.4674 14.5418 15.2227C14.297 14.9727 14.1747 14.6732 14.1747 14.3242C14.1747 13.9753 14.297 13.6784 14.5418 13.4336C14.7918 13.1888 15.0913 13.0664 15.4403 13.0664C15.784 13.0664 16.0783 13.1888 16.3231 13.4336C16.5731 13.6784 16.6981 13.9753 16.6981 14.3242C16.6981 14.6732 16.5731 14.9727 16.3231 15.2227C16.0783 15.4674 15.784 15.5898 15.4403 15.5898ZM8.25278 10.3477C8.08611 10.3477 7.94549 10.2878 7.8309 10.168C7.71632 10.0482 7.65903 9.90495 7.65903 9.73828C7.65903 9.57682 7.71632 9.4388 7.8309 9.32422C7.94549 9.20443 8.08611 9.14453 8.25278 9.14453C8.41424 9.14453 8.54965 9.20443 8.65903 9.32422C8.77361 9.4388 8.8309 9.57682 8.8309 9.73828C8.8309 9.90495 8.77361 10.0482 8.65903 10.168C8.54965 10.2878 8.41424 10.3477 8.25278 10.3477ZM10.2372 10.9102C10.0809 10.9102 9.94549 10.8529 9.8309 10.7383C9.72153 10.6185 9.66684 10.4779 9.66684 10.3164C9.66684 10.1497 9.72153 10.0091 9.8309 9.89453C9.94549 9.77474 10.0809 9.71484 10.2372 9.71484C10.409 9.71484 10.5497 9.77474 10.659 9.89453C10.7736 10.0091 10.8309 10.1497 10.8309 10.3164C10.8309 10.4779 10.7736 10.6185 10.659 10.7383C10.5497 10.8529 10.409 10.9102 10.2372 10.9102ZM11.745 12.3477C11.5835 12.3477 11.4455 12.2904 11.3309 12.1758C11.2215 12.0612 11.1668 11.9258 11.1668 11.7695C11.1668 11.5977 11.2215 11.4518 11.3309 11.332C11.4455 11.2122 11.5835 11.1523 11.745 11.1523C11.9064 11.1523 12.0444 11.2122 12.159 11.332C12.2788 11.4518 12.3387 11.5977 12.3387 11.7695C12.3387 11.9258 12.2788 12.0612 12.159 12.1758C12.0444 12.2904 11.9064 12.3477 11.745 12.3477ZM12.2528 14.2773C12.0913 14.2773 11.9533 14.2201 11.8387 14.1055C11.7241 13.9909 11.6668 13.8529 11.6668 13.6914C11.6668 13.5299 11.7241 13.3919 11.8387 13.2773C11.9533 13.1628 12.0913 13.1055 12.2528 13.1055C12.409 13.1055 12.5444 13.1628 12.659 13.2773C12.7736 13.3919 12.8309 13.5299 12.8309 13.6914C12.8309 13.8529 12.7736 13.9909 12.659 14.1055C12.5444 14.2201 12.409 14.2773 12.2528 14.2773ZM11.745 16.2227C11.5835 16.2227 11.4455 16.1628 11.3309 16.043C11.2215 15.9232 11.1668 15.7799 11.1668 15.6133C11.1668 15.4518 11.2215 15.3138 11.3309 15.1992C11.4455 15.0846 11.5835 15.0273 11.745 15.0273C11.9064 15.0273 12.0444 15.0846 12.159 15.1992C12.2788 15.3138 12.3387 15.4518 12.3387 15.6133C12.3387 15.7799 12.2788 15.9232 12.159 16.043C12.0444 16.1628 11.9064 16.2227 11.745 16.2227ZM10.2372 17.707C10.0809 17.707 9.94549 17.6497 9.8309 17.5352C9.72153 17.4154 9.66684 17.2721 9.66684 17.1055C9.66684 16.944 9.72153 16.806 9.8309 16.6914C9.94549 16.5716 10.0809 16.5117 10.2372 16.5117C10.409 16.5117 10.5497 16.5716 10.659 16.6914C10.7736 16.806 10.8309 16.944 10.8309 17.1055C10.8309 17.2721 10.7736 17.4154 10.659 17.5352C10.5497 17.6497 10.409 17.707 10.2372 17.707ZM8.25278 18.3164C8.08611 18.3164 7.94549 18.2591 7.8309 18.1445C7.71632 18.0247 7.65903 17.8841 7.65903 17.7227C7.65903 17.556 7.71632 17.4128 7.8309 17.293C7.94549 17.1732 8.08611 17.1133 8.25278 17.1133C8.41424 17.1133 8.54965 17.1732 8.65903 17.293C8.77361 17.4128 8.8309 17.556 8.8309 17.7227C8.8309 17.8841 8.77361 18.0247 8.65903 18.1445C8.54965 18.2591 8.41424 18.3164 8.25278 18.3164ZM6.25278 17.707C6.08611 17.707 5.94549 17.6497 5.8309 17.5352C5.72153 17.4154 5.66684 17.2721 5.66684 17.1055C5.66684 16.944 5.72153 16.806 5.8309 16.6914C5.94549 16.5716 6.08611 16.5117 6.25278 16.5117C6.41424 16.5117 6.54965 16.5716 6.65903 16.6914C6.7684 16.806 6.82309 16.944 6.82309 17.1055C6.82309 17.2721 6.7684 17.4154 6.65903 17.5352C6.54965 17.6497 6.41424 17.707 6.25278 17.707ZM4.75278 16.2227C4.59132 16.2227 4.45069 16.1628 4.3309 16.043C4.21111 15.9232 4.15121 15.7799 4.15121 15.6133C4.15121 15.4518 4.21111 15.3138 4.3309 15.1992C4.45069 15.0846 4.59132 15.0273 4.75278 15.0273C4.90903 15.0273 5.04184 15.0846 5.15121 15.1992C5.2658 15.3138 5.32309 15.4518 5.32309 15.6133C5.32309 15.7799 5.2658 15.9232 5.15121 16.043C5.04184 16.1628 4.90903 16.2227 4.75278 16.2227ZM4.24496 14.2773C4.08351 14.2773 3.94549 14.2201 3.8309 14.1055C3.71632 13.9909 3.65903 13.8529 3.65903 13.6914C3.65903 13.5299 3.71632 13.3919 3.8309 13.2773C3.94549 13.1628 4.08351 13.1055 4.24496 13.1055C4.40642 13.1055 4.54444 13.1628 4.65903 13.2773C4.77361 13.3919 4.8309 13.5299 4.8309 13.6914C4.8309 13.8529 4.77361 13.9909 4.65903 14.1055C4.54444 14.2201 4.40642 14.2773 4.24496 14.2773ZM4.75278 12.3477C4.59132 12.3477 4.45069 12.2904 4.3309 12.1758C4.21111 12.0612 4.15121 11.9258 4.15121 11.7695C4.15121 11.5977 4.21111 11.4518 4.3309 11.332C4.45069 11.2122 4.59132 11.1523 4.75278 11.1523C4.90903 11.1523 5.04184 11.2122 5.15121 11.332C5.2658 11.4518 5.32309 11.5977 5.32309 11.7695C5.32309 11.9258 5.2658 12.0612 5.15121 12.1758C5.04184 12.2904 4.90903 12.3477 4.75278 12.3477ZM6.25278 10.9102C6.08611 10.9102 5.94549 10.8529 5.8309 10.7383C5.72153 10.6185 5.66684 10.4779 5.66684 10.3164C5.66684 10.1497 5.72153 10.0091 5.8309 9.89453C5.94549 9.77474 6.08611 9.71484 6.25278 9.71484C6.41424 9.71484 6.54965 9.77474 6.65903 9.89453C6.7684 10.0091 6.82309 10.1497 6.82309 10.3164C6.82309 10.4779 6.7684 10.6185 6.65903 10.7383C6.54965 10.8529 6.41424 10.9102 6.25278 10.9102ZM8.25278 12.3945C8.08611 12.3945 7.94549 12.3372 7.8309 12.2227C7.71632 12.1081 7.65903 11.9701 7.65903 11.8086C7.65903 11.6419 7.71632 11.4987 7.8309 11.3789C7.94549 11.2591 8.08611 11.1992 8.25278 11.1992C8.41424 11.1992 8.54965 11.2591 8.65903 11.3789C8.77361 11.4987 8.8309 11.6419 8.8309 11.8086C8.8309 11.9701 8.77361 12.1081 8.65903 12.2227C8.54965 12.3372 8.41424 12.3945 8.25278 12.3945ZM10.12 13.1992C9.95851 13.1992 9.81788 13.1419 9.69809 13.0273C9.58351 12.9076 9.52621 12.7695 9.52621 12.6133C9.52621 12.4518 9.58351 12.3138 9.69809 12.1992C9.81788 12.0794 9.95851 12.0195 10.12 12.0195C10.2814 12.0195 10.4168 12.0794 10.5262 12.1992C10.6408 12.3138 10.6981 12.4518 10.6981 12.6133C10.6981 12.7695 10.6408 12.9076 10.5262 13.0273C10.4168 13.1419 10.2814 13.1992 10.12 13.1992ZM10.12 15.4414C9.95851 15.4414 9.81788 15.3841 9.69809 15.2695C9.58351 15.1549 9.52621 15.0169 9.52621 14.8555C9.52621 14.6888 9.58351 14.5482 9.69809 14.4336C9.81788 14.3138 9.95851 14.2539 10.12 14.2539C10.2814 14.2539 10.4168 14.3138 10.5262 14.4336C10.6408 14.5482 10.6981 14.6888 10.6981 14.8555C10.6981 15.0169 10.6408 15.1549 10.5262 15.2695C10.4168 15.3841 10.2814 15.4414 10.12 15.4414ZM8.25278 16.2617C8.08611 16.2617 7.94549 16.2018 7.8309 16.082C7.71632 15.9622 7.65903 15.819 7.65903 15.6523C7.65903 15.4909 7.71632 15.3529 7.8309 15.2383C7.94549 15.1237 8.08611 15.0664 8.25278 15.0664C8.41424 15.0664 8.54965 15.1237 8.65903 15.2383C8.77361 15.3529 8.8309 15.4909 8.8309 15.6523C8.8309 15.819 8.77361 15.9622 8.65903 16.082C8.54965 16.2018 8.41424 16.2617 8.25278 16.2617ZM6.36996 15.4414C6.20851 15.4414 6.07049 15.3841 5.9559 15.2695C5.84653 15.1549 5.79184 15.0169 5.79184 14.8555C5.79184 14.6888 5.84653 14.5482 5.9559 14.4336C6.07049 14.3138 6.20851 14.2539 6.36996 14.2539C6.53142 14.2539 6.67205 14.3138 6.79184 14.4336C6.91163 14.5482 6.97153 14.6888 6.97153 14.8555C6.97153 15.0169 6.91163 15.1549 6.79184 15.2695C6.67205 15.3841 6.53142 15.4414 6.36996 15.4414ZM6.36996 13.1992C6.20851 13.1992 6.07049 13.1419 5.9559 13.0273C5.84653 12.9076 5.79184 12.7695 5.79184 12.6133C5.79184 12.4518 5.84653 12.3138 5.9559 12.1992C6.07049 12.0794 6.20851 12.0195 6.36996 12.0195C6.53142 12.0195 6.67205 12.0794 6.79184 12.1992C6.91163 12.3138 6.97153 12.4518 6.97153 12.6133C6.97153 12.7695 6.91163 12.9076 6.79184 13.0273C6.67205 13.1419 6.53142 13.1992 6.36996 13.1992ZM8.25278 14.3164C8.08611 14.3164 7.94549 14.2591 7.8309 14.1445C7.71632 14.0299 7.65903 13.8919 7.65903 13.7305C7.65903 13.569 7.71632 13.431 7.8309 13.3164C7.94549 13.2018 8.08611 13.1445 8.25278 13.1445C8.41424 13.1445 8.54965 13.2018 8.65903 13.3164C8.77361 13.431 8.8309 13.569 8.8309 13.7305C8.8309 13.8919 8.77361 14.0299 8.65903 14.1445C8.54965 14.2591 8.41424 14.3164 8.25278 14.3164ZM15.8543 7.80859L16.2372 6.60547L5.4559 3.10547C5.29444 3.05339 5.13559 3.06641 4.97934 3.14453C4.82309 3.22266 4.71892 3.34505 4.66684 3.51172C4.61476 3.67318 4.62778 3.83203 4.7059 3.98828C4.78403 4.14453 4.90642 4.2513 5.07309 4.30859L15.8543 7.80859ZM3.38559 20.9258H16.9012C17.7241 20.9258 18.3387 20.7227 18.745 20.3164C19.1512 19.9154 19.3543 19.3138 19.3543 18.5117V8.96484C19.3543 8.16276 19.1512 7.55859 18.745 7.15234C18.3387 6.74609 17.7241 6.54297 16.9012 6.54297H3.38559C2.56788 6.54297 1.9533 6.74609 1.54184 7.15234C1.13559 7.55339 0.932465 8.15755 0.932465 8.96484V18.5117C0.932465 19.3138 1.13559 19.9154 1.54184 20.3164C1.9533 20.7227 2.56788 20.9258 3.38559 20.9258Z"
		fill="currentColor"
	/>
</svg>
