<svg
	color="rgb(var(--foreground, 0, 0, 0))"
	viewBox="0 0 10 24"
	fill="none"
	xmlns="http://www.w3.org/2000/svg"
>
	<path
		d="M2.53125 21.1523H7.375C8 21.1523 8.49479 20.9753 8.85938 20.6211C9.22917 20.2721 9.41406 19.8008 9.41406 19.207V4.78516C9.41406 4.19661 9.22917 3.72786 8.85938 3.37891C8.49479 3.02474 8 2.84766 7.375 2.84766H2.53125C1.90625 2.84766 1.40885 3.02474 1.03906 3.37891C0.674479 3.72786 0.492188 4.19661 0.492188 4.78516V19.207C0.492188 19.8008 0.674479 20.2721 1.03906 20.6211C1.40885 20.9753 1.90625 21.1523 2.53125 21.1523ZM2.66406 20.0117C2.35156 20.0117 2.10417 19.9232 1.92188 19.7461C1.73958 19.5742 1.64844 19.3398 1.64844 19.043V4.95703C1.64844 4.66016 1.73958 4.42578 1.92188 4.25391C2.10417 4.07682 2.35156 3.98828 2.66406 3.98828H7.24219C7.55469 3.98828 7.80208 4.07682 7.98438 4.25391C8.16667 4.42578 8.25781 4.66016 8.25781 4.95703V19.043C8.25781 19.3398 8.16667 19.5742 7.98438 19.7461C7.80208 19.9232 7.55469 20.0117 7.24219 20.0117H2.66406ZM5.42969 5.84766H7.09375C7.22917 5.84766 7.34375 5.80078 7.4375 5.70703C7.53646 5.61328 7.58594 5.4987 7.58594 5.36328C7.58594 5.22266 7.53646 5.10547 7.4375 5.01172C7.34375 4.91797 7.22917 4.87109 7.09375 4.87109H5.42969C5.29427 4.87109 5.17708 4.91797 5.07812 5.01172C4.98438 5.10547 4.9375 5.22266 4.9375 5.36328C4.9375 5.4987 4.98438 5.61328 5.07812 5.70703C5.17708 5.80078 5.29427 5.84766 5.42969 5.84766ZM3.04688 8.75391C3.26042 8.75391 3.4401 8.68099 3.58594 8.53516C3.73177 8.38932 3.80469 8.20964 3.80469 7.99609C3.80469 7.79297 3.73177 7.61589 3.58594 7.46484C3.4401 7.3138 3.26042 7.23828 3.04688 7.23828C2.83333 7.23828 2.65365 7.3138 2.50781 7.46484C2.36198 7.61589 2.28906 7.79297 2.28906 7.99609C2.28906 8.20964 2.36198 8.38932 2.50781 8.53516C2.65365 8.68099 2.83333 8.75391 3.04688 8.75391ZM4.95312 8.75391C5.16667 8.75391 5.34635 8.68099 5.49219 8.53516C5.63802 8.38932 5.71094 8.20964 5.71094 7.99609C5.71094 7.79297 5.63802 7.61589 5.49219 7.46484C5.34635 7.3138 5.16667 7.23828 4.95312 7.23828C4.73958 7.23828 4.5599 7.3138 4.41406 7.46484C4.26823 7.61589 4.19531 7.79297 4.19531 7.99609C4.19531 8.20964 4.26823 8.38932 4.41406 8.53516C4.5599 8.68099 4.73958 8.75391 4.95312 8.75391ZM6.86719 8.75391C7.08073 8.75391 7.26042 8.68099 7.40625 8.53516C7.55208 8.38932 7.625 8.20964 7.625 7.99609C7.625 7.79297 7.55208 7.61589 7.40625 7.46484C7.26042 7.3138 7.08073 7.23828 6.86719 7.23828C6.65365 7.23828 6.47396 7.3138 6.32812 7.46484C6.18229 7.61589 6.10938 7.79297 6.10938 7.99609C6.10938 8.20964 6.18229 8.38932 6.32812 8.53516C6.47396 8.68099 6.65365 8.75391 6.86719 8.75391ZM3.04688 10.9414C3.26042 10.9414 3.4401 10.8685 3.58594 10.7227C3.73177 10.5768 3.80469 10.3971 3.80469 10.1836C3.80469 9.97526 3.73177 9.79818 3.58594 9.65234C3.4401 9.5013 3.26042 9.42578 3.04688 9.42578C2.83333 9.42578 2.65365 9.5013 2.50781 9.65234C2.36198 9.79818 2.28906 9.97526 2.28906 10.1836C2.28906 10.3971 2.36198 10.5768 2.50781 10.7227C2.65365 10.8685 2.83333 10.9414 3.04688 10.9414ZM4.95312 10.9414C5.16667 10.9414 5.34635 10.8685 5.49219 10.7227C5.63802 10.5768 5.71094 10.3971 5.71094 10.1836C5.71094 9.97526 5.63802 9.79818 5.49219 9.65234C5.34635 9.5013 5.16667 9.42578 4.95312 9.42578C4.73958 9.42578 4.5599 9.5013 4.41406 9.65234C4.26823 9.79818 4.19531 9.97526 4.19531 10.1836C4.19531 10.3971 4.26823 10.5768 4.41406 10.7227C4.5599 10.8685 4.73958 10.9414 4.95312 10.9414ZM6.86719 10.9414C7.08073 10.9414 7.26042 10.8685 7.40625 10.7227C7.55208 10.5768 7.625 10.3971 7.625 10.1836C7.625 9.97526 7.55208 9.79818 7.40625 9.65234C7.26042 9.5013 7.08073 9.42578 6.86719 9.42578C6.65365 9.42578 6.47396 9.5013 6.32812 9.65234C6.18229 9.79818 6.10938 9.97526 6.10938 10.1836C6.10938 10.3971 6.18229 10.5768 6.32812 10.7227C6.47396 10.8685 6.65365 10.9414 6.86719 10.9414ZM3.04688 13.1211C3.26042 13.1211 3.4401 13.0482 3.58594 12.9023C3.73177 12.7565 3.80469 12.5768 3.80469 12.3633C3.80469 12.1602 3.73177 11.9831 3.58594 11.832C3.4401 11.681 3.26042 11.6055 3.04688 11.6055C2.83333 11.6055 2.65365 11.681 2.50781 11.832C2.36198 11.9831 2.28906 12.1602 2.28906 12.3633C2.28906 12.5768 2.36198 12.7565 2.50781 12.9023C2.65365 13.0482 2.83333 13.1211 3.04688 13.1211ZM4.95312 13.1211C5.16667 13.1211 5.34635 13.0482 5.49219 12.9023C5.63802 12.7513 5.71094 12.5716 5.71094 12.3633C5.71094 12.1549 5.63802 11.9779 5.49219 11.832C5.34635 11.681 5.16667 11.6055 4.95312 11.6055C4.73958 11.6055 4.5599 11.681 4.41406 11.832C4.26823 11.9779 4.19531 12.1549 4.19531 12.3633C4.19531 12.5716 4.26823 12.7513 4.41406 12.9023C4.5599 13.0482 4.73958 13.1211 4.95312 13.1211ZM6.86719 13.1211C7.08073 13.1211 7.26042 13.0482 7.40625 12.9023C7.55208 12.7513 7.625 12.5716 7.625 12.3633C7.625 12.1549 7.55208 11.9779 7.40625 11.832C7.26042 11.681 7.08073 11.6055 6.86719 11.6055C6.65365 11.6055 6.47396 11.681 6.32812 11.832C6.18229 11.9779 6.10938 12.1549 6.10938 12.3633C6.10938 12.5716 6.18229 12.7513 6.32812 12.9023C6.47396 13.0482 6.65365 13.1211 6.86719 13.1211ZM2.875 18.3086C3.03646 18.3086 3.17448 18.2513 3.28906 18.1367C3.40365 18.0221 3.46094 17.8841 3.46094 17.7227V14.957C3.46094 14.7956 3.40365 14.6576 3.28906 14.543C3.17448 14.4284 3.03646 14.3711 2.875 14.3711C2.71354 14.3711 2.57552 14.4284 2.46094 14.543C2.34635 14.6576 2.28906 14.7956 2.28906 14.957V17.7227C2.28906 17.8841 2.34635 18.0221 2.46094 18.1367C2.57552 18.2513 2.71354 18.3086 2.875 18.3086ZM4.57031 16.043H5.32812C5.46354 16.043 5.5651 16.0065 5.63281 15.9336C5.70573 15.8607 5.74219 15.7617 5.74219 15.6367V15.1289C5.74219 14.9987 5.70573 14.8971 5.63281 14.8242C5.5651 14.7513 5.46354 14.7148 5.32812 14.7148H4.57031C4.44531 14.7148 4.34635 14.7513 4.27344 14.8242C4.20052 14.8971 4.16406 14.9987 4.16406 15.1289V15.6367C4.16406 15.7617 4.20052 15.8607 4.27344 15.9336C4.34635 16.0065 4.44531 16.043 4.57031 16.043ZM4.57031 17.957H5.32812C5.60417 17.957 5.74219 17.8216 5.74219 17.5508V17.043C5.74219 16.7721 5.60417 16.6367 5.32812 16.6367H4.57031C4.44531 16.6367 4.34635 16.6732 4.27344 16.7461C4.20052 16.819 4.16406 16.918 4.16406 17.043V17.5508C4.16406 17.8216 4.29948 17.957 4.57031 17.957ZM7.03906 18.3086C7.20052 18.3086 7.33854 18.2513 7.45312 18.1367C7.56771 18.0221 7.625 17.8841 7.625 17.7227V14.957C7.625 14.7956 7.56771 14.6576 7.45312 14.543C7.33854 14.4284 7.20052 14.3711 7.03906 14.3711C6.8776 14.3711 6.73958 14.4284 6.625 14.543C6.51042 14.6576 6.45312 14.7956 6.45312 14.957V17.7227C6.45312 17.8841 6.51042 18.0221 6.625 18.1367C6.73958 18.2513 6.8776 18.3086 7.03906 18.3086Z"
		fill="currentColor"
	/>
</svg>
