<svg
	color="rgb(var(--foreground, 0, 0, 0))"
	viewBox="0 0 17 24"
	fill="none"
	xmlns="http://www.w3.org/2000/svg"
>
	<path
		d="M0.878272 17.6914C0.675147 18.5039 0.735043 19.1341 1.05796 19.582C1.38608 20.0299 1.94338 20.2539 2.72983 20.2539H14.2455C15.0319 20.2539 15.5866 20.0299 15.9095 19.582C16.2376 19.1341 16.3001 18.5039 16.097 17.6914L14.3705 10.7148C14.2298 10.1419 13.959 9.69661 13.558 9.37891C13.1621 9.0612 12.6725 8.90234 12.0892 8.90234H4.88608C4.30275 8.90234 3.81056 9.0612 3.40952 9.37891C3.01369 9.69661 2.74546 10.1419 2.60483 10.7148L0.878272 17.6914ZM2.09702 17.7695L3.77671 11.1523C3.94338 10.4909 4.34442 10.1602 4.97983 10.1602H11.9955C12.6309 10.1602 13.0319 10.4909 13.1986 11.1523L14.8783 17.7695C14.9824 18.1706 14.9616 18.4753 14.8158 18.6836C14.6751 18.8919 14.4304 18.9961 14.0814 18.9961H2.88608C2.54233 18.9961 2.29754 18.8919 2.15171 18.6836C2.00588 18.4753 1.98765 18.1706 2.09702 17.7695ZM7.85483 9.81641H9.11265V7.58984H7.85483V9.81641ZM8.48765 8.19922C8.8939 8.19922 9.26629 8.10026 9.60483 7.90234C9.94338 7.69922 10.2142 7.43099 10.4173 7.09766C10.6205 6.75911 10.722 6.38672 10.722 5.98047C10.722 5.57422 10.6179 5.20182 10.4095 4.86328C10.2064 4.52474 9.93556 4.25391 9.59702 4.05078C9.25848 3.84766 8.88869 3.74609 8.48765 3.74609C8.0814 3.74609 7.709 3.84766 7.37046 4.05078C7.03192 4.25391 6.76108 4.52474 6.55796 4.86328C6.35483 5.20182 6.25327 5.57422 6.25327 5.98047C6.25327 6.38672 6.35483 6.75911 6.55796 7.09766C6.76108 7.43099 7.03192 7.69922 7.37046 7.90234C7.709 8.10026 8.0814 8.19922 8.48765 8.19922ZM8.48765 7.11328C8.17515 7.11328 7.90692 7.0013 7.68296 6.77734C7.459 6.55339 7.34702 6.28776 7.34702 5.98047C7.34702 5.67318 7.459 5.40495 7.68296 5.17578C7.90692 4.94661 8.17515 4.83203 8.48765 4.83203C8.79494 4.83203 9.06056 4.94661 9.28452 5.17578C9.51369 5.40495 9.62827 5.67318 9.62827 5.98047C9.62827 6.28776 9.51629 6.55339 9.29233 6.77734C9.06838 7.0013 8.80015 7.11328 8.48765 7.11328Z"
		fill="currentColor"
	/>
</svg>
