<svg
	color="rgb(var(--foreground, 0, 0, 0))"
	viewBox="0 0 16 24"
	fill="none"
	xmlns="http://www.w3.org/2000/svg"
>
	<path
		d="M0.331153 17.6914C0.128028 18.5039 0.187923 19.1341 0.51084 19.582C0.838965 20.0299 1.39626 20.2539 2.18272 20.2539H13.6983C14.4848 20.2539 15.0395 20.0299 15.3624 19.582C15.6905 19.1341 15.753 18.5039 15.5499 17.6914L13.8233 10.7148C13.6827 10.1419 13.4119 9.69661 13.0108 9.37891C12.615 9.0612 12.1254 8.90234 11.5421 8.90234H4.33896C3.75563 8.90234 3.26344 9.0612 2.8624 9.37891C2.46657 9.69661 2.19834 10.1419 2.05772 10.7148L0.331153 17.6914ZM7.30771 9.81641H8.56553V7.58984H7.30771V9.81641ZM7.94053 8.19922C8.34678 8.19922 8.71917 8.10026 9.05772 7.90234C9.39626 7.69922 9.66709 7.43099 9.87022 7.09766C10.0733 6.75911 10.1749 6.38672 10.1749 5.98047C10.1749 5.57422 10.0707 5.20182 9.8624 4.86328C9.65928 4.52474 9.38844 4.25391 9.0499 4.05078C8.71136 3.84766 8.34157 3.74609 7.94053 3.74609C7.53428 3.74609 7.16188 3.84766 6.82334 4.05078C6.4848 4.25391 6.21396 4.52474 6.01084 4.86328C5.80771 5.20182 5.70615 5.57422 5.70615 5.98047C5.70615 6.38672 5.80771 6.75911 6.01084 7.09766C6.21396 7.43099 6.4848 7.69922 6.82334 7.90234C7.16188 8.10026 7.53428 8.19922 7.94053 8.19922ZM7.94053 7.11328C7.62803 7.11328 7.3598 7.0013 7.13584 6.77734C6.91188 6.55339 6.7999 6.28776 6.7999 5.98047C6.7999 5.67318 6.91188 5.40495 7.13584 5.17578C7.3598 4.94661 7.62803 4.83203 7.94053 4.83203C8.24782 4.83203 8.51344 4.94661 8.7374 5.17578C8.96657 5.40495 9.08115 5.67318 9.08115 5.98047C9.08115 6.28776 8.96917 6.55339 8.74522 6.77734C8.52126 7.0013 8.25303 7.11328 7.94053 7.11328Z"
		fill="currentColor"
	/>
</svg>
