<svg
	color="rgb(var(--foreground, 0, 0, 0))"
	viewBox="0 0 20 24"
	fill="none"
	xmlns="http://www.w3.org/2000/svg"
>
	<path
		d="M2.07031 17.1562H17.5859C18.2474 17.1562 18.7474 16.987 19.0859 16.6484C19.4245 16.3099 19.5938 15.8099 19.5938 15.1484V6.19531C19.5938 5.53906 19.4245 5.04167 19.0859 4.70312C18.7474 4.36458 18.2474 4.19531 17.5859 4.19531H2.07031C1.40885 4.19531 0.908854 4.36458 0.570312 4.70312C0.231771 5.04167 0.0625 5.53906 0.0625 6.19531V15.1484C0.0625 15.8099 0.231771 16.3099 0.570312 16.6484C0.908854 16.987 1.40885 17.1562 2.07031 17.1562ZM2.09375 15.8984C1.83854 15.8984 1.64583 15.8359 1.51562 15.7109C1.38542 15.5807 1.32031 15.388 1.32031 15.1328V6.21875C1.32031 5.96354 1.38542 5.77344 1.51562 5.64844C1.64583 5.51823 1.83854 5.45312 2.09375 5.45312H17.5625C17.8229 5.45312 18.0156 5.51823 18.1406 5.64844C18.2708 5.77344 18.3359 5.96354 18.3359 6.21875V15.1328C18.3359 15.388 18.2708 15.5807 18.1406 15.7109C18.0156 15.8359 17.8229 15.8984 17.5625 15.8984H2.09375ZM7.63281 19.8047H12.5C12.6719 19.8047 12.8203 19.7422 12.9453 19.6172C13.0703 19.4974 13.1328 19.349 13.1328 19.1719C13.1328 19 13.0703 18.8516 12.9453 18.7266C12.8203 18.6016 12.6719 18.5391 12.5 18.5391H7.63281C7.46094 18.5391 7.3125 18.6016 7.1875 18.7266C7.0625 18.8516 7 19 7 19.1719C7 19.349 7.0625 19.4974 7.1875 19.6172C7.3125 19.7422 7.46094 19.8047 7.63281 19.8047Z"
		fill="currentColor"
	/>
</svg>
