<svg
	color="rgb(var(--foreground, 0, 0, 0))"
	viewBox="0 0 11 24"
	fill="none"
	xmlns="http://www.w3.org/2000/svg"
>
	<path
		d="M2.35156 20.2695H8.14062C8.78125 20.2695 9.29427 20.082 9.67969 19.707C10.0703 19.3372 10.2656 18.8477 10.2656 18.2383V5.76172C10.2656 5.15234 10.0703 4.66276 9.67969 4.29297C9.29427 3.91797 8.78125 3.73047 8.14062 3.73047H2.35156C1.71615 3.73047 1.20312 3.91797 0.8125 4.29297C0.421875 4.66276 0.226562 5.15234 0.226562 5.76172V18.2383C0.226562 18.8477 0.421875 19.3372 0.8125 19.707C1.20312 20.082 1.71615 20.2695 2.35156 20.2695ZM2.51562 19.0117C2.18229 19.0117 1.92708 18.9258 1.75 18.7539C1.57292 18.5872 1.48438 18.3477 1.48438 18.0352V5.96484C1.48438 5.65234 1.57292 5.41276 1.75 5.24609C1.92708 5.07422 2.18229 4.98828 2.51562 4.98828H7.98438C8.3125 4.98828 8.5651 5.07422 8.74219 5.24609C8.91927 5.41276 9.00781 5.65234 9.00781 5.96484V18.0352C9.00781 18.3477 8.91927 18.5872 8.74219 18.7539C8.5651 18.9258 8.3125 19.0117 7.98438 19.0117H2.51562ZM4.03906 19.1914H6.46094V18.7461C6.46094 18.5846 6.41146 18.4544 6.3125 18.3555C6.21875 18.2565 6.09115 18.207 5.92969 18.207H4.57812C4.41667 18.207 4.28646 18.2565 4.1875 18.3555C4.08854 18.4544 4.03906 18.5846 4.03906 18.7461V19.1914Z"
		fill="currentColor"
	/>
</svg>
