<svg
	color="rgb(var(--foreground, 0, 0, 0))"
	viewBox="0 0 12 24"
	fill="none"
	xmlns="http://www.w3.org/2000/svg"
>
	<path
		d="M0.257812 15.1602C0.257812 15.7643 0.372396 16.2852 0.601562 16.7227C0.835938 17.1602 1.17448 17.5013 1.61719 17.7461C1.83073 17.8607 2.0026 17.9961 2.13281 18.1523C2.26823 18.3138 2.375 18.5247 2.45312 18.7852L2.70312 19.6211C2.84896 20.1159 3.1901 20.3633 3.72656 20.3633H7.33594C7.86719 20.3633 8.20573 20.1159 8.35156 19.6211L8.60938 18.7852C8.6875 18.5247 8.79167 18.3138 8.92188 18.1523C9.05729 17.9961 9.23177 17.8607 9.44531 17.7461C9.88802 17.5013 10.224 17.1602 10.4531 16.7227C10.6875 16.2852 10.8047 15.7643 10.8047 15.1602V8.83984C10.8047 8.23568 10.6875 7.71484 10.4531 7.27734C10.224 6.83984 9.88802 6.4987 9.44531 6.25391C9.23177 6.13932 9.05729 6.00391 8.92188 5.84766C8.79167 5.6862 8.6875 5.47786 8.60938 5.22266L8.35156 4.37891C8.21615 3.88411 7.8776 3.63672 7.33594 3.63672H3.72656C3.1901 3.63672 2.84896 3.88411 2.70312 4.37891L2.45312 5.22266C2.38021 5.47786 2.27604 5.6862 2.14062 5.84766C2.01042 6.00911 1.83594 6.14453 1.61719 6.25391C1.17969 6.48828 0.84375 6.82682 0.609375 7.26953C0.375 7.70703 0.257812 8.23047 0.257812 8.83984V15.1602ZM1.39844 14.9961V9.01172C1.39844 8.42839 1.55729 7.97266 1.875 7.64453C2.19792 7.3112 2.64583 7.14453 3.21875 7.14453H7.84375C8.41667 7.14453 8.86198 7.3112 9.17969 7.64453C9.5026 7.97266 9.66406 8.42839 9.66406 9.01172V14.9961C9.66406 15.5742 9.5026 16.0299 9.17969 16.3633C8.86198 16.6914 8.41667 16.8555 7.84375 16.8555H3.21875C2.64583 16.8555 2.19792 16.6914 1.875 16.3633C1.55729 16.0299 1.39844 15.5742 1.39844 14.9961ZM10.6328 11.4492H10.9141C11.1172 11.4492 11.2786 11.3867 11.3984 11.2617C11.5234 11.1315 11.5859 10.9544 11.5859 10.7305V9.67578C11.5859 9.45182 11.5234 9.27734 11.3984 9.15234C11.2786 9.02214 11.1172 8.95703 10.9141 8.95703H10.6328V11.4492Z"
		fill="currentColor"
	/>
</svg>
