<svg
	color="rgb(var(--foreground, 0, 0, 0))"
	viewBox="0 0 14 24"
	fill="none"
	xmlns="http://www.w3.org/2000/svg"
>
	<path
		d="M0.75 18.7383C0.75 19.3529 0.947917 19.8503 1.34375 20.2305C1.74479 20.6107 2.26823 20.8008 2.91406 20.8008H11.6406C12.2865 20.8008 12.8073 20.6107 13.2031 20.2305C13.6042 19.8503 13.8047 19.3529 13.8047 18.7383V5.26953C13.8047 4.64974 13.6042 4.14974 13.2031 3.76953C12.8073 3.38932 12.2865 3.19922 11.6406 3.19922H2.91406C2.26823 3.19922 1.74479 3.38932 1.34375 3.76953C0.947917 4.14974 0.75 4.64974 0.75 5.26953V18.7383ZM2.00781 18.5273V5.48047C2.00781 5.15755 2.10156 4.90755 2.28906 4.73047C2.47656 4.54818 2.73698 4.45703 3.07031 4.45703H11.4844C11.8177 4.45703 12.0781 4.54818 12.2656 4.73047C12.4531 4.90755 12.5469 5.15755 12.5469 5.48047V18.5273C12.5469 18.8451 12.4531 19.0924 12.2656 19.2695C12.0781 19.4518 11.8177 19.543 11.4844 19.543H3.07031C2.73698 19.543 2.47656 19.4518 2.28906 19.2695C2.10156 19.0924 2.00781 18.8451 2.00781 18.5273ZM5.0625 18.9492H9.49219C9.60156 18.9492 9.6901 18.9154 9.75781 18.8477C9.82552 18.7799 9.85938 18.6914 9.85938 18.582C9.85938 18.4727 9.82552 18.3841 9.75781 18.3164C9.6901 18.2539 9.60156 18.2227 9.49219 18.2227H5.0625C4.95833 18.2227 4.8724 18.2539 4.80469 18.3164C4.73698 18.3841 4.70312 18.4727 4.70312 18.582C4.70312 18.6914 4.73698 18.7799 4.80469 18.8477C4.8724 18.9154 4.95833 18.9492 5.0625 18.9492Z"
		fill="currentColor"
	/>
</svg>
