<svg
	color="rgb(var(--foreground, 0, 0, 0))"
	viewBox="0 0 20 24"
	fill="none"
	xmlns="http://www.w3.org/2000/svg"
>
	<path
		d="M3.25781 19.1914H16.7734C17.5964 19.1914 18.2109 18.9883 18.6172 18.582C19.0234 18.181 19.2266 17.5768 19.2266 16.7695V7.23047C19.2266 6.42318 19.0234 5.81901 18.6172 5.41797C18.2109 5.01172 17.5964 4.80859 16.7734 4.80859H3.25781C2.4401 4.80859 1.82552 5.01172 1.41406 5.41797C1.00781 5.81901 0.804688 6.42318 0.804688 7.23047V16.7695C0.804688 17.5768 1.00781 18.181 1.41406 18.582C1.82552 18.9883 2.4401 19.1914 3.25781 19.1914ZM3.27344 17.9336C2.88281 17.9336 2.58333 17.832 2.375 17.6289C2.16667 17.4206 2.0625 17.1133 2.0625 16.707V7.29297C2.0625 6.88672 2.16667 6.58203 2.375 6.37891C2.58333 6.17057 2.88281 6.06641 3.27344 6.06641H16.7578C17.1432 6.06641 17.4401 6.17057 17.6484 6.37891C17.862 6.58203 17.9688 6.88672 17.9688 7.29297V16.707C17.9688 17.1133 17.862 17.4206 17.6484 17.6289C17.4401 17.832 17.1432 17.9336 16.7578 17.9336H3.27344ZM7 17.332H13.0391C13.1432 17.332 13.2292 17.3008 13.2969 17.2383C13.3646 17.1706 13.3984 17.082 13.3984 16.9727C13.3984 16.8633 13.3646 16.7747 13.2969 16.707C13.2292 16.6393 13.1432 16.6055 13.0391 16.6055H7C6.89062 16.6055 6.80208 16.6393 6.73438 16.707C6.66667 16.7747 6.63281 16.8633 6.63281 16.9727C6.63281 17.082 6.66667 17.1706 6.73438 17.2383C6.80208 17.3008 6.89062 17.332 7 17.332Z"
		fill="currentColor"
	/>
</svg>
