<svg
	color="rgb(var(--foreground, 0, 0, 0))"
	viewBox="0 0 20 24"
	fill="none"
	xmlns="http://www.w3.org/2000/svg"
>
	<path
		d="M3.58826 18.4219H11.7523C12.7054 18.4219 13.4502 18.1589 13.9867 17.6328C14.5284 17.1016 14.7992 16.3594 14.7992 15.4062V8.58594C14.7992 7.63802 14.5284 6.90104 13.9867 6.375C13.4502 5.84375 12.7054 5.57812 11.7523 5.57812H3.58826C2.6768 5.57812 1.93982 5.84375 1.37732 6.375C0.820028 6.90104 0.541382 7.63802 0.541382 8.58594V15.4062C0.541382 16.3594 0.809611 17.1016 1.34607 17.6328C1.88774 18.1589 2.63513 18.4219 3.58826 18.4219ZM3.80701 17.2422C3.16638 17.2422 2.67159 17.0755 2.32263 16.7422C1.97367 16.4089 1.79919 15.9036 1.79919 15.2266V8.77344C1.79919 8.09635 1.97367 7.59115 2.32263 7.25781C2.67159 6.91927 3.16638 6.75 3.80701 6.75H11.5336C12.1742 6.75 12.669 6.91927 13.0179 7.25781C13.3669 7.59115 13.5414 8.09635 13.5414 8.77344V15.2266C13.5414 15.9036 13.3669 16.4089 13.0179 16.7422C12.669 17.0755 12.1742 17.2422 11.5336 17.2422H3.80701ZM14.6195 9.8125V11.2969L18.3383 8.22656C18.3747 8.20052 18.406 8.17969 18.432 8.16406C18.4633 8.14323 18.4945 8.13281 18.5258 8.13281C18.6143 8.13281 18.6586 8.19531 18.6586 8.32031V15.6797C18.6586 15.7995 18.6143 15.8594 18.5258 15.8594C18.4945 15.8594 18.4633 15.8516 18.432 15.8359C18.406 15.8151 18.3747 15.7943 18.3383 15.7734L14.6195 12.7031V14.1797L17.7523 16.8359C17.9086 16.9661 18.07 17.0729 18.2367 17.1562C18.4034 17.2344 18.5674 17.2734 18.7289 17.2734C19.0726 17.2734 19.3487 17.1589 19.557 16.9297C19.7653 16.7005 19.8695 16.4036 19.8695 16.0391V7.96094C19.8695 7.59635 19.7653 7.29948 19.557 7.07031C19.3487 6.84115 19.0726 6.72656 18.7289 6.72656C18.5674 6.72656 18.4034 6.76823 18.2367 6.85156C18.07 6.92969 17.9086 7.03385 17.7523 7.16406L14.6195 9.8125Z"
		fill="currentColor"
	/>
</svg>
