<svg
	color="rgb(var(--foreground, 0, 0, 0))"
	viewBox="0 0 21 24"
	fill="none"
	xmlns="http://www.w3.org/2000/svg"
>
	<path
		d="M16.1547 20.1382C16.389 20.3726 16.7797 20.3726 17.0062 20.1382C17.2328 19.896 17.2406 19.521 17.0062 19.2866L1.57654 3.86476C1.34216 3.63038 0.951538 3.62257 0.717163 3.86476C0.490601 4.09132 0.490601 4.48976 0.717163 4.71632L16.1547 20.1382ZM12.7719 5.62257H4.63904L15.1156 16.0991C15.1703 15.8335 15.2015 15.4741 15.2015 15.1382V8.09132C15.2015 6.52882 14.3422 5.62257 12.7719 5.62257ZM16.264 14.271L19.1078 16.7319C19.3734 16.9663 19.6859 17.1148 19.9672 17.1148C20.5765 17.1148 20.975 16.6694 20.975 16.0288V7.90382C20.975 7.2632 20.5765 6.81788 19.9672 6.81788C19.6859 6.81788 19.3734 6.96632 19.1078 7.2007L16.264 9.65382V14.271ZM4.3031 18.3101H13.014L1.94373 7.23976C1.85779 7.43507 1.8031 7.79445 1.8031 8.12257V15.8179C1.8031 17.3882 2.73279 18.3101 4.3031 18.3101Z"
		fill="currentColor"
	/>
</svg>
