<svg
	color="rgb(var(--foreground, 0, 0, 0))"
	viewBox="0 0 21 24"
	fill="none"
	xmlns="http://www.w3.org/2000/svg"
>
	<path
		d="M3.37732 18.3438H11.7679C12.5544 18.3438 13.169 18.1276 13.6117 17.6953C14.0544 17.263 14.2758 16.6536 14.2758 15.8672V8.125C14.2758 7.34375 14.0674 6.73698 13.6508 6.30469C13.2341 5.8724 12.6325 5.65625 11.8461 5.65625H3.37732C2.62732 5.65625 2.02055 5.8724 1.55701 6.30469C1.09867 6.73698 0.869507 7.34375 0.869507 8.125V15.8672C0.869507 16.6536 1.09086 17.263 1.53357 17.6953C1.97628 18.1276 2.59086 18.3438 3.37732 18.3438ZM15.3383 14.3047L18.182 16.7656C18.3174 16.8802 18.458 16.974 18.6039 17.0469C18.7549 17.1146 18.9008 17.1484 19.0414 17.1484C19.3435 17.1484 19.5857 17.0495 19.7679 16.8516C19.9554 16.6484 20.0492 16.3854 20.0492 16.0625V7.9375C20.0492 7.61458 19.9554 7.35417 19.7679 7.15625C19.5857 6.95312 19.3435 6.85156 19.0414 6.85156C18.9008 6.85156 18.7549 6.88542 18.6039 6.95312C18.458 7.02083 18.3174 7.11458 18.182 7.23438L15.3383 9.6875V14.3047Z"
		fill="currentColor"
	/>
</svg>
