<svg
	color="rgb(var(--foreground, 0, 0, 0))"
	viewBox="0 0 21 24"
	fill="none"
	xmlns="http://www.w3.org/2000/svg"
>
	<path
		d="M15.6566 20.1382C15.891 20.3726 16.2816 20.3726 16.5082 20.1382C16.7347 19.896 16.7426 19.521 16.5082 19.2866L1.07849 3.86476C0.844116 3.63038 0.453491 3.62257 0.219116 3.86476C-0.00744629 4.09132 -0.00744629 4.48976 0.219116 4.71632L15.6566 20.1382ZM12.4301 5.55226H4.09412L5.26599 6.72413H12.2113C13.4847 6.72413 14.2191 7.3882 14.2191 8.74757V15.1382C14.2191 15.3257 14.1957 15.4585 14.1488 15.6069L15.2426 16.7007C15.391 16.3491 15.4769 15.9116 15.4769 15.4819V14.3101L18.4301 16.8101C18.7426 17.0679 19.0863 17.2476 19.4066 17.2476C20.0941 17.2476 20.5472 16.7398 20.5472 16.0132V7.93507C20.5472 7.20851 20.0941 6.7007 19.4066 6.7007C19.0863 6.7007 18.7426 6.88038 18.4301 7.1382L15.4769 9.6382V8.56007C15.4769 6.66163 14.3363 5.55226 12.4301 5.55226ZM4.26599 18.396H12.5707L11.3988 17.2163H4.48474C3.20349 17.2163 2.47693 16.5523 2.47693 15.2007V8.35695L1.21912 7.09132V15.3804C1.21912 17.2866 2.35974 18.396 4.26599 18.396ZM19.016 15.7476L15.4769 12.8257V11.1226L19.016 8.2007C19.0863 8.14601 19.1332 8.10695 19.2035 8.10695C19.2972 8.10695 19.3363 8.18507 19.3363 8.29445V15.6538C19.3363 15.7632 19.2972 15.8335 19.2035 15.8335C19.1332 15.8335 19.0863 15.7944 19.016 15.7476Z"
		fill="currentColor"
	/>
</svg>
