<svg
	color="rgb(var(--foreground, 0, 0, 0))"
	viewBox="0 0 15 24"
	fill="none"
	xmlns="http://www.w3.org/2000/svg"
>
	<path
		d="M0.666721 10.5785C-0.411404 11.0785 -0.114529 12.5238 1.07297 12.5316L6.76828 12.555C6.86203 12.555 6.88547 12.5785 6.88547 12.6722L6.9011 18.3207C6.90891 19.555 8.37766 19.7738 8.9011 18.641L14.6745 6.22691C15.2058 5.07066 14.2995 4.25035 13.1511 4.78941L0.666721 10.5785ZM2.0261 11.3129C1.99485 11.3129 1.98703 11.2816 2.0261 11.266L13.2527 6.12535C13.3073 6.10191 13.3308 6.11754 13.3073 6.18004L8.13547 17.3988C8.12766 17.43 8.09641 17.4222 8.09641 17.391L8.13547 11.8675C8.13547 11.5238 7.89328 11.2816 7.54172 11.2816L2.0261 11.3129Z"
		fill="currentColor"
	/>
</svg>
