<svg
	color="rgb(var(--foreground, 0, 0, 0))"
	viewBox="0 0 13 24"
	fill="none"
	xmlns="http://www.w3.org/2000/svg"
>
	<path
		d="M3.81238 6.64453C3.81238 7.10286 3.90613 7.52734 4.09363 7.91797C4.28634 8.30859 4.54936 8.64193 4.88269 8.91797C5.21602 9.19401 5.59363 9.38411 6.0155 9.48828V10.4414L7.46863 11.8945V9.48828C7.8905 9.38411 8.26811 9.19401 8.60144 8.91797C8.93477 8.64193 9.19779 8.30859 9.3905 7.91797C9.58321 7.52734 9.67957 7.10286 9.67957 6.64453C9.67957 6.10286 9.54675 5.61068 9.28113 5.16797C9.02071 4.72005 8.66915 4.36328 8.22644 4.09766C7.78373 3.83203 7.28894 3.69922 6.74207 3.69922C6.2004 3.69922 5.70821 3.83203 5.2655 4.09766C4.82279 4.36328 4.46863 4.72005 4.203 5.16797C3.94259 5.61068 3.81238 6.10286 3.81238 6.64453ZM6.0155 16.7383C6.0155 17.3164 6.03894 17.8242 6.08582 18.2617C6.13269 18.7044 6.19259 19.0768 6.2655 19.3789C6.33842 19.681 6.41654 19.9102 6.49988 20.0664C6.58321 20.2227 6.66394 20.3008 6.74207 20.3008C6.84102 20.3008 6.94519 20.181 7.05457 19.9414C7.16915 19.7018 7.2655 19.3529 7.34363 18.8945C7.42175 18.4414 7.46082 17.8919 7.46082 17.2461V16.1602L6.0155 14.7148V16.7383ZM5.89832 6.80078C5.63269 6.80078 5.39832 6.70182 5.19519 6.50391C4.99727 6.30078 4.89832 6.0638 4.89832 5.79297C4.89832 5.52214 4.99727 5.28776 5.19519 5.08984C5.39832 4.89193 5.63269 4.79297 5.89832 4.79297C6.17436 4.79297 6.41134 4.89193 6.60925 5.08984C6.80717 5.28776 6.90613 5.52214 6.90613 5.79297C6.90613 6.0638 6.80717 6.30078 6.60925 6.50391C6.41134 6.70182 6.17436 6.80078 5.89832 6.80078ZM11.4843 18.8867C11.604 19.0065 11.7473 19.0664 11.9139 19.0664C12.0806 19.0664 12.2212 19.0065 12.3358 18.8867C12.4504 18.7721 12.5077 18.6315 12.5077 18.4648C12.5129 18.2982 12.4556 18.1549 12.3358 18.0352L1.43738 7.14453C1.32279 7.02995 1.17957 6.97266 1.00769 6.97266C0.835815 6.97266 0.692586 7.02995 0.578003 7.14453C0.46342 7.25911 0.406128 7.40234 0.406128 7.57422C0.406128 7.74089 0.46342 7.88151 0.578003 7.99609L11.4843 18.8867Z"
		fill="currentColor"
	/>
</svg>
