<svg
	color="rgb(var(--foreground, 0, 0, 0))"
	viewBox="0 0 16 24"
	fill="none"
	xmlns="http://www.w3.org/2000/svg"
>
	<path
		d="M14.5585 17.6285C14.7929 17.8629 15.1835 17.8629 15.4101 17.6285C15.6366 17.3942 15.6444 17.0114 15.4101 16.777L3.37882 4.74573C3.14444 4.51135 2.75382 4.51135 2.51944 4.74573C2.29288 4.97229 2.29288 5.37073 2.51944 5.59729L14.5585 17.6285ZM12.3944 12.4176L15.2538 6.27698C15.7851 5.12073 14.8788 4.30042 13.7304 4.83948L7.62101 7.67542L8.55851 8.59729L13.8319 6.17542C13.8866 6.15198 13.9101 6.1676 13.8866 6.2301L11.4569 11.4879L12.3944 12.4176ZM1.65226 12.5817L7.34757 12.6051C7.44132 12.6051 7.46476 12.6285 7.46476 12.7223L7.48038 18.3707C7.48819 19.6051 8.95694 19.8239 9.48038 18.691L11.0273 15.3707L10.1054 14.4489L8.71476 17.4489C8.70694 17.4801 8.67569 17.4723 8.67569 17.441L8.70694 13.0426L6.99601 11.3395L2.60538 11.3629C2.57413 11.3629 2.56632 11.3317 2.60538 11.316L5.59757 9.94885L4.68351 9.02698L1.24601 10.6285C0.167881 11.1285 0.464756 12.5739 1.65226 12.5817Z"
		fill="currentColor"
	/>
</svg>
