<svg
	color="rgb(var(--foreground, 0, 0, 0))"
	viewBox="0 0 7 24"
	fill="none"
	xmlns="http://www.w3.org/2000/svg"
>
	<path
		d="M0.53894 6.64453C0.53894 7.10286 0.63269 7.52734 0.82019 7.91797C1.0129 8.30859 1.27592 8.64193 1.60925 8.91797C1.94259 9.19401 2.32019 9.38411 2.74207 9.48828V16.7383C2.74207 17.3164 2.7655 17.8242 2.81238 18.2617C2.85925 18.7044 2.91915 19.0768 2.99207 19.3789C3.06498 19.681 3.14311 19.9102 3.22644 20.0664C3.30977 20.2227 3.3905 20.3008 3.46863 20.3008C3.54675 20.3008 3.62748 20.2227 3.71082 20.0664C3.79936 19.9154 3.87748 19.6888 3.94519 19.3867C4.01811 19.0846 4.078 18.7122 4.12488 18.2695C4.17175 17.8268 4.19519 17.3164 4.19519 16.7383V9.48828C4.61707 9.38411 4.99467 9.19401 5.328 8.91797C5.66134 8.64193 5.92436 8.30859 6.11707 7.91797C6.30977 7.52734 6.40613 7.10286 6.40613 6.64453C6.40613 6.10286 6.27332 5.61068 6.00769 5.16797C5.74727 4.72005 5.39571 4.36328 4.953 4.09766C4.51029 3.83203 4.0155 3.69922 3.46863 3.69922C2.92696 3.69922 2.43477 3.83203 1.99207 4.09766C1.54936 4.36328 1.19519 4.72005 0.929565 5.16797C0.669149 5.61068 0.53894 6.10286 0.53894 6.64453ZM2.62488 6.80078C2.35925 6.80078 2.12488 6.70182 1.92175 6.50391C1.72384 6.30078 1.62488 6.0638 1.62488 5.79297C1.62488 5.52214 1.72384 5.28776 1.92175 5.08984C2.12488 4.89193 2.35925 4.79297 2.62488 4.79297C2.90092 4.79297 3.1379 4.89193 3.33582 5.08984C3.53373 5.28776 3.63269 5.52214 3.63269 5.79297C3.63269 6.0638 3.53373 6.30078 3.33582 6.50391C3.1379 6.70182 2.90092 6.80078 2.62488 6.80078Z"
		fill="currentColor"
	/>
</svg>
