<svg
	color="rgb(var(--foreground, 0, 0, 0))"
	viewBox="0 0 16 24"
	fill="none"
	xmlns="http://www.w3.org/2000/svg"
>
	<path
		d="M4.99243 6.36719C4.99243 6.82552 5.08618 7.25 5.27368 7.64062C5.46639 8.03125 5.72941 8.36458 6.06274 8.64062C6.39608 8.91667 6.77368 9.10677 7.19556 9.21094V14.1562C7.19556 14.7344 7.21899 15.2448 7.26587 15.6875C7.31274 16.1302 7.37264 16.5026 7.44556 16.8047C7.51847 17.1068 7.5966 17.3359 7.67993 17.4922C7.76326 17.6432 7.84399 17.7188 7.92212 17.7188C8.00024 17.7188 8.08097 17.6432 8.16431 17.4922C8.25285 17.3359 8.33097 17.1068 8.39868 16.8047C8.4716 16.5026 8.53149 16.1302 8.57837 15.6875C8.62524 15.2448 8.64868 14.7344 8.64868 14.1562V9.21094C9.07056 9.10677 9.44816 8.91667 9.78149 8.64062C10.1148 8.36458 10.3778 8.03125 10.5706 7.64062C10.7633 7.25 10.8596 6.82552 10.8596 6.36719C10.8596 5.82552 10.7268 5.33333 10.4612 4.89062C10.2008 4.44271 9.8492 4.08594 9.40649 3.82031C8.96379 3.55469 8.46899 3.42188 7.92212 3.42188C7.38045 3.42188 6.88826 3.55469 6.44556 3.82031C6.00285 4.08594 5.64868 4.44271 5.38306 4.89062C5.12264 5.33333 4.99243 5.82552 4.99243 6.36719ZM7.08618 6.52344C6.82056 6.52344 6.58618 6.42448 6.38306 6.22656C6.18514 6.02344 6.08618 5.78646 6.08618 5.51562C6.08618 5.24479 6.18514 5.01042 6.38306 4.8125C6.58618 4.61458 6.82056 4.51562 7.08618 4.51562C7.36222 4.51562 7.5992 4.61458 7.79712 4.8125C7.99504 5.01042 8.09399 5.24479 8.09399 5.51562C8.09399 5.78646 7.99504 6.02344 7.79712 6.22656C7.5992 6.42448 7.36222 6.52344 7.08618 6.52344ZM7.92993 20.5781C9.10702 20.5781 10.1539 20.4844 11.0706 20.2969C11.9924 20.1146 12.7711 19.8646 13.4065 19.5469C14.0419 19.2344 14.5237 18.8776 14.8518 18.4766C15.1799 18.0807 15.344 17.6667 15.344 17.2344C15.344 16.8229 15.2268 16.4453 14.9924 16.1016C14.7633 15.7526 14.4534 15.4427 14.0627 15.1719C13.6721 14.901 13.2372 14.6719 12.7581 14.4844C12.2841 14.2917 11.7997 14.1458 11.3049 14.0469C10.8153 13.9427 10.3544 13.8906 9.92212 13.8906V15.0312C10.3023 15.0365 10.7112 15.0911 11.1487 15.1953C11.5914 15.2943 12.0107 15.4323 12.4065 15.6094C12.8023 15.7865 13.1278 15.9974 13.3831 16.2422C13.6383 16.487 13.7659 16.7552 13.7659 17.0469C13.7659 17.3854 13.62 17.6927 13.3284 17.9688C13.0367 18.25 12.6278 18.4922 12.1018 18.6953C11.581 18.9036 10.9638 19.0625 10.2502 19.1719C9.54191 19.2865 8.76847 19.3438 7.92993 19.3438C7.08618 19.3438 6.30754 19.2865 5.59399 19.1719C4.88566 19.0625 4.26847 18.9062 3.74243 18.7031C3.2216 18.5 2.81535 18.2578 2.52368 17.9766C2.23722 17.6953 2.09399 17.3854 2.09399 17.0469C2.09399 16.7552 2.21899 16.487 2.46899 16.2422C2.7242 15.9974 3.04972 15.7865 3.44556 15.6094C3.84139 15.4323 4.26066 15.2943 4.70337 15.1953C5.14608 15.0911 5.55493 15.0365 5.92993 15.0312V13.8906C5.50285 13.8906 5.04191 13.9427 4.54712 14.0469C4.05754 14.1458 3.57316 14.2917 3.09399 14.4844C2.62004 14.6719 2.18774 14.901 1.79712 15.1719C1.40649 15.4427 1.09399 15.7526 0.859619 16.1016C0.625244 16.4453 0.508057 16.8229 0.508057 17.2344C0.508057 17.6667 0.672119 18.0807 1.00024 18.4766C1.33358 18.8776 1.81795 19.2344 2.45337 19.5469C3.08879 19.8646 3.86483 20.1146 4.78149 20.2969C5.70337 20.4844 6.75285 20.5781 7.92993 20.5781Z"
		fill="currentColor"
	/>
</svg>
