<svg
	color="rgb(var(--foreground, 0, 0, 0))"
	viewBox="0 0 16 24"
	fill="none"
	xmlns="http://www.w3.org/2000/svg"
>
	<path
		d="M14.5145 17.668C14.7489 17.9024 15.1395 17.9024 15.3661 17.668C15.5927 17.4337 15.6005 17.0508 15.3661 16.8165L3.33486 4.78522C3.10048 4.55084 2.70986 4.55084 2.47548 4.78522C2.24892 5.01178 2.24892 5.41022 2.47548 5.63678L14.5145 17.668ZM12.3036 12.4258L15.1786 6.25397C15.702 5.11334 14.8036 4.35553 13.7099 4.87115L7.58486 7.7149L12.3036 12.4258ZM4.61611 9.08209L1.22548 10.6602C0.22548 11.1212 0.420793 12.5274 1.61611 12.5352L7.31142 12.5587C7.42861 12.5587 7.46767 12.5977 7.46767 12.7149L7.48329 18.3633C7.48329 19.5274 8.88173 19.8008 9.40517 18.668L10.9286 15.4024L4.61611 9.08209Z"
		fill="currentColor"
	/>
</svg>
