<svg
	color="rgb(var(--foreground, 0, 0, 0))"
	viewBox="0 0 17 24"
	fill="none"
	xmlns="http://www.w3.org/2000/svg"
>
	<path
		d="M0.593994 18.5117C0.593994 18.7982 0.672119 19.0195 0.828369 19.1758C0.984619 19.332 1.20337 19.4102 1.48462 19.4102C1.67733 19.4102 1.89608 19.3424 2.14087 19.207L5.42212 17.4336V4.48828C5.35441 4.51953 5.28149 4.55599 5.20337 4.59766C5.12524 4.63411 5.05233 4.67318 4.98462 4.71484L1.28149 6.83984C1.04712 6.97005 0.87264 7.13151 0.758057 7.32422C0.648682 7.51172 0.593994 7.73568 0.593994 7.99609V18.5117ZM6.49243 17.2852L10.43 19.4961C10.4925 19.5273 10.5524 19.556 10.6096 19.582C10.6721 19.6081 10.732 19.6289 10.7893 19.6445V6.89453L6.92993 4.53516C6.86222 4.49349 6.78931 4.45703 6.71118 4.42578C6.63826 4.39453 6.56535 4.37109 6.49243 4.35547V17.2852ZM11.8518 19.6211C11.8935 19.6107 11.9326 19.5951 11.969 19.5742C12.0107 19.5586 12.0498 19.5404 12.0862 19.5195L16.1565 17.207C16.3909 17.0768 16.5628 16.918 16.6721 16.7305C16.7867 16.5378 16.844 16.3112 16.844 16.0508V5.52734C16.844 5.24089 16.7659 5.01953 16.6096 4.86328C16.4534 4.70703 16.2346 4.62891 15.9534 4.62891C15.7607 4.62891 15.5419 4.69661 15.2971 4.83203L11.8518 6.74609V19.6211Z"
		fill="currentColor"
	/>
</svg>
