<svg
	color="rgb(var(--foreground, 0, 0, 0))"
	viewBox="0 0 17 24"
	fill="none"
	xmlns="http://www.w3.org/2000/svg"
>
	<path
		d="M1.22681 19.4023C1.32576 19.4023 1.42733 19.3841 1.53149 19.3477C1.63566 19.3164 1.75024 19.2643 1.87524 19.1914L5.85181 17.0508L10.1721 19.4727C10.4534 19.6289 10.745 19.707 11.0471 19.707C11.3336 19.707 11.594 19.6393 11.8284 19.5039L15.9143 17.1836C16.1487 17.0534 16.3206 16.8945 16.4299 16.707C16.5393 16.5143 16.594 16.2878 16.594 16.0273V5.50391C16.594 5.21745 16.5159 4.99609 16.3596 4.83984C16.2086 4.68359 15.9924 4.60547 15.7112 4.60547C15.6122 4.60547 15.5107 4.6237 15.4065 4.66016C15.3023 4.69141 15.1851 4.74089 15.0549 4.80859L10.9143 7.11328L6.67212 4.51172C6.43254 4.36589 6.16951 4.29297 5.88306 4.29297C5.59139 4.29297 5.32316 4.36589 5.07837 4.51172L1.01587 6.82422C0.786702 6.95443 0.617432 7.11589 0.508057 7.30859C0.398682 7.49609 0.343994 7.72266 0.343994 7.98828V18.4961C0.343994 18.7878 0.419515 19.0117 0.570557 19.168C0.726807 19.3242 0.945557 19.4023 1.22681 19.4023ZM5.34399 15.8086L1.82056 17.7461C1.76847 17.7721 1.72941 17.7852 1.70337 17.7852C1.63566 17.7852 1.60181 17.7435 1.60181 17.6602V8.29297C1.60181 8.19922 1.62004 8.11849 1.65649 8.05078C1.69816 7.97786 1.76587 7.91536 1.85962 7.86328L5.06274 5.98828C5.11483 5.96224 5.1617 5.9362 5.20337 5.91016C5.25024 5.88411 5.29712 5.85807 5.34399 5.83203V15.8086ZM6.60181 15.9336V5.99609C6.64347 6.01693 6.68514 6.04036 6.72681 6.06641C6.76847 6.08724 6.81014 6.11068 6.85181 6.13672L10.3362 8.26172V18.0273C10.2789 17.9961 10.2216 17.9648 10.1643 17.9336C10.107 17.9076 10.0497 17.8789 9.99243 17.8477L6.60181 15.9336ZM11.594 18.168V8.18359L15.1174 6.26172C15.1695 6.23568 15.206 6.22266 15.2268 6.22266C15.2633 6.22266 15.2893 6.23307 15.3049 6.25391C15.3258 6.27474 15.3362 6.30599 15.3362 6.34766V15.7148C15.3362 15.8086 15.3153 15.8919 15.2737 15.9648C15.2372 16.0378 15.1721 16.1003 15.0784 16.1523L11.9456 17.9727C11.8883 18.0091 11.8284 18.043 11.7659 18.0742C11.7086 18.1055 11.6513 18.1367 11.594 18.168Z"
		fill="currentColor"
	/>
</svg>
