<svg
	color="rgb(var(--foreground, 0, 0, 0))"
	viewBox="0 0 16 24"
	fill="none"
	xmlns="http://www.w3.org/2000/svg"
>
	<path
		d="M2.33655 14.168C2.33655 14.5013 2.44071 14.7695 2.64905 14.9727C2.85738 15.1706 3.13603 15.2695 3.48499 15.2695H7.71155V18.918C7.71155 19.2148 7.73759 19.4961 7.78967 19.7617C7.84176 20.0273 7.90686 20.2591 7.98499 20.457C8.06311 20.6602 8.13863 20.819 8.21155 20.9336C8.28967 21.0482 8.35478 21.1055 8.40686 21.1055C8.45374 21.1055 8.51363 21.0482 8.58655 20.9336C8.66467 20.819 8.7428 20.6602 8.82092 20.457C8.89905 20.2591 8.96415 20.0273 9.01624 19.7617C9.06832 19.4961 9.09436 19.2148 9.09436 18.918V15.3789H9.54749L4.73499 10.5508C4.22978 10.8477 3.79749 11.1914 3.43811 11.582C3.08394 11.9727 2.81051 12.3893 2.6178 12.832C2.4303 13.2747 2.33655 13.7201 2.33655 14.168ZM4.2428 2.89453C3.96676 2.89453 3.7454 2.97266 3.57874 3.12891C3.41207 3.28516 3.32874 3.48307 3.32874 3.72266C3.32874 3.96745 3.42509 4.21745 3.6178 4.47266C3.74801 4.64974 3.93551 4.84766 4.1803 5.06641C4.4303 5.27995 4.71936 5.5013 5.04749 5.73047C5.37561 5.95443 5.72978 6.17578 6.10999 6.39453L6.03967 7.41797L13.8131 15.1836C14.2506 15.0117 14.4694 14.6732 14.4694 14.168C14.4694 13.6159 14.3287 13.0716 14.0475 12.5352C13.7662 11.9935 13.3626 11.4987 12.8365 11.0508C12.3105 10.6029 11.6829 10.2461 10.9537 9.98047L10.6959 6.39453C11.2688 6.07161 11.774 5.74089 12.2115 5.40234C12.649 5.05859 12.9694 4.75651 13.1725 4.49609C13.3808 4.23047 13.485 3.97266 13.485 3.72266C13.485 3.48307 13.399 3.28516 13.2272 3.12891C13.0605 2.97266 12.8418 2.89453 12.5709 2.89453H4.2428ZM0.602173 5.05078L14.7272 19.1602C14.847 19.2799 14.9902 19.3398 15.1569 19.3398C15.3235 19.3398 15.4642 19.2799 15.5787 19.1602C15.6933 19.0404 15.7506 18.8971 15.7506 18.7305C15.7558 18.569 15.6985 18.4284 15.5787 18.3086L1.46155 4.19922C1.34176 4.07943 1.19853 4.01953 1.03186 4.01953C0.865194 4.01953 0.721965 4.07943 0.602173 4.19922C0.48759 4.3138 0.430298 4.45703 0.430298 4.62891C0.430298 4.79557 0.48759 4.9362 0.602173 5.05078Z"
		fill="currentColor"
	/>
</svg>
