<svg
	color="rgb(var(--foreground, 0, 0, 0))"
	viewBox="0 0 14 24"
	fill="none"
	xmlns="http://www.w3.org/2000/svg"
>
	<path
		d="M0.976807 14.168C0.976807 14.5013 1.08097 14.7695 1.28931 14.9727C1.49764 15.1706 1.77629 15.2695 2.12524 15.2695H6.35181V18.918C6.35181 19.2148 6.37785 19.4961 6.42993 19.7617C6.48201 20.0273 6.54712 20.2591 6.62524 20.457C6.70337 20.6602 6.77889 20.819 6.85181 20.9336C6.92993 21.0482 6.99504 21.1055 7.04712 21.1055C7.09399 21.1055 7.15389 21.0482 7.22681 20.9336C7.30493 20.819 7.38306 20.6602 7.46118 20.457C7.53931 20.2591 7.60441 20.0273 7.65649 19.7617C7.70858 19.4961 7.73462 19.2148 7.73462 18.918V15.2695H11.9612C12.3153 15.2695 12.594 15.1706 12.7971 14.9727C13.0055 14.7695 13.1096 14.5013 13.1096 14.168C13.1096 13.6159 12.969 13.0716 12.6877 12.5352C12.4065 11.9935 12.0028 11.4987 11.4768 11.0508C10.9508 10.6029 10.3232 10.2461 9.59399 9.98047L9.33618 6.39453C9.71639 6.17578 10.068 5.95443 10.3909 5.73047C10.719 5.50651 11.0055 5.28776 11.2502 5.07422C11.495 4.86068 11.6851 4.66536 11.8206 4.48828C12.0237 4.22786 12.1252 3.97266 12.1252 3.72266C12.1252 3.48307 12.0393 3.28516 11.8674 3.12891C11.7008 2.97266 11.482 2.89453 11.2112 2.89453H2.88306C2.60701 2.89453 2.38566 2.97266 2.21899 3.12891C2.05233 3.28516 1.96899 3.48307 1.96899 3.72266C1.96899 3.97266 2.06795 4.22786 2.26587 4.48828C2.40129 4.66536 2.59139 4.86068 2.83618 5.07422C3.08097 5.28776 3.36483 5.50911 3.68774 5.73828C4.01587 5.96224 4.37004 6.18099 4.75024 6.39453L4.49243 9.98047C3.76326 10.2461 3.13566 10.6029 2.60962 11.0508C2.08358 11.4987 1.67993 11.9935 1.39868 12.5352C1.11743 13.0716 0.976807 13.6159 0.976807 14.168Z"
		fill="currentColor"
	/>
</svg>
