<svg
	color="rgb(var(--foreground, 0, 0, 0))"
	viewBox="0 0 16 24"
	fill="none"
	xmlns="http://www.w3.org/2000/svg"
>
	<path
		d="M2.01587 14.168C2.01587 14.5013 2.12004 14.7695 2.32837 14.9727C2.5367 15.1706 2.81535 15.2695 3.16431 15.2695H7.39087V18.918C7.39087 19.2148 7.41691 19.4961 7.46899 19.7617C7.52108 20.0273 7.58618 20.2591 7.66431 20.457C7.74243 20.6602 7.81795 20.819 7.89087 20.9336C7.96899 21.0482 8.0341 21.1055 8.08618 21.1055C8.13306 21.1055 8.19295 21.0482 8.26587 20.9336C8.34399 20.819 8.42212 20.6602 8.50024 20.457C8.57837 20.2591 8.64347 20.0273 8.69556 19.7617C8.74764 19.4961 8.77368 19.2148 8.77368 18.918V15.3633H9.21899L7.94556 14.0898H3.47681C3.29451 14.0898 3.21899 13.9857 3.25024 13.7773C3.28149 13.4857 3.38045 13.194 3.54712 12.9023C3.71379 12.6107 3.94035 12.3346 4.22681 12.0742C4.51326 11.8086 4.8492 11.5768 5.23462 11.3789L4.41431 10.5586C3.92472 10.8503 3.50024 11.1888 3.14087 11.5742C2.78149 11.9596 2.50285 12.3737 2.30493 12.8164C2.11222 13.2591 2.01587 13.7096 2.01587 14.168ZM3.00806 3.72266C3.00806 3.97266 3.10701 4.22526 3.30493 4.48047C3.43514 4.65755 3.62004 4.85286 3.85962 5.06641C4.10441 5.27995 4.37785 5.5013 4.67993 5.73047C4.98722 5.95443 5.30493 6.17578 5.63306 6.39453L5.57056 7.25391L6.72681 8.41016L6.88306 5.81641C6.88826 5.72266 6.85962 5.66016 6.79712 5.62891C6.50545 5.47786 6.23201 5.32422 5.97681 5.16797C5.72681 5.01172 5.50545 4.86589 5.31274 4.73047C5.12004 4.58984 4.96639 4.47005 4.85181 4.37109C4.73722 4.26693 4.67212 4.19661 4.65649 4.16016C4.62524 4.10807 4.62004 4.06901 4.64087 4.04297C4.66691 4.01172 4.70076 3.99609 4.74243 3.99609H11.4221C11.4638 3.99609 11.495 4.01172 11.5159 4.04297C11.5419 4.06901 11.5393 4.10807 11.5081 4.16016C11.4924 4.19661 11.4273 4.26693 11.3127 4.37109C11.2034 4.47005 11.0523 4.58984 10.8596 4.73047C10.6669 4.86589 10.443 5.01172 10.1877 5.16797C9.93254 5.32422 9.6591 5.47786 9.36743 5.62891C9.30493 5.66016 9.27889 5.72266 9.28931 5.81641L9.52368 9.69141C9.06535 9.59766 8.58618 9.55078 8.08618 9.55078H7.87524L9.08618 10.7773C9.62264 10.8294 10.12 10.9674 10.5784 11.1914C11.0367 11.4154 11.4351 11.6888 11.7737 12.0117C12.1122 12.3294 12.3726 12.6654 12.5549 13.0195C12.7424 13.3685 12.8362 13.6992 12.8362 14.0117C12.8362 14.0326 12.8362 14.0534 12.8362 14.0742C12.8362 14.0898 12.8362 14.1081 12.8362 14.1289L13.6799 15.0977C13.8101 15.0195 13.9195 14.9023 14.0081 14.7461C14.1018 14.5898 14.1487 14.3971 14.1487 14.168C14.1487 13.6211 14.0107 13.0846 13.7346 12.5586C13.4586 12.0273 13.068 11.5456 12.5627 11.1133C12.0575 10.6758 11.4664 10.3242 10.7893 10.0586L10.5315 6.39453C10.8596 6.17578 11.1773 5.95443 11.4846 5.73047C11.7919 5.5013 12.0653 5.27995 12.3049 5.06641C12.5445 4.85286 12.7294 4.65755 12.8596 4.48047C13.0627 4.22526 13.1643 3.97266 13.1643 3.72266C13.1643 3.48307 13.0784 3.28516 12.9065 3.12891C12.7398 2.97266 12.5211 2.89453 12.2502 2.89453H3.92212C3.64608 2.89453 3.42472 2.97266 3.25806 3.12891C3.09139 3.28516 3.00806 3.48307 3.00806 3.72266ZM0.281494 5.05078L14.4065 19.1602C14.5263 19.2799 14.6695 19.3398 14.8362 19.3398C15.0028 19.3398 15.1435 19.2799 15.2581 19.1602C15.3726 19.0404 15.4299 18.8971 15.4299 18.7305C15.4351 18.569 15.3778 18.4284 15.2581 18.3086L1.14087 4.19922C1.02108 4.07943 0.877848 4.01953 0.711182 4.01953C0.544515 4.01953 0.401286 4.07943 0.281494 4.19922C0.166911 4.3138 0.109619 4.45703 0.109619 4.62891C0.109619 4.79557 0.166911 4.9362 0.281494 5.05078Z"
		fill="currentColor"
	/>
</svg>
