<svg
	color="rgb(var(--foreground, 0, 0, 0))"
	viewBox="0 0 13 24"
	fill="none"
	xmlns="http://www.w3.org/2000/svg"
>
	<path
		d="M6.91431 21.1055C6.96118 21.1055 7.02108 21.0482 7.09399 20.9336C7.17212 20.819 7.25024 20.6602 7.32837 20.457C7.40649 20.2591 7.4716 20.0273 7.52368 19.7617C7.57576 19.4961 7.60181 19.2148 7.60181 18.918V14.6289H6.21899V18.918C6.21899 19.2148 6.24504 19.4961 6.29712 19.7617C6.3492 20.0273 6.41431 20.2591 6.49243 20.457C6.57056 20.6602 6.64608 20.819 6.71899 20.9336C6.79712 21.0482 6.86222 21.1055 6.91431 21.1055ZM1.99243 15.2695H11.8284C12.1825 15.2695 12.4612 15.1706 12.6643 14.9727C12.8726 14.7695 12.9768 14.5013 12.9768 14.168C12.9768 13.5951 12.8258 13.0352 12.5237 12.4883C12.2268 11.9362 11.8049 11.4414 11.2581 11.0039C10.7112 10.5612 10.068 10.2096 9.32837 9.94922C8.59399 9.68359 7.78931 9.55078 6.91431 9.55078C6.03931 9.55078 5.23201 9.68359 4.49243 9.94922C3.75285 10.2096 3.10962 10.5612 2.56274 11.0039C2.02108 11.4414 1.5992 11.9362 1.29712 12.4883C0.995036 13.0352 0.843994 13.5951 0.843994 14.168C0.843994 14.5013 0.948161 14.7695 1.15649 14.9727C1.36483 15.1706 1.64347 15.2695 1.99243 15.2695ZM2.30493 14.0898C2.12264 14.0898 2.04712 13.9857 2.07837 13.7773C2.12004 13.4284 2.26066 13.0742 2.50024 12.7148C2.73983 12.3503 3.06795 12.0169 3.48462 11.7148C3.90129 11.4076 4.39608 11.1602 4.96899 10.9727C5.54712 10.7852 6.19556 10.6914 6.91431 10.6914C7.62785 10.6914 8.27108 10.7852 8.84399 10.9727C9.42212 11.1602 9.91951 11.4076 10.3362 11.7148C10.7528 12.0169 11.081 12.3503 11.3206 12.7148C11.5601 13.0742 11.7008 13.4284 11.7424 13.7773C11.7737 13.9857 11.6982 14.0898 11.5159 14.0898H2.30493ZM1.83618 3.72266C1.83618 3.97266 1.93514 4.22526 2.13306 4.48047C2.26326 4.65755 2.44816 4.85286 2.68774 5.06641C2.93254 5.27995 3.20597 5.5013 3.50806 5.73047C3.81535 5.95443 4.13306 6.17578 4.46118 6.39453L4.17212 10.5195H5.42212L5.71118 5.81641C5.71639 5.72266 5.68774 5.66016 5.62524 5.62891C5.33358 5.47786 5.06014 5.32422 4.80493 5.16797C4.55493 5.01172 4.33358 4.86589 4.14087 4.73047C3.94816 4.58984 3.79451 4.47005 3.67993 4.37109C3.56535 4.26693 3.50024 4.19661 3.48462 4.16016C3.45337 4.10807 3.44816 4.06901 3.46899 4.04297C3.49504 4.01172 3.52889 3.99609 3.57056 3.99609H10.2502C10.2919 3.99609 10.3232 4.01172 10.344 4.04297C10.37 4.06901 10.3674 4.10807 10.3362 4.16016C10.3206 4.19661 10.2555 4.26693 10.1409 4.37109C10.0315 4.47005 9.88045 4.58984 9.68774 4.73047C9.49504 4.86589 9.27108 5.01172 9.01587 5.16797C8.76066 5.32422 8.48722 5.47786 8.19556 5.62891C8.13306 5.66016 8.10701 5.72266 8.11743 5.81641L8.39868 10.5195H9.64868L9.35962 6.39453C9.68774 6.17578 10.0055 5.95443 10.3127 5.73047C10.62 5.5013 10.8935 5.27995 11.1331 5.06641C11.3726 4.85286 11.5575 4.65755 11.6877 4.48047C11.8909 4.22526 11.9924 3.97266 11.9924 3.72266C11.9924 3.48307 11.9065 3.28516 11.7346 3.12891C11.568 2.97266 11.3492 2.89453 11.0784 2.89453H2.75024C2.4742 2.89453 2.25285 2.97266 2.08618 3.12891C1.91951 3.28516 1.83618 3.48307 1.83618 3.72266Z"
		fill="currentColor"
	/>
</svg>
