<svg
	color="rgb(var(--foreground, 0, 0, 0))"
	viewBox="0 0 21 24"
	fill="none"
	xmlns="http://www.w3.org/2000/svg"
>
	<path
		d="M0.359375 11.4062C0.359375 12.3594 0.5625 13.1927 0.96875 13.9062C1.375 14.6146 1.94531 15.1667 2.67969 15.5625C3.41406 15.9531 4.26823 16.1484 5.24219 16.1484C6.20052 16.1484 7.04167 15.9714 7.76562 15.6172C8.48958 15.263 9.05208 14.7682 9.45312 14.1328C9.85417 13.4922 10.0547 12.7474 10.0547 11.8984C10.0547 11.3672 9.96615 10.8906 9.78906 10.4688C9.61198 10.0469 9.36719 9.70312 9.05469 9.4375C8.90885 9.31771 8.78385 9.23438 8.67969 9.1875C8.58073 9.14062 8.46354 9.11719 8.32812 9.11719C8.14583 9.11719 7.9974 9.16927 7.88281 9.27344C7.77344 9.3724 7.71875 9.5 7.71875 9.65625C7.71875 9.78646 7.74219 9.89323 7.78906 9.97656C7.83594 10.0547 7.90365 10.1302 7.99219 10.2031C8.08073 10.276 8.1849 10.3672 8.30469 10.4766C8.47135 10.638 8.59896 10.8385 8.6875 11.0781C8.77604 11.3125 8.82031 11.5781 8.82031 11.875C8.82031 12.4792 8.67188 13.0078 8.375 13.4609C8.07812 13.9141 7.66146 14.2682 7.125 14.5234C6.59375 14.7734 5.97396 14.8984 5.26562 14.8984C4.53646 14.8984 3.89844 14.7526 3.35156 14.4609C2.80469 14.1693 2.3776 13.7604 2.07031 13.2344C1.76823 12.7083 1.61719 12.0964 1.61719 11.3984C1.61719 10.7943 1.76042 10.2266 2.04688 9.69531C2.33333 9.16406 2.72656 8.73698 3.22656 8.41406L2.60156 7.32812C2.13802 7.61458 1.73698 7.97135 1.39844 8.39844C1.0651 8.82552 0.807292 9.29688 0.625 9.8125C0.447917 10.3229 0.359375 10.8542 0.359375 11.4062ZM2.46875 7.33594C2.46875 7.91927 2.59635 8.4349 2.85156 8.88281C3.10677 9.33073 3.46615 9.68229 3.92969 9.9375C4.39844 10.1927 4.95312 10.3203 5.59375 10.3203C5.76042 10.3203 5.90625 10.2604 6.03125 10.1406C6.15625 10.0156 6.21875 9.86719 6.21875 9.69531C6.21875 9.52344 6.15625 9.375 6.03125 9.25C5.90625 9.125 5.76042 9.0625 5.59375 9.0625C5.20833 9.0625 4.875 8.98958 4.59375 8.84375C4.31771 8.69271 4.10417 8.48698 3.95312 8.22656C3.80208 7.96615 3.72656 7.66927 3.72656 7.33594C3.72656 6.96615 3.82031 6.64062 4.00781 6.35938C4.19531 6.07292 4.44792 5.84896 4.76562 5.6875C5.08854 5.52604 5.45573 5.44531 5.86719 5.44531C6.14844 5.44531 6.4375 5.49219 6.73438 5.58594C7.03646 5.67448 7.32812 5.8151 7.60938 6.00781L8.34375 4.98438C7.95312 4.71354 7.54688 4.51302 7.125 4.38281C6.70312 4.2526 6.28646 4.1875 5.875 4.1875C5.24479 4.1875 4.67188 4.32292 4.15625 4.59375C3.64062 4.85938 3.22917 5.22917 2.92188 5.70312C2.61979 6.17188 2.46875 6.71615 2.46875 7.33594ZM6.63281 7.125C6.6224 7.32812 6.67708 7.49219 6.79688 7.61719C6.92188 7.74219 7.07292 7.80469 7.25 7.80469C7.42188 7.80469 7.5651 7.75 7.67969 7.64062C7.79948 7.53125 7.86458 7.3776 7.875 7.17969C7.89583 6.6849 8.02083 6.24479 8.25 5.85938C8.47917 5.46875 8.78906 5.16406 9.17969 4.94531C9.57031 4.72135 10.0182 4.60938 10.5234 4.60938C10.9818 4.60938 11.3958 4.72135 11.7656 4.94531C12.1354 5.16406 12.3984 5.45312 12.5547 5.8125C12.5859 5.86979 12.6224 5.90365 12.6641 5.91406C12.7109 5.91927 12.7734 5.91146 12.8516 5.89062C12.9818 5.85417 13.1172 5.82812 13.2578 5.8125C13.3984 5.79167 13.5391 5.78125 13.6797 5.78125C14.1484 5.78646 14.5885 5.90104 15 6.125C15.4167 6.34896 15.7552 6.66667 16.0156 7.07812C16.276 7.48438 16.4062 7.96875 16.4062 8.53125C16.4062 9.14062 16.2812 9.65104 16.0312 10.0625C15.7812 10.474 15.4609 10.8255 15.0703 11.1172C14.6797 11.4089 14.2656 11.6823 13.8281 11.9375C13.3906 12.1875 12.9766 12.4583 12.5859 12.75C12.1953 13.0365 11.875 13.3802 11.625 13.7812C11.375 14.1771 11.25 14.6745 11.25 15.2734C11.25 15.8411 11.3854 16.3333 11.6562 16.75C11.9323 17.1615 12.3047 17.4792 12.7734 17.7031C13.2422 17.9271 13.7682 18.0391 14.3516 18.0391C14.4453 18.0391 14.5417 18.0365 14.6406 18.0312C14.7448 18.0312 14.8464 18.0286 14.9453 18.0234C15.0078 18.4661 15.138 18.8854 15.3359 19.2812C15.5391 19.6823 15.8047 20.0078 16.1328 20.2578C16.4661 20.513 16.8594 20.6406 17.3125 20.6406C17.8021 20.6406 18.2292 20.5052 18.5938 20.2344C18.9583 19.9688 19.2604 19.612 19.5 19.1641C19.7396 18.7161 19.9193 18.2135 20.0391 17.6562C20.1589 17.099 20.2188 16.5312 20.2188 15.9531C20.2188 15.4479 20.2057 15.013 20.1797 14.6484C20.1589 14.2839 20.1302 13.9427 20.0938 13.625L18.8359 13.9766C18.8724 14.2891 18.9036 14.6016 18.9297 14.9141C18.9557 15.2214 18.9688 15.5625 18.9688 15.9375C18.9688 16.5677 18.8958 17.1432 18.75 17.6641C18.6042 18.1849 18.4062 18.6016 18.1562 18.9141C17.9062 19.2266 17.625 19.3828 17.3125 19.3828C16.9896 19.3828 16.7266 19.2604 16.5234 19.0156C16.3255 18.7708 16.1797 18.4688 16.0859 18.1094C15.9974 17.7552 15.9531 17.4062 15.9531 17.0625C15.9531 17.026 15.9401 16.9948 15.9141 16.9688C15.8932 16.9427 15.8542 16.9323 15.7969 16.9375C15.6875 16.9375 15.5651 16.9375 15.4297 16.9375C15.2995 16.9375 15.1849 16.9375 15.0859 16.9375C14.3047 16.9375 13.6797 16.8073 13.2109 16.5469C12.7422 16.2865 12.5078 15.8542 12.5078 15.25C12.5078 14.7708 12.6328 14.375 12.8828 14.0625C13.1328 13.75 13.4531 13.474 13.8438 13.2344C14.2344 12.9948 14.6484 12.7526 15.0859 12.5078C15.5234 12.263 15.9375 11.9766 16.3281 11.6484C16.7188 11.3151 17.0391 10.901 17.2891 10.4062C17.5391 9.90625 17.6641 9.28125 17.6641 8.53125C17.6641 7.92708 17.5599 7.38021 17.3516 6.89062C17.1484 6.40104 16.8698 5.97917 16.5156 5.625C16.1615 5.27083 15.7552 5 15.2969 4.8125C14.8385 4.61979 14.3542 4.52344 13.8438 4.52344C13.7656 4.52344 13.6745 4.53125 13.5703 4.54688C13.4661 4.55729 13.3594 4.57552 13.25 4.60156C12.9375 4.21615 12.5417 3.91406 12.0625 3.69531C11.5885 3.47135 11.0781 3.35938 10.5312 3.35938C9.79167 3.35938 9.13281 3.52083 8.55469 3.84375C7.98177 4.16146 7.52604 4.60417 7.1875 5.17188C6.84896 5.73438 6.66406 6.38542 6.63281 7.125ZM15.8203 14.7891C15.8203 14.9609 15.8802 15.1068 16 15.2266C16.125 15.3411 16.276 15.4036 16.4531 15.4141C17.3438 15.4714 18.125 15.3464 18.7969 15.0391C19.4688 14.7266 19.9896 14.2656 20.3594 13.6562C20.7344 13.0469 20.9219 12.3177 20.9219 11.4688C20.9219 10.7812 20.7682 10.1562 20.4609 9.59375C20.1536 9.03125 19.7214 8.57031 19.1641 8.21094C18.612 7.84635 17.9661 7.61458 17.2266 7.51562L17.0312 8.76562C17.8229 8.77604 18.4583 9.03125 18.9375 9.53125C19.4219 10.026 19.6641 10.6719 19.6641 11.4688C19.6641 12.349 19.3698 13.0365 18.7812 13.5312C18.1927 14.026 17.4167 14.237 16.4531 14.1641C16.276 14.1484 16.125 14.2057 16 14.3359C15.8802 14.4661 15.8203 14.6172 15.8203 14.7891ZM11.8047 15.8047C11.5755 15.888 11.3281 15.9505 11.0625 15.9922C10.8021 16.0286 10.5469 16.0469 10.2969 16.0469C9.85417 16.0469 9.42188 15.9922 9 15.8828C8.58333 15.7734 8.20833 15.6224 7.875 15.4297C7.54167 15.2318 7.28906 15 7.11719 14.7344L6.07812 15.5781C6.48958 16.0885 7.04948 16.5052 7.75781 16.8281C8.47135 17.1458 9.27344 17.3047 10.1641 17.3047C10.4818 17.3047 10.8177 17.2812 11.1719 17.2344C11.526 17.1823 11.8802 17.1042 12.2344 17L11.8047 15.8047ZM9.29688 10.2891L9.71875 11.4766C10.7031 11.2839 11.4245 10.8906 11.8828 10.2969C12.3411 9.70312 12.5703 8.94792 12.5703 8.03125C12.5703 7.85938 12.5078 7.71354 12.3828 7.59375C12.2578 7.46875 12.1094 7.40625 11.9375 7.40625C11.7656 7.40625 11.6172 7.46875 11.4922 7.59375C11.3724 7.71354 11.3125 7.85938 11.3125 8.03125C11.3125 8.67188 11.1589 9.18229 10.8516 9.5625C10.5495 9.94271 10.0312 10.1849 9.29688 10.2891Z"
		fill="currentColor"
	/>
</svg>
