<svg
	color="rgb(var(--foreground, 0, 0, 0))"
	viewBox="0 0 13 24"
	fill="none"
	xmlns="http://www.w3.org/2000/svg"
>
	<path
		d="M0.359375 16.7969C0.359375 17.5156 0.5 18.138 0.78125 18.6641C1.06771 19.1953 1.46875 19.6042 1.98438 19.8906C2.5 20.1823 3.10677 20.3281 3.80469 20.3281C4.59115 20.3281 5.27604 20.1562 5.85938 19.8125C6.44271 19.474 6.91927 18.974 7.28906 18.3125L7.99219 17.0547C8.26302 16.5495 8.55729 16.1094 8.875 15.7344C9.19792 15.3542 9.52344 15.0052 9.85156 14.6875C10.1797 14.3698 10.4922 14.0547 10.7891 13.7422C11.0911 13.4245 11.3594 13.0833 11.5938 12.7188C11.8281 12.3542 12.013 11.9349 12.1484 11.4609C12.2891 10.9818 12.3594 10.4193 12.3594 9.77344C12.3594 8.55469 12.112 7.48958 11.6172 6.57812C11.1276 5.66146 10.4375 4.94792 9.54688 4.4375C8.66146 3.92708 7.6276 3.67188 6.44531 3.67188C5.23177 3.67188 4.16927 3.92969 3.25781 4.44531C2.34635 4.95573 1.63542 5.67188 1.125 6.59375C0.614583 7.51042 0.359375 8.58073 0.359375 9.80469V16.7969ZM2.46094 13.4219V9.52344C2.46094 8.79427 2.6224 8.15365 2.94531 7.60156C3.26823 7.04948 3.72656 6.61979 4.32031 6.3125C4.91927 6.00521 5.625 5.85156 6.4375 5.85156C7.22396 5.85156 7.90365 6.00521 8.47656 6.3125C9.04948 6.61979 9.48958 7.04948 9.79688 7.60156C10.1094 8.15365 10.2656 8.79427 10.2656 9.52344C10.2656 9.6849 10.2057 9.82552 10.0859 9.94531C9.97135 10.0599 9.83333 10.1172 9.67188 10.1172C9.51562 10.1172 9.3776 10.0599 9.25781 9.94531C9.14323 9.82552 9.08594 9.6849 9.08594 9.52344C9.08594 8.76823 8.85156 8.16406 8.38281 7.71094C7.91927 7.25781 7.27083 7.03125 6.4375 7.03125C5.85417 7.03125 5.35156 7.13542 4.92969 7.34375C4.51302 7.55208 4.19271 7.84375 3.96875 8.21875C3.75 8.58854 3.64062 9.02344 3.64062 9.52344V10.5156H6C6.63021 10.5156 7.13802 10.6927 7.52344 11.0469C7.90885 11.401 8.10156 11.8646 8.10156 12.4375C8.10156 12.6771 8.05208 12.9349 7.95312 13.2109C7.85938 13.4818 7.73177 13.7188 7.57031 13.9219L6.55469 15.2109C6.41927 15.3828 6.25781 15.4688 6.07031 15.4688C5.90885 15.4688 5.76823 15.4115 5.64844 15.2969C5.53385 15.1823 5.47656 15.0443 5.47656 14.8828C5.47656 14.7318 5.52865 14.5911 5.63281 14.4609L6.57031 13.2812C6.66406 13.1667 6.73958 13.0365 6.79688 12.8906C6.85417 12.7396 6.88281 12.6042 6.88281 12.4844C6.88281 12.25 6.80469 12.0599 6.64844 11.9141C6.49219 11.7682 6.28125 11.6953 6.01562 11.6953H3.64062V13.4219C3.64062 13.5833 3.58073 13.724 3.46094 13.8438C3.34635 13.9583 3.20833 14.0156 3.04688 14.0156C2.88542 14.0156 2.7474 13.9583 2.63281 13.8438C2.51823 13.724 2.46094 13.5833 2.46094 13.4219Z"
		fill="currentColor"
	/>
</svg>
