<svg
	color="rgb(var(--foreground, 0, 0, 0))"
	viewBox="0 0 13 24"
	fill="none"
	xmlns="http://www.w3.org/2000/svg"
>
	<path
		d="M0.359375 16.7969C0.359375 17.5156 0.5 18.138 0.78125 18.6641C1.06771 19.1953 1.46875 19.6042 1.98438 19.8906C2.5 20.1823 3.10677 20.3281 3.80469 20.3281C4.59115 20.3281 5.27604 20.1562 5.85938 19.8125C6.44271 19.474 6.91927 18.974 7.28906 18.3125L7.99219 17.0547C8.26302 16.5495 8.55729 16.1094 8.875 15.7344C9.19792 15.3542 9.52344 15.0052 9.85156 14.6875C10.1797 14.3698 10.4922 14.0547 10.7891 13.7422C11.0911 13.4245 11.3594 13.0833 11.5938 12.7188C11.8281 12.3542 12.013 11.9349 12.1484 11.4609C12.2891 10.9818 12.3594 10.4193 12.3594 9.77344C12.3594 8.55469 12.112 7.48958 11.6172 6.57812C11.1276 5.66146 10.4375 4.94792 9.54688 4.4375C8.66146 3.92708 7.6276 3.67188 6.44531 3.67188C5.23177 3.67188 4.16927 3.92969 3.25781 4.44531C2.34635 4.95573 1.63542 5.67188 1.125 6.59375C0.614583 7.51042 0.359375 8.58073 0.359375 9.80469V16.7969ZM1.53906 16.7188V9.80469C1.53906 8.8099 1.74219 7.94271 2.14844 7.20312C2.5599 6.45833 3.13281 5.88021 3.86719 5.46875C4.60677 5.05729 5.46615 4.85156 6.44531 4.85156C7.39323 4.85156 8.22135 5.05729 8.92969 5.46875C9.64323 5.88021 10.1953 6.45573 10.5859 7.19531C10.9818 7.9349 11.1797 8.79427 11.1797 9.77344C11.1797 10.3151 11.1146 10.7917 10.9844 11.2031C10.8594 11.6094 10.6849 11.9792 10.4609 12.3125C10.237 12.6458 9.98177 12.9635 9.69531 13.2656C9.40885 13.5625 9.10677 13.8698 8.78906 14.1875C8.47656 14.5 8.16146 14.8464 7.84375 15.2266C7.52604 15.6016 7.22396 16.0339 6.9375 16.5234L6.25781 17.6875C5.98177 18.1719 5.64583 18.5312 5.25 18.7656C4.85938 19 4.39583 19.1172 3.85938 19.1172C3.14062 19.1172 2.57292 18.9036 2.15625 18.4766C1.74479 18.0495 1.53906 17.4635 1.53906 16.7188ZM3.20312 13.7812C3.36458 13.7812 3.5026 13.724 3.61719 13.6094C3.73698 13.4896 3.79688 13.349 3.79688 13.1875V9.75781C3.79688 9.25781 3.90625 8.82292 4.125 8.45312C4.34375 8.07812 4.65104 7.78646 5.04688 7.57812C5.44271 7.36979 5.90625 7.26562 6.4375 7.26562C7.19271 7.26562 7.79688 7.49219 8.25 7.94531C8.70312 8.39844 8.92969 9.0026 8.92969 9.75781C8.92969 9.91927 8.98698 10.0599 9.10156 10.1797C9.22135 10.2943 9.35938 10.3516 9.51562 10.3516C9.67708 10.3516 9.8151 10.2943 9.92969 10.1797C10.0495 10.0599 10.1094 9.91927 10.1094 9.75781C10.1094 9.02344 9.95573 8.38281 9.64844 7.83594C9.34115 7.28385 8.91146 6.85417 8.35938 6.54688C7.8125 6.23958 7.17188 6.08594 6.4375 6.08594C5.67708 6.08594 5.00781 6.23958 4.42969 6.54688C3.85677 6.85417 3.41146 7.28385 3.09375 7.83594C2.77604 8.38802 2.61719 9.02865 2.61719 9.75781V13.1875C2.61719 13.349 2.67448 13.4896 2.78906 13.6094C2.90365 13.724 3.04167 13.7812 3.20312 13.7812ZM3.14062 11.4609H5.78125C6.04688 11.4609 6.25781 11.5339 6.41406 11.6797C6.57031 11.8255 6.64844 12.0156 6.64844 12.25C6.64844 12.3698 6.61979 12.5052 6.5625 12.6562C6.50521 12.8021 6.42969 12.9323 6.33594 13.0469L5.39844 14.2266C5.29427 14.3568 5.24219 14.4974 5.24219 14.6484C5.24219 14.8099 5.29948 14.9479 5.41406 15.0625C5.53385 15.1771 5.67448 15.2344 5.83594 15.2344C6.02344 15.2344 6.1849 15.1484 6.32031 14.9766L7.33594 13.6875C7.4974 13.4844 7.625 13.2474 7.71875 12.9766C7.81771 12.7005 7.86719 12.4427 7.86719 12.2031C7.86719 11.6302 7.67448 11.1667 7.28906 10.8125C6.90365 10.4583 6.39583 10.2812 5.76562 10.2812H3.14062V11.4609Z"
		fill="currentColor"
	/>
</svg>
