<svg
	color="rgb(var(--foreground, 0, 0, 0))"
	viewBox="0 0 23 24"
	fill="none"
	xmlns="http://www.w3.org/2000/svg"
>
	<path
		d="M11.5334 18.875C12.2574 18.875 12.9527 18.8151 13.6194 18.6953C14.2861 18.5755 14.9215 18.4115 15.5256 18.2031L14.5022 17.1797C14.0387 17.3203 13.5595 17.4323 13.0647 17.5156C12.5699 17.599 12.0595 17.6406 11.5334 17.6406C10.6741 17.6406 9.84855 17.5339 9.05688 17.3203C8.26522 17.1068 7.52303 16.8255 6.83032 16.4766C6.13761 16.1224 5.51001 15.737 4.94751 15.3203C4.38501 14.9037 3.89803 14.4922 3.48657 14.086C3.08032 13.6745 2.76782 13.2995 2.54907 12.961C2.33032 12.6224 2.22095 12.362 2.22095 12.1797C2.22095 12.0443 2.30688 11.8386 2.47876 11.5625C2.65584 11.2865 2.90584 10.9714 3.22876 10.6172C3.55688 10.263 3.95011 9.89585 4.40845 9.51565C4.87199 9.13544 5.39282 8.77346 5.97095 8.42971L5.0022 7.46096C4.35116 7.862 3.76782 8.28908 3.2522 8.74221C2.74178 9.19012 2.30688 9.63283 1.94751 10.0703C1.59334 10.5078 1.32251 10.9115 1.13501 11.2813C0.94751 11.6459 0.85376 11.9453 0.85376 12.1797C0.85376 12.4453 0.970947 12.7943 1.20532 13.2266C1.44491 13.6537 1.78866 14.1198 2.23657 14.625C2.68449 15.125 3.22355 15.625 3.85376 16.125C4.48397 16.625 5.19491 17.0834 5.98657 17.5C6.78345 17.9115 7.64543 18.2422 8.57251 18.4922C9.5048 18.7474 10.4918 18.875 11.5334 18.875ZM11.5334 5.4844C10.8512 5.4844 10.2001 5.53908 9.58032 5.64846C8.96574 5.75783 8.36938 5.90887 7.79126 6.10158L8.82251 7.12502C9.2548 7.00002 9.6923 6.90106 10.135 6.82815C10.5829 6.75523 11.0491 6.71877 11.5334 6.71877C12.3876 6.71877 13.2105 6.83075 14.0022 7.05471C14.7939 7.27346 15.5361 7.56512 16.2288 7.92971C16.9215 8.28908 17.5491 8.67971 18.1116 9.10158C18.6741 9.52346 19.1584 9.94273 19.5647 10.3594C19.9709 10.7709 20.2834 11.138 20.5022 11.461C20.7262 11.7839 20.8381 12.0235 20.8381 12.1797C20.8381 12.3412 20.7548 12.5599 20.5881 12.836C20.4267 13.1068 20.1897 13.4141 19.8772 13.7578C19.5699 14.0964 19.2001 14.4453 18.7678 14.8047C18.3355 15.1641 17.8486 15.5104 17.3069 15.8438L18.2678 16.8047C18.8824 16.4037 19.4319 15.9818 19.9163 15.5391C20.4058 15.0964 20.8199 14.6641 21.1584 14.2422C21.497 13.8151 21.7548 13.4219 21.9319 13.0625C22.1142 12.7031 22.2053 12.4089 22.2053 12.1797C22.2053 11.9141 22.0881 11.5677 21.8538 11.1406C21.6194 10.7084 21.2808 10.2422 20.8381 9.74221C20.3954 9.237 19.859 8.7344 19.2288 8.2344C18.6038 7.7344 17.8954 7.27867 17.1038 6.86721C16.3121 6.45054 15.4475 6.11721 14.51 5.86721C13.5777 5.612 12.5855 5.4844 11.5334 5.4844ZM11.5334 16.5547C11.8772 16.5547 12.2079 16.5156 12.5256 16.4375C12.8486 16.3542 13.1558 16.2422 13.4475 16.1016L7.58813 10.2422C7.4423 10.5339 7.33032 10.8438 7.2522 11.1719C7.17407 11.4948 7.13501 11.8307 7.13501 12.1797C7.14022 12.7735 7.2548 13.336 7.47876 13.8672C7.70272 14.3932 8.01522 14.8594 8.41626 15.2656C8.8173 15.6667 9.28345 15.9818 9.8147 16.211C10.3459 16.4401 10.9189 16.5547 11.5334 16.5547ZM15.5413 13.8906C15.6611 13.6302 15.7522 13.3568 15.8147 13.0703C15.8824 12.7787 15.9163 12.4818 15.9163 12.1797C15.9163 11.5703 15.8017 11 15.5725 10.4688C15.3486 9.93752 15.0361 9.47398 14.635 9.07815C14.234 8.6771 13.7678 8.3646 13.2366 8.14065C12.7053 7.91669 12.1376 7.80471 11.5334 7.80471C11.2262 7.80471 10.9267 7.83596 10.635 7.89846C10.3486 7.96096 10.0751 8.0495 9.8147 8.16408L15.5413 13.8906ZM17.6116 18.9453C17.7314 19.0651 17.872 19.1276 18.0334 19.1328C18.2001 19.138 18.3433 19.0755 18.4631 18.9453C18.5933 18.8151 18.6558 18.6693 18.6506 18.5078C18.6454 18.3516 18.5829 18.2136 18.4631 18.0938L5.40063 5.03908C5.28605 4.9245 5.14282 4.86721 4.97095 4.86721C4.80428 4.862 4.66105 4.91929 4.54126 5.03908C4.42668 5.15367 4.36938 5.2969 4.36938 5.46877C4.36938 5.63544 4.42668 5.77606 4.54126 5.89065L17.6116 18.9453Z"
		fill="currentColor"
	/>
</svg>
