<svg
	color="rgb(var(--foreground, 0, 0, 0))"
	viewBox="0 0 22 24"
	fill="none"
	xmlns="http://www.w3.org/2000/svg"
>
	<path
		d="M10.5938 18.6406C11.6354 18.6406 12.6198 18.5156 13.5469 18.2656C14.474 18.0156 15.3307 17.6849 16.1172 17.2734C16.9036 16.862 17.6068 16.4089 18.2266 15.9141C18.8516 15.4193 19.3828 14.9219 19.8203 14.4219C20.263 13.9219 20.599 13.4609 20.8281 13.0391C21.0625 12.612 21.1797 12.2656 21.1797 12C21.1797 11.7344 21.0625 11.3906 20.8281 10.9688C20.599 10.5417 20.263 10.0781 19.8203 9.57812C19.3828 9.07812 18.8516 8.58073 18.2266 8.08594C17.6016 7.59115 16.8958 7.13802 16.1094 6.72656C15.3229 6.3151 14.4661 5.98438 13.5391 5.73438C12.6172 5.48438 11.6354 5.35938 10.5938 5.35938C9.5625 5.35938 8.58594 5.48438 7.66406 5.73438C6.74219 5.98438 5.88802 6.3151 5.10156 6.72656C4.3151 7.13802 3.60677 7.59115 2.97656 8.08594C2.35156 8.58073 1.8151 9.07812 1.36719 9.57812C0.924479 10.0781 0.585938 10.5417 0.351562 10.9688C0.117188 11.3906 0 11.7344 0 12C0 12.2656 0.117188 12.612 0.351562 13.0391C0.585938 13.4609 0.924479 13.9219 1.36719 14.4219C1.8151 14.9219 2.35156 15.4193 2.97656 15.9141C3.60677 16.4089 4.3151 16.862 5.10156 17.2734C5.88802 17.6849 6.74219 18.0156 7.66406 18.2656C8.58594 18.5156 9.5625 18.6406 10.5938 18.6406ZM10.5938 16.3516C9.98438 16.3516 9.41406 16.2396 8.88281 16.0156C8.35677 15.7865 7.89323 15.4714 7.49219 15.0703C7.09635 14.6641 6.78646 14.2005 6.5625 13.6797C6.33854 13.1536 6.22396 12.5938 6.21875 12C6.21354 11.3906 6.32292 10.8229 6.54688 10.2969C6.77604 9.77083 7.08854 9.3099 7.48438 8.91406C7.88542 8.51302 8.35156 8.20312 8.88281 7.98438C9.41406 7.76042 9.98438 7.64844 10.5938 7.64844C11.1979 7.64844 11.763 7.76042 12.2891 7.98438C12.8203 8.20312 13.2839 8.51302 13.6797 8.91406C14.0807 9.3099 14.3932 9.77083 14.6172 10.2969C14.8464 10.8229 14.9609 11.3906 14.9609 12C14.9609 12.5938 14.8464 13.1536 14.6172 13.6797C14.3932 14.2005 14.0807 14.6641 13.6797 15.0703C13.2839 15.4714 12.8203 15.7865 12.2891 16.0156C11.763 16.2396 11.1979 16.3516 10.5938 16.3516ZM10.5938 13.5703C11.026 13.5703 11.3984 13.4167 11.7109 13.1094C12.0234 12.7969 12.1797 12.4271 12.1797 12C12.1797 11.5677 12.0234 11.1979 11.7109 10.8906C11.3984 10.5781 11.026 10.4219 10.5938 10.4219C10.1562 10.4219 9.78125 10.5781 9.46875 10.8906C9.15625 11.1979 9 11.5677 9 12C9 12.4271 9.15625 12.7969 9.46875 13.1094C9.78125 13.4167 10.1562 13.5703 10.5938 13.5703Z"
		fill="currentColor"
	/>
</svg>
