<svg
	color="rgb(var(--foreground, 0, 0, 0))"
	viewBox="0 0 17 24"
	fill="none"
	xmlns="http://www.w3.org/2000/svg"
>
	<path
		d="M1.84856 11.4657C2.09335 11.4657 2.42408 11.3798 2.84075 11.2079C3.26262 11.036 3.73658 10.8147 4.26262 10.5438C4.79387 10.2678 5.35116 9.97872 5.93449 9.67664C6.51783 9.36934 7.09856 9.08028 7.67668 8.80945C8.26002 8.53861 8.8121 8.31726 9.33293 8.14539C9.85897 7.97351 10.3225 7.88757 10.7236 7.88757C11.1506 7.88757 11.5569 7.97611 11.9423 8.1532C12.3277 8.32507 12.7183 8.5907 13.1142 8.95007L15.0751 10.7548C15.2366 10.9058 15.4058 10.9839 15.5829 10.9891C15.76 10.9891 15.9163 10.9423 16.0517 10.8485C16.1923 10.7496 16.2861 10.6219 16.3329 10.4657C16.3798 10.3094 16.3564 10.148 16.2626 9.98132C16.148 9.79382 16.0074 9.57768 15.8407 9.33289C15.6741 9.08809 15.4605 8.80424 15.2001 8.48132C14.9449 8.15841 14.6246 7.78341 14.2392 7.35632C13.8225 6.89278 13.4058 6.49174 12.9892 6.1532C12.5777 5.81466 12.135 5.55164 11.6611 5.36414C11.1923 5.17664 10.6585 5.08289 10.0595 5.08289C9.28345 5.08289 8.39543 5.22091 7.39543 5.49695C6.39543 5.76778 5.34074 6.13757 4.23137 6.60632C3.12199 7.06986 2.02043 7.5907 0.926683 8.16882C0.650641 8.31986 0.452724 8.5282 0.332933 8.79382C0.218349 9.05945 0.171474 9.34591 0.192308 9.6532C0.218349 9.95528 0.301683 10.2443 0.442308 10.5204C0.588141 10.7964 0.780849 11.023 1.02043 11.2001C1.26002 11.3772 1.53606 11.4657 1.84856 11.4657ZM14.6845 14.6923C14.8095 14.5568 14.8772 14.4162 14.8876 14.2704C14.9032 14.1246 14.8746 13.9917 14.8017 13.8719C14.734 13.7522 14.6376 13.661 14.5126 13.5985C14.3876 13.5308 14.247 13.51 14.0907 13.536C13.9397 13.5568 13.7913 13.6402 13.6454 13.786C13.1298 14.2964 12.4553 14.7001 11.622 14.9969C10.7887 15.2938 9.88762 15.4423 8.91887 15.4423C7.85637 15.4423 6.81731 15.3173 5.80168 15.0673C4.79127 14.8121 3.80168 14.4214 2.83293 13.8954C2.65585 13.7964 2.49179 13.7626 2.34075 13.7938C2.1897 13.8199 2.0647 13.885 1.96575 13.9891C1.86679 14.0933 1.80429 14.2183 1.77825 14.3641C1.7522 14.5048 1.77043 14.648 1.83293 14.7938C1.90064 14.9344 2.02564 15.0542 2.20793 15.1532C3.26002 15.7105 4.35116 16.1298 5.48137 16.411C6.61158 16.6923 7.75741 16.8329 8.91887 16.8329C10.1116 16.8329 11.2105 16.648 12.2157 16.2782C13.2262 15.9032 14.0491 15.3746 14.6845 14.6923ZM3.622 15.6532C3.53345 15.8251 3.40585 16.0438 3.23918 16.3094C3.07252 16.5751 2.92668 16.773 2.80168 16.9032C2.69231 17.0178 2.62981 17.1324 2.61418 17.2469C2.60377 17.3615 2.6272 17.4657 2.6845 17.5594C2.74179 17.648 2.81991 17.7157 2.91887 17.7626C3.02304 17.8094 3.13502 17.8199 3.25481 17.7938C3.3746 17.773 3.48918 17.7027 3.59856 17.5829C3.76002 17.4006 3.90845 17.2001 4.04387 16.9813C4.1845 16.7626 4.30429 16.5594 4.40324 16.3719C4.50741 16.1844 4.58293 16.049 4.62981 15.9657L3.622 15.6532ZM6.34856 16.2782C6.27043 16.6272 6.18189 16.9735 6.08293 17.3173C5.98397 17.6558 5.90064 17.9006 5.83293 18.0516C5.77043 18.1975 5.7522 18.3277 5.77824 18.4423C5.80949 18.5568 5.86679 18.648 5.95012 18.7157C6.03345 18.7834 6.12981 18.8199 6.23918 18.8251C6.35377 18.8303 6.46314 18.8016 6.56731 18.7391C6.67147 18.6766 6.75481 18.5699 6.81731 18.4188C6.90585 18.1897 6.98397 17.9371 7.05168 17.661C7.1246 17.3902 7.18189 17.1428 7.22356 16.9188C7.27043 16.6897 7.30168 16.5256 7.31731 16.4266L6.34856 16.2782ZM9.18449 16.4501C9.23137 16.8042 9.2522 17.161 9.24699 17.5204C9.24179 17.8798 9.23397 18.1428 9.22356 18.3094C9.21314 18.4709 9.24179 18.5985 9.30949 18.6923C9.3772 18.7912 9.46314 18.8563 9.56731 18.8876C9.67147 18.924 9.77564 18.9266 9.87981 18.8954C9.98918 18.8641 10.0803 18.799 10.1532 18.7001C10.2262 18.6063 10.2652 18.4787 10.2704 18.3173C10.2756 18.0673 10.2704 17.8016 10.2548 17.5204C10.2444 17.2391 10.2262 16.9839 10.2001 16.7548C10.1793 16.5204 10.1611 16.3563 10.1454 16.2626L9.18449 16.4501ZM11.8407 15.9423C12.0387 16.3381 12.1767 16.7209 12.2548 17.0907C12.3381 17.4605 12.398 17.7287 12.4345 17.8954C12.4605 18.0516 12.5178 18.1662 12.6064 18.2391C12.6949 18.3121 12.7913 18.3485 12.8954 18.3485C13.0048 18.3485 13.1064 18.3173 13.2001 18.2548C13.2991 18.1975 13.3746 18.1141 13.4267 18.0048C13.4788 17.9006 13.4866 17.7782 13.4501 17.6376C13.346 17.2001 13.2262 16.7756 13.0907 16.3641C12.9605 15.9527 12.8225 15.6376 12.6767 15.4188L11.8407 15.9423Z"
		fill="currentColor"
	/>
</svg>
