<svg
	color="rgb(var(--foreground, 0, 0, 0))"
	viewBox="0 0 22 24"
	fill="none"
	xmlns="http://www.w3.org/2000/svg"
>
	<path
		d="M10.7734 18.8203C11.4974 18.8203 12.1927 18.7578 12.8594 18.6328C13.526 18.5078 14.1536 18.3359 14.7422 18.1171L12.6953 16.0703C12.4089 16.2213 12.1016 16.3359 11.7734 16.414C11.4505 16.4921 11.1172 16.5312 10.7734 16.5312C10.1641 16.5312 9.59375 16.4192 9.0625 16.1953C8.53646 15.9661 8.07292 15.651 7.67188 15.25C7.27604 14.8437 6.96354 14.3802 6.73438 13.8593C6.51042 13.3333 6.39844 12.7734 6.39844 12.1796C6.39844 11.8307 6.4375 11.4921 6.51562 11.164C6.59375 10.8307 6.70573 10.5182 6.85156 10.2265L4.17969 7.53902C3.5651 7.92444 3.01042 8.3385 2.51562 8.78121C2.02604 9.21871 1.60677 9.65361 1.25781 10.0859C0.908854 10.5182 0.640625 10.9166 0.453125 11.2812C0.270833 11.6458 0.179688 11.9453 0.179688 12.1796C0.179688 12.4453 0.296875 12.7916 0.53125 13.2187C0.765625 13.6406 1.10417 14.1015 1.54688 14.6015C1.99479 15.1015 2.53125 15.5989 3.15625 16.0937C3.78646 16.5885 4.49479 17.0416 5.28125 17.4531C6.06771 17.8645 6.92188 18.1953 7.84375 18.4453C8.76562 18.6953 9.74219 18.8203 10.7734 18.8203ZM17.5859 16.6875C18.3464 16.1875 19.0078 15.6484 19.5703 15.0703C20.138 14.4869 20.5781 13.9375 20.8906 13.4218C21.2031 12.9062 21.3594 12.4921 21.3594 12.1796C21.3594 11.914 21.2422 11.5703 21.0078 11.1484C20.7786 10.7213 20.4427 10.2578 20 9.75777C19.5625 9.25777 19.0312 8.76038 18.4062 8.26558C17.7812 7.77079 17.0755 7.31767 16.2891 6.90621C15.5026 6.49475 14.6458 6.16402 13.7188 5.91402C12.7969 5.66402 11.8151 5.53902 10.7734 5.53902C10.1068 5.53902 9.46354 5.59371 8.84375 5.70308C8.22396 5.80725 7.63021 5.95308 7.0625 6.14058L9.09375 8.17183C9.34896 8.06246 9.61719 7.97913 9.89844 7.92183C10.1797 7.85933 10.4714 7.82808 10.7734 7.82808C11.3776 7.82808 11.9427 7.94006 12.4688 8.16402C13 8.38277 13.4635 8.69267 13.8594 9.09371C14.2604 9.48954 14.5729 9.95048 14.7969 10.4765C15.026 11.0026 15.1406 11.5703 15.1406 12.1796C15.1406 12.4765 15.1094 12.7656 15.0469 13.0468C14.9844 13.3281 14.8932 13.5937 14.7734 13.8437L17.5859 16.6875ZM8.28125 12C8.28125 12.4583 8.39323 12.875 8.61719 13.25C8.84635 13.625 9.14844 13.9244 9.52344 14.1484C9.90365 14.3724 10.3229 14.4843 10.7812 14.4843C10.8333 14.4843 10.8854 14.4843 10.9375 14.4843C10.9896 14.4791 11.0443 14.4739 11.1016 14.4687L8.29688 11.664C8.29167 11.7213 8.28646 11.7786 8.28125 11.8359C8.28125 11.8932 8.28125 11.9479 8.28125 12ZM13.2578 12.0156C13.2578 11.5625 13.1458 11.1484 12.9219 10.7734C12.7031 10.3932 12.4062 10.0937 12.0312 9.87496C11.6562 9.651 11.237 9.53902 10.7734 9.53902C10.7214 9.53902 10.6693 9.54163 10.6172 9.54683C10.5703 9.54683 10.5234 9.54944 10.4766 9.55465L13.2422 12.3203C13.2474 12.2734 13.25 12.2239 13.25 12.1718C13.2552 12.1198 13.2578 12.0677 13.2578 12.0156ZM16.8516 18.9453C16.9714 19.0651 17.112 19.1276 17.2734 19.1328C17.4401 19.138 17.5833 19.0755 17.7031 18.9453C17.8333 18.8151 17.8958 18.6692 17.8906 18.5078C17.8854 18.3515 17.8229 18.2135 17.7031 18.0937L4.64062 5.03902C4.52604 4.92444 4.38281 4.86715 4.21094 4.86715C4.04427 4.86194 3.90104 4.91923 3.78125 5.03902C3.66667 5.15361 3.60938 5.29683 3.60938 5.46871C3.60938 5.63538 3.66667 5.776 3.78125 5.89058L16.8516 18.9453Z"
		fill="currentColor"
	/>
</svg>
