<svg
	color="rgb(var(--foreground, 0, 0, 0))"
	viewBox="0 0 22 24"
	fill="none"
	xmlns="http://www.w3.org/2000/svg"
>
	<path
		d="M11.1819 18.6953C12.234 18.6953 13.2262 18.5677 14.1584 18.3125C15.0959 18.0625 15.9605 17.7318 16.7522 17.3203C17.5439 16.9036 18.2522 16.4453 18.8772 15.9453C19.5074 15.4453 20.0439 14.9453 20.4866 14.4453C20.9293 13.9401 21.2678 13.474 21.5022 13.0469C21.7366 12.6146 21.8538 12.2656 21.8538 12C21.8538 11.7344 21.7366 11.388 21.5022 10.9609C21.2678 10.5286 20.9293 10.0625 20.4866 9.5625C20.0439 9.05729 19.5074 8.55469 18.8772 8.05469C18.2522 7.55469 17.5413 7.09896 16.7444 6.6875C15.9527 6.27083 15.0881 5.9375 14.1506 5.6875C13.2183 5.43229 12.2288 5.30469 11.1819 5.30469C10.1454 5.30469 9.16105 5.43229 8.22876 5.6875C7.30168 5.9375 6.4397 6.27083 5.64282 6.6875C4.85116 7.09896 4.13761 7.55469 3.5022 8.05469C2.87199 8.55469 2.33293 9.05729 1.88501 9.5625C1.43709 10.0625 1.09334 10.5286 0.85376 10.9609C0.619385 11.388 0.502197 11.7344 0.502197 12C0.502197 12.2656 0.619385 12.6146 0.85376 13.0469C1.09334 13.474 1.43709 13.9401 1.88501 14.4453C2.33293 14.9453 2.87199 15.4453 3.5022 15.9453C4.13241 16.4453 4.84334 16.9036 5.63501 17.3203C6.43188 17.7318 7.29386 18.0625 8.22095 18.3125C9.15324 18.5677 10.1402 18.6953 11.1819 18.6953ZM11.1819 17.4609C10.3225 17.4609 9.49699 17.3542 8.70532 17.1406C7.91366 16.9271 7.17147 16.6458 6.47876 16.2969C5.78605 15.9427 5.15845 15.5573 4.59595 15.1406C4.03345 14.724 3.54647 14.3125 3.13501 13.9062C2.72876 13.4948 2.41626 13.1198 2.19751 12.7812C1.97876 12.4427 1.86938 12.1823 1.86938 12C1.86938 11.8438 1.97876 11.6042 2.19751 11.2812C2.41626 10.9583 2.72876 10.5911 3.13501 10.1797C3.54647 9.76302 4.03345 9.34375 4.59595 8.92188C5.15845 8.5 5.78605 8.10938 6.47876 7.75C7.17147 7.38542 7.91366 7.09375 8.70532 6.875C9.49699 6.65104 10.3225 6.53906 11.1819 6.53906C12.0361 6.53906 12.8564 6.65104 13.6428 6.875C14.4345 7.09375 15.1767 7.38542 15.8694 7.75C16.5621 8.10938 17.1897 8.5 17.7522 8.92188C18.3199 9.34375 18.8069 9.76302 19.2131 10.1797C19.6194 10.5911 19.9319 10.9583 20.1506 11.2812C20.3746 11.6042 20.4866 11.8438 20.4866 12C20.4866 12.1823 20.3746 12.4427 20.1506 12.7812C19.9319 13.1198 19.6194 13.4948 19.2131 13.9062C18.8069 14.3125 18.3199 14.724 17.7522 15.1406C17.1897 15.5573 16.5621 15.9427 15.8694 16.2969C15.1767 16.6458 14.4345 16.9271 13.6428 17.1406C12.8564 17.3542 12.0361 17.4609 11.1819 17.4609ZM11.1819 16.375C11.7861 16.375 12.3538 16.2604 12.885 16.0312C13.4163 15.8021 13.8824 15.487 14.2834 15.0859C14.6845 14.6797 14.997 14.2135 15.2209 13.6875C15.4501 13.1562 15.5647 12.5938 15.5647 12C15.5647 11.3906 15.4501 10.8203 15.2209 10.2891C14.997 9.75781 14.6845 9.29427 14.2834 8.89844C13.8824 8.4974 13.4163 8.1849 12.885 7.96094C12.3538 7.73698 11.7861 7.625 11.1819 7.625C10.5673 7.625 9.99438 7.73698 9.46313 7.96094C8.93188 8.1849 8.46574 8.4974 8.0647 8.89844C7.66366 9.29427 7.34855 9.75781 7.11938 10.2891C6.89543 10.8203 6.78345 11.3906 6.78345 12C6.78866 12.5938 6.90324 13.1562 7.1272 13.6875C7.35636 14.2135 7.67147 14.6797 8.07251 15.0859C8.47355 15.487 8.93709 15.8021 9.46313 16.0312C9.99438 16.2604 10.5673 16.375 11.1819 16.375ZM11.1819 13.4531C10.7756 13.4531 10.4293 13.3099 10.1428 13.0234C9.85636 12.737 9.71313 12.3958 9.71313 12C9.71313 11.599 9.85636 11.2578 10.1428 10.9766C10.4293 10.6901 10.7756 10.5469 11.1819 10.5469C11.5829 10.5469 11.9267 10.6901 12.2131 10.9766C12.4996 11.2578 12.6428 11.599 12.6428 12C12.6428 12.3958 12.4996 12.737 12.2131 13.0234C11.9267 13.3099 11.5829 13.4531 11.1819 13.4531Z"
		fill="currentColor"
	/>
</svg>
