<svg
	color="rgb(var(--foreground, 0, 0, 0))"
	viewBox="0 0 20 24"
	fill="none"
	xmlns="http://www.w3.org/2000/svg"
>
	<path
		d="M5.20312 19.1211C5.79688 19.1211 6.35156 18.9492 6.86719 18.6055C7.38802 18.2617 7.84375 17.7747 8.23438 17.1445C8.625 16.5143 8.92969 15.7643 9.14844 14.8945C9.36719 14.0195 9.47656 13.0534 9.47656 11.9961C9.47656 10.9336 9.36719 9.96745 9.14844 9.09766C8.92969 8.22786 8.625 7.47786 8.23438 6.84766C7.84375 6.21745 7.38802 5.73307 6.86719 5.39453C6.35156 5.05078 5.79688 4.87891 5.20312 4.87891C4.60417 4.87891 4.04688 5.05078 3.53125 5.39453C3.01562 5.73307 2.5625 6.21745 2.17188 6.84766C1.78125 7.47786 1.47396 8.22786 1.25 9.09766C1.03125 9.96745 0.921875 10.9336 0.921875 11.9961C0.921875 13.0534 1.03125 14.0195 1.25 14.8945C1.47396 15.7643 1.78125 16.5143 2.17188 17.1445C2.5625 17.7747 3.01562 18.2617 3.53125 18.6055C4.04688 18.9492 4.60417 19.1211 5.20312 19.1211ZM5.20312 18.0195C4.77604 18.0195 4.3724 17.8763 3.99219 17.5898C3.61198 17.2982 3.27604 16.8867 2.98438 16.3555C2.69271 15.819 2.46354 15.1836 2.29688 14.4492C2.13021 13.7096 2.04688 12.8919 2.04688 11.9961C2.04688 11.1055 2.1276 10.293 2.28906 9.55859C2.45573 8.82422 2.6849 8.19141 2.97656 7.66016C3.27344 7.12891 3.61198 6.71745 3.99219 6.42578C4.3724 6.13411 4.77604 5.98568 5.20312 5.98047C5.63542 5.98047 6.04167 6.1263 6.42188 6.41797C6.80729 6.70443 7.14583 7.11328 7.4375 7.64453C7.72917 8.17578 7.95833 8.8112 8.125 9.55078C8.29167 10.2852 8.375 11.1003 8.375 11.9961C8.375 12.8867 8.29167 13.6992 8.125 14.4336C7.95833 15.168 7.72917 15.8034 7.4375 16.3398C7.14583 16.8711 6.80729 17.2826 6.42188 17.5742C6.04167 17.8659 5.63542 18.0143 5.20312 18.0195ZM3.51562 14.7539C4.16667 14.7539 4.6901 14.5456 5.08594 14.1289C5.48698 13.7122 5.6875 13.1602 5.6875 12.4727C5.6875 11.7956 5.48698 11.2487 5.08594 10.832C4.6901 10.4154 4.16667 10.207 3.51562 10.207C2.85938 10.207 2.33073 10.4154 1.92969 10.832C1.53385 11.2487 1.33594 11.7956 1.33594 12.4727C1.33594 13.1602 1.53385 13.7122 1.92969 14.1289C2.33073 14.5456 2.85938 14.7539 3.51562 14.7539ZM2.89844 12.207C2.75781 12.1862 2.64844 12.1055 2.57031 11.9648C2.4974 11.819 2.47656 11.6602 2.50781 11.4883C2.53906 11.3216 2.61458 11.1862 2.73438 11.082C2.85417 10.9727 2.97917 10.931 3.10938 10.957C3.25 10.9831 3.35677 11.0664 3.42969 11.207C3.5026 11.3477 3.52344 11.5013 3.49219 11.668C3.46094 11.8398 3.38802 11.9779 3.27344 12.082C3.15885 12.1862 3.03385 12.2279 2.89844 12.207ZM14.9062 19.1211C15.5052 19.1211 16.0625 18.9492 16.5781 18.6055C17.0938 18.2617 17.5469 17.7747 17.9375 17.1445C18.3281 16.5143 18.6328 15.7643 18.8516 14.8945C19.0755 14.0195 19.1875 13.0534 19.1875 11.9961C19.1875 10.9336 19.0755 9.96745 18.8516 9.09766C18.6328 8.22786 18.3281 7.47786 17.9375 6.84766C17.5469 6.21745 17.0938 5.73307 16.5781 5.39453C16.0625 5.05078 15.5052 4.87891 14.9062 4.87891C14.3125 4.87891 13.7552 5.05078 13.2344 5.39453C12.7188 5.73307 12.2656 6.21745 11.875 6.84766C11.4844 7.47786 11.1797 8.22786 10.9609 9.09766C10.7422 9.96745 10.6328 10.9336 10.6328 11.9961C10.6328 13.0534 10.7422 14.0195 10.9609 14.8945C11.1797 15.7643 11.4844 16.5143 11.875 17.1445C12.2656 17.7747 12.7188 18.2617 13.2344 18.6055C13.7552 18.9492 14.3125 19.1211 14.9062 19.1211ZM14.9062 18.0117C14.4792 18.0117 14.0729 17.8685 13.6875 17.582C13.3073 17.2904 12.9688 16.8789 12.6719 16.3477C12.3802 15.8112 12.151 15.1758 11.9844 14.4414C11.8177 13.7018 11.7344 12.8867 11.7344 11.9961C11.7344 11.1055 11.8177 10.293 11.9844 9.55859C12.151 8.82422 12.3802 8.19141 12.6719 7.66016C12.9688 7.12891 13.3073 6.72005 13.6875 6.43359C14.0677 6.14193 14.474 5.99349 14.9062 5.98828C15.3333 5.98828 15.737 6.13411 16.1172 6.42578C16.5026 6.71224 16.8411 7.1237 17.1328 7.66016C17.4245 8.19141 17.6536 8.82422 17.8203 9.55859C17.987 10.293 18.0703 11.1055 18.0703 11.9961C18.0703 12.8867 17.987 13.6992 17.8203 14.4336C17.6536 15.168 17.4245 15.8034 17.1328 16.3398C16.8411 16.8711 16.5026 17.2826 16.1172 17.5742C15.737 17.8607 15.3333 18.0065 14.9062 18.0117ZM13.2109 14.7539C13.862 14.7539 14.388 14.5456 14.7891 14.1289C15.1953 13.7122 15.3984 13.1602 15.3984 12.4727C15.3984 11.7956 15.1953 11.2487 14.7891 10.832C14.388 10.4154 13.862 10.207 13.2109 10.207C12.5547 10.207 12.026 10.4154 11.625 10.832C11.2292 11.2487 11.0312 11.7956 11.0312 12.4727C11.0312 13.1602 11.2292 13.7122 11.625 14.1289C12.026 14.5456 12.5547 14.7539 13.2109 14.7539ZM12.5938 12.207C12.4583 12.181 12.3516 12.0977 12.2734 11.957C12.2005 11.8164 12.1797 11.6602 12.2109 11.4883C12.2474 11.3216 12.3229 11.1862 12.4375 11.082C12.5521 10.9727 12.6771 10.931 12.8125 10.957C12.9531 10.9779 13.0599 11.0612 13.1328 11.207C13.2057 11.3477 13.224 11.5013 13.1875 11.668C13.1562 11.8398 13.0833 11.9779 12.9688 12.082C12.8542 12.1862 12.7292 12.2279 12.5938 12.207Z"
		fill="currentColor"
	/>
</svg>
