<svg
	color="rgb(var(--foreground, 0, 0, 0))"
	viewBox="0 0 21 24"
	fill="none"
	xmlns="http://www.w3.org/2000/svg"
>
	<path
		d="M0.658103 11.6602C1.59039 12.7852 2.5331 13.7435 3.48623 14.5352C4.44456 15.3268 5.46279 15.9336 6.54092 16.3555C7.62425 16.7773 8.81956 16.9883 10.1269 16.9883C11.4394 16.9883 12.6347 16.7773 13.7128 16.3555C14.7961 15.9336 15.8144 15.3268 16.7675 14.5352C17.7258 13.7435 18.6711 12.7852 19.6034 11.6602C19.9107 11.2852 20.0878 10.9076 20.1347 10.5273C20.1815 10.1471 20.0956 9.81901 19.8769 9.54297C19.6633 9.26693 19.3117 9.10026 18.8222 9.04297C18.369 8.99089 17.9654 8.88932 17.6112 8.73828C17.2623 8.58724 16.9367 8.41536 16.6347 8.22266C16.3326 8.02474 16.0253 7.83464 15.7128 7.65234C15.4055 7.46484 15.0696 7.3112 14.705 7.19141C14.3404 7.07161 13.9185 7.01172 13.4394 7.01172C12.9706 7.01172 12.5487 7.08203 12.1737 7.22266C11.8039 7.36328 11.481 7.52734 11.205 7.71484C10.9289 7.89714 10.6998 8.05859 10.5175 8.19922C10.3404 8.33984 10.2102 8.41016 10.1269 8.41016C10.0487 8.41016 9.91852 8.33984 9.73623 8.19922C9.55914 8.05859 9.33258 7.89714 9.05654 7.71484C8.7805 7.52734 8.45498 7.36328 8.07998 7.22266C7.71019 7.08203 7.29092 7.01172 6.82217 7.01172C6.343 7.01172 5.92112 7.07161 5.55654 7.19141C5.19196 7.3112 4.85342 7.46484 4.54092 7.65234C4.23362 7.83464 3.92633 8.02474 3.61904 8.22266C3.31696 8.41536 2.99144 8.58724 2.64248 8.73828C2.29352 8.88932 1.89248 8.99089 1.43935 9.04297C0.94977 9.10026 0.595603 9.26693 0.376853 9.54297C0.163311 9.81901 0.079978 10.1471 0.126853 10.5273C0.173728 10.9076 0.350811 11.2852 0.658103 11.6602ZM1.30654 10.8633C1.16592 10.7018 1.11383 10.5456 1.15029 10.3945C1.18675 10.2435 1.30914 10.1497 1.51748 10.1133L2.11123 9.99609C2.70498 9.88672 3.218 9.73568 3.65029 9.54297C4.08779 9.34505 4.48102 9.14453 4.82998 8.94141C5.17894 8.73828 5.51748 8.56641 5.8456 8.42578C6.17373 8.28516 6.52529 8.21484 6.90029 8.21484C7.29612 8.21484 7.64508 8.29818 7.94717 8.46484C8.24925 8.6263 8.53571 8.80339 8.80654 8.99609C9.06696 9.18359 9.29612 9.33464 9.49404 9.44922C9.69717 9.55859 9.9081 9.61328 10.1269 9.61328C10.3508 9.61328 10.5617 9.55859 10.7597 9.44922C10.9628 9.33464 11.1946 9.18359 11.455 8.99609C11.7258 8.80339 12.0097 8.6263 12.3065 8.46484C12.6086 8.29818 12.9602 8.21484 13.3612 8.21484C13.7362 8.21484 14.0878 8.28516 14.4159 8.42578C14.744 8.56641 15.0826 8.73828 15.4315 8.94141C15.7805 9.14453 16.1711 9.34505 16.6034 9.54297C17.0409 9.73568 17.5565 9.88672 18.1503 9.99609L18.744 10.1133C18.9524 10.1497 19.0748 10.2435 19.1112 10.3945C19.1477 10.5456 19.0956 10.7018 18.955 10.8633C18.5175 11.3216 18.0565 11.7852 17.5722 12.2539C17.0878 12.7174 16.5722 13.1602 16.0253 13.582C15.4836 14.0039 14.9081 14.3815 14.2987 14.7148C13.6894 15.043 13.0383 15.3034 12.3456 15.4961C11.6529 15.6888 10.9133 15.7852 10.1269 15.7852C9.3456 15.7852 8.60862 15.6888 7.91592 15.4961C7.22321 15.3034 6.57217 15.043 5.96279 14.7148C5.35342 14.3815 4.77529 14.0039 4.22842 13.582C3.68675 13.1602 3.17373 12.7174 2.68935 12.2539C2.20498 11.7852 1.74404 11.3216 1.30654 10.8633ZM10.1269 12.7305C10.3977 12.7305 10.6242 12.6862 10.8065 12.5977C10.994 12.5091 11.1789 12.4076 11.3612 12.293C11.5435 12.1732 11.7623 12.069 12.0175 11.9805C12.2727 11.8919 12.6034 11.8477 13.0097 11.8477C13.4159 11.8529 13.8482 11.8815 14.3065 11.9336C14.7649 11.9805 15.2492 11.9961 15.7597 11.9805C16.2701 11.9648 16.8117 11.8659 17.3847 11.6836C17.9576 11.4961 18.5617 11.1654 19.1972 10.6914C19.3378 10.5872 19.4081 10.4857 19.4081 10.3867C19.4133 10.2826 19.3742 10.207 19.2909 10.1602C19.2076 10.1081 19.1034 10.1107 18.9784 10.168C18.442 10.4492 17.8951 10.6445 17.3378 10.7539C16.7857 10.8633 16.2362 10.918 15.6894 10.918C15.1477 10.9128 14.6242 10.8841 14.119 10.832C13.9159 10.806 13.7154 10.7826 13.5175 10.7617C13.3196 10.7357 13.1242 10.7227 12.9315 10.7227C12.3274 10.7227 11.8482 10.806 11.494 10.9727C11.1399 11.1341 10.8534 11.2773 10.6347 11.4023C10.494 11.4857 10.3899 11.5404 10.3222 11.5664C10.2545 11.5924 10.1894 11.6055 10.1269 11.6055C10.0696 11.6055 10.0071 11.5924 9.93935 11.5664C9.87164 11.5404 9.76487 11.4857 9.61904 11.4023C9.4055 11.2773 9.12164 11.1341 8.76748 10.9727C8.41331 10.806 7.93414 10.7227 7.32998 10.7227C7.13727 10.7227 6.94456 10.7357 6.75185 10.7617C6.55914 10.7826 6.36383 10.8034 6.16592 10.8242C5.6555 10.8815 5.12685 10.9102 4.57998 10.9102C4.03831 10.9102 3.48623 10.8555 2.92373 10.7461C2.36644 10.6367 1.81956 10.444 1.2831 10.168C1.1581 10.1107 1.05394 10.1081 0.970603 10.1602C0.88727 10.207 0.845603 10.2826 0.845603 10.3867C0.850811 10.4857 0.923728 10.5872 1.06435 10.6914C1.69977 11.1602 2.30394 11.4883 2.87685 11.6758C3.44977 11.8633 3.99144 11.9648 4.50185 11.9805C5.01227 11.9961 5.49664 11.9805 5.95498 11.9336C6.41331 11.8815 6.8456 11.8529 7.25185 11.8477C7.6581 11.8477 7.98883 11.8919 8.24404 11.9805C8.49925 12.069 8.718 12.1732 8.90029 12.293C9.08258 12.4076 9.26487 12.5091 9.44717 12.5977C9.63467 12.6862 9.86123 12.7305 10.1269 12.7305Z"
		fill="currentColor"
	/>
</svg>
