<svg
	color="rgb(var(--foreground, 0, 0, 0))"
	viewBox="0 0 21 24"
	fill="none"
	xmlns="http://www.w3.org/2000/svg"
>
	<path
		d="M0.588067 11.2305C1.58286 12.4648 2.57244 13.5091 3.55682 14.3633C4.54119 15.2122 5.56984 15.8555 6.64275 16.293C7.72088 16.7305 8.89796 16.9492 10.174 16.9492C11.4448 16.9492 12.6193 16.7305 13.6974 16.293C14.7756 15.8555 15.8068 15.2122 16.7912 14.3633C17.7756 13.5091 18.7625 12.4648 19.7521 11.2305C20.023 10.8971 20.1688 10.582 20.1896 10.2852C20.2157 9.98828 20.1428 9.74349 19.9709 9.55078C19.8042 9.35286 19.5672 9.23568 19.2599 9.19922C18.6974 9.13151 18.2053 9.01693 17.7834 8.85547C17.3615 8.6888 16.9787 8.50391 16.6349 8.30078C16.2912 8.09766 15.9579 7.90234 15.6349 7.71484C15.312 7.52214 14.9709 7.36328 14.6115 7.23828C14.2521 7.11328 13.8407 7.05078 13.3771 7.05078C12.924 7.05078 12.5152 7.1237 12.1506 7.26953C11.786 7.41536 11.4683 7.58464 11.1974 7.77734C10.9318 7.96484 10.7131 8.13151 10.5412 8.27734C10.3693 8.41797 10.2469 8.48828 10.174 8.48828C10.1011 8.48828 9.97869 8.41797 9.80682 8.27734C9.63494 8.13151 9.41359 7.96484 9.14275 7.77734C8.87713 7.58464 8.56203 7.41536 8.19744 7.26953C7.83286 7.1237 7.4214 7.05078 6.96307 7.05078C6.49953 7.05078 6.08807 7.11328 5.72869 7.23828C5.36932 7.36328 5.02817 7.52214 4.70525 7.71484C4.38234 7.90234 4.049 8.09766 3.70525 8.30078C3.36671 8.50391 2.9865 8.6888 2.56463 8.85547C2.14275 9.01693 1.64796 9.13151 1.08025 9.19922C0.772963 9.23568 0.535984 9.35286 0.369317 9.55078C0.20265 9.74349 0.129734 9.98828 0.150567 10.2852C0.176609 10.582 0.322442 10.8971 0.588067 11.2305ZM2.37713 11.043C2.24171 10.9596 2.1714 10.8685 2.16619 10.7695C2.16619 10.6654 2.20525 10.5846 2.28338 10.5273C2.3615 10.4701 2.46307 10.4701 2.58807 10.5273C2.95265 10.6992 3.32505 10.8164 3.70525 10.8789C4.09067 10.9362 4.49432 10.957 4.91619 10.9414C5.33807 10.9258 5.78859 10.8919 6.26775 10.8398C6.46046 10.8138 6.65317 10.7904 6.84588 10.7695C7.03859 10.7487 7.22869 10.7383 7.41619 10.7383C8.00994 10.7383 8.4813 10.819 8.83025 10.9805C9.17921 11.1419 9.46046 11.2852 9.674 11.4102C9.81463 11.4883 9.91619 11.5404 9.97869 11.5664C10.0464 11.5924 10.1115 11.6055 10.174 11.6055C10.2365 11.6055 10.299 11.5924 10.3615 11.5664C10.4292 11.5404 10.5334 11.4883 10.674 11.4102C10.8875 11.2852 11.1662 11.1419 11.5099 10.9805C11.8589 10.819 12.3303 10.7383 12.924 10.7383C13.1167 10.7383 13.3068 10.7487 13.4943 10.7695C13.687 10.7904 13.8823 10.8138 14.0803 10.8398C14.5542 10.9076 15.0021 10.9492 15.424 10.9648C15.8459 10.9753 16.2469 10.9492 16.6271 10.8867C17.0125 10.819 17.3901 10.6992 17.7599 10.5273C17.8797 10.4701 17.9787 10.4701 18.0568 10.5273C18.1401 10.5846 18.1792 10.6654 18.174 10.7695C18.1688 10.8685 18.0985 10.9596 17.9631 11.043C17.5151 11.319 17.0568 11.5143 16.5881 11.6289C16.1245 11.7435 15.6766 11.8086 15.2443 11.8242C14.8172 11.8398 14.4292 11.8372 14.0803 11.8164C13.7365 11.7904 13.4553 11.7747 13.2365 11.7695C12.7834 11.7695 12.4136 11.819 12.1271 11.918C11.8459 12.0117 11.6063 12.1211 11.4084 12.2461C11.2157 12.3711 11.0256 12.4805 10.8381 12.5742C10.6558 12.668 10.4344 12.7148 10.174 12.7148C9.90838 12.7148 9.68182 12.668 9.49432 12.5742C9.31203 12.4805 9.12192 12.3711 8.924 12.2461C8.7313 12.1211 8.49432 12.0117 8.21307 11.918C7.93182 11.819 7.56203 11.7695 7.10369 11.7695C6.89015 11.7747 6.6089 11.7904 6.25994 11.8164C5.91098 11.8424 5.52036 11.8477 5.08807 11.832C4.66098 11.8164 4.21567 11.7513 3.75213 11.6367C3.28859 11.5221 2.83025 11.3242 2.37713 11.043Z"
		fill="currentColor"
	/>
</svg>
