<svg
	color="rgb(var(--foreground, 0, 0, 0))"
	viewBox="0 0 23 24"
	fill="none"
	xmlns="http://www.w3.org/2000/svg"
>
	<path
		d="M6.83295 16.0703C7.88503 16.0703 8.84336 15.9062 9.70795 15.5781C10.5777 15.2448 11.2939 14.7682 11.8564 14.1484C12.4189 14.7682 13.1324 15.2448 13.997 15.5781C14.8668 15.9062 15.8277 16.0703 16.8798 16.0703C17.7288 16.0703 18.5178 15.9505 19.247 15.7109C19.9814 15.4714 20.622 15.138 21.1689 14.7109C21.721 14.2786 22.1507 13.7786 22.4579 13.2109C22.7652 12.638 22.9189 12.0182 22.9189 11.3516C22.9189 10.7943 22.8069 10.362 22.5829 10.0547C22.3642 9.74219 22.0517 9.58594 21.6454 9.58594C21.4788 9.58594 21.3199 9.6224 21.1689 9.69531C21.0231 9.76823 20.885 9.875 20.7548 10.0156C20.6454 10.1354 20.5178 10.2422 20.372 10.3359C20.2262 10.4245 20.0673 10.4948 19.8954 10.5469C19.7288 10.599 19.5491 10.625 19.3564 10.625C18.9658 10.625 18.6194 10.5365 18.3173 10.3594C18.0204 10.1771 17.7314 9.95312 17.4501 9.6875C17.1689 9.41667 16.8616 9.14844 16.5283 8.88281C16.2001 8.61198 15.8121 8.38542 15.3642 8.20312C14.9163 8.02083 14.372 7.92969 13.7314 7.92969C13.372 7.92969 13.0335 7.97917 12.7158 8.07812C12.3981 8.17708 12.1116 8.31771 11.8564 8.5C11.6012 8.31771 11.3147 8.17708 10.997 8.07812C10.6793 7.97917 10.3408 7.92969 9.98138 7.92969C9.34076 7.92969 8.79649 8.02083 8.34857 8.20312C7.90066 8.38542 7.51003 8.61198 7.1767 8.88281C6.84857 9.14844 6.54388 9.41667 6.26263 9.6875C5.98138 9.95312 5.68972 10.1771 5.38763 10.3594C5.09076 10.5365 4.74701 10.625 4.35638 10.625C4.16368 10.625 3.98138 10.599 3.80951 10.5469C3.64284 10.4948 3.48659 10.4245 3.34076 10.3359C3.19493 10.2422 3.06732 10.1354 2.95795 10.0156C2.82774 9.875 2.68711 9.76823 2.53607 9.69531C2.39024 9.6224 2.23399 9.58594 2.06732 9.58594C1.66107 9.58594 1.34597 9.74219 1.12201 10.0547C0.903259 10.362 0.793884 10.7943 0.793884 11.3516C0.793884 12.0182 0.94753 12.638 1.25482 13.2109C1.56211 13.7786 1.9892 14.2786 2.53607 14.7109C3.08816 15.138 3.72878 15.4714 4.45795 15.7109C5.19232 15.9505 5.98399 16.0703 6.83295 16.0703ZM6.83295 14.8125C6.16107 14.8125 5.53607 14.724 4.95795 14.5469C4.37982 14.3698 3.87201 14.1224 3.43451 13.8047C3.00222 13.487 2.66368 13.1198 2.41888 12.7031C2.17409 12.2812 2.0517 11.8281 2.0517 11.3438C2.0517 11.2344 2.08816 11.1719 2.16107 11.1562C2.2392 11.1406 2.30951 11.1536 2.37201 11.1953C2.60638 11.4193 2.90066 11.5911 3.25482 11.7109C3.60899 11.8255 3.97618 11.8828 4.35638 11.8828C4.80951 11.8828 5.21836 11.8099 5.58295 11.6641C5.94753 11.5182 6.27826 11.3359 6.57513 11.1172C6.87201 10.8984 7.14805 10.6771 7.40326 10.4531C7.66888 10.2292 7.9267 10.0208 8.1767 9.82812C8.43191 9.63542 8.70274 9.48177 8.9892 9.36719C9.28086 9.2474 9.61159 9.1875 9.98138 9.1875C10.3564 9.1875 10.6819 9.26562 10.9579 9.42188C11.234 9.57292 11.4475 9.78385 11.5986 10.0547C11.6559 10.1693 11.7418 10.2292 11.8564 10.2344C11.971 10.2344 12.0543 10.1745 12.1064 10.0547C12.2574 9.78385 12.471 9.57292 12.747 9.42188C13.0283 9.26562 13.3564 9.1875 13.7314 9.1875C14.1012 9.1875 14.4293 9.2474 14.7158 9.36719C15.0074 9.48177 15.2783 9.63542 15.5283 9.82812C15.7835 10.0208 16.0439 10.2292 16.3095 10.4531C16.5647 10.6771 16.8408 10.8984 17.1376 11.1172C17.4345 11.3359 17.7652 11.5182 18.1298 11.6641C18.4944 11.8099 18.9033 11.8828 19.3564 11.8828C19.7366 11.8828 20.1038 11.8229 20.4579 11.7031C20.8173 11.5781 21.1194 11.3984 21.3642 11.1641C21.4319 11.1172 21.497 11.1016 21.5595 11.1172C21.6272 11.1328 21.6611 11.2083 21.6611 11.3438C21.6611 11.8281 21.5387 12.2812 21.2939 12.7031C21.0491 13.1198 20.7079 13.487 20.2704 13.8047C19.8382 14.1224 19.3329 14.3698 18.7548 14.5469C18.1767 14.724 17.5517 14.8125 16.8798 14.8125C15.7184 14.8125 14.7236 14.5964 13.8954 14.1641C13.0725 13.7266 12.497 13.1302 12.1689 12.375C12.1064 12.2292 12.0022 12.1562 11.8564 12.1562C11.7106 12.151 11.6064 12.224 11.5439 12.375C11.221 13.1302 10.6454 13.7266 9.81732 14.1641C8.99441 14.5964 7.99961 14.8125 6.83295 14.8125Z"
		fill="currentColor"
	/>
</svg>
