<svg
	color="rgb(var(--foreground, 0, 0, 0))"
	viewBox="0 0 24 24"
	fill="none"
	xmlns="http://www.w3.org/2000/svg"
>
	<path
		d="M0.918884 11.3125C0.918884 11.9479 1.06993 12.5365 1.37201 13.0781C1.67409 13.6198 2.09076 14.0911 2.62201 14.4922C3.15847 14.8932 3.77826 15.2057 4.48138 15.4297C5.18972 15.6536 5.94493 15.7656 6.74701 15.7656C7.90326 15.7656 8.93191 15.5703 9.83295 15.1797C10.7392 14.7839 11.4658 14.2135 12.0126 13.4688C12.5647 14.2135 13.2913 14.7839 14.1923 15.1797C15.0986 15.5703 16.1272 15.7656 17.2783 15.7656C18.0856 15.7656 18.8408 15.6536 19.5439 15.4297C20.247 15.2057 20.8642 14.8932 21.3954 14.4922C21.9319 14.0911 22.3512 13.6198 22.6533 13.0781C22.9606 12.5365 23.1142 11.9479 23.1142 11.3125C23.1142 10.875 23.0491 10.5286 22.9189 10.2734C22.7939 10.0182 22.5986 9.89062 22.3329 9.89062C22.2444 9.89062 22.1533 9.91667 22.0595 9.96875C21.971 10.0208 21.8954 10.0938 21.8329 10.1875C21.4111 10.7917 20.7678 11.0938 19.9033 11.0938C19.4345 11.0938 19.0178 10.9974 18.6533 10.8047C18.2939 10.612 17.9553 10.375 17.6376 10.0938C17.3199 9.80729 16.9918 9.52344 16.6533 9.24219C16.3199 8.95573 15.9449 8.71615 15.5283 8.52344C15.1116 8.33073 14.622 8.23438 14.0595 8.23438C13.3512 8.23438 12.7652 8.42448 12.3017 8.80469C11.8382 9.1849 11.5543 9.70833 11.4501 10.375H12.5751C12.4762 9.70833 12.1949 9.1849 11.7314 8.80469C11.2678 8.42448 10.6793 8.23438 9.96576 8.23438C9.40326 8.23438 8.91368 8.33073 8.49701 8.52344C8.08034 8.71615 7.70274 8.95573 7.3642 9.24219C7.03086 9.52344 6.70534 9.80729 6.38763 10.0938C6.06993 10.375 5.73138 10.612 5.37201 10.8047C5.01263 10.9974 4.59857 11.0938 4.12982 11.0938C3.32253 11.0938 2.67409 10.7891 2.18451 10.1797C2.1168 10.0911 2.03868 10.0208 1.95013 9.96875C1.8668 9.91667 1.78086 9.89062 1.69232 9.89062C1.43191 9.89062 1.23659 10.0182 1.10638 10.2734C0.981384 10.5286 0.918884 10.875 0.918884 11.3125Z"
		fill="currentColor"
	/>
</svg>
