<svg
	color="rgb(var(--foreground, 0, 0, 0))"
	viewBox="0 0 16 24"
	fill="none"
	xmlns="http://www.w3.org/2000/svg"
>
	<path
		d="M0.0751343 16.2617C0.0751343 16.9232 0.218363 17.4987 0.504822 17.9883C0.79128 18.4831 1.19232 18.8659 1.70795 19.1367C2.22878 19.4128 2.83555 19.5508 3.52826 19.5508C3.84076 19.5508 4.15586 19.5013 4.47357 19.4023C4.79128 19.3034 5.05951 19.1706 5.27826 19.0039C5.10638 18.8841 4.94232 18.7487 4.78607 18.5977C4.62982 18.4466 4.45013 18.2435 4.24701 17.9883C4.15847 18.0247 4.0543 18.056 3.93451 18.082C3.81993 18.1081 3.70274 18.1211 3.58295 18.1211C3.26003 18.1211 2.99701 18.0352 2.79388 17.8633C2.59597 17.6966 2.49701 17.4805 2.49701 17.2148C2.49701 16.9596 2.58295 16.7539 2.75482 16.5977C2.9267 16.4362 3.15326 16.3555 3.43451 16.3555C3.6793 16.3555 3.89284 16.4206 4.07513 16.5508C4.26263 16.681 4.44753 16.8477 4.62982 17.0508C4.89545 17.3424 5.16888 17.6315 5.45013 17.918C5.73659 18.2044 6.07513 18.444 6.46576 18.6367C6.86159 18.8294 7.35118 18.9258 7.93451 18.9258C8.51784 18.9258 9.00482 18.8294 9.39545 18.6367C9.78607 18.444 10.1246 18.2044 10.4111 17.918C10.6975 17.6315 10.9736 17.3424 11.2392 17.0508C11.4215 16.8477 11.6038 16.681 11.7861 16.5508C11.9736 16.4206 12.1897 16.3555 12.4345 16.3555C12.7106 16.3555 12.9345 16.4362 13.1064 16.5977C13.2835 16.7539 13.372 16.9596 13.372 17.2148C13.372 17.4805 13.2704 17.6966 13.0673 17.8633C12.8694 18.0352 12.6064 18.1211 12.2783 18.1211C12.1637 18.1211 12.0465 18.1081 11.9267 18.082C11.8121 18.056 11.7079 18.0247 11.6142 17.9883C11.4163 18.2435 11.2366 18.4466 11.0751 18.5977C10.9189 18.7487 10.7574 18.8841 10.5908 19.0039C10.8095 19.1706 11.0751 19.3034 11.3876 19.4023C11.7053 19.5013 12.0231 19.5508 12.3408 19.5508C13.0335 19.5508 13.6376 19.4128 14.1533 19.1367C14.6741 18.8659 15.0777 18.4831 15.3642 17.9883C15.6507 17.4987 15.7939 16.9232 15.7939 16.2617C15.7939 15.6367 15.6507 15.0742 15.3642 14.5742C15.0829 14.069 14.6845 13.6576 14.1689 13.3398C13.6533 13.0169 13.0517 12.819 12.3642 12.7461C12.1663 12.2826 11.9814 11.8086 11.8095 11.3242C11.6376 10.8398 11.4788 10.3503 11.3329 9.85547C11.1871 9.35547 11.0491 8.85807 10.9189 8.36328C10.7939 7.86328 10.6741 7.36849 10.5595 6.87891C10.3824 6.08203 10.0829 5.47786 9.66107 5.06641C9.2392 4.65495 8.66368 4.44922 7.93451 4.44922C7.20534 4.44922 6.62982 4.65495 6.20795 5.06641C5.78607 5.47786 5.48659 6.08203 5.30951 6.87891C5.19493 7.36849 5.07253 7.86328 4.94232 8.36328C4.81732 8.85807 4.6793 9.35547 4.52826 9.85547C4.38243 10.3503 4.22357 10.8398 4.0517 11.3242C3.88503 11.8086 3.70274 12.2826 3.50482 12.7461C2.81211 12.819 2.20795 13.0169 1.69232 13.3398C1.18191 13.6576 0.783468 14.069 0.497009 14.5742C0.215759 15.0742 0.0751343 15.6367 0.0751343 16.2617Z"
		fill="currentColor"
	/>
</svg>
