<svg
	color="rgb(var(--foreground, 0, 0, 0))"
	viewBox="0 0 17 24"
	fill="none"
	xmlns="http://www.w3.org/2000/svg"
>
	<path
		d="M3.80951 19.4336C4.17409 19.4336 4.53607 19.3633 4.89545 19.2227C5.25482 19.082 5.59336 18.8841 5.91107 18.6289L5.10638 17.8164C4.91368 17.9518 4.70795 18.056 4.4892 18.1289C4.27566 18.2018 4.0517 18.2383 3.81732 18.2383C3.40586 18.2383 3.03607 18.1523 2.70795 17.9805C2.38503 17.8086 2.12982 17.5716 1.94232 17.2695C1.75482 16.9674 1.66107 16.6185 1.66107 16.2227C1.66107 15.6497 1.8017 15.1784 2.08295 14.8086C2.36941 14.4336 2.74441 14.168 3.20795 14.0117C3.67149 13.8555 4.1767 13.819 4.72357 13.9023C5.03607 13.2096 5.30691 12.4779 5.53607 11.707C5.76524 10.9362 5.96836 10.1576 6.14545 9.37109C6.32774 8.58464 6.51003 7.81901 6.69232 7.07422C6.80691 6.59505 6.98138 6.22786 7.21576 5.97266C7.45534 5.71745 7.78868 5.58984 8.21576 5.58984C8.63763 5.58984 8.96576 5.71745 9.20013 5.97266C9.43972 6.22786 9.6168 6.59505 9.73138 7.07422C9.91368 7.81901 10.096 8.58464 10.2783 9.37109C10.4606 10.1576 10.6637 10.9362 10.8876 11.707C11.1168 12.4779 11.3902 13.2096 11.7079 13.9023C12.2496 13.819 12.7522 13.8555 13.2158 14.0117C13.6845 14.168 14.0595 14.4336 14.3408 14.8086C14.6272 15.1784 14.7704 15.6497 14.7704 16.2227C14.7704 16.6185 14.6767 16.9674 14.4892 17.2695C14.3017 17.5716 14.0439 17.8086 13.7158 17.9805C13.3928 18.1523 13.0257 18.2383 12.6142 18.2383C12.3798 18.2383 12.1533 18.2018 11.9345 18.1289C11.721 18.056 11.5152 17.9518 11.3173 17.8164L10.5204 18.6289C10.8329 18.8841 11.1689 19.082 11.5283 19.2227C11.8928 19.3633 12.2574 19.4336 12.622 19.4336C13.3147 19.4336 13.9189 19.2956 14.4345 19.0195C14.9553 18.7487 15.359 18.3659 15.6454 17.8711C15.9319 17.3815 16.0751 16.806 16.0751 16.1445C16.0751 15.5195 15.9319 14.957 15.6454 14.457C15.3642 13.9518 14.9658 13.5404 14.4501 13.2227C13.9345 12.8997 13.3329 12.7018 12.6454 12.6289C12.4684 12.1654 12.2991 11.6914 12.1376 11.207C11.9762 10.7227 11.8251 10.2331 11.6845 9.73828C11.5439 9.23828 11.4085 8.74089 11.2783 8.24609C11.1533 7.74609 11.0335 7.2513 10.9189 6.76172C10.7418 5.96484 10.4293 5.36068 9.98138 4.94922C9.53347 4.53776 8.94493 4.33203 8.21576 4.33203C7.48659 4.33203 6.89805 4.53776 6.45013 4.94922C6.00222 5.36068 5.68972 5.96484 5.51263 6.76172C5.39805 7.2513 5.27566 7.74609 5.14545 8.24609C5.02045 8.74089 4.88503 9.23828 4.7392 9.73828C4.59857 10.2331 4.44753 10.7227 4.28607 11.207C4.12982 11.6914 3.96316 12.1654 3.78607 12.6289C3.09336 12.7018 2.4892 12.8997 1.97357 13.2227C1.46316 13.5404 1.06472 13.9518 0.778259 14.457C0.497009 14.957 0.356384 15.5195 0.356384 16.1445C0.356384 16.806 0.499613 17.3815 0.786072 17.8711C1.07253 18.3659 1.47357 18.7487 1.9892 19.0195C2.51003 19.2956 3.1168 19.4336 3.80951 19.4336ZM8.21576 19.668C8.85118 19.668 9.39545 19.582 9.84857 19.4102C10.3017 19.2383 10.6871 19.0143 11.0048 18.7383C11.3225 18.4674 11.596 18.181 11.8251 17.8789C11.997 17.9831 12.1767 18.0352 12.3642 18.0352C12.6767 18.0352 12.9189 17.944 13.0908 17.7617C13.2626 17.5794 13.3486 17.3737 13.3486 17.1445C13.3486 16.9206 13.2678 16.7174 13.1064 16.5352C12.9449 16.3477 12.7184 16.2539 12.4267 16.2539C12.2132 16.2539 12.0335 16.3086 11.8876 16.418C11.747 16.5273 11.5882 16.6758 11.4111 16.8633C11.0882 17.2122 10.7678 17.4961 10.4501 17.7148C10.1324 17.9336 9.79388 18.0951 9.43451 18.1992C9.07513 18.3034 8.66888 18.3555 8.21576 18.3555C7.76263 18.3555 7.35378 18.3034 6.9892 18.1992C6.62982 18.0951 6.29128 17.9336 5.97357 17.7148C5.65586 17.4961 5.33816 17.2122 5.02045 16.8633C4.84336 16.6758 4.68191 16.5273 4.53607 16.418C4.39024 16.3086 4.21316 16.2539 4.00482 16.2539C3.70795 16.2539 3.47878 16.3477 3.31732 16.5352C3.16107 16.7174 3.08295 16.9206 3.08295 17.1445C3.08295 17.3737 3.16888 17.5794 3.34076 17.7617C3.51263 17.944 3.75222 18.0352 4.05951 18.0352C4.24701 18.0352 4.4267 17.9831 4.59857 17.8789C4.83295 18.181 5.10899 18.4674 5.4267 18.7383C5.74441 19.0143 6.12982 19.2383 6.58295 19.4102C7.03607 19.582 7.58034 19.668 8.21576 19.668Z"
		fill="currentColor"
	/>
</svg>
