<svg
	color="rgb(var(--foreground, 0, 0, 0))"
	viewBox="0 0 25 24"
	fill="none"
	xmlns="http://www.w3.org/2000/svg"
>
	<path
		d="M12.5944 17.9922C13.7507 17.9922 14.8106 17.8854 15.7741 17.6719C16.7429 17.4583 17.5814 17.1562 18.2897 16.7656C19.0033 16.3698 19.5528 15.8984 19.9382 15.3516C20.3288 14.8047 20.5241 14.2005 20.5241 13.5391V9.63281C20.5241 8.85156 20.2168 8.19271 19.6022 7.65625C18.9929 7.11458 18.0996 6.70573 16.9225 6.42969C15.7455 6.14844 14.3028 6.00781 12.5944 6.00781C10.8861 6.00781 9.44078 6.14844 8.25848 6.42969C7.0814 6.70573 6.18557 7.11458 5.57098 7.65625C4.96161 8.19271 4.65692 8.85156 4.65692 9.63281V13.5391C4.65692 14.2005 4.84963 14.8047 5.23505 15.3516C5.62567 15.8984 6.17515 16.3698 6.88348 16.7656C7.59703 17.1562 8.43557 17.4583 9.39911 17.6719C10.3679 17.8854 11.433 17.9922 12.5944 17.9922ZM8.36005 10.3203C8.36005 10.1432 8.42255 9.99219 8.54755 9.86719C8.67775 9.73698 8.8314 9.67188 9.00848 9.67188H16.1804C16.3627 9.67188 16.5163 9.73698 16.6413 9.86719C16.7715 9.99219 16.8366 10.1432 16.8366 10.3203C16.8366 10.5026 16.7715 10.6589 16.6413 10.7891C16.5163 10.9141 16.3627 10.9766 16.1804 10.9766H9.00848C8.8314 10.9766 8.67775 10.9141 8.54755 10.7891C8.42255 10.6589 8.36005 10.5026 8.36005 10.3203ZM8.36005 13.3359C8.36005 13.1536 8.42255 13 8.54755 12.875C8.67775 12.7448 8.8314 12.6797 9.00848 12.6797H16.1804C16.3627 12.6797 16.5163 12.7448 16.6413 12.875C16.7715 13 16.8366 13.1536 16.8366 13.3359C16.8366 13.513 16.7715 13.6667 16.6413 13.7969C16.5163 13.9219 16.3627 13.9844 16.1804 13.9844H9.00848C8.8314 13.9844 8.67775 13.9219 8.54755 13.7969C8.42255 13.6667 8.36005 13.513 8.36005 13.3359ZM0.649109 11.1406C0.649109 11.9792 0.839213 12.7214 1.21942 13.3672C1.59963 14.0078 2.13088 14.5104 2.81317 14.875C3.50067 15.2344 4.30275 15.4141 5.21942 15.4141H5.72723V14.1562H5.09442C4.46421 14.1562 3.90953 14.0286 3.43036 13.7734C2.95119 13.513 2.57619 13.1562 2.30536 12.7031C2.03973 12.2448 1.90692 11.724 1.90692 11.1406C1.90692 10.7083 2.0189 10.3672 2.24286 10.1172C2.46682 9.86719 2.78713 9.74219 3.2038 9.74219H5.40692V8.48438H3.2038C2.66213 8.48438 2.20119 8.59115 1.82098 8.80469C1.44078 9.01823 1.14911 9.32292 0.945984 9.71875C0.748067 10.1146 0.649109 10.5885 0.649109 11.1406ZM24.5319 11.1406C24.5319 10.5885 24.4304 10.1146 24.2272 9.71875C24.0293 9.32292 23.7403 9.01823 23.3601 8.80469C22.9799 8.59115 22.5189 8.48438 21.9772 8.48438H19.7741V9.74219H21.9772C22.3939 9.74219 22.7142 9.86719 22.9382 10.1172C23.1621 10.3672 23.2741 10.7083 23.2741 11.1406C23.2741 11.724 23.1387 12.2448 22.8679 12.7031C22.6022 13.1562 22.2299 13.513 21.7507 13.7734C21.2767 14.0286 20.722 14.1562 20.0866 14.1562H19.4538V15.4141H19.9694C20.8809 15.4141 21.6778 15.2344 22.3601 14.875C23.0476 14.5104 23.5814 14.0078 23.9616 13.3672C24.3418 12.7214 24.5319 11.9792 24.5319 11.1406Z"
		fill="currentColor"
	/>
</svg>
