<svg
	color="rgb(var(--foreground, 0, 0, 0))"
	viewBox="0 0 25 24"
	fill="none"
	xmlns="http://www.w3.org/2000/svg"
>
	<path
		d="M12.7116 17.9922C13.8679 17.9922 14.9278 17.8854 15.8913 17.6719C16.86 17.4583 17.6986 17.1562 18.4069 16.7656C19.1205 16.3698 19.6699 15.8984 20.0554 15.3516C20.446 14.8047 20.6413 14.2005 20.6413 13.5391V9.63281C20.6413 8.85156 20.334 8.19271 19.7194 7.65625C19.11 7.11458 18.2168 6.70573 17.0397 6.42969C15.8627 6.14844 14.4199 6.00781 12.7116 6.00781C11.0033 6.00781 9.55796 6.14844 8.37567 6.42969C7.19859 6.70573 6.30275 7.11458 5.68817 7.65625C5.0788 8.19271 4.77411 8.85156 4.77411 9.63281V13.5391C4.77411 14.2005 4.96682 14.8047 5.35223 15.3516C5.74286 15.8984 6.29234 16.3698 7.00067 16.7656C7.71421 17.1562 8.55275 17.4583 9.5163 17.6719C10.485 17.8854 11.5502 17.9922 12.7116 17.9922ZM12.7116 16.7344C11.7429 16.7344 10.8522 16.6562 10.0397 16.5C9.22723 16.3385 8.5215 16.1146 7.92255 15.8281C7.32359 15.5365 6.86005 15.1953 6.53192 14.8047C6.2038 14.4141 6.03973 13.9922 6.03973 13.5391V9.63281C6.03973 9.1224 6.29494 8.69271 6.80536 8.34375C7.32098 7.98958 8.07359 7.72135 9.06317 7.53906C10.058 7.35677 11.2741 7.26562 12.7116 7.26562C14.1439 7.26562 15.3548 7.35677 16.3444 7.53906C17.3392 7.72135 18.0944 7.98958 18.61 8.34375C19.1257 8.69271 19.3835 9.1224 19.3835 9.63281V13.5391C19.3835 13.9922 19.2168 14.4141 18.8835 14.8047C18.5554 15.1953 18.0918 15.5365 17.4929 15.8281C16.8939 16.1146 16.1882 16.3385 15.3757 16.5C14.5632 16.6562 13.6752 16.7344 12.7116 16.7344ZM8.61005 10.3672C8.61005 10.5391 8.66994 10.6875 8.78973 10.8125C8.91473 10.9375 9.06317 11 9.23505 11H16.196C16.3679 11 16.5137 10.9375 16.6335 10.8125C16.7585 10.6875 16.821 10.5391 16.821 10.3672C16.821 10.2005 16.7585 10.0547 16.6335 9.92969C16.5137 9.80469 16.3679 9.74219 16.196 9.74219H9.23505C9.06317 9.74219 8.91473 9.80469 8.78973 9.92969C8.66994 10.0547 8.61005 10.2005 8.61005 10.3672ZM8.61005 13.2891C8.61005 13.4609 8.66994 13.6094 8.78973 13.7344C8.91473 13.8542 9.06317 13.9141 9.23505 13.9141H16.196C16.3679 13.9141 16.5137 13.8542 16.6335 13.7344C16.7585 13.6094 16.821 13.4609 16.821 13.2891C16.821 13.1172 16.7585 12.9688 16.6335 12.8438C16.5137 12.7188 16.3679 12.6562 16.196 12.6562H9.23505C9.06317 12.6562 8.91473 12.7188 8.78973 12.8438C8.66994 12.9688 8.61005 13.1172 8.61005 13.2891ZM0.766296 11.1406C0.766296 11.9792 0.956401 12.7214 1.33661 13.3672C1.71682 14.0078 2.24807 14.5104 2.93036 14.875C3.61786 15.2344 4.41994 15.4141 5.33661 15.4141H5.84442V14.1562H5.21161C4.5814 14.1562 4.02671 14.0286 3.54755 13.7734C3.06838 13.513 2.69338 13.1562 2.42255 12.7031C2.15692 12.2448 2.02411 11.724 2.02411 11.1406C2.02411 10.7083 2.13609 10.3672 2.36005 10.1172C2.584 9.86719 2.90432 9.74219 3.32098 9.74219H5.52411V8.48438H3.32098C2.77932 8.48438 2.31838 8.59115 1.93817 8.80469C1.55796 9.01823 1.2663 9.32292 1.06317 9.71875C0.865255 10.1146 0.766296 10.5885 0.766296 11.1406ZM24.6491 11.1406C24.6491 10.5885 24.5475 10.1146 24.3444 9.71875C24.1465 9.32292 23.8574 9.01823 23.4772 8.80469C23.097 8.59115 22.6361 8.48438 22.0944 8.48438H19.8913V9.74219H22.0944C22.5111 9.74219 22.8314 9.86719 23.0554 10.1172C23.2793 10.3672 23.3913 10.7083 23.3913 11.1406C23.3913 11.724 23.2559 12.2448 22.985 12.7031C22.7194 13.1562 22.347 13.513 21.8679 13.7734C21.3939 14.0286 20.8392 14.1562 20.2038 14.1562H19.571V15.4141H20.0866C20.9981 15.4141 21.7949 15.2344 22.4772 14.875C23.1647 14.5104 23.6986 14.0078 24.0788 13.3672C24.459 12.7214 24.6491 11.9792 24.6491 11.1406Z"
		fill="currentColor"
	/>
</svg>
