<svg
	color="rgb(var(--foreground, 0, 0, 0))"
	viewBox="0 0 11 24"
	fill="none"
	xmlns="http://www.w3.org/2000/svg"
>
	<path
		d="M1.64807 4.85156C1.64807 5.28385 1.76786 5.6224 2.00745 5.86719C2.24703 6.11198 2.57776 6.23438 2.99963 6.23438H8.23401C8.66109 6.23438 8.99443 6.11198 9.23401 5.86719C9.47359 5.6224 9.59338 5.28385 9.59338 4.85156V4.03125C9.59338 3.59896 9.47359 3.26042 9.23401 3.01562C8.99443 2.77083 8.66109 2.64844 8.23401 2.64844H2.99963C2.57776 2.64844 2.24703 2.77083 2.00745 3.01562C1.76786 3.26042 1.64807 3.59896 1.64807 4.03125V4.85156ZM2.74963 4.83594V4.04688C2.74963 3.95312 2.77568 3.88021 2.82776 3.82812C2.88505 3.77083 2.96057 3.74219 3.05432 3.74219H8.17932C8.27828 3.74219 8.3538 3.77083 8.40588 3.82812C8.46318 3.88021 8.49182 3.95312 8.49182 4.04688V4.83594C8.49182 4.92448 8.46318 4.9974 8.40588 5.05469C8.3538 5.11198 8.27828 5.14062 8.17932 5.14062H3.05432C2.96057 5.14062 2.88505 5.11198 2.82776 5.05469C2.77568 4.9974 2.74963 4.92448 2.74963 4.83594ZM3.89026 7.65625V5.80469H2.7887V7.65625H3.89026ZM8.45276 7.65625V5.80469H7.3512V7.65625H8.45276ZM0.265259 18.7891C0.265259 19.3099 0.369425 19.7604 0.577759 20.1406C0.786092 20.526 1.07776 20.8229 1.45276 21.0312C1.83297 21.2448 2.27828 21.3516 2.7887 21.3516H8.45276C8.95797 21.3516 9.40068 21.2448 9.78088 21.0312C10.1611 20.8229 10.4554 20.526 10.6637 20.1406C10.872 19.7604 10.9762 19.3099 10.9762 18.7891V9.92969C10.9762 9.40885 10.872 8.95833 10.6637 8.57812C10.4554 8.19271 10.1611 7.89583 9.78088 7.6875C9.40068 7.47396 8.95797 7.36719 8.45276 7.36719H2.7887C2.27828 7.36719 1.83297 7.47396 1.45276 7.6875C1.07776 7.89583 0.786092 8.19271 0.577759 8.57812C0.369425 8.95833 0.265259 9.40885 0.265259 9.92969V18.7891ZM1.46057 18.7734V9.94531C1.46057 9.52865 1.58557 9.19531 1.83557 8.94531C2.09078 8.69531 2.42932 8.57031 2.8512 8.57031H8.39026C8.81213 8.57031 9.14807 8.69531 9.39807 8.94531C9.65328 9.19531 9.78088 9.52865 9.78088 9.94531V18.7734C9.78088 19.1953 9.65328 19.5312 9.39807 19.7812C9.14807 20.0312 8.81213 20.1562 8.39026 20.1562H2.8512C2.42932 20.1562 2.09078 20.0312 1.83557 19.7812C1.58557 19.5312 1.46057 19.1953 1.46057 18.7734ZM2.70276 14.9141C2.70276 15.0807 2.75224 15.2135 2.8512 15.3125C2.95015 15.4062 3.08036 15.4531 3.24182 15.4531H4.52307V16.7266C4.52307 16.888 4.56995 17.0208 4.6637 17.125C4.76265 17.224 4.89547 17.2734 5.06213 17.2734H6.17151C6.33818 17.2734 6.46838 17.224 6.56213 17.125C6.66109 17.0208 6.71057 16.888 6.71057 16.7266V15.4531H7.99182C8.14807 15.4531 8.27828 15.4062 8.38245 15.3125C8.48661 15.2135 8.5387 15.0807 8.5387 14.9141V13.8047C8.5387 13.638 8.48661 13.5078 8.38245 13.4141C8.27828 13.3151 8.14807 13.2656 7.99182 13.2656H6.71057V11.9922C6.71057 11.8307 6.66109 11.7005 6.56213 11.6016C6.46838 11.5026 6.33818 11.4531 6.17151 11.4531H5.06213C4.89547 11.4531 4.76265 11.5026 4.6637 11.6016C4.56995 11.7005 4.52307 11.8307 4.52307 11.9922V13.2656H3.24182C3.08036 13.2656 2.95015 13.3151 2.8512 13.4141C2.75224 13.5078 2.70276 13.638 2.70276 13.8047V14.9141Z"
		fill="currentColor"
	/>
</svg>
