<svg
	color="rgb(var(--foreground, 0, 0, 0))"
	viewBox="0 0 12 24"
	fill="none"
	xmlns="http://www.w3.org/2000/svg"
>
	<path
		d="M3.71057 6.23438H8.94495C9.37203 6.23438 9.70536 6.11198 9.94495 5.86719C10.1845 5.6224 10.3043 5.28385 10.3043 4.85156V4.03125C10.3043 3.59896 10.1845 3.26042 9.94495 3.01562C9.70536 2.77083 9.37203 2.64844 8.94495 2.64844H3.71057C3.2887 2.64844 2.95797 2.77083 2.71838 3.01562C2.4788 3.26042 2.35901 3.59896 2.35901 4.03125V4.85156C2.35901 5.28385 2.4788 5.6224 2.71838 5.86719C2.95797 6.11198 3.2887 6.23438 3.71057 6.23438ZM3.81213 7.65625H8.8512V5.80469H3.81213V7.65625ZM3.49963 21.3516H9.1637C9.6689 21.3516 10.1116 21.2448 10.4918 21.0312C10.872 20.8229 11.1663 20.526 11.3746 20.1406C11.583 19.7604 11.6871 19.3099 11.6871 18.7891V9.92969C11.6871 9.40885 11.583 8.95833 11.3746 8.57812C11.1663 8.19271 10.872 7.89583 10.4918 7.6875C10.1116 7.47396 9.6689 7.36719 9.1637 7.36719H3.49963C2.98922 7.36719 2.5439 7.47396 2.1637 7.6875C1.7887 7.89583 1.49703 8.19271 1.2887 8.57812C1.08036 8.95833 0.976196 9.40885 0.976196 9.92969V18.7891C0.976196 19.3099 1.08036 19.7604 1.2887 20.1406C1.49703 20.526 1.7887 20.8229 2.1637 21.0312C2.5439 21.2448 2.98922 21.3516 3.49963 21.3516ZM3.31995 14.9297V13.7891C3.31995 13.6172 3.37203 13.4818 3.4762 13.3828C3.58036 13.2839 3.71318 13.2344 3.87463 13.2344H5.20276V11.9141C5.20276 11.7474 5.25224 11.6146 5.3512 11.5156C5.45015 11.4115 5.58557 11.3594 5.75745 11.3594H6.89807C7.06995 11.3594 7.20536 11.4115 7.30432 11.5156C7.40328 11.6146 7.45276 11.7474 7.45276 11.9141V13.2344H8.78088C8.94234 13.2344 9.07515 13.2839 9.17932 13.3828C9.2887 13.4818 9.34338 13.6172 9.34338 13.7891V14.9297C9.34338 15.1016 9.2887 15.237 9.17932 15.3359C9.07515 15.4349 8.94234 15.4844 8.78088 15.4844H7.45276V16.8047C7.45276 16.9714 7.40328 17.1068 7.30432 17.2109C7.20536 17.3151 7.06995 17.3672 6.89807 17.3672H5.75745C5.58557 17.3672 5.45015 17.3151 5.3512 17.2109C5.25224 17.1068 5.20276 16.9714 5.20276 16.8047V15.4844H3.87463C3.71318 15.4844 3.58036 15.4349 3.4762 15.3359C3.37203 15.237 3.31995 15.1016 3.31995 14.9297Z"
		fill="currentColor"
	/>
</svg>
