<svg
	color="rgb(var(--foreground, 0, 0, 0))"
	viewBox="0 0 19 24"
	fill="none"
	xmlns="http://www.w3.org/2000/svg"
>
	<path
		d="M3.18713 19.5703H16.4449C17.2522 19.5703 17.8564 19.3724 18.2574 18.9766C18.6585 18.5807 18.859 17.9844 18.859 17.1875V9.58594C18.859 8.78385 18.6585 8.1875 18.2574 7.79688C17.8564 7.40104 17.2522 7.20312 16.4449 7.20312H3.18713C2.38505 7.20312 1.78088 7.40104 1.37463 7.79688C0.973592 8.1875 0.773071 8.78385 0.773071 9.58594V17.1875C0.773071 17.9844 0.973592 18.5807 1.37463 18.9766C1.78088 19.3724 2.38505 19.5703 3.18713 19.5703ZM5.8512 7.88281H7.06213V6.5C7.06213 6.20312 7.14547 5.97396 7.31213 5.8125C7.4788 5.65104 7.71578 5.57031 8.02307 5.57031H11.609C11.9111 5.57031 12.1455 5.65104 12.3121 5.8125C12.4788 5.97396 12.5621 6.20312 12.5621 6.5V7.86719H13.7731V6.58594C13.7731 5.85156 13.5856 5.3099 13.2106 4.96094C12.8356 4.60677 12.2939 4.42969 11.5856 4.42969H8.0387C7.37203 4.42969 6.84078 4.60677 6.44495 4.96094C6.04911 5.3099 5.8512 5.85156 5.8512 6.58594V7.88281ZM6.14026 14.0781V12.6719C6.14026 12.4688 6.20276 12.3047 6.32776 12.1797C6.45276 12.0495 6.61943 11.9844 6.82776 11.9844H8.42932V10.3984C8.42932 10.1849 8.49182 10.0156 8.61682 9.89062C8.74182 9.76562 8.90588 9.70312 9.10901 9.70312H10.5231C10.7262 9.70312 10.8903 9.76562 11.0153 9.89062C11.1403 10.0156 11.2028 10.1849 11.2028 10.3984V11.9844H12.8043C13.0127 11.9844 13.1793 12.0495 13.3043 12.1797C13.4345 12.3047 13.4996 12.4688 13.4996 12.6719V14.0781C13.4996 14.2865 13.4345 14.4557 13.3043 14.5859C13.1793 14.7109 13.0127 14.7734 12.8043 14.7734H11.2028V16.3594C11.2028 16.5729 11.1403 16.7422 11.0153 16.8672C10.8903 16.9922 10.7262 17.0547 10.5231 17.0547H9.10901C8.90588 17.0547 8.74182 16.9922 8.61682 16.8672C8.49182 16.7422 8.42932 16.5729 8.42932 16.3594V14.7734H6.82776C6.62463 14.7734 6.45797 14.7109 6.32776 14.5859C6.20276 14.4557 6.14026 14.2865 6.14026 14.0781Z"
		fill="currentColor"
	/>
</svg>
