<svg
	color="rgb(var(--foreground, 0, 0, 0))"
	viewBox="0 0 19 24"
	fill="none"
	xmlns="http://www.w3.org/2000/svg"
>
	<path
		d="M3.1012 19.5703H16.359C17.1663 19.5703 17.7705 19.3724 18.1715 18.9766C18.5726 18.5807 18.7731 17.9844 18.7731 17.1875V9.58594C18.7731 8.78385 18.5726 8.1875 18.1715 7.79688C17.7705 7.40104 17.1663 7.20312 16.359 7.20312H3.1012C2.29911 7.20312 1.69495 7.40104 1.2887 7.79688C0.887655 8.1875 0.687134 8.78385 0.687134 9.58594V17.1875C0.687134 17.9844 0.887655 18.5807 1.2887 18.9766C1.69495 19.3724 2.29911 19.5703 3.1012 19.5703ZM3.11682 18.3203C2.73661 18.3203 2.44495 18.2214 2.24182 18.0234C2.0439 17.8255 1.94495 17.526 1.94495 17.125V9.64844C1.94495 9.2474 2.0439 8.94792 2.24182 8.75C2.44495 8.55208 2.73661 8.45312 3.11682 8.45312H16.3434C16.7236 8.45312 17.0127 8.55208 17.2106 8.75C17.4137 8.94792 17.5153 9.2474 17.5153 9.64844V17.125C17.5153 17.526 17.4137 17.8255 17.2106 18.0234C17.0127 18.2214 16.7236 18.3203 16.3434 18.3203H3.11682ZM5.76526 7.88281H6.9762V6.5C6.9762 6.20312 7.05953 5.97396 7.2262 5.8125C7.39286 5.65104 7.62984 5.57031 7.93713 5.57031H11.5231C11.8252 5.57031 12.0595 5.65104 12.2262 5.8125C12.3929 5.97396 12.4762 6.20312 12.4762 6.5V7.86719H13.6871V6.58594C13.6871 5.85156 13.4996 5.3099 13.1246 4.96094C12.7496 4.60677 12.208 4.42969 11.4996 4.42969H7.95276C7.28609 4.42969 6.75484 4.60677 6.35901 4.96094C5.96318 5.3099 5.76526 5.85156 5.76526 6.58594V7.88281ZM6.09338 14.0703C6.09338 14.2734 6.15588 14.4375 6.28088 14.5625C6.40588 14.6875 6.56734 14.75 6.76526 14.75H8.35901V16.3359C8.35901 16.5391 8.4189 16.7031 8.5387 16.8281C8.6637 16.9531 8.82776 17.0156 9.03088 17.0156H10.4293C10.6324 17.0156 10.7939 16.9531 10.9137 16.8281C11.0387 16.7031 11.1012 16.5391 11.1012 16.3359V14.75H12.6949C12.8981 14.75 13.0621 14.6875 13.1871 14.5625C13.3121 14.4375 13.3746 14.2734 13.3746 14.0703V12.6719C13.3746 12.4688 13.3121 12.3073 13.1871 12.1875C13.0621 12.0625 12.8981 12 12.6949 12H11.1012V10.4219C11.1012 10.2135 11.0387 10.0495 10.9137 9.92969C10.7939 9.80469 10.6324 9.74219 10.4293 9.74219H9.03088C8.82776 9.74219 8.6637 9.80469 8.5387 9.92969C8.4189 10.0495 8.35901 10.2135 8.35901 10.4219V12H6.76526C6.56213 12 6.39807 12.0625 6.27307 12.1875C6.15328 12.3073 6.09338 12.4688 6.09338 12.6719V14.0703Z"
		fill="currentColor"
	/>
</svg>
