<svg
	color="rgb(var(--foreground, 0, 0, 0))"
	viewBox="0 0 17 24"
	fill="none"
	xmlns="http://www.w3.org/2000/svg"
>
	<path
		d="M5.43841 9.6485L2.34466 12.7422C1.7405 13.3464 1.33685 13.987 1.13373 14.6641C0.930601 15.336 0.91758 16.0001 1.09466 16.6563C1.27175 17.3073 1.63112 17.9037 2.17279 18.4454C2.71445 18.987 3.31081 19.3464 3.96185 19.5235C4.6181 19.7006 5.28216 19.6876 5.95404 19.4844C6.63112 19.2813 7.27175 18.8777 7.87591 18.2735L10.9697 15.1797L5.43841 9.6485ZM15.0634 5.55475C14.5165 5.01308 13.915 4.6537 13.2587 4.47662C12.6077 4.29954 11.9462 4.31256 11.2744 4.51568C10.6025 4.71881 9.96706 5.12245 9.3681 5.72662L6.26654 8.82037L11.7978 14.3516L14.8915 11.2501C15.4957 10.6511 15.8994 10.0157 16.1025 9.34381C16.3056 8.66673 16.3186 8.00266 16.1415 7.35162C15.9645 6.69537 15.6051 6.09641 15.0634 5.55475Z"
		fill="currentColor"
	/>
</svg>
