<svg
	color="rgb(var(--foreground, 0, 0, 0))"
	viewBox="0 0 16 24"
	fill="none"
	xmlns="http://www.w3.org/2000/svg"
>
	<path
		d="M1.75149 18.5C2.16816 18.9115 2.61608 19.2188 3.09524 19.4219C3.57962 19.6302 4.07702 19.7292 4.58743 19.7188C5.10306 19.7136 5.61347 19.5938 6.11868 19.3594C6.62389 19.1302 7.10566 18.7865 7.56399 18.3281L14.5874 11.3047C15.0458 10.8464 15.3895 10.3672 15.6187 9.8672C15.8479 9.36199 15.9651 8.85418 15.9703 8.34376C15.9807 7.82814 15.8817 7.32814 15.6734 6.84376C15.4703 6.35939 15.163 5.91147 14.7515 5.50001C14.34 5.08855 13.8921 4.78126 13.4077 4.57814C12.9234 4.3698 12.4234 4.27084 11.9077 4.28126C11.3973 4.29168 10.8895 4.41147 10.3843 4.64064C9.8791 4.8698 9.39993 5.21355 8.94681 5.67189L1.92337 12.6875C1.46504 13.1458 1.12129 13.6276 0.89212 14.1328C0.662953 14.638 0.543161 15.1484 0.532745 15.6641C0.522328 16.1745 0.618682 16.6719 0.821807 17.1563C1.03014 17.6406 1.34004 18.0886 1.75149 18.5ZM2.57962 17.6797C2.18899 17.2891 1.9416 16.8594 1.83743 16.3906C1.73327 15.9167 1.76452 15.4375 1.93118 14.9531C2.10306 14.4636 2.39993 14.0052 2.82181 13.5781L9.82962 6.57032C10.2515 6.14324 10.7046 5.84637 11.189 5.6797C11.6734 5.51303 12.1525 5.48178 12.6265 5.58595C13.1005 5.69012 13.5353 5.93751 13.9312 6.32814C14.3218 6.71355 14.5692 7.14324 14.6734 7.6172C14.7827 8.09116 14.7515 8.57293 14.5796 9.06251C14.413 9.54689 14.1135 10.0026 13.6812 10.4297L6.68118 17.4375C6.25931 17.8594 5.80618 18.1537 5.32181 18.3203C4.83743 18.4922 4.35566 18.5261 3.87649 18.4219C3.40254 18.3177 2.97024 18.0703 2.57962 17.6797ZM5.54056 10.1172L10.1577 14.7344L10.9937 13.8984L6.36868 9.28126L5.54056 10.1172Z"
		fill="currentColor"
	/>
</svg>
