<svg
	color="rgb(var(--foreground, 0, 0, 0))"
	viewBox="0 0 19 24"
	fill="none"
	xmlns="http://www.w3.org/2000/svg"
>
	<path
		d="M1.04755 20.6716C1.15172 20.7706 1.27672 20.8175 1.42255 20.8123C1.56838 20.8123 1.69599 20.7602 1.80536 20.656L5.65693 16.8044L4.90693 16.0466L1.04755 19.906C0.943384 20.0102 0.888696 20.1352 0.883488 20.281C0.87828 20.432 0.932967 20.5623 1.04755 20.6716ZM10.946 6.64819L9.94599 7.64819L11.8522 9.56226C11.9199 9.62996 11.9538 9.7159 11.9538 9.82007C11.959 9.92424 11.9252 10.0102 11.8522 10.0779C11.7793 10.1456 11.6934 10.1794 11.5944 10.1794C11.5007 10.1794 11.4173 10.1456 11.3444 10.0779L9.43036 8.16382L8.32099 9.27319L10.2272 11.1794C10.3002 11.2524 10.3366 11.3409 10.3366 11.4451C10.3366 11.544 10.3028 11.6274 10.2351 11.6951C10.1621 11.768 10.0762 11.8044 9.97724 11.8044C9.87828 11.8044 9.79234 11.768 9.71943 11.6951L7.81318 9.78101L6.68818 10.8982L8.60224 12.8123C8.66995 12.88 8.7038 12.9659 8.7038 13.0701C8.70901 13.169 8.67776 13.2524 8.61005 13.3201C8.53713 13.393 8.4512 13.4294 8.35224 13.4294C8.25328 13.4294 8.16734 13.393 8.09443 13.3201L6.18036 11.406L5.07099 12.5232L6.98505 14.4216C7.05276 14.4945 7.08661 14.5805 7.08661 14.6794C7.08661 14.7784 7.05536 14.8617 6.99286 14.9294C6.91474 15.0128 6.8262 15.0544 6.72724 15.0544C6.63349 15.0544 6.54755 15.0154 6.46943 14.9373L4.56318 13.031L3.71161 13.8748C3.31057 14.2758 3.10484 14.6977 3.09443 15.1404C3.08922 15.5831 3.27411 15.9945 3.64911 16.3748L5.36005 18.0935C5.73505 18.4685 6.14651 18.6482 6.59443 18.6326C7.04234 18.6222 7.46682 18.4164 7.86786 18.0154L15.0866 10.7888L10.946 6.64819ZM10.7351 5.20288L16.5476 11.0154C16.6673 11.1352 16.8132 11.1951 16.9851 11.1951C17.1621 11.1951 17.3106 11.1352 17.4304 11.0154C17.5554 10.8904 17.6179 10.7419 17.6179 10.5701C17.6179 10.393 17.5554 10.2445 17.4304 10.1248L16.5944 9.28882L16.9147 8.96851C17.0345 8.84871 17.0944 8.70288 17.0944 8.53101C17.0996 8.35392 17.0397 8.20549 16.9147 8.08569L15.7819 6.95288L16.7585 5.97632L17.696 6.91382C17.8158 7.03361 17.9616 7.09351 18.1335 7.09351C18.3106 7.09351 18.459 7.03361 18.5788 6.91382C18.7038 6.78882 18.7663 6.64038 18.7663 6.46851C18.7663 6.29142 18.7038 6.14299 18.5788 6.02319L15.9304 3.37476C15.8106 3.24976 15.6621 3.18726 15.4851 3.18726C15.3132 3.18726 15.1647 3.24976 15.0397 3.37476C14.9199 3.49455 14.8601 3.64299 14.8601 3.82007C14.8601 3.99194 14.9199 4.13778 15.0397 4.25757L15.9851 5.19507L15.0085 6.17163L13.6647 4.82788C13.5397 4.70809 13.3887 4.64819 13.2116 4.64819C13.0397 4.64819 12.8939 4.70809 12.7741 4.82788L12.4538 5.14819L11.6257 4.32007C11.4955 4.18986 11.3444 4.12736 11.1726 4.13257C11.0059 4.13257 10.8601 4.19507 10.7351 4.32007C10.6153 4.43986 10.5528 4.58569 10.5476 4.75757C10.5423 4.92424 10.6048 5.07267 10.7351 5.20288Z"
		fill="currentColor"
	/>
</svg>
