<svg
	color="rgb(var(--foreground, 0, 0, 0))"
	viewBox="0 0 18 24"
	fill="none"
	xmlns="http://www.w3.org/2000/svg"
>
	<path
		d="M0.164402 20.6716C0.268569 20.7706 0.393569 20.8175 0.539402 20.8123C0.685236 20.8123 0.81284 20.7602 0.922215 20.656L4.2894 17.2888L3.53159 16.5388L0.164402 19.906C0.0602355 20.0102 0.00554801 20.1352 0.000339674 20.281C-0.00486866 20.432 0.0498188 20.5623 0.164402 20.6716ZM2.87534 16.4919L4.37534 17.9763C4.77117 18.3669 5.21909 18.557 5.71909 18.5466C6.21909 18.5362 6.67742 18.3227 7.09409 17.906L15.2972 9.70288L14.4066 8.81226L6.21128 17.0154C6.06024 17.1664 5.88836 17.2393 5.69565 17.2341C5.50815 17.2289 5.33367 17.1456 5.17221 16.9841L3.85971 15.6794C3.69826 15.5232 3.61753 15.3513 3.61753 15.1638C3.61753 14.9711 3.69565 14.7966 3.8519 14.6404L12.0472 6.45288L11.1488 5.55444L2.94565 13.7654C2.52378 14.1925 2.30503 14.656 2.2894 15.156C2.27899 15.656 2.4743 16.1013 2.87534 16.4919ZM4.14096 12.9451L6.06284 14.8748C6.14096 14.9529 6.2269 14.9919 6.32065 14.9919C6.41961 14.9867 6.50815 14.9451 6.58628 14.8669C6.65399 14.7992 6.68524 14.7159 6.68003 14.6169C6.68003 14.518 6.64617 14.432 6.57846 14.3591L4.64878 12.4451L4.14096 12.9451ZM5.76596 11.3357L7.68784 13.2576C7.76076 13.3305 7.84669 13.3669 7.94565 13.3669C8.04461 13.3669 8.13055 13.3305 8.20346 13.2576C8.27117 13.1899 8.30242 13.1065 8.29721 13.0076C8.29721 12.9034 8.26336 12.8175 8.19565 12.7498L6.27378 10.8279L5.76596 11.3357ZM7.39096 9.70288L9.31284 11.6326C9.38576 11.7055 9.47169 11.7419 9.57065 11.7419C9.66961 11.7419 9.75555 11.7055 9.82846 11.6326C9.89617 11.5649 9.93003 11.4815 9.93003 11.3826C9.93003 11.2784 9.89357 11.1899 9.82065 11.1169L7.89878 9.19507L7.39096 9.70288ZM9.01596 8.08569L10.9378 10.0154C11.0108 10.0831 11.0941 10.1169 11.1878 10.1169C11.2868 10.1169 11.3727 10.0831 11.4457 10.0154C11.5186 9.94767 11.5524 9.86174 11.5472 9.75757C11.5472 9.6534 11.5134 9.56746 11.4457 9.49976L9.51596 7.57788L9.01596 8.08569ZM9.8519 5.20288L15.6644 11.0154C15.7842 11.1352 15.93 11.1951 16.1019 11.1951C16.279 11.1951 16.4274 11.1352 16.5472 11.0154C16.6722 10.8904 16.7347 10.7419 16.7347 10.5701C16.7347 10.393 16.6722 10.2445 16.5472 10.1248L10.7425 4.32007C10.6123 4.18986 10.4613 4.12736 10.2894 4.13257C10.1227 4.13257 9.9769 4.19507 9.8519 4.32007C9.73211 4.43986 9.66961 4.58569 9.6644 4.75757C9.65919 4.92424 9.72169 5.07267 9.8519 5.20288ZM11.3363 5.38257L15.4691 9.53101L16.0316 8.96851C16.1514 8.84871 16.2113 8.70288 16.2113 8.53101C16.2165 8.35392 16.1566 8.20549 16.0316 8.08569L14.8988 6.95288L15.8753 5.97632L16.8128 6.91382C16.9326 7.03361 17.0785 7.09351 17.2503 7.09351C17.4274 7.09351 17.5759 7.03361 17.6957 6.91382C17.8207 6.78882 17.8832 6.64038 17.8832 6.46851C17.8832 6.29142 17.8207 6.14299 17.6957 6.02319L15.0472 3.37476C14.9274 3.24976 14.779 3.18726 14.6019 3.18726C14.43 3.18726 14.2816 3.24976 14.1566 3.37476C14.0368 3.49455 13.9769 3.64299 13.9769 3.82007C13.9769 3.99194 14.0368 4.13778 14.1566 4.25757L15.1019 5.19507L14.1253 6.17163L12.7816 4.82788C12.6566 4.70809 12.5055 4.64819 12.3285 4.64819C12.1566 4.64819 12.0108 4.70809 11.891 4.82788L11.3363 5.38257Z"
		fill="currentColor"
	/>
</svg>
