<svg
	color="rgb(var(--foreground, 0, 0, 0))"
	viewBox="0 0 17 24"
	fill="none"
	xmlns="http://www.w3.org/2000/svg"
>
	<path
		d="M5.82812 15.6055C5.61979 15.6055 5.46354 15.556 5.35938 15.457C5.26042 15.3529 5.21094 15.194 5.21094 14.9805V9.01172C5.21094 8.80339 5.26042 8.64974 5.35938 8.55078C5.46354 8.44661 5.61979 8.39453 5.82812 8.39453H11.8125C12.0208 8.39453 12.1745 8.44661 12.2734 8.55078C12.3776 8.64974 12.4297 8.80339 12.4297 9.01172V14.9805C12.4297 15.194 12.3776 15.3529 12.2734 15.457C12.1745 15.556 12.0208 15.6055 11.8125 15.6055H5.82812ZM6.46875 14.543H11.1641C11.2995 14.543 11.3672 14.4779 11.3672 14.3477V9.65234C11.3672 9.52214 11.2995 9.45703 11.1641 9.45703H6.46875C6.33854 9.45703 6.27344 9.52214 6.27344 9.65234V14.3477C6.27344 14.4779 6.33854 14.543 6.46875 14.543ZM3.01562 18.4258H14.625C14.8125 18.4258 14.9635 18.3685 15.0781 18.2539C15.1927 18.1445 15.25 17.9961 15.25 17.8086V6.19141C15.25 6.00391 15.1927 5.85286 15.0781 5.73828C14.9635 5.6237 14.8125 5.56641 14.625 5.56641H3.01562C2.82812 5.56641 2.67708 5.6237 2.5625 5.73828C2.44792 5.85286 2.39062 6.00391 2.39062 6.19141V17.8086C2.39062 17.9961 2.44792 18.1445 2.5625 18.2539C2.67708 18.3685 2.82812 18.4258 3.01562 18.4258ZM6.85938 17.3242H5.60156V19.1758C5.60156 19.3633 5.65885 19.5143 5.77344 19.6289C5.88802 19.7435 6.03906 19.8008 6.22656 19.8008C6.41406 19.8008 6.5651 19.7435 6.67969 19.6289C6.79948 19.5143 6.85938 19.3633 6.85938 19.1758V17.3242ZM9.44531 17.3242H8.1875V19.1758C8.1875 19.3633 8.24479 19.5143 8.35938 19.6289C8.47917 19.7435 8.63281 19.8008 8.82031 19.8008C9.00781 19.8008 9.15885 19.7435 9.27344 19.6289C9.38802 19.5143 9.44531 19.3633 9.44531 19.1758V17.3242ZM12.0625 17.3242H10.8047V19.1758C10.8047 19.3633 10.862 19.5143 10.9766 19.6289C11.0911 19.7435 11.2422 19.8008 11.4297 19.8008C11.6172 19.8008 11.7682 19.7435 11.8828 19.6289C12.0026 19.5143 12.0625 19.3633 12.0625 19.1758V17.3242ZM14.1484 13.9492V15.207H15.9922C16.1797 15.207 16.3307 15.1497 16.4453 15.0352C16.5651 14.9154 16.625 14.7617 16.625 14.5742C16.625 14.3867 16.5651 14.2357 16.4453 14.1211C16.3307 14.0065 16.1797 13.9492 15.9922 13.9492H14.1484ZM14.1484 11.3555V12.6133H15.9922C16.1797 12.6133 16.3307 12.556 16.4453 12.4414C16.5651 12.3268 16.625 12.1758 16.625 11.9883C16.625 11.8008 16.5651 11.6497 16.4453 11.5352C16.3307 11.4154 16.1797 11.3555 15.9922 11.3555H14.1484ZM14.1484 8.76953V10.0273H15.9922C16.1797 10.0273 16.3307 9.97005 16.4453 9.85547C16.5651 9.73568 16.625 9.58203 16.625 9.39453C16.625 9.20703 16.5651 9.05599 16.4453 8.94141C16.3307 8.82682 16.1797 8.76953 15.9922 8.76953H14.1484ZM10.7812 6.66797H12.0391V4.82422C12.0391 4.63672 11.9792 4.48568 11.8594 4.37109C11.7448 4.25651 11.5938 4.19922 11.4062 4.19922C11.2188 4.19922 11.0677 4.25651 10.9531 4.37109C10.8385 4.48568 10.7812 4.63672 10.7812 4.82422V6.66797ZM8.1875 6.66797H9.44531V4.82422C9.44531 4.63672 9.38802 4.48568 9.27344 4.37109C9.15885 4.25651 9.00781 4.19922 8.82031 4.19922C8.63281 4.19922 8.47917 4.25651 8.35938 4.37109C8.24479 4.48568 8.1875 4.63672 8.1875 4.82422V6.66797ZM5.60156 6.66797H6.85938V4.82422C6.85938 4.63672 6.79948 4.48568 6.67969 4.37109C6.5651 4.25651 6.41406 4.19922 6.22656 4.19922C6.03906 4.19922 5.88802 4.25651 5.77344 4.37109C5.65885 4.48568 5.60156 4.63672 5.60156 4.82422V6.66797ZM3.49219 10.0352V8.77734H1.55469C1.36719 8.77734 1.21615 8.83464 1.10156 8.94922C0.986979 9.0638 0.929688 9.21484 0.929688 9.40234C0.929688 9.58984 0.986979 9.74349 1.10156 9.86328C1.21615 9.97786 1.36719 10.0352 1.55469 10.0352H3.49219ZM3.49219 12.6211V11.3633H1.55469C1.36719 11.3633 1.21615 11.4232 1.10156 11.543C0.986979 11.6576 0.929688 11.8086 0.929688 11.9961C0.929688 12.1836 0.986979 12.3346 1.10156 12.4492C1.21615 12.5638 1.36719 12.6211 1.55469 12.6211H3.49219ZM3.49219 15.2148V13.957H1.55469C1.36719 13.957 1.21615 14.0143 1.10156 14.1289C0.986979 14.2435 0.929688 14.3945 0.929688 14.582C0.929688 14.7695 0.986979 14.9232 1.10156 15.043C1.21615 15.1576 1.36719 15.2148 1.55469 15.2148H3.49219Z"
		fill="currentColor"
	/>
</svg>
