<svg
	color="rgb(var(--foreground, 0, 0, 0))"
	viewBox="0 0 16 24"
	fill="none"
	xmlns="http://www.w3.org/2000/svg"
>
	<path
		d="M5.21875 15.4961H11.0312C11.4271 15.4961 11.625 15.2956 11.625 14.8945V9.09766C11.625 8.70182 11.4271 8.50391 11.0312 8.50391H5.21875C4.82292 8.50391 4.625 8.70182 4.625 9.09766V14.8945C4.625 15.2956 4.82292 15.4961 5.21875 15.4961ZM5.83594 14.4727C5.71094 14.4727 5.64844 14.4102 5.64844 14.2852V9.71484C5.64844 9.58984 5.71094 9.52734 5.83594 9.52734H10.4062C10.5365 9.52734 10.6016 9.58984 10.6016 9.71484V14.2852C10.6016 14.4102 10.5365 14.4727 10.4062 14.4727H5.83594ZM2.32031 18.4258H13.9297C14.1172 18.4258 14.2682 18.3685 14.3828 18.2539C14.4974 18.1445 14.5547 17.9961 14.5547 17.8086V6.19141C14.5547 6.00391 14.4974 5.85286 14.3828 5.73828C14.2682 5.6237 14.1172 5.56641 13.9297 5.56641H2.32031C2.13281 5.56641 1.98177 5.6237 1.86719 5.73828C1.7526 5.85286 1.69531 6.00391 1.69531 6.19141V17.8086C1.69531 17.9961 1.7526 18.1445 1.86719 18.2539C1.98177 18.3685 2.13281 18.4258 2.32031 18.4258ZM3.17969 17.168C3.02865 17.168 2.95312 17.0924 2.95312 16.9414V7.05859C2.95312 6.90234 3.02865 6.82422 3.17969 6.82422H13.0703C13.2214 6.82422 13.2969 6.90234 13.2969 7.05859V16.9414C13.2969 17.0924 13.2214 17.168 13.0703 17.168H3.17969ZM6.16406 17.3711H4.90625V19.1758C4.90625 19.3633 4.96354 19.5143 5.07812 19.6289C5.19271 19.7435 5.34375 19.8008 5.53125 19.8008C5.71875 19.8008 5.86979 19.7435 5.98438 19.6289C6.10417 19.5143 6.16406 19.3633 6.16406 19.1758V17.3711ZM8.75 17.3711H7.49219V19.1758C7.49219 19.3633 7.54948 19.5143 7.66406 19.6289C7.78385 19.7435 7.9375 19.8008 8.125 19.8008C8.3125 19.8008 8.46354 19.7435 8.57812 19.6289C8.69271 19.5143 8.75 19.3633 8.75 19.1758V17.3711ZM11.3672 17.3711H10.1094V19.1758C10.1094 19.3633 10.1667 19.5143 10.2812 19.6289C10.3958 19.7435 10.5469 19.8008 10.7344 19.8008C10.9219 19.8008 11.0729 19.7435 11.1875 19.6289C11.3073 19.5143 11.3672 19.3633 11.3672 19.1758V17.3711ZM13.4922 13.9492V15.207H15.2969C15.4844 15.207 15.6354 15.1497 15.75 15.0352C15.8698 14.9154 15.9297 14.7617 15.9297 14.5742C15.9297 14.3867 15.8698 14.2357 15.75 14.1211C15.6354 14.0065 15.4844 13.9492 15.2969 13.9492H13.4922ZM13.4922 11.3555V12.6133H15.2969C15.4844 12.6133 15.6354 12.556 15.75 12.4414C15.8698 12.3268 15.9297 12.1758 15.9297 11.9883C15.9297 11.8008 15.8698 11.6497 15.75 11.5352C15.6354 11.4154 15.4844 11.3555 15.2969 11.3555H13.4922ZM13.4922 8.76953V10.0273H15.2969C15.4844 10.0273 15.6354 9.97005 15.75 9.85547C15.8698 9.73568 15.9297 9.58203 15.9297 9.39453C15.9297 9.20703 15.8698 9.05599 15.75 8.94141C15.6354 8.82682 15.4844 8.76953 15.2969 8.76953H13.4922ZM10.0859 6.62891H11.3438V4.82422C11.3438 4.63672 11.2839 4.48568 11.1641 4.37109C11.0495 4.25651 10.8984 4.19922 10.7109 4.19922C10.5234 4.19922 10.3724 4.25651 10.2578 4.37109C10.1432 4.48568 10.0859 4.63672 10.0859 4.82422V6.62891ZM7.49219 6.62891H8.75V4.82422C8.75 4.63672 8.69271 4.48568 8.57812 4.37109C8.46354 4.25651 8.3125 4.19922 8.125 4.19922C7.9375 4.19922 7.78385 4.25651 7.66406 4.37109C7.54948 4.48568 7.49219 4.63672 7.49219 4.82422V6.62891ZM4.90625 6.62891H6.16406V4.82422C6.16406 4.63672 6.10417 4.48568 5.98438 4.37109C5.86979 4.25651 5.71875 4.19922 5.53125 4.19922C5.34375 4.19922 5.19271 4.25651 5.07812 4.37109C4.96354 4.48568 4.90625 4.63672 4.90625 4.82422V6.62891ZM2.75 10.0352V8.77734H0.859375C0.671875 8.77734 0.520833 8.83464 0.40625 8.94922C0.291667 9.0638 0.234375 9.21484 0.234375 9.40234C0.234375 9.58984 0.291667 9.74349 0.40625 9.86328C0.520833 9.97786 0.671875 10.0352 0.859375 10.0352H2.75ZM2.75 12.6211V11.3633H0.859375C0.671875 11.3633 0.520833 11.4232 0.40625 11.543C0.291667 11.6576 0.234375 11.8086 0.234375 11.9961C0.234375 12.1836 0.291667 12.3346 0.40625 12.4492C0.520833 12.5638 0.671875 12.6211 0.859375 12.6211H2.75ZM2.75 15.2148V13.957H0.859375C0.671875 13.957 0.520833 14.0143 0.40625 14.1289C0.291667 14.2435 0.234375 14.3945 0.234375 14.582C0.234375 14.7695 0.291667 14.9232 0.40625 15.043C0.520833 15.1576 0.671875 15.2148 0.859375 15.2148H2.75Z"
		fill="currentColor"
	/>
</svg>
