<svg
	color="rgb(var(--foreground, 0, 0, 0))"
	viewBox="0 0 15 24"
	fill="none"
	xmlns="http://www.w3.org/2000/svg"
>
	<path
		d="M7.51562 15.2695C8.40625 15.2695 9.27083 15.1862 10.1094 15.0195C10.9531 14.8477 11.7161 14.6133 12.3984 14.3164C13.0859 14.0143 13.638 13.668 14.0547 13.2773L13.4688 12.3398C13.0729 12.6836 12.5599 12.9883 11.9297 13.2539C11.2995 13.5143 10.6042 13.7201 9.84375 13.8711C9.08333 14.0169 8.30729 14.0898 7.51562 14.0898C6.72396 14.0898 5.94531 14.0169 5.17969 13.8711C4.41927 13.7201 3.72396 13.5143 3.09375 13.2539C2.46875 12.9883 1.95833 12.6836 1.5625 12.3398L0.976562 13.2773C1.39323 13.668 1.94271 14.0143 2.625 14.3164C3.30729 14.6133 4.07031 14.8477 4.91406 15.0195C5.75781 15.1862 6.625 15.2695 7.51562 15.2695ZM7.51562 20.2305C8.85938 20.2305 10.0339 20.0742 11.0391 19.7617C12.0495 19.4492 12.8333 19.0143 13.3906 18.457C13.9531 17.9049 14.2344 17.2695 14.2344 16.5508V7.09766H12.9766V16.5508C12.9766 17.0299 12.7474 17.457 12.2891 17.832C11.8359 18.2122 11.2005 18.5091 10.3828 18.7227C9.5651 18.9414 8.60938 19.0508 7.51562 19.0508C6.42188 19.0508 5.46615 18.9414 4.64844 18.7227C3.83073 18.5091 3.19271 18.2122 2.73438 17.832C2.28125 17.457 2.05469 17.0299 2.05469 16.5508V7.09766H0.796875V16.5508C0.796875 17.2695 1.07552 17.9049 1.63281 18.457C2.19531 19.0143 2.97917 19.4492 3.98438 19.7617C4.99479 20.0742 6.17188 20.2305 7.51562 20.2305ZM7.51562 10.418C8.85938 10.418 10.0339 10.2773 11.0391 9.99609C12.0495 9.71484 12.8333 9.32682 13.3906 8.83203C13.9531 8.33203 14.2344 7.75391 14.2344 7.09766C14.2344 6.44141 13.9531 5.86328 13.3906 5.36328C12.8333 4.86328 12.0495 4.47266 11.0391 4.19141C10.0339 3.91016 8.85938 3.76953 7.51562 3.76953C6.17188 3.76953 4.99479 3.91016 3.98438 4.19141C2.97917 4.47266 2.19531 4.86328 1.63281 5.36328C1.07552 5.86328 0.796875 6.44141 0.796875 7.09766C0.796875 7.75391 1.07552 8.33203 1.63281 8.83203C2.19531 9.32682 2.97917 9.71484 3.98438 9.99609C4.99479 10.2773 6.17188 10.418 7.51562 10.418ZM7.51562 9.23828C6.42188 9.23828 5.46615 9.14714 4.64844 8.96484C3.83073 8.78255 3.19271 8.52995 2.73438 8.20703C2.28125 7.88411 2.05469 7.51432 2.05469 7.09766C2.05469 6.66016 2.28125 6.27474 2.73438 5.94141C3.19271 5.60807 3.83073 5.34766 4.64844 5.16016C5.46615 4.96745 6.42188 4.87109 7.51562 4.87109C8.60938 4.87109 9.5651 4.96745 10.3828 5.16016C11.2005 5.34766 11.8359 5.60807 12.2891 5.94141C12.7474 6.27474 12.9766 6.66016 12.9766 7.09766C12.9766 7.51432 12.7474 7.88411 12.2891 8.20703C11.8359 8.52995 11.2005 8.78255 10.3828 8.96484C9.5651 9.14714 8.60938 9.23828 7.51562 9.23828Z"
		fill="currentColor"
	/>
</svg>
