<svg
	color="rgb(var(--foreground, 0, 0, 0))"
	viewBox="0 0 18 24"
	fill="none"
	xmlns="http://www.w3.org/2000/svg"
>
	<path
		d="M3.07812 17.2617H14.9141C15.7318 17.2617 16.3438 17.0612 16.75 16.6602C17.1615 16.2539 17.3672 15.6471 17.3672 14.8398V9.16016C17.3672 8.35286 17.1615 7.7487 16.75 7.34766C16.3438 6.94141 15.7318 6.73828 14.9141 6.73828H3.07812C2.26042 6.73828 1.64583 6.94141 1.23438 7.34766C0.828125 7.7487 0.625 8.35286 0.625 9.16016V14.8398C0.625 15.6471 0.828125 16.2539 1.23438 16.6602C1.64583 17.0612 2.26042 17.2617 3.07812 17.2617ZM3.09375 16.0039C2.70312 16.0039 2.40365 15.9023 2.19531 15.6992C1.98698 15.4909 1.88281 15.1836 1.88281 14.7773V9.22266C1.88281 8.81641 1.98698 8.51172 2.19531 8.30859C2.40365 8.10026 2.70312 7.99609 3.09375 7.99609H14.8984C15.2839 7.99609 15.5807 8.10026 15.7891 8.30859C16.0026 8.51172 16.1094 8.81641 16.1094 9.22266V14.7773C16.1094 15.1836 16.0026 15.4909 15.7891 15.6992C15.5807 15.9023 15.2839 16.0039 14.8984 16.0039H3.09375ZM3.32031 7.25391H4.57812V5.83203C4.57812 5.64453 4.51823 5.49349 4.39844 5.37891C4.28385 5.26432 4.13281 5.20703 3.94531 5.20703C3.75781 5.20703 3.60677 5.26432 3.49219 5.37891C3.3776 5.49349 3.32031 5.64453 3.32031 5.83203V7.25391ZM5.84375 7.25391H7.10156V5.83203C7.10156 5.64453 7.04167 5.49349 6.92188 5.37891C6.80729 5.26432 6.65625 5.20703 6.46875 5.20703C6.28125 5.20703 6.13021 5.26432 6.01562 5.37891C5.90104 5.49349 5.84375 5.64453 5.84375 5.83203V7.25391ZM8.36719 7.25391H9.625V5.83203C9.625 5.64453 9.5651 5.49349 9.44531 5.37891C9.33073 5.26432 9.17969 5.20703 8.99219 5.20703C8.80469 5.20703 8.65365 5.26432 8.53906 5.37891C8.42448 5.49349 8.36719 5.64453 8.36719 5.83203V7.25391ZM10.8906 7.25391H12.1484V5.83203C12.1484 5.64453 12.0911 5.49349 11.9766 5.37891C11.862 5.26432 11.7109 5.20703 11.5234 5.20703C11.3359 5.20703 11.1823 5.26432 11.0625 5.37891C10.9479 5.49349 10.8906 5.64453 10.8906 5.83203V7.25391ZM13.4141 7.25391H14.6719V5.83203C14.6719 5.64453 14.6146 5.49349 14.5 5.37891C14.3854 5.26432 14.2344 5.20703 14.0469 5.20703C13.8594 5.20703 13.7057 5.26432 13.5859 5.37891C13.4714 5.49349 13.4141 5.64453 13.4141 5.83203V7.25391ZM3.32031 16.7617V18.1602C3.32031 18.3477 3.3776 18.4987 3.49219 18.6133C3.60677 18.7331 3.75781 18.793 3.94531 18.793C4.13281 18.793 4.28385 18.7331 4.39844 18.6133C4.51823 18.4987 4.57812 18.3477 4.57812 18.1602V16.7617H3.32031ZM5.84375 16.7617V18.1602C5.84375 18.3477 5.90104 18.4987 6.01562 18.6133C6.13021 18.7331 6.28125 18.793 6.46875 18.793C6.65625 18.793 6.80729 18.7331 6.92188 18.6133C7.04167 18.4987 7.10156 18.3477 7.10156 18.1602V16.7617H5.84375ZM8.36719 16.7617V18.1602C8.36719 18.3477 8.42448 18.4987 8.53906 18.6133C8.65365 18.7331 8.80469 18.793 8.99219 18.793C9.17969 18.793 9.33073 18.7331 9.44531 18.6133C9.5651 18.4987 9.625 18.3477 9.625 18.1602V16.7617H8.36719ZM10.8906 16.7617V18.1602C10.8906 18.3477 10.9479 18.4987 11.0625 18.6133C11.1823 18.7331 11.3359 18.793 11.5234 18.793C11.7109 18.793 11.862 18.7331 11.9766 18.6133C12.0911 18.4987 12.1484 18.3477 12.1484 18.1602V16.7617H10.8906ZM13.4141 16.7617V18.1602C13.4141 18.3477 13.4714 18.4987 13.5859 18.6133C13.7057 18.7331 13.8594 18.793 14.0469 18.793C14.2344 18.793 14.3854 18.7331 14.5 18.6133C14.6146 18.4987 14.6719 18.3477 14.6719 18.1602V16.7617H13.4141Z"
		fill="currentColor"
	/>
</svg>
