<svg
	color="rgb(var(--foreground, 0, 0, 0))"
	viewBox="0 0 22 24"
	fill="none"
	xmlns="http://www.w3.org/2000/svg"
>
	<path
		d="M6.07034 15.7578H7.13284C7.2943 15.7578 7.42711 15.7135 7.53128 15.625C7.64066 15.5365 7.71357 15.4193 7.75003 15.2734L8.06253 13.9844C8.17191 13.9427 8.27868 13.901 8.38284 13.8594C8.48701 13.8177 8.58597 13.7708 8.67972 13.7188L9.81253 14.4219C9.94274 14.5 10.0782 14.5339 10.2188 14.5234C10.3594 14.5078 10.4844 14.4453 10.5938 14.3359L11.3438 13.5781C11.4479 13.4688 11.5078 13.3438 11.5235 13.2031C11.5443 13.0573 11.5131 12.9167 11.4297 12.7812L10.7344 11.6719C10.7813 11.5729 10.8256 11.474 10.8672 11.375C10.9141 11.2708 10.9532 11.1667 10.9844 11.0625L12.2735 10.75C12.4297 10.7135 12.5495 10.6432 12.6328 10.5391C12.7214 10.4349 12.7657 10.3021 12.7657 10.1406V9.08594C12.7657 8.75781 12.6016 8.55469 12.2735 8.47656L11 8.15625C10.9584 8.04167 10.9167 7.9349 10.875 7.83594C10.8334 7.73177 10.7917 7.63542 10.75 7.54688L11.4297 6.41406C11.5078 6.27344 11.5443 6.13542 11.5391 6C11.5339 5.86458 11.474 5.74219 11.3594 5.63281L10.5938 4.88281C10.4844 4.77865 10.362 4.71615 10.2266 4.69531C10.0912 4.67448 9.95836 4.70312 9.82816 4.78125L8.67972 5.49219C8.59118 5.4401 8.49482 5.39323 8.39066 5.35156C8.28649 5.3099 8.17711 5.27083 8.06253 5.23438L7.75003 3.92188C7.71357 3.77604 7.64066 3.65885 7.53128 3.57031C7.42711 3.48177 7.2943 3.4375 7.13284 3.4375H6.07034C5.90888 3.4375 5.77347 3.48177 5.66409 3.57031C5.55993 3.65885 5.48961 3.77604 5.45316 3.92188L5.14066 5.21875C5.03128 5.26042 4.92191 5.30208 4.81253 5.34375C4.70836 5.38542 4.60941 5.43229 4.51566 5.48438L3.37503 4.78125C3.24482 4.70312 3.11201 4.67448 2.97659 4.69531C2.84118 4.71615 2.71878 4.77865 2.60941 4.88281L1.84378 5.63281C1.7292 5.74219 1.6693 5.86458 1.66409 6C1.65888 6.13542 1.69534 6.27344 1.77347 6.41406L2.45316 7.54688C2.41149 7.63542 2.36982 7.73177 2.32816 7.83594C2.28649 7.9349 2.24482 8.04167 2.20316 8.15625L0.921906 8.47656C0.598989 8.55469 0.437531 8.75781 0.437531 9.08594V10.1406C0.437531 10.3021 0.479197 10.4349 0.562531 10.5391C0.651072 10.6432 0.770864 10.7135 0.921906 10.75L2.21878 11.0625C2.25003 11.1667 2.28649 11.2708 2.32816 11.375C2.37503 11.474 2.42191 11.5729 2.46878 11.6719L1.77347 12.7812C1.69013 12.9167 1.65628 13.0573 1.67191 13.2031C1.69274 13.3438 1.75524 13.4688 1.85941 13.5781L2.60941 14.3359C2.71878 14.4453 2.84378 14.5078 2.98441 14.5234C3.12503 14.5339 3.26045 14.5 3.39066 14.4219L4.52347 13.7188C4.61722 13.7708 4.71618 13.8177 4.82034 13.8594C4.92451 13.901 5.03128 13.9427 5.14066 13.9844L5.45316 15.2734C5.48961 15.4193 5.55993 15.5365 5.66409 15.625C5.77347 15.7135 5.90888 15.7578 6.07034 15.7578ZM6.60159 11.5625C6.24222 11.5625 5.91149 11.474 5.60941 11.2969C5.31253 11.1198 5.07555 10.8828 4.89847 10.5859C4.72138 10.2839 4.63284 9.95052 4.63284 9.58594C4.63284 9.23177 4.72138 8.90625 4.89847 8.60938C5.07555 8.3125 5.31253 8.07552 5.60941 7.89844C5.91149 7.72135 6.24222 7.63281 6.60159 7.63281C6.96097 7.63281 7.28909 7.72135 7.58597 7.89844C7.88284 8.07552 8.11982 8.3125 8.29691 8.60938C8.4792 8.90625 8.57034 9.23177 8.57034 9.58594C8.57034 9.95052 8.4792 10.2839 8.29691 10.5859C8.11982 10.8828 7.88284 11.1198 7.58597 11.2969C7.28909 11.474 6.96097 11.5625 6.60159 11.5625ZM16.2657 20.5625H17.1563C17.2969 20.5625 17.4141 20.5234 17.5078 20.4453C17.6016 20.3724 17.6641 20.2734 17.6953 20.1484L17.9532 19.0312C18.0521 18.9948 18.1459 18.9583 18.2344 18.9219C18.3282 18.8854 18.4167 18.8438 18.5 18.7969L19.4766 19.4062C19.586 19.474 19.7006 19.5026 19.8203 19.4922C19.9401 19.4818 20.0495 19.4297 20.1485 19.3359L20.7735 18.7031C20.8672 18.6042 20.9219 18.4922 20.9375 18.3672C20.9532 18.2422 20.9245 18.125 20.8516 18.0156L20.25 17.0469C20.2917 16.9635 20.3308 16.8776 20.3672 16.7891C20.4037 16.7005 20.4375 16.612 20.4688 16.5234L21.5938 16.2578C21.8646 16.1953 22 16.0182 22 15.7266V14.8438C22 14.5469 21.8646 14.3672 21.5938 14.3047L20.4766 14.0391C20.4089 13.8255 20.336 13.6484 20.2578 13.5078L20.8516 12.5234C20.9245 12.4089 20.9558 12.2943 20.9453 12.1797C20.9401 12.0599 20.8881 11.9505 20.7891 11.8516L20.1485 11.2266C20.0495 11.1328 19.9401 11.0781 19.8203 11.0625C19.7058 11.0417 19.5938 11.0651 19.4844 11.1328L18.5 11.75C18.4219 11.7135 18.336 11.6745 18.2422 11.6328C18.1485 11.5911 18.0521 11.5573 17.9532 11.5312L17.6953 10.3906C17.6641 10.2656 17.6016 10.1641 17.5078 10.0859C17.4141 10.0078 17.2969 9.96875 17.1563 9.96875H16.2657C16.125 9.96875 16.0078 10.0078 15.9141 10.0859C15.8203 10.1641 15.7578 10.2656 15.7266 10.3906L15.461 11.5156C15.3672 11.5521 15.2735 11.5885 15.1797 11.625C15.086 11.6562 14.9974 11.6953 14.9141 11.7422L13.9297 11.1328C13.8256 11.0703 13.7136 11.0469 13.5938 11.0625C13.474 11.0781 13.3672 11.1328 13.2735 11.2266L12.6407 11.8516C12.5365 11.9505 12.4792 12.0599 12.4688 12.1797C12.4636 12.2943 12.4974 12.4089 12.5703 12.5234L13.1563 13.5078C13.1198 13.5807 13.0834 13.6615 13.0469 13.75C13.0157 13.8385 12.9818 13.9349 12.9453 14.0391L11.836 14.3047C11.7058 14.3359 11.6016 14.3984 11.5235 14.4922C11.4506 14.5859 11.4141 14.7031 11.4141 14.8438V15.7266C11.4141 15.8672 11.4506 15.9844 11.5235 16.0781C11.6016 16.1719 11.7058 16.2318 11.836 16.2578L12.961 16.5234C12.987 16.612 13.0183 16.7005 13.0547 16.7891C13.0912 16.8776 13.1302 16.9635 13.1719 17.0469L12.5703 18.0156C12.4922 18.125 12.461 18.2422 12.4766 18.3672C12.4974 18.4922 12.5547 18.6042 12.6485 18.7031L13.2735 19.3359C13.3672 19.4297 13.474 19.4818 13.5938 19.4922C13.7188 19.5026 13.836 19.474 13.9453 19.4062L14.9219 18.7969C15.0052 18.8438 15.0912 18.8854 15.1797 18.9219C15.2735 18.9583 15.3672 18.9948 15.461 19.0312L15.7266 20.1484C15.7578 20.2734 15.8203 20.3724 15.9141 20.4453C16.0078 20.5234 16.125 20.5625 16.2657 20.5625ZM16.711 16.8281C16.2839 16.8281 15.9167 16.6771 15.6094 16.375C15.3021 16.0677 15.1485 15.6953 15.1485 15.2578C15.1485 14.8307 15.3021 14.4661 15.6094 14.1641C15.9167 13.8568 16.2839 13.7031 16.711 13.7031C17.1433 13.7031 17.5104 13.8568 17.8125 14.1641C18.1198 14.4661 18.2735 14.8307 18.2735 15.2578C18.2735 15.6953 18.1198 16.0677 17.8125 16.375C17.5104 16.6771 17.1433 16.8281 16.711 16.8281Z"
		fill="currentColor"
	/>
</svg>
