<svg
	color="rgb(var(--foreground, 0, 0, 0))"
	viewBox="0 0 22 24"
	fill="none"
	xmlns="http://www.w3.org/2000/svg"
>
	<path
		d="M5.57031 15.7812H6.71094C6.95573 15.7812 7.16667 15.7135 7.34375 15.5781C7.52604 15.4375 7.64323 15.25 7.69531 15.0156L7.91406 14.0234C7.92448 14.0182 7.9375 14.013 7.95312 14.0078C7.96875 14.0026 7.98177 13.9974 7.99219 13.9922L8.875 14.5234C9.07292 14.6432 9.28385 14.6901 9.50781 14.6641C9.73698 14.638 9.9349 14.5417 10.1016 14.375L10.8984 13.5703C11.0755 13.3932 11.1745 13.1927 11.1953 12.9688C11.2214 12.7448 11.1719 12.5339 11.0469 12.3359L10.5078 11.4844C10.5078 11.4792 10.5078 11.474 10.5078 11.4688C10.513 11.4583 10.5156 11.4505 10.5156 11.4453C10.5208 11.4401 10.5234 11.4349 10.5234 11.4297C10.5286 11.4193 10.5339 11.4089 10.5391 11.3984L11.5156 11.1641C11.7448 11.1068 11.9297 10.9896 12.0703 10.8125C12.2109 10.6302 12.2812 10.4167 12.2812 10.1719V9.10938C12.2812 8.86458 12.2109 8.65365 12.0703 8.47656C11.9349 8.29427 11.75 8.17448 11.5156 8.11719L10.5391 7.88281C10.5339 7.86719 10.5286 7.85417 10.5234 7.84375C10.5182 7.82812 10.513 7.8125 10.5078 7.79688L11.0469 6.94531C11.1719 6.74219 11.2214 6.53125 11.1953 6.3125C11.1745 6.08854 11.0755 5.88802 10.8984 5.71094L10.1016 4.91406C9.9349 4.7474 9.73698 4.65104 9.50781 4.625C9.28385 4.59896 9.07292 4.64583 8.875 4.76562L7.99219 5.28906C7.98698 5.28906 7.97917 5.28906 7.96875 5.28906C7.96354 5.28385 7.95573 5.28125 7.94531 5.28125C7.9401 5.27604 7.9349 5.27344 7.92969 5.27344C7.92448 5.26823 7.91667 5.26562 7.90625 5.26562L7.69531 4.26562C7.64844 4.03646 7.53385 3.85417 7.35156 3.71875C7.16927 3.57812 6.95573 3.50781 6.71094 3.50781H5.57031C5.32552 3.50781 5.11198 3.57812 4.92969 3.71875C4.7526 3.85417 4.63802 4.03646 4.58594 4.26562L4.36719 5.26562C4.35156 5.27083 4.33594 5.27604 4.32031 5.28125C4.3099 5.28125 4.29688 5.28385 4.28125 5.28906L3.40625 4.76562C3.20833 4.64583 2.99479 4.59896 2.76562 4.625C2.54167 4.65104 2.34635 4.7474 2.17969 4.91406L1.38281 5.71094C1.20573 5.88802 1.10677 6.08854 1.08594 6.3125C1.0651 6.53646 1.11458 6.7474 1.23438 6.94531L1.77344 7.79688C1.77344 7.80729 1.77083 7.8151 1.76562 7.82031C1.76042 7.82552 1.75521 7.83333 1.75 7.84375C1.75 7.84896 1.75 7.85677 1.75 7.86719C1.75 7.8724 1.7474 7.8776 1.74219 7.88281L0.757812 8.11719C0.528646 8.17448 0.34375 8.29427 0.203125 8.47656C0.0677083 8.65365 0 8.86458 0 9.10938V10.1719C0 10.4167 0.0677083 10.6302 0.203125 10.8125C0.34375 10.9896 0.528646 11.1068 0.757812 11.1641L1.74219 11.3984C1.7474 11.4141 1.7526 11.4297 1.75781 11.4453C1.76302 11.4557 1.76823 11.4688 1.77344 11.4844L1.23438 12.3359C1.10938 12.5339 1.05729 12.7448 1.07812 12.9688C1.10417 13.1927 1.20573 13.3932 1.38281 13.5703L2.17969 14.375C2.34635 14.5417 2.54167 14.638 2.76562 14.6641C2.98958 14.6901 3.20052 14.6432 3.39844 14.5234L4.28906 13.9922C4.29948 13.9974 4.3125 14.0026 4.32812 14.0078C4.34375 14.013 4.35677 14.0182 4.36719 14.0234L4.58594 15.0156C4.63802 15.25 4.7526 15.4375 4.92969 15.5781C5.11198 15.7135 5.32552 15.7812 5.57031 15.7812ZM5.71875 14.6875C5.67708 14.6875 5.64583 14.6771 5.625 14.6562C5.60417 14.6354 5.58854 14.6068 5.57812 14.5703L5.24219 13.1719C5.05469 13.1302 4.875 13.0729 4.70312 13C4.53646 12.9219 4.38542 12.8438 4.25 12.7656L3.03125 13.5078C2.99479 13.5286 2.96094 13.5391 2.92969 13.5391C2.89844 13.5339 2.86979 13.5182 2.84375 13.4922L2.25 12.9062C2.21875 12.8802 2.20312 12.8542 2.20312 12.8281C2.20312 12.7969 2.21354 12.763 2.23438 12.7266L2.96875 11.5156C2.92188 11.3958 2.85677 11.2526 2.77344 11.0859C2.6901 10.9141 2.625 10.7266 2.57812 10.5234L1.20312 10.1953C1.16146 10.1849 1.13021 10.1693 1.10938 10.1484C1.09375 10.1276 1.08594 10.0964 1.08594 10.0547V9.22656C1.08594 9.1901 1.09375 9.16146 1.10938 9.14062C1.13021 9.11458 1.16146 9.09896 1.20312 9.09375L2.57812 8.76562C2.625 8.55729 2.6901 8.36979 2.77344 8.20312C2.85677 8.03125 2.92188 7.88542 2.96875 7.76562L2.23438 6.55469C2.21354 6.51823 2.20312 6.48698 2.20312 6.46094C2.20312 6.4349 2.21875 6.40625 2.25 6.375L2.84375 5.79688C2.86979 5.76562 2.89844 5.75 2.92969 5.75C2.96094 5.74479 2.99479 5.7526 3.03125 5.77344L4.25 6.51562C4.38542 6.44271 4.53646 6.36979 4.70312 6.29688C4.875 6.21875 5.05469 6.15625 5.24219 6.10938L5.57812 4.71875C5.58854 4.67708 5.60417 4.64844 5.625 4.63281C5.64583 4.61198 5.67708 4.60156 5.71875 4.60156H6.5625C6.60417 4.60156 6.63542 4.61198 6.65625 4.63281C6.67708 4.64844 6.69271 4.67708 6.70312 4.71875L7.03906 6.10938C7.22656 6.15625 7.40365 6.21875 7.57031 6.29688C7.74219 6.36979 7.89583 6.44271 8.03125 6.51562L9.25 5.77344C9.28646 5.7526 9.31771 5.74479 9.34375 5.75C9.375 5.75 9.40625 5.76562 9.4375 5.79688L10.0312 6.375C10.0625 6.40625 10.0781 6.4349 10.0781 6.46094C10.0781 6.48698 10.0677 6.51823 10.0469 6.55469L9.3125 7.76562C9.35938 7.88542 9.42448 8.03125 9.50781 8.20312C9.59115 8.36979 9.65625 8.55729 9.70312 8.76562L11.0781 9.09375C11.1198 9.09896 11.1484 9.11458 11.1641 9.14062C11.1849 9.16146 11.1953 9.1901 11.1953 9.22656V10.0547C11.1953 10.0964 11.1849 10.1276 11.1641 10.1484C11.1484 10.1693 11.1198 10.1849 11.0781 10.1953L9.70312 10.5234C9.65625 10.7266 9.59115 10.9141 9.50781 11.0859C9.42448 11.2526 9.35938 11.3958 9.3125 11.5156L10.0469 12.7266C10.0677 12.763 10.0781 12.7969 10.0781 12.8281C10.0781 12.8542 10.0625 12.8802 10.0312 12.9062L9.4375 13.4922C9.40625 13.5182 9.375 13.5339 9.34375 13.5391C9.31771 13.5391 9.28646 13.5286 9.25 13.5078L8.03125 12.7656C7.89583 12.8438 7.74219 12.9219 7.57031 13C7.40365 13.0729 7.22656 13.1302 7.03906 13.1719L6.70312 14.5703C6.69271 14.6068 6.67708 14.6354 6.65625 14.6562C6.63542 14.6771 6.60417 14.6875 6.5625 14.6875H5.71875ZM6.14062 12.0156C6.57292 12.0156 6.96615 11.9089 7.32031 11.6953C7.67969 11.4766 7.96354 11.1901 8.17188 10.8359C8.38542 10.4766 8.49219 10.0781 8.49219 9.64062C8.49219 9.20833 8.38542 8.8151 8.17188 8.46094C7.96354 8.10677 7.67969 7.82292 7.32031 7.60938C6.96615 7.39583 6.57292 7.28906 6.14062 7.28906C5.70312 7.28906 5.30469 7.39583 4.94531 7.60938C4.59115 7.82292 4.30729 8.10677 4.09375 8.46094C3.88021 8.8151 3.77344 9.20833 3.77344 9.64062C3.77344 10.0729 3.88021 10.4688 4.09375 10.8281C4.30729 11.1875 4.59115 11.4766 4.94531 11.6953C5.30469 11.9089 5.70312 12.0156 6.14062 12.0156ZM6.14062 10.8594C5.92188 10.8594 5.71875 10.8047 5.53125 10.6953C5.34896 10.5859 5.20052 10.4401 5.08594 10.2578C4.97656 10.0755 4.92188 9.86979 4.92188 9.64062C4.92188 9.42188 4.97656 9.22135 5.08594 9.03906C5.20052 8.85677 5.34896 8.71094 5.53125 8.60156C5.71875 8.49219 5.92188 8.4375 6.14062 8.4375C6.35938 8.4375 6.5599 8.49219 6.74219 8.60156C6.92448 8.71094 7.06771 8.85677 7.17188 9.03906C7.28125 9.22135 7.33594 9.42188 7.33594 9.64062C7.33594 9.86458 7.28125 10.0703 7.17188 10.2578C7.06771 10.4401 6.92448 10.5859 6.74219 10.6953C6.5599 10.8047 6.35938 10.8594 6.14062 10.8594ZM15.8203 20.4922H16.7188C16.9375 20.4922 17.1302 20.4323 17.2969 20.3125C17.4688 20.1927 17.5729 20.0312 17.6094 19.8281L17.7578 19.0391C17.7735 19.0391 17.7865 19.0365 17.7969 19.0312C17.8125 19.026 17.8282 19.0208 17.8438 19.0156L18.5078 19.4297C18.6901 19.5443 18.8828 19.5885 19.086 19.5625C19.2891 19.5365 19.4688 19.4427 19.625 19.2812L20.2578 18.6484C20.4141 18.487 20.5052 18.3047 20.5313 18.1016C20.5573 17.8984 20.5104 17.7057 20.3907 17.5234L19.9688 16.8828C19.9688 16.8776 19.9688 16.8724 19.9688 16.8672C19.974 16.8568 19.9766 16.849 19.9766 16.8438C19.9818 16.8385 19.9844 16.8333 19.9844 16.8281C19.9896 16.8177 19.9948 16.8099 20 16.8047L20.7735 16.6406C20.9714 16.599 21.1302 16.4974 21.25 16.3359C21.375 16.1693 21.4375 15.974 21.4375 15.75V14.875C21.4375 14.6562 21.375 14.4635 21.25 14.2969C21.1302 14.1302 20.9714 14.026 20.7735 13.9844L20 13.8281C19.9948 13.8125 19.9896 13.7995 19.9844 13.7891C19.9792 13.7734 19.974 13.7578 19.9688 13.7422L20.3907 13.1016C20.5104 12.9193 20.5573 12.7266 20.5313 12.5234C20.5052 12.3203 20.4141 12.1406 20.2578 11.9844L19.625 11.3438C19.4688 11.1823 19.2891 11.0911 19.086 11.0703C18.8828 11.0443 18.6901 11.0859 18.5078 11.1953L17.8438 11.6094C17.8386 11.6094 17.8308 11.6094 17.8203 11.6094C17.8151 11.6042 17.8099 11.6016 17.8047 11.6016C17.7995 11.5964 17.7917 11.5938 17.7813 11.5938C17.7761 11.5885 17.7683 11.5859 17.7578 11.5859L17.6094 10.8047C17.5729 10.5964 17.4688 10.4323 17.2969 10.3125C17.1302 10.1927 16.9375 10.1328 16.7188 10.1328H15.8203C15.5964 10.1328 15.3984 10.1927 15.2266 10.3125C15.0599 10.4323 14.9583 10.5964 14.9219 10.8047L14.7734 11.5859C14.7578 11.5911 14.7422 11.5964 14.7266 11.6016C14.7161 11.6016 14.7031 11.6042 14.6875 11.6094L14.0234 11.1953C13.8411 11.0859 13.6484 11.0443 13.4453 11.0703C13.2474 11.0911 13.0703 11.1823 12.9141 11.3438L12.2812 11.9844C12.125 12.1406 12.0312 12.3203 12 12.5234C11.974 12.7266 12.0208 12.9193 12.1406 13.1016L12.5625 13.7422C12.5625 13.7474 12.5599 13.7552 12.5547 13.7656C12.5547 13.7708 12.5521 13.776 12.5469 13.7812C12.5469 13.7865 12.5443 13.7943 12.5391 13.8047C12.5391 13.8099 12.5391 13.8177 12.5391 13.8281L11.7656 13.9844C11.5625 14.026 11.3984 14.1302 11.2734 14.2969C11.1536 14.4635 11.0938 14.6562 11.0938 14.875V15.75C11.0938 15.974 11.1536 16.1693 11.2734 16.3359C11.3984 16.4974 11.5625 16.599 11.7656 16.6406L12.5391 16.8047C12.5443 16.8203 12.5469 16.8333 12.5469 16.8438C12.5521 16.8542 12.5573 16.8672 12.5625 16.8828L12.1406 17.5234C12.0208 17.7057 11.974 17.8984 12 18.1016C12.0312 18.3047 12.125 18.487 12.2812 18.6484L12.9141 19.2812C13.0703 19.4427 13.2474 19.5365 13.4453 19.5625C13.6484 19.5885 13.8411 19.5443 14.0234 19.4297L14.6875 19.0156C14.6927 19.0156 14.6979 19.0156 14.7031 19.0156C14.7135 19.0208 14.7214 19.0234 14.7266 19.0234C14.737 19.0286 14.7448 19.0312 14.75 19.0312C14.7552 19.0365 14.763 19.0391 14.7734 19.0391L14.9219 19.8281C14.9583 20.0312 15.0599 20.1927 15.2266 20.3125C15.3984 20.4323 15.5964 20.4922 15.8203 20.4922ZM16.0234 19.4531C15.9766 19.4531 15.9401 19.4427 15.9141 19.4219C15.8932 19.401 15.875 19.3698 15.8594 19.3281L15.5859 18.2031C15.2734 18.1354 14.9766 18.0104 14.6953 17.8281L13.7109 18.4453C13.6797 18.4661 13.6458 18.474 13.6094 18.4688C13.5729 18.4635 13.5391 18.4479 13.5078 18.4219L13.1562 18.0547C13.1198 18.0182 13.099 17.9844 13.0938 17.9531C13.0938 17.9219 13.1042 17.888 13.125 17.8516L13.7188 16.8906C13.6875 16.7969 13.6302 16.6719 13.5469 16.5156C13.4688 16.3542 13.4089 16.1771 13.3672 15.9844L12.25 15.7266C12.2135 15.7214 12.1823 15.7057 12.1562 15.6797C12.1354 15.6484 12.125 15.612 12.125 15.5703V15.0547C12.125 15.0182 12.1354 14.987 12.1562 14.9609C12.1823 14.9297 12.2135 14.9089 12.25 14.8984L13.3672 14.6406C13.4089 14.4479 13.4688 14.2734 13.5469 14.1172C13.6302 13.9609 13.6875 13.8333 13.7188 13.7344L13.125 12.7734C13.1042 12.7422 13.0938 12.7109 13.0938 12.6797C13.099 12.6432 13.1198 12.6068 13.1562 12.5703L13.5078 12.2109C13.5391 12.1797 13.5729 12.1641 13.6094 12.1641C13.6458 12.1589 13.6797 12.1667 13.7109 12.1875L14.6953 12.7969C14.9766 12.6198 15.2734 12.4948 15.5859 12.4219L15.8594 11.2969C15.875 11.2604 15.8932 11.2318 15.9141 11.2109C15.9401 11.1849 15.9766 11.1719 16.0234 11.1719H16.5078C16.5547 11.1719 16.5911 11.1849 16.6172 11.2109C16.6432 11.2318 16.6615 11.2604 16.6719 11.2969L16.9453 12.4219C17.263 12.4948 17.5599 12.6198 17.836 12.7969L18.8203 12.1875C18.8568 12.1667 18.8907 12.1589 18.9219 12.1641C18.9584 12.1641 18.9922 12.1797 19.0235 12.2109L19.3828 12.5703C19.4141 12.6068 19.4323 12.6432 19.4375 12.6797C19.4427 12.7109 19.4349 12.7422 19.4141 12.7734L18.8125 13.7344C18.849 13.8333 18.9063 13.9609 18.9844 14.1172C19.0677 14.2734 19.1276 14.4479 19.1641 14.6406L20.2813 14.8984C20.3229 14.9089 20.3542 14.9297 20.375 14.9609C20.3959 14.987 20.4063 15.0182 20.4063 15.0547V15.5703C20.4063 15.612 20.3959 15.6484 20.375 15.6797C20.3542 15.7057 20.3229 15.7214 20.2813 15.7266L19.1641 15.9844C19.1276 16.1771 19.0677 16.3542 18.9844 16.5156C18.9063 16.6719 18.849 16.7969 18.8125 16.8906L19.4141 17.8516C19.4349 17.888 19.4427 17.9219 19.4375 17.9531C19.4323 17.9844 19.4141 18.0182 19.3828 18.0547L19.0235 18.4219C18.9922 18.4479 18.9584 18.4635 18.9219 18.4688C18.8907 18.474 18.8568 18.4661 18.8203 18.4453L17.836 17.8281C17.5599 18.0104 17.263 18.1354 16.9453 18.2031L16.6719 19.3281C16.6615 19.3698 16.6432 19.401 16.6172 19.4219C16.5911 19.4427 16.5547 19.4531 16.5078 19.4531H16.0234ZM16.2656 17.1484C16.599 17.1484 16.9036 17.0651 17.1797 16.8984C17.4557 16.7318 17.6771 16.5104 17.8438 16.2344C18.0104 15.9583 18.0938 15.651 18.0938 15.3125C18.0938 14.9792 18.0104 14.6745 17.8438 14.3984C17.6771 14.1224 17.4557 13.9036 17.1797 13.7422C16.9036 13.5755 16.599 13.4922 16.2656 13.4922C15.9271 13.4922 15.6172 13.5755 15.3359 13.7422C15.0599 13.9036 14.8385 14.1224 14.6719 14.3984C14.5104 14.6745 14.4297 14.9792 14.4297 15.3125C14.4297 15.6458 14.5104 15.9531 14.6719 16.2344C14.8385 16.5104 15.0599 16.7318 15.3359 16.8984C15.6172 17.0651 15.9271 17.1484 16.2656 17.1484ZM16.2656 16.1641C16.0312 16.1641 15.8307 16.0807 15.6641 15.9141C15.5026 15.7474 15.4219 15.5469 15.4219 15.3125C15.4219 15.0833 15.5026 14.888 15.6641 14.7266C15.8307 14.5651 16.0312 14.4844 16.2656 14.4844C16.4896 14.4844 16.6823 14.5651 16.8438 14.7266C17.0104 14.888 17.0938 15.0833 17.0938 15.3125C17.0938 15.5417 17.0104 15.7422 16.8438 15.9141C16.6823 16.0807 16.4896 16.1641 16.2656 16.1641Z"
		fill="currentColor"
	/>
</svg>
