<svg
	color="rgb(var(--foreground, 0, 0, 0))"
	viewBox="0 0 18 24"
	fill="none"
	xmlns="http://www.w3.org/2000/svg"
>
	<path
		d="M8.125 20.1641H9.5625C9.76562 20.1641 9.9375 20.1068 10.0781 19.9922C10.2188 19.8828 10.3099 19.7266 10.3516 19.5234L10.7578 17.8047C10.9089 17.7526 11.0573 17.6979 11.2031 17.6406C11.349 17.5833 11.487 17.5234 11.6172 17.4609L13.125 18.3828C13.2917 18.487 13.4635 18.5312 13.6406 18.5156C13.8229 18.5 13.9844 18.4219 14.125 18.2812L15.1328 17.2812C15.2734 17.1406 15.3516 16.9766 15.3672 16.7891C15.388 16.6016 15.3411 16.4245 15.2266 16.2578L14.3047 14.7656C14.3724 14.6302 14.4323 14.4922 14.4844 14.3516C14.5417 14.2109 14.5938 14.0703 14.6406 13.9297L16.375 13.5156C16.5729 13.474 16.7266 13.3828 16.8359 13.2422C16.9505 13.1016 17.0078 12.9297 17.0078 12.7266V11.3125C17.0078 11.1146 16.9505 10.9453 16.8359 10.8047C16.7266 10.6641 16.5729 10.5729 16.375 10.5312L14.6562 10.1172C14.6042 9.95573 14.5469 9.80469 14.4844 9.66406C14.4271 9.52344 14.3724 9.39062 14.3203 9.26562L15.2422 7.75C15.3516 7.58333 15.3984 7.41146 15.3828 7.23438C15.3724 7.05208 15.2943 6.89062 15.1484 6.75L14.125 5.74219C13.9792 5.61198 13.8229 5.53646 13.6562 5.51562C13.4896 5.48958 13.3203 5.52604 13.1484 5.625L11.6172 6.57031C11.4922 6.5026 11.3568 6.4401 11.2109 6.38281C11.0703 6.32552 10.9193 6.27083 10.7578 6.21875L10.3516 4.47656C10.3099 4.27865 10.2188 4.1224 10.0781 4.00781C9.9375 3.89323 9.76562 3.83594 9.5625 3.83594H8.125C7.92188 3.83594 7.75 3.89323 7.60938 4.00781C7.46875 4.1224 7.375 4.27865 7.32812 4.47656L6.92188 6.20312C6.77083 6.25521 6.61979 6.3125 6.46875 6.375C6.32292 6.43229 6.1849 6.49479 6.05469 6.5625L4.53906 5.625C4.36719 5.52604 4.19531 5.48698 4.02344 5.50781C3.85677 5.52865 3.70052 5.60677 3.55469 5.74219L2.53906 6.75C2.39323 6.89062 2.3125 7.05208 2.29688 7.23438C2.28125 7.41146 2.33073 7.58333 2.44531 7.75L3.35938 9.26562C3.30729 9.39062 3.25 9.52344 3.1875 9.66406C3.13021 9.80469 3.07812 9.95573 3.03125 10.1172L1.3125 10.5312C1.10938 10.5729 0.953125 10.6641 0.84375 10.8047C0.734375 10.9453 0.679688 11.1146 0.679688 11.3125V12.7266C0.679688 12.9297 0.734375 13.1016 0.84375 13.2422C0.953125 13.3828 1.10938 13.474 1.3125 13.5156L3.04688 13.9297C3.08854 14.0703 3.13802 14.2109 3.19531 14.3516C3.2526 14.4922 3.3125 14.6302 3.375 14.7656L2.46094 16.2578C2.34635 16.4245 2.29688 16.6016 2.3125 16.7891C2.33333 16.9766 2.41406 17.1406 2.55469 17.2812L3.55469 18.2812C3.69531 18.4219 3.85417 18.5 4.03125 18.5156C4.21354 18.5312 4.39062 18.487 4.5625 18.3828L6.0625 17.4609C6.19271 17.5234 6.33073 17.5833 6.47656 17.6406C6.6224 17.6979 6.77083 17.7526 6.92188 17.8047L7.32812 19.5234C7.375 19.7266 7.46875 19.8828 7.60938 19.9922C7.75 20.1068 7.92188 20.1641 8.125 20.1641ZM8.84375 14.7578C8.33854 14.7578 7.875 14.6328 7.45312 14.3828C7.03646 14.1328 6.70312 13.7995 6.45312 13.3828C6.20833 12.9609 6.08594 12.4974 6.08594 11.9922C6.08594 11.487 6.21094 11.0286 6.46094 10.6172C6.71094 10.2005 7.04427 9.86719 7.46094 9.61719C7.8776 9.36719 8.33854 9.24219 8.84375 9.24219C9.34896 9.24219 9.8099 9.36719 10.2266 9.61719C10.6484 9.86719 10.9818 10.2005 11.2266 10.6172C11.4766 11.0286 11.6016 11.487 11.6016 11.9922C11.6016 12.4974 11.4766 12.9609 11.2266 13.3828C10.9818 13.7995 10.6484 14.1328 10.2266 14.3828C9.8099 14.6328 9.34896 14.7578 8.84375 14.7578Z"
		fill="currentColor"
	/>
</svg>
