<svg
	color="rgb(var(--foreground, 0, 0, 0))"
	viewBox="0 0 21 24"
	fill="none"
	xmlns="http://www.w3.org/2000/svg"
>
	<path
		d="M0.953308 15.6016C0.953308 16.3307 1.14862 16.9818 1.53925 17.5547C1.93508 18.1276 2.46112 18.5807 3.11737 18.9141C3.77362 19.2474 4.50018 19.4141 5.29706 19.4141C6.08872 19.4141 6.81268 19.2474 7.46893 18.9141C8.12518 18.5807 8.64862 18.1276 9.03925 17.5547C9.42987 16.9818 9.62518 16.3307 9.62518 15.6016V13.6016C9.81789 13.5286 10.0262 13.4714 10.2502 13.4297C10.4741 13.388 10.7007 13.3672 10.9299 13.3672C11.4559 13.3672 11.8882 13.4271 12.2267 13.5469V15.6016C12.2267 16.3307 12.4195 16.9818 12.8049 17.5547C13.1955 18.1276 13.7189 18.5807 14.3752 18.9141C15.0314 19.2474 15.758 19.4141 16.5549 19.4141C17.3517 19.4141 18.0783 19.2474 18.7346 18.9141C19.3908 18.5807 19.9142 18.1276 20.3049 17.5547C20.7007 16.9818 20.8986 16.3307 20.8986 15.6016C20.8986 15.3151 20.87 15.0286 20.8127 14.7422C20.7606 14.4557 20.6538 14.1276 20.4924 13.7578L17.2502 6.19531C17.0262 5.6849 16.6903 5.28906 16.2424 5.00781C15.7997 4.72656 15.2866 4.58594 14.7033 4.58594C13.9533 4.58594 13.3517 4.80469 12.8986 5.24219C12.4507 5.67969 12.2267 6.25521 12.2267 6.96875V7.72656C12.0288 7.67448 11.8231 7.63542 11.6096 7.60938C11.396 7.58333 11.1695 7.57031 10.9299 7.57031C10.7059 7.57031 10.4846 7.58854 10.2658 7.625C10.0471 7.65625 9.83352 7.70573 9.62518 7.77344V6.96875C9.62518 6.25521 9.39862 5.67969 8.9455 5.24219C8.49758 4.80469 7.89862 4.58594 7.14862 4.58594C6.56008 4.58594 6.04185 4.72656 5.59393 5.00781C5.15122 5.28906 4.8205 5.6849 4.60175 6.19531L1.35175 13.7578C1.1955 14.1276 1.08872 14.4557 1.03143 14.7422C0.97935 15.0286 0.953308 15.3151 0.953308 15.6016ZM2.17987 15.6016C2.17987 15.0755 2.31789 14.6146 2.59393 14.2188C2.86997 13.8229 3.24237 13.5156 3.71112 13.2969C4.17987 13.0729 4.70852 12.9609 5.29706 12.9609C5.88039 12.9609 6.41164 13.0729 6.89081 13.2969C7.36997 13.5156 7.75018 13.8229 8.03143 14.2188C8.31268 14.6146 8.45331 15.0755 8.45331 15.6016C8.45331 16.1276 8.31268 16.5885 8.03143 16.9844C7.75018 17.3802 7.36997 17.6875 6.89081 17.9062C6.41685 18.1302 5.8856 18.2422 5.29706 18.2422C4.70852 18.2422 4.17987 18.1302 3.71112 17.9062C3.24237 17.6823 2.86997 17.3724 2.59393 16.9766C2.31789 16.5807 2.17987 16.1224 2.17987 15.6016ZM13.3986 15.6016C13.3986 15.0755 13.5392 14.6146 13.8205 14.2188C14.1017 13.8229 14.4793 13.5156 14.9533 13.2969C15.4325 13.0729 15.9663 12.9609 16.5549 12.9609C17.1434 12.9609 17.6721 13.0729 18.1408 13.2969C18.6096 13.5156 18.9793 13.8229 19.2502 14.2188C19.5262 14.6146 19.6642 15.0755 19.6642 15.6016C19.6642 16.1224 19.5262 16.5807 19.2502 16.9766C18.9793 17.3724 18.6096 17.6823 18.1408 17.9062C17.6721 18.1302 17.1434 18.2422 16.5549 18.2422C15.9663 18.2422 15.4325 18.1302 14.9533 17.9062C14.4793 17.6875 14.1017 17.3802 13.8205 16.9844C13.5392 16.5885 13.3986 16.1276 13.3986 15.6016ZM9.62518 11.2188V10.1562C10.0418 10.026 10.4767 9.96094 10.9299 9.96094C11.1695 9.96094 11.396 9.97396 11.6096 10C11.8231 10.026 12.0288 10.0625 12.2267 10.1094V11.1562C11.8882 11.0417 11.4559 10.9844 10.9299 10.9844C10.7007 10.9844 10.4741 11.0052 10.2502 11.0469C10.0262 11.0885 9.81789 11.1458 9.62518 11.2188Z"
		fill="currentColor"
	/>
</svg>
