<svg
	color="rgb(var(--foreground, 0, 0, 0))"
	viewBox="0 0 20 24"
	fill="none"
	xmlns="http://www.w3.org/2000/svg"
>
	<path
		d="M0.00799561 15.6016C0.00799561 16.3307 0.203308 16.9818 0.593933 17.5547C0.989766 18.1276 1.51581 18.5807 2.17206 18.9141C2.82831 19.2474 3.55487 19.4141 4.35175 19.4141C5.14341 19.4141 5.86737 19.2474 6.52362 18.9141C7.17987 18.5807 7.70331 18.1276 8.09393 17.5547C8.48456 16.9818 8.67987 16.3307 8.67987 15.6016V6.96875C8.67987 6.25521 8.45331 5.67969 8.00018 5.24219C7.55227 4.80469 6.95331 4.58594 6.20331 4.58594C5.61477 4.58594 5.09654 4.72656 4.64862 5.00781C4.20591 5.28906 3.87518 5.6849 3.65643 6.19531L0.406433 13.7578C0.250183 14.1276 0.143412 14.4557 0.0861206 14.7422C0.0340373 15.0286 0.00799561 15.3151 0.00799561 15.6016ZM2.33612 12.2578L4.71893 6.71875C4.85435 6.40625 5.04706 6.16406 5.29706 5.99219C5.55227 5.8151 5.83872 5.72656 6.15643 5.72656C6.56789 5.72656 6.89602 5.85417 7.14081 6.10938C7.39081 6.35938 7.51581 6.6875 7.51581 7.09375V13.0312C7.12518 12.6458 6.65122 12.3438 6.09393 12.125C5.54185 11.901 4.96112 11.7891 4.35175 11.7891C4.00279 11.7891 3.65383 11.8307 3.30487 11.9141C2.96112 11.9922 2.6382 12.1068 2.33612 12.2578ZM1.23456 15.6016C1.23456 15.0755 1.37258 14.6146 1.64862 14.2188C1.92466 13.8229 2.29706 13.5156 2.76581 13.2969C3.23456 13.0729 3.7632 12.9609 4.35175 12.9609C4.93508 12.9609 5.46633 13.0729 5.9455 13.2969C6.42466 13.5156 6.80487 13.8229 7.08612 14.2188C7.36737 14.6146 7.508 15.0755 7.508 15.6016C7.508 16.1276 7.36737 16.5885 7.08612 16.9844C6.80487 17.3802 6.42466 17.6875 5.9455 17.9062C5.47154 18.1302 4.94029 18.2422 4.35175 18.2422C3.7632 18.2422 3.23456 18.1302 2.76581 17.9062C2.29706 17.6823 1.92466 17.3724 1.64862 16.9766C1.37258 16.5807 1.23456 16.1224 1.23456 15.6016ZM19.9533 15.6016C19.9533 15.3151 19.9247 15.0286 19.8674 14.7422C19.8153 14.4557 19.7085 14.1276 19.5471 13.7578L16.3049 6.19531C16.0809 5.6849 15.745 5.28906 15.2971 5.00781C14.8543 4.72656 14.3413 4.58594 13.758 4.58594C13.008 4.58594 12.4064 4.80469 11.9533 5.24219C11.5054 5.67969 11.2814 6.25521 11.2814 6.96875V15.6016C11.2814 16.3307 11.4741 16.9818 11.8596 17.5547C12.2502 18.1276 12.7736 18.5807 13.4299 18.9141C14.0861 19.2474 14.8127 19.4141 15.6096 19.4141C16.4064 19.4141 17.133 19.2474 17.7892 18.9141C18.4455 18.5807 18.9689 18.1276 19.3596 17.5547C19.7554 16.9818 19.9533 16.3307 19.9533 15.6016ZM17.6252 12.2578C17.3179 12.1068 16.9898 11.9922 16.6408 11.9141C16.2971 11.8307 15.9533 11.7891 15.6096 11.7891C14.995 11.7891 14.409 11.901 13.8517 12.125C13.2997 12.3438 12.8283 12.6458 12.4377 13.0312V7.09375C12.4377 6.6875 12.5601 6.35938 12.8049 6.10938C13.0549 5.85417 13.3882 5.72656 13.8049 5.72656C14.1226 5.72656 14.4064 5.8151 14.6564 5.99219C14.9064 6.16406 15.0991 6.40625 15.2346 6.71875L17.6252 12.2578ZM18.7189 15.6016C18.7189 16.1224 18.5809 16.5807 18.3049 16.9766C18.034 17.3724 17.6642 17.6823 17.1955 17.9062C16.7267 18.1302 16.1981 18.2422 15.6096 18.2422C15.021 18.2422 14.4872 18.1302 14.008 17.9062C13.534 17.6875 13.1564 17.3802 12.8752 16.9844C12.5939 16.5885 12.4533 16.1276 12.4533 15.6016C12.4533 15.0755 12.5939 14.6146 12.8752 14.2188C13.1564 13.8229 13.534 13.5156 14.008 13.2969C14.4872 13.0729 15.021 12.9609 15.6096 12.9609C16.1981 12.9609 16.7267 13.0729 17.1955 13.2969C17.6642 13.5156 18.034 13.8229 18.3049 14.2188C18.5809 14.6146 18.7189 15.0755 18.7189 15.6016ZM8.15643 13.8438C8.38039 13.6979 8.65122 13.5833 8.96893 13.5C9.29185 13.4115 9.63039 13.3672 9.98456 13.3672C10.8179 13.3672 11.4429 13.5208 11.8596 13.8281V12.6641C11.3543 12.4505 10.7293 12.3438 9.98456 12.3438C9.65643 12.3438 9.33612 12.375 9.02362 12.4375C8.71633 12.5 8.42727 12.5885 8.15643 12.7031V13.8438ZM8.15643 11.4609C8.38039 11.3151 8.65122 11.2005 8.96893 11.1172C9.29185 11.0286 9.63039 10.9844 9.98456 10.9844C10.8179 10.9844 11.4429 11.138 11.8596 11.4453V10.2812C11.3543 10.0677 10.7293 9.96094 9.98456 9.96094C9.65643 9.96094 9.33612 9.99219 9.02362 10.0547C8.71633 10.1172 8.42727 10.2057 8.15643 10.3203V11.4609ZM8.15643 9.07031C8.38039 8.92448 8.65122 8.8099 8.96893 8.72656C9.29185 8.63802 9.63039 8.59375 9.98456 8.59375C10.8179 8.59375 11.4429 8.7474 11.8596 9.05469V7.89844C11.3543 7.67969 10.7293 7.57031 9.98456 7.57031C9.65643 7.57031 9.33612 7.60417 9.02362 7.67188C8.71633 7.73438 8.42727 7.82292 8.15643 7.9375V9.07031Z"
		fill="currentColor"
	/>
</svg>
