<svg
	color="rgb(var(--foreground, 0, 0, 0))"
	viewBox="0 0 19 24"
	fill="none"
	xmlns="http://www.w3.org/2000/svg"
>
	<path
		d="M1.29695 13.5548C0.729238 14.1173 0.44278 14.7371 0.437572 15.4141C0.432363 16.086 0.711009 16.7032 1.27351 17.2657L4.78913 20.7891C4.91413 20.9089 5.06257 20.9688 5.23445 20.9688C5.41153 20.9688 5.56257 20.9089 5.68757 20.7891C5.80736 20.6641 5.86726 20.5157 5.86726 20.3438C5.86726 20.1719 5.80736 20.0235 5.68757 19.8985L2.29695 16.5079C1.9532 16.1641 1.77872 15.8022 1.77351 15.4219C1.7683 15.0417 1.93497 14.685 2.27351 14.3516L11.7579 4.86726C12.0964 4.52872 12.4558 4.36205 12.836 4.36726C13.2214 4.36726 13.5808 4.53653 13.9141 4.87507L17.3126 8.2657C17.4324 8.3907 17.5782 8.4558 17.7501 8.46101C17.922 8.46101 18.0678 8.39851 18.1876 8.27351C18.3126 8.14851 18.3751 8.00007 18.3751 7.8282C18.3751 7.65632 18.3126 7.50788 18.1876 7.38288L14.672 3.86726C14.1095 3.30476 13.4923 3.02611 12.8204 3.03132C12.1485 3.03653 11.5287 3.32299 10.961 3.8907L1.29695 13.5548ZM2.42195 17.5469L3.31257 18.4376L15.8673 5.88288L14.9766 4.99226L2.42195 17.5469ZM14.3126 6.88288L13.5782 7.63288L15.8282 9.88288C15.9324 9.99226 16.0574 10.0469 16.2032 10.0469C16.349 10.0469 16.4714 9.99486 16.5704 9.8907C16.6746 9.79174 16.7267 9.66934 16.7267 9.52351C16.7319 9.37247 16.6824 9.24486 16.5782 9.1407L14.3126 6.88288ZM12.7657 8.42976L12.0235 9.17976L14.2813 11.4298C14.3855 11.5339 14.5105 11.586 14.6563 11.586C14.8022 11.586 14.9246 11.5365 15.0235 11.4376C15.1277 11.3386 15.1798 11.2162 15.1798 11.0704C15.185 10.9246 15.1355 10.7996 15.0313 10.6954L12.7657 8.42976ZM11.2188 9.97663L10.4845 10.7266L12.7345 12.9844C12.8386 13.0834 12.9636 13.1329 13.1095 13.1329C13.2553 13.1329 13.3777 13.086 13.4766 12.9923C13.5808 12.8881 13.6329 12.7631 13.6329 12.6173C13.6381 12.4662 13.5886 12.3412 13.4845 12.2423L11.2188 9.97663ZM9.67977 11.5235L8.93757 12.2657L11.1954 14.5235C11.2996 14.6277 11.4246 14.6798 11.5704 14.6798C11.7162 14.6798 11.8386 14.6277 11.9376 14.5235C12.0418 14.4246 12.0938 14.3022 12.0938 14.1563C12.099 14.0105 12.0496 13.8855 11.9454 13.7813L9.67977 11.5235ZM8.13288 13.0704L7.3907 13.8126L9.64852 16.0782C9.75269 16.1772 9.87769 16.2266 10.0235 16.2266C10.1694 16.2266 10.2918 16.1772 10.3907 16.0782C10.4949 15.974 10.547 15.849 10.547 15.7032C10.5522 15.5574 10.5027 15.4324 10.3985 15.3282L8.13288 13.0704ZM6.58601 14.6173L5.84382 15.3594L8.10163 17.6251C8.2058 17.724 8.3308 17.7735 8.47663 17.7735C8.62247 17.7735 8.74486 17.724 8.84382 17.6251C8.94278 17.5209 8.99226 17.3959 8.99226 17.2501C8.99747 17.1042 8.95059 16.9792 8.85163 16.8751L6.58601 14.6173ZM5.03913 16.1641L4.29695 16.9063L6.55476 19.1719C6.65893 19.2709 6.78393 19.3204 6.92976 19.3204C7.07559 19.3204 7.19799 19.2709 7.29695 19.1719C7.40111 19.0678 7.4532 18.9428 7.4532 18.7969C7.4584 18.6511 7.40893 18.5261 7.30476 18.4219L5.03913 16.1641Z"
		fill="currentColor"
	/>
</svg>
