<svg
	color="rgb(var(--foreground, 0, 0, 0))"
	viewBox="0 0 19 24"
	fill="none"
	xmlns="http://www.w3.org/2000/svg"
>
	<path
		d="M1.21113 17.2657L4.72676 20.7891C4.85176 20.9089 5.00019 20.9688 5.17207 20.9688C5.34915 20.9688 5.50019 20.9089 5.62519 20.7891C5.74499 20.6641 5.80488 20.5131 5.80488 20.336C5.80488 20.1641 5.74499 20.0183 5.62519 19.8985L3.32832 17.5938L14.9533 5.96882L17.2502 8.2657C17.37 8.3907 17.5158 8.4558 17.6877 8.46101C17.8596 8.46101 18.0054 8.39851 18.1252 8.27351C18.2502 8.14851 18.3127 8.00007 18.3127 7.8282C18.3127 7.65632 18.2502 7.50788 18.1252 7.38288L14.6096 3.86726C14.0471 3.30476 13.4299 3.02611 12.758 3.03132C12.0861 3.03653 11.4663 3.32299 10.8986 3.8907L1.23457 13.5548C0.66686 14.1173 0.380402 14.7371 0.375194 15.4141C0.369985 16.086 0.648631 16.7032 1.21113 17.2657ZM14.0236 6.65632L13.2893 7.41413L15.7658 9.88288C15.87 9.99226 15.995 10.0469 16.1408 10.0469C16.2867 10.0469 16.409 9.99486 16.508 9.8907C16.6122 9.79174 16.6643 9.66934 16.6643 9.52351C16.6695 9.37247 16.62 9.24486 16.5158 9.1407L14.0236 6.65632ZM12.4768 8.2032L11.7424 8.96101L14.2189 11.4298C14.3231 11.5339 14.4481 11.586 14.5939 11.586C14.7398 11.586 14.8622 11.5365 14.9611 11.4376C15.0653 11.3334 15.1174 11.211 15.1174 11.0704C15.1226 10.9246 15.0731 10.7996 14.9689 10.6954L12.4768 8.2032ZM10.9377 9.75007L10.2033 10.5079L12.6721 12.9844C12.7762 13.0834 12.9012 13.1329 13.0471 13.1329C13.1929 13.1329 13.3153 13.086 13.4143 12.9923C13.5184 12.8881 13.5705 12.7631 13.5705 12.6173C13.5757 12.4662 13.5262 12.3412 13.4221 12.2423L10.9377 9.75007ZM9.39863 11.2969L8.65644 12.0391L11.133 14.5235C11.2372 14.6277 11.3622 14.6798 11.508 14.6798C11.6538 14.6798 11.7762 14.6277 11.8752 14.5235C11.9794 14.4246 12.0314 14.3022 12.0314 14.1563C12.0367 14.0053 11.9872 13.8803 11.883 13.7813L9.39863 11.2969ZM7.85176 12.8438L7.10957 13.586L9.58613 16.0782C9.6903 16.1772 9.8153 16.2266 9.96113 16.2266C10.107 16.2266 10.2294 16.1772 10.3283 16.0782C10.4325 15.974 10.4846 15.849 10.4846 15.7032C10.4898 15.5522 10.4403 15.4272 10.3361 15.3282L7.85176 12.8438ZM6.30488 14.3907L5.56269 15.1329L8.03926 17.6251C8.14342 17.724 8.26842 17.7735 8.41426 17.7735C8.56009 17.7735 8.68249 17.724 8.78144 17.6251C8.8804 17.5209 8.92988 17.3959 8.92988 17.2501C8.93509 17.1042 8.88821 16.9792 8.78926 16.8751L6.30488 14.3907ZM4.75801 15.9376L4.01582 16.6798L6.49238 19.1719C6.59655 19.2709 6.72155 19.3204 6.86738 19.3204C7.01321 19.3204 7.13561 19.2709 7.23457 19.1719C7.33874 19.0678 7.39082 18.9428 7.39082 18.7969C7.39603 18.6511 7.34655 18.5261 7.24238 18.4219L4.75801 15.9376Z"
		fill="currentColor"
	/>
</svg>
