<svg
	color="rgb(var(--foreground, 0, 0, 0))"
	viewBox="0 0 13 24"
	fill="none"
	xmlns="http://www.w3.org/2000/svg"
>
	<path
		d="M5.72675 5.50732H6.59393V3.4917C6.59393 3.3667 6.55227 3.26514 6.46893 3.18701C6.3856 3.10368 6.28143 3.06201 6.15643 3.06201C6.03664 3.06201 5.93508 3.10368 5.85175 3.18701C5.76841 3.27035 5.72675 3.37451 5.72675 3.49951V5.50732ZM6.15643 9.4917C6.59914 9.4917 7.00279 9.38493 7.36737 9.17139C7.73195 8.95785 8.02102 8.67139 8.23456 8.31201C8.4481 7.94743 8.55487 7.54378 8.55487 7.10107C8.55487 6.65316 8.4481 6.24951 8.23456 5.89014C8.02102 5.52555 7.73195 5.23649 7.36737 5.02295C7.00279 4.80941 6.59914 4.70264 6.15643 4.70264C5.71372 4.70264 5.31008 4.80941 4.9455 5.02295C4.58612 5.23649 4.29966 5.52555 4.08612 5.89014C3.87258 6.24951 3.76581 6.65316 3.76581 7.10107C3.76581 7.54378 3.87258 7.94743 4.08612 8.31201C4.29966 8.67139 4.58612 8.95785 4.9455 9.17139C5.31008 9.38493 5.71372 9.4917 6.15643 9.4917ZM6.15643 8.31201C5.80747 8.31201 5.51841 8.19743 5.28925 7.96826C5.06008 7.7391 4.9455 7.45003 4.9455 7.10107C4.9455 6.74691 5.06008 6.45524 5.28925 6.22607C5.51841 5.99691 5.80747 5.88232 6.15643 5.88232C6.5106 5.88232 6.80227 5.99691 7.03143 6.22607C7.2606 6.45524 7.37518 6.74691 7.37518 7.10107C7.37518 7.45003 7.2606 7.7391 7.03143 7.96826C6.80227 8.19743 6.5106 8.31201 6.15643 8.31201ZM5.83612 8.8667L4.60956 8.56982L1.59393 18.7026C1.54706 18.8641 1.56789 19.0203 1.65643 19.1714C1.74497 19.3276 1.87258 19.4266 2.03925 19.4683C2.20591 19.5151 2.36216 19.4943 2.508 19.4058C2.65904 19.3224 2.7606 19.1948 2.81268 19.0229L5.83612 8.8667ZM1.92987 18.2573L1.35175 20.4214C1.3257 20.5308 1.33872 20.6349 1.39081 20.7339C1.4481 20.8328 1.53143 20.8953 1.64081 20.9214C1.75018 20.9526 1.85435 20.9396 1.95331 20.8823C2.05227 20.8302 2.11737 20.7469 2.14862 20.6323L2.72675 18.4761L1.92987 18.2573ZM6.48456 8.8667L9.508 19.0229C9.56008 19.1948 9.65904 19.3224 9.80487 19.4058C9.95591 19.4943 10.1148 19.5151 10.2814 19.4683C10.4481 19.4266 10.5757 19.3276 10.6642 19.1714C10.7528 19.0203 10.7736 18.8641 10.7267 18.7026L7.71112 8.56982L6.48456 8.8667ZM10.3908 18.2573L9.58612 18.4761L10.1721 20.6323C10.2033 20.7469 10.2658 20.8302 10.3596 20.8823C10.4585 20.9396 10.5653 20.9526 10.6799 20.9214C10.7892 20.8953 10.87 20.8328 10.9221 20.7339C10.9793 20.6349 10.9924 20.5308 10.9611 20.4214L10.3908 18.2573ZM0.828308 13.2026C0.682475 13.2026 0.560079 13.2521 0.461121 13.3511C0.362162 13.45 0.312683 13.5698 0.312683 13.7104C0.312683 13.8511 0.362162 13.9735 0.461121 14.0776C0.560079 14.1766 0.682475 14.2261 0.828308 14.2261H11.4924C11.633 14.2261 11.7528 14.1766 11.8517 14.0776C11.9559 13.9735 12.008 13.8511 12.008 13.7104C12.008 13.5698 11.9559 13.45 11.8517 13.3511C11.7528 13.2521 11.633 13.2026 11.4924 13.2026H0.828308ZM6.67206 12.3667C6.67206 12.2261 6.61997 12.1063 6.51581 12.0073C6.41685 11.9032 6.29706 11.8511 6.15643 11.8511C6.01581 11.8511 5.89602 11.9032 5.79706 12.0073C5.6981 12.1063 5.64862 12.2261 5.64862 12.3667V15.0542C5.64862 15.1948 5.6981 15.3172 5.79706 15.4214C5.89602 15.5203 6.01581 15.5698 6.15643 15.5698C6.29706 15.5698 6.41685 15.5203 6.51581 15.4214C6.61997 15.3172 6.67206 15.1948 6.67206 15.0542V12.3667Z"
		fill="currentColor"
	/>
</svg>
