<svg
	color="rgb(var(--foreground, 0, 0, 0))"
	viewBox="0 0 8 24"
	fill="none"
	xmlns="http://www.w3.org/2000/svg"
>
	<path
		d="M3.01562 20.7461H4.89062C5.35938 20.7461 5.71094 20.6263 5.94531 20.3867C6.1849 20.1471 6.30469 19.7826 6.30469 19.293V10.9961C6.30469 10.5846 6.34896 10.2279 6.4375 9.92578C6.52604 9.6237 6.64583 9.35807 6.79688 9.12891L7.30469 8.37891C7.48177 8.10286 7.625 7.82682 7.73438 7.55078C7.84896 7.27474 7.90625 6.97005 7.90625 6.63672V5.99609H0V6.63672C0 6.97005 0.0546875 7.27474 0.164062 7.55078C0.273438 7.82682 0.419271 8.10286 0.601562 8.37891L1.10156 9.12891C1.2526 9.35807 1.3724 9.6237 1.46094 9.92578C1.54948 10.2279 1.59375 10.5846 1.59375 10.9961V19.293C1.59375 19.7826 1.71354 20.1471 1.95312 20.3867C2.19271 20.6263 2.54688 20.7461 3.01562 20.7461ZM3.95312 10.3789C4.27083 10.3789 4.52604 10.4857 4.71875 10.6992C4.91146 10.9076 5.00781 11.1758 5.00781 11.5039V13.6445C5.00781 13.9674 4.91146 14.2305 4.71875 14.4336C4.52604 14.6315 4.27083 14.7331 3.95312 14.7383C3.63542 14.7435 3.38021 14.6445 3.1875 14.4414C2.99479 14.2383 2.89844 13.9727 2.89844 13.6445V11.5039C2.89844 11.1758 2.99479 10.9076 3.1875 10.6992C3.38021 10.4857 3.63542 10.3789 3.95312 10.3789ZM3.95312 10.9336C3.78125 10.9336 3.63021 10.9961 3.5 11.1211C3.36979 11.2461 3.30469 11.3971 3.30469 11.5742C3.30469 11.7461 3.36979 11.8971 3.5 12.0273C3.63021 12.1523 3.78125 12.2148 3.95312 12.2148C4.125 12.2148 4.27344 12.1523 4.39844 12.0273C4.52865 11.8971 4.59375 11.7461 4.59375 11.5742C4.59375 11.3971 4.52865 11.2461 4.39844 11.1211C4.27344 10.9961 4.125 10.9336 3.95312 10.9336ZM0 5.08203H7.90625V4.70703C7.90625 4.21224 7.78646 3.84766 7.54688 3.61328C7.30729 3.3737 6.95312 3.25391 6.48438 3.25391H1.42188C0.953125 3.25391 0.598958 3.3737 0.359375 3.61328C0.119792 3.84766 0 4.21224 0 4.70703V5.08203Z"
		fill="currentColor"
	/>
</svg>
