<svg
	color="rgb(var(--foreground, 0, 0, 0))"
	viewBox="0 0 9 24"
	fill="none"
	xmlns="http://www.w3.org/2000/svg"
>
	<path
		d="M3.18127 20.7461H5.05627C5.52502 20.7461 5.87659 20.6263 6.11096 20.3867C6.35055 20.1471 6.47034 19.7826 6.47034 19.293V10.9961C6.47034 10.5846 6.51461 10.2279 6.60315 9.92578C6.69169 9.6237 6.81148 9.35807 6.96252 9.12891L7.47034 8.37891C7.64742 8.10286 7.79065 7.82682 7.90002 7.55078C8.01461 7.27474 8.0719 6.97005 8.0719 6.63672V5.99609H0.165649V6.63672C0.165649 6.97005 0.220337 7.27474 0.329712 7.55078C0.439087 7.82682 0.58492 8.10286 0.767212 8.37891L1.26721 9.12891C1.41825 9.35807 1.53805 9.6237 1.62659 9.92578C1.71513 10.2279 1.7594 10.5846 1.7594 10.9961V19.293C1.7594 19.7826 1.87919 20.1471 2.11877 20.3867C2.35836 20.6263 2.71252 20.7461 3.18127 20.7461ZM4.11877 14.7383C3.80107 14.7383 3.54586 14.6341 3.35315 14.4258C3.16044 14.2122 3.06409 13.9414 3.06409 13.6133V11.4727C3.06409 11.1445 3.16044 10.8789 3.35315 10.6758C3.54586 10.4727 3.80107 10.3737 4.11877 10.3789C4.43648 10.3841 4.69169 10.4883 4.8844 10.6914C5.07711 10.8893 5.17346 11.1497 5.17346 11.4727V13.6133C5.17346 13.9414 5.07711 14.2122 4.8844 14.4258C4.69169 14.6341 4.43648 14.7383 4.11877 14.7383ZM4.11877 14.1836C4.29065 14.1836 4.43909 14.1211 4.56409 13.9961C4.6943 13.8711 4.7594 13.7201 4.7594 13.543C4.7594 13.3711 4.6943 13.2201 4.56409 13.0898C4.43909 12.9596 4.29065 12.8945 4.11877 12.8945C3.9469 12.8945 3.79586 12.9596 3.66565 13.0898C3.53544 13.2201 3.47034 13.3711 3.47034 13.543C3.47034 13.7201 3.53544 13.8711 3.66565 13.9961C3.79586 14.1211 3.9469 14.1836 4.11877 14.1836ZM0.165649 5.08203H8.0719V4.70703C8.0719 4.21224 7.95211 3.84766 7.71252 3.61328C7.47294 3.3737 7.11877 3.25391 6.65002 3.25391H1.58752C1.11877 3.25391 0.764608 3.3737 0.525024 3.61328C0.285441 3.84766 0.165649 4.21224 0.165649 4.70703V5.08203Z"
		fill="currentColor"
	/>
</svg>
