<svg
	color="rgb(var(--foreground, 0, 0, 0))"
	viewBox="0 0 20 24"
	fill="none"
	xmlns="http://www.w3.org/2000/svg"
>
	<path
		d="M0.633 19.2102L1.99237 20.5774C2.33612 20.9263 2.6981 21.0878 3.07831 21.0617C3.46373 21.0357 3.84133 20.8169 4.21112 20.4055L12.7658 10.9758L11.9924 10.1946L3.50019 19.5383C3.35956 19.6998 3.21633 19.7909 3.0705 19.8117C2.92987 19.8326 2.76581 19.7492 2.57831 19.5617L1.64081 18.6321C1.45331 18.4446 1.36998 18.2779 1.39081 18.1321C1.41685 17.9914 1.5106 17.8482 1.67206 17.7024L10.8518 9.06174L10.0705 8.2883L0.797062 16.9992C0.401229 17.3638 0.187687 17.7362 0.156437 18.1164C0.130396 18.4966 0.28925 18.8612 0.633 19.2102ZM5.76581 4.65549C5.59915 4.81695 5.5054 5.00184 5.48456 5.21018C5.46373 5.41851 5.50019 5.6008 5.59394 5.75705C5.68769 5.90288 5.8231 6.01226 6.00019 6.08518C6.18248 6.15809 6.40383 6.1633 6.66425 6.1008C7.24758 5.96538 7.83873 5.9107 8.43769 5.93674C9.03665 5.95757 9.62258 6.15549 10.1955 6.53049L9.72675 7.69455C9.59133 8.02788 9.55227 8.31955 9.60956 8.56955C9.67206 8.81434 9.81008 9.04611 10.0236 9.26486L11.8596 11.1164C12.0523 11.3143 12.2398 11.4289 12.4221 11.4602C12.6044 11.4914 12.8075 11.4862 13.0314 11.4446L13.883 11.2883L14.4143 11.8274L14.383 12.2727C14.3674 12.4706 14.3908 12.6529 14.4533 12.8196C14.521 12.9862 14.6512 13.1659 14.8439 13.3586L15.4533 13.9524C15.646 14.1451 15.8544 14.2466 16.0783 14.2571C16.3075 14.2623 16.5158 14.1711 16.7033 13.9836L19.0314 11.6477C19.2189 11.4602 19.3101 11.2571 19.3049 11.0383C19.2997 10.8143 19.2007 10.606 19.008 10.4133L18.3908 9.80393C18.2033 9.61122 18.0262 9.48101 17.8596 9.4133C17.6981 9.34038 17.521 9.31174 17.3283 9.32736L16.8674 9.36643L16.3517 8.85861L16.5471 7.96018C16.5991 7.73622 16.5887 7.52788 16.5158 7.33518C16.4429 7.13726 16.2893 6.92111 16.0549 6.68674L14.2971 4.93674C13.6304 4.27528 12.9195 3.78049 12.1643 3.45236C11.4143 3.11903 10.6564 2.94716 9.89081 2.93674C9.1304 2.92111 8.39602 3.05913 7.68769 3.3508C6.98456 3.64247 6.34394 4.07736 5.76581 4.65549ZM6.96112 4.95236C7.4455 4.5982 7.96373 4.34559 8.51581 4.19455C9.0731 4.04351 9.6356 3.99663 10.2033 4.05393C10.771 4.10601 11.3205 4.25705 11.8518 4.50705C12.3882 4.75705 12.8778 5.10601 13.3205 5.55393L15.2658 7.48361C15.3596 7.57736 15.4169 7.66851 15.4377 7.75705C15.4637 7.84559 15.4611 7.95757 15.4299 8.09299L15.1721 9.28049L16.3752 10.468L17.1642 10.4211C17.2632 10.4159 17.3387 10.4237 17.3908 10.4446C17.4429 10.4602 17.508 10.5071 17.5861 10.5852L18.0471 11.0461L16.0939 12.9992L15.633 12.5383C15.5549 12.4602 15.5054 12.3951 15.4846 12.343C15.4637 12.2909 15.4559 12.2128 15.4611 12.1086L15.5158 11.3274L14.3205 10.1399L13.1018 10.343C12.9715 10.369 12.8674 10.3742 12.7893 10.3586C12.7163 10.3378 12.6304 10.2805 12.5314 10.1867L10.9299 8.58518C10.8257 8.49143 10.7658 8.40288 10.7502 8.31955C10.7398 8.23101 10.7658 8.11382 10.8283 7.96799L11.5314 6.29611C10.9064 5.71278 10.2033 5.30913 9.42206 5.08518C8.64081 4.86122 7.84394 4.86903 7.03144 5.10861C6.96894 5.12424 6.92727 5.11382 6.90644 5.07736C6.89081 5.0357 6.90904 4.99403 6.96112 4.95236Z"
		fill="currentColor"
	/>
</svg>
