<svg
	color="rgb(var(--foreground, 0, 0, 0))"
	viewBox="0 0 20 24"
	fill="none"
	xmlns="http://www.w3.org/2000/svg"
>
	<path
		d="M2.0959 20.5136C2.43965 20.8625 2.80424 21.0214 3.18965 20.9901C3.58028 20.9641 3.95267 20.7505 4.30684 20.3495L11.7365 11.8886L9.43965 9.59169L0.955277 16.9979C0.549027 17.3573 0.332881 17.7297 0.306839 18.1151C0.286006 18.5005 0.447464 18.8677 0.791214 19.2167L2.0959 20.5136ZM15.9865 13.787C16.1532 13.9433 16.3277 14.0266 16.51 14.037C16.6923 14.0474 16.8641 13.9719 17.0256 13.8104L19.3772 11.4745C19.5282 11.3235 19.5985 11.1542 19.5881 10.9667C19.5777 10.774 19.4917 10.5995 19.3303 10.4433L18.7678 9.87294C18.6115 9.7219 18.4761 9.62815 18.3615 9.59169C18.2469 9.55523 18.1063 9.54221 17.9397 9.55263L17.0256 9.662L16.4397 9.07606L16.7053 7.9745C16.773 7.70367 16.7548 7.42763 16.6506 7.14638C16.5464 6.86513 16.3511 6.58127 16.0647 6.29481L14.4943 4.74013C14.062 4.30783 13.5673 3.95367 13.01 3.67763C12.4527 3.40159 11.8641 3.21148 11.2443 3.10731C10.6245 2.99794 10.0048 2.97711 9.38496 3.04481C8.76517 3.11252 8.17142 3.27398 7.60371 3.52919C7.03601 3.77919 6.52819 4.12554 6.08028 4.56825C5.89278 4.75575 5.80424 4.94586 5.81465 5.13856C5.83028 5.33127 5.89799 5.49533 6.01778 5.63075C6.11153 5.71929 6.22611 5.7844 6.36153 5.82606C6.49694 5.86252 6.63236 5.85992 6.76778 5.81825C7.52819 5.58908 8.23913 5.4719 8.90059 5.46669C9.56205 5.45627 10.1766 5.62033 10.7443 5.95888L10.1428 7.537C10.0126 7.87033 9.97611 8.1594 10.0334 8.40419C10.0959 8.64898 10.2339 8.88075 10.4475 9.0995L12.1897 10.8417C12.3511 10.9979 12.5204 11.1021 12.6975 11.1542C12.8798 11.2011 13.0985 11.2011 13.3537 11.1542L14.6115 10.8964L15.1897 11.4823L15.1037 12.3964C15.0933 12.5683 15.1037 12.7141 15.135 12.8339C15.1714 12.9537 15.2678 13.0865 15.424 13.2323L15.9865 13.787Z"
		fill="currentColor"
	/>
</svg>
