<svg
	color="rgb(var(--foreground, 0, 0, 0))"
	viewBox="0 0 16 24"
	fill="none"
	xmlns="http://www.w3.org/2000/svg"
>
	<path
		d="M0.0415039 10.5273C0.0415039 11.3867 0.202962 12.194 0.525879 12.9492C0.848796 13.6992 1.29671 14.3607 1.86963 14.9336C2.44255 15.5065 3.104 15.9544 3.854 16.2773C4.60921 16.6003 5.4165 16.7617 6.27588 16.7617C6.95296 16.7617 7.5988 16.6576 8.21338 16.4492C8.82796 16.2409 9.39046 15.9544 9.90088 15.5898L13.7446 19.4414C13.8384 19.5299 13.9399 19.5951 14.0493 19.6367C14.1639 19.6836 14.2837 19.707 14.4087 19.707C14.5858 19.707 14.742 19.6654 14.8774 19.582C15.0129 19.5039 15.117 19.3945 15.1899 19.2539C15.2681 19.1133 15.3071 18.957 15.3071 18.7852C15.3071 18.6602 15.2837 18.543 15.2368 18.4336C15.1951 18.3242 15.1326 18.2279 15.0493 18.1445L11.229 14.3008C11.63 13.7799 11.9425 13.1992 12.1665 12.5586C12.3957 11.918 12.5103 11.2409 12.5103 10.5273C12.5103 9.66797 12.3488 8.86328 12.0259 8.11328C11.703 7.35807 11.255 6.69401 10.6821 6.12109C10.1092 5.54818 9.44515 5.10026 8.68994 4.77734C7.93994 4.45443 7.13525 4.29297 6.27588 4.29297C5.4165 4.29297 4.60921 4.45443 3.854 4.77734C3.104 5.10026 2.44255 5.54818 1.86963 6.12109C1.29671 6.69401 0.848796 7.35807 0.525879 8.11328C0.202962 8.86328 0.0415039 9.66797 0.0415039 10.5273ZM1.37744 10.5273C1.37744 9.85026 1.50244 9.21745 1.75244 8.62891C2.00765 8.03516 2.35921 7.51432 2.80713 7.06641C3.26025 6.61328 3.78109 6.26172 4.36963 6.01172C4.96338 5.75651 5.5988 5.62891 6.27588 5.62891C6.95296 5.62891 7.58577 5.75651 8.17432 6.01172C8.76807 6.26172 9.2889 6.61328 9.73682 7.06641C10.1847 7.51432 10.5363 8.03516 10.7915 8.62891C11.0467 9.21745 11.1743 9.85026 11.1743 10.5273C11.1743 11.2044 11.0467 11.8398 10.7915 12.4336C10.5363 13.0221 10.1847 13.5404 9.73682 13.9883C9.2889 14.4362 8.76807 14.7878 8.17432 15.043C7.58577 15.2982 6.95296 15.4258 6.27588 15.4258C5.5988 15.4258 4.96338 15.2982 4.36963 15.043C3.78109 14.7878 3.26025 14.4362 2.80713 13.9883C2.35921 13.5404 2.00765 13.0221 1.75244 12.4336C1.50244 11.8398 1.37744 11.2044 1.37744 10.5273Z"
		fill="currentColor"
	/>
</svg>
