<svg
	color="rgb(var(--foreground, 0, 0, 0))"
	viewBox="0 0 20 24"
	fill="none"
	xmlns="http://www.w3.org/2000/svg"
>
	<path
		d="M7.12281 10.1241C6.93531 10.3168 6.83896 10.5277 6.83375 10.7569C6.83375 10.9861 6.9301 11.197 7.12281 11.3897L10.3884 14.6632C10.5811 14.8559 10.7921 14.9496 11.0212 14.9444C11.2504 14.934 11.4614 14.8324 11.6541 14.6397L12.5056 13.7803C12.3598 13.5668 12.2973 13.335 12.3181 13.085C12.339 12.835 12.4431 12.6163 12.6306 12.4288C12.8233 12.2413 13.0421 12.1371 13.2869 12.1163C13.5369 12.0955 13.7686 12.1606 13.9822 12.3116L18.5291 7.75691C19.0968 7.18399 19.3806 6.60847 19.3806 6.03035C19.3858 5.44701 19.115 4.8793 18.5681 4.32722L17.4431 3.21003C16.891 2.65795 16.3207 2.38451 15.7322 2.38972C15.1489 2.39493 14.5733 2.67878 14.0056 3.24128L9.45875 7.78816C9.60979 7.99649 9.67489 8.22826 9.65406 8.48347C9.63844 8.73347 9.53427 8.95483 9.34156 9.14753C9.15406 9.32983 8.93531 9.43139 8.68531 9.45222C8.43531 9.46785 8.20093 9.40535 7.98218 9.26472L7.12281 10.1241ZM11.5056 8.49128L15.24 4.74128C15.2973 4.67878 15.3728 4.65014 15.4666 4.65535C15.5603 4.66055 15.641 4.6892 15.7087 4.74128C15.7765 4.79858 15.8051 4.8741 15.7947 4.96785C15.7895 5.05639 15.7582 5.1293 15.7009 5.1866L11.9509 8.9366C11.8832 8.9991 11.8077 9.03035 11.7244 9.03035C11.641 9.02514 11.5733 8.99649 11.5212 8.94441C11.4535 8.8767 11.4171 8.80118 11.4119 8.71785C11.4119 8.6293 11.4431 8.55378 11.5056 8.49128ZM12.8494 9.8116L16.5759 6.09285C16.6436 6.03035 16.7218 5.9991 16.8103 5.9991C16.8989 5.99389 16.9718 6.02514 17.0291 6.09285C17.0864 6.15535 17.115 6.23087 17.115 6.31941C17.115 6.40274 17.0864 6.47305 17.0291 6.53035L13.2947 10.2803C13.2322 10.3481 13.1567 10.3793 13.0681 10.3741C12.9796 10.3689 12.9067 10.3376 12.8494 10.2803C12.7765 10.2074 12.74 10.1319 12.74 10.0538C12.74 9.97045 12.7765 9.88972 12.8494 9.8116ZM1.69312 17.3663L0.255622 19.9991C0.193122 20.1189 0.156664 20.2257 0.146247 20.3194C0.135831 20.4132 0.169685 20.4991 0.24781 20.5772L1.16968 21.5069C1.25302 21.585 1.34156 21.6189 1.43531 21.6085C1.52906 21.5981 1.63323 21.5642 1.74781 21.5069L4.39625 20.0616C4.52646 19.9887 4.63062 19.8897 4.70875 19.7647C4.78687 19.6449 4.82854 19.5277 4.83375 19.4132L4.87281 18.5616L8.83375 14.6007L7.16187 12.921L3.19312 16.8819L2.35718 16.9288C2.23218 16.9288 2.10718 16.9678 1.98218 17.046C1.86239 17.1241 1.76604 17.2309 1.69312 17.3663Z"
		fill="currentColor"
	/>
</svg>
