<svg
	color="rgb(var(--foreground, 0, 0, 0))"
	viewBox="0 0 21 24"
	fill="none"
	xmlns="http://www.w3.org/2000/svg"
>
	<path
		d="M7.48026 10.2023C7.27713 10.4106 7.17557 10.6346 7.17557 10.8742C7.18078 11.1086 7.28234 11.3247 7.48026 11.5226L10.8474 14.8898C11.0454 15.0877 11.2615 15.1867 11.4959 15.1867C11.7355 15.1867 11.9568 15.0851 12.1599 14.882L13.4256 13.6242C13.2745 13.4419 13.2016 13.2388 13.2068 13.0148C13.2172 12.7908 13.3058 12.5955 13.4724 12.4289C13.6391 12.257 13.8344 12.1684 14.0584 12.1632C14.2823 12.158 14.4829 12.2309 14.6599 12.382L19.2615 7.78824C19.8448 7.20491 20.1391 6.60855 20.1443 5.99918C20.1495 5.38459 19.8657 4.78824 19.2928 4.21012L18.1521 3.0773C17.574 2.49918 16.9803 2.21532 16.3709 2.22574C15.7615 2.23095 15.1625 2.52522 14.574 3.10855L9.98807 7.71012C10.1391 7.8872 10.2094 8.08772 10.199 8.31168C10.1938 8.53564 10.1079 8.73095 9.94119 8.89762C9.76932 9.06428 9.5714 9.15282 9.34744 9.16324C9.12349 9.16845 8.92297 9.09293 8.74588 8.93668L7.48026 10.2023ZM8.48026 10.6007L8.97244 10.1086C9.26411 10.1711 9.54015 10.158 9.80057 10.0695C10.0662 9.97574 10.3162 9.81168 10.5506 9.5773C10.7849 9.34293 10.9464 9.09553 11.0349 8.83512C11.1235 8.56949 11.1339 8.29605 11.0662 8.0148L15.3396 3.74918C15.6782 3.41584 16.0271 3.24918 16.3865 3.24918C16.7459 3.24397 17.0896 3.40803 17.4178 3.74137L18.6287 4.94449C18.9568 5.27782 19.1209 5.62418 19.1209 5.98355C19.1209 6.34293 18.9542 6.69189 18.6209 7.03043L14.3553 11.3039C14.074 11.2362 13.8006 11.2466 13.5349 11.3351C13.2745 11.4184 13.0245 11.5799 12.7849 11.8195C12.5506 12.0539 12.3891 12.3013 12.3006 12.5617C12.212 12.8221 12.1964 13.1007 12.2537 13.3976L11.7693 13.882C11.686 13.9653 11.5948 14.0096 11.4959 14.0148C11.4021 14.02 11.311 13.9783 11.2224 13.8898L8.47244 11.1398C8.38911 11.0565 8.35005 10.9653 8.35526 10.8664C8.36047 10.7674 8.40213 10.6789 8.48026 10.6007ZM12.699 8.17105C12.6313 8.23355 12.5974 8.30907 12.5974 8.39762C12.6027 8.48616 12.6391 8.56428 12.7068 8.63199C12.7589 8.68407 12.8292 8.71272 12.9178 8.71793C13.0115 8.72314 13.087 8.69449 13.1443 8.63199L16.3709 5.37418C16.4334 5.31689 16.4646 5.24657 16.4646 5.16324C16.4698 5.07991 16.4386 5.00439 16.3709 4.93668C16.3136 4.87939 16.2407 4.85074 16.1521 4.85074C16.0688 4.84553 15.9959 4.87418 15.9334 4.93668L12.699 8.17105ZM13.7459 9.22574C13.6834 9.28824 13.6521 9.36376 13.6521 9.4523C13.6573 9.54084 13.6886 9.61376 13.7459 9.67105C13.8136 9.73355 13.8891 9.7648 13.9724 9.7648C14.061 9.7648 14.1365 9.73355 14.199 9.67105L17.4334 6.44449C17.4959 6.38199 17.5271 6.30907 17.5271 6.22574C17.5271 6.1372 17.4959 6.05907 17.4334 5.99137C17.3761 5.92887 17.3006 5.90022 17.2068 5.90543C17.1183 5.90543 17.0454 5.93407 16.9881 5.99137L13.7459 9.22574ZM2.50369 16.9211L0.70682 19.5929C0.633903 19.6971 0.59484 19.7961 0.589632 19.8898C0.584424 19.9888 0.618278 20.0747 0.691195 20.1476L2.21463 21.6789C2.28755 21.7518 2.37349 21.783 2.47244 21.7726C2.5714 21.7674 2.67297 21.7309 2.77713 21.6632L5.44901 19.8664C5.6938 19.6997 5.83703 19.4809 5.87869 19.2101L6.00369 18.3898L10.5349 13.8664L9.86307 13.1945L5.05057 18.0148L4.87869 18.9757L2.59744 20.7101L1.65213 19.7648L3.38651 17.4836L4.35526 17.3195L9.16776 12.4992L8.49588 11.8273L3.97244 16.3664L3.15213 16.4914C2.8813 16.5278 2.66515 16.6711 2.50369 16.9211Z"
		fill="currentColor"
	/>
</svg>
