<svg
	color="rgb(var(--foreground, 0, 0, 0))"
	viewBox="0 0 22 24"
	fill="none"
	xmlns="http://www.w3.org/2000/svg"
>
	<path
		d="M0.604004 6.71875C0.604004 7.35938 0.710775 8.04167 0.924316 8.76562C1.13786 9.48438 1.42692 10.1927 1.7915 10.8906C2.1613 11.5833 2.58317 12.2135 3.05713 12.7812C3.5363 13.349 4.04411 13.8021 4.58057 14.1406C5.12223 14.4792 5.6639 14.6484 6.20557 14.6484H6.55713C7.0988 14.6484 7.63786 14.4792 8.17432 14.1406C8.71077 13.8021 9.21859 13.349 9.69775 12.7812C10.1769 12.2135 10.5988 11.5833 10.9634 10.8906C11.3332 10.1927 11.6248 9.48438 11.8384 8.76562C12.0519 8.04167 12.1587 7.35938 12.1587 6.71875C12.1587 5.85417 11.9478 5.20312 11.5259 4.76562C11.1092 4.32812 10.4868 4.10938 9.65869 4.10938H8.83057V5.36719H9.72119C10.117 5.36719 10.4113 5.48177 10.604 5.71094C10.8019 5.9401 10.9009 6.27083 10.9009 6.70312C10.9009 7.19792 10.8149 7.74479 10.6431 8.34375C10.4764 8.9375 10.2446 9.53125 9.94775 10.125C9.65609 10.7188 9.31755 11.263 8.93213 11.7578C8.54671 12.2474 8.13525 12.6432 7.69775 12.9453C7.26546 13.2422 6.82536 13.3906 6.37744 13.3906C5.93473 13.3906 5.49463 13.2422 5.05713 12.9453C4.62484 12.6432 4.21598 12.2474 3.83057 11.7578C3.44515 11.263 3.104 10.7188 2.80713 10.125C2.51546 9.53125 2.28369 8.9375 2.11182 8.34375C1.94515 7.74479 1.86182 7.19792 1.86182 6.70312C1.86182 6.27083 1.95817 5.9401 2.15088 5.71094C2.3488 5.48177 2.64307 5.36719 3.03369 5.36719H3.92432V4.10938H3.09619C2.27327 4.10938 1.65088 4.32812 1.229 4.76562C0.812337 5.20312 0.604004 5.85417 0.604004 6.71875ZM9.70557 20.4531C10.4972 20.4531 11.1691 20.2422 11.7212 19.8203C12.2785 19.3984 12.7368 18.7656 13.0962 17.9219C13.4608 17.0781 13.7524 16.0208 13.9712 14.75C14.1379 13.8021 14.328 13.0573 14.5415 12.5156C14.7603 11.9688 15.0129 11.5833 15.2993 11.3594C15.5858 11.1302 15.9191 11.0156 16.2993 11.0156C16.7368 11.0156 17.1014 11.1641 17.3931 11.4609C17.6847 11.7578 17.9087 12.2057 18.0649 12.8047C18.2264 13.4036 18.3254 14.1562 18.3618 15.0625H19.6196C19.5415 13.8854 19.3748 12.9036 19.1196 12.1172C18.8696 11.3307 18.5129 10.7422 18.0493 10.3516C17.5858 9.95573 17.0024 9.75781 16.2993 9.75781C15.6639 9.75781 15.1196 9.91406 14.6665 10.2266C14.2134 10.5391 13.8306 11.0417 13.5181 11.7344C13.2056 12.4219 12.9451 13.3333 12.7368 14.4688C12.5962 15.2344 12.4425 15.9115 12.2759 16.5C12.1092 17.0885 11.9087 17.5807 11.6743 17.9766C11.4399 18.3776 11.1561 18.6797 10.8228 18.8828C10.4894 19.0911 10.091 19.1953 9.62744 19.1953C8.78369 19.1953 8.13265 18.7552 7.67432 17.875C7.21598 17 6.98942 15.7552 6.99463 14.1406H5.73682C5.73161 16.1667 6.07275 17.724 6.76025 18.8125C7.45296 19.9062 8.43473 20.4531 9.70557 20.4531ZM4.31494 5.90625C4.63786 5.90625 4.9139 5.79167 5.14307 5.5625C5.37223 5.32812 5.48682 5.04948 5.48682 4.72656C5.48682 4.40365 5.37223 4.1276 5.14307 3.89844C4.9139 3.66406 4.63786 3.54688 4.31494 3.54688C3.99202 3.54688 3.71338 3.66406 3.479 3.89844C3.24984 4.1276 3.13525 4.40365 3.13525 4.72656C3.13525 5.04948 3.24984 5.32812 3.479 5.5625C3.71338 5.79167 3.99202 5.90625 4.31494 5.90625ZM8.43213 5.90625C8.75505 5.90625 9.03109 5.79167 9.26025 5.5625C9.49463 5.32812 9.61182 5.04948 9.61182 4.72656C9.61182 4.40365 9.49463 4.1276 9.26025 3.89844C9.03109 3.66406 8.75505 3.54688 8.43213 3.54688C8.10921 3.54688 7.83317 3.66406 7.604 3.89844C7.37484 4.1276 7.26025 4.40365 7.26025 4.72656C7.26025 5.04948 7.37484 5.32812 7.604 5.5625C7.83317 5.79167 8.10921 5.90625 8.43213 5.90625ZM19.0415 19.4141C19.4946 19.4141 19.9061 19.3021 20.2759 19.0781C20.6509 18.8594 20.9504 18.5625 21.1743 18.1875C21.3983 17.8125 21.5103 17.3958 21.5103 16.9375C21.5103 16.4844 21.3983 16.0729 21.1743 15.7031C20.9504 15.3281 20.6509 15.0312 20.2759 14.8125C19.9061 14.5885 19.4946 14.474 19.0415 14.4688C18.5832 14.4688 18.1665 14.5807 17.7915 14.8047C17.4217 15.0234 17.1248 15.3203 16.9009 15.6953C16.6769 16.0703 16.5649 16.4844 16.5649 16.9375C16.5649 17.3958 16.6769 17.8125 16.9009 18.1875C17.1248 18.5625 17.4217 18.8594 17.7915 19.0781C18.1665 19.3021 18.5832 19.4141 19.0415 19.4141ZM19.0415 18.3125C18.7863 18.3125 18.5545 18.25 18.3462 18.125C18.1379 18.0052 17.9712 17.8385 17.8462 17.625C17.7212 17.4167 17.6587 17.1875 17.6587 16.9375C17.6587 16.6823 17.7212 16.4505 17.8462 16.2422C17.9712 16.0339 18.1379 15.8698 18.3462 15.75C18.5545 15.625 18.7863 15.5625 19.0415 15.5625C19.2967 15.5625 19.5259 15.625 19.729 15.75C19.9373 15.8698 20.104 16.0339 20.229 16.2422C20.354 16.4505 20.4165 16.6823 20.4165 16.9375C20.4165 17.1875 20.354 17.4167 20.229 17.625C20.104 17.8385 19.9373 18.0052 19.729 18.125C19.5259 18.25 19.2967 18.3125 19.0415 18.3125Z"
		fill="currentColor"
	/>
</svg>
