<svg
	color="rgb(var(--foreground, 0, 0, 0))"
	viewBox="0 0 20 24"
	fill="none"
	xmlns="http://www.w3.org/2000/svg"
>
	<path
		d="M6.89001 13.5271L11.6556 9.62867L6.11658 4.05055C5.5697 3.50367 5.00981 3.23023 4.43689 3.23023C3.86397 3.22503 3.30929 3.49065 2.77283 4.02711L1.73376 5.06617C1.20251 5.60263 0.93689 6.15732 0.93689 6.73023C0.93689 7.29794 1.21033 7.85523 1.7572 8.40211L6.89001 13.5271ZM6.42908 10.1834L3.32751 7.09742C3.26501 7.03492 3.23376 6.962 3.23376 6.87867C3.23897 6.79013 3.27022 6.712 3.32751 6.6443C3.39001 6.587 3.46554 6.56096 3.55408 6.56617C3.64262 6.56617 3.71293 6.59221 3.76501 6.6443L6.87439 9.75367C6.93689 9.81617 6.96554 9.88909 6.96033 9.97242C6.96033 10.0505 6.93168 10.1209 6.87439 10.1834C6.81189 10.2459 6.73637 10.2771 6.64783 10.2771C6.56449 10.2771 6.49158 10.2459 6.42908 10.1834ZM7.45251 9.17555L4.35876 6.05836C4.30147 6.00107 4.27022 5.93075 4.26501 5.84742C4.26501 5.76409 4.29626 5.69117 4.35876 5.62867C4.41606 5.57138 4.48637 5.54273 4.5697 5.54273C4.65824 5.53753 4.73376 5.56617 4.79626 5.62867L7.89783 8.72242C7.95512 8.77971 7.98376 8.85263 7.98376 8.94117C7.98376 9.02971 7.95251 9.10784 7.89001 9.17555C7.83793 9.22763 7.76501 9.25628 7.67126 9.26148C7.58272 9.26669 7.50981 9.23805 7.45251 9.17555ZM17.64 20.8396L18.5541 19.9255C18.627 19.8526 18.6582 19.7667 18.6478 19.6677C18.6426 19.574 18.6062 19.4646 18.5385 19.3396L17.1244 16.738C16.9681 16.4568 16.7468 16.311 16.4603 16.3005L15.6322 16.2615L11.5775 12.2068L9.93689 13.9021L13.9681 17.9334L14.0072 18.7615C14.0072 18.8813 14.0463 19.0011 14.1244 19.1209C14.2025 19.2459 14.3093 19.3422 14.4447 19.4099L17.0619 20.8396C17.1765 20.8969 17.2806 20.9308 17.3744 20.9412C17.4733 20.9516 17.5619 20.9177 17.64 20.8396ZM2.15564 20.1599C2.60876 20.6078 3.09835 20.9073 3.62439 21.0584C4.15564 21.2146 4.68429 21.2172 5.21033 21.0662C5.74158 20.9203 6.22856 20.6235 6.67126 20.1755C6.95772 19.8891 7.20251 19.587 7.40564 19.2693C7.60876 18.9568 7.80929 18.613 8.0072 18.238C8.20512 17.8683 8.43689 17.4516 8.70251 16.988C8.97335 16.5245 9.31449 16.0037 9.72595 15.4255C10.1374 14.8422 10.6556 14.186 11.2806 13.4568C11.9056 12.7224 12.6765 11.8969 13.5931 10.9802L12.9135 10.2927C11.9082 11.2979 11.0775 12.1782 10.4213 12.9334C9.77022 13.6886 9.24158 14.3474 8.83533 14.9099C8.43429 15.4672 8.11137 15.9568 7.86658 16.3787C7.62179 16.8005 7.40824 17.1782 7.22595 17.5115C7.04887 17.8448 6.85876 18.1599 6.65564 18.4568C6.45772 18.7589 6.19731 19.0714 5.87439 19.3943C5.4421 19.8318 4.95512 20.0505 4.41345 20.0505C3.87699 20.0558 3.3822 19.8344 2.92908 19.3865C2.48116 18.9282 2.2572 18.4308 2.2572 17.8943C2.2572 17.3578 2.47335 16.8735 2.90564 16.4412C3.23376 16.1183 3.54626 15.8578 3.84314 15.6599C4.14522 15.4568 4.46293 15.2667 4.79626 15.0896C5.13481 14.9073 5.51241 14.6938 5.92908 14.449C6.35095 14.2042 6.84314 13.8813 7.40564 13.4802C7.96814 13.074 8.62439 12.5453 9.37439 11.8943C10.1296 11.238 11.0098 10.4073 12.015 9.40211L11.3353 8.72242C10.4187 9.63909 9.59314 10.4099 8.85876 11.0349C8.1296 11.6599 7.47335 12.1782 6.89001 12.5896C6.31189 12.9959 5.79106 13.3344 5.32751 13.6052C4.86397 13.8709 4.4447 14.1052 4.0697 14.3084C3.69991 14.5063 3.35616 14.7068 3.03845 14.9099C2.72595 15.1078 2.42647 15.35 2.14001 15.6365C1.6921 16.0844 1.39262 16.5714 1.24158 17.0974C1.09574 17.6235 1.09835 18.1521 1.24939 18.6834C1.40564 19.2146 1.70772 19.7068 2.15564 20.1599ZM11.8744 10.4334C12.3223 10.8813 12.8223 11.2198 13.3744 11.449C13.9317 11.6782 14.502 11.8005 15.0853 11.8162C15.6687 11.8266 16.2338 11.7276 16.7806 11.5193C17.3275 11.311 17.8171 10.9907 18.2494 10.5584C18.7181 10.0896 19.0541 9.54794 19.2572 8.93336C19.4655 8.31878 19.5358 7.68336 19.4681 7.02711C19.4056 6.36565 19.1999 5.73544 18.851 5.13648L18.0931 5.90211C18.3119 6.35003 18.4343 6.81357 18.4603 7.29273C18.4864 7.76669 18.4187 8.22503 18.2572 8.66773C18.101 9.10523 17.8536 9.49325 17.515 9.8318C17.0723 10.2693 16.5567 10.5558 15.9681 10.6912C15.3848 10.8266 14.7937 10.811 14.1947 10.6443C13.601 10.4776 13.0723 10.1651 12.6088 9.7068C12.1452 9.24325 11.8301 8.71461 11.6635 8.12086C11.4968 7.5219 11.4812 6.92815 11.6166 6.33961C11.7572 5.75107 12.0489 5.23805 12.4916 4.80055C13.002 4.29013 13.6166 3.98544 14.3353 3.88648C15.0593 3.78232 15.7468 3.8969 16.3978 4.23023L17.1635 3.46461C16.5697 3.11565 15.9447 2.90992 15.2885 2.84742C14.6322 2.77971 13.9968 2.85003 13.3822 3.05836C12.7728 3.26148 12.2338 3.60003 11.765 4.07398C11.3327 4.50107 11.0098 4.98805 10.7963 5.53492C10.5879 6.0818 10.489 6.6469 10.4994 7.23023C10.5098 7.80836 10.6296 8.37607 10.8588 8.93336C11.0879 9.48544 11.4265 9.98544 11.8744 10.4334ZM14.2416 6.92555L15.3978 8.07398C15.6895 8.36565 16.0046 8.51409 16.3431 8.5193C16.6817 8.5245 16.989 8.38909 17.265 8.11305L18.9056 6.46461L18.2181 5.78492L16.726 7.26148C16.4916 7.50107 16.2572 7.50107 16.0228 7.26148L15.0697 6.30055C14.8197 6.04534 14.8067 5.80575 15.0306 5.5818L16.5385 4.08961L15.8275 3.40211L14.2025 5.03492C13.9108 5.32138 13.7702 5.63388 13.7806 5.97242C13.7911 6.31096 13.9447 6.62867 14.2416 6.92555ZM4.3822 18.9177C4.64783 18.9177 4.87439 18.8214 5.06189 18.6287C5.2546 18.4412 5.35095 18.2146 5.35095 17.949C5.35095 17.6834 5.2546 17.4568 5.06189 17.2693C4.87439 17.0818 4.64783 16.988 4.3822 16.988C4.11658 16.988 3.89001 17.0818 3.70251 17.2693C3.51501 17.4568 3.42126 17.6834 3.42126 17.949C3.42126 18.2146 3.51501 18.4412 3.70251 18.6287C3.89001 18.8214 4.11658 18.9177 4.3822 18.9177Z"
		fill="currentColor"
	/>
</svg>
