<svg
	color="rgb(var(--foreground, 0, 0, 0))"
	viewBox="0 0 19 24"
	fill="none"
	xmlns="http://www.w3.org/2000/svg"
>
	<path
		d="M1.99237 12.9766H17.8908V11.7969H1.99237V12.9766ZM5.0705 14.0469H7.008C7.28404 14.0469 7.49758 13.974 7.64862 13.8281C7.79966 13.6771 7.87518 13.4661 7.87518 13.1953V11.5938C7.87518 11.3177 7.79966 11.1068 7.64862 10.9609C7.49758 10.8099 7.28404 10.7344 7.008 10.7344H5.0705C4.79445 10.7344 4.58091 10.8099 4.42987 10.9609C4.28404 11.1068 4.21112 11.3177 4.21112 11.5938V13.1953C4.21112 13.4661 4.28404 13.6771 4.42987 13.8281C4.58091 13.974 4.79445 14.0469 5.0705 14.0469ZM12.8674 14.0469H14.8049C15.0809 14.0469 15.2945 13.974 15.4455 13.8281C15.5965 13.6771 15.6721 13.4661 15.6721 13.1953V11.5938C15.6721 11.3177 15.5965 11.1068 15.4455 10.9609C15.2945 10.8099 15.0809 10.7344 14.8049 10.7344H12.8674C12.5913 10.7344 12.3778 10.8099 12.2267 10.9609C12.0757 11.1068 12.0002 11.3177 12.0002 11.5938V13.1953C12.0002 13.4661 12.0757 13.6771 12.2267 13.8281C12.3778 13.974 12.5913 14.0469 12.8674 14.0469ZM3.31268 19.5703H16.5705C17.3778 19.5703 17.982 19.3724 18.383 18.9766C18.784 18.5807 18.9846 17.9844 18.9846 17.1875V9.58594C18.9846 8.78385 18.784 8.1875 18.383 7.79688C17.982 7.40104 17.3778 7.20312 16.5705 7.20312H3.31268C2.5106 7.20312 1.90643 7.40104 1.50018 7.79688C1.09914 8.1875 0.898621 8.78385 0.898621 9.58594V17.1875C0.898621 17.9844 1.09914 18.5807 1.50018 18.9766C1.90643 19.3724 2.5106 19.5703 3.31268 19.5703ZM3.32831 18.3203C2.9481 18.3203 2.65643 18.2214 2.45331 18.0234C2.25539 17.8255 2.15643 17.526 2.15643 17.125V9.64844C2.15643 9.2474 2.25539 8.94792 2.45331 8.75C2.65643 8.55208 2.9481 8.45312 3.32831 8.45312H16.5549C16.9351 8.45312 17.2241 8.55208 17.4221 8.75C17.6252 8.94792 17.7267 9.2474 17.7267 9.64844V17.125C17.7267 17.526 17.6252 17.8255 17.4221 18.0234C17.2241 18.2214 16.9351 18.3203 16.5549 18.3203H3.32831ZM5.97675 7.88281H7.18768V6.5C7.18768 6.20312 7.27102 5.97396 7.43768 5.8125C7.60435 5.65104 7.84133 5.57031 8.14862 5.57031H11.7346C12.0366 5.57031 12.271 5.65104 12.4377 5.8125C12.6043 5.97396 12.6877 6.20312 12.6877 6.5V7.86719H13.8986V6.58594C13.8986 5.85156 13.7111 5.3099 13.3361 4.96094C12.9611 4.60677 12.4195 4.42969 11.7111 4.42969H8.16425C7.49758 4.42969 6.96633 4.60677 6.5705 4.96094C6.17466 5.3099 5.97675 5.85156 5.97675 6.58594V7.88281Z"
		fill="currentColor"
	/>
</svg>
