<svg
	color="rgb(var(--foreground, 0, 0, 0))"
	viewBox="0 0 20 24"
	fill="none"
	xmlns="http://www.w3.org/2000/svg"
>
	<path
		d="M0.984558 12.9766V11.7969H4.29706V11.5938C4.29706 11.0208 4.58352 10.7344 5.15643 10.7344H7.09393C7.67206 10.7344 7.96112 11.0208 7.96112 11.5938V11.7969H12.0861V11.5938C12.0861 11.0208 12.3752 10.7344 12.9533 10.7344H14.8908C15.4689 10.7344 15.758 11.0208 15.758 11.5938V11.7969H19.0705V12.9766H15.758V13.1953C15.758 13.763 15.4689 14.0469 14.8908 14.0469H12.9533C12.3752 14.0469 12.0861 13.763 12.0861 13.1953V12.9766H7.96112V13.1953C7.96112 13.763 7.67206 14.0469 7.09393 14.0469H5.15643C4.58352 14.0469 4.29706 13.763 4.29706 13.1953V12.9766H0.984558ZM3.39862 19.5703H16.6564C17.4637 19.5703 18.0679 19.3724 18.4689 18.9766C18.87 18.5807 19.0705 17.9844 19.0705 17.1875V9.58594C19.0705 8.78385 18.87 8.1875 18.4689 7.79688C18.0679 7.40104 17.4637 7.20312 16.6564 7.20312H3.39862C2.59654 7.20312 1.99237 7.40104 1.58612 7.79688C1.18508 8.1875 0.984558 8.78385 0.984558 9.58594V17.1875C0.984558 17.9844 1.18508 18.5807 1.58612 18.9766C1.99237 19.3724 2.59654 19.5703 3.39862 19.5703ZM6.06268 7.88281H7.27362V6.5C7.27362 6.20312 7.35695 5.97396 7.52362 5.8125C7.69029 5.65104 7.92727 5.57031 8.23456 5.57031H11.8205C12.1226 5.57031 12.357 5.65104 12.5236 5.8125C12.6903 5.97396 12.7736 6.20312 12.7736 6.5V7.86719H13.9846V6.58594C13.9846 5.85156 13.7971 5.3099 13.4221 4.96094C13.0471 4.60677 12.5054 4.42969 11.7971 4.42969H8.25018C7.58352 4.42969 7.05227 4.60677 6.65643 4.96094C6.2606 5.3099 6.06268 5.85156 6.06268 6.58594V7.88281Z"
		fill="currentColor"
	/>
</svg>
