<svg
	color="rgb(var(--foreground, 0, 0, 0))"
	viewBox="0 0 17 24"
	fill="none"
	xmlns="http://www.w3.org/2000/svg"
>
	<path
		d="M4.55713 11.879V14.84L1.45557 17.9493L2.57275 19.0587L5.61963 16.0197L8.69775 16.0118C8.94775 16.0118 9.19775 15.9676 9.44775 15.879C9.69775 15.7905 9.9139 15.6551 10.0962 15.4728L16.5649 9.09778C16.7212 8.94153 16.7967 8.75403 16.7915 8.53528C16.7863 8.31653 16.7108 8.13163 16.5649 7.98059C16.4139 7.82434 16.2264 7.74622 16.0024 7.74622C15.7837 7.74622 15.5988 7.82434 15.4478 7.98059L9.229 14.2072C9.11442 14.3165 8.98942 14.4025 8.854 14.465C8.71859 14.5275 8.57015 14.5587 8.40869 14.5587H6.229L6.11182 14.4181V12.0743C6.11182 11.9129 6.14046 11.7644 6.19775 11.629C6.26025 11.4884 6.34619 11.3634 6.45557 11.254L12.5962 5.12903C12.7472 4.97278 12.8201 4.78528 12.8149 4.56653C12.8149 4.34778 12.742 4.16028 12.5962 4.00403C12.4451 3.85299 12.2576 3.77747 12.0337 3.77747C11.8149 3.77226 11.63 3.85038 11.479 4.01184L5.104 10.4806C4.9113 10.6733 4.77327 10.892 4.68994 11.1368C4.60661 11.3764 4.56234 11.6238 4.55713 11.879ZM1.76807 20.2228C2.0389 20.2228 2.28369 20.1551 2.50244 20.0197C2.7264 19.8894 2.90348 19.7124 3.03369 19.4884C3.16911 19.2697 3.23682 19.0249 3.23682 18.754C3.23682 18.4832 3.16911 18.2358 3.03369 18.0118C2.90348 17.7879 2.7264 17.6108 2.50244 17.4806C2.28369 17.3504 2.0389 17.2853 1.76807 17.2853C1.49723 17.2853 1.25244 17.353 1.03369 17.4884C0.814941 17.6186 0.637858 17.7931 0.502441 18.0118C0.372233 18.2358 0.307129 18.4832 0.307129 18.754C0.307129 19.0249 0.372233 19.2697 0.502441 19.4884C0.637858 19.7124 0.814941 19.8894 1.03369 20.0197C1.25765 20.1551 1.50244 20.2228 1.76807 20.2228Z"
		fill="currentColor"
	/>
</svg>
