<svg
	color="rgb(var(--foreground, 0, 0, 0))"
	viewBox="0 0 19 24"
	fill="none"
	xmlns="http://www.w3.org/2000/svg"
>
	<path
		d="M1.75547 20.3369C2.18255 20.7639 2.65911 21.0478 3.18515 21.1884C3.7164 21.3343 4.24765 21.3212 4.7789 21.1494C5.31015 20.9827 5.79453 20.652 6.23203 20.1572C6.58099 19.7561 6.94817 19.277 7.33359 18.7197C7.71901 18.1624 8.12786 17.5686 8.56015 16.9384C8.99245 16.3082 9.45338 15.6754 9.94297 15.04C10.4325 14.3994 10.9586 13.8004 11.5211 13.2431C11.8075 12.9514 12.1018 12.7431 12.4039 12.6181C12.7112 12.4879 13.0237 12.4046 13.3414 12.3681C13.6643 12.3264 13.995 12.2978 14.3336 12.2822C14.6721 12.2613 15.0185 12.2171 15.3727 12.1494C15.732 12.0764 16.0992 11.9462 16.4742 11.7587C16.8544 11.5712 17.2424 11.2848 17.6383 10.8994C17.9612 10.5921 18.2294 10.2535 18.443 9.88374C18.6617 9.51395 18.8128 9.14155 18.8961 8.76655C18.9846 8.38634 18.9977 8.03739 18.9352 7.71968L15.9352 8.53999C15.6852 8.6077 15.4716 8.57124 15.2945 8.43061C15.1227 8.28999 14.9977 8.08426 14.9195 7.81343L14.693 7.02436C14.6148 6.75353 14.62 6.51655 14.7086 6.31343C14.8023 6.10509 14.9742 5.96707 15.2242 5.89936L18.2164 5.08686C18.1747 4.95145 18.094 4.7978 17.9742 4.62593C17.8544 4.44884 17.7138 4.27697 17.5523 4.1103C17.0992 3.64676 16.5862 3.30041 16.0133 3.07124C15.4404 2.83686 14.8492 2.71707 14.2398 2.71186C13.6357 2.70145 13.0497 2.80041 12.482 3.00874C11.9195 3.21707 11.4195 3.52697 10.982 3.93843C10.5497 4.35509 10.2268 4.77176 10.0133 5.18843C9.80495 5.59989 9.66432 6.01134 9.5914 6.4228C9.5237 6.83426 9.48463 7.23791 9.47422 7.63374C9.46901 8.02436 9.45599 8.40457 9.43515 8.77436C9.41432 9.13895 9.34661 9.48791 9.23203 9.82124C9.12265 10.1494 8.92474 10.4567 8.63828 10.7431C8.12786 11.2535 7.56797 11.7431 6.95859 12.2119C6.34922 12.6754 5.73463 13.1181 5.11484 13.54C4.49505 13.9619 3.90911 14.3655 3.35703 14.7509C2.80495 15.1363 2.32838 15.5061 1.92734 15.8603C1.42734 16.2926 1.09401 16.7744 0.927341 17.3056C0.760675 17.8369 0.747654 18.3655 0.888279 18.8916C1.03411 19.4228 1.32317 19.9046 1.75547 20.3369ZM2.49765 19.5869C2.2164 19.3004 2.03151 18.9775 1.94297 18.6181C1.85442 18.2639 1.86745 17.9098 1.98203 17.5556C2.09661 17.1962 2.31797 16.8733 2.64609 16.5869C3.05234 16.2327 3.54192 15.8551 4.11484 15.4541C4.68776 15.053 5.29192 14.6363 5.92734 14.2041C6.56276 13.7666 7.18255 13.3212 7.78672 12.8681C8.39088 12.4098 8.92474 11.9488 9.38828 11.4853C9.72161 11.1468 9.95599 10.7978 10.0914 10.4384C10.232 10.0791 10.318 9.71186 10.3492 9.33686C10.3805 8.95666 10.3961 8.57124 10.3961 8.18061C10.3961 7.78999 10.4221 7.39936 10.4742 7.00874C10.5315 6.61811 10.6539 6.22749 10.8414 5.83686C11.0289 5.44624 11.3284 5.06082 11.7398 4.68061C12.0732 4.37332 12.4612 4.14416 12.9039 3.99311C13.3518 3.83686 13.8154 3.76395 14.2945 3.77436C14.7737 3.78478 15.2398 3.87853 15.693 4.05561C16.1461 4.2327 16.5523 4.49832 16.9117 4.85249L17.1695 4.38374L15.0133 4.94624C14.4404 5.09728 14.0367 5.38114 13.8023 5.7978C13.5732 6.21447 13.5445 6.71968 13.7164 7.31343L13.9352 8.07124C14.1227 8.7327 14.4039 9.16759 14.7789 9.37593C15.1591 9.58426 15.6096 9.61811 16.1305 9.47749L18.357 8.87593L17.8883 8.62593C17.8049 8.90718 17.6852 9.18843 17.5289 9.46968C17.3779 9.74572 17.1799 10.0061 16.9352 10.2509C16.5445 10.6259 16.1435 10.8863 15.732 11.0322C15.3258 11.1728 14.9143 11.2587 14.4977 11.29C14.081 11.3212 13.6617 11.3551 13.2398 11.3916C12.818 11.428 12.4013 11.5218 11.9898 11.6728C11.5784 11.8238 11.1721 12.0973 10.7711 12.4931C10.2607 13.0035 9.76588 13.5738 9.28672 14.2041C8.80755 14.8291 8.34661 15.4671 7.9039 16.1181C7.4612 16.7692 7.03932 17.3837 6.63828 17.9619C6.23724 18.54 5.85963 19.0322 5.50547 19.4384C5.20859 19.777 4.88047 20.0035 4.52109 20.1181C4.16172 20.2379 3.80495 20.2509 3.45078 20.1572C3.09661 20.0634 2.7789 19.8733 2.49765 19.5869ZM11.8414 10.3759L13.5367 9.9228C13.6044 9.90718 13.6565 9.86551 13.693 9.7978C13.7346 9.72489 13.745 9.65197 13.7242 9.57905C13.7086 9.50614 13.6669 9.45145 13.5992 9.41499C13.5367 9.37332 13.4664 9.36551 13.3883 9.39155L11.7008 9.84468C11.5341 9.88634 11.469 9.99572 11.5055 10.1728C11.5159 10.2561 11.5549 10.316 11.6227 10.3525C11.6956 10.3889 11.7685 10.3968 11.8414 10.3759ZM11.6383 9.51655L13.3102 9.07124C13.3831 9.05041 13.4378 9.00874 13.4742 8.94624C13.5159 8.87853 13.5263 8.80301 13.5055 8.71968C13.4846 8.64676 13.4404 8.59207 13.3727 8.55561C13.3102 8.51916 13.2424 8.50874 13.1695 8.52436L11.482 8.9853C11.4091 9.00093 11.3518 9.04259 11.3102 9.1103C11.2737 9.17801 11.2659 9.24572 11.2867 9.31343C11.3388 9.50093 11.456 9.56864 11.6383 9.51655ZM11.4273 8.65718L13.107 8.21186C13.1799 8.19103 13.2346 8.14676 13.2711 8.07905C13.3128 8.01134 13.3206 7.93843 13.2945 7.8603C13.2789 7.78739 13.2372 7.7327 13.1695 7.69624C13.1018 7.65457 13.0341 7.64416 12.9664 7.66499L11.2711 8.11811C11.1982 8.13895 11.1435 8.18322 11.107 8.25093C11.0706 8.31864 11.0628 8.38634 11.0836 8.45405C11.1044 8.53739 11.1461 8.59728 11.2086 8.63374C11.2711 8.6702 11.344 8.67801 11.4273 8.65718ZM14.9117 11.6337L15.6148 11.4775L14.6383 7.93061L13.9352 8.07124L14.9117 11.6337ZM3.9664 19.0947C4.23203 19.0947 4.45859 19.0009 4.64609 18.8134C4.83359 18.6259 4.92734 18.3994 4.92734 18.1337C4.92734 17.8681 4.83359 17.6416 4.64609 17.4541C4.45859 17.2613 4.23203 17.165 3.9664 17.165C3.70078 17.165 3.47161 17.2613 3.2789 17.4541C3.0914 17.6416 2.99765 17.8681 2.99765 18.1337C2.99765 18.3994 3.0914 18.6259 3.2789 18.8134C3.47161 19.0009 3.70078 19.0947 3.9664 19.0947Z"
		fill="currentColor"
	/>
</svg>
