<svg
	color="rgb(var(--foreground, 0, 0, 0))"
	viewBox="0 0 19 24"
	fill="none"
	xmlns="http://www.w3.org/2000/svg"
>
	<path
		d="M6.33386 13.5122L7.08386 12.7778L1.90417 7.57472C1.62292 7.28826 1.4823 6.9992 1.4823 6.70753C1.4823 6.41586 1.62292 6.1268 1.90417 5.84034L3.00574 4.73097C3.28178 4.44972 3.56824 4.3117 3.86511 4.3169C4.1672 4.3169 4.45886 4.45753 4.74011 4.73878L10.3182 10.3091L11.0995 9.61378L5.56042 4.03565C5.01355 3.48878 4.45365 3.21534 3.88074 3.21534C3.30782 3.21013 2.75313 3.47576 2.21667 4.01222L1.17761 5.05128C0.646362 5.58774 0.380737 6.14242 0.380737 6.71534C0.380737 7.28305 0.654175 7.84034 1.20105 8.38722L6.33386 13.5122ZM5.82605 10.0357C5.88334 10.0929 5.95105 10.1216 6.02917 10.1216C6.11251 10.1216 6.18282 10.0929 6.24011 10.0357C6.2974 9.97836 6.32605 9.91065 6.32605 9.83253C6.32605 9.7544 6.2974 9.6867 6.24011 9.6294L3.31824 6.70753C3.26615 6.66065 3.19845 6.63722 3.11511 6.63722C3.03178 6.63201 2.96147 6.65545 2.90417 6.70753C2.85209 6.77003 2.82345 6.84295 2.81824 6.92628C2.81824 7.00961 2.84688 7.07732 2.90417 7.1294L5.82605 10.0357ZM6.78699 9.08253C6.84428 9.13982 6.91459 9.16847 6.99792 9.16847C7.08126 9.16326 7.14897 9.13461 7.20105 9.08253C7.25834 9.01482 7.28699 8.9419 7.28699 8.86378C7.28699 8.78045 7.26095 8.71274 7.20886 8.66065L4.28699 5.74659C4.2297 5.6893 4.15938 5.66326 4.07605 5.66847C3.99792 5.66847 3.93282 5.69451 3.88074 5.74659C3.82345 5.80909 3.7948 5.8794 3.7948 5.95753C3.80001 6.03045 3.82865 6.09555 3.88074 6.15284L6.78699 9.08253ZM16.8417 21.0669L18.2401 19.6685C18.3234 19.5799 18.3599 19.4758 18.3495 19.356C18.3443 19.2414 18.3026 19.1242 18.2245 19.0044L16.5917 16.5669C16.4146 16.3065 16.1828 16.1554 15.8964 16.1138L15.1932 16.0044L11.4042 12.2153L10.6776 13.0513L14.7401 17.0982L15.6151 17.2466L17.1073 19.231L16.3964 19.9419L14.4198 18.4497L14.2635 17.5747L10.2401 13.5435L9.50574 14.3716L13.1698 18.0278L13.2792 18.731C13.2948 18.8716 13.3443 19.0018 13.4276 19.1216C13.5109 19.2414 13.6125 19.3403 13.7323 19.4185L16.1776 21.0747C16.3026 21.158 16.4224 21.1971 16.537 21.1919C16.6516 21.1919 16.7531 21.1502 16.8417 21.0669ZM1.59949 20.145C2.05261 20.5929 2.5422 20.8924 3.06824 21.0435C3.59949 21.1997 4.12813 21.2023 4.65417 21.0513C5.18542 20.9054 5.6724 20.6086 6.11511 20.1607C6.40157 19.8742 6.64636 19.5721 6.84949 19.2544C7.05261 18.9419 7.25313 18.5982 7.45105 18.2232C7.64897 17.8534 7.88074 17.4367 8.14636 16.9732C8.4172 16.5096 8.75834 15.9888 9.1698 15.4107C9.58126 14.8273 10.0995 14.1711 10.7245 13.4419C11.3495 12.7075 12.1203 11.882 13.037 10.9653L12.3573 10.2778C11.3521 11.283 10.5214 12.1633 9.86511 12.9185C9.21407 13.6737 8.68542 14.3325 8.27917 14.895C7.87813 15.4523 7.55522 15.9419 7.31042 16.3638C7.06563 16.7857 6.85209 17.1633 6.6698 17.4966C6.49272 17.8299 6.30261 18.145 6.09949 18.4419C5.90157 18.744 5.64115 19.0565 5.31824 19.3794C4.88595 19.8169 4.39897 20.0357 3.8573 20.0357C3.32084 20.0409 2.82605 19.8195 2.37292 19.3716C1.92501 18.9133 1.70105 18.4159 1.70105 17.8794C1.70105 17.3429 1.9172 16.8586 2.34949 16.4263C2.67761 16.1034 2.99011 15.8429 3.28699 15.645C3.58907 15.4419 3.90678 15.2518 4.24011 15.0747C4.57865 14.8924 4.95626 14.6789 5.37292 14.4341C5.7948 14.1893 6.28699 13.8664 6.84949 13.4653C7.41199 13.0591 8.06824 12.5304 8.81824 11.8794C9.57345 11.2232 10.4537 10.3924 11.4589 9.38722L10.7792 8.70753C9.86251 9.6242 9.03699 10.395 8.30261 11.02C7.57345 11.645 6.9172 12.1633 6.33386 12.5747C5.75574 12.981 5.2349 13.3195 4.77136 13.5903C4.30782 13.856 3.88855 14.0903 3.51355 14.2935C3.14376 14.4914 2.80001 14.6919 2.4823 14.895C2.1698 15.0929 1.87032 15.3351 1.58386 15.6216C1.13595 16.0695 0.836466 16.5565 0.685425 17.0825C0.539591 17.6086 0.542196 18.1372 0.693237 18.6685C0.849487 19.1997 1.15157 19.6919 1.59949 20.145ZM3.82605 18.9028C4.09167 18.9028 4.31824 18.8065 4.50574 18.6138C4.69845 18.4263 4.7948 18.1997 4.7948 17.9341C4.7948 17.6685 4.69845 17.4419 4.50574 17.2544C4.31824 17.0669 4.09167 16.9732 3.82605 16.9732C3.56042 16.9732 3.33386 17.0669 3.14636 17.2544C2.95886 17.4419 2.86511 17.6685 2.86511 17.9341C2.86511 18.1997 2.95886 18.4263 3.14636 18.6138C3.33386 18.8065 3.56042 18.9028 3.82605 18.9028ZM11.3182 10.4185C11.7662 10.8664 12.2662 11.2049 12.8182 11.4341C13.3755 11.6633 13.9458 11.7857 14.5292 11.8013C15.1125 11.8117 15.6776 11.7127 16.2245 11.5044C16.7714 11.2961 17.2609 10.9758 17.6932 10.5435C18.162 10.0747 18.4979 9.53305 18.701 8.91847C18.9094 8.30388 18.9797 7.66847 18.912 7.01222C18.8495 6.35076 18.6438 5.72055 18.2948 5.12159L17.537 5.88722C17.7557 6.33513 17.8781 6.79867 17.9042 7.27784C17.9302 7.7518 17.8625 8.21013 17.701 8.65284C17.5448 9.09034 17.2974 9.47836 16.9589 9.8169C16.5162 10.2544 16.0005 10.5409 15.412 10.6763C14.8287 10.8117 14.2375 10.7961 13.6385 10.6294C13.0448 10.4627 12.5162 10.1502 12.0526 9.6919C11.5891 9.22836 11.274 8.69972 11.1073 8.10597C10.9406 7.50701 10.925 6.91326 11.0604 6.32472C11.201 5.73617 11.4927 5.22315 11.9354 4.78565C12.4458 4.27524 13.0604 3.97055 13.7792 3.87159C14.5031 3.76742 15.1906 3.88201 15.8417 4.21534L16.6073 3.44972C16.0135 3.10076 15.3885 2.89503 14.7323 2.83253C14.076 2.76482 13.4406 2.83513 12.826 3.04347C12.2167 3.24659 11.6776 3.58513 11.2089 4.05909C10.7766 4.48617 10.4537 4.97315 10.2401 5.52003C10.0318 6.0669 9.93282 6.63201 9.94324 7.21534C9.95365 7.79347 10.0734 8.36117 10.3026 8.91847C10.5318 9.47055 10.8703 9.97055 11.3182 10.4185ZM13.6854 6.91065L14.8417 8.05909C15.1333 8.35076 15.4484 8.4992 15.787 8.5044C16.1255 8.50961 16.4328 8.3742 16.7089 8.09815L18.3495 6.44972L17.662 5.77003L16.1698 7.24659C15.9354 7.48617 15.701 7.48617 15.4667 7.24659L14.5135 6.28565C14.2635 6.03045 14.2505 5.79086 14.4745 5.5669L15.9823 4.07472L15.2714 3.38722L13.6464 5.02003C13.3547 5.30649 13.2141 5.61899 13.2245 5.95753C13.2349 6.29607 13.3885 6.61378 13.6854 6.91065Z"
		fill="currentColor"
	/>
</svg>
