<svg
	color="rgb(var(--foreground, 0, 0, 0))"
	viewBox="0 0 20 24"
	fill="none"
	xmlns="http://www.w3.org/2000/svg"
>
	<path
		d="M1.93772 20.3439C2.3648 20.771 2.84397 21.0574 3.37522 21.2033C3.91168 21.3491 4.44553 21.3387 4.97678 21.172C5.50803 21.0106 5.98459 20.6772 6.40647 20.172C6.59397 19.9481 6.83095 19.6303 7.1174 19.2189C7.40386 18.8126 7.72678 18.3517 8.08615 17.8361C8.45074 17.3204 8.83355 16.7866 9.23459 16.2345C9.64084 15.6824 10.0523 15.1486 10.469 14.6329C10.8856 14.1121 11.2971 13.6512 11.7033 13.2501C12.0367 12.9116 12.3778 12.6824 12.7268 12.5626C13.0809 12.4428 13.4403 12.3725 13.8049 12.3517C14.1695 12.3309 14.5367 12.3074 14.9065 12.2814C15.2763 12.2501 15.6487 12.159 16.0237 12.0079L14.6955 7.1642C14.6174 6.86211 14.6382 6.59649 14.758 6.36732C14.883 6.13295 15.12 5.96888 15.469 5.87513L18.3987 5.09388C18.3518 4.95847 18.2684 4.80482 18.1487 4.63295C18.0289 4.45586 17.8882 4.28399 17.7268 4.11732C17.2737 3.65378 16.7606 3.30482 16.1877 3.07045C15.62 2.83086 15.0341 2.70586 14.4299 2.69545C13.8257 2.68503 13.2398 2.78399 12.6721 2.99232C12.1044 3.19545 11.5992 3.50795 11.1565 3.92982C10.7242 4.34649 10.4013 4.76315 10.1877 5.17982C9.97938 5.59128 9.83876 6.00274 9.76584 6.4142C9.69813 6.82565 9.66168 7.2293 9.65647 7.62513C9.65126 8.01576 9.63824 8.39597 9.6174 8.76576C9.59657 9.13034 9.52886 9.4793 9.41428 9.81263C9.3049 10.1408 9.10699 10.4481 8.82053 10.7345C8.28407 11.271 7.70855 11.7736 7.09397 12.2423C6.47938 12.7111 5.8648 13.1538 5.25022 13.5704C4.64084 13.9871 4.06272 14.3856 3.51584 14.7658C2.97418 15.146 2.50543 15.5132 2.10959 15.8673C1.6148 16.3048 1.28147 16.7892 1.10959 17.3204C0.942926 17.8465 0.929905 18.3725 1.07053 18.8986C1.21636 19.4298 1.50543 19.9116 1.93772 20.3439ZM4.14865 19.0939C3.88303 19.0939 3.65386 19.0001 3.46115 18.8126C3.27365 18.6251 3.1799 18.3986 3.1799 18.1329C3.1799 17.8673 3.27365 17.6408 3.46115 17.4533C3.65386 17.2606 3.88303 17.1642 4.14865 17.1642C4.41428 17.1642 4.64084 17.2606 4.82834 17.4533C5.01584 17.6408 5.10959 17.8673 5.10959 18.1329C5.10959 18.3986 5.01584 18.6251 4.82834 18.8126C4.64084 19.0001 4.41428 19.0939 4.14865 19.0939ZM11.4924 8.65638C11.4091 8.67722 11.3309 8.6694 11.258 8.63295C11.1903 8.59128 11.1434 8.52357 11.1174 8.42982C11.0914 8.36211 11.0992 8.2918 11.1408 8.21888C11.1877 8.14597 11.2502 8.09649 11.3283 8.07045L13.1565 7.57826C13.2294 7.55743 13.3023 7.56784 13.3752 7.60951C13.4481 7.65118 13.495 7.71368 13.5158 7.79701C13.5471 7.88555 13.5393 7.96628 13.4924 8.0392C13.4455 8.1069 13.383 8.15378 13.3049 8.17982L11.4924 8.65638ZM11.7268 9.58607C11.5393 9.63815 11.4117 9.56263 11.344 9.35951C11.3231 9.2918 11.3336 9.22149 11.3752 9.14857C11.4169 9.07565 11.4794 9.02878 11.5627 9.00795L13.383 8.50795C13.4612 8.49232 13.5367 8.50534 13.6096 8.54701C13.6825 8.58347 13.7294 8.64336 13.7502 8.7267C13.7763 8.81524 13.7658 8.89597 13.719 8.96888C13.6773 9.03659 13.6148 9.08347 13.5315 9.10951L11.7268 9.58607ZM11.9533 10.5158C11.87 10.5418 11.7919 10.534 11.719 10.4923C11.6461 10.4507 11.6018 10.3829 11.5862 10.2892C11.5393 10.1069 11.6122 9.98972 11.8049 9.93763L13.6174 9.45326C13.7007 9.42722 13.7789 9.43503 13.8518 9.4767C13.9247 9.51836 13.969 9.57826 13.9846 9.65638C14.0054 9.73451 13.995 9.81263 13.9533 9.89076C13.9117 9.96368 13.8544 10.0079 13.7815 10.0236L11.9533 10.5158ZM16.883 11.6329C17.0341 11.5444 17.1877 11.4402 17.344 11.3204C17.5002 11.2007 17.6591 11.0652 17.8205 10.9142C18.3153 10.4663 18.6773 9.94284 18.9065 9.34388C19.1408 8.74493 19.2086 8.20586 19.1096 7.7267L16.7424 8.37513C16.6122 8.41159 16.4872 8.43503 16.3674 8.44545C16.2528 8.45065 16.133 8.44284 16.008 8.42201L16.883 11.6329Z"
		fill="currentColor"
	/>
</svg>
