<svg
	color="rgb(var(--foreground, 0, 0, 0))"
	viewBox="0 0 16 24"
	fill="none"
	xmlns="http://www.w3.org/2000/svg"
>
	<path
		d="M0.46875 10.5273C0.46875 11.3867 0.630208 12.194 0.953125 12.9492C1.27604 13.6992 1.72396 14.3607 2.29688 14.9336C2.86979 15.5065 3.53125 15.9544 4.28125 16.2773C5.03646 16.6003 5.84375 16.7617 6.70312 16.7617C7.38021 16.7617 8.02604 16.6576 8.64062 16.4492C9.25521 16.2409 9.81771 15.9544 10.3281 15.5898L14.1719 19.4414C14.2656 19.5299 14.3672 19.5951 14.4766 19.6367C14.5911 19.6836 14.7109 19.707 14.8359 19.707C15.013 19.707 15.1693 19.6654 15.3047 19.582C15.4401 19.5039 15.5443 19.3945 15.6172 19.2539C15.6953 19.1133 15.7344 18.957 15.7344 18.7852C15.7344 18.6602 15.7109 18.543 15.6641 18.4336C15.6224 18.3242 15.5599 18.2279 15.4766 18.1445L11.6562 14.3008C12.0573 13.7799 12.3698 13.1992 12.5938 12.5586C12.8229 11.918 12.9375 11.2409 12.9375 10.5273C12.9375 9.66797 12.776 8.86328 12.4531 8.11328C12.1302 7.35807 11.6823 6.69401 11.1094 6.12109C10.5365 5.54818 9.8724 5.10026 9.11719 4.77734C8.36719 4.45443 7.5625 4.29297 6.70312 4.29297C5.84375 4.29297 5.03646 4.45443 4.28125 4.77734C3.53125 5.10026 2.86979 5.54818 2.29688 6.12109C1.72396 6.69401 1.27604 7.35807 0.953125 8.11328C0.630208 8.86328 0.46875 9.66797 0.46875 10.5273ZM1.80469 10.5273C1.80469 9.85026 1.92969 9.21745 2.17969 8.62891C2.4349 8.03516 2.78646 7.51432 3.23438 7.06641C3.6875 6.61328 4.20833 6.26172 4.79688 6.01172C5.39062 5.75651 6.02604 5.62891 6.70312 5.62891C7.38021 5.62891 8.01302 5.75651 8.60156 6.01172C9.19531 6.26172 9.71615 6.61328 10.1641 7.06641C10.612 7.51432 10.9635 8.03516 11.2188 8.62891C11.474 9.21745 11.6016 9.85026 11.6016 10.5273C11.6016 11.2044 11.474 11.8398 11.2188 12.4336C10.9635 13.0221 10.612 13.5404 10.1641 13.9883C9.71615 14.4362 9.19531 14.7878 8.60156 15.043C8.01302 15.2982 7.38021 15.4258 6.70312 15.4258C6.02604 15.4258 5.39062 15.2982 4.79688 15.043C4.20833 14.7878 3.6875 14.4362 3.23438 13.9883C2.78646 13.5404 2.4349 13.0221 2.17969 12.4336C1.92969 11.8398 1.80469 11.2044 1.80469 10.5273ZM4.6875 11.0977H8.71094C8.86719 11.0977 9 11.043 9.10938 10.9336C9.22396 10.819 9.28125 10.6836 9.28125 10.5273C9.28125 10.3711 9.22396 10.2357 9.10938 10.1211C9 10.0065 8.86719 9.94922 8.71094 9.94922H4.6875C4.53125 9.94922 4.39583 10.0065 4.28125 10.1211C4.17188 10.2357 4.11719 10.3711 4.11719 10.5273C4.11719 10.6836 4.17188 10.819 4.28125 10.9336C4.39583 11.043 4.53125 11.0977 4.6875 11.0977Z"
		fill="currentColor"
	/>
</svg>
