<svg
	color="rgb(var(--foreground, 0, 0, 0))"
	viewBox="0 0 16 24"
	fill="none"
	xmlns="http://www.w3.org/2000/svg"
>
	<path
		d="M0.203125 10.5273C0.203125 11.3867 0.364583 12.194 0.6875 12.9492C1.01042 13.6992 1.45833 14.3607 2.03125 14.9336C2.60417 15.5065 3.26562 15.9544 4.01562 16.2773C4.77083 16.6003 5.57812 16.7617 6.4375 16.7617C7.11458 16.7617 7.76042 16.6576 8.375 16.4492C8.98958 16.2409 9.55208 15.9544 10.0625 15.5898L13.9062 19.4414C14 19.5299 14.1016 19.5951 14.2109 19.6367C14.3255 19.6836 14.4453 19.707 14.5703 19.707C14.7474 19.707 14.9036 19.6654 15.0391 19.582C15.1745 19.5039 15.2786 19.3945 15.3516 19.2539C15.4297 19.1133 15.4688 18.957 15.4688 18.7852C15.4688 18.6602 15.4453 18.543 15.3984 18.4336C15.3568 18.3242 15.2943 18.2279 15.2109 18.1445L11.3906 14.3008C11.7917 13.7799 12.1042 13.1992 12.3281 12.5586C12.5573 11.918 12.6719 11.2409 12.6719 10.5273C12.6719 9.66797 12.5104 8.86328 12.1875 8.11328C11.8646 7.35807 11.4167 6.69401 10.8438 6.12109C10.2708 5.54818 9.60677 5.10026 8.85156 4.77734C8.10156 4.45443 7.29688 4.29297 6.4375 4.29297C5.57812 4.29297 4.77083 4.45443 4.01562 4.77734C3.26562 5.10026 2.60417 5.54818 2.03125 6.12109C1.45833 6.69401 1.01042 7.35807 0.6875 8.11328C0.364583 8.86328 0.203125 9.66797 0.203125 10.5273ZM1.53906 10.5273C1.53906 9.85026 1.66406 9.21745 1.91406 8.62891C2.16927 8.03516 2.52083 7.51432 2.96875 7.06641C3.42188 6.61328 3.94271 6.26172 4.53125 6.01172C5.125 5.75651 5.76042 5.62891 6.4375 5.62891C7.11458 5.62891 7.7474 5.75651 8.33594 6.01172C8.92969 6.26172 9.45052 6.61328 9.89844 7.06641C10.3464 7.51432 10.6979 8.03516 10.9531 8.62891C11.2083 9.21745 11.3359 9.85026 11.3359 10.5273C11.3359 11.2044 11.2083 11.8398 10.9531 12.4336C10.6979 13.0221 10.3464 13.5404 9.89844 13.9883C9.45052 14.4362 8.92969 14.7878 8.33594 15.043C7.7474 15.2982 7.11458 15.4258 6.4375 15.4258C5.76042 15.4258 5.125 15.2982 4.53125 15.043C3.94271 14.7878 3.42188 14.4362 2.96875 13.9883C2.52083 13.5404 2.16927 13.0221 1.91406 12.4336C1.66406 11.8398 1.53906 11.2044 1.53906 10.5273ZM3.85938 10.5273C3.85938 10.6888 3.91406 10.8242 4.02344 10.9336C4.13802 11.043 4.27344 11.0977 4.42969 11.0977H5.86719V12.5273C5.86719 12.6888 5.92188 12.8268 6.03125 12.9414C6.14583 13.0508 6.28125 13.1055 6.4375 13.1055C6.59896 13.1055 6.73438 13.0508 6.84375 12.9414C6.95833 12.8268 7.01562 12.6888 7.01562 12.5273V11.0977H8.44531C8.60677 11.0977 8.74219 11.043 8.85156 10.9336C8.96094 10.8242 9.01562 10.6888 9.01562 10.5273C9.01562 10.3659 8.96094 10.2305 8.85156 10.1211C8.74219 10.0065 8.60677 9.94922 8.44531 9.94922H7.01562V8.51953C7.01562 8.35807 6.95833 8.22266 6.84375 8.11328C6.73438 7.9987 6.59896 7.94141 6.4375 7.94141C6.28125 7.94141 6.14583 7.9987 6.03125 8.11328C5.92188 8.22266 5.86719 8.35807 5.86719 8.51953V9.94922H4.42969C4.27344 9.94922 4.13802 10.0065 4.02344 10.1211C3.91406 10.2305 3.85938 10.3659 3.85938 10.5273Z"
		fill="currentColor"
	/>
</svg>
