<svg
	color="rgb(var(--foreground, 0, 0, 0))"
	viewBox="0 0 15 24"
	fill="none"
	xmlns="http://www.w3.org/2000/svg"
>
	<path
		d="M14.8945 12C14.8945 11.8047 14.8164 11.625 14.6602 11.4766L9.48047 6.3125C9.30859 6.14062 9.14453 6.07812 8.95703 6.07812C8.57422 6.07812 8.27734 6.35938 8.27734 6.75C8.27734 6.9375 8.33984 7.11719 8.46484 7.24219L10.2148 9.02344L12.8398 11.4219L10.957 11.3047H1.07422C0.667969 11.3047 0.386719 11.5938 0.386719 12C0.386719 12.4062 0.667969 12.6953 1.07422 12.6953H10.957L12.8477 12.5781L10.2148 14.9766L8.46484 16.7578C8.33984 16.875 8.27734 17.0625 8.27734 17.25C8.27734 17.6406 8.57422 17.9219 8.95703 17.9219C9.14453 17.9219 9.30859 17.8516 9.46484 17.7031L14.6602 12.5234C14.8164 12.375 14.8945 12.1953 14.8945 12Z"
		fill="currentColor"
	/>
</svg>
