<svg
	color="rgb(var(--foreground, 0, 0, 0))"
	viewBox="0 0 16 24"
	fill="none"
	xmlns="http://www.w3.org/2000/svg"
>
	<path
		d="M10.2336 13.2852C10.9419 13.2852 11.6008 13.1107 12.2101 12.7617C12.8247 12.4128 13.3612 11.9284 13.8195 11.3086C14.2831 10.6888 14.6424 9.97005 14.8976 9.15234C15.1581 8.32943 15.2883 7.44661 15.2883 6.50391C15.2883 5.76432 15.1659 5.07943 14.9211 4.44922C14.6763 3.81901 14.3273 3.26953 13.8742 2.80078C13.4263 2.33203 12.8924 1.96745 12.2726 1.70703C11.6581 1.44661 10.9784 1.31641 10.2336 1.31641C9.48879 1.31641 8.8065 1.44661 8.18671 1.70703C7.57212 1.96745 7.04087 2.33203 6.59296 2.80078C6.15025 3.26953 5.8065 3.81901 5.56171 4.44922C5.31691 5.07943 5.19452 5.76432 5.19452 6.50391C5.19452 7.44661 5.32212 8.32943 5.57733 9.15234C5.83775 9.97005 6.19712 10.6888 6.65546 11.3086C7.11379 11.9284 7.64764 12.4128 8.25702 12.7617C8.86639 13.1107 9.52525 13.2852 10.2336 13.2852ZM10.2336 12.1133C9.68671 12.1133 9.17889 11.9674 8.71014 11.6758C8.2466 11.3789 7.83775 10.9727 7.48358 10.457C7.13462 9.94141 6.86119 9.34505 6.66327 8.66797C6.47056 7.99089 6.37421 7.26953 6.37421 6.50391C6.37421 5.75911 6.53827 5.08464 6.86639 4.48047C7.19452 3.87109 7.64764 3.38932 8.22577 3.03516C8.8091 2.67578 9.47837 2.49609 10.2336 2.49609C10.9888 2.49609 11.6581 2.67578 12.2414 3.03516C12.8247 3.38932 13.2805 3.87109 13.6086 4.48047C13.9419 5.08464 14.1086 5.75911 14.1086 6.50391C14.1086 7.26953 14.0096 7.99089 13.8117 8.66797C13.6138 9.34505 13.3377 9.94141 12.9836 10.457C12.6346 10.9727 12.2232 11.3789 11.7492 11.6758C11.2805 11.9674 10.7752 12.1133 10.2336 12.1133ZM9.13983 12.7461L8.77264 14.1523C8.72577 14.3086 8.744 14.457 8.82733 14.5977C8.91587 14.7331 9.0591 14.8008 9.25702 14.8008H11.218C11.4159 14.8008 11.5565 14.7331 11.6398 14.5977C11.7284 14.457 11.7492 14.3086 11.7023 14.1523L11.3273 12.7461H9.13983ZM10.1398 22.5742C10.2909 22.5742 10.4211 22.5169 10.5305 22.4023C10.645 22.293 10.7023 22.1628 10.7023 22.0117C10.7023 21.5846 10.7805 21.2227 10.9367 20.9258C11.093 20.6289 11.2726 20.3529 11.4758 20.0977C11.6789 19.8424 11.8586 19.5638 12.0148 19.2617C12.1763 18.9648 12.257 18.6003 12.257 18.168C12.257 17.8138 12.2049 17.5091 12.1008 17.2539C12.0018 16.9935 11.8768 16.7617 11.7258 16.5586C11.5747 16.3503 11.4237 16.1471 11.2726 15.9492C11.1268 15.7513 11.0044 15.5378 10.9055 15.3086C10.8065 15.0794 10.7596 14.8086 10.7648 14.4961L9.65546 14.5039C9.65546 14.9258 9.70494 15.2852 9.80389 15.582C9.90285 15.8789 10.0252 16.1367 10.1711 16.3555C10.3221 16.5742 10.4732 16.7747 10.6242 16.957C10.7752 17.1393 10.9002 17.3268 10.9992 17.5195C11.1034 17.707 11.1555 17.9232 11.1555 18.168C11.1555 18.418 11.1008 18.6341 10.9914 18.8164C10.8872 19.0039 10.757 19.1862 10.6008 19.3633C10.4497 19.5456 10.2961 19.7487 10.1398 19.9727C9.98358 20.2018 9.85337 20.4779 9.74921 20.8008C9.64504 21.1289 9.59296 21.5326 9.59296 22.0117C9.59296 22.1628 9.64504 22.293 9.74921 22.4023C9.85858 22.5169 9.98879 22.5742 10.1398 22.5742ZM8.28046 11.7383L7.20233 11.207C6.96275 11.9727 6.60077 12.5951 6.11639 13.0742C5.63202 13.5534 5.07733 13.793 4.45233 13.793C3.88462 13.793 3.3716 13.5951 2.91327 13.1992C2.46014 12.8034 2.10077 12.2721 1.83514 11.6055C1.57473 10.9336 1.44452 10.1914 1.44452 9.37891C1.44452 8.79036 1.56952 8.25651 1.81952 7.77734C2.07473 7.29297 2.42889 6.90755 2.88202 6.62109C3.33514 6.33464 3.85858 6.19141 4.45233 6.19141C4.66066 6.19141 4.85598 6.21224 5.03827 6.25391C5.22577 6.29036 5.40806 6.33984 5.58514 6.40234L5.70233 5.19141C5.51483 5.13932 5.31431 5.09766 5.10077 5.06641C4.89244 5.02995 4.67629 5.01172 4.45233 5.01172C3.62941 5.01172 2.90285 5.20443 2.27264 5.58984C1.64244 5.97526 1.14764 6.4987 0.788269 7.16016C0.434102 7.81641 0.257019 8.55599 0.257019 9.37891C0.257019 10.1497 0.36379 10.8737 0.577332 11.5508C0.790873 12.2279 1.08775 12.8242 1.46796 13.3398C1.84816 13.8555 2.29087 14.2591 2.79608 14.5508C3.3065 14.8372 3.85858 14.9805 4.45233 14.9805C5.02525 14.9857 5.56171 14.8503 6.06171 14.5742C6.56171 14.2982 7.00181 13.918 7.38202 13.4336C7.76223 12.944 8.06171 12.3789 8.28046 11.7383ZM3.30389 14.4258L2.97577 15.707C2.9341 15.8477 2.94973 15.9805 3.02264 16.1055C3.10077 16.2253 3.23098 16.2852 3.41327 16.2852H5.18671C5.37421 16.2852 5.50181 16.2253 5.56952 16.1055C5.64244 15.9805 5.66066 15.8477 5.62421 15.707L5.28827 14.4258H3.30389ZM4.22577 22.6836C4.36639 22.6836 4.48619 22.6341 4.58514 22.5352C4.6841 22.4414 4.73358 22.3268 4.73358 22.1914C4.73358 21.8164 4.79869 21.5065 4.92889 21.2617C5.06431 21.0221 5.21796 20.8008 5.38983 20.5977C5.56171 20.3945 5.71275 20.1706 5.84296 19.9258C5.97837 19.6862 6.04608 19.3815 6.04608 19.0117C6.04608 18.6159 5.98098 18.2982 5.85077 18.0586C5.72577 17.819 5.57994 17.6081 5.41327 17.4258C5.2466 17.2435 5.09816 17.0456 4.96796 16.832C4.84296 16.6133 4.78306 16.332 4.78827 15.9883H3.80389C3.79869 16.3633 3.83775 16.6758 3.92108 16.9258C4.00962 17.1758 4.11639 17.3867 4.24139 17.5586C4.36639 17.7305 4.49139 17.8867 4.61639 18.0273C4.7466 18.168 4.85337 18.3138 4.93671 18.4648C5.02525 18.6159 5.06952 18.7982 5.06952 19.0117C5.06952 19.2721 5.00181 19.4857 4.86639 19.6523C4.73619 19.8242 4.58254 20.0039 4.40546 20.1914C4.23358 20.3789 4.07994 20.6263 3.94452 20.9336C3.81431 21.2409 3.74921 21.6602 3.74921 22.1914C3.74921 22.3268 3.79348 22.4414 3.88202 22.5352C3.97577 22.6341 4.09035 22.6836 4.22577 22.6836Z"
		fill="currentColor"
	/>
</svg>
