<svg
	color="rgb(var(--foreground, 0, 0, 0))"
	viewBox="0 0 11 24"
	fill="none"
	xmlns="http://www.w3.org/2000/svg"
>
	<path
		d="M5.20233 22.6289C5.50702 22.6289 5.75702 22.3711 5.75702 22.0664C5.75702 20.3555 7.31171 19.957 7.31171 18.2227C7.31171 16.5664 6.01483 16.1602 5.84296 14.8555H6.28046C6.67889 14.8555 6.85077 14.5195 6.76483 14.207L6.48358 13.1602C8.72577 12.457 10.343 9.77734 10.343 6.55859C10.343 3.59766 8.28046 1.37109 5.29608 1.37109C2.31171 1.37109 0.257019 3.59766 0.257019 6.55859C0.257019 9.77734 1.87421 12.4492 4.10858 13.1602L3.83514 14.207C3.75702 14.5195 3.92108 14.8555 4.31952 14.8555H4.72577C4.85858 16.707 6.21014 17.0664 6.21014 18.2227C6.21014 19.4648 4.64764 19.6523 4.64764 22.0664C4.64764 22.3711 4.89764 22.6289 5.20233 22.6289Z"
		fill="currentColor"
	/>
</svg>
