<svg
	color="rgb(var(--foreground, 0, 0, 0))"
	viewBox="0 0 17 24"
	fill="none"
	xmlns="http://www.w3.org/2000/svg"
>
	<path
		d="M0.410158 9.06713C0.332033 9.28588 0.334637 9.4812 0.417971 9.65307C0.506512 9.82495 0.631512 9.93953 0.792971 9.99682C0.917971 10.0437 1.03776 10.0463 1.15235 10.0046C1.27214 9.95776 1.38412 9.89266 1.48828 9.80932C1.84245 9.54891 2.19662 9.37182 2.55078 9.27807C2.90495 9.17911 3.28516 9.20255 3.69141 9.34838C4.09766 9.49422 4.39453 9.71297 4.58203 10.0046C4.76953 10.2963 4.89974 10.6531 4.97266 11.0749C4.99349 11.2104 5.02995 11.3302 5.08203 11.4343C5.13412 11.5385 5.22005 11.6114 5.33985 11.6531C5.46485 11.6999 5.58203 11.7026 5.69141 11.6609C5.80078 11.614 5.90755 11.5463 6.01172 11.4578C6.2461 11.2598 6.51172 11.1114 6.8086 11.0124C7.11068 10.9135 7.41276 10.8718 7.71485 10.8874L4.25391 20.3718C4.19141 20.5385 4.19922 20.7052 4.27735 20.8718C4.35547 21.0385 4.48047 21.1531 4.65235 21.2156C4.81901 21.2729 4.98568 21.2624 5.15235 21.1843C5.31901 21.1114 5.4336 20.989 5.4961 20.8171L8.94922 11.3328C9.1888 11.5151 9.38932 11.7416 9.55078 12.0124C9.71745 12.2781 9.82422 12.5645 9.8711 12.8718C9.90235 13.002 9.94401 13.1192 9.9961 13.2234C10.0482 13.3276 10.1341 13.4005 10.2539 13.4421C10.3737 13.489 10.4883 13.489 10.5977 13.4421C10.707 13.3953 10.8138 13.3276 10.918 13.239C11.2409 12.9682 11.5664 12.7807 11.8945 12.6765C12.2279 12.5671 12.5977 12.5854 13.0039 12.7312C13.4102 12.8822 13.7174 13.1088 13.9258 13.4109C14.1393 13.713 14.2956 14.0828 14.3945 14.5203C14.4258 14.6453 14.4701 14.7624 14.5273 14.8718C14.5898 14.9812 14.6836 15.0567 14.8086 15.0984C14.9701 15.1557 15.1393 15.1479 15.3164 15.0749C15.4987 15.002 15.6263 14.8536 15.6992 14.6296C15.9128 14.0463 16.0456 13.4005 16.0977 12.6921C16.1549 11.9838 16.1133 11.2546 15.9727 10.5046C15.8372 9.75463 15.582 9.02026 15.207 8.30151C14.8372 7.58276 14.3346 6.9213 13.6992 6.31713C13.0638 5.70776 12.2747 5.19474 11.332 4.77807L11.7383 3.67651C11.806 3.4838 11.8034 3.30672 11.7305 3.14526C11.6628 2.97859 11.5352 2.86141 11.3477 2.7937C11.1654 2.72599 10.9961 2.7338 10.8398 2.81713C10.6836 2.89526 10.569 3.03068 10.4961 3.22338L10.0977 4.33276C9.10807 4.04109 8.17318 3.92391 7.29297 3.9812C6.41797 4.03849 5.60807 4.22338 4.86328 4.53588C4.11849 4.84318 3.44922 5.23901 2.85547 5.72338C2.26693 6.20776 1.76432 6.73901 1.34766 7.31713C0.9362 7.89526 0.6237 8.47859 0.410158 9.06713ZM2.23828 8.16088C2.57162 7.65047 2.97005 7.19474 3.4336 6.7937C3.90235 6.38745 4.42318 6.05411 4.9961 5.7937C5.57422 5.52807 6.1888 5.35099 6.83985 5.26245C7.49089 5.17391 8.16537 5.18953 8.86328 5.30932C8.23307 5.72078 7.63151 6.28328 7.0586 6.99682C6.48568 7.70516 6.0013 8.52807 5.60547 9.46557C5.44922 9.16349 5.24349 8.91088 4.98828 8.70776C4.73828 8.49943 4.44662 8.33536 4.11328 8.21557C3.47787 7.98641 2.85287 7.96818 2.23828 8.16088ZM6.55078 9.8562C6.84766 9.14786 7.20182 8.51245 7.61328 7.94995C8.02474 7.38745 8.46224 6.91349 8.92578 6.52807C9.38932 6.13745 9.84766 5.85099 10.3008 5.6687C10.5352 6.10099 10.707 6.61661 10.8164 7.21557C10.9258 7.80932 10.957 8.45516 10.9102 9.15307C10.8633 9.85099 10.7253 10.5671 10.4961 11.3015C10.3086 10.9734 10.0638 10.6869 9.76172 10.4421C9.45964 10.1921 9.13151 9.99943 8.77735 9.86401C8.42318 9.7338 8.05078 9.6687 7.66016 9.6687C7.26953 9.6687 6.89974 9.7312 6.55078 9.8562ZM11.4648 11.5984C11.7721 10.6244 11.9336 9.68172 11.9492 8.77026C11.9648 7.8588 11.8659 7.0437 11.6523 6.32495C12.2617 6.68432 12.7852 7.1088 13.2227 7.59838C13.6654 8.08276 14.0221 8.61141 14.293 9.18432C14.5638 9.75203 14.7461 10.3406 14.8398 10.9499C14.9388 11.5593 14.9518 12.1635 14.8789 12.7624C14.7018 12.4916 14.4909 12.2598 14.2461 12.0671C14.0013 11.8744 13.7253 11.7182 13.418 11.5984C12.7253 11.3484 12.0742 11.3484 11.4648 11.5984Z"
		fill="currentColor"
	/>
</svg>
