<svg
	color="rgb(var(--foreground, 0, 0, 0))"
	viewBox="0 0 17 24"
	fill="none"
	xmlns="http://www.w3.org/2000/svg"
>
	<path
		d="M4.48558 20.3719C4.36058 20.7156 4.53245 21.0906 4.8762 21.2156C5.21214 21.3328 5.60277 21.1453 5.71995 20.8172L9.17308 11.3562C9.4387 11.5828 9.66527 11.8953 9.86058 12.2547C10.0168 12.5359 10.2746 12.5437 10.4075 12.2937C11.4778 10.1453 11.7981 7.46562 11.4309 5.12968L11.9621 3.67656C12.1028 3.29374 11.9465 2.93437 11.5793 2.79374C11.2121 2.66093 10.8684 2.83281 10.7278 3.22343L10.2356 4.57499C8.40745 6.12187 6.89183 8.41093 6.3137 10.8016C6.2512 11.0672 6.45433 11.2469 6.76683 11.1297C7.17308 10.9656 7.5637 10.8719 7.9387 10.8797L4.48558 20.3719ZM9.58714 4.15312C5.01683 3.21562 1.63402 6.28593 0.634017 9.06718C0.469954 9.50468 0.688704 9.87187 1.00902 9.99687C1.26683 10.0906 1.49339 9.98124 1.69652 9.81718C2.42308 9.27812 3.10277 9.05156 3.90745 9.34843C4.44652 9.54374 4.75902 9.91093 4.94652 10.2781C5.0637 10.5047 5.29027 10.5125 5.35277 10.2625C6.01683 7.66093 7.61058 5.48124 9.58714 4.15312ZM12.22 5.10624C12.8762 7.38749 12.6887 10.075 11.5403 12.5203C11.4309 12.7469 11.595 12.8953 11.8371 12.7859C12.2278 12.6219 12.6965 12.5437 13.2278 12.7391C14.0403 13.0359 14.4153 13.6531 14.6262 14.5203C14.6731 14.7781 14.7903 15.0125 15.0325 15.0984C15.3606 15.2156 15.7668 15.075 15.9231 14.6297C16.9387 11.8562 16.3293 7.33281 12.22 5.10624Z"
		fill="currentColor"
	/>
</svg>
