<svg
	color="rgb(var(--foreground, 0, 0, 0))"
	viewBox="0 0 16 24"
	fill="none"
	xmlns="http://www.w3.org/2000/svg"
>
	<path
		d="M0.484375 16.2969C0.484375 16.5833 0.588542 16.8125 0.796875 16.9844C1.00521 17.1562 1.29427 17.2422 1.66406 17.2422H4.96094C4.98177 17.7474 5.11719 18.2135 5.36719 18.6406C5.6224 19.0677 5.96354 19.4115 6.39062 19.6719C6.81771 19.9375 7.30469 20.0703 7.85156 20.0703C8.40365 20.0703 8.89323 19.9401 9.32031 19.6797C9.7474 19.4193 10.0859 19.0729 10.3359 18.6406C10.5911 18.2135 10.7292 17.7474 10.75 17.2422H14.0469C14.4167 17.2422 14.7057 17.1562 14.9141 16.9844C15.1224 16.8125 15.2266 16.5833 15.2266 16.2969C15.2266 16.0365 15.151 15.7839 15 15.5391C14.849 15.2943 14.6589 15.0547 14.4297 14.8203C14.2057 14.5859 13.9818 14.3516 13.7578 14.1172C13.5859 13.9401 13.4505 13.7083 13.3516 13.4219C13.2578 13.1354 13.1875 12.8307 13.1406 12.5078C13.0938 12.1849 13.0599 11.8724 13.0391 11.5703C13.0234 10.5443 12.9141 9.64323 12.7109 8.86719C12.513 8.08594 12.2031 7.4349 11.7812 6.91406C11.3594 6.39323 10.8021 6.00781 10.1094 5.75781C9.97917 5.2474 9.71354 4.8151 9.3125 4.46094C8.91667 4.10677 8.42969 3.92969 7.85156 3.92969C7.27865 3.92969 6.79167 4.10677 6.39062 4.46094C5.99479 4.8151 5.73177 5.2474 5.60156 5.75781C4.90885 6.00781 4.34896 6.39323 3.92188 6.91406C3.5 7.4349 3.1901 8.08594 2.99219 8.86719C2.79427 9.64323 2.6875 10.5443 2.67188 11.5703C2.65104 11.8724 2.61719 12.1849 2.57031 12.5078C2.52344 12.8307 2.45052 13.1354 2.35156 13.4219C2.25781 13.7083 2.125 13.9401 1.95312 14.1172C1.72917 14.3516 1.5026 14.5859 1.27344 14.8203C1.04948 15.0547 0.861979 15.2943 0.710938 15.5391C0.559896 15.7839 0.484375 16.0365 0.484375 16.2969ZM2 16.0625V15.9688C2.04688 15.8958 2.125 15.7995 2.23438 15.6797C2.34375 15.5547 2.46615 15.4193 2.60156 15.2734C2.74219 15.1276 2.88021 14.9792 3.01562 14.8281C3.15625 14.6719 3.27865 14.4922 3.38281 14.2891C3.48698 14.0807 3.57552 13.8464 3.64844 13.5859C3.72135 13.3255 3.77865 13.0365 3.82031 12.7188C3.86198 12.401 3.89323 12.0521 3.91406 11.6719C3.9349 10.5365 4.05208 9.63542 4.26562 8.96875C4.47917 8.30208 4.76302 7.80729 5.11719 7.48438C5.47656 7.15625 5.88021 6.92969 6.32812 6.80469C6.42708 6.78385 6.5026 6.7474 6.55469 6.69531C6.60677 6.63802 6.63542 6.5599 6.64062 6.46094C6.65625 6.05469 6.77083 5.72396 6.98438 5.46875C7.20312 5.20833 7.49219 5.07812 7.85156 5.07812C8.21615 5.07812 8.50521 5.20833 8.71875 5.46875C8.9375 5.72396 9.05469 6.05469 9.07031 6.46094C9.07031 6.5599 9.09635 6.63802 9.14844 6.69531C9.20573 6.7474 9.28125 6.78385 9.375 6.80469C9.82292 6.92969 10.224 7.15625 10.5781 7.48438C10.9375 7.80729 11.224 8.30208 11.4375 8.96875C11.6562 9.63542 11.776 10.5365 11.7969 11.6719C11.8125 12.0521 11.8411 12.401 11.8828 12.7188C11.9297 13.0365 11.987 13.3255 12.0547 13.5859C12.1276 13.8464 12.2161 14.0807 12.3203 14.2891C12.4245 14.4922 12.5469 14.6719 12.6875 14.8281C12.8281 14.9792 12.9661 15.1276 13.1016 15.2734C13.2422 15.4193 13.3646 15.5547 13.4688 15.6797C13.5781 15.7995 13.6562 15.8958 13.7031 15.9688V16.0625H2ZM6.17969 17.2422H9.53125C9.5 17.7734 9.33073 18.1927 9.02344 18.5C8.71615 18.8125 8.32552 18.9688 7.85156 18.9688C7.38281 18.9688 6.99219 18.8125 6.67969 18.5C6.3724 18.1927 6.20573 17.7734 6.17969 17.2422Z"
		fill="currentColor"
	/>
</svg>
