<svg
	color="rgb(var(--foreground, 0, 0, 0))"
	viewBox="0 0 12 24"
	fill="none"
	xmlns="http://www.w3.org/2000/svg"
>
	<path
		d="M0.494385 12.9664C0.494385 13.1174 0.546468 13.2451 0.650635 13.3492C0.754801 13.4482 0.890218 13.4977 1.05688 13.4977H5.47095L3.14282 19.8258C3.0647 20.0289 3.04907 20.2034 3.09595 20.3492C3.14803 20.4951 3.23397 20.5992 3.35376 20.6617C3.47876 20.7294 3.61678 20.7424 3.76782 20.7008C3.92407 20.6643 4.0673 20.5654 4.19751 20.4039L11.2991 11.5289C11.4345 11.357 11.5022 11.1904 11.5022 11.0289C11.5022 10.8779 11.4501 10.7529 11.3459 10.6539C11.2418 10.5497 11.1064 10.4977 10.9397 10.4977H6.52563L8.85376 4.16953C8.93188 3.97161 8.94491 3.79974 8.89282 3.65391C8.84595 3.50807 8.76001 3.40391 8.63501 3.34141C8.51522 3.2737 8.3772 3.25807 8.22095 3.29453C8.06991 3.33099 7.92928 3.43255 7.79907 3.59922L0.69751 12.4664C0.562093 12.6435 0.494385 12.8102 0.494385 12.9664Z"
		fill="currentColor"
	/>
</svg>
