<svg
	color="rgb(var(--foreground, 0, 0, 0))"
	viewBox="0 0 14 24"
	fill="none"
	xmlns="http://www.w3.org/2000/svg"
>
	<path
		d="M1.59125 13.225C1.59125 13.376 1.64333 13.5036 1.7475 13.6078C1.85166 13.7068 1.98708 13.7562 2.15375 13.7562H6.56781L4.23969 19.8265C4.16156 20.0297 4.14594 20.2041 4.19281 20.35C4.24489 20.4958 4.33344 20.6 4.45844 20.6625C4.58344 20.7302 4.72146 20.7458 4.8725 20.7094C5.02875 20.6729 5.16937 20.5713 5.29437 20.4047L8.81781 15.8734L7.94281 14.9984L5.53656 18.1859L5.75531 18.3031L7.45844 14.5062L5.52875 12.5922H3.54437L4.40375 11.4594L3.48969 10.5453L1.79437 12.725C1.65896 12.8969 1.59125 13.0635 1.59125 13.225ZM5.36469 8.13123L6.23969 9.00623L8.64594 5.81873L8.42719 5.70154L6.72406 9.49842L8.63812 11.4125H10.6381L9.77875 12.5453L10.6928 13.4594L12.3959 11.2719C12.5314 11.1 12.5991 10.9333 12.5991 10.7719C12.5991 10.6208 12.547 10.4958 12.4428 10.3969C12.3386 10.2979 12.2032 10.2484 12.0366 10.2484H7.6225L9.95062 4.17029C10.0287 3.97238 10.0418 3.8005 9.98969 3.65467C9.94281 3.50363 9.85687 3.39686 9.73187 3.33436C9.60687 3.26665 9.46625 3.25363 9.31 3.29529C9.15896 3.33175 9.02094 3.43331 8.89594 3.59998L5.36469 8.13123ZM12.56 18.3187C12.6798 18.4385 12.823 18.4984 12.9897 18.4984C13.1564 18.4984 13.297 18.4385 13.4116 18.3187C13.5314 18.2094 13.5912 18.0687 13.5912 17.8969C13.5912 17.7302 13.5314 17.587 13.4116 17.4672L1.6225 5.67811C1.50791 5.56352 1.36469 5.50623 1.19281 5.50623C1.02094 5.50102 0.877706 5.55831 0.763123 5.67811C0.648539 5.79269 0.591248 5.93592 0.591248 6.10779C0.591248 6.27446 0.648539 6.41509 0.763123 6.52967L12.56 18.3187Z"
		fill="currentColor"
	/>
</svg>
