<svg
	color="rgb(var(--foreground, 0, 0, 0))"
	viewBox="0 0 14 24"
	fill="none"
	xmlns="http://www.w3.org/2000/svg"
>
	<path
		d="M5.30219 20.4063L8.8725 15.9297L3.40375 10.461L1.80219 12.4688C1.66156 12.6459 1.59125 12.8126 1.59125 12.9688C1.59125 13.1198 1.64333 13.2475 1.7475 13.3516C1.85687 13.4506 1.99229 13.5001 2.15375 13.5001L6.44281 13.5626L4.23969 19.8282C4.14594 20.099 4.15375 20.3152 4.26312 20.4766C4.37771 20.6433 4.53396 20.7266 4.73187 20.7266C4.935 20.7318 5.1251 20.6251 5.30219 20.4063ZM10.7787 13.5469L12.3959 11.5313C12.5314 11.3594 12.5991 11.1928 12.5991 11.0313C12.5991 10.8803 12.547 10.7553 12.4428 10.6563C12.3386 10.5573 12.2058 10.5053 12.0444 10.5001L7.7475 10.4376L9.95844 4.17193C10.0522 3.9011 10.0418 3.68495 9.92719 3.52349C9.81781 3.35683 9.66156 3.27349 9.45844 3.27349C9.26052 3.26828 9.07302 3.37766 8.89594 3.60162L5.31 8.08599L10.7787 13.5469ZM12.56 18.3204C12.6798 18.4402 12.823 18.5001 12.9897 18.5001C13.1564 18.5001 13.297 18.4402 13.4116 18.3204C13.5314 18.211 13.5912 18.0704 13.5912 17.8985C13.5912 17.7318 13.5314 17.5886 13.4116 17.4688L1.6225 5.67974C1.50791 5.56516 1.36469 5.50787 1.19281 5.50787C1.02094 5.50266 0.877706 5.55995 0.763123 5.67974C0.648539 5.79433 0.591248 5.93756 0.591248 6.10943C0.591248 6.2761 0.648539 6.41672 0.763123 6.53131L12.56 18.3204Z"
		fill="currentColor"
	/>
</svg>
