<svg
	color="rgb(var(--foreground, 0, 0, 0))"
	viewBox="0 0 12 24"
	fill="none"
	xmlns="http://www.w3.org/2000/svg"
>
	<path
		d="M3.86761 20.4047L10.9692 11.2719C11.1046 11.1 11.1723 10.9333 11.1723 10.7719C11.1723 10.6208 11.1202 10.4958 11.0161 10.3969C10.9119 10.2979 10.7765 10.2484 10.6098 10.2484H6.19574L8.52386 4.17029C8.60199 3.97238 8.61501 3.8005 8.56293 3.65467C8.51605 3.50363 8.43011 3.39686 8.30511 3.33436C8.18011 3.26665 8.03949 3.25363 7.88324 3.29529C7.7322 3.33175 7.59418 3.43331 7.46918 3.59998L0.367615 12.725C0.232198 12.8969 0.16449 13.0635 0.16449 13.225C0.16449 13.376 0.216573 13.5036 0.32074 13.6078C0.424906 13.7068 0.560323 13.7562 0.72699 13.7562H5.14105L2.81293 19.8265C2.7348 20.0297 2.71918 20.2041 2.76605 20.35C2.81814 20.4958 2.90668 20.6 3.03168 20.6625C3.15668 20.7302 3.2947 20.7458 3.44574 20.7094C3.60199 20.6729 3.74261 20.5713 3.86761 20.4047ZM4.32855 18.3031L6.94574 12.5922H2.11761L7.21918 5.81873L7.00043 5.70154L4.39105 11.4125H9.21136L4.1098 18.1859L4.32855 18.3031Z"
		fill="currentColor"
	/>
</svg>
