<svg
	color="rgb(var(--foreground, 0, 0, 0))"
	viewBox="0 0 8 24"
	fill="none"
	xmlns="http://www.w3.org/2000/svg"
>
	<path
		d="M7.84595 12C7.84595 11.901 7.82511 11.8099 7.78345 11.7266C7.74699 11.638 7.6923 11.5573 7.61938 11.4844L1.43188 5.42188C1.29126 5.28646 1.11938 5.21875 0.91626 5.21875C0.786051 5.21875 0.66626 5.25 0.556885 5.3125C0.44751 5.375 0.361572 5.46094 0.299072 5.57031C0.236572 5.67448 0.205322 5.79427 0.205322 5.92969C0.205322 6.1224 0.273031 6.29167 0.408447 6.4375L6.09595 12L0.408447 17.5625C0.273031 17.7083 0.205322 17.8776 0.205322 18.0703C0.205322 18.2057 0.236572 18.3255 0.299072 18.4297C0.361572 18.5391 0.44751 18.625 0.556885 18.6875C0.66626 18.75 0.786051 18.7812 0.91626 18.7812C1.11938 18.7812 1.29126 18.7109 1.43188 18.5703L7.61938 12.5156C7.6923 12.4427 7.74699 12.3646 7.78345 12.2812C7.82511 12.1927 7.84595 12.099 7.84595 12Z"
		fill="currentColor"
	/>
</svg>
