<svg
	color="rgb(var(--foreground, 0, 0, 0))"
	viewBox="0 0 14 24"
	fill="none"
	xmlns="http://www.w3.org/2000/svg"
>
	<path
		d="M2.6875 21.4648H10.9844C11.7917 21.4648 12.3958 21.2591 12.7969 20.8477C13.2031 20.4414 13.4062 19.8294 13.4062 19.0117V7.16016C13.4062 6.34245 13.2083 5.73047 12.8125 5.32422C12.4167 4.91276 11.8333 4.70703 11.0625 4.70703H10.8828C10.8828 4.72266 10.8828 4.74089 10.8828 4.76172C10.8828 4.77734 10.8828 4.79297 10.8828 4.80859V5.73047C10.8828 6.22005 10.7318 6.6237 10.4297 6.94141C10.1276 7.25391 9.73438 7.41016 9.25 7.41016H4.42188C3.9375 7.41016 3.54427 7.25391 3.24219 6.94141C2.9401 6.6237 2.78906 6.22005 2.78906 5.73047V4.80859C2.78906 4.79297 2.78906 4.77734 2.78906 4.76172C2.78906 4.74089 2.78906 4.72266 2.78906 4.70703H2.60938C1.83854 4.70703 1.25521 4.91276 0.859375 5.32422C0.463542 5.73047 0.265625 6.34245 0.265625 7.16016V19.0117C0.265625 19.8294 0.466146 20.4414 0.867188 20.8477C1.27344 21.2591 1.88021 21.4648 2.6875 21.4648ZM4.42188 6.50391H9.25C9.47917 6.50391 9.65625 6.4362 9.78125 6.30078C9.91146 6.16536 9.97656 5.97526 9.97656 5.73047V4.91016C9.97656 4.66536 9.91146 4.47526 9.78125 4.33984C9.65625 4.20443 9.47917 4.13672 9.25 4.13672H8.53125C8.50521 3.69401 8.32812 3.31641 8 3.00391C7.67708 2.69141 7.28906 2.53516 6.83594 2.53516C6.38281 2.53516 5.99219 2.69141 5.66406 3.00391C5.34115 3.31641 5.16667 3.69401 5.14062 4.13672H4.42188C4.19271 4.13672 4.01302 4.20443 3.88281 4.33984C3.75781 4.47526 3.69531 4.66536 3.69531 4.91016V5.73047C3.69531 5.97526 3.75781 6.16536 3.88281 6.30078C4.01302 6.4362 4.19271 6.50391 4.42188 6.50391ZM6.83594 4.87891C6.64844 4.87891 6.48698 4.8112 6.35156 4.67578C6.22135 4.54036 6.15625 4.38151 6.15625 4.19922C6.15625 4.00651 6.22135 3.84505 6.35156 3.71484C6.48698 3.57943 6.64844 3.51172 6.83594 3.51172C7.02344 3.51172 7.18229 3.57943 7.3125 3.71484C7.44792 3.84505 7.51562 4.00651 7.51562 4.19922C7.51562 4.38151 7.44792 4.54036 7.3125 4.67578C7.18229 4.8112 7.02344 4.87891 6.83594 4.87891Z"
		fill="currentColor"
	/>
</svg>
