<svg
	color="rgb(var(--foreground, 0, 0, 0))"
	viewBox="0 0 14 24"
	fill="none"
	xmlns="http://www.w3.org/2000/svg"
>
	<path
		d="M1.18182 17.9883C1.27557 18.0768 1.38234 18.1367 1.50213 18.168C1.62192 18.1992 1.74171 18.1992 1.86151 18.168C1.9813 18.1367 2.08546 18.0768 2.17401 17.9883L7.17401 12.9883L12.174 17.9883C12.2625 18.0768 12.3667 18.1367 12.4865 18.168C12.6063 18.1992 12.7261 18.1992 12.8459 18.168C12.9709 18.1419 13.0777 18.082 13.1662 17.9883C13.2547 17.8997 13.312 17.7956 13.3381 17.6758C13.3693 17.556 13.3693 17.4362 13.3381 17.3164C13.312 17.1966 13.2547 17.0924 13.1662 17.0039L8.16619 11.9961L13.1662 6.99609C13.2547 6.90755 13.3146 6.80339 13.3459 6.68359C13.3771 6.5638 13.3771 6.44401 13.3459 6.32422C13.3146 6.20443 13.2547 6.10026 13.1662 6.01172C13.0724 5.91797 12.9657 5.85807 12.8459 5.83203C12.7261 5.80078 12.6063 5.80078 12.4865 5.83203C12.3667 5.85807 12.2625 5.91797 12.174 6.01172L7.17401 11.0117L2.17401 6.01172C2.08546 5.91797 1.97869 5.85807 1.85369 5.83203C1.7339 5.80078 1.61411 5.80078 1.49432 5.83203C1.37453 5.85807 1.27036 5.91797 1.18182 6.01172C1.09328 6.10026 1.03338 6.20443 1.00213 6.32422C0.976089 6.44401 0.976089 6.5638 1.00213 6.68359C1.03338 6.80339 1.09328 6.90755 1.18182 6.99609L6.18182 11.9961L1.18182 17.0039C1.09328 17.0924 1.03338 17.1966 1.00213 17.3164C0.970881 17.4362 0.968277 17.556 0.994318 17.6758C1.02557 17.7956 1.08807 17.8997 1.18182 17.9883Z"
		fill="currentColor"
	/>
</svg>
