<svg
	color="rgb(var(--foreground, 0, 0, 0))"
	viewBox="0 0 21 24"
	fill="none"
	xmlns="http://www.w3.org/2000/svg"
>
	<path
		d="M3.38281 16.8594L3.61719 17.7969C3.76823 18.4062 4.01562 18.8646 4.35938 19.1719C4.70833 19.4844 5.20573 19.6406 5.85156 19.6406H14.2656C14.9115 19.6406 15.4089 19.487 15.7578 19.1797C16.1068 18.8724 16.3568 18.4115 16.5078 17.7969L16.7422 16.8594H3.38281ZM3.125 15.7891H17.0078L18.4766 9.77344L17.8359 9.40625L14.2344 12.0312C14.1042 12.125 13.9896 12.1615 13.8906 12.1406C13.7969 12.1146 13.7135 12.0469 13.6406 11.9375L10.25 6.8125L9.875 6.79688L6.45312 11.9609C6.38542 12.0599 6.30729 12.1224 6.21875 12.1484C6.13542 12.1693 6.02865 12.1328 5.89844 12.0391L2.36719 9.46094L1.61719 9.65625L3.125 15.7891ZM1.90625 11.3359C2.25 11.3359 2.5625 11.2526 2.84375 11.0859C3.125 10.9141 3.34896 10.6875 3.51562 10.4062C3.68229 10.125 3.76562 9.8099 3.76562 9.46094C3.76562 9.1224 3.68229 8.8125 3.51562 8.53125C3.34896 8.25 3.125 8.02604 2.84375 7.85938C2.5625 7.6875 2.25 7.60156 1.90625 7.60156C1.5625 7.60156 1.2474 7.6875 0.960938 7.85938C0.679688 8.02604 0.455729 8.25 0.289062 8.53125C0.122396 8.8125 0.0390625 9.1224 0.0390625 9.46094C0.0390625 9.8099 0.122396 10.125 0.289062 10.4062C0.460938 10.6875 0.6875 10.9141 0.96875 11.0859C1.25521 11.2526 1.56771 11.3359 1.90625 11.3359ZM10.0625 8.08594C10.401 8.08594 10.7109 8.0026 10.9922 7.83594C11.2786 7.66927 11.5052 7.44531 11.6719 7.16406C11.8385 6.8776 11.9219 6.5625 11.9219 6.21875C11.9219 5.88021 11.8385 5.57031 11.6719 5.28906C11.5052 5.00781 11.2786 4.78385 10.9922 4.61719C10.7109 4.44531 10.401 4.35938 10.0625 4.35938C9.71875 4.35938 9.40365 4.44271 9.11719 4.60938C8.83594 4.77604 8.61198 5 8.44531 5.28125C8.27865 5.5625 8.19531 5.875 8.19531 6.21875C8.19531 6.5625 8.27865 6.8776 8.44531 7.16406C8.61198 7.44531 8.83594 7.66927 9.11719 7.83594C9.40365 8.0026 9.71875 8.08594 10.0625 8.08594ZM18.2109 11.3359C18.5495 11.3359 18.8594 11.2526 19.1406 11.0859C19.4271 10.9141 19.6536 10.6875 19.8203 10.4062C19.9922 10.125 20.0781 9.8099 20.0781 9.46094C20.0781 9.1224 19.9948 8.8125 19.8281 8.53125C19.6615 8.25 19.4349 8.02604 19.1484 7.85938C18.8672 7.6875 18.5547 7.60156 18.2109 7.60156C17.8672 7.60156 17.5547 7.6875 17.2734 7.85938C16.9922 8.02604 16.7682 8.25 16.6016 8.53125C16.4349 8.8125 16.3516 9.1224 16.3516 9.46094C16.3516 9.8099 16.4349 10.125 16.6016 10.4062C16.7682 10.6875 16.9922 10.9141 17.2734 11.0859C17.5547 11.2526 17.8672 11.3359 18.2109 11.3359Z"
		fill="currentColor"
	/>
</svg>
