<svg
	color="rgb(var(--foreground, 0, 0, 0))"
	viewBox="0 0 17 24"
	fill="none"
	xmlns="http://www.w3.org/2000/svg"
>
	<path
		d="M1.55219 12C1.55219 11.6458 1.57823 11.2995 1.63031 10.9609C1.6876 10.6172 1.76573 10.2865 1.86469 9.96875L0.638123 9.45312C0.502706 9.85417 0.398539 10.2682 0.325623 10.6953C0.252706 11.1224 0.216248 11.5573 0.216248 12C0.216248 12.4427 0.252706 12.8776 0.325623 13.3047C0.403748 13.7318 0.510518 14.1458 0.645935 14.5469L1.86469 14.0312C1.76573 13.7135 1.6876 13.3854 1.63031 13.0469C1.57823 12.7031 1.55219 12.3542 1.55219 12ZM5.14594 6.07812L4.64594 4.875C3.86989 5.26562 3.17458 5.76823 2.56 6.38281C1.94541 6.9974 1.44281 7.69271 1.05219 8.46875L2.27094 8.97656C2.58344 8.35677 2.98448 7.79948 3.47406 7.30469C3.96885 6.8099 4.52614 6.40104 5.14594 6.07812ZM8.17719 5.35938C8.53135 5.35938 8.88031 5.38802 9.22406 5.44531C9.56781 5.4974 9.90114 5.57552 10.2241 5.67969L10.7241 4.46094C10.323 4.32031 9.90896 4.21354 9.48187 4.14062C9.05479 4.06771 8.61989 4.03125 8.17719 4.03125C7.73448 4.03125 7.29698 4.06771 6.86469 4.14062C6.4376 4.21354 6.02354 4.32031 5.6225 4.46094L6.13812 5.67969C6.45583 5.57552 6.78656 5.4974 7.13031 5.44531C7.47406 5.38802 7.82302 5.35938 8.17719 5.35938ZM14.0991 8.96875L15.31 8.46875C14.9194 7.69271 14.4142 6.9974 13.7944 6.38281C13.1746 5.76302 12.4793 5.25781 11.7084 4.86719L11.2084 6.07812C11.8282 6.39583 12.3855 6.80208 12.8803 7.29688C13.3751 7.78646 13.7814 8.34375 14.0991 8.96875ZM14.8256 12C14.8256 12.3542 14.797 12.7031 14.7397 13.0469C14.6876 13.3906 14.6121 13.7214 14.5131 14.0391L15.7241 14.5547C15.8647 14.1536 15.9715 13.7396 16.0444 13.3125C16.1173 12.8802 16.1537 12.4427 16.1537 12C16.1537 11.5573 16.1173 11.1224 16.0444 10.6953C15.9715 10.263 15.8647 9.84635 15.7241 9.44531L14.5053 9.96094C14.6095 10.2786 14.6876 10.6094 14.7397 10.9531C14.797 11.2969 14.8256 11.6458 14.8256 12ZM11.2084 17.9141L11.7084 19.1328C12.4845 18.7422 13.1798 18.2396 13.7944 17.625C14.4142 17.0052 14.9168 16.3073 15.3022 15.5312L14.1069 15.0312C13.7892 15.651 13.3803 16.2083 12.8803 16.7031C12.3855 17.1979 11.8282 17.6016 11.2084 17.9141ZM8.185 18.6406C7.82562 18.6406 7.47406 18.612 7.13031 18.5547C6.78656 18.5026 6.45583 18.4245 6.13812 18.3203L5.63031 19.5391C6.03135 19.6745 6.44541 19.7786 6.8725 19.8516C7.30479 19.9297 7.74229 19.9688 8.185 19.9688C8.62771 19.9688 9.06 19.9323 9.48187 19.8594C9.90896 19.7865 10.323 19.6823 10.7241 19.5469L10.2162 18.3281C9.89333 18.4271 9.5626 18.5026 9.22406 18.5547C8.88552 18.612 8.53916 18.6406 8.185 18.6406ZM2.27094 15.0312L1.06 15.5312C1.45062 16.3073 1.95323 17.0026 2.56781 17.6172C3.18239 18.2318 3.8751 18.7344 4.64594 19.125L5.14594 17.9062C4.52614 17.5938 3.96885 17.1927 3.47406 16.7031C2.98448 16.2083 2.58344 15.651 2.27094 15.0312ZM8.16937 17.4531C8.92979 17.4531 9.64073 17.3125 10.3022 17.0312C10.9636 16.75 11.5418 16.362 12.0366 15.8672C12.5366 15.3672 12.9272 14.7865 13.2084 14.125C13.4897 13.4635 13.6277 12.7552 13.6225 12C13.6225 11.2396 13.4819 10.5312 13.2006 9.875C12.9194 9.21354 12.5287 8.63542 12.0287 8.14062C11.5287 7.64062 10.948 7.25 10.2866 6.96875C9.63031 6.6875 8.92198 6.54688 8.16156 6.54688C7.40635 6.54688 6.69802 6.6875 6.03656 6.96875C5.38031 7.24479 4.80219 7.63281 4.30219 8.13281C3.80739 8.63281 3.41937 9.21354 3.13812 9.875C2.86208 10.5312 2.72406 11.2396 2.72406 12C2.72406 12.7604 2.86469 13.4714 3.14594 14.1328C3.42719 14.7891 3.81521 15.3672 4.31 15.8672C4.81 16.362 5.38812 16.75 6.04437 17.0312C6.70583 17.3125 7.41416 17.4531 8.16937 17.4531ZM8.17719 15.2344C7.71364 15.2344 7.30479 15.151 6.95062 14.9844C6.60166 14.8125 6.32823 14.6198 6.13031 14.4062C5.9376 14.1875 5.84125 14.0052 5.84125 13.8594C5.84125 13.776 5.8725 13.7214 5.935 13.6953C5.9975 13.6641 6.06 13.6641 6.1225 13.6953C6.36729 13.8307 6.64854 13.9609 6.96625 14.0859C7.28396 14.2109 7.6876 14.2734 8.17719 14.2734C8.66677 14.2734 9.07041 14.2109 9.38812 14.0859C9.70583 13.9609 9.98708 13.8307 10.2319 13.6953C10.2996 13.6641 10.3621 13.6641 10.4194 13.6953C10.4819 13.7214 10.5131 13.776 10.5131 13.8594C10.5131 14.0052 10.4168 14.1875 10.2241 14.4062C10.0314 14.6198 9.75791 14.8125 9.40375 14.9844C9.05479 15.151 8.64594 15.2344 8.17719 15.2344ZM6.185 11.2656C5.97666 11.2656 5.79437 11.1823 5.63812 11.0156C5.48187 10.8438 5.40375 10.625 5.40375 10.3594C5.40375 10.0885 5.48187 9.86719 5.63812 9.69531C5.79437 9.52344 5.97666 9.4375 6.185 9.4375C6.39854 9.4375 6.58344 9.52344 6.73969 9.69531C6.90114 9.86719 6.98187 10.0885 6.98187 10.3594C6.98187 10.625 6.90114 10.8438 6.73969 11.0156C6.58344 11.1823 6.39854 11.2656 6.185 11.2656ZM10.1772 11.2656C9.96364 11.2656 9.77875 11.1823 9.6225 11.0156C9.46625 10.8438 9.38812 10.625 9.38812 10.3594C9.38812 10.0885 9.46625 9.86719 9.6225 9.69531C9.77875 9.52344 9.96364 9.4375 10.1772 9.4375C10.3855 9.4375 10.5678 9.52344 10.7241 9.69531C10.8855 9.86719 10.9662 10.0885 10.9662 10.3594C10.9662 10.625 10.8855 10.8438 10.7241 11.0156C10.5678 11.1823 10.3855 11.2656 10.1772 11.2656Z"
		fill="currentColor"
	/>
</svg>
