<svg
	color="rgb(var(--foreground, 0, 0, 0))"
	viewBox="0 0 17 24"
	fill="none"
	xmlns="http://www.w3.org/2000/svg"
>
	<path
		d="M1.61469 12C1.61469 11.6458 1.64073 11.2995 1.69281 10.9609C1.7501 10.6172 1.82823 10.2865 1.92719 9.96875L0.700623 9.45312C0.565206 9.85417 0.461039 10.2682 0.388123 10.6953C0.315206 11.1224 0.278748 11.5573 0.278748 12C0.278748 12.4427 0.315206 12.8776 0.388123 13.3047C0.466248 13.7318 0.573018 14.1458 0.708435 14.5469L1.92719 14.0312C1.82823 13.7135 1.7501 13.3854 1.69281 13.0469C1.64073 12.7031 1.61469 12.3542 1.61469 12ZM5.20844 6.07812L4.70844 4.875C3.93239 5.26562 3.23708 5.76823 2.6225 6.38281C2.00791 6.9974 1.50531 7.69271 1.11469 8.46875L2.33344 8.97656C2.64594 8.35677 3.04698 7.79948 3.53656 7.30469C4.03135 6.8099 4.58864 6.40104 5.20844 6.07812ZM8.23969 5.35938C8.59385 5.35938 8.94281 5.38802 9.28656 5.44531C9.63031 5.4974 9.96364 5.57552 10.2866 5.67969L10.7866 4.46094C10.3855 4.32031 9.97146 4.21354 9.54437 4.14062C9.11729 4.06771 8.68239 4.03125 8.23969 4.03125C7.79698 4.03125 7.35948 4.06771 6.92719 4.14062C6.5001 4.21354 6.08604 4.32031 5.685 4.46094L6.20062 5.67969C6.51833 5.57552 6.84906 5.4974 7.19281 5.44531C7.53656 5.38802 7.88552 5.35938 8.23969 5.35938ZM14.1616 8.96875L15.3725 8.46875C14.9819 7.69271 14.4767 6.9974 13.8569 6.38281C13.2371 5.76302 12.5418 5.25781 11.7709 4.86719L11.2709 6.07812C11.8907 6.39583 12.448 6.80208 12.9428 7.29688C13.4376 7.78646 13.8439 8.34375 14.1616 8.96875ZM14.8881 12C14.8881 12.3542 14.8595 12.7031 14.8022 13.0469C14.7501 13.3906 14.6746 13.7214 14.5756 14.0391L15.7866 14.5547C15.9272 14.1536 16.034 13.7396 16.1069 13.3125C16.1798 12.8802 16.2162 12.4427 16.2162 12C16.2162 11.5573 16.1798 11.1224 16.1069 10.6953C16.034 10.263 15.9272 9.84635 15.7866 9.44531L14.5678 9.96094C14.672 10.2786 14.7501 10.6094 14.8022 10.9531C14.8595 11.2969 14.8881 11.6458 14.8881 12ZM11.2709 17.9141L11.7709 19.1328C12.547 18.7422 13.2423 18.2396 13.8569 17.625C14.4767 17.0052 14.9793 16.3073 15.3647 15.5312L14.1694 15.0312C13.8517 15.651 13.4428 16.2083 12.9428 16.7031C12.448 17.1979 11.8907 17.6016 11.2709 17.9141ZM8.2475 18.6406C7.88812 18.6406 7.53656 18.612 7.19281 18.5547C6.84906 18.5026 6.51833 18.4245 6.20062 18.3203L5.69281 19.5391C6.09385 19.6745 6.50791 19.7786 6.935 19.8516C7.36729 19.9297 7.80479 19.9688 8.2475 19.9688C8.69021 19.9688 9.1225 19.9323 9.54437 19.8594C9.97146 19.7865 10.3855 19.6823 10.7866 19.5469L10.2787 18.3281C9.95583 18.4271 9.6251 18.5026 9.28656 18.5547C8.94802 18.612 8.60166 18.6406 8.2475 18.6406ZM2.33344 15.0312L1.1225 15.5312C1.51312 16.3073 2.01573 17.0026 2.63031 17.6172C3.24489 18.2318 3.9376 18.7344 4.70844 19.125L5.20844 17.9062C4.58864 17.5938 4.03135 17.1927 3.53656 16.7031C3.04698 16.2083 2.64594 15.651 2.33344 15.0312ZM8.23969 15.9219C8.78135 15.9219 9.25791 15.8255 9.66937 15.6328C10.0808 15.4349 10.3985 15.2109 10.6225 14.9609C10.8517 14.7057 10.9662 14.4922 10.9662 14.3203C10.9662 14.2266 10.9272 14.1615 10.8491 14.125C10.7761 14.0885 10.698 14.0885 10.6147 14.125C10.3334 14.2812 10.0079 14.4323 9.63812 14.5781C9.27354 14.7188 8.80739 14.7891 8.23969 14.7891C7.67198 14.7891 7.20323 14.7188 6.83344 14.5781C6.46885 14.4323 6.14333 14.2812 5.85687 14.125C5.77354 14.0885 5.69541 14.0885 5.6225 14.125C5.54958 14.1615 5.51312 14.2266 5.51312 14.3203C5.51312 14.4922 5.6251 14.7057 5.84906 14.9609C6.07823 15.2109 6.39854 15.4349 6.81 15.6328C7.22146 15.8255 7.69802 15.9219 8.23969 15.9219ZM5.91937 11.3125C6.16937 11.3125 6.38812 11.2135 6.57562 11.0156C6.76312 10.8125 6.85687 10.5547 6.85687 10.2422C6.85687 9.92969 6.76312 9.67188 6.57562 9.46875C6.38812 9.26562 6.16937 9.16406 5.91937 9.16406C5.67458 9.16406 5.46104 9.26562 5.27875 9.46875C5.09646 9.67188 5.00531 9.92969 5.00531 10.2422C5.00531 10.5547 5.09646 10.8125 5.27875 11.0156C5.46104 11.2135 5.67458 11.3125 5.91937 11.3125ZM10.5522 11.3125C10.8022 11.3125 11.0209 11.2135 11.2084 11.0156C11.3959 10.8125 11.4897 10.5547 11.4897 10.2422C11.4897 9.92969 11.3959 9.67188 11.2084 9.46875C11.0209 9.26562 10.8022 9.16406 10.5522 9.16406C10.3074 9.16406 10.0939 9.26562 9.91156 9.46875C9.72927 9.67188 9.63812 9.92969 9.63812 10.2422C9.63812 10.5547 9.72927 10.8125 9.91156 11.0156C10.0939 11.2135 10.3074 11.3125 10.5522 11.3125Z"
		fill="currentColor"
	/>
</svg>
