<svg
	color="rgb(var(--foreground, 0, 0, 0))"
	viewBox="0 0 15 24"
	fill="none"
	xmlns="http://www.w3.org/2000/svg"
>
	<path
		d="M3.40625 20.375H11.7031C12.5104 20.375 13.1146 20.1693 13.5156 19.7578C13.9219 19.3516 14.125 18.7422 14.125 17.9297V10.8359H8.46875C7.48438 10.8359 6.99219 10.3438 6.99219 9.35938V3.625H3.40625C2.59896 3.625 1.99219 3.83073 1.58594 4.24219C1.1849 4.65365 0.984375 5.26562 0.984375 6.07812V17.9297C0.984375 18.7474 1.1849 19.3594 1.58594 19.7656C1.99219 20.1719 2.59896 20.375 3.40625 20.375ZM8.49219 9.76562H14.0312C14.0052 9.60417 13.9375 9.44271 13.8281 9.28125C13.7188 9.11979 13.5703 8.94271 13.3828 8.75L9.07812 4.36719C8.89583 4.17969 8.72135 4.03125 8.55469 3.92188C8.38802 3.80729 8.22396 3.73698 8.0625 3.71094V9.34375C8.0625 9.625 8.20573 9.76562 8.49219 9.76562Z"
		fill="currentColor"
	/>
</svg>
