<svg
	color="rgb(var(--foreground, 0, 0, 0))"
	viewBox="0 0 19 24"
	fill="none"
	xmlns="http://www.w3.org/2000/svg"
>
	<path
		d="M2.82251 19.1484H15.8928C16.5907 19.1484 17.135 18.9453 17.5256 18.5391C17.9163 18.138 18.1116 17.5339 18.1116 16.7266V8.70312C18.1116 7.90104 17.9058 7.29688 17.4944 6.89062C17.0829 6.48438 16.4709 6.28125 15.6584 6.28125H8.15845C7.89282 6.28125 7.66886 6.2474 7.48657 6.17969C7.30428 6.10677 7.11418 5.98698 6.91626 5.82031L6.4397 5.42969C6.26782 5.28385 6.10116 5.16927 5.9397 5.08594C5.78345 5.0026 5.60897 4.94271 5.41626 4.90625C5.22876 4.86979 5.00741 4.85156 4.7522 4.85156H2.52563C1.83813 4.85156 1.30688 5.04688 0.931885 5.4375C0.556885 5.82812 0.369385 6.41667 0.369385 7.20312V16.7266C0.369385 17.5339 0.57251 18.138 0.97876 18.5391C1.39022 18.9453 2.0048 19.1484 2.82251 19.1484ZM2.83813 17.8906C2.44751 17.8906 2.14803 17.7891 1.9397 17.5859C1.73136 17.3776 1.6272 17.0703 1.6272 16.6641V7.27344C1.6272 6.88802 1.72616 6.59635 1.92407 6.39844C2.12199 6.20052 2.40845 6.10156 2.78345 6.10156H4.43188C4.6923 6.10156 4.91105 6.13802 5.08813 6.21094C5.27043 6.28385 5.46053 6.40365 5.65845 6.57031L6.13501 6.96875C6.30168 7.10938 6.46574 7.22135 6.6272 7.30469C6.78866 7.38802 6.96574 7.44792 7.15845 7.48438C7.35116 7.52083 7.57511 7.53906 7.83032 7.53906H15.635C16.0204 7.53906 16.3199 7.64323 16.5334 7.85156C16.747 8.0599 16.8538 8.36719 16.8538 8.77344V16.6719C16.8538 17.0729 16.747 17.3776 16.5334 17.5859C16.3199 17.7891 16.0204 17.8906 15.635 17.8906H2.83813ZM1.13501 10.3984H17.3381V9.21875H1.13501V10.3984Z"
		fill="currentColor"
	/>
</svg>
