<svg
	color="rgb(var(--foreground, 0, 0, 0))"
	viewBox="0 0 18 24"
	fill="none"
	xmlns="http://www.w3.org/2000/svg"
>
	<path
		d="M0.111572 16.7266C0.111572 17.5339 0.314697 18.138 0.720947 18.5391C1.13241 18.9453 1.74699 19.1484 2.5647 19.1484H15.635C16.3329 19.1484 16.8772 18.9453 17.2678 18.5391C17.6584 18.138 17.8538 17.5339 17.8538 16.7266V10.3203H0.111572V16.7266ZM0.111572 9.29688H17.8538V8.70312C17.8538 7.90104 17.648 7.29688 17.2366 6.89062C16.8251 6.48438 16.2131 6.28125 15.4006 6.28125H7.90063C7.63501 6.28125 7.41105 6.2474 7.22876 6.17969C7.04647 6.10677 6.85636 5.98698 6.65845 5.82031L6.18188 5.42969C6.01001 5.28385 5.84334 5.16927 5.68188 5.08594C5.52563 5.0026 5.35116 4.94271 5.15845 4.90625C4.97095 4.86979 4.74959 4.85156 4.49438 4.85156H2.26782C1.58032 4.85156 1.04907 5.04688 0.674072 5.4375C0.299072 5.82812 0.111572 6.41667 0.111572 7.20312V9.29688Z"
		fill="currentColor"
	/>
</svg>
