<svg
	color="rgb(var(--foreground, 0, 0, 0))"
	viewBox="0 0 18 24"
	fill="none"
	xmlns="http://www.w3.org/2000/svg"
>
	<path
		d="M8.53125 20.3516H10.1094C10.4115 20.3516 10.6693 20.2656 10.8828 20.0938C11.1016 19.9271 11.2448 19.6979 11.3125 19.4062L11.6484 17.9453L11.8984 17.8594L13.1719 18.6406C13.4219 18.8021 13.6849 18.8646 13.9609 18.8281C14.237 18.7917 14.4818 18.6667 14.6953 18.4531L15.7891 17.3672C16.0026 17.1536 16.1276 16.9089 16.1641 16.6328C16.2005 16.3568 16.138 16.0938 15.9766 15.8438L15.1797 14.5781L15.2734 14.3438L16.7344 14C17.0208 13.9323 17.25 13.7891 17.4219 13.5703C17.5938 13.3516 17.6797 13.0938 17.6797 12.7969V11.25C17.6797 10.9531 17.5938 10.6953 17.4219 10.4766C17.25 10.2578 17.0208 10.1146 16.7344 10.0469L15.2891 9.69531L15.1875 9.44531L15.9844 8.17969C16.1458 7.92969 16.2083 7.66927 16.1719 7.39844C16.1354 7.1224 16.0104 6.875 15.7969 6.65625L14.7031 5.5625C14.4948 5.35417 14.2526 5.23177 13.9766 5.19531C13.7005 5.15885 13.4375 5.21875 13.1875 5.375L11.9141 6.15625L11.6484 6.05469L11.3125 4.59375C11.2448 4.30729 11.1016 4.07812 10.8828 3.90625C10.6693 3.73438 10.4115 3.64844 10.1094 3.64844H8.53125C8.22917 3.64844 7.96875 3.73438 7.75 3.90625C7.53646 4.07812 7.39583 4.30729 7.32812 4.59375L6.98438 6.05469L6.71875 6.15625L5.45312 5.375C5.19792 5.21875 4.93229 5.15885 4.65625 5.19531C4.38542 5.23177 4.14323 5.35417 3.92969 5.5625L2.84375 6.65625C2.625 6.875 2.4974 7.1224 2.46094 7.39844C2.42969 7.66927 2.49479 7.92969 2.65625 8.17969L3.44531 9.44531L3.35156 9.69531L1.90625 10.0469C1.61458 10.1146 1.38281 10.2578 1.21094 10.4766C1.04427 10.6953 0.960938 10.9531 0.960938 11.25V12.7969C0.960938 13.0938 1.04688 13.3516 1.21875 13.5703C1.39062 13.7891 1.61979 13.9323 1.90625 14L3.36719 14.3438L3.45312 14.5781L2.66406 15.8438C2.5026 16.0938 2.4375 16.3568 2.46875 16.6328C2.50521 16.9089 2.63281 17.1536 2.85156 17.3672L3.9375 18.4531C4.15104 18.6667 4.39583 18.7917 4.67188 18.8281C4.94792 18.8646 5.21354 18.8021 5.46875 18.6406L6.73438 17.8594L6.98438 17.9453L7.32812 19.4062C7.39583 19.6979 7.53646 19.9271 7.75 20.0938C7.96875 20.2656 8.22917 20.3516 8.53125 20.3516ZM8.65625 19.1328C8.52604 19.1328 8.45052 19.0729 8.42969 18.9531L7.96094 17.0156C7.72135 16.9583 7.49219 16.8854 7.27344 16.7969C7.0599 16.7031 6.86979 16.6042 6.70312 16.5L5 17.5469C4.90625 17.6146 4.8099 17.6016 4.71094 17.5078L3.78906 16.5859C3.70573 16.5078 3.69531 16.4115 3.75781 16.2969L4.80469 14.6094C4.71615 14.4427 4.625 14.2526 4.53125 14.0391C4.4375 13.8255 4.35938 13.599 4.29688 13.3594L2.35938 12.8984C2.23958 12.8776 2.17969 12.8021 2.17969 12.6719V11.3672C2.17969 11.2422 2.23958 11.1667 2.35938 11.1406L4.28906 10.6719C4.35156 10.4167 4.43229 10.1797 4.53125 9.96094C4.63542 9.74219 4.72135 9.5599 4.78906 9.41406L3.75 7.72656C3.68229 7.61198 3.6901 7.51042 3.77344 7.42188L4.70312 6.51562C4.79688 6.43229 4.89583 6.41927 5 6.47656L6.6875 7.5C6.85417 7.40625 7.04948 7.3125 7.27344 7.21875C7.5026 7.125 7.73438 7.04688 7.96875 6.98438L8.42969 5.04688C8.45052 4.92708 8.52604 4.86719 8.65625 4.86719H9.98438C10.1146 4.86719 10.1875 4.92708 10.2031 5.04688L10.6797 7C10.9245 7.0625 11.151 7.14062 11.3594 7.23438C11.5729 7.32292 11.7656 7.41406 11.9375 7.50781L13.6328 6.47656C13.7422 6.41927 13.8438 6.43229 13.9375 6.51562L14.8594 7.42188C14.9479 7.51042 14.9557 7.61198 14.8828 7.72656L13.8438 9.41406C13.9167 9.5599 14.0026 9.74219 14.1016 9.96094C14.2005 10.1797 14.2812 10.4167 14.3438 10.6719L16.2812 11.1406C16.401 11.1667 16.4609 11.2422 16.4609 11.3672V12.6719C16.4609 12.8021 16.401 12.8776 16.2812 12.8984L14.3359 13.3594C14.2734 13.599 14.1953 13.8255 14.1016 14.0391C14.013 14.2526 13.9219 14.4427 13.8281 14.6094L14.875 16.2969C14.9427 16.4115 14.9323 16.5078 14.8438 16.5859L13.9297 17.5078C13.8307 17.6016 13.7318 17.6146 13.6328 17.5469L11.9297 16.5C11.763 16.6042 11.5729 16.7031 11.3594 16.7969C11.1458 16.8854 10.9193 16.9583 10.6797 17.0156L10.2031 18.9531C10.1875 19.0729 10.1146 19.1328 9.98438 19.1328H8.65625ZM9.32031 14.9844C9.86719 14.9844 10.3646 14.8516 10.8125 14.5859C11.2656 14.3151 11.625 13.9531 11.8906 13.5C12.1615 13.0469 12.2969 12.5469 12.2969 12C12.2969 11.4583 12.1615 10.9635 11.8906 10.5156C11.625 10.0625 11.2656 9.70312 10.8125 9.4375C10.3646 9.16667 9.86719 9.03125 9.32031 9.03125C8.77344 9.03125 8.27344 9.16667 7.82031 9.4375C7.3724 9.70312 7.01302 10.0625 6.74219 10.5156C6.47135 10.9635 6.33594 11.4583 6.33594 12C6.33594 12.5469 6.47135 13.0469 6.74219 13.5C7.01302 13.9479 7.3724 14.3073 7.82031 14.5781C8.27344 14.849 8.77344 14.9844 9.32031 14.9844ZM9.32031 13.7734C8.9974 13.7734 8.70052 13.6953 8.42969 13.5391C8.16406 13.3776 7.95052 13.1641 7.78906 12.8984C7.63281 12.6276 7.55469 12.3281 7.55469 12C7.55469 11.6771 7.63281 11.3828 7.78906 11.1172C7.95052 10.8516 8.16406 10.6406 8.42969 10.4844C8.70052 10.3229 8.9974 10.2422 9.32031 10.2422C9.63802 10.2422 9.92969 10.3229 10.1953 10.4844C10.4609 10.6406 10.6719 10.8516 10.8281 11.1172C10.9896 11.3828 11.0703 11.6771 11.0703 12C11.0703 12.3229 10.9896 12.6198 10.8281 12.8906C10.6719 13.1562 10.4609 13.3698 10.1953 13.5312C9.92969 13.6927 9.63802 13.7734 9.32031 13.7734Z"
		fill="currentColor"
	/>
</svg>
