<svg
	color="rgb(var(--foreground, 0, 0, 0))"
	viewBox="0 0 18 24"
	fill="none"
	xmlns="http://www.w3.org/2000/svg"
>
	<path
		d="M9.07275 19.6055C9.17692 19.6055 9.27588 19.6029 9.36963 19.5977C9.46859 19.5925 9.57275 19.5846 9.68213 19.5742L10.1274 20.4258C10.1743 20.5143 10.2368 20.5794 10.3149 20.6211C10.3983 20.6628 10.4946 20.6784 10.604 20.668C10.6978 20.6471 10.7759 20.6029 10.8384 20.5352C10.9061 20.4675 10.9478 20.3815 10.9634 20.2774L11.0962 19.332C11.2889 19.28 11.4816 19.2175 11.6743 19.1445C11.867 19.0716 12.0545 18.9961 12.2368 18.918L12.9399 19.5508C13.0129 19.6185 13.0962 19.6576 13.1899 19.668C13.2837 19.6836 13.3774 19.6654 13.4712 19.6133C13.6483 19.5091 13.716 19.3451 13.6743 19.1211L13.479 18.1914C13.6405 18.0768 13.7993 17.9544 13.9556 17.8242C14.117 17.694 14.2707 17.5586 14.4165 17.418L15.2837 17.7774C15.3826 17.819 15.4764 17.8294 15.5649 17.8086C15.6535 17.7878 15.7368 17.7331 15.8149 17.6445C15.8774 17.5716 15.9113 17.4883 15.9165 17.3945C15.9269 17.3008 15.9035 17.2096 15.8462 17.1211L15.3384 16.3086C15.4582 16.1471 15.5649 15.9779 15.6587 15.8008C15.7576 15.6237 15.8514 15.4414 15.9399 15.2539L16.9009 15.3008C16.9998 15.306 17.0884 15.2826 17.1665 15.2305C17.2498 15.1784 17.3071 15.1055 17.3384 15.0117C17.3696 14.9128 17.3696 14.819 17.3384 14.7305C17.3123 14.6419 17.2603 14.5664 17.1821 14.5039L16.4321 13.9102C16.4842 13.7175 16.5285 13.5221 16.5649 13.3242C16.6066 13.1211 16.6353 12.9154 16.6509 12.707L17.5493 12.418C17.6483 12.3867 17.7264 12.3346 17.7837 12.2617C17.841 12.1888 17.8696 12.1003 17.8696 11.9961C17.8696 11.8919 17.841 11.8034 17.7837 11.7305C17.7264 11.6576 17.6483 11.6029 17.5493 11.5664L16.6509 11.2852C16.6353 11.0716 16.6066 10.8659 16.5649 10.668C16.5285 10.4701 16.4842 10.2748 16.4321 10.082L17.1821 9.48829C17.2603 9.42579 17.3123 9.35288 17.3384 9.26954C17.3696 9.181 17.3696 9.08725 17.3384 8.98829C17.3071 8.89454 17.2498 8.82163 17.1665 8.76954C17.0884 8.71746 16.9998 8.69402 16.9009 8.69923L15.9399 8.73048C15.8514 8.54298 15.7576 8.36329 15.6587 8.19142C15.5649 8.01434 15.4582 7.84246 15.3384 7.67579L15.8462 6.86329C15.8983 6.77996 15.9217 6.69402 15.9165 6.60548C15.9113 6.51173 15.8774 6.4284 15.8149 6.35548C15.7368 6.26694 15.6535 6.21225 15.5649 6.19142C15.4764 6.17059 15.3826 6.181 15.2837 6.22267L14.4165 6.57423C14.2707 6.43361 14.117 6.29819 13.9556 6.16798C13.7993 6.03777 13.6405 5.91538 13.479 5.80079L13.6743 4.87892C13.7004 4.76954 13.6951 4.67319 13.6587 4.58986C13.6222 4.50131 13.5597 4.43361 13.4712 4.38673C13.3774 4.33465 13.2837 4.31381 13.1899 4.32423C13.1014 4.33465 13.0181 4.37631 12.9399 4.44923L12.2368 5.07423C12.0545 4.9909 11.867 4.91538 11.6743 4.84767C11.4816 4.77996 11.2889 4.71746 11.0962 4.66017L10.9634 3.72267C10.9478 3.6185 10.9061 3.53256 10.8384 3.46486C10.7759 3.39715 10.6951 3.35288 10.5962 3.33204C10.492 3.32163 10.3983 3.33725 10.3149 3.37892C10.2316 3.41538 10.1691 3.47788 10.1274 3.56642L9.68213 4.41798C9.57275 4.41277 9.46859 4.40756 9.36963 4.40236C9.27588 4.39715 9.17692 4.39454 9.07275 4.39454C8.96859 4.39454 8.86702 4.39715 8.76807 4.40236C8.66911 4.40756 8.56755 4.41277 8.46338 4.41798L8.01025 3.56642C7.96859 3.47788 7.90609 3.41538 7.82275 3.37892C7.73942 3.33725 7.64567 3.32163 7.5415 3.33204C7.44255 3.35288 7.35921 3.39715 7.2915 3.46486C7.229 3.53256 7.19255 3.6185 7.18213 3.72267L7.0415 4.66017C6.8488 4.71746 6.65609 4.77996 6.46338 4.84767C6.27588 4.91538 6.08838 4.9909 5.90088 5.07423L5.19775 4.44923C5.12484 4.37631 5.0415 4.33465 4.94775 4.32423C4.854 4.31381 4.76025 4.33465 4.6665 4.38673C4.57796 4.43361 4.51546 4.50131 4.479 4.58986C4.44255 4.67319 4.43734 4.76954 4.46338 4.87892L4.65869 5.80079C4.49723 5.91538 4.33577 6.03777 4.17432 6.16798C4.01807 6.29819 3.86702 6.43361 3.72119 6.57423L2.854 6.22267C2.75505 6.181 2.6613 6.17059 2.57275 6.19142C2.48421 6.21225 2.40348 6.26694 2.33057 6.35548C2.26286 6.4284 2.2264 6.51173 2.22119 6.60548C2.21598 6.69402 2.23942 6.77996 2.2915 6.86329L2.79932 7.67579C2.68473 7.84246 2.57796 8.01434 2.479 8.19142C2.38005 8.36329 2.2863 8.54298 2.19775 8.73048L1.24463 8.69923C1.14046 8.69402 1.04932 8.71746 0.971191 8.76954C0.893066 8.82163 0.835775 8.89454 0.799316 8.98829C0.768066 9.08725 0.765462 9.181 0.791504 9.26954C0.822754 9.35288 0.877441 9.42579 0.955566 9.48829L1.70557 10.082C1.65348 10.2748 1.60921 10.4701 1.57275 10.668C1.5363 10.8659 1.51286 11.069 1.50244 11.2774L0.588379 11.5664C0.380046 11.6393 0.275879 11.7826 0.275879 11.9961C0.275879 12.2096 0.380046 12.3503 0.588379 12.418L1.50244 12.707C1.51286 12.9154 1.5363 13.1211 1.57275 13.3242C1.60921 13.5221 1.65348 13.7175 1.70557 13.9102L0.955566 14.5039C0.877441 14.5664 0.825358 14.6419 0.799316 14.7305C0.773275 14.819 0.773275 14.9128 0.799316 15.0117C0.835775 15.1055 0.893066 15.1784 0.971191 15.2305C1.04932 15.2826 1.14046 15.306 1.24463 15.3008L2.19775 15.2539C2.2863 15.4414 2.38005 15.6237 2.479 15.8008C2.57796 15.9779 2.68473 16.1471 2.79932 16.3086L2.2915 17.1211C2.23942 17.2096 2.21598 17.3008 2.22119 17.3945C2.2264 17.4883 2.26286 17.5716 2.33057 17.6445C2.40348 17.7331 2.48421 17.7878 2.57275 17.8086C2.6613 17.8294 2.75505 17.819 2.854 17.7774L3.72119 17.418C3.86702 17.5586 4.01807 17.694 4.17432 17.8242C4.33577 17.9544 4.49723 18.0768 4.65869 18.1914L4.46338 19.1211C4.44255 19.2253 4.44775 19.319 4.479 19.4024C4.51546 19.4909 4.57796 19.5612 4.6665 19.6133C4.76546 19.6654 4.85921 19.6836 4.94775 19.668C5.0415 19.6576 5.12484 19.6185 5.19775 19.5508L5.90088 18.918C6.08838 18.9961 6.27588 19.0716 6.46338 19.1445C6.65609 19.2175 6.8488 19.28 7.0415 19.332L7.18213 20.2774C7.19255 20.3815 7.229 20.4675 7.2915 20.5352C7.35921 20.6029 7.44255 20.6471 7.5415 20.668C7.64567 20.6784 7.73682 20.6628 7.81494 20.6211C7.89827 20.5794 7.96338 20.5143 8.01025 20.4258L8.46338 19.5742C8.56755 19.5846 8.66911 19.5925 8.76807 19.5977C8.86702 19.6029 8.96859 19.6055 9.07275 19.6055ZM9.07275 18.4258C8.17692 18.4258 7.34359 18.2591 6.57275 17.9258C5.80713 17.5977 5.13525 17.1393 4.55713 16.5508C3.98421 15.9623 3.5363 15.28 3.21338 14.5039C2.89046 13.7279 2.729 12.8945 2.729 12.0039C2.729 11.1081 2.89046 10.2721 3.21338 9.49611C3.5363 8.72006 3.98421 8.03777 4.55713 7.44923C5.13525 6.86069 5.80713 6.40236 6.57275 6.07423C7.34359 5.7409 8.17692 5.57423 9.07275 5.57423C9.96859 5.57423 10.7993 5.7409 11.5649 6.07423C12.3358 6.40236 13.0076 6.86069 13.5806 7.44923C14.1587 8.03777 14.6092 8.72006 14.9321 9.49611C15.255 10.2721 15.4165 11.1081 15.4165 12.0039C15.4165 12.8945 15.255 13.7279 14.9321 14.5039C14.6092 15.28 14.1587 15.9623 13.5806 16.5508C13.0076 17.1393 12.3358 17.5977 11.5649 17.9258C10.7993 18.2591 9.96859 18.4258 9.07275 18.4258ZM7.70557 10.7149L8.57275 10.168L5.92432 5.63673L5.02588 6.14454L7.70557 10.7149ZM10.8853 12.4961H16.1587L16.1509 11.4883H10.8853V12.4961ZM8.58057 13.8477L7.72119 13.2852L4.94775 17.8242L5.83838 18.3477L8.58057 13.8477ZM9.05713 14.0586C9.43213 14.0586 9.77327 13.9675 10.0806 13.7852C10.3931 13.5977 10.6405 13.3503 10.8228 13.043C11.005 12.7305 11.0962 12.3867 11.0962 12.0117C11.0962 11.6315 11.005 11.2878 10.8228 10.9805C10.6405 10.668 10.3931 10.4206 10.0806 10.2383C9.77327 10.056 9.43213 9.96486 9.05713 9.96486C8.67692 9.96486 8.33057 10.056 8.01807 10.2383C7.71077 10.4206 7.46598 10.668 7.28369 10.9805C7.1014 11.2878 7.01025 11.6315 7.01025 12.0117C7.01025 12.3867 7.1014 12.7305 7.28369 13.043C7.46598 13.3503 7.71077 13.5977 8.01807 13.7852C8.33057 13.9675 8.67692 14.0586 9.05713 14.0586ZM9.05713 12.957C8.7863 12.957 8.55973 12.8659 8.37744 12.6836C8.20036 12.5013 8.11182 12.2774 8.11182 12.0117C8.11182 11.7461 8.20036 11.5221 8.37744 11.3399C8.55973 11.1576 8.7863 11.0664 9.05713 11.0664C9.32275 11.0664 9.54411 11.1576 9.72119 11.3399C9.90348 11.5221 9.99463 11.7461 9.99463 12.0117C9.99463 12.2774 9.90348 12.5013 9.72119 12.6836C9.54411 12.8659 9.32275 12.957 9.05713 12.957Z"
		fill="currentColor"
	/>
</svg>
