<svg
	color="rgb(var(--foreground, 0, 0, 0))"
	viewBox="0 0 25 24"
	fill="none"
	xmlns="http://www.w3.org/2000/svg"
>
	<path
		d="M6.46094 16.875C7.13281 16.875 7.76302 16.75 8.35156 16.5C8.9401 16.2448 9.45573 15.8958 9.89844 15.4531C10.3464 15.0052 10.6953 14.487 10.9453 13.8984C11.2005 13.3047 11.3281 12.6719 11.3281 12C11.3281 11.3281 11.2005 10.6979 10.9453 10.1094C10.6953 9.52083 10.3464 9.0026 9.89844 8.55469C9.45573 8.10677 8.9401 7.75781 8.35156 7.50781C7.76302 7.2526 7.13281 7.125 6.46094 7.125C5.78385 7.125 5.15104 7.2526 4.5625 7.50781C3.97396 7.75781 3.45573 8.10677 3.00781 8.55469C2.5599 9.0026 2.20833 9.52083 1.95312 10.1094C1.70312 10.6979 1.57812 11.3281 1.57812 12C1.57812 12.6719 1.70312 13.3047 1.95312 13.8984C2.20833 14.487 2.5599 15.0052 3.00781 15.4531C3.45573 15.8958 3.97396 16.2448 4.5625 16.5C5.15104 16.75 5.78385 16.875 6.46094 16.875ZM6.46094 15.5547C5.96615 15.5547 5.5026 15.4635 5.07031 15.2812C4.64323 15.099 4.26562 14.8464 3.9375 14.5234C3.61458 14.1953 3.35938 13.8151 3.17188 13.3828C2.98958 12.9505 2.89844 12.4896 2.89844 12C2.89844 11.5104 2.98958 11.0521 3.17188 10.625C3.35938 10.1927 3.61458 9.8151 3.9375 9.49219C4.26562 9.16406 4.64323 8.90885 5.07031 8.72656C5.5026 8.53906 5.96615 8.44531 6.46094 8.44531C6.94531 8.44531 7.40104 8.53906 7.82812 8.72656C8.26042 8.90885 8.63802 9.16406 8.96094 9.49219C9.28906 9.8151 9.54427 10.1927 9.72656 10.625C9.91406 11.0521 10.0078 11.5104 10.0078 12C10.0078 12.4896 9.91406 12.9505 9.72656 13.3828C9.54427 13.8099 9.28906 14.1875 8.96094 14.5156C8.63802 14.8385 8.26042 15.0938 7.82812 15.2812C7.40104 15.4635 6.94531 15.5547 6.46094 15.5547ZM18.3594 16.875C19.0312 16.875 19.6615 16.75 20.25 16.5C20.8385 16.2448 21.3542 15.8958 21.7969 15.4531C22.2448 15.0052 22.5938 14.487 22.8438 13.8984C23.099 13.3047 23.2266 12.6719 23.2266 12C23.2266 11.3281 23.099 10.6979 22.8438 10.1094C22.5938 9.52083 22.2448 9.0026 21.7969 8.55469C21.3542 8.10677 20.8385 7.75781 20.25 7.50781C19.6615 7.2526 19.0312 7.125 18.3594 7.125C17.6823 7.125 17.0495 7.2526 16.4609 7.50781C15.8724 7.75781 15.3542 8.10677 14.9062 8.55469C14.4583 9.0026 14.1068 9.52083 13.8516 10.1094C13.6016 10.6979 13.4766 11.3281 13.4766 12C13.4766 12.6719 13.6016 13.3047 13.8516 13.8984C14.1068 14.487 14.4583 15.0052 14.9062 15.4531C15.3542 15.8958 15.8724 16.2448 16.4609 16.5C17.0495 16.75 17.6823 16.875 18.3594 16.875ZM18.3594 15.5547C17.8646 15.5547 17.401 15.4635 16.9688 15.2812C16.5417 15.0938 16.1641 14.8385 15.8359 14.5156C15.513 14.1875 15.2578 13.8099 15.0703 13.3828C14.888 12.9505 14.7969 12.4896 14.7969 12C14.7969 11.5104 14.888 11.0521 15.0703 10.625C15.2578 10.1927 15.513 9.8151 15.8359 9.49219C16.1641 9.16406 16.5417 8.90885 16.9688 8.72656C17.401 8.53906 17.8646 8.44531 18.3594 8.44531C18.849 8.44531 19.3073 8.53906 19.7344 8.72656C20.1667 8.90885 20.5443 9.16406 20.8672 9.49219C21.1953 9.8151 21.4505 10.1927 21.6328 10.625C21.8151 11.0521 21.9062 11.5104 21.9062 12C21.9062 12.4896 21.8151 12.9505 21.6328 13.3828C21.4505 13.8151 21.1953 14.1953 20.8672 14.5234C20.5443 14.8464 20.1667 15.099 19.7344 15.2812C19.3073 15.4635 18.849 15.5547 18.3594 15.5547ZM2.09375 11.0391H0.664062C0.273438 11.0391 0.078125 11.2344 0.078125 11.625V11.9453C0.078125 12.3411 0.273438 12.5391 0.664062 12.5391H2.09375V11.0391ZM22.7109 12.5391H24.1484C24.5339 12.5391 24.7266 12.3411 24.7266 11.9453V11.625C24.7266 11.2344 24.5339 11.0391 24.1484 11.0391H22.7109V12.5391ZM10.9453 12.2812C11.1432 12.1615 11.3698 12.0703 11.625 12.0078C11.8854 11.9453 12.1458 11.9141 12.4062 11.9141C12.6615 11.9141 12.9193 11.9453 13.1797 12.0078C13.4401 12.0703 13.6693 12.1615 13.8672 12.2812V10.8672C13.6432 10.763 13.3984 10.6901 13.1328 10.6484C12.8672 10.6016 12.625 10.5781 12.4062 10.5781C12.1823 10.5781 11.9375 10.6016 11.6719 10.6484C11.4062 10.6901 11.1641 10.763 10.9453 10.8672V12.2812Z"
		fill="currentColor"
	/>
</svg>
