<svg
	color="rgb(var(--foreground, 0, 0, 0))"
	viewBox="0 0 10 24"
	fill="none"
	xmlns="http://www.w3.org/2000/svg"
>
	<path
		d="M1.39594 19.1836H8.00531C8.40114 19.1836 8.71104 19.0742 8.935 18.8555C9.16416 18.6367 9.27875 18.319 9.27875 17.9023V17.7461C9.27875 17.2773 9.17198 16.806 8.95844 16.332C8.74489 15.8581 8.47406 15.4023 8.14594 14.9648C7.81781 14.5221 7.47666 14.1159 7.1225 13.7461C6.77354 13.3711 6.46364 13.0482 6.19281 12.7773C5.92719 12.5117 5.79958 12.2461 5.81 11.9805C5.82041 11.7096 5.94802 11.4518 6.19281 11.207C6.46364 10.9362 6.77354 10.6159 7.1225 10.2461C7.47666 9.87109 7.81781 9.46484 8.14594 9.02734C8.47406 8.58984 8.74489 8.13411 8.95844 7.66016C9.17198 7.1862 9.27875 6.71224 9.27875 6.23828V6.10547C9.27875 5.68359 9.16416 5.36328 8.935 5.14453C8.71104 4.92578 8.40114 4.81641 8.00531 4.81641H1.39594C1.00531 4.81641 0.695414 4.92578 0.466248 5.14453C0.237081 5.36328 0.122498 5.68359 0.122498 6.10547V6.23828C0.122498 6.71224 0.229268 7.1862 0.44281 7.66016C0.656352 8.13411 0.927185 8.58984 1.25531 9.02734C1.58344 9.46484 1.92198 9.87109 2.27094 10.2461C2.6251 10.6159 2.9376 10.9362 3.20844 11.207C3.45844 11.4518 3.58864 11.7096 3.59906 11.9805C3.60948 12.2461 3.47927 12.5117 3.20844 12.7773C2.9376 13.0482 2.6251 13.3711 2.27094 13.7461C1.92198 14.1159 1.58344 14.5221 1.25531 14.9648C0.927185 15.4023 0.656352 15.8581 0.44281 16.332C0.229268 16.806 0.122498 17.2773 0.122498 17.7461V17.9023C0.122498 18.319 0.237081 18.6367 0.466248 18.8555C0.695414 19.0742 1.00531 19.1836 1.39594 19.1836ZM1.9975 18.1211C1.83083 18.1211 1.72927 18.0456 1.69281 17.8945C1.65635 17.7487 1.69541 17.6237 1.81 17.5195L4.30219 15.1445C4.34906 15.1029 4.38291 15.0664 4.40375 15.0352C4.42458 15.0039 4.435 14.957 4.435 14.8945V11.4336C4.435 11.2565 4.41156 11.1133 4.36469 11.0039C4.32302 10.8945 4.23448 10.7826 4.09906 10.668C3.83864 10.444 3.54177 10.1862 3.20844 9.89453C2.88031 9.60286 2.59646 9.32943 2.35687 9.07422C2.25791 8.97005 2.22666 8.86849 2.26312 8.76953C2.30479 8.67057 2.38552 8.62109 2.50531 8.62109H6.89594C7.02094 8.62109 7.10166 8.67057 7.13812 8.76953C7.17979 8.86849 7.14854 8.97005 7.04437 9.07422C6.80479 9.32943 6.52094 9.60286 6.19281 9.89453C5.86469 10.1862 5.56781 10.444 5.30219 10.668C5.17198 10.7826 5.08344 10.8945 5.03656 11.0039C4.99489 11.1133 4.97406 11.2565 4.97406 11.4336V14.8945C4.97406 14.957 4.98187 15.0039 4.9975 15.0352C5.01833 15.0664 5.05219 15.1029 5.09906 15.1445L7.59125 17.5195C7.70583 17.6237 7.74489 17.7487 7.70844 17.8945C7.67719 18.0456 7.57562 18.1211 7.40375 18.1211H1.9975Z"
		fill="currentColor"
	/>
</svg>
