<svg
	color="rgb(var(--foreground, 0, 0, 0))"
	viewBox="0 0 17 24"
	fill="none"
	xmlns="http://www.w3.org/2000/svg"
>
	<path
		d="M12.3882 14.3516L14.6538 15.6484C14.6955 15.6693 14.7163 15.6927 14.7163 15.7188C14.7163 15.75 14.6955 15.776 14.6538 15.7969L8.7085 19.2031C8.57829 19.276 8.4637 19.3125 8.36475 19.3125C8.26058 19.3125 8.14339 19.276 8.01318 19.2031L2.06787 15.7969C2.03141 15.776 2.01318 15.75 2.01318 15.7188C2.01318 15.6927 2.03141 15.6693 2.06787 15.6484L4.521 14.25L3.2085 13.5078L1.25537 14.6406C0.942871 14.8281 0.718913 15.0026 0.583496 15.1641C0.448079 15.3203 0.380371 15.5052 0.380371 15.7188C0.380371 15.9375 0.448079 16.1276 0.583496 16.2891C0.718913 16.4453 0.942871 16.6172 1.25537 16.8047L7.37256 20.3516C7.56006 20.4609 7.73193 20.5417 7.88818 20.5938C8.04443 20.6458 8.20329 20.6719 8.36475 20.6719C8.521 20.6719 8.67725 20.6458 8.8335 20.5938C8.99495 20.5417 9.16943 20.4609 9.35693 20.3516L15.4663 16.8047C15.784 16.6172 16.0106 16.4453 16.146 16.2891C16.2814 16.1276 16.3491 15.9375 16.3491 15.7188C16.3491 15.5052 16.2814 15.3203 16.146 15.1641C16.0106 15.0026 15.784 14.8281 15.4663 14.6406L13.6069 13.5547L12.3882 14.3516ZM12.2163 10.6562L14.6538 12.0469C14.6955 12.0677 14.7163 12.0938 14.7163 12.125C14.7163 12.1563 14.6955 12.1823 14.6538 12.2031L8.7085 15.6016C8.57829 15.6745 8.4637 15.7109 8.36475 15.7109C8.26058 15.7109 8.14339 15.6745 8.01318 15.6016L2.06787 12.2031C2.03141 12.1823 2.01318 12.1563 2.01318 12.125C2.01318 12.0938 2.03141 12.0677 2.06787 12.0469L4.70068 10.5391L3.45068 9.77344L1.25537 11.0391C0.942871 11.2266 0.718913 11.401 0.583496 11.5625C0.448079 11.724 0.380371 11.9115 0.380371 12.125C0.380371 12.3385 0.448079 12.526 0.583496 12.6875C0.718913 12.849 0.942871 13.0208 1.25537 13.2031L7.37256 16.7578C7.56006 16.8672 7.73193 16.9479 7.88818 17C8.04443 17.0521 8.20329 17.0781 8.36475 17.0781C8.521 17.0781 8.67725 17.0521 8.8335 17C8.99495 16.9479 9.16943 16.8672 9.35693 16.7578L15.4663 13.2031C15.784 13.0208 16.0106 12.849 16.146 12.6875C16.2814 12.526 16.3491 12.3385 16.3491 12.125C16.3491 11.9115 16.2814 11.724 16.146 11.5625C16.0106 11.401 15.784 11.2266 15.4663 11.0391L13.4272 9.85156L12.2163 10.6562ZM8.36475 13.2266C8.521 13.2266 8.67725 13.2005 8.8335 13.1484C8.99495 13.0964 9.16943 13.0156 9.35693 12.9063L15.4663 9.35938C15.784 9.17188 16.0106 9 16.146 8.84375C16.2814 8.68229 16.3491 8.49219 16.3491 8.27344C16.3491 8.0599 16.2814 7.875 16.146 7.71875C16.0106 7.55729 15.784 7.38281 15.4663 7.19531L9.35693 3.64844C9.16943 3.53906 8.99495 3.45833 8.8335 3.40625C8.67725 3.35417 8.521 3.32812 8.36475 3.32812C8.20329 3.32812 8.04443 3.35417 7.88818 3.40625C7.73193 3.45833 7.56006 3.53906 7.37256 3.64844L1.25537 7.19531C0.942871 7.38281 0.718913 7.55729 0.583496 7.71875C0.448079 7.875 0.380371 8.0599 0.380371 8.27344C0.380371 8.49219 0.448079 8.68229 0.583496 8.84375C0.718913 9 0.942871 9.17188 1.25537 9.35938L7.37256 12.9063C7.56006 13.0156 7.73193 13.0964 7.88818 13.1484C8.04443 13.2005 8.20329 13.2266 8.36475 13.2266ZM8.36475 11.8672C8.26058 11.8672 8.14339 11.8307 8.01318 11.7578L2.06787 8.35156C2.03141 8.33073 2.01318 8.30469 2.01318 8.27344C2.01318 8.2474 2.03141 8.22396 2.06787 8.20312L8.01318 4.79688C8.14339 4.72396 8.26058 4.6875 8.36475 4.6875C8.4637 4.6875 8.57829 4.72396 8.7085 4.79688L14.6538 8.20312C14.6955 8.22396 14.7163 8.2474 14.7163 8.27344C14.7163 8.30469 14.6955 8.33073 14.6538 8.35156L8.7085 11.7578C8.57829 11.8307 8.4637 11.8672 8.36475 11.8672Z"
		fill="currentColor"
	/>
</svg>
