<svg
	color="rgb(var(--foreground, 0, 0, 0))"
	viewBox="0 0 18 24"
	fill="none"
	xmlns="http://www.w3.org/2000/svg"
>
	<path
		d="M2.80225 18.7305H15.3804C16.0835 18.7305 16.6278 18.5273 17.0132 18.1211C17.4038 17.7201 17.5991 17.1159 17.5991 16.3086V7.68359C17.5991 6.88151 17.3934 6.27995 16.9819 5.87891C16.5757 5.47266 15.9637 5.26953 15.146 5.26953H2.56787C1.86475 5.26953 1.31787 5.47266 0.927246 5.87891C0.541829 6.27995 0.349121 6.88151 0.349121 7.68359V16.3086C0.349121 17.1159 0.552246 17.7201 0.958496 18.1211C1.36995 18.5273 1.98454 18.7305 2.80225 18.7305ZM2.75537 17.5352C2.36475 17.5352 2.06527 17.4336 1.85693 17.2305C1.6486 17.0221 1.54443 16.7148 1.54443 16.3086V7.68359C1.54443 7.28255 1.6486 6.98047 1.85693 6.77734C2.06527 6.56901 2.36475 6.46484 2.75537 6.46484H15.1929C15.5783 6.46484 15.8752 6.56901 16.0835 6.77734C16.297 6.98047 16.4038 7.28516 16.4038 7.69141V16.3164C16.4038 16.7174 16.297 17.0221 16.0835 17.2305C15.8752 17.4336 15.5783 17.5352 15.1929 17.5352H2.75537ZM8.98975 14.082C9.26579 14.082 9.53662 14.0221 9.80225 13.9023C10.0679 13.7826 10.3387 13.5872 10.6147 13.3164L16.9585 7.08203L16.146 6.26172L9.93506 12.3945C9.76318 12.5612 9.59912 12.6836 9.44287 12.7617C9.29183 12.8398 9.14079 12.8789 8.98975 12.8789C8.8335 12.8789 8.67725 12.8398 8.521 12.7617C8.36995 12.6784 8.2111 12.556 8.04443 12.3945L1.80225 6.23047L0.981934 7.05078L7.36475 13.3164C7.63558 13.5872 7.90381 13.7826 8.16943 13.9023C8.44027 14.0221 8.7137 14.082 8.98975 14.082ZM16.0679 17.707L16.8804 16.8867L11.8257 11.8945L11.0132 12.707L16.0679 17.707ZM1.09131 16.8945L1.90381 17.7148L6.96631 12.707L6.146 11.8945L1.09131 16.8945Z"
		fill="currentColor"
	/>
</svg>
