<svg
	color="rgb(var(--foreground, 0, 0, 0))"
	viewBox="0 0 18 24"
	fill="none"
	xmlns="http://www.w3.org/2000/svg"
>
	<path
		d="M9.23975 12.9023C9.55225 12.9023 9.87256 12.7383 10.2007 12.4102L16.9976 5.68359C16.7059 5.40755 16.172 5.26953 15.396 5.26953H2.81787C2.15641 5.26953 1.69808 5.39714 1.44287 5.65234L8.27881 12.4102C8.60173 12.7383 8.92204 12.9023 9.23975 12.9023ZM0.794434 17.4727L6.31787 12.0117L0.778809 6.55078C0.659017 6.77474 0.599121 7.15234 0.599121 7.68359V16.3086C0.599121 16.8607 0.664225 17.2487 0.794434 17.4727ZM3.05225 18.7305H15.6304C16.2814 18.7305 16.7371 18.6055 16.9976 18.3555L11.3647 12.7773L10.8491 13.3008C10.3231 13.8008 9.78662 14.0508 9.23975 14.0508C8.68766 14.0508 8.1512 13.8008 7.63037 13.3008L7.10693 12.7773L1.48975 18.3477C1.78662 18.6029 2.30745 18.7305 3.05225 18.7305ZM17.6616 17.4648C17.7866 17.2357 17.8491 16.8503 17.8491 16.3086V7.68359C17.8491 7.15755 17.7918 6.78776 17.6772 6.57422L12.1538 12.0117L17.6616 17.4648Z"
		fill="currentColor"
	/>
</svg>
