<svg
	color="rgb(var(--foreground, 0, 0, 0))"
	viewBox="0 0 15 24"
	fill="none"
	xmlns="http://www.w3.org/2000/svg"
>
	<path
		d="M3.37552 13.375L4.21146 12.5078L1.43021 7.04688L2.68802 5.11719L5.9849 11.6172L7.26615 11.4062L3.44583 4.28906H11.6724L7.85208 11.4062L9.13333 11.6172L12.4302 5.11719L13.6958 7.04688L10.9068 12.5078L11.7427 13.375L14.8833 7.47656C14.9562 7.34635 14.9901 7.21094 14.9849 7.07031C14.9797 6.92969 14.938 6.79948 14.8599 6.67969L12.7427 3.4375C12.5917 3.21875 12.3703 3.10938 12.0786 3.10938H3.0474C2.75573 3.10938 2.53438 3.21875 2.38333 3.4375L0.258333 6.67969C0.180208 6.79948 0.138542 6.92969 0.133333 7.07031C0.128125 7.21094 0.161979 7.34635 0.234896 7.47656L3.37552 13.375ZM4.66458 7.875H10.4615V6.69531H4.66458V7.875ZM7.56302 20.8906C8.27135 20.8906 8.93281 20.7578 9.5474 20.4922C10.1672 20.2318 10.7115 19.8646 11.1802 19.3906C11.6542 18.9219 12.0214 18.3776 12.2818 17.7578C12.5474 17.138 12.6802 16.4766 12.6802 15.7734C12.6802 15.0651 12.5474 14.401 12.2818 13.7812C12.0214 13.1615 11.6542 12.6172 11.1802 12.1484C10.7115 11.6797 10.1672 11.3125 9.5474 11.0469C8.93281 10.7812 8.27135 10.6484 7.56302 10.6484C6.85469 10.6484 6.19062 10.7812 5.57083 11.0469C4.95104 11.3125 4.40677 11.6797 3.93802 12.1484C3.46927 12.6172 3.10208 13.1615 2.83646 13.7812C2.57083 14.401 2.43802 15.0651 2.43802 15.7734C2.43802 16.4766 2.57083 17.138 2.83646 17.7578C3.10208 18.3776 3.46927 18.9219 3.93802 19.3906C4.40677 19.8646 4.95104 20.2318 5.57083 20.4922C6.19062 20.7578 6.85469 20.8906 7.56302 20.8906ZM7.56302 19.7109C6.83385 19.7109 6.16979 19.5339 5.57083 19.1797C4.97708 18.8255 4.50312 18.349 4.14896 17.75C3.79479 17.1562 3.61771 16.4974 3.61771 15.7734C3.61771 15.0443 3.79479 14.3828 4.14896 13.7891C4.50312 13.1901 4.97708 12.7135 5.57083 12.3594C6.16979 12.0052 6.83385 11.8281 7.56302 11.8281C8.28698 11.8281 8.94583 12.0052 9.53958 12.3594C10.1385 12.7135 10.6151 13.1901 10.9693 13.7891C11.3234 14.3828 11.5005 15.0443 11.5005 15.7734C11.5005 16.4974 11.3234 17.1562 10.9693 17.75C10.6151 18.349 10.1385 18.8255 9.53958 19.1797C8.94583 19.5339 8.28698 19.7109 7.56302 19.7109ZM6.18802 18.2422L7.57083 17.2344L8.93802 18.2422C9.08385 18.3464 9.21406 18.3568 9.32865 18.2734C9.44323 18.1901 9.47448 18.0677 9.4224 17.9062L8.86771 16.2734L10.2661 15.2734C10.3964 15.1849 10.4432 15.0703 10.4068 14.9297C10.3755 14.7891 10.2687 14.7188 10.0865 14.7188L8.37552 14.7344L7.85208 13.0938C7.8 12.9323 7.70365 12.8516 7.56302 12.8516C7.4224 12.8516 7.32604 12.9323 7.27396 13.0938L6.75052 14.7344L5.03958 14.7188C4.8625 14.7188 4.75573 14.7891 4.71927 14.9297C4.68281 15.0703 4.73229 15.1875 4.86771 15.2812L6.26615 16.2734L5.71146 17.9062C5.65937 18.0677 5.68802 18.1901 5.7974 18.2734C5.91198 18.3568 6.04219 18.3464 6.18802 18.2422Z"
		fill="currentColor"
	/>
</svg>
