<svg
	color="rgb(var(--foreground, 0, 0, 0))"
	viewBox="0 0 16 24"
	fill="none"
	xmlns="http://www.w3.org/2000/svg"
>
	<path
		d="M8.4157 20.8125C9.1032 20.8125 9.74643 20.6849 10.3454 20.4297C10.9496 20.1745 11.4782 19.8177 11.9313 19.3594C12.3845 18.9062 12.7386 18.3776 12.9938 17.7734C13.2542 17.1745 13.3845 16.5339 13.3845 15.8516C13.3845 15.1641 13.2542 14.5208 12.9938 13.9219C12.7386 13.3177 12.3845 12.7891 11.9313 12.3359C11.4782 11.8776 10.9496 11.5208 10.3454 11.2656C9.74643 11.0104 9.1032 10.8828 8.4157 10.8828C7.73341 10.8828 7.09018 11.0104 6.48601 11.2656C5.88706 11.5208 5.35841 11.8776 4.90008 12.3359C4.44695 12.7891 4.09278 13.3177 3.83758 13.9219C3.58237 14.5208 3.45476 15.1641 3.45476 15.8516C3.45476 16.5339 3.58237 17.1745 3.83758 17.7734C4.09278 18.3776 4.44695 18.9062 4.90008 19.3594C5.35841 19.8177 5.88706 20.1745 6.48601 20.4297C7.09018 20.6849 7.73341 20.8125 8.4157 20.8125ZM7.00164 18.4062C6.8506 18.5156 6.71518 18.526 6.59539 18.4375C6.48081 18.3542 6.45216 18.2266 6.50945 18.0547L7.07195 16.375L5.63445 15.3516C5.54591 15.2839 5.49383 15.2057 5.4782 15.1172C5.46258 15.0234 5.48341 14.9427 5.5407 14.875C5.6032 14.8021 5.69695 14.7656 5.82195 14.7656L7.58758 14.7812L8.12664 13.0938C8.18393 12.9219 8.28289 12.8359 8.42351 12.8359C8.56414 12.8359 8.6631 12.9219 8.72039 13.0938L9.25945 14.7812L11.0251 14.7656C11.1501 14.7656 11.2412 14.8021 11.2985 14.875C11.3558 14.9427 11.3766 15.0234 11.361 15.1172C11.3506 15.2057 11.3011 15.2812 11.2126 15.3438L9.77508 16.375L10.3376 18.0547C10.3949 18.2266 10.3636 18.3542 10.2438 18.4375C10.1292 18.526 9.99643 18.5156 9.84539 18.4062L8.42351 17.3672L7.00164 18.4062ZM3.65789 12.1328C4.04331 11.6484 4.49383 11.2292 5.00945 10.875C5.52508 10.5156 6.08497 10.2474 6.68914 10.0703L3.15008 3.71094L1.09539 6.84375C1.02768 6.94271 0.991222 7.04688 0.986014 7.15625C0.980805 7.26562 1.00945 7.3724 1.07195 7.47656L3.65789 12.1328ZM6.6657 7.40625H10.1735L12.5563 3.1875H4.28289L6.6657 7.40625ZM10.1501 10.0703C10.7595 10.2474 11.3193 10.5156 11.8298 10.875C12.3454 11.2292 12.7959 11.6484 13.1813 12.1328L15.7751 7.47656C15.8324 7.3724 15.8584 7.26562 15.8532 7.15625C15.848 7.04688 15.8115 6.94271 15.7438 6.84375L13.6891 3.71094L10.1501 10.0703Z"
		fill="currentColor"
	/>
</svg>
