<svg
	color="rgb(var(--foreground, 0, 0, 0))"
	viewBox="0 0 19 24"
	fill="none"
	xmlns="http://www.w3.org/2000/svg"
>
	<path
		d="M3.96625 20.1445C4.20062 20.1445 4.50791 20.0872 4.88812 19.9727C5.26833 19.8581 5.67719 19.7044 6.11469 19.5117C6.55739 19.319 6.99229 19.1055 7.41937 18.8711C7.85166 18.6419 8.23448 18.4076 8.56781 18.168C8.63552 18.1211 8.69802 18.0872 8.75531 18.0664C8.8126 18.0456 8.86729 18.0352 8.91937 18.0352C8.97146 18.0404 9.02354 18.043 9.07562 18.043C9.12771 18.0482 9.17719 18.0508 9.22406 18.0508C10.3491 18.0508 11.3933 17.931 12.3569 17.6914C13.3204 17.4518 14.185 17.1133 14.9506 16.6758C15.7215 16.2383 16.3777 15.7253 16.9194 15.1367C17.461 14.543 17.8751 13.8919 18.1616 13.1836C18.448 12.4753 18.5912 11.7331 18.5912 10.957C18.5912 9.97266 18.3621 9.05078 17.9037 8.19141C17.4506 7.33203 16.8178 6.57943 16.0053 5.93359C15.198 5.28255 14.2579 4.77474 13.185 4.41016C12.1121 4.04036 10.961 3.85547 9.73187 3.85547C8.50271 3.85547 7.35166 4.04036 6.27875 4.41016C5.20583 4.77474 4.26312 5.28255 3.45062 5.93359C2.64333 6.57943 2.01052 7.33203 1.55219 8.19141C1.09906 9.05078 0.872498 9.97266 0.872498 10.957C0.872498 11.7904 1.03396 12.582 1.35687 13.332C1.685 14.082 2.15114 14.7695 2.75531 15.3945C3.36469 16.0143 4.08604 16.5482 4.91937 16.9961C4.97666 17.0273 5.01312 17.0716 5.02875 17.1289C5.04958 17.181 5.04437 17.2357 5.01312 17.293C4.86729 17.5326 4.69541 17.7799 4.4975 18.0352C4.29958 18.2904 4.10687 18.5247 3.91937 18.7383C3.73708 18.957 3.59646 19.1315 3.4975 19.2617C3.34646 19.4596 3.31 19.6549 3.38812 19.8477C3.47146 20.0456 3.66416 20.1445 3.96625 20.1445Z"
		fill="currentColor"
	/>
</svg>
