<svg
	color="rgb(var(--foreground, 0, 0, 0))"
	viewBox="0 0 18 24"
	fill="none"
	xmlns="http://www.w3.org/2000/svg"
>
	<path
		d="M3.54437 20.1836C3.89333 20.1836 4.34385 20.0794 4.89594 19.8711C5.44802 19.6628 6.02875 19.3919 6.63812 19.0586C7.2475 18.7253 7.81521 18.3685 8.34125 17.9883C9.42979 18.0195 10.4558 17.9258 11.4194 17.707C12.3829 17.4883 13.2579 17.168 14.0444 16.7461C14.836 16.319 15.5157 15.8086 16.0834 15.2148C16.6564 14.6211 17.0965 13.9622 17.4037 13.2383C17.7162 12.5091 17.8725 11.7357 17.8725 10.918C17.8725 9.93359 17.6433 9.01172 17.185 8.15234C16.7319 7.29297 16.0991 6.54036 15.2866 5.89453C14.4793 5.24349 13.5392 4.73568 12.4662 4.37109C11.3933 4.0013 10.2423 3.81641 9.01312 3.81641C7.78396 3.81641 6.63291 4.0013 5.56 4.37109C4.48708 4.73568 3.54437 5.24349 2.73187 5.89453C1.92458 6.54036 1.29177 7.29297 0.833435 8.15234C0.38031 9.01172 0.153748 9.93359 0.153748 10.918C0.153748 11.7721 0.323018 12.582 0.66156 13.3477C1.00531 14.1133 1.48448 14.8008 2.09906 15.4102C2.71885 16.0195 3.44021 16.5143 4.26312 16.8945C4.14333 17.1237 4.0001 17.3685 3.83344 17.6289C3.66677 17.8893 3.5001 18.1367 3.33344 18.3711C3.16677 18.6107 3.02354 18.806 2.90375 18.957C2.76833 19.1393 2.70323 19.3242 2.70844 19.5117C2.71364 19.7044 2.78656 19.8633 2.92719 19.9883C3.06781 20.1185 3.27354 20.1836 3.54437 20.1836ZM4.36469 18.8867C4.33344 18.8971 4.3126 18.8919 4.30219 18.8711C4.29177 18.8555 4.29698 18.8346 4.31781 18.8086C4.53656 18.5378 4.77875 18.2227 5.04437 17.8633C5.31 17.5091 5.51052 17.207 5.64594 16.957C5.75531 16.7539 5.78916 16.5664 5.7475 16.3945C5.70583 16.2227 5.56 16.0768 5.31 15.957C4.49229 15.5768 3.79437 15.1289 3.21625 14.6133C2.64333 14.0924 2.20583 13.5195 1.90375 12.8945C1.60166 12.2695 1.45062 11.6107 1.45062 10.918C1.45062 10.1159 1.64333 9.36589 2.02875 8.66797C2.41937 7.96484 2.95844 7.34766 3.64594 6.81641C4.33864 6.27995 5.14333 5.86068 6.06 5.55859C6.97666 5.25651 7.96104 5.10547 9.01312 5.10547C10.0652 5.10547 11.0496 5.25651 11.9662 5.55859C12.8829 5.86068 13.685 6.27995 14.3725 6.81641C15.0652 7.34766 15.6069 7.96484 15.9975 8.66797C16.3881 9.36589 16.5834 10.1159 16.5834 10.918C16.5834 11.7148 16.3881 12.4648 15.9975 13.168C15.6069 13.8711 15.0652 14.4883 14.3725 15.0195C13.685 15.5508 12.8829 15.9674 11.9662 16.2695C11.0496 16.5716 10.0652 16.7227 9.01312 16.7227C8.935 16.7227 8.83604 16.7227 8.71625 16.7227C8.59646 16.7174 8.45844 16.7122 8.30219 16.707C8.14073 16.707 7.98969 16.7357 7.84906 16.793C7.71364 16.8451 7.57302 16.9284 7.42719 17.043C7.10948 17.2721 6.75791 17.5091 6.3725 17.7539C5.98708 18.0039 5.61469 18.2305 5.25531 18.4336C4.89594 18.6367 4.59906 18.7878 4.36469 18.8867Z"
		fill="currentColor"
	/>
</svg>
