<svg
	color="rgb(var(--foreground, 0, 0, 0))"
	viewBox="0 0 21 24"
	fill="none"
	xmlns="http://www.w3.org/2000/svg"
>
	<path
		d="M12.9847 17.0798C13.4117 16.9028 13.6852 16.6371 13.805 16.283C13.93 15.9288 13.9404 15.5251 13.8362 15.072C13.7373 14.6189 13.5602 14.1475 13.305 13.658C13.0498 13.1684 12.7529 12.697 12.4144 12.2439C12.0758 11.7856 11.7347 11.3845 11.3909 11.0408C11.0315 10.6814 10.6253 10.3272 10.1722 9.97827C9.72425 9.62931 9.2607 9.32463 8.78154 9.06421C8.30758 8.80379 7.84664 8.6241 7.39873 8.52515C6.95602 8.42619 6.55498 8.44442 6.1956 8.57983C5.83623 8.71525 5.55498 9.00692 5.35185 9.45483L0.719038 19.7205C0.588829 20.0069 0.549767 20.2804 0.60185 20.5408C0.653934 20.8064 0.768517 21.0304 0.9456 21.2126C1.12268 21.4001 1.34143 21.5225 1.60185 21.5798C1.86227 21.6371 2.13831 21.6059 2.42998 21.4861L12.9847 17.0798ZM1.70341 20.1423L5.60185 11.4939C5.79977 11.9939 6.08623 12.5147 6.46123 13.0564C6.84143 13.5981 7.28675 14.1241 7.79716 14.6345C8.29716 15.1293 8.81279 15.5642 9.34404 15.9392C9.87529 16.3142 10.3831 16.6007 10.8675 16.7986L2.01591 20.4783C1.8857 20.5356 1.78414 20.5278 1.71123 20.4548C1.64352 20.3871 1.64091 20.283 1.70341 20.1423ZM6.45341 9.68921C6.62529 9.51213 6.91956 9.47827 7.33623 9.58765C7.7581 9.69702 8.25289 9.93921 8.8206 10.3142C9.39352 10.6892 9.99248 11.1892 10.6175 11.8142C11.2477 12.434 11.7477 13.0304 12.1175 13.6033C12.4925 14.1762 12.7321 14.6736 12.8362 15.0955C12.9456 15.5173 12.9144 15.8116 12.7425 15.9783C12.5654 16.1554 12.2659 16.1918 11.844 16.0876C11.4222 15.9783 10.9248 15.7387 10.3519 15.3689C9.78414 14.9939 9.18779 14.4913 8.56279 13.8611C7.93779 13.2413 7.43779 12.6449 7.06279 12.072C6.693 11.4991 6.45341 11.0017 6.34404 10.5798C6.23987 10.158 6.27633 9.86108 6.45341 9.68921ZM7.60185 4.10327C7.83623 4.10327 8.03675 4.01994 8.20341 3.85327C8.37529 3.6866 8.46123 3.48348 8.46123 3.2439C8.46123 3.00952 8.37529 2.809 8.20341 2.64233C8.03675 2.47567 7.83623 2.39233 7.60185 2.39233C7.35706 2.39233 7.15133 2.47567 6.98466 2.64233C6.8232 2.809 6.74248 3.00952 6.74248 3.2439C6.74248 3.48348 6.8232 3.6866 6.98466 3.85327C7.15133 4.01994 7.35706 4.10327 7.60185 4.10327ZM8.6331 5.56421C8.60706 5.42358 8.54716 5.30119 8.45341 5.19702C8.35966 5.08765 8.23727 5.03296 8.08623 5.03296C7.94039 5.03817 7.80758 5.09546 7.68779 5.20483C7.5732 5.309 7.53154 5.43921 7.56279 5.59546C7.73987 6.51213 7.82841 7.43921 7.82841 8.37671C7.82841 9.31421 7.73987 10.2517 7.56279 11.1892C7.52633 11.3403 7.568 11.4679 7.68779 11.572C7.80758 11.6762 7.93779 11.7309 8.07841 11.7361C8.22425 11.7361 8.34404 11.684 8.43779 11.5798C8.53675 11.4757 8.59925 11.3533 8.62529 11.2126C8.80758 10.2595 8.89873 9.31681 8.89873 8.38452C8.89873 7.44702 8.81018 6.50692 8.6331 5.56421ZM12.43 5.45483C12.706 5.45483 12.9534 5.38973 13.1722 5.25952C13.3961 5.1241 13.5732 4.94702 13.7034 4.72827C13.8336 4.50431 13.8987 4.25692 13.8987 3.98608C13.8987 3.57463 13.7555 3.22827 13.469 2.94702C13.1878 2.66056 12.8414 2.51733 12.43 2.51733C12.0237 2.51733 11.6774 2.66056 11.3909 2.94702C11.1045 3.22827 10.9612 3.57463 10.9612 3.98608C10.9612 4.25692 11.0263 4.50431 11.1565 4.72827C11.292 4.94702 11.469 5.1241 11.6878 5.25952C11.9117 5.38973 12.1591 5.45483 12.43 5.45483ZM10.9456 7.91577C11.1383 7.91577 11.2998 7.84806 11.43 7.71265C11.5654 7.57723 11.6331 7.41317 11.6331 7.22046C11.6331 7.03296 11.5654 6.8715 11.43 6.73608C11.2998 6.60067 11.1383 6.53296 10.9456 6.53296C10.7581 6.53296 10.594 6.60067 10.4534 6.73608C10.318 6.8715 10.2503 7.03296 10.2503 7.22046C10.2503 7.41317 10.318 7.57723 10.4534 7.71265C10.594 7.84806 10.7581 7.91577 10.9456 7.91577ZM18.805 4.54858C18.9925 4.54858 19.1513 4.48348 19.2815 4.35327C19.417 4.21785 19.4847 4.05379 19.4847 3.86108C19.4847 3.66838 19.417 3.50431 19.2815 3.3689C19.1513 3.23348 18.9925 3.16577 18.805 3.16577C18.6123 3.16577 18.4482 3.23348 18.3128 3.3689C18.1826 3.50431 18.1175 3.66838 18.1175 3.86108C18.1175 4.05379 18.1826 4.21785 18.3128 4.35327C18.4482 4.48348 18.6123 4.54858 18.805 4.54858ZM16.5472 5.0564L15.0862 6.51733C14.9873 6.6215 14.9378 6.7491 14.9378 6.90015C14.9378 7.05119 14.9873 7.17879 15.0862 7.28296C15.1956 7.38713 15.3258 7.43921 15.4769 7.43921C15.6279 7.43921 15.7555 7.38713 15.8597 7.28296L17.3206 5.82983C17.4248 5.72046 17.4769 5.59025 17.4769 5.43921C17.4769 5.28817 17.4248 5.16056 17.3206 5.0564C17.2164 4.95223 17.0888 4.90015 16.9378 4.90015C16.7867 4.90015 16.6565 4.95223 16.5472 5.0564ZM13.6487 7.96265L9.66435 11.9392C9.56018 12.0434 9.5081 12.1736 9.5081 12.3298C9.5081 12.4809 9.56018 12.6085 9.66435 12.7126C9.77373 12.8168 9.90133 12.8689 10.0472 12.8689C10.1982 12.8689 10.3284 12.8168 10.4378 12.7126L14.4144 8.72827C14.5133 8.6241 14.5602 8.4991 14.555 8.35327C14.555 8.20223 14.5081 8.07202 14.4144 7.96265C14.305 7.8689 14.1748 7.82202 14.0237 7.82202C13.8779 7.82202 13.7529 7.8689 13.6487 7.96265ZM19.5159 11.5564C19.7555 11.5564 19.9586 11.4731 20.1253 11.3064C20.292 11.1397 20.3753 10.934 20.3753 10.6892C20.3753 10.4548 20.292 10.2543 20.1253 10.0876C19.9586 9.92098 19.7555 9.83765 19.5159 9.83765C19.2711 9.83765 19.0654 9.92098 18.8987 10.0876C18.7373 10.2543 18.6565 10.4548 18.6565 10.6892C18.6565 10.934 18.7373 11.1397 18.8987 11.3064C19.0654 11.4731 19.2711 11.5564 19.5159 11.5564ZM16.1565 11.8767C16.5055 11.8767 16.7998 11.7595 17.0394 11.5251C17.2841 11.2856 17.4065 10.9913 17.4065 10.6423C17.4065 10.2986 17.2841 10.0069 17.0394 9.76733C16.7998 9.52254 16.5055 9.40015 16.1565 9.40015C15.8128 9.40015 15.5211 9.52254 15.2815 9.76733C15.0472 10.0069 14.93 10.2986 14.93 10.6423C14.93 10.9913 15.0472 11.2856 15.2815 11.5251C15.5211 11.7595 15.8128 11.8767 16.1565 11.8767ZM19.219 15.5564C19.4586 15.5564 19.6617 15.4731 19.8284 15.3064C19.9951 15.1397 20.0784 14.9366 20.0784 14.697C20.0784 14.4626 19.9951 14.2621 19.8284 14.0955C19.6617 13.9236 19.4586 13.8376 19.219 13.8376C18.9795 13.8376 18.7763 13.9236 18.6097 14.0955C18.443 14.2621 18.3597 14.4626 18.3597 14.697C18.3597 14.9366 18.443 15.1397 18.6097 15.3064C18.7763 15.4731 18.9795 15.5564 19.219 15.5564ZM16.8362 13.7439C15.8935 13.5668 14.9534 13.4783 14.0159 13.4783C13.0836 13.4783 12.1383 13.5668 11.18 13.7439C11.0394 13.7751 10.917 13.8376 10.8128 13.9314C10.7086 14.0251 10.6591 14.1449 10.6644 14.2908C10.6644 14.4366 10.7164 14.5694 10.8206 14.6892C10.9248 14.809 11.055 14.8533 11.2112 14.822C12.1435 14.6449 13.0784 14.5564 14.0159 14.5564C14.9534 14.5512 15.8831 14.6371 16.805 14.8142C16.956 14.8455 17.0862 14.8038 17.1956 14.6892C17.305 14.5694 17.3597 14.4366 17.3597 14.2908C17.3597 14.1397 17.3076 14.0173 17.2034 13.9236C17.0992 13.8298 16.9769 13.7699 16.8362 13.7439Z"
		fill="currentColor"
	/>
</svg>
