<svg
	color="rgb(var(--foreground, 0, 0, 0))"
	viewBox="0 0 21 24"
	fill="none"
	xmlns="http://www.w3.org/2000/svg"
>
	<path
		d="M12.8429 17.0486C13.2544 16.8767 13.5174 16.6189 13.632 16.2751C13.7518 15.9262 13.7596 15.5278 13.6554 15.0798C13.5565 14.6319 13.3794 14.1658 13.1242 13.6814C12.8742 13.197 12.5773 12.7257 12.2336 12.2673C11.8898 11.809 11.5409 11.4001 11.1867 11.0408C10.8273 10.6814 10.4211 10.3324 9.96794 9.9939C9.51481 9.65015 9.04606 9.35067 8.56169 9.09546C8.08252 8.84025 7.61898 8.66056 7.17106 8.5564C6.72836 8.45223 6.33252 8.46004 5.98356 8.57983C5.63461 8.69442 5.36898 8.95483 5.18669 9.36108L0.514814 19.7205C0.384606 20.0069 0.345543 20.2804 0.397627 20.5408C0.44971 20.8064 0.564293 21.0304 0.741377 21.2126C0.91846 21.4001 1.13721 21.5225 1.39763 21.5798C1.65804 21.6371 1.93408 21.6059 2.22575 21.4861L12.8429 17.0486ZM8.35856 13.8611C7.73356 13.2413 7.23356 12.6449 6.85856 12.072C6.48877 11.4991 6.24919 11.0017 6.13981 10.5798C6.03565 10.158 6.07211 9.86108 6.24919 9.68921C6.42106 9.51213 6.71533 9.47827 7.132 9.58765C7.55388 9.69702 8.04867 9.93921 8.61638 10.3142C9.18929 10.6892 9.78825 11.1892 10.4133 11.8142C11.0435 12.434 11.5435 13.0304 11.9133 13.6033C12.2883 14.1762 12.5278 14.6736 12.632 15.0955C12.7414 15.5173 12.7101 15.8116 12.5383 15.9783C12.3612 16.1554 12.0617 16.1918 11.6398 16.0876C11.2179 15.9783 10.7205 15.7387 10.1476 15.3689C9.57992 14.9939 8.98356 14.4913 8.35856 13.8611ZM7.39763 4.10327C7.632 4.10327 7.83252 4.01994 7.99919 3.85327C8.17106 3.6866 8.257 3.48348 8.257 3.2439C8.257 3.00952 8.17106 2.809 7.99919 2.64233C7.83252 2.47567 7.632 2.39233 7.39763 2.39233C7.15283 2.39233 6.94711 2.47567 6.78044 2.64233C6.61898 2.809 6.53825 3.00952 6.53825 3.2439C6.53825 3.48348 6.61898 3.6866 6.78044 3.85327C6.94711 4.01994 7.15283 4.10327 7.39763 4.10327ZM8.42888 5.56421C8.40284 5.42358 8.34294 5.30119 8.24919 5.19702C8.15544 5.08765 8.03304 5.03296 7.882 5.03296C7.73617 5.03817 7.60336 5.09546 7.48356 5.20483C7.36898 5.309 7.32731 5.43921 7.35856 5.59546C7.53565 6.51213 7.62419 7.43921 7.62419 8.37671C7.62419 9.31421 7.53565 10.2517 7.35856 11.1892C7.32211 11.3403 7.36377 11.4679 7.48356 11.572C7.60336 11.6762 7.73356 11.7309 7.87419 11.7361C8.02002 11.7361 8.13981 11.684 8.23356 11.5798C8.33252 11.4757 8.39502 11.3533 8.42106 11.2126C8.60336 10.2595 8.6945 9.31681 8.6945 8.38452C8.6945 7.44702 8.60596 6.50692 8.42888 5.56421ZM12.2258 5.45483C12.5018 5.45483 12.7492 5.38973 12.9679 5.25952C13.1919 5.1241 13.369 4.94702 13.4992 4.72827C13.6294 4.50431 13.6945 4.25692 13.6945 3.98608C13.6945 3.57463 13.5513 3.22827 13.2648 2.94702C12.9836 2.66056 12.6372 2.51733 12.2258 2.51733C11.8195 2.51733 11.4731 2.66056 11.1867 2.94702C10.9002 3.22827 10.757 3.57463 10.757 3.98608C10.757 4.25692 10.8221 4.50431 10.9523 4.72827C11.0877 4.94702 11.2648 5.1241 11.4836 5.25952C11.7075 5.38973 11.9549 5.45483 12.2258 5.45483ZM10.7414 7.91577C10.9341 7.91577 11.0955 7.84806 11.2258 7.71265C11.3612 7.57723 11.4289 7.41317 11.4289 7.22046C11.4289 7.03296 11.3612 6.8715 11.2258 6.73608C11.0955 6.60067 10.9341 6.53296 10.7414 6.53296C10.5539 6.53296 10.3898 6.60067 10.2492 6.73608C10.1138 6.8715 10.0461 7.03296 10.0461 7.22046C10.0461 7.41317 10.1138 7.57723 10.2492 7.71265C10.3898 7.84806 10.5539 7.91577 10.7414 7.91577ZM18.6008 4.54858C18.7883 4.54858 18.9471 4.48348 19.0773 4.35327C19.2127 4.21785 19.2804 4.05379 19.2804 3.86108C19.2804 3.66838 19.2127 3.50431 19.0773 3.3689C18.9471 3.23348 18.7883 3.16577 18.6008 3.16577C18.408 3.16577 18.244 3.23348 18.1086 3.3689C17.9784 3.50431 17.9133 3.66838 17.9133 3.86108C17.9133 4.05379 17.9784 4.21785 18.1086 4.35327C18.244 4.48348 18.408 4.54858 18.6008 4.54858ZM16.3429 5.0564L14.882 6.51733C14.7778 6.6215 14.7258 6.7491 14.7258 6.90015C14.731 7.05119 14.783 7.17879 14.882 7.28296C14.9914 7.38713 15.1216 7.44181 15.2726 7.44702C15.4237 7.44702 15.5513 7.39233 15.6554 7.28296L17.1164 5.82983C17.2205 5.72046 17.2726 5.59025 17.2726 5.43921C17.2726 5.28817 17.2205 5.16056 17.1164 5.0564C17.0122 4.95223 16.8846 4.90015 16.7336 4.90015C16.5825 4.90015 16.4523 4.95223 16.3429 5.0564ZM13.4445 7.96265L9.46013 11.9392C9.35596 12.0434 9.30388 12.1736 9.30388 12.3298C9.30388 12.4809 9.35596 12.6085 9.46013 12.7126C9.5695 12.8168 9.69971 12.8689 9.85075 12.8689C10.0018 12.8689 10.1294 12.8168 10.2336 12.7126L14.2101 8.72827C14.3091 8.6241 14.356 8.4991 14.3508 8.35327C14.3508 8.20223 14.3039 8.07202 14.2101 7.96265C14.1008 7.8689 13.9705 7.82202 13.8195 7.82202C13.6737 7.82202 13.5487 7.8689 13.4445 7.96265ZM19.3117 11.5564C19.5513 11.5564 19.7544 11.4731 19.9211 11.3064C20.0877 11.1397 20.1711 10.934 20.1711 10.6892C20.1711 10.4548 20.0877 10.2543 19.9211 10.0876C19.7544 9.92098 19.5513 9.83765 19.3117 9.83765C19.0669 9.83765 18.8612 9.92098 18.6945 10.0876C18.533 10.2543 18.4523 10.4548 18.4523 10.6892C18.4523 10.934 18.533 11.1397 18.6945 11.3064C18.8612 11.4731 19.0669 11.5564 19.3117 11.5564ZM15.9523 11.8767C16.3013 11.8767 16.5955 11.7595 16.8351 11.5251C17.0799 11.2856 17.2023 10.9913 17.2023 10.6423C17.2023 10.2986 17.0799 10.0069 16.8351 9.76733C16.5955 9.52254 16.3013 9.40015 15.9523 9.40015C15.6086 9.40015 15.3169 9.52254 15.0773 9.76733C14.8429 10.0069 14.7258 10.2986 14.7258 10.6423C14.7258 10.9913 14.8429 11.2856 15.0773 11.5251C15.3169 11.7595 15.6086 11.8767 15.9523 11.8767ZM19.0148 15.5564C19.2544 15.5564 19.4575 15.4731 19.6242 15.3064C19.7909 15.1397 19.8742 14.9366 19.8742 14.697C19.8742 14.4626 19.7909 14.2621 19.6242 14.0955C19.4575 13.9236 19.2544 13.8376 19.0148 13.8376C18.7752 13.8376 18.5721 13.9236 18.4054 14.0955C18.2388 14.2621 18.1554 14.4626 18.1554 14.697C18.1554 14.9366 18.2388 15.1397 18.4054 15.3064C18.5721 15.4731 18.7752 15.5564 19.0148 15.5564ZM16.632 13.7439C15.6893 13.5668 14.7492 13.4783 13.8117 13.4783C12.8794 13.4783 11.9341 13.5668 10.9758 13.7439C10.8351 13.7751 10.7127 13.8376 10.6086 13.9314C10.5044 14.0251 10.4549 14.1449 10.4601 14.2908C10.4601 14.4366 10.5122 14.5694 10.6164 14.6892C10.7205 14.809 10.8508 14.8533 11.007 14.822C11.9393 14.6449 12.8742 14.5564 13.8117 14.5564C14.7492 14.5512 15.6789 14.6371 16.6008 14.8142C16.7518 14.8455 16.882 14.8038 16.9914 14.6892C17.1008 14.5694 17.1554 14.4366 17.1554 14.2908C17.1554 14.1397 17.1034 14.0173 16.9992 13.9236C16.895 13.8298 16.7726 13.7699 16.632 13.7439Z"
		fill="currentColor"
	/>
</svg>
