<svg
	color="rgb(var(--foreground, 0, 0, 0))"
	viewBox="0 0 20 24"
	fill="none"
	xmlns="http://www.w3.org/2000/svg"
>
	<path
		d="M9.45844 13.6953C9.0001 13.6953 8.60948 13.5313 8.28656 13.2031C7.96364 12.875 7.80219 12.4818 7.80219 12.0234C7.80219 11.5755 7.96364 11.1875 8.28656 10.8594C8.60948 10.5312 9.0001 10.3672 9.45844 10.3672C9.76052 10.3672 10.0366 10.4427 10.2866 10.5938C10.5366 10.7448 10.7345 10.9479 10.8803 11.2031C11.0314 11.4531 11.1069 11.7266 11.1069 12.0234C11.1069 12.4818 10.9454 12.875 10.6225 13.2031C10.2996 13.5313 9.91156 13.6953 9.45844 13.6953ZM6.35687 18.6563C5.96625 18.6563 5.66677 18.5521 5.45844 18.3438C5.2501 18.1406 5.14594 17.8359 5.14594 17.4297V16.7188L6.91156 15.1641C7.0626 15.0391 7.21104 14.9453 7.35687 14.8828C7.50791 14.8151 7.65896 14.7813 7.81 14.7813C7.97666 14.7813 8.13812 14.8125 8.29437 14.875C8.45583 14.9375 8.61208 15.0391 8.76312 15.1797L10.0209 16.3125L13.1772 13.5156C13.3386 13.3698 13.5053 13.2656 13.6772 13.2031C13.8491 13.1354 14.034 13.1016 14.2319 13.1016C14.4194 13.1016 14.6043 13.138 14.7866 13.2109C14.9688 13.2786 15.1355 13.3828 15.2866 13.5234L18.2084 16.2813V17.4297C18.2084 17.8359 18.1017 18.1406 17.8881 18.3438C17.6746 18.5521 17.3751 18.6563 16.9897 18.6563H6.35687ZM6.34125 19.9141H17.0131C17.8256 19.9141 18.4376 19.7109 18.8491 19.3047C19.2605 18.9036 19.4662 18.2995 19.4662 17.4922V10.125C19.4662 9.32292 19.2605 8.71875 18.8491 8.3125C18.4376 7.90625 17.8256 7.70312 17.0131 7.70312H6.34125C5.52354 7.70312 4.90896 7.90625 4.4975 8.3125C4.09125 8.71354 3.88812 9.31771 3.88812 10.125V17.4922C3.88812 18.2995 4.09125 18.9036 4.4975 19.3047C4.90896 19.7109 5.52354 19.9141 6.34125 19.9141ZM6.34125 6.64062H15.5209V6.50781C15.5209 5.70573 15.3152 5.10156 14.9037 4.69531C14.4923 4.28906 13.8803 4.08594 13.0678 4.08594H2.48187C1.66416 4.08594 1.04958 4.28906 0.638123 4.69531C0.231873 5.09635 0.0287476 5.70052 0.0287476 6.50781V13.875C0.0287476 14.6823 0.231873 15.2891 0.638123 15.6953C1.04958 16.0964 1.66416 16.2969 2.48187 16.2969H2.81781V10.125C2.81781 9.39062 2.95583 8.76302 3.23187 8.24219C3.51312 7.72135 3.91416 7.32552 4.435 7.05469C4.96104 6.77865 5.59646 6.64062 6.34125 6.64062Z"
		fill="currentColor"
	/>
</svg>
