<svg
	color="rgb(var(--foreground, 0, 0, 0))"
	viewBox="0 0 21 24"
	fill="none"
	xmlns="http://www.w3.org/2000/svg"
>
	<path
		d="M7.28665 19.7817H17.7476C18.4247 19.7817 18.9403 19.6098 19.2945 19.266C19.6486 18.9223 19.8257 18.4093 19.8257 17.727V17.227L16.2085 13.8051C16.0575 13.6645 15.8908 13.5603 15.7085 13.4926C15.5262 13.4197 15.3387 13.3832 15.146 13.3832C14.9533 13.3832 14.771 13.4171 14.5991 13.4848C14.4273 13.5473 14.258 13.6515 14.0913 13.7973L10.9351 16.5942L9.68508 15.4614C9.53404 15.3207 9.37779 15.2192 9.21633 15.1567C9.06008 15.0942 8.89863 15.0629 8.73196 15.0629C8.58092 15.0629 8.42988 15.0968 8.27883 15.1645C8.133 15.227 7.98456 15.3207 7.83352 15.4457L5.20071 17.7348C5.20071 18.4119 5.37779 18.9223 5.73196 19.266C6.08613 19.6098 6.60435 19.7817 7.28665 19.7817ZM10.3726 13.977C10.8309 13.977 11.2215 13.8129 11.5445 13.4848C11.8674 13.1567 12.0288 12.7634 12.0288 12.3051C12.0288 12.0082 11.9533 11.7348 11.8023 11.4848C11.6564 11.2296 11.4585 11.0265 11.2085 10.8754C10.9585 10.7244 10.6799 10.6489 10.3726 10.6489C9.91946 10.6489 9.53144 10.8129 9.20852 11.141C8.8856 11.4692 8.72415 11.8572 8.72415 12.3051C8.72415 12.7634 8.8856 13.1567 9.20852 13.4848C9.53144 13.8129 9.91946 13.977 10.3726 13.977ZM1.81008 15.7739C1.95592 16.5655 2.26321 17.1254 2.73196 17.4535C3.20071 17.7765 3.83873 17.8676 4.64602 17.727L5.61477 17.5629V16.2895L4.45071 16.4848C4.06529 16.5525 3.75019 16.503 3.5054 16.3364C3.26581 16.1697 3.10956 15.8884 3.03665 15.4926L1.77883 8.3676C1.70592 7.96656 1.7554 7.64625 1.92727 7.40667C2.09915 7.16187 2.37779 7.00562 2.76321 6.93792L13.146 5.10979C13.5262 5.04729 13.8387 5.09937 14.0835 5.26604C14.3283 5.4275 14.4872 5.70875 14.5601 6.10979L14.9663 8.38323H16.2398L15.7788 5.82854C15.6382 5.03687 15.3309 4.47698 14.857 4.14885C14.3882 3.82073 13.7528 3.72698 12.9507 3.8676L2.52102 5.70354C1.71894 5.84937 1.15123 6.15667 0.817896 6.62542C0.484563 7.09417 0.388208 7.72437 0.528833 8.51604L1.81008 15.7739ZM7.26321 20.1957H17.9351C18.7476 20.1957 19.357 19.9926 19.7632 19.5864C20.1747 19.1853 20.3804 18.5811 20.3804 17.7739V10.4067C20.3804 9.60458 20.1747 9.00041 19.7632 8.59416C19.357 8.18791 18.7476 7.98479 17.9351 7.98479H7.26321C6.44029 7.98479 5.82571 8.18791 5.41946 8.59416C5.01321 8.99521 4.81008 9.59937 4.81008 10.4067V17.7739C4.81008 18.5811 5.01321 19.1853 5.41946 19.5864C5.82571 19.9926 6.44029 20.1957 7.26321 20.1957ZM7.27883 18.9379C6.88821 18.9379 6.58873 18.8338 6.3804 18.6254C6.17206 18.4223 6.0679 18.1176 6.0679 17.7114V10.477C6.0679 10.0707 6.17206 9.76344 6.3804 9.5551C6.58873 9.34677 6.88821 9.2426 7.27883 9.2426H17.9116C18.2971 9.2426 18.5939 9.34677 18.8023 9.5551C19.0158 9.76344 19.1226 10.0707 19.1226 10.477V17.7114C19.1226 18.1176 19.0158 18.4223 18.8023 18.6254C18.5939 18.8338 18.2971 18.9379 17.9116 18.9379H7.27883Z"
		fill="currentColor"
	/>
</svg>
