<svg
	color="rgb(var(--foreground, 0, 0, 0))"
	viewBox="0 0 21 24"
	fill="none"
	xmlns="http://www.w3.org/2000/svg"
>
	<path
		d="M6.92719 19.5H17.3881C18.0704 19.5 18.5886 19.3281 18.9428 18.9844C19.297 18.6406 19.4741 18.1276 19.4741 17.4453V16.9453L15.8491 13.5234C15.698 13.3828 15.5314 13.2786 15.3491 13.2109C15.1668 13.138 14.9819 13.1016 14.7944 13.1016C14.5965 13.1016 14.4116 13.1354 14.2397 13.2031C14.0678 13.2656 13.9011 13.3698 13.7397 13.5156L10.5834 16.3125L9.32562 15.1797C9.17458 15.0391 9.01833 14.9375 8.85687 14.875C8.70062 14.8125 8.53916 14.7813 8.3725 14.7813C8.22146 14.7813 8.07041 14.8151 7.91937 14.8828C7.77354 14.9453 7.6251 15.0391 7.47406 15.1641L4.84125 17.4531C4.84125 18.1302 5.01833 18.6406 5.3725 18.9844C5.72666 19.3281 6.24489 19.5 6.92719 19.5ZM10.0209 13.6953C10.4741 13.6953 10.8621 13.5313 11.185 13.2031C11.5079 12.875 11.6694 12.4818 11.6694 12.0234C11.6694 11.7266 11.5939 11.4531 11.4428 11.2031C11.297 10.9479 11.0991 10.7448 10.8491 10.5938C10.5991 10.4427 10.323 10.3672 10.0209 10.3672C9.5626 10.3672 9.17198 10.5312 8.84906 10.8594C8.52614 11.1875 8.36469 11.5755 8.36469 12.0234C8.36469 12.4818 8.52614 12.875 8.84906 13.2031C9.17198 13.5313 9.5626 13.6953 10.0209 13.6953ZM3.04437 16.2969H4.98187V15.0391H3.06C2.66937 15.0391 2.36989 14.9375 2.16156 14.7344C1.95323 14.526 1.84906 14.2188 1.84906 13.8125V6.57812C1.84906 6.17188 1.95323 5.86458 2.16156 5.65625C2.36989 5.44792 2.66937 5.34375 3.06 5.34375H13.6069C13.9923 5.34375 14.2918 5.44792 14.5053 5.65625C14.7189 5.86458 14.8256 6.17188 14.8256 6.57812V8.21094H16.0834V6.50781C16.0834 5.70573 15.8777 5.10156 15.4662 4.69531C15.0548 4.28906 14.4428 4.08594 13.6303 4.08594H3.04437C2.22666 4.08594 1.61208 4.28906 1.20062 4.69531C0.794373 5.09635 0.591248 5.70052 0.591248 6.50781V13.875C0.591248 14.6823 0.794373 15.2891 1.20062 15.6953C1.61208 16.0964 2.22666 16.2969 3.04437 16.2969ZM6.90375 19.9141H17.5756C18.3881 19.9141 19.0001 19.7109 19.4116 19.3047C19.823 18.9036 20.0287 18.2995 20.0287 17.4922V10.125C20.0287 9.32292 19.823 8.71875 19.4116 8.3125C19.0001 7.90625 18.3881 7.70312 17.5756 7.70312H6.90375C6.08604 7.70312 5.47146 7.90625 5.06 8.3125C4.65375 8.71354 4.45062 9.31771 4.45062 10.125V17.4922C4.45062 18.2995 4.65375 18.9036 5.06 19.3047C5.47146 19.7109 6.08604 19.9141 6.90375 19.9141ZM6.91937 18.6563C6.52875 18.6563 6.22927 18.5521 6.02094 18.3438C5.8126 18.1406 5.70844 17.8359 5.70844 17.4297V10.1953C5.70844 9.78906 5.8126 9.48177 6.02094 9.27344C6.22927 9.0651 6.52875 8.96094 6.91937 8.96094H17.5522C17.9376 8.96094 18.2371 9.0651 18.4506 9.27344C18.6642 9.48177 18.7709 9.78906 18.7709 10.1953V17.4297C18.7709 17.8359 18.6642 18.1406 18.4506 18.3438C18.2371 18.5521 17.9376 18.6563 17.5522 18.6563H6.91937Z"
		fill="currentColor"
	/>
</svg>
