<svg
	color="rgb(var(--foreground, 0, 0, 0))"
	viewBox="0 0 19 24"
	fill="none"
	xmlns="http://www.w3.org/2000/svg"
>
	<path
		d="M6.05469 5.75391H3.46094V12.4258C3.46094 12.7122 3.53646 12.9154 3.6875 13.0352C3.83854 13.1549 4.00781 13.2148 4.19531 13.2148H5.32812C5.51562 13.2148 5.68229 13.1549 5.82812 13.0352C5.97917 12.9154 6.05469 12.7122 6.05469 12.4258V5.75391ZM10.5078 5.75391H7.91406V12.4258C7.91406 12.7122 7.98958 12.9154 8.14062 13.0352C8.29167 13.1549 8.45833 13.2148 8.64062 13.2148H9.78125C9.96875 13.2148 10.1354 13.1549 10.2812 13.0352C10.4323 12.9154 10.5078 12.7122 10.5078 12.4258V5.75391ZM14.9609 5.75391H12.3672V12.4258C12.3672 12.7122 12.4401 12.9154 12.5859 13.0352C12.737 13.1549 12.9062 13.2148 13.0938 13.2148H14.2344C14.4219 13.2148 14.5885 13.1549 14.7344 13.0352C14.8854 12.9154 14.9609 12.7122 14.9609 12.4258V5.75391ZM4.39844 11.8164V18.3086H5.125V11.8164H4.39844ZM8.85156 11.8164V18.3086H9.57812V11.8164H8.85156ZM13.3047 11.8164V18.3086H14.0312V11.8164H13.3047ZM2.45312 19.1914H15.9688C16.7917 19.1914 17.4062 18.9883 17.8125 18.582C18.2188 18.181 18.4219 17.5794 18.4219 16.7773V7.23047C18.4219 6.42839 18.2188 5.82422 17.8125 5.41797C17.4062 5.01172 16.7917 4.80859 15.9688 4.80859H2.45312C1.63542 4.80859 1.02083 5.01172 0.609375 5.41797C0.203125 5.81901 0 6.42318 0 7.23047V16.7773C0 17.5794 0.203125 18.181 0.609375 18.582C1.02083 18.9883 1.63542 19.1914 2.45312 19.1914ZM2.46875 17.9336C2.07812 17.9336 1.77865 17.832 1.57031 17.6289C1.36198 17.4206 1.25781 17.1133 1.25781 16.707V7.30078C1.25781 6.89453 1.36198 6.58724 1.57031 6.37891C1.77865 6.17057 2.07812 6.06641 2.46875 6.06641H15.9531C16.3385 6.06641 16.6354 6.17057 16.8438 6.37891C17.0573 6.58724 17.1641 6.89453 17.1641 7.30078V16.707C17.1641 17.1133 17.0573 17.4206 16.8438 17.6289C16.6354 17.832 16.3385 17.9336 15.9531 17.9336H2.46875Z"
		fill="currentColor"
	/>
</svg>
