<svg
	color="rgb(var(--foreground, 0, 0, 0))"
	viewBox="0 0 17 24"
	fill="none"
	xmlns="http://www.w3.org/2000/svg"
>
	<path
		d="M10.1484 20.1836C10.4297 20.1836 10.6719 20.0716 10.875 19.8477C11.0781 19.6237 11.2526 19.3242 11.3984 18.9492L16.5156 5.58203C16.5833 5.39974 16.6354 5.23047 16.6719 5.07422C16.7135 4.91797 16.7344 4.77214 16.7344 4.63672C16.7344 4.38151 16.6615 4.18099 16.5156 4.03516C16.3698 3.88932 16.1693 3.81641 15.9141 3.81641C15.7839 3.81641 15.638 3.83724 15.4766 3.87891C15.3203 3.91536 15.151 3.96745 14.9688 4.03516L1.53125 9.18359C1.20312 9.30859 0.927083 9.47266 0.703125 9.67578C0.479167 9.87891 0.367188 10.1211 0.367188 10.4023C0.367188 10.7617 0.489583 11.0221 0.734375 11.1836C0.979167 11.3398 1.28906 11.4753 1.66406 11.5898L5.88281 12.8711C6.13281 12.9492 6.33854 12.9805 6.5 12.9648C6.66146 12.944 6.82812 12.8555 7 12.6992L15.5703 4.69141C15.6172 4.64453 15.6667 4.6237 15.7188 4.62891C15.776 4.62891 15.8255 4.64714 15.8672 4.68359C15.9089 4.72005 15.9297 4.76693 15.9297 4.82422C15.9297 4.88151 15.9062 4.93359 15.8594 4.98047L7.88281 13.582C7.73177 13.7435 7.64583 13.9049 7.625 14.0664C7.60417 14.2227 7.63021 14.431 7.70312 14.6914L8.94531 18.8164C9.0599 19.207 9.19792 19.5326 9.35938 19.793C9.52083 20.0534 9.78385 20.1836 10.1484 20.1836Z"
		fill="currentColor"
	/>
</svg>
