<svg
	color="rgb(var(--foreground, 0, 0, 0))"
	viewBox="0 0 17 24"
	fill="none"
	xmlns="http://www.w3.org/2000/svg"
>
	<path
		d="M9.78125 20.1836C10.0625 20.1836 10.3047 20.0716 10.5078 19.8477C10.7109 19.6237 10.8854 19.3242 11.0312 18.9492L16.1484 5.58203C16.2161 5.39974 16.2682 5.23047 16.3047 5.07422C16.3464 4.91797 16.3672 4.77214 16.3672 4.63672C16.3672 4.38151 16.2943 4.18099 16.1484 4.03516C16.0026 3.88932 15.8021 3.81641 15.5469 3.81641C15.4167 3.81641 15.2708 3.83724 15.1094 3.87891C14.9531 3.91536 14.7839 3.96745 14.6016 4.03516L1.16406 9.18359C0.835938 9.30859 0.559896 9.47266 0.335938 9.67578C0.111979 9.87891 0 10.1211 0 10.4023C0 10.7617 0.122396 11.0221 0.367188 11.1836C0.611979 11.3398 0.921875 11.4753 1.29688 11.5898L6.9375 13.2461L8.57812 18.8164C8.69271 19.207 8.83073 19.5326 8.99219 19.793C9.15365 20.0534 9.41667 20.1836 9.78125 20.1836ZM7.28906 12.0586L1.89844 10.4102C1.83594 10.3945 1.79167 10.3763 1.76562 10.3555C1.74479 10.3346 1.73438 10.3112 1.73438 10.2852C1.73438 10.2591 1.74479 10.2357 1.76562 10.2148C1.78646 10.1888 1.82552 10.1654 1.88281 10.1445L12.4453 6.14453C12.7578 6.02474 13.0625 5.89453 13.3594 5.75391C13.6615 5.60807 13.9583 5.46745 14.25 5.33203C13.9896 5.54036 13.7135 5.76432 13.4219 6.00391C13.1302 6.24349 12.8776 6.47005 12.6641 6.68359L7.28906 12.0586ZM9.90625 18.4648C9.875 18.4648 9.84896 18.4492 9.82812 18.418C9.8125 18.3919 9.79427 18.3477 9.77344 18.2852L8.125 12.8945L13.5 7.51953C13.7135 7.30599 13.9401 7.05078 14.1797 6.75391C14.4245 6.45703 14.651 6.17578 14.8594 5.91016C14.724 6.20703 14.5833 6.50651 14.4375 6.80859C14.2917 7.11068 14.1589 7.42057 14.0391 7.73828L10.0391 18.3008C10.0182 18.3581 9.9974 18.3997 9.97656 18.4258C9.95573 18.4518 9.93229 18.4648 9.90625 18.4648Z"
		fill="currentColor"
	/>
</svg>
