<svg
	color="rgb(var(--foreground, 0, 0, 0))"
	viewBox="0 0 18 24"
	fill="none"
	xmlns="http://www.w3.org/2000/svg"
>
	<path
		d="M9.54853 19.8867L17.1657 12.2538C17.3636 12.0559 17.5043 11.8788 17.5876 11.7226C17.6761 11.5611 17.7308 11.3893 17.7517 11.207C17.7777 11.0195 17.7907 10.7877 17.7907 10.5117V7.54291C17.7907 7.26687 17.7647 7.04291 17.7126 6.87103C17.6657 6.69395 17.585 6.53249 17.4704 6.38666C17.3558 6.23562 17.1996 6.06114 17.0017 5.86322L15.2048 4.06635C15.0069 3.87364 14.835 3.71999 14.6892 3.60541C14.5433 3.48562 14.3819 3.40228 14.2048 3.35541C14.0329 3.30332 13.8089 3.27728 13.5329 3.27728H10.5563C10.2855 3.27728 10.0563 3.2903 9.86884 3.31635C9.68134 3.33718 9.50687 3.39187 9.34541 3.48041C9.18916 3.56895 9.01468 3.70957 8.82197 3.90228L1.18134 11.5273C0.624053 12.0846 0.342803 12.6497 0.337595 13.2226C0.332386 13.7955 0.616241 14.3684 1.18916 14.9413L6.13447 19.8788C6.70739 20.4466 7.2803 20.7278 7.85322 20.7226C8.42614 20.7226 8.99124 20.4439 9.54853 19.8867ZM8.70478 18.9413C8.13187 19.5195 7.55634 19.5169 6.97822 18.9335L2.12666 14.0898C1.8402 13.8033 1.69697 13.5143 1.69697 13.2226C1.70218 12.9257 1.8428 12.6393 2.11884 12.3632L9.70478 4.79291C9.78291 4.71478 9.86624 4.65228 9.95478 4.60541C10.0485 4.55853 10.1605 4.5351 10.2907 4.5351H13.5798C13.7933 4.5351 13.9834 4.62103 14.1501 4.79291L16.2829 6.91791C16.4496 7.08457 16.5329 7.27468 16.5329 7.48822V10.7851C16.5329 10.9153 16.5095 11.0247 16.4626 11.1132C16.4209 11.2018 16.361 11.2851 16.2829 11.3632L8.70478 18.9413ZM12.6188 9.52728C12.9261 9.52728 13.1813 9.42312 13.3845 9.21478C13.5876 9.00645 13.6892 8.75385 13.6892 8.45697C13.6892 8.15489 13.5876 7.90228 13.3845 7.69916C13.1813 7.49082 12.9261 7.38666 12.6188 7.38666C12.3116 7.38666 12.0563 7.49082 11.8532 7.69916C11.6501 7.90228 11.5485 8.15489 11.5485 8.45697C11.5485 8.75385 11.6501 9.00645 11.8532 9.21478C12.0563 9.42312 12.3116 9.52728 12.6188 9.52728Z"
		fill="currentColor"
	/>
</svg>
