<svg
	color="rgb(var(--foreground, 0, 0, 0))"
	viewBox="0 0 16 24"
	fill="none"
	xmlns="http://www.w3.org/2000/svg"
>
	<path
		d="M4.17969 6.75H5.59375V5.38281C5.59375 5.1849 5.65625 5.02604 5.78125 4.90625C5.90625 4.78646 6.07552 4.72656 6.28906 4.72656H9.08594C9.29948 4.72656 9.46875 4.78646 9.59375 4.90625C9.71875 5.02604 9.78125 5.1849 9.78125 5.38281V6.75H11.1875V5.30469C11.1875 4.71615 11.0052 4.2526 10.6406 3.91406C10.2812 3.57031 9.78906 3.39844 9.16406 3.39844H6.20312C5.57812 3.39844 5.08333 3.57031 4.71875 3.91406C4.35938 4.2526 4.17969 4.71615 4.17969 5.30469V6.75ZM0.710938 7.67969H14.6719C14.8333 7.67969 14.9714 7.6224 15.0859 7.50781C15.2005 7.38802 15.2578 7.2474 15.2578 7.08594C15.2578 6.92448 15.2005 6.78646 15.0859 6.67188C14.9714 6.55729 14.8333 6.5 14.6719 6.5H0.710938C0.554688 6.5 0.416667 6.5599 0.296875 6.67969C0.182292 6.79427 0.125 6.92969 0.125 7.08594C0.125 7.2474 0.182292 7.38802 0.296875 7.50781C0.416667 7.6224 0.554688 7.67969 0.710938 7.67969ZM13.5078 7.51562H1.88281L2.39062 19.0938C2.41146 19.5781 2.5599 19.9505 2.83594 20.2109C3.11719 20.4714 3.4974 20.6016 3.97656 20.6016H11.4062C11.8906 20.6016 12.2708 20.4714 12.5469 20.2109C12.8281 19.9505 12.9792 19.5781 13 19.0938L13.5078 7.51562ZM5.21875 18.3672C5.07812 18.3672 4.96094 18.3255 4.86719 18.2422C4.77865 18.1589 4.73438 18.0469 4.73438 17.9062L4.49219 9.39844C4.49219 9.26302 4.53646 9.15365 4.625 9.07031C4.71354 8.98177 4.83333 8.9375 4.98438 8.9375C5.11979 8.9375 5.23177 8.97917 5.32031 9.0625C5.41406 9.14583 5.46354 9.25521 5.46875 9.39062L5.70312 17.9062C5.70833 18.0417 5.66667 18.1536 5.57812 18.2422C5.48958 18.3255 5.36979 18.3672 5.21875 18.3672ZM7.69531 18.3672C7.54427 18.3672 7.42188 18.3255 7.32812 18.2422C7.23438 18.1536 7.1875 18.0417 7.1875 17.9062V9.39844C7.1875 9.26302 7.23438 9.15365 7.32812 9.07031C7.42188 8.98177 7.54427 8.9375 7.69531 8.9375C7.84115 8.9375 7.96094 8.98177 8.05469 9.07031C8.14844 9.15365 8.19531 9.26302 8.19531 9.39844V17.9062C8.19531 18.0417 8.14844 18.1536 8.05469 18.2422C7.96094 18.3255 7.84115 18.3672 7.69531 18.3672ZM10.1641 18.3672C10.013 18.3672 9.89323 18.3255 9.80469 18.2422C9.71615 18.1536 9.67448 18.0417 9.67969 17.9062L9.91406 9.39844C9.91927 9.25781 9.96615 9.14583 10.0547 9.0625C10.1484 8.97917 10.263 8.9375 10.3984 8.9375C10.5495 8.9375 10.6693 8.98177 10.7578 9.07031C10.8464 9.15365 10.8906 9.26302 10.8906 9.39844L10.6484 17.9062C10.6484 18.0469 10.6016 18.1589 10.5078 18.2422C10.4193 18.3255 10.3047 18.3672 10.1641 18.3672Z"
		fill="currentColor"
	/>
</svg>
