<svg
	color="rgb(var(--foreground, 0, 0, 0))"
	viewBox="0 0 16 24"
	fill="none"
	xmlns="http://www.w3.org/2000/svg"
>
	<path
		d="M13.4844 15.5508L13.8672 7.49609H14.8047C14.9661 7.49609 15.1016 7.4388 15.2109 7.32422C15.3255 7.20443 15.3828 7.0638 15.3828 6.90234C15.3828 6.74609 15.3255 6.61068 15.2109 6.49609C15.1016 6.3763 14.9661 6.31641 14.8047 6.31641H11.2344V5.14453C11.2344 4.58203 11.0573 4.13411 10.7031 3.80078C10.3542 3.46745 9.8776 3.30078 9.27344 3.30078H6.35156C5.7526 3.30078 5.27604 3.46745 4.92188 3.80078C4.57292 4.13411 4.39844 4.58203 4.39844 5.14453V6.15234H4.09375L5.4375 7.49609H12.6172L12.2969 14.3633L13.4844 15.5508ZM5.64844 6.31641V5.22266C5.64844 4.9987 5.72135 4.81641 5.86719 4.67578C6.01823 4.53516 6.21094 4.46484 6.44531 4.46484H9.1875C9.42708 4.46484 9.61979 4.53516 9.76562 4.67578C9.91667 4.81641 9.99219 4.9987 9.99219 5.22266V6.31641H5.64844ZM4.24219 20.6992H11.4062C11.8229 20.6992 12.1771 20.6055 12.4688 20.418C12.7604 20.2305 12.9792 19.9753 13.125 19.6523L13.1328 19.4805L12.1094 18.457L12.1016 18.7148C12.0964 18.944 12.0156 19.1341 11.8594 19.2852C11.7083 19.4414 11.5156 19.5195 11.2812 19.5195H4.35156C4.13281 19.5195 3.94531 19.444 3.78906 19.293C3.63802 19.1419 3.55729 18.9518 3.54688 18.7227L3.09375 9.43359L1.8125 8.15234L2.32031 18.8633C2.34635 19.4258 2.53125 19.8711 2.875 20.1992C3.22396 20.5326 3.67969 20.6992 4.24219 20.6992ZM8.32812 10.3867V9.37109C8.32812 9.23568 8.28125 9.1263 8.1875 9.04297C8.09375 8.95443 7.97135 8.91016 7.82031 8.91016C7.65885 8.91016 7.53125 8.96484 7.4375 9.07422V9.49609L8.32812 10.3867ZM10.7656 12.8242L10.8672 9.37109C10.8672 9.23568 10.8229 9.1263 10.7344 9.04297C10.6458 8.95443 10.526 8.91016 10.375 8.91016C10.2344 8.91016 10.1198 8.95182 10.0312 9.03516C9.94271 9.11849 9.89583 9.23047 9.89062 9.37109L9.82031 11.8789L10.7656 12.8242ZM5.50781 18.1836C5.65365 18.1836 5.77083 18.1419 5.85938 18.0586C5.95312 17.9701 5.9974 17.8581 5.99219 17.7227L5.82812 12.1836L4.83594 11.1836L5.01562 17.7227C5.02083 17.8633 5.06771 17.9753 5.15625 18.0586C5.24479 18.1419 5.36198 18.1836 5.50781 18.1836ZM7.82031 18.1836C7.97135 18.1836 8.09375 18.1419 8.1875 18.0586C8.28125 17.9701 8.32812 17.8581 8.32812 17.7227V14.6758L7.32031 13.6758V17.7227C7.32031 17.8633 7.36719 17.9753 7.46094 18.0586C7.55469 18.1419 7.67448 18.1836 7.82031 18.1836ZM10.1406 18.1836C10.4583 18.1836 10.6198 18.0299 10.625 17.7227L10.6484 17.0039L9.70312 16.0586L9.65625 17.7227C9.65104 17.8581 9.69271 17.9701 9.78125 18.0586C9.86979 18.1419 9.98958 18.1836 10.1406 18.1836ZM14.3594 19.418C14.474 19.5326 14.6146 19.5898 14.7812 19.5898C14.9531 19.5898 15.0964 19.5326 15.2109 19.418C15.3255 19.2982 15.3828 19.1549 15.3828 18.9883C15.3828 18.8216 15.3255 18.681 15.2109 18.5664L1.28906 4.63672C1.16927 4.52214 1.02604 4.46484 0.859375 4.46484C0.692708 4.45964 0.549479 4.51693 0.429688 4.63672C0.315104 4.7513 0.257812 4.89453 0.257812 5.06641C0.257812 5.23307 0.315104 5.3737 0.429688 5.48828L14.3594 19.418Z"
		fill="currentColor"
	/>
</svg>
