<svg
	color="rgb(var(--foreground, 0, 0, 0))"
	viewBox="0 0 16 24"
	fill="none"
	xmlns="http://www.w3.org/2000/svg"
>
	<path
		d="M4.13281 6.87109H5.375V5.19922C5.375 4.98047 5.44531 4.80339 5.58594 4.66797C5.73177 4.53255 5.92188 4.46484 6.15625 4.46484H8.95312C9.1875 4.46484 9.375 4.53255 9.51562 4.66797C9.66146 4.80339 9.73438 4.98047 9.73438 5.19922V6.87109H10.9766V5.12109C10.9766 4.55859 10.8021 4.11589 10.4531 3.79297C10.1094 3.46484 9.63802 3.30078 9.03906 3.30078H6.07031C5.47135 3.30078 4.9974 3.46484 4.64844 3.79297C4.30469 4.11589 4.13281 4.55859 4.13281 5.12109V6.87109ZM0.585938 7.49609H14.5469C14.7083 7.49609 14.8438 7.4388 14.9531 7.32422C15.0677 7.20443 15.125 7.0638 15.125 6.90234C15.125 6.74089 15.0677 6.60286 14.9531 6.48828C14.8385 6.3737 14.7031 6.31641 14.5469 6.31641H0.585938C0.429688 6.31641 0.291667 6.3763 0.171875 6.49609C0.0572917 6.61068 0 6.74609 0 6.90234C0 7.0638 0.0572917 7.20443 0.171875 7.32422C0.291667 7.4388 0.429688 7.49609 0.585938 7.49609ZM3.98438 20.6992H11.1484C11.7057 20.6992 12.1589 20.5326 12.5078 20.1992C12.8568 19.8659 13.0443 19.418 13.0703 18.8555L13.6172 7.34766H12.3594L11.8359 18.7227C11.8255 18.957 11.7448 19.1471 11.5938 19.293C11.4427 19.444 11.2526 19.5195 11.0234 19.5195H4.09375C3.86979 19.5195 3.68229 19.444 3.53125 19.293C3.38021 19.1419 3.29948 18.9518 3.28906 18.7227L2.73438 7.34766H1.50781L2.0625 18.8633C2.08854 19.4258 2.27344 19.8711 2.61719 20.1992C2.96615 20.5326 3.42188 20.6992 3.98438 20.6992ZM5.25 18.1836C5.39583 18.1836 5.51302 18.1419 5.60156 18.0586C5.6901 17.9701 5.73438 17.8581 5.73438 17.7227L5.49219 9.36328C5.49219 9.22786 5.44531 9.11849 5.35156 9.03516C5.26302 8.95182 5.14844 8.91016 5.00781 8.91016C4.86198 8.91016 4.74219 8.95443 4.64844 9.04297C4.5599 9.1263 4.51823 9.23568 4.52344 9.37109L4.75781 17.7227C4.76302 17.8633 4.8099 17.9753 4.89844 18.0586C4.98698 18.1419 5.10417 18.1836 5.25 18.1836ZM7.5625 18.1836C7.71354 18.1836 7.83594 18.1419 7.92969 18.0586C8.02344 17.9701 8.07031 17.8581 8.07031 17.7227V9.37109C8.07031 9.23568 8.02344 9.1263 7.92969 9.04297C7.83594 8.95443 7.71354 8.91016 7.5625 8.91016C7.41667 8.91016 7.29688 8.95443 7.20312 9.04297C7.10938 9.1263 7.0625 9.23568 7.0625 9.37109V17.7227C7.0625 17.8581 7.10938 17.9701 7.20312 18.0586C7.29688 18.1419 7.41667 18.1836 7.5625 18.1836ZM9.88281 18.1836C10.0234 18.1836 10.138 18.1419 10.2266 18.0586C10.3151 17.9753 10.362 17.8633 10.3672 17.7227L10.6016 9.37109C10.6068 9.23568 10.5651 9.1263 10.4766 9.04297C10.388 8.95443 10.2682 8.91016 10.1172 8.91016C9.97656 8.91016 9.86198 8.95182 9.77344 9.03516C9.6849 9.11849 9.63802 9.23047 9.63281 9.37109L9.39844 17.7227C9.39323 17.8581 9.4349 17.9701 9.52344 18.0586C9.61198 18.1419 9.73177 18.1836 9.88281 18.1836Z"
		fill="currentColor"
	/>
</svg>
