<svg
	color="rgb(var(--foreground, 0, 0, 0))"
	viewBox="0 0 16 24"
	fill="none"
	xmlns="http://www.w3.org/2000/svg"
>
	<path
		d="M0.648438 12.8828C0.875 12.8828 1.09375 12.7344 1.26562 12.4766C1.78906 11.6875 2.33594 11.3594 3.07812 11.3594C3.80469 11.3594 4.29688 11.6875 4.74219 12.4688C4.91406 12.7578 5.07812 12.8828 5.29688 12.8828C5.52344 12.8828 5.69531 12.7578 5.85156 12.4688C6.14844 11.9609 6.61719 11.5938 7.14062 11.4219V18.5391C7.14062 19.2188 6.64844 19.7109 5.95312 19.7109C5.27344 19.7109 4.78906 19.2188 4.78906 18.5391C4.78906 18.0859 4.51562 17.7812 4.11719 17.7812C3.72656 17.7812 3.46875 18.0859 3.46875 18.5391C3.46875 19.9609 4.54688 21.0312 5.95312 21.0312C7.36719 21.0312 8.4375 19.9609 8.4375 18.5391V11.4219C8.95312 11.5938 9.42969 11.9609 9.72656 12.4688C9.88281 12.7578 10.0469 12.8828 10.2812 12.8828C10.5 12.8828 10.6641 12.7578 10.8281 12.4688C11.2812 11.6875 11.7734 11.3594 12.5 11.3594C13.2422 11.3594 13.7891 11.6875 14.3047 12.4766C14.4766 12.7344 14.6953 12.8828 14.9297 12.8828C15.3203 12.8828 15.5781 12.5625 15.5781 12.1406C15.5781 9.17188 13.3281 5.04688 8.4375 4.71094V3.625C8.4375 3.26562 8.14844 2.96875 7.78906 2.96875C7.42969 2.96875 7.14062 3.26562 7.14062 3.625V4.71094C2.25 5.04688 0 9.17188 0 12.1406C0 12.5625 0.257812 12.8828 0.648438 12.8828Z"
		fill="currentColor"
	/>
</svg>
