<svg
	color="rgb(var(--foreground, 0, 0, 0))"
	viewBox="0 0 16 24"
	fill="none"
	xmlns="http://www.w3.org/2000/svg"
>
	<path
		d="M7.5625 5.30469H8.85938V3.625C8.85938 3.44271 8.79688 3.28906 8.67188 3.16406C8.54688 3.03385 8.39323 2.96875 8.21094 2.96875C8.02865 2.96875 7.875 3.03385 7.75 3.16406C7.625 3.28906 7.5625 3.44271 7.5625 3.625V5.30469ZM1.07031 12.8828C1.1849 12.8828 1.29427 12.849 1.39844 12.7812C1.50781 12.7083 1.60417 12.6068 1.6875 12.4766C1.94792 12.0807 2.22135 11.7969 2.50781 11.625C2.79948 11.4479 3.13021 11.3594 3.5 11.3594C3.86458 11.3594 4.17708 11.4479 4.4375 11.625C4.69792 11.7969 4.9401 12.0781 5.16406 12.4688C5.32552 12.7448 5.51042 12.8828 5.71875 12.8828C5.9375 12.8828 6.1224 12.7448 6.27344 12.4688C6.48177 12.1094 6.76302 11.8281 7.11719 11.625C7.47135 11.4167 7.83594 11.3125 8.21094 11.3125C8.58594 11.3125 8.95052 11.4167 9.30469 11.625C9.65885 11.8281 9.9401 12.1094 10.1484 12.4688C10.2943 12.7448 10.4792 12.8828 10.7031 12.8828C10.9115 12.8828 11.0938 12.7448 11.25 12.4688C11.4792 12.0781 11.724 11.7969 11.9844 11.625C12.2448 11.4479 12.5573 11.3594 12.9219 11.3594C13.2917 11.3594 13.6198 11.4479 13.9062 11.625C14.1979 11.7969 14.4714 12.0807 14.7266 12.4766C14.8151 12.6068 14.9115 12.7083 15.0156 12.7812C15.125 12.849 15.237 12.8828 15.3516 12.8828C15.5443 12.8828 15.7005 12.8125 15.8203 12.6719C15.9401 12.5312 16 12.3542 16 12.1406C16 11.5208 15.8984 10.8698 15.6953 10.1875C15.4974 9.5 15.1953 8.83073 14.7891 8.17969C14.388 7.52865 13.8776 6.9401 13.2578 6.41406C12.638 5.88802 11.9089 5.46875 11.0703 5.15625C10.2318 4.84375 9.27865 4.6875 8.21094 4.6875C7.14323 4.6875 6.1875 4.84375 5.34375 5.15625C4.50521 5.46875 3.77604 5.88802 3.15625 6.41406C2.54167 6.9401 2.03125 7.52865 1.625 8.17969C1.21875 8.83073 0.916667 9.5 0.71875 10.1875C0.520833 10.8698 0.421875 11.5208 0.421875 12.1406C0.421875 12.3542 0.479167 12.5312 0.59375 12.6719C0.713542 12.8125 0.872396 12.8828 1.07031 12.8828ZM8.21094 10.0938C7.74219 10.0938 7.29167 10.1927 6.85938 10.3906C6.43229 10.5885 6.07552 10.862 5.78906 11.2109C5.7526 11.263 5.71615 11.263 5.67969 11.2109C5.41927 10.8568 5.10677 10.5911 4.74219 10.4141C4.38281 10.2318 3.96875 10.1406 3.5 10.1406C3 10.1406 2.53906 10.2448 2.11719 10.4531C1.70052 10.6562 1.32031 10.9688 0.976562 11.3906L1.6875 11.4531C1.77604 10.6875 1.9974 9.97135 2.35156 9.30469C2.71094 8.63281 3.17969 8.04427 3.75781 7.53906C4.33594 7.02865 5 6.63021 5.75 6.34375C6.50521 6.05208 7.32552 5.90625 8.21094 5.90625C9.09115 5.90625 9.90625 6.04948 10.6562 6.33594C11.4115 6.6224 12.0781 7.02083 12.6562 7.53125C13.2344 8.03646 13.7005 8.625 14.0547 9.29688C14.4141 9.96354 14.638 10.6771 14.7266 11.4375L15.4375 11.375C15.0938 10.9583 14.7135 10.6484 14.2969 10.4453C13.8802 10.2422 13.4219 10.1406 12.9219 10.1406C12.4531 10.1406 12.0365 10.2318 11.6719 10.4141C11.3073 10.5911 10.9948 10.8568 10.7344 11.2109C10.7031 11.2578 10.6693 11.2578 10.6328 11.2109C10.3464 10.862 9.98698 10.5885 9.55469 10.3906C9.1276 10.1927 8.67969 10.0938 8.21094 10.0938ZM6.375 21.0312C6.84375 21.0312 7.26562 20.9219 7.64062 20.7031C8.01562 20.4844 8.3125 20.1875 8.53125 19.8125C8.75 19.4375 8.85938 19.013 8.85938 18.5391V10.9375H7.5625V18.5391C7.5625 18.8828 7.45052 19.1641 7.22656 19.3828C7.00781 19.6016 6.72396 19.7109 6.375 19.7109C6.03646 19.7109 5.75781 19.6016 5.53906 19.3828C5.32031 19.1641 5.21094 18.8828 5.21094 18.5391C5.21094 18.3151 5.14844 18.1328 5.02344 17.9922C4.89844 17.8516 4.73698 17.7812 4.53906 17.7812C4.34635 17.7812 4.1901 17.8516 4.07031 17.9922C3.95052 18.1328 3.89062 18.3151 3.89062 18.5391C3.89062 19.013 4 19.4375 4.21875 19.8125C4.4375 20.1875 4.73438 20.4844 5.10938 20.7031C5.48438 20.9219 5.90625 21.0312 6.375 21.0312Z"
		fill="currentColor"
	/>
</svg>
