<svg
	color="rgb(var(--foreground, 0, 0, 0))"
	viewBox="0 0 20 24"
	fill="none"
	xmlns="http://www.w3.org/2000/svg"
>
	<path
		d="M10.076 13.4297C10.5552 13.4297 10.9979 13.2995 11.4042 13.0391C11.8156 12.7734 12.1464 12.4167 12.3964 11.9688C12.6464 11.5156 12.7714 11.013 12.7714 10.4609C12.7714 9.90365 12.6464 9.40885 12.3964 8.97656C12.1464 8.54427 11.8156 8.20573 11.4042 7.96094C10.9979 7.71094 10.5552 7.58594 10.076 7.58594C9.60209 7.58594 9.15938 7.71354 8.74792 7.96875C8.34167 8.21875 8.01355 8.5625 7.76355 9C7.51355 9.4375 7.38855 9.92969 7.38855 10.4766C7.38855 11.0286 7.51355 11.5286 7.76355 11.9766C8.01355 12.4193 8.34167 12.7734 8.74792 13.0391C9.15938 13.2995 9.60209 13.4297 10.076 13.4297ZM6.07605 19.3438H14.076C14.6542 19.3438 15.05 19.2656 15.2635 19.1094C15.4771 18.9531 15.5839 18.7292 15.5839 18.4375C15.5839 18.0156 15.4563 17.5729 15.201 17.1094C14.951 16.6406 14.5865 16.2031 14.1073 15.7969C13.6281 15.3906 13.05 15.0599 12.3729 14.8047C11.6958 14.5495 10.9302 14.4219 10.076 14.4219C9.22709 14.4219 8.46407 14.5495 7.78699 14.8047C7.1099 15.0599 6.53178 15.3906 6.05261 15.7969C5.57345 16.2031 5.20626 16.6406 4.95105 17.1094C4.70105 17.5729 4.57605 18.0156 4.57605 18.4375C4.57605 18.7292 4.68022 18.9531 4.88855 19.1094C5.10209 19.2656 5.49792 19.3438 6.07605 19.3438ZM1.43542 5.73438C1.55522 5.73438 1.65678 5.69271 1.74011 5.60938C1.82865 5.52083 1.87292 5.41667 1.87292 5.29688C1.87292 5.17708 1.82865 5.07552 1.74011 4.99219C1.65678 4.90365 1.55522 4.85938 1.43542 4.85938C1.31563 4.85938 1.21147 4.90365 1.12292 4.99219C1.03959 5.07552 0.997925 5.17708 0.997925 5.29688C0.997925 5.41667 1.03959 5.52083 1.12292 5.60938C1.21147 5.69271 1.31563 5.73438 1.43542 5.73438ZM3.89636 5.73438C4.01615 5.73438 4.11772 5.69271 4.20105 5.60938C4.28959 5.52083 4.33386 5.41667 4.33386 5.29688C4.33386 5.17708 4.28959 5.07552 4.20105 4.99219C4.11772 4.90365 4.01615 4.85938 3.89636 4.85938C3.77657 4.85938 3.6724 4.90365 3.58386 4.99219C3.50053 5.07552 3.45886 5.17708 3.45886 5.29688C3.45886 5.41667 3.50053 5.52083 3.58386 5.60938C3.6724 5.69271 3.77657 5.73438 3.89636 5.73438ZM6.3573 5.73438C6.47709 5.73438 6.57865 5.69271 6.66199 5.60938C6.75053 5.52083 6.7948 5.41667 6.7948 5.29688C6.7948 5.17708 6.75053 5.07552 6.66199 4.99219C6.57865 4.90365 6.47709 4.85938 6.3573 4.85938C6.23751 4.85938 6.13334 4.90365 6.0448 4.99219C5.96147 5.07552 5.9198 5.17708 5.9198 5.29688C5.9198 5.41667 5.96147 5.52083 6.0448 5.60938C6.13334 5.69271 6.23751 5.73438 6.3573 5.73438ZM8.82605 5.92969C8.99792 5.92969 9.14636 5.86719 9.27136 5.74219C9.39636 5.61719 9.45886 5.46875 9.45886 5.29688C9.45886 5.11979 9.39636 4.96875 9.27136 4.84375C9.14636 4.71875 8.99792 4.65625 8.82605 4.65625C8.64897 4.65625 8.49792 4.71875 8.37292 4.84375C8.24792 4.96875 8.18542 5.11979 8.18542 5.29688C8.18542 5.46875 8.24792 5.61719 8.37292 5.74219C8.49792 5.86719 8.64897 5.92969 8.82605 5.92969ZM11.287 5.92969C11.4589 5.92969 11.6073 5.86719 11.7323 5.74219C11.8573 5.61719 11.9198 5.46875 11.9198 5.29688C11.9198 5.11979 11.8573 4.96875 11.7323 4.84375C11.6073 4.71875 11.4589 4.65625 11.287 4.65625C11.1099 4.65625 10.9589 4.71875 10.8339 4.84375C10.7089 4.96875 10.6464 5.11979 10.6464 5.29688C10.6464 5.46875 10.7089 5.61719 10.8339 5.74219C10.9589 5.86719 11.1099 5.92969 11.287 5.92969ZM13.7557 5.73438C13.8755 5.73438 13.9771 5.69271 14.0604 5.60938C14.149 5.52083 14.1932 5.41667 14.1932 5.29688C14.1932 5.17708 14.149 5.07552 14.0604 4.99219C13.9771 4.90365 13.8755 4.85938 13.7557 4.85938C13.6359 4.85938 13.5318 4.90365 13.4432 4.99219C13.3599 5.07552 13.3182 5.17708 13.3182 5.29688C13.3182 5.41667 13.3599 5.52083 13.4432 5.60938C13.5318 5.69271 13.6359 5.73438 13.7557 5.73438ZM16.2245 5.73438C16.3443 5.73438 16.4458 5.69271 16.5292 5.60938C16.6177 5.52083 16.662 5.41667 16.662 5.29688C16.662 5.17708 16.6177 5.07552 16.5292 4.99219C16.4458 4.90365 16.3443 4.85938 16.2245 4.85938C16.1047 4.85938 16.0005 4.90365 15.912 4.99219C15.8234 5.07552 15.7792 5.17708 15.7792 5.29688C15.7792 5.41667 15.8234 5.52083 15.912 5.60938C16.0005 5.69271 16.1047 5.73438 16.2245 5.73438ZM18.6854 5.73438C18.8052 5.73438 18.9068 5.69271 18.9901 5.60938C19.0787 5.52083 19.1229 5.41667 19.1229 5.29688C19.1229 5.17708 19.0787 5.07552 18.9901 4.99219C18.9068 4.90365 18.8052 4.85938 18.6854 4.85938C18.5656 4.85938 18.4615 4.90365 18.3729 4.99219C18.2896 5.07552 18.2479 5.17708 18.2479 5.29688C18.2479 5.41667 18.2896 5.52083 18.3729 5.60938C18.4615 5.69271 18.5656 5.73438 18.6854 5.73438ZM1.43542 8.42969C1.55522 8.42969 1.65678 8.38542 1.74011 8.29688C1.82865 8.20833 1.87292 8.10417 1.87292 7.98438C1.87292 7.86458 1.82865 7.76302 1.74011 7.67969C1.65678 7.59115 1.55522 7.54688 1.43542 7.54688C1.31563 7.54688 1.21147 7.59115 1.12292 7.67969C1.03959 7.76302 0.997925 7.86458 0.997925 7.98438C0.997925 8.10417 1.03959 8.20833 1.12292 8.29688C1.21147 8.38542 1.31563 8.42969 1.43542 8.42969ZM3.89636 8.625C4.06824 8.625 4.21667 8.5625 4.34167 8.4375C4.47188 8.3125 4.53699 8.16146 4.53699 7.98438C4.53699 7.8125 4.47188 7.66406 4.34167 7.53906C4.21667 7.41406 4.06824 7.35156 3.89636 7.35156C3.71928 7.35156 3.56824 7.41406 3.44324 7.53906C3.31824 7.66406 3.25574 7.8125 3.25574 7.98438C3.25574 8.16146 3.31824 8.3125 3.44324 8.4375C3.56824 8.5625 3.71928 8.625 3.89636 8.625ZM6.3573 8.625C6.44584 8.625 6.5422 8.60156 6.64636 8.55469C6.74011 8.3724 6.8573 8.18229 6.99792 7.98438C6.99792 7.8125 6.93542 7.66406 6.81042 7.53906C6.68542 7.41406 6.53438 7.35156 6.3573 7.35156C6.18542 7.35156 6.03699 7.41406 5.91199 7.53906C5.78699 7.66406 5.72449 7.8125 5.72449 7.98438C5.72449 8.16146 5.78699 8.3125 5.91199 8.4375C6.03699 8.5625 6.18542 8.625 6.3573 8.625ZM13.7557 8.625C13.9328 8.625 14.0839 8.5625 14.2089 8.4375C14.3339 8.3125 14.3964 8.16146 14.3964 7.98438C14.3964 7.8125 14.3339 7.66406 14.2089 7.53906C14.0839 7.41406 13.9328 7.35156 13.7557 7.35156C13.5943 7.35156 13.451 7.40625 13.326 7.51562C13.2063 7.625 13.1385 7.75781 13.1229 7.91406C13.2844 8.13281 13.4224 8.35677 13.537 8.58594C13.5995 8.61198 13.6724 8.625 13.7557 8.625ZM16.2245 8.625C16.3964 8.625 16.5448 8.5625 16.6698 8.4375C16.7948 8.3125 16.8573 8.16146 16.8573 7.98438C16.8573 7.8125 16.7948 7.66406 16.6698 7.53906C16.5448 7.41406 16.3964 7.35156 16.2245 7.35156C16.0474 7.35156 15.8964 7.41406 15.7714 7.53906C15.6464 7.66406 15.5839 7.8125 15.5839 7.98438C15.5839 8.16146 15.6464 8.3125 15.7714 8.4375C15.8964 8.5625 16.0474 8.625 16.2245 8.625ZM18.6854 8.42969C18.8052 8.42969 18.9068 8.38542 18.9901 8.29688C19.0787 8.20833 19.1229 8.10417 19.1229 7.98438C19.1229 7.86458 19.0787 7.76302 18.9901 7.67969C18.9068 7.59115 18.8052 7.54688 18.6854 7.54688C18.5656 7.54688 18.4615 7.59115 18.3729 7.67969C18.2896 7.76302 18.2479 7.86458 18.2479 7.98438C18.2479 8.10417 18.2896 8.20833 18.3729 8.29688C18.4615 8.38542 18.5656 8.42969 18.6854 8.42969ZM1.43542 11.3203C1.6073 11.3203 1.75574 11.2578 1.88074 11.1328C2.00574 11.0078 2.06824 10.8568 2.06824 10.6797C2.06824 10.5026 2.00574 10.3516 1.88074 10.2266C1.75574 10.1016 1.6073 10.0391 1.43542 10.0391C1.25834 10.0391 1.1073 10.1016 0.9823 10.2266C0.8573 10.3516 0.7948 10.5026 0.7948 10.6797C0.7948 10.8568 0.8573 11.0078 0.9823 11.1328C1.1073 11.2578 1.25834 11.3203 1.43542 11.3203ZM3.89636 11.5156C4.12553 11.5156 4.32084 11.4349 4.4823 11.2734C4.64897 11.1068 4.7323 10.9089 4.7323 10.6797C4.7323 10.4505 4.64897 10.2552 4.4823 10.0938C4.32084 9.92708 4.12553 9.84375 3.89636 9.84375C3.6672 9.84375 3.46928 9.92708 3.30261 10.0938C3.14115 10.2552 3.06042 10.4505 3.06042 10.6797C3.06042 10.9089 3.14115 11.1068 3.30261 11.2734C3.46928 11.4349 3.6672 11.5156 3.89636 11.5156ZM5.52136 10.6797C5.52136 10.9036 5.59949 11.0964 5.75574 11.2578C5.91199 11.4193 6.09949 11.5052 6.31824 11.5156C6.2349 11.1979 6.19324 10.8516 6.19324 10.4766C6.19324 10.3672 6.19584 10.2604 6.20105 10.1562C6.21147 10.0521 6.22449 9.95052 6.24011 9.85156C6.03699 9.88281 5.86511 9.97656 5.72449 10.1328C5.58907 10.2891 5.52136 10.4714 5.52136 10.6797ZM14.5995 10.6797C14.5995 10.4818 14.5344 10.3073 14.4042 10.1562C14.274 10 14.1151 9.90104 13.9276 9.85938C13.9537 10.0312 13.9667 10.2318 13.9667 10.4609C13.9667 10.8411 13.925 11.1927 13.8417 11.5156C14.05 11.4896 14.2271 11.3984 14.3729 11.2422C14.524 11.0807 14.5995 10.8932 14.5995 10.6797ZM16.2245 11.5156C16.4537 11.5156 16.649 11.4349 16.8104 11.2734C16.9771 11.1068 17.0604 10.9089 17.0604 10.6797C17.0604 10.4505 16.9771 10.2552 16.8104 10.0938C16.649 9.92708 16.4537 9.84375 16.2245 9.84375C15.9953 9.84375 15.7974 9.92708 15.6307 10.0938C15.4641 10.2552 15.3807 10.4505 15.3807 10.6797C15.3807 10.9089 15.4641 11.1068 15.6307 11.2734C15.7974 11.4349 15.9953 11.5156 16.2245 11.5156ZM18.6854 11.3203C18.8573 11.3203 19.0057 11.2578 19.1307 11.1328C19.2609 11.0078 19.326 10.8568 19.326 10.6797C19.326 10.5026 19.2609 10.3516 19.1307 10.2266C19.0057 10.1016 18.8573 10.0391 18.6854 10.0391C18.5083 10.0391 18.3573 10.1016 18.2323 10.2266C18.1073 10.3516 18.0448 10.5026 18.0448 10.6797C18.0448 10.8568 18.1073 11.0078 18.2323 11.1328C18.3573 11.2578 18.5083 11.3203 18.6854 11.3203ZM1.43542 14.0078C1.6073 14.0078 1.75574 13.9453 1.88074 13.8203C2.00574 13.6953 2.06824 13.5469 2.06824 13.375C2.06824 13.1979 2.00574 13.0469 1.88074 12.9219C1.75574 12.7969 1.6073 12.7344 1.43542 12.7344C1.25834 12.7344 1.1073 12.7969 0.9823 12.9219C0.8573 13.0469 0.7948 13.1979 0.7948 13.375C0.7948 13.5469 0.8573 13.6953 0.9823 13.8203C1.1073 13.9453 1.25834 14.0078 1.43542 14.0078ZM3.89636 14.2109C4.12553 14.2109 4.32084 14.1302 4.4823 13.9688C4.64897 13.8021 4.7323 13.6042 4.7323 13.375C4.7323 13.1458 4.64897 12.9479 4.4823 12.7812C4.32084 12.6146 4.12553 12.5312 3.89636 12.5312C3.6672 12.5312 3.46928 12.6146 3.30261 12.7812C3.14115 12.9479 3.06042 13.1458 3.06042 13.375C3.06042 13.6042 3.14115 13.8021 3.30261 13.9688C3.46928 14.1302 3.6672 14.2109 3.89636 14.2109ZM5.99792 14.1328C6.18022 14.0182 6.37032 13.9141 6.56824 13.8203C6.76615 13.7214 6.96928 13.6276 7.17761 13.5391C7.22449 13.2839 7.16459 13.0521 6.99792 12.8438C6.83647 12.6354 6.62292 12.5312 6.3573 12.5312C6.12813 12.5312 5.93022 12.6146 5.76355 12.7812C5.60209 12.9479 5.52136 13.1458 5.52136 13.375C5.52136 13.5365 5.56563 13.6849 5.65417 13.8203C5.74272 13.9557 5.8573 14.0599 5.99792 14.1328ZM14.1464 14.1094C14.2766 14.0417 14.3833 13.9427 14.4667 13.8125C14.5552 13.6771 14.5995 13.5312 14.5995 13.375C14.5995 13.1458 14.5162 12.9479 14.3495 12.7812C14.1828 12.6146 13.9849 12.5312 13.7557 12.5312C13.4953 12.5312 13.2818 12.6328 13.1151 12.8359C12.9484 13.0391 12.8912 13.2708 12.9432 13.5312C13.1568 13.6094 13.3625 13.6979 13.5604 13.7969C13.7635 13.8958 13.9589 14 14.1464 14.1094ZM16.2245 14.2109C16.4537 14.2109 16.649 14.1302 16.8104 13.9688C16.9771 13.8021 17.0604 13.6042 17.0604 13.375C17.0604 13.1458 16.9771 12.9479 16.8104 12.7812C16.649 12.6146 16.4537 12.5312 16.2245 12.5312C15.9953 12.5312 15.7974 12.6146 15.6307 12.7812C15.4641 12.9479 15.3807 13.1458 15.3807 13.375C15.3807 13.6042 15.4641 13.8021 15.6307 13.9688C15.7974 14.1302 15.9953 14.2109 16.2245 14.2109ZM18.6854 14.0078C18.8573 14.0078 19.0057 13.9453 19.1307 13.8203C19.2609 13.6953 19.326 13.5469 19.326 13.375C19.326 13.1979 19.2609 13.0469 19.1307 12.9219C19.0057 12.7969 18.8573 12.7344 18.6854 12.7344C18.5083 12.7344 18.3573 12.7969 18.2323 12.9219C18.1073 13.0469 18.0448 13.1979 18.0448 13.375C18.0448 13.5469 18.1073 13.6953 18.2323 13.8203C18.3573 13.9453 18.5083 14.0078 18.6854 14.0078ZM1.43542 16.5C1.55522 16.5 1.65678 16.4583 1.74011 16.375C1.82865 16.2865 1.87292 16.1823 1.87292 16.0625C1.87292 15.9427 1.82865 15.8411 1.74011 15.7578C1.65678 15.6693 1.55522 15.625 1.43542 15.625C1.31563 15.625 1.21147 15.6693 1.12292 15.7578C1.03959 15.8411 0.997925 15.9427 0.997925 16.0625C0.997925 16.1823 1.03959 16.2865 1.12292 16.375C1.21147 16.4583 1.31563 16.5 1.43542 16.5ZM3.62292 16.6328C3.81042 16.2682 4.03699 15.9167 4.30261 15.5781C4.18282 15.4792 4.0474 15.4297 3.89636 15.4297C3.71928 15.4297 3.56824 15.4922 3.44324 15.6172C3.31824 15.7422 3.25574 15.8906 3.25574 16.0625C3.25574 16.3333 3.37813 16.5234 3.62292 16.6328ZM16.5292 16.625C16.7479 16.4948 16.8573 16.3073 16.8573 16.0625C16.8573 15.8906 16.7948 15.7422 16.6698 15.6172C16.5448 15.4922 16.3964 15.4297 16.2245 15.4297C16.0839 15.4297 15.9537 15.4714 15.8339 15.5547C16.0995 15.8828 16.3313 16.2396 16.5292 16.625ZM18.6854 16.5C18.8052 16.5 18.9068 16.4583 18.9901 16.375C19.0787 16.2865 19.1229 16.1823 19.1229 16.0625C19.1229 15.9427 19.0787 15.8411 18.9901 15.7578C18.9068 15.6693 18.8052 15.625 18.6854 15.625C18.5656 15.625 18.4615 15.6693 18.3729 15.7578C18.2896 15.8411 18.2479 15.9427 18.2479 16.0625C18.2479 16.1823 18.2896 16.2865 18.3729 16.375C18.4615 16.4583 18.5656 16.5 18.6854 16.5ZM1.43542 19.1953C1.55522 19.1953 1.65678 19.151 1.74011 19.0625C1.82865 18.9792 1.87292 18.8776 1.87292 18.7578C1.87292 18.638 1.82865 18.5339 1.74011 18.4453C1.65678 18.362 1.55522 18.3203 1.43542 18.3203C1.31563 18.3203 1.21147 18.362 1.12292 18.4453C1.03959 18.5339 0.997925 18.638 0.997925 18.7578C0.997925 18.8776 1.03959 18.9792 1.12292 19.0625C1.21147 19.151 1.31563 19.1953 1.43542 19.1953ZM18.6854 19.1953C18.8052 19.1953 18.9068 19.151 18.9901 19.0625C19.0787 18.9792 19.1229 18.8776 19.1229 18.7578C19.1229 18.638 19.0787 18.5339 18.9901 18.4453C18.9068 18.362 18.8052 18.3203 18.6854 18.3203C18.5656 18.3203 18.4615 18.362 18.3729 18.4453C18.2896 18.5339 18.2479 18.638 18.2479 18.7578C18.2479 18.8776 18.2896 18.9792 18.3729 19.0625C18.4615 19.151 18.5656 19.1953 18.6854 19.1953Z"
		fill="currentColor"
	/>
</svg>
