<svg
	color="rgb(var(--foreground, 0, 0, 0))"
	viewBox="0 0 15 24"
	fill="none"
	xmlns="http://www.w3.org/2000/svg"
>
	<path
		d="M2.31042 19.0234H12.787C13.2037 19.0234 13.5292 18.9297 13.7635 18.7422C14.0031 18.5599 14.1229 18.3073 14.1229 17.9844C14.1229 17.4844 13.9693 16.9557 13.662 16.3984C13.3599 15.8411 12.9224 15.3203 12.3495 14.8359C11.7818 14.3464 11.0917 13.9505 10.2792 13.6484C9.47188 13.3411 8.56042 13.1875 7.5448 13.1875C6.53438 13.1875 5.62292 13.3411 4.81042 13.6484C4.00313 13.9505 3.31303 14.3464 2.74011 14.8359C2.1672 15.3203 1.7297 15.8411 1.42761 16.3984C1.12553 16.9557 0.974487 17.4844 0.974487 17.9844C0.974487 18.3073 1.09167 18.5599 1.32605 18.7422C1.56563 18.9297 1.89376 19.0234 2.31042 19.0234ZM7.55261 11.7891C8.1099 11.7891 8.62553 11.638 9.09949 11.3359C9.57345 11.0286 9.95365 10.6146 10.2401 10.0938C10.5318 9.57292 10.6776 8.98698 10.6776 8.33594C10.6776 7.69531 10.5318 7.1224 10.2401 6.61719C9.95365 6.10677 9.57345 5.70573 9.09949 5.41406C8.62553 5.1224 8.1099 4.97656 7.55261 4.97656C6.99532 4.97656 6.4797 5.125 6.00574 5.42188C5.53178 5.71875 5.14897 6.1224 4.8573 6.63281C4.57084 7.14323 4.42761 7.71615 4.42761 8.35156C4.42761 8.9974 4.57084 9.58073 4.8573 10.1016C5.14897 10.6172 5.53178 11.0286 6.00574 11.3359C6.4797 11.638 6.99532 11.7891 7.55261 11.7891Z"
		fill="currentColor"
	/>
</svg>
