<svg
	color="rgb(var(--foreground, 0, 0, 0))"
	viewBox="0 0 14 24"
	fill="none"
	xmlns="http://www.w3.org/2000/svg"
>
	<path
		d="M2.24011 19.2344H12.0604C13.3365 19.2344 13.9745 18.8177 13.9745 17.9844C13.9745 17.474 13.8182 16.9297 13.5057 16.3516C13.1932 15.7734 12.7401 15.2292 12.1464 14.7188C11.5578 14.2031 10.8417 13.7839 9.99792 13.4609C9.15938 13.138 8.21147 12.9766 7.15417 12.9766C6.09167 12.9766 5.13855 13.138 4.2948 13.4609C3.45626 13.7839 2.74011 14.2031 2.14636 14.7188C1.55782 15.2292 1.1073 15.7734 0.7948 16.3516C0.4823 16.9297 0.32605 17.474 0.32605 17.9844C0.32605 18.8177 0.964071 19.2344 2.24011 19.2344ZM1.87292 18.0547C1.76876 18.0547 1.69324 18.0391 1.64636 18.0078C1.6047 17.9766 1.58386 17.9193 1.58386 17.8359C1.58386 17.5182 1.70365 17.151 1.94324 16.7344C2.18803 16.3125 2.5474 15.9062 3.02136 15.5156C3.49532 15.125 4.07865 14.8021 4.77136 14.5469C5.46407 14.2865 6.25834 14.1562 7.15417 14.1562C8.05001 14.1562 8.84167 14.2865 9.52917 14.5469C10.2219 14.8021 10.8052 15.125 11.2792 15.5156C11.7531 15.9062 12.1099 16.3125 12.3495 16.7344C12.5943 17.151 12.7167 17.5182 12.7167 17.8359C12.7167 17.9193 12.6932 17.9766 12.6464 18.0078C12.6047 18.0391 12.5344 18.0547 12.4354 18.0547H1.87292ZM7.15417 12.0078C7.77397 12.0078 8.33907 11.8411 8.84949 11.5078C9.3599 11.1745 9.76615 10.7318 10.0682 10.1797C10.3755 9.6224 10.5292 9.00781 10.5292 8.33594C10.5292 7.66927 10.3781 7.06771 10.076 6.53125C9.77397 5.98958 9.36772 5.5599 8.8573 5.24219C8.34688 4.92448 7.77917 4.76562 7.15417 4.76562C6.53438 4.76562 5.96928 4.92708 5.45886 5.25C4.94845 5.57292 4.53959 6.00521 4.2323 6.54688C3.93022 7.08854 3.77917 7.6901 3.77917 8.35156C3.77917 9.01823 3.93022 9.63021 4.2323 10.1875C4.53959 10.7396 4.94845 11.1823 5.45886 11.5156C5.96928 11.8438 6.53438 12.0078 7.15417 12.0078ZM7.15417 10.8281C6.77397 10.8281 6.4224 10.7188 6.09949 10.5C5.78178 10.276 5.52397 9.97656 5.32605 9.60156C5.13334 9.22656 5.03699 8.8099 5.03699 8.35156C5.03699 7.89844 5.13334 7.49219 5.32605 7.13281C5.51876 6.76823 5.77397 6.47917 6.09167 6.26562C6.41459 6.05208 6.76876 5.94531 7.15417 5.94531C7.5448 5.94531 7.89897 6.04948 8.21667 6.25781C8.53959 6.46615 8.7948 6.7526 8.9823 7.11719C9.17501 7.47656 9.27136 7.88281 9.27136 8.33594C9.27136 8.79427 9.17501 9.21354 8.9823 9.59375C8.78959 9.96875 8.53178 10.2682 8.20886 10.4922C7.89115 10.7161 7.53959 10.8281 7.15417 10.8281Z"
		fill="currentColor"
	/>
</svg>
