<svg
	color="rgb(var(--foreground, 0, 0, 0))"
	viewBox="0 0 16 24"
	fill="none"
	xmlns="http://www.w3.org/2000/svg"
>
	<path
		d="M0.872559 13.8164C1.05485 13.8164 1.20589 13.7539 1.32568 13.6289C1.44548 13.5039 1.50537 13.3555 1.50537 13.1836V10.8164C1.50537 10.6445 1.44548 10.4961 1.32568 10.3711C1.20589 10.2409 1.05485 10.1758 0.872559 10.1758C0.695475 10.1758 0.547038 10.2409 0.427246 10.3711C0.307454 10.4961 0.247559 10.6445 0.247559 10.8164V13.1836C0.247559 13.3555 0.307454 13.5039 0.427246 13.6289C0.547038 13.7539 0.695475 13.8164 0.872559 13.8164ZM3.49756 17.0117C3.67985 17.0117 3.83089 16.9518 3.95068 16.832C4.07568 16.707 4.13818 16.556 4.13818 16.3789V10.3008L2.88037 9.04297V16.3789C2.88037 16.556 2.93766 16.707 3.05225 16.832C3.17204 16.9518 3.32048 17.0117 3.49756 17.0117ZM6.12256 3.83984C5.94548 3.83984 5.79704 3.90234 5.67725 4.02734C5.56266 4.14714 5.50537 4.29557 5.50537 4.47266V6.94141L6.76318 8.19922V4.47266C6.76318 4.29557 6.70068 4.14714 6.57568 4.02734C6.45589 3.90234 6.30485 3.83984 6.12256 3.83984ZM6.12256 20.1602C6.30485 20.1602 6.45589 20.0977 6.57568 19.9727C6.70068 19.8529 6.76318 19.7044 6.76318 19.5273V12.9258L5.50537 11.6758V19.5273C5.50537 19.7044 5.56266 19.8529 5.67725 19.9727C5.79704 20.0977 5.94548 20.1602 6.12256 20.1602ZM8.76318 7.93359C8.58089 7.93359 8.42985 7.99609 8.31006 8.12109C8.19027 8.24089 8.13037 8.38932 8.13037 8.56641V9.57422L9.38818 10.832V8.56641C9.38818 8.38932 9.32829 8.24089 9.2085 8.12109C9.0887 7.99609 8.94027 7.93359 8.76318 7.93359ZM8.76318 16.7383C8.94027 16.7383 9.0887 16.6784 9.2085 16.5586C9.32829 16.4336 9.38818 16.2826 9.38818 16.1055V15.5508L8.13037 14.293V16.1055C8.13037 16.2826 8.19027 16.4336 8.31006 16.5586C8.43506 16.6784 8.5861 16.7383 8.76318 16.7383ZM11.3882 5.56641C11.2059 5.56641 11.0549 5.62891 10.9351 5.75391C10.8205 5.87891 10.7632 6.02734 10.7632 6.19922V12.1992L12.021 13.457V6.19922C12.021 6.02734 11.9585 5.87891 11.8335 5.75391C11.7137 5.62891 11.5653 5.56641 11.3882 5.56641ZM14.0132 9.50391C13.8361 9.50391 13.6877 9.56641 13.5679 9.69141C13.4481 9.81641 13.3882 9.96484 13.3882 10.1367V13.8633C13.3882 14.0352 13.4481 14.1836 13.5679 14.3086C13.6877 14.4284 13.8361 14.4883 14.0132 14.4883C14.1903 14.4883 14.3387 14.4284 14.4585 14.3086C14.5835 14.1836 14.646 14.0352 14.646 13.8633V10.1367C14.646 9.96484 14.5835 9.81641 14.4585 9.69141C14.3387 9.56641 14.1903 9.50391 14.0132 9.50391ZM14.771 19.4258C14.8908 19.5404 15.034 19.5977 15.2007 19.5977C15.3674 19.5977 15.508 19.5404 15.6226 19.4258C15.7371 19.306 15.7944 19.1628 15.7944 18.9961C15.7996 18.8294 15.7424 18.6888 15.6226 18.5742L1.61475 4.55859C1.49495 4.44401 1.34912 4.38672 1.17725 4.38672C1.01058 4.38151 0.869954 4.4388 0.755371 4.55859C0.640788 4.67318 0.583496 4.81641 0.583496 4.98828C0.583496 5.15495 0.640788 5.29557 0.755371 5.41016L14.771 19.4258Z"
		fill="currentColor"
	/>
</svg>
