<svg
	color="rgb(var(--foreground, 0, 0, 0))"
	viewBox="0 0 16 24"
	fill="none"
	xmlns="http://www.w3.org/2000/svg"
>
	<path
		d="M1.46631 13.8164C1.6486 13.8164 1.79964 13.7539 1.91943 13.6289C2.04443 13.5039 2.10693 13.3555 2.10693 13.1836V10.8164C2.10693 10.6445 2.04443 10.4961 1.91943 10.3711C1.79964 10.2409 1.6486 10.1758 1.46631 10.1758C1.29443 10.1758 1.1486 10.2409 1.02881 10.3711C0.909017 10.4961 0.849121 10.6445 0.849121 10.8164V13.1836C0.849121 13.3555 0.909017 13.5039 1.02881 13.6289C1.1486 13.7539 1.29443 13.8164 1.46631 13.8164ZM4.09912 17.0117C4.28141 17.0117 4.43245 16.9518 4.55225 16.832C4.67204 16.707 4.73193 16.556 4.73193 16.3789V7.62109C4.73193 7.44401 4.67204 7.29297 4.55225 7.16797C4.43245 7.04297 4.28141 6.98047 4.09912 6.98047C3.92204 6.98047 3.7736 7.04297 3.65381 7.16797C3.53402 7.29297 3.47412 7.44401 3.47412 7.62109V16.3789C3.47412 16.556 3.53402 16.707 3.65381 16.832C3.7736 16.9518 3.92204 17.0117 4.09912 17.0117ZM6.72412 20.1602C6.90641 20.1602 7.05745 20.0977 7.17725 19.9727C7.30225 19.8529 7.36475 19.7044 7.36475 19.5273V4.47266C7.36475 4.29557 7.30225 4.14714 7.17725 4.02734C7.05745 3.90234 6.90641 3.83984 6.72412 3.83984C6.54704 3.83984 6.3986 3.90234 6.27881 4.02734C6.16423 4.14714 6.10693 4.29557 6.10693 4.47266V19.5273C6.10693 19.7044 6.16423 19.8529 6.27881 19.9727C6.3986 20.0977 6.54704 20.1602 6.72412 20.1602ZM9.35693 16.0586C9.53402 16.0586 9.68245 15.9987 9.80225 15.8789C9.92725 15.7591 9.98975 15.6107 9.98975 15.4336V8.56641C9.98975 8.38932 9.92725 8.24089 9.80225 8.12109C9.68245 7.99609 9.53402 7.93359 9.35693 7.93359C9.17985 7.93359 9.03141 7.99609 8.91162 8.12109C8.79183 8.24089 8.73193 8.38932 8.73193 8.56641V15.4336C8.73193 15.6107 8.79183 15.7591 8.91162 15.8789C9.03141 15.9987 9.17985 16.0586 9.35693 16.0586ZM11.9897 18.4258C12.1668 18.4258 12.3153 18.3633 12.4351 18.2383C12.5549 18.1185 12.6147 17.9727 12.6147 17.8008V6.19922C12.6147 6.02734 12.5549 5.87891 12.4351 5.75391C12.3153 5.62891 12.1668 5.56641 11.9897 5.56641C11.8075 5.56641 11.6564 5.62891 11.5366 5.75391C11.4168 5.87891 11.3569 6.02734 11.3569 6.19922V17.8008C11.3569 17.9727 11.4168 18.1185 11.5366 18.2383C11.6564 18.3633 11.8075 18.4258 11.9897 18.4258ZM14.6147 14.4883C14.7918 14.4883 14.9403 14.4284 15.0601 14.3086C15.1851 14.1836 15.2476 14.0352 15.2476 13.8633V10.1367C15.2476 9.96484 15.1851 9.81641 15.0601 9.69141C14.9403 9.56641 14.7918 9.50391 14.6147 9.50391C14.4325 9.50391 14.2814 9.56641 14.1616 9.69141C14.047 9.81641 13.9897 9.96484 13.9897 10.1367V13.8633C13.9897 14.0352 14.047 14.1836 14.1616 14.3086C14.2814 14.4284 14.4325 14.4883 14.6147 14.4883Z"
		fill="currentColor"
	/>
</svg>
