<svg
	color="rgb(var(--foreground, 0, 0, 0))"
	viewBox="0 0 14 24"
	fill="none"
	xmlns="http://www.w3.org/2000/svg"
>
	<path
		d="M2.54688 21.4648H10.8438C11.651 21.4648 12.2552 21.2591 12.6562 20.8477C13.0625 20.4414 13.2656 19.8294 13.2656 19.0117V7.16797C13.2656 6.36589 13.0703 5.75651 12.6797 5.33984C12.2943 4.92318 11.7109 4.71484 10.9297 4.71484H10.7422C10.7474 4.74609 10.75 4.77995 10.75 4.81641C10.75 4.84766 10.75 4.87891 10.75 4.91016V5.61328C10.75 5.75911 10.7396 5.87891 10.7188 5.97266H10.9062C11.2708 5.97266 11.5443 6.08203 11.7266 6.30078C11.9141 6.51953 12.0078 6.8138 12.0078 7.18359V18.9961C12.0078 19.3867 11.9036 19.6862 11.6953 19.8945C11.4922 20.1029 11.1875 20.207 10.7812 20.207H2.60938C2.20312 20.207 1.89583 20.1029 1.6875 19.8945C1.48438 19.6862 1.38281 19.3867 1.38281 18.9961V7.18359C1.38281 6.8138 1.47396 6.51953 1.65625 6.30078C1.84375 6.08203 2.11979 5.97266 2.48438 5.97266H2.67188C2.65104 5.87891 2.64062 5.75911 2.64062 5.61328V4.91016C2.64062 4.87891 2.64062 4.84766 2.64062 4.81641C2.64062 4.77995 2.64323 4.74609 2.64844 4.71484H2.46094C1.67969 4.71484 1.09375 4.92318 0.703125 5.33984C0.317708 5.75651 0.125 6.36589 0.125 7.16797V19.0117C0.125 19.8294 0.325521 20.4414 0.726562 20.8477C1.13281 21.2591 1.73958 21.4648 2.54688 21.4648ZM4.28125 6.50391H9.10938C9.33854 6.50391 9.51562 6.4362 9.64062 6.30078C9.77083 6.16536 9.83594 5.97526 9.83594 5.73047V4.91016C9.83594 4.66536 9.77083 4.47526 9.64062 4.33984C9.51562 4.20443 9.33854 4.13672 9.10938 4.13672H8.39062C8.36458 3.69401 8.1875 3.31641 7.85938 3.00391C7.53646 2.69141 7.14844 2.53516 6.69531 2.53516C6.24219 2.53516 5.85156 2.69141 5.52344 3.00391C5.20052 3.31641 5.02604 3.69401 5 4.13672H4.28125C4.05208 4.13672 3.8724 4.20443 3.74219 4.33984C3.61719 4.47526 3.55469 4.66536 3.55469 4.91016V5.73047C3.55469 5.97526 3.61719 6.16536 3.74219 6.30078C3.8724 6.4362 4.05208 6.50391 4.28125 6.50391ZM6.69531 4.87891C6.50781 4.87891 6.34635 4.8112 6.21094 4.67578C6.08073 4.54036 6.01562 4.38151 6.01562 4.19922C6.01562 4.00651 6.08073 3.84505 6.21094 3.71484C6.34635 3.57943 6.50781 3.51172 6.69531 3.51172C6.88281 3.51172 7.04167 3.57943 7.17188 3.71484C7.30729 3.84505 7.375 4.00651 7.375 4.19922C7.375 4.38151 7.30729 4.54036 7.17188 4.67578C7.04167 4.8112 6.88281 4.87891 6.69531 4.87891Z"
		fill="currentColor"
	/>
</svg>
