<svg
	color="rgb(var(--foreground, 0, 0, 0))"
	viewBox="0 0 14 24"
	fill="none"
	xmlns="http://www.w3.org/2000/svg"
>
	<path
		d="M3.26562 20.375H11.5625C12.3698 20.375 12.974 20.1693 13.375 19.7578C13.7812 19.3516 13.9844 18.7422 13.9844 17.9297V10.8359C13.9844 10.4974 13.9661 10.2135 13.9297 9.98438C13.8932 9.75521 13.8203 9.54688 13.7109 9.35938C13.6068 9.16667 13.4505 8.96354 13.2422 8.75L8.9375 4.36719C8.73958 4.16406 8.54688 4.01042 8.35938 3.90625C8.17188 3.79688 7.96615 3.72396 7.74219 3.6875C7.52344 3.64583 7.26823 3.625 6.97656 3.625H3.26562C2.45833 3.625 1.85156 3.83073 1.44531 4.24219C1.04427 4.65365 0.84375 5.26562 0.84375 6.07812V17.9297C0.84375 18.7474 1.04427 19.3594 1.44531 19.7656C1.85156 20.1719 2.45833 20.375 3.26562 20.375ZM3.32031 19.1172C2.91927 19.1172 2.61458 19.013 2.40625 18.8047C2.20312 18.5964 2.10156 18.2969 2.10156 17.9062V6.10156C2.10156 5.71615 2.20312 5.41667 2.40625 5.20312C2.61458 4.98958 2.92188 4.88281 3.32812 4.88281H6.80469V9.42188C6.80469 9.91146 6.92708 10.2786 7.17188 10.5234C7.41667 10.7682 7.78385 10.8906 8.27344 10.8906H12.7266V17.9062C12.7266 18.2969 12.6224 18.5964 12.4141 18.8047C12.2109 19.013 11.9062 19.1172 11.5 19.1172H3.32031ZM8.41406 9.71094C8.25781 9.71094 8.14583 9.67708 8.07812 9.60938C8.01562 9.54167 7.98438 9.42969 7.98438 9.27344V5.125L12.4844 9.71094H8.41406Z"
		fill="currentColor"
	/>
</svg>
