<svg
	color="rgb(var(--foreground, 0, 0, 0))"
	viewBox="0 0 16 24"
	fill="none"
	xmlns="http://www.w3.org/2000/svg"
>
	<path
		d="M13.4141 15.5625L13.7578 7.67969H14.9297C15.0911 7.67969 15.2292 7.6224 15.3438 7.50781C15.4583 7.38802 15.5156 7.2474 15.5156 7.08594C15.5156 6.92448 15.4583 6.78646 15.3438 6.67188C15.2292 6.55729 15.0911 6.5 14.9297 6.5H11.4453V5.30469C11.4453 4.71615 11.263 4.2526 10.8984 3.91406C10.5391 3.57031 10.0469 3.39844 9.42188 3.39844H6.45312C5.83333 3.39844 5.34115 3.57031 4.97656 3.91406C4.61719 4.2526 4.4375 4.71615 4.4375 5.30469V6.29688H4.14062L7.48438 9.64062V9.21875C7.55729 9.03125 7.71094 8.9375 7.94531 8.9375C8.09635 8.9375 8.21875 8.98177 8.3125 9.07031C8.40625 9.15365 8.45312 9.26302 8.45312 9.39844V10.6094L10.0938 12.25L10.1719 9.39844C10.1771 9.25781 10.224 9.14583 10.3125 9.0625C10.401 8.97917 10.5156 8.9375 10.6562 8.9375C10.8073 8.9375 10.9271 8.98177 11.0156 9.07031C11.1042 9.15365 11.1458 9.26302 11.1406 9.39844L11.0391 13.1953L13.4141 15.5625ZM5.85156 6.5V5.38281C5.85156 5.1849 5.91406 5.02604 6.03906 4.90625C6.16406 4.78646 6.33333 4.72656 6.54688 4.72656H9.34375C9.55729 4.72656 9.72656 4.78646 9.85156 4.90625C9.97656 5.02604 10.0391 5.1849 10.0391 5.38281V6.5H5.85156ZM4.23438 20.6016H11.6641C12.0234 20.6016 12.3281 20.5234 12.5781 20.3672C12.8333 20.2161 13.0104 20.0052 13.1094 19.7344L13.1172 19.5625L10.9219 17.3672L10.9062 17.9062C10.9062 18.0469 10.8594 18.1589 10.7656 18.2422C10.6771 18.3255 10.5625 18.3672 10.4219 18.3672C10.2708 18.3672 10.151 18.3255 10.0625 18.2422C9.97396 18.1536 9.93229 18.0417 9.9375 17.9062L9.97656 16.4141L8.45312 14.8906V17.9062C8.45312 18.0417 8.40625 18.1536 8.3125 18.2422C8.21875 18.3255 8.09635 18.3672 7.94531 18.3672C7.79948 18.3672 7.67969 18.3255 7.58594 18.2422C7.49219 18.1536 7.44531 18.0417 7.44531 17.9062V13.8906L5.80469 12.2422L5.96094 17.9062C5.96615 18.0417 5.92188 18.1536 5.82812 18.2422C5.73958 18.3255 5.6224 18.3672 5.47656 18.3672C5.33073 18.3672 5.21354 18.3255 5.125 18.2422C5.03646 18.1589 4.98958 18.0469 4.98438 17.9062L4.80469 11.2422L2.1875 8.64062L2.64844 19.0938C2.66927 19.5781 2.81771 19.9505 3.09375 20.2109C3.36979 20.4714 3.75 20.6016 4.23438 20.6016ZM14.4844 19.6016C14.599 19.7161 14.7396 19.7734 14.9062 19.7734C15.0781 19.7734 15.2214 19.7161 15.3359 19.6016C15.4505 19.4818 15.5078 19.3385 15.5078 19.1719C15.5078 19.0052 15.4505 18.8646 15.3359 18.75L1.41406 4.82031C1.29427 4.70573 1.15104 4.64844 0.984375 4.64844C0.817708 4.64323 0.674479 4.70052 0.554688 4.82031C0.440104 4.9349 0.382812 5.07812 0.382812 5.25C0.382812 5.41667 0.440104 5.55729 0.554688 5.67188L14.4844 19.6016Z"
		fill="currentColor"
	/>
</svg>
