<svg
	color="rgb(var(--foreground, 0, 0, 0))"
	viewBox="0 0 17 24"
	fill="none"
	xmlns="http://www.w3.org/2000/svg"
>
	<path
		d="M8.71875 19.9688C13.0781 19.9688 16.6875 16.3516 16.6875 12C16.6875 7.64062 13.0703 4.03125 8.71094 4.03125C4.35938 4.03125 0.75 7.64062 0.75 12C0.75 16.3516 4.36719 19.9688 8.71875 19.9688ZM8.61719 17.1406C8.61719 17.0547 8.64062 16.9922 8.72656 16.7188C8.80469 16.4688 8.92188 16.125 8.91406 15.75C8.90625 15.2422 8.49219 14.8828 7.57812 14.2344C7.41406 14.1172 7.24219 14 7.07031 13.8672C6.82031 13.6797 6.71875 13.5156 6.71875 13.3281C6.71875 13.2266 6.74219 13.1172 6.82031 12.875C6.89062 12.625 6.9375 12.4297 6.9375 12.2891C6.9375 11.9375 6.75781 11.7031 6.38281 11.3828C6.32812 11.3438 6.28906 11.3047 6.24219 11.2656L4.99219 10.1484C3.44531 8.76562 3.4375 7.96094 4.05469 6.9375C5.28906 5.79688 6.92969 5.09375 8.71094 5.09375C9.96094 5.09375 11.1406 5.4375 12.1641 6.03125C11.6875 6.97656 10.0156 7.76562 9.14062 8.22656C8.96875 8.3125 8.875 8.50781 9.03125 8.72656C9.35156 9.17188 9.49219 9.36719 9.49219 9.53906C9.49219 9.66406 9.39844 9.75781 9.26562 9.75781C9.00781 9.75781 8.15625 9.03125 7.71094 9.03125C7.1875 9.03125 6.58594 9.58594 6.58594 10.0859C6.58594 10.8047 8.03125 11.9922 8.76562 11.9922C9.20312 11.9922 9.98438 11.4375 10.2344 11.4375C10.75 11.4375 12.2109 12.6641 12.2109 13.0781C12.2109 14 9.70312 17.4609 9.02344 17.4609C8.84375 17.4609 8.61719 17.2891 8.61719 17.1406ZM8.71875 18.9062C4.94531 18.9062 1.8125 15.7734 1.8125 12C1.8125 10.6484 2.21094 9.38281 2.89844 8.30469C2.97656 9.01562 3.42188 9.82031 4.46875 10.7422L5.71094 11.8359C6 12.0938 6.14844 12.1953 6.14844 12.3125C6.14844 12.4844 5.92969 12.8516 5.92969 13.3281C5.92969 13.7734 6.14844 14.1719 6.59375 14.5C7.50781 15.1875 8.125 15.5625 8.125 15.7656C8.13281 16.2422 7.82812 16.6328 7.82812 17.1719C7.82812 17.7109 8.47656 18.25 9.04688 18.25C10.1719 18.25 13 14.5156 13 13.0781C13 12.2109 11.2031 10.6562 10.2344 10.6562C9.78906 10.6562 9.15625 11.2031 8.76562 11.2031C8.40625 11.2031 7.375 10.3828 7.375 10.0859C7.375 9.96875 7.5625 9.82031 7.71094 9.82031C7.9375 9.82031 8.74219 10.5469 9.19531 10.5469C9.85156 10.5469 10.2812 10.1172 10.2812 9.4375C10.2812 9.20312 10.1875 8.97656 9.98438 8.6875C10.8125 8.26562 12.2656 7.46875 12.8203 6.46875C14.5156 7.74219 15.625 9.75781 15.625 12C15.625 15.7734 12.4922 18.9062 8.71875 18.9062Z"
		fill="currentColor"
	/>
</svg>
