<svg
	color="rgb(var(--foreground, 0, 0, 0))"
	viewBox="0 0 17 24"
	fill="none"
	xmlns="http://www.w3.org/2000/svg"
>
	<path
		d="M8.78125 19.9688C13.1406 19.9688 16.75 16.3516 16.75 12C16.75 7.64062 13.1328 4.03125 8.77344 4.03125C4.42188 4.03125 0.8125 7.64062 0.8125 12C0.8125 16.3516 4.42969 19.9688 8.78125 19.9688ZM8.78125 18.9062C5.00781 18.9062 1.875 15.7734 1.875 12C1.875 10.5 2.36719 9.10156 3.20312 7.96094C3.16406 8.75781 3.78125 9.63281 4.84375 10.5547L5.98438 11.5469C6.34375 11.8672 6.55469 12.0156 6.55469 12.2188C6.55469 12.5547 6.17969 12.7891 6.17969 13.2188C6.17969 13.6094 6.36719 13.9453 6.77344 14.2422C8.03906 15.1953 8.34375 15.3281 8.34375 15.6172C8.35156 16.1328 8.04688 16.5234 8.04688 17C8.04688 17.4297 8.60156 17.9062 9.09375 17.9062C10.0938 17.9062 12.8281 14.3125 12.8281 12.9688C12.8281 12.2109 11.1406 10.7344 10.2578 10.7344C9.875 10.7344 9.25781 11.2812 8.8125 11.2812C8.36719 11.2812 7.36719 10.4062 7.36719 10.0234C7.36719 9.80469 7.55469 9.67969 7.77344 9.67969C8.15625 9.67969 8.75781 10.3203 9.36719 10.3203C9.875 10.3203 10.1484 9.96875 10.1484 9.46094C10.1484 9.19531 10 8.92969 9.78125 8.58594C10.5703 8.20312 12.1406 7.38281 12.6953 6.33594C14.4922 7.58594 15.6875 9.67188 15.6875 12C15.6875 15.7734 12.5547 18.9062 8.78125 18.9062Z"
		fill="currentColor"
	/>
</svg>
