<svg
	color="rgb(var(--foreground, 0, 0, 0))"
	viewBox="0 0 17 24"
	fill="none"
	xmlns="http://www.w3.org/2000/svg"
>
	<path
		d="M8.53125 19.9688C12.8906 19.9688 16.5 16.3516 16.5 12C16.5 7.64062 12.8828 4.03125 8.52344 4.03125C4.17188 4.03125 0.5625 7.64062 0.5625 12C0.5625 16.3516 4.17969 19.9688 8.53125 19.9688ZM8.375 13.6875C8.19531 12.5312 7.61719 12.8359 7.32031 12.0547L6.88281 10.9375C6.71094 10.4766 6.39844 10.3047 6.0625 10.3047C5.70312 10.3047 5.41406 10.5703 5.28125 10.5703C5.17188 10.5703 4.78906 10.2266 4.57812 10.0391C4.22656 9.72656 3.89844 9.46875 3.53906 9.46875C2.96875 9.46875 2.47656 10.0234 2.47656 10.5234C2.47656 11.2969 4.125 11.9922 4.125 12.4766C4.125 13.0703 3.36719 12.9922 3.36719 14.1484C3.36719 14.9531 2.98438 15.0781 2.41406 15.1797C1.91406 14.2266 1.625 13.1406 1.625 12C1.625 10.5938 2.0625 9.28125 2.79688 8.17969C3.01562 8.55469 3.35938 8.80469 3.76562 8.80469C4.25 8.80469 4.66406 8.48438 4.78125 8C4.83594 7.79688 4.89062 7.71094 5.04688 7.61719C5.38281 7.42969 5.53906 7.21875 5.53906 6.85156C5.53906 6.57812 5.39844 6.30469 5.14844 5.99219C6.14844 5.42188 7.30469 5.09375 8.52344 5.09375C12.2969 5.09375 15.4375 8.22656 15.4375 12C15.4375 12.7266 15.3203 13.4375 15.1016 14.1016C13.1953 13.8594 13.6094 11.7734 12.1953 11.7734C11.2891 11.7734 9.66406 13.3203 9.66406 14.75C9.66406 15.8047 9.57031 16.1719 9.24219 16.1719C8.83594 16.1719 8.625 15.375 8.375 13.6875ZM4.75 6.82031C4.75 7.08594 4.25781 7.05469 4.14844 7.61719C4.09375 7.89062 3.91406 8.01562 3.75781 8.01562C3.61719 8.01562 3.35938 7.85156 3.33594 7.47656C3.6875 7.07812 4.07812 6.71875 4.5 6.41406C4.67188 6.58594 4.75 6.6875 4.75 6.82031ZM8.53125 18.9062C6.19531 18.9062 4.09375 17.6953 2.84375 15.8828C3.6875 15.6406 4.15625 15.1719 4.15625 14.1719C4.15625 13.3281 4.91406 13.2656 4.91406 12.3906C4.91406 12 4.53906 11.6875 3.88281 11.1484L3.36719 10.7344C3.30469 10.6875 3.26562 10.6094 3.26562 10.5391C3.26562 10.3906 3.39844 10.2578 3.53906 10.2578C3.64844 10.2578 3.75 10.3594 4.09375 10.6562C4.64844 11.125 4.9375 11.3828 5.29688 11.3828C5.67188 11.3828 5.78906 11.1641 5.98438 11.1641C6.10156 11.1641 6.17969 11.2344 6.24219 11.4062L6.55469 12.2656C6.88281 13.2188 7.49219 13.1328 7.60156 13.8125C7.92969 16.0547 8.32031 16.9609 9.24219 16.9609C10.1562 16.9609 10.4531 16.125 10.4531 14.75C10.4531 13.6797 11.7266 12.5625 12.1953 12.5625C12.7188 12.5625 12.9531 14.4688 14.8125 14.8438C13.7109 17.2266 11.2891 18.9062 8.53125 18.9062Z"
		fill="currentColor"
	/>
</svg>
