<svg
	color="rgb(var(--foreground, 0, 0, 0))"
	viewBox="0 0 17 24"
	fill="none"
	xmlns="http://www.w3.org/2000/svg"
>
	<path
		d="M8.46875 19.9688C12.8281 19.9688 16.4375 16.3516 16.4375 12C16.4375 7.64062 12.8203 4.03125 8.46094 4.03125C4.10938 4.03125 0.5 7.64062 0.5 12C0.5 16.3516 4.11719 19.9688 8.46875 19.9688ZM4.94531 6.88281C4.94531 7.17188 4.38281 7.26562 4.28906 7.77344C4.22656 8.08594 4.00781 8.3125 3.74219 8.3125C3.52344 8.3125 3.23438 8.14062 3.07031 7.72656C3.51562 7.16406 4.04688 6.67188 4.64062 6.27344C4.89062 6.625 4.94531 6.69531 4.94531 6.88281ZM8.46875 18.9062C6.08594 18.9062 3.95312 17.6484 2.71094 15.7734C3.65625 15.5156 3.97656 15.0312 3.97656 14.1719C3.97656 13.2109 4.73438 13.1797 4.73438 12.3906C4.73438 12.0547 4.39844 11.8047 3.75 11.2578L3.23438 10.8281C3.14062 10.75 3.10156 10.6484 3.10156 10.5391C3.10156 10.3359 3.25 10.1406 3.47656 10.1406C3.625 10.1406 3.71875 10.2344 4.10938 10.5703C4.66406 11.0391 4.92188 11.2656 5.23438 11.2656C5.5625 11.2656 5.70312 11.0469 5.92188 11.0469C6.10156 11.0469 6.21094 11.1562 6.28906 11.3672L6.55469 12.0859C6.85938 12.9688 7.57031 12.8516 7.73438 13.7969C8.11719 16.1094 8.46094 16.8438 9.17969 16.8438C9.85938 16.8438 10.2734 16.2188 10.2734 14.75C10.2734 13.5234 11.625 12.4453 12.1328 12.4453C12.7812 12.4453 12.9688 14.375 14.7969 14.7344C13.7188 17.1719 11.2734 18.9062 8.46875 18.9062Z"
		fill="currentColor"
	/>
</svg>
