<svg
	color="rgb(var(--foreground, 0, 0, 0))"
	viewBox="0 0 17 24"
	fill="none"
	xmlns="http://www.w3.org/2000/svg"
>
	<path
		d="M8.84375 19.9688C13.2031 19.9688 16.8125 16.3516 16.8125 12C16.8125 7.64062 13.1953 4.03125 8.83594 4.03125C4.48438 4.03125 0.875 7.64062 0.875 12C0.875 16.3516 4.49219 19.9688 8.84375 19.9688ZM8.36719 14.7812C8.36719 13.6406 7.46094 12.7812 6.25781 12.7812C5.32812 12.7812 4.88281 12.3281 4.88281 11.4531C4.88281 10.2344 6.16406 9.4375 7.38281 9.4375C8.20312 9.4375 8.85156 9.85156 9.49219 9.85156C10.0156 9.85156 10.3828 9.07031 10.3828 8.49219C10.3828 7.76562 8.84375 6.96094 8.375 6.96094C8.02344 6.96094 7.85938 7.14844 7.80469 7.55469L7.70312 7.46875C7.375 7.22656 7.11719 7.08594 6.82031 7.08594C6.07031 7.08594 6.03906 8.09375 5.64062 8.09375C5.53906 8.09375 5.46875 8.02344 5.46875 7.91406C5.46875 7.57031 6.30469 6.86719 6.3125 5.89844L6.32031 5.57812C7.10156 5.26562 7.95312 5.09375 8.83594 5.09375C12.6094 5.09375 15.75 8.22656 15.75 12C15.75 12.2266 15.7422 12.4609 15.7188 12.6797C15.0234 12.0781 15.2344 9.88281 14.2656 9.88281C13.9219 9.88281 13.7109 10.1875 13.5781 10.1875C13.4922 10.1875 13.2891 10.0156 12.8281 9.64062C12.6016 9.46094 12.3672 9.21875 11.9453 9.21875C11.4297 9.21875 10.9297 9.80469 10.9297 10.3438C10.9297 11.1953 12.4844 11.6406 12.4844 11.9375C12.4844 12.1172 12.4141 12.2578 12.125 12.5859C11.8047 12.9453 11.6562 13.1875 11.6562 13.4922C11.6562 13.625 11.6719 13.75 11.6797 13.8672C11.7188 14.3906 11.6953 14.5859 11.5469 14.8359C11.1875 15.3906 10.1641 17.2188 9.17188 17.2188C8.28906 17.2188 8.36719 15.9531 8.36719 14.7812ZM8.84375 18.9062C5.07031 18.9062 1.9375 15.7734 1.9375 12C1.9375 9.39844 3.42188 7.10156 5.57812 5.92969V5.96875C5.57812 6.90625 4.74219 7.25 4.74219 7.99219C4.74219 8.44531 5.0625 8.74219 5.55469 8.74219C6.48438 8.74219 6.5 7.75781 6.875 7.75781C7.17188 7.76562 7.51562 8.28125 8.10938 8.28125C8.42188 8.28125 8.59375 8.09375 8.625 7.75C9.07812 7.9375 9.64062 8.25781 9.64062 8.5625C9.64062 8.76562 9.55469 9.0625 9.39062 9.0625C9.05469 9.0625 8.17188 8.64844 7.38281 8.64844C5.73438 8.64844 4.09375 9.79688 4.09375 11.4531C4.09375 12.7734 4.875 13.5703 6.25781 13.5703C7.01562 13.5703 7.57812 14.0781 7.57812 14.7812C7.57812 15.9375 7.44531 18.0078 9.17188 18.0078C10.6562 18.0078 11.9062 15.7422 12.2266 15.2109C12.6328 14.5469 12.4453 13.8828 12.4453 13.4922C12.4453 13.25 13.2734 12.6484 13.2734 11.9375C13.2734 11.2188 11.6719 10.625 11.6719 10.3359C11.6719 10.1484 11.8281 9.92188 11.9844 9.92188C12.2891 9.92188 13.1328 11.0078 13.6484 11.0078C13.9609 11.0078 14.0547 10.7344 14.1797 10.7344C14.3906 10.7344 14.5547 12.9844 15.5781 13.5078C14.8828 16.5703 12.1016 18.9062 8.84375 18.9062ZM11.2812 7.24219C11.4531 7.24219 11.6094 7.40625 11.8984 7.40625C12.0781 7.40625 12.2109 7.24219 12.2109 7.03125C12.2109 6.64844 11.7812 6.35938 11.2188 6.35938C10.5547 6.35938 10.1719 6.57812 10.1719 6.96094C10.1719 7.21094 10.3594 7.39062 10.6094 7.39062C10.8672 7.39062 10.9844 7.24219 11.2812 7.24219Z"
		fill="currentColor"
	/>
</svg>
