<svg
	color="rgb(var(--foreground, 0, 0, 0))"
	viewBox="0 0 17 24"
	fill="none"
	xmlns="http://www.w3.org/2000/svg"
>
	<path
		d="M8.90625 19.9688C13.2656 19.9688 16.875 16.3516 16.875 12C16.875 7.64062 13.2578 4.03125 8.89844 4.03125C4.54688 4.03125 0.9375 7.64062 0.9375 12C0.9375 16.3516 4.55469 19.9688 8.90625 19.9688ZM8.90625 18.9062C5.13281 18.9062 2 15.7734 2 12C2 9.35156 3.53906 7.02344 5.75781 5.86719C5.73438 5.96094 5.71875 6.04688 5.71875 6.14062C5.71875 7.16406 4.88281 7.39844 4.88281 8.01562C4.88281 8.40625 5.15625 8.66406 5.57812 8.66406C6.48438 8.66406 6.47656 7.67969 6.9375 7.67969C7.28125 7.6875 7.60156 8.20312 8.17188 8.20312C8.42969 8.20312 8.55469 8.03906 8.57031 7.80469C8.58594 7.70312 8.63281 7.65625 8.72656 7.65625C9.22656 7.65625 9.78125 8.21875 9.78125 8.5625C9.78125 8.89062 9.65625 9.14062 9.45312 9.14062C9.10156 9.14062 8.22656 8.72656 7.44531 8.72656C5.69531 8.72656 4.23438 9.96875 4.23438 11.4531C4.23438 12.7422 4.99219 13.4922 6.32031 13.4922C7.125 13.4922 7.71875 14.0391 7.71875 14.7812C7.71875 15.9375 7.59375 17.9297 9.23438 17.9297C10.6719 17.9297 11.8984 15.7031 12.2188 15.1719C12.6172 14.5312 12.4297 13.8906 12.4297 13.4922C12.4297 13.2109 13.2578 12.6172 13.2578 11.9375C13.2578 11.25 11.6562 10.7031 11.6562 10.3125C11.6562 10.0625 11.8438 9.84375 12.0469 9.84375C12.3906 9.84375 13.2344 10.9297 13.7109 10.9297C14.0234 10.9297 14.0469 10.6562 14.2188 10.6562C14.5859 10.6562 14.6719 12.625 15.6875 13.3047C15.0625 16.4688 12.2344 18.9062 8.90625 18.9062ZM11.2031 7.28906C10.9141 7.28906 10.7969 7.4375 10.5469 7.4375C10.3047 7.4375 10.125 7.26562 10.125 7.02344C10.125 6.64844 10.5 6.4375 11.1406 6.4375C11.6875 6.4375 12.1016 6.71875 12.1016 7.08594C12.1016 7.28906 11.9688 7.45312 11.7969 7.45312C11.5156 7.45312 11.3672 7.28906 11.2031 7.28906Z"
		fill="currentColor"
	/>
</svg>
