<svg
	color="rgb(var(--foreground, 0, 0, 0))"
	viewBox="0 0 17 24"
	fill="none"
	xmlns="http://www.w3.org/2000/svg"
>
	<path
		d="M8.65625 19.9688C13.0156 19.9688 16.625 16.3516 16.625 12C16.625 7.64062 13.0078 4.03125 8.64844 4.03125C4.29688 4.03125 0.6875 7.64062 0.6875 12C0.6875 16.3516 4.30469 19.9688 8.65625 19.9688ZM1.75 12C1.75 8.22656 4.875 5.09375 8.64844 5.09375C9.5625 5.09375 10.4453 5.28125 11.25 5.60938C11.0078 5.79688 10.8594 6.00781 10.8594 6.24219C10.8594 6.86719 12.0156 7.22656 12.0156 7.60156C12.0156 7.96094 11.3516 8.36719 10.8594 8.63281C10.0234 9.10938 10.0859 9.32812 9.97656 9.57031C9.78125 9.92188 9.39844 9.19531 8.75 9.19531C8.35938 9.19531 8.0625 9.44531 8.0625 9.83594C8.0625 10.4375 8.77344 11 8.77344 11.4219C8.77344 11.9219 8.19531 12.4062 7.20312 12.4062C6.65625 12.4062 6.35938 12.6484 6.35938 13.0703C6.35938 13.4844 6.875 13.875 6.875 14.0781C6.875 14.2266 6.75781 14.375 6.66406 14.375C6.5 14.375 6.14062 14.0781 5.5625 13.3438C5.05469 12.6797 4.58594 12.3047 4.10938 12.3047C3.4375 12.3047 3.01562 12.8594 2.77344 13.3047L2.1875 14.3906C1.90625 13.6406 1.75 12.8359 1.75 12ZM8.65625 18.9062C6.05469 18.9062 3.75781 17.4141 2.58594 15.2578L3.35938 13.7734C3.57812 13.3594 3.8125 13.0938 4.0625 13.0938C4.30469 13.0938 4.5625 13.3438 4.9375 13.8281C5.65625 14.7578 6.14844 15.2344 6.64844 15.2344C7.13281 15.2344 7.69531 14.5469 7.69531 14.0781C7.69531 13.7344 7.22656 13.4141 7.22656 13.2422C7.22656 13.1641 7.29688 13.1172 7.42969 13.1172C8.57031 13.1172 9.5625 12.1797 9.5625 11.4219C9.5625 10.7109 8.78906 10.1719 8.78906 9.92969C8.78906 9.88281 8.82812 9.84375 8.875 9.84375C8.94531 9.84375 9.03906 9.92188 9.21875 10.0625C10.0938 10.7578 10.5312 10.3672 10.6094 9.92969C10.6406 9.75781 10.7344 9.58594 11.1641 9.36719C11.9766 8.94531 12.8047 8.21094 12.8047 7.60156C12.8047 6.8125 11.7422 6.47656 11.7422 6.28906C11.7422 6.20312 11.8672 6.125 12.1094 6.03906C14.1641 7.25 15.5625 9.48438 15.5625 12C15.5625 12.7188 15.4531 13.4141 15.2422 14.0625C15 13.6641 14.6484 13.4453 14.2344 13.4453C14.0547 13.4453 13.8203 13.4766 13.6094 13.5469C13.3516 13.6328 13.3125 13.6172 13.1094 13.3828C12.7891 13.0156 12.5078 12.8828 12.0625 12.8828C11.2734 12.8828 10.7656 13.2656 10.3906 14.3906C10.2969 14.6953 10.1641 14.7969 9.625 15L9.29688 15.1172C8.67969 15.3516 8.5 15.8047 8.71875 16.7578C8.91406 17.5938 9.32031 18.0156 9.89062 18.0156C10.3984 18.0156 10.7031 17.8359 11.0391 17.8359C11.3438 17.8281 11.5469 17.9453 11.7422 18.1641C10.8125 18.6328 9.76562 18.9062 8.65625 18.9062ZM10.5391 11.5234C11.0469 11.5234 11.2734 11.0703 11.8438 10.8984C12.2188 10.7891 12.4219 10.4062 12.4219 10.0781C12.4219 9.8125 12.2891 9.58594 12 9.58594C11.6953 9.58594 11.4141 9.82031 11.2266 10.2188C11.125 10.4453 10.9531 10.5547 10.5391 10.6719C10.2109 10.7734 10.0938 10.8906 10.0938 11.1406C10.0938 11.4062 10.3047 11.5234 10.5391 11.5234ZM8.27344 15.1328C8.71875 15.1328 9.15625 14.6172 9.15625 14.1562C9.15625 13.5859 8.92188 13.3203 8.64844 13.3203C8.35156 13.3203 8.16406 13.6719 8.16406 14.2031C8.16406 14.5078 7.89844 14.5156 7.89844 14.8203C7.89844 15.0078 8.04688 15.1328 8.27344 15.1328ZM11.0391 17.0312C10.4688 17.0312 10.3516 17.2188 9.96094 17.2188C9.72656 17.2188 9.60156 17.0156 9.5 16.5859C9.40625 16.2109 9.36719 15.9375 9.60938 15.8359C9.89062 15.7266 10.8359 15.6172 11.1562 14.6172C11.3828 13.9375 11.5938 13.6719 11.9688 13.6719C12.6406 13.6719 12.5312 14.3828 13.3359 14.3828C13.6875 14.3828 13.875 14.2344 14.125 14.2344C14.4375 14.2344 14.6641 14.5234 14.75 15.2188C14.2031 16.2422 13.3984 17.1172 12.4375 17.7578C12.125 17.3828 11.7109 17.0312 11.0391 17.0312ZM6.90625 16.5625C7.25 16.5625 7.46094 16.3828 7.46094 16.1016C7.46094 15.8828 7.29688 15.7422 7.0625 15.7422C6.11719 15.7422 6.07812 15.2109 5.625 15.2109C5.375 15.2109 5.20312 15.3594 5.20312 15.5781C5.20312 15.75 5.375 15.8828 5.60938 15.8828C6.10938 15.8828 5.875 16.5625 6.90625 16.5625Z"
		fill="currentColor"
	/>
</svg>
