<svg
	color="rgb(var(--foreground, 0, 0, 0))"
	viewBox="0 0 17 24"
	fill="none"
	xmlns="http://www.w3.org/2000/svg"
>
	<path
		d="M8.59375 19.9688C12.9531 19.9688 16.5625 16.3516 16.5625 12C16.5625 7.64062 12.9453 4.03125 8.58594 4.03125C4.23438 4.03125 0.625 7.64062 0.625 12C0.625 16.3516 4.24219 19.9688 8.59375 19.9688ZM8.59375 18.9062C6.02344 18.9062 3.74219 17.4453 2.55469 15.3203C3.58594 14.4219 3.57031 13.0547 4 13.0547C4.24219 13.0547 4.48438 13.2656 4.90625 13.8047C5.625 14.7344 6.10156 15.1953 6.58594 15.1953C7.03906 15.1953 7.59375 14.5312 7.59375 14C7.59375 13.75 7.125 13.4297 7.125 13.2422C7.125 13.1328 7.23438 13.0781 7.39062 13.0781C8.49219 13.0781 9.46094 12.1562 9.46094 11.4219C9.46094 10.8984 8.60938 10.4141 8.60938 10.0781C8.60938 9.9375 8.72656 9.84375 8.86719 9.84375C8.96094 9.84375 9.07031 9.88281 9.21094 9.98438C10.0625 10.6562 10.4609 10.3047 10.5391 9.875C10.5703 9.69531 10.6719 9.50781 11.1172 9.28906C12.0469 8.79688 12.7031 8.125 12.7031 7.60156C12.7031 7.01562 11.6406 6.51562 11.6406 6.28906C11.6406 6.19531 11.7422 6.10938 12 6.01562C14.0781 7.21094 15.5 9.46094 15.5 12C15.5 12.7344 15.3828 13.4453 15.1641 14.1094C14.9297 13.7031 14.5859 13.4844 14.1719 13.4844C13.9922 13.4844 13.7656 13.5156 13.5625 13.5859C13.2891 13.6719 13.2344 13.6562 13.0156 13.4062C12.7031 13.0469 12.4297 12.9219 12 12.9219C11.1875 12.9219 10.7188 13.3438 10.3672 14.3984C10.2656 14.7188 10.125 14.8281 9.57812 15.0391L9.25 15.1562C8.64062 15.3906 8.48438 15.8281 8.69531 16.75C8.88281 17.5625 9.27344 17.9766 9.82812 17.9766C10.3281 17.9766 10.6328 17.7969 10.9766 17.7969C11.2969 17.7891 11.5156 17.9141 11.7188 18.1406C10.7812 18.625 9.71094 18.9062 8.59375 18.9062ZM10.4766 11.5234C10.9844 11.5234 11.2109 11.0703 11.7812 10.8984C12.1562 10.7891 12.3594 10.4062 12.3594 10.0781C12.3594 9.8125 12.2266 9.58594 11.9375 9.58594C11.6328 9.58594 11.3516 9.82031 11.1641 10.2188C11.0625 10.4453 10.8906 10.5547 10.4766 10.6719C10.1484 10.7734 10.0312 10.8906 10.0312 11.1406C10.0312 11.4062 10.2422 11.5234 10.4766 11.5234ZM8.21094 15.1328C8.65625 15.1328 9.09375 14.6172 9.09375 14.1562C9.09375 13.5859 8.85938 13.3203 8.58594 13.3203C8.28906 13.3203 8.10156 13.6719 8.10156 14.2031C8.10156 14.5078 7.83594 14.5156 7.83594 14.8203C7.83594 15.0078 7.98438 15.1328 8.21094 15.1328ZM6.84375 16.5625C7.1875 16.5625 7.39844 16.3828 7.39844 16.1016C7.39844 15.8828 7.23438 15.7422 7 15.7422C6.05469 15.7422 6.01562 15.2109 5.5625 15.2109C5.3125 15.2109 5.14062 15.3594 5.14062 15.5781C5.14062 15.75 5.3125 15.8828 5.54688 15.8828C6.04688 15.8828 5.8125 16.5625 6.84375 16.5625Z"
		fill="currentColor"
	/>
</svg>
