<svg
	color="rgb(var(--foreground, 0, 0, 0))"
	viewBox="0 0 16 24"
	fill="none"
	xmlns="http://www.w3.org/2000/svg"
>
	<path
		d="M7.96875 19.9688C12.3281 19.9688 15.9375 16.3516 15.9375 12C15.9375 7.64062 12.3203 4.03125 7.96094 4.03125C3.60938 4.03125 0 7.64062 0 12C0 16.3516 3.61719 19.9688 7.96875 19.9688ZM3.29688 6.9375C4.07812 6.21094 5.03125 5.66406 6.07812 5.35938C5.53906 5.90625 5.07812 6.67969 4.73438 7.63281C4.17969 7.45312 3.69531 7.21875 3.29688 6.9375ZM9.86719 5.36719C10.9062 5.67188 11.8516 6.21875 12.6406 6.94531C12.2422 7.22656 11.7578 7.45312 11.2031 7.63281C10.8594 6.6875 10.3984 5.91406 9.86719 5.36719ZM5.74219 7.89062C6.17969 6.69531 6.78906 5.83594 7.46094 5.53906V8.07031C6.84375 8.04688 6.27344 7.98438 5.74219 7.89062ZM8.48438 5.53906C9.14844 5.83594 9.75781 6.69531 10.1953 7.89062C9.66406 7.98438 9.09375 8.04688 8.48438 8.07031V5.53906ZM1.07812 11.4844C1.1875 10.0625 1.74219 8.74219 2.60156 7.67969C3.08594 8.04688 3.71094 8.35156 4.4375 8.58594C4.21094 9.46094 4.07031 10.4375 4.03125 11.4844H1.07812ZM11.9062 11.4844C11.8672 10.4375 11.7266 9.46094 11.5 8.58594C12.2266 8.35156 12.8516 8.04688 13.3281 7.6875C14.1953 8.74219 14.75 10.0625 14.8594 11.4844H11.9062ZM8.48438 11.4844V9.09375C9.1875 9.07031 9.85938 8.98438 10.4922 8.85156C10.6953 9.65625 10.8203 10.5469 10.8594 11.4844H8.48438ZM5.07812 11.4844C5.11719 10.5469 5.25 9.65625 5.44531 8.85156C6.07812 8.98438 6.75 9.07031 7.46094 9.09375V11.4844H5.07812ZM1.07812 12.5078H4.03125C4.07031 13.5781 4.21094 14.5625 4.4375 15.4453C3.71875 15.6797 3.10156 15.9844 2.625 16.3438C1.75 15.2734 1.1875 13.9453 1.07812 12.5078ZM5.07812 12.5078H7.46094V14.9453C6.75781 14.9688 6.08594 15.0547 5.46094 15.1797C5.25 14.3672 5.10938 13.4609 5.07812 12.5078ZM8.48438 14.9453V12.5078H10.8594C10.8281 13.4609 10.6875 14.3672 10.4766 15.1797C9.85938 15.0547 9.17969 14.9688 8.48438 14.9453ZM11.5 15.4453C11.7266 14.5625 11.8672 13.5781 11.9062 12.5078H14.8594C14.75 13.9453 14.1875 15.2734 13.3125 16.3438C12.8359 15.9844 12.2188 15.6797 11.5 15.4453ZM8.48438 15.9688C9.08594 15.9922 9.65625 16.0469 10.1797 16.1484C9.74219 17.3125 9.14062 18.1719 8.48438 18.4688V15.9688ZM5.75781 16.1484C6.28125 16.0469 6.85156 15.9922 7.46094 15.9688V18.4688C6.79688 18.1719 6.19531 17.3125 5.75781 16.1484ZM11.1953 16.3984C11.7422 16.5781 12.2188 16.8047 12.6172 17.0781C11.8359 17.7891 10.9062 18.3281 9.875 18.6328C10.3984 18.0938 10.8516 17.3281 11.1953 16.3984ZM3.32031 17.0781C3.71875 16.8047 4.19531 16.5781 4.74219 16.3984C5.08594 17.3281 5.53906 18.0938 6.07031 18.6328C5.03906 18.3281 4.10156 17.7891 3.32031 17.0781Z"
		fill="currentColor"
	/>
</svg>
