<svg
	color="rgb(var(--foreground, 0, 0, 0))"
	viewBox="0 0 21 24"
	fill="none"
	xmlns="http://www.w3.org/2000/svg"
>
	<path
		d="M6.36094 20.551H14.2984C14.9703 20.551 15.5042 20.3557 15.9 19.965C16.2958 19.5744 16.499 19.0458 16.5094 18.3791L16.6109 10.7541L18.4781 11.1838C18.8531 11.2671 19.1604 11.2333 19.4 11.0822C19.6396 10.926 19.8089 10.6551 19.9078 10.2697L20.5953 7.49628C20.6943 7.11608 20.6708 6.79316 20.525 6.52753C20.3844 6.2567 20.1344 6.04576 19.775 5.89472L14.3375 3.57441C14.1344 3.48587 13.9547 3.4442 13.7984 3.44941C13.6474 3.44941 13.4885 3.48847 13.3219 3.5666C12.9833 3.72805 12.6578 3.86347 12.3453 3.97285C12.038 4.07701 11.7203 4.15774 11.3922 4.21503C11.0693 4.27233 10.7151 4.30097 10.3297 4.30097C9.94427 4.30097 9.5875 4.27233 9.25937 4.21503C8.93646 4.15774 8.61875 4.07701 8.30625 3.97285C7.99896 3.86347 7.67344 3.72805 7.32969 3.5666C7.16823 3.48847 7.00938 3.44941 6.85313 3.44941C6.69688 3.4442 6.51719 3.48587 6.31406 3.57441L0.884375 5.89472C0.519792 6.04576 0.267188 6.2567 0.126563 6.52753C-0.0140625 6.79316 -0.0375 7.11608 0.05625 7.49628L0.751562 10.2697C0.845312 10.6551 1.01198 10.926 1.25156 11.0822C1.49635 11.2333 1.80625 11.2671 2.18125 11.1838L4.04844 10.7541L4.15 18.3791C4.16042 19.0458 4.36094 19.5744 4.75156 19.965C5.1474 20.3557 5.68385 20.551 6.36094 20.551ZM6.37656 19.3478C6.05885 19.3478 5.80885 19.2567 5.62656 19.0744C5.44948 18.8921 5.35833 18.6395 5.35313 18.3166L5.24375 9.60566C5.24375 9.51191 5.2099 9.43899 5.14219 9.38691C5.07969 9.32962 4.99375 9.31139 4.88438 9.33222L2.15 9.9416C1.99896 9.97805 1.90521 9.92597 1.86875 9.78535L1.25156 7.32441C1.22552 7.23066 1.22552 7.16035 1.25156 7.11347C1.28281 7.0666 1.3375 7.02753 1.41562 6.99628L7.03281 4.59785C7.55885 4.87389 8.0849 5.08222 8.61094 5.22285C9.14219 5.36347 9.7151 5.43378 10.3297 5.43378C10.9443 5.43378 11.5146 5.36347 12.0406 5.22285C12.5719 5.08222 13.1005 4.87389 13.6266 4.59785L19.2437 6.99628C19.3167 7.02753 19.3687 7.0666 19.4 7.11347C19.4312 7.16035 19.4339 7.23066 19.4078 7.32441L18.7828 9.78535C18.7516 9.92597 18.6604 9.97805 18.5094 9.9416L15.775 9.33222C15.6656 9.31139 15.5771 9.32962 15.5094 9.38691C15.4469 9.43899 15.4156 9.51191 15.4156 9.60566L15.3062 18.3166C15.301 18.6395 15.2073 18.8921 15.025 19.0744C14.8479 19.2567 14.6005 19.3478 14.2828 19.3478H6.37656ZM10.3297 7.77753C10.9443 7.77753 11.5198 7.64472 12.0562 7.3791C12.5979 7.10826 13.0536 6.73847 13.4234 6.26972C13.7932 5.79576 14.0354 5.2567 14.15 4.65253L13.0094 4.15253C12.9573 4.61087 12.8036 5.02493 12.5484 5.39472C12.2932 5.7593 11.9703 6.04837 11.5797 6.26191C11.1943 6.47024 10.7776 6.57441 10.3297 6.57441C9.88177 6.57441 9.4625 6.47024 9.07187 6.26191C8.68646 6.04837 8.36615 5.7593 8.11094 5.39472C7.85573 5.02493 7.70208 4.61087 7.65 4.15253L6.50938 4.65253C6.62396 5.2567 6.86615 5.79576 7.23594 6.26972C7.60573 6.73847 8.05885 7.10826 8.59531 7.3791C9.13698 7.64472 9.7151 7.77753 10.3297 7.77753Z"
		fill="currentColor"
	/>
</svg>
