<svg
	color="rgb(var(--foreground, 0, 0, 0))"
	viewBox="0 0 22 24"
	fill="none"
	xmlns="http://www.w3.org/2000/svg"
>
	<path
		d="M6.97068 20.5081H14.916C15.6399 20.5081 16.179 20.331 16.5332 19.9769C16.8926 19.6279 17.0774 19.0941 17.0879 18.3753L17.1894 10.7034L19.1035 11.1409C19.4681 11.2191 19.7649 11.1852 19.9941 11.0394C20.2285 10.8935 20.3899 10.6331 20.4785 10.2581L21.1738 7.48469C21.2675 7.1149 21.2467 6.8024 21.1113 6.54719C20.9759 6.28677 20.7285 6.08104 20.3691 5.93L14.8691 3.58625C14.7129 3.51854 14.5618 3.48729 14.416 3.4925C14.2702 3.4925 14.1243 3.52636 13.9785 3.59406C13.6347 3.75552 13.304 3.89094 12.9863 4.00031C12.6738 4.10969 12.3509 4.19302 12.0176 4.25031C11.6894 4.30761 11.3327 4.33625 10.9472 4.33625C10.5566 4.33625 10.1946 4.30761 9.8613 4.25031C9.53318 4.19302 9.21026 4.10969 8.89255 4.00031C8.58005 3.89094 8.25193 3.75552 7.90818 3.59406C7.76234 3.52636 7.61651 3.4925 7.47068 3.4925C7.32484 3.48729 7.1738 3.51854 7.01755 3.58625L1.51755 5.93C1.16338 6.08104 0.915988 6.28677 0.775363 6.54719C0.639946 6.8024 0.619113 7.1149 0.712863 7.48469L1.40818 10.2581C1.49672 10.6331 1.65557 10.8935 1.88474 11.0394C2.11911 11.1852 2.41859 11.2191 2.78318 11.1409L4.70505 10.7034L4.7988 18.3753C4.80922 19.0941 4.99151 19.6279 5.34568 19.9769C5.70505 20.331 6.24672 20.5081 6.97068 20.5081ZM10.9472 6.77375C10.4993 6.77375 10.0983 6.70083 9.74411 6.555C9.39515 6.40917 9.09568 6.20083 8.84568 5.93C8.60088 5.65917 8.41078 5.33365 8.27536 4.95344C8.68161 5.10969 9.1113 5.22948 9.56443 5.31281C10.0228 5.39615 10.4837 5.43781 10.9472 5.43781C11.4056 5.43781 11.8613 5.39615 12.3144 5.31281C12.7728 5.22948 13.2051 5.10969 13.6113 4.95344C13.4811 5.32844 13.2936 5.65136 13.0488 5.92219C12.804 6.19302 12.5045 6.40396 12.1504 6.555C11.7962 6.70083 11.3952 6.77375 10.9472 6.77375Z"
		fill="currentColor"
	/>
</svg>
