<svg
	color="rgb(var(--foreground, 0, 0, 0))"
	viewBox="0 0 19 24"
	fill="none"
	xmlns="http://www.w3.org/2000/svg"
>
	<path
		d="M2.58594 19.5703H15.8438C16.651 19.5703 17.2552 19.3724 17.6562 18.9766C18.0573 18.5807 18.2578 17.9844 18.2578 17.1875V9.58594C18.2578 8.78385 18.0573 8.1875 17.6562 7.79688C17.2552 7.40104 16.651 7.20312 15.8438 7.20312H2.58594C1.78385 7.20312 1.17969 7.40104 0.773438 7.79688C0.372396 8.1875 0.171875 8.78385 0.171875 9.58594V17.1875C0.171875 17.9844 0.372396 18.5807 0.773438 18.9766C1.17969 19.3724 1.78385 19.5703 2.58594 19.5703ZM5.25 7.88281H6.46094V6.5C6.46094 6.20312 6.54427 5.97396 6.71094 5.8125C6.8776 5.65104 7.11458 5.57031 7.42188 5.57031H11.0078C11.3099 5.57031 11.5443 5.65104 11.7109 5.8125C11.8776 5.97396 11.9609 6.20312 11.9609 6.5V7.86719H13.1719V6.58594C13.1719 5.85156 12.9844 5.3099 12.6094 4.96094C12.2344 4.60677 11.6927 4.42969 10.9844 4.42969H7.4375C6.77083 4.42969 6.23958 4.60677 5.84375 4.96094C5.44792 5.3099 5.25 5.85156 5.25 6.58594V7.88281Z"
		fill="currentColor"
	/>
</svg>
