<svg
	color="rgb(var(--foreground, 0, 0, 0))"
	viewBox="0 0 19 24"
	fill="none"
	xmlns="http://www.w3.org/2000/svg"
>
	<path
		d="M2.5 19.5703H15.7578C16.5651 19.5703 17.1693 19.3724 17.5703 18.9766C17.9714 18.5807 18.1719 17.9844 18.1719 17.1875V9.58594C18.1719 8.78385 17.9714 8.1875 17.5703 7.79688C17.1693 7.40104 16.5651 7.20312 15.7578 7.20312H2.5C1.69792 7.20312 1.09375 7.40104 0.6875 7.79688C0.286458 8.1875 0.0859375 8.78385 0.0859375 9.58594V17.1875C0.0859375 17.9844 0.286458 18.5807 0.6875 18.9766C1.09375 19.3724 1.69792 19.5703 2.5 19.5703ZM2.51562 18.3203C2.13542 18.3203 1.84375 18.2214 1.64062 18.0234C1.44271 17.8255 1.34375 17.526 1.34375 17.125V9.64844C1.34375 9.2474 1.44271 8.94792 1.64062 8.75C1.84375 8.55208 2.13542 8.45312 2.51562 8.45312H15.7422C16.1224 8.45312 16.4115 8.55208 16.6094 8.75C16.8125 8.94792 16.9141 9.2474 16.9141 9.64844V17.125C16.9141 17.526 16.8125 17.8255 16.6094 18.0234C16.4115 18.2214 16.1224 18.3203 15.7422 18.3203H2.51562ZM5.16406 7.88281H6.375V6.5C6.375 6.20312 6.45833 5.97396 6.625 5.8125C6.79167 5.65104 7.02865 5.57031 7.33594 5.57031H10.9219C11.224 5.57031 11.4583 5.65104 11.625 5.8125C11.7917 5.97396 11.875 6.20312 11.875 6.5V7.86719H13.0859V6.58594C13.0859 5.85156 12.8984 5.3099 12.5234 4.96094C12.1484 4.60677 11.6068 4.42969 10.8984 4.42969H7.35156C6.6849 4.42969 6.15365 4.60677 5.75781 4.96094C5.36198 5.3099 5.16406 5.85156 5.16406 6.58594V7.88281Z"
		fill="currentColor"
	/>
</svg>
