<svg
	color="rgb(var(--foreground, 0, 0, 0))"
	viewBox="0 0 19 24"
	fill="none"
	xmlns="http://www.w3.org/2000/svg"
>
	<path
		d="M3.79688 7.20312H5.05469V19.5703H3.79688V7.20312ZM14.7891 7.20312H16.0469V19.5703H14.7891V7.20312ZM3.29688 19.5703H16.5547C17.362 19.5703 17.9661 19.3724 18.3672 18.9766C18.7682 18.5807 18.9688 17.9844 18.9688 17.1875V9.58594C18.9688 8.78385 18.7682 8.1875 18.3672 7.79688C17.9661 7.40104 17.362 7.20312 16.5547 7.20312H3.29688C2.49479 7.20312 1.89062 7.40104 1.48438 7.79688C1.08333 8.1875 0.882812 8.78385 0.882812 9.58594V17.1875C0.882812 17.9844 1.08333 18.5807 1.48438 18.9766C1.89062 19.3724 2.49479 19.5703 3.29688 19.5703ZM5.96094 7.88281H7.17188V6.5C7.17188 6.20312 7.25521 5.97396 7.42188 5.8125C7.58854 5.65104 7.82552 5.57031 8.13281 5.57031H11.7188C12.0208 5.57031 12.2552 5.65104 12.4219 5.8125C12.5885 5.97396 12.6719 6.20312 12.6719 6.5V7.86719H13.8828V6.58594C13.8828 5.85156 13.6953 5.3099 13.3203 4.96094C12.9453 4.60677 12.4036 4.42969 11.6953 4.42969H8.14844C7.48177 4.42969 6.95052 4.60677 6.55469 4.96094C6.15885 5.3099 5.96094 5.85156 5.96094 6.58594V7.88281Z"
		fill="currentColor"
	/>
</svg>
