<svg
	color="rgb(var(--foreground, 0, 0, 0))"
	viewBox="0 0 20 24"
	fill="none"
	xmlns="http://www.w3.org/2000/svg"
>
	<path
		d="M1.11719 17.2109H15.1641C15.8984 17.2109 16.4375 17.0417 16.7812 16.7031C17.1302 16.3594 17.3047 15.8255 17.3047 15.1016V7.33594C17.3047 6.67448 17.6302 6.34375 18.2812 6.34375H19.0156C19.1823 6.34375 19.3281 6.28125 19.4531 6.15625C19.5781 6.03125 19.6406 5.88281 19.6406 5.71094C19.6406 5.54427 19.5781 5.39844 19.4531 5.27344C19.3281 5.14844 19.1823 5.08594 19.0156 5.08594H18.1875C17.4531 5.08594 16.9115 5.25781 16.5625 5.60156C16.2188 5.9401 16.0469 6.47135 16.0469 7.19531V14.9609C16.0469 15.6224 15.7214 15.9531 15.0703 15.9531H1.11719C0.945312 15.9531 0.796875 16.013 0.671875 16.1328C0.546875 16.2526 0.484375 16.401 0.484375 16.5781C0.484375 16.7552 0.546875 16.9062 0.671875 17.0312C0.796875 17.151 0.945312 17.2109 1.11719 17.2109ZM3.88281 21.2344C4.14323 21.2344 4.38281 21.1667 4.60156 21.0312C4.82031 20.901 4.99479 20.7266 5.125 20.5078C5.26042 20.2891 5.32812 20.0495 5.32812 19.7891C5.32812 19.5234 5.26042 19.2786 5.125 19.0547C4.99479 18.8359 4.82031 18.6589 4.60156 18.5234C4.38281 18.3932 4.14323 18.3281 3.88281 18.3281C3.61719 18.3281 3.375 18.3932 3.15625 18.5234C2.9375 18.6589 2.76042 18.8359 2.625 19.0547C2.49479 19.2786 2.42969 19.5234 2.42969 19.7891C2.42969 20.0495 2.49479 20.2891 2.625 20.5078C2.76042 20.7266 2.9375 20.901 3.15625 21.0312C3.375 21.1667 3.61719 21.2344 3.88281 21.2344ZM12.2578 21.2344C12.5182 21.2344 12.7578 21.1667 12.9766 21.0312C13.2005 20.901 13.3776 20.7266 13.5078 20.5078C13.638 20.2891 13.7031 20.0495 13.7031 19.7891C13.7031 19.5234 13.638 19.2786 13.5078 19.0547C13.3776 18.8359 13.2005 18.6589 12.9766 18.5234C12.7578 18.3932 12.5182 18.3281 12.2578 18.3281C11.9974 18.3281 11.7552 18.3932 11.5312 18.5234C11.3125 18.6589 11.138 18.8359 11.0078 19.0547C10.8776 19.2786 10.8125 19.5234 10.8125 19.7891C10.8125 20.0495 10.8776 20.2891 11.0078 20.5078C11.138 20.7266 11.3125 20.901 11.5312 21.0312C11.7552 21.1667 11.9974 21.2344 12.2578 21.2344ZM2.27344 14.7109H12.9375C13.5052 14.7109 13.9453 14.5651 14.2578 14.2734C14.5703 13.9818 14.7266 13.5677 14.7266 13.0312V6.6875C14.7266 6.15625 14.5703 5.74479 14.2578 5.45312C13.9453 5.15625 13.5052 5.00781 12.9375 5.00781H2.27344C1.70573 5.00781 1.26562 5.15625 0.953125 5.45312C0.645833 5.74479 0.492188 6.15625 0.492188 6.6875V13.0312C0.492188 13.5677 0.645833 13.9818 0.953125 14.2734C1.26562 14.5651 1.70573 14.7109 2.27344 14.7109ZM2.28125 13.5781C1.84896 13.5781 1.63281 13.3802 1.63281 12.9844V6.73438C1.63281 6.34375 1.84896 6.14844 2.28125 6.14844H12.9297C13.3672 6.14844 13.5859 6.34375 13.5859 6.73438V12.9844C13.5859 13.3802 13.3672 13.5781 12.9297 13.5781H2.28125ZM3.04688 14.2344H4.17969V5.84375H3.04688V14.2344ZM11.0312 14.2344H12.1641V5.53125H11.0312V14.2344ZM4.39062 5.6875H5.49219V4.47656C5.49219 4.03385 5.72135 3.8125 6.17969 3.8125H9.03125C9.49479 3.8125 9.72656 4.03385 9.72656 4.47656V5.67188H10.8281V4.54688C10.8281 3.35938 10.2214 2.76562 9.00781 2.76562H6.20312C5.61458 2.76562 5.16406 2.91927 4.85156 3.22656C4.54427 3.52865 4.39062 3.96875 4.39062 4.54688V5.6875Z"
		fill="currentColor"
	/>
</svg>
