<svg
	color="rgb(var(--foreground, 0, 0, 0))"
	viewBox="0 0 19 24"
	fill="none"
	xmlns="http://www.w3.org/2000/svg"
>
	<path
		d="M4.10156 7.83594V18.9141H5.35938V7.83594H4.10156ZM14.3125 7.83594V18.9141H15.5703V7.83594H14.3125ZM3.21094 19.5703H16.4688C17.276 19.5703 17.8802 19.3724 18.2812 18.9766C18.6823 18.5807 18.8828 17.9844 18.8828 17.1875V9.58594C18.8828 8.78385 18.6823 8.1875 18.2812 7.79688C17.8802 7.40104 17.276 7.20312 16.4688 7.20312H3.21094C2.40885 7.20312 1.80469 7.40104 1.39844 7.79688C0.997396 8.1875 0.796875 8.78385 0.796875 9.58594V17.1875C0.796875 17.9844 0.997396 18.5807 1.39844 18.9766C1.80469 19.3724 2.40885 19.5703 3.21094 19.5703ZM3.22656 18.3203C2.84635 18.3203 2.55469 18.2214 2.35156 18.0234C2.15365 17.8255 2.05469 17.526 2.05469 17.125V9.64844C2.05469 9.2474 2.15365 8.94792 2.35156 8.75C2.55469 8.55208 2.84635 8.45312 3.22656 8.45312H16.4531C16.8333 8.45312 17.1224 8.55208 17.3203 8.75C17.5234 8.94792 17.625 9.2474 17.625 9.64844V17.125C17.625 17.526 17.5234 17.8255 17.3203 18.0234C17.1224 18.2214 16.8333 18.3203 16.4531 18.3203H3.22656ZM5.875 7.88281H7.08594V6.5C7.08594 6.20312 7.16927 5.97396 7.33594 5.8125C7.5026 5.65104 7.73958 5.57031 8.04688 5.57031H11.6328C11.9349 5.57031 12.1693 5.65104 12.3359 5.8125C12.5026 5.97396 12.5859 6.20312 12.5859 6.5V7.86719H13.7969V6.58594C13.7969 5.85156 13.6094 5.3099 13.2344 4.96094C12.8594 4.60677 12.3177 4.42969 11.6094 4.42969H8.0625C7.39583 4.42969 6.86458 4.60677 6.46875 4.96094C6.07292 5.3099 5.875 5.85156 5.875 6.58594V7.88281Z"
		fill="currentColor"
	/>
</svg>
