<svg
	color="rgb(var(--foreground, 0, 0, 0))"
	viewBox="0 0 20 24"
	fill="none"
	xmlns="http://www.w3.org/2000/svg"
>
	<path
		d="M1.27344 17.2109H15.3203C16.0547 17.2109 16.5938 17.0417 16.9375 16.7031C17.2865 16.3594 17.461 15.8255 17.461 15.1016V7.33594C17.461 6.67448 17.7865 6.34375 18.4375 6.34375H19.1719C19.3386 6.34375 19.4844 6.28125 19.6094 6.15625C19.7344 6.03125 19.7969 5.88281 19.7969 5.71094C19.7969 5.54427 19.7344 5.39844 19.6094 5.27344C19.4844 5.14844 19.3386 5.08594 19.1719 5.08594H18.3438C17.6094 5.08594 17.0677 5.25781 16.7188 5.60156C16.375 5.9401 16.2031 6.47135 16.2031 7.19531V14.9609C16.2031 15.6224 15.8776 15.9531 15.2266 15.9531H1.27344C1.10156 15.9531 0.953125 16.013 0.828125 16.1328C0.703125 16.2526 0.640625 16.401 0.640625 16.5781C0.640625 16.7552 0.703125 16.9062 0.828125 17.0312C0.953125 17.151 1.10156 17.2109 1.27344 17.2109ZM4.03906 21.2344C4.29948 21.2344 4.53906 21.1667 4.75781 21.0312C4.97656 20.901 5.15104 20.7266 5.28125 20.5078C5.41667 20.2891 5.48438 20.0495 5.48438 19.7891C5.48438 19.5234 5.41667 19.2786 5.28125 19.0547C5.15104 18.8359 4.97656 18.6589 4.75781 18.5234C4.53906 18.3932 4.29948 18.3281 4.03906 18.3281C3.77344 18.3281 3.53125 18.3932 3.3125 18.5234C3.09375 18.6589 2.91667 18.8359 2.78125 19.0547C2.65104 19.2786 2.58594 19.5234 2.58594 19.7891C2.58594 20.0495 2.65104 20.2891 2.78125 20.5078C2.91667 20.7266 3.09375 20.901 3.3125 21.0312C3.53125 21.1667 3.77344 21.2344 4.03906 21.2344ZM12.4141 21.2344C12.6745 21.2344 12.9141 21.1667 13.1328 21.0312C13.3568 20.901 13.5339 20.7266 13.6641 20.5078C13.7943 20.2891 13.8594 20.0495 13.8594 19.7891C13.8594 19.5234 13.7943 19.2786 13.6641 19.0547C13.5339 18.8359 13.3568 18.6589 13.1328 18.5234C12.9141 18.3932 12.6745 18.3281 12.4141 18.3281C12.1536 18.3281 11.9115 18.3932 11.6875 18.5234C11.4688 18.6589 11.2943 18.8359 11.1641 19.0547C11.0339 19.2786 10.9688 19.5234 10.9688 19.7891C10.9688 20.0495 11.0339 20.2891 11.1641 20.5078C11.2943 20.7266 11.4688 20.901 11.6875 21.0312C11.9115 21.1667 12.1536 21.2344 12.4141 21.2344ZM0.648438 13.0312C0.648438 14.151 1.24219 14.7109 2.42969 14.7109H13.0938C14.2865 14.7109 14.8828 14.151 14.8828 13.0312V6.6875C14.8828 5.56771 14.2865 5.00781 13.0938 5.00781H2.42969C1.24219 5.00781 0.648438 5.56771 0.648438 6.6875V13.0312ZM2.96875 14.7109V5.00781H3.94531V14.7109H2.96875ZM11.5781 14.7109V5.00781H12.5547V14.7109H11.5781ZM4.54688 5.64844H5.64844V4.47656C5.64844 4.03385 5.8776 3.8125 6.33594 3.8125H9.1875C9.65104 3.8125 9.88281 4.03385 9.88281 4.47656V5.63281H10.9844V4.54688C10.9844 3.35938 10.3776 2.76562 9.16406 2.76562H6.35938C5.77083 2.76562 5.32031 2.91927 5.00781 3.22656C4.70052 3.52865 4.54688 3.96875 4.54688 4.54688V5.64844Z"
		fill="currentColor"
	/>
</svg>
