<svg
	color="rgb(var(--foreground, 0, 0, 0))"
	viewBox="0 0 25 24"
	fill="none"
	xmlns="http://www.w3.org/2000/svg"
>
	<path
		d="M5.5625 19.9697H19.4688C19.7969 19.9697 20.0443 19.8838 20.2109 19.7119C20.3828 19.5452 20.4792 19.3369 20.5 19.0869C20.5208 18.8421 20.4688 18.5947 20.3438 18.3447L16.4297 10.4932L22.9297 19.5791C23.0286 19.7197 23.1354 19.8161 23.25 19.8682C23.3646 19.9202 23.4792 19.9463 23.5938 19.9463C23.7604 19.9463 23.9089 19.8942 24.0391 19.79C24.1745 19.6859 24.2422 19.5192 24.2422 19.29V16.9541C24.2422 16.8083 24.1901 16.6833 24.0859 16.5791C23.9818 16.4749 23.8568 16.4229 23.7109 16.4229C23.5703 16.4229 23.4479 16.4749 23.3438 16.5791C23.2396 16.6833 23.1875 16.8083 23.1875 16.9541V18.1494L13.4609 4.56348C13.2943 4.3239 13.0938 4.16504 12.8594 4.08692C12.6302 4.00879 12.401 4.0114 12.1719 4.09473C11.9427 4.17285 11.7422 4.3291 11.5703 4.56348L1.85156 18.1494V16.9541C1.85156 16.8083 1.79948 16.6833 1.69531 16.5791C1.59115 16.4749 1.46875 16.4229 1.32812 16.4229C1.18229 16.4229 1.05729 16.4749 0.953125 16.5791C0.848958 16.6833 0.796875 16.8083 0.796875 16.9541V19.29C0.796875 19.5192 0.861979 19.6859 0.992188 19.79C1.1276 19.8942 1.27865 19.9463 1.44531 19.9463C1.5599 19.9463 1.67448 19.9202 1.78906 19.8682C1.90365 19.8161 2.01042 19.7197 2.10938 19.5791L8.60938 10.4932L4.69531 18.3447C4.57031 18.5947 4.51823 18.8421 4.53906 19.0869C4.5599 19.3369 4.65365 19.5452 4.82031 19.7119C4.99219 19.8838 5.23958 19.9697 5.5625 19.9697ZM6.10156 18.7744C6.04427 18.7744 6.00781 18.7536 5.99219 18.7119C5.97656 18.6755 5.98177 18.6338 6.00781 18.5869L12.4141 5.57129C12.4401 5.51921 12.474 5.49577 12.5156 5.50098C12.5625 5.50098 12.599 5.52442 12.625 5.57129L19.0312 18.5869C19.0521 18.6338 19.0547 18.6755 19.0391 18.7119C19.0234 18.7536 18.9896 18.7744 18.9375 18.7744H6.10156ZM8.63281 18.9463H11.25L12.5156 13.4072L13.7812 18.9463H16.3984L12.9922 11.7666C12.9401 11.6572 12.8698 11.5765 12.7812 11.5244C12.6979 11.4671 12.6094 11.4385 12.5156 11.4385C12.4219 11.4385 12.3307 11.4671 12.2422 11.5244C12.1589 11.5765 12.0885 11.6572 12.0312 11.7666L8.63281 18.9463Z"
		fill="currentColor"
	/>
</svg>
