<svg
	color="rgb(var(--foreground, 0, 0, 0))"
	viewBox="0 0 24 24"
	fill="none"
	xmlns="http://www.w3.org/2000/svg"
>
	<path
		d="M5.00781 19.9697H18.9141C19.2422 19.9697 19.4896 19.8838 19.6562 19.7119C19.8281 19.5452 19.9245 19.3369 19.9453 19.0869C19.9661 18.8421 19.9141 18.5947 19.7891 18.3447L15.875 10.4932L22.375 19.5791C22.474 19.7197 22.5807 19.8161 22.6953 19.8682C22.8099 19.9202 22.9245 19.9463 23.0391 19.9463C23.2057 19.9463 23.3542 19.8942 23.4844 19.79C23.6198 19.6859 23.6875 19.5192 23.6875 19.29V16.9541C23.6875 16.8083 23.6354 16.6833 23.5312 16.5791C23.4271 16.4749 23.3021 16.4229 23.1562 16.4229C23.0156 16.4229 22.8932 16.4749 22.7891 16.5791C22.6849 16.6833 22.6328 16.8083 22.6328 16.9541V18.1494L12.9062 4.56348C12.7396 4.3239 12.5391 4.16504 12.3047 4.08692C12.0755 4.00879 11.8464 4.0114 11.6172 4.09473C11.388 4.17285 11.1875 4.3291 11.0156 4.56348L1.29688 18.1494V16.9541C1.29688 16.8083 1.24479 16.6833 1.14062 16.5791C1.03646 16.4749 0.914062 16.4229 0.773438 16.4229C0.627604 16.4229 0.502604 16.4749 0.398438 16.5791C0.294271 16.6833 0.242188 16.8083 0.242188 16.9541V19.29C0.242188 19.5192 0.307292 19.6859 0.4375 19.79C0.572917 19.8942 0.723958 19.9463 0.890625 19.9463C1.00521 19.9463 1.11979 19.9202 1.23438 19.8682C1.34896 19.8161 1.45573 19.7197 1.55469 19.5791L8.05469 10.4932L4.14062 18.3447C4.01562 18.5947 3.96354 18.8421 3.98438 19.0869C4.00521 19.3369 4.09896 19.5452 4.26562 19.7119C4.4375 19.8838 4.6849 19.9697 5.00781 19.9697ZM8.02344 18.7744L11.4609 11.5479C11.5182 11.4333 11.5911 11.3499 11.6797 11.2979C11.7682 11.2406 11.862 11.2119 11.9609 11.2119C12.0599 11.2119 12.1536 11.2406 12.2422 11.2979C12.3307 11.3499 12.401 11.4333 12.4531 11.5479L15.8984 18.7744H13.2188L11.9609 13.2432L10.6953 18.7744H8.02344Z"
		fill="currentColor"
	/>
</svg>
