<svg
	color="rgb(var(--foreground, 0, 0, 0))"
	viewBox="0 0 14 24"
	fill="none"
	xmlns="http://www.w3.org/2000/svg"
>
	<path
		d="M4.4226 21.7969H9.19604C10.5554 21.7969 11.571 21.4531 12.2429 20.7656C12.9148 20.0781 13.2455 19.0469 13.2351 17.6719C13.2195 16.099 13.2039 14.7318 13.1882 13.5703C13.1726 12.4036 13.1466 11.3932 13.1101 10.5391C13.0528 9.28385 12.9096 8.23698 12.6804 7.39844C12.4512 6.55469 12.0971 5.88802 11.6179 5.39844C11.144 4.90885 10.5137 4.5599 9.72729 4.35156C8.94604 4.13802 7.97469 4.03125 6.81323 4.03125C5.64656 4.03125 4.67 4.13802 3.88354 4.35156C3.10229 4.5599 2.47208 4.90885 1.99291 5.39844C1.51896 5.88802 1.16739 6.55469 0.938227 7.39844C0.70906 8.23698 0.565831 9.28385 0.508539 10.5391C0.472081 11.3932 0.446039 12.4036 0.430414 13.5703C0.414789 14.7318 0.399164 16.099 0.383539 17.6719C0.373123 19.0469 0.703852 20.0781 1.37573 20.7656C2.0476 21.4531 3.06323 21.7969 4.4226 21.7969ZM4.19604 18.6953C3.86271 18.6953 3.59448 18.5938 3.39135 18.3906C3.19344 18.1927 3.09448 17.9297 3.09448 17.6016V13.5703C3.09448 13.237 3.19344 12.9714 3.39135 12.7734C3.59448 12.5703 3.86271 12.4688 4.19604 12.4688H9.43041C9.76375 12.4688 10.0294 12.5703 10.2273 12.7734C10.4252 12.9714 10.5242 13.237 10.5242 13.5703V17.6016C10.5242 17.9297 10.4252 18.1927 10.2273 18.3906C10.0294 18.5938 9.76375 18.6953 9.43041 18.6953H4.19604ZM3.09448 15.4766H10.5242V14.5469H3.09448V15.4766ZM6.81323 2.20312C6.31323 2.20312 5.87052 2.30729 5.4851 2.51562C5.10489 2.72396 4.80541 3.00781 4.58666 3.36719C4.36791 3.72656 4.25854 4.13802 4.25854 4.60156H5.3601C5.3601 4.22135 5.49552 3.91146 5.76635 3.67188C6.03719 3.42708 6.38614 3.30469 6.81323 3.30469C7.24031 3.30469 7.58927 3.42708 7.8601 3.67188C8.13094 3.91146 8.26635 4.22135 8.26635 4.60156H9.36791C9.36791 4.13802 9.25854 3.72656 9.03979 3.36719C8.82104 3.00781 8.51896 2.72396 8.13354 2.51562C7.75333 2.30729 7.31323 2.20312 6.81323 2.20312Z"
		fill="currentColor"
	/>
</svg>
