<svg
	color="rgb(var(--foreground, 0, 0, 0))"
	viewBox="0 0 14 24"
	fill="none"
	xmlns="http://www.w3.org/2000/svg"
>
	<path
		d="M4.57055 21.7969H9.34399C10.7034 21.7969 11.719 21.4531 12.3909 20.7656C13.0627 20.0781 13.3935 19.0469 13.3831 17.6719C13.3674 16.099 13.3518 14.7318 13.3362 13.5703C13.3206 12.4036 13.2945 11.3932 13.2581 10.5391C13.2008 9.28385 13.0575 8.23698 12.8284 7.39844C12.5992 6.55469 12.245 5.88802 11.7659 5.39844C11.2919 4.90885 10.6617 4.5599 9.87524 4.35156C9.09399 4.13802 8.12263 4.03125 6.96118 4.03125C5.79451 4.03125 4.81795 4.13802 4.03149 4.35156C3.25024 4.5599 2.62003 4.90885 2.14086 5.39844C1.66691 5.88802 1.31534 6.55469 1.08618 7.39844C0.857009 8.23698 0.71378 9.28385 0.656489 10.5391C0.62003 11.3932 0.593989 12.4036 0.578364 13.5703C0.562739 14.7318 0.547114 16.099 0.531489 17.6719C0.521072 19.0469 0.851801 20.0781 1.52368 20.7656C2.19555 21.4531 3.21118 21.7969 4.57055 21.7969ZM4.57055 20.6484C3.53409 20.6484 2.7893 20.4167 2.33618 19.9531C1.88826 19.4948 1.66951 18.7396 1.67993 17.6875C1.69555 16.1146 1.71118 14.75 1.7268 13.5938C1.74243 12.4375 1.77107 11.4375 1.81274 10.5938C1.85961 9.48958 1.96899 8.58594 2.14086 7.88281C2.31274 7.17448 2.58357 6.625 2.95336 6.23438C3.32836 5.83854 3.83878 5.5651 4.48461 5.41406C5.13045 5.26302 5.95597 5.1875 6.96118 5.1875C7.96118 5.1875 8.78409 5.26302 9.42993 5.41406C10.081 5.5651 10.5914 5.83854 10.9612 6.23438C11.3362 6.625 11.607 7.17448 11.7737 7.88281C11.9456 8.58594 12.0575 9.48958 12.1096 10.5938C12.1461 11.4375 12.1721 12.4375 12.1877 13.5938C12.2034 14.75 12.219 16.1146 12.2346 17.6875C12.245 18.7396 12.0237 19.4948 11.5706 19.9531C11.1226 20.4167 10.3804 20.6484 9.34399 20.6484H4.57055ZM6.96118 2.20312C6.46118 2.20312 6.01847 2.30729 5.63305 2.51562C5.25284 2.72396 4.95336 3.00781 4.73461 3.36719C4.51586 3.72656 4.40649 4.13802 4.40649 4.60156H5.50805C5.50805 4.22135 5.64347 3.91146 5.9143 3.67188C6.18513 3.42708 6.53409 3.30469 6.96118 3.30469C7.38826 3.30469 7.73722 3.42708 8.00805 3.67188C8.27888 3.91146 8.4143 4.22135 8.4143 4.60156H9.51586C9.51586 4.13802 9.40649 3.72656 9.18774 3.36719C8.96899 3.00781 8.66691 2.72396 8.28149 2.51562C7.90128 2.30729 7.46118 2.20312 6.96118 2.20312ZM4.39086 18.7188H9.53149C9.88045 18.7188 10.1617 18.612 10.3752 18.3984C10.5888 18.1901 10.6956 17.9115 10.6956 17.5625V13.6016C10.6956 13.2474 10.5888 12.9661 10.3752 12.7578C10.1617 12.5443 9.88045 12.4375 9.53149 12.4375H4.39086C4.04191 12.4375 3.75805 12.5443 3.5393 12.7578C3.32576 12.9714 3.21899 13.2526 3.21899 13.6016V17.5625C3.21899 17.9062 3.32576 18.1849 3.5393 18.3984C3.75805 18.612 4.04191 18.7188 4.39086 18.7188ZM4.57836 17.625C4.50024 17.625 4.43774 17.6016 4.39086 17.5547C4.34399 17.5078 4.32055 17.4479 4.32055 17.375V13.7891C4.32055 13.7109 4.34399 13.6484 4.39086 13.6016C4.43774 13.5547 4.50024 13.5312 4.57836 13.5312H9.33618C9.4143 13.5312 9.4768 13.5547 9.52368 13.6016C9.57055 13.6484 9.59399 13.7109 9.59399 13.7891V17.375C9.59399 17.4479 9.57055 17.5078 9.52368 17.5547C9.4768 17.6016 9.4143 17.625 9.33618 17.625H4.57836ZM3.84399 15.5156H10.0706V14.5312H3.84399V15.5156Z"
		fill="currentColor"
	/>
</svg>
