<svg
	color="rgb(var(--foreground, 0, 0, 0))"
	viewBox="0 0 19 24"
	fill="none"
	xmlns="http://www.w3.org/2000/svg"
>
	<path
		d="M5.21973 4.83594C4.64681 4.83594 4.0791 4.92188 3.5166 5.09375C2.95931 5.26562 2.4515 5.51302 1.99316 5.83594C1.53483 6.15885 1.17285 6.55208 0.907227 7.01562C0.860352 7.09375 0.831706 7.16927 0.821289 7.24219C0.816081 7.3099 0.813477 7.41667 0.813477 7.5625V18.5859C0.813477 18.7682 0.868164 18.9089 0.977539 19.0078C1.08691 19.112 1.23796 19.1641 1.43066 19.1641C1.52441 19.1641 1.61296 19.1484 1.69629 19.1172C1.78483 19.0859 1.86556 19.0391 1.93848 18.9766C2.43327 18.5547 2.99316 18.2344 3.61816 18.0156C4.24316 17.8021 4.88118 17.6953 5.53223 17.6953C5.93848 17.6953 6.33171 17.7396 6.71191 17.8281C7.09212 17.9219 7.4515 18.0521 7.79004 18.2188C8.12858 18.3906 8.43587 18.5964 8.71191 18.8359C8.79525 18.9089 8.88639 18.9453 8.98535 18.9453C9.07389 18.9453 9.14681 18.9141 9.2041 18.8516C9.2666 18.7943 9.29785 18.7161 9.29785 18.6172V7.0625C9.29785 6.95833 9.28743 6.88281 9.2666 6.83594C9.25098 6.78906 9.20671 6.71094 9.13379 6.60156C8.74837 6.04948 8.2041 5.61719 7.50098 5.30469C6.80306 4.99219 6.04264 4.83594 5.21973 4.83594ZM14.3994 4.83594C13.5765 4.83594 12.8135 4.99219 12.1104 5.30469C11.4124 5.61719 10.8708 6.04948 10.4854 6.60156C10.4124 6.71094 10.3656 6.78906 10.3447 6.83594C10.3291 6.88281 10.3213 6.95833 10.3213 7.0625V18.6172C10.3213 18.7161 10.3499 18.7943 10.4072 18.8516C10.4697 18.9141 10.5452 18.9453 10.6338 18.9453C10.7327 18.9453 10.8239 18.9089 10.9072 18.8359C11.1833 18.5964 11.4906 18.3906 11.8291 18.2188C12.1676 18.0521 12.527 17.9219 12.9072 17.8281C13.2874 17.7396 13.6807 17.6953 14.0869 17.6953C14.738 17.6953 15.376 17.8021 16.001 18.0156C16.626 18.2344 17.1859 18.5547 17.6807 18.9766C17.7536 19.0391 17.8317 19.0859 17.915 19.1172C18.0036 19.1484 18.0947 19.1641 18.1885 19.1641C18.3812 19.1641 18.5322 19.112 18.6416 19.0078C18.751 18.9089 18.8057 18.7682 18.8057 18.5859V7.5625C18.8057 7.41667 18.8005 7.30729 18.79 7.23438C18.7848 7.16146 18.7588 7.08854 18.7119 7.01562C18.4463 6.55208 18.0843 6.15885 17.626 5.83594C17.1676 5.51302 16.6572 5.26562 16.0947 5.09375C15.5374 4.92188 14.9723 4.83594 14.3994 4.83594Z"
		fill="currentColor"
	/>
</svg>
