<svg
	color="rgb(var(--foreground, 0, 0, 0))"
	viewBox="0 0 14 24"
	fill="none"
	xmlns="http://www.w3.org/2000/svg"
>
	<path
		d="M5.17383 8.62109C5.02799 8.62109 4.90299 8.56901 4.79883 8.46484C4.69466 8.36068 4.64258 8.23568 4.64258 8.08984C4.64258 7.94401 4.69466 7.81901 4.79883 7.71484C4.90299 7.61068 5.02799 7.55859 5.17383 7.55859H11.2051C11.3457 7.55859 11.4681 7.61068 11.5723 7.71484C11.6816 7.81901 11.7363 7.94401 11.7363 8.08984C11.7363 8.23568 11.6816 8.36068 11.5723 8.46484C11.4681 8.56901 11.3457 8.62109 11.2051 8.62109H5.17383ZM5.17383 10.8398C5.02799 10.8398 4.90299 10.7878 4.79883 10.6836C4.69466 10.5794 4.64258 10.4518 4.64258 10.3008C4.64258 10.1602 4.69466 10.0378 4.79883 9.93359C4.90299 9.82943 5.02799 9.77734 5.17383 9.77734H9.75195C9.89779 9.77734 10.0228 9.82943 10.127 9.93359C10.2311 10.0378 10.2832 10.1602 10.2832 10.3008C10.2832 10.4518 10.2311 10.5794 10.127 10.6836C10.0228 10.7878 9.89779 10.8398 9.75195 10.8398H5.17383ZM2.90039 20.3711H13.0176C13.1895 20.3711 13.3353 20.3086 13.4551 20.1836C13.5801 20.0638 13.6426 19.918 13.6426 19.7461C13.6426 19.6107 13.6009 19.4857 13.5176 19.3711C13.4342 19.2617 13.3301 19.1862 13.2051 19.1445C12.877 19.0143 12.64 18.8008 12.4941 18.5039C12.3535 18.2122 12.3197 17.8893 12.3926 17.5352C12.4655 17.1758 12.6634 16.832 12.9863 16.5039C13.1322 16.3581 13.278 16.1758 13.4238 15.957C13.5697 15.7383 13.6426 15.4336 13.6426 15.043V6.08203C13.6426 5.26953 13.4395 4.65755 13.0332 4.24609C12.6322 3.83464 12.028 3.62891 11.2207 3.62891H2.92383C2.11654 3.62891 1.50977 3.83464 1.10352 4.24609C0.702474 4.65234 0.501953 5.26432 0.501953 6.08203V17.957C0.501953 18.7591 0.702474 19.3607 1.10352 19.7617C1.50456 20.168 2.10352 20.3711 2.90039 20.3711ZM2.9707 19.1133C2.57487 19.1133 2.27279 19.0117 2.06445 18.8086C1.86133 18.6055 1.75977 18.319 1.75977 17.9492C1.75977 17.6003 1.87435 17.3216 2.10352 17.1133C2.33789 16.8997 2.65039 16.793 3.04102 16.793H11.0566C11.1556 16.793 11.2467 16.7852 11.3301 16.7695C11.1478 17.1758 11.0671 17.582 11.0879 17.9883C11.1139 18.3997 11.2311 18.7747 11.4395 19.1133H2.9707ZM2.73633 15.6055C2.61654 15.6055 2.51237 15.5612 2.42383 15.4727C2.33529 15.3841 2.29102 15.2773 2.29102 15.1523V5.28516C2.29102 5.16016 2.33529 5.05599 2.42383 4.97266C2.51237 4.88411 2.61654 4.83984 2.73633 4.83984C2.85612 4.83984 2.96029 4.88411 3.04883 4.97266C3.14258 5.05599 3.18945 5.16016 3.18945 5.28516V15.1523C3.18945 15.2773 3.14258 15.3841 3.04883 15.4727C2.96029 15.5612 2.85612 15.6055 2.73633 15.6055Z"
		fill="currentColor"
	/>
</svg>
