<svg
	color="rgb(var(--foreground, 0, 0, 0))"
	viewBox="0 0 21 24"
	fill="none"
	xmlns="http://www.w3.org/2000/svg"
>
	<path
		d="M0.805664 18.8329C0.805664 19.4319 0.951497 19.8798 1.24316 20.1767C1.54004 20.4788 1.98796 20.6298 2.58691 20.6298H13.2588C13.8577 20.6298 14.3031 20.4788 14.5947 20.1767C14.8916 19.8798 15.04 19.4319 15.04 18.8329V5.14545C15.04 4.54649 14.8916 4.09597 14.5947 3.79388C14.3031 3.4918 13.8577 3.34076 13.2588 3.34076H11.7275C11.1286 3.34076 10.6807 3.4918 10.3838 3.79388C10.0921 4.09597 9.94629 4.54649 9.94629 5.14545V8.24701C9.75879 8.20013 9.56087 8.1767 9.35254 8.1767H5.94629C5.73796 8.1767 5.53743 8.20013 5.34473 8.24701V7.30951C5.34473 6.71055 5.19889 6.26003 4.90723 5.95795C4.61556 5.65586 4.17025 5.50482 3.57129 5.50482H2.58691C1.98796 5.50482 1.54004 5.65586 1.24316 5.95795C0.951497 6.26003 0.805664 6.71055 0.805664 7.30951V18.8329ZM1.98535 18.7392V7.39545C1.98535 7.16628 2.04525 6.9918 2.16504 6.87201C2.28483 6.74701 2.46712 6.68451 2.71191 6.68451H3.44629C3.69108 6.68451 3.87077 6.74701 3.98535 6.87201C4.10514 6.9918 4.16504 7.16628 4.16504 7.39545V19.4501H2.71191C2.46712 19.4501 2.28483 19.3902 2.16504 19.2704C2.04525 19.1507 1.98535 18.9736 1.98535 18.7392ZM5.34473 19.4501V10.0673C5.34473 9.83816 5.40462 9.66368 5.52441 9.54388C5.64941 9.41888 5.83171 9.35638 6.07129 9.35638H9.22754C9.47233 9.35638 9.65202 9.41888 9.7666 9.54388C9.88639 9.66368 9.94629 9.83816 9.94629 10.0673V19.4501H5.34473ZM11.126 19.4501V5.23138C11.126 5.00222 11.1859 4.82774 11.3057 4.70795C11.4307 4.58295 11.613 4.52045 11.8525 4.52045H13.1338C13.3786 4.52045 13.5609 4.58295 13.6807 4.70795C13.8005 4.82774 13.8604 5.00222 13.8604 5.23138V18.7392C13.8604 18.9736 13.8005 19.1507 13.6807 19.2704C13.5609 19.3902 13.3786 19.4501 13.1338 19.4501H11.126ZM6.05566 10.872C6.05566 11.0074 6.09993 11.122 6.18848 11.2158C6.28223 11.3095 6.40202 11.3564 6.54785 11.3564H8.7666C8.90723 11.3564 9.02181 11.3095 9.11035 11.2158C9.2041 11.122 9.25098 11.0074 9.25098 10.872C9.25098 10.7366 9.2041 10.6246 9.11035 10.5361C9.02181 10.4423 8.90723 10.3954 8.7666 10.3954H6.54785C6.40202 10.3954 6.28223 10.4423 6.18848 10.5361C6.09993 10.6246 6.05566 10.7366 6.05566 10.872ZM6.05566 17.9345C6.05566 18.0699 6.09993 18.1845 6.18848 18.2783C6.28223 18.372 6.40202 18.4189 6.54785 18.4189H8.7666C8.90723 18.4189 9.02181 18.372 9.11035 18.2783C9.2041 18.1845 9.25098 18.0699 9.25098 17.9345C9.25098 17.7991 9.2041 17.6871 9.11035 17.5986C9.02181 17.5048 8.90723 17.4579 8.7666 17.4579H6.54785C6.40202 17.4579 6.28223 17.5048 6.18848 17.5986C6.09993 17.6871 6.05566 17.7991 6.05566 17.9345ZM15.7432 19.0517C15.8161 19.6454 16.014 20.0777 16.3369 20.3486C16.6598 20.6194 17.1208 20.7132 17.7197 20.6298L18.5322 20.5204C19.1312 20.4371 19.5557 20.234 19.8057 19.9111C20.0609 19.5882 20.1546 19.1298 20.0869 18.5361L18.7432 6.85638C18.6755 6.26263 18.4775 5.83034 18.1494 5.55951C17.8265 5.28347 17.3656 5.18972 16.7666 5.27826L15.9541 5.38763C15.3499 5.47097 14.9202 5.67409 14.665 5.99701C14.4098 6.31993 14.3187 6.77826 14.3916 7.37201L15.7432 19.0517ZM16.8994 18.8173L15.5791 7.32513C15.5531 7.09597 15.5921 6.91628 15.6963 6.78607C15.8005 6.65586 15.9749 6.57253 16.2197 6.53607L16.7822 6.46576C17.0218 6.4293 17.2093 6.46836 17.3447 6.58295C17.4801 6.69232 17.5609 6.85899 17.5869 7.08295L18.9072 18.5751C18.9333 18.8095 18.8942 18.9918 18.79 19.122C18.6859 19.2522 18.514 19.3329 18.2744 19.3642L17.6963 19.4423C17.4567 19.4788 17.2692 19.4423 17.1338 19.3329C17.0036 19.2236 16.9255 19.0517 16.8994 18.8173Z"
		fill="currentColor"
	/>
</svg>
