<svg
	color="rgb(var(--foreground, 0, 0, 0))"
	viewBox="0 0 14 24"
	fill="none"
	xmlns="http://www.w3.org/2000/svg"
>
	<path
		d="M2.61914 20.3711H12.7363C12.9082 20.3711 13.054 20.3086 13.1738 20.1836C13.2988 20.0638 13.3613 19.918 13.3613 19.7461C13.3613 19.6107 13.3197 19.4857 13.2363 19.3711C13.153 19.2617 13.0488 19.1862 12.9238 19.1445C12.5957 19.0143 12.3587 18.8008 12.2129 18.5039C12.0723 18.2122 12.0384 17.8893 12.1113 17.5352C12.1842 17.1758 12.3822 16.832 12.7051 16.5039C12.8509 16.3581 12.9967 16.1758 13.1426 15.957C13.2884 15.7383 13.3613 15.4336 13.3613 15.043V6.08203C13.3613 5.26953 13.1582 4.65755 12.752 4.24609C12.3509 3.83464 11.7467 3.62891 10.9395 3.62891H2.64258C1.83529 3.62891 1.22852 3.83464 0.822266 4.24609C0.421224 4.65234 0.220703 5.26432 0.220703 6.08203V17.957C0.220703 18.7591 0.421224 19.3607 0.822266 19.7617C1.22331 20.168 1.82227 20.3711 2.61914 20.3711ZM2.68945 19.1133C2.29362 19.1133 1.99154 19.0117 1.7832 18.8086C1.58008 18.6055 1.47852 18.319 1.47852 17.9492C1.47852 17.6003 1.5931 17.3216 1.82227 17.1133C2.05664 16.8997 2.36914 16.793 2.75977 16.793H10.7754C10.8743 16.793 10.9655 16.7852 11.0488 16.7695C10.8665 17.1758 10.7858 17.582 10.8066 17.9883C10.8327 18.3997 10.9499 18.7747 11.1582 19.1133H2.68945ZM2.45508 15.6055C2.33529 15.6055 2.23112 15.5612 2.14258 15.4727C2.05404 15.3841 2.00977 15.2773 2.00977 15.1523V5.28516C2.00977 5.16016 2.05404 5.05599 2.14258 4.97266C2.23112 4.88411 2.33529 4.83984 2.45508 4.83984C2.57487 4.83984 2.67904 4.88411 2.76758 4.97266C2.86133 5.05599 2.9082 5.16016 2.9082 5.28516V15.1523C2.9082 15.2773 2.86133 15.3841 2.76758 15.4727C2.67904 15.5612 2.57487 15.6055 2.45508 15.6055ZM5.50977 13.2617C5.34831 13.2617 5.2207 13.2174 5.12695 13.1289C5.0332 13.0404 4.98633 12.9258 4.98633 12.7852C4.98633 12.7331 4.99154 12.6784 5.00195 12.6211C5.01237 12.5638 5.0332 12.4961 5.06445 12.418L7.00977 7.16797C7.15039 6.79818 7.41081 6.61328 7.79102 6.61328C8.17122 6.61328 8.43164 6.79818 8.57227 7.16797L10.5332 12.418C10.5592 12.4961 10.5775 12.5638 10.5879 12.6211C10.5983 12.6784 10.6035 12.7331 10.6035 12.7852C10.6035 12.9258 10.554 13.0404 10.4551 13.1289C10.3613 13.2174 10.2389 13.2617 10.0879 13.2617C9.96289 13.2617 9.85352 13.2279 9.75977 13.1602C9.67122 13.0924 9.60091 12.9779 9.54883 12.8164L9.0332 11.3398H6.55664L6.04883 12.8164C5.99154 12.9831 5.91862 13.1003 5.83008 13.168C5.74154 13.2305 5.63477 13.2617 5.50977 13.2617ZM6.83008 10.4961H8.75977L7.83008 7.80859H7.75977L6.83008 10.4961Z"
		fill="currentColor"
	/>
</svg>
