<svg
	color="rgb(var(--foreground, 0, 0, 0))"
	viewBox="0 0 14 24"
	fill="none"
	xmlns="http://www.w3.org/2000/svg"
>
	<path
		d="M4.96289 8.63672H10.8223C10.9629 8.63672 11.0827 8.58724 11.1816 8.48828C11.2806 8.38411 11.3301 8.26172 11.3301 8.12109C11.3301 7.98047 11.2806 7.86068 11.1816 7.76172C11.0827 7.66276 10.9629 7.61328 10.8223 7.61328H4.96289C4.82227 7.61328 4.70247 7.66276 4.60352 7.76172C4.50456 7.86068 4.45508 7.98047 4.45508 8.12109C4.45508 8.26172 4.50456 8.38411 4.60352 8.48828C4.70247 8.58724 4.82227 8.63672 4.96289 8.63672ZM4.96289 10.7852H9.4082C9.54883 10.7852 9.66862 10.7357 9.76758 10.6367C9.86654 10.5326 9.91602 10.4102 9.91602 10.2695C9.91602 10.1289 9.86654 10.0091 9.76758 9.91016C9.66862 9.8112 9.54883 9.76172 9.4082 9.76172H4.96289C4.82227 9.76172 4.70247 9.8112 4.60352 9.91016C4.50456 10.0091 4.45508 10.1289 4.45508 10.2695C4.45508 10.4102 4.50456 10.5326 4.60352 10.6367C4.70247 10.7357 4.82227 10.7852 4.96289 10.7852ZM2.75977 20.3711H12.877C13.0488 20.3711 13.1947 20.3086 13.3145 20.1836C13.4395 20.0638 13.502 19.918 13.502 19.7461C13.502 19.6107 13.4603 19.4857 13.377 19.3711C13.2936 19.2617 13.1895 19.1862 13.0645 19.1445C12.7363 19.0143 12.4993 18.8008 12.3535 18.5039C12.2129 18.2122 12.179 17.8893 12.252 17.5352C12.3249 17.1758 12.5228 16.832 12.8457 16.5039C12.9915 16.3581 13.1374 16.1758 13.2832 15.957C13.429 15.7383 13.502 15.4336 13.502 15.043V6.08203C13.502 5.26953 13.2988 4.65755 12.8926 4.24609C12.4915 3.83464 11.8874 3.62891 11.0801 3.62891H2.7832C1.97591 3.62891 1.36914 3.83464 0.962891 4.24609C0.561849 4.65234 0.361328 5.26432 0.361328 6.08203V17.957C0.361328 18.7591 0.561849 19.3607 0.962891 19.7617C1.36393 20.168 1.96289 20.3711 2.75977 20.3711ZM1.61914 15.8555V6.10547C1.61914 5.71484 1.7207 5.41536 1.92383 5.20703C2.13216 4.99349 2.43685 4.88672 2.83789 4.88672H11.0176C11.4238 4.88672 11.7285 4.99349 11.9316 5.20703C12.14 5.41536 12.2441 5.71484 12.2441 6.10547V14.8711C12.2441 15.3138 12.0176 15.5352 11.5645 15.5352H2.89258C2.63737 15.5352 2.40299 15.5638 2.18945 15.6211C1.98112 15.6732 1.79102 15.7513 1.61914 15.8555ZM2.83008 19.1133C2.43424 19.1133 2.13216 19.0117 1.92383 18.8086C1.7207 18.6055 1.61914 18.319 1.61914 17.9492C1.61914 17.6003 1.73372 17.3216 1.96289 17.1133C2.19727 16.8997 2.50977 16.793 2.90039 16.793H10.916C11.015 16.793 11.1061 16.7852 11.1895 16.7695C11.0072 17.1758 10.9264 17.582 10.9473 17.9883C10.9733 18.3997 11.0905 18.7747 11.2988 19.1133H2.83008ZM2.54102 16.207H3.56445V4.58203H2.54102V16.207Z"
		fill="currentColor"
	/>
</svg>
