<svg
	color="rgb(var(--foreground, 0, 0, 0))"
	viewBox="0 0 15 24"
	fill="none"
	xmlns="http://www.w3.org/2000/svg"
>
	<path
		d="M3.33789 20.3711H13.4551C13.627 20.3711 13.7728 20.3086 13.8926 20.1836C14.0176 20.0638 14.0801 19.918 14.0801 19.7461C14.0801 19.6107 14.0384 19.4857 13.9551 19.3711C13.8717 19.2617 13.7676 19.1862 13.6426 19.1445C13.3145 19.0143 13.0775 18.8008 12.9316 18.5039C12.791 18.2122 12.7572 17.8893 12.8301 17.5352C12.903 17.1758 13.1009 16.832 13.4238 16.5039C13.5697 16.3581 13.7155 16.1758 13.8613 15.957C14.0072 15.7383 14.0801 15.4336 14.0801 15.043V6.08203C14.0801 5.26953 13.877 4.65755 13.4707 4.24609C13.0697 3.83464 12.4655 3.62891 11.6582 3.62891H3.36133C2.55404 3.62891 1.94727 3.83464 1.54102 4.24609C1.13997 4.65234 0.939453 5.26432 0.939453 6.08203V17.957C0.939453 18.7591 1.13997 19.3607 1.54102 19.7617C1.94206 20.168 2.54102 20.3711 3.33789 20.3711ZM3.4082 19.1133C3.01237 19.1133 2.71029 19.0117 2.50195 18.8086C2.29883 18.6055 2.19727 18.319 2.19727 17.9492C2.19727 17.6003 2.31185 17.3216 2.54102 17.1133C2.77539 16.8997 3.08789 16.793 3.47852 16.793H11.4941C11.5931 16.793 11.6842 16.7852 11.7676 16.7695C11.5853 17.1758 11.5046 17.582 11.5254 17.9883C11.5514 18.3997 11.6686 18.7747 11.877 19.1133H3.4082ZM3.17383 15.6055C3.05404 15.6055 2.94987 15.5612 2.86133 15.4727C2.77279 15.3841 2.72852 15.2773 2.72852 15.1523V5.28516C2.72852 5.16016 2.77279 5.05599 2.86133 4.97266C2.94987 4.88411 3.05404 4.83984 3.17383 4.83984C3.29362 4.83984 3.39779 4.88411 3.48633 4.97266C3.58008 5.05599 3.62695 5.16016 3.62695 5.28516V15.1523C3.62695 15.2773 3.58008 15.3841 3.48633 15.4727C3.39779 15.5612 3.29362 15.6055 3.17383 15.6055Z"
		fill="currentColor"
	/>
</svg>
