<svg
	color="rgb(var(--foreground, 0, 0, 0))"
	viewBox="0 0 19 24"
	fill="none"
	xmlns="http://www.w3.org/2000/svg"
>
	<path
		d="M1.06909 20.6182H2.54565C2.85815 20.6182 3.09513 20.5349 3.25659 20.3682C3.42326 20.2016 3.50659 19.9646 3.50659 19.6573V6.46198C3.50659 6.15468 3.42326 5.9177 3.25659 5.75104C3.09513 5.57916 2.85815 5.49323 2.54565 5.49323H1.06909C0.756592 5.49323 0.517008 5.57916 0.350342 5.75104C0.188883 5.9177 0.108154 6.15468 0.108154 6.46198V19.6573C0.108154 19.9646 0.188883 20.2016 0.350342 20.3682C0.517008 20.5349 0.756592 20.6182 1.06909 20.6182ZM5.38159 20.6182H8.54565C8.85815 20.6182 9.09513 20.5349 9.25659 20.3682C9.42326 20.2016 9.50659 19.9646 9.50659 19.6573V9.12604C9.50659 8.82395 9.42326 8.58958 9.25659 8.42291C9.09513 8.25104 8.85815 8.1651 8.54565 8.1651H5.38159C5.06909 8.1651 4.82951 8.25104 4.66284 8.42291C4.49618 8.58958 4.41284 8.82395 4.41284 9.12604V19.6573C4.41284 19.9646 4.49618 20.2016 4.66284 20.3682C4.82951 20.5349 5.06909 20.6182 5.38159 20.6182ZM6.12378 10.9542C5.98315 10.9542 5.86597 10.9073 5.77222 10.8135C5.67847 10.7198 5.63159 10.6052 5.63159 10.4698C5.63159 10.3344 5.67847 10.2224 5.77222 10.1339C5.86597 10.0401 5.98315 9.99323 6.12378 9.99323H7.81909C7.95451 9.99323 8.06649 10.0401 8.15503 10.1339C8.24878 10.2224 8.29565 10.3344 8.29565 10.4698C8.29565 10.6052 8.24878 10.7198 8.15503 10.8135C8.06649 10.9073 7.95451 10.9542 7.81909 10.9542H6.12378ZM6.12378 18.7979C5.98315 18.7979 5.86597 18.751 5.77222 18.6573C5.67847 18.5635 5.63159 18.449 5.63159 18.3135C5.63159 18.1781 5.67847 18.0635 5.77222 17.9698C5.86597 17.8812 5.98315 17.837 6.12378 17.837H7.81909C7.95451 17.837 8.06649 17.8812 8.15503 17.9698C8.24878 18.0635 8.29565 18.1781 8.29565 18.3135C8.29565 18.449 8.24878 18.5635 8.15503 18.6573C8.06649 18.751 7.95451 18.7979 7.81909 18.7979H6.12378ZM11.3816 20.6182H13.3113C13.6238 20.6182 13.8608 20.5349 14.0222 20.3682C14.1889 20.2016 14.2722 19.9646 14.2722 19.6573V4.29791C14.2722 3.99062 14.1889 3.75364 14.0222 3.58698C13.8608 3.4151 13.6238 3.32916 13.3113 3.32916H11.3816C11.0691 3.32916 10.8295 3.4151 10.6628 3.58698C10.5014 3.75364 10.4207 3.99062 10.4207 4.29791V19.6573C10.4207 19.9646 10.5014 20.2016 10.6628 20.3682C10.8295 20.5349 11.0691 20.6182 11.3816 20.6182ZM16.6941 20.6573L17.9519 20.4776C18.2592 20.4359 18.4832 20.324 18.6238 20.1417C18.7696 19.9594 18.8243 19.7146 18.7878 19.4073L17.2957 6.44635C17.2592 6.14427 17.1498 5.9177 16.9675 5.76666C16.7904 5.61562 16.5457 5.56093 16.2332 5.6026L14.9832 5.78229C14.6759 5.82395 14.4493 5.93593 14.3035 6.11823C14.1628 6.30052 14.1082 6.5427 14.1394 6.84479L15.6394 19.8057C15.6759 20.113 15.7826 20.3422 15.9597 20.4932C16.142 20.6443 16.3868 20.699 16.6941 20.6573Z"
		fill="currentColor"
	/>
</svg>
