<svg
	color="rgb(var(--foreground, 0, 0, 0))"
	viewBox="0 0 18 24"
	fill="none"
	xmlns="http://www.w3.org/2000/svg"
>
	<path
		d="M0.461914 17.957C0.461914 18.2799 0.550456 18.5091 0.727539 18.6445C0.904622 18.7799 1.11035 18.8477 1.34473 18.8477C1.47493 18.8477 1.60254 18.8138 1.72754 18.7461C1.85254 18.6836 1.98796 18.6055 2.13379 18.5117C2.56608 18.2201 3.03743 17.9883 3.54785 17.8164C4.06348 17.6497 4.59473 17.569 5.1416 17.5742C5.7041 17.5794 6.25358 17.6862 6.79004 17.8945C7.33171 18.1029 7.82129 18.418 8.25879 18.8398C8.43066 18.9961 8.58431 19.1029 8.71973 19.1602C8.85514 19.2227 8.99577 19.2539 9.1416 19.2539C9.28223 19.2539 9.42025 19.2227 9.55566 19.1602C9.69629 19.1029 9.84993 18.9961 10.0166 18.8398C10.4541 18.418 10.9411 18.1029 11.4775 17.8945C12.0192 17.6862 12.5739 17.5794 13.1416 17.5742C13.6833 17.569 14.2093 17.6497 14.7197 17.8164C15.2354 17.9883 15.7093 18.2201 16.1416 18.5117C16.2874 18.6055 16.4229 18.6836 16.5479 18.7461C16.6729 18.8138 16.8031 18.8477 16.9385 18.8477C17.1676 18.8477 17.3708 18.7799 17.5479 18.6445C17.7249 18.5091 17.8135 18.2799 17.8135 17.957V7.35547C17.8135 7.28776 17.8083 7.22526 17.7979 7.16797C17.7874 7.11068 17.7614 7.04818 17.7197 6.98047C17.4906 6.57943 17.1494 6.20964 16.6963 5.87109C16.2432 5.53255 15.7093 5.26172 15.0947 5.05859C14.4854 4.85026 13.8239 4.74609 13.1104 4.74609C12.2562 4.74609 11.4775 4.89974 10.7744 5.20703C10.0765 5.50911 9.53223 5.90234 9.1416 6.38672C8.74577 5.90234 8.19629 5.50911 7.49316 5.20703C6.79525 4.89974 6.02181 4.74609 5.17285 4.74609C4.4541 4.74609 3.78743 4.85026 3.17285 5.05859C2.56348 5.26172 2.03223 5.53255 1.5791 5.87109C1.13118 6.20964 0.790039 6.57943 0.555664 6.98047C0.513997 7.04818 0.487956 7.11068 0.477539 7.16797C0.467122 7.22526 0.461914 7.28776 0.461914 7.35547V17.957ZM1.71973 17.293V7.53516C1.92806 7.22786 2.21191 6.95964 2.57129 6.73047C2.93066 6.5013 3.33171 6.32422 3.77441 6.19922C4.22233 6.06901 4.68848 6.00391 5.17285 6.00391C5.91243 6.00391 6.58431 6.14714 7.18848 6.43359C7.79264 6.72005 8.23275 7.10286 8.50879 7.58203V17.4258C8.24316 17.2122 7.93327 17.0221 7.5791 16.8555C7.23014 16.6888 6.84993 16.5586 6.43848 16.4648C6.02702 16.3659 5.60514 16.3164 5.17285 16.3164C4.49056 16.3164 3.84733 16.4049 3.24316 16.582C2.639 16.7591 2.13118 16.9961 1.71973 17.293ZM9.7666 17.4258V7.58203C10.0426 7.10286 10.4827 6.72005 11.0869 6.43359C11.6911 6.14714 12.3656 6.00391 13.1104 6.00391C13.5895 6.00391 14.0505 6.06901 14.4932 6.19922C14.9411 6.32422 15.3447 6.5013 15.7041 6.73047C16.0635 6.95964 16.3473 7.22786 16.5557 7.53516V17.293C16.1442 16.9961 15.6364 16.7591 15.0322 16.582C14.4281 16.4049 13.7874 16.3164 13.1104 16.3164C12.6729 16.3164 12.2484 16.3659 11.8369 16.4648C11.4307 16.5586 11.0505 16.6888 10.6963 16.8555C10.3421 17.0221 10.0322 17.2122 9.7666 17.4258Z"
		fill="currentColor"
	/>
</svg>
