<svg
	color="rgb(var(--foreground, 0, 0, 0))"
	viewBox="0 0 14 24"
	fill="none"
	xmlns="http://www.w3.org/2000/svg"
>
	<path
		d="M2.47852 20.3711H12.5957C12.7676 20.3711 12.9134 20.3086 13.0332 20.1836C13.1582 20.0638 13.2207 19.918 13.2207 19.7461C13.2207 19.6107 13.179 19.4857 13.0957 19.3711C13.0124 19.2617 12.9082 19.1862 12.7832 19.1445C12.4551 19.0143 12.2181 18.8008 12.0723 18.5039C11.9316 18.2122 11.8978 17.8893 11.9707 17.5352C12.0436 17.1758 12.2415 16.832 12.5645 16.5039C12.7103 16.3581 12.8561 16.1758 13.002 15.957C13.1478 15.7383 13.2207 15.4336 13.2207 15.043V6.08203C13.2207 5.26953 13.0176 4.65755 12.6113 4.24609C12.2103 3.83464 11.6061 3.62891 10.7988 3.62891H2.50195C1.69466 3.62891 1.08789 3.83464 0.681641 4.24609C0.280599 4.65234 0.0800781 5.26432 0.0800781 6.08203V17.957C0.0800781 18.7591 0.280599 19.3607 0.681641 19.7617C1.08268 20.168 1.68164 20.3711 2.47852 20.3711ZM1.33789 15.8555V6.10547C1.33789 5.71484 1.43945 5.41536 1.64258 5.20703C1.85091 4.99349 2.1556 4.88672 2.55664 4.88672H10.7363C11.1426 4.88672 11.4473 4.99349 11.6504 5.20703C11.8587 5.41536 11.9629 5.71484 11.9629 6.10547V14.8711C11.9629 15.3138 11.7363 15.5352 11.2832 15.5352H2.61133C2.35612 15.5352 2.12174 15.5638 1.9082 15.6211C1.69987 15.6732 1.50977 15.7513 1.33789 15.8555ZM2.54883 19.1133C2.15299 19.1133 1.85091 19.0117 1.64258 18.8086C1.43945 18.6055 1.33789 18.319 1.33789 17.9492C1.33789 17.6003 1.45247 17.3216 1.68164 17.1133C1.91602 16.8997 2.22852 16.793 2.61914 16.793H10.6348C10.7337 16.793 10.8249 16.7852 10.9082 16.7695C10.7259 17.1758 10.6452 17.582 10.666 17.9883C10.6921 18.3997 10.8092 18.7747 11.0176 19.1133H2.54883ZM2.25977 16.207H3.2832V4.58203H2.25977V16.207ZM5.42383 13.3945C5.54362 13.3945 5.64518 13.3633 5.72852 13.3008C5.81706 13.2331 5.88997 13.1211 5.94727 12.9648L6.43945 11.5273H8.8457L9.3457 12.9648C9.44466 13.2513 9.61914 13.3945 9.86914 13.3945C10.015 13.3945 10.1322 13.3529 10.2207 13.2695C10.3145 13.181 10.3613 13.069 10.3613 12.9336C10.3613 12.8398 10.3379 12.7227 10.291 12.582L8.39258 7.48047C8.26237 7.1263 8.01237 6.94922 7.64258 6.94922C7.27279 6.94922 7.02279 7.1263 6.89258 7.48047L5.00195 12.582C4.94987 12.7227 4.92383 12.8398 4.92383 12.9336C4.92383 13.0742 4.9681 13.1862 5.05664 13.2695C5.15039 13.3529 5.27279 13.3945 5.42383 13.3945ZM6.70508 10.7148L7.60352 8.10547H7.68164L8.58008 10.7148H6.70508Z"
		fill="currentColor"
	/>
</svg>
