<svg
	color="rgb(var(--foreground, 0, 0, 0))"
	viewBox="0 0 14 24"
	fill="none"
	xmlns="http://www.w3.org/2000/svg"
>
	<path
		d="M3.19727 20.3711H13.3145C13.4863 20.3711 13.6322 20.3086 13.752 20.1836C13.877 20.0638 13.9395 19.918 13.9395 19.7461C13.9395 19.6107 13.8978 19.4857 13.8145 19.3711C13.7311 19.2617 13.627 19.1862 13.502 19.1445C13.1738 19.0143 12.9368 18.8008 12.791 18.5039C12.6504 18.2122 12.6165 17.8893 12.6895 17.5352C12.7624 17.1758 12.9603 16.832 13.2832 16.5039C13.429 16.3581 13.5749 16.1758 13.7207 15.957C13.8665 15.7383 13.9395 15.4336 13.9395 15.043V6.08203C13.9395 5.26953 13.7363 4.65755 13.3301 4.24609C12.929 3.83464 12.3249 3.62891 11.5176 3.62891H3.2207C2.41341 3.62891 1.80664 3.83464 1.40039 4.24609C0.999349 4.65234 0.798828 5.26432 0.798828 6.08203V17.957C0.798828 18.7591 0.999349 19.3607 1.40039 19.7617C1.80143 20.168 2.40039 20.3711 3.19727 20.3711ZM2.05664 15.8555V6.10547C2.05664 5.71484 2.1582 5.41536 2.36133 5.20703C2.56966 4.99349 2.87435 4.88672 3.27539 4.88672H11.4551C11.8613 4.88672 12.166 4.99349 12.3691 5.20703C12.5775 5.41536 12.6816 5.71484 12.6816 6.10547V14.8711C12.6816 15.3138 12.4551 15.5352 12.002 15.5352H3.33008C3.07487 15.5352 2.84049 15.5638 2.62695 15.6211C2.41862 15.6732 2.22852 15.7513 2.05664 15.8555ZM3.26758 19.1133C2.87174 19.1133 2.56966 19.0117 2.36133 18.8086C2.1582 18.6055 2.05664 18.319 2.05664 17.9492C2.05664 17.6003 2.17122 17.3216 2.40039 17.1133C2.63477 16.8997 2.94727 16.793 3.33789 16.793H11.3535C11.4525 16.793 11.5436 16.7852 11.627 16.7695C11.4447 17.1758 11.3639 17.582 11.3848 17.9883C11.4108 18.3997 11.528 18.7747 11.7363 19.1133H3.26758ZM2.97852 16.207H4.00195V4.58203H2.97852V16.207Z"
		fill="currentColor"
	/>
</svg>
