<svg
	color="rgb(var(--foreground, 0, 0, 0))"
	viewBox="0 0 22 24"
	fill="none"
	xmlns="http://www.w3.org/2000/svg"
>
	<path
		d="M20.7197 6.57443L13.0713 3.07443C12.6702 2.89214 12.3005 2.75933 11.9619 2.676C11.6286 2.59266 11.3005 2.5536 10.9775 2.55881C10.6598 2.5536 10.3317 2.59266 9.99316 2.676C9.65462 2.75933 9.28483 2.89214 8.88379 3.07443L1.24316 6.57443C0.993164 6.68381 0.805664 6.83225 0.680664 7.01975C0.560872 7.20725 0.500977 7.39996 0.500977 7.59787C0.500977 7.801 0.560872 7.99371 0.680664 8.176C0.805664 8.35829 0.993164 8.50673 1.24316 8.62131L4.46191 10.0901L9.40723 7.76975C9.36556 7.71766 9.34473 7.66037 9.34473 7.59787C9.34473 7.43121 9.42546 7.28277 9.58691 7.15256C9.74837 7.02235 9.95671 6.92079 10.2119 6.84787C10.4671 6.76975 10.7327 6.73068 11.0088 6.73068C11.29 6.73068 11.5557 6.76975 11.8057 6.84787C12.0609 6.92079 12.2666 7.02235 12.4229 7.15256C12.5843 7.28277 12.665 7.43121 12.665 7.59787C12.665 7.76975 12.5843 7.92339 12.4229 8.05881C12.2666 8.18902 12.0609 8.29318 11.8057 8.37131C11.5557 8.44943 11.29 8.4885 11.0088 8.4885C10.7432 8.4885 10.4958 8.45464 10.2666 8.38693L5.54785 10.5979L8.88379 12.1291C9.29004 12.3114 9.65983 12.4442 9.99316 12.5276C10.3317 12.6109 10.6598 12.65 10.9775 12.6447C11.3005 12.65 11.6286 12.6109 11.9619 12.5276C12.3005 12.4442 12.6702 12.3114 13.0713 12.1291L20.7197 8.62131C20.9697 8.50673 21.1546 8.35829 21.2744 8.176C21.3994 7.99371 21.4619 7.801 21.4619 7.59787C21.4619 7.39996 21.3994 7.20725 21.2744 7.01975C21.1546 6.83225 20.9697 6.68381 20.7197 6.57443ZM5.5166 11.7541V16.5041C6.17285 16.9052 6.96191 17.2177 7.88379 17.4416C8.81087 17.6708 9.84212 17.7854 10.9775 17.7854C12.1286 17.7854 13.1702 17.6708 14.1025 17.4416C15.0348 17.2177 15.8317 16.9052 16.4932 16.5041C17.1546 16.1083 17.6624 15.65 18.0166 15.1291C18.376 14.6083 18.5557 14.0562 18.5557 13.4729V10.7854L13.5166 13.0901C12.5947 13.5119 11.7484 13.7203 10.9775 13.7151C10.2119 13.7203 9.36556 13.5119 8.43848 13.0901L5.5166 11.7541ZM3.40723 10.7854V13.4729C3.40723 13.8114 3.50098 14.1812 3.68848 14.5822C3.87598 14.9781 4.14681 15.3557 4.50098 15.7151V11.2932L3.40723 10.7854ZM4.50098 18.3166H5.5166V16.5041C5.32389 16.3843 5.1416 16.2593 4.96973 16.1291C4.79785 15.9989 4.6416 15.8609 4.50098 15.7151V18.3166ZM3.88379 18.3713V20.426C3.88379 20.7333 3.97493 20.9781 4.15723 21.1604C4.34473 21.3479 4.59212 21.4416 4.89941 21.4416H5.11035C5.41764 21.4416 5.66243 21.3479 5.84473 21.1604C6.03223 20.9781 6.12598 20.7333 6.12598 20.426V18.3713C6.12598 18.064 6.03223 17.8166 5.84473 17.6291C5.66243 17.4468 5.41764 17.3557 5.11035 17.3557H4.89941C4.59212 17.3557 4.34473 17.4468 4.15723 17.6291C3.97493 17.8166 3.88379 18.064 3.88379 18.3713Z"
		fill="currentColor"
	/>
</svg>
