<svg
	color="rgb(var(--foreground, 0, 0, 0))"
	viewBox="0 0 22 24"
	fill="none"
	xmlns="http://www.w3.org/2000/svg"
>
	<path
		d="M10.876 12.8908C11.2093 12.896 11.5479 12.8544 11.8916 12.7658C12.2406 12.6773 12.6234 12.5393 13.04 12.3518L20.7354 8.83613C20.9906 8.72154 21.1807 8.56009 21.3057 8.35175C21.4359 8.13821 21.501 7.91425 21.501 7.67988C21.501 7.45071 21.4359 7.23196 21.3057 7.02363C21.1807 6.81009 20.9906 6.64602 20.7354 6.53144L13.04 3.01581C12.6234 2.82831 12.2406 2.69029 11.8916 2.60175C11.5479 2.51321 11.2093 2.47154 10.876 2.47675C10.5426 2.47154 10.2015 2.51321 9.85254 2.60175C9.50879 2.69029 9.12858 2.82831 8.71191 3.01581L1.02441 6.53144C0.769206 6.64602 0.576497 6.81009 0.446289 7.02363C0.321289 7.23196 0.258789 7.45071 0.258789 7.67988C0.258789 7.91425 0.321289 8.13821 0.446289 8.35175C0.576497 8.56009 0.769206 8.72154 1.02441 8.83613L8.71191 12.3518C9.12858 12.5393 9.50879 12.6773 9.85254 12.7658C10.2015 12.8544 10.5426 12.896 10.876 12.8908ZM10.876 11.6564C10.6156 11.6564 10.3525 11.6226 10.0869 11.5549C9.82129 11.482 9.52181 11.37 9.18848 11.2189L1.99316 7.9455C1.85775 7.883 1.79004 7.79446 1.79004 7.67988C1.79004 7.5705 1.85775 7.48456 1.99316 7.42206L9.18848 4.14863C9.52181 3.99759 9.82129 3.88821 10.0869 3.8205C10.3525 3.74759 10.6156 3.71113 10.876 3.71113C11.1364 3.71113 11.3994 3.74759 11.665 3.8205C11.9359 3.88821 12.238 3.99759 12.5713 4.14863L19.7666 7.42206C19.902 7.48456 19.9697 7.5705 19.9697 7.67988C19.9697 7.79446 19.902 7.883 19.7666 7.9455L12.5713 11.2189C12.238 11.37 11.9359 11.482 11.665 11.5549C11.3994 11.6226 11.1364 11.6564 10.876 11.6564ZM3.30566 13.5549C3.30566 14.1382 3.48275 14.6903 3.83691 15.2111C4.19108 15.732 4.69889 16.1903 5.36035 16.5861C6.02702 16.9872 6.82389 17.2997 7.75098 17.5236C8.68327 17.7528 9.72493 17.8674 10.876 17.8674C12.027 17.8674 13.0687 17.7528 14.001 17.5236C14.9333 17.2997 15.7301 16.9872 16.3916 16.5861C17.0531 16.1903 17.5609 15.732 17.915 15.2111C18.2744 14.6903 18.4541 14.1382 18.4541 13.5549V9.42988H17.1963V13.5549C17.1963 13.9611 17.0479 14.3518 16.751 14.7268C16.4541 15.1018 16.0296 15.4377 15.4775 15.7346C14.9255 16.0262 14.2614 16.258 13.4854 16.4299C12.7093 16.6018 11.8395 16.6877 10.876 16.6877C9.91764 16.6877 9.04785 16.6018 8.2666 16.4299C7.49056 16.258 6.8265 16.0262 6.27441 15.7346C5.72233 15.4377 5.29785 15.1018 5.00098 14.7268C4.70931 14.3518 4.56348 13.9611 4.56348 13.5549V9.42988H3.30566V13.5549ZM10.9072 8.5705C11.1885 8.5705 11.4541 8.53144 11.7041 8.45331C11.9593 8.37519 12.165 8.27102 12.3213 8.14081C12.4827 8.0054 12.5635 7.85175 12.5635 7.67988C12.5635 7.51321 12.4827 7.36477 12.3213 7.23456C12.165 7.10436 11.9593 7.00279 11.7041 6.92988C11.4541 6.85175 11.1885 6.81269 10.9072 6.81269C10.6312 6.81269 10.3656 6.85175 10.1104 6.92988C9.85514 7.00279 9.64681 7.10436 9.48535 7.23456C9.32389 7.36477 9.24316 7.51321 9.24316 7.67988C9.24316 7.85175 9.32389 8.0054 9.48535 8.14081C9.64681 8.27102 9.85514 8.37519 10.1104 8.45331C10.3656 8.53144 10.6312 8.5705 10.9072 8.5705ZM6.15723 10.633L10.79 8.17988L10.3604 7.37519L5.1416 10.0939L6.15723 10.633ZM5.1416 18.2971H6.15723V10.633L5.1416 10.133V18.2971ZM4.52441 18.4533V20.508C4.52441 20.8153 4.61556 21.0601 4.79785 21.2424C4.98535 21.4299 5.23275 21.5236 5.54004 21.5236H5.75098C6.05827 21.5236 6.30306 21.4299 6.48535 21.2424C6.67285 21.0601 6.7666 20.8153 6.7666 20.508V18.4533C6.7666 18.146 6.67285 17.8986 6.48535 17.7111C6.30306 17.5288 6.05827 17.4377 5.75098 17.4377H5.54004C5.23275 17.4377 4.98535 17.5288 4.79785 17.7111C4.61556 17.8986 4.52441 18.146 4.52441 18.4533Z"
		fill="currentColor"
	/>
</svg>
