<svg
	color="rgb(var(--foreground, 0, 0, 0))"
	viewBox="0 0 14 24"
	fill="none"
	xmlns="http://www.w3.org/2000/svg"
>
	<path
		d="M11.127 5.5625H12.0176C12.3613 5.5625 12.5332 5.75781 12.5332 6.14844V18.0547C12.5332 18.2891 12.502 18.4635 12.4395 18.5781C12.3822 18.6927 12.2415 18.7969 12.0176 18.8906C11.502 19.1146 10.9238 19.3099 10.2832 19.4766C9.64779 19.6484 8.98112 19.7786 8.2832 19.8672C7.59049 19.9609 6.90039 20.0078 6.21289 20.0078C5.60872 20.0078 5.01497 19.987 4.43164 19.9453C3.84831 19.9036 3.25716 19.8307 2.6582 19.7266V19.8281C3.48633 19.8385 4.29362 19.7943 5.08008 19.6953C5.87174 19.5964 6.61393 19.4531 7.30664 19.2656C8.00456 19.0833 8.62956 18.8698 9.18164 18.625C9.73893 18.3802 10.1973 18.1198 10.5566 17.8438C10.8379 17.6354 11.028 17.4375 11.127 17.25C11.2259 17.0625 11.2754 16.7969 11.2754 16.4531V3.99219C11.2754 3.60677 11.1816 3.32031 10.9941 3.13281C10.8066 2.9401 10.541 2.84375 10.1973 2.84375C10.0775 2.84375 9.94727 2.85938 9.80664 2.89062C9.66602 2.91667 9.51237 2.95573 9.3457 3.00781C8.16341 3.39323 6.99935 3.70052 5.85352 3.92969C4.70768 4.15885 3.44466 4.27344 2.06445 4.27344H1.43945C1.01758 4.27344 0.689453 4.38802 0.455078 4.61719C0.225911 4.84115 0.111328 5.14583 0.111328 5.53125V18.9375C0.111328 19.2396 0.158203 19.4896 0.251953 19.6875C0.345703 19.8854 0.535807 20.0547 0.822266 20.1953C1.49414 20.487 2.30404 20.7188 3.25195 20.8906C4.19987 21.0677 5.18685 21.1562 6.21289 21.1562C6.75977 21.1562 7.31706 21.1328 7.88477 21.0859C8.45768 21.0443 9.02279 20.9766 9.58008 20.8828C10.1374 20.7891 10.6738 20.6667 11.1895 20.5156C11.7103 20.3646 12.1895 20.1823 12.627 19.9688C13.0957 19.7448 13.4056 19.5052 13.5566 19.25C13.7129 18.9948 13.791 18.625 13.791 18.1406V6.14844C13.791 4.91927 13.1973 4.30469 12.0098 4.30469H11.127V5.5625ZM1.36914 18.3516V5.86719C1.36914 5.63281 1.47591 5.51562 1.68945 5.51562H2.11914C3.48372 5.51562 4.79622 5.39583 6.05664 5.15625C7.31706 4.91667 8.49414 4.625 9.58789 4.28125C9.7181 4.23958 9.82227 4.23698 9.90039 4.27344C9.97852 4.3099 10.0176 4.38802 10.0176 4.50781V16.1797C10.0176 16.3932 9.99154 16.5573 9.93945 16.6719C9.88737 16.7812 9.76237 16.901 9.56445 17.0312C9.1582 17.3021 8.68945 17.5443 8.1582 17.7578C7.62695 17.9714 7.0306 18.1484 6.36914 18.2891C5.70768 18.4349 4.98372 18.5365 4.19727 18.5938C3.41081 18.6562 2.55924 18.6693 1.64258 18.6328C1.46029 18.6224 1.36914 18.5286 1.36914 18.3516ZM2.96289 7.57812V10.1406C2.96289 10.2604 3.02539 10.3203 3.15039 10.3203C3.75977 10.3203 4.36654 10.2865 4.9707 10.2188C5.57487 10.1458 6.1556 10.0443 6.71289 9.91406C7.27018 9.77865 7.7832 9.61719 8.25195 9.42969C8.32487 9.39323 8.36133 9.33594 8.36133 9.25781V6.58594C8.36133 6.4974 8.33008 6.4401 8.26758 6.41406C8.20508 6.38802 8.15299 6.38542 8.11133 6.40625C7.30404 6.69792 6.49414 6.92448 5.68164 7.08594C4.87435 7.2474 4.0306 7.34375 3.15039 7.375C3.02539 7.38542 2.96289 7.45312 2.96289 7.57812Z"
		fill="currentColor"
	/>
</svg>
