<svg
	color="rgb(var(--foreground, 0, 0, 0))"
	viewBox="0 0 15 24"
	fill="none"
	xmlns="http://www.w3.org/2000/svg"
>
	<path
		d="M0.791016 18.9375C0.791016 19.2396 0.837891 19.4896 0.931641 19.6875C1.02539 19.8854 1.21549 20.0547 1.50195 20.1953C2.17383 20.487 2.96289 20.7188 3.86914 20.8906C4.7806 21.0677 5.78841 21.1562 6.89258 21.1562C7.43945 21.1562 7.99674 21.1328 8.56445 21.0859C9.13737 21.0443 9.70247 20.9766 10.2598 20.8828C10.8171 20.7891 11.3535 20.6667 11.8691 20.5156C12.39 20.3646 12.8691 20.1823 13.3066 19.9688C13.7754 19.7448 14.0853 19.5052 14.2363 19.25C14.3926 18.9948 14.4707 18.625 14.4707 18.1406V6.14844C14.4707 4.91927 13.877 4.30469 12.6895 4.30469H11.9551V3.99219C11.9551 3.60677 11.8613 3.32031 11.6738 3.13281C11.4863 2.9401 11.2207 2.84375 10.877 2.84375C10.7572 2.84375 10.627 2.85938 10.4863 2.89062C10.3457 2.91667 10.1921 2.95573 10.0254 3.00781C8.8431 3.39323 7.67904 3.70052 6.5332 3.92969C5.38737 4.15885 4.12435 4.27344 2.74414 4.27344H2.11914C1.69727 4.27344 1.36914 4.38802 1.13477 4.61719C0.905599 4.84115 0.791016 5.14583 0.791016 5.53125V18.9375ZM3.56445 10.1953V7.55469C3.56445 7.42448 3.62695 7.35417 3.75195 7.34375C4.6582 7.3125 5.52799 7.21354 6.36133 7.04688C7.19466 6.88021 8.02799 6.64583 8.86133 6.34375C8.9082 6.32292 8.96289 6.32552 9.02539 6.35156C9.08789 6.3776 9.11914 6.4375 9.11914 6.53125V9.28906C9.11914 9.36719 9.08268 9.42188 9.00977 9.45312C8.52539 9.65104 7.99674 9.82031 7.42383 9.96094C6.85091 10.0964 6.25195 10.2005 5.62695 10.2734C5.00716 10.3464 4.38216 10.3828 3.75195 10.3828C3.62695 10.3828 3.56445 10.3203 3.56445 10.1953ZM3.96289 19.8203C4.73372 19.7995 5.48112 19.7318 6.20508 19.6172C6.93424 19.5078 7.62174 19.3594 8.26758 19.1719C8.91862 18.9844 9.51237 18.7656 10.0488 18.5156C10.5853 18.2656 11.0462 17.9922 11.4316 17.6953C11.6139 17.5599 11.7467 17.4062 11.8301 17.2344C11.9134 17.0573 11.9551 16.7969 11.9551 16.4531V5.5625H12.6973C13.041 5.5625 13.2129 5.75781 13.2129 6.14844V18.0547C13.2129 18.2891 13.1816 18.4635 13.1191 18.5781C13.0618 18.6927 12.9212 18.7969 12.6973 18.8906C12.1816 19.1146 11.6035 19.3099 10.9629 19.4766C10.3275 19.6484 9.66081 19.7786 8.96289 19.8672C8.27018 19.9609 7.58008 20.0078 6.89258 20.0078C6.40299 20.0078 5.91862 19.9922 5.43945 19.9609C4.96029 19.9349 4.4681 19.888 3.96289 19.8203Z"
		fill="currentColor"
	/>
</svg>
