<svg
	color="rgb(var(--foreground, 0, 0, 0))"
	viewBox="0 0 14 24"
	fill="none"
	xmlns="http://www.w3.org/2000/svg"
>
	<path
		d="M2.18164 19.1511L11.0645 20.7214C11.5957 20.8151 12.0514 20.7839 12.4316 20.6276C12.8171 20.4714 13.1113 20.2005 13.3145 19.8151C13.5228 19.4349 13.627 18.9557 13.627 18.3776V8.71356C13.627 7.91668 13.4238 7.34377 13.0176 6.99481C12.6113 6.64585 12.0124 6.40366 11.2207 6.26825L2.60352 4.74481C2.20768 4.6771 1.86133 4.69793 1.56445 4.80731C1.27279 4.91668 1.04622 5.10418 0.884766 5.36981C0.723307 5.63543 0.642578 5.96356 0.642578 6.35418V17.3776C0.642578 17.8776 0.770182 18.2761 1.02539 18.5729C1.28581 18.8698 1.67122 19.0625 2.18164 19.1511ZM2.48633 17.9089C2.28841 17.8776 2.13997 17.8021 2.04102 17.6823C1.94727 17.5677 1.90039 17.4063 1.90039 17.1979V6.56512C1.90039 6.35679 1.96549 6.20314 2.0957 6.10418C2.23112 6.00002 2.41341 5.96877 2.64258 6.01043L11.1582 7.50262C11.554 7.57554 11.8535 7.70314 12.0566 7.88543C12.265 8.06252 12.3691 8.33335 12.3691 8.69793V18.2448C12.3691 18.6875 12.2467 19.013 12.002 19.2214C11.7624 19.4297 11.4316 19.4948 11.0098 19.4167L2.48633 17.9089ZM11.6738 7.22918H12.9316V5.40106C12.9316 4.57814 12.6712 3.98179 12.1504 3.612C11.6296 3.24221 10.9056 3.13804 9.97852 3.2995L1.81445 4.74481L2.2832 5.83075L10.4238 4.47918C10.8145 4.41148 11.1191 4.45575 11.3379 4.612C11.5618 4.76825 11.6738 5.01564 11.6738 5.35418V7.22918ZM3.85352 9.44793L9.87695 10.5104C10.0592 10.5417 10.2025 10.5078 10.3066 10.4089C10.416 10.3099 10.4707 10.1797 10.4707 10.0182C10.4707 9.73179 10.3301 9.56252 10.0488 9.51043L4.05664 8.46356C3.87956 8.43231 3.73372 8.46356 3.61914 8.55731C3.50456 8.64585 3.44727 8.77085 3.44727 8.93231C3.44727 9.06773 3.48112 9.18231 3.54883 9.27606C3.62174 9.36981 3.72331 9.4271 3.85352 9.44793ZM3.85352 12.4948L9.87695 13.5573C10.0592 13.5886 10.2025 13.5547 10.3066 13.4557C10.416 13.3568 10.4707 13.2266 10.4707 13.0651C10.4707 12.7787 10.3301 12.6094 10.0488 12.5573L4.05664 11.5104C3.87956 11.4792 3.73372 11.5104 3.61914 11.6042C3.50456 11.6979 3.44727 11.8229 3.44727 11.9792C3.44727 12.1198 3.48112 12.237 3.54883 12.3307C3.62174 12.4193 3.72331 12.474 3.85352 12.4948Z"
		fill="currentColor"
	/>
</svg>
