<svg
	color="rgb(var(--foreground, 0, 0, 0))"
	viewBox="0 0 14 24"
	fill="none"
	xmlns="http://www.w3.org/2000/svg"
>
	<path
		d="M2.10352 19.1271L10.6504 20.6349C11.1608 20.7286 11.5983 20.7 11.9629 20.5489C12.3327 20.3979 12.6165 20.1375 12.8145 19.7677C13.0124 19.3979 13.1113 18.9344 13.1113 18.3771V8.94739C13.1113 8.18176 12.916 7.63228 12.5254 7.29895C12.14 6.96561 11.5671 6.73124 10.8066 6.59582L2.50977 5.12707C2.12956 5.06457 1.79883 5.08801 1.51758 5.19739C1.23633 5.30155 1.01758 5.48124 0.861328 5.73645C0.705078 5.98645 0.626953 6.29895 0.626953 6.67395V17.4239C0.626953 17.9083 0.749349 18.2911 0.994141 18.5724C1.24414 18.8588 1.61393 19.0437 2.10352 19.1271ZM3.50977 9.46301C3.37435 9.44218 3.27018 9.38489 3.19727 9.29114C3.12435 9.19218 3.08789 9.07239 3.08789 8.93176C3.08789 8.76509 3.14518 8.63489 3.25977 8.54114C3.37956 8.44218 3.5332 8.40832 3.7207 8.43957L9.89258 9.5177C10.1842 9.5802 10.3301 9.75728 10.3301 10.0489C10.3301 10.2156 10.2754 10.351 10.166 10.4552C10.0566 10.5542 9.9056 10.588 9.71289 10.5568L3.50977 9.46301ZM3.50977 12.6036C3.37435 12.5828 3.27018 12.5255 3.19727 12.4318C3.12435 12.3328 3.08789 12.213 3.08789 12.0724C3.08789 11.9109 3.14518 11.7833 3.25977 11.6896C3.37956 11.5906 3.5332 11.5568 3.7207 11.588L9.89258 12.6661C10.1842 12.7182 10.3301 12.8927 10.3301 13.1896C10.3301 13.3614 10.2754 13.4995 10.166 13.6036C10.0566 13.7026 9.9056 13.7364 9.71289 13.7052L3.50977 12.6036ZM4.23633 4.35364L10.9941 5.54114C11.6504 5.66093 12.2077 5.84582 12.666 6.09582V5.48645C12.666 4.66353 12.4056 4.06718 11.8848 3.69739C11.3639 3.32759 10.64 3.22343 9.71289 3.38489L4.23633 4.35364Z"
		fill="currentColor"
	/>
</svg>
