<svg
	color="rgb(var(--foreground, 0, 0, 0))"
	viewBox="0 0 19 24"
	fill="none"
	xmlns="http://www.w3.org/2000/svg"
>
	<path
		d="M0.470703 18.0156C0.470703 18.7969 0.666016 19.3854 1.05664 19.7812C1.44727 20.1771 2.03841 20.375 2.83008 20.375H15.7832C16.6009 20.375 17.2129 20.1719 17.6191 19.7656C18.0306 19.3646 18.2363 18.763 18.2363 17.9609V6.04688C18.2363 5.23958 18.0306 4.63542 17.6191 4.23438C17.2129 3.82812 16.6009 3.625 15.7832 3.625H6.36914C5.55143 3.625 4.93685 3.82812 4.52539 4.23438C4.11914 4.63542 3.91602 5.23958 3.91602 6.04688V9.77344H2.04883C1.55404 9.77344 1.16602 9.90365 0.884766 10.1641C0.608724 10.4193 0.470703 10.7786 0.470703 11.2422V18.0156ZM1.72852 18.0156V11.4844C1.72852 11.3438 1.76758 11.2344 1.8457 11.1562C1.92904 11.0729 2.04362 11.0312 2.18945 11.0312H3.91602V18.0156C3.91602 18.3385 3.80924 18.6016 3.5957 18.8047C3.38737 19.013 3.13216 19.1172 2.83008 19.1172C2.51758 19.1172 2.25456 19.0104 2.04102 18.7969C1.83268 18.5885 1.72852 18.3281 1.72852 18.0156ZM4.9082 19.1172C5.08529 18.7734 5.17383 18.3802 5.17383 17.9375V6.11719C5.17383 5.71094 5.27799 5.40365 5.48633 5.19531C5.69987 4.98698 6.00195 4.88281 6.39258 4.88281H15.7598C16.1504 4.88281 16.4499 4.98698 16.6582 5.19531C16.8717 5.40365 16.9785 5.71094 16.9785 6.11719V17.8906C16.9785 18.2969 16.8717 18.6016 16.6582 18.8047C16.4499 19.013 16.1504 19.1172 15.7598 19.1172H4.9082ZM7.20508 8.28125H14.9629C15.0983 8.28125 15.2129 8.23438 15.3066 8.14062C15.4004 8.04167 15.4473 7.92448 15.4473 7.78906C15.4473 7.65885 15.4004 7.54948 15.3066 7.46094C15.2129 7.36719 15.0983 7.32031 14.9629 7.32031H7.20508C7.06445 7.32031 6.94727 7.36719 6.85352 7.46094C6.75977 7.54948 6.71289 7.65885 6.71289 7.78906C6.71289 7.92448 6.75977 8.04167 6.85352 8.14062C6.94727 8.23438 7.06445 8.28125 7.20508 8.28125ZM7.20508 11.0312H14.9629C15.0983 11.0312 15.2129 10.987 15.3066 10.8984C15.4004 10.8047 15.4473 10.6901 15.4473 10.5547C15.4473 10.4193 15.4004 10.3047 15.3066 10.2109C15.2129 10.1172 15.0983 10.0703 14.9629 10.0703H7.20508C7.06445 10.0703 6.94727 10.1172 6.85352 10.2109C6.75977 10.3047 6.71289 10.4193 6.71289 10.5547C6.71289 10.6901 6.75977 10.8047 6.85352 10.8984C6.94727 10.987 7.06445 11.0312 7.20508 11.0312ZM7.66602 16.6016H9.68945C9.98633 16.6016 10.2181 16.5182 10.3848 16.3516C10.5566 16.1797 10.6426 15.9453 10.6426 15.6484V13.7891C10.6426 13.487 10.5566 13.2526 10.3848 13.0859C10.2181 12.9141 9.98633 12.8281 9.68945 12.8281H7.66602C7.36393 12.8281 7.12695 12.9141 6.95508 13.0859C6.78841 13.2526 6.70508 13.487 6.70508 13.7891V15.6484C6.70508 15.9453 6.78841 16.1797 6.95508 16.3516C7.12695 16.5182 7.36393 16.6016 7.66602 16.6016ZM12.0488 13.7891H14.9551C15.0957 13.7891 15.2103 13.7448 15.2988 13.6562C15.3926 13.5625 15.4395 13.4505 15.4395 13.3203C15.4395 13.1797 15.3926 13.0625 15.2988 12.9688C15.2103 12.875 15.0957 12.8281 14.9551 12.8281H12.0488C11.9082 12.8281 11.791 12.875 11.6973 12.9688C11.6087 13.0625 11.5645 13.1797 11.5645 13.3203C11.5645 13.4505 11.6087 13.5625 11.6973 13.6562C11.791 13.7448 11.9082 13.7891 12.0488 13.7891ZM12.0488 16.6016H14.9551C15.0957 16.6016 15.2103 16.5573 15.2988 16.4688C15.3926 16.375 15.4395 16.263 15.4395 16.1328C15.4395 15.9922 15.3926 15.875 15.2988 15.7812C15.2103 15.6875 15.0957 15.6406 14.9551 15.6406H12.0488C11.9082 15.6406 11.791 15.6875 11.6973 15.7812C11.6087 15.875 11.5645 15.9922 11.5645 16.1328C11.5645 16.263 11.6087 16.375 11.6973 16.4688C11.791 16.5573 11.9082 16.6016 12.0488 16.6016Z"
		fill="currentColor"
	/>
</svg>
