<svg
	color="rgb(var(--foreground, 0, 0, 0))"
	viewBox="0 0 18 24"
	fill="none"
	xmlns="http://www.w3.org/2000/svg"
>
	<path
		d="M0.236328 11.2422V18.2188C0.236328 18.4062 0.277995 18.5703 0.361328 18.7109C0.444661 18.8516 0.559245 18.9609 0.705078 19.0391C0.850911 19.1172 1.01497 19.1562 1.19727 19.1562C1.37956 19.151 1.54362 19.1094 1.68945 19.0312C1.83529 18.9583 1.94987 18.8516 2.0332 18.7109C2.11654 18.5703 2.1582 18.4062 2.1582 18.2188V9.77344H1.77539C1.45768 9.77344 1.18424 9.83073 0.955078 9.94531C0.725911 10.0599 0.548828 10.2292 0.423828 10.4531C0.298828 10.6719 0.236328 10.9349 0.236328 11.2422ZM2.87695 20.375H15.2363C16.054 20.375 16.666 20.1719 17.0723 19.7656C17.4837 19.3646 17.6895 18.763 17.6895 17.9609V6.04688C17.6895 5.23958 17.4837 4.63542 17.0723 4.23438C16.666 3.82812 16.054 3.625 15.2363 3.625H6.13477C5.31706 3.625 4.70247 3.82812 4.29102 4.23438C3.88477 4.63542 3.68164 5.23958 3.68164 6.04688V18.7344C3.68164 19.1562 3.62435 19.4922 3.50977 19.7422C3.39518 19.9974 3.18424 20.2083 2.87695 20.375ZM6.81445 8.28125C6.67383 8.28125 6.55664 8.23438 6.46289 8.14062C6.36914 8.04167 6.32227 7.92448 6.32227 7.78906C6.32227 7.65885 6.36914 7.54948 6.46289 7.46094C6.55664 7.36719 6.67383 7.32031 6.81445 7.32031H14.5723C14.7077 7.32031 14.8223 7.36719 14.916 7.46094C15.0098 7.54948 15.0566 7.65885 15.0566 7.78906C15.0566 7.92448 15.0098 8.04167 14.916 8.14062C14.8223 8.23438 14.7077 8.28125 14.5723 8.28125H6.81445ZM6.81445 11.0312C6.67383 11.0312 6.55664 10.987 6.46289 10.8984C6.36914 10.8047 6.32227 10.6901 6.32227 10.5547C6.32227 10.4193 6.36914 10.3047 6.46289 10.2109C6.55664 10.1172 6.67383 10.0703 6.81445 10.0703H14.5723C14.7077 10.0703 14.8223 10.1172 14.916 10.2109C15.0098 10.3047 15.0566 10.4193 15.0566 10.5547C15.0566 10.6901 15.0098 10.8047 14.916 10.8984C14.8223 10.987 14.7077 11.0312 14.5723 11.0312H6.81445ZM11.6582 13.7891C11.5176 13.7891 11.4004 13.7448 11.3066 13.6562C11.2181 13.5625 11.1738 13.4505 11.1738 13.3203C11.1738 13.1797 11.2181 13.0625 11.3066 12.9688C11.4004 12.875 11.5176 12.8281 11.6582 12.8281H14.5723C14.7077 12.8281 14.8197 12.875 14.9082 12.9688C15.002 13.0625 15.0488 13.1797 15.0488 13.3203C15.0488 13.4505 15.002 13.5625 14.9082 13.6562C14.8197 13.7448 14.7077 13.7891 14.5723 13.7891H11.6582ZM11.6582 16.6016C11.5176 16.6016 11.4004 16.5573 11.3066 16.4688C11.2181 16.375 11.1738 16.263 11.1738 16.1328C11.1738 15.9922 11.2181 15.875 11.3066 15.7812C11.4004 15.6875 11.5176 15.6406 11.6582 15.6406H14.5723C14.7077 15.6406 14.8197 15.6875 14.9082 15.7812C15.002 15.875 15.0488 15.9922 15.0488 16.1328C15.0488 16.263 15.002 16.375 14.9082 16.4688C14.8197 16.5573 14.7077 16.6016 14.5723 16.6016H11.6582ZM7.23633 16.6406C6.94466 16.6406 6.7181 16.5599 6.55664 16.3984C6.39518 16.237 6.31445 16.013 6.31445 15.7266V13.75C6.31445 13.4635 6.39518 13.2396 6.55664 13.0781C6.7181 12.9115 6.94466 12.8281 7.23633 12.8281H9.18945C9.47591 12.8281 9.69987 12.9115 9.86133 13.0781C10.0228 13.2396 10.1035 13.4635 10.1035 13.75V15.7266C10.1035 16.013 10.0228 16.237 9.86133 16.3984C9.69987 16.5599 9.47591 16.6406 9.18945 16.6406H7.23633Z"
		fill="currentColor"
	/>
</svg>
