<svg
	color="rgb(var(--foreground, 0, 0, 0))"
	viewBox="0 0 16 24"
	fill="none"
	xmlns="http://www.w3.org/2000/svg"
>
	<path
		d="M7.97852 17.668C8.76497 17.668 9.49935 17.5221 10.1816 17.2305C10.8691 16.9388 11.4733 16.5326 11.9941 16.0117C12.515 15.4909 12.9238 14.8867 13.2207 14.1992C13.5176 13.5117 13.666 12.7747 13.666 11.9883C13.666 11.2018 13.5176 10.4674 13.2207 9.78516C12.9238 9.09766 12.515 8.49349 11.9941 7.97266C11.4733 7.45182 10.8691 7.04557 10.1816 6.75391C9.49935 6.45703 8.76497 6.30859 7.97852 6.30859C7.19727 6.30859 6.46289 6.45703 5.77539 6.75391C5.08789 7.04557 4.48372 7.45182 3.96289 7.97266C3.44206 8.49349 3.0332 9.09766 2.73633 9.78516C2.44466 10.4674 2.29883 11.2018 2.29883 11.9883C2.29883 12.7747 2.44466 13.5117 2.73633 14.1992C3.0332 14.8867 3.44206 15.4909 3.96289 16.0117C4.48372 16.5326 5.08789 16.9388 5.77539 17.2305C6.46289 17.5221 7.19727 17.668 7.97852 17.668ZM7.97852 16.4023C7.36914 16.4023 6.79883 16.2904 6.26758 16.0664C5.73633 15.8372 5.26758 15.5195 4.86133 15.1133C4.45508 14.707 4.13737 14.2383 3.9082 13.707C3.67904 13.1758 3.56445 12.6055 3.56445 11.9961C3.56445 11.3867 3.67904 10.8164 3.9082 10.2852C4.13737 9.75391 4.45508 9.28516 4.86133 8.87891C5.26758 8.47266 5.73633 8.15495 6.26758 7.92578C6.79883 7.69661 7.36914 7.58203 7.97852 7.58203C8.58789 7.58203 9.1582 7.69661 9.68945 7.92578C10.2259 8.15495 10.6973 8.47266 11.1035 8.87891C11.5098 9.28516 11.8275 9.75391 12.0566 10.2852C12.2858 10.8164 12.4004 11.3867 12.4004 11.9961C12.4004 12.6055 12.2858 13.1758 12.0566 13.707C11.8275 14.2383 11.5098 14.707 11.1035 15.1133C10.6973 15.5195 10.2259 15.8372 9.68945 16.0664C9.1582 16.2904 8.58789 16.4023 7.97852 16.4023ZM14.1035 18.5039C14.4316 18.1758 14.541 17.7148 14.4316 17.1211C14.3275 16.5221 14.0514 15.8372 13.6035 15.0664C13.1556 14.2904 12.5827 13.4727 11.8848 12.6133C11.1868 11.7539 10.4082 10.8971 9.54883 10.043C8.69466 9.18359 7.83789 8.40495 6.97852 7.70703C6.11914 7.00911 5.30143 6.4362 4.52539 5.98828C3.75456 5.54036 3.06966 5.26432 2.4707 5.16016C1.87695 5.05078 1.41602 5.16016 1.08789 5.48828C0.759766 5.81641 0.650391 6.27995 0.759766 6.87891C0.869141 7.47266 1.14518 8.15495 1.58789 8.92578C2.03581 9.69661 2.60872 10.5143 3.30664 11.3789C4.00977 12.2383 4.78841 13.0951 5.64258 13.9492C6.49674 14.8034 7.35352 15.582 8.21289 16.2852C9.07747 16.9831 9.89518 17.5534 10.666 17.9961C11.4368 18.444 12.1191 18.7227 12.7129 18.832C13.3118 18.9414 13.7754 18.832 14.1035 18.5039ZM13.2129 17.6133C13.0671 17.7643 12.7676 17.7435 12.3145 17.5508C11.8613 17.3529 11.3145 17.0326 10.6738 16.5898C10.0332 16.1419 9.35352 15.6133 8.63477 15.0039C7.91602 14.3945 7.21549 13.7461 6.5332 13.0586C5.8457 12.3763 5.19727 11.6758 4.58789 10.957C3.97852 10.2383 3.44987 9.55859 3.00195 8.91797C2.55924 8.27734 2.23893 7.73047 2.04102 7.27734C1.84831 6.82422 1.82747 6.52474 1.97852 6.37891C2.12435 6.22786 2.42383 6.2487 2.87695 6.44141C3.33008 6.63411 3.87435 6.95443 4.50977 7.40234C5.15039 7.84505 5.83008 8.3737 6.54883 8.98828C7.27279 9.59766 7.97852 10.2435 8.66602 10.9258C9.34831 11.6133 9.99414 12.3164 10.6035 13.0352C11.2181 13.7539 11.7467 14.4336 12.1895 15.0742C12.6374 15.7148 12.9577 16.2617 13.1504 16.7148C13.3431 17.168 13.3639 17.4674 13.2129 17.6133ZM12.4473 7.54297C12.6608 7.75651 12.9108 7.89974 13.1973 7.97266C13.4837 8.04557 13.7676 8.04557 14.0488 7.97266C14.3353 7.89974 14.5879 7.75651 14.8066 7.54297C15.0202 7.32943 15.1634 7.07943 15.2363 6.79297C15.3092 6.50651 15.3092 6.22005 15.2363 5.93359C15.1634 5.64714 15.0202 5.39714 14.8066 5.18359C14.5879 4.96484 14.3353 4.82161 14.0488 4.75391C13.7676 4.68099 13.4837 4.68099 13.1973 4.75391C12.9108 4.82161 12.6608 4.96484 12.4473 5.18359C12.2285 5.39714 12.0827 5.64714 12.0098 5.93359C11.9421 6.22005 11.9421 6.50651 12.0098 6.79297C12.0827 7.07943 12.2285 7.32943 12.4473 7.54297ZM12.4316 6.66016L2.39258 16.7148L3.27539 17.5977L13.3223 7.55859L12.4316 6.66016ZM1.18164 18.8086C1.39518 19.0273 1.64258 19.1732 1.92383 19.2461C2.21029 19.319 2.49674 19.319 2.7832 19.2461C3.06966 19.1732 3.31966 19.0273 3.5332 18.8086C3.75195 18.595 3.89779 18.3451 3.9707 18.0586C4.04362 17.7721 4.04362 17.4883 3.9707 17.207C3.89779 16.9206 3.75195 16.6706 3.5332 16.457C3.31966 16.2383 3.06966 16.0924 2.7832 16.0195C2.49674 15.9466 2.21029 15.9466 1.92383 16.0195C1.64258 16.0924 1.39518 16.2383 1.18164 16.457C0.962891 16.6706 0.817057 16.9206 0.744141 17.207C0.671224 17.4883 0.671224 17.7721 0.744141 18.0586C0.817057 18.3451 0.962891 18.595 1.18164 18.8086Z"
		fill="currentColor"
	/>
</svg>
