<svg
	color="rgb(var(--foreground, 0, 0, 0))"
	viewBox="0 0 16 24"
	fill="none"
	xmlns="http://www.w3.org/2000/svg"
>
	<path
		d="M2.8916 20.6484C3.07389 20.6484 3.20671 20.6016 3.29004 20.5078C3.37858 20.4141 3.44629 20.2812 3.49316 20.1094L4.14941 17.625H11.3916L12.0479 20.1094C12.0947 20.2812 12.165 20.4141 12.2588 20.5078C12.3525 20.6016 12.4827 20.6484 12.6494 20.6484C12.8525 20.6484 13.0036 20.5938 13.1025 20.4844C13.2067 20.3802 13.2588 20.2422 13.2588 20.0703C13.2588 19.9818 13.2484 19.901 13.2275 19.8281L11.9775 15.1484H12.4307C12.6859 15.1484 12.8968 15.0781 13.0635 14.9375C13.2354 14.7917 13.3213 14.6068 13.3213 14.3828C13.3213 14.138 13.2432 13.9453 13.0869 13.8047C12.9307 13.6589 12.7249 13.5859 12.4697 13.5859H3.54785C3.25618 13.5859 3.02962 13.513 2.86816 13.3672C2.70671 13.2161 2.62598 13 2.62598 12.7188V10.5781H3.8291V11.1562C3.8291 11.599 3.94108 11.9271 4.16504 12.1406C4.389 12.3542 4.72754 12.4609 5.18066 12.4609H10.415C10.8682 12.4609 11.2041 12.3542 11.4229 12.1406C11.6468 11.9271 11.7588 11.599 11.7588 11.1562V10.5781H14.5713C14.7796 10.5781 14.9463 10.526 15.0713 10.4219C15.1963 10.3125 15.2588 10.1641 15.2588 9.97656C15.2588 9.78906 15.1989 9.64062 15.0791 9.53125C14.9593 9.42188 14.8005 9.36719 14.6025 9.36719H0.852539C0.665039 9.36719 0.513997 9.42448 0.399414 9.53906C0.290039 9.64844 0.235352 9.79427 0.235352 9.97656C0.235352 10.1641 0.295247 10.3125 0.415039 10.4219C0.534831 10.526 0.693685 10.5781 0.891602 10.5781H1.41504V13.5078C1.41504 14.0234 1.56348 14.4271 1.86035 14.7188C2.15723 15.0052 2.56348 15.1484 3.0791 15.1484H3.56348L2.32129 19.8281C2.31087 19.8646 2.30046 19.9036 2.29004 19.9453C2.28483 19.987 2.28223 20.0312 2.28223 20.0781C2.28223 20.2396 2.3291 20.375 2.42285 20.4844C2.52181 20.5938 2.67806 20.6484 2.8916 20.6484ZM4.47754 16.4062L4.80566 15.1484H10.7354L11.0635 16.4062H4.47754ZM5.14941 8.20312H10.4463C11.3525 8.20312 11.8057 7.76302 11.8057 6.88281V4.67188C11.8057 3.79167 11.3525 3.35156 10.4463 3.35156H5.14941C4.24316 3.35156 3.79004 3.79167 3.79004 4.67188V6.88281C3.79004 7.76302 4.24316 8.20312 5.14941 8.20312Z"
		fill="currentColor"
	/>
</svg>
