<svg
	color="rgb(var(--foreground, 0, 0, 0))"
	viewBox="0 0 19 24"
	fill="none"
	xmlns="http://www.w3.org/2000/svg"
>
	<path
		d="M2.45312 18.668H15.9688C16.7917 18.668 17.4062 18.4648 17.8125 18.0586C18.2188 17.6576 18.4219 17.0534 18.4219 16.2461V11.6211C18.4219 11.3867 18.4089 11.1862 18.3828 11.0195C18.3568 10.8477 18.3099 10.694 18.2422 10.5586C18.1797 10.418 18.0911 10.2773 17.9766 10.1367L15.2812 6.80078C14.974 6.42578 14.7031 6.13151 14.4688 5.91797C14.2396 5.70443 13.9818 5.55339 13.6953 5.46484C13.4089 5.3763 13.0339 5.33203 12.5703 5.33203H5.85156C5.38802 5.33203 5.01302 5.3763 4.72656 5.46484C4.44531 5.55339 4.1875 5.70443 3.95312 5.91797C3.71875 6.13151 3.45052 6.42578 3.14844 6.80078L0.445312 10.1367C0.330729 10.2773 0.239583 10.418 0.171875 10.5586C0.109375 10.694 0.0651042 10.8477 0.0390625 11.0195C0.0130208 11.1862 0 11.3867 0 11.6211V16.2461C0 17.0534 0.203125 17.6576 0.609375 18.0586C1.02083 18.4648 1.63542 18.668 2.45312 18.668ZM2.46875 17.4102C2.07812 17.4102 1.77865 17.3086 1.57031 17.1055C1.36198 16.8971 1.25781 16.5898 1.25781 16.1836V12.293H6.21094C6.27344 12.7826 6.44271 13.2201 6.71875 13.6055C6.99479 13.9857 7.34635 14.2852 7.77344 14.5039C8.20573 14.7227 8.6849 14.832 9.21094 14.832C9.74219 14.832 10.2214 14.7227 10.6484 14.5039C11.0807 14.2799 11.4323 13.9779 11.7031 13.5977C11.9792 13.2122 12.1484 12.7773 12.2109 12.293H17.1641V16.1836C17.1641 16.5898 17.0573 16.8971 16.8438 17.1055C16.6354 17.3086 16.3385 17.4102 15.9531 17.4102H2.46875ZM9.21094 13.6758C8.84115 13.6758 8.52083 13.5846 8.25 13.4023C7.97917 13.2148 7.76823 12.9779 7.61719 12.6914C7.47135 12.4049 7.39844 12.1107 7.39844 11.8086V11.7852C7.39844 11.6237 7.34896 11.4779 7.25 11.3477C7.15104 11.2174 7 11.1523 6.79688 11.1523H1.64844C1.51823 11.1523 1.4375 11.1081 1.40625 11.0195C1.38021 10.931 1.40104 10.8451 1.46875 10.7617L4.36719 7.10547C4.5599 6.86068 4.76823 6.6862 4.99219 6.58203C5.22135 6.47786 5.47656 6.42578 5.75781 6.42578H12.6641C12.9505 6.42578 13.2057 6.47786 13.4297 6.58203C13.6536 6.6862 13.862 6.86068 14.0547 7.10547L16.9609 10.7617C17.0234 10.8451 17.0391 10.931 17.0078 11.0195C16.9818 11.1081 16.9062 11.1523 16.7812 11.1523H11.625C11.4219 11.1523 11.2708 11.2174 11.1719 11.3477C11.0781 11.4779 11.0312 11.6237 11.0312 11.7852V11.8086C11.0312 12.1107 10.9557 12.4049 10.8047 12.6914C10.6536 12.9779 10.4427 13.2148 10.1719 13.4023C9.90104 13.5846 9.58073 13.6758 9.21094 13.6758Z"
		fill="currentColor"
	/>
</svg>
