<svg
	color="rgb(var(--foreground, 0, 0, 0))"
	viewBox="0 0 19 24"
	fill="none"
	xmlns="http://www.w3.org/2000/svg"
>
	<path
		d="M2.875 18.668H16.3906C17.2135 18.668 17.8281 18.4648 18.2344 18.0586C18.6406 17.6576 18.8438 17.0534 18.8438 16.2461V11.9336C18.8438 11.6992 18.8281 11.4987 18.7969 11.332C18.7708 11.1654 18.724 11.0143 18.6562 10.8789C18.5938 10.7435 18.5078 10.6003 18.3984 10.4492L15.7031 6.80078C15.4167 6.41016 15.1562 6.11068 14.9219 5.90234C14.6875 5.6888 14.4219 5.54036 14.125 5.45703C13.8333 5.3737 13.4557 5.33203 12.9922 5.33203H6.27344C5.8099 5.33203 5.42969 5.3737 5.13281 5.45703C4.84115 5.54036 4.57812 5.6888 4.34375 5.90234C4.10938 6.11068 3.85156 6.41016 3.57031 6.80078L0.867188 10.4492C0.757812 10.6003 0.669271 10.7435 0.601562 10.8789C0.539062 11.0143 0.492188 11.1654 0.460938 11.332C0.434896 11.4987 0.421875 11.6992 0.421875 11.9336V16.2461C0.421875 17.0534 0.625 17.6576 1.03125 18.0586C1.44271 18.4648 2.05729 18.668 2.875 18.668ZM9.63281 14.1445C9.24219 14.1445 8.90104 14.0482 8.60938 13.8555C8.32292 13.6576 8.10156 13.4076 7.94531 13.1055C7.78906 12.8034 7.71094 12.4909 7.71094 12.168V12.1445C7.71094 11.9674 7.65625 11.8112 7.54688 11.6758C7.44271 11.5352 7.28125 11.4648 7.0625 11.4648H2.08594C1.95573 11.4648 1.875 11.4232 1.84375 11.3398C1.81771 11.2513 1.83594 11.1628 1.89844 11.0742L4.78906 7.10547C4.97135 6.85547 5.17708 6.68099 5.40625 6.58203C5.64062 6.47786 5.89844 6.42578 6.17969 6.42578H13.0859C13.3724 6.42578 13.6302 6.47786 13.8594 6.58203C14.0885 6.68099 14.2943 6.85547 14.4766 7.10547L17.3672 11.0742C17.4245 11.1628 17.4375 11.2513 17.4062 11.3398C17.3802 11.4232 17.3047 11.4648 17.1797 11.4648H12.2031C11.9844 11.4648 11.8229 11.5352 11.7188 11.6758C11.6146 11.8112 11.5625 11.9674 11.5625 12.1445V12.168C11.5625 12.4909 11.4818 12.8034 11.3203 13.1055C11.1641 13.4076 10.9401 13.6576 10.6484 13.8555C10.362 14.0482 10.0234 14.1445 9.63281 14.1445Z"
		fill="currentColor"
	/>
</svg>
