<svg
	color="rgb(var(--foreground, 0, 0, 0))"
	viewBox="0 0 19 24"
	fill="none"
	xmlns="http://www.w3.org/2000/svg"
>
	<path
		d="M2.5625 13.7227H16.0781C16.901 13.7227 17.5156 13.5273 17.9219 13.1367C18.3281 12.7461 18.5312 12.1706 18.5312 11.4102V8.24609C18.5312 8.00651 18.5208 7.79297 18.5 7.60547C18.4844 7.41797 18.4453 7.2487 18.3828 7.09766C18.3203 6.94141 18.2214 6.80078 18.0859 6.67578L15.3203 4.05859C15.0391 3.79297 14.7708 3.58464 14.5156 3.43359C14.2656 3.28255 13.9974 3.17578 13.7109 3.11328C13.4245 3.04557 13.0885 3.01172 12.7031 3.01172H5.9375C5.55208 3.01172 5.21615 3.04557 4.92969 3.11328C4.64844 3.17578 4.38021 3.28255 4.125 3.43359C3.875 3.58464 3.60938 3.79297 3.32812 4.05859L0.554688 6.67578C0.419271 6.80078 0.320312 6.94141 0.257812 7.09766C0.195312 7.2487 0.153646 7.41797 0.132812 7.60547C0.117188 7.79297 0.109375 8.00651 0.109375 8.24609V11.4102C0.109375 12.1654 0.3125 12.7409 0.71875 13.1367C1.13021 13.5273 1.74479 13.7227 2.5625 13.7227ZM9.32031 10.2148C8.95052 10.2148 8.63021 10.1237 8.35938 9.94141C8.08854 9.75391 7.8776 9.51953 7.72656 9.23828C7.58073 8.95182 7.50781 8.65755 7.50781 8.35547V8.32422C7.50781 8.16276 7.45833 8.01693 7.35938 7.88672C7.26042 7.75651 7.10938 7.69141 6.90625 7.69141H1.94531C1.72135 7.69141 1.58073 7.64453 1.52344 7.55078C1.47135 7.45182 1.53385 7.31901 1.71094 7.15234L4.28906 4.72266C4.52865 4.4987 4.75 4.33984 4.95312 4.24609C5.16146 4.15234 5.45052 4.10547 5.82031 4.10547H12.8203C13.1953 4.10547 13.4844 4.15234 13.6875 4.24609C13.8906 4.33984 14.112 4.4987 14.3516 4.72266L16.9297 7.15234C17.1172 7.32943 17.1797 7.46484 17.1172 7.55859C17.0599 7.64714 16.9219 7.69141 16.7031 7.69141H11.7344C11.5312 7.69141 11.3802 7.75651 11.2812 7.88672C11.1875 8.01693 11.1406 8.16276 11.1406 8.32422V8.35547C11.1406 8.65755 11.0651 8.95182 10.9141 9.23828C10.763 9.51953 10.5521 9.75391 10.2812 9.94141C10.0104 10.1237 9.6901 10.2148 9.32031 10.2148ZM2.5625 20.9883H16.0781C16.8958 20.9883 17.5078 20.7852 17.9141 20.3789C18.3255 19.9727 18.5312 19.3685 18.5312 18.5664V15.6914C18.5312 15.4674 18.4635 15.2669 18.3281 15.0898C18.1927 14.9128 18.0078 14.8242 17.7734 14.8242H11.7344C11.5312 14.8242 11.3802 14.8893 11.2812 15.0195C11.1875 15.1445 11.1406 15.2878 11.1406 15.4492V15.4805C11.1406 15.7826 11.0651 16.0768 10.9141 16.3633C10.763 16.6497 10.5521 16.8867 10.2812 17.0742C10.0104 17.2565 9.6901 17.3477 9.32031 17.3477C8.95052 17.3477 8.63021 17.2565 8.35938 17.0742C8.08854 16.8867 7.8776 16.6497 7.72656 16.3633C7.58073 16.0768 7.50781 15.7826 7.50781 15.4805V15.4492C7.50781 15.2878 7.45833 15.1445 7.35938 15.0195C7.26042 14.8893 7.10938 14.8242 6.90625 14.8242H0.867188C0.632812 14.8242 0.447917 14.9128 0.3125 15.0898C0.177083 15.2669 0.109375 15.4674 0.109375 15.6914V18.5664C0.109375 19.3737 0.3125 19.9779 0.71875 20.3789C1.13021 20.7852 1.74479 20.9883 2.5625 20.9883Z"
		fill="currentColor"
	/>
</svg>
