<svg
	color="rgb(var(--foreground, 0, 0, 0))"
	viewBox="0 0 19 24"
	fill="none"
	xmlns="http://www.w3.org/2000/svg"
>
	<path
		d="M2.71875 18.668H16.2344C17.0573 18.668 17.6719 18.4648 18.0781 18.0586C18.4844 17.6576 18.6875 17.0534 18.6875 16.2461V11.9336C18.6875 11.6992 18.6719 11.4987 18.6406 11.332C18.6146 11.1654 18.5677 11.0143 18.5 10.8789C18.4375 10.7435 18.3516 10.6003 18.2422 10.4492L15.5469 6.80078C15.2604 6.41016 15 6.11068 14.7656 5.90234C14.5312 5.6888 14.2656 5.54036 13.9688 5.45703C13.6771 5.3737 13.2995 5.33203 12.8359 5.33203H6.11719C5.65365 5.33203 5.27344 5.3737 4.97656 5.45703C4.6849 5.54036 4.42188 5.6888 4.1875 5.90234C3.95312 6.11068 3.69531 6.41016 3.41406 6.80078L0.710938 10.4492C0.601562 10.6003 0.513021 10.7435 0.445312 10.8789C0.382812 11.0143 0.335938 11.1654 0.304688 11.332C0.278646 11.4987 0.265625 11.6992 0.265625 11.9336V16.2461C0.265625 17.0534 0.46875 17.6576 0.875 18.0586C1.28646 18.4648 1.90104 18.668 2.71875 18.668ZM9.47656 14.1445C9.08594 14.1445 8.74479 14.0482 8.45312 13.8555C8.16667 13.6576 7.94531 13.4076 7.78906 13.1055C7.63281 12.8034 7.55469 12.4909 7.55469 12.168V12.1445C7.55469 11.9674 7.5 11.8112 7.39062 11.6758C7.28646 11.5352 7.125 11.4648 6.90625 11.4648H1.92969C1.79948 11.4648 1.71875 11.4232 1.6875 11.3398C1.66146 11.2513 1.67969 11.1628 1.74219 11.0742L4.63281 7.10547C4.8151 6.85547 5.02083 6.68099 5.25 6.58203C5.48438 6.47786 5.74219 6.42578 6.02344 6.42578H12.9297C13.2161 6.42578 13.474 6.47786 13.7031 6.58203C13.9323 6.68099 14.138 6.85547 14.3203 7.10547L17.2109 11.0742C17.2682 11.1628 17.2812 11.2513 17.25 11.3398C17.224 11.4232 17.1484 11.4648 17.0234 11.4648H12.0469C11.8281 11.4648 11.6667 11.5352 11.5625 11.6758C11.4583 11.8112 11.4062 11.9674 11.4062 12.1445V12.168C11.4062 12.4909 11.3255 12.8034 11.1641 13.1055C11.0078 13.4076 10.7839 13.6576 10.4922 13.8555C10.2057 14.0482 9.86719 14.1445 9.47656 14.1445ZM12.7578 7.57422H6.19531C6.09115 7.57422 6.0026 7.61068 5.92969 7.68359C5.85677 7.75651 5.82031 7.84505 5.82031 7.94922C5.82031 8.05339 5.85677 8.14193 5.92969 8.21484C6.0026 8.28776 6.09115 8.32422 6.19531 8.32422H12.7578C12.8672 8.32422 12.9557 8.28776 13.0234 8.21484C13.0964 8.14193 13.1328 8.05339 13.1328 7.94922C13.1328 7.84505 13.0964 7.75651 13.0234 7.68359C12.9557 7.61068 12.8672 7.57422 12.7578 7.57422ZM13.7969 9.33984H5.15625C5.04688 9.33984 4.95312 9.38151 4.875 9.46484C4.80208 9.54818 4.76562 9.64193 4.76562 9.74609C4.76562 9.85026 4.80208 9.94141 4.875 10.0195C4.95312 10.0977 5.04688 10.1367 5.15625 10.1367H13.7969C13.9062 10.1367 13.9974 10.0977 14.0703 10.0195C14.1484 9.94141 14.1875 9.85026 14.1875 9.74609C14.1875 9.64193 14.1484 9.54818 14.0703 9.46484C13.9974 9.38151 13.9062 9.33984 13.7969 9.33984Z"
		fill="currentColor"
	/>
</svg>
