<svg
	color="rgb(var(--foreground, 0, 0, 0))"
	viewBox="0 0 20 24"
	fill="none"
	xmlns="http://www.w3.org/2000/svg"
>
	<path
		d="M3.14062 14.8711H16.6562C17.4792 14.8711 18.0938 14.6732 18.5 14.2773C18.9062 13.8815 19.1094 13.3086 19.1094 12.5586V8.24609C19.1094 8.00651 19.099 7.79297 19.0781 7.60547C19.0625 7.41797 19.0234 7.2487 18.9609 7.09766C18.8984 6.94141 18.7995 6.80078 18.6641 6.67578L15.8984 4.05859C15.6172 3.79297 15.349 3.58464 15.0938 3.43359C14.8438 3.28255 14.5755 3.17578 14.2891 3.11328C14.0026 3.04557 13.6667 3.01172 13.2812 3.01172H6.51562C6.13021 3.01172 5.79427 3.04557 5.50781 3.11328C5.22656 3.17578 4.95833 3.28255 4.70312 3.43359C4.45312 3.58464 4.1875 3.79297 3.90625 4.05859L1.13281 6.67578C0.997396 6.80078 0.898438 6.94141 0.835938 7.09766C0.773438 7.2487 0.731771 7.41797 0.710938 7.60547C0.695312 7.79297 0.6875 8.00651 0.6875 8.24609V12.5586C0.6875 13.3138 0.890625 13.8893 1.29688 14.2852C1.70833 14.6758 2.32292 14.8711 3.14062 14.8711ZM9.89844 10.2148C9.52865 10.2148 9.20833 10.1237 8.9375 9.94141C8.66667 9.75391 8.45573 9.51953 8.30469 9.23828C8.15885 8.95182 8.08594 8.65755 8.08594 8.35547V8.32422C8.08594 8.16276 8.03646 8.01693 7.9375 7.88672C7.83854 7.75651 7.6875 7.69141 7.48438 7.69141H2.52344C2.29948 7.69141 2.15885 7.64453 2.10156 7.55078C2.04948 7.45182 2.11198 7.31901 2.28906 7.15234L4.86719 4.72266C5.10677 4.4987 5.32812 4.33984 5.53125 4.24609C5.73958 4.15234 6.02865 4.10547 6.39844 4.10547H13.3984C13.7734 4.10547 14.0625 4.15234 14.2656 4.24609C14.4688 4.33984 14.6901 4.4987 14.9297 4.72266L17.5078 7.15234C17.6953 7.32943 17.7578 7.46484 17.6953 7.55859C17.638 7.64714 17.5 7.69141 17.2812 7.69141H12.3125C12.1094 7.69141 11.9583 7.75651 11.8594 7.88672C11.7656 8.01693 11.7188 8.16276 11.7188 8.32422V8.35547C11.7188 8.65755 11.6432 8.95182 11.4922 9.23828C11.3411 9.51953 11.1302 9.75391 10.8594 9.94141C10.5885 10.1237 10.2682 10.2148 9.89844 10.2148ZM3.15625 13.7227C2.76562 13.7227 2.46615 13.6185 2.25781 13.4102C2.04948 13.2018 1.94531 12.8945 1.94531 12.4883V8.83984H6.89844C6.96094 9.32422 7.13021 9.75911 7.40625 10.1445C7.68229 10.5247 8.03385 10.8268 8.46094 11.0508C8.89323 11.2695 9.3724 11.3789 9.89844 11.3789C10.4297 11.3789 10.9089 11.2695 11.3359 11.0508C11.7682 10.8268 12.1198 10.5247 12.3906 10.1445C12.6667 9.75911 12.8359 9.32422 12.8984 8.83984H17.8516V12.4883C17.8516 12.8945 17.7448 13.2018 17.5312 13.4102C17.3229 13.6185 17.026 13.7227 16.6406 13.7227H3.15625ZM3.14062 20.9883H16.6562C17.474 20.9883 18.0859 20.7852 18.4922 20.3789C18.9036 19.9727 19.1094 19.3685 19.1094 18.5664V14.5898C19.1094 14.444 19.0781 14.306 19.0156 14.1758C18.9583 14.0404 18.8724 13.931 18.7578 13.8477C18.6432 13.7643 18.5078 13.7227 18.3516 13.7227H12.3125C12.1094 13.7227 11.9583 13.7878 11.8594 13.918C11.7656 14.0482 11.7188 14.194 11.7188 14.3555V14.3867C11.7188 14.6888 11.6432 14.9831 11.4922 15.2695C11.3411 15.5508 11.1302 15.7852 10.8594 15.9727C10.5885 16.1549 10.2682 16.2461 9.89844 16.2461C9.52865 16.2461 9.20833 16.1549 8.9375 15.9727C8.66667 15.7852 8.45573 15.5508 8.30469 15.2695C8.15885 14.9831 8.08594 14.6888 8.08594 14.3867V14.3555C8.08594 14.194 8.03646 14.0482 7.9375 13.918C7.83854 13.7878 7.6875 13.7227 7.48438 13.7227H1.44531C1.28906 13.7227 1.15365 13.7643 1.03906 13.8477C0.929688 13.931 0.84375 14.0404 0.78125 14.1758C0.71875 14.306 0.6875 14.444 0.6875 14.5898V18.5664C0.6875 19.3737 0.890625 19.9779 1.29688 20.3789C1.70833 20.7852 2.32292 20.9883 3.14062 20.9883ZM3.15625 19.7305C2.76562 19.7305 2.46615 19.6263 2.25781 19.418C2.04948 19.2096 1.94531 18.9023 1.94531 18.4961V14.8711H6.89844C6.96094 15.3555 7.13021 15.7904 7.40625 16.1758C7.68229 16.556 8.03385 16.8581 8.46094 17.082C8.89323 17.3008 9.3724 17.4102 9.89844 17.4102C10.4297 17.4102 10.9089 17.3008 11.3359 17.082C11.7682 16.8581 12.1198 16.556 12.3906 16.1758C12.6667 15.7904 12.8359 15.3555 12.8984 14.8711H17.8516V18.4961C17.8516 18.9023 17.7448 19.2096 17.5312 19.418C17.3229 19.6263 17.026 19.7305 16.6406 19.7305H3.15625Z"
		fill="currentColor"
	/>
</svg>
