<svg
	color="rgb(var(--foreground, 0, 0, 0))"
	viewBox="0 0 20 24"
	fill="none"
	xmlns="http://www.w3.org/2000/svg"
>
	<path
		d="M3.29688 18.668H16.8125C17.6354 18.668 18.25 18.4648 18.6562 18.0586C19.0625 17.6576 19.2656 17.0534 19.2656 16.2461V11.6211C19.2656 11.3867 19.2526 11.1862 19.2266 11.0195C19.2005 10.8477 19.1536 10.694 19.0859 10.5586C19.0234 10.418 18.9349 10.2773 18.8203 10.1367L16.125 6.80078C15.8177 6.42578 15.5469 6.13151 15.3125 5.91797C15.0833 5.70443 14.8255 5.55339 14.5391 5.46484C14.2526 5.3763 13.8776 5.33203 13.4141 5.33203H6.69531C6.23177 5.33203 5.85677 5.3763 5.57031 5.46484C5.28906 5.55339 5.03125 5.70443 4.79688 5.91797C4.5625 6.13151 4.29427 6.42578 3.99219 6.80078L1.28906 10.1367C1.17448 10.2773 1.08333 10.418 1.01562 10.5586C0.953125 10.694 0.908854 10.8477 0.882812 11.0195C0.856771 11.1862 0.84375 11.3867 0.84375 11.6211V16.2461C0.84375 17.0534 1.04688 17.6576 1.45312 18.0586C1.86458 18.4648 2.47917 18.668 3.29688 18.668ZM3.3125 17.4102C2.92188 17.4102 2.6224 17.3086 2.41406 17.1055C2.20573 16.8971 2.10156 16.5898 2.10156 16.1836V12.293H7.05469C7.11719 12.7826 7.28646 13.2201 7.5625 13.6055C7.83854 13.9857 8.1901 14.2852 8.61719 14.5039C9.04948 14.7227 9.52865 14.832 10.0547 14.832C10.5859 14.832 11.0651 14.7227 11.4922 14.5039C11.9245 14.2799 12.276 13.9779 12.5469 13.5977C12.8229 13.2122 12.9922 12.7773 13.0547 12.293H18.0078V16.1836C18.0078 16.5898 17.901 16.8971 17.6875 17.1055C17.4792 17.3086 17.1823 17.4102 16.7969 17.4102H3.3125ZM10.0547 13.6758C9.6849 13.6758 9.36458 13.5846 9.09375 13.4023C8.82292 13.2148 8.61198 12.9779 8.46094 12.6914C8.3151 12.4049 8.24219 12.1107 8.24219 11.8086V11.7852C8.24219 11.6237 8.19271 11.4779 8.09375 11.3477C7.99479 11.2174 7.84375 11.1523 7.64062 11.1523H2.49219C2.36198 11.1523 2.28125 11.1081 2.25 11.0195C2.22396 10.931 2.24479 10.8451 2.3125 10.7617L5.21094 7.10547C5.40365 6.86068 5.61198 6.6862 5.83594 6.58203C6.0651 6.47786 6.32031 6.42578 6.60156 6.42578H13.5078C13.7943 6.42578 14.0495 6.47786 14.2734 6.58203C14.4974 6.6862 14.7057 6.86068 14.8984 7.10547L17.8047 10.7617C17.8672 10.8451 17.8828 10.931 17.8516 11.0195C17.8255 11.1081 17.75 11.1523 17.625 11.1523H12.4688C12.2656 11.1523 12.1146 11.2174 12.0156 11.3477C11.9219 11.4779 11.875 11.6237 11.875 11.7852V11.8086C11.875 12.1107 11.7995 12.4049 11.6484 12.6914C11.4974 12.9779 11.2865 13.2148 11.0156 13.4023C10.7448 13.5846 10.4245 13.6758 10.0547 13.6758ZM13.3359 7.57422H6.77344C6.66927 7.57422 6.58073 7.61068 6.50781 7.68359C6.4349 7.75651 6.39844 7.84505 6.39844 7.94922C6.39844 8.05339 6.4349 8.14193 6.50781 8.21484C6.58073 8.28776 6.66927 8.32422 6.77344 8.32422H13.3359C13.4453 8.32422 13.5339 8.28776 13.6016 8.21484C13.6745 8.14193 13.7109 8.05339 13.7109 7.94922C13.7109 7.84505 13.6745 7.75651 13.6016 7.68359C13.5339 7.61068 13.4453 7.57422 13.3359 7.57422ZM14.375 9.33984H5.73438C5.625 9.33984 5.53125 9.38151 5.45312 9.46484C5.38021 9.54818 5.34375 9.64193 5.34375 9.74609C5.34375 9.85026 5.38021 9.94141 5.45312 10.0195C5.53125 10.0977 5.625 10.1367 5.73438 10.1367H14.375C14.4844 10.1367 14.5755 10.0977 14.6484 10.0195C14.7266 9.94141 14.7656 9.85026 14.7656 9.74609C14.7656 9.64193 14.7266 9.54818 14.6484 9.46484C14.5755 9.38151 14.4844 9.33984 14.375 9.33984Z"
		fill="currentColor"
	/>
</svg>
