<svg
	color="rgb(var(--foreground, 0, 0, 0))"
	viewBox="0 0 18 24"
	fill="none"
	xmlns="http://www.w3.org/2000/svg"
>
	<path
		d="M3.75134 16.6017C3.87634 16.4611 3.92322 16.3049 3.89197 16.133C3.86593 15.9611 3.78259 15.7944 3.64197 15.633C3.11593 15.0496 2.71228 14.3856 2.43103 13.6408C2.14978 12.8908 2.00916 12.0965 2.00916 11.258C2.00916 10.5653 2.10551 9.90641 2.29822 9.28141C2.49093 8.65641 2.76697 8.08089 3.12634 7.55485L2.21228 6.64079C1.73832 7.28662 1.37374 8.00277 1.11853 8.78923C0.863322 9.57568 0.735718 10.3986 0.735718 11.258C0.735718 12.2684 0.910197 13.2293 1.25916 14.1408C1.61332 15.0522 2.11593 15.8595 2.76697 16.5627C2.91801 16.7293 3.08728 16.8153 3.27478 16.8205C3.46749 16.8205 3.62634 16.7476 3.75134 16.6017ZM6.09509 14.3752C6.22009 14.2345 6.26436 14.0809 6.22791 13.9142C6.19666 13.7476 6.11853 13.5783 5.99353 13.4064C5.75916 13.1147 5.58468 12.7866 5.47009 12.422C5.35551 12.0522 5.29822 11.6642 5.29822 11.258C5.29822 11.0288 5.31905 10.8075 5.36072 10.5939C5.40759 10.3804 5.4727 10.1746 5.55603 9.97673L4.57947 9.00016C4.39718 9.33871 4.25916 9.70068 4.16541 10.0861C4.07166 10.4663 4.02478 10.8569 4.02478 11.258C4.02478 11.8309 4.11853 12.3804 4.30603 12.9064C4.49353 13.4272 4.75655 13.8986 5.09509 14.3205C5.23051 14.4976 5.39718 14.5887 5.59509 14.5939C5.79822 14.5939 5.96488 14.521 6.09509 14.3752ZM9.03259 20.2189C9.21488 20.2189 9.35811 20.1564 9.46228 20.0314C9.57166 19.9116 9.62634 19.7502 9.62634 19.547V14.0549L8.43103 12.8595V19.547C8.43103 19.745 8.48572 19.9064 8.59509 20.0314C8.70968 20.1564 8.85551 20.2189 9.03259 20.2189ZM13.556 13.3517C13.7123 13.034 13.8295 12.7007 13.9076 12.3517C13.9909 11.9976 14.0326 11.633 14.0326 11.258C14.0326 10.6851 13.9388 10.1382 13.7513 9.61735C13.5638 9.09131 13.3008 8.61735 12.9623 8.19548C12.8269 8.01839 12.6576 7.92985 12.4545 7.92985C12.2566 7.92464 12.0925 7.99496 11.9623 8.14079C11.8373 8.28141 11.7904 8.43506 11.8217 8.60173C11.8581 8.76839 11.9388 8.93766 12.0638 9.10954C12.2878 9.40641 12.4597 9.73714 12.5795 10.1017C12.6993 10.4663 12.7592 10.8517 12.7592 11.258C12.7592 11.4507 12.7409 11.6408 12.7045 11.8283C12.6732 12.0158 12.6237 12.1929 12.556 12.3595L13.556 13.3517ZM15.9467 15.7502C16.3842 15.1043 16.7227 14.4012 16.9623 13.6408C17.2019 12.8804 17.3217 12.0861 17.3217 11.258C17.3217 10.5809 17.2409 9.92725 17.0795 9.29704C16.9232 8.66683 16.6941 8.07048 16.392 7.50798C16.0899 6.94027 15.7227 6.42204 15.2904 5.95329C15.1446 5.78662 14.9753 5.70329 14.7826 5.70329C14.5899 5.69808 14.431 5.76839 14.306 5.91423C14.181 6.05485 14.1316 6.2111 14.1576 6.38298C14.1888 6.55485 14.2748 6.72152 14.4154 6.88298C14.9414 7.46631 15.3451 8.13298 15.6263 8.88298C15.9076 9.62777 16.0482 10.4194 16.0482 11.258C16.0482 11.9194 15.9597 12.5496 15.7826 13.1486C15.6055 13.7476 15.3503 14.3049 15.017 14.8205L15.9467 15.7502ZM15.8451 18.8205C15.9649 18.9351 16.1081 18.9924 16.2748 18.9924C16.4467 18.9924 16.5873 18.9351 16.6967 18.8205C16.8164 18.7007 16.8763 18.5575 16.8763 18.3908C16.8763 18.2241 16.8164 18.0835 16.6967 17.9689L2.68884 3.95329C2.56905 3.83871 2.42582 3.78141 2.25916 3.78141C2.09249 3.77621 1.94926 3.8335 1.82947 3.95329C1.71488 4.06787 1.65759 4.2111 1.65759 4.38298C1.65759 4.54964 1.71488 4.69027 1.82947 4.80485L15.8451 18.8205Z"
		fill="currentColor"
	/>
</svg>
