<svg
	color="rgb(var(--foreground, 0, 0, 0))"
	viewBox="0 0 16 24"
	fill="none"
	xmlns="http://www.w3.org/2000/svg"
>
	<path
		d="M1.25781 8.6875C1.90365 9.36979 2.625 9.95312 3.42188 10.4375C4.22396 10.9219 5.07812 11.2917 5.98438 11.5469C6.89583 11.7969 7.83333 11.9219 8.79688 11.9219C9.9375 11.9167 11.0365 11.7292 12.0938 11.3594C13.1562 10.9896 14.1276 10.4583 15.0078 9.76562L14.5625 8.89062C13.7552 9.5625 12.8594 10.0781 11.875 10.4375C10.8906 10.7917 9.86458 10.9714 8.79688 10.9766C7.41146 10.9818 6.09896 10.6979 4.85938 10.125C3.625 9.55208 2.57031 8.75 1.69531 7.71875L1.25781 8.6875ZM0.421875 13.1484C1.4375 14.013 2.54427 14.7031 3.74219 15.2188C4.94531 15.7292 6.1875 16.0573 7.46875 16.2031C8.75521 16.349 10.0365 16.3073 11.3125 16.0781C12.5885 15.849 13.8125 15.4271 14.9844 14.8125L14.9609 13.7422C13.8255 14.3984 12.6276 14.8542 11.3672 15.1094C10.1068 15.3594 8.84115 15.4115 7.57031 15.2656C6.30469 15.1198 5.08073 14.7812 3.89844 14.25C2.71615 13.7135 1.63542 12.9922 0.65625 12.0859L0.421875 13.1484ZM4.29688 18.5156L5.41406 18.7734C5.15365 18.1432 4.95312 17.4974 4.8125 16.8359C4.67188 16.1745 4.59635 15.5026 4.58594 14.8203C4.51302 13.5234 4.64062 12.263 4.96875 11.0391C5.30208 9.8151 5.8125 8.67188 6.5 7.60938C7.1875 6.54167 8.02865 5.60156 9.02344 4.78906L8.02344 4.39844C7.03906 5.27344 6.20833 6.26823 5.53125 7.38281C4.85417 8.49219 4.35156 9.67969 4.02344 10.9453C3.70052 12.2057 3.57292 13.5026 3.64062 14.8359C3.65104 15.4609 3.71094 16.0807 3.82031 16.6953C3.92969 17.3099 4.08854 17.9167 4.29688 18.5156ZM9.44531 19.2891L10.3281 18.8984C9.59896 17.8672 9.03906 16.7526 8.64844 15.5547C8.26302 14.3516 8.07031 13.112 8.07031 11.8359C8.07031 10.6224 8.24219 9.44792 8.58594 8.3125C8.92969 7.17708 9.43229 6.11719 10.0938 5.13281L9.17188 4.80469C8.50521 5.85156 7.9974 6.97135 7.64844 8.16406C7.29948 9.35677 7.125 10.5807 7.125 11.8359C7.125 13.1849 7.32292 14.4922 7.71875 15.7578C8.11458 17.0182 8.6901 18.1953 9.44531 19.2891ZM14.0469 16.3828L14.6797 15.6641C13.8047 15.1641 13.0469 14.5365 12.4062 13.7812C11.7708 13.026 11.276 12.1849 10.9219 11.2578C10.5729 10.3307 10.3906 9.35677 10.375 8.33594C10.3698 7.78906 10.4141 7.2474 10.5078 6.71094C10.6016 6.17448 10.7474 5.65625 10.9453 5.15625L10.0312 4.89844C9.82292 5.44531 9.66927 6.00781 9.57031 6.58594C9.47135 7.15885 9.42448 7.74479 9.42969 8.34375C9.44531 9.45312 9.64062 10.5156 10.0156 11.5312C10.3906 12.5417 10.9219 13.4635 11.6094 14.2969C12.2969 15.125 13.1094 15.8203 14.0469 16.3828ZM4.57812 11.8281C4.91146 11.8281 5.19531 11.7083 5.42969 11.4688C5.66927 11.2292 5.78906 10.9401 5.78906 10.6016C5.78906 10.263 5.66927 9.97656 5.42969 9.74219C5.19531 9.5026 4.91146 9.38281 4.57812 9.38281C4.23438 9.38281 3.94271 9.5026 3.70312 9.74219C3.46875 9.97656 3.35156 10.263 3.35156 10.6016C3.35156 10.9401 3.46875 11.2292 3.70312 11.4688C3.94271 11.7083 4.23438 11.8281 4.57812 11.8281ZM10.5625 12.4766C10.8906 12.4766 11.1719 12.3594 11.4062 12.125C11.6406 11.8854 11.7578 11.599 11.7578 11.2656C11.7578 10.9375 11.6406 10.6562 11.4062 10.4219C11.1719 10.1875 10.8906 10.0703 10.5625 10.0703C10.224 10.0703 9.9375 10.1875 9.70312 10.4219C9.46875 10.6562 9.35156 10.9375 9.35156 11.2656C9.35156 11.599 9.46875 11.8854 9.70312 12.125C9.9375 12.3594 10.224 12.4766 10.5625 12.4766ZM8.23438 16.9922C8.56771 16.9922 8.85156 16.875 9.08594 16.6406C9.32552 16.401 9.44531 16.112 9.44531 15.7734C9.44531 15.4349 9.32552 15.1484 9.08594 14.9141C8.85156 14.6745 8.56771 14.5547 8.23438 14.5547C7.89062 14.5547 7.59896 14.6745 7.35938 14.9141C7.125 15.1484 7.00781 15.4349 7.00781 15.7734C7.00781 16.112 7.125 16.401 7.35938 16.6406C7.59896 16.875 7.89062 16.9922 8.23438 16.9922ZM7.96875 19.9688C9.05729 19.9688 10.0807 19.7604 11.0391 19.3438C12.0026 18.9271 12.8516 18.3516 13.5859 17.6172C14.3203 16.8828 14.8958 16.0365 15.3125 15.0781C15.7292 14.1146 15.9375 13.0885 15.9375 12C15.9375 10.9115 15.7292 9.88802 15.3125 8.92969C14.8958 7.96615 14.3203 7.11719 13.5859 6.38281C12.8516 5.64844 12.0026 5.07292 11.0391 4.65625C10.0755 4.23958 9.04948 4.03125 7.96094 4.03125C6.8724 4.03125 5.84635 4.23958 4.88281 4.65625C3.92448 5.07292 3.07812 5.64844 2.34375 6.38281C1.61458 7.11719 1.04167 7.96615 0.625 8.92969C0.208333 9.88802 0 10.9115 0 12C0 13.0885 0.208333 14.1146 0.625 15.0781C1.04167 16.0365 1.61719 16.8828 2.35156 17.6172C3.08594 18.3516 3.93229 18.9271 4.89062 19.3438C5.85417 19.7604 6.88021 19.9688 7.96875 19.9688ZM7.96875 18.9062C7.02604 18.9062 6.13802 18.724 5.30469 18.3594C4.47135 18 3.73698 17.5026 3.10156 16.8672C2.46615 16.2318 1.96615 15.4974 1.60156 14.6641C1.24219 13.8307 1.0625 12.9427 1.0625 12C1.0625 11.0573 1.24219 10.1693 1.60156 9.33594C1.96615 8.5026 2.46354 7.76823 3.09375 7.13281C3.72917 6.4974 4.46354 6 5.29688 5.64062C6.13021 5.27604 7.01823 5.09375 7.96094 5.09375C8.90365 5.09375 9.79167 5.27604 10.625 5.64062C11.4583 6 12.1927 6.4974 12.8281 7.13281C13.4688 7.76823 13.9688 8.5026 14.3281 9.33594C14.6927 10.1693 14.875 11.0573 14.875 12C14.875 12.9427 14.6927 13.8307 14.3281 14.6641C13.9688 15.4974 13.4714 16.2318 12.8359 16.8672C12.2005 17.5026 11.4661 18 10.6328 18.3594C9.79948 18.724 8.91146 18.9062 7.96875 18.9062Z"
		fill="currentColor"
	/>
</svg>
