<svg
	color="rgb(var(--foreground, 0, 0, 0))"
	viewBox="0 0 17 24"
	fill="none"
	xmlns="http://www.w3.org/2000/svg"
>
	<path
		d="M0.14978 10.297C0.14978 11.3074 0.324259 12.2684 0.673218 13.1798C1.02738 14.0913 1.52999 14.8986 2.18103 15.6017C2.33207 15.7684 2.50134 15.8543 2.68884 15.8595C2.88155 15.8595 3.04041 15.7866 3.16541 15.6408C3.29041 15.5001 3.33728 15.3439 3.30603 15.172C3.27999 15.0001 3.19666 14.8335 3.05603 14.672C2.52999 14.0887 2.12634 13.4246 1.84509 12.6798C1.56384 11.9298 1.42322 11.1356 1.42322 10.297C1.42322 9.45847 1.56384 8.6668 1.84509 7.92201C2.12634 7.17201 2.52999 6.50534 3.05603 5.92201C3.19666 5.76055 3.27999 5.59389 3.30603 5.42201C3.33728 5.25014 3.29041 5.09389 3.16541 4.95326C3.04041 4.80743 2.88155 4.73712 2.68884 4.74232C2.50134 4.74232 2.33207 4.82566 2.18103 4.99232C1.74874 5.46107 1.38155 5.9793 1.07947 6.54701C0.777384 7.10951 0.545614 7.70587 0.384155 8.33607C0.227905 8.96628 0.14978 9.61993 0.14978 10.297ZM3.43884 10.297C3.43884 10.8699 3.53259 11.4194 3.72009 11.9454C3.90759 12.4663 4.17061 12.9376 4.50916 13.3595C4.64457 13.5366 4.81124 13.6277 5.00916 13.6329C5.21228 13.6329 5.37895 13.56 5.50916 13.4142C5.63416 13.2736 5.67843 13.1199 5.64197 12.9533C5.61072 12.7866 5.53259 12.6173 5.40759 12.4454C5.17322 12.1538 4.99874 11.8257 4.88416 11.4611C4.76957 11.0913 4.71228 10.7033 4.71228 10.297C4.71228 9.89076 4.77218 9.50534 4.89197 9.14076C5.01176 8.77618 5.18363 8.44545 5.40759 8.14857C5.53259 7.9767 5.61072 7.80743 5.64197 7.64076C5.67843 7.47409 5.63416 7.32045 5.50916 7.17982C5.37895 7.03399 5.21228 6.96368 5.00916 6.96889C4.81124 6.96889 4.64457 7.05743 4.50916 7.23451C4.17061 7.65639 3.90759 8.13034 3.72009 8.65639C3.53259 9.17722 3.43884 9.72409 3.43884 10.297ZM7.04041 10.297C7.04041 10.5783 7.11332 10.8335 7.25916 11.0626C7.4102 11.2866 7.60551 11.4533 7.84509 11.5626V18.5861C7.84509 18.784 7.89978 18.9454 8.00916 19.0704C8.12374 19.1954 8.26957 19.2579 8.44666 19.2579C8.62895 19.2579 8.77218 19.1954 8.87634 19.0704C8.98572 18.9507 9.04041 18.7892 9.04041 18.5861V11.5626C9.27478 11.4533 9.46749 11.2866 9.61853 11.0626C9.76957 10.8335 9.84509 10.5783 9.84509 10.297C9.84509 10.0366 9.78259 9.79961 9.65759 9.58607C9.53259 9.37253 9.36332 9.20326 9.14978 9.07826C8.94145 8.94805 8.70707 8.88295 8.44666 8.88295C8.18103 8.88295 7.94145 8.94805 7.72791 9.07826C7.51957 9.20326 7.35291 9.37253 7.22791 9.58607C7.10291 9.79961 7.04041 10.0366 7.04041 10.297ZM11.3763 13.4142C11.5066 13.56 11.6706 13.6329 11.8685 13.6329C12.0717 13.6277 12.2409 13.5366 12.3763 13.3595C12.7149 12.9376 12.9779 12.4663 13.1654 11.9454C13.3529 11.4194 13.4467 10.8699 13.4467 10.297C13.4467 9.72409 13.3529 9.17722 13.1654 8.65639C12.9779 8.13034 12.7149 7.65639 12.3763 7.23451C12.2409 7.05743 12.0717 6.96889 11.8685 6.96889C11.6706 6.96368 11.5066 7.03399 11.3763 7.17982C11.2513 7.32045 11.2045 7.47409 11.2357 7.64076C11.2722 7.80743 11.3529 7.9767 11.4779 8.14857C11.7019 8.44545 11.8737 8.77618 11.9935 9.14076C12.1133 9.50534 12.1732 9.89076 12.1732 10.297C12.1732 10.7033 12.1159 11.0913 12.0013 11.4611C11.8868 11.8257 11.7123 12.1538 11.4779 12.4454C11.3529 12.6173 11.2722 12.7866 11.2357 12.9533C11.2045 13.1199 11.2513 13.2736 11.3763 13.4142ZM13.7201 15.6408C13.8451 15.7866 14.0039 15.8595 14.1967 15.8595C14.3894 15.8543 14.5586 15.7684 14.7045 15.6017C15.3555 14.8986 15.8555 14.0913 16.2045 13.1798C16.5586 12.2684 16.7357 11.3074 16.7357 10.297C16.7357 9.61993 16.655 8.96628 16.4935 8.33607C16.3373 7.70587 16.1081 7.10951 15.806 6.54701C15.5039 5.9793 15.1368 5.46107 14.7045 4.99232C14.5586 4.82566 14.3894 4.74232 14.1967 4.74232C14.0039 4.73712 13.8451 4.80743 13.7201 4.95326C13.5951 5.09389 13.5456 5.25014 13.5717 5.42201C13.6029 5.59389 13.6888 5.76055 13.8295 5.92201C14.3555 6.50534 14.7592 7.17201 15.0404 7.92201C15.3217 8.6668 15.4623 9.45847 15.4623 10.297C15.4623 11.1356 15.3217 11.9298 15.0404 12.6798C14.7592 13.4246 14.3555 14.0887 13.8295 14.672C13.6888 14.8335 13.6029 15.0001 13.5717 15.172C13.5456 15.3439 13.5951 15.5001 13.7201 15.6408Z"
		fill="currentColor"
	/>
</svg>
