<svg
	color="rgb(var(--foreground, 0, 0, 0))"
	viewBox="0 0 14 24"
	fill="none"
	xmlns="http://www.w3.org/2000/svg"
>
	<path
		d="M13.1498 12.0153C13.1498 11.7601 13.0847 11.5257 12.9545 11.3121C12.8243 11.1038 12.6498 10.9345 12.431 10.8043C12.2123 10.6793 11.9753 10.6168 11.7201 10.6168C11.4597 10.6168 11.2227 10.6793 11.0092 10.8043C10.7956 10.9345 10.6263 11.1064 10.5013 11.32C10.3711 11.5387 10.306 11.7757 10.306 12.0309C10.306 12.4215 10.4441 12.7548 10.7201 13.0309C10.9909 13.3121 11.3243 13.4528 11.7201 13.4528C11.9805 13.4528 12.2201 13.3877 12.4388 13.2575C12.6524 13.1272 12.8243 12.9528 12.9545 12.734C13.0847 12.5153 13.1498 12.2757 13.1498 12.0153ZM8.75916 8.88245C8.62895 8.73662 8.46488 8.6637 8.26697 8.6637C8.06384 8.66891 7.89457 8.76005 7.75916 8.93714C7.41541 9.35901 7.14978 9.83037 6.96228 10.3512C6.77478 10.8772 6.68103 11.4267 6.68103 11.9996C6.68103 12.5726 6.77478 13.122 6.96228 13.6481C7.14978 14.1741 7.41541 14.6455 7.75916 15.0621C7.89457 15.2444 8.06384 15.3356 8.26697 15.3356C8.46488 15.3408 8.62895 15.2679 8.75916 15.1168C8.88416 14.9762 8.92843 14.8226 8.89197 14.6559C8.85551 14.4892 8.77738 14.32 8.65759 14.1481C8.42843 13.8564 8.25395 13.5257 8.13416 13.1559C8.01436 12.7913 7.95447 12.4059 7.95447 11.9996C7.95447 11.5934 8.01436 11.2054 8.13416 10.8356C8.24874 10.471 8.42322 10.1429 8.65759 9.8512C8.78259 9.68453 8.86332 9.51526 8.89978 9.34339C8.93103 9.17672 8.88416 9.02308 8.75916 8.88245ZM6.57166 6.65589C6.44666 6.51005 6.2878 6.43714 6.09509 6.43714C5.90238 6.44235 5.73051 6.52828 5.57947 6.69495C4.93363 7.39808 4.43624 8.20537 4.08728 9.11683C3.73311 10.0283 3.55603 10.9892 3.55603 11.9996C3.55603 12.6767 3.63416 13.3304 3.79041 13.9606C3.94666 14.596 4.17582 15.195 4.47791 15.7575C4.77999 16.3252 5.14718 16.8408 5.57947 17.3043C5.73051 17.471 5.90238 17.5543 6.09509 17.5543C6.2878 17.5595 6.44666 17.4892 6.57166 17.3434C6.69666 17.2028 6.74613 17.0465 6.72009 16.8746C6.68884 16.7028 6.60291 16.5361 6.46228 16.3746C5.93103 15.7965 5.52738 15.1325 5.25134 14.3825C4.97009 13.6377 4.82947 12.8434 4.82947 11.9996C4.82947 11.1611 4.97009 10.3668 5.25134 9.61683C5.53259 8.87203 5.93624 8.20797 6.46228 7.62464C6.60291 7.46318 6.68884 7.29651 6.72009 7.12464C6.74613 6.95797 6.69666 6.80172 6.57166 6.65589ZM4.31384 4.57776C4.19405 4.44235 4.04041 4.37203 3.85291 4.36683C3.66541 4.36162 3.49874 4.43714 3.35291 4.59339C2.42061 5.56735 1.69926 6.68974 1.18884 7.96058C0.678426 9.23141 0.423218 10.5778 0.423218 11.9996C0.423218 13.4267 0.678426 14.7757 1.18884 16.0465C1.69405 17.3226 2.41541 18.445 3.35291 19.4137C3.49874 19.57 3.66541 19.6429 3.85291 19.6325C4.04041 19.6272 4.19405 19.5595 4.31384 19.4293C4.43363 19.2939 4.48311 19.1377 4.46228 18.9606C4.44145 18.7835 4.36072 18.622 4.22009 18.4762C3.40238 17.6325 2.77738 16.6559 2.34509 15.5465C1.9128 14.4371 1.69666 13.2548 1.69666 11.9996C1.69666 10.7444 1.91541 9.56474 2.35291 8.46058C2.79041 7.35641 3.4128 6.37985 4.22009 5.53089C4.36072 5.37985 4.44145 5.21839 4.46228 5.04651C4.48311 4.86943 4.43363 4.71318 4.31384 4.57776Z"
		fill="currentColor"
	/>
</svg>
