<svg
	color="rgb(var(--foreground, 0, 0, 0))"
	viewBox="0 0 21 24"
	fill="none"
	xmlns="http://www.w3.org/2000/svg"
>
	<path
		d="M0.345093 12.0004C0.345093 13.3077 0.579468 14.5446 1.04822 15.7113C1.51697 16.878 2.17843 17.9066 3.03259 18.7972C3.17322 18.9431 3.32686 19.0134 3.49353 19.0082C3.66541 19.003 3.80603 18.9379 3.91541 18.8129C4.02999 18.6931 4.07686 18.5525 4.05603 18.391C4.0352 18.2295 3.95968 18.0785 3.82947 17.9379C3.07947 17.1566 2.50655 16.2582 2.11072 15.2426C1.71488 14.2217 1.51697 13.141 1.51697 12.0004C1.51697 10.8597 1.71488 9.78162 2.11072 8.76599C2.50655 7.74516 3.07947 6.84412 3.82947 6.06287C3.95968 5.92224 4.0352 5.7712 4.05603 5.60974C4.07686 5.44829 4.02999 5.30506 3.91541 5.18006C3.80603 5.06026 3.66541 4.99776 3.49353 4.99256C3.32686 4.98214 3.17322 5.05245 3.03259 5.20349C2.17843 6.09412 1.51697 7.12277 1.04822 8.28943C0.579468 9.45089 0.345093 10.6879 0.345093 12.0004ZM3.14197 12.0004C3.14197 12.9275 3.30082 13.8103 3.61853 14.6488C3.94145 15.4821 4.40238 16.2217 5.00134 16.8676C5.13676 17.0238 5.29301 17.1045 5.47009 17.1097C5.64718 17.1097 5.79301 17.042 5.90759 16.9066C6.02218 16.7764 6.06645 16.6332 6.04041 16.4769C6.01957 16.3207 5.94145 16.1696 5.80603 16.0238C5.32166 15.4821 4.94926 14.8676 4.68884 14.1801C4.43363 13.4926 4.30603 12.766 4.30603 12.0004C4.30603 11.2347 4.43363 10.5082 4.68884 9.82068C4.94926 9.13318 5.32166 8.5186 5.80603 7.97693C5.94145 7.8311 6.01957 7.68006 6.04041 7.52381C6.06645 7.36756 6.02218 7.22172 5.90759 7.08631C5.79301 6.9561 5.64718 6.8936 5.47009 6.89881C5.29301 6.89881 5.13676 6.97433 5.00134 7.12537C4.40238 7.7712 3.94145 8.51339 3.61853 9.35193C3.30082 10.1905 3.14197 11.0733 3.14197 12.0004ZM5.93103 12.0004C5.93103 12.5264 6.01697 13.029 6.18884 13.5082C6.36072 13.9873 6.60291 14.4196 6.91541 14.8051C7.04041 14.9717 7.19405 15.0577 7.37634 15.0629C7.56384 15.0681 7.71749 15.003 7.83728 14.8676C7.95186 14.7373 7.99353 14.5967 7.96228 14.4457C7.93103 14.2894 7.85811 14.1306 7.74353 13.9691C7.52999 13.7035 7.36853 13.404 7.25916 13.0707C7.15499 12.7321 7.10291 12.3754 7.10291 12.0004C7.10291 11.6254 7.15499 11.2712 7.25916 10.9379C7.36853 10.5993 7.52999 10.2946 7.74353 10.0238C7.85811 9.86756 7.93103 9.71391 7.96228 9.56287C7.99353 9.40662 7.95186 9.26339 7.83728 9.13318C7.71749 8.99777 7.56384 8.93266 7.37634 8.93787C7.19405 8.94308 7.04041 9.02641 6.91541 9.18787C6.60291 9.57849 6.36072 10.0134 6.18884 10.4926C6.01697 10.9717 5.93103 11.4743 5.93103 12.0004ZM15.1107 12.0004C15.1107 11.4743 15.0248 10.9717 14.8529 10.4926C14.681 10.0134 14.4388 9.57849 14.1263 9.18787C13.9961 9.02641 13.8399 8.94308 13.6576 8.93787C13.4753 8.93266 13.3243 8.99777 13.2045 9.13318C13.0847 9.26339 13.0404 9.40662 13.0717 9.56287C13.1081 9.71391 13.1836 9.86756 13.2982 10.0238C13.5066 10.2946 13.6654 10.5993 13.7748 10.9379C13.8842 11.2712 13.9388 11.6254 13.9388 12.0004C13.9388 12.3754 13.8842 12.7321 13.7748 13.0707C13.6654 13.404 13.5066 13.7035 13.2982 13.9691C13.1836 14.1306 13.1081 14.2894 13.0717 14.4457C13.0404 14.5967 13.0847 14.7373 13.2045 14.8676C13.3243 15.003 13.4753 15.0681 13.6576 15.0629C13.8399 15.0577 13.9961 14.9717 14.1263 14.8051C14.4388 14.4196 14.681 13.9873 14.8529 13.5082C15.0248 13.029 15.1107 12.5264 15.1107 12.0004ZM17.8998 12.0004C17.8998 11.0733 17.7383 10.1905 17.4154 9.35193C17.0977 8.51339 16.6394 7.7712 16.0404 7.12537C15.8998 6.97433 15.7409 6.89881 15.5638 6.89881C15.392 6.8936 15.2487 6.9561 15.1342 7.08631C15.0196 7.22172 14.9727 7.36756 14.9935 7.52381C15.0196 7.68006 15.0977 7.8311 15.2279 7.97693C15.7175 8.5186 16.0899 9.13318 16.3451 9.82068C16.6055 10.5082 16.7357 11.2347 16.7357 12.0004C16.7357 12.766 16.6055 13.4926 16.3451 14.1801C16.0899 14.8676 15.7175 15.4821 15.2279 16.0238C15.0977 16.1696 15.0196 16.3207 14.9935 16.4769C14.9727 16.6332 15.0196 16.7764 15.1342 16.9066C15.2487 17.042 15.392 17.1097 15.5638 17.1097C15.7409 17.1045 15.8998 17.0238 16.0404 16.8676C16.6394 16.2217 17.0977 15.4821 17.4154 14.6488C17.7383 13.8103 17.8998 12.9275 17.8998 12.0004ZM20.6967 12.0004C20.6967 10.6879 20.4597 9.45089 19.9857 8.28943C19.517 7.12277 18.8581 6.09412 18.0092 5.20349C17.8685 5.05245 17.7123 4.98214 17.5404 4.99256C17.3737 4.99776 17.2357 5.06026 17.1263 5.18006C17.0118 5.30506 16.9649 5.44829 16.9857 5.60974C17.0066 5.7712 17.0821 5.92224 17.2123 6.06287C17.9623 6.84412 18.5352 7.74516 18.931 8.76599C19.3269 9.78162 19.5248 10.8597 19.5248 12.0004C19.5248 13.141 19.3269 14.2217 18.931 15.2426C18.5352 16.2582 17.9623 17.1566 17.2123 17.9379C17.0821 18.0785 17.0066 18.2295 16.9857 18.391C16.9649 18.5525 17.0118 18.6931 17.1263 18.8129C17.2357 18.9379 17.3737 19.003 17.5404 19.0082C17.7123 19.0134 17.8685 18.9431 18.0092 18.7972C18.8581 17.9066 19.517 16.878 19.9857 15.7113C20.4597 14.5446 20.6967 13.3077 20.6967 12.0004ZM9.09509 12.016C9.09509 12.2712 9.1602 12.5056 9.29041 12.7191C9.42582 12.9275 9.6003 13.0967 9.81384 13.2269C10.0326 13.3519 10.2722 13.4144 10.5326 13.4144C10.7878 13.4144 11.0222 13.3519 11.2357 13.2269C11.4493 13.0967 11.6185 12.9248 11.7435 12.7113C11.8737 12.4926 11.9388 12.2556 11.9388 12.0004C11.9388 11.6097 11.8008 11.2764 11.5248 11.0004C11.2539 10.7191 10.9232 10.5785 10.5326 10.5785C10.267 10.5785 10.0248 10.6436 9.80603 10.7738C9.59249 10.904 9.42061 11.0785 9.29041 11.2972C9.1602 11.516 9.09509 11.7556 9.09509 12.016Z"
		fill="currentColor"
	/>
</svg>
