<svg
	color="rgb(var(--foreground, 0, 0, 0))"
	viewBox="0 0 14 24"
	fill="none"
	xmlns="http://www.w3.org/2000/svg"
>
	<path
		d="M0.696655 11.9847C0.696655 12.2399 0.761759 12.4743 0.891968 12.6879C1.02218 12.8962 1.19666 13.0655 1.41541 13.1957C1.63416 13.3207 1.87113 13.3832 2.12634 13.3832C2.38676 13.3832 2.62374 13.3207 2.83728 13.1957C3.05082 13.0655 3.22009 12.8936 3.34509 12.68C3.4753 12.4613 3.54041 12.2243 3.54041 11.9691C3.54041 11.5785 3.40238 11.2452 3.12634 10.9691C2.85551 10.6879 2.52218 10.5472 2.12634 10.5472C1.86593 10.5472 1.62634 10.6123 1.40759 10.7425C1.19405 10.8728 1.02218 11.0472 0.891968 11.266C0.761759 11.4847 0.696655 11.7243 0.696655 11.9847ZM5.08728 15.1175C5.21749 15.2634 5.38155 15.3363 5.57947 15.3363C5.78259 15.3311 5.95186 15.2399 6.08728 15.0629C6.43103 14.641 6.69666 14.1696 6.88416 13.6488C7.07166 13.1228 7.16541 12.5733 7.16541 12.0004C7.16541 11.4274 7.07166 10.878 6.88416 10.3519C6.69666 9.82588 6.43103 9.35453 6.08728 8.93786C5.95186 8.75557 5.78259 8.66442 5.57947 8.66442C5.38155 8.65922 5.21749 8.73213 5.08728 8.88317C4.96228 9.0238 4.91801 9.17745 4.95447 9.34411C4.99093 9.51078 5.06905 9.68005 5.18884 9.85192C5.41801 10.1436 5.59249 10.4743 5.71228 10.8441C5.83207 11.2087 5.89197 11.5941 5.89197 12.0004C5.89197 12.4066 5.83207 12.7946 5.71228 13.1644C5.5977 13.529 5.42322 13.8571 5.18884 14.1488C5.06384 14.3155 4.98311 14.4847 4.94666 14.6566C4.91541 14.8233 4.96228 14.9769 5.08728 15.1175ZM7.27478 17.3441C7.39978 17.4899 7.55863 17.5629 7.75134 17.5629C7.94405 17.5577 8.11593 17.4717 8.26697 17.305C8.9128 16.6019 9.4102 15.7946 9.75916 14.8832C10.1133 13.9717 10.2904 13.0108 10.2904 12.0004C10.2904 11.3233 10.2123 10.6696 10.056 10.0394C9.89978 9.40401 9.67061 8.80505 9.36853 8.24255C9.06645 7.67484 8.69926 7.15922 8.26697 6.69567C8.11593 6.52901 7.94405 6.44567 7.75134 6.44567C7.55863 6.44047 7.39978 6.51078 7.27478 6.65661C7.14978 6.79724 7.1003 6.95349 7.12634 7.12536C7.15759 7.29724 7.24353 7.4639 7.38416 7.62536C7.91541 8.20349 8.31905 8.86755 8.59509 9.61755C8.87634 10.3623 9.01697 11.1566 9.01697 12.0004C9.01697 12.8389 8.87634 13.6332 8.59509 14.3832C8.31384 15.128 7.9102 15.792 7.38416 16.3754C7.24353 16.5368 7.15759 16.7035 7.12634 16.8754C7.1003 17.042 7.14978 17.1983 7.27478 17.3441ZM9.53259 19.4222C9.65238 19.5577 9.80603 19.628 9.99353 19.6332C10.181 19.6384 10.3477 19.5629 10.4935 19.4066C11.4258 18.4327 12.1472 17.3103 12.6576 16.0394C13.168 14.7686 13.4232 13.4222 13.4232 12.0004C13.4232 10.5733 13.168 9.22432 12.6576 7.95349C12.1524 6.67745 11.431 5.55505 10.4935 4.5863C10.3477 4.43005 10.181 4.35713 9.99353 4.36755C9.80603 4.37276 9.65238 4.44047 9.53259 4.57067C9.4128 4.70609 9.36332 4.86234 9.38416 5.03942C9.40499 5.21651 9.48572 5.37797 9.62634 5.5238C10.4441 6.36755 11.0691 7.34411 11.5013 8.45349C11.9336 9.56286 12.1498 10.7452 12.1498 12.0004C12.1498 13.2556 11.931 14.4353 11.4935 15.5394C11.056 16.6436 10.4336 17.6202 9.62634 18.4691C9.48572 18.6202 9.40499 18.7816 9.38416 18.9535C9.36332 19.1306 9.4128 19.2868 9.53259 19.4222Z"
		fill="currentColor"
	/>
</svg>
