<svg
	color="rgb(var(--foreground, 0, 0, 0))"
	viewBox="0 0 19 24"
	fill="none"
	xmlns="http://www.w3.org/2000/svg"
>
	<path
		d="M9.375 18.4922C9.46354 18.4922 9.55208 18.4661 9.64062 18.4141C9.72917 18.3672 9.84896 18.2682 10 18.1172L11.9062 16.2891C11.9635 16.2318 11.9974 16.1641 12.0078 16.0859C12.0234 16.0026 12.0026 15.9271 11.9453 15.8594C11.6901 15.5312 11.3333 15.2448 10.875 15C10.4219 14.7552 9.92188 14.6328 9.375 14.6328C8.8125 14.6328 8.30208 14.7604 7.84375 15.0156C7.38542 15.2708 7.02865 15.5677 6.77344 15.9062C6.73698 15.9688 6.72396 16.0339 6.73438 16.1016C6.75 16.1693 6.78906 16.2318 6.85156 16.2891L8.75 18.1172C8.90104 18.263 9.02083 18.362 9.10938 18.4141C9.19792 18.4661 9.28646 18.4922 9.375 18.4922ZM4.80469 14.2422C4.88802 14.3203 4.97917 14.3568 5.07812 14.3516C5.17708 14.3411 5.26562 14.2943 5.34375 14.2109C5.8125 13.6901 6.40625 13.2604 7.125 12.9219C7.84375 12.5833 8.59375 12.4167 9.375 12.4219C10.1667 12.4167 10.9219 12.5885 11.6406 12.9375C12.3594 13.2812 12.9583 13.7135 13.4375 14.2344C13.5104 14.3125 13.5911 14.3516 13.6797 14.3516C13.7734 14.3516 13.862 14.3125 13.9453 14.2344L15.1562 13.0312C15.2188 12.9688 15.2526 12.8984 15.2578 12.8203C15.263 12.737 15.237 12.6615 15.1797 12.5938C14.7891 12.1094 14.2943 11.6771 13.6953 11.2969C13.1016 10.9167 12.4349 10.6172 11.6953 10.3984C10.9609 10.1745 10.1875 10.0625 9.375 10.0625C8.5625 10.0625 7.78646 10.1745 7.04688 10.3984C6.3125 10.6172 5.64844 10.9167 5.05469 11.2969C4.46094 11.6771 3.96615 12.1094 3.57031 12.5938C3.51302 12.6615 3.48438 12.7344 3.48438 12.8125C3.48958 12.8906 3.52604 12.9635 3.59375 13.0312L4.80469 14.2422ZM1.5625 10.9766C1.64062 11.0547 1.72917 11.0938 1.82812 11.0938C1.92708 11.0885 2.01302 11.0469 2.08594 10.9688C3.04427 9.94792 4.14323 9.17448 5.38281 8.64844C6.6276 8.11719 7.95833 7.85156 9.375 7.85156C10.8021 7.85156 12.138 8.11719 13.3828 8.64844C14.6276 9.17969 15.7266 9.95573 16.6797 10.9766C16.7526 11.0495 16.8359 11.0859 16.9297 11.0859C17.0234 11.0807 17.1094 11.0391 17.1875 10.9609L18.2656 9.88281C18.3333 9.8099 18.3672 9.73438 18.3672 9.65625C18.3724 9.57812 18.3464 9.50521 18.2891 9.4375C17.6797 8.68229 16.9089 8.01042 15.9766 7.42188C15.0443 6.82812 14.013 6.36198 12.8828 6.02344C11.7526 5.67969 10.5833 5.50781 9.375 5.50781C8.16667 5.50781 6.9974 5.67708 5.86719 6.01562C4.73698 6.35417 3.70573 6.82031 2.77344 7.41406C1.84115 8.00781 1.07031 8.68229 0.460938 9.4375C0.408854 9.50521 0.382812 9.57812 0.382812 9.65625C0.388021 9.73438 0.421875 9.8099 0.484375 9.88281L1.5625 10.9766Z"
		fill="currentColor"
	/>
</svg>
