<svg
	color="rgb(var(--foreground, 0, 0, 0))"
	viewBox="0 0 19 24"
	fill="none"
	xmlns="http://www.w3.org/2000/svg"
>
	<path
		d="M9.35217 18.9336C9.57092 18.9336 9.77144 18.8789 9.95374 18.7695C10.136 18.6602 10.2793 18.5143 10.3834 18.332C10.4876 18.1549 10.5397 17.957 10.5397 17.7383C10.5397 17.5195 10.4876 17.3216 10.3834 17.1445C10.2793 16.9622 10.136 16.819 9.95374 16.7148C9.77144 16.6055 9.57092 16.5508 9.35217 16.5508C9.13342 16.5508 8.9329 16.6029 8.75061 16.707C8.57353 16.8112 8.4303 16.9544 8.32092 17.1367C8.21676 17.319 8.16467 17.5195 8.16467 17.7383C8.16467 17.957 8.21676 18.1549 8.32092 18.332C8.4303 18.5143 8.57353 18.6602 8.75061 18.7695C8.9329 18.8789 9.13342 18.9336 9.35217 18.9336ZM9.35999 15.168C9.56311 15.168 9.72978 15.1055 9.85999 14.9805C9.99019 14.8555 10.0579 14.6836 10.0631 14.4648C10.0683 13.8919 10.0735 13.3164 10.0787 12.7383C10.0839 12.1602 10.0892 11.5846 10.0944 11.0117C10.0996 10.4336 10.1022 9.85547 10.1022 9.27734C10.1074 8.69922 10.1126 8.1237 10.1178 7.55078C10.123 6.97266 10.1282 6.39453 10.1334 5.81641C10.1334 5.59245 10.0553 5.41276 9.89905 5.27734C9.7428 5.13672 9.56051 5.06641 9.35217 5.06641C9.14384 5.06641 8.96155 5.13672 8.8053 5.27734C8.64905 5.41276 8.57092 5.59245 8.57092 5.81641C8.57613 6.39453 8.58134 6.97266 8.58655 7.55078C8.59176 8.1237 8.59696 8.69922 8.60217 9.27734C8.60738 9.85547 8.61259 10.4336 8.6178 11.0117C8.62821 11.5846 8.63603 12.1602 8.64124 12.7383C8.64644 13.3164 8.65165 13.8919 8.65686 14.4648C8.66207 14.6836 8.72717 14.8555 8.85217 14.9805C8.98238 15.1055 9.15165 15.168 9.35999 15.168ZM7.41467 6.10547C6.46155 6.26172 5.55009 6.51693 4.6803 6.87109C3.81051 7.22526 3.01363 7.65755 2.28967 8.16797C1.56571 8.67839 0.948527 9.2487 0.43811 9.87891C0.386027 9.94141 0.359985 10.0143 0.359985 10.0977C0.365194 10.1758 0.399048 10.2513 0.461548 10.3242L1.53967 11.418C1.6178 11.4961 1.70634 11.5352 1.8053 11.5352C1.90426 11.5299 1.99019 11.4883 2.06311 11.4102C2.80269 10.6237 3.62821 9.98568 4.53967 9.49609C5.45113 9.0013 6.41988 8.66276 7.44592 8.48047L7.41467 6.10547ZM11.2819 6.11328L11.2584 8.48828C12.2845 8.66016 13.2506 8.99609 14.1569 9.49609C15.0683 9.99089 15.9017 10.6315 16.6569 11.418C16.7298 11.4909 16.8131 11.5273 16.9069 11.5273C17.0006 11.5221 17.0866 11.4805 17.1647 11.4023L18.2428 10.3242C18.3105 10.2513 18.3444 10.1758 18.3444 10.0977C18.3496 10.0143 18.3235 9.94141 18.2663 9.87891C17.7506 9.25391 17.1334 8.6862 16.4147 8.17578C15.6959 7.66016 14.9017 7.22526 14.0319 6.87109C13.1621 6.51172 12.2454 6.25911 11.2819 6.11328ZM11.2506 10.7383L11.2272 13.2305C11.6595 13.3867 12.0605 13.5898 12.4303 13.8398C12.8053 14.0898 13.136 14.3685 13.4225 14.6758C13.4954 14.7539 13.5761 14.793 13.6647 14.793C13.7584 14.7878 13.847 14.7461 13.9303 14.668L15.1334 13.4727C15.1959 13.4049 15.2298 13.332 15.235 13.2539C15.2402 13.1706 15.2142 13.0977 15.1569 13.0352C14.7246 12.5039 14.1699 12.0352 13.4928 11.6289C12.8157 11.2174 12.0683 10.9206 11.2506 10.7383ZM7.46936 10.7383C6.65165 10.9258 5.90426 11.2201 5.22717 11.6211C4.5553 12.0221 3.99801 12.4935 3.5553 13.0352C3.49801 13.0977 3.46936 13.1706 3.46936 13.2539C3.47457 13.332 3.51103 13.4049 3.57874 13.4727L4.78967 14.6836C4.87301 14.7617 4.96415 14.7982 5.06311 14.793C5.16207 14.7826 5.25061 14.7331 5.32874 14.6445C5.60999 14.3372 5.93551 14.0612 6.3053 13.8164C6.67509 13.5716 7.07092 13.3711 7.4928 13.2148L7.46936 10.7383Z"
		fill="currentColor"
	/>
</svg>
