<svg
	color="rgb(var(--foreground, 0, 0, 0))"
	viewBox="0 0 19 24"
	fill="none"
	xmlns="http://www.w3.org/2000/svg"
>
	<path
		d="M3.72729 7.8361C3.07104 8.16943 2.46427 8.55225 1.90698 8.98454C1.34969 9.41683 0.862712 9.88037 0.446045 10.3752C0.393962 10.4429 0.36792 10.5158 0.36792 10.5939C0.36792 10.672 0.401774 10.7476 0.469482 10.8205L1.55542 11.8986C1.62834 11.9767 1.71427 12.0158 1.81323 12.0158C1.91219 12.0106 1.99813 11.9689 2.07104 11.8908C3.06584 10.8387 4.19084 10.0601 5.44604 9.55485L3.72729 7.8361ZM9.02417 8.82048C9.08146 8.81006 9.14136 8.80225 9.20386 8.79704C9.26636 8.79183 9.32625 8.78923 9.38354 8.78923C10.8471 8.81527 12.1856 9.09652 13.3992 9.63298C14.6179 10.1694 15.7065 10.9299 16.6648 11.9142C16.7377 11.9871 16.821 12.0236 16.9148 12.0236C17.0138 12.0184 17.0997 11.9767 17.1726 11.8986L18.2507 10.8205C18.3236 10.7476 18.3601 10.672 18.3601 10.5939C18.3601 10.5158 18.3341 10.4429 18.282 10.3752C17.6518 9.63037 16.8705 8.9611 15.9382 8.36735C15.0111 7.7736 13.9851 7.30485 12.8601 6.9611C11.7351 6.61735 10.5684 6.44548 9.36011 6.44548C8.96948 6.44548 8.57365 6.46631 8.17261 6.50798C7.77157 6.54964 7.34969 6.61475 6.90698 6.70329L9.02417 8.82048ZM7.21167 11.3049C6.44604 11.5132 5.74813 11.8127 5.11792 12.2033C4.49292 12.5939 3.97209 13.0366 3.55542 13.5314C3.49813 13.5991 3.47209 13.672 3.47729 13.7502C3.4825 13.8283 3.51896 13.9012 3.58667 13.9689L4.79761 15.172C4.88094 15.2502 4.96948 15.2866 5.06323 15.2814C5.16219 15.271 5.25073 15.2241 5.32886 15.1408C5.64136 14.797 6.00594 14.495 6.42261 14.2345C6.83927 13.9689 7.28979 13.7606 7.77417 13.6095C8.25854 13.4533 8.75594 13.3726 9.26636 13.3674L7.21167 11.3049ZM14.657 14.4533L15.1414 13.9689C15.2091 13.9012 15.2429 13.8283 15.2429 13.7502C15.2481 13.672 15.2247 13.5991 15.1726 13.5314C14.782 13.0418 14.2611 12.5965 13.6101 12.1955C12.9591 11.7944 12.2638 11.5028 11.5242 11.3205L14.657 14.4533ZM9.36792 15.5705C8.81063 15.5705 8.30021 15.6981 7.83667 15.9533C7.37834 16.2085 7.02417 16.5054 6.77417 16.8439C6.7325 16.9064 6.71948 16.9715 6.73511 17.0392C6.75073 17.1069 6.78719 17.1694 6.84448 17.2267L8.74292 19.0549C8.89917 19.2007 9.02157 19.2996 9.11011 19.3517C9.19865 19.4038 9.28459 19.4299 9.36792 19.4299C9.45646 19.4299 9.545 19.4038 9.63354 19.3517C9.72209 19.2996 9.84448 19.2007 10.0007 19.0549L11.8914 17.2267C11.9539 17.1694 11.9903 17.1017 12.0007 17.0236C12.0111 16.9403 11.9903 16.8647 11.9382 16.797C11.683 16.4689 11.3289 16.1825 10.8757 15.9377C10.4226 15.6929 9.92 15.5705 9.36792 15.5705ZM15.946 18.7345C16.0658 18.8491 16.2091 18.9064 16.3757 18.9064C16.5424 18.9064 16.683 18.8491 16.7976 18.7345C16.9122 18.6147 16.9695 18.4715 16.9695 18.3049C16.9747 18.1382 16.9174 17.9976 16.7976 17.883L3.66479 4.74235C3.545 4.62777 3.39917 4.57048 3.22729 4.57048C3.06063 4.56527 2.92 4.62256 2.80542 4.74235C2.69084 4.85693 2.63354 5.00016 2.63354 5.17204C2.63354 5.34391 2.69084 5.48454 2.80542 5.59391L15.946 18.7345Z"
		fill="currentColor"
	/>
</svg>
