<svg
	color="rgb(var(--foreground, 0, 0, 0))"
	viewBox="0 0 29 24"
	fill="none"
	xmlns="http://www.w3.org/2000/svg"
>
	<path
		d="M14.6648 10.6168L15.3445 11.7886L15.6179 11.3121C15.9851 11.4527 16.5554 11.648 17.196 12.0074C19.0867 13.109 19.8288 14.8433 21.782 15.9761C22.3445 16.3121 22.9538 16.5543 23.4148 16.609C23.9773 16.6636 24.4695 16.4918 24.821 15.8824L27.9695 10.4371C28.2117 10.0074 28.0242 9.61676 27.6257 9.38239C27.282 9.18708 26.5554 9.00739 25.7273 8.53083C23.8288 7.43708 23.0945 5.69489 21.1413 4.56208C20.5788 4.23395 19.9617 3.99176 19.5085 3.93708C18.946 3.88239 18.4538 4.06208 18.1023 4.67145L14.6648 10.6168ZM18.5398 19.1793L10.1492 4.67145C9.7976 4.06208 9.30541 3.88239 8.74291 3.93708C8.28197 3.99176 7.6726 4.23395 7.1101 4.56208C5.15697 5.69489 4.41479 7.43708 2.51635 8.53083C1.68822 9.00739 0.969474 9.18708 0.625724 9.38239C0.219474 9.61676 0.039786 10.0074 0.281974 10.4371L3.4226 15.8824C3.77416 16.4918 4.27416 16.6636 4.82885 16.609C5.28979 16.5543 5.90697 16.3121 6.46166 15.9761C8.4226 14.8433 9.15697 13.109 11.0554 12.0074C11.6882 11.648 12.2663 11.4527 12.6335 11.3121L17.5163 19.773C17.6804 20.0621 18.032 20.1558 18.321 19.9918C18.5945 19.8277 18.696 19.4605 18.5398 19.1793ZM12.0163 10.2496C11.5085 10.3902 10.907 10.734 10.4617 10.984C8.4226 12.1636 7.72729 13.898 5.87572 14.9605C5.6726 15.0777 5.08666 15.4058 4.53197 15.4371L1.56322 10.2965C2.07104 10.148 2.6726 9.81208 3.1101 9.56208C5.14916 8.38239 5.84447 6.65583 7.69604 5.58551C7.89916 5.46833 8.4851 5.13239 9.0476 5.10895L12.0163 10.2496ZM16.2351 10.2496L19.2038 5.10895C19.7663 5.13239 20.3445 5.46833 20.5476 5.58551C22.3992 6.65583 23.1023 8.38239 25.1413 9.56208C25.5788 9.81208 26.1804 10.148 26.6882 10.2965L23.7195 15.4371C23.1648 15.4058 22.5788 15.0777 22.3757 14.9605C20.5242 13.898 19.821 12.1636 17.782 10.984C17.3445 10.734 16.7429 10.3902 16.2351 10.2496ZM13.5867 14.8355L12.8992 13.6558L9.71166 19.1793C9.5476 19.4605 9.65697 19.8277 9.93041 19.9918C10.2195 20.1558 10.571 20.0621 10.7273 19.773L13.5867 14.8355Z"
		fill="currentColor"
	/>
</svg>
