<svg
	color="rgb(var(--foreground, 0, 0, 0))"
	viewBox="0 0 29 24"
	fill="none"
	xmlns="http://www.w3.org/2000/svg"
>
	<path
		d="M15.4744 10.6168L16.1541 11.7886L16.4275 11.3121C16.7947 11.4527 17.365 11.648 18.0057 12.0074C19.8963 13.109 20.6385 14.8433 22.5916 15.9761C23.1541 16.3121 23.7635 16.5543 24.2244 16.609C24.7869 16.6636 25.2791 16.4918 25.6307 15.8824L28.7791 10.4371C29.0213 10.0074 28.8338 9.61676 28.4354 9.38239C28.0916 9.18708 27.365 9.00739 26.5369 8.53083C24.6385 7.43708 23.9041 5.69489 21.951 4.56208C21.3885 4.23395 20.7713 3.99176 20.3182 3.93708C19.7557 3.88239 19.2635 4.06208 18.9119 4.67145L15.4744 10.6168ZM19.1307 19.9918C19.4041 19.8277 19.5057 19.4605 19.3494 19.1793L10.9588 4.67145C10.6072 4.06208 10.115 3.88239 9.55254 3.93708C9.09161 3.99176 8.48223 4.23395 7.91973 4.56208C5.9666 5.69489 5.22442 7.43708 3.32598 8.53083C2.49785 9.00739 1.7791 9.18708 1.43535 9.38239C1.0291 9.61676 0.849417 10.0074 1.0916 10.4371L4.23223 15.8824C4.58379 16.4918 5.08379 16.6636 5.63848 16.609C6.09942 16.5543 6.7166 16.3121 7.27129 15.9761C9.23223 14.8433 9.96661 13.109 11.865 12.0074C12.4979 11.648 13.076 11.4527 13.4432 11.3121L18.326 19.773C18.49 20.0621 18.8416 20.1558 19.1307 19.9918ZM8.80254 7.63239L7.87285 5.99958C8.06817 5.85895 8.28692 5.71833 8.50567 5.58551C8.70879 5.46833 9.29473 5.13239 9.85723 5.10895L10.8416 6.81989C10.5604 6.7652 10.0447 6.86676 9.39629 7.24176C9.23223 7.34333 8.99785 7.49958 8.80254 7.63239ZM19.0291 6.81989L20.0135 5.10895C20.576 5.13239 21.1541 5.46833 21.3572 5.58551C21.5838 5.71833 21.7947 5.85895 21.99 5.99958L21.0604 7.63239C20.8729 7.49958 20.6385 7.34333 20.4666 7.24176C19.8182 6.86676 19.3104 6.7652 19.0291 6.81989ZM8.11504 11.1324L7.04473 9.28083C7.61504 8.69489 8.09942 8.1402 8.80254 7.63239L9.88067 9.46833C9.18536 9.98395 8.7166 10.5074 8.11504 11.1324ZM19.99 9.46833L21.0604 7.63239C21.7713 8.1402 22.2557 8.69489 22.8182 9.28083L21.7557 11.1324C21.1541 10.5074 20.6854 9.98395 19.99 9.46833ZM5.27129 10.9136L4.3416 9.29645C5.06817 8.81208 5.61504 8.25739 6.13067 7.7027L7.04473 9.28083C6.49785 9.88239 5.95879 10.4293 5.27129 10.9136ZM22.8182 9.28083L23.74 7.7027C24.2557 8.25739 24.8025 8.81208 25.5291 9.29645L24.5994 10.9136C23.9119 10.4293 23.3729 9.88239 22.8182 9.28083ZM17.0447 10.2496L17.9666 8.66364C18.24 8.61676 18.7479 8.71833 19.4041 9.09333C19.6619 9.23395 19.7947 9.3277 19.99 9.46833L18.9744 11.2183C18.8494 11.1324 18.7244 11.0621 18.5916 10.984C18.1541 10.734 17.5525 10.3902 17.0447 10.2496ZM10.8885 11.2183L9.88067 9.46833C10.076 9.3277 10.2088 9.23395 10.4588 9.09333C11.1229 8.71833 11.6307 8.61676 11.9041 8.66364L12.826 10.2496C12.3182 10.3902 11.7166 10.734 11.2713 10.984C11.1385 11.0621 11.0135 11.1324 10.8885 11.2183ZM4.3416 13.7105L3.2791 11.8668C3.59942 11.7808 4.1541 11.5855 4.7791 11.2183C4.95098 11.1246 5.10723 11.0074 5.27129 10.9136L6.33379 12.7574C6.18535 12.8668 6.03692 12.9527 5.8416 13.0621C5.27129 13.3902 4.77129 13.6011 4.3416 13.7105ZM23.5369 12.7574L24.5994 10.9136C24.7635 11.0074 24.9197 11.1246 25.0916 11.2183C25.7166 11.5855 26.2713 11.7808 26.5916 11.8668L25.5291 13.7105C25.0994 13.6011 24.5916 13.3902 24.0291 13.0621C23.8338 12.9527 23.6854 12.8668 23.5369 12.7574ZM7.34942 14.5152L6.33379 12.7574C7.02129 12.2496 7.55254 11.7574 8.11504 11.1324L9.08379 12.8199C8.53692 13.4136 8.01348 14.0152 7.34942 14.5152ZM20.7791 12.8199L21.7557 11.1324C22.3182 11.7574 22.8416 12.2496 23.5369 12.7574L22.5213 14.5152C21.8572 14.0152 21.3338 13.4136 20.7791 12.8199ZM10.74 19.9918C11.0291 20.1558 11.3807 20.0621 11.5369 19.773L14.3963 14.8355L13.7088 13.6558L10.5213 19.1793C10.3572 19.4605 10.4666 19.8277 10.74 19.9918Z"
		fill="currentColor"
	/>
</svg>
