<svg
	color="rgb(var(--foreground, 0, 0, 0))"
	viewBox="0 0 28 24"
	fill="none"
	xmlns="http://www.w3.org/2000/svg"
>
	<path
		d="M14.5696 10.6168L15.2493 11.7886L15.5227 11.3121C15.8899 11.4527 16.4602 11.648 17.1008 12.0074C18.9914 13.109 19.7336 14.8433 21.6868 15.9761C22.2493 16.3121 22.8586 16.5543 23.3196 16.609C23.8821 16.6636 24.3743 16.4918 24.7258 15.8824L27.8743 10.4371C28.1164 10.0074 27.9289 9.61676 27.5305 9.38239C27.1868 9.18708 26.4602 9.00739 25.6321 8.53083C23.7336 7.43708 22.9993 5.69489 21.0461 4.56208C20.4836 4.23395 19.8664 3.99176 19.4133 3.93708C18.8508 3.88239 18.3586 4.06208 18.0071 4.67145L14.5696 10.6168ZM18.4446 19.1793L10.0539 4.67145C9.70238 4.06208 9.2102 3.88239 8.6477 3.93708C8.18676 3.99176 7.57738 4.23395 7.01488 4.56208C5.06176 5.69489 4.31957 7.43708 2.42113 8.53083C1.59301 9.00739 0.874259 9.18708 0.530509 9.38239C0.124259 9.61676 -0.0554288 10.0074 0.186759 10.4371L3.32738 15.8824C3.67895 16.4918 4.17895 16.6636 4.73363 16.609C5.19457 16.5543 5.81176 16.3121 6.36645 15.9761C8.32738 14.8433 9.06176 13.109 10.9602 12.0074C11.593 11.648 12.1711 11.4527 12.5383 11.3121L17.4211 19.773C17.5852 20.0621 17.9368 20.1558 18.2258 19.9918C18.4993 19.8277 18.6008 19.4605 18.4446 19.1793ZM13.4914 14.8355L12.8039 13.6558L9.61645 19.1793C9.45238 19.4605 9.56176 19.8277 9.8352 19.9918C10.1243 20.1558 10.4758 20.0621 10.6321 19.773L13.4914 14.8355Z"
		fill="currentColor"
	/>
</svg>
