<svg
	color="rgb(var(--foreground, 0, 0, 0))"
	viewBox="0 0 14 24"
	fill="none"
	xmlns="http://www.w3.org/2000/svg"
>
	<path
		d="M0.59375 19.6641C0.760417 19.6641 0.901042 19.6068 1.01562 19.4922C1.13021 19.3776 1.1875 19.2396 1.1875 19.0781V14.7344C1.28646 14.6927 1.51302 14.6224 1.86719 14.5234C2.22656 14.4193 2.69271 14.3672 3.26562 14.3672C3.98958 14.3672 4.65625 14.4401 5.26562 14.5859C5.88021 14.7266 6.47396 14.8906 7.04688 15.0781C7.61979 15.2604 8.20312 15.4245 8.79688 15.5703C9.39062 15.7109 10.0312 15.7812 10.7188 15.7812C11.125 15.7812 11.4583 15.7682 11.7188 15.7422C11.9792 15.7109 12.2057 15.6667 12.3984 15.6094C12.5911 15.5469 12.7865 15.4714 12.9844 15.3828C13.2552 15.263 13.4714 15.0964 13.6328 14.8828C13.7943 14.6641 13.875 14.375 13.875 14.0156V6.08594C13.875 5.8724 13.7969 5.70833 13.6406 5.59375C13.4844 5.47917 13.2917 5.42188 13.0625 5.42188C12.8698 5.42188 12.5807 5.47656 12.1953 5.58594C11.8151 5.69531 11.2891 5.75 10.6172 5.75C9.92969 5.75 9.28906 5.67969 8.69531 5.53906C8.10156 5.39323 7.51823 5.22656 6.94531 5.03906C6.3724 4.85156 5.77865 4.6875 5.16406 4.54688C4.55469 4.40625 3.88802 4.33594 3.16406 4.33594C2.75781 4.33594 2.42188 4.35156 2.15625 4.38281C1.89583 4.40885 1.66927 4.45312 1.47656 4.51562C1.28385 4.57292 1.08854 4.64583 0.890625 4.73438C0.625 4.85417 0.408854 5.02344 0.242188 5.24219C0.0807292 5.45573 0 5.73958 0 6.09375V19.0781C0 19.2344 0.0572917 19.3698 0.171875 19.4844C0.291667 19.6042 0.432292 19.6641 0.59375 19.6641ZM10.7188 14.6016C10.0677 14.6016 9.45312 14.5312 8.875 14.3906C8.29688 14.2448 7.71875 14.0807 7.14062 13.8984C6.56771 13.7109 5.96615 13.5469 5.33594 13.4062C4.70573 13.2604 4.01562 13.1875 3.26562 13.1875C2.83854 13.1875 2.4401 13.2135 2.07031 13.2656C1.70052 13.3125 1.40625 13.3802 1.1875 13.4688V6.13281C1.23958 6.0026 1.42969 5.86719 1.75781 5.72656C2.08594 5.58594 2.55469 5.51562 3.16406 5.51562C3.85156 5.51562 4.49219 5.58854 5.08594 5.73438C5.6849 5.875 6.27083 6.03906 6.84375 6.22656C7.42188 6.40885 8.01562 6.57292 8.625 6.71875C9.23958 6.85938 9.90365 6.92969 10.6172 6.92969C11.0443 6.92969 11.4323 6.90625 11.7812 6.85938C12.1302 6.8125 12.4349 6.7526 12.6953 6.67969V13.9844C12.6432 14.1146 12.4531 14.25 12.125 14.3906C11.7969 14.5312 11.3281 14.6016 10.7188 14.6016Z"
		fill="currentColor"
	/>
</svg>
