<svg
	color="rgb(var(--foreground, 0, 0, 0))"
	viewBox="0 0 15 24"
	fill="none"
	xmlns="http://www.w3.org/2000/svg"
>
	<path
		d="M0.891296 19.6641C1.05796 19.6641 1.19859 19.6068 1.31317 19.4922C1.42775 19.3776 1.48505 19.2396 1.48505 19.0781V14.7344C1.584 14.6927 1.81057 14.6224 2.16473 14.5234C2.52411 14.4193 2.99025 14.3672 3.56317 14.3672C4.28713 14.3672 4.9538 14.4401 5.56317 14.5859C6.17775 14.7266 6.7715 14.8906 7.34442 15.0781C7.91734 15.2604 8.50067 15.4245 9.09442 15.5703C9.68817 15.7109 10.3288 15.7812 11.0163 15.7812C11.4225 15.7812 11.7559 15.7682 12.0163 15.7422C12.2767 15.7109 12.5033 15.6667 12.696 15.6094C12.8887 15.5469 13.084 15.4714 13.2819 15.3828C13.5528 15.263 13.7689 15.0964 13.9304 14.8828C14.0918 14.6641 14.1725 14.375 14.1725 14.0156V6.08594C14.1725 5.8724 14.0944 5.70833 13.9382 5.59375C13.7819 5.47917 13.5892 5.42188 13.36 5.42188C13.1673 5.42188 12.8783 5.47656 12.4929 5.58594C12.1127 5.69531 11.5866 5.75 10.9147 5.75C10.2272 5.75 9.58661 5.67969 8.99286 5.53906C8.39911 5.39323 7.81578 5.22656 7.24286 5.03906C6.66994 4.85156 6.07619 4.6875 5.46161 4.54688C4.85223 4.40625 4.18557 4.33594 3.46161 4.33594C3.05536 4.33594 2.71942 4.35156 2.4538 4.38281C2.19338 4.40885 1.96682 4.45312 1.77411 4.51562C1.5814 4.57292 1.38609 4.64583 1.18817 4.73438C0.922546 4.85417 0.706401 5.02344 0.539734 5.24219C0.378276 5.45573 0.297546 5.73958 0.297546 6.09375V19.0781C0.297546 19.2344 0.354838 19.3698 0.469421 19.4844C0.589213 19.6042 0.729838 19.6641 0.891296 19.6641ZM1.48505 11.1641V8.51562C1.53713 8.38542 1.72723 8.25 2.05536 8.10938C2.38348 7.96875 2.85223 7.89844 3.46161 7.89844C3.58661 7.89844 3.72723 7.90365 3.88348 7.91406C4.04494 7.91927 4.19338 7.92969 4.3288 7.94531V5.5625C4.85484 5.61979 5.35484 5.71615 5.8288 5.85156C6.30796 5.98177 6.78713 6.11719 7.2663 6.25781V8.64062C7.75067 8.79167 8.22723 8.92448 8.69598 9.03906C9.16994 9.15365 9.66994 9.23438 10.196 9.28125V6.89844C10.3106 6.90885 10.4278 6.91667 10.5475 6.92188C10.6673 6.92708 10.7897 6.92969 10.9147 6.92969C11.3418 6.92969 11.7298 6.90625 12.0788 6.85938C12.4278 6.8125 12.7324 6.7526 12.9929 6.67969V9.0625C12.8002 9.11458 12.5215 9.16927 12.1569 9.22656C11.7975 9.28385 11.3835 9.3125 10.9147 9.3125C10.7949 9.3125 10.6725 9.3099 10.5475 9.30469C10.4278 9.29427 10.3106 9.28646 10.196 9.28125V11.9297C10.3106 11.9401 10.4225 11.9479 10.5319 11.9531C10.6465 11.9583 10.7741 11.9609 10.9147 11.9609C11.3418 11.9609 11.7298 11.9375 12.0788 11.8906C12.4278 11.8438 12.7324 11.7839 12.9929 11.7109V13.9844C12.9408 14.1146 12.7507 14.25 12.4225 14.3906C12.0944 14.5312 11.6257 14.6016 11.0163 14.6016C10.8757 14.6016 10.7377 14.599 10.6022 14.5938C10.4668 14.5833 10.3314 14.5703 10.196 14.5547V11.9297C9.84703 11.8932 9.51109 11.8464 9.18817 11.7891C8.87046 11.7266 8.55275 11.6562 8.23505 11.5781C7.92255 11.4948 7.59963 11.3984 7.2663 11.2891V13.8438C6.81317 13.7083 6.34703 13.5807 5.86786 13.4609C5.38869 13.3411 4.87567 13.2578 4.3288 13.2109V10.5938C4.17775 10.5781 4.04234 10.5677 3.92255 10.5625C3.80275 10.5521 3.64911 10.5469 3.46161 10.5469C2.85223 10.5469 2.38348 10.6172 2.05536 10.7578C1.72723 10.8984 1.53713 11.0339 1.48505 11.1641ZM4.3288 10.5938C4.87046 10.6562 5.36525 10.75 5.81317 10.875C6.26109 11 6.74546 11.138 7.2663 11.2891V8.64062C6.77671 8.49479 6.30015 8.35677 5.83661 8.22656C5.37307 8.09115 4.87046 7.9974 4.3288 7.94531V10.5938Z"
		fill="currentColor"
	/>
</svg>
