<svg
	color="rgb(var(--foreground, 0, 0, 0))"
	viewBox="0 0 16 24"
	fill="none"
	xmlns="http://www.w3.org/2000/svg"
>
	<path
		d="M0.92218 19.8322C0.92218 19.9884 0.979472 20.1238 1.09406 20.2384C1.21385 20.3582 1.35447 20.4181 1.51593 20.4181C1.6826 20.4181 1.82322 20.3608 1.93781 20.2462C2.05239 20.1317 2.10968 19.9936 2.10968 19.8322V15.4884C2.20864 15.4468 2.4352 15.3764 2.78937 15.2775C3.14874 15.1733 3.61489 15.1212 4.18781 15.1212C4.88051 15.1212 5.51853 15.1863 6.10187 15.3165C6.69041 15.4468 7.25812 15.6004 7.80499 15.7775C8.35187 15.9546 8.90656 16.116 9.46906 16.2619C10.0368 16.4077 10.6487 16.4962 11.305 16.5275L1.07843 6.31655C1.03156 6.38947 0.992493 6.47019 0.961243 6.55874C0.935201 6.64728 0.92218 6.74363 0.92218 6.8478V19.8322ZM4.21124 5.08999L14.6019 15.4728C14.6696 15.379 14.7191 15.2749 14.7503 15.1603C14.7816 15.0405 14.7972 14.9103 14.7972 14.7697V6.83999C14.7972 6.62644 14.7191 6.46238 14.5628 6.3478C14.4066 6.23322 14.2138 6.17592 13.9847 6.17592C13.792 6.17592 13.5029 6.23061 13.1175 6.33999C12.7373 6.44936 12.2112 6.50405 11.5394 6.50405C10.8675 6.50405 10.2373 6.43634 9.64874 6.30092C9.06541 6.1603 8.49249 5.99884 7.92999 5.81655C7.36749 5.62905 6.78416 5.46499 6.17999 5.32436C5.57583 5.17853 4.91958 5.1004 4.21124 5.08999ZM14.2737 18.1759C14.3935 18.2905 14.5368 18.3478 14.7034 18.3478C14.8701 18.3478 15.0107 18.2905 15.1253 18.1759C15.2399 18.0561 15.2972 17.9129 15.2972 17.7462C15.3024 17.5796 15.2451 17.4389 15.1253 17.3244L1.55499 3.75405C1.4352 3.63947 1.29197 3.58217 1.12531 3.58217C0.958639 3.57697 0.815409 3.63426 0.695618 3.75405C0.581034 3.86863 0.523743 4.01186 0.523743 4.18374C0.523743 4.3504 0.581034 4.49103 0.695618 4.60561L14.2737 18.1759Z"
		fill="currentColor"
	/>
</svg>
