<svg
	color="rgb(var(--foreground, 0, 0, 0))"
	viewBox="0 0 16 24"
	fill="none"
	xmlns="http://www.w3.org/2000/svg"
>
	<path
		d="M1.74219 20.4181C1.90885 20.4181 2.04948 20.3608 2.16406 20.2462C2.27865 20.1317 2.33594 19.9936 2.33594 19.8322V15.4884C2.4349 15.4468 2.66146 15.3764 3.01562 15.2775C3.375 15.1733 3.84115 15.1212 4.41406 15.1212C5.10677 15.1212 5.74479 15.1863 6.32812 15.3165C6.91667 15.4468 7.48438 15.6004 8.03125 15.7775C8.57812 15.9546 9.13281 16.116 9.69531 16.2619C10.263 16.4077 10.875 16.4962 11.5312 16.5275L10.125 15.1134C9.66146 15.0249 9.20833 14.9155 8.76562 14.7853C8.32812 14.6551 7.88281 14.5275 7.42969 14.4025C6.97656 14.2723 6.5026 14.1629 6.00781 14.0744C5.51302 13.9858 4.98177 13.9415 4.41406 13.9415C3.98698 13.9415 3.58854 13.9676 3.21875 14.0197C2.84896 14.0665 2.55469 14.1343 2.33594 14.2228V7.41811L1.25 6.33217C1.18229 6.45197 1.14844 6.61342 1.14844 6.81655V19.8322C1.14844 19.9884 1.20573 20.1238 1.32031 20.2384C1.4401 20.3582 1.58073 20.4181 1.74219 20.4181ZM14.8672 15.4337C14.9245 15.3504 14.9635 15.2567 14.9844 15.1525C15.0104 15.0431 15.0234 14.9155 15.0234 14.7697V6.83999C15.0234 6.62644 14.9453 6.46238 14.7891 6.3478C14.6328 6.23322 14.4401 6.17592 14.2109 6.17592C14.0182 6.17592 13.7292 6.23061 13.3438 6.33999C12.9635 6.44936 12.4375 6.50405 11.7656 6.50405C11.0938 6.50405 10.4635 6.43634 9.875 6.30092C9.29167 6.1603 8.71875 5.99884 8.15625 5.81655C7.59375 5.62905 7.01042 5.46499 6.40625 5.32436C5.80208 5.17853 5.14583 5.1004 4.4375 5.08999L5.76562 6.41811C6.27604 6.50144 6.76562 6.61342 7.23438 6.75405C7.70833 6.88947 8.18229 7.03009 8.65625 7.17592C9.13021 7.31655 9.61979 7.43634 10.125 7.5353C10.6354 7.63426 11.1823 7.68374 11.7656 7.68374C12.1927 7.68374 12.5807 7.6603 12.9297 7.61342C13.2786 7.56655 13.5833 7.50665 13.8438 7.43374V14.4025L14.8672 15.4337ZM14.5 18.1759C14.6198 18.2905 14.763 18.3478 14.9297 18.3478C15.0964 18.3478 15.237 18.2905 15.3516 18.1759C15.4661 18.0561 15.5234 17.9129 15.5234 17.7462C15.5286 17.5796 15.4714 17.4389 15.3516 17.3244L1.78125 3.75405C1.66146 3.63947 1.51823 3.58217 1.35156 3.58217C1.1849 3.57697 1.04167 3.63426 0.921875 3.75405C0.807292 3.86863 0.75 4.01186 0.75 4.18374C0.75 4.3504 0.807292 4.49103 0.921875 4.60561L14.5 18.1759Z"
		fill="currentColor"
	/>
</svg>
