<svg
	color="rgb(var(--foreground, 0, 0, 0))"
	viewBox="0 0 15 24"
	fill="none"
	xmlns="http://www.w3.org/2000/svg"
>
	<path
		d="M1.46875 19.6641C1.63542 19.6641 1.77604 19.6068 1.89062 19.4922C2.00521 19.3776 2.0625 19.2396 2.0625 19.0781V14.7344C2.16146 14.6927 2.38802 14.6224 2.74219 14.5234C3.10156 14.4193 3.56771 14.3672 4.14062 14.3672C4.86458 14.3672 5.53125 14.4401 6.14062 14.5859C6.75521 14.7266 7.34896 14.8906 7.92188 15.0781C8.49479 15.2604 9.07812 15.4245 9.67188 15.5703C10.2656 15.7109 10.9062 15.7812 11.5938 15.7812C12 15.7812 12.3333 15.7682 12.5938 15.7422C12.8542 15.7109 13.0807 15.6667 13.2734 15.6094C13.4661 15.5469 13.6615 15.4714 13.8594 15.3828C14.1302 15.263 14.3464 15.0964 14.5078 14.8828C14.6693 14.6641 14.75 14.375 14.75 14.0156V6.08594C14.75 5.8724 14.6719 5.70833 14.5156 5.59375C14.3594 5.47917 14.1667 5.42188 13.9375 5.42188C13.7448 5.42188 13.4557 5.47656 13.0703 5.58594C12.6901 5.69531 12.1641 5.75 11.4922 5.75C10.8047 5.75 10.1641 5.67969 9.57031 5.53906C8.97656 5.39323 8.39323 5.22656 7.82031 5.03906C7.2474 4.85156 6.65365 4.6875 6.03906 4.54688C5.42969 4.40625 4.76302 4.33594 4.03906 4.33594C3.63281 4.33594 3.29688 4.35156 3.03125 4.38281C2.77083 4.40885 2.54427 4.45312 2.35156 4.51562C2.15885 4.57292 1.96354 4.64583 1.76562 4.73438C1.5 4.85417 1.28385 5.02344 1.11719 5.24219C0.955729 5.45573 0.875 5.73958 0.875 6.09375V19.0781C0.875 19.2344 0.932292 19.3698 1.04688 19.4844C1.16667 19.6042 1.30729 19.6641 1.46875 19.6641Z"
		fill="currentColor"
	/>
</svg>
